<svg id="kanjivg" width="106" height="126" xmlns="http://www.w3.org/2000/svg" xmlns:xlink="http://www.w3.org/1999/xlink" xml:space="preserve" version="1.1" baseProfile="full"><defs><style type="text/css"><![CDATA[path.black { fill:none;stroke:black;stroke-width:5;stroke-linecap:round;stroke-linejoin:round; }path.grey { fill:none;stroke:#ddd;stroke-width:5;stroke-linecap:round;stroke-linejoin:round; }path.stroke { fill:none;stroke:black;stroke-width:5;stroke-linecap:round;stroke-linejoin:round; }rect { fill:none;stroke:#555;stroke-width:2;} text{font-size:16px;font-family:Segoe UI Symbol,Cambria Math,DejaVu Sans,Symbola,Quivira,STIX,Code2000;-webkit-touch-callout:none;cursor:pointer;-webkit-user-select:none;-khtml-user-select:none;-moz-user-select:none;-ms-user-select:none;user-select: none;} #reset { font-weight:bold; }]]></style><marker id="markerStart" markerWidth="8" markerHeight="8" style="overflow:visible;"><circle cx="0" cy="0" r="1.5" style="stroke:none;fill:red;fill-opacity:0.5;"/></marker><marker id="markerEnd" style="overflow:visible;"><circle cx="0" cy="0" r="0.8" style="stroke:none;fill:blue;fill-opacity:0.5;"><animate attributeName="opacity" from="1" to="0" dur="3s" repeatCount="indefinite" /></circle></marker></defs><rect x="4" y="4" width="100" height="100" /><path d="M31.09,49.46c1.09,0.81,2.88,1.92,4.77,1.71c1.89-0.2,15.59-4.14,16.78-4.64c1.19-0.5,3.18-1.01,4.67-1.61" class="grey" /><path d="M46.14,34.12c1.42,1.38,2.35,3.54,1.98,5.95c-1.99,13.01-2.43,36.74-1.54,47.11c0.6,6.96-0.51,8.43-5.66,5.75c-4.07-2.12-10.92-6.46-10.92-9.99c0-6.05,19.36-19.07,35.55-19.07c13.7,0,19.86,6.66,19.86,13.92c0,6.66-7.45,15.23-21.25,16.95" class="grey" /><path d="M70.92,38.97c4.27,2.12,6.97,4.8,8.44,6.66c3.57,4.5,0.3,3.63-0.89,4.04" class="grey" /><path d="M31.09,49.46c1.09,0.81,2.88,1.92,4.77,1.71c1.89-0.2,15.59-4.14,16.78-4.64c1.19-0.5,3.18-1.01,4.67-1.61" class="stroke" stroke-dasharray="150"><animate attributeName="stroke-dashoffset" from="150" to="0" dur="1.8s" begin="0s" fill="freeze" /></path><path d="M46.14,34.12c1.42,1.38,2.35,3.54,1.98,5.95c-1.99,13.01-2.43,36.74-1.54,47.11c0.6,6.96-0.51,8.43-5.66,5.75c-4.07-2.12-10.92-6.46-10.92-9.99c0-6.05,19.36-19.07,35.55-19.07c13.7,0,19.86,6.66,19.86,13.92c0,6.66-7.45,15.23-21.25,16.95" class="stroke" stroke-dasharray="200"><set attributeName="opacity" to="0" dur="1.0s" /><animate attributeName="stroke-dashoffset" from="200" to="0" dur="1.8s" begin="1.0s" fill="freeze" /></path><path d="M70.92,38.97c4.27,2.12,6.97,4.8,8.44,6.66c3.57,4.5,0.3,3.63-0.89,4.04" class="stroke" stroke-dasharray="150"><set attributeName="opacity" to="0" dur="3.0s" /><animate attributeName="stroke-dashoffset" from="150" to="0" dur="1.8s" begin="3.0s" fill="freeze" /></path><text x="90" y="120" id="reset">⟳</text><text x="70" y="120" id="pause">◼</text><script type="text/javascript"><![CDATA[function RecurringTimer(e,t){var n,r,i=t;this.pause=function(){window.clearTimeout(n);i-=new Date-r};var s=function(){r=new Date;n=window.setTimeout(function(){i=t;s();e()},i)};this.clear=function(){window.clearTimeout(n);i=t;n=window.setTimeout(function(){i=t;s();e()},i)};this.resume=s;this.resume()}function invoketimer(){timer=new RecurringTimer(function(){svg.setCurrentTime(0)},4900)}var svg=document.getElementById("kanjivg");var pause=document.getElementById("pause");var reset=document.getElementById("reset");var timer;invoketimer();reset.onclick=function(){svg.setCurrentTime(0);timer.clear();svg.unpauseAnimations();pause.innerHTML = "◼";};pause.onclick=function(){if(svg.animationsPaused()){svg.unpauseAnimations();timer.resume();pause.innerHTML="◼"}else{svg.pauseAnimations();timer.pause();pause.innerHTML="▶"}}]]></script></svg>