<svg id="kanjivg" width="106" height="126" xmlns="http://www.w3.org/2000/svg" xmlns:xlink="http://www.w3.org/1999/xlink" xml:space="preserve" version="1.1" baseProfile="full"><defs><style type="text/css"><![CDATA[path.black { fill:none;stroke:black;stroke-width:5;stroke-linecap:round;stroke-linejoin:round; }path.grey { fill:none;stroke:#ddd;stroke-width:5;stroke-linecap:round;stroke-linejoin:round; }path.stroke { fill:none;stroke:black;stroke-width:5;stroke-linecap:round;stroke-linejoin:round; }rect { fill:none;stroke:#555;stroke-width:2;} text{font-size:16px;font-family:Segoe UI Symbol,Cambria Math,DejaVu Sans,Symbola,Quivira,STIX,Code2000;-webkit-touch-callout:none;cursor:pointer;-webkit-user-select:none;-khtml-user-select:none;-moz-user-select:none;-ms-user-select:none;user-select: none;} #reset { font-weight:bold; }]]></style><marker id="markerStart" markerWidth="8" markerHeight="8" style="overflow:visible;"><circle cx="0" cy="0" r="1.5" style="stroke:none;fill:red;fill-opacity:0.5;"/></marker><marker id="markerEnd" style="overflow:visible;"><circle cx="0" cy="0" r="0.8" style="stroke:none;fill:blue;fill-opacity:0.5;"><animate attributeName="opacity" from="1" to="0" dur="3s" repeatCount="indefinite" /></circle></marker></defs><rect x="4" y="4" width="100" height="100" /><path d="M35.72,46.75c0.7,0.7,2.21,1.47,4.22,1.4c8.56-0.28,16.06-1.7,23.69-3.41c1.21-0.27,3.72-0.7,5.32-0.4" class="grey" /><path d="M51.03,34.43c0.7,0.8,1.21,2.87,0.85,4.46c-3.01,13.43-5.02,30.31-4.12,42.73c0.33,4.57,1.51,8.72,2.71,10.92" class="grey" /><path d="M63.53,55.67c0.6,0.9,0.93,3.52,0.4,4.91c-3.71,9.82-9.04,19.04-20.38,28.66c-5.51,4.67-12.75,3-13.05-6.71c-0.27-8.72,10.74-18.54,26-21.44c9.97-1.9,21.75,1.67,24.5,10.22c3.39,10.53-3.01,21.14-16.77,24.45" class="grey" /><path d="M35.72,46.75c0.7,0.7,2.21,1.47,4.22,1.4c8.56-0.28,16.06-1.7,23.69-3.41c1.21-0.27,3.72-0.7,5.32-0.4" class="stroke" stroke-dasharray="150"><animate attributeName="stroke-dashoffset" from="150" to="0" dur="1.8s" begin="0s" fill="freeze" /></path><path d="M51.03,34.43c0.7,0.8,1.21,2.87,0.85,4.46c-3.01,13.43-5.02,30.31-4.12,42.73c0.33,4.57,1.51,8.72,2.71,10.92" class="stroke" stroke-dasharray="150"><set attributeName="opacity" to="0" dur="1.0s" /><animate attributeName="stroke-dashoffset" from="150" to="0" dur="1.8s" begin="1.0s" fill="freeze" /></path><path d="M63.53,55.67c0.6,0.9,0.93,3.52,0.4,4.91c-3.71,9.82-9.04,19.04-20.38,28.66c-5.51,4.67-12.75,3-13.05-6.71c-0.27-8.72,10.74-18.54,26-21.44c9.97-1.9,21.75,1.67,24.5,10.22c3.39,10.53-3.01,21.14-16.77,24.45" class="stroke" stroke-dasharray="200"><set attributeName="opacity" to="0" dur="2.4s" /><animate attributeName="stroke-dashoffset" from="200" to="0" dur="1.8s" begin="2.4s" fill="freeze" /></path><text x="90" y="120" id="reset">⟳</text><text x="70" y="120" id="pause">◼</text><script type="text/javascript"><![CDATA[function RecurringTimer(e,t){var n,r,i=t;this.pause=function(){window.clearTimeout(n);i-=new Date-r};var s=function(){r=new Date;n=window.setTimeout(function(){i=t;s();e()},i)};this.clear=function(){window.clearTimeout(n);i=t;n=window.setTimeout(function(){i=t;s();e()},i)};this.resume=s;this.resume()}function invoketimer(){timer=new RecurringTimer(function(){svg.setCurrentTime(0)},5400)}var svg=document.getElementById("kanjivg");var pause=document.getElementById("pause");var reset=document.getElementById("reset");var timer;invoketimer();reset.onclick=function(){svg.setCurrentTime(0);timer.clear();svg.unpauseAnimations();pause.innerHTML = "◼";};pause.onclick=function(){if(svg.animationsPaused()){svg.unpauseAnimations();timer.resume();pause.innerHTML="◼"}else{svg.pauseAnimations();timer.pause();pause.innerHTML="▶"}}]]></script></svg>