<svg id="kanjivg" width="106" height="126" xmlns="http://www.w3.org/2000/svg" xmlns:xlink="http://www.w3.org/1999/xlink" xml:space="preserve" version="1.1" baseProfile="full"><defs><style type="text/css"><![CDATA[path.black { fill:none;stroke:black;stroke-width:5;stroke-linecap:round;stroke-linejoin:round; }path.grey { fill:none;stroke:#ddd;stroke-width:5;stroke-linecap:round;stroke-linejoin:round; }path.stroke { fill:none;stroke:black;stroke-width:5;stroke-linecap:round;stroke-linejoin:round; }rect { fill:none;stroke:#555;stroke-width:2;} text{font-size:16px;font-family:Segoe UI Symbol,Cambria Math,DejaVu Sans,Symbola,Quivira,STIX,Code2000;-webkit-touch-callout:none;cursor:pointer;-webkit-user-select:none;-khtml-user-select:none;-moz-user-select:none;-ms-user-select:none;user-select: none;} #reset { font-weight:bold; }]]></style><marker id="markerStart" markerWidth="8" markerHeight="8" style="overflow:visible;"><circle cx="0" cy="0" r="1.5" style="stroke:none;fill:red;fill-opacity:0.5;"/></marker><marker id="markerEnd" style="overflow:visible;"><circle cx="0" cy="0" r="0.8" style="stroke:none;fill:blue;fill-opacity:0.5;"><animate attributeName="opacity" from="1" to="0" dur="3s" repeatCount="indefinite" /></circle></marker></defs><rect x="4" y="4" width="100" height="100" /><path d="M44.63,30.47c4.74,1.79,6.92,2.41,10.84,2.53c11.71,0.35,3.21,1.51-0.32,4.13" class="grey" /><path d="M37.78,56.18c1.47,0.98,3.52,1.37,5.77,0.49c2.57-1.01,13.29-6.16,16.61-7.72c3.32-1.56,6.5,0.03,3.42,3.62c-9.58,11.13-21.31,24.62-30.89,34.68c-2.55,2.68-0.45,2.77,1.17,1.08c10.55-11.04,14.17-15.73,18.47-15.73c5.57,0,2.74,13.09,5.28,17.49c2.54,4.4,14.95,2.93,20.42,1.66" class="grey" /><path d="M44.63,30.47c4.74,1.79,6.92,2.41,10.84,2.53c11.71,0.35,3.21,1.51-0.32,4.13" class="stroke" stroke-dasharray="150"><animate attributeName="stroke-dashoffset" from="150" to="0" dur="1.8s" begin="0s" fill="freeze" /></path><path d="M37.78,56.18c1.47,0.98,3.52,1.37,5.77,0.49c2.57-1.01,13.29-6.16,16.61-7.72c3.32-1.56,6.5,0.03,3.42,3.62c-9.58,11.13-21.31,24.62-30.89,34.68c-2.55,2.68-0.45,2.77,1.17,1.08c10.55-11.04,14.17-15.73,18.47-15.73c5.57,0,2.74,13.09,5.28,17.49c2.54,4.4,14.95,2.93,20.42,1.66" class="stroke" stroke-dasharray="200"><set attributeName="opacity" to="0" dur="1.0s" /><animate attributeName="stroke-dashoffset" from="200" to="0" dur="1.8s" begin="1.0s" fill="freeze" /></path><text x="90" y="120" id="reset">⟳</text><text x="70" y="120" id="pause">◼</text><script type="text/javascript"><![CDATA[function RecurringTimer(e,t){var n,r,i=t;this.pause=function(){window.clearTimeout(n);i-=new Date-r};var s=function(){r=new Date;n=window.setTimeout(function(){i=t;s();e()},i)};this.clear=function(){window.clearTimeout(n);i=t;n=window.setTimeout(function(){i=t;s();e()},i)};this.resume=s;this.resume()}function invoketimer(){timer=new RecurringTimer(function(){svg.setCurrentTime(0)},4000)}var svg=document.getElementById("kanjivg");var pause=document.getElementById("pause");var reset=document.getElementById("reset");var timer;invoketimer();reset.onclick=function(){svg.setCurrentTime(0);timer.clear();svg.unpauseAnimations();pause.innerHTML = "◼";};pause.onclick=function(){if(svg.animationsPaused()){svg.unpauseAnimations();timer.resume();pause.innerHTML="◼"}else{svg.pauseAnimations();timer.pause();pause.innerHTML="▶"}}]]></script></svg>