<svg id="kanjivg" width="106" height="126" xmlns="http://www.w3.org/2000/svg" xmlns:xlink="http://www.w3.org/1999/xlink" xml:space="preserve" version="1.1" baseProfile="full"><defs><style type="text/css"><![CDATA[path.black { fill:none;stroke:black;stroke-width:5;stroke-linecap:round;stroke-linejoin:round; }path.grey { fill:none;stroke:#ddd;stroke-width:5;stroke-linecap:round;stroke-linejoin:round; }path.stroke { fill:none;stroke:black;stroke-width:5;stroke-linecap:round;stroke-linejoin:round; }rect { fill:none;stroke:#555;stroke-width:2;} text{font-size:16px;font-family:Segoe UI Symbol,Cambria Math,DejaVu Sans,Symbola,Quivira,STIX,Code2000;-webkit-touch-callout:none;cursor:pointer;-webkit-user-select:none;-khtml-user-select:none;-moz-user-select:none;-ms-user-select:none;user-select: none;} #reset { font-weight:bold; }]]></style><marker id="markerStart" markerWidth="8" markerHeight="8" style="overflow:visible;"><circle cx="0" cy="0" r="1.5" style="stroke:none;fill:red;fill-opacity:0.5;"/></marker><marker id="markerEnd" style="overflow:visible;"><circle cx="0" cy="0" r="0.8" style="stroke:none;fill:blue;fill-opacity:0.5;"><animate attributeName="opacity" from="1" to="0" dur="3s" repeatCount="indefinite" /></circle></marker></defs><rect x="4" y="4" width="100" height="100" /><path d="M21.05,25.38c1.38,1.5,2.02,4.13,1.5,6.25c-2.88,11.75-4,22.25-2.12,35c2.77,18.85,1.12,3.88,3.25-1.5c9-22.75,27.24-34.5,44.38-34.5c16.88,0,21.88,11.38,21.88,20.25c0,27.38-30.88,29.62-43,16.75" class="grey" /><path d="M58.42,16.75c2.62,1.75,3.17,3.13,3.5,7.12c0.88,10.5,1.4,18.72,1.62,29.38c0.5,24-6.25,32-12.38,39.25" class="grey" /><path d="M21.05,25.38c1.38,1.5,2.02,4.13,1.5,6.25c-2.88,11.75-4,22.25-2.12,35c2.77,18.85,1.12,3.88,3.25-1.5c9-22.75,27.24-34.5,44.38-34.5c16.88,0,21.88,11.38,21.88,20.25c0,27.38-30.88,29.62-43,16.75" class="stroke" stroke-dasharray="250"><animate attributeName="stroke-dashoffset" from="250" to="0" dur="1.8s" begin="0s" fill="freeze" /></path><path d="M58.42,16.75c2.62,1.75,3.17,3.13,3.5,7.12c0.88,10.5,1.4,18.72,1.62,29.38c0.5,24-6.25,32-12.38,39.25" class="stroke" stroke-dasharray="150"><set attributeName="opacity" to="0" dur="2.0s" /><animate attributeName="stroke-dashoffset" from="150" to="0" dur="1.8s" begin="2.0s" fill="freeze" /></path><text x="90" y="120" id="reset">⟳</text><text x="70" y="120" id="pause">◼</text><script type="text/javascript"><![CDATA[function RecurringTimer(e,t){var n,r,i=t;this.pause=function(){window.clearTimeout(n);i-=new Date-r};var s=function(){r=new Date;n=window.setTimeout(function(){i=t;s();e()},i)};this.clear=function(){window.clearTimeout(n);i=t;n=window.setTimeout(function(){i=t;s();e()},i)};this.resume=s;this.resume()}function invoketimer(){timer=new RecurringTimer(function(){svg.setCurrentTime(0)},4700)}var svg=document.getElementById("kanjivg");var pause=document.getElementById("pause");var reset=document.getElementById("reset");var timer;invoketimer();reset.onclick=function(){svg.setCurrentTime(0);timer.clear();svg.unpauseAnimations();pause.innerHTML = "◼";};pause.onclick=function(){if(svg.animationsPaused()){svg.unpauseAnimations();timer.resume();pause.innerHTML="◼"}else{svg.pauseAnimations();timer.pause();pause.innerHTML="▶"}}]]></script></svg>