<svg id="kanjivg" width="106" height="126" xmlns="http://www.w3.org/2000/svg" xmlns:xlink="http://www.w3.org/1999/xlink" xml:space="preserve" version="1.1" baseProfile="full"><defs><style type="text/css"><![CDATA[path.black { fill:none;stroke:black;stroke-width:5;stroke-linecap:round;stroke-linejoin:round; }path.grey { fill:none;stroke:#ddd;stroke-width:5;stroke-linecap:round;stroke-linejoin:round; }path.stroke { fill:none;stroke:black;stroke-width:5;stroke-linecap:round;stroke-linejoin:round; }rect { fill:none;stroke:#555;stroke-width:2;} text{font-size:16px;font-family:Segoe UI Symbol,Cambria Math,DejaVu Sans,Symbola,Quivira,STIX,Code2000;-webkit-touch-callout:none;cursor:pointer;-webkit-user-select:none;-khtml-user-select:none;-moz-user-select:none;-ms-user-select:none;user-select: none;} #reset { font-weight:bold; }]]></style><marker id="markerStart" markerWidth="8" markerHeight="8" style="overflow:visible;"><circle cx="0" cy="0" r="1.5" style="stroke:none;fill:red;fill-opacity:0.5;"/></marker><marker id="markerEnd" style="overflow:visible;"><circle cx="0" cy="0" r="0.8" style="stroke:none;fill:blue;fill-opacity:0.5;"><animate attributeName="opacity" from="1" to="0" dur="3s" repeatCount="indefinite" /></circle></marker></defs><rect x="4" y="4" width="100" height="100" /><path d="M39.58,20.71c1.46,1.04,3.77,2.35,7.07,1.75c3.84-0.71,8.01-2.08,13-3.85c4.99-1.77,6.73,0.8,3.64,4.04c-6.8,7.11-17.87,18.91-26.34,28.04c-7.7,8.31-10.18,9.7,1.13,2.2c16.05-10.64,37.05-13.39,37.05,1.61c0,14.5-31.38,14.5-31.38,5.25c0-5.62,10.75-5.25,10.75-1c0,3.5-3.84,5.93-7.25,8.38c-5.75,4.12-14.86,10.78-25.25,17.5c-8.5,5.5-6.46,7.93,1.38,2.62c8.5-5.75,9.23-5.58,17.38-1.38c11.12,5.75,11.24,5.74,18-0.38c13.25-12,24.25-8.12,31.5,0.5c8.47,10.07-3.12,2.62-5.25,3.75" class="grey" /><path d="M39.58,20.71c1.46,1.04,3.77,2.35,7.07,1.75c3.84-0.71,8.01-2.08,13-3.85c4.99-1.77,6.73,0.8,3.64,4.04c-6.8,7.11-17.87,18.91-26.34,28.04c-7.7,8.31-10.18,9.7,1.13,2.2c16.05-10.64,37.05-13.39,37.05,1.61c0,14.5-31.38,14.5-31.38,5.25c0-5.62,10.75-5.25,10.75-1c0,3.5-3.84,5.93-7.25,8.38c-5.75,4.12-14.86,10.78-25.25,17.5c-8.5,5.5-6.46,7.93,1.38,2.62c8.5-5.75,9.23-5.58,17.38-1.38c11.12,5.75,11.24,5.74,18-0.38c13.25-12,24.25-8.12,31.5,0.5c8.47,10.07-3.12,2.62-5.25,3.75" class="stroke" stroke-dasharray="300"><animate attributeName="stroke-dashoffset" from="300" to="0" dur="1.8s" begin="0s" fill="freeze" /></path><text x="90" y="120" id="reset">⟳</text><text x="70" y="120" id="pause">◼</text><script type="text/javascript"><![CDATA[function RecurringTimer(e,t){var n,r,i=t;this.pause=function(){window.clearTimeout(n);i-=new Date-r};var s=function(){r=new Date;n=window.setTimeout(function(){i=t;s();e()},i)};this.clear=function(){window.clearTimeout(n);i=t;n=window.setTimeout(function(){i=t;s();e()},i)};this.resume=s;this.resume()}function invoketimer(){timer=new RecurringTimer(function(){svg.setCurrentTime(0)},3000)}var svg=document.getElementById("kanjivg");var pause=document.getElementById("pause");var reset=document.getElementById("reset");var timer;invoketimer();reset.onclick=function(){svg.setCurrentTime(0);timer.clear();svg.unpauseAnimations();pause.innerHTML = "◼";};pause.onclick=function(){if(svg.animationsPaused()){svg.unpauseAnimations();timer.resume();pause.innerHTML="◼"}else{svg.pauseAnimations();timer.pause();pause.innerHTML="▶"}}]]></script></svg>