<svg id="kanjivg" width="106" height="126" xmlns="http://www.w3.org/2000/svg" xmlns:xlink="http://www.w3.org/1999/xlink" xml:space="preserve" version="1.1" baseProfile="full"><defs><style type="text/css"><![CDATA[path.black { fill:none;stroke:black;stroke-width:5;stroke-linecap:round;stroke-linejoin:round; }path.grey { fill:none;stroke:#ddd;stroke-width:5;stroke-linecap:round;stroke-linejoin:round; }path.stroke { fill:none;stroke:black;stroke-width:5;stroke-linecap:round;stroke-linejoin:round; }rect { fill:none;stroke:#555;stroke-width:2;} text{font-size:16px;font-family:Segoe UI Symbol,Cambria Math,DejaVu Sans,Symbola,Quivira,STIX,Code2000;-webkit-touch-callout:none;cursor:pointer;-webkit-user-select:none;-khtml-user-select:none;-moz-user-select:none;-ms-user-select:none;user-select: none;} #reset { font-weight:bold; }]]></style><marker id="markerStart" markerWidth="8" markerHeight="8" style="overflow:visible;"><circle cx="0" cy="0" r="1.5" style="stroke:none;fill:red;fill-opacity:0.5;"/></marker><marker id="markerEnd" style="overflow:visible;"><circle cx="0" cy="0" r="0.8" style="stroke:none;fill:blue;fill-opacity:0.5;"><animate attributeName="opacity" from="1" to="0" dur="3s" repeatCount="indefinite" /></circle></marker></defs><rect x="4" y="4" width="100" height="100" /><path d="M28.56,27.87c1.62,1.13,3.17,1.64,6.01,1.12c10.86-1.99,16.74-3.37,24.71-4.72c3.64-0.62,5.65-0.93,8.4-0.75" class="grey" /><path d="M49.93,14.38c0.75,1,1.48,3.22,0.38,5.62c-4.62,10.12-10,20.75-17.12,30.25c-9.25,12.33-9.25,11.19,2.12,2.5c9-6.88,23.75-12.12,22.88,19.88" class="grey" /><path d="M83.06,39.88c0.62,1.75,0,4-3,5.75c-3,1.75-49.62,24.16-44.75,38.25c3.28,9.48,17.93,9.12,29.98,7.75c4.48-0.51,9.15-1.12,12.4-1.75" class="grey" /><path d="M28.56,27.87c1.62,1.13,3.17,1.64,6.01,1.12c10.86-1.99,16.74-3.37,24.71-4.72c3.64-0.62,5.65-0.93,8.4-0.75" class="stroke" stroke-dasharray="150"><animate attributeName="stroke-dashoffset" from="150" to="0" dur="1.8s" begin="0s" fill="freeze" /></path><path d="M49.93,14.38c0.75,1,1.48,3.22,0.38,5.62c-4.62,10.12-10,20.75-17.12,30.25c-9.25,12.33-9.25,11.19,2.12,2.5c9-6.88,23.75-12.12,22.88,19.88" class="stroke" stroke-dasharray="150"><set attributeName="opacity" to="0" dur="1.0s" /><animate attributeName="stroke-dashoffset" from="150" to="0" dur="1.8s" begin="1.0s" fill="freeze" /></path><path d="M83.06,39.88c0.62,1.75,0,4-3,5.75c-3,1.75-49.62,24.16-44.75,38.25c3.28,9.48,17.93,9.12,29.98,7.75c4.48-0.51,9.15-1.12,12.4-1.75" class="stroke" stroke-dasharray="150"><set attributeName="opacity" to="0" dur="2.9s" /><animate attributeName="stroke-dashoffset" from="150" to="0" dur="1.8s" begin="2.9s" fill="freeze" /></path><text x="90" y="120" id="reset">⟳</text><text x="70" y="120" id="pause">◼</text><script type="text/javascript"><![CDATA[function RecurringTimer(e,t){var n,r,i=t;this.pause=function(){window.clearTimeout(n);i-=new Date-r};var s=function(){r=new Date;n=window.setTimeout(function(){i=t;s();e()},i)};this.clear=function(){window.clearTimeout(n);i=t;n=window.setTimeout(function(){i=t;s();e()},i)};this.resume=s;this.resume()}function invoketimer(){timer=new RecurringTimer(function(){svg.setCurrentTime(0)},5900)}var svg=document.getElementById("kanjivg");var pause=document.getElementById("pause");var reset=document.getElementById("reset");var timer;invoketimer();reset.onclick=function(){svg.setCurrentTime(0);timer.clear();svg.unpauseAnimations();pause.innerHTML = "◼";};pause.onclick=function(){if(svg.animationsPaused()){svg.unpauseAnimations();timer.resume();pause.innerHTML="◼"}else{svg.pauseAnimations();timer.pause();pause.innerHTML="▶"}}]]></script></svg>