<svg id="kanjivg" width="106" height="126" xmlns="http://www.w3.org/2000/svg" xmlns:xlink="http://www.w3.org/1999/xlink" xml:space="preserve" version="1.1" baseProfile="full"><defs><style type="text/css"><![CDATA[path.black { fill:none;stroke:black;stroke-width:5;stroke-linecap:round;stroke-linejoin:round; }path.grey { fill:none;stroke:#ddd;stroke-width:5;stroke-linecap:round;stroke-linejoin:round; }path.stroke { fill:none;stroke:black;stroke-width:5;stroke-linecap:round;stroke-linejoin:round; }rect { fill:none;stroke:#555;stroke-width:2;} text{font-size:16px;font-family:Segoe UI Symbol,Cambria Math,DejaVu Sans,Symbola,Quivira,STIX,Code2000;-webkit-touch-callout:none;cursor:pointer;-webkit-user-select:none;-khtml-user-select:none;-moz-user-select:none;-ms-user-select:none;user-select: none;} #reset { font-weight:bold; }]]></style><marker id="markerStart" markerWidth="8" markerHeight="8" style="overflow:visible;"><circle cx="0" cy="0" r="1.5" style="stroke:none;fill:red;fill-opacity:0.5;"/></marker><marker id="markerEnd" style="overflow:visible;"><circle cx="0" cy="0" r="0.8" style="stroke:none;fill:blue;fill-opacity:0.5;"><animate attributeName="opacity" from="1" to="0" dur="3s" repeatCount="indefinite" /></circle></marker></defs><rect x="4" y="4" width="100" height="100" /><path d="M52.38,11.62c0.11,0.93-0.13,2.45-0.72,3.72C48,23.25,35.88,39.25,13.75,51" class="grey" /><path d="M53,15.62c4.69,4.69,22.79,18.55,31.53,24.83c2.89,2.08,5.81,4.25,9.35,4.92" class="grey" /><path d="M42.08,35.48c1.4,0,2.54-0.13,3.93-0.31c3.69-0.47,9.82-1.23,13.97-1.81c1.92-0.26,2.99-0.19,3.83-0.19" class="grey" /><path d="M33.5,45.5c1.25,0.5,2.12,0.5,3.75,0.37c7.43-0.6,22.38-2.42,28.23-3.1c3.39-0.4,6.29-0.22,5.56,3.9c-0.96,5.37-4.01,19.69-4.09,20.18" class="grey" /><path d="M36.5,56.34c3.17-0.1,28.48-3.3,32.05-3.41" class="grey" /><path d="M33.23,67.38c6.51-0.6,25.32-3.13,33.41-3.73" class="grey" /><path d="M35.55,46.75c0.66,0.66,1.06,1.75,0.89,2.79C34.5,61.88,32.25,79.88,16.5,93.5" class="grey" /><path d="M38.25,77.88c0.94,0.67,1.49,1.59,1.64,2.75c1.06,4.27,2.13,9.16,2.96,13.63c0.24,1.29,0.46,2.55,0.65,3.75" class="grey" /><path d="M40.38,78.96c8.13-1.07,23.72-2.63,30.51-3.28c3.01-0.29,5.17-0.22,4.27,3.36c-0.98,3.88-2.1,8.94-3.49,13.78" class="grey" /><path d="M44.45,95.74c4.97-0.44,17.2-1.51,25.67-2.31c1.41-0.13,2.63-0.18,3.84-0.12" class="grey" /><path d="M52.38,11.62c0.11,0.93-0.13,2.45-0.72,3.72C48,23.25,35.88,39.25,13.75,51" class="stroke" stroke-dasharray="150"><animate attributeName="stroke-dashoffset" from="150" to="0" dur="1.8s" begin="0s" fill="freeze" /></path><path d="M53,15.62c4.69,4.69,22.79,18.55,31.53,24.83c2.89,2.08,5.81,4.25,9.35,4.92" class="stroke" stroke-dasharray="150"><set attributeName="opacity" to="0" dur="1.4s" /><animate attributeName="stroke-dashoffset" from="150" to="0" dur="1.8s" begin="1.4s" fill="freeze" /></path><path d="M42.08,35.48c1.4,0,2.54-0.13,3.93-0.31c3.69-0.47,9.82-1.23,13.97-1.81c1.92-0.26,2.99-0.19,3.83-0.19" class="stroke" stroke-dasharray="150"><set attributeName="opacity" to="0" dur="2.7s" /><animate attributeName="stroke-dashoffset" from="150" to="0" dur="1.8s" begin="2.7s" fill="freeze" /></path><path d="M33.5,45.5c1.25,0.5,2.12,0.5,3.75,0.37c7.43-0.6,22.38-2.42,28.23-3.1c3.39-0.4,6.29-0.22,5.56,3.9c-0.96,5.37-4.01,19.69-4.09,20.18" class="stroke" stroke-dasharray="150"><set attributeName="opacity" to="0" dur="3.7s" /><animate attributeName="stroke-dashoffset" from="150" to="0" dur="1.8s" begin="3.7s" fill="freeze" /></path><path d="M36.5,56.34c3.17-0.1,28.48-3.3,32.05-3.41" class="stroke" stroke-dasharray="150"><set attributeName="opacity" to="0" dur="5.2s" /><animate attributeName="stroke-dashoffset" from="150" to="0" dur="1.8s" begin="5.2s" fill="freeze" /></path><path d="M33.23,67.38c6.51-0.6,25.32-3.13,33.41-3.73" class="stroke" stroke-dasharray="150"><set attributeName="opacity" to="0" dur="6.2s" /><animate attributeName="stroke-dashoffset" from="150" to="0" dur="1.8s" begin="6.2s" fill="freeze" /></path><path d="M35.55,46.75c0.66,0.66,1.06,1.75,0.89,2.79C34.5,61.88,32.25,79.88,16.5,93.5" class="stroke" stroke-dasharray="150"><set attributeName="opacity" to="0" dur="7.2s" /><animate attributeName="stroke-dashoffset" from="150" to="0" dur="1.8s" begin="7.2s" fill="freeze" /></path><path d="M38.25,77.88c0.94,0.67,1.49,1.59,1.64,2.75c1.06,4.27,2.13,9.16,2.96,13.63c0.24,1.29,0.46,2.55,0.65,3.75" class="stroke" stroke-dasharray="150"><set attributeName="opacity" to="0" dur="8.5s" /><animate attributeName="stroke-dashoffset" from="150" to="0" dur="1.8s" begin="8.5s" fill="freeze" /></path><path d="M40.38,78.96c8.13-1.07,23.72-2.63,30.51-3.28c3.01-0.29,5.17-0.22,4.27,3.36c-0.98,3.88-2.1,8.94-3.49,13.78" class="stroke" stroke-dasharray="150"><set attributeName="opacity" to="0" dur="9.5s" /><animate attributeName="stroke-dashoffset" from="150" to="0" dur="1.8s" begin="9.5s" fill="freeze" /></path><path d="M44.45,95.74c4.97-0.44,17.2-1.51,25.67-2.31c1.41-0.13,2.63-0.18,3.84-0.12" class="stroke" stroke-dasharray="150"><set attributeName="opacity" to="0" dur="10.8s" /><animate attributeName="stroke-dashoffset" from="150" to="0" dur="1.8s" begin="10.8s" fill="freeze" /></path><text x="90" y="120" id="reset">⟳</text><text x="70" y="120" id="pause">◼</text><script type="text/javascript"><![CDATA[function RecurringTimer(e,t){var n,r,i=t;this.pause=function(){window.clearTimeout(n);i-=new Date-r};var s=function(){r=new Date;n=window.setTimeout(function(){i=t;s();e()},i)};this.clear=function(){window.clearTimeout(n);i=t;n=window.setTimeout(function(){i=t;s();e()},i)};this.resume=s;this.resume()}function invoketimer(){timer=new RecurringTimer(function(){svg.setCurrentTime(0)},12800)}var svg=document.getElementById("kanjivg");var pause=document.getElementById("pause");var reset=document.getElementById("reset");var timer;invoketimer();reset.onclick=function(){svg.setCurrentTime(0);timer.clear();svg.unpauseAnimations();pause.innerHTML = "◼";};pause.onclick=function(){if(svg.animationsPaused()){svg.unpauseAnimations();timer.resume();pause.innerHTML="◼"}else{svg.pauseAnimations();timer.pause();pause.innerHTML="▶"}}]]></script></svg>