<svg id="kanjivg" width="106" height="126" xmlns="http://www.w3.org/2000/svg" xmlns:xlink="http://www.w3.org/1999/xlink" xml:space="preserve" version="1.1" baseProfile="full"><defs><style type="text/css"><![CDATA[path.black { fill:none;stroke:black;stroke-width:5;stroke-linecap:round;stroke-linejoin:round; }path.grey { fill:none;stroke:#ddd;stroke-width:5;stroke-linecap:round;stroke-linejoin:round; }path.stroke { fill:none;stroke:black;stroke-width:5;stroke-linecap:round;stroke-linejoin:round; }rect { fill:none;stroke:#555;stroke-width:2;} text{font-size:16px;font-family:Segoe UI Symbol,Cambria Math,DejaVu Sans,Symbola,Quivira,STIX,Code2000;-webkit-touch-callout:none;cursor:pointer;-webkit-user-select:none;-khtml-user-select:none;-moz-user-select:none;-ms-user-select:none;user-select: none;} #reset { font-weight:bold; }]]></style><marker id="markerStart" markerWidth="8" markerHeight="8" style="overflow:visible;"><circle cx="0" cy="0" r="1.5" style="stroke:none;fill:red;fill-opacity:0.5;"/></marker><marker id="markerEnd" style="overflow:visible;"><circle cx="0" cy="0" r="0.8" style="stroke:none;fill:blue;fill-opacity:0.5;"><animate attributeName="opacity" from="1" to="0" dur="3s" repeatCount="indefinite" /></circle></marker></defs><rect x="4" y="4" width="100" height="100" /><path d="M30,15.39c0.12,1.15,0.21,2.59-0.11,4.01c-2,8.93-9.75,26.21-19.09,38.32" class="grey" /><path d="M23.94,39c0.74,0.76,0.95,2.46,0.95,4.04c0,16.29-0.36,41.89-0.36,52.84" class="grey" /><path d="M41.47,21.93c1.39,0.44,2.32,0.7,3.7,0.65c6.23-0.2,24.87-3.2,37.83-3.94c1.85-0.11,3.25-0.13,5.33,0.31" class="grey" /><path d="M37.75,42.27c0.14,0.69,0.97,3.78,1.11,5.18c1.06,10.25,1.31,39.96,1.31,44.57" class="grey" /><path d="M39.06,45.71c9.87-0.96,45.96-5.76,52.17-6.5c2.01-0.24,3.7,0.97,3.63,3.61c-0.35,13.43-2.35,33.93-5.61,46.35c-1.81,6.9-4.63,4.82-7.25,0" class="grey" /><path d="M63.94,23.34c1.01,1.2,1.81,2.65,1.81,4.33c0,0.96-0.6,60.52-0.6,63.17" class="grey" /><path d="M52.43,58.88c-1.44,3.85-5.18,9.31-8.17,11.49" class="grey" /><path d="M46.8,52.4c0.51,0,0.97,0.42,1.22,0.72c4.07,5.08,8.69,10.3,12.46,13.89c0.43,0.41,0.83,0.55,1.28,0.67" class="grey" /><path d="M78.62,56.3c-1.41,3.5-5.06,8.45-7.99,10.43" class="grey" /><path d="M74.09,50.73c0.49,0,0.97,0.37,1.16,0.69c2.88,4.71,7.23,9.95,11.89,13.24c0.47,0.33,0.8,0.53,1.23,0.64" class="grey" /><path d="M30,15.39c0.12,1.15,0.21,2.59-0.11,4.01c-2,8.93-9.75,26.21-19.09,38.32" class="stroke" stroke-dasharray="150"><animate attributeName="stroke-dashoffset" from="150" to="0" dur="1.8s" begin="0s" fill="freeze" /></path><path d="M23.94,39c0.74,0.76,0.95,2.46,0.95,4.04c0,16.29-0.36,41.89-0.36,52.84" class="stroke" stroke-dasharray="150"><set attributeName="opacity" to="0" dur="1.2s" /><animate attributeName="stroke-dashoffset" from="150" to="0" dur="1.8s" begin="1.2s" fill="freeze" /></path><path d="M41.47,21.93c1.39,0.44,2.32,0.7,3.7,0.65c6.23-0.2,24.87-3.2,37.83-3.94c1.85-0.11,3.25-0.13,5.33,0.31" class="stroke" stroke-dasharray="150"><set attributeName="opacity" to="0" dur="2.5999999999999996s" /><animate attributeName="stroke-dashoffset" from="150" to="0" dur="1.8s" begin="2.5999999999999996s" fill="freeze" /></path><path d="M37.75,42.27c0.14,0.69,0.97,3.78,1.11,5.18c1.06,10.25,1.31,39.96,1.31,44.57" class="stroke" stroke-dasharray="150"><set attributeName="opacity" to="0" dur="3.8s" /><animate attributeName="stroke-dashoffset" from="150" to="0" dur="1.8s" begin="3.8s" fill="freeze" /></path><path d="M39.06,45.71c9.87-0.96,45.96-5.76,52.17-6.5c2.01-0.24,3.7,0.97,3.63,3.61c-0.35,13.43-2.35,33.93-5.61,46.35c-1.81,6.9-4.63,4.82-7.25,0" class="stroke" stroke-dasharray="150"><set attributeName="opacity" to="0" dur="5.0s" /><animate attributeName="stroke-dashoffset" from="150" to="0" dur="1.8s" begin="5.0s" fill="freeze" /></path><path d="M63.94,23.34c1.01,1.2,1.81,2.65,1.81,4.33c0,0.96-0.6,60.52-0.6,63.17" class="stroke" stroke-dasharray="150"><set attributeName="opacity" to="0" dur="7.0s" /><animate attributeName="stroke-dashoffset" from="150" to="0" dur="1.8s" begin="7.0s" fill="freeze" /></path><path d="M52.43,58.88c-1.44,3.85-5.18,9.31-8.17,11.49" class="stroke" stroke-dasharray="150"><set attributeName="opacity" to="0" dur="8.5s" /><animate attributeName="stroke-dashoffset" from="150" to="0" dur="1.8s" begin="8.5s" fill="freeze" /></path><path d="M46.8,52.4c0.51,0,0.97,0.42,1.22,0.72c4.07,5.08,8.69,10.3,12.46,13.89c0.43,0.41,0.83,0.55,1.28,0.67" class="stroke" stroke-dasharray="150"><set attributeName="opacity" to="0" dur="9.4s" /><animate attributeName="stroke-dashoffset" from="150" to="0" dur="1.8s" begin="9.4s" fill="freeze" /></path><path d="M78.62,56.3c-1.41,3.5-5.06,8.45-7.99,10.43" class="stroke" stroke-dasharray="150"><set attributeName="opacity" to="0" dur="10.4s" /><animate attributeName="stroke-dashoffset" from="150" to="0" dur="1.8s" begin="10.4s" fill="freeze" /></path><path d="M74.09,50.73c0.49,0,0.97,0.37,1.16,0.69c2.88,4.71,7.23,9.95,11.89,13.24c0.47,0.33,0.8,0.53,1.23,0.64" class="stroke" stroke-dasharray="150"><set attributeName="opacity" to="0" dur="11.3s" /><animate attributeName="stroke-dashoffset" from="150" to="0" dur="1.8s" begin="11.3s" fill="freeze" /></path><text x="90" y="120" id="reset">⟳</text><text x="70" y="120" id="pause">◼</text><script type="text/javascript"><![CDATA[function RecurringTimer(e,t){var n,r,i=t;this.pause=function(){window.clearTimeout(n);i-=new Date-r};var s=function(){r=new Date;n=window.setTimeout(function(){i=t;s();e()},i)};this.clear=function(){window.clearTimeout(n);i=t;n=window.setTimeout(function(){i=t;s();e()},i)};this.resume=s;this.resume()}function invoketimer(){timer=new RecurringTimer(function(){svg.setCurrentTime(0)},13300)}var svg=document.getElementById("kanjivg");var pause=document.getElementById("pause");var reset=document.getElementById("reset");var timer;invoketimer();reset.onclick=function(){svg.setCurrentTime(0);timer.clear();svg.unpauseAnimations();pause.innerHTML = "◼";};pause.onclick=function(){if(svg.animationsPaused()){svg.unpauseAnimations();timer.resume();pause.innerHTML="◼"}else{svg.pauseAnimations();timer.pause();pause.innerHTML="▶"}}]]></script></svg>