<svg id="kanjivg" width="106" height="126" xmlns="http://www.w3.org/2000/svg" xmlns:xlink="http://www.w3.org/1999/xlink" xml:space="preserve" version="1.1" baseProfile="full"><defs><style type="text/css"><![CDATA[path.black { fill:none;stroke:black;stroke-width:5;stroke-linecap:round;stroke-linejoin:round; }path.grey { fill:none;stroke:#ddd;stroke-width:5;stroke-linecap:round;stroke-linejoin:round; }path.stroke { fill:none;stroke:black;stroke-width:5;stroke-linecap:round;stroke-linejoin:round; }rect { fill:none;stroke:#555;stroke-width:2;} text{font-size:16px;font-family:Segoe UI Symbol,Cambria Math,DejaVu Sans,Symbola,Quivira,STIX,Code2000;-webkit-touch-callout:none;cursor:pointer;-webkit-user-select:none;-khtml-user-select:none;-moz-user-select:none;-ms-user-select:none;user-select: none;} #reset { font-weight:bold; }]]></style><marker id="markerStart" markerWidth="8" markerHeight="8" style="overflow:visible;"><circle cx="0" cy="0" r="1.5" style="stroke:none;fill:red;fill-opacity:0.5;"/></marker><marker id="markerEnd" style="overflow:visible;"><circle cx="0" cy="0" r="0.8" style="stroke:none;fill:blue;fill-opacity:0.5;"><animate attributeName="opacity" from="1" to="0" dur="3s" repeatCount="indefinite" /></circle></marker></defs><rect x="4" y="4" width="100" height="100" /><path d="M33.49,16.89c0.14,1.1,0.24,2.47-0.12,3.82c-2.34,8.51-11.39,24.97-22.3,36.51" class="grey" /><path d="M24.99,41.5c0.66,0.68,0.84,2.19,0.84,3.58c0,14.46-0.32,38.08-0.32,47.79" class="grey" /><path d="M61.23,13.5c2.3,1.04,5.72,5.09,6.08,7.13" class="grey" /><path d="M40.96,27.81c0.95,0.06,3.14,0.42,4.06,0.33c7.5-0.69,34.16-3.54,43.68-3.72c1.57-0.03,2.38,0.03,3.55,0.42" class="grey" /><path d="M53.61,33.99c0,0.52,0.03,0.94-0.09,1.57c-0.62,3.28-6.49,14.21-11.51,19.06" class="grey" /><path d="M52.55,42.53c3.43,1.49,7.81,5.46,9.48,9.22" class="grey" /><path d="M78.85,30.99c0,0.53,0.03,0.95-0.09,1.59c-0.62,3.32-6.51,14.38-11.55,19.29" class="grey" /><path d="M76.11,41.46c4.45,1.91,10.12,6.98,12.29,11.79" class="grey" /><path d="M36.5,69.98c1.51,0.54,4.27,0.65,5.78,0.54c14.97-1.02,38.23-3.54,51.45-3.75c2.51-0.04,4.02,0.26,5.27,0.53" class="grey" /><path d="M65.14,59.5c0.67,0.56,2.21,2.5,2.21,5.3c0,1.13-0.09,25.71-0.22,32.7" class="grey" /><path d="M33.49,16.89c0.14,1.1,0.24,2.47-0.12,3.82c-2.34,8.51-11.39,24.97-22.3,36.51" class="stroke" stroke-dasharray="150"><animate attributeName="stroke-dashoffset" from="150" to="0" dur="1.8s" begin="0s" fill="freeze" /></path><path d="M24.99,41.5c0.66,0.68,0.84,2.19,0.84,3.58c0,14.46-0.32,38.08-0.32,47.79" class="stroke" stroke-dasharray="150"><set attributeName="opacity" to="0" dur="1.2s" /><animate attributeName="stroke-dashoffset" from="150" to="0" dur="1.8s" begin="1.2s" fill="freeze" /></path><path d="M61.23,13.5c2.3,1.04,5.72,5.09,6.08,7.13" class="stroke" stroke-dasharray="150"><set attributeName="opacity" to="0" dur="2.5s" /><animate attributeName="stroke-dashoffset" from="150" to="0" dur="1.8s" begin="2.5s" fill="freeze" /></path><path d="M40.96,27.81c0.95,0.06,3.14,0.42,4.06,0.33c7.5-0.69,34.16-3.54,43.68-3.72c1.57-0.03,2.38,0.03,3.55,0.42" class="stroke" stroke-dasharray="150"><set attributeName="opacity" to="0" dur="3.4s" /><animate attributeName="stroke-dashoffset" from="150" to="0" dur="1.8s" begin="3.4s" fill="freeze" /></path><path d="M53.61,33.99c0,0.52,0.03,0.94-0.09,1.57c-0.62,3.28-6.49,14.21-11.51,19.06" class="stroke" stroke-dasharray="150"><set attributeName="opacity" to="0" dur="4.7s" /><animate attributeName="stroke-dashoffset" from="150" to="0" dur="1.8s" begin="4.7s" fill="freeze" /></path><path d="M52.55,42.53c3.43,1.49,7.81,5.46,9.48,9.22" class="stroke" stroke-dasharray="150"><set attributeName="opacity" to="0" dur="5.7s" /><animate attributeName="stroke-dashoffset" from="150" to="0" dur="1.8s" begin="5.7s" fill="freeze" /></path><path d="M78.85,30.99c0,0.53,0.03,0.95-0.09,1.59c-0.62,3.32-6.51,14.38-11.55,19.29" class="stroke" stroke-dasharray="150"><set attributeName="opacity" to="0" dur="6.6000000000000005s" /><animate attributeName="stroke-dashoffset" from="150" to="0" dur="1.8s" begin="6.6000000000000005s" fill="freeze" /></path><path d="M76.11,41.46c4.45,1.91,10.12,6.98,12.29,11.79" class="stroke" stroke-dasharray="150"><set attributeName="opacity" to="0" dur="7.6000000000000005s" /><animate attributeName="stroke-dashoffset" from="150" to="0" dur="1.8s" begin="7.6000000000000005s" fill="freeze" /></path><path d="M36.5,69.98c1.51,0.54,4.27,0.65,5.78,0.54c14.97-1.02,38.23-3.54,51.45-3.75c2.51-0.04,4.02,0.26,5.27,0.53" class="stroke" stroke-dasharray="150"><set attributeName="opacity" to="0" dur="8.5s" /><animate attributeName="stroke-dashoffset" from="150" to="0" dur="1.8s" begin="8.5s" fill="freeze" /></path><path d="M65.14,59.5c0.67,0.56,2.21,2.5,2.21,5.3c0,1.13-0.09,25.71-0.22,32.7" class="stroke" stroke-dasharray="150"><set attributeName="opacity" to="0" dur="10.0s" /><animate attributeName="stroke-dashoffset" from="150" to="0" dur="1.8s" begin="10.0s" fill="freeze" /></path><text x="90" y="120" id="reset">⟳</text><text x="70" y="120" id="pause">◼</text><script type="text/javascript"><![CDATA[function RecurringTimer(e,t){var n,r,i=t;this.pause=function(){window.clearTimeout(n);i-=new Date-r};var s=function(){r=new Date;n=window.setTimeout(function(){i=t;s();e()},i)};this.clear=function(){window.clearTimeout(n);i=t;n=window.setTimeout(function(){i=t;s();e()},i)};this.resume=s;this.resume()}function invoketimer(){timer=new RecurringTimer(function(){svg.setCurrentTime(0)},12000)}var svg=document.getElementById("kanjivg");var pause=document.getElementById("pause");var reset=document.getElementById("reset");var timer;invoketimer();reset.onclick=function(){svg.setCurrentTime(0);timer.clear();svg.unpauseAnimations();pause.innerHTML = "◼";};pause.onclick=function(){if(svg.animationsPaused()){svg.unpauseAnimations();timer.resume();pause.innerHTML="◼"}else{svg.pauseAnimations();timer.pause();pause.innerHTML="▶"}}]]></script></svg>