<svg id="kanjivg" width="106" height="126" xmlns="http://www.w3.org/2000/svg" xmlns:xlink="http://www.w3.org/1999/xlink" xml:space="preserve" version="1.1" baseProfile="full"><defs><style type="text/css"><![CDATA[path.black { fill:none;stroke:black;stroke-width:5;stroke-linecap:round;stroke-linejoin:round; }path.grey { fill:none;stroke:#ddd;stroke-width:5;stroke-linecap:round;stroke-linejoin:round; }path.stroke { fill:none;stroke:black;stroke-width:5;stroke-linecap:round;stroke-linejoin:round; }rect { fill:none;stroke:#555;stroke-width:2;} text{font-size:16px;font-family:Segoe UI Symbol,Cambria Math,DejaVu Sans,Symbola,Quivira,STIX,Code2000;-webkit-touch-callout:none;cursor:pointer;-webkit-user-select:none;-khtml-user-select:none;-moz-user-select:none;-ms-user-select:none;user-select: none;} #reset { font-weight:bold; }]]></style><marker id="markerStart" markerWidth="8" markerHeight="8" style="overflow:visible;"><circle cx="0" cy="0" r="1.5" style="stroke:none;fill:red;fill-opacity:0.5;"/></marker><marker id="markerEnd" style="overflow:visible;"><circle cx="0" cy="0" r="0.8" style="stroke:none;fill:blue;fill-opacity:0.5;"><animate attributeName="opacity" from="1" to="0" dur="3s" repeatCount="indefinite" /></circle></marker></defs><rect x="4" y="4" width="100" height="100" /><path d="M37.15,10.75c0.16,1.25,0.29,2.82-0.15,4.36c-2.76,9.73-13.41,29.03-26.26,42.21" class="grey" /><path d="M26.23,40.61c0.96,0.96,1.01,2.47,1.01,3.73c0,10.57-0.03,31.57-0.04,43.79c0,2.84,0,5.21,0,6.86" class="grey" /><path d="M47.51,22.8c2.36,0.45,4.71,0.25,6.87-0.02c8.88-1.09,16.2-2.36,25.13-2.84c2.24-0.12,4.48-0.33,6.68,0.23" class="grey" /><path d="M63.67,9.25c0.91,0.91,1.27,2.02,1.27,3.89c0,12.11-0.07,19.82-0.07,22.86" class="grey" /><path d="M37.63,38.36c2.83,1.09,6.59,0.58,9.5,0.27c11.75-1.25,25.66-2.85,38.13-3.56c3.14-0.18,6.29-0.08,9.38,0.64" class="grey" /><path d="M50.25,44c1.72,1.98,4.45,8.14,4.88,11.22" class="grey" /><path d="M79.85,40.14c0.06,0.81-0.03,1.6-0.26,2.38c-0.74,2.74-2.74,6.48-5.75,11.2" class="grey" /><path d="M36.46,58.98c2.92,0.77,6.23,0.58,8.67,0.31C55.75,58.12,73,56.25,87.75,55.6c2.7-0.12,5.43,0.07,8.07,0.85" class="grey" /><path d="M38.13,74.9c2.8,0.96,6,0.38,8.85,0.09c10.17-1.03,29.13-2.87,39.54-3.42c2.58-0.13,5.09-0.2,7.63,0.32" class="grey" /><path d="M64.81,59.25c1.03,1.04,1.04,2.25,1.04,3.58c0,0.79-0.05,16.52-0.08,26.54c-0.01,2.97-0.01,5.45-0.01,6.88" class="grey" /><path d="M37.15,10.75c0.16,1.25,0.29,2.82-0.15,4.36c-2.76,9.73-13.41,29.03-26.26,42.21" class="stroke" stroke-dasharray="150"><animate attributeName="stroke-dashoffset" from="150" to="0" dur="1.8s" begin="0s" fill="freeze" /></path><path d="M26.23,40.61c0.96,0.96,1.01,2.47,1.01,3.73c0,10.57-0.03,31.57-0.04,43.79c0,2.84,0,5.21,0,6.86" class="stroke" stroke-dasharray="150"><set attributeName="opacity" to="0" dur="1.3s" /><animate attributeName="stroke-dashoffset" from="150" to="0" dur="1.8s" begin="1.3s" fill="freeze" /></path><path d="M47.51,22.8c2.36,0.45,4.71,0.25,6.87-0.02c8.88-1.09,16.2-2.36,25.13-2.84c2.24-0.12,4.48-0.33,6.68,0.23" class="stroke" stroke-dasharray="150"><set attributeName="opacity" to="0" dur="2.6s" /><animate attributeName="stroke-dashoffset" from="150" to="0" dur="1.8s" begin="2.6s" fill="freeze" /></path><path d="M63.67,9.25c0.91,0.91,1.27,2.02,1.27,3.89c0,12.11-0.07,19.82-0.07,22.86" class="stroke" stroke-dasharray="150"><set attributeName="opacity" to="0" dur="3.6s" /><animate attributeName="stroke-dashoffset" from="150" to="0" dur="1.8s" begin="3.6s" fill="freeze" /></path><path d="M37.63,38.36c2.83,1.09,6.59,0.58,9.5,0.27c11.75-1.25,25.66-2.85,38.13-3.56c3.14-0.18,6.29-0.08,9.38,0.64" class="stroke" stroke-dasharray="150"><set attributeName="opacity" to="0" dur="4.6s" /><animate attributeName="stroke-dashoffset" from="150" to="0" dur="1.8s" begin="4.6s" fill="freeze" /></path><path d="M50.25,44c1.72,1.98,4.45,8.14,4.88,11.22" class="stroke" stroke-dasharray="150"><set attributeName="opacity" to="0" dur="6.0s" /><animate attributeName="stroke-dashoffset" from="150" to="0" dur="1.8s" begin="6.0s" fill="freeze" /></path><path d="M79.85,40.14c0.06,0.81-0.03,1.6-0.26,2.38c-0.74,2.74-2.74,6.48-5.75,11.2" class="stroke" stroke-dasharray="150"><set attributeName="opacity" to="0" dur="6.9s" /><animate attributeName="stroke-dashoffset" from="150" to="0" dur="1.8s" begin="6.9s" fill="freeze" /></path><path d="M36.46,58.98c2.92,0.77,6.23,0.58,8.67,0.31C55.75,58.12,73,56.25,87.75,55.6c2.7-0.12,5.43,0.07,8.07,0.85" class="stroke" stroke-dasharray="150"><set attributeName="opacity" to="0" dur="7.800000000000001s" /><animate attributeName="stroke-dashoffset" from="150" to="0" dur="1.8s" begin="7.800000000000001s" fill="freeze" /></path><path d="M38.13,74.9c2.8,0.96,6,0.38,8.85,0.09c10.17-1.03,29.13-2.87,39.54-3.42c2.58-0.13,5.09-0.2,7.63,0.32" class="stroke" stroke-dasharray="150"><set attributeName="opacity" to="0" dur="9.200000000000001s" /><animate attributeName="stroke-dashoffset" from="150" to="0" dur="1.8s" begin="9.200000000000001s" fill="freeze" /></path><path d="M64.81,59.25c1.03,1.04,1.04,2.25,1.04,3.58c0,0.79-0.05,16.52-0.08,26.54c-0.01,2.97-0.01,5.45-0.01,6.88" class="stroke" stroke-dasharray="150"><set attributeName="opacity" to="0" dur="10.600000000000001s" /><animate attributeName="stroke-dashoffset" from="150" to="0" dur="1.8s" begin="10.600000000000001s" fill="freeze" /></path><text x="90" y="120" id="reset">⟳</text><text x="70" y="120" id="pause">◼</text><script type="text/javascript"><![CDATA[function RecurringTimer(e,t){var n,r,i=t;this.pause=function(){window.clearTimeout(n);i-=new Date-r};var s=function(){r=new Date;n=window.setTimeout(function(){i=t;s();e()},i)};this.clear=function(){window.clearTimeout(n);i=t;n=window.setTimeout(function(){i=t;s();e()},i)};this.resume=s;this.resume()}function invoketimer(){timer=new RecurringTimer(function(){svg.setCurrentTime(0)},12600)}var svg=document.getElementById("kanjivg");var pause=document.getElementById("pause");var reset=document.getElementById("reset");var timer;invoketimer();reset.onclick=function(){svg.setCurrentTime(0);timer.clear();svg.unpauseAnimations();pause.innerHTML = "◼";};pause.onclick=function(){if(svg.animationsPaused()){svg.unpauseAnimations();timer.resume();pause.innerHTML="◼"}else{svg.pauseAnimations();timer.pause();pause.innerHTML="▶"}}]]></script></svg>