<svg id="kanjivg" width="106" height="126" xmlns="http://www.w3.org/2000/svg" xmlns:xlink="http://www.w3.org/1999/xlink" xml:space="preserve" version="1.1" baseProfile="full"><defs><style type="text/css"><![CDATA[path.black { fill:none;stroke:black;stroke-width:5;stroke-linecap:round;stroke-linejoin:round; }path.grey { fill:none;stroke:#ddd;stroke-width:5;stroke-linecap:round;stroke-linejoin:round; }path.stroke { fill:none;stroke:black;stroke-width:5;stroke-linecap:round;stroke-linejoin:round; }rect { fill:none;stroke:#555;stroke-width:2;} text{font-size:16px;font-family:Segoe UI Symbol,Cambria Math,DejaVu Sans,Symbola,Quivira,STIX,Code2000;-webkit-touch-callout:none;cursor:pointer;-webkit-user-select:none;-khtml-user-select:none;-moz-user-select:none;-ms-user-select:none;user-select: none;} #reset { font-weight:bold; }]]></style><marker id="markerStart" markerWidth="8" markerHeight="8" style="overflow:visible;"><circle cx="0" cy="0" r="1.5" style="stroke:none;fill:red;fill-opacity:0.5;"/></marker><marker id="markerEnd" style="overflow:visible;"><circle cx="0" cy="0" r="0.8" style="stroke:none;fill:blue;fill-opacity:0.5;"><animate attributeName="opacity" from="1" to="0" dur="3s" repeatCount="indefinite" /></circle></marker></defs><rect x="4" y="4" width="100" height="100" /><path d="M31.5,17.39c0.13,1.12,0.22,2.53-0.11,3.91C29.25,30.03,21,46.89,11.06,58.72" class="grey" /><path d="M24.49,43.5c0.66,0.68,0.84,2.19,0.84,3.58c0,14.46-0.32,37.58-0.32,47.29" class="grey" /><path d="M39.39,18.89c0.55,0.43,1.83,1.86,1.83,4.08c0,0.87-0.07,65.99-0.18,71.36" class="grey" /><path d="M41.37,19.87c1.83-0.11,14.48-2.38,16.15-2.51c1.39-0.11,2.11,1,2.18,1.88c0.1,1.35-2.16,24.52-2.16,25.18" class="grey" /><path d="M41.69,32.74c4.5-0.65,12.49-1.83,16.82-2.53" class="grey" /><path d="M41.87,47.07c5.88-0.82,11.81-1.73,17.2-2.31" class="grey" /><path d="M69.03,17.17c0.31,0.59,1.1,1.84,1.13,2.63c0.09,1.95,1.39,25.32,1.5,26.11" class="grey" /><path d="M70.18,18.23c1.78-0.1,18.33-2.62,19.95-2.74c1.35-0.1,2.13,1.07,2.12,1.66c-0.35,18.04-0.36,58.1-0.35,71.18c0,10.7-6.14,3.51-9.07-0.09" class="grey" /><path d="M71,30.09c2.41,0,17.38-1.85,20.11-1.85" class="grey" /><path d="M72.18,43.83c3.56,0,15.1-1.65,19.71-1.65" class="grey" /><path d="M31.5,17.39c0.13,1.12,0.22,2.53-0.11,3.91C29.25,30.03,21,46.89,11.06,58.72" class="stroke" stroke-dasharray="150"><animate attributeName="stroke-dashoffset" from="150" to="0" dur="1.8s" begin="0s" fill="freeze" /></path><path d="M24.49,43.5c0.66,0.68,0.84,2.19,0.84,3.58c0,14.46-0.32,37.58-0.32,47.29" class="stroke" stroke-dasharray="150"><set attributeName="opacity" to="0" dur="1.2s" /><animate attributeName="stroke-dashoffset" from="150" to="0" dur="1.8s" begin="1.2s" fill="freeze" /></path><path d="M39.39,18.89c0.55,0.43,1.83,1.86,1.83,4.08c0,0.87-0.07,65.99-0.18,71.36" class="stroke" stroke-dasharray="150"><set attributeName="opacity" to="0" dur="2.5s" /><animate attributeName="stroke-dashoffset" from="150" to="0" dur="1.8s" begin="2.5s" fill="freeze" /></path><path d="M41.37,19.87c1.83-0.11,14.48-2.38,16.15-2.51c1.39-0.11,2.11,1,2.18,1.88c0.1,1.35-2.16,24.52-2.16,25.18" class="stroke" stroke-dasharray="150"><set attributeName="opacity" to="0" dur="4.2s" /><animate attributeName="stroke-dashoffset" from="150" to="0" dur="1.8s" begin="4.2s" fill="freeze" /></path><path d="M41.69,32.74c4.5-0.65,12.49-1.83,16.82-2.53" class="stroke" stroke-dasharray="150"><set attributeName="opacity" to="0" dur="5.300000000000001s" /><animate attributeName="stroke-dashoffset" from="150" to="0" dur="1.8s" begin="5.300000000000001s" fill="freeze" /></path><path d="M41.87,47.07c5.88-0.82,11.81-1.73,17.2-2.31" class="stroke" stroke-dasharray="150"><set attributeName="opacity" to="0" dur="6.200000000000001s" /><animate attributeName="stroke-dashoffset" from="150" to="0" dur="1.8s" begin="6.200000000000001s" fill="freeze" /></path><path d="M69.03,17.17c0.31,0.59,1.1,1.84,1.13,2.63c0.09,1.95,1.39,25.32,1.5,26.11" class="stroke" stroke-dasharray="150"><set attributeName="opacity" to="0" dur="7.100000000000001s" /><animate attributeName="stroke-dashoffset" from="150" to="0" dur="1.8s" begin="7.100000000000001s" fill="freeze" /></path><path d="M70.18,18.23c1.78-0.1,18.33-2.62,19.95-2.74c1.35-0.1,2.13,1.07,2.12,1.66c-0.35,18.04-0.36,58.1-0.35,71.18c0,10.7-6.14,3.51-9.07-0.09" class="stroke" stroke-dasharray="150"><set attributeName="opacity" to="0" dur="8.100000000000001s" /><animate attributeName="stroke-dashoffset" from="150" to="0" dur="1.8s" begin="8.100000000000001s" fill="freeze" /></path><path d="M71,30.09c2.41,0,17.38-1.85,20.11-1.85" class="stroke" stroke-dasharray="150"><set attributeName="opacity" to="0" dur="10.100000000000001s" /><animate attributeName="stroke-dashoffset" from="150" to="0" dur="1.8s" begin="10.100000000000001s" fill="freeze" /></path><path d="M72.18,43.83c3.56,0,15.1-1.65,19.71-1.65" class="stroke" stroke-dasharray="150"><set attributeName="opacity" to="0" dur="11.100000000000001s" /><animate attributeName="stroke-dashoffset" from="150" to="0" dur="1.8s" begin="11.100000000000001s" fill="freeze" /></path><text x="90" y="120" id="reset">⟳</text><text x="70" y="120" id="pause">◼</text><script type="text/javascript"><![CDATA[function RecurringTimer(e,t){var n,r,i=t;this.pause=function(){window.clearTimeout(n);i-=new Date-r};var s=function(){r=new Date;n=window.setTimeout(function(){i=t;s();e()},i)};this.clear=function(){window.clearTimeout(n);i=t;n=window.setTimeout(function(){i=t;s();e()},i)};this.resume=s;this.resume()}function invoketimer(){timer=new RecurringTimer(function(){svg.setCurrentTime(0)},13000)}var svg=document.getElementById("kanjivg");var pause=document.getElementById("pause");var reset=document.getElementById("reset");var timer;invoketimer();reset.onclick=function(){svg.setCurrentTime(0);timer.clear();svg.unpauseAnimations();pause.innerHTML = "◼";};pause.onclick=function(){if(svg.animationsPaused()){svg.unpauseAnimations();timer.resume();pause.innerHTML="◼"}else{svg.pauseAnimations();timer.pause();pause.innerHTML="▶"}}]]></script></svg>