<svg id="kanjivg" width="106" height="126" xmlns="http://www.w3.org/2000/svg" xmlns:xlink="http://www.w3.org/1999/xlink" xml:space="preserve" version="1.1" baseProfile="full"><defs><style type="text/css"><![CDATA[path.black { fill:none;stroke:black;stroke-width:5;stroke-linecap:round;stroke-linejoin:round; }path.grey { fill:none;stroke:#ddd;stroke-width:5;stroke-linecap:round;stroke-linejoin:round; }path.stroke { fill:none;stroke:black;stroke-width:5;stroke-linecap:round;stroke-linejoin:round; }rect { fill:none;stroke:#555;stroke-width:2;} text{font-size:16px;font-family:Segoe UI Symbol,Cambria Math,DejaVu Sans,Symbola,Quivira,STIX,Code2000;-webkit-touch-callout:none;cursor:pointer;-webkit-user-select:none;-khtml-user-select:none;-moz-user-select:none;-ms-user-select:none;user-select: none;} #reset { font-weight:bold; }]]></style><marker id="markerStart" markerWidth="8" markerHeight="8" style="overflow:visible;"><circle cx="0" cy="0" r="1.5" style="stroke:none;fill:red;fill-opacity:0.5;"/></marker><marker id="markerEnd" style="overflow:visible;"><circle cx="0" cy="0" r="0.8" style="stroke:none;fill:blue;fill-opacity:0.5;"><animate attributeName="opacity" from="1" to="0" dur="3s" repeatCount="indefinite" /></circle></marker></defs><rect x="4" y="4" width="100" height="100" /><path d="M29.5,16c0.38,1.53,0.2,2.79-0.43,4.59c-4.02,11.46-9.36,23.5-18.56,37.45" class="grey" /><path d="M22.28,42c0.98,0.98,1.5,2.45,1.5,4c0,10.93-0.02,31.8-0.03,43.13c0,2.64,0,4.77,0,6.12" class="grey" /><path d="M35.52,32.37c1,1,1.76,2.51,1.76,5.02c0,11.05,0,29.84,0,40.24c0,2.89,0,5.13,0,6.38" class="grey" /><path d="M50.5,17.25c1,0.5,2.99,0.65,5,0.5C62,17.25,75.25,15.25,78,15s4.25,0.75,3.25,3.5C80.68,20.08,79,26.38,78.5,30" class="grey" /><path d="M44,33.94c2.07,0.31,4.47,0.44,6.05,0.29C61.5,33.12,78,30.88,89.23,30.19c2.62-0.16,4.21-0.24,5.52,0.03" class="grey" /><path d="M56.36,39.97c0.03,0.51,0.07,1.31-0.06,2.04c-0.75,4.3-5.49,14.87-10.21,18.79" class="grey" /><path d="M57.23,49.11c1.14,0.02,2.7-0.05,3.64-0.17c4.37-0.56,13.05-1.88,19.5-2.88c1.74-0.27,3.71-0.43,5.47-0.07" class="grey" /><path d="M45.13,66.83c2.87,0.54,5.59,0.22,8.01-0.02c10.47-1.03,24.48-3.09,33.25-3.75c2.79-0.21,5.33-0.48,8.08,0.07" class="grey" /><path d="M68.89,50.84c0.48,1.04,0.65,2.15,0.38,3.51C65.75,71.62,59,87.25,43.75,95.46" class="grey" /><path d="M67.88,65.88c8.28,9.37,13.99,16.36,20.7,22.3c2.08,1.84,3.92,3.45,6.55,4.32" class="grey" /><path d="M29.5,16c0.38,1.53,0.2,2.79-0.43,4.59c-4.02,11.46-9.36,23.5-18.56,37.45" class="stroke" stroke-dasharray="150"><animate attributeName="stroke-dashoffset" from="150" to="0" dur="1.8s" begin="0s" fill="freeze" /></path><path d="M22.28,42c0.98,0.98,1.5,2.45,1.5,4c0,10.93-0.02,31.8-0.03,43.13c0,2.64,0,4.77,0,6.12" class="stroke" stroke-dasharray="150"><set attributeName="opacity" to="0" dur="1.2s" /><animate attributeName="stroke-dashoffset" from="150" to="0" dur="1.8s" begin="1.2s" fill="freeze" /></path><path d="M35.52,32.37c1,1,1.76,2.51,1.76,5.02c0,11.05,0,29.84,0,40.24c0,2.89,0,5.13,0,6.38" class="stroke" stroke-dasharray="150"><set attributeName="opacity" to="0" dur="2.5s" /><animate attributeName="stroke-dashoffset" from="150" to="0" dur="1.8s" begin="2.5s" fill="freeze" /></path><path d="M50.5,17.25c1,0.5,2.99,0.65,5,0.5C62,17.25,75.25,15.25,78,15s4.25,0.75,3.25,3.5C80.68,20.08,79,26.38,78.5,30" class="stroke" stroke-dasharray="150"><set attributeName="opacity" to="0" dur="3.8s" /><animate attributeName="stroke-dashoffset" from="150" to="0" dur="1.8s" begin="3.8s" fill="freeze" /></path><path d="M44,33.94c2.07,0.31,4.47,0.44,6.05,0.29C61.5,33.12,78,30.88,89.23,30.19c2.62-0.16,4.21-0.24,5.52,0.03" class="stroke" stroke-dasharray="150"><set attributeName="opacity" to="0" dur="5.0s" /><animate attributeName="stroke-dashoffset" from="150" to="0" dur="1.8s" begin="5.0s" fill="freeze" /></path><path d="M56.36,39.97c0.03,0.51,0.07,1.31-0.06,2.04c-0.75,4.3-5.49,14.87-10.21,18.79" class="stroke" stroke-dasharray="150"><set attributeName="opacity" to="0" dur="6.3s" /><animate attributeName="stroke-dashoffset" from="150" to="0" dur="1.8s" begin="6.3s" fill="freeze" /></path><path d="M57.23,49.11c1.14,0.02,2.7-0.05,3.64-0.17c4.37-0.56,13.05-1.88,19.5-2.88c1.74-0.27,3.71-0.43,5.47-0.07" class="stroke" stroke-dasharray="150"><set attributeName="opacity" to="0" dur="7.3s" /><animate attributeName="stroke-dashoffset" from="150" to="0" dur="1.8s" begin="7.3s" fill="freeze" /></path><path d="M45.13,66.83c2.87,0.54,5.59,0.22,8.01-0.02c10.47-1.03,24.48-3.09,33.25-3.75c2.79-0.21,5.33-0.48,8.08,0.07" class="stroke" stroke-dasharray="150"><set attributeName="opacity" to="0" dur="8.3s" /><animate attributeName="stroke-dashoffset" from="150" to="0" dur="1.8s" begin="8.3s" fill="freeze" /></path><path d="M68.89,50.84c0.48,1.04,0.65,2.15,0.38,3.51C65.75,71.62,59,87.25,43.75,95.46" class="stroke" stroke-dasharray="150"><set attributeName="opacity" to="0" dur="9.5s" /><animate attributeName="stroke-dashoffset" from="150" to="0" dur="1.8s" begin="9.5s" fill="freeze" /></path><path d="M67.88,65.88c8.28,9.37,13.99,16.36,20.7,22.3c2.08,1.84,3.92,3.45,6.55,4.32" class="stroke" stroke-dasharray="150"><set attributeName="opacity" to="0" dur="10.8s" /><animate attributeName="stroke-dashoffset" from="150" to="0" dur="1.8s" begin="10.8s" fill="freeze" /></path><text x="90" y="120" id="reset">⟳</text><text x="70" y="120" id="pause">◼</text><script type="text/javascript"><![CDATA[function RecurringTimer(e,t){var n,r,i=t;this.pause=function(){window.clearTimeout(n);i-=new Date-r};var s=function(){r=new Date;n=window.setTimeout(function(){i=t;s();e()},i)};this.clear=function(){window.clearTimeout(n);i=t;n=window.setTimeout(function(){i=t;s();e()},i)};this.resume=s;this.resume()}function invoketimer(){timer=new RecurringTimer(function(){svg.setCurrentTime(0)},12800)}var svg=document.getElementById("kanjivg");var pause=document.getElementById("pause");var reset=document.getElementById("reset");var timer;invoketimer();reset.onclick=function(){svg.setCurrentTime(0);timer.clear();svg.unpauseAnimations();pause.innerHTML = "◼";};pause.onclick=function(){if(svg.animationsPaused()){svg.unpauseAnimations();timer.resume();pause.innerHTML="◼"}else{svg.pauseAnimations();timer.pause();pause.innerHTML="▶"}}]]></script></svg>