<svg id="kanjivg" width="106" height="126" xmlns="http://www.w3.org/2000/svg" xmlns:xlink="http://www.w3.org/1999/xlink" xml:space="preserve" version="1.1" baseProfile="full"><defs><style type="text/css"><![CDATA[path.black { fill:none;stroke:black;stroke-width:5;stroke-linecap:round;stroke-linejoin:round; }path.grey { fill:none;stroke:#ddd;stroke-width:5;stroke-linecap:round;stroke-linejoin:round; }path.stroke { fill:none;stroke:black;stroke-width:5;stroke-linecap:round;stroke-linejoin:round; }rect { fill:none;stroke:#555;stroke-width:2;} text{font-size:16px;font-family:Segoe UI Symbol,Cambria Math,DejaVu Sans,Symbola,Quivira,STIX,Code2000;-webkit-touch-callout:none;cursor:pointer;-webkit-user-select:none;-khtml-user-select:none;-moz-user-select:none;-ms-user-select:none;user-select: none;} #reset { font-weight:bold; }]]></style><marker id="markerStart" markerWidth="8" markerHeight="8" style="overflow:visible;"><circle cx="0" cy="0" r="1.5" style="stroke:none;fill:red;fill-opacity:0.5;"/></marker><marker id="markerEnd" style="overflow:visible;"><circle cx="0" cy="0" r="0.8" style="stroke:none;fill:blue;fill-opacity:0.5;"><animate attributeName="opacity" from="1" to="0" dur="3s" repeatCount="indefinite" /></circle></marker></defs><rect x="4" y="4" width="100" height="100" /><path d="M29.25,17.14c0.12,1.18,0.21,2.67-0.11,4.12c-2.03,9.2-9.88,26.98-19.34,39.45" class="grey" /><path d="M23.53,41.5c0.59,0.61,0.76,1.97,0.76,3.23c0,13.02-0.29,40.15-0.29,48.9" class="grey" /><path d="M37.2,23.58c0.54,0.32,1.54,0.38,2.08,0.32c7.45-0.87,18.89-2.96,27.97-3.36c0.9-0.04,1.45,0.15,1.9,0.31" class="grey" /><path d="M51.94,25.22c0.32,0.45,0.43,1.86,0.19,2.38c-2.79,6.06-5.63,9.65-10.99,16.28c-1.42,1.75-1.33,3.15,0.67,2.6c4.66-1.3,15.56-4.76,22.9-6.9" class="grey" /><path d="M60.56,32.19c2.68,2.48,6.91,10.21,7.58,14.07" class="grey" /><path d="M52.73,46.92c0.08,0.27,1.25,1.39,1.25,3.08c0,5.64,0,25.85,0,28.62" class="grey" /><path d="M38.26,63.12c0.59,0.35,1.68,0.44,2.26,0.35c6.09-0.87,19.33-3.45,24.87-3.45c0.98,0,1.58,0.17,2.07,0.34" class="grey" /><path d="M36.77,84.87c0.83,0.89,2.59,1.35,3.27,1.04c11.76-5.45,16.89-7.86,28.31-12.4" class="grey" /><path d="M77.27,29.83c0.98,0.92,1.76,1.99,1.76,5.02c0,14.9-0.02,30.69-0.02,35.65" class="grey" /><path d="M92.27,15.83c0.98,0.92,1.67,1.99,1.76,5.02c0.4,14.55-0.26,62.16-0.26,67.12c0,13.14-5.71,3-7.21,1.75" class="grey" /><path d="M29.25,17.14c0.12,1.18,0.21,2.67-0.11,4.12c-2.03,9.2-9.88,26.98-19.34,39.45" class="stroke" stroke-dasharray="150"><animate attributeName="stroke-dashoffset" from="150" to="0" dur="1.8s" begin="0s" fill="freeze" /></path><path d="M23.53,41.5c0.59,0.61,0.76,1.97,0.76,3.23c0,13.02-0.29,40.15-0.29,48.9" class="stroke" stroke-dasharray="150"><set attributeName="opacity" to="0" dur="1.2s" /><animate attributeName="stroke-dashoffset" from="150" to="0" dur="1.8s" begin="1.2s" fill="freeze" /></path><path d="M37.2,23.58c0.54,0.32,1.54,0.38,2.08,0.32c7.45-0.87,18.89-2.96,27.97-3.36c0.9-0.04,1.45,0.15,1.9,0.31" class="stroke" stroke-dasharray="150"><set attributeName="opacity" to="0" dur="2.5s" /><animate attributeName="stroke-dashoffset" from="150" to="0" dur="1.8s" begin="2.5s" fill="freeze" /></path><path d="M51.94,25.22c0.32,0.45,0.43,1.86,0.19,2.38c-2.79,6.06-5.63,9.65-10.99,16.28c-1.42,1.75-1.33,3.15,0.67,2.6c4.66-1.3,15.56-4.76,22.9-6.9" class="stroke" stroke-dasharray="150"><set attributeName="opacity" to="0" dur="3.5s" /><animate attributeName="stroke-dashoffset" from="150" to="0" dur="1.8s" begin="3.5s" fill="freeze" /></path><path d="M60.56,32.19c2.68,2.48,6.91,10.21,7.58,14.07" class="stroke" stroke-dasharray="150"><set attributeName="opacity" to="0" dur="4.8s" /><animate attributeName="stroke-dashoffset" from="150" to="0" dur="1.8s" begin="4.8s" fill="freeze" /></path><path d="M52.73,46.92c0.08,0.27,1.25,1.39,1.25,3.08c0,5.64,0,25.85,0,28.62" class="stroke" stroke-dasharray="150"><set attributeName="opacity" to="0" dur="5.7s" /><animate attributeName="stroke-dashoffset" from="150" to="0" dur="1.8s" begin="5.7s" fill="freeze" /></path><path d="M38.26,63.12c0.59,0.35,1.68,0.44,2.26,0.35c6.09-0.87,19.33-3.45,24.87-3.45c0.98,0,1.58,0.17,2.07,0.34" class="stroke" stroke-dasharray="150"><set attributeName="opacity" to="0" dur="6.7s" /><animate attributeName="stroke-dashoffset" from="150" to="0" dur="1.8s" begin="6.7s" fill="freeze" /></path><path d="M36.77,84.87c0.83,0.89,2.59,1.35,3.27,1.04c11.76-5.45,16.89-7.86,28.31-12.4" class="stroke" stroke-dasharray="150"><set attributeName="opacity" to="0" dur="7.7s" /><animate attributeName="stroke-dashoffset" from="150" to="0" dur="1.8s" begin="7.7s" fill="freeze" /></path><path d="M77.27,29.83c0.98,0.92,1.76,1.99,1.76,5.02c0,14.9-0.02,30.69-0.02,35.65" class="stroke" stroke-dasharray="150"><set attributeName="opacity" to="0" dur="8.7s" /><animate attributeName="stroke-dashoffset" from="150" to="0" dur="1.8s" begin="8.7s" fill="freeze" /></path><path d="M92.27,15.83c0.98,0.92,1.67,1.99,1.76,5.02c0.4,14.55-0.26,62.16-0.26,67.12c0,13.14-5.71,3-7.21,1.75" class="stroke" stroke-dasharray="150"><set attributeName="opacity" to="0" dur="9.799999999999999s" /><animate attributeName="stroke-dashoffset" from="150" to="0" dur="1.8s" begin="9.799999999999999s" fill="freeze" /></path><text x="90" y="120" id="reset">⟳</text><text x="70" y="120" id="pause">◼</text><script type="text/javascript"><![CDATA[function RecurringTimer(e,t){var n,r,i=t;this.pause=function(){window.clearTimeout(n);i-=new Date-r};var s=function(){r=new Date;n=window.setTimeout(function(){i=t;s();e()},i)};this.clear=function(){window.clearTimeout(n);i=t;n=window.setTimeout(function(){i=t;s();e()},i)};this.resume=s;this.resume()}function invoketimer(){timer=new RecurringTimer(function(){svg.setCurrentTime(0)},12499)}var svg=document.getElementById("kanjivg");var pause=document.getElementById("pause");var reset=document.getElementById("reset");var timer;invoketimer();reset.onclick=function(){svg.setCurrentTime(0);timer.clear();svg.unpauseAnimations();pause.innerHTML = "◼";};pause.onclick=function(){if(svg.animationsPaused()){svg.unpauseAnimations();timer.resume();pause.innerHTML="◼"}else{svg.pauseAnimations();timer.pause();pause.innerHTML="▶"}}]]></script></svg>