<svg id="kanjivg" width="106" height="126" xmlns="http://www.w3.org/2000/svg" xmlns:xlink="http://www.w3.org/1999/xlink" xml:space="preserve" version="1.1" baseProfile="full"><defs><style type="text/css"><![CDATA[path.black { fill:none;stroke:black;stroke-width:5;stroke-linecap:round;stroke-linejoin:round; }path.grey { fill:none;stroke:#ddd;stroke-width:5;stroke-linecap:round;stroke-linejoin:round; }path.stroke { fill:none;stroke:black;stroke-width:5;stroke-linecap:round;stroke-linejoin:round; }rect { fill:none;stroke:#555;stroke-width:2;} text{font-size:16px;font-family:Segoe UI Symbol,Cambria Math,DejaVu Sans,Symbola,Quivira,STIX,Code2000;-webkit-touch-callout:none;cursor:pointer;-webkit-user-select:none;-khtml-user-select:none;-moz-user-select:none;-ms-user-select:none;user-select: none;} #reset { font-weight:bold; }]]></style><marker id="markerStart" markerWidth="8" markerHeight="8" style="overflow:visible;"><circle cx="0" cy="0" r="1.5" style="stroke:none;fill:red;fill-opacity:0.5;"/></marker><marker id="markerEnd" style="overflow:visible;"><circle cx="0" cy="0" r="0.8" style="stroke:none;fill:blue;fill-opacity:0.5;"><animate attributeName="opacity" from="1" to="0" dur="3s" repeatCount="indefinite" /></circle></marker></defs><rect x="4" y="4" width="100" height="100" /><path d="M33,16.14c0.12,1.23,0.21,2.78-0.11,4.29C30.87,30,23.02,48.5,13.56,61.47" class="grey" /><path d="M27.49,41.5c0.66,0.68,0.84,2.19,0.84,3.58c0,14.46-0.32,39.58-0.32,49.29" class="grey" /><path d="M43.44,19.76c1.29,0.61,3.79,0.62,5.16,0.49c7.38-0.68,34.24-4.43,37.21-4.6c3.03-0.17,3.71,1.5,3.71,3.33c0,3.07-2.67,6.18-3.8,12.67" class="grey" /><path d="M48.37,36.16c3.7-0.2,36.47-4.09,40.33-4.29" class="grey" /><path d="M47.74,20.43c0.16,3.57,0.27,5.12,0.16,8.68c-0.63,19.87-2.52,44.07-13.41,58.83" class="grey" /><path d="M69.71,39.08c0.67,0.39,2.23,2.66,2.23,4.22c0,6.11,0.15,37.55,0.15,47.09" class="grey" /><path d="M55.18,47.37c0.42,0.27,0.86,2.24,0.85,2.78c-0.08,3.83-0.35,7.28-1.27,11.66c-0.25,1.21,0.9,2.46,1.91,2.23c10.08-2.29,22.08-3.79,33.33-4.56" class="grey" /><path d="M90.42,42.71c0.77,0.36,1.08,3.13,0.95,3.85C90.61,50.9,90.75,55.25,90.2,63" class="grey" /><path d="M52.8,75.58c0.43,0.27,0.91,2.24,0.85,2.78c-0.28,2.38-0.32,8.28-1.47,13.12c-0.28,1.19,0.83,1.96,1.84,1.73C64,91,84,88.75,92.04,88.1" class="grey" /><path d="M91.99,70.39c0.49,0.38,1.28,3.35,1.26,4.12c-0.16,5.5-0.5,11-0.93,18.54" class="grey" /><path d="M33,16.14c0.12,1.23,0.21,2.78-0.11,4.29C30.87,30,23.02,48.5,13.56,61.47" class="stroke" stroke-dasharray="150"><animate attributeName="stroke-dashoffset" from="150" to="0" dur="1.8s" begin="0s" fill="freeze" /></path><path d="M27.49,41.5c0.66,0.68,0.84,2.19,0.84,3.58c0,14.46-0.32,39.58-0.32,49.29" class="stroke" stroke-dasharray="150"><set attributeName="opacity" to="0" dur="1.2s" /><animate attributeName="stroke-dashoffset" from="150" to="0" dur="1.8s" begin="1.2s" fill="freeze" /></path><path d="M43.44,19.76c1.29,0.61,3.79,0.62,5.16,0.49c7.38-0.68,34.24-4.43,37.21-4.6c3.03-0.17,3.71,1.5,3.71,3.33c0,3.07-2.67,6.18-3.8,12.67" class="stroke" stroke-dasharray="150"><set attributeName="opacity" to="0" dur="2.5s" /><animate attributeName="stroke-dashoffset" from="150" to="0" dur="1.8s" begin="2.5s" fill="freeze" /></path><path d="M48.37,36.16c3.7-0.2,36.47-4.09,40.33-4.29" class="stroke" stroke-dasharray="150"><set attributeName="opacity" to="0" dur="4.0s" /><animate attributeName="stroke-dashoffset" from="150" to="0" dur="1.8s" begin="4.0s" fill="freeze" /></path><path d="M47.74,20.43c0.16,3.57,0.27,5.12,0.16,8.68c-0.63,19.87-2.52,44.07-13.41,58.83" class="stroke" stroke-dasharray="150"><set attributeName="opacity" to="0" dur="5.1s" /><animate attributeName="stroke-dashoffset" from="150" to="0" dur="1.8s" begin="5.1s" fill="freeze" /></path><path d="M69.71,39.08c0.67,0.39,2.23,2.66,2.23,4.22c0,6.11,0.15,37.55,0.15,47.09" class="stroke" stroke-dasharray="150"><set attributeName="opacity" to="0" dur="6.6s" /><animate attributeName="stroke-dashoffset" from="150" to="0" dur="1.8s" begin="6.6s" fill="freeze" /></path><path d="M55.18,47.37c0.42,0.27,0.86,2.24,0.85,2.78c-0.08,3.83-0.35,7.28-1.27,11.66c-0.25,1.21,0.9,2.46,1.91,2.23c10.08-2.29,22.08-3.79,33.33-4.56" class="stroke" stroke-dasharray="150"><set attributeName="opacity" to="0" dur="7.8999999999999995s" /><animate attributeName="stroke-dashoffset" from="150" to="0" dur="1.8s" begin="7.8999999999999995s" fill="freeze" /></path><path d="M90.42,42.71c0.77,0.36,1.08,3.13,0.95,3.85C90.61,50.9,90.75,55.25,90.2,63" class="stroke" stroke-dasharray="150"><set attributeName="opacity" to="0" dur="9.2s" /><animate attributeName="stroke-dashoffset" from="150" to="0" dur="1.8s" begin="9.2s" fill="freeze" /></path><path d="M52.8,75.58c0.43,0.27,0.91,2.24,0.85,2.78c-0.28,2.38-0.32,8.28-1.47,13.12c-0.28,1.19,0.83,1.96,1.84,1.73C64,91,84,88.75,92.04,88.1" class="stroke" stroke-dasharray="150"><set attributeName="opacity" to="0" dur="10.2s" /><animate attributeName="stroke-dashoffset" from="150" to="0" dur="1.8s" begin="10.2s" fill="freeze" /></path><path d="M91.99,70.39c0.49,0.38,1.28,3.35,1.26,4.12c-0.16,5.5-0.5,11-0.93,18.54" class="stroke" stroke-dasharray="150"><set attributeName="opacity" to="0" dur="11.6s" /><animate attributeName="stroke-dashoffset" from="150" to="0" dur="1.8s" begin="11.6s" fill="freeze" /></path><text x="90" y="120" id="reset">⟳</text><text x="70" y="120" id="pause">◼</text><script type="text/javascript"><![CDATA[function RecurringTimer(e,t){var n,r,i=t;this.pause=function(){window.clearTimeout(n);i-=new Date-r};var s=function(){r=new Date;n=window.setTimeout(function(){i=t;s();e()},i)};this.clear=function(){window.clearTimeout(n);i=t;n=window.setTimeout(function(){i=t;s();e()},i)};this.resume=s;this.resume()}function invoketimer(){timer=new RecurringTimer(function(){svg.setCurrentTime(0)},13600)}var svg=document.getElementById("kanjivg");var pause=document.getElementById("pause");var reset=document.getElementById("reset");var timer;invoketimer();reset.onclick=function(){svg.setCurrentTime(0);timer.clear();svg.unpauseAnimations();pause.innerHTML = "◼";};pause.onclick=function(){if(svg.animationsPaused()){svg.unpauseAnimations();timer.resume();pause.innerHTML="◼"}else{svg.pauseAnimations();timer.pause();pause.innerHTML="▶"}}]]></script></svg>