<svg id="kanjivg" width="106" height="126" xmlns="http://www.w3.org/2000/svg" xmlns:xlink="http://www.w3.org/1999/xlink" xml:space="preserve" version="1.1" baseProfile="full"><defs><style type="text/css"><![CDATA[path.black { fill:none;stroke:black;stroke-width:5;stroke-linecap:round;stroke-linejoin:round; }path.grey { fill:none;stroke:#ddd;stroke-width:5;stroke-linecap:round;stroke-linejoin:round; }path.stroke { fill:none;stroke:black;stroke-width:5;stroke-linecap:round;stroke-linejoin:round; }rect { fill:none;stroke:#555;stroke-width:2;} text{font-size:16px;font-family:Segoe UI Symbol,Cambria Math,DejaVu Sans,Symbola,Quivira,STIX,Code2000;-webkit-touch-callout:none;cursor:pointer;-webkit-user-select:none;-khtml-user-select:none;-moz-user-select:none;-ms-user-select:none;user-select: none;} #reset { font-weight:bold; }]]></style><marker id="markerStart" markerWidth="8" markerHeight="8" style="overflow:visible;"><circle cx="0" cy="0" r="1.5" style="stroke:none;fill:red;fill-opacity:0.5;"/></marker><marker id="markerEnd" style="overflow:visible;"><circle cx="0" cy="0" r="0.8" style="stroke:none;fill:blue;fill-opacity:0.5;"><animate attributeName="opacity" from="1" to="0" dur="3s" repeatCount="indefinite" /></circle></marker></defs><rect x="4" y="4" width="100" height="100" /><path d="M29.75,17.14c0.12,1.18,0.1,2.21-0.36,3.62C26,31.25,19.25,47.5,9.81,60.72" class="grey" /><path d="M22.78,41c1.05,1.05,1.51,2.47,1.51,3.73c0,10.36-0.03,29.17-0.04,41.02c0,3.04,0,5.59,0,7.38" class="grey" /><path d="M38.2,23.58c1.93,0.42,3.84,0.11,5.19-0.08c6.28-0.85,14.09-2.12,21.24-2.74c1.71-0.15,3.59-0.5,5.25,0.09" class="grey" /><path d="M52.19,25.22c0.31,0.91,0.23,1.88-0.06,2.38c-3.38,5.9-6.25,9.65-10.99,16.28c-1.31,1.83-0.63,2.43,1.36,1.87c4.66-1.3,14.62-4.04,21.96-6.18" class="grey" /><path d="M59.94,31.94c3.07,2.17,7.94,8.94,8.71,12.32" class="grey" /><path d="M38.51,62.62c1.12,0.67,3.9,0.61,5.12,0.41c5.65-0.91,14.52-2.85,19.88-3.36c1.55-0.15,3.37-0.05,4.7,0.2" class="grey" /><path d="M52.73,46.42c0.99,0.99,1.25,2.33,1.25,3.58c0,5.64,0,25.6,0,28.37" class="grey" /><path d="M37.27,85.62c0.83,0.89,1.73,1.13,3.02,0.54c11.79-5.38,16.21-7.78,28.06-12.65" class="grey" /><path d="M77.27,29.83c0.98,0.92,1.76,1.99,1.76,5.02c0,10.46-0.01,21.37-0.02,28.65c0,3.09,0,5.52,0,7" class="grey" /><path d="M92.27,16.58c1.08,1.08,1.76,2.42,1.76,5.02c0,9.15-0.01,61.41-0.01,66.37c0,13.14-5.71,3-7.21,1.75" class="grey" /><path d="M29.75,17.14c0.12,1.18,0.1,2.21-0.36,3.62C26,31.25,19.25,47.5,9.81,60.72" class="stroke" stroke-dasharray="150"><animate attributeName="stroke-dashoffset" from="150" to="0" dur="1.8s" begin="0s" fill="freeze" /></path><path d="M22.78,41c1.05,1.05,1.51,2.47,1.51,3.73c0,10.36-0.03,29.17-0.04,41.02c0,3.04,0,5.59,0,7.38" class="stroke" stroke-dasharray="150"><set attributeName="opacity" to="0" dur="1.2s" /><animate attributeName="stroke-dashoffset" from="150" to="0" dur="1.8s" begin="1.2s" fill="freeze" /></path><path d="M38.2,23.58c1.93,0.42,3.84,0.11,5.19-0.08c6.28-0.85,14.09-2.12,21.24-2.74c1.71-0.15,3.59-0.5,5.25,0.09" class="stroke" stroke-dasharray="150"><set attributeName="opacity" to="0" dur="2.5s" /><animate attributeName="stroke-dashoffset" from="150" to="0" dur="1.8s" begin="2.5s" fill="freeze" /></path><path d="M52.19,25.22c0.31,0.91,0.23,1.88-0.06,2.38c-3.38,5.9-6.25,9.65-10.99,16.28c-1.31,1.83-0.63,2.43,1.36,1.87c4.66-1.3,14.62-4.04,21.96-6.18" class="stroke" stroke-dasharray="150"><set attributeName="opacity" to="0" dur="3.5s" /><animate attributeName="stroke-dashoffset" from="150" to="0" dur="1.8s" begin="3.5s" fill="freeze" /></path><path d="M59.94,31.94c3.07,2.17,7.94,8.94,8.71,12.32" class="stroke" stroke-dasharray="150"><set attributeName="opacity" to="0" dur="4.7s" /><animate attributeName="stroke-dashoffset" from="150" to="0" dur="1.8s" begin="4.7s" fill="freeze" /></path><path d="M38.51,62.62c1.12,0.67,3.9,0.61,5.12,0.41c5.65-0.91,14.52-2.85,19.88-3.36c1.55-0.15,3.37-0.05,4.7,0.2" class="stroke" stroke-dasharray="150"><set attributeName="opacity" to="0" dur="5.6000000000000005s" /><animate attributeName="stroke-dashoffset" from="150" to="0" dur="1.8s" begin="5.6000000000000005s" fill="freeze" /></path><path d="M52.73,46.42c0.99,0.99,1.25,2.33,1.25,3.58c0,5.64,0,25.6,0,28.37" class="stroke" stroke-dasharray="150"><set attributeName="opacity" to="0" dur="6.6000000000000005s" /><animate attributeName="stroke-dashoffset" from="150" to="0" dur="1.8s" begin="6.6000000000000005s" fill="freeze" /></path><path d="M37.27,85.62c0.83,0.89,1.73,1.13,3.02,0.54c11.79-5.38,16.21-7.78,28.06-12.65" class="stroke" stroke-dasharray="150"><set attributeName="opacity" to="0" dur="7.6000000000000005s" /><animate attributeName="stroke-dashoffset" from="150" to="0" dur="1.8s" begin="7.6000000000000005s" fill="freeze" /></path><path d="M77.27,29.83c0.98,0.92,1.76,1.99,1.76,5.02c0,10.46-0.01,21.37-0.02,28.65c0,3.09,0,5.52,0,7" class="stroke" stroke-dasharray="150"><set attributeName="opacity" to="0" dur="8.600000000000001s" /><animate attributeName="stroke-dashoffset" from="150" to="0" dur="1.8s" begin="8.600000000000001s" fill="freeze" /></path><path d="M92.27,16.58c1.08,1.08,1.76,2.42,1.76,5.02c0,9.15-0.01,61.41-0.01,66.37c0,13.14-5.71,3-7.21,1.75" class="stroke" stroke-dasharray="150"><set attributeName="opacity" to="0" dur="9.700000000000001s" /><animate attributeName="stroke-dashoffset" from="150" to="0" dur="1.8s" begin="9.700000000000001s" fill="freeze" /></path><text x="90" y="120" id="reset">⟳</text><text x="70" y="120" id="pause">◼</text><script type="text/javascript"><![CDATA[function RecurringTimer(e,t){var n,r,i=t;this.pause=function(){window.clearTimeout(n);i-=new Date-r};var s=function(){r=new Date;n=window.setTimeout(function(){i=t;s();e()},i)};this.clear=function(){window.clearTimeout(n);i=t;n=window.setTimeout(function(){i=t;s();e()},i)};this.resume=s;this.resume()}function invoketimer(){timer=new RecurringTimer(function(){svg.setCurrentTime(0)},12400)}var svg=document.getElementById("kanjivg");var pause=document.getElementById("pause");var reset=document.getElementById("reset");var timer;invoketimer();reset.onclick=function(){svg.setCurrentTime(0);timer.clear();svg.unpauseAnimations();pause.innerHTML = "◼";};pause.onclick=function(){if(svg.animationsPaused()){svg.unpauseAnimations();timer.resume();pause.innerHTML="◼"}else{svg.pauseAnimations();timer.pause();pause.innerHTML="▶"}}]]></script></svg>