<svg id="kanjivg" width="106" height="126" xmlns="http://www.w3.org/2000/svg" xmlns:xlink="http://www.w3.org/1999/xlink" xml:space="preserve" version="1.1" baseProfile="full"><defs><style type="text/css"><![CDATA[path.black { fill:none;stroke:black;stroke-width:5;stroke-linecap:round;stroke-linejoin:round; }path.grey { fill:none;stroke:#ddd;stroke-width:5;stroke-linecap:round;stroke-linejoin:round; }path.stroke { fill:none;stroke:black;stroke-width:5;stroke-linecap:round;stroke-linejoin:round; }rect { fill:none;stroke:#555;stroke-width:2;} text{font-size:16px;font-family:Segoe UI Symbol,Cambria Math,DejaVu Sans,Symbola,Quivira,STIX,Code2000;-webkit-touch-callout:none;cursor:pointer;-webkit-user-select:none;-khtml-user-select:none;-moz-user-select:none;-ms-user-select:none;user-select: none;} #reset { font-weight:bold; }]]></style><marker id="markerStart" markerWidth="8" markerHeight="8" style="overflow:visible;"><circle cx="0" cy="0" r="1.5" style="stroke:none;fill:red;fill-opacity:0.5;"/></marker><marker id="markerEnd" style="overflow:visible;"><circle cx="0" cy="0" r="0.8" style="stroke:none;fill:blue;fill-opacity:0.5;"><animate attributeName="opacity" from="1" to="0" dur="3s" repeatCount="indefinite" /></circle></marker></defs><rect x="4" y="4" width="100" height="100" /><path d="M27.77,15.14c0.11,1.04,0.05,2.13-0.34,3.38c-2.55,7.98-9.12,22.98-17.37,33.95" class="grey" /><path d="M21.53,38.5c0.59,0.61,0.76,1.97,0.76,3.23c0,10.48-0.03,32.69-0.04,45.52c0,3.11,0,5.67,0,7.38" class="grey" /><path d="M47.79,13c1.23,1.23,1.68,2.71,1.68,3.91c0,3.09-0.1,8.02-0.1,11.96" class="grey" /><path d="M31.36,32.87c2.06,0.18,3.61,0.38,5.65-0.08c7.56-1.7,14.82-3.02,20.88-4.11c1.83-0.33,3.49-0.68,5.4-0.06" class="grey" /><path d="M45.97,45.25c3.16,0.62,8.03,1.5,9.84,2.06c2.68,0.83,3.53,3.1,3.27,5.62c-0.82,8.12-6.64,26.61-10.43,31.76c-3.98,5.42-6.3,0.25-7.43-0.54" class="grey" /><path d="M46.71,34.25c0.54,1.25,0.53,2.36,0.16,3.75c-2.99,11.25-7.24,25.38-16.61,38.5" class="grey" /><path d="M73.46,14.64c0.03,0.71,0.18,1.86-0.06,2.84c-1.55,6.23-5.04,18.27-10.41,26.89" class="grey" /><path d="M70.67,35.07c1.46,0.18,3.31,0.04,4.34-0.13c5.14-0.85,12.11-2.94,17-4.21c1.31-0.34,2.98-0.73,4.75-0.3" class="grey" /><path d="M86.14,38.13c0.45,1.32,0.69,2.27,0.23,4.68c-4.26,21.95-12.99,39.44-28,48.69" class="grey" /><path d="M65.88,50.28c3.25,1.22,14.25,21.97,22.57,34.11c1.58,2.31,3.59,4.59,5.8,6.32" class="grey" /><path d="M27.77,15.14c0.11,1.04,0.05,2.13-0.34,3.38c-2.55,7.98-9.12,22.98-17.37,33.95" class="stroke" stroke-dasharray="150"><animate attributeName="stroke-dashoffset" from="150" to="0" dur="1.8s" begin="0s" fill="freeze" /></path><path d="M21.53,38.5c0.59,0.61,0.76,1.97,0.76,3.23c0,10.48-0.03,32.69-0.04,45.52c0,3.11,0,5.67,0,7.38" class="stroke" stroke-dasharray="150"><set attributeName="opacity" to="0" dur="1.1s" /><animate attributeName="stroke-dashoffset" from="150" to="0" dur="1.8s" begin="1.1s" fill="freeze" /></path><path d="M47.79,13c1.23,1.23,1.68,2.71,1.68,3.91c0,3.09-0.1,8.02-0.1,11.96" class="stroke" stroke-dasharray="150"><set attributeName="opacity" to="0" dur="2.5s" /><animate attributeName="stroke-dashoffset" from="150" to="0" dur="1.8s" begin="2.5s" fill="freeze" /></path><path d="M31.36,32.87c2.06,0.18,3.61,0.38,5.65-0.08c7.56-1.7,14.82-3.02,20.88-4.11c1.83-0.33,3.49-0.68,5.4-0.06" class="stroke" stroke-dasharray="150"><set attributeName="opacity" to="0" dur="3.4s" /><animate attributeName="stroke-dashoffset" from="150" to="0" dur="1.8s" begin="3.4s" fill="freeze" /></path><path d="M45.97,45.25c3.16,0.62,8.03,1.5,9.84,2.06c2.68,0.83,3.53,3.1,3.27,5.62c-0.82,8.12-6.64,26.61-10.43,31.76c-3.98,5.42-6.3,0.25-7.43-0.54" class="stroke" stroke-dasharray="150"><set attributeName="opacity" to="0" dur="4.4s" /><animate attributeName="stroke-dashoffset" from="150" to="0" dur="1.8s" begin="4.4s" fill="freeze" /></path><path d="M46.71,34.25c0.54,1.25,0.53,2.36,0.16,3.75c-2.99,11.25-7.24,25.38-16.61,38.5" class="stroke" stroke-dasharray="150"><set attributeName="opacity" to="0" dur="5.9s" /><animate attributeName="stroke-dashoffset" from="150" to="0" dur="1.8s" begin="5.9s" fill="freeze" /></path><path d="M73.46,14.64c0.03,0.71,0.18,1.86-0.06,2.84c-1.55,6.23-5.04,18.27-10.41,26.89" class="stroke" stroke-dasharray="150"><set attributeName="opacity" to="0" dur="7.1000000000000005s" /><animate attributeName="stroke-dashoffset" from="150" to="0" dur="1.8s" begin="7.1000000000000005s" fill="freeze" /></path><path d="M70.67,35.07c1.46,0.18,3.31,0.04,4.34-0.13c5.14-0.85,12.11-2.94,17-4.21c1.31-0.34,2.98-0.73,4.75-0.3" class="stroke" stroke-dasharray="150"><set attributeName="opacity" to="0" dur="8.100000000000001s" /><animate attributeName="stroke-dashoffset" from="150" to="0" dur="1.8s" begin="8.100000000000001s" fill="freeze" /></path><path d="M86.14,38.13c0.45,1.32,0.69,2.27,0.23,4.68c-4.26,21.95-12.99,39.44-28,48.69" class="stroke" stroke-dasharray="150"><set attributeName="opacity" to="0" dur="9.100000000000001s" /><animate attributeName="stroke-dashoffset" from="150" to="0" dur="1.8s" begin="9.100000000000001s" fill="freeze" /></path><path d="M65.88,50.28c3.25,1.22,14.25,21.97,22.57,34.11c1.58,2.31,3.59,4.59,5.8,6.32" class="stroke" stroke-dasharray="150"><set attributeName="opacity" to="0" dur="10.600000000000001s" /><animate attributeName="stroke-dashoffset" from="150" to="0" dur="1.8s" begin="10.600000000000001s" fill="freeze" /></path><text x="90" y="120" id="reset">⟳</text><text x="70" y="120" id="pause">◼</text><script type="text/javascript"><![CDATA[function RecurringTimer(e,t){var n,r,i=t;this.pause=function(){window.clearTimeout(n);i-=new Date-r};var s=function(){r=new Date;n=window.setTimeout(function(){i=t;s();e()},i)};this.clear=function(){window.clearTimeout(n);i=t;n=window.setTimeout(function(){i=t;s();e()},i)};this.resume=s;this.resume()}function invoketimer(){timer=new RecurringTimer(function(){svg.setCurrentTime(0)},12800)}var svg=document.getElementById("kanjivg");var pause=document.getElementById("pause");var reset=document.getElementById("reset");var timer;invoketimer();reset.onclick=function(){svg.setCurrentTime(0);timer.clear();svg.unpauseAnimations();pause.innerHTML = "◼";};pause.onclick=function(){if(svg.animationsPaused()){svg.unpauseAnimations();timer.resume();pause.innerHTML="◼"}else{svg.pauseAnimations();timer.pause();pause.innerHTML="▶"}}]]></script></svg>