<svg id="kanjivg" width="106" height="126" xmlns="http://www.w3.org/2000/svg" xmlns:xlink="http://www.w3.org/1999/xlink" xml:space="preserve" version="1.1" baseProfile="full"><defs><style type="text/css"><![CDATA[path.black { fill:none;stroke:black;stroke-width:5;stroke-linecap:round;stroke-linejoin:round; }path.grey { fill:none;stroke:#ddd;stroke-width:5;stroke-linecap:round;stroke-linejoin:round; }path.stroke { fill:none;stroke:black;stroke-width:5;stroke-linecap:round;stroke-linejoin:round; }rect { fill:none;stroke:#555;stroke-width:2;} text{font-size:16px;font-family:Segoe UI Symbol,Cambria Math,DejaVu Sans,Symbola,Quivira,STIX,Code2000;-webkit-touch-callout:none;cursor:pointer;-webkit-user-select:none;-khtml-user-select:none;-moz-user-select:none;-ms-user-select:none;user-select: none;} #reset { font-weight:bold; }]]></style><marker id="markerStart" markerWidth="8" markerHeight="8" style="overflow:visible;"><circle cx="0" cy="0" r="1.5" style="stroke:none;fill:red;fill-opacity:0.5;"/></marker><marker id="markerEnd" style="overflow:visible;"><circle cx="0" cy="0" r="0.8" style="stroke:none;fill:blue;fill-opacity:0.5;"><animate attributeName="opacity" from="1" to="0" dur="3s" repeatCount="indefinite" /></circle></marker></defs><rect x="4" y="4" width="100" height="100" /><path d="M31.49,17.39c0.13,1.2,0.24,2.71-0.12,4.19c-2.26,9.36-11.02,27.45-21.56,40.13" class="grey" /><path d="M25.99,41c0.66,0.68,0.84,2.19,0.84,3.58c0,14.46-0.32,41.08-0.32,50.79" class="grey" /><path d="M60.62,11.75c2.63,2,5.94,6.59,6.83,10.28" class="grey" /><path d="M39.57,27.73c0,3.51-2.06,13.18-2.99,15.52" class="grey" /><path d="M41.61,29.63c6.14-1.13,43.24-3.85,47.87-4.13c7.67-0.47,3.21,4.67-0.47,8.17" class="grey" /><path d="M56.02,36.25c0.07,0.5,0.08,1.29-0.15,2.03c-2,6.48-4.57,11.44-13.12,17.72" class="grey" /><path d="M70.01,32.72c1.02,0.88,1.83,1.92,1.89,3.28c0.12,2.8-0.04,5.46,0.04,7.73c0.21,5.97,0.98,7.25,9.33,6.89c4.02-0.17,8.49-0.91,10.48-1.4" class="grey" /><path d="M46.67,64.05c0.85,0.46,2.68,0.56,3.55,0.47c7.79-0.88,20.13-2.62,29.77-3.32c1.31-0.09,2.5,0.09,3.58,0.47" class="grey" /><path d="M64.08,64.45c0.96,1.25,0.96,2,0.96,3c0,7,0.15,15.3,0.15,23.3" class="grey" /><path d="M36.75,92.2c0.84,0.23,5.25,0.43,6.67,0.36c11.04-0.57,30.68-2.52,47.44-3.04c2.27-0.07,5,0.38,6.14,0.73" class="grey" /><path d="M31.49,17.39c0.13,1.2,0.24,2.71-0.12,4.19c-2.26,9.36-11.02,27.45-21.56,40.13" class="stroke" stroke-dasharray="150"><animate attributeName="stroke-dashoffset" from="150" to="0" dur="1.8s" begin="0s" fill="freeze" /></path><path d="M25.99,41c0.66,0.68,0.84,2.19,0.84,3.58c0,14.46-0.32,41.08-0.32,50.79" class="stroke" stroke-dasharray="150"><set attributeName="opacity" to="0" dur="1.3s" /><animate attributeName="stroke-dashoffset" from="150" to="0" dur="1.8s" begin="1.3s" fill="freeze" /></path><path d="M60.62,11.75c2.63,2,5.94,6.59,6.83,10.28" class="stroke" stroke-dasharray="150"><set attributeName="opacity" to="0" dur="2.6s" /><animate attributeName="stroke-dashoffset" from="150" to="0" dur="1.8s" begin="2.6s" fill="freeze" /></path><path d="M39.57,27.73c0,3.51-2.06,13.18-2.99,15.52" class="stroke" stroke-dasharray="150"><set attributeName="opacity" to="0" dur="3.5s" /><animate attributeName="stroke-dashoffset" from="150" to="0" dur="1.8s" begin="3.5s" fill="freeze" /></path><path d="M41.61,29.63c6.14-1.13,43.24-3.85,47.87-4.13c7.67-0.47,3.21,4.67-0.47,8.17" class="stroke" stroke-dasharray="150"><set attributeName="opacity" to="0" dur="4.4s" /><animate attributeName="stroke-dashoffset" from="150" to="0" dur="1.8s" begin="4.4s" fill="freeze" /></path><path d="M56.02,36.25c0.07,0.5,0.08,1.29-0.15,2.03c-2,6.48-4.57,11.44-13.12,17.72" class="stroke" stroke-dasharray="150"><set attributeName="opacity" to="0" dur="5.9s" /><animate attributeName="stroke-dashoffset" from="150" to="0" dur="1.8s" begin="5.9s" fill="freeze" /></path><path d="M70.01,32.72c1.02,0.88,1.83,1.92,1.89,3.28c0.12,2.8-0.04,5.46,0.04,7.73c0.21,5.97,0.98,7.25,9.33,6.89c4.02-0.17,8.49-0.91,10.48-1.4" class="stroke" stroke-dasharray="150"><set attributeName="opacity" to="0" dur="6.9s" /><animate attributeName="stroke-dashoffset" from="150" to="0" dur="1.8s" begin="6.9s" fill="freeze" /></path><path d="M46.67,64.05c0.85,0.46,2.68,0.56,3.55,0.47c7.79-0.88,20.13-2.62,29.77-3.32c1.31-0.09,2.5,0.09,3.58,0.47" class="stroke" stroke-dasharray="150"><set attributeName="opacity" to="0" dur="7.9s" /><animate attributeName="stroke-dashoffset" from="150" to="0" dur="1.8s" begin="7.9s" fill="freeze" /></path><path d="M64.08,64.45c0.96,1.25,0.96,2,0.96,3c0,7,0.15,15.3,0.15,23.3" class="stroke" stroke-dasharray="150"><set attributeName="opacity" to="0" dur="8.9s" /><animate attributeName="stroke-dashoffset" from="150" to="0" dur="1.8s" begin="8.9s" fill="freeze" /></path><path d="M36.75,92.2c0.84,0.23,5.25,0.43,6.67,0.36c11.04-0.57,30.68-2.52,47.44-3.04c2.27-0.07,5,0.38,6.14,0.73" class="stroke" stroke-dasharray="150"><set attributeName="opacity" to="0" dur="9.9s" /><animate attributeName="stroke-dashoffset" from="150" to="0" dur="1.8s" begin="9.9s" fill="freeze" /></path><text x="90" y="120" id="reset">⟳</text><text x="70" y="120" id="pause">◼</text><script type="text/javascript"><![CDATA[function RecurringTimer(e,t){var n,r,i=t;this.pause=function(){window.clearTimeout(n);i-=new Date-r};var s=function(){r=new Date;n=window.setTimeout(function(){i=t;s();e()},i)};this.clear=function(){window.clearTimeout(n);i=t;n=window.setTimeout(function(){i=t;s();e()},i)};this.resume=s;this.resume()}function invoketimer(){timer=new RecurringTimer(function(){svg.setCurrentTime(0)},12400)}var svg=document.getElementById("kanjivg");var pause=document.getElementById("pause");var reset=document.getElementById("reset");var timer;invoketimer();reset.onclick=function(){svg.setCurrentTime(0);timer.clear();svg.unpauseAnimations();pause.innerHTML = "◼";};pause.onclick=function(){if(svg.animationsPaused()){svg.unpauseAnimations();timer.resume();pause.innerHTML="◼"}else{svg.pauseAnimations();timer.pause();pause.innerHTML="▶"}}]]></script></svg>