<svg id="kanjivg" width="106" height="126" xmlns="http://www.w3.org/2000/svg" xmlns:xlink="http://www.w3.org/1999/xlink" xml:space="preserve" version="1.1" baseProfile="full"><defs><style type="text/css"><![CDATA[path.black { fill:none;stroke:black;stroke-width:5;stroke-linecap:round;stroke-linejoin:round; }path.grey { fill:none;stroke:#ddd;stroke-width:5;stroke-linecap:round;stroke-linejoin:round; }path.stroke { fill:none;stroke:black;stroke-width:5;stroke-linecap:round;stroke-linejoin:round; }rect { fill:none;stroke:#555;stroke-width:2;} text{font-size:16px;font-family:Segoe UI Symbol,Cambria Math,DejaVu Sans,Symbola,Quivira,STIX,Code2000;-webkit-touch-callout:none;cursor:pointer;-webkit-user-select:none;-khtml-user-select:none;-moz-user-select:none;-ms-user-select:none;user-select: none;} #reset { font-weight:bold; }]]></style><marker id="markerStart" markerWidth="8" markerHeight="8" style="overflow:visible;"><circle cx="0" cy="0" r="1.5" style="stroke:none;fill:red;fill-opacity:0.5;"/></marker><marker id="markerEnd" style="overflow:visible;"><circle cx="0" cy="0" r="0.8" style="stroke:none;fill:blue;fill-opacity:0.5;"><animate attributeName="opacity" from="1" to="0" dur="3s" repeatCount="indefinite" /></circle></marker></defs><rect x="4" y="4" width="100" height="100" /><path d="M33.48,16.89c0.14,1.12,0.25,2.53-0.13,3.91c-2.39,8.72-11.65,25.59-22.8,37.41" class="grey" /><path d="M24.99,43.5c0.66,0.68,0.84,2.19,0.84,3.58c0,14.46-0.32,40.08-0.32,49.79" class="grey" /><path d="M42.59,19.23c1.29,0.52,3.8,0.99,5.17,0.88c7.4-0.58,37.54-3.75,40.51-3.96c1.47-0.1,2.81,1.33,2.5,2.85c-0.77,3.74-2.84,8.02-3.97,13.57" class="grey" /><path d="M46.29,36.44C50,36.27,78,33,89.31,32.27" class="grey" /><path d="M46.12,20.79c0,2.9,0.19,8.79,0.16,11.51c-0.22,19.67-4.32,44.65-14.48,57.26" class="grey" /><path d="M47.32,56.71c0.79,0.24,3.42,0.38,5.53,0.21c8.66-0.71,27.18-3.68,39.64-3.68c2.12,0,2.65-0.24,3.97,0" class="grey" /><path d="M68.47,39.44c0.63,0.35,1.91,2.09,1.91,4.14c0,12.3,0,25.89-0.13,30.29" class="grey" /><path d="M51.7,74.74c0.23,0.64,1.01,2.08,1.09,2.57c0.58,3.54,2.37,12.23,3.19,18.94" class="grey" /><path d="M52.88,75.77c6.5-0.71,31.25-3.45,35.69-3.56c1.83-0.04,2.52,1.49,2.27,2.54c-0.97,4.06-2.17,10.72-3.17,16.13" class="grey" /><path d="M56.33,93.98c5.38-0.3,26.48-2.17,32.93-2.55" class="grey" /><path d="M33.48,16.89c0.14,1.12,0.25,2.53-0.13,3.91c-2.39,8.72-11.65,25.59-22.8,37.41" class="stroke" stroke-dasharray="150"><animate attributeName="stroke-dashoffset" from="150" to="0" dur="1.8s" begin="0s" fill="freeze" /></path><path d="M24.99,43.5c0.66,0.68,0.84,2.19,0.84,3.58c0,14.46-0.32,40.08-0.32,49.79" class="stroke" stroke-dasharray="150"><set attributeName="opacity" to="0" dur="1.2s" /><animate attributeName="stroke-dashoffset" from="150" to="0" dur="1.8s" begin="1.2s" fill="freeze" /></path><path d="M42.59,19.23c1.29,0.52,3.8,0.99,5.17,0.88c7.4-0.58,37.54-3.75,40.51-3.96c1.47-0.1,2.81,1.33,2.5,2.85c-0.77,3.74-2.84,8.02-3.97,13.57" class="stroke" stroke-dasharray="150"><set attributeName="opacity" to="0" dur="2.5s" /><animate attributeName="stroke-dashoffset" from="150" to="0" dur="1.8s" begin="2.5s" fill="freeze" /></path><path d="M46.29,36.44C50,36.27,78,33,89.31,32.27" class="stroke" stroke-dasharray="150"><set attributeName="opacity" to="0" dur="4.0s" /><animate attributeName="stroke-dashoffset" from="150" to="0" dur="1.8s" begin="4.0s" fill="freeze" /></path><path d="M46.12,20.79c0,2.9,0.19,8.79,0.16,11.51c-0.22,19.67-4.32,44.65-14.48,57.26" class="stroke" stroke-dasharray="150"><set attributeName="opacity" to="0" dur="5.1s" /><animate attributeName="stroke-dashoffset" from="150" to="0" dur="1.8s" begin="5.1s" fill="freeze" /></path><path d="M47.32,56.71c0.79,0.24,3.42,0.38,5.53,0.21c8.66-0.71,27.18-3.68,39.64-3.68c2.12,0,2.65-0.24,3.97,0" class="stroke" stroke-dasharray="150"><set attributeName="opacity" to="0" dur="6.8s" /><animate attributeName="stroke-dashoffset" from="150" to="0" dur="1.8s" begin="6.8s" fill="freeze" /></path><path d="M68.47,39.44c0.63,0.35,1.91,2.09,1.91,4.14c0,12.3,0,25.89-0.13,30.29" class="stroke" stroke-dasharray="150"><set attributeName="opacity" to="0" dur="8.0s" /><animate attributeName="stroke-dashoffset" from="150" to="0" dur="1.8s" begin="8.0s" fill="freeze" /></path><path d="M51.7,74.74c0.23,0.64,1.01,2.08,1.09,2.57c0.58,3.54,2.37,12.23,3.19,18.94" class="stroke" stroke-dasharray="150"><set attributeName="opacity" to="0" dur="9.0s" /><animate attributeName="stroke-dashoffset" from="150" to="0" dur="1.8s" begin="9.0s" fill="freeze" /></path><path d="M52.88,75.77c6.5-0.71,31.25-3.45,35.69-3.56c1.83-0.04,2.52,1.49,2.27,2.54c-0.97,4.06-2.17,10.72-3.17,16.13" class="stroke" stroke-dasharray="150"><set attributeName="opacity" to="0" dur="10.0s" /><animate attributeName="stroke-dashoffset" from="150" to="0" dur="1.8s" begin="10.0s" fill="freeze" /></path><path d="M56.33,93.98c5.38-0.3,26.48-2.17,32.93-2.55" class="stroke" stroke-dasharray="150"><set attributeName="opacity" to="0" dur="11.4s" /><animate attributeName="stroke-dashoffset" from="150" to="0" dur="1.8s" begin="11.4s" fill="freeze" /></path><text x="90" y="120" id="reset">⟳</text><text x="70" y="120" id="pause">◼</text><script type="text/javascript"><![CDATA[function RecurringTimer(e,t){var n,r,i=t;this.pause=function(){window.clearTimeout(n);i-=new Date-r};var s=function(){r=new Date;n=window.setTimeout(function(){i=t;s();e()},i)};this.clear=function(){window.clearTimeout(n);i=t;n=window.setTimeout(function(){i=t;s();e()},i)};this.resume=s;this.resume()}function invoketimer(){timer=new RecurringTimer(function(){svg.setCurrentTime(0)},13400)}var svg=document.getElementById("kanjivg");var pause=document.getElementById("pause");var reset=document.getElementById("reset");var timer;invoketimer();reset.onclick=function(){svg.setCurrentTime(0);timer.clear();svg.unpauseAnimations();pause.innerHTML = "◼";};pause.onclick=function(){if(svg.animationsPaused()){svg.unpauseAnimations();timer.resume();pause.innerHTML="◼"}else{svg.pauseAnimations();timer.pause();pause.innerHTML="▶"}}]]></script></svg>