<svg id="kanjivg" width="106" height="126" xmlns="http://www.w3.org/2000/svg" xmlns:xlink="http://www.w3.org/1999/xlink" xml:space="preserve" version="1.1" baseProfile="full"><defs><style type="text/css"><![CDATA[path.black { fill:none;stroke:black;stroke-width:5;stroke-linecap:round;stroke-linejoin:round; }path.grey { fill:none;stroke:#ddd;stroke-width:5;stroke-linecap:round;stroke-linejoin:round; }path.stroke { fill:none;stroke:black;stroke-width:5;stroke-linecap:round;stroke-linejoin:round; }rect { fill:none;stroke:#555;stroke-width:2;} text{font-size:16px;font-family:Segoe UI Symbol,Cambria Math,DejaVu Sans,Symbola,Quivira,STIX,Code2000;-webkit-touch-callout:none;cursor:pointer;-webkit-user-select:none;-khtml-user-select:none;-moz-user-select:none;-ms-user-select:none;user-select: none;} #reset { font-weight:bold; }]]></style><marker id="markerStart" markerWidth="8" markerHeight="8" style="overflow:visible;"><circle cx="0" cy="0" r="1.5" style="stroke:none;fill:red;fill-opacity:0.5;"/></marker><marker id="markerEnd" style="overflow:visible;"><circle cx="0" cy="0" r="0.8" style="stroke:none;fill:blue;fill-opacity:0.5;"><animate attributeName="opacity" from="1" to="0" dur="3s" repeatCount="indefinite" /></circle></marker></defs><rect x="4" y="4" width="100" height="100" /><path d="M30.49,16.39c0.13,1.16,0.23,2.62-0.12,4.05c-2.21,9.04-10.76,26.52-21.07,38.77" class="grey" /><path d="M25.03,40c0.59,0.61,0.76,1.97,0.76,3.23c0,13.02-0.29,41.65-0.29,50.4" class="grey" /><path d="M50.24,19.06c0.04,0.38,0.08,0.99-0.08,1.54c-0.94,3.25-6.15,8.78-13.77,14.73" class="grey" /><path d="M74.12,18.8c6.22,2.34,15.15,9.06,16.71,12.69" class="grey" /><path d="M42.16,35.21c1.16,0.18,3.28,0.23,4.43,0.18c7.37-0.31,24.53-2.14,33.72-2.31c1.93-0.04,3.08,0.09,4.05,0.18" class="grey" /><path d="M35.58,48.24c1.69,0.47,4.79,0.47,6.48,0.47c10.07-0.02,30.98-2.72,48.72-2.92c2.82-0.03,4.51,0.22,5.92,0.46" class="grey" /><path d="M62.51,14.25c0.57,0.8,0.92,2.01,0.6,3.8c-1.07,5.97-13.52,38.59-28.61,49.13" class="grey" /><path d="M67.38,35.56c3.56,5.61,18.91,23.92,22.84,28.03c1.33,1.39,3.05,1.99,4.38,2.39" class="grey" /><path d="M49.93,61.54c0.59,0.06,2.15,0.17,3.32,0.05c4.58-0.5,18.76-2.32,20.3-2.71c2.31-0.59,3.91,0.66,3.94,2.58c0.04,3.27-2.16,10.65-4.92,15.98c-2.01,3.89-4.65,0.76-5.73-0.46" class="grey" /><path d="M52.08,62.12c0,1.94,0.08,3.14,0.08,4.94c0,10.75,0.22,10.1,0.22,15.57c0,10.99,2.12,11.32,18.24,11.32c16.74,0,18.92-0.92,18.92-8.96" class="grey" /><path d="M30.49,16.39c0.13,1.16,0.23,2.62-0.12,4.05c-2.21,9.04-10.76,26.52-21.07,38.77" class="stroke" stroke-dasharray="150"><animate attributeName="stroke-dashoffset" from="150" to="0" dur="1.8s" begin="0s" fill="freeze" /></path><path d="M25.03,40c0.59,0.61,0.76,1.97,0.76,3.23c0,13.02-0.29,41.65-0.29,50.4" class="stroke" stroke-dasharray="150"><set attributeName="opacity" to="0" dur="1.2s" /><animate attributeName="stroke-dashoffset" from="150" to="0" dur="1.8s" begin="1.2s" fill="freeze" /></path><path d="M50.24,19.06c0.04,0.38,0.08,0.99-0.08,1.54c-0.94,3.25-6.15,8.78-13.77,14.73" class="stroke" stroke-dasharray="150"><set attributeName="opacity" to="0" dur="2.5s" /><animate attributeName="stroke-dashoffset" from="150" to="0" dur="1.8s" begin="2.5s" fill="freeze" /></path><path d="M74.12,18.8c6.22,2.34,15.15,9.06,16.71,12.69" class="stroke" stroke-dasharray="150"><set attributeName="opacity" to="0" dur="3.5s" /><animate attributeName="stroke-dashoffset" from="150" to="0" dur="1.8s" begin="3.5s" fill="freeze" /></path><path d="M42.16,35.21c1.16,0.18,3.28,0.23,4.43,0.18c7.37-0.31,24.53-2.14,33.72-2.31c1.93-0.04,3.08,0.09,4.05,0.18" class="stroke" stroke-dasharray="150"><set attributeName="opacity" to="0" dur="4.5s" /><animate attributeName="stroke-dashoffset" from="150" to="0" dur="1.8s" begin="4.5s" fill="freeze" /></path><path d="M35.58,48.24c1.69,0.47,4.79,0.47,6.48,0.47c10.07-0.02,30.98-2.72,48.72-2.92c2.82-0.03,4.51,0.22,5.92,0.46" class="stroke" stroke-dasharray="150"><set attributeName="opacity" to="0" dur="5.6s" /><animate attributeName="stroke-dashoffset" from="150" to="0" dur="1.8s" begin="5.6s" fill="freeze" /></path><path d="M62.51,14.25c0.57,0.8,0.92,2.01,0.6,3.8c-1.07,5.97-13.52,38.59-28.61,49.13" class="stroke" stroke-dasharray="150"><set attributeName="opacity" to="0" dur="7.1s" /><animate attributeName="stroke-dashoffset" from="150" to="0" dur="1.8s" begin="7.1s" fill="freeze" /></path><path d="M67.38,35.56c3.56,5.61,18.91,23.92,22.84,28.03c1.33,1.39,3.05,1.99,4.38,2.39" class="stroke" stroke-dasharray="150"><set attributeName="opacity" to="0" dur="8.6s" /><animate attributeName="stroke-dashoffset" from="150" to="0" dur="1.8s" begin="8.6s" fill="freeze" /></path><path d="M49.93,61.54c0.59,0.06,2.15,0.17,3.32,0.05c4.58-0.5,18.76-2.32,20.3-2.71c2.31-0.59,3.91,0.66,3.94,2.58c0.04,3.27-2.16,10.65-4.92,15.98c-2.01,3.89-4.65,0.76-5.73-0.46" class="stroke" stroke-dasharray="150"><set attributeName="opacity" to="0" dur="9.7s" /><animate attributeName="stroke-dashoffset" from="150" to="0" dur="1.8s" begin="9.7s" fill="freeze" /></path><path d="M52.08,62.12c0,1.94,0.08,3.14,0.08,4.94c0,10.75,0.22,10.1,0.22,15.57c0,10.99,2.12,11.32,18.24,11.32c16.74,0,18.92-0.92,18.92-8.96" class="stroke" stroke-dasharray="150"><set attributeName="opacity" to="0" dur="11.0s" /><animate attributeName="stroke-dashoffset" from="150" to="0" dur="1.8s" begin="11.0s" fill="freeze" /></path><text x="90" y="120" id="reset">⟳</text><text x="70" y="120" id="pause">◼</text><script type="text/javascript"><![CDATA[function RecurringTimer(e,t){var n,r,i=t;this.pause=function(){window.clearTimeout(n);i-=new Date-r};var s=function(){r=new Date;n=window.setTimeout(function(){i=t;s();e()},i)};this.clear=function(){window.clearTimeout(n);i=t;n=window.setTimeout(function(){i=t;s();e()},i)};this.resume=s;this.resume()}function invoketimer(){timer=new RecurringTimer(function(){svg.setCurrentTime(0)},13700)}var svg=document.getElementById("kanjivg");var pause=document.getElementById("pause");var reset=document.getElementById("reset");var timer;invoketimer();reset.onclick=function(){svg.setCurrentTime(0);timer.clear();svg.unpauseAnimations();pause.innerHTML = "◼";};pause.onclick=function(){if(svg.animationsPaused()){svg.unpauseAnimations();timer.resume();pause.innerHTML="◼"}else{svg.pauseAnimations();timer.pause();pause.innerHTML="▶"}}]]></script></svg>