<svg id="kanjivg" width="106" height="126" xmlns="http://www.w3.org/2000/svg" xmlns:xlink="http://www.w3.org/1999/xlink" xml:space="preserve" version="1.1" baseProfile="full"><defs><style type="text/css"><![CDATA[path.black { fill:none;stroke:black;stroke-width:5;stroke-linecap:round;stroke-linejoin:round; }path.grey { fill:none;stroke:#ddd;stroke-width:5;stroke-linecap:round;stroke-linejoin:round; }path.stroke { fill:none;stroke:black;stroke-width:5;stroke-linecap:round;stroke-linejoin:round; }rect { fill:none;stroke:#555;stroke-width:2;} text{font-size:16px;font-family:Segoe UI Symbol,Cambria Math,DejaVu Sans,Symbola,Quivira,STIX,Code2000;-webkit-touch-callout:none;cursor:pointer;-webkit-user-select:none;-khtml-user-select:none;-moz-user-select:none;-ms-user-select:none;user-select: none;} #reset { font-weight:bold; }]]></style><marker id="markerStart" markerWidth="8" markerHeight="8" style="overflow:visible;"><circle cx="0" cy="0" r="1.5" style="stroke:none;fill:red;fill-opacity:0.5;"/></marker><marker id="markerEnd" style="overflow:visible;"><circle cx="0" cy="0" r="0.8" style="stroke:none;fill:blue;fill-opacity:0.5;"><animate attributeName="opacity" from="1" to="0" dur="3s" repeatCount="indefinite" /></circle></marker></defs><rect x="4" y="4" width="100" height="100" /><path d="M32.01,17.39c0.12,1.06,0.2,2.39-0.1,3.7c-1.95,8.25-9.5,24.2-18.59,35.38" class="grey" /><path d="M26.99,39.5c0.66,0.68,0.84,2.19,0.84,3.58c0,14.46-0.32,42.58-0.32,52.29" class="grey" /><path d="M45.27,16.37c0.41,0.71,1.34,2.09,1.34,3.03c0,0.94,3.36,25.96,3.36,26.43c0,0.47,0.14,0.47,0.27,1.42" class="grey" /><path d="M47.28,18.51c2.29-0.12,34.85-3.88,36.94-4.02c1.74-0.12,3.54,1.8,3.25,3.54C86.44,24.27,85,35.5,82.85,44.71" class="grey" /><path d="M48.7,30.81c6.32-0.57,12.64-1.05,18.96-1.57c1.85-0.15,3.68-0.3,5.44-0.44" class="grey" /><path d="M50.13,45.6c6.32-0.51,25.32-2.36,33.2-2.8" class="grey" /><path d="M42.52,61.19c0.57,0.78,1.01,1.67,1.15,2.7c0.33,2.46,3.62,29.06,3.62,29.58c0,0.52,0.19,1.99,0.38,3.03" class="grey" /><path d="M43.62,62.8c3.24-0.13,42.53-3.15,45.49-3.31c2.46-0.13,3.54,2.22,3.39,3.44c-0.75,6.13-3.75,24.07-6.29,31.59" class="grey" /><path d="M45.69,77.87c7.9-0.6,15.81-1.14,23.72-1.66c2.32-0.15,4.6-0.3,6.76-0.44" class="grey" /><path d="M47.49,94.61c8.94-0.56,27.23-1.56,38.37-2.04" class="grey" /><path d="M32.01,17.39c0.12,1.06,0.2,2.39-0.1,3.7c-1.95,8.25-9.5,24.2-18.59,35.38" class="stroke" stroke-dasharray="150"><animate attributeName="stroke-dashoffset" from="150" to="0" dur="1.8s" begin="0s" fill="freeze" /></path><path d="M26.99,39.5c0.66,0.68,0.84,2.19,0.84,3.58c0,14.46-0.32,42.58-0.32,52.29" class="stroke" stroke-dasharray="150"><set attributeName="opacity" to="0" dur="1.1s" /><animate attributeName="stroke-dashoffset" from="150" to="0" dur="1.8s" begin="1.1s" fill="freeze" /></path><path d="M45.27,16.37c0.41,0.71,1.34,2.09,1.34,3.03c0,0.94,3.36,25.96,3.36,26.43c0,0.47,0.14,0.47,0.27,1.42" class="stroke" stroke-dasharray="150"><set attributeName="opacity" to="0" dur="2.5s" /><animate attributeName="stroke-dashoffset" from="150" to="0" dur="1.8s" begin="2.5s" fill="freeze" /></path><path d="M47.28,18.51c2.29-0.12,34.85-3.88,36.94-4.02c1.74-0.12,3.54,1.8,3.25,3.54C86.44,24.27,85,35.5,82.85,44.71" class="stroke" stroke-dasharray="150"><set attributeName="opacity" to="0" dur="3.5s" /><animate attributeName="stroke-dashoffset" from="150" to="0" dur="1.8s" begin="3.5s" fill="freeze" /></path><path d="M48.7,30.81c6.32-0.57,12.64-1.05,18.96-1.57c1.85-0.15,3.68-0.3,5.44-0.44" class="stroke" stroke-dasharray="150"><set attributeName="opacity" to="0" dur="5.0s" /><animate attributeName="stroke-dashoffset" from="150" to="0" dur="1.8s" begin="5.0s" fill="freeze" /></path><path d="M50.13,45.6c6.32-0.51,25.32-2.36,33.2-2.8" class="stroke" stroke-dasharray="150"><set attributeName="opacity" to="0" dur="6.0s" /><animate attributeName="stroke-dashoffset" from="150" to="0" dur="1.8s" begin="6.0s" fill="freeze" /></path><path d="M42.52,61.19c0.57,0.78,1.01,1.67,1.15,2.7c0.33,2.46,3.62,29.06,3.62,29.58c0,0.52,0.19,1.99,0.38,3.03" class="stroke" stroke-dasharray="150"><set attributeName="opacity" to="0" dur="7.0s" /><animate attributeName="stroke-dashoffset" from="150" to="0" dur="1.8s" begin="7.0s" fill="freeze" /></path><path d="M43.62,62.8c3.24-0.13,42.53-3.15,45.49-3.31c2.46-0.13,3.54,2.22,3.39,3.44c-0.75,6.13-3.75,24.07-6.29,31.59" class="stroke" stroke-dasharray="150"><set attributeName="opacity" to="0" dur="8.0s" /><animate attributeName="stroke-dashoffset" from="150" to="0" dur="1.8s" begin="8.0s" fill="freeze" /></path><path d="M45.69,77.87c7.9-0.6,15.81-1.14,23.72-1.66c2.32-0.15,4.6-0.3,6.76-0.44" class="stroke" stroke-dasharray="150"><set attributeName="opacity" to="0" dur="9.7s" /><animate attributeName="stroke-dashoffset" from="150" to="0" dur="1.8s" begin="9.7s" fill="freeze" /></path><path d="M47.49,94.61c8.94-0.56,27.23-1.56,38.37-2.04" class="stroke" stroke-dasharray="150"><set attributeName="opacity" to="0" dur="10.7s" /><animate attributeName="stroke-dashoffset" from="150" to="0" dur="1.8s" begin="10.7s" fill="freeze" /></path><text x="90" y="120" id="reset">⟳</text><text x="70" y="120" id="pause">◼</text><script type="text/javascript"><![CDATA[function RecurringTimer(e,t){var n,r,i=t;this.pause=function(){window.clearTimeout(n);i-=new Date-r};var s=function(){r=new Date;n=window.setTimeout(function(){i=t;s();e()},i)};this.clear=function(){window.clearTimeout(n);i=t;n=window.setTimeout(function(){i=t;s();e()},i)};this.resume=s;this.resume()}function invoketimer(){timer=new RecurringTimer(function(){svg.setCurrentTime(0)},12700)}var svg=document.getElementById("kanjivg");var pause=document.getElementById("pause");var reset=document.getElementById("reset");var timer;invoketimer();reset.onclick=function(){svg.setCurrentTime(0);timer.clear();svg.unpauseAnimations();pause.innerHTML = "◼";};pause.onclick=function(){if(svg.animationsPaused()){svg.unpauseAnimations();timer.resume();pause.innerHTML="◼"}else{svg.pauseAnimations();timer.pause();pause.innerHTML="▶"}}]]></script></svg>