<svg id="kanjivg" width="106" height="126" xmlns="http://www.w3.org/2000/svg" xmlns:xlink="http://www.w3.org/1999/xlink" xml:space="preserve" version="1.1" baseProfile="full"><defs><style type="text/css"><![CDATA[path.black { fill:none;stroke:black;stroke-width:5;stroke-linecap:round;stroke-linejoin:round; }path.grey { fill:none;stroke:#ddd;stroke-width:5;stroke-linecap:round;stroke-linejoin:round; }path.stroke { fill:none;stroke:black;stroke-width:5;stroke-linecap:round;stroke-linejoin:round; }rect { fill:none;stroke:#555;stroke-width:2;} text{font-size:16px;font-family:Segoe UI Symbol,Cambria Math,DejaVu Sans,Symbola,Quivira,STIX,Code2000;-webkit-touch-callout:none;cursor:pointer;-webkit-user-select:none;-khtml-user-select:none;-moz-user-select:none;-ms-user-select:none;user-select: none;} #reset { font-weight:bold; }]]></style><marker id="markerStart" markerWidth="8" markerHeight="8" style="overflow:visible;"><circle cx="0" cy="0" r="1.5" style="stroke:none;fill:red;fill-opacity:0.5;"/></marker><marker id="markerEnd" style="overflow:visible;"><circle cx="0" cy="0" r="0.8" style="stroke:none;fill:blue;fill-opacity:0.5;"><animate attributeName="opacity" from="1" to="0" dur="3s" repeatCount="indefinite" /></circle></marker></defs><rect x="4" y="4" width="100" height="100" /><path d="M33.25,17.39c0.13,1.18,0.22,2.67-0.11,4.12c-2.11,9.2-10.26,26.98-20.08,39.45" class="grey" /><path d="M26.99,43.5c0.66,0.68,0.84,2.19,0.84,3.58c0,14.46-0.32,38.08-0.32,47.79" class="grey" /><path d="M43.62,21.85c0.99,0.34,2.8,0.41,3.79,0.34c7.12-0.49,29.75-3.52,35.89-4.05c1.64-0.14,2.32-0.08,3.19-0.02" class="grey" /><path d="M61.62,10.88c0.8,0.23,2.65,2.7,2.65,3.18c0,5.93,0.37,20.08,0.45,27.41" class="grey" /><path d="M43.96,32.82c0.99,0.25,2.8,0.3,3.79,0.25c7.13-0.36,28.11-3.64,34.25-4.03c1.64-0.1,2.85-0.06,3.72-0.02" class="grey" /><path d="M35.88,44.64c1.54,0.27,4.37,0.41,5.91,0.27c12.52-1.16,34.53-3.91,47.82-5.18c2.54-0.24,6.29-0.23,8.14,0.43" class="grey" /><path d="M48.06,52.78c0.71,0.55,1.18,2.1,1.41,2.65c0.24,0.55,0.13,24.58,0.13,40.32" class="grey" /><path d="M49.39,54.33c5.36-0.58,26.26-3.61,28.37-3.61c2.49,0,4.21,0.78,4.21,2.61c0,4.18-0.1,25.74-0.21,36.85C81.67,100,77,94,74.97,91.91" class="grey" /><path d="M65.39,52.36c0,4.64-0.14,13.89-0.14,16.64" class="grey" /><path d="M50.6,70.74c9.65-0.74,21.65-2.24,31.47-2.42" class="grey" /><path d="M33.25,17.39c0.13,1.18,0.22,2.67-0.11,4.12c-2.11,9.2-10.26,26.98-20.08,39.45" class="stroke" stroke-dasharray="150"><animate attributeName="stroke-dashoffset" from="150" to="0" dur="1.8s" begin="0s" fill="freeze" /></path><path d="M26.99,43.5c0.66,0.68,0.84,2.19,0.84,3.58c0,14.46-0.32,38.08-0.32,47.79" class="stroke" stroke-dasharray="150"><set attributeName="opacity" to="0" dur="1.2s" /><animate attributeName="stroke-dashoffset" from="150" to="0" dur="1.8s" begin="1.2s" fill="freeze" /></path><path d="M43.62,21.85c0.99,0.34,2.8,0.41,3.79,0.34c7.12-0.49,29.75-3.52,35.89-4.05c1.64-0.14,2.32-0.08,3.19-0.02" class="stroke" stroke-dasharray="150"><set attributeName="opacity" to="0" dur="2.5s" /><animate attributeName="stroke-dashoffset" from="150" to="0" dur="1.8s" begin="2.5s" fill="freeze" /></path><path d="M61.62,10.88c0.8,0.23,2.65,2.7,2.65,3.18c0,5.93,0.37,20.08,0.45,27.41" class="stroke" stroke-dasharray="150"><set attributeName="opacity" to="0" dur="3.6s" /><animate attributeName="stroke-dashoffset" from="150" to="0" dur="1.8s" begin="3.6s" fill="freeze" /></path><path d="M43.96,32.82c0.99,0.25,2.8,0.3,3.79,0.25c7.13-0.36,28.11-3.64,34.25-4.03c1.64-0.1,2.85-0.06,3.72-0.02" class="stroke" stroke-dasharray="150"><set attributeName="opacity" to="0" dur="4.6s" /><animate attributeName="stroke-dashoffset" from="150" to="0" dur="1.8s" begin="4.6s" fill="freeze" /></path><path d="M35.88,44.64c1.54,0.27,4.37,0.41,5.91,0.27c12.52-1.16,34.53-3.91,47.82-5.18c2.54-0.24,6.29-0.23,8.14,0.43" class="stroke" stroke-dasharray="150"><set attributeName="opacity" to="0" dur="5.699999999999999s" /><animate attributeName="stroke-dashoffset" from="150" to="0" dur="1.8s" begin="5.699999999999999s" fill="freeze" /></path><path d="M48.06,52.78c0.71,0.55,1.18,2.1,1.41,2.65c0.24,0.55,0.13,24.58,0.13,40.32" class="stroke" stroke-dasharray="150"><set attributeName="opacity" to="0" dur="7.199999999999999s" /><animate attributeName="stroke-dashoffset" from="150" to="0" dur="1.8s" begin="7.199999999999999s" fill="freeze" /></path><path d="M49.39,54.33c5.36-0.58,26.26-3.61,28.37-3.61c2.49,0,4.21,0.78,4.21,2.61c0,4.18-0.1,25.74-0.21,36.85C81.67,100,77,94,74.97,91.91" class="stroke" stroke-dasharray="150"><set attributeName="opacity" to="0" dur="8.299999999999999s" /><animate attributeName="stroke-dashoffset" from="150" to="0" dur="1.8s" begin="8.299999999999999s" fill="freeze" /></path><path d="M65.39,52.36c0,4.64-0.14,13.89-0.14,16.64" class="stroke" stroke-dasharray="150"><set attributeName="opacity" to="0" dur="9.999999999999998s" /><animate attributeName="stroke-dashoffset" from="150" to="0" dur="1.8s" begin="9.999999999999998s" fill="freeze" /></path><path d="M50.6,70.74c9.65-0.74,21.65-2.24,31.47-2.42" class="stroke" stroke-dasharray="150"><set attributeName="opacity" to="0" dur="10.899999999999999s" /><animate attributeName="stroke-dashoffset" from="150" to="0" dur="1.8s" begin="10.899999999999999s" fill="freeze" /></path><text x="90" y="120" id="reset">⟳</text><text x="70" y="120" id="pause">◼</text><script type="text/javascript"><![CDATA[function RecurringTimer(e,t){var n,r,i=t;this.pause=function(){window.clearTimeout(n);i-=new Date-r};var s=function(){r=new Date;n=window.setTimeout(function(){i=t;s();e()},i)};this.clear=function(){window.clearTimeout(n);i=t;n=window.setTimeout(function(){i=t;s();e()},i)};this.resume=s;this.resume()}function invoketimer(){timer=new RecurringTimer(function(){svg.setCurrentTime(0)},12899)}var svg=document.getElementById("kanjivg");var pause=document.getElementById("pause");var reset=document.getElementById("reset");var timer;invoketimer();reset.onclick=function(){svg.setCurrentTime(0);timer.clear();svg.unpauseAnimations();pause.innerHTML = "◼";};pause.onclick=function(){if(svg.animationsPaused()){svg.unpauseAnimations();timer.resume();pause.innerHTML="◼"}else{svg.pauseAnimations();timer.pause();pause.innerHTML="▶"}}]]></script></svg>