<svg id="kanjivg" width="106" height="126" xmlns="http://www.w3.org/2000/svg" xmlns:xlink="http://www.w3.org/1999/xlink" xml:space="preserve" version="1.1" baseProfile="full"><defs><style type="text/css"><![CDATA[path.black { fill:none;stroke:black;stroke-width:5;stroke-linecap:round;stroke-linejoin:round; }path.grey { fill:none;stroke:#ddd;stroke-width:5;stroke-linecap:round;stroke-linejoin:round; }path.stroke { fill:none;stroke:black;stroke-width:5;stroke-linecap:round;stroke-linejoin:round; }rect { fill:none;stroke:#555;stroke-width:2;} text{font-size:16px;font-family:Segoe UI Symbol,Cambria Math,DejaVu Sans,Symbola,Quivira,STIX,Code2000;-webkit-touch-callout:none;cursor:pointer;-webkit-user-select:none;-khtml-user-select:none;-moz-user-select:none;-ms-user-select:none;user-select: none;} #reset { font-weight:bold; }]]></style><marker id="markerStart" markerWidth="8" markerHeight="8" style="overflow:visible;"><circle cx="0" cy="0" r="1.5" style="stroke:none;fill:red;fill-opacity:0.5;"/></marker><marker id="markerEnd" style="overflow:visible;"><circle cx="0" cy="0" r="0.8" style="stroke:none;fill:blue;fill-opacity:0.5;"><animate attributeName="opacity" from="1" to="0" dur="3s" repeatCount="indefinite" /></circle></marker></defs><rect x="4" y="4" width="100" height="100" /><path d="M31.49,17.14c0.13,1.16-0.17,2.4-0.62,3.8c-3.75,11.68-10.5,24.8-21.57,38.27" class="grey" /><path d="M24.78,39.5c0.92,0.92,1.01,1.88,1.01,3.73c0,9.57-0.02,27.97-0.03,40.52c0,4.53-0.01,8.3-0.01,10.62" class="grey" /><path d="M42.31,21.1c2.82,1.93,7.11,7.97,7.81,10.98" class="grey" /><path d="M82.37,15.78c0.04,1.12-0.23,2.12-0.8,3c-1.9,3.3-4.01,6.69-8,11.3" class="grey" /><path d="M39.21,38.12c3.72,0.08,7.41-0.2,11.05-0.85c8.42-1.38,19.77-2.98,28.88-3.99c3.42-0.41,6.85-0.47,10.31-0.17" class="grey" /><path d="M34.25,50.56c4.62,0.44,8.31,0.08,12.61-0.42c16.01-1.89,23.51-3.01,37.51-3.97c3.66-0.25,7.32-0.35,10.99-0.1" class="grey" /><path d="M63.71,13.75c0.17,1.5,0.23,2.83-0.35,4.81C58.5,35.25,49.75,59,32.25,73.76" class="grey" /><path d="M66.08,40.07c4.44,4.45,13.5,14.67,20.35,21.42c3.3,3.04,6.66,5.65,10.57,7.84" class="grey" /><path d="M51.46,62.83c2,0.48,4.01,0.53,6.03,0.15c4.41-0.8,10.94-2.43,14.12-3.13c2.04-0.45,3.54,0.45,3.02,2.78c-0.42,1.85-1.33,6.09-1.95,9.58" class="grey" /><path d="M52.69,76.1c3.25-0.25,10.47-1.58,16.82-2.45c1.78-0.25,3.49-0.46,5.03-0.6" class="grey" /><path d="M50.47,73.93c0.99,0.99,1.34,2.19,1.34,3.71c0,2.98-0.14,5.17-0.14,7.87c0,7.11,1.43,8.5,18.24,8.5c17.64,0,18.63-0.82,18.63-8.78" class="grey" /><path d="M31.49,17.14c0.13,1.16-0.17,2.4-0.62,3.8c-3.75,11.68-10.5,24.8-21.57,38.27" class="stroke" stroke-dasharray="150"><animate attributeName="stroke-dashoffset" from="150" to="0" dur="1.8s" begin="0s" fill="freeze" /></path><path d="M24.78,39.5c0.92,0.92,1.01,1.88,1.01,3.73c0,9.57-0.02,27.97-0.03,40.52c0,4.53-0.01,8.3-0.01,10.62" class="stroke" stroke-dasharray="150"><set attributeName="opacity" to="0" dur="1.2s" /><animate attributeName="stroke-dashoffset" from="150" to="0" dur="1.8s" begin="1.2s" fill="freeze" /></path><path d="M42.31,21.1c2.82,1.93,7.11,7.97,7.81,10.98" class="stroke" stroke-dasharray="150"><set attributeName="opacity" to="0" dur="2.5999999999999996s" /><animate attributeName="stroke-dashoffset" from="150" to="0" dur="1.8s" begin="2.5999999999999996s" fill="freeze" /></path><path d="M82.37,15.78c0.04,1.12-0.23,2.12-0.8,3c-1.9,3.3-4.01,6.69-8,11.3" class="stroke" stroke-dasharray="150"><set attributeName="opacity" to="0" dur="3.4999999999999996s" /><animate attributeName="stroke-dashoffset" from="150" to="0" dur="1.8s" begin="3.4999999999999996s" fill="freeze" /></path><path d="M39.21,38.12c3.72,0.08,7.41-0.2,11.05-0.85c8.42-1.38,19.77-2.98,28.88-3.99c3.42-0.41,6.85-0.47,10.31-0.17" class="stroke" stroke-dasharray="150"><set attributeName="opacity" to="0" dur="4.3999999999999995s" /><animate attributeName="stroke-dashoffset" from="150" to="0" dur="1.8s" begin="4.3999999999999995s" fill="freeze" /></path><path d="M34.25,50.56c4.62,0.44,8.31,0.08,12.61-0.42c16.01-1.89,23.51-3.01,37.51-3.97c3.66-0.25,7.32-0.35,10.99-0.1" class="stroke" stroke-dasharray="150"><set attributeName="opacity" to="0" dur="5.699999999999999s" /><animate attributeName="stroke-dashoffset" from="150" to="0" dur="1.8s" begin="5.699999999999999s" fill="freeze" /></path><path d="M63.71,13.75c0.17,1.5,0.23,2.83-0.35,4.81C58.5,35.25,49.75,59,32.25,73.76" class="stroke" stroke-dasharray="150"><set attributeName="opacity" to="0" dur="7.199999999999999s" /><animate attributeName="stroke-dashoffset" from="150" to="0" dur="1.8s" begin="7.199999999999999s" fill="freeze" /></path><path d="M66.08,40.07c4.44,4.45,13.5,14.67,20.35,21.42c3.3,3.04,6.66,5.65,10.57,7.84" class="stroke" stroke-dasharray="150"><set attributeName="opacity" to="0" dur="8.7s" /><animate attributeName="stroke-dashoffset" from="150" to="0" dur="1.8s" begin="8.7s" fill="freeze" /></path><path d="M51.46,62.83c2,0.48,4.01,0.53,6.03,0.15c4.41-0.8,10.94-2.43,14.12-3.13c2.04-0.45,3.54,0.45,3.02,2.78c-0.42,1.85-1.33,6.09-1.95,9.58" class="stroke" stroke-dasharray="150"><set attributeName="opacity" to="0" dur="9.799999999999999s" /><animate attributeName="stroke-dashoffset" from="150" to="0" dur="1.8s" begin="9.799999999999999s" fill="freeze" /></path><path d="M52.69,76.1c3.25-0.25,10.47-1.58,16.82-2.45c1.78-0.25,3.49-0.46,5.03-0.6" class="stroke" stroke-dasharray="150"><set attributeName="opacity" to="0" dur="10.799999999999999s" /><animate attributeName="stroke-dashoffset" from="150" to="0" dur="1.8s" begin="10.799999999999999s" fill="freeze" /></path><path d="M50.47,73.93c0.99,0.99,1.34,2.19,1.34,3.71c0,2.98-0.14,5.17-0.14,7.87c0,7.11,1.43,8.5,18.24,8.5c17.64,0,18.63-0.82,18.63-8.78" class="stroke" stroke-dasharray="150"><set attributeName="opacity" to="0" dur="11.799999999999999s" /><animate attributeName="stroke-dashoffset" from="150" to="0" dur="1.8s" begin="11.799999999999999s" fill="freeze" /></path><text x="90" y="120" id="reset">⟳</text><text x="70" y="120" id="pause">◼</text><script type="text/javascript"><![CDATA[function RecurringTimer(e,t){var n,r,i=t;this.pause=function(){window.clearTimeout(n);i-=new Date-r};var s=function(){r=new Date;n=window.setTimeout(function(){i=t;s();e()},i)};this.clear=function(){window.clearTimeout(n);i=t;n=window.setTimeout(function(){i=t;s();e()},i)};this.resume=s;this.resume()}function invoketimer(){timer=new RecurringTimer(function(){svg.setCurrentTime(0)},14200)}var svg=document.getElementById("kanjivg");var pause=document.getElementById("pause");var reset=document.getElementById("reset");var timer;invoketimer();reset.onclick=function(){svg.setCurrentTime(0);timer.clear();svg.unpauseAnimations();pause.innerHTML = "◼";};pause.onclick=function(){if(svg.animationsPaused()){svg.unpauseAnimations();timer.resume();pause.innerHTML="◼"}else{svg.pauseAnimations();timer.pause();pause.innerHTML="▶"}}]]></script></svg>