<svg id="kanjivg" width="106" height="126" xmlns="http://www.w3.org/2000/svg" xmlns:xlink="http://www.w3.org/1999/xlink" xml:space="preserve" version="1.1" baseProfile="full"><defs><style type="text/css"><![CDATA[path.black { fill:none;stroke:black;stroke-width:5;stroke-linecap:round;stroke-linejoin:round; }path.grey { fill:none;stroke:#ddd;stroke-width:5;stroke-linecap:round;stroke-linejoin:round; }path.stroke { fill:none;stroke:black;stroke-width:5;stroke-linecap:round;stroke-linejoin:round; }rect { fill:none;stroke:#555;stroke-width:2;} text{font-size:16px;font-family:Segoe UI Symbol,Cambria Math,DejaVu Sans,Symbola,Quivira,STIX,Code2000;-webkit-touch-callout:none;cursor:pointer;-webkit-user-select:none;-khtml-user-select:none;-moz-user-select:none;-ms-user-select:none;user-select: none;} #reset { font-weight:bold; }]]></style><marker id="markerStart" markerWidth="8" markerHeight="8" style="overflow:visible;"><circle cx="0" cy="0" r="1.5" style="stroke:none;fill:red;fill-opacity:0.5;"/></marker><marker id="markerEnd" style="overflow:visible;"><circle cx="0" cy="0" r="0.8" style="stroke:none;fill:blue;fill-opacity:0.5;"><animate attributeName="opacity" from="1" to="0" dur="3s" repeatCount="indefinite" /></circle></marker></defs><rect x="4" y="4" width="100" height="100" /><path d="M27.02,14.39c0.11,1.04,0.18,2.35-0.09,3.63c-1.77,8.09-8.62,23.73-16.87,34.7" class="grey" /><path d="M21.53,38.5c0.59,0.61,0.76,1.97,0.76,3.23c0,13.02-0.29,44.15-0.29,52.9" class="grey" /><path d="M42.58,13.75c3.17,2,7.17,6.25,8.92,10.08" class="grey" /><path d="M30.61,32.62c1.06,0.09,2.25,0.63,3.27,0.5c8.31-1.05,18.12-3.37,25.02-4.62c1.73-0.31,3.08-0.22,4.38,0.37" class="grey" /><path d="M45.97,45.5c2.78,0.25,8.03,1.5,9.84,2.06c2.68,0.83,3.53,3.1,3.27,5.62c-0.82,8.12-6.64,26.11-10.43,31.26c-3.98,5.42-6.3,0.25-7.43-0.54" class="grey" /><path d="M46.71,34.25c0.05,0.99,0.22,2.59-0.09,4C44.25,49,40.5,63.25,30.25,76.5" class="grey" /><path d="M73.46,14.39c0.03,0.71,0.18,1.86-0.06,2.84c-1.55,6.23-5.04,18.52-10.41,27.14" class="grey" /><path d="M70.67,34.82c0.54,0.4,1.53,0.45,2.07,0.4c6.43-0.53,14.45-3.95,22.22-4.62c0.97-0.08,1.56-0.02,1.81,0.08" class="grey" /><path d="M86.14,37.63c0.45,1.32,0.69,2.27,0.23,4.68c-4.26,21.95-13.91,39.96-28,49.19" class="grey" /><path d="M65.63,50.53c2.51,0.79,18.89,30.44,27.03,38.46c1.57,1.54,2.56,1.8,3.84,1.96" class="grey" /><path d="M27.02,14.39c0.11,1.04,0.18,2.35-0.09,3.63c-1.77,8.09-8.62,23.73-16.87,34.7" class="stroke" stroke-dasharray="150"><animate attributeName="stroke-dashoffset" from="150" to="0" dur="1.8s" begin="0s" fill="freeze" /></path><path d="M21.53,38.5c0.59,0.61,0.76,1.97,0.76,3.23c0,13.02-0.29,44.15-0.29,52.9" class="stroke" stroke-dasharray="150"><set attributeName="opacity" to="0" dur="1.1s" /><animate attributeName="stroke-dashoffset" from="150" to="0" dur="1.8s" begin="1.1s" fill="freeze" /></path><path d="M42.58,13.75c3.17,2,7.17,6.25,8.92,10.08" class="stroke" stroke-dasharray="150"><set attributeName="opacity" to="0" dur="2.5s" /><animate attributeName="stroke-dashoffset" from="150" to="0" dur="1.8s" begin="2.5s" fill="freeze" /></path><path d="M30.61,32.62c1.06,0.09,2.25,0.63,3.27,0.5c8.31-1.05,18.12-3.37,25.02-4.62c1.73-0.31,3.08-0.22,4.38,0.37" class="stroke" stroke-dasharray="150"><set attributeName="opacity" to="0" dur="3.4s" /><animate attributeName="stroke-dashoffset" from="150" to="0" dur="1.8s" begin="3.4s" fill="freeze" /></path><path d="M45.97,45.5c2.78,0.25,8.03,1.5,9.84,2.06c2.68,0.83,3.53,3.1,3.27,5.62c-0.82,8.12-6.64,26.11-10.43,31.26c-3.98,5.42-6.3,0.25-7.43-0.54" class="stroke" stroke-dasharray="150"><set attributeName="opacity" to="0" dur="4.4s" /><animate attributeName="stroke-dashoffset" from="150" to="0" dur="1.8s" begin="4.4s" fill="freeze" /></path><path d="M46.71,34.25c0.05,0.99,0.22,2.59-0.09,4C44.25,49,40.5,63.25,30.25,76.5" class="stroke" stroke-dasharray="150"><set attributeName="opacity" to="0" dur="5.800000000000001s" /><animate attributeName="stroke-dashoffset" from="150" to="0" dur="1.8s" begin="5.800000000000001s" fill="freeze" /></path><path d="M73.46,14.39c0.03,0.71,0.18,1.86-0.06,2.84c-1.55,6.23-5.04,18.52-10.41,27.14" class="stroke" stroke-dasharray="150"><set attributeName="opacity" to="0" dur="7.000000000000001s" /><animate attributeName="stroke-dashoffset" from="150" to="0" dur="1.8s" begin="7.000000000000001s" fill="freeze" /></path><path d="M70.67,34.82c0.54,0.4,1.53,0.45,2.07,0.4c6.43-0.53,14.45-3.95,22.22-4.62c0.97-0.08,1.56-0.02,1.81,0.08" class="stroke" stroke-dasharray="150"><set attributeName="opacity" to="0" dur="8.0s" /><animate attributeName="stroke-dashoffset" from="150" to="0" dur="1.8s" begin="8.0s" fill="freeze" /></path><path d="M86.14,37.63c0.45,1.32,0.69,2.27,0.23,4.68c-4.26,21.95-13.91,39.96-28,49.19" class="stroke" stroke-dasharray="150"><set attributeName="opacity" to="0" dur="9.0s" /><animate attributeName="stroke-dashoffset" from="150" to="0" dur="1.8s" begin="9.0s" fill="freeze" /></path><path d="M65.63,50.53c2.51,0.79,18.89,30.44,27.03,38.46c1.57,1.54,2.56,1.8,3.84,1.96" class="stroke" stroke-dasharray="150"><set attributeName="opacity" to="0" dur="10.5s" /><animate attributeName="stroke-dashoffset" from="150" to="0" dur="1.8s" begin="10.5s" fill="freeze" /></path><text x="90" y="120" id="reset">⟳</text><text x="70" y="120" id="pause">◼</text><script type="text/javascript"><![CDATA[function RecurringTimer(e,t){var n,r,i=t;this.pause=function(){window.clearTimeout(n);i-=new Date-r};var s=function(){r=new Date;n=window.setTimeout(function(){i=t;s();e()},i)};this.clear=function(){window.clearTimeout(n);i=t;n=window.setTimeout(function(){i=t;s();e()},i)};this.resume=s;this.resume()}function invoketimer(){timer=new RecurringTimer(function(){svg.setCurrentTime(0)},12800)}var svg=document.getElementById("kanjivg");var pause=document.getElementById("pause");var reset=document.getElementById("reset");var timer;invoketimer();reset.onclick=function(){svg.setCurrentTime(0);timer.clear();svg.unpauseAnimations();pause.innerHTML = "◼";};pause.onclick=function(){if(svg.animationsPaused()){svg.unpauseAnimations();timer.resume();pause.innerHTML="◼"}else{svg.pauseAnimations();timer.pause();pause.innerHTML="▶"}}]]></script></svg>