<svg id="kanjivg" width="106" height="126" xmlns="http://www.w3.org/2000/svg" xmlns:xlink="http://www.w3.org/1999/xlink" xml:space="preserve" version="1.1" baseProfile="full"><defs><style type="text/css"><![CDATA[path.black { fill:none;stroke:black;stroke-width:5;stroke-linecap:round;stroke-linejoin:round; }path.grey { fill:none;stroke:#ddd;stroke-width:5;stroke-linecap:round;stroke-linejoin:round; }path.stroke { fill:none;stroke:black;stroke-width:5;stroke-linecap:round;stroke-linejoin:round; }rect { fill:none;stroke:#555;stroke-width:2;} text{font-size:16px;font-family:Segoe UI Symbol,Cambria Math,DejaVu Sans,Symbola,Quivira,STIX,Code2000;-webkit-touch-callout:none;cursor:pointer;-webkit-user-select:none;-khtml-user-select:none;-moz-user-select:none;-ms-user-select:none;user-select: none;} #reset { font-weight:bold; }]]></style><marker id="markerStart" markerWidth="8" markerHeight="8" style="overflow:visible;"><circle cx="0" cy="0" r="1.5" style="stroke:none;fill:red;fill-opacity:0.5;"/></marker><marker id="markerEnd" style="overflow:visible;"><circle cx="0" cy="0" r="0.8" style="stroke:none;fill:blue;fill-opacity:0.5;"><animate attributeName="opacity" from="1" to="0" dur="3s" repeatCount="indefinite" /></circle></marker></defs><rect x="4" y="4" width="100" height="100" /><path d="M35,15.5c0.24,2.06,0.18,3.51-0.61,5.27C29.38,32.03,22.5,44.62,11,57.29" class="grey" /><path d="M25.53,41.5c0.8,0.8,1.26,2.22,1.26,3.48c0,12.64-0.01,32.9-0.01,44.4c0,2.79-0.03,5.11-0.03,6.75" class="grey" /><path d="M47.4,30.21c1.86,0.52,4.84,0.43,6.74,0.16C66,28.71,74.62,27.5,88.75,26.22c2.06-0.19,4.18-0.29,6.23,0.01" class="grey" /><path d="M70.48,14.76c0.82,0.82,1.09,1.88,1.01,2.89c-0.74,9.6-1.24,13.73-2.41,23.35" class="grey" /><path d="M53.94,42.36c0.72,0.72,1.25,2.34,1.25,3.5c0,0.87-0.01,21.46-0.02,31.76c0,1.85,0,3.37,0,4.38" class="grey" /><path d="M56.08,43.76c4.04-0.51,25.48-3.79,28.27-4.1c2.18-0.24,3.72,0.96,3.72,2.59c0,2.62-0.09,28.49-0.09,32.49c0,1.9,0,3.7,0,5.32" class="grey" /><path d="M56.24,55.49c5.75-0.46,25.67-2.99,30.38-3.2" class="grey" /><path d="M56.47,67.19c7.68-0.84,22.6-2.73,30.06-3.07" class="grey" /><path d="M56.16,79.3c8.96-1.17,27.16-2.76,31.02-2.94" class="grey" /><path d="M41.25,53c1.06,1.06,1.5,3,1.5,5.5s0,25.5,0,30.25c0,4.12,0.75,4.58,4.25,4.25c14.5-1.38,29.75-2.38,44.75-2.75c2.75-0.07,5.38,0,7.25,0.25" class="grey" /><path d="M35,15.5c0.24,2.06,0.18,3.51-0.61,5.27C29.38,32.03,22.5,44.62,11,57.29" class="stroke" stroke-dasharray="150"><animate attributeName="stroke-dashoffset" from="150" to="0" dur="1.8s" begin="0s" fill="freeze" /></path><path d="M25.53,41.5c0.8,0.8,1.26,2.22,1.26,3.48c0,12.64-0.01,32.9-0.01,44.4c0,2.79-0.03,5.11-0.03,6.75" class="stroke" stroke-dasharray="150"><set attributeName="opacity" to="0" dur="1.2s" /><animate attributeName="stroke-dashoffset" from="150" to="0" dur="1.8s" begin="1.2s" fill="freeze" /></path><path d="M47.4,30.21c1.86,0.52,4.84,0.43,6.74,0.16C66,28.71,74.62,27.5,88.75,26.22c2.06-0.19,4.18-0.29,6.23,0.01" class="stroke" stroke-dasharray="150"><set attributeName="opacity" to="0" dur="2.5s" /><animate attributeName="stroke-dashoffset" from="150" to="0" dur="1.8s" begin="2.5s" fill="freeze" /></path><path d="M70.48,14.76c0.82,0.82,1.09,1.88,1.01,2.89c-0.74,9.6-1.24,13.73-2.41,23.35" class="stroke" stroke-dasharray="150"><set attributeName="opacity" to="0" dur="3.7s" /><animate attributeName="stroke-dashoffset" from="150" to="0" dur="1.8s" begin="3.7s" fill="freeze" /></path><path d="M53.94,42.36c0.72,0.72,1.25,2.34,1.25,3.5c0,0.87-0.01,21.46-0.02,31.76c0,1.85,0,3.37,0,4.38" class="stroke" stroke-dasharray="150"><set attributeName="opacity" to="0" dur="4.7s" /><animate attributeName="stroke-dashoffset" from="150" to="0" dur="1.8s" begin="4.7s" fill="freeze" /></path><path d="M56.08,43.76c4.04-0.51,25.48-3.79,28.27-4.1c2.18-0.24,3.72,0.96,3.72,2.59c0,2.62-0.09,28.49-0.09,32.49c0,1.9,0,3.7,0,5.32" class="stroke" stroke-dasharray="150"><set attributeName="opacity" to="0" dur="5.7s" /><animate attributeName="stroke-dashoffset" from="150" to="0" dur="1.8s" begin="5.7s" fill="freeze" /></path><path d="M56.24,55.49c5.75-0.46,25.67-2.99,30.38-3.2" class="stroke" stroke-dasharray="150"><set attributeName="opacity" to="0" dur="7.4s" /><animate attributeName="stroke-dashoffset" from="150" to="0" dur="1.8s" begin="7.4s" fill="freeze" /></path><path d="M56.47,67.19c7.68-0.84,22.6-2.73,30.06-3.07" class="stroke" stroke-dasharray="150"><set attributeName="opacity" to="0" dur="8.4s" /><animate attributeName="stroke-dashoffset" from="150" to="0" dur="1.8s" begin="8.4s" fill="freeze" /></path><path d="M56.16,79.3c8.96-1.17,27.16-2.76,31.02-2.94" class="stroke" stroke-dasharray="150"><set attributeName="opacity" to="0" dur="9.4s" /><animate attributeName="stroke-dashoffset" from="150" to="0" dur="1.8s" begin="9.4s" fill="freeze" /></path><path d="M41.25,53c1.06,1.06,1.5,3,1.5,5.5s0,25.5,0,30.25c0,4.12,0.75,4.58,4.25,4.25c14.5-1.38,29.75-2.38,44.75-2.75c2.75-0.07,5.38,0,7.25,0.25" class="stroke" stroke-dasharray="150"><set attributeName="opacity" to="0" dur="10.4s" /><animate attributeName="stroke-dashoffset" from="150" to="0" dur="1.8s" begin="10.4s" fill="freeze" /></path><text x="90" y="120" id="reset">⟳</text><text x="70" y="120" id="pause">◼</text><script type="text/javascript"><![CDATA[function RecurringTimer(e,t){var n,r,i=t;this.pause=function(){window.clearTimeout(n);i-=new Date-r};var s=function(){r=new Date;n=window.setTimeout(function(){i=t;s();e()},i)};this.clear=function(){window.clearTimeout(n);i=t;n=window.setTimeout(function(){i=t;s();e()},i)};this.resume=s;this.resume()}function invoketimer(){timer=new RecurringTimer(function(){svg.setCurrentTime(0)},13200)}var svg=document.getElementById("kanjivg");var pause=document.getElementById("pause");var reset=document.getElementById("reset");var timer;invoketimer();reset.onclick=function(){svg.setCurrentTime(0);timer.clear();svg.unpauseAnimations();pause.innerHTML = "◼";};pause.onclick=function(){if(svg.animationsPaused()){svg.unpauseAnimations();timer.resume();pause.innerHTML="◼"}else{svg.pauseAnimations();timer.pause();pause.innerHTML="▶"}}]]></script></svg>