<svg id="kanjivg" width="106" height="126" xmlns="http://www.w3.org/2000/svg" xmlns:xlink="http://www.w3.org/1999/xlink" xml:space="preserve" version="1.1" baseProfile="full"><defs><style type="text/css"><![CDATA[path.black { fill:none;stroke:black;stroke-width:5;stroke-linecap:round;stroke-linejoin:round; }path.grey { fill:none;stroke:#ddd;stroke-width:5;stroke-linecap:round;stroke-linejoin:round; }path.stroke { fill:none;stroke:black;stroke-width:5;stroke-linecap:round;stroke-linejoin:round; }rect { fill:none;stroke:#555;stroke-width:2;} text{font-size:16px;font-family:Segoe UI Symbol,Cambria Math,DejaVu Sans,Symbola,Quivira,STIX,Code2000;-webkit-touch-callout:none;cursor:pointer;-webkit-user-select:none;-khtml-user-select:none;-moz-user-select:none;-ms-user-select:none;user-select: none;} #reset { font-weight:bold; }]]></style><marker id="markerStart" markerWidth="8" markerHeight="8" style="overflow:visible;"><circle cx="0" cy="0" r="1.5" style="stroke:none;fill:red;fill-opacity:0.5;"/></marker><marker id="markerEnd" style="overflow:visible;"><circle cx="0" cy="0" r="0.8" style="stroke:none;fill:blue;fill-opacity:0.5;"><animate attributeName="opacity" from="1" to="0" dur="3s" repeatCount="indefinite" /></circle></marker></defs><rect x="4" y="4" width="100" height="100" /><path d="M34.75,15.25c0.24,2.06-0.07,4.76-0.86,6.52C28.88,33.03,22.51,43.59,11,57.29" class="grey" /><path d="M26.03,42.5c0.59,0.61,0.7,1.97,0.76,3.23C27.35,57.5,26.25,87,26.25,95.25" class="grey" /><path d="M46.9,30.46c1.03,0.29,2.91,0.23,3.93,0.15c13.57-1.02,20.65-3.28,40.3-4.28c1.71-0.09,2.74,0.03,3.59,0.16" class="grey" /><path d="M68.73,14.26c1.25,0.44,2.34,2.13,2.26,3.14c-0.74,9.6-0.74,12.85-1.66,24.1" class="grey" /><path d="M54.19,42.11c0.51,0.85,1.25,2.34,1.25,3.5c0,1.16-0.12,26.1-0.34,36.9" class="grey" /><path d="M56.58,43.76c3.03-0.29,25.23-3.66,28.02-3.97c2.18-0.24,3.91,1.51,3.72,2.59c-0.23,1.38-0.35,24.92-0.35,37.69" class="grey" /><path d="M56.24,55.49c5.21-0.42,10.4-1.1,15.58-1.69c1.57-0.18,3.14-0.36,4.63-0.52" class="grey" /><path d="M56.47,67.19c5-0.54,10.49-1.16,15.49-1.72c1.39-0.16,2.78-0.31,4.14-0.45" class="grey" /><path d="M55.91,79.55c5.35-0.68,27.66-2.76,31.52-2.94" class="grey" /><path d="M41,53.25c1,1.25,1.5,1.75,1.5,4.25s0.65,29.83,0,32c-0.75,2.5,0.25,3.97,3.25,3.75c13.75-1,33-3,46.5-3.25c2.75-0.05,5.25,0,7.25,0.5" class="grey" /><path d="M34.75,15.25c0.24,2.06-0.07,4.76-0.86,6.52C28.88,33.03,22.51,43.59,11,57.29" class="stroke" stroke-dasharray="150"><animate attributeName="stroke-dashoffset" from="150" to="0" dur="1.8s" begin="0s" fill="freeze" /></path><path d="M26.03,42.5c0.59,0.61,0.7,1.97,0.76,3.23C27.35,57.5,26.25,87,26.25,95.25" class="stroke" stroke-dasharray="150"><set attributeName="opacity" to="0" dur="1.2s" /><animate attributeName="stroke-dashoffset" from="150" to="0" dur="1.8s" begin="1.2s" fill="freeze" /></path><path d="M46.9,30.46c1.03,0.29,2.91,0.23,3.93,0.15c13.57-1.02,20.65-3.28,40.3-4.28c1.71-0.09,2.74,0.03,3.59,0.16" class="stroke" stroke-dasharray="150"><set attributeName="opacity" to="0" dur="2.5s" /><animate attributeName="stroke-dashoffset" from="150" to="0" dur="1.8s" begin="2.5s" fill="freeze" /></path><path d="M68.73,14.26c1.25,0.44,2.34,2.13,2.26,3.14c-0.74,9.6-0.74,12.85-1.66,24.1" class="stroke" stroke-dasharray="150"><set attributeName="opacity" to="0" dur="3.7s" /><animate attributeName="stroke-dashoffset" from="150" to="0" dur="1.8s" begin="3.7s" fill="freeze" /></path><path d="M54.19,42.11c0.51,0.85,1.25,2.34,1.25,3.5c0,1.16-0.12,26.1-0.34,36.9" class="stroke" stroke-dasharray="150"><set attributeName="opacity" to="0" dur="4.7s" /><animate attributeName="stroke-dashoffset" from="150" to="0" dur="1.8s" begin="4.7s" fill="freeze" /></path><path d="M56.58,43.76c3.03-0.29,25.23-3.66,28.02-3.97c2.18-0.24,3.91,1.51,3.72,2.59c-0.23,1.38-0.35,24.92-0.35,37.69" class="stroke" stroke-dasharray="150"><set attributeName="opacity" to="0" dur="5.800000000000001s" /><animate attributeName="stroke-dashoffset" from="150" to="0" dur="1.8s" begin="5.800000000000001s" fill="freeze" /></path><path d="M56.24,55.49c5.21-0.42,10.4-1.1,15.58-1.69c1.57-0.18,3.14-0.36,4.63-0.52" class="stroke" stroke-dasharray="150"><set attributeName="opacity" to="0" dur="7.500000000000001s" /><animate attributeName="stroke-dashoffset" from="150" to="0" dur="1.8s" begin="7.500000000000001s" fill="freeze" /></path><path d="M56.47,67.19c5-0.54,10.49-1.16,15.49-1.72c1.39-0.16,2.78-0.31,4.14-0.45" class="stroke" stroke-dasharray="150"><set attributeName="opacity" to="0" dur="8.5s" /><animate attributeName="stroke-dashoffset" from="150" to="0" dur="1.8s" begin="8.5s" fill="freeze" /></path><path d="M55.91,79.55c5.35-0.68,27.66-2.76,31.52-2.94" class="stroke" stroke-dasharray="150"><set attributeName="opacity" to="0" dur="9.4s" /><animate attributeName="stroke-dashoffset" from="150" to="0" dur="1.8s" begin="9.4s" fill="freeze" /></path><path d="M41,53.25c1,1.25,1.5,1.75,1.5,4.25s0.65,29.83,0,32c-0.75,2.5,0.25,3.97,3.25,3.75c13.75-1,33-3,46.5-3.25c2.75-0.05,5.25,0,7.25,0.5" class="stroke" stroke-dasharray="150"><set attributeName="opacity" to="0" dur="10.4s" /><animate attributeName="stroke-dashoffset" from="150" to="0" dur="1.8s" begin="10.4s" fill="freeze" /></path><text x="90" y="120" id="reset">⟳</text><text x="70" y="120" id="pause">◼</text><script type="text/javascript"><![CDATA[function RecurringTimer(e,t){var n,r,i=t;this.pause=function(){window.clearTimeout(n);i-=new Date-r};var s=function(){r=new Date;n=window.setTimeout(function(){i=t;s();e()},i)};this.clear=function(){window.clearTimeout(n);i=t;n=window.setTimeout(function(){i=t;s();e()},i)};this.resume=s;this.resume()}function invoketimer(){timer=new RecurringTimer(function(){svg.setCurrentTime(0)},13200)}var svg=document.getElementById("kanjivg");var pause=document.getElementById("pause");var reset=document.getElementById("reset");var timer;invoketimer();reset.onclick=function(){svg.setCurrentTime(0);timer.clear();svg.unpauseAnimations();pause.innerHTML = "◼";};pause.onclick=function(){if(svg.animationsPaused()){svg.unpauseAnimations();timer.resume();pause.innerHTML="◼"}else{svg.pauseAnimations();timer.pause();pause.innerHTML="▶"}}]]></script></svg>