<svg id="kanjivg" width="106" height="126" xmlns="http://www.w3.org/2000/svg" xmlns:xlink="http://www.w3.org/1999/xlink" xml:space="preserve" version="1.1" baseProfile="full"><defs><style type="text/css"><![CDATA[path.black { fill:none;stroke:black;stroke-width:5;stroke-linecap:round;stroke-linejoin:round; }path.grey { fill:none;stroke:#ddd;stroke-width:5;stroke-linecap:round;stroke-linejoin:round; }path.stroke { fill:none;stroke:black;stroke-width:5;stroke-linecap:round;stroke-linejoin:round; }rect { fill:none;stroke:#555;stroke-width:2;} text{font-size:16px;font-family:Segoe UI Symbol,Cambria Math,DejaVu Sans,Symbola,Quivira,STIX,Code2000;-webkit-touch-callout:none;cursor:pointer;-webkit-user-select:none;-khtml-user-select:none;-moz-user-select:none;-ms-user-select:none;user-select: none;} #reset { font-weight:bold; }]]></style><marker id="markerStart" markerWidth="8" markerHeight="8" style="overflow:visible;"><circle cx="0" cy="0" r="1.5" style="stroke:none;fill:red;fill-opacity:0.5;"/></marker><marker id="markerEnd" style="overflow:visible;"><circle cx="0" cy="0" r="0.8" style="stroke:none;fill:blue;fill-opacity:0.5;"><animate attributeName="opacity" from="1" to="0" dur="3s" repeatCount="indefinite" /></circle></marker></defs><rect x="4" y="4" width="100" height="100" /><path d="M38.95,15.89c0,1.61-0.19,2.64-0.66,4.08c-2.94,9.09-14.3,26.17-27.99,38.5" class="grey" /><path d="M29.03,40c0.8,0.8,1.01,1.97,1.01,3.23c0,10.08-0.02,30.42-0.04,43.15c0,3.71-0.01,6.78-0.01,8.75" class="grey" /><path d="M53.8,17.23c0.93,0.93,1.25,2.15,1.25,3.59c0,5.41-0.03,23.27-0.04,34.68C55,59.77,55,63.15,55,64.62" class="grey" /><path d="M55.73,18.67c2.01-0.16,15.68-2.36,20.6-3.07c2.73-0.4,4.55,1.07,4.55,4.35c0,6.3-0.01,25.04-0.53,42.1" class="grey" /><path d="M56.22,32.41c9.03-1.16,16.53-1.78,23.4-2.35" class="grey" /><path d="M55.58,46.13c6.13-0.61,16.39-1.87,23.95-2.27" class="grey" /><path d="M55.99,61.1c9.12-1.49,15.82-2.06,23.36-2.81" class="grey" /><path d="M39.84,73.8c3.27,0.34,6.54,0.32,9.8-0.1C62.62,72,74.38,71,88.37,69.73c3.12-0.28,6.21,0.01,9.29,0.57" class="grey" /><path d="M57.26,79.47c0,1.15-0.35,1.93-1.03,2.68c-3.24,3.6-8.11,7.6-14.81,11.56" class="grey" /><path d="M75.07,78.36c6.4,3.17,15.79,12.02,17.39,16.95" class="grey" /><path d="M38.95,15.89c0,1.61-0.19,2.64-0.66,4.08c-2.94,9.09-14.3,26.17-27.99,38.5" class="stroke" stroke-dasharray="150"><animate attributeName="stroke-dashoffset" from="150" to="0" dur="1.8s" begin="0s" fill="freeze" /></path><path d="M29.03,40c0.8,0.8,1.01,1.97,1.01,3.23c0,10.08-0.02,30.42-0.04,43.15c0,3.71-0.01,6.78-0.01,8.75" class="stroke" stroke-dasharray="150"><set attributeName="opacity" to="0" dur="1.3s" /><animate attributeName="stroke-dashoffset" from="150" to="0" dur="1.8s" begin="1.3s" fill="freeze" /></path><path d="M53.8,17.23c0.93,0.93,1.25,2.15,1.25,3.59c0,5.41-0.03,23.27-0.04,34.68C55,59.77,55,63.15,55,64.62" class="stroke" stroke-dasharray="150"><set attributeName="opacity" to="0" dur="2.7s" /><animate attributeName="stroke-dashoffset" from="150" to="0" dur="1.8s" begin="2.7s" fill="freeze" /></path><path d="M55.73,18.67c2.01-0.16,15.68-2.36,20.6-3.07c2.73-0.4,4.55,1.07,4.55,4.35c0,6.3-0.01,25.04-0.53,42.1" class="stroke" stroke-dasharray="150"><set attributeName="opacity" to="0" dur="3.9000000000000004s" /><animate attributeName="stroke-dashoffset" from="150" to="0" dur="1.8s" begin="3.9000000000000004s" fill="freeze" /></path><path d="M56.22,32.41c9.03-1.16,16.53-1.78,23.4-2.35" class="stroke" stroke-dasharray="150"><set attributeName="opacity" to="0" dur="5.6000000000000005s" /><animate attributeName="stroke-dashoffset" from="150" to="0" dur="1.8s" begin="5.6000000000000005s" fill="freeze" /></path><path d="M55.58,46.13c6.13-0.61,16.39-1.87,23.95-2.27" class="stroke" stroke-dasharray="150"><set attributeName="opacity" to="0" dur="6.6000000000000005s" /><animate attributeName="stroke-dashoffset" from="150" to="0" dur="1.8s" begin="6.6000000000000005s" fill="freeze" /></path><path d="M55.99,61.1c9.12-1.49,15.82-2.06,23.36-2.81" class="stroke" stroke-dasharray="150"><set attributeName="opacity" to="0" dur="7.6000000000000005s" /><animate attributeName="stroke-dashoffset" from="150" to="0" dur="1.8s" begin="7.6000000000000005s" fill="freeze" /></path><path d="M39.84,73.8c3.27,0.34,6.54,0.32,9.8-0.1C62.62,72,74.38,71,88.37,69.73c3.12-0.28,6.21,0.01,9.29,0.57" class="stroke" stroke-dasharray="150"><set attributeName="opacity" to="0" dur="8.600000000000001s" /><animate attributeName="stroke-dashoffset" from="150" to="0" dur="1.8s" begin="8.600000000000001s" fill="freeze" /></path><path d="M57.26,79.47c0,1.15-0.35,1.93-1.03,2.68c-3.24,3.6-8.11,7.6-14.81,11.56" class="stroke" stroke-dasharray="150"><set attributeName="opacity" to="0" dur="10.000000000000002s" /><animate attributeName="stroke-dashoffset" from="150" to="0" dur="1.8s" begin="10.000000000000002s" fill="freeze" /></path><path d="M75.07,78.36c6.4,3.17,15.79,12.02,17.39,16.95" class="stroke" stroke-dasharray="150"><set attributeName="opacity" to="0" dur="11.000000000000002s" /><animate attributeName="stroke-dashoffset" from="150" to="0" dur="1.8s" begin="11.000000000000002s" fill="freeze" /></path><text x="90" y="120" id="reset">⟳</text><text x="70" y="120" id="pause">◼</text><script type="text/javascript"><![CDATA[function RecurringTimer(e,t){var n,r,i=t;this.pause=function(){window.clearTimeout(n);i-=new Date-r};var s=function(){r=new Date;n=window.setTimeout(function(){i=t;s();e()},i)};this.clear=function(){window.clearTimeout(n);i=t;n=window.setTimeout(function(){i=t;s();e()},i)};this.resume=s;this.resume()}function invoketimer(){timer=new RecurringTimer(function(){svg.setCurrentTime(0)},13000)}var svg=document.getElementById("kanjivg");var pause=document.getElementById("pause");var reset=document.getElementById("reset");var timer;invoketimer();reset.onclick=function(){svg.setCurrentTime(0);timer.clear();svg.unpauseAnimations();pause.innerHTML = "◼";};pause.onclick=function(){if(svg.animationsPaused()){svg.unpauseAnimations();timer.resume();pause.innerHTML="◼"}else{svg.pauseAnimations();timer.pause();pause.innerHTML="▶"}}]]></script></svg>