<svg id="kanjivg" width="106" height="126" xmlns="http://www.w3.org/2000/svg" xmlns:xlink="http://www.w3.org/1999/xlink" xml:space="preserve" version="1.1" baseProfile="full"><defs><style type="text/css"><![CDATA[path.black { fill:none;stroke:black;stroke-width:5;stroke-linecap:round;stroke-linejoin:round; }path.grey { fill:none;stroke:#ddd;stroke-width:5;stroke-linecap:round;stroke-linejoin:round; }path.stroke { fill:none;stroke:black;stroke-width:5;stroke-linecap:round;stroke-linejoin:round; }rect { fill:none;stroke:#555;stroke-width:2;} text{font-size:16px;font-family:Segoe UI Symbol,Cambria Math,DejaVu Sans,Symbola,Quivira,STIX,Code2000;-webkit-touch-callout:none;cursor:pointer;-webkit-user-select:none;-khtml-user-select:none;-moz-user-select:none;-ms-user-select:none;user-select: none;} #reset { font-weight:bold; }]]></style><marker id="markerStart" markerWidth="8" markerHeight="8" style="overflow:visible;"><circle cx="0" cy="0" r="1.5" style="stroke:none;fill:red;fill-opacity:0.5;"/></marker><marker id="markerEnd" style="overflow:visible;"><circle cx="0" cy="0" r="0.8" style="stroke:none;fill:blue;fill-opacity:0.5;"><animate attributeName="opacity" from="1" to="0" dur="3s" repeatCount="indefinite" /></circle></marker></defs><rect x="4" y="4" width="100" height="100" /><path d="M38.45,15.39c0.17,1.17,0.31,2.64-0.16,4.08c-2.94,9.09-14.3,26.67-27.99,39" class="grey" /><path d="M29.03,40c0.59,0.61,0.76,1.97,0.76,3.23c0,13.02-0.29,43.15-0.29,51.9" class="grey" /><path d="M54.05,16.73c0.32,0.82,0.94,1.9,1,3.34c0.27,6.4,0.39,52.02,0.39,52.74" class="grey" /><path d="M55.73,18.67c2.31-0.18,20.06-3.07,22.16-3.28c1.76-0.18,2.99,0.93,2.99,4.81c0,6.3-0.01,33.29-0.53,50.35" class="grey" /><path d="M55.22,32.66c4.63-0.56,9.26-1.14,13.89-1.68c1.16-0.14,2.31-0.27,3.41-0.39" class="grey" /><path d="M55.58,46.63c3.95-0.39,7.88-0.96,11.81-1.46c1.12-0.14,2.24-0.28,3.36-0.42" class="grey" /><path d="M55.99,61.1c4.2-0.69,8.42-1.23,12.64-1.68c0.99-0.11,1.96-0.21,2.92-0.3" class="grey" /><path d="M39.84,73.8c1.14,0.48,3.22,0.59,4.35,0.48c7.05-0.66,36.62-4.46,49.48-4.45c1.89,0,3.03,0.23,3.98,0.47" class="grey" /><path d="M57.26,79.22c0.04,0.34,0.09,0.88-0.09,1.37c-1.08,2.89-7.27,9.24-15.74,13.12" class="grey" /><path d="M74.82,77.61c6.4,3.17,16.54,13.02,18.14,17.95" class="grey" /><path d="M38.45,15.39c0.17,1.17,0.31,2.64-0.16,4.08c-2.94,9.09-14.3,26.67-27.99,39" class="stroke" stroke-dasharray="150"><animate attributeName="stroke-dashoffset" from="150" to="0" dur="1.8s" begin="0s" fill="freeze" /></path><path d="M29.03,40c0.59,0.61,0.76,1.97,0.76,3.23c0,13.02-0.29,43.15-0.29,51.9" class="stroke" stroke-dasharray="150"><set attributeName="opacity" to="0" dur="1.3s" /><animate attributeName="stroke-dashoffset" from="150" to="0" dur="1.8s" begin="1.3s" fill="freeze" /></path><path d="M54.05,16.73c0.32,0.82,0.94,1.9,1,3.34c0.27,6.4,0.39,52.02,0.39,52.74" class="stroke" stroke-dasharray="150"><set attributeName="opacity" to="0" dur="2.7s" /><animate attributeName="stroke-dashoffset" from="150" to="0" dur="1.8s" begin="2.7s" fill="freeze" /></path><path d="M55.73,18.67c2.31-0.18,20.06-3.07,22.16-3.28c1.76-0.18,2.99,0.93,2.99,4.81c0,6.3-0.01,33.29-0.53,50.35" class="stroke" stroke-dasharray="150"><set attributeName="opacity" to="0" dur="4.1s" /><animate attributeName="stroke-dashoffset" from="150" to="0" dur="1.8s" begin="4.1s" fill="freeze" /></path><path d="M55.22,32.66c4.63-0.56,9.26-1.14,13.89-1.68c1.16-0.14,2.31-0.27,3.41-0.39" class="stroke" stroke-dasharray="150"><set attributeName="opacity" to="0" dur="5.8s" /><animate attributeName="stroke-dashoffset" from="150" to="0" dur="1.8s" begin="5.8s" fill="freeze" /></path><path d="M55.58,46.63c3.95-0.39,7.88-0.96,11.81-1.46c1.12-0.14,2.24-0.28,3.36-0.42" class="stroke" stroke-dasharray="150"><set attributeName="opacity" to="0" dur="6.7s" /><animate attributeName="stroke-dashoffset" from="150" to="0" dur="1.8s" begin="6.7s" fill="freeze" /></path><path d="M55.99,61.1c4.2-0.69,8.42-1.23,12.64-1.68c0.99-0.11,1.96-0.21,2.92-0.3" class="stroke" stroke-dasharray="150"><set attributeName="opacity" to="0" dur="7.6000000000000005s" /><animate attributeName="stroke-dashoffset" from="150" to="0" dur="1.8s" begin="7.6000000000000005s" fill="freeze" /></path><path d="M39.84,73.8c1.14,0.48,3.22,0.59,4.35,0.48c7.05-0.66,36.62-4.46,49.48-4.45c1.89,0,3.03,0.23,3.98,0.47" class="stroke" stroke-dasharray="150"><set attributeName="opacity" to="0" dur="8.5s" /><animate attributeName="stroke-dashoffset" from="150" to="0" dur="1.8s" begin="8.5s" fill="freeze" /></path><path d="M57.26,79.22c0.04,0.34,0.09,0.88-0.09,1.37c-1.08,2.89-7.27,9.24-15.74,13.12" class="stroke" stroke-dasharray="150"><set attributeName="opacity" to="0" dur="9.9s" /><animate attributeName="stroke-dashoffset" from="150" to="0" dur="1.8s" begin="9.9s" fill="freeze" /></path><path d="M74.82,77.61c6.4,3.17,16.54,13.02,18.14,17.95" class="stroke" stroke-dasharray="150"><set attributeName="opacity" to="0" dur="10.9s" /><animate attributeName="stroke-dashoffset" from="150" to="0" dur="1.8s" begin="10.9s" fill="freeze" /></path><text x="90" y="120" id="reset">⟳</text><text x="70" y="120" id="pause">◼</text><script type="text/javascript"><![CDATA[function RecurringTimer(e,t){var n,r,i=t;this.pause=function(){window.clearTimeout(n);i-=new Date-r};var s=function(){r=new Date;n=window.setTimeout(function(){i=t;s();e()},i)};this.clear=function(){window.clearTimeout(n);i=t;n=window.setTimeout(function(){i=t;s();e()},i)};this.resume=s;this.resume()}function invoketimer(){timer=new RecurringTimer(function(){svg.setCurrentTime(0)},12900)}var svg=document.getElementById("kanjivg");var pause=document.getElementById("pause");var reset=document.getElementById("reset");var timer;invoketimer();reset.onclick=function(){svg.setCurrentTime(0);timer.clear();svg.unpauseAnimations();pause.innerHTML = "◼";};pause.onclick=function(){if(svg.animationsPaused()){svg.unpauseAnimations();timer.resume();pause.innerHTML="◼"}else{svg.pauseAnimations();timer.pause();pause.innerHTML="▶"}}]]></script></svg>