<svg id="kanjivg" width="106" height="126" xmlns="http://www.w3.org/2000/svg" xmlns:xlink="http://www.w3.org/1999/xlink" xml:space="preserve" version="1.1" baseProfile="full"><defs><style type="text/css"><![CDATA[path.black { fill:none;stroke:black;stroke-width:5;stroke-linecap:round;stroke-linejoin:round; }path.grey { fill:none;stroke:#ddd;stroke-width:5;stroke-linecap:round;stroke-linejoin:round; }path.stroke { fill:none;stroke:black;stroke-width:5;stroke-linecap:round;stroke-linejoin:round; }rect { fill:none;stroke:#555;stroke-width:2;} text{font-size:16px;font-family:Segoe UI Symbol,Cambria Math,DejaVu Sans,Symbola,Quivira,STIX,Code2000;-webkit-touch-callout:none;cursor:pointer;-webkit-user-select:none;-khtml-user-select:none;-moz-user-select:none;-ms-user-select:none;user-select: none;} #reset { font-weight:bold; }]]></style><marker id="markerStart" markerWidth="8" markerHeight="8" style="overflow:visible;"><circle cx="0" cy="0" r="1.5" style="stroke:none;fill:red;fill-opacity:0.5;"/></marker><marker id="markerEnd" style="overflow:visible;"><circle cx="0" cy="0" r="0.8" style="stroke:none;fill:blue;fill-opacity:0.5;"><animate attributeName="opacity" from="1" to="0" dur="3s" repeatCount="indefinite" /></circle></marker></defs><rect x="4" y="4" width="100" height="100" /><path d="M34.5,16.75c0.23,2.11-0.06,3.62-0.82,5.43C28.88,33.7,21.62,47.62,11,60.04" class="grey" /><path d="M25.03,42.75c0.86,0.86,1.26,2.22,1.26,3.48c0,10.3,0.02,27.9,0.02,41.77c0,3.19-0.06,5.87-0.06,7.75" class="grey" /><path d="M60.85,13.25c0.28,1-0.1,2.26-0.66,3.41c-3.24,6.73-11.44,20.07-25.99,32.69" class="grey" /><path d="M62,17.25c4.02,3.81,15.48,14.98,22.83,21.33c1.96,1.7,5.92,4.67,8.47,5.97" class="grey" /><path d="M48.78,42.59c2.1,0.28,4.18,0.02,5.7-0.22c4.27-0.68,10.94-2.45,16.78-3.16c1.32-0.16,3.49-0.33,5,0.03" class="grey" /><path d="M43.18,54.18c0.76,0.76,1.32,1.69,1.58,2.77c1.2,5.07,1.17,6.58,1.83,10.82c0.24,1.54,0.5,3.21,0.8,5.16" class="grey" /><path d="M45.16,55.81c9.63-1.23,25.15-3.42,32.2-4.19c3.51-0.39,5.65,0.44,4.53,4.28c-1.03,3.56-2.11,6.93-3.37,10.87" class="grey" /><path d="M47.83,70.76c5.4-0.44,19.87-2.25,29.19-3.07c1.91-0.17,3.63-0.3,5.03-0.39" class="grey" /><path d="M62.29,44.07c0.88,0.88,1.06,2.29,1.11,4.15C64,71.12,61,84.38,38.25,96.25" class="grey" /><path d="M64.5,70.53c4,4.22,13.01,12.75,20.55,18.91c2.86,2.33,4.95,3.81,7.57,5.19" class="grey" /><path d="M34.5,16.75c0.23,2.11-0.06,3.62-0.82,5.43C28.88,33.7,21.62,47.62,11,60.04" class="stroke" stroke-dasharray="150"><animate attributeName="stroke-dashoffset" from="150" to="0" dur="1.8s" begin="0s" fill="freeze" /></path><path d="M25.03,42.75c0.86,0.86,1.26,2.22,1.26,3.48c0,10.3,0.02,27.9,0.02,41.77c0,3.19-0.06,5.87-0.06,7.75" class="stroke" stroke-dasharray="150"><set attributeName="opacity" to="0" dur="1.2s" /><animate attributeName="stroke-dashoffset" from="150" to="0" dur="1.8s" begin="1.2s" fill="freeze" /></path><path d="M60.85,13.25c0.28,1-0.1,2.26-0.66,3.41c-3.24,6.73-11.44,20.07-25.99,32.69" class="stroke" stroke-dasharray="150"><set attributeName="opacity" to="0" dur="2.5s" /><animate attributeName="stroke-dashoffset" from="150" to="0" dur="1.8s" begin="2.5s" fill="freeze" /></path><path d="M62,17.25c4.02,3.81,15.48,14.98,22.83,21.33c1.96,1.7,5.92,4.67,8.47,5.97" class="stroke" stroke-dasharray="150"><set attributeName="opacity" to="0" dur="3.7s" /><animate attributeName="stroke-dashoffset" from="150" to="0" dur="1.8s" begin="3.7s" fill="freeze" /></path><path d="M48.78,42.59c2.1,0.28,4.18,0.02,5.7-0.22c4.27-0.68,10.94-2.45,16.78-3.16c1.32-0.16,3.49-0.33,5,0.03" class="stroke" stroke-dasharray="150"><set attributeName="opacity" to="0" dur="4.800000000000001s" /><animate attributeName="stroke-dashoffset" from="150" to="0" dur="1.8s" begin="4.800000000000001s" fill="freeze" /></path><path d="M43.18,54.18c0.76,0.76,1.32,1.69,1.58,2.77c1.2,5.07,1.17,6.58,1.83,10.82c0.24,1.54,0.5,3.21,0.8,5.16" class="stroke" stroke-dasharray="150"><set attributeName="opacity" to="0" dur="5.800000000000001s" /><animate attributeName="stroke-dashoffset" from="150" to="0" dur="1.8s" begin="5.800000000000001s" fill="freeze" /></path><path d="M45.16,55.81c9.63-1.23,25.15-3.42,32.2-4.19c3.51-0.39,5.65,0.44,4.53,4.28c-1.03,3.56-2.11,6.93-3.37,10.87" class="stroke" stroke-dasharray="150"><set attributeName="opacity" to="0" dur="6.700000000000001s" /><animate attributeName="stroke-dashoffset" from="150" to="0" dur="1.8s" begin="6.700000000000001s" fill="freeze" /></path><path d="M47.83,70.76c5.4-0.44,19.87-2.25,29.19-3.07c1.91-0.17,3.63-0.3,5.03-0.39" class="stroke" stroke-dasharray="150"><set attributeName="opacity" to="0" dur="8.000000000000002s" /><animate attributeName="stroke-dashoffset" from="150" to="0" dur="1.8s" begin="8.000000000000002s" fill="freeze" /></path><path d="M62.29,44.07c0.88,0.88,1.06,2.29,1.11,4.15C64,71.12,61,84.38,38.25,96.25" class="stroke" stroke-dasharray="150"><set attributeName="opacity" to="0" dur="9.000000000000002s" /><animate attributeName="stroke-dashoffset" from="150" to="0" dur="1.8s" begin="9.000000000000002s" fill="freeze" /></path><path d="M64.5,70.53c4,4.22,13.01,12.75,20.55,18.91c2.86,2.33,4.95,3.81,7.57,5.19" class="stroke" stroke-dasharray="150"><set attributeName="opacity" to="0" dur="10.500000000000002s" /><animate attributeName="stroke-dashoffset" from="150" to="0" dur="1.8s" begin="10.500000000000002s" fill="freeze" /></path><text x="90" y="120" id="reset">⟳</text><text x="70" y="120" id="pause">◼</text><script type="text/javascript"><![CDATA[function RecurringTimer(e,t){var n,r,i=t;this.pause=function(){window.clearTimeout(n);i-=new Date-r};var s=function(){r=new Date;n=window.setTimeout(function(){i=t;s();e()},i)};this.clear=function(){window.clearTimeout(n);i=t;n=window.setTimeout(function(){i=t;s();e()},i)};this.resume=s;this.resume()}function invoketimer(){timer=new RecurringTimer(function(){svg.setCurrentTime(0)},12500)}var svg=document.getElementById("kanjivg");var pause=document.getElementById("pause");var reset=document.getElementById("reset");var timer;invoketimer();reset.onclick=function(){svg.setCurrentTime(0);timer.clear();svg.unpauseAnimations();pause.innerHTML = "◼";};pause.onclick=function(){if(svg.animationsPaused()){svg.unpauseAnimations();timer.resume();pause.innerHTML="◼"}else{svg.pauseAnimations();timer.pause();pause.innerHTML="▶"}}]]></script></svg>