<svg id="kanjivg" width="106" height="126" xmlns="http://www.w3.org/2000/svg" xmlns:xlink="http://www.w3.org/1999/xlink" xml:space="preserve" version="1.1" baseProfile="full"><defs><style type="text/css"><![CDATA[path.black { fill:none;stroke:black;stroke-width:5;stroke-linecap:round;stroke-linejoin:round; }path.grey { fill:none;stroke:#ddd;stroke-width:5;stroke-linecap:round;stroke-linejoin:round; }path.stroke { fill:none;stroke:black;stroke-width:5;stroke-linecap:round;stroke-linejoin:round; }rect { fill:none;stroke:#555;stroke-width:2;} text{font-size:16px;font-family:Segoe UI Symbol,Cambria Math,DejaVu Sans,Symbola,Quivira,STIX,Code2000;-webkit-touch-callout:none;cursor:pointer;-webkit-user-select:none;-khtml-user-select:none;-moz-user-select:none;-ms-user-select:none;user-select: none;} #reset { font-weight:bold; }]]></style><marker id="markerStart" markerWidth="8" markerHeight="8" style="overflow:visible;"><circle cx="0" cy="0" r="1.5" style="stroke:none;fill:red;fill-opacity:0.5;"/></marker><marker id="markerEnd" style="overflow:visible;"><circle cx="0" cy="0" r="0.8" style="stroke:none;fill:blue;fill-opacity:0.5;"><animate attributeName="opacity" from="1" to="0" dur="3s" repeatCount="indefinite" /></circle></marker></defs><rect x="4" y="4" width="100" height="100" /><path d="M32.93,13.5c0.14,1.22,0.24,2.76-0.12,4.27C30.52,27.28,21.67,45.68,11,58.57" class="grey" /><path d="M22.98,44.61c0.59,0.61,0.76,1.97,0.76,3.23c0,13.02-0.29,38.15-0.29,46.9" class="grey" /><path d="M44.79,13.14c0.3,0.52,0.31,0.89,0.48,1.55c1.37,5.43,2.85,19.64,3.7,29.77" class="grey" /><path d="M45.77,15.44c9.38-1.16,26.83-3.4,35.51-4.15c2.58-0.22,3.1,2.05,2.96,3.32c-0.48,4.65-3.58,20.47-4.75,28.24" class="grey" /><path d="M47.73,28.3c5.38-0.41,31.37-2.78,34.09-2.9" class="grey" /><path d="M49.02,41.86c9.57-0.53,21.25-1.62,30.86-1.86" class="grey" /><path d="M51.8,46.73c0.06,0.53,0.27,1.39-0.11,2.11C48.8,54.22,42.24,62.11,31.25,69" class="grey" /><path d="M51.73,56.15c1.04,0.5,2.49,0.67,4.14,0.33c1.66-0.33,30.86-3.59,34.99-3.99c2.56-0.25,4.35,1.32,3.91,4.84c-1.52,12.16-5.1,25.39-11.71,36.76c-2.56,4.4-4.81,4.15-7.52-0.83" class="grey" /><path d="M62.95,59.12c0.29,0.32-0.04,2.02-0.24,2.65C60.7,68,58.69,73.25,51.48,80.75" class="grey" /><path d="M60.96,68.29c4.3,1.78,9.78,6.51,11.88,11" class="grey" /><path d="M42.1,65.51c0.76,0.46,1.21,2.07,1.36,2.99c0.14,0.83-0.53,7.72-0.53,15.87c0,1.88,0.62,3.07,2.69,2.86c4.83-0.49,20.31-2.24,28.77-2.87c1.84-0.14,3.32,0.38,4.23,0.38" class="grey" /><path d="M32.93,13.5c0.14,1.22,0.24,2.76-0.12,4.27C30.52,27.28,21.67,45.68,11,58.57" class="stroke" stroke-dasharray="150"><animate attributeName="stroke-dashoffset" from="150" to="0" dur="1.8s" begin="0s" fill="freeze" /></path><path d="M22.98,44.61c0.59,0.61,0.76,1.97,0.76,3.23c0,13.02-0.29,38.15-0.29,46.9" class="stroke" stroke-dasharray="150"><set attributeName="opacity" to="0" dur="1.3s" /><animate attributeName="stroke-dashoffset" from="150" to="0" dur="1.8s" begin="1.3s" fill="freeze" /></path><path d="M44.79,13.14c0.3,0.52,0.31,0.89,0.48,1.55c1.37,5.43,2.85,19.64,3.7,29.77" class="stroke" stroke-dasharray="150"><set attributeName="opacity" to="0" dur="2.6s" /><animate attributeName="stroke-dashoffset" from="150" to="0" dur="1.8s" begin="2.6s" fill="freeze" /></path><path d="M45.77,15.44c9.38-1.16,26.83-3.4,35.51-4.15c2.58-0.22,3.1,2.05,2.96,3.32c-0.48,4.65-3.58,20.47-4.75,28.24" class="stroke" stroke-dasharray="150"><set attributeName="opacity" to="0" dur="3.6s" /><animate attributeName="stroke-dashoffset" from="150" to="0" dur="1.8s" begin="3.6s" fill="freeze" /></path><path d="M47.73,28.3c5.38-0.41,31.37-2.78,34.09-2.9" class="stroke" stroke-dasharray="150"><set attributeName="opacity" to="0" dur="5.1s" /><animate attributeName="stroke-dashoffset" from="150" to="0" dur="1.8s" begin="5.1s" fill="freeze" /></path><path d="M49.02,41.86c9.57-0.53,21.25-1.62,30.86-1.86" class="stroke" stroke-dasharray="150"><set attributeName="opacity" to="0" dur="6.1s" /><animate attributeName="stroke-dashoffset" from="150" to="0" dur="1.8s" begin="6.1s" fill="freeze" /></path><path d="M51.8,46.73c0.06,0.53,0.27,1.39-0.11,2.11C48.8,54.22,42.24,62.11,31.25,69" class="stroke" stroke-dasharray="150"><set attributeName="opacity" to="0" dur="7.1s" /><animate attributeName="stroke-dashoffset" from="150" to="0" dur="1.8s" begin="7.1s" fill="freeze" /></path><path d="M51.73,56.15c1.04,0.5,2.49,0.67,4.14,0.33c1.66-0.33,30.86-3.59,34.99-3.99c2.56-0.25,4.35,1.32,3.91,4.84c-1.52,12.16-5.1,25.39-11.71,36.76c-2.56,4.4-4.81,4.15-7.52-0.83" class="stroke" stroke-dasharray="150"><set attributeName="opacity" to="0" dur="8.1s" /><animate attributeName="stroke-dashoffset" from="150" to="0" dur="1.8s" begin="8.1s" fill="freeze" /></path><path d="M62.95,59.12c0.29,0.32-0.04,2.02-0.24,2.65C60.7,68,58.69,73.25,51.48,80.75" class="stroke" stroke-dasharray="150"><set attributeName="opacity" to="0" dur="9.9s" /><animate attributeName="stroke-dashoffset" from="150" to="0" dur="1.8s" begin="9.9s" fill="freeze" /></path><path d="M60.96,68.29c4.3,1.78,9.78,6.51,11.88,11" class="stroke" stroke-dasharray="150"><set attributeName="opacity" to="0" dur="10.9s" /><animate attributeName="stroke-dashoffset" from="150" to="0" dur="1.8s" begin="10.9s" fill="freeze" /></path><path d="M42.1,65.51c0.76,0.46,1.21,2.07,1.36,2.99c0.14,0.83-0.53,7.72-0.53,15.87c0,1.88,0.62,3.07,2.69,2.86c4.83-0.49,20.31-2.24,28.77-2.87c1.84-0.14,3.32,0.38,4.23,0.38" class="stroke" stroke-dasharray="150"><set attributeName="opacity" to="0" dur="11.8s" /><animate attributeName="stroke-dashoffset" from="150" to="0" dur="1.8s" begin="11.8s" fill="freeze" /></path><text x="90" y="120" id="reset">⟳</text><text x="70" y="120" id="pause">◼</text><script type="text/javascript"><![CDATA[function RecurringTimer(e,t){var n,r,i=t;this.pause=function(){window.clearTimeout(n);i-=new Date-r};var s=function(){r=new Date;n=window.setTimeout(function(){i=t;s();e()},i)};this.clear=function(){window.clearTimeout(n);i=t;n=window.setTimeout(function(){i=t;s();e()},i)};this.resume=s;this.resume()}function invoketimer(){timer=new RecurringTimer(function(){svg.setCurrentTime(0)},14200)}var svg=document.getElementById("kanjivg");var pause=document.getElementById("pause");var reset=document.getElementById("reset");var timer;invoketimer();reset.onclick=function(){svg.setCurrentTime(0);timer.clear();svg.unpauseAnimations();pause.innerHTML = "◼";};pause.onclick=function(){if(svg.animationsPaused()){svg.unpauseAnimations();timer.resume();pause.innerHTML="◼"}else{svg.pauseAnimations();timer.pause();pause.innerHTML="▶"}}]]></script></svg>