<svg id="kanjivg" width="106" height="126" xmlns="http://www.w3.org/2000/svg" xmlns:xlink="http://www.w3.org/1999/xlink" xml:space="preserve" version="1.1" baseProfile="full"><defs><style type="text/css"><![CDATA[path.black { fill:none;stroke:black;stroke-width:5;stroke-linecap:round;stroke-linejoin:round; }path.grey { fill:none;stroke:#ddd;stroke-width:5;stroke-linecap:round;stroke-linejoin:round; }path.stroke { fill:none;stroke:black;stroke-width:5;stroke-linecap:round;stroke-linejoin:round; }rect { fill:none;stroke:#555;stroke-width:2;} text{font-size:16px;font-family:Segoe UI Symbol,Cambria Math,DejaVu Sans,Symbola,Quivira,STIX,Code2000;-webkit-touch-callout:none;cursor:pointer;-webkit-user-select:none;-khtml-user-select:none;-moz-user-select:none;-ms-user-select:none;user-select: none;} #reset { font-weight:bold; }]]></style><marker id="markerStart" markerWidth="8" markerHeight="8" style="overflow:visible;"><circle cx="0" cy="0" r="1.5" style="stroke:none;fill:red;fill-opacity:0.5;"/></marker><marker id="markerEnd" style="overflow:visible;"><circle cx="0" cy="0" r="0.8" style="stroke:none;fill:blue;fill-opacity:0.5;"><animate attributeName="opacity" from="1" to="0" dur="3s" repeatCount="indefinite" /></circle></marker></defs><rect x="4" y="4" width="100" height="100" /><path d="M34.75,12.75c0.25,1.25,0.13,2.34-0.62,4.08C29.12,28.38,22.75,41,11,54.29" class="grey" /><path d="M26.53,35.5c0.98,0.98,1.26,2,1.26,3.73c0,10.05,0.05,35.69-0.02,48.77c-0.01,2.58-0.02,4.73-0.02,6.25" class="grey" /><path d="M64.94,11.02c0.44,0.98,0.56,1.92,0.41,2.78c-1.45,8.22-2.36,13.92-3.88,19.09" class="grey" /><path d="M51.33,21.9c1.42,0.6,3.33,0.42,4.92,0.21c7.9-1.02,18.84-2.24,23.39-2.71c2.49-0.26,4.57,0.01,3.97,3.11c-0.68,3.5-1.4,5.47-1.94,7.85" class="grey" /><path d="M40.69,35.19c2,0.68,5.17,0.19,7.18-0.03c10-1.1,28.52-3.11,41.37-4.29c2.38-0.22,5.19-0.42,7.54,0.02" class="grey" /><path d="M50.23,43.14c0.75,0.75,1.2,1.65,1.3,2.62c0.65,2.62,1.2,4.99,1.79,8.93c0.16,1.06,0.32,2.23,0.49,3.54" class="grey" /><path d="M52.24,44.42c8.84-1.21,23.39-2.96,30.03-3.89c2.78-0.39,5.36-0.59,4.24,3.1c-0.81,2.66-1.85,6.17-2.34,8.5" class="grey" /><path d="M54.93,55.91c4.73-0.49,18.48-2,26.58-2.69c1.95-0.17,3.55-0.3,4.61-0.39" class="grey" /><path d="M45.67,67.64c2.21,0.49,4.14,0.23,6.38-0.04c7.21-0.87,21.33-2.79,30.71-3.96c2.17-0.27,4.68-0.51,6.86-0.08" class="grey" /><path d="M51.59,68.61c0.53,0.53,0.74,1.59,0.73,2.4c-0.05,3.43-0.07,6.62-0.07,9.62" class="grey" /><path d="M39.87,82.36c2.37,0.71,5.5,0.25,7.88-0.09c11.26-1.63,27.5-4.02,42.24-4.98c2.38-0.16,4.7-0.42,7.07-0.02" class="grey" /><path d="M69.65,56.85c1,1,1.27,2.77,1.27,3.81c0,2.78-0.03,21.43-0.04,30.96c0,2.76-0.01,4.76-0.01,5.38" class="grey" /><path d="M34.75,12.75c0.25,1.25,0.13,2.34-0.62,4.08C29.12,28.38,22.75,41,11,54.29" class="stroke" stroke-dasharray="150"><animate attributeName="stroke-dashoffset" from="150" to="0" dur="1.8s" begin="0s" fill="freeze" /></path><path d="M26.53,35.5c0.98,0.98,1.26,2,1.26,3.73c0,10.05,0.05,35.69-0.02,48.77c-0.01,2.58-0.02,4.73-0.02,6.25" class="stroke" stroke-dasharray="150"><set attributeName="opacity" to="0" dur="1.2s" /><animate attributeName="stroke-dashoffset" from="150" to="0" dur="1.8s" begin="1.2s" fill="freeze" /></path><path d="M64.94,11.02c0.44,0.98,0.56,1.92,0.41,2.78c-1.45,8.22-2.36,13.92-3.88,19.09" class="stroke" stroke-dasharray="150"><set attributeName="opacity" to="0" dur="2.5999999999999996s" /><animate attributeName="stroke-dashoffset" from="150" to="0" dur="1.8s" begin="2.5999999999999996s" fill="freeze" /></path><path d="M51.33,21.9c1.42,0.6,3.33,0.42,4.92,0.21c7.9-1.02,18.84-2.24,23.39-2.71c2.49-0.26,4.57,0.01,3.97,3.11c-0.68,3.5-1.4,5.47-1.94,7.85" class="stroke" stroke-dasharray="150"><set attributeName="opacity" to="0" dur="3.5999999999999996s" /><animate attributeName="stroke-dashoffset" from="150" to="0" dur="1.8s" begin="3.5999999999999996s" fill="freeze" /></path><path d="M40.69,35.19c2,0.68,5.17,0.19,7.18-0.03c10-1.1,28.52-3.11,41.37-4.29c2.38-0.22,5.19-0.42,7.54,0.02" class="stroke" stroke-dasharray="150"><set attributeName="opacity" to="0" dur="4.699999999999999s" /><animate attributeName="stroke-dashoffset" from="150" to="0" dur="1.8s" begin="4.699999999999999s" fill="freeze" /></path><path d="M50.23,43.14c0.75,0.75,1.2,1.65,1.3,2.62c0.65,2.62,1.2,4.99,1.79,8.93c0.16,1.06,0.32,2.23,0.49,3.54" class="stroke" stroke-dasharray="150"><set attributeName="opacity" to="0" dur="6.1s" /><animate attributeName="stroke-dashoffset" from="150" to="0" dur="1.8s" begin="6.1s" fill="freeze" /></path><path d="M52.24,44.42c8.84-1.21,23.39-2.96,30.03-3.89c2.78-0.39,5.36-0.59,4.24,3.1c-0.81,2.66-1.85,6.17-2.34,8.5" class="stroke" stroke-dasharray="150"><set attributeName="opacity" to="0" dur="7.0s" /><animate attributeName="stroke-dashoffset" from="150" to="0" dur="1.8s" begin="7.0s" fill="freeze" /></path><path d="M54.93,55.91c4.73-0.49,18.48-2,26.58-2.69c1.95-0.17,3.55-0.3,4.61-0.39" class="stroke" stroke-dasharray="150"><set attributeName="opacity" to="0" dur="8.2s" /><animate attributeName="stroke-dashoffset" from="150" to="0" dur="1.8s" begin="8.2s" fill="freeze" /></path><path d="M45.67,67.64c2.21,0.49,4.14,0.23,6.38-0.04c7.21-0.87,21.33-2.79,30.71-3.96c2.17-0.27,4.68-0.51,6.86-0.08" class="stroke" stroke-dasharray="150"><set attributeName="opacity" to="0" dur="9.2s" /><animate attributeName="stroke-dashoffset" from="150" to="0" dur="1.8s" begin="9.2s" fill="freeze" /></path><path d="M51.59,68.61c0.53,0.53,0.74,1.59,0.73,2.4c-0.05,3.43-0.07,6.62-0.07,9.62" class="stroke" stroke-dasharray="150"><set attributeName="opacity" to="0" dur="10.299999999999999s" /><animate attributeName="stroke-dashoffset" from="150" to="0" dur="1.8s" begin="10.299999999999999s" fill="freeze" /></path><path d="M39.87,82.36c2.37,0.71,5.5,0.25,7.88-0.09c11.26-1.63,27.5-4.02,42.24-4.98c2.38-0.16,4.7-0.42,7.07-0.02" class="stroke" stroke-dasharray="150"><set attributeName="opacity" to="0" dur="11.2s" /><animate attributeName="stroke-dashoffset" from="150" to="0" dur="1.8s" begin="11.2s" fill="freeze" /></path><path d="M69.65,56.85c1,1,1.27,2.77,1.27,3.81c0,2.78-0.03,21.43-0.04,30.96c0,2.76-0.01,4.76-0.01,5.38" class="stroke" stroke-dasharray="150"><set attributeName="opacity" to="0" dur="12.6s" /><animate attributeName="stroke-dashoffset" from="150" to="0" dur="1.8s" begin="12.6s" fill="freeze" /></path><text x="90" y="120" id="reset">⟳</text><text x="70" y="120" id="pause">◼</text><script type="text/javascript"><![CDATA[function RecurringTimer(e,t){var n,r,i=t;this.pause=function(){window.clearTimeout(n);i-=new Date-r};var s=function(){r=new Date;n=window.setTimeout(function(){i=t;s();e()},i)};this.clear=function(){window.clearTimeout(n);i=t;n=window.setTimeout(function(){i=t;s();e()},i)};this.resume=s;this.resume()}function invoketimer(){timer=new RecurringTimer(function(){svg.setCurrentTime(0)},14700)}var svg=document.getElementById("kanjivg");var pause=document.getElementById("pause");var reset=document.getElementById("reset");var timer;invoketimer();reset.onclick=function(){svg.setCurrentTime(0);timer.clear();svg.unpauseAnimations();pause.innerHTML = "◼";};pause.onclick=function(){if(svg.animationsPaused()){svg.unpauseAnimations();timer.resume();pause.innerHTML="◼"}else{svg.pauseAnimations();timer.pause();pause.innerHTML="▶"}}]]></script></svg>