<svg id="kanjivg" width="106" height="126" xmlns="http://www.w3.org/2000/svg" xmlns:xlink="http://www.w3.org/1999/xlink" xml:space="preserve" version="1.1" baseProfile="full"><defs><style type="text/css"><![CDATA[path.black { fill:none;stroke:black;stroke-width:5;stroke-linecap:round;stroke-linejoin:round; }path.grey { fill:none;stroke:#ddd;stroke-width:5;stroke-linecap:round;stroke-linejoin:round; }path.stroke { fill:none;stroke:black;stroke-width:5;stroke-linecap:round;stroke-linejoin:round; }rect { fill:none;stroke:#555;stroke-width:2;} text{font-size:16px;font-family:Segoe UI Symbol,Cambria Math,DejaVu Sans,Symbola,Quivira,STIX,Code2000;-webkit-touch-callout:none;cursor:pointer;-webkit-user-select:none;-khtml-user-select:none;-moz-user-select:none;-ms-user-select:none;user-select: none;} #reset { font-weight:bold; }]]></style><marker id="markerStart" markerWidth="8" markerHeight="8" style="overflow:visible;"><circle cx="0" cy="0" r="1.5" style="stroke:none;fill:red;fill-opacity:0.5;"/></marker><marker id="markerEnd" style="overflow:visible;"><circle cx="0" cy="0" r="0.8" style="stroke:none;fill:blue;fill-opacity:0.5;"><animate attributeName="opacity" from="1" to="0" dur="3s" repeatCount="indefinite" /></circle></marker></defs><rect x="4" y="4" width="100" height="100" /><path d="M31.5,18.39c0.12,1.23,0.21,2.78-0.11,4.29c-2.03,9.57-9.88,28.07-19.34,41.04" class="grey" /><path d="M26.53,43.5c0.59,0.61,0.76,1.97,0.76,3.23c0,13.02-0.29,40.15-0.29,48.9" class="grey" /><path d="M39.63,18.78c1.11,0.47,3.14,0.55,4.25,0.47c11.52-0.79,30.25-4.7,42.88-4.7c1.84,0,2.95,0.23,3.88,0.46" class="grey" /><path d="M54.49,27.54c0.22,0.32,0.22,0.54,0.34,0.95c0.99,3.33,1.91,13.25,2.52,19.47" class="grey" /><path d="M55.52,27.99c7.64-0.84,21.23-2.26,26.93-2.97c2.1-0.26,3.17,0.66,3.06,1.57c-0.39,3.36-1.87,12.51-2.83,18.12" class="grey" /><path d="M56.94,36.61c4.44-0.58,8.91-1.02,13.36-1.5c1.51-0.16,3.01-0.33,4.44-0.48" class="grey" /><path d="M57.76,45.55c5.5-0.36,17.33-1.85,24.92-2.44" class="grey" /><path d="M69.26,47.87c0.28,0.71,0.08,1.61-0.14,2.5c-1.08,4.34-5.35,14.32-8.81,19.31c-0.75,1.08-0.16,1.3,0.42,1.31c8.03,0.12,19.53,3.52,26.35,11.55" class="grey" /><path d="M80.99,53.8c0.07,0.7,0.16,2.42-0.15,3.43C77.75,67.5,70.75,80.5,55.99,86.25" class="grey" /><path d="M49.96,57.48c1.18,0.27,2.43,0.46,2.99,0.41c11.9-0.86,27.27-3.4,38.63-3.52c0.94-0.01,2.56,0.17,3.32,0.47" class="grey" /><path d="M44.25,21c0,4-0.5,65-0.5,68.75c0,3,1.2,3.63,2.44,3.5C53.26,92.5,85.55,90,87.84,90c2.3,0,4.24,0.25,5.66,0.75" class="grey" /><path d="M31.5,18.39c0.12,1.23,0.21,2.78-0.11,4.29c-2.03,9.57-9.88,28.07-19.34,41.04" class="stroke" stroke-dasharray="150"><animate attributeName="stroke-dashoffset" from="150" to="0" dur="1.8s" begin="0s" fill="freeze" /></path><path d="M26.53,43.5c0.59,0.61,0.76,1.97,0.76,3.23c0,13.02-0.29,40.15-0.29,48.9" class="stroke" stroke-dasharray="150"><set attributeName="opacity" to="0" dur="1.2s" /><animate attributeName="stroke-dashoffset" from="150" to="0" dur="1.8s" begin="1.2s" fill="freeze" /></path><path d="M39.63,18.78c1.11,0.47,3.14,0.55,4.25,0.47c11.52-0.79,30.25-4.7,42.88-4.7c1.84,0,2.95,0.23,3.88,0.46" class="stroke" stroke-dasharray="150"><set attributeName="opacity" to="0" dur="2.5s" /><animate attributeName="stroke-dashoffset" from="150" to="0" dur="1.8s" begin="2.5s" fill="freeze" /></path><path d="M54.49,27.54c0.22,0.32,0.22,0.54,0.34,0.95c0.99,3.33,1.91,13.25,2.52,19.47" class="stroke" stroke-dasharray="150"><set attributeName="opacity" to="0" dur="3.8s" /><animate attributeName="stroke-dashoffset" from="150" to="0" dur="1.8s" begin="3.8s" fill="freeze" /></path><path d="M55.52,27.99c7.64-0.84,21.23-2.26,26.93-2.97c2.1-0.26,3.17,0.66,3.06,1.57c-0.39,3.36-1.87,12.51-2.83,18.12" class="stroke" stroke-dasharray="150"><set attributeName="opacity" to="0" dur="4.8s" /><animate attributeName="stroke-dashoffset" from="150" to="0" dur="1.8s" begin="4.8s" fill="freeze" /></path><path d="M56.94,36.61c4.44-0.58,8.91-1.02,13.36-1.5c1.51-0.16,3.01-0.33,4.44-0.48" class="stroke" stroke-dasharray="150"><set attributeName="opacity" to="0" dur="6.0s" /><animate attributeName="stroke-dashoffset" from="150" to="0" dur="1.8s" begin="6.0s" fill="freeze" /></path><path d="M57.76,45.55c5.5-0.36,17.33-1.85,24.92-2.44" class="stroke" stroke-dasharray="150"><set attributeName="opacity" to="0" dur="6.9s" /><animate attributeName="stroke-dashoffset" from="150" to="0" dur="1.8s" begin="6.9s" fill="freeze" /></path><path d="M69.26,47.87c0.28,0.71,0.08,1.61-0.14,2.5c-1.08,4.34-5.35,14.32-8.81,19.31c-0.75,1.08-0.16,1.3,0.42,1.31c8.03,0.12,19.53,3.52,26.35,11.55" class="stroke" stroke-dasharray="150"><set attributeName="opacity" to="0" dur="7.9s" /><animate attributeName="stroke-dashoffset" from="150" to="0" dur="1.8s" begin="7.9s" fill="freeze" /></path><path d="M80.99,53.8c0.07,0.7,0.16,2.42-0.15,3.43C77.75,67.5,70.75,80.5,55.99,86.25" class="stroke" stroke-dasharray="150"><set attributeName="opacity" to="0" dur="9.3s" /><animate attributeName="stroke-dashoffset" from="150" to="0" dur="1.8s" begin="9.3s" fill="freeze" /></path><path d="M49.96,57.48c1.18,0.27,2.43,0.46,2.99,0.41c11.9-0.86,27.27-3.4,38.63-3.52c0.94-0.01,2.56,0.17,3.32,0.47" class="stroke" stroke-dasharray="150"><set attributeName="opacity" to="0" dur="10.4s" /><animate attributeName="stroke-dashoffset" from="150" to="0" dur="1.8s" begin="10.4s" fill="freeze" /></path><path d="M44.25,21c0,4-0.5,65-0.5,68.75c0,3,1.2,3.63,2.44,3.5C53.26,92.5,85.55,90,87.84,90c2.3,0,4.24,0.25,5.66,0.75" class="stroke" stroke-dasharray="150"><set attributeName="opacity" to="0" dur="11.6s" /><animate attributeName="stroke-dashoffset" from="150" to="0" dur="1.8s" begin="11.6s" fill="freeze" /></path><text x="90" y="120" id="reset">⟳</text><text x="70" y="120" id="pause">◼</text><script type="text/javascript"><![CDATA[function RecurringTimer(e,t){var n,r,i=t;this.pause=function(){window.clearTimeout(n);i-=new Date-r};var s=function(){r=new Date;n=window.setTimeout(function(){i=t;s();e()},i)};this.clear=function(){window.clearTimeout(n);i=t;n=window.setTimeout(function(){i=t;s();e()},i)};this.resume=s;this.resume()}function invoketimer(){timer=new RecurringTimer(function(){svg.setCurrentTime(0)},14600)}var svg=document.getElementById("kanjivg");var pause=document.getElementById("pause");var reset=document.getElementById("reset");var timer;invoketimer();reset.onclick=function(){svg.setCurrentTime(0);timer.clear();svg.unpauseAnimations();pause.innerHTML = "◼";};pause.onclick=function(){if(svg.animationsPaused()){svg.unpauseAnimations();timer.resume();pause.innerHTML="◼"}else{svg.pauseAnimations();timer.pause();pause.innerHTML="▶"}}]]></script></svg>