<svg id="kanjivg" width="106" height="126" xmlns="http://www.w3.org/2000/svg" xmlns:xlink="http://www.w3.org/1999/xlink" xml:space="preserve" version="1.1" baseProfile="full"><defs><style type="text/css"><![CDATA[path.black { fill:none;stroke:black;stroke-width:5;stroke-linecap:round;stroke-linejoin:round; }path.grey { fill:none;stroke:#ddd;stroke-width:5;stroke-linecap:round;stroke-linejoin:round; }path.stroke { fill:none;stroke:black;stroke-width:5;stroke-linecap:round;stroke-linejoin:round; }rect { fill:none;stroke:#555;stroke-width:2;} text{font-size:16px;font-family:Segoe UI Symbol,Cambria Math,DejaVu Sans,Symbola,Quivira,STIX,Code2000;-webkit-touch-callout:none;cursor:pointer;-webkit-user-select:none;-khtml-user-select:none;-moz-user-select:none;-ms-user-select:none;user-select: none;} #reset { font-weight:bold; }]]></style><marker id="markerStart" markerWidth="8" markerHeight="8" style="overflow:visible;"><circle cx="0" cy="0" r="1.5" style="stroke:none;fill:red;fill-opacity:0.5;"/></marker><marker id="markerEnd" style="overflow:visible;"><circle cx="0" cy="0" r="0.8" style="stroke:none;fill:blue;fill-opacity:0.5;"><animate attributeName="opacity" from="1" to="0" dur="3s" repeatCount="indefinite" /></circle></marker></defs><rect x="4" y="4" width="100" height="100" /><path d="M30,17.39c0.13,1.23,0.22,2.78-0.11,4.29C27.75,31.25,19.5,49.75,9.56,62.72" class="grey" /><path d="M23.03,45.5c0.59,0.61,0.76,1.97,0.76,3.23c0,13.02-0.29,40.15-0.29,48.9" class="grey" /><path d="M40.31,21.37c5.69-1.12,11.48-2.6,17.42-3.5c1.49-0.22,2.39,1.04,2.18,2.06c-0.89,4.25-2.66,13.07-3.24,17.78" class="grey" /><path d="M39.97,40.55c4.8-0.54,14.78-2.3,19.19-2.81" class="grey" /><path d="M38.14,18.4c0.86,0.85,1.75,2.31,1.86,3.64c0,15.96,0,65.71-0.25,73.71" class="grey" /><path d="M39.97,58.8c3.82-0.43,8.98-1.63,13.56-2.36C54.7,56.25,57,56,58.17,56.49" class="grey" /><path d="M40.72,77.05c3.82-0.43,9.98-1.63,14.56-2.36c1.17-0.19,2.24,0.16,3.14,0.05" class="grey" /><path d="M67.34,18.83c1.1-0.02,3.35,0.48,4.53,0.27C78,18,84.01,16.42,89.31,15.62c1.61-0.24,2.58,1.11,2.35,2.2c-0.96,4.54-2.87,11.33-4.03,16.9" class="grey" /><path d="M66.47,37.78c1.38,0.22,2.18,0.27,3.55,0.09C76,37.09,84.5,35.5,90.82,35.78" class="grey" /><path d="M65.66,52.36c1.17,0.29,1.32,0.73,3.67,0.29s16.23-3.26,17.85-3.7s2.79,1.61,2.2,3.23C82.48,71.27,70.29,87.81,57.08,95" class="grey" /><path d="M63.75,58.5c3.09,0.88,18.2,24.36,28.96,33.98c1.68,1.5,2.9,2.5,4.46,3" class="grey" /><path d="M30,17.39c0.13,1.23,0.22,2.78-0.11,4.29C27.75,31.25,19.5,49.75,9.56,62.72" class="stroke" stroke-dasharray="150"><animate attributeName="stroke-dashoffset" from="150" to="0" dur="1.8s" begin="0s" fill="freeze" /></path><path d="M23.03,45.5c0.59,0.61,0.76,1.97,0.76,3.23c0,13.02-0.29,40.15-0.29,48.9" class="stroke" stroke-dasharray="150"><set attributeName="opacity" to="0" dur="1.3s" /><animate attributeName="stroke-dashoffset" from="150" to="0" dur="1.8s" begin="1.3s" fill="freeze" /></path><path d="M40.31,21.37c5.69-1.12,11.48-2.6,17.42-3.5c1.49-0.22,2.39,1.04,2.18,2.06c-0.89,4.25-2.66,13.07-3.24,17.78" class="stroke" stroke-dasharray="150"><set attributeName="opacity" to="0" dur="2.6s" /><animate attributeName="stroke-dashoffset" from="150" to="0" dur="1.8s" begin="2.6s" fill="freeze" /></path><path d="M39.97,40.55c4.8-0.54,14.78-2.3,19.19-2.81" class="stroke" stroke-dasharray="150"><set attributeName="opacity" to="0" dur="3.6s" /><animate attributeName="stroke-dashoffset" from="150" to="0" dur="1.8s" begin="3.6s" fill="freeze" /></path><path d="M38.14,18.4c0.86,0.85,1.75,2.31,1.86,3.64c0,15.96,0,65.71-0.25,73.71" class="stroke" stroke-dasharray="150"><set attributeName="opacity" to="0" dur="4.5s" /><animate attributeName="stroke-dashoffset" from="150" to="0" dur="1.8s" begin="4.5s" fill="freeze" /></path><path d="M39.97,58.8c3.82-0.43,8.98-1.63,13.56-2.36C54.7,56.25,57,56,58.17,56.49" class="stroke" stroke-dasharray="150"><set attributeName="opacity" to="0" dur="6.2s" /><animate attributeName="stroke-dashoffset" from="150" to="0" dur="1.8s" begin="6.2s" fill="freeze" /></path><path d="M40.72,77.05c3.82-0.43,9.98-1.63,14.56-2.36c1.17-0.19,2.24,0.16,3.14,0.05" class="stroke" stroke-dasharray="150"><set attributeName="opacity" to="0" dur="7.1000000000000005s" /><animate attributeName="stroke-dashoffset" from="150" to="0" dur="1.8s" begin="7.1000000000000005s" fill="freeze" /></path><path d="M67.34,18.83c1.1-0.02,3.35,0.48,4.53,0.27C78,18,84.01,16.42,89.31,15.62c1.61-0.24,2.58,1.11,2.35,2.2c-0.96,4.54-2.87,11.33-4.03,16.9" class="stroke" stroke-dasharray="150"><set attributeName="opacity" to="0" dur="8.0s" /><animate attributeName="stroke-dashoffset" from="150" to="0" dur="1.8s" begin="8.0s" fill="freeze" /></path><path d="M66.47,37.78c1.38,0.22,2.18,0.27,3.55,0.09C76,37.09,84.5,35.5,90.82,35.78" class="stroke" stroke-dasharray="150"><set attributeName="opacity" to="0" dur="9.1s" /><animate attributeName="stroke-dashoffset" from="150" to="0" dur="1.8s" begin="9.1s" fill="freeze" /></path><path d="M65.66,52.36c1.17,0.29,1.32,0.73,3.67,0.29s16.23-3.26,17.85-3.7s2.79,1.61,2.2,3.23C82.48,71.27,70.29,87.81,57.08,95" class="stroke" stroke-dasharray="150"><set attributeName="opacity" to="0" dur="10.1s" /><animate attributeName="stroke-dashoffset" from="150" to="0" dur="1.8s" begin="10.1s" fill="freeze" /></path><path d="M63.75,58.5c3.09,0.88,18.2,24.36,28.96,33.98c1.68,1.5,2.9,2.5,4.46,3" class="stroke" stroke-dasharray="150"><set attributeName="opacity" to="0" dur="11.799999999999999s" /><animate attributeName="stroke-dashoffset" from="150" to="0" dur="1.8s" begin="11.799999999999999s" fill="freeze" /></path><text x="90" y="120" id="reset">⟳</text><text x="70" y="120" id="pause">◼</text><script type="text/javascript"><![CDATA[function RecurringTimer(e,t){var n,r,i=t;this.pause=function(){window.clearTimeout(n);i-=new Date-r};var s=function(){r=new Date;n=window.setTimeout(function(){i=t;s();e()},i)};this.clear=function(){window.clearTimeout(n);i=t;n=window.setTimeout(function(){i=t;s();e()},i)};this.resume=s;this.resume()}function invoketimer(){timer=new RecurringTimer(function(){svg.setCurrentTime(0)},14100)}var svg=document.getElementById("kanjivg");var pause=document.getElementById("pause");var reset=document.getElementById("reset");var timer;invoketimer();reset.onclick=function(){svg.setCurrentTime(0);timer.clear();svg.unpauseAnimations();pause.innerHTML = "◼";};pause.onclick=function(){if(svg.animationsPaused()){svg.unpauseAnimations();timer.resume();pause.innerHTML="◼"}else{svg.pauseAnimations();timer.pause();pause.innerHTML="▶"}}]]></script></svg>