<svg id="kanjivg" width="106" height="126" xmlns="http://www.w3.org/2000/svg" xmlns:xlink="http://www.w3.org/1999/xlink" xml:space="preserve" version="1.1" baseProfile="full"><defs><style type="text/css"><![CDATA[path.black { fill:none;stroke:black;stroke-width:5;stroke-linecap:round;stroke-linejoin:round; }path.grey { fill:none;stroke:#ddd;stroke-width:5;stroke-linecap:round;stroke-linejoin:round; }path.stroke { fill:none;stroke:black;stroke-width:5;stroke-linecap:round;stroke-linejoin:round; }rect { fill:none;stroke:#555;stroke-width:2;} text{font-size:16px;font-family:Segoe UI Symbol,Cambria Math,DejaVu Sans,Symbola,Quivira,STIX,Code2000;-webkit-touch-callout:none;cursor:pointer;-webkit-user-select:none;-khtml-user-select:none;-moz-user-select:none;-ms-user-select:none;user-select: none;} #reset { font-weight:bold; }]]></style><marker id="markerStart" markerWidth="8" markerHeight="8" style="overflow:visible;"><circle cx="0" cy="0" r="1.5" style="stroke:none;fill:red;fill-opacity:0.5;"/></marker><marker id="markerEnd" style="overflow:visible;"><circle cx="0" cy="0" r="0.8" style="stroke:none;fill:blue;fill-opacity:0.5;"><animate attributeName="opacity" from="1" to="0" dur="3s" repeatCount="indefinite" /></circle></marker></defs><rect x="4" y="4" width="100" height="100" /><path d="M32.44,17.5c0.13,1.23,0.22,2.78-0.11,4.29C30.19,31.36,21.94,49.86,12,62.82" class="grey" /><path d="M26.48,42.61c0.59,0.61,0.76,1.97,0.76,3.23c0,13.02-0.29,40.15-0.29,48.9" class="grey" /><path d="M62.21,9.74C64,11,66,13.5,67.12,15.9" class="grey" /><path d="M41.54,22.86c1.16,0.42,2.5,0.46,3.67,0.42c11.27-0.47,24.45-3.85,40.83-4.27c1.93-0.05,3.09,0.2,4.06,0.41" class="grey" /><path d="M56.47,29.65C70,33.11,77.37,36.82,78.6,39.1" class="grey" /><path d="M76.07,23.29c0.18,1.21-0.65,2.43-1,2.81C70.5,31,61.25,38.5,53.67,42.13" class="grey" /><path d="M39.2,47.86c0.97,0.3,5.33,0.43,6.29,0.3c13.6-1.86,28.66-2.87,42.5-4.43c1.6-0.18,4.19,0.14,5,0.29" class="grey" /><path d="M44.5,48.76c0.32,0.35,0.59,2.85,0.6,3.96c0.17,16.65-4.12,33.91-9.83,39.45" class="grey" /><path d="M78.17,48.4c0.06,0.41,0.13,1.06-0.12,1.65c-1.44,3.47-9.72,11.09-21.04,15.75" class="grey" /><path d="M82.89,62.03c0.07,0.46,0.27,1.27-0.15,1.87c-2.49,3.6-13.77,13.3-25.87,17.9" class="grey" /><path d="M88.51,77.14c0.1,0.49,0.36,1.37-0.2,1.98C84.25,83.5,71.5,91.5,52.17,98" class="grey" /><path d="M32.44,17.5c0.13,1.23,0.22,2.78-0.11,4.29C30.19,31.36,21.94,49.86,12,62.82" class="stroke" stroke-dasharray="150"><animate attributeName="stroke-dashoffset" from="150" to="0" dur="1.8s" begin="0s" fill="freeze" /></path><path d="M26.48,42.61c0.59,0.61,0.76,1.97,0.76,3.23c0,13.02-0.29,40.15-0.29,48.9" class="stroke" stroke-dasharray="150"><set attributeName="opacity" to="0" dur="1.3s" /><animate attributeName="stroke-dashoffset" from="150" to="0" dur="1.8s" begin="1.3s" fill="freeze" /></path><path d="M62.21,9.74C64,11,66,13.5,67.12,15.9" class="stroke" stroke-dasharray="150"><set attributeName="opacity" to="0" dur="2.6s" /><animate attributeName="stroke-dashoffset" from="150" to="0" dur="1.8s" begin="2.6s" fill="freeze" /></path><path d="M41.54,22.86c1.16,0.42,2.5,0.46,3.67,0.42c11.27-0.47,24.45-3.85,40.83-4.27c1.93-0.05,3.09,0.2,4.06,0.41" class="stroke" stroke-dasharray="150"><set attributeName="opacity" to="0" dur="3.5s" /><animate attributeName="stroke-dashoffset" from="150" to="0" dur="1.8s" begin="3.5s" fill="freeze" /></path><path d="M56.47,29.65C70,33.11,77.37,36.82,78.6,39.1" class="stroke" stroke-dasharray="150"><set attributeName="opacity" to="0" dur="4.7s" /><animate attributeName="stroke-dashoffset" from="150" to="0" dur="1.8s" begin="4.7s" fill="freeze" /></path><path d="M76.07,23.29c0.18,1.21-0.65,2.43-1,2.81C70.5,31,61.25,38.5,53.67,42.13" class="stroke" stroke-dasharray="150"><set attributeName="opacity" to="0" dur="5.7s" /><animate attributeName="stroke-dashoffset" from="150" to="0" dur="1.8s" begin="5.7s" fill="freeze" /></path><path d="M39.2,47.86c0.97,0.3,5.33,0.43,6.29,0.3c13.6-1.86,28.66-2.87,42.5-4.43c1.6-0.18,4.19,0.14,5,0.29" class="stroke" stroke-dasharray="150"><set attributeName="opacity" to="0" dur="6.7s" /><animate attributeName="stroke-dashoffset" from="150" to="0" dur="1.8s" begin="6.7s" fill="freeze" /></path><path d="M44.5,48.76c0.32,0.35,0.59,2.85,0.6,3.96c0.17,16.65-4.12,33.91-9.83,39.45" class="stroke" stroke-dasharray="150"><set attributeName="opacity" to="0" dur="8.0s" /><animate attributeName="stroke-dashoffset" from="150" to="0" dur="1.8s" begin="8.0s" fill="freeze" /></path><path d="M78.17,48.4c0.06,0.41,0.13,1.06-0.12,1.65c-1.44,3.47-9.72,11.09-21.04,15.75" class="stroke" stroke-dasharray="150"><set attributeName="opacity" to="0" dur="9.2s" /><animate attributeName="stroke-dashoffset" from="150" to="0" dur="1.8s" begin="9.2s" fill="freeze" /></path><path d="M82.89,62.03c0.07,0.46,0.27,1.27-0.15,1.87c-2.49,3.6-13.77,13.3-25.87,17.9" class="stroke" stroke-dasharray="150"><set attributeName="opacity" to="0" dur="10.2s" /><animate attributeName="stroke-dashoffset" from="150" to="0" dur="1.8s" begin="10.2s" fill="freeze" /></path><path d="M88.51,77.14c0.1,0.49,0.36,1.37-0.2,1.98C84.25,83.5,71.5,91.5,52.17,98" class="stroke" stroke-dasharray="150"><set attributeName="opacity" to="0" dur="11.2s" /><animate attributeName="stroke-dashoffset" from="150" to="0" dur="1.8s" begin="11.2s" fill="freeze" /></path><text x="90" y="120" id="reset">⟳</text><text x="70" y="120" id="pause">◼</text><script type="text/javascript"><![CDATA[function RecurringTimer(e,t){var n,r,i=t;this.pause=function(){window.clearTimeout(n);i-=new Date-r};var s=function(){r=new Date;n=window.setTimeout(function(){i=t;s();e()},i)};this.clear=function(){window.clearTimeout(n);i=t;n=window.setTimeout(function(){i=t;s();e()},i)};this.resume=s;this.resume()}function invoketimer(){timer=new RecurringTimer(function(){svg.setCurrentTime(0)},13299)}var svg=document.getElementById("kanjivg");var pause=document.getElementById("pause");var reset=document.getElementById("reset");var timer;invoketimer();reset.onclick=function(){svg.setCurrentTime(0);timer.clear();svg.unpauseAnimations();pause.innerHTML = "◼";};pause.onclick=function(){if(svg.animationsPaused()){svg.unpauseAnimations();timer.resume();pause.innerHTML="◼"}else{svg.pauseAnimations();timer.pause();pause.innerHTML="▶"}}]]></script></svg>