<svg id="kanjivg" width="106" height="126" xmlns="http://www.w3.org/2000/svg" xmlns:xlink="http://www.w3.org/1999/xlink" xml:space="preserve" version="1.1" baseProfile="full"><defs><style type="text/css"><![CDATA[path.black { fill:none;stroke:black;stroke-width:5;stroke-linecap:round;stroke-linejoin:round; }path.grey { fill:none;stroke:#ddd;stroke-width:5;stroke-linecap:round;stroke-linejoin:round; }path.stroke { fill:none;stroke:black;stroke-width:5;stroke-linecap:round;stroke-linejoin:round; }rect { fill:none;stroke:#555;stroke-width:2;} text{font-size:16px;font-family:Segoe UI Symbol,Cambria Math,DejaVu Sans,Symbola,Quivira,STIX,Code2000;-webkit-touch-callout:none;cursor:pointer;-webkit-user-select:none;-khtml-user-select:none;-moz-user-select:none;-ms-user-select:none;user-select: none;} #reset { font-weight:bold; }]]></style><marker id="markerStart" markerWidth="8" markerHeight="8" style="overflow:visible;"><circle cx="0" cy="0" r="1.5" style="stroke:none;fill:red;fill-opacity:0.5;"/></marker><marker id="markerEnd" style="overflow:visible;"><circle cx="0" cy="0" r="0.8" style="stroke:none;fill:blue;fill-opacity:0.5;"><animate attributeName="opacity" from="1" to="0" dur="3s" repeatCount="indefinite" /></circle></marker></defs><rect x="4" y="4" width="100" height="100" /><path d="M40.39,14.5c0.18,1.33,0.32,2.99-0.17,4.62c-3.09,10.31-15.06,30.23-29.47,44.2" class="grey" /><path d="M27.98,46.61c0.59,0.61,0.76,1.97,0.76,3.23c0,13.02-0.29,38.65-0.29,47.4" class="grey" /><path d="M49.43,30.5c0.59,0.28,1.67,0.32,2.27,0.28c6.72-0.45,19.13-2.56,25.76-2.75c0.98-0.03,1.58,0.13,2.07,0.27" class="grey" /><path d="M64.68,11.87c0.08,0.23,1.14,1.22,1.22,2.71c0.39,7.15,0.21,28.17,0.21,30.6" class="grey" /><path d="M39.75,48.07c1.2,0.45,3.06,0.84,4.14,0.67c6.01-0.94,42.48-6.25,49.46-6.46c1.8-0.05,2.88,0.32,3.78,0.65" class="grey" /><path d="M90.57,21.32c0.15,1.14,0.28,2.72-0.79,4.07C76.02,42.71,63.03,55.59,37.92,71.6" class="grey" /><path d="M72,49.75c2.74,1.1,7.06,4.53,7.75,6.25" class="grey" /><path d="M57.87,60.66c0.31,0.86,0.62,1.29,0.62,2.44c0,1.15-0.21,33.6-0.21,34.18" class="grey" /><path d="M59.02,62.8c1.76-0.14,24.06-2.49,25.66-2.66c1.34-0.14,2.2,1.59,2.09,2.44c-0.21,1.72-0.31,20.82-0.31,33.47" class="grey" /><path d="M58.83,76.86c5.42,0,24.62-1.58,27.31-1.58" class="grey" /><path d="M58.72,93.77c6.53,0,20.03-1.27,27.41-1.3" class="grey" /><path d="M40.39,14.5c0.18,1.33,0.32,2.99-0.17,4.62c-3.09,10.31-15.06,30.23-29.47,44.2" class="stroke" stroke-dasharray="150"><animate attributeName="stroke-dashoffset" from="150" to="0" dur="1.8s" begin="0s" fill="freeze" /></path><path d="M27.98,46.61c0.59,0.61,0.76,1.97,0.76,3.23c0,13.02-0.29,38.65-0.29,47.4" class="stroke" stroke-dasharray="150"><set attributeName="opacity" to="0" dur="1.4s" /><animate attributeName="stroke-dashoffset" from="150" to="0" dur="1.8s" begin="1.4s" fill="freeze" /></path><path d="M49.43,30.5c0.59,0.28,1.67,0.32,2.27,0.28c6.72-0.45,19.13-2.56,25.76-2.75c0.98-0.03,1.58,0.13,2.07,0.27" class="stroke" stroke-dasharray="150"><set attributeName="opacity" to="0" dur="2.7s" /><animate attributeName="stroke-dashoffset" from="150" to="0" dur="1.8s" begin="2.7s" fill="freeze" /></path><path d="M64.68,11.87c0.08,0.23,1.14,1.22,1.22,2.71c0.39,7.15,0.21,28.17,0.21,30.6" class="stroke" stroke-dasharray="150"><set attributeName="opacity" to="0" dur="3.7s" /><animate attributeName="stroke-dashoffset" from="150" to="0" dur="1.8s" begin="3.7s" fill="freeze" /></path><path d="M39.75,48.07c1.2,0.45,3.06,0.84,4.14,0.67c6.01-0.94,42.48-6.25,49.46-6.46c1.8-0.05,2.88,0.32,3.78,0.65" class="stroke" stroke-dasharray="150"><set attributeName="opacity" to="0" dur="4.7s" /><animate attributeName="stroke-dashoffset" from="150" to="0" dur="1.8s" begin="4.7s" fill="freeze" /></path><path d="M90.57,21.32c0.15,1.14,0.28,2.72-0.79,4.07C76.02,42.71,63.03,55.59,37.92,71.6" class="stroke" stroke-dasharray="150"><set attributeName="opacity" to="0" dur="6.1s" /><animate attributeName="stroke-dashoffset" from="150" to="0" dur="1.8s" begin="6.1s" fill="freeze" /></path><path d="M72,49.75c2.74,1.1,7.06,4.53,7.75,6.25" class="stroke" stroke-dasharray="150"><set attributeName="opacity" to="0" dur="7.8s" /><animate attributeName="stroke-dashoffset" from="150" to="0" dur="1.8s" begin="7.8s" fill="freeze" /></path><path d="M57.87,60.66c0.31,0.86,0.62,1.29,0.62,2.44c0,1.15-0.21,33.6-0.21,34.18" class="stroke" stroke-dasharray="150"><set attributeName="opacity" to="0" dur="8.7s" /><animate attributeName="stroke-dashoffset" from="150" to="0" dur="1.8s" begin="8.7s" fill="freeze" /></path><path d="M59.02,62.8c1.76-0.14,24.06-2.49,25.66-2.66c1.34-0.14,2.2,1.59,2.09,2.44c-0.21,1.72-0.31,20.82-0.31,33.47" class="stroke" stroke-dasharray="150"><set attributeName="opacity" to="0" dur="9.7s" /><animate attributeName="stroke-dashoffset" from="150" to="0" dur="1.8s" begin="9.7s" fill="freeze" /></path><path d="M58.83,76.86c5.42,0,24.62-1.58,27.31-1.58" class="stroke" stroke-dasharray="150"><set attributeName="opacity" to="0" dur="11.2s" /><animate attributeName="stroke-dashoffset" from="150" to="0" dur="1.8s" begin="11.2s" fill="freeze" /></path><path d="M58.72,93.77c6.53,0,20.03-1.27,27.41-1.3" class="stroke" stroke-dasharray="150"><set attributeName="opacity" to="0" dur="12.2s" /><animate attributeName="stroke-dashoffset" from="150" to="0" dur="1.8s" begin="12.2s" fill="freeze" /></path><text x="90" y="120" id="reset">⟳</text><text x="70" y="120" id="pause">◼</text><script type="text/javascript"><![CDATA[function RecurringTimer(e,t){var n,r,i=t;this.pause=function(){window.clearTimeout(n);i-=new Date-r};var s=function(){r=new Date;n=window.setTimeout(function(){i=t;s();e()},i)};this.clear=function(){window.clearTimeout(n);i=t;n=window.setTimeout(function(){i=t;s();e()},i)};this.resume=s;this.resume()}function invoketimer(){timer=new RecurringTimer(function(){svg.setCurrentTime(0)},14200)}var svg=document.getElementById("kanjivg");var pause=document.getElementById("pause");var reset=document.getElementById("reset");var timer;invoketimer();reset.onclick=function(){svg.setCurrentTime(0);timer.clear();svg.unpauseAnimations();pause.innerHTML = "◼";};pause.onclick=function(){if(svg.animationsPaused()){svg.unpauseAnimations();timer.resume();pause.innerHTML="◼"}else{svg.pauseAnimations();timer.pause();pause.innerHTML="▶"}}]]></script></svg>