<svg id="kanjivg" width="106" height="126" xmlns="http://www.w3.org/2000/svg" xmlns:xlink="http://www.w3.org/1999/xlink" xml:space="preserve" version="1.1" baseProfile="full"><defs><style type="text/css"><![CDATA[path.black { fill:none;stroke:black;stroke-width:5;stroke-linecap:round;stroke-linejoin:round; }path.grey { fill:none;stroke:#ddd;stroke-width:5;stroke-linecap:round;stroke-linejoin:round; }path.stroke { fill:none;stroke:black;stroke-width:5;stroke-linecap:round;stroke-linejoin:round; }rect { fill:none;stroke:#555;stroke-width:2;} text{font-size:16px;font-family:Segoe UI Symbol,Cambria Math,DejaVu Sans,Symbola,Quivira,STIX,Code2000;-webkit-touch-callout:none;cursor:pointer;-webkit-user-select:none;-khtml-user-select:none;-moz-user-select:none;-ms-user-select:none;user-select: none;} #reset { font-weight:bold; }]]></style><marker id="markerStart" markerWidth="8" markerHeight="8" style="overflow:visible;"><circle cx="0" cy="0" r="1.5" style="stroke:none;fill:red;fill-opacity:0.5;"/></marker><marker id="markerEnd" style="overflow:visible;"><circle cx="0" cy="0" r="0.8" style="stroke:none;fill:blue;fill-opacity:0.5;"><animate attributeName="opacity" from="1" to="0" dur="3s" repeatCount="indefinite" /></circle></marker></defs><rect x="4" y="4" width="100" height="100" /><path d="M32.94,18.5c0.13,1.21,0.23,2.73-0.12,4.22c-2.21,9.41-10.76,27.6-21.07,40.36" class="grey" /><path d="M25.98,45.11c0.59,0.61,0.76,1.97,0.76,3.23c0,13.02-0.29,37.15-0.29,45.9" class="grey" /><path d="M44.25,29c3.38-0.25,12.84-2.75,14.19-2.75s3.04-0.25,4.06,0" class="grey" /><path d="M42.75,16.14c0.9,0.58,0.96,0.97,1.26,1.74c0.3,0.77-0.28,27.37-0.28,30.5c0,2.97,0.52,3.12,3.12,1.59c5.42-3.19,8.38-5.16,12.08-7.66" class="grey" /><path d="M90.05,16.51C90,17.75,90,18,89.23,18.98c-3.02,3.84-8.49,6.99-18.14,10.86" class="grey" /><path d="M67.85,11c1.54,0.51,1.61,1.4,1.8,2.2c0.19,0.79-0.21,23.67-0.21,26.15c0,11.59,6.36,9.98,12.88,9.98c5.06,0,9.35-0.33,11.25-2.11c1.91-1.78,1.66-3.76,1.48-6.19" class="grey" /><path d="M63.05,49.75c0.5,0.63,0.58,1.41,0.46,1.96c-0.7,3.26-6.69,8.92-10.25,12.29" class="grey" /><path d="M46.09,64.97c0.48,0.85,0.97,1.28,0.97,2.41c0,1.13,3.1,22.78,3.3,28.37" class="grey" /><path d="M47.35,66.98c2.72-0.14,32.03-3.56,34.51-3.73c2.06-0.14,3.46,1.26,3.23,3.79c-0.58,6.46-2.58,20.21-4.01,26.9" class="grey" /><path d="M49.11,79.07c3.68,0,30.06-2.16,34.22-2.16" class="grey" /><path d="M50.15,93.19c5.44,0,23.94-1.88,30.98-1.88" class="grey" /><path d="M32.94,18.5c0.13,1.21,0.23,2.73-0.12,4.22c-2.21,9.41-10.76,27.6-21.07,40.36" class="stroke" stroke-dasharray="150"><animate attributeName="stroke-dashoffset" from="150" to="0" dur="1.8s" begin="0s" fill="freeze" /></path><path d="M25.98,45.11c0.59,0.61,0.76,1.97,0.76,3.23c0,13.02-0.29,37.15-0.29,45.9" class="stroke" stroke-dasharray="150"><set attributeName="opacity" to="0" dur="1.3s" /><animate attributeName="stroke-dashoffset" from="150" to="0" dur="1.8s" begin="1.3s" fill="freeze" /></path><path d="M44.25,29c3.38-0.25,12.84-2.75,14.19-2.75s3.04-0.25,4.06,0" class="stroke" stroke-dasharray="150"><set attributeName="opacity" to="0" dur="2.5s" /><animate attributeName="stroke-dashoffset" from="150" to="0" dur="1.8s" begin="2.5s" fill="freeze" /></path><path d="M42.75,16.14c0.9,0.58,0.96,0.97,1.26,1.74c0.3,0.77-0.28,27.37-0.28,30.5c0,2.97,0.52,3.12,3.12,1.59c5.42-3.19,8.38-5.16,12.08-7.66" class="stroke" stroke-dasharray="150"><set attributeName="opacity" to="0" dur="3.4s" /><animate attributeName="stroke-dashoffset" from="150" to="0" dur="1.8s" begin="3.4s" fill="freeze" /></path><path d="M90.05,16.51C90,17.75,90,18,89.23,18.98c-3.02,3.84-8.49,6.99-18.14,10.86" class="stroke" stroke-dasharray="150"><set attributeName="opacity" to="0" dur="4.7s" /><animate attributeName="stroke-dashoffset" from="150" to="0" dur="1.8s" begin="4.7s" fill="freeze" /></path><path d="M67.85,11c1.54,0.51,1.61,1.4,1.8,2.2c0.19,0.79-0.21,23.67-0.21,26.15c0,11.59,6.36,9.98,12.88,9.98c5.06,0,9.35-0.33,11.25-2.11c1.91-1.78,1.66-3.76,1.48-6.19" class="stroke" stroke-dasharray="150"><set attributeName="opacity" to="0" dur="5.7s" /><animate attributeName="stroke-dashoffset" from="150" to="0" dur="1.8s" begin="5.7s" fill="freeze" /></path><path d="M63.05,49.75c0.5,0.63,0.58,1.41,0.46,1.96c-0.7,3.26-6.69,8.92-10.25,12.29" class="stroke" stroke-dasharray="150"><set attributeName="opacity" to="0" dur="7.2s" /><animate attributeName="stroke-dashoffset" from="150" to="0" dur="1.8s" begin="7.2s" fill="freeze" /></path><path d="M46.09,64.97c0.48,0.85,0.97,1.28,0.97,2.41c0,1.13,3.1,22.78,3.3,28.37" class="stroke" stroke-dasharray="150"><set attributeName="opacity" to="0" dur="8.1s" /><animate attributeName="stroke-dashoffset" from="150" to="0" dur="1.8s" begin="8.1s" fill="freeze" /></path><path d="M47.35,66.98c2.72-0.14,32.03-3.56,34.51-3.73c2.06-0.14,3.46,1.26,3.23,3.79c-0.58,6.46-2.58,20.21-4.01,26.9" class="stroke" stroke-dasharray="150"><set attributeName="opacity" to="0" dur="9.1s" /><animate attributeName="stroke-dashoffset" from="150" to="0" dur="1.8s" begin="9.1s" fill="freeze" /></path><path d="M49.11,79.07c3.68,0,30.06-2.16,34.22-2.16" class="stroke" stroke-dasharray="150"><set attributeName="opacity" to="0" dur="10.6s" /><animate attributeName="stroke-dashoffset" from="150" to="0" dur="1.8s" begin="10.6s" fill="freeze" /></path><path d="M50.15,93.19c5.44,0,23.94-1.88,30.98-1.88" class="stroke" stroke-dasharray="150"><set attributeName="opacity" to="0" dur="11.6s" /><animate attributeName="stroke-dashoffset" from="150" to="0" dur="1.8s" begin="11.6s" fill="freeze" /></path><text x="90" y="120" id="reset">⟳</text><text x="70" y="120" id="pause">◼</text><script type="text/javascript"><![CDATA[function RecurringTimer(e,t){var n,r,i=t;this.pause=function(){window.clearTimeout(n);i-=new Date-r};var s=function(){r=new Date;n=window.setTimeout(function(){i=t;s();e()},i)};this.clear=function(){window.clearTimeout(n);i=t;n=window.setTimeout(function(){i=t;s();e()},i)};this.resume=s;this.resume()}function invoketimer(){timer=new RecurringTimer(function(){svg.setCurrentTime(0)},13600)}var svg=document.getElementById("kanjivg");var pause=document.getElementById("pause");var reset=document.getElementById("reset");var timer;invoketimer();reset.onclick=function(){svg.setCurrentTime(0);timer.clear();svg.unpauseAnimations();pause.innerHTML = "◼";};pause.onclick=function(){if(svg.animationsPaused()){svg.unpauseAnimations();timer.resume();pause.innerHTML="◼"}else{svg.pauseAnimations();timer.pause();pause.innerHTML="▶"}}]]></script></svg>