<svg id="kanjivg" width="106" height="126" xmlns="http://www.w3.org/2000/svg" xmlns:xlink="http://www.w3.org/1999/xlink" xml:space="preserve" version="1.1" baseProfile="full"><defs><style type="text/css"><![CDATA[path.black { fill:none;stroke:black;stroke-width:5;stroke-linecap:round;stroke-linejoin:round; }path.grey { fill:none;stroke:#ddd;stroke-width:5;stroke-linecap:round;stroke-linejoin:round; }path.stroke { fill:none;stroke:black;stroke-width:5;stroke-linecap:round;stroke-linejoin:round; }rect { fill:none;stroke:#555;stroke-width:2;} text{font-size:16px;font-family:Segoe UI Symbol,Cambria Math,DejaVu Sans,Symbola,Quivira,STIX,Code2000;-webkit-touch-callout:none;cursor:pointer;-webkit-user-select:none;-khtml-user-select:none;-moz-user-select:none;-ms-user-select:none;user-select: none;} #reset { font-weight:bold; }]]></style><marker id="markerStart" markerWidth="8" markerHeight="8" style="overflow:visible;"><circle cx="0" cy="0" r="1.5" style="stroke:none;fill:red;fill-opacity:0.5;"/></marker><marker id="markerEnd" style="overflow:visible;"><circle cx="0" cy="0" r="0.8" style="stroke:none;fill:blue;fill-opacity:0.5;"><animate attributeName="opacity" from="1" to="0" dur="3s" repeatCount="indefinite" /></circle></marker></defs><rect x="4" y="4" width="100" height="100" /><path d="M29.52,18.25c0.19,1.86-0.05,4.31-0.68,5.9c-3.97,10.18-8.5,19.24-17.59,31.64" class="grey" /><path d="M22.95,42c0.54,0.88,1.22,2.35,1.22,3.79c0,12.75-0.26,29.34-0.35,40.96c-0.02,2.35-0.03,4.5-0.03,6.38" class="grey" /><path d="M56.08,26.95c1.54,0.55,2.84,0.7,4.28,0.5c8.52-1.2,17.39-2.35,23.68-2.75c2.04-0.13,3.5,1.03,2.9,2.95c-1.56,4.97-2.94,11.47-4.21,18.17" class="grey" /><path d="M52.25,38.23c2.3,0.32,4.84,0.19,7.13-0.05c8.5-0.86,21.76-2.16,31.5-2.73c2.23-0.13,4.37-0.2,6.62,0.2" class="grey" /><path d="M57.27,48.86c1.84,0.46,3.75,0.31,5.61,0.16c4.75-0.4,11.59-1.51,18.02-2.31c1.78-0.22,3.33-0.43,5.1-0.07" class="grey" /><path d="M56.5,60.42c1.49,0.62,3.44,0.53,5,0.41c6.77-0.51,16.63-1.93,23.27-2.65c1.6-0.17,3.07-0.32,4.65,0.08" class="grey" /><path d="M53.15,72.34c2.23,0.53,4.57,0.29,6.72,0.01c9.35-1.24,19.58-2.42,27.25-2.83c1.99-0.11,3.88-0.22,5.82,0.3" class="grey" /><path d="M69.55,13c0.91,0.91,1.48,2.25,1.48,3.56c0,0.68,0.08,44.52,0.11,61.32c0,3,0.01,5.14,0.01,6.01" class="grey" /><path d="M30.55,40.44c1.2,0.43,2.75,0.49,3.88,0.29c1.94-0.35,5.44-1.48,8.64-2.99c2.09-0.98,2.93-0.37,1.88,1.93c-1.94,4.26-7.08,13.58-9.87,18.26" class="grey" /><path d="M36.16,58.83c3.71-1.33,5.5-1.72,8.74-2.75c2.6-0.83,3.3,0.67,2.63,3.64C45.12,70.25,41.5,82,31,91.08" class="grey" /><path d="M32.27,70c7.48,0,19.36,14.25,47.59,23.19c4.47,1.42,7.52,2.31,12.41,3.06" class="grey" /><path d="M29.52,18.25c0.19,1.86-0.05,4.31-0.68,5.9c-3.97,10.18-8.5,19.24-17.59,31.64" class="stroke" stroke-dasharray="150"><animate attributeName="stroke-dashoffset" from="150" to="0" dur="1.8s" begin="0s" fill="freeze" /></path><path d="M22.95,42c0.54,0.88,1.22,2.35,1.22,3.79c0,12.75-0.26,29.34-0.35,40.96c-0.02,2.35-0.03,4.5-0.03,6.38" class="stroke" stroke-dasharray="150"><set attributeName="opacity" to="0" dur="1.1s" /><animate attributeName="stroke-dashoffset" from="150" to="0" dur="1.8s" begin="1.1s" fill="freeze" /></path><path d="M56.08,26.95c1.54,0.55,2.84,0.7,4.28,0.5c8.52-1.2,17.39-2.35,23.68-2.75c2.04-0.13,3.5,1.03,2.9,2.95c-1.56,4.97-2.94,11.47-4.21,18.17" class="stroke" stroke-dasharray="150"><set attributeName="opacity" to="0" dur="2.4000000000000004s" /><animate attributeName="stroke-dashoffset" from="150" to="0" dur="1.8s" begin="2.4000000000000004s" fill="freeze" /></path><path d="M52.25,38.23c2.3,0.32,4.84,0.19,7.13-0.05c8.5-0.86,21.76-2.16,31.5-2.73c2.23-0.13,4.37-0.2,6.62,0.2" class="stroke" stroke-dasharray="150"><set attributeName="opacity" to="0" dur="3.7s" /><animate attributeName="stroke-dashoffset" from="150" to="0" dur="1.8s" begin="3.7s" fill="freeze" /></path><path d="M57.27,48.86c1.84,0.46,3.75,0.31,5.61,0.16c4.75-0.4,11.59-1.51,18.02-2.31c1.78-0.22,3.33-0.43,5.1-0.07" class="stroke" stroke-dasharray="150"><set attributeName="opacity" to="0" dur="4.9s" /><animate attributeName="stroke-dashoffset" from="150" to="0" dur="1.8s" begin="4.9s" fill="freeze" /></path><path d="M56.5,60.42c1.49,0.62,3.44,0.53,5,0.41c6.77-0.51,16.63-1.93,23.27-2.65c1.6-0.17,3.07-0.32,4.65,0.08" class="stroke" stroke-dasharray="150"><set attributeName="opacity" to="0" dur="5.9s" /><animate attributeName="stroke-dashoffset" from="150" to="0" dur="1.8s" begin="5.9s" fill="freeze" /></path><path d="M53.15,72.34c2.23,0.53,4.57,0.29,6.72,0.01c9.35-1.24,19.58-2.42,27.25-2.83c1.99-0.11,3.88-0.22,5.82,0.3" class="stroke" stroke-dasharray="150"><set attributeName="opacity" to="0" dur="6.9s" /><animate attributeName="stroke-dashoffset" from="150" to="0" dur="1.8s" begin="6.9s" fill="freeze" /></path><path d="M69.55,13c0.91,0.91,1.48,2.25,1.48,3.56c0,0.68,0.08,44.52,0.11,61.32c0,3,0.01,5.14,0.01,6.01" class="stroke" stroke-dasharray="150"><set attributeName="opacity" to="0" dur="8.0s" /><animate attributeName="stroke-dashoffset" from="150" to="0" dur="1.8s" begin="8.0s" fill="freeze" /></path><path d="M30.55,40.44c1.2,0.43,2.75,0.49,3.88,0.29c1.94-0.35,5.44-1.48,8.64-2.99c2.09-0.98,2.93-0.37,1.88,1.93c-1.94,4.26-7.08,13.58-9.87,18.26" class="stroke" stroke-dasharray="150"><set attributeName="opacity" to="0" dur="9.7s" /><animate attributeName="stroke-dashoffset" from="150" to="0" dur="1.8s" begin="9.7s" fill="freeze" /></path><path d="M36.16,58.83c3.71-1.33,5.5-1.72,8.74-2.75c2.6-0.83,3.3,0.67,2.63,3.64C45.12,70.25,41.5,82,31,91.08" class="stroke" stroke-dasharray="150"><set attributeName="opacity" to="0" dur="10.7s" /><animate attributeName="stroke-dashoffset" from="150" to="0" dur="1.8s" begin="10.7s" fill="freeze" /></path><path d="M32.27,70c7.48,0,19.36,14.25,47.59,23.19c4.47,1.42,7.52,2.31,12.41,3.06" class="stroke" stroke-dasharray="150"><set attributeName="opacity" to="0" dur="12.0s" /><animate attributeName="stroke-dashoffset" from="150" to="0" dur="1.8s" begin="12.0s" fill="freeze" /></path><text x="90" y="120" id="reset">⟳</text><text x="70" y="120" id="pause">◼</text><script type="text/javascript"><![CDATA[function RecurringTimer(e,t){var n,r,i=t;this.pause=function(){window.clearTimeout(n);i-=new Date-r};var s=function(){r=new Date;n=window.setTimeout(function(){i=t;s();e()},i)};this.clear=function(){window.clearTimeout(n);i=t;n=window.setTimeout(function(){i=t;s();e()},i)};this.resume=s;this.resume()}function invoketimer(){timer=new RecurringTimer(function(){svg.setCurrentTime(0)},14500)}var svg=document.getElementById("kanjivg");var pause=document.getElementById("pause");var reset=document.getElementById("reset");var timer;invoketimer();reset.onclick=function(){svg.setCurrentTime(0);timer.clear();svg.unpauseAnimations();pause.innerHTML = "◼";};pause.onclick=function(){if(svg.animationsPaused()){svg.unpauseAnimations();timer.resume();pause.innerHTML="◼"}else{svg.pauseAnimations();timer.pause();pause.innerHTML="▶"}}]]></script></svg>