<svg id="kanjivg" width="106" height="126" xmlns="http://www.w3.org/2000/svg" xmlns:xlink="http://www.w3.org/1999/xlink" xml:space="preserve" version="1.1" baseProfile="full"><defs><style type="text/css"><![CDATA[path.black { fill:none;stroke:black;stroke-width:5;stroke-linecap:round;stroke-linejoin:round; }path.grey { fill:none;stroke:#ddd;stroke-width:5;stroke-linecap:round;stroke-linejoin:round; }path.stroke { fill:none;stroke:black;stroke-width:5;stroke-linecap:round;stroke-linejoin:round; }rect { fill:none;stroke:#555;stroke-width:2;} text{font-size:16px;font-family:Segoe UI Symbol,Cambria Math,DejaVu Sans,Symbola,Quivira,STIX,Code2000;-webkit-touch-callout:none;cursor:pointer;-webkit-user-select:none;-khtml-user-select:none;-moz-user-select:none;-ms-user-select:none;user-select: none;} #reset { font-weight:bold; }]]></style><marker id="markerStart" markerWidth="8" markerHeight="8" style="overflow:visible;"><circle cx="0" cy="0" r="1.5" style="stroke:none;fill:red;fill-opacity:0.5;"/></marker><marker id="markerEnd" style="overflow:visible;"><circle cx="0" cy="0" r="0.8" style="stroke:none;fill:blue;fill-opacity:0.5;"><animate attributeName="opacity" from="1" to="0" dur="3s" repeatCount="indefinite" /></circle></marker></defs><rect x="4" y="4" width="100" height="100" /><path d="M33.5,17.89c0.13,1.18,0.32,2.68-0.12,4.1C30.5,31.25,22.5,47.5,12.31,60.72" class="grey" /><path d="M27.28,42.25c0.98,0.98,1.26,2.47,1.26,3.73c0,10.61-0.03,31.26-0.04,43.27c0,2.73,0,5.01,0,6.62" class="grey" /><path d="M64.75,12.38c1.24,1.24,1.54,2.74,1.54,4.46c0,0.95,0.05,15.66,0.05,21.95" class="grey" /><path d="M67.54,25.08c3.04-0.48,14.71-2.7,17.09-2.89c1.62-0.13,2.68,0,3.9,0" class="grey" /><path d="M50.42,39.64c0.97,0.97,1.14,2.13,1.14,3.41c0,3.96,0.04,22.49,0.06,33.42c0.01,2.7-0.12,3.86-0.12,5.4" class="grey" /><path d="M52.49,41.42c2.84-0.25,21.92-2.4,28.26-3.15c3.32-0.39,5.45-0.21,5.4,3.48c-0.06,4.01-0.01,21.64,0.03,31.63c0.01,4,0.02,6.73,0.02,6.8" class="grey" /><path d="M52.88,52.88c5.66-0.48,27.14-2.61,32-2.77" class="grey" /><path d="M52.88,66.38c8.48-0.89,23.04-2.35,32.03-2.78" class="grey" /><path d="M52.71,79.49c9.01-0.88,23.98-1.94,32.2-2.26" class="grey" /><path d="M60.31,83.79c0.19,1.08-0.19,2.09-1.06,2.93c-2.64,2.55-9.97,7.93-15.25,11.04" class="grey" /><path d="M75.75,84.75c6.62,3.6,14.44,10.29,16.25,13.6" class="grey" /><path d="M33.5,17.89c0.13,1.18,0.32,2.68-0.12,4.1C30.5,31.25,22.5,47.5,12.31,60.72" class="stroke" stroke-dasharray="150"><animate attributeName="stroke-dashoffset" from="150" to="0" dur="1.8s" begin="0s" fill="freeze" /></path><path d="M27.28,42.25c0.98,0.98,1.26,2.47,1.26,3.73c0,10.61-0.03,31.26-0.04,43.27c0,2.73,0,5.01,0,6.62" class="stroke" stroke-dasharray="150"><set attributeName="opacity" to="0" dur="1.2s" /><animate attributeName="stroke-dashoffset" from="150" to="0" dur="1.8s" begin="1.2s" fill="freeze" /></path><path d="M64.75,12.38c1.24,1.24,1.54,2.74,1.54,4.46c0,0.95,0.05,15.66,0.05,21.95" class="stroke" stroke-dasharray="150"><set attributeName="opacity" to="0" dur="2.5s" /><animate attributeName="stroke-dashoffset" from="150" to="0" dur="1.8s" begin="2.5s" fill="freeze" /></path><path d="M67.54,25.08c3.04-0.48,14.71-2.7,17.09-2.89c1.62-0.13,2.68,0,3.9,0" class="stroke" stroke-dasharray="150"><set attributeName="opacity" to="0" dur="3.5s" /><animate attributeName="stroke-dashoffset" from="150" to="0" dur="1.8s" begin="3.5s" fill="freeze" /></path><path d="M50.42,39.64c0.97,0.97,1.14,2.13,1.14,3.41c0,3.96,0.04,22.49,0.06,33.42c0.01,2.7-0.12,3.86-0.12,5.4" class="stroke" stroke-dasharray="150"><set attributeName="opacity" to="0" dur="4.5s" /><animate attributeName="stroke-dashoffset" from="150" to="0" dur="1.8s" begin="4.5s" fill="freeze" /></path><path d="M52.49,41.42c2.84-0.25,21.92-2.4,28.26-3.15c3.32-0.39,5.45-0.21,5.4,3.48c-0.06,4.01-0.01,21.64,0.03,31.63c0.01,4,0.02,6.73,0.02,6.8" class="stroke" stroke-dasharray="150"><set attributeName="opacity" to="0" dur="5.6s" /><animate attributeName="stroke-dashoffset" from="150" to="0" dur="1.8s" begin="5.6s" fill="freeze" /></path><path d="M52.88,52.88c5.66-0.48,27.14-2.61,32-2.77" class="stroke" stroke-dasharray="150"><set attributeName="opacity" to="0" dur="7.3s" /><animate attributeName="stroke-dashoffset" from="150" to="0" dur="1.8s" begin="7.3s" fill="freeze" /></path><path d="M52.88,66.38c8.48-0.89,23.04-2.35,32.03-2.78" class="stroke" stroke-dasharray="150"><set attributeName="opacity" to="0" dur="8.3s" /><animate attributeName="stroke-dashoffset" from="150" to="0" dur="1.8s" begin="8.3s" fill="freeze" /></path><path d="M52.71,79.49c9.01-0.88,23.98-1.94,32.2-2.26" class="stroke" stroke-dasharray="150"><set attributeName="opacity" to="0" dur="9.3s" /><animate attributeName="stroke-dashoffset" from="150" to="0" dur="1.8s" begin="9.3s" fill="freeze" /></path><path d="M60.31,83.79c0.19,1.08-0.19,2.09-1.06,2.93c-2.64,2.55-9.97,7.93-15.25,11.04" class="stroke" stroke-dasharray="150"><set attributeName="opacity" to="0" dur="10.3s" /><animate attributeName="stroke-dashoffset" from="150" to="0" dur="1.8s" begin="10.3s" fill="freeze" /></path><path d="M75.75,84.75c6.62,3.6,14.44,10.29,16.25,13.6" class="stroke" stroke-dasharray="150"><set attributeName="opacity" to="0" dur="11.3s" /><animate attributeName="stroke-dashoffset" from="150" to="0" dur="1.8s" begin="11.3s" fill="freeze" /></path><text x="90" y="120" id="reset">⟳</text><text x="70" y="120" id="pause">◼</text><script type="text/javascript"><![CDATA[function RecurringTimer(e,t){var n,r,i=t;this.pause=function(){window.clearTimeout(n);i-=new Date-r};var s=function(){r=new Date;n=window.setTimeout(function(){i=t;s();e()},i)};this.clear=function(){window.clearTimeout(n);i=t;n=window.setTimeout(function(){i=t;s();e()},i)};this.resume=s;this.resume()}function invoketimer(){timer=new RecurringTimer(function(){svg.setCurrentTime(0)},13300)}var svg=document.getElementById("kanjivg");var pause=document.getElementById("pause");var reset=document.getElementById("reset");var timer;invoketimer();reset.onclick=function(){svg.setCurrentTime(0);timer.clear();svg.unpauseAnimations();pause.innerHTML = "◼";};pause.onclick=function(){if(svg.animationsPaused()){svg.unpauseAnimations();timer.resume();pause.innerHTML="◼"}else{svg.pauseAnimations();timer.pause();pause.innerHTML="▶"}}]]></script></svg>