<svg id="kanjivg" width="106" height="126" xmlns="http://www.w3.org/2000/svg" xmlns:xlink="http://www.w3.org/1999/xlink" xml:space="preserve" version="1.1" baseProfile="full"><defs><style type="text/css"><![CDATA[path.black { fill:none;stroke:black;stroke-width:5;stroke-linecap:round;stroke-linejoin:round; }path.grey { fill:none;stroke:#ddd;stroke-width:5;stroke-linecap:round;stroke-linejoin:round; }path.stroke { fill:none;stroke:black;stroke-width:5;stroke-linecap:round;stroke-linejoin:round; }rect { fill:none;stroke:#555;stroke-width:2;} text{font-size:16px;font-family:Segoe UI Symbol,Cambria Math,DejaVu Sans,Symbola,Quivira,STIX,Code2000;-webkit-touch-callout:none;cursor:pointer;-webkit-user-select:none;-khtml-user-select:none;-moz-user-select:none;-ms-user-select:none;user-select: none;} #reset { font-weight:bold; }]]></style><marker id="markerStart" markerWidth="8" markerHeight="8" style="overflow:visible;"><circle cx="0" cy="0" r="1.5" style="stroke:none;fill:red;fill-opacity:0.5;"/></marker><marker id="markerEnd" style="overflow:visible;"><circle cx="0" cy="0" r="0.8" style="stroke:none;fill:blue;fill-opacity:0.5;"><animate attributeName="opacity" from="1" to="0" dur="3s" repeatCount="indefinite" /></circle></marker></defs><rect x="4" y="4" width="100" height="100" /><path d="M29.52,15c0.2,1.98-0.06,3.56-0.69,5.25C24.75,31.04,19.34,42.16,10,55.29" class="grey" /><path d="M23.45,37.25c0.96,0.96,1.4,2.35,1.4,3.86c0,14.3,0.07,35,0.09,47.64c0.01,2.96,0.01,5.51,0.01,7.5" class="grey" /><path d="M43.42,18.93c0.89,0.89,1.68,1.92,1.95,3.15c1.09,5.05,2.71,13.7,3.69,19.38c0.49,2.8,0.82,4.88,0.87,5.44" class="grey" /><path d="M45.02,20.12c16.06-2.68,29.71-4.1,38.54-4.65c2.78-0.17,4.28,0.97,4.05,3.95c-0.31,4.03-1.62,11.34-3,19.12c-0.28,1.57-0.56,3.15-0.83,4.74" class="grey" /><path d="M48.45,32.2c14.05-1.82,31.67-3.82,37.4-4.06" class="grey" /><path d="M50.83,44.24c10.38-1.19,20.92-2.74,32.29-3.37" class="grey" /><path d="M38.38,55.34c1.2,1.2,1.71,2.58,1.91,3.81c1.11,6.71,2.26,20.24,3.12,29.34c0.27,2.91,0.52,5.37,0.72,7.01" class="grey" /><path d="M40.99,58.23c7.39-0.96,45.01-4.86,49.42-5.31c3.18-0.32,5.17,1.76,5.06,3.88c-0.27,5.13-3.36,27.11-5.67,33.67c-2.3,6.52-3.17,5-5.92-0.06" class="grey" /><path d="M64.27,19.48c0.81,0.81,1.4,1.75,1.4,3.3c-0.01,6.8-0.04,49.88-0.04,51.97" class="grey" /><path d="M51.79,78.2c1.21,1.18,2.57,0.88,3.86,0.45c3.63-1.21,14.98-5.15,23.63-7.95" class="grey" /><path d="M75.5,64c3.17,2.49,8.18,10.24,8.97,14.12" class="grey" /><path d="M29.52,15c0.2,1.98-0.06,3.56-0.69,5.25C24.75,31.04,19.34,42.16,10,55.29" class="stroke" stroke-dasharray="150"><animate attributeName="stroke-dashoffset" from="150" to="0" dur="1.8s" begin="0s" fill="freeze" /></path><path d="M23.45,37.25c0.96,0.96,1.4,2.35,1.4,3.86c0,14.3,0.07,35,0.09,47.64c0.01,2.96,0.01,5.51,0.01,7.5" class="stroke" stroke-dasharray="150"><set attributeName="opacity" to="0" dur="1.2s" /><animate attributeName="stroke-dashoffset" from="150" to="0" dur="1.8s" begin="1.2s" fill="freeze" /></path><path d="M43.42,18.93c0.89,0.89,1.68,1.92,1.95,3.15c1.09,5.05,2.71,13.7,3.69,19.38c0.49,2.8,0.82,4.88,0.87,5.44" class="stroke" stroke-dasharray="150"><set attributeName="opacity" to="0" dur="2.5999999999999996s" /><animate attributeName="stroke-dashoffset" from="150" to="0" dur="1.8s" begin="2.5999999999999996s" fill="freeze" /></path><path d="M45.02,20.12c16.06-2.68,29.71-4.1,38.54-4.65c2.78-0.17,4.28,0.97,4.05,3.95c-0.31,4.03-1.62,11.34-3,19.12c-0.28,1.57-0.56,3.15-0.83,4.74" class="stroke" stroke-dasharray="150"><set attributeName="opacity" to="0" dur="3.5999999999999996s" /><animate attributeName="stroke-dashoffset" from="150" to="0" dur="1.8s" begin="3.5999999999999996s" fill="freeze" /></path><path d="M48.45,32.2c14.05-1.82,31.67-3.82,37.4-4.06" class="stroke" stroke-dasharray="150"><set attributeName="opacity" to="0" dur="5.1s" /><animate attributeName="stroke-dashoffset" from="150" to="0" dur="1.8s" begin="5.1s" fill="freeze" /></path><path d="M50.83,44.24c10.38-1.19,20.92-2.74,32.29-3.37" class="stroke" stroke-dasharray="150"><set attributeName="opacity" to="0" dur="6.1s" /><animate attributeName="stroke-dashoffset" from="150" to="0" dur="1.8s" begin="6.1s" fill="freeze" /></path><path d="M38.38,55.34c1.2,1.2,1.71,2.58,1.91,3.81c1.11,6.71,2.26,20.24,3.12,29.34c0.27,2.91,0.52,5.37,0.72,7.01" class="stroke" stroke-dasharray="150"><set attributeName="opacity" to="0" dur="7.1s" /><animate attributeName="stroke-dashoffset" from="150" to="0" dur="1.8s" begin="7.1s" fill="freeze" /></path><path d="M40.99,58.23c7.39-0.96,45.01-4.86,49.42-5.31c3.18-0.32,5.17,1.76,5.06,3.88c-0.27,5.13-3.36,27.11-5.67,33.67c-2.3,6.52-3.17,5-5.92-0.06" class="stroke" stroke-dasharray="150"><set attributeName="opacity" to="0" dur="8.2s" /><animate attributeName="stroke-dashoffset" from="150" to="0" dur="1.8s" begin="8.2s" fill="freeze" /></path><path d="M64.27,19.48c0.81,0.81,1.4,1.75,1.4,3.3c-0.01,6.8-0.04,49.88-0.04,51.97" class="stroke" stroke-dasharray="150"><set attributeName="opacity" to="0" dur="10.1s" /><animate attributeName="stroke-dashoffset" from="150" to="0" dur="1.8s" begin="10.1s" fill="freeze" /></path><path d="M51.79,78.2c1.21,1.18,2.57,0.88,3.86,0.45c3.63-1.21,14.98-5.15,23.63-7.95" class="stroke" stroke-dasharray="150"><set attributeName="opacity" to="0" dur="11.5s" /><animate attributeName="stroke-dashoffset" from="150" to="0" dur="1.8s" begin="11.5s" fill="freeze" /></path><path d="M75.5,64c3.17,2.49,8.18,10.24,8.97,14.12" class="stroke" stroke-dasharray="150"><set attributeName="opacity" to="0" dur="12.5s" /><animate attributeName="stroke-dashoffset" from="150" to="0" dur="1.8s" begin="12.5s" fill="freeze" /></path><text x="90" y="120" id="reset">⟳</text><text x="70" y="120" id="pause">◼</text><script type="text/javascript"><![CDATA[function RecurringTimer(e,t){var n,r,i=t;this.pause=function(){window.clearTimeout(n);i-=new Date-r};var s=function(){r=new Date;n=window.setTimeout(function(){i=t;s();e()},i)};this.clear=function(){window.clearTimeout(n);i=t;n=window.setTimeout(function(){i=t;s();e()},i)};this.resume=s;this.resume()}function invoketimer(){timer=new RecurringTimer(function(){svg.setCurrentTime(0)},14400)}var svg=document.getElementById("kanjivg");var pause=document.getElementById("pause");var reset=document.getElementById("reset");var timer;invoketimer();reset.onclick=function(){svg.setCurrentTime(0);timer.clear();svg.unpauseAnimations();pause.innerHTML = "◼";};pause.onclick=function(){if(svg.animationsPaused()){svg.unpauseAnimations();timer.resume();pause.innerHTML="◼"}else{svg.pauseAnimations();timer.pause();pause.innerHTML="▶"}}]]></script></svg>