<svg id="kanjivg" width="106" height="126" xmlns="http://www.w3.org/2000/svg" xmlns:xlink="http://www.w3.org/1999/xlink" xml:space="preserve" version="1.1" baseProfile="full"><defs><style type="text/css"><![CDATA[path.black { fill:none;stroke:black;stroke-width:5;stroke-linecap:round;stroke-linejoin:round; }path.grey { fill:none;stroke:#ddd;stroke-width:5;stroke-linecap:round;stroke-linejoin:round; }path.stroke { fill:none;stroke:black;stroke-width:5;stroke-linecap:round;stroke-linejoin:round; }rect { fill:none;stroke:#555;stroke-width:2;} text{font-size:16px;font-family:Segoe UI Symbol,Cambria Math,DejaVu Sans,Symbola,Quivira,STIX,Code2000;-webkit-touch-callout:none;cursor:pointer;-webkit-user-select:none;-khtml-user-select:none;-moz-user-select:none;-ms-user-select:none;user-select: none;} #reset { font-weight:bold; }]]></style><marker id="markerStart" markerWidth="8" markerHeight="8" style="overflow:visible;"><circle cx="0" cy="0" r="1.5" style="stroke:none;fill:red;fill-opacity:0.5;"/></marker><marker id="markerEnd" style="overflow:visible;"><circle cx="0" cy="0" r="0.8" style="stroke:none;fill:blue;fill-opacity:0.5;"><animate attributeName="opacity" from="1" to="0" dur="3s" repeatCount="indefinite" /></circle></marker></defs><rect x="4" y="4" width="100" height="100" /><path d="M33.25,17.39c0.13,1.18,0.23,2.65-0.12,4.1c-2.19,9.15-10.64,26.83-20.82,39.22" class="grey" /><path d="M27.53,43c0.59,0.61,0.76,1.97,0.76,3.23c0,13.02-0.29,40.15-0.29,48.9" class="grey" /><path d="M68.29,25.33c3.04-0.48,15.22-3.14,16.84-3.14s2.43,0,3.65,0" class="grey" /><path d="M64.5,12.88c0.62,0.47,1.92,3.52,2.04,4.46c0.12,0.94-0.08,15.83-0.2,21.7" class="grey" /><path d="M50.17,39.89c0.56,0.94,1.39,1.63,1.39,2.91c0,1.29,0.26,33.81-0.41,39.22" class="grey" /><path d="M52.49,41.42c3.19-0.28,27.54-3.28,30.45-3.59c2.43-0.25,3.72,0.74,3.72,1.94c0,2.94-0.72,39.44-0.72,40.41" class="grey" /><path d="M52.11,53.54c5.74-0.57,11.47-1.25,17.2-1.87c1.76-0.19,3.52-0.38,5.2-0.55" class="grey" /><path d="M51.88,66.7c5.61-0.66,12.21-1.37,17.81-2.01c1.55-0.18,3.1-0.35,4.63-0.51" class="grey" /><path d="M51.46,79.99c9.01-0.88,26.23-2.94,34.45-3.26" class="grey" /><path d="M60.06,83.54c0.44,1.09,0.06,2.34-0.81,3.18c-2.64,2.55-9.97,7.93-15.25,11.04" class="grey" /><path d="M75.79,85.37c6.71,3.44,14.63,9.82,16.46,12.98" class="grey" /><path d="M33.25,17.39c0.13,1.18,0.23,2.65-0.12,4.1c-2.19,9.15-10.64,26.83-20.82,39.22" class="stroke" stroke-dasharray="150"><animate attributeName="stroke-dashoffset" from="150" to="0" dur="1.8s" begin="0s" fill="freeze" /></path><path d="M27.53,43c0.59,0.61,0.76,1.97,0.76,3.23c0,13.02-0.29,40.15-0.29,48.9" class="stroke" stroke-dasharray="150"><set attributeName="opacity" to="0" dur="1.2s" /><animate attributeName="stroke-dashoffset" from="150" to="0" dur="1.8s" begin="1.2s" fill="freeze" /></path><path d="M68.29,25.33c3.04-0.48,15.22-3.14,16.84-3.14s2.43,0,3.65,0" class="stroke" stroke-dasharray="150"><set attributeName="opacity" to="0" dur="2.5s" /><animate attributeName="stroke-dashoffset" from="150" to="0" dur="1.8s" begin="2.5s" fill="freeze" /></path><path d="M64.5,12.88c0.62,0.47,1.92,3.52,2.04,4.46c0.12,0.94-0.08,15.83-0.2,21.7" class="stroke" stroke-dasharray="150"><set attributeName="opacity" to="0" dur="3.5s" /><animate attributeName="stroke-dashoffset" from="150" to="0" dur="1.8s" begin="3.5s" fill="freeze" /></path><path d="M50.17,39.89c0.56,0.94,1.39,1.63,1.39,2.91c0,1.29,0.26,33.81-0.41,39.22" class="stroke" stroke-dasharray="150"><set attributeName="opacity" to="0" dur="4.5s" /><animate attributeName="stroke-dashoffset" from="150" to="0" dur="1.8s" begin="4.5s" fill="freeze" /></path><path d="M52.49,41.42c3.19-0.28,27.54-3.28,30.45-3.59c2.43-0.25,3.72,0.74,3.72,1.94c0,2.94-0.72,39.44-0.72,40.41" class="stroke" stroke-dasharray="150"><set attributeName="opacity" to="0" dur="5.6s" /><animate attributeName="stroke-dashoffset" from="150" to="0" dur="1.8s" begin="5.6s" fill="freeze" /></path><path d="M52.11,53.54c5.74-0.57,11.47-1.25,17.2-1.87c1.76-0.19,3.52-0.38,5.2-0.55" class="stroke" stroke-dasharray="150"><set attributeName="opacity" to="0" dur="7.3s" /><animate attributeName="stroke-dashoffset" from="150" to="0" dur="1.8s" begin="7.3s" fill="freeze" /></path><path d="M51.88,66.7c5.61-0.66,12.21-1.37,17.81-2.01c1.55-0.18,3.1-0.35,4.63-0.51" class="stroke" stroke-dasharray="150"><set attributeName="opacity" to="0" dur="8.3s" /><animate attributeName="stroke-dashoffset" from="150" to="0" dur="1.8s" begin="8.3s" fill="freeze" /></path><path d="M51.46,79.99c9.01-0.88,26.23-2.94,34.45-3.26" class="stroke" stroke-dasharray="150"><set attributeName="opacity" to="0" dur="9.3s" /><animate attributeName="stroke-dashoffset" from="150" to="0" dur="1.8s" begin="9.3s" fill="freeze" /></path><path d="M60.06,83.54c0.44,1.09,0.06,2.34-0.81,3.18c-2.64,2.55-9.97,7.93-15.25,11.04" class="stroke" stroke-dasharray="150"><set attributeName="opacity" to="0" dur="10.3s" /><animate attributeName="stroke-dashoffset" from="150" to="0" dur="1.8s" begin="10.3s" fill="freeze" /></path><path d="M75.79,85.37c6.71,3.44,14.63,9.82,16.46,12.98" class="stroke" stroke-dasharray="150"><set attributeName="opacity" to="0" dur="11.3s" /><animate attributeName="stroke-dashoffset" from="150" to="0" dur="1.8s" begin="11.3s" fill="freeze" /></path><text x="90" y="120" id="reset">⟳</text><text x="70" y="120" id="pause">◼</text><script type="text/javascript"><![CDATA[function RecurringTimer(e,t){var n,r,i=t;this.pause=function(){window.clearTimeout(n);i-=new Date-r};var s=function(){r=new Date;n=window.setTimeout(function(){i=t;s();e()},i)};this.clear=function(){window.clearTimeout(n);i=t;n=window.setTimeout(function(){i=t;s();e()},i)};this.resume=s;this.resume()}function invoketimer(){timer=new RecurringTimer(function(){svg.setCurrentTime(0)},13300)}var svg=document.getElementById("kanjivg");var pause=document.getElementById("pause");var reset=document.getElementById("reset");var timer;invoketimer();reset.onclick=function(){svg.setCurrentTime(0);timer.clear();svg.unpauseAnimations();pause.innerHTML = "◼";};pause.onclick=function(){if(svg.animationsPaused()){svg.unpauseAnimations();timer.resume();pause.innerHTML="◼"}else{svg.pauseAnimations();timer.pause();pause.innerHTML="▶"}}]]></script></svg>