<svg id="kanjivg" width="106" height="126" xmlns="http://www.w3.org/2000/svg" xmlns:xlink="http://www.w3.org/1999/xlink" xml:space="preserve" version="1.1" baseProfile="full"><defs><style type="text/css"><![CDATA[path.black { fill:none;stroke:black;stroke-width:5;stroke-linecap:round;stroke-linejoin:round; }path.grey { fill:none;stroke:#ddd;stroke-width:5;stroke-linecap:round;stroke-linejoin:round; }path.stroke { fill:none;stroke:black;stroke-width:5;stroke-linecap:round;stroke-linejoin:round; }rect { fill:none;stroke:#555;stroke-width:2;} text{font-size:16px;font-family:Segoe UI Symbol,Cambria Math,DejaVu Sans,Symbola,Quivira,STIX,Code2000;-webkit-touch-callout:none;cursor:pointer;-webkit-user-select:none;-khtml-user-select:none;-moz-user-select:none;-ms-user-select:none;user-select: none;} #reset { font-weight:bold; }]]></style><marker id="markerStart" markerWidth="8" markerHeight="8" style="overflow:visible;"><circle cx="0" cy="0" r="1.5" style="stroke:none;fill:red;fill-opacity:0.5;"/></marker><marker id="markerEnd" style="overflow:visible;"><circle cx="0" cy="0" r="0.8" style="stroke:none;fill:blue;fill-opacity:0.5;"><animate attributeName="opacity" from="1" to="0" dur="3s" repeatCount="indefinite" /></circle></marker></defs><rect x="4" y="4" width="100" height="100" /><path d="M34.67,14.75c0.15,1.16,0.26,2.61-0.13,4.03c-2.5,8.99-12.15,26.36-23.79,38.55" class="grey" /><path d="M26.19,39.86c0.64,0.66,0.82,2.14,0.82,3.51c0,14.15-0.32,43.61-0.32,53.12" class="grey" /><path d="M44.63,20.69c0.3,0.53,0.69,1.4,0.85,2.05c1.34,5.36,4.54,23.88,5.33,33.76" class="grey" /><path d="M45.66,22.53c14.26-1.95,32.09-4.53,40.02-5.05c2.91-0.19,3.63,2.9,3.47,4.34c-0.58,5.27-2.91,21.44-5.45,31.25" class="grey" /><path d="M65.96,21.34c0.38,0.77,0.72,1.99,0.71,3.33c-0.06,7.41,0.05,24.5,0.05,26.7" class="grey" /><path d="M49.15,37.76c8.59-0.64,17.16-2.01,25.72-3.01c1.03-0.12,2.04-0.24,3-0.35" class="grey" /><path d="M51.98,53.68c8.26-1.43,24.8-3.09,32.32-3.52" class="grey" /><path d="M41.19,74.04c0.23,2.21-2.25,11.95-4.05,15.62" class="grey" /><path d="M48.78,70.67C54.75,84,66.25,94.75,87.09,94.82c7.24,0.03,6.81-2.4,2.59-6.96" class="grey" /><path d="M64.13,67.75c1.98,3.55,6.09,9.63,7.33,4.62" class="grey" /><path d="M85.8,64.5c4.95,4,8.95,7.5,11.95,13.72" class="grey" /><path d="M34.67,14.75c0.15,1.16,0.26,2.61-0.13,4.03c-2.5,8.99-12.15,26.36-23.79,38.55" class="stroke" stroke-dasharray="150"><animate attributeName="stroke-dashoffset" from="150" to="0" dur="1.8s" begin="0s" fill="freeze" /></path><path d="M26.19,39.86c0.64,0.66,0.82,2.14,0.82,3.51c0,14.15-0.32,43.61-0.32,53.12" class="stroke" stroke-dasharray="150"><set attributeName="opacity" to="0" dur="1.2s" /><animate attributeName="stroke-dashoffset" from="150" to="0" dur="1.8s" begin="1.2s" fill="freeze" /></path><path d="M44.63,20.69c0.3,0.53,0.69,1.4,0.85,2.05c1.34,5.36,4.54,23.88,5.33,33.76" class="stroke" stroke-dasharray="150"><set attributeName="opacity" to="0" dur="2.5999999999999996s" /><animate attributeName="stroke-dashoffset" from="150" to="0" dur="1.8s" begin="2.5999999999999996s" fill="freeze" /></path><path d="M45.66,22.53c14.26-1.95,32.09-4.53,40.02-5.05c2.91-0.19,3.63,2.9,3.47,4.34c-0.58,5.27-2.91,21.44-5.45,31.25" class="stroke" stroke-dasharray="150"><set attributeName="opacity" to="0" dur="3.5999999999999996s" /><animate attributeName="stroke-dashoffset" from="150" to="0" dur="1.8s" begin="3.5999999999999996s" fill="freeze" /></path><path d="M65.96,21.34c0.38,0.77,0.72,1.99,0.71,3.33c-0.06,7.41,0.05,24.5,0.05,26.7" class="stroke" stroke-dasharray="150"><set attributeName="opacity" to="0" dur="5.3s" /><animate attributeName="stroke-dashoffset" from="150" to="0" dur="1.8s" begin="5.3s" fill="freeze" /></path><path d="M49.15,37.76c8.59-0.64,17.16-2.01,25.72-3.01c1.03-0.12,2.04-0.24,3-0.35" class="stroke" stroke-dasharray="150"><set attributeName="opacity" to="0" dur="6.3s" /><animate attributeName="stroke-dashoffset" from="150" to="0" dur="1.8s" begin="6.3s" fill="freeze" /></path><path d="M51.98,53.68c8.26-1.43,24.8-3.09,32.32-3.52" class="stroke" stroke-dasharray="150"><set attributeName="opacity" to="0" dur="7.3s" /><animate attributeName="stroke-dashoffset" from="150" to="0" dur="1.8s" begin="7.3s" fill="freeze" /></path><path d="M41.19,74.04c0.23,2.21-2.25,11.95-4.05,15.62" class="stroke" stroke-dasharray="150"><set attributeName="opacity" to="0" dur="8.3s" /><animate attributeName="stroke-dashoffset" from="150" to="0" dur="1.8s" begin="8.3s" fill="freeze" /></path><path d="M48.78,70.67C54.75,84,66.25,94.75,87.09,94.82c7.24,0.03,6.81-2.4,2.59-6.96" class="stroke" stroke-dasharray="150"><set attributeName="opacity" to="0" dur="9.200000000000001s" /><animate attributeName="stroke-dashoffset" from="150" to="0" dur="1.8s" begin="9.200000000000001s" fill="freeze" /></path><path d="M64.13,67.75c1.98,3.55,6.09,9.63,7.33,4.62" class="stroke" stroke-dasharray="150"><set attributeName="opacity" to="0" dur="10.700000000000001s" /><animate attributeName="stroke-dashoffset" from="150" to="0" dur="1.8s" begin="10.700000000000001s" fill="freeze" /></path><path d="M85.8,64.5c4.95,4,8.95,7.5,11.95,13.72" class="stroke" stroke-dasharray="150"><set attributeName="opacity" to="0" dur="11.600000000000001s" /><animate attributeName="stroke-dashoffset" from="150" to="0" dur="1.8s" begin="11.600000000000001s" fill="freeze" /></path><text x="90" y="120" id="reset">⟳</text><text x="70" y="120" id="pause">◼</text><script type="text/javascript"><![CDATA[function RecurringTimer(e,t){var n,r,i=t;this.pause=function(){window.clearTimeout(n);i-=new Date-r};var s=function(){r=new Date;n=window.setTimeout(function(){i=t;s();e()},i)};this.clear=function(){window.clearTimeout(n);i=t;n=window.setTimeout(function(){i=t;s();e()},i)};this.resume=s;this.resume()}function invoketimer(){timer=new RecurringTimer(function(){svg.setCurrentTime(0)},13500)}var svg=document.getElementById("kanjivg");var pause=document.getElementById("pause");var reset=document.getElementById("reset");var timer;invoketimer();reset.onclick=function(){svg.setCurrentTime(0);timer.clear();svg.unpauseAnimations();pause.innerHTML = "◼";};pause.onclick=function(){if(svg.animationsPaused()){svg.unpauseAnimations();timer.resume();pause.innerHTML="◼"}else{svg.pauseAnimations();timer.pause();pause.innerHTML="▶"}}]]></script></svg>