<svg id="kanjivg" width="106" height="126" xmlns="http://www.w3.org/2000/svg" xmlns:xlink="http://www.w3.org/1999/xlink" xml:space="preserve" version="1.1" baseProfile="full"><defs><style type="text/css"><![CDATA[path.black { fill:none;stroke:black;stroke-width:5;stroke-linecap:round;stroke-linejoin:round; }path.grey { fill:none;stroke:#ddd;stroke-width:5;stroke-linecap:round;stroke-linejoin:round; }path.stroke { fill:none;stroke:black;stroke-width:5;stroke-linecap:round;stroke-linejoin:round; }rect { fill:none;stroke:#555;stroke-width:2;} text{font-size:16px;font-family:Segoe UI Symbol,Cambria Math,DejaVu Sans,Symbola,Quivira,STIX,Code2000;-webkit-touch-callout:none;cursor:pointer;-webkit-user-select:none;-khtml-user-select:none;-moz-user-select:none;-ms-user-select:none;user-select: none;} #reset { font-weight:bold; }]]></style><marker id="markerStart" markerWidth="8" markerHeight="8" style="overflow:visible;"><circle cx="0" cy="0" r="1.5" style="stroke:none;fill:red;fill-opacity:0.5;"/></marker><marker id="markerEnd" style="overflow:visible;"><circle cx="0" cy="0" r="0.8" style="stroke:none;fill:blue;fill-opacity:0.5;"><animate attributeName="opacity" from="1" to="0" dur="3s" repeatCount="indefinite" /></circle></marker></defs><rect x="4" y="4" width="100" height="100" /><path d="M34.92,14.75c0.15,1.16,0.16,2.66-0.38,4.03C31,27.75,22.38,44.12,10.75,57.32" class="grey" /><path d="M26.19,40.61c0.85,0.85,1.07,1.77,1.07,3.76c0,10.98-0.01,30.25-0.01,43.39c0,3.32,0,6.23,0,8.5" class="grey" /><path d="M44.13,20.94c0.96,0.96,1.44,2.23,1.67,3.43c1.45,7.76,3.8,22.92,5.01,32.88" class="grey" /><path d="M46.66,22.28c13.86-2.19,28.27-4.19,36.72-4.88c3.14-0.26,6.21,0.45,5.77,4.42c-0.48,4.36-1.98,16.17-3.93,25.68c-0.41,1.99-0.83,3.87-1.27,5.57" class="grey" /><path d="M65.71,21.84c0.91,0.91,0.97,1.99,0.96,3.33c-0.06,7.41,0.05,23,0.05,25.2" class="grey" /><path d="M49.15,37.76c6.35-0.76,27.98-3.88,37.37-4.3" class="grey" /><path d="M51.73,53.68c8.26-1.43,24.3-3.09,31.82-3.52" class="grey" /><path d="M41.69,74.54c0.27,2.13-2.67,11.56-4.8,15.12" class="grey" /><path d="M49.03,70.67c7.47,13.2,17.47,24.4,37.57,24.4c7.24,0,6.56-2.9,2.34-7.46" class="grey" /><path d="M63.88,67.5c1.98,3.55,6.09,9.13,7.33,4.12" class="grey" /><path d="M85.55,64.75c4.95,4,8.95,7.5,11.95,13.72" class="grey" /><path d="M34.92,14.75c0.15,1.16,0.16,2.66-0.38,4.03C31,27.75,22.38,44.12,10.75,57.32" class="stroke" stroke-dasharray="150"><animate attributeName="stroke-dashoffset" from="150" to="0" dur="1.8s" begin="0s" fill="freeze" /></path><path d="M26.19,40.61c0.85,0.85,1.07,1.77,1.07,3.76c0,10.98-0.01,30.25-0.01,43.39c0,3.32,0,6.23,0,8.5" class="stroke" stroke-dasharray="150"><set attributeName="opacity" to="0" dur="1.2s" /><animate attributeName="stroke-dashoffset" from="150" to="0" dur="1.8s" begin="1.2s" fill="freeze" /></path><path d="M44.13,20.94c0.96,0.96,1.44,2.23,1.67,3.43c1.45,7.76,3.8,22.92,5.01,32.88" class="stroke" stroke-dasharray="150"><set attributeName="opacity" to="0" dur="2.5999999999999996s" /><animate attributeName="stroke-dashoffset" from="150" to="0" dur="1.8s" begin="2.5999999999999996s" fill="freeze" /></path><path d="M46.66,22.28c13.86-2.19,28.27-4.19,36.72-4.88c3.14-0.26,6.21,0.45,5.77,4.42c-0.48,4.36-1.98,16.17-3.93,25.68c-0.41,1.99-0.83,3.87-1.27,5.57" class="stroke" stroke-dasharray="150"><set attributeName="opacity" to="0" dur="3.5999999999999996s" /><animate attributeName="stroke-dashoffset" from="150" to="0" dur="1.8s" begin="3.5999999999999996s" fill="freeze" /></path><path d="M65.71,21.84c0.91,0.91,0.97,1.99,0.96,3.33c-0.06,7.41,0.05,23,0.05,25.2" class="stroke" stroke-dasharray="150"><set attributeName="opacity" to="0" dur="5.3s" /><animate attributeName="stroke-dashoffset" from="150" to="0" dur="1.8s" begin="5.3s" fill="freeze" /></path><path d="M49.15,37.76c6.35-0.76,27.98-3.88,37.37-4.3" class="stroke" stroke-dasharray="150"><set attributeName="opacity" to="0" dur="6.3s" /><animate attributeName="stroke-dashoffset" from="150" to="0" dur="1.8s" begin="6.3s" fill="freeze" /></path><path d="M51.73,53.68c8.26-1.43,24.3-3.09,31.82-3.52" class="stroke" stroke-dasharray="150"><set attributeName="opacity" to="0" dur="7.3s" /><animate attributeName="stroke-dashoffset" from="150" to="0" dur="1.8s" begin="7.3s" fill="freeze" /></path><path d="M41.69,74.54c0.27,2.13-2.67,11.56-4.8,15.12" class="stroke" stroke-dasharray="150"><set attributeName="opacity" to="0" dur="8.3s" /><animate attributeName="stroke-dashoffset" from="150" to="0" dur="1.8s" begin="8.3s" fill="freeze" /></path><path d="M49.03,70.67c7.47,13.2,17.47,24.4,37.57,24.4c7.24,0,6.56-2.9,2.34-7.46" class="stroke" stroke-dasharray="150"><set attributeName="opacity" to="0" dur="9.200000000000001s" /><animate attributeName="stroke-dashoffset" from="150" to="0" dur="1.8s" begin="9.200000000000001s" fill="freeze" /></path><path d="M63.88,67.5c1.98,3.55,6.09,9.13,7.33,4.12" class="stroke" stroke-dasharray="150"><set attributeName="opacity" to="0" dur="10.700000000000001s" /><animate attributeName="stroke-dashoffset" from="150" to="0" dur="1.8s" begin="10.700000000000001s" fill="freeze" /></path><path d="M85.55,64.75c4.95,4,8.95,7.5,11.95,13.72" class="stroke" stroke-dasharray="150"><set attributeName="opacity" to="0" dur="11.600000000000001s" /><animate attributeName="stroke-dashoffset" from="150" to="0" dur="1.8s" begin="11.600000000000001s" fill="freeze" /></path><text x="90" y="120" id="reset">⟳</text><text x="70" y="120" id="pause">◼</text><script type="text/javascript"><![CDATA[function RecurringTimer(e,t){var n,r,i=t;this.pause=function(){window.clearTimeout(n);i-=new Date-r};var s=function(){r=new Date;n=window.setTimeout(function(){i=t;s();e()},i)};this.clear=function(){window.clearTimeout(n);i=t;n=window.setTimeout(function(){i=t;s();e()},i)};this.resume=s;this.resume()}function invoketimer(){timer=new RecurringTimer(function(){svg.setCurrentTime(0)},13500)}var svg=document.getElementById("kanjivg");var pause=document.getElementById("pause");var reset=document.getElementById("reset");var timer;invoketimer();reset.onclick=function(){svg.setCurrentTime(0);timer.clear();svg.unpauseAnimations();pause.innerHTML = "◼";};pause.onclick=function(){if(svg.animationsPaused()){svg.unpauseAnimations();timer.resume();pause.innerHTML="◼"}else{svg.pauseAnimations();timer.pause();pause.innerHTML="▶"}}]]></script></svg>