<svg id="kanjivg" width="106" height="126" xmlns="http://www.w3.org/2000/svg" xmlns:xlink="http://www.w3.org/1999/xlink" xml:space="preserve" version="1.1" baseProfile="full"><defs><style type="text/css"><![CDATA[path.black { fill:none;stroke:black;stroke-width:5;stroke-linecap:round;stroke-linejoin:round; }path.grey { fill:none;stroke:#ddd;stroke-width:5;stroke-linecap:round;stroke-linejoin:round; }path.stroke { fill:none;stroke:black;stroke-width:5;stroke-linecap:round;stroke-linejoin:round; }rect { fill:none;stroke:#555;stroke-width:2;} text{font-size:16px;font-family:Segoe UI Symbol,Cambria Math,DejaVu Sans,Symbola,Quivira,STIX,Code2000;-webkit-touch-callout:none;cursor:pointer;-webkit-user-select:none;-khtml-user-select:none;-moz-user-select:none;-ms-user-select:none;user-select: none;} #reset { font-weight:bold; }]]></style><marker id="markerStart" markerWidth="8" markerHeight="8" style="overflow:visible;"><circle cx="0" cy="0" r="1.5" style="stroke:none;fill:red;fill-opacity:0.5;"/></marker><marker id="markerEnd" style="overflow:visible;"><circle cx="0" cy="0" r="0.8" style="stroke:none;fill:blue;fill-opacity:0.5;"><animate attributeName="opacity" from="1" to="0" dur="3s" repeatCount="indefinite" /></circle></marker></defs><rect x="4" y="4" width="100" height="100" /><path d="M28,18.12c0.49,1.66,0.43,2.93-0.21,4.82c-4.09,12-7.29,21.07-16.67,35.68" class="grey" /><path d="M23.53,40.5c0.8,0.8,1.25,2.3,1.25,3.5c0,11.73-0.02,34.17-0.03,45.75c0,2.33,0,4.23,0,5.5" class="grey" /><path d="M39.8,20.15c0.84,0.84,1.36,2.26,1.36,3.8c0,1.24,0,27.47,0,39.18c0,2.84,0,4.83,0,5.4" class="grey" /><path d="M41.74,21.38c1.67-0.16,12.63-1.67,17.15-2.37c2.77-0.43,4.39,0.09,4.3,3.25c-0.15,5.24-0.45,28.22-0.59,39.49c-0.04,3.59-0.07,5.99-0.07,6.25" class="grey" /><path d="M42.21,35.6c4.11-0.58,14.54-1.89,19.76-2.37" class="grey" /><path d="M42.37,49.99c6.04-0.76,12.98-1.41,19.11-1.8" class="grey" /><path d="M42.38,65.79c5.37-0.67,13.04-1.48,19.12-1.8" class="grey" /><path d="M46.04,74.66c0.3,1.23-0.02,2.11-0.58,3.04c-2.49,4.16-6.89,9.35-10.46,12.55" class="grey" /><path d="M57.38,74.25c3.97,3.59,8.67,10.11,9.75,13.25" class="grey" /><path d="M76.52,23.08c0.98,0.92,1.76,2.29,1.76,4.27c0,10.75-0.01,22.08-0.02,29.27c0,2.55,0,4.58,0,5.88" class="grey" /><path d="M92.27,14.33c0.98,0.92,1.76,2.29,1.76,4.27c0,14.56-0.01,64.91-0.01,69.87c0,6.78-4.02,4.53-8.71,0.25" class="grey" /><path d="M28,18.12c0.49,1.66,0.43,2.93-0.21,4.82c-4.09,12-7.29,21.07-16.67,35.68" class="stroke" stroke-dasharray="150"><animate attributeName="stroke-dashoffset" from="150" to="0" dur="1.8s" begin="0s" fill="freeze" /></path><path d="M23.53,40.5c0.8,0.8,1.25,2.3,1.25,3.5c0,11.73-0.02,34.17-0.03,45.75c0,2.33,0,4.23,0,5.5" class="stroke" stroke-dasharray="150"><set attributeName="opacity" to="0" dur="1.1s" /><animate attributeName="stroke-dashoffset" from="150" to="0" dur="1.8s" begin="1.1s" fill="freeze" /></path><path d="M39.8,20.15c0.84,0.84,1.36,2.26,1.36,3.8c0,1.24,0,27.47,0,39.18c0,2.84,0,4.83,0,5.4" class="stroke" stroke-dasharray="150"><set attributeName="opacity" to="0" dur="2.5s" /><animate attributeName="stroke-dashoffset" from="150" to="0" dur="1.8s" begin="2.5s" fill="freeze" /></path><path d="M41.74,21.38c1.67-0.16,12.63-1.67,17.15-2.37c2.77-0.43,4.39,0.09,4.3,3.25c-0.15,5.24-0.45,28.22-0.59,39.49c-0.04,3.59-0.07,5.99-0.07,6.25" class="stroke" stroke-dasharray="150"><set attributeName="opacity" to="0" dur="3.7s" /><animate attributeName="stroke-dashoffset" from="150" to="0" dur="1.8s" begin="3.7s" fill="freeze" /></path><path d="M42.21,35.6c4.11-0.58,14.54-1.89,19.76-2.37" class="stroke" stroke-dasharray="150"><set attributeName="opacity" to="0" dur="5.2s" /><animate attributeName="stroke-dashoffset" from="150" to="0" dur="1.8s" begin="5.2s" fill="freeze" /></path><path d="M42.37,49.99c6.04-0.76,12.98-1.41,19.11-1.8" class="stroke" stroke-dasharray="150"><set attributeName="opacity" to="0" dur="6.1000000000000005s" /><animate attributeName="stroke-dashoffset" from="150" to="0" dur="1.8s" begin="6.1000000000000005s" fill="freeze" /></path><path d="M42.38,65.79c5.37-0.67,13.04-1.48,19.12-1.8" class="stroke" stroke-dasharray="150"><set attributeName="opacity" to="0" dur="7.000000000000001s" /><animate attributeName="stroke-dashoffset" from="150" to="0" dur="1.8s" begin="7.000000000000001s" fill="freeze" /></path><path d="M46.04,74.66c0.3,1.23-0.02,2.11-0.58,3.04c-2.49,4.16-6.89,9.35-10.46,12.55" class="stroke" stroke-dasharray="150"><set attributeName="opacity" to="0" dur="7.900000000000001s" /><animate attributeName="stroke-dashoffset" from="150" to="0" dur="1.8s" begin="7.900000000000001s" fill="freeze" /></path><path d="M57.38,74.25c3.97,3.59,8.67,10.11,9.75,13.25" class="stroke" stroke-dasharray="150"><set attributeName="opacity" to="0" dur="8.8s" /><animate attributeName="stroke-dashoffset" from="150" to="0" dur="1.8s" begin="8.8s" fill="freeze" /></path><path d="M76.52,23.08c0.98,0.92,1.76,2.29,1.76,4.27c0,10.75-0.01,22.08-0.02,29.27c0,2.55,0,4.58,0,5.88" class="stroke" stroke-dasharray="150"><set attributeName="opacity" to="0" dur="9.700000000000001s" /><animate attributeName="stroke-dashoffset" from="150" to="0" dur="1.8s" begin="9.700000000000001s" fill="freeze" /></path><path d="M92.27,14.33c0.98,0.92,1.76,2.29,1.76,4.27c0,14.56-0.01,64.91-0.01,69.87c0,6.78-4.02,4.53-8.71,0.25" class="stroke" stroke-dasharray="150"><set attributeName="opacity" to="0" dur="10.700000000000001s" /><animate attributeName="stroke-dashoffset" from="150" to="0" dur="1.8s" begin="10.700000000000001s" fill="freeze" /></path><text x="90" y="120" id="reset">⟳</text><text x="70" y="120" id="pause">◼</text><script type="text/javascript"><![CDATA[function RecurringTimer(e,t){var n,r,i=t;this.pause=function(){window.clearTimeout(n);i-=new Date-r};var s=function(){r=new Date;n=window.setTimeout(function(){i=t;s();e()},i)};this.clear=function(){window.clearTimeout(n);i=t;n=window.setTimeout(function(){i=t;s();e()},i)};this.resume=s;this.resume()}function invoketimer(){timer=new RecurringTimer(function(){svg.setCurrentTime(0)},13400)}var svg=document.getElementById("kanjivg");var pause=document.getElementById("pause");var reset=document.getElementById("reset");var timer;invoketimer();reset.onclick=function(){svg.setCurrentTime(0);timer.clear();svg.unpauseAnimations();pause.innerHTML = "◼";};pause.onclick=function(){if(svg.animationsPaused()){svg.unpauseAnimations();timer.resume();pause.innerHTML="◼"}else{svg.pauseAnimations();timer.pause();pause.innerHTML="▶"}}]]></script></svg>