<svg id="kanjivg" width="106" height="126" xmlns="http://www.w3.org/2000/svg" xmlns:xlink="http://www.w3.org/1999/xlink" xml:space="preserve" version="1.1" baseProfile="full"><defs><style type="text/css"><![CDATA[path.black { fill:none;stroke:black;stroke-width:5;stroke-linecap:round;stroke-linejoin:round; }path.grey { fill:none;stroke:#ddd;stroke-width:5;stroke-linecap:round;stroke-linejoin:round; }path.stroke { fill:none;stroke:black;stroke-width:5;stroke-linecap:round;stroke-linejoin:round; }rect { fill:none;stroke:#555;stroke-width:2;} text{font-size:16px;font-family:Segoe UI Symbol,Cambria Math,DejaVu Sans,Symbola,Quivira,STIX,Code2000;-webkit-touch-callout:none;cursor:pointer;-webkit-user-select:none;-khtml-user-select:none;-moz-user-select:none;-ms-user-select:none;user-select: none;} #reset { font-weight:bold; }]]></style><marker id="markerStart" markerWidth="8" markerHeight="8" style="overflow:visible;"><circle cx="0" cy="0" r="1.5" style="stroke:none;fill:red;fill-opacity:0.5;"/></marker><marker id="markerEnd" style="overflow:visible;"><circle cx="0" cy="0" r="0.8" style="stroke:none;fill:blue;fill-opacity:0.5;"><animate attributeName="opacity" from="1" to="0" dur="3s" repeatCount="indefinite" /></circle></marker></defs><rect x="4" y="4" width="100" height="100" /><path d="M29.27,15c0.2,1.98-0.06,4.56-0.69,6.25C24.5,32.04,19.34,42.16,10,55.29" class="grey" /><path d="M23.95,38c0.71,0.73,0.83,2.35,0.9,3.86c0.67,14.07-1.22,45.76-0.65,54.39" class="grey" /><path d="M43.67,18.93c0.29,0.48,1.32,2.3,1.45,2.9c1.38,6.42,3.81,16.04,4.57,25.07" class="grey" /><path d="M45.02,20.12c13.48-1.62,30.71-4.17,38.29-4.65c2.78-0.18,4.28,0.97,4.05,3.95c-0.37,4.84-2.19,14.41-3.83,23.86" class="grey" /><path d="M48.45,31.7c8.42-0.6,16.83-1.45,25.24-2.15c1.01-0.08,2-0.17,2.94-0.24" class="grey" /><path d="M49.83,44.24c10.38-1.19,23.7-2.49,33.79-2.62" class="grey" /><path d="M37.38,55.34c1.49,0.69,2.46,2.58,2.66,3.81C41.5,68,43.04,88.74,43.88,95.5" class="grey" /><path d="M39.99,58.23c7.39-0.96,49.22-4.97,50.67-5.31c3.11-0.72,5.17,1.76,5.06,3.88c-0.27,5.13-3.61,27.11-5.92,33.67c-2.3,6.52-3.17,5-5.92-0.06" class="grey" /><path d="M64.02,19.23c0.55,0.88,1.4,1.75,1.4,3.3c-0.01,6.8,0.23,49.21,0.23,51.3" class="grey" /><path d="M51.54,77.45c1.45,1.21,3.07,1.88,4.36,1.45c3.63-1.21,17.53-6.28,25.13-8.45" class="grey" /><path d="M76.45,64.48c2.92,2.63,7.54,10.8,8.27,14.89" class="grey" /><path d="M29.27,15c0.2,1.98-0.06,4.56-0.69,6.25C24.5,32.04,19.34,42.16,10,55.29" class="stroke" stroke-dasharray="150"><animate attributeName="stroke-dashoffset" from="150" to="0" dur="1.8s" begin="0s" fill="freeze" /></path><path d="M23.95,38c0.71,0.73,0.83,2.35,0.9,3.86c0.67,14.07-1.22,45.76-0.65,54.39" class="stroke" stroke-dasharray="150"><set attributeName="opacity" to="0" dur="1.2s" /><animate attributeName="stroke-dashoffset" from="150" to="0" dur="1.8s" begin="1.2s" fill="freeze" /></path><path d="M43.67,18.93c0.29,0.48,1.32,2.3,1.45,2.9c1.38,6.42,3.81,16.04,4.57,25.07" class="stroke" stroke-dasharray="150"><set attributeName="opacity" to="0" dur="2.5999999999999996s" /><animate attributeName="stroke-dashoffset" from="150" to="0" dur="1.8s" begin="2.5999999999999996s" fill="freeze" /></path><path d="M45.02,20.12c13.48-1.62,30.71-4.17,38.29-4.65c2.78-0.18,4.28,0.97,4.05,3.95c-0.37,4.84-2.19,14.41-3.83,23.86" class="stroke" stroke-dasharray="150"><set attributeName="opacity" to="0" dur="3.5999999999999996s" /><animate attributeName="stroke-dashoffset" from="150" to="0" dur="1.8s" begin="3.5999999999999996s" fill="freeze" /></path><path d="M48.45,31.7c8.42-0.6,16.83-1.45,25.24-2.15c1.01-0.08,2-0.17,2.94-0.24" class="stroke" stroke-dasharray="150"><set attributeName="opacity" to="0" dur="5.1s" /><animate attributeName="stroke-dashoffset" from="150" to="0" dur="1.8s" begin="5.1s" fill="freeze" /></path><path d="M49.83,44.24c10.38-1.19,23.7-2.49,33.79-2.62" class="stroke" stroke-dasharray="150"><set attributeName="opacity" to="0" dur="6.1s" /><animate attributeName="stroke-dashoffset" from="150" to="0" dur="1.8s" begin="6.1s" fill="freeze" /></path><path d="M37.38,55.34c1.49,0.69,2.46,2.58,2.66,3.81C41.5,68,43.04,88.74,43.88,95.5" class="stroke" stroke-dasharray="150"><set attributeName="opacity" to="0" dur="7.1s" /><animate attributeName="stroke-dashoffset" from="150" to="0" dur="1.8s" begin="7.1s" fill="freeze" /></path><path d="M39.99,58.23c7.39-0.96,49.22-4.97,50.67-5.31c3.11-0.72,5.17,1.76,5.06,3.88c-0.27,5.13-3.61,27.11-5.92,33.67c-2.3,6.52-3.17,5-5.92-0.06" class="stroke" stroke-dasharray="150"><set attributeName="opacity" to="0" dur="8.2s" /><animate attributeName="stroke-dashoffset" from="150" to="0" dur="1.8s" begin="8.2s" fill="freeze" /></path><path d="M64.02,19.23c0.55,0.88,1.4,1.75,1.4,3.3c-0.01,6.8,0.23,49.21,0.23,51.3" class="stroke" stroke-dasharray="150"><set attributeName="opacity" to="0" dur="10.1s" /><animate attributeName="stroke-dashoffset" from="150" to="0" dur="1.8s" begin="10.1s" fill="freeze" /></path><path d="M51.54,77.45c1.45,1.21,3.07,1.88,4.36,1.45c3.63-1.21,17.53-6.28,25.13-8.45" class="stroke" stroke-dasharray="150"><set attributeName="opacity" to="0" dur="11.4s" /><animate attributeName="stroke-dashoffset" from="150" to="0" dur="1.8s" begin="11.4s" fill="freeze" /></path><path d="M76.45,64.48c2.92,2.63,7.54,10.8,8.27,14.89" class="stroke" stroke-dasharray="150"><set attributeName="opacity" to="0" dur="12.4s" /><animate attributeName="stroke-dashoffset" from="150" to="0" dur="1.8s" begin="12.4s" fill="freeze" /></path><text x="90" y="120" id="reset">⟳</text><text x="70" y="120" id="pause">◼</text><script type="text/javascript"><![CDATA[function RecurringTimer(e,t){var n,r,i=t;this.pause=function(){window.clearTimeout(n);i-=new Date-r};var s=function(){r=new Date;n=window.setTimeout(function(){i=t;s();e()},i)};this.clear=function(){window.clearTimeout(n);i=t;n=window.setTimeout(function(){i=t;s();e()},i)};this.resume=s;this.resume()}function invoketimer(){timer=new RecurringTimer(function(){svg.setCurrentTime(0)},14300)}var svg=document.getElementById("kanjivg");var pause=document.getElementById("pause");var reset=document.getElementById("reset");var timer;invoketimer();reset.onclick=function(){svg.setCurrentTime(0);timer.clear();svg.unpauseAnimations();pause.innerHTML = "◼";};pause.onclick=function(){if(svg.animationsPaused()){svg.unpauseAnimations();timer.resume();pause.innerHTML="◼"}else{svg.pauseAnimations();timer.pause();pause.innerHTML="▶"}}]]></script></svg>