<svg id="kanjivg" width="106" height="126" xmlns="http://www.w3.org/2000/svg" xmlns:xlink="http://www.w3.org/1999/xlink" xml:space="preserve" version="1.1" baseProfile="full"><defs><style type="text/css"><![CDATA[path.black { fill:none;stroke:black;stroke-width:5;stroke-linecap:round;stroke-linejoin:round; }path.grey { fill:none;stroke:#ddd;stroke-width:5;stroke-linecap:round;stroke-linejoin:round; }path.stroke { fill:none;stroke:black;stroke-width:5;stroke-linecap:round;stroke-linejoin:round; }rect { fill:none;stroke:#555;stroke-width:2;} text{font-size:16px;font-family:Segoe UI Symbol,Cambria Math,DejaVu Sans,Symbola,Quivira,STIX,Code2000;-webkit-touch-callout:none;cursor:pointer;-webkit-user-select:none;-khtml-user-select:none;-moz-user-select:none;-ms-user-select:none;user-select: none;} #reset { font-weight:bold; }]]></style><marker id="markerStart" markerWidth="8" markerHeight="8" style="overflow:visible;"><circle cx="0" cy="0" r="1.5" style="stroke:none;fill:red;fill-opacity:0.5;"/></marker><marker id="markerEnd" style="overflow:visible;"><circle cx="0" cy="0" r="0.8" style="stroke:none;fill:blue;fill-opacity:0.5;"><animate attributeName="opacity" from="1" to="0" dur="3s" repeatCount="indefinite" /></circle></marker></defs><rect x="4" y="4" width="100" height="100" /><path d="M34.43,15c0.14,1.18,0.25,2.67-0.13,4.12c-2.37,9.2-11.52,26.98-22.55,39.45" class="grey" /><path d="M25.98,43.11c0.59,0.61,0.76,1.97,0.76,3.23c0,13.02-0.29,40.65-0.29,49.4" class="grey" /><path d="M59.71,11.25c0.07,0.81,0.29,2.16-0.15,3.26C56.93,21.22,47.9,36.58,33.5,45.75" class="grey" /><path d="M60.05,14.61c4.61,4.49,24.46,19.16,29.54,22.45c1.72,1.12,3.94,1.59,5.66,1.91" class="grey" /><path d="M50.03,37.89c0.52,0.26,1.47,0.28,1.99,0.26C55.5,38,69.75,34.5,73,35.01c0.86,0.13,1.38,0.12,1.82,0.25" class="grey" /><path d="M38.52,50.25c0.61,1,1.02,2,1.22,3c0.2,1,0.29,40,0.2,42.25" class="grey" /><path d="M40.96,52.19c1.36-0.14,13.83-2.55,14.84-2.71c1.81-0.28,2.49,1.85,2.27,2.71c-0.22,0.82-0.34,27.06-0.34,38.6c0,10.21-4.03,2.56-5.16,1.28" class="grey" /><path d="M44.93,59.58c2.63,1.08,6.8,4.45,7.46,6.13" class="grey" /><path d="M45.83,72.08c2.21,1.21,5.71,4.99,6.26,6.88" class="grey" /><path d="M74.16,44.12c0.31,1.13,1.18,3.08,0.71,4.63c-1.42,4.75-5.17,13.75-9.46,19.43c-1.17,1.56-0.02,2.55,0.31,2.87c5.2,5.2,8.28,12.2,10.89,23.45" class="grey" /><path d="M87.48,45.37c0.31,1.13,1.18,3.08,0.71,4.63c-1.42,4.75-4.26,12.25-8.55,17.93c-1.17,1.56-0.01,2.55,0.31,2.87c5.2,5.2,9.3,12.2,11.8,23.45" class="grey" /><path d="M34.43,15c0.14,1.18,0.25,2.67-0.13,4.12c-2.37,9.2-11.52,26.98-22.55,39.45" class="stroke" stroke-dasharray="150"><animate attributeName="stroke-dashoffset" from="150" to="0" dur="1.8s" begin="0s" fill="freeze" /></path><path d="M25.98,43.11c0.59,0.61,0.76,1.97,0.76,3.23c0,13.02-0.29,40.65-0.29,49.4" class="stroke" stroke-dasharray="150"><set attributeName="opacity" to="0" dur="1.2s" /><animate attributeName="stroke-dashoffset" from="150" to="0" dur="1.8s" begin="1.2s" fill="freeze" /></path><path d="M59.71,11.25c0.07,0.81,0.29,2.16-0.15,3.26C56.93,21.22,47.9,36.58,33.5,45.75" class="stroke" stroke-dasharray="150"><set attributeName="opacity" to="0" dur="2.5s" /><animate attributeName="stroke-dashoffset" from="150" to="0" dur="1.8s" begin="2.5s" fill="freeze" /></path><path d="M60.05,14.61c4.61,4.49,24.46,19.16,29.54,22.45c1.72,1.12,3.94,1.59,5.66,1.91" class="stroke" stroke-dasharray="150"><set attributeName="opacity" to="0" dur="3.6s" /><animate attributeName="stroke-dashoffset" from="150" to="0" dur="1.8s" begin="3.6s" fill="freeze" /></path><path d="M50.03,37.89c0.52,0.26,1.47,0.28,1.99,0.26C55.5,38,69.75,34.5,73,35.01c0.86,0.13,1.38,0.12,1.82,0.25" class="stroke" stroke-dasharray="150"><set attributeName="opacity" to="0" dur="4.7s" /><animate attributeName="stroke-dashoffset" from="150" to="0" dur="1.8s" begin="4.7s" fill="freeze" /></path><path d="M38.52,50.25c0.61,1,1.02,2,1.22,3c0.2,1,0.29,40,0.2,42.25" class="stroke" stroke-dasharray="150"><set attributeName="opacity" to="0" dur="5.7s" /><animate attributeName="stroke-dashoffset" from="150" to="0" dur="1.8s" begin="5.7s" fill="freeze" /></path><path d="M40.96,52.19c1.36-0.14,13.83-2.55,14.84-2.71c1.81-0.28,2.49,1.85,2.27,2.71c-0.22,0.82-0.34,27.06-0.34,38.6c0,10.21-4.03,2.56-5.16,1.28" class="stroke" stroke-dasharray="150"><set attributeName="opacity" to="0" dur="6.9s" /><animate attributeName="stroke-dashoffset" from="150" to="0" dur="1.8s" begin="6.9s" fill="freeze" /></path><path d="M44.93,59.58c2.63,1.08,6.8,4.45,7.46,6.13" class="stroke" stroke-dasharray="150"><set attributeName="opacity" to="0" dur="8.4s" /><animate attributeName="stroke-dashoffset" from="150" to="0" dur="1.8s" begin="8.4s" fill="freeze" /></path><path d="M45.83,72.08c2.21,1.21,5.71,4.99,6.26,6.88" class="stroke" stroke-dasharray="150"><set attributeName="opacity" to="0" dur="9.3s" /><animate attributeName="stroke-dashoffset" from="150" to="0" dur="1.8s" begin="9.3s" fill="freeze" /></path><path d="M74.16,44.12c0.31,1.13,1.18,3.08,0.71,4.63c-1.42,4.75-5.17,13.75-9.46,19.43c-1.17,1.56-0.02,2.55,0.31,2.87c5.2,5.2,8.28,12.2,10.89,23.45" class="stroke" stroke-dasharray="150"><set attributeName="opacity" to="0" dur="10.200000000000001s" /><animate attributeName="stroke-dashoffset" from="150" to="0" dur="1.8s" begin="10.200000000000001s" fill="freeze" /></path><path d="M87.48,45.37c0.31,1.13,1.18,3.08,0.71,4.63c-1.42,4.75-4.26,12.25-8.55,17.93c-1.17,1.56-0.01,2.55,0.31,2.87c5.2,5.2,9.3,12.2,11.8,23.45" class="stroke" stroke-dasharray="150"><set attributeName="opacity" to="0" dur="11.600000000000001s" /><animate attributeName="stroke-dashoffset" from="150" to="0" dur="1.8s" begin="11.600000000000001s" fill="freeze" /></path><text x="90" y="120" id="reset">⟳</text><text x="70" y="120" id="pause">◼</text><script type="text/javascript"><![CDATA[function RecurringTimer(e,t){var n,r,i=t;this.pause=function(){window.clearTimeout(n);i-=new Date-r};var s=function(){r=new Date;n=window.setTimeout(function(){i=t;s();e()},i)};this.clear=function(){window.clearTimeout(n);i=t;n=window.setTimeout(function(){i=t;s();e()},i)};this.resume=s;this.resume()}function invoketimer(){timer=new RecurringTimer(function(){svg.setCurrentTime(0)},13900)}var svg=document.getElementById("kanjivg");var pause=document.getElementById("pause");var reset=document.getElementById("reset");var timer;invoketimer();reset.onclick=function(){svg.setCurrentTime(0);timer.clear();svg.unpauseAnimations();pause.innerHTML = "◼";};pause.onclick=function(){if(svg.animationsPaused()){svg.unpauseAnimations();timer.resume();pause.innerHTML="◼"}else{svg.pauseAnimations();timer.pause();pause.innerHTML="▶"}}]]></script></svg>