<svg id="kanjivg" width="106" height="126" xmlns="http://www.w3.org/2000/svg" xmlns:xlink="http://www.w3.org/1999/xlink" xml:space="preserve" version="1.1" baseProfile="full"><defs><style type="text/css"><![CDATA[path.black { fill:none;stroke:black;stroke-width:5;stroke-linecap:round;stroke-linejoin:round; }path.grey { fill:none;stroke:#ddd;stroke-width:5;stroke-linecap:round;stroke-linejoin:round; }path.stroke { fill:none;stroke:black;stroke-width:5;stroke-linecap:round;stroke-linejoin:round; }rect { fill:none;stroke:#555;stroke-width:2;} text{font-size:16px;font-family:Segoe UI Symbol,Cambria Math,DejaVu Sans,Symbola,Quivira,STIX,Code2000;-webkit-touch-callout:none;cursor:pointer;-webkit-user-select:none;-khtml-user-select:none;-moz-user-select:none;-ms-user-select:none;user-select: none;} #reset { font-weight:bold; }]]></style><marker id="markerStart" markerWidth="8" markerHeight="8" style="overflow:visible;"><circle cx="0" cy="0" r="1.5" style="stroke:none;fill:red;fill-opacity:0.5;"/></marker><marker id="markerEnd" style="overflow:visible;"><circle cx="0" cy="0" r="0.8" style="stroke:none;fill:blue;fill-opacity:0.5;"><animate attributeName="opacity" from="1" to="0" dur="3s" repeatCount="indefinite" /></circle></marker></defs><rect x="4" y="4" width="100" height="100" /><path d="M28.77,18.5c0.2,2.04-0.06,4.71-0.71,6.45C23.86,36.08,20.6,44.49,11,58.04" class="grey" /><path d="M24.53,41c1.18,9.11-0.82,45.75-0.28,53.75" class="grey" /><path d="M40.3,20.9c0.35,1.15,0.86,2.01,0.86,3.55c0,1.54-0.12,42.79,0,44.32" class="grey" /><path d="M41.74,21.38c1.99-0.19,17.12-2.65,18.93-2.88c1.51-0.19,2.7,1.07,2.57,2.5c-0.16,1.81-0.7,45.86-0.7,47.01" class="grey" /><path d="M41.71,36.1c3.19-0.45,6.39-0.91,9.59-1.35c0.96-0.13,1.93-0.26,2.88-0.39" class="grey" /><path d="M41.87,50.24c3.25-0.41,6.51-0.75,9.77-1.04c0.85-0.08,1.69-0.15,2.53-0.22" class="grey" /><path d="M42.38,66.04c4.77-0.83,13.54-1.98,19.62-2.3" class="grey" /><path d="M46.06,75.16c0.26,1.07,0.48,1.34,0,2.15c-2.15,3.62-5.94,8.15-9.01,10.94" class="grey" /><path d="M59.54,76.08c3.1,3.12,6.77,8.77,7.61,11.49" class="grey" /><path d="M76.77,23.83c0.98,0.92,1.67,1.99,1.76,5.02C78.92,43.41,78.5,57.04,78.5,62" class="grey" /><path d="M92.27,14.33c0.98,0.92,1.67,1.99,1.76,5.02c0.4,14.55-0.26,63.66-0.26,68.62c0,6.78-4.02,4.53-8.71,0.25" class="grey" /><path d="M28.77,18.5c0.2,2.04-0.06,4.71-0.71,6.45C23.86,36.08,20.6,44.49,11,58.04" class="stroke" stroke-dasharray="150"><animate attributeName="stroke-dashoffset" from="150" to="0" dur="1.8s" begin="0s" fill="freeze" /></path><path d="M24.53,41c1.18,9.11-0.82,45.75-0.28,53.75" class="stroke" stroke-dasharray="150"><set attributeName="opacity" to="0" dur="1.1s" /><animate attributeName="stroke-dashoffset" from="150" to="0" dur="1.8s" begin="1.1s" fill="freeze" /></path><path d="M40.3,20.9c0.35,1.15,0.86,2.01,0.86,3.55c0,1.54-0.12,42.79,0,44.32" class="stroke" stroke-dasharray="150"><set attributeName="opacity" to="0" dur="2.4000000000000004s" /><animate attributeName="stroke-dashoffset" from="150" to="0" dur="1.8s" begin="2.4000000000000004s" fill="freeze" /></path><path d="M41.74,21.38c1.99-0.19,17.12-2.65,18.93-2.88c1.51-0.19,2.7,1.07,2.57,2.5c-0.16,1.81-0.7,45.86-0.7,47.01" class="stroke" stroke-dasharray="150"><set attributeName="opacity" to="0" dur="3.6000000000000005s" /><animate attributeName="stroke-dashoffset" from="150" to="0" dur="1.8s" begin="3.6000000000000005s" fill="freeze" /></path><path d="M41.71,36.1c3.19-0.45,6.39-0.91,9.59-1.35c0.96-0.13,1.93-0.26,2.88-0.39" class="stroke" stroke-dasharray="150"><set attributeName="opacity" to="0" dur="5.300000000000001s" /><animate attributeName="stroke-dashoffset" from="150" to="0" dur="1.8s" begin="5.300000000000001s" fill="freeze" /></path><path d="M41.87,50.24c3.25-0.41,6.51-0.75,9.77-1.04c0.85-0.08,1.69-0.15,2.53-0.22" class="stroke" stroke-dasharray="150"><set attributeName="opacity" to="0" dur="6.200000000000001s" /><animate attributeName="stroke-dashoffset" from="150" to="0" dur="1.8s" begin="6.200000000000001s" fill="freeze" /></path><path d="M42.38,66.04c4.77-0.83,13.54-1.98,19.62-2.3" class="stroke" stroke-dasharray="150"><set attributeName="opacity" to="0" dur="7.100000000000001s" /><animate attributeName="stroke-dashoffset" from="150" to="0" dur="1.8s" begin="7.100000000000001s" fill="freeze" /></path><path d="M46.06,75.16c0.26,1.07,0.48,1.34,0,2.15c-2.15,3.62-5.94,8.15-9.01,10.94" class="stroke" stroke-dasharray="150"><set attributeName="opacity" to="0" dur="8.000000000000002s" /><animate attributeName="stroke-dashoffset" from="150" to="0" dur="1.8s" begin="8.000000000000002s" fill="freeze" /></path><path d="M59.54,76.08c3.1,3.12,6.77,8.77,7.61,11.49" class="stroke" stroke-dasharray="150"><set attributeName="opacity" to="0" dur="8.900000000000002s" /><animate attributeName="stroke-dashoffset" from="150" to="0" dur="1.8s" begin="8.900000000000002s" fill="freeze" /></path><path d="M76.77,23.83c0.98,0.92,1.67,1.99,1.76,5.02C78.92,43.41,78.5,57.04,78.5,62" class="stroke" stroke-dasharray="150"><set attributeName="opacity" to="0" dur="9.800000000000002s" /><animate attributeName="stroke-dashoffset" from="150" to="0" dur="1.8s" begin="9.800000000000002s" fill="freeze" /></path><path d="M92.27,14.33c0.98,0.92,1.67,1.99,1.76,5.02c0.4,14.55-0.26,63.66-0.26,68.62c0,6.78-4.02,4.53-8.71,0.25" class="stroke" stroke-dasharray="150"><set attributeName="opacity" to="0" dur="10.800000000000002s" /><animate attributeName="stroke-dashoffset" from="150" to="0" dur="1.8s" begin="10.800000000000002s" fill="freeze" /></path><text x="90" y="120" id="reset">⟳</text><text x="70" y="120" id="pause">◼</text><script type="text/javascript"><![CDATA[function RecurringTimer(e,t){var n,r,i=t;this.pause=function(){window.clearTimeout(n);i-=new Date-r};var s=function(){r=new Date;n=window.setTimeout(function(){i=t;s();e()},i)};this.clear=function(){window.clearTimeout(n);i=t;n=window.setTimeout(function(){i=t;s();e()},i)};this.resume=s;this.resume()}function invoketimer(){timer=new RecurringTimer(function(){svg.setCurrentTime(0)},13500)}var svg=document.getElementById("kanjivg");var pause=document.getElementById("pause");var reset=document.getElementById("reset");var timer;invoketimer();reset.onclick=function(){svg.setCurrentTime(0);timer.clear();svg.unpauseAnimations();pause.innerHTML = "◼";};pause.onclick=function(){if(svg.animationsPaused()){svg.unpauseAnimations();timer.resume();pause.innerHTML="◼"}else{svg.pauseAnimations();timer.pause();pause.innerHTML="▶"}}]]></script></svg>