<svg id="kanjivg" width="106" height="126" xmlns="http://www.w3.org/2000/svg" xmlns:xlink="http://www.w3.org/1999/xlink" xml:space="preserve" version="1.1" baseProfile="full"><defs><style type="text/css"><![CDATA[path.black { fill:none;stroke:black;stroke-width:5;stroke-linecap:round;stroke-linejoin:round; }path.grey { fill:none;stroke:#ddd;stroke-width:5;stroke-linecap:round;stroke-linejoin:round; }path.stroke { fill:none;stroke:black;stroke-width:5;stroke-linecap:round;stroke-linejoin:round; }rect { fill:none;stroke:#555;stroke-width:2;} text{font-size:16px;font-family:Segoe UI Symbol,Cambria Math,DejaVu Sans,Symbola,Quivira,STIX,Code2000;-webkit-touch-callout:none;cursor:pointer;-webkit-user-select:none;-khtml-user-select:none;-moz-user-select:none;-ms-user-select:none;user-select: none;} #reset { font-weight:bold; }]]></style><marker id="markerStart" markerWidth="8" markerHeight="8" style="overflow:visible;"><circle cx="0" cy="0" r="1.5" style="stroke:none;fill:red;fill-opacity:0.5;"/></marker><marker id="markerEnd" style="overflow:visible;"><circle cx="0" cy="0" r="0.8" style="stroke:none;fill:blue;fill-opacity:0.5;"><animate attributeName="opacity" from="1" to="0" dur="3s" repeatCount="indefinite" /></circle></marker></defs><rect x="4" y="4" width="100" height="100" /><path d="M32.94,18c0.13,1.23,0.22,2.78-0.11,4.29c-2.13,9.57-10.38,28.07-20.33,41.04" class="grey" /><path d="M27.48,43.11c0.59,0.61,0.76,1.97,0.76,3.23c0,13.02-0.29,39.15-0.29,47.9" class="grey" /><path d="M45.25,22.24c1.02,0.36,2.89,0.43,3.91,0.36c4.9-0.32,16.92-2.91,28.48-3.04c1.7-0.02,2.72,0.17,3.57,0.36" class="grey" /><path d="M45.17,30.68c0.51,0.54,0.85,1.09,1.02,1.64c0.17,0.55,0.3,21.34,0.31,26.25" class="grey" /><path d="M47.2,32.62c5.73-0.23,31.83-3.33,33.35-3.48c2.72-0.27,3.74,1.77,3.4,2.59c-0.03,1.84-0.43,10.41-0.43,22.9" class="grey" /><path d="M47.2,41.97c7.58-0.48,29.44-2.56,35.56-2.97" class="grey" /><path d="M47.36,51.19c5.44-0.41,29.58-2.57,35.86-2.84" class="grey" /><path d="M62.14,11.73c0.99,0.45,1.58,2.04,1.78,2.95c0.2,0.91,0,37.34-0.2,43.02" class="grey" /><path d="M80.41,11c3.25,1.37,8.4,5.62,9.22,7.75" class="grey" /><path d="M35.99,67.99c1.09,0.55,3.06,0.62,4.17,0.55c11.84-0.79,37.29-3.67,50.55-4.5c1.81-0.11,2.9,0.26,3.8,0.53" class="grey" /><path d="M76.5,57.29c0.06,0.33,0.86,1.71,0.86,3.79c0,14-0.18,25.55-0.18,28.96c0,8.26-6.18,1.96-7.66-0.33" class="grey" /><path d="M48.46,75.7c2.59,1.75,6.68,7.19,7.33,9.91" class="grey" /><path d="M32.94,18c0.13,1.23,0.22,2.78-0.11,4.29c-2.13,9.57-10.38,28.07-20.33,41.04" class="stroke" stroke-dasharray="150"><animate attributeName="stroke-dashoffset" from="150" to="0" dur="1.8s" begin="0s" fill="freeze" /></path><path d="M27.48,43.11c0.59,0.61,0.76,1.97,0.76,3.23c0,13.02-0.29,39.15-0.29,47.9" class="stroke" stroke-dasharray="150"><set attributeName="opacity" to="0" dur="1.3s" /><animate attributeName="stroke-dashoffset" from="150" to="0" dur="1.8s" begin="1.3s" fill="freeze" /></path><path d="M45.25,22.24c1.02,0.36,2.89,0.43,3.91,0.36c4.9-0.32,16.92-2.91,28.48-3.04c1.7-0.02,2.72,0.17,3.57,0.36" class="stroke" stroke-dasharray="150"><set attributeName="opacity" to="0" dur="2.6s" /><animate attributeName="stroke-dashoffset" from="150" to="0" dur="1.8s" begin="2.6s" fill="freeze" /></path><path d="M45.17,30.68c0.51,0.54,0.85,1.09,1.02,1.64c0.17,0.55,0.3,21.34,0.31,26.25" class="stroke" stroke-dasharray="150"><set attributeName="opacity" to="0" dur="3.6s" /><animate attributeName="stroke-dashoffset" from="150" to="0" dur="1.8s" begin="3.6s" fill="freeze" /></path><path d="M47.2,32.62c5.73-0.23,31.83-3.33,33.35-3.48c2.72-0.27,3.74,1.77,3.4,2.59c-0.03,1.84-0.43,10.41-0.43,22.9" class="stroke" stroke-dasharray="150"><set attributeName="opacity" to="0" dur="4.6s" /><animate attributeName="stroke-dashoffset" from="150" to="0" dur="1.8s" begin="4.6s" fill="freeze" /></path><path d="M47.2,41.97c7.58-0.48,29.44-2.56,35.56-2.97" class="stroke" stroke-dasharray="150"><set attributeName="opacity" to="0" dur="6.1s" /><animate attributeName="stroke-dashoffset" from="150" to="0" dur="1.8s" begin="6.1s" fill="freeze" /></path><path d="M47.36,51.19c5.44-0.41,29.58-2.57,35.86-2.84" class="stroke" stroke-dasharray="150"><set attributeName="opacity" to="0" dur="7.1s" /><animate attributeName="stroke-dashoffset" from="150" to="0" dur="1.8s" begin="7.1s" fill="freeze" /></path><path d="M62.14,11.73c0.99,0.45,1.58,2.04,1.78,2.95c0.2,0.91,0,37.34-0.2,43.02" class="stroke" stroke-dasharray="150"><set attributeName="opacity" to="0" dur="8.1s" /><animate attributeName="stroke-dashoffset" from="150" to="0" dur="1.8s" begin="8.1s" fill="freeze" /></path><path d="M80.41,11c3.25,1.37,8.4,5.62,9.22,7.75" class="stroke" stroke-dasharray="150"><set attributeName="opacity" to="0" dur="9.299999999999999s" /><animate attributeName="stroke-dashoffset" from="150" to="0" dur="1.8s" begin="9.299999999999999s" fill="freeze" /></path><path d="M35.99,67.99c1.09,0.55,3.06,0.62,4.17,0.55c11.84-0.79,37.29-3.67,50.55-4.5c1.81-0.11,2.9,0.26,3.8,0.53" class="stroke" stroke-dasharray="150"><set attributeName="opacity" to="0" dur="10.2s" /><animate attributeName="stroke-dashoffset" from="150" to="0" dur="1.8s" begin="10.2s" fill="freeze" /></path><path d="M76.5,57.29c0.06,0.33,0.86,1.71,0.86,3.79c0,14-0.18,25.55-0.18,28.96c0,8.26-6.18,1.96-7.66-0.33" class="stroke" stroke-dasharray="150"><set attributeName="opacity" to="0" dur="11.6s" /><animate attributeName="stroke-dashoffset" from="150" to="0" dur="1.8s" begin="11.6s" fill="freeze" /></path><path d="M48.46,75.7c2.59,1.75,6.68,7.19,7.33,9.91" class="stroke" stroke-dasharray="150"><set attributeName="opacity" to="0" dur="12.799999999999999s" /><animate attributeName="stroke-dashoffset" from="150" to="0" dur="1.8s" begin="12.799999999999999s" fill="freeze" /></path><text x="90" y="120" id="reset">⟳</text><text x="70" y="120" id="pause">◼</text><script type="text/javascript"><![CDATA[function RecurringTimer(e,t){var n,r,i=t;this.pause=function(){window.clearTimeout(n);i-=new Date-r};var s=function(){r=new Date;n=window.setTimeout(function(){i=t;s();e()},i)};this.clear=function(){window.clearTimeout(n);i=t;n=window.setTimeout(function(){i=t;s();e()},i)};this.resume=s;this.resume()}function invoketimer(){timer=new RecurringTimer(function(){svg.setCurrentTime(0)},14700)}var svg=document.getElementById("kanjivg");var pause=document.getElementById("pause");var reset=document.getElementById("reset");var timer;invoketimer();reset.onclick=function(){svg.setCurrentTime(0);timer.clear();svg.unpauseAnimations();pause.innerHTML = "◼";};pause.onclick=function(){if(svg.animationsPaused()){svg.unpauseAnimations();timer.resume();pause.innerHTML="◼"}else{svg.pauseAnimations();timer.pause();pause.innerHTML="▶"}}]]></script></svg>