<svg id="kanjivg" width="106" height="126" xmlns="http://www.w3.org/2000/svg" xmlns:xlink="http://www.w3.org/1999/xlink" xml:space="preserve" version="1.1" baseProfile="full"><defs><style type="text/css"><![CDATA[path.black { fill:none;stroke:black;stroke-width:5;stroke-linecap:round;stroke-linejoin:round; }path.grey { fill:none;stroke:#ddd;stroke-width:5;stroke-linecap:round;stroke-linejoin:round; }path.stroke { fill:none;stroke:black;stroke-width:5;stroke-linecap:round;stroke-linejoin:round; }rect { fill:none;stroke:#555;stroke-width:2;} text{font-size:16px;font-family:Segoe UI Symbol,Cambria Math,DejaVu Sans,Symbola,Quivira,STIX,Code2000;-webkit-touch-callout:none;cursor:pointer;-webkit-user-select:none;-khtml-user-select:none;-moz-user-select:none;-ms-user-select:none;user-select: none;} #reset { font-weight:bold; }]]></style><marker id="markerStart" markerWidth="8" markerHeight="8" style="overflow:visible;"><circle cx="0" cy="0" r="1.5" style="stroke:none;fill:red;fill-opacity:0.5;"/></marker><marker id="markerEnd" style="overflow:visible;"><circle cx="0" cy="0" r="0.8" style="stroke:none;fill:blue;fill-opacity:0.5;"><animate attributeName="opacity" from="1" to="0" dur="3s" repeatCount="indefinite" /></circle></marker></defs><rect x="4" y="4" width="100" height="100" /><path d="M30.95,19.5c0.12,1.19,0.21,2.68-0.11,4.15C28.86,32.9,21.22,50.79,12,63.32" class="grey" /><path d="M24.48,45.61c0.59,0.61,0.76,1.97,0.76,3.23c0,13.02-0.29,38.65-0.29,47.4" class="grey" /><path d="M61.47,12.5c0.03,0.34,0.1,0.98-0.05,1.37c-1.81,4.82-4.48,9.24-9.2,13.13" class="grey" /><path d="M41.75,28.12c0.3,0.54,0.31,0.91,0.47,1.57c1.33,5.5,2.98,16.74,3.76,26.88" class="grey" /><path d="M43.17,29.45c12.83-1.7,29.59-3.99,37.51-4.53c2.91-0.2,4.1,1.58,3.79,3.87c-0.73,5.38-1.71,14.71-4.28,24.34" class="grey" /><path d="M60.07,27.88c0.38,2.14,2.31,11.97,3.53,18.93c0.28,1.6,0.66,3.44,1.46,3.76" class="grey" /><path d="M44.56,41.57c6.44-0.82,33.63-3.82,38.46-4.37" class="grey" /><path d="M46.54,55.14c11.3-1.89,21.25-2.39,32.74-3.88" class="grey" /><path d="M53.59,58c0.21,0.78,0.24,1.84-0.1,3.08c-2.35,8.6-8.36,25.41-18.99,34.67" class="grey" /><path d="M65.41,55.87c0.74,1.21,1.32,2.64,1.36,4.51c0.2,8.34,0.04,13.76-0.33,25.07c-0.37,11.3,7.14,11.51,14.17,11.51c11.5,0,15.14-0.95,15.14-8.11" class="grey" /><path d="M80.74,58.72c0.22,0.42,0.14,2.33-0.07,2.84c-1.92,4.68-4.37,11.46-7.42,16.23c-0.97,1.51,0.08,3.03,1.45,2.51c4.77-1.8,10.3-3.55,14.93-5.44" class="grey" /><path d="M85.77,67.43c1.65,1.85,5.27,9.16,5.68,12.04" class="grey" /><path d="M30.95,19.5c0.12,1.19,0.21,2.68-0.11,4.15C28.86,32.9,21.22,50.79,12,63.32" class="stroke" stroke-dasharray="150"><animate attributeName="stroke-dashoffset" from="150" to="0" dur="1.8s" begin="0s" fill="freeze" /></path><path d="M24.48,45.61c0.59,0.61,0.76,1.97,0.76,3.23c0,13.02-0.29,38.65-0.29,47.4" class="stroke" stroke-dasharray="150"><set attributeName="opacity" to="0" dur="1.2s" /><animate attributeName="stroke-dashoffset" from="150" to="0" dur="1.8s" begin="1.2s" fill="freeze" /></path><path d="M61.47,12.5c0.03,0.34,0.1,0.98-0.05,1.37c-1.81,4.82-4.48,9.24-9.2,13.13" class="stroke" stroke-dasharray="150"><set attributeName="opacity" to="0" dur="2.5s" /><animate attributeName="stroke-dashoffset" from="150" to="0" dur="1.8s" begin="2.5s" fill="freeze" /></path><path d="M41.75,28.12c0.3,0.54,0.31,0.91,0.47,1.57c1.33,5.5,2.98,16.74,3.76,26.88" class="stroke" stroke-dasharray="150"><set attributeName="opacity" to="0" dur="3.4s" /><animate attributeName="stroke-dashoffset" from="150" to="0" dur="1.8s" begin="3.4s" fill="freeze" /></path><path d="M43.17,29.45c12.83-1.7,29.59-3.99,37.51-4.53c2.91-0.2,4.1,1.58,3.79,3.87c-0.73,5.38-1.71,14.71-4.28,24.34" class="stroke" stroke-dasharray="150"><set attributeName="opacity" to="0" dur="4.4s" /><animate attributeName="stroke-dashoffset" from="150" to="0" dur="1.8s" begin="4.4s" fill="freeze" /></path><path d="M60.07,27.88c0.38,2.14,2.31,11.97,3.53,18.93c0.28,1.6,0.66,3.44,1.46,3.76" class="stroke" stroke-dasharray="150"><set attributeName="opacity" to="0" dur="5.9s" /><animate attributeName="stroke-dashoffset" from="150" to="0" dur="1.8s" begin="5.9s" fill="freeze" /></path><path d="M44.56,41.57c6.44-0.82,33.63-3.82,38.46-4.37" class="stroke" stroke-dasharray="150"><set attributeName="opacity" to="0" dur="6.9s" /><animate attributeName="stroke-dashoffset" from="150" to="0" dur="1.8s" begin="6.9s" fill="freeze" /></path><path d="M46.54,55.14c11.3-1.89,21.25-2.39,32.74-3.88" class="stroke" stroke-dasharray="150"><set attributeName="opacity" to="0" dur="7.9s" /><animate attributeName="stroke-dashoffset" from="150" to="0" dur="1.8s" begin="7.9s" fill="freeze" /></path><path d="M53.59,58c0.21,0.78,0.24,1.84-0.1,3.08c-2.35,8.6-8.36,25.41-18.99,34.67" class="stroke" stroke-dasharray="150"><set attributeName="opacity" to="0" dur="8.9s" /><animate attributeName="stroke-dashoffset" from="150" to="0" dur="1.8s" begin="8.9s" fill="freeze" /></path><path d="M65.41,55.87c0.74,1.21,1.32,2.64,1.36,4.51c0.2,8.34,0.04,13.76-0.33,25.07c-0.37,11.3,7.14,11.51,14.17,11.51c11.5,0,15.14-0.95,15.14-8.11" class="stroke" stroke-dasharray="150"><set attributeName="opacity" to="0" dur="10.0s" /><animate attributeName="stroke-dashoffset" from="150" to="0" dur="1.8s" begin="10.0s" fill="freeze" /></path><path d="M80.74,58.72c0.22,0.42,0.14,2.33-0.07,2.84c-1.92,4.68-4.37,11.46-7.42,16.23c-0.97,1.51,0.08,3.03,1.45,2.51c4.77-1.8,10.3-3.55,14.93-5.44" class="stroke" stroke-dasharray="150"><set attributeName="opacity" to="0" dur="11.7s" /><animate attributeName="stroke-dashoffset" from="150" to="0" dur="1.8s" begin="11.7s" fill="freeze" /></path><path d="M85.77,67.43c1.65,1.85,5.27,9.16,5.68,12.04" class="stroke" stroke-dasharray="150"><set attributeName="opacity" to="0" dur="12.799999999999999s" /><animate attributeName="stroke-dashoffset" from="150" to="0" dur="1.8s" begin="12.799999999999999s" fill="freeze" /></path><text x="90" y="120" id="reset">⟳</text><text x="70" y="120" id="pause">◼</text><script type="text/javascript"><![CDATA[function RecurringTimer(e,t){var n,r,i=t;this.pause=function(){window.clearTimeout(n);i-=new Date-r};var s=function(){r=new Date;n=window.setTimeout(function(){i=t;s();e()},i)};this.clear=function(){window.clearTimeout(n);i=t;n=window.setTimeout(function(){i=t;s();e()},i)};this.resume=s;this.resume()}function invoketimer(){timer=new RecurringTimer(function(){svg.setCurrentTime(0)},14700)}var svg=document.getElementById("kanjivg");var pause=document.getElementById("pause");var reset=document.getElementById("reset");var timer;invoketimer();reset.onclick=function(){svg.setCurrentTime(0);timer.clear();svg.unpauseAnimations();pause.innerHTML = "◼";};pause.onclick=function(){if(svg.animationsPaused()){svg.unpauseAnimations();timer.resume();pause.innerHTML="◼"}else{svg.pauseAnimations();timer.pause();pause.innerHTML="▶"}}]]></script></svg>