<svg id="kanjivg" width="106" height="126" xmlns="http://www.w3.org/2000/svg" xmlns:xlink="http://www.w3.org/1999/xlink" xml:space="preserve" version="1.1" baseProfile="full"><defs><style type="text/css"><![CDATA[path.black { fill:none;stroke:black;stroke-width:5;stroke-linecap:round;stroke-linejoin:round; }path.grey { fill:none;stroke:#ddd;stroke-width:5;stroke-linecap:round;stroke-linejoin:round; }path.stroke { fill:none;stroke:black;stroke-width:5;stroke-linecap:round;stroke-linejoin:round; }rect { fill:none;stroke:#555;stroke-width:2;} text{font-size:16px;font-family:Segoe UI Symbol,Cambria Math,DejaVu Sans,Symbola,Quivira,STIX,Code2000;-webkit-touch-callout:none;cursor:pointer;-webkit-user-select:none;-khtml-user-select:none;-moz-user-select:none;-ms-user-select:none;user-select: none;} #reset { font-weight:bold; }]]></style><marker id="markerStart" markerWidth="8" markerHeight="8" style="overflow:visible;"><circle cx="0" cy="0" r="1.5" style="stroke:none;fill:red;fill-opacity:0.5;"/></marker><marker id="markerEnd" style="overflow:visible;"><circle cx="0" cy="0" r="0.8" style="stroke:none;fill:blue;fill-opacity:0.5;"><animate attributeName="opacity" from="1" to="0" dur="3s" repeatCount="indefinite" /></circle></marker></defs><rect x="4" y="4" width="100" height="100" /><path d="M35.25,15c0.25,2-0.07,4.62-0.87,6.33C29.25,32.25,22.75,42.5,11,55.79" class="grey" /><path d="M27.03,39.5c0.59,0.61,0.7,1.97,0.76,3.23c0.56,11.77-0.52,44.29-0.04,51.52" class="grey" /><path d="M42.75,24.77c0.98,0.53,2.12,0.63,3.11,0.53c9.02-0.96,30.06-3.46,40.46-3.53c1.64-0.01,2.62,0.25,3.44,0.51" class="grey" /><path d="M53.42,12c1.33,1.43,1.81,1.86,1.9,2.75c0.94,9.75,1.44,14.75,2.34,22.75" class="grey" /><path d="M75.1,10.75c0.4,0.75,0.99,2.01,0.9,2.75c-1,7.75-2,13.75-3.32,22" class="grey" /><path d="M40.39,39.55c1.17,0.42,3.3,0.48,4.47,0.42c12.13-0.7,30.39-2.71,44.61-3.75c1.94-0.14,3.11,0.2,4.08,0.41" class="grey" /><path d="M53.33,42c0.05,0.7,0.18,2.02-0.09,2.82c-3.44,9.9-8.52,18.99-17.49,26.97" class="grey" /><path d="M50.28,52.15c0.17,0.59,0.17,42.77,0.17,44.11" class="grey" /><path d="M50.8,52.04c5.74-0.25,33.9-3.68,35.42-3.84c2.73-0.3,3.75,1.93,3.41,2.82c-0.33,0.86-0.51,27.68-0.51,39.71c0,9.27-5.33,1.28-6.41,0.76" class="grey" /><path d="M50.8,64.62c8.47-0.58,16.92-1.4,25.38-2.12c0.93-0.08,1.84-0.16,2.73-0.24" class="grey" /><path d="M50.96,78.2c8.21-0.66,16.4-1.44,24.61-2.14c0.97-0.08,1.92-0.16,2.84-0.24" class="grey" /><path d="M68.07,52.65c0.68,0.29,1.08,1.29,1.21,1.86c0.13,0.57,0,35.07-0.14,38.65" class="grey" /><path d="M35.25,15c0.25,2-0.07,4.62-0.87,6.33C29.25,32.25,22.75,42.5,11,55.79" class="stroke" stroke-dasharray="150"><animate attributeName="stroke-dashoffset" from="150" to="0" dur="1.8s" begin="0s" fill="freeze" /></path><path d="M27.03,39.5c0.59,0.61,0.7,1.97,0.76,3.23c0.56,11.77-0.52,44.29-0.04,51.52" class="stroke" stroke-dasharray="150"><set attributeName="opacity" to="0" dur="1.2s" /><animate attributeName="stroke-dashoffset" from="150" to="0" dur="1.8s" begin="1.2s" fill="freeze" /></path><path d="M42.75,24.77c0.98,0.53,2.12,0.63,3.11,0.53c9.02-0.96,30.06-3.46,40.46-3.53c1.64-0.01,2.62,0.25,3.44,0.51" class="stroke" stroke-dasharray="150"><set attributeName="opacity" to="0" dur="2.5s" /><animate attributeName="stroke-dashoffset" from="150" to="0" dur="1.8s" begin="2.5s" fill="freeze" /></path><path d="M53.42,12c1.33,1.43,1.81,1.86,1.9,2.75c0.94,9.75,1.44,14.75,2.34,22.75" class="stroke" stroke-dasharray="150"><set attributeName="opacity" to="0" dur="3.7s" /><animate attributeName="stroke-dashoffset" from="150" to="0" dur="1.8s" begin="3.7s" fill="freeze" /></path><path d="M75.1,10.75c0.4,0.75,0.99,2.01,0.9,2.75c-1,7.75-2,13.75-3.32,22" class="stroke" stroke-dasharray="150"><set attributeName="opacity" to="0" dur="4.7s" /><animate attributeName="stroke-dashoffset" from="150" to="0" dur="1.8s" begin="4.7s" fill="freeze" /></path><path d="M40.39,39.55c1.17,0.42,3.3,0.48,4.47,0.42c12.13-0.7,30.39-2.71,44.61-3.75c1.94-0.14,3.11,0.2,4.08,0.41" class="stroke" stroke-dasharray="150"><set attributeName="opacity" to="0" dur="5.7s" /><animate attributeName="stroke-dashoffset" from="150" to="0" dur="1.8s" begin="5.7s" fill="freeze" /></path><path d="M53.33,42c0.05,0.7,0.18,2.02-0.09,2.82c-3.44,9.9-8.52,18.99-17.49,26.97" class="stroke" stroke-dasharray="150"><set attributeName="opacity" to="0" dur="7.0s" /><animate attributeName="stroke-dashoffset" from="150" to="0" dur="1.8s" begin="7.0s" fill="freeze" /></path><path d="M50.28,52.15c0.17,0.59,0.17,42.77,0.17,44.11" class="stroke" stroke-dasharray="150"><set attributeName="opacity" to="0" dur="8.0s" /><animate attributeName="stroke-dashoffset" from="150" to="0" dur="1.8s" begin="8.0s" fill="freeze" /></path><path d="M50.8,52.04c5.74-0.25,33.9-3.68,35.42-3.84c2.73-0.3,3.75,1.93,3.41,2.82c-0.33,0.86-0.51,27.68-0.51,39.71c0,9.27-5.33,1.28-6.41,0.76" class="stroke" stroke-dasharray="150"><set attributeName="opacity" to="0" dur="9.1s" /><animate attributeName="stroke-dashoffset" from="150" to="0" dur="1.8s" begin="9.1s" fill="freeze" /></path><path d="M50.8,64.62c8.47-0.58,16.92-1.4,25.38-2.12c0.93-0.08,1.84-0.16,2.73-0.24" class="stroke" stroke-dasharray="150"><set attributeName="opacity" to="0" dur="10.9s" /><animate attributeName="stroke-dashoffset" from="150" to="0" dur="1.8s" begin="10.9s" fill="freeze" /></path><path d="M50.96,78.2c8.21-0.66,16.4-1.44,24.61-2.14c0.97-0.08,1.92-0.16,2.84-0.24" class="stroke" stroke-dasharray="150"><set attributeName="opacity" to="0" dur="11.9s" /><animate attributeName="stroke-dashoffset" from="150" to="0" dur="1.8s" begin="11.9s" fill="freeze" /></path><path d="M68.07,52.65c0.68,0.29,1.08,1.29,1.21,1.86c0.13,0.57,0,35.07-0.14,38.65" class="stroke" stroke-dasharray="150"><set attributeName="opacity" to="0" dur="12.9s" /><animate attributeName="stroke-dashoffset" from="150" to="0" dur="1.8s" begin="12.9s" fill="freeze" /></path><text x="90" y="120" id="reset">⟳</text><text x="70" y="120" id="pause">◼</text><script type="text/javascript"><![CDATA[function RecurringTimer(e,t){var n,r,i=t;this.pause=function(){window.clearTimeout(n);i-=new Date-r};var s=function(){r=new Date;n=window.setTimeout(function(){i=t;s();e()},i)};this.clear=function(){window.clearTimeout(n);i=t;n=window.setTimeout(function(){i=t;s();e()},i)};this.resume=s;this.resume()}function invoketimer(){timer=new RecurringTimer(function(){svg.setCurrentTime(0)},15000)}var svg=document.getElementById("kanjivg");var pause=document.getElementById("pause");var reset=document.getElementById("reset");var timer;invoketimer();reset.onclick=function(){svg.setCurrentTime(0);timer.clear();svg.unpauseAnimations();pause.innerHTML = "◼";};pause.onclick=function(){if(svg.animationsPaused()){svg.unpauseAnimations();timer.resume();pause.innerHTML="◼"}else{svg.pauseAnimations();timer.pause();pause.innerHTML="▶"}}]]></script></svg>