<svg id="kanjivg" width="106" height="126" xmlns="http://www.w3.org/2000/svg" xmlns:xlink="http://www.w3.org/1999/xlink" xml:space="preserve" version="1.1" baseProfile="full"><defs><style type="text/css"><![CDATA[path.black { fill:none;stroke:black;stroke-width:5;stroke-linecap:round;stroke-linejoin:round; }path.grey { fill:none;stroke:#ddd;stroke-width:5;stroke-linecap:round;stroke-linejoin:round; }path.stroke { fill:none;stroke:black;stroke-width:5;stroke-linecap:round;stroke-linejoin:round; }rect { fill:none;stroke:#555;stroke-width:2;} text{font-size:16px;font-family:Segoe UI Symbol,Cambria Math,DejaVu Sans,Symbola,Quivira,STIX,Code2000;-webkit-touch-callout:none;cursor:pointer;-webkit-user-select:none;-khtml-user-select:none;-moz-user-select:none;-ms-user-select:none;user-select: none;} #reset { font-weight:bold; }]]></style><marker id="markerStart" markerWidth="8" markerHeight="8" style="overflow:visible;"><circle cx="0" cy="0" r="1.5" style="stroke:none;fill:red;fill-opacity:0.5;"/></marker><marker id="markerEnd" style="overflow:visible;"><circle cx="0" cy="0" r="0.8" style="stroke:none;fill:blue;fill-opacity:0.5;"><animate attributeName="opacity" from="1" to="0" dur="3s" repeatCount="indefinite" /></circle></marker></defs><rect x="4" y="4" width="100" height="100" /><path d="M35.25,15c0.25,2-0.07,3.37-0.87,5.08C29.25,31,23.75,42.5,12,55.79" class="grey" /><path d="M26.78,39.25c0.98,0.98,1.51,2.72,1.51,3.98c0,11.17-0.02,33.73-0.04,45.02c0,3.38-0.01,5.75-0.01,6.5" class="grey" /><path d="M42.75,24.77c2.01,0.6,4.09,0.42,6.14,0.2c8.95-0.98,24.89-2.7,34.74-3.11c2.3-0.1,4.38-0.23,6.88,0.17" class="grey" /><path d="M53.92,11.75c0.79,0.79,1.31,2.11,1.4,3c0.94,9.75,1.44,14.75,2.34,22.75" class="grey" /><path d="M75.35,10.5c0.76,0.76,0.74,2.26,0.65,3c-1,7.75-2,14.75-3.32,23" class="grey" /><path d="M40.39,39.55c2.36,0.45,4.57,0.42,6.75,0.27c11.26-0.74,26.75-2.39,39.63-3.4c2.34-0.18,4.48-0.29,6.79,0.2" class="grey" /><path d="M53.58,42.5c0,0.88-0.26,2.05-0.59,2.82c-4.11,9.43-8.49,17.31-17.24,26.47" class="grey" /><path d="M49.53,54.65c0.53,0.53,0.82,1.35,0.82,2.11c0,7.78,0.09,25.14,0.09,34.24c0,3,0,4.99,0,5.26" class="grey" /><path d="M51.3,51.79c7.95-0.79,33.15-3.68,34.67-3.84c2.73-0.3,3.41,0.55,3.41,3.07c0,6.98,0.24,27.93,0.24,39.96c0,9.27-5.33,1.28-6.41,0.76" class="grey" /><path d="M51.55,64.87c10.32-1.49,29.2-2.87,36.64-3.19" class="grey" /><path d="M51.71,78.45c9.16-1.2,26.41-2.82,36.45-3.15" class="grey" /><path d="M67.82,52.4c0.7,0.7,1.21,2.1,1.21,3.61c0,3.49-0.05,21.37-0.05,31.25c0,2.96-0.05,5.13-0.08,5.9" class="grey" /><path d="M35.25,15c0.25,2-0.07,3.37-0.87,5.08C29.25,31,23.75,42.5,12,55.79" class="stroke" stroke-dasharray="150"><animate attributeName="stroke-dashoffset" from="150" to="0" dur="1.8s" begin="0s" fill="freeze" /></path><path d="M26.78,39.25c0.98,0.98,1.51,2.72,1.51,3.98c0,11.17-0.02,33.73-0.04,45.02c0,3.38-0.01,5.75-0.01,6.5" class="stroke" stroke-dasharray="150"><set attributeName="opacity" to="0" dur="1.2s" /><animate attributeName="stroke-dashoffset" from="150" to="0" dur="1.8s" begin="1.2s" fill="freeze" /></path><path d="M42.75,24.77c2.01,0.6,4.09,0.42,6.14,0.2c8.95-0.98,24.89-2.7,34.74-3.11c2.3-0.1,4.38-0.23,6.88,0.17" class="stroke" stroke-dasharray="150"><set attributeName="opacity" to="0" dur="2.5999999999999996s" /><animate attributeName="stroke-dashoffset" from="150" to="0" dur="1.8s" begin="2.5999999999999996s" fill="freeze" /></path><path d="M53.92,11.75c0.79,0.79,1.31,2.11,1.4,3c0.94,9.75,1.44,14.75,2.34,22.75" class="stroke" stroke-dasharray="150"><set attributeName="opacity" to="0" dur="3.8s" /><animate attributeName="stroke-dashoffset" from="150" to="0" dur="1.8s" begin="3.8s" fill="freeze" /></path><path d="M75.35,10.5c0.76,0.76,0.74,2.26,0.65,3c-1,7.75-2,14.75-3.32,23" class="stroke" stroke-dasharray="150"><set attributeName="opacity" to="0" dur="4.8s" /><animate attributeName="stroke-dashoffset" from="150" to="0" dur="1.8s" begin="4.8s" fill="freeze" /></path><path d="M40.39,39.55c2.36,0.45,4.57,0.42,6.75,0.27c11.26-0.74,26.75-2.39,39.63-3.4c2.34-0.18,4.48-0.29,6.79,0.2" class="stroke" stroke-dasharray="150"><set attributeName="opacity" to="0" dur="5.8s" /><animate attributeName="stroke-dashoffset" from="150" to="0" dur="1.8s" begin="5.8s" fill="freeze" /></path><path d="M53.58,42.5c0,0.88-0.26,2.05-0.59,2.82c-4.11,9.43-8.49,17.31-17.24,26.47" class="stroke" stroke-dasharray="150"><set attributeName="opacity" to="0" dur="7.1s" /><animate attributeName="stroke-dashoffset" from="150" to="0" dur="1.8s" begin="7.1s" fill="freeze" /></path><path d="M49.53,54.65c0.53,0.53,0.82,1.35,0.82,2.11c0,7.78,0.09,25.14,0.09,34.24c0,3,0,4.99,0,5.26" class="stroke" stroke-dasharray="150"><set attributeName="opacity" to="0" dur="8.1s" /><animate attributeName="stroke-dashoffset" from="150" to="0" dur="1.8s" begin="8.1s" fill="freeze" /></path><path d="M51.3,51.79c7.95-0.79,33.15-3.68,34.67-3.84c2.73-0.3,3.41,0.55,3.41,3.07c0,6.98,0.24,27.93,0.24,39.96c0,9.27-5.33,1.28-6.41,0.76" class="stroke" stroke-dasharray="150"><set attributeName="opacity" to="0" dur="9.2s" /><animate attributeName="stroke-dashoffset" from="150" to="0" dur="1.8s" begin="9.2s" fill="freeze" /></path><path d="M51.55,64.87c10.32-1.49,29.2-2.87,36.64-3.19" class="stroke" stroke-dasharray="150"><set attributeName="opacity" to="0" dur="11.0s" /><animate attributeName="stroke-dashoffset" from="150" to="0" dur="1.8s" begin="11.0s" fill="freeze" /></path><path d="M51.71,78.45c9.16-1.2,26.41-2.82,36.45-3.15" class="stroke" stroke-dasharray="150"><set attributeName="opacity" to="0" dur="12.0s" /><animate attributeName="stroke-dashoffset" from="150" to="0" dur="1.8s" begin="12.0s" fill="freeze" /></path><path d="M67.82,52.4c0.7,0.7,1.21,2.1,1.21,3.61c0,3.49-0.05,21.37-0.05,31.25c0,2.96-0.05,5.13-0.08,5.9" class="stroke" stroke-dasharray="150"><set attributeName="opacity" to="0" dur="13.0s" /><animate attributeName="stroke-dashoffset" from="150" to="0" dur="1.8s" begin="13.0s" fill="freeze" /></path><text x="90" y="120" id="reset">⟳</text><text x="70" y="120" id="pause">◼</text><script type="text/javascript"><![CDATA[function RecurringTimer(e,t){var n,r,i=t;this.pause=function(){window.clearTimeout(n);i-=new Date-r};var s=function(){r=new Date;n=window.setTimeout(function(){i=t;s();e()},i)};this.clear=function(){window.clearTimeout(n);i=t;n=window.setTimeout(function(){i=t;s();e()},i)};this.resume=s;this.resume()}function invoketimer(){timer=new RecurringTimer(function(){svg.setCurrentTime(0)},15100)}var svg=document.getElementById("kanjivg");var pause=document.getElementById("pause");var reset=document.getElementById("reset");var timer;invoketimer();reset.onclick=function(){svg.setCurrentTime(0);timer.clear();svg.unpauseAnimations();pause.innerHTML = "◼";};pause.onclick=function(){if(svg.animationsPaused()){svg.unpauseAnimations();timer.resume();pause.innerHTML="◼"}else{svg.pauseAnimations();timer.pause();pause.innerHTML="▶"}}]]></script></svg>