<svg id="kanjivg" width="106" height="126" xmlns="http://www.w3.org/2000/svg" xmlns:xlink="http://www.w3.org/1999/xlink" xml:space="preserve" version="1.1" baseProfile="full"><defs><style type="text/css"><![CDATA[path.black { fill:none;stroke:black;stroke-width:5;stroke-linecap:round;stroke-linejoin:round; }path.grey { fill:none;stroke:#ddd;stroke-width:5;stroke-linecap:round;stroke-linejoin:round; }path.stroke { fill:none;stroke:black;stroke-width:5;stroke-linecap:round;stroke-linejoin:round; }rect { fill:none;stroke:#555;stroke-width:2;} text{font-size:16px;font-family:Segoe UI Symbol,Cambria Math,DejaVu Sans,Symbola,Quivira,STIX,Code2000;-webkit-touch-callout:none;cursor:pointer;-webkit-user-select:none;-khtml-user-select:none;-moz-user-select:none;-ms-user-select:none;user-select: none;} #reset { font-weight:bold; }]]></style><marker id="markerStart" markerWidth="8" markerHeight="8" style="overflow:visible;"><circle cx="0" cy="0" r="1.5" style="stroke:none;fill:red;fill-opacity:0.5;"/></marker><marker id="markerEnd" style="overflow:visible;"><circle cx="0" cy="0" r="0.8" style="stroke:none;fill:blue;fill-opacity:0.5;"><animate attributeName="opacity" from="1" to="0" dur="3s" repeatCount="indefinite" /></circle></marker></defs><rect x="4" y="4" width="100" height="100" /><path d="M32.25,15.5c0.25,2-0.2,4.56-0.87,6.33C27.25,32.75,23.25,43.5,11.5,56.79" class="grey" /><path d="M23.53,43.5c0.59,0.61,0.7,1.97,0.76,3.23c0.56,11.77-1.02,40.29-0.54,47.52" class="grey" /><path d="M46.46,17.94c0.14,0.42,0.53,1.7,0.28,2.5C44.85,26.38,40.19,36,32.97,42.61" class="grey" /><path d="M47.71,24.77c0.18,0.03,1.76,0,2.27-0.09c1.7-0.28,5.13-0.56,7.4-1.64c1.63-0.77,2.14,0.68,1.71,2.31C56.77,34.28,46,52.5,34.61,58.69" class="grey" /><path d="M41.16,34.36c2.59,1.29,6.7,5.3,7.35,7.31" class="grey" /><path d="M60.97,29.04c0.69,0.14,1.94,0.12,2.62,0.04c4.34-0.55,17.89-3.45,22.59-3.64c1.14-0.05,1.83-0.01,2.4,0.05" class="grey" /><path d="M65.21,29.45c0.8,0.19,1.29,0.99,1.46,1.46c0.17,0.46,0.22,8.74,0.14,11.69" class="grey" /><path d="M57.48,43.57c0.92,0.19,2.58,0.16,3.49,0.05c5.78-0.73,23.21-3.03,30.2-3.67c1.51-0.14,2.43-0.02,3.19,0.06" class="grey" /><path d="M76.5,14.17c0.84,0.27,1.35,1.67,1.51,2.2c0.17,0.53,0,36.76-0.17,40.1" class="grey" /><path d="M32.5,66.57c1.67,0.63,3.57,0.83,5.49,0.63c9.78-1.02,36.18-3.25,50.98-4.46c1.91-0.15,3.1,0.11,5.01,0.55" class="grey" /><path d="M60.23,52.02c1,0.46,1.81,2.06,1.81,3.01c0,9.73-0.2,34.9-0.2,35.72c0,10-4.96,2.38-6.59,0.75" class="grey" /><path d="M60.33,65.81C55.06,73.81,43.66,85.49,30,90.58" class="grey" /><path d="M62.04,66.57C66.01,69.51,84.68,84.24,89,87.13c1.46,0.98,2.72,1.4,4.18,1.68" class="grey" /><path d="M32.25,15.5c0.25,2-0.2,4.56-0.87,6.33C27.25,32.75,23.25,43.5,11.5,56.79" class="stroke" stroke-dasharray="150"><animate attributeName="stroke-dashoffset" from="150" to="0" dur="1.8s" begin="0s" fill="freeze" /></path><path d="M23.53,43.5c0.59,0.61,0.7,1.97,0.76,3.23c0.56,11.77-1.02,40.29-0.54,47.52" class="stroke" stroke-dasharray="150"><set attributeName="opacity" to="0" dur="1.2s" /><animate attributeName="stroke-dashoffset" from="150" to="0" dur="1.8s" begin="1.2s" fill="freeze" /></path><path d="M46.46,17.94c0.14,0.42,0.53,1.7,0.28,2.5C44.85,26.38,40.19,36,32.97,42.61" class="stroke" stroke-dasharray="150"><set attributeName="opacity" to="0" dur="2.5s" /><animate attributeName="stroke-dashoffset" from="150" to="0" dur="1.8s" begin="2.5s" fill="freeze" /></path><path d="M47.71,24.77c0.18,0.03,1.76,0,2.27-0.09c1.7-0.28,5.13-0.56,7.4-1.64c1.63-0.77,2.14,0.68,1.71,2.31C56.77,34.28,46,52.5,34.61,58.69" class="stroke" stroke-dasharray="150"><set attributeName="opacity" to="0" dur="3.5s" /><animate attributeName="stroke-dashoffset" from="150" to="0" dur="1.8s" begin="3.5s" fill="freeze" /></path><path d="M41.16,34.36c2.59,1.29,6.7,5.3,7.35,7.31" class="stroke" stroke-dasharray="150"><set attributeName="opacity" to="0" dur="4.9s" /><animate attributeName="stroke-dashoffset" from="150" to="0" dur="1.8s" begin="4.9s" fill="freeze" /></path><path d="M60.97,29.04c0.69,0.14,1.94,0.12,2.62,0.04c4.34-0.55,17.89-3.45,22.59-3.64c1.14-0.05,1.83-0.01,2.4,0.05" class="stroke" stroke-dasharray="150"><set attributeName="opacity" to="0" dur="5.800000000000001s" /><animate attributeName="stroke-dashoffset" from="150" to="0" dur="1.8s" begin="5.800000000000001s" fill="freeze" /></path><path d="M65.21,29.45c0.8,0.19,1.29,0.99,1.46,1.46c0.17,0.46,0.22,8.74,0.14,11.69" class="stroke" stroke-dasharray="150"><set attributeName="opacity" to="0" dur="6.800000000000001s" /><animate attributeName="stroke-dashoffset" from="150" to="0" dur="1.8s" begin="6.800000000000001s" fill="freeze" /></path><path d="M57.48,43.57c0.92,0.19,2.58,0.16,3.49,0.05c5.78-0.73,23.21-3.03,30.2-3.67c1.51-0.14,2.43-0.02,3.19,0.06" class="stroke" stroke-dasharray="150"><set attributeName="opacity" to="0" dur="7.700000000000001s" /><animate attributeName="stroke-dashoffset" from="150" to="0" dur="1.8s" begin="7.700000000000001s" fill="freeze" /></path><path d="M76.5,14.17c0.84,0.27,1.35,1.67,1.51,2.2c0.17,0.53,0,36.76-0.17,40.1" class="stroke" stroke-dasharray="150"><set attributeName="opacity" to="0" dur="8.700000000000001s" /><animate attributeName="stroke-dashoffset" from="150" to="0" dur="1.8s" begin="8.700000000000001s" fill="freeze" /></path><path d="M32.5,66.57c1.67,0.63,3.57,0.83,5.49,0.63c9.78-1.02,36.18-3.25,50.98-4.46c1.91-0.15,3.1,0.11,5.01,0.55" class="stroke" stroke-dasharray="150"><set attributeName="opacity" to="0" dur="9.8s" /><animate attributeName="stroke-dashoffset" from="150" to="0" dur="1.8s" begin="9.8s" fill="freeze" /></path><path d="M60.23,52.02c1,0.46,1.81,2.06,1.81,3.01c0,9.73-0.2,34.9-0.2,35.72c0,10-4.96,2.38-6.59,0.75" class="stroke" stroke-dasharray="150"><set attributeName="opacity" to="0" dur="11.3s" /><animate attributeName="stroke-dashoffset" from="150" to="0" dur="1.8s" begin="11.3s" fill="freeze" /></path><path d="M60.33,65.81C55.06,73.81,43.66,85.49,30,90.58" class="stroke" stroke-dasharray="150"><set attributeName="opacity" to="0" dur="12.600000000000001s" /><animate attributeName="stroke-dashoffset" from="150" to="0" dur="1.8s" begin="12.600000000000001s" fill="freeze" /></path><path d="M62.04,66.57C66.01,69.51,84.68,84.24,89,87.13c1.46,0.98,2.72,1.4,4.18,1.68" class="stroke" stroke-dasharray="150"><set attributeName="opacity" to="0" dur="13.600000000000001s" /><animate attributeName="stroke-dashoffset" from="150" to="0" dur="1.8s" begin="13.600000000000001s" fill="freeze" /></path><text x="90" y="120" id="reset">⟳</text><text x="70" y="120" id="pause">◼</text><script type="text/javascript"><![CDATA[function RecurringTimer(e,t){var n,r,i=t;this.pause=function(){window.clearTimeout(n);i-=new Date-r};var s=function(){r=new Date;n=window.setTimeout(function(){i=t;s();e()},i)};this.clear=function(){window.clearTimeout(n);i=t;n=window.setTimeout(function(){i=t;s();e()},i)};this.resume=s;this.resume()}function invoketimer(){timer=new RecurringTimer(function(){svg.setCurrentTime(0)},15600)}var svg=document.getElementById("kanjivg");var pause=document.getElementById("pause");var reset=document.getElementById("reset");var timer;invoketimer();reset.onclick=function(){svg.setCurrentTime(0);timer.clear();svg.unpauseAnimations();pause.innerHTML = "◼";};pause.onclick=function(){if(svg.animationsPaused()){svg.unpauseAnimations();timer.resume();pause.innerHTML="◼"}else{svg.pauseAnimations();timer.pause();pause.innerHTML="▶"}}]]></script></svg>