<svg id="kanjivg" width="106" height="126" xmlns="http://www.w3.org/2000/svg" xmlns:xlink="http://www.w3.org/1999/xlink" xml:space="preserve" version="1.1" baseProfile="full"><defs><style type="text/css"><![CDATA[path.black { fill:none;stroke:black;stroke-width:5;stroke-linecap:round;stroke-linejoin:round; }path.grey { fill:none;stroke:#ddd;stroke-width:5;stroke-linecap:round;stroke-linejoin:round; }path.stroke { fill:none;stroke:black;stroke-width:5;stroke-linecap:round;stroke-linejoin:round; }rect { fill:none;stroke:#555;stroke-width:2;} text{font-size:16px;font-family:Segoe UI Symbol,Cambria Math,DejaVu Sans,Symbola,Quivira,STIX,Code2000;-webkit-touch-callout:none;cursor:pointer;-webkit-user-select:none;-khtml-user-select:none;-moz-user-select:none;-ms-user-select:none;user-select: none;} #reset { font-weight:bold; }]]></style><marker id="markerStart" markerWidth="8" markerHeight="8" style="overflow:visible;"><circle cx="0" cy="0" r="1.5" style="stroke:none;fill:red;fill-opacity:0.5;"/></marker><marker id="markerEnd" style="overflow:visible;"><circle cx="0" cy="0" r="0.8" style="stroke:none;fill:blue;fill-opacity:0.5;"><animate attributeName="opacity" from="1" to="0" dur="3s" repeatCount="indefinite" /></circle></marker></defs><rect x="4" y="4" width="100" height="100" /><path d="M32.5,15.25c0.25,2,0.05,3.81-0.62,5.58C27.75,31.75,23.25,43.5,11.5,56.79" class="grey" /><path d="M23.28,43.25c0.92,0.92,1.26,2.22,1.26,3.48c0,8.75-0.02,29.52-0.03,40.52c0,3.79-0.01,6.42-0.01,7" class="grey" /><path d="M46.96,18.19c0.31,0.92-0.17,2.11-0.46,2.98c-2.02,5.97-6.6,15.1-13.53,21.44" class="grey" /><path d="M47.21,25.27c0.18,0.03,1.76,0,2.27-0.09c1.53-0.25,4.88-1.16,7.18-2.08c1.84-0.73,3.27-0.01,2.68,2.25C57.02,34.28,46,52.5,34.61,58.69" class="grey" /><path d="M42.75,35.62c1.94,1.02,5.02,4.2,5.51,5.79" class="grey" /><path d="M61.97,28.54c1.38,0.29,3.38,0.09,4.8-0.03C73,28,81,26.38,85.68,25.44c1.12-0.22,2.08-0.01,2.65,0.05" class="grey" /><path d="M65.21,29.7c0.73,0.73,1.21,1.67,1.21,2.71c0,3.34-0.05,5.99-0.05,9.47" class="grey" /><path d="M57.48,43.32c1.97,0.41,4.57,0.17,6.54-0.09c5.75-0.74,19.74-2.73,25.87-3.4c1.57-0.17,2.92-0.23,4.46-0.07" class="grey" /><path d="M77,15.17c0.79,0.79,1.01,2.08,1.01,2.95c0,0.36,0.06,22.55,0.08,33.01c0,3.13,0.01,5.21,0,5.34" class="grey" /><path d="M32.25,66.32c3.75,0.8,7.01,0.36,10.13-0.07c11.47-1.59,29.96-2.82,42.87-3.73c2.92-0.2,5.88-0.14,8.73,0.52" class="grey" /><path d="M60.48,52.77c0.81,0.81,1.31,1.98,1.31,3.26c0,6.83-0.03,22.89-0.04,34.09c0,2.02,0,3.88,0,5.5" class="grey" /><path d="M59.33,65.56c0,1.32-0.96,3.02-2.19,4.51C51.3,77.15,42.88,84.5,31.12,89.75" class="grey" /><path d="M63.29,66.32c2.98,2.2,11.71,10.05,19.98,16.53c3.41,2.67,6.11,4.15,9.41,5.95" class="grey" /><path d="M32.5,15.25c0.25,2,0.05,3.81-0.62,5.58C27.75,31.75,23.25,43.5,11.5,56.79" class="stroke" stroke-dasharray="150"><animate attributeName="stroke-dashoffset" from="150" to="0" dur="1.8s" begin="0s" fill="freeze" /></path><path d="M23.28,43.25c0.92,0.92,1.26,2.22,1.26,3.48c0,8.75-0.02,29.52-0.03,40.52c0,3.79-0.01,6.42-0.01,7" class="stroke" stroke-dasharray="150"><set attributeName="opacity" to="0" dur="1.2s" /><animate attributeName="stroke-dashoffset" from="150" to="0" dur="1.8s" begin="1.2s" fill="freeze" /></path><path d="M46.96,18.19c0.31,0.92-0.17,2.11-0.46,2.98c-2.02,5.97-6.6,15.1-13.53,21.44" class="stroke" stroke-dasharray="150"><set attributeName="opacity" to="0" dur="2.5s" /><animate attributeName="stroke-dashoffset" from="150" to="0" dur="1.8s" begin="2.5s" fill="freeze" /></path><path d="M47.21,25.27c0.18,0.03,1.76,0,2.27-0.09c1.53-0.25,4.88-1.16,7.18-2.08c1.84-0.73,3.27-0.01,2.68,2.25C57.02,34.28,46,52.5,34.61,58.69" class="stroke" stroke-dasharray="150"><set attributeName="opacity" to="0" dur="3.5s" /><animate attributeName="stroke-dashoffset" from="150" to="0" dur="1.8s" begin="3.5s" fill="freeze" /></path><path d="M42.75,35.62c1.94,1.02,5.02,4.2,5.51,5.79" class="stroke" stroke-dasharray="150"><set attributeName="opacity" to="0" dur="4.9s" /><animate attributeName="stroke-dashoffset" from="150" to="0" dur="1.8s" begin="4.9s" fill="freeze" /></path><path d="M61.97,28.54c1.38,0.29,3.38,0.09,4.8-0.03C73,28,81,26.38,85.68,25.44c1.12-0.22,2.08-0.01,2.65,0.05" class="stroke" stroke-dasharray="150"><set attributeName="opacity" to="0" dur="5.800000000000001s" /><animate attributeName="stroke-dashoffset" from="150" to="0" dur="1.8s" begin="5.800000000000001s" fill="freeze" /></path><path d="M65.21,29.7c0.73,0.73,1.21,1.67,1.21,2.71c0,3.34-0.05,5.99-0.05,9.47" class="stroke" stroke-dasharray="150"><set attributeName="opacity" to="0" dur="6.800000000000001s" /><animate attributeName="stroke-dashoffset" from="150" to="0" dur="1.8s" begin="6.800000000000001s" fill="freeze" /></path><path d="M57.48,43.32c1.97,0.41,4.57,0.17,6.54-0.09c5.75-0.74,19.74-2.73,25.87-3.4c1.57-0.17,2.92-0.23,4.46-0.07" class="stroke" stroke-dasharray="150"><set attributeName="opacity" to="0" dur="7.700000000000001s" /><animate attributeName="stroke-dashoffset" from="150" to="0" dur="1.8s" begin="7.700000000000001s" fill="freeze" /></path><path d="M77,15.17c0.79,0.79,1.01,2.08,1.01,2.95c0,0.36,0.06,22.55,0.08,33.01c0,3.13,0.01,5.21,0,5.34" class="stroke" stroke-dasharray="150"><set attributeName="opacity" to="0" dur="8.700000000000001s" /><animate attributeName="stroke-dashoffset" from="150" to="0" dur="1.8s" begin="8.700000000000001s" fill="freeze" /></path><path d="M32.25,66.32c3.75,0.8,7.01,0.36,10.13-0.07c11.47-1.59,29.96-2.82,42.87-3.73c2.92-0.2,5.88-0.14,8.73,0.52" class="stroke" stroke-dasharray="150"><set attributeName="opacity" to="0" dur="9.8s" /><animate attributeName="stroke-dashoffset" from="150" to="0" dur="1.8s" begin="9.8s" fill="freeze" /></path><path d="M60.48,52.77c0.81,0.81,1.31,1.98,1.31,3.26c0,6.83-0.03,22.89-0.04,34.09c0,2.02,0,3.88,0,5.5" class="stroke" stroke-dasharray="150"><set attributeName="opacity" to="0" dur="11.3s" /><animate attributeName="stroke-dashoffset" from="150" to="0" dur="1.8s" begin="11.3s" fill="freeze" /></path><path d="M59.33,65.56c0,1.32-0.96,3.02-2.19,4.51C51.3,77.15,42.88,84.5,31.12,89.75" class="stroke" stroke-dasharray="150"><set attributeName="opacity" to="0" dur="12.4s" /><animate attributeName="stroke-dashoffset" from="150" to="0" dur="1.8s" begin="12.4s" fill="freeze" /></path><path d="M63.29,66.32c2.98,2.2,11.71,10.05,19.98,16.53c3.41,2.67,6.11,4.15,9.41,5.95" class="stroke" stroke-dasharray="150"><set attributeName="opacity" to="0" dur="13.4s" /><animate attributeName="stroke-dashoffset" from="150" to="0" dur="1.8s" begin="13.4s" fill="freeze" /></path><text x="90" y="120" id="reset">⟳</text><text x="70" y="120" id="pause">◼</text><script type="text/javascript"><![CDATA[function RecurringTimer(e,t){var n,r,i=t;this.pause=function(){window.clearTimeout(n);i-=new Date-r};var s=function(){r=new Date;n=window.setTimeout(function(){i=t;s();e()},i)};this.clear=function(){window.clearTimeout(n);i=t;n=window.setTimeout(function(){i=t;s();e()},i)};this.resume=s;this.resume()}function invoketimer(){timer=new RecurringTimer(function(){svg.setCurrentTime(0)},15400)}var svg=document.getElementById("kanjivg");var pause=document.getElementById("pause");var reset=document.getElementById("reset");var timer;invoketimer();reset.onclick=function(){svg.setCurrentTime(0);timer.clear();svg.unpauseAnimations();pause.innerHTML = "◼";};pause.onclick=function(){if(svg.animationsPaused()){svg.unpauseAnimations();timer.resume();pause.innerHTML="◼"}else{svg.pauseAnimations();timer.pause();pause.innerHTML="▶"}}]]></script></svg>