<svg id="kanjivg" width="106" height="126" xmlns="http://www.w3.org/2000/svg" xmlns:xlink="http://www.w3.org/1999/xlink" xml:space="preserve" version="1.1" baseProfile="full"><defs><style type="text/css"><![CDATA[path.black { fill:none;stroke:black;stroke-width:5;stroke-linecap:round;stroke-linejoin:round; }path.grey { fill:none;stroke:#ddd;stroke-width:5;stroke-linecap:round;stroke-linejoin:round; }path.stroke { fill:none;stroke:black;stroke-width:5;stroke-linecap:round;stroke-linejoin:round; }rect { fill:none;stroke:#555;stroke-width:2;} text{font-size:16px;font-family:Segoe UI Symbol,Cambria Math,DejaVu Sans,Symbola,Quivira,STIX,Code2000;-webkit-touch-callout:none;cursor:pointer;-webkit-user-select:none;-khtml-user-select:none;-moz-user-select:none;-ms-user-select:none;user-select: none;} #reset { font-weight:bold; }]]></style><marker id="markerStart" markerWidth="8" markerHeight="8" style="overflow:visible;"><circle cx="0" cy="0" r="1.5" style="stroke:none;fill:red;fill-opacity:0.5;"/></marker><marker id="markerEnd" style="overflow:visible;"><circle cx="0" cy="0" r="0.8" style="stroke:none;fill:blue;fill-opacity:0.5;"><animate attributeName="opacity" from="1" to="0" dur="3s" repeatCount="indefinite" /></circle></marker></defs><rect x="4" y="4" width="100" height="100" /><path d="M53.99,9.75c0.12,0.89-0.15,2.25-1,3.35C46.5,21.5,32,37.75,9.75,47.75" class="grey" /><path d="M55.25,13.38c4.8,4.77,22.51,17.93,31.54,24.38c3.36,2.4,5.21,3.88,9.96,5.35" class="grey" /><path d="M38.02,37.89c0.1,1.04-0.06,1.66-0.55,2.6c-1.91,3.71-6.38,9.47-13.41,14.47" class="grey" /><path d="M36.88,45c3.59,1.63,9.28,6.69,10.18,9.22" class="grey" /><path d="M36.27,55.39c0.11,0.83,0,1.63-0.33,2.38c-1.38,3.55-5.99,9.51-13.37,14.95" class="grey" /><path d="M36.5,63.38c3.37,1.38,8.71,5.69,9.56,7.84" class="grey" /><path d="M73.16,36.89c0.11,0.82,0,1.59-0.33,2.32c-1.29,3.16-5.57,8.7-11.45,12.91" class="grey" /><path d="M73.75,44c3.72,1.49,9.62,6.14,10.55,8.47" class="grey" /><path d="M74.02,53.64c0.11,0.86-0.02,1.66-0.4,2.42c-1.53,3.53-6.7,9.89-13.56,13.91" class="grey" /><path d="M74.25,60.5c3.64,1.54,9.4,6.32,10.31,8.72" class="grey" /><path d="M15.31,78.74c3.16,0.98,7.31,0.75,10.56,0.39c16.2-1.77,38.59-3.46,54.88-3.94c3.66-0.11,7.58,0.17,11.19,0.84" class="grey" /><path d="M52.83,32.12c0.67,0.63,1.74,1.87,1.74,4.17c0,11.59,0.05,42.86-0.04,57.22c-0.02,2.79-0.03,5.03-0.03,6.5" class="grey" /><path d="M53.99,9.75c0.12,0.89-0.15,2.25-1,3.35C46.5,21.5,32,37.75,9.75,47.75" class="stroke" stroke-dasharray="150"><animate attributeName="stroke-dashoffset" from="150" to="0" dur="1.8s" begin="0s" fill="freeze" /></path><path d="M55.25,13.38c4.8,4.77,22.51,17.93,31.54,24.38c3.36,2.4,5.21,3.88,9.96,5.35" class="stroke" stroke-dasharray="150"><set attributeName="opacity" to="0" dur="1.4s" /><animate attributeName="stroke-dashoffset" from="150" to="0" dur="1.8s" begin="1.4s" fill="freeze" /></path><path d="M38.02,37.89c0.1,1.04-0.06,1.66-0.55,2.6c-1.91,3.71-6.38,9.47-13.41,14.47" class="stroke" stroke-dasharray="150"><set attributeName="opacity" to="0" dur="2.7s" /><animate attributeName="stroke-dashoffset" from="150" to="0" dur="1.8s" begin="2.7s" fill="freeze" /></path><path d="M36.88,45c3.59,1.63,9.28,6.69,10.18,9.22" class="stroke" stroke-dasharray="150"><set attributeName="opacity" to="0" dur="3.7s" /><animate attributeName="stroke-dashoffset" from="150" to="0" dur="1.8s" begin="3.7s" fill="freeze" /></path><path d="M36.27,55.39c0.11,0.83,0,1.63-0.33,2.38c-1.38,3.55-5.99,9.51-13.37,14.95" class="stroke" stroke-dasharray="150"><set attributeName="opacity" to="0" dur="4.6000000000000005s" /><animate attributeName="stroke-dashoffset" from="150" to="0" dur="1.8s" begin="4.6000000000000005s" fill="freeze" /></path><path d="M36.5,63.38c3.37,1.38,8.71,5.69,9.56,7.84" class="stroke" stroke-dasharray="150"><set attributeName="opacity" to="0" dur="5.6000000000000005s" /><animate attributeName="stroke-dashoffset" from="150" to="0" dur="1.8s" begin="5.6000000000000005s" fill="freeze" /></path><path d="M73.16,36.89c0.11,0.82,0,1.59-0.33,2.32c-1.29,3.16-5.57,8.7-11.45,12.91" class="stroke" stroke-dasharray="150"><set attributeName="opacity" to="0" dur="6.500000000000001s" /><animate attributeName="stroke-dashoffset" from="150" to="0" dur="1.8s" begin="6.500000000000001s" fill="freeze" /></path><path d="M73.75,44c3.72,1.49,9.62,6.14,10.55,8.47" class="stroke" stroke-dasharray="150"><set attributeName="opacity" to="0" dur="7.400000000000001s" /><animate attributeName="stroke-dashoffset" from="150" to="0" dur="1.8s" begin="7.400000000000001s" fill="freeze" /></path><path d="M74.02,53.64c0.11,0.86-0.02,1.66-0.4,2.42c-1.53,3.53-6.7,9.89-13.56,13.91" class="stroke" stroke-dasharray="150"><set attributeName="opacity" to="0" dur="8.3s" /><animate attributeName="stroke-dashoffset" from="150" to="0" dur="1.8s" begin="8.3s" fill="freeze" /></path><path d="M74.25,60.5c3.64,1.54,9.4,6.32,10.31,8.72" class="stroke" stroke-dasharray="150"><set attributeName="opacity" to="0" dur="9.3s" /><animate attributeName="stroke-dashoffset" from="150" to="0" dur="1.8s" begin="9.3s" fill="freeze" /></path><path d="M15.31,78.74c3.16,0.98,7.31,0.75,10.56,0.39c16.2-1.77,38.59-3.46,54.88-3.94c3.66-0.11,7.58,0.17,11.19,0.84" class="stroke" stroke-dasharray="150"><set attributeName="opacity" to="0" dur="10.200000000000001s" /><animate attributeName="stroke-dashoffset" from="150" to="0" dur="1.8s" begin="10.200000000000001s" fill="freeze" /></path><path d="M52.83,32.12c0.67,0.63,1.74,1.87,1.74,4.17c0,11.59,0.05,42.86-0.04,57.22c-0.02,2.79-0.03,5.03-0.03,6.5" class="stroke" stroke-dasharray="150"><set attributeName="opacity" to="0" dur="11.9s" /><animate attributeName="stroke-dashoffset" from="150" to="0" dur="1.8s" begin="11.9s" fill="freeze" /></path><text x="90" y="120" id="reset">⟳</text><text x="70" y="120" id="pause">◼</text><script type="text/javascript"><![CDATA[function RecurringTimer(e,t){var n,r,i=t;this.pause=function(){window.clearTimeout(n);i-=new Date-r};var s=function(){r=new Date;n=window.setTimeout(function(){i=t;s();e()},i)};this.clear=function(){window.clearTimeout(n);i=t;n=window.setTimeout(function(){i=t;s();e()},i)};this.resume=s;this.resume()}function invoketimer(){timer=new RecurringTimer(function(){svg.setCurrentTime(0)},14400)}var svg=document.getElementById("kanjivg");var pause=document.getElementById("pause");var reset=document.getElementById("reset");var timer;invoketimer();reset.onclick=function(){svg.setCurrentTime(0);timer.clear();svg.unpauseAnimations();pause.innerHTML = "◼";};pause.onclick=function(){if(svg.animationsPaused()){svg.unpauseAnimations();timer.resume();pause.innerHTML="◼"}else{svg.pauseAnimations();timer.pause();pause.innerHTML="▶"}}]]></script></svg>