<svg id="kanjivg" width="106" height="126" xmlns="http://www.w3.org/2000/svg" xmlns:xlink="http://www.w3.org/1999/xlink" xml:space="preserve" version="1.1" baseProfile="full"><defs><style type="text/css"><![CDATA[path.black { fill:none;stroke:black;stroke-width:5;stroke-linecap:round;stroke-linejoin:round; }path.grey { fill:none;stroke:#ddd;stroke-width:5;stroke-linecap:round;stroke-linejoin:round; }path.stroke { fill:none;stroke:black;stroke-width:5;stroke-linecap:round;stroke-linejoin:round; }rect { fill:none;stroke:#555;stroke-width:2;} text{font-size:16px;font-family:Segoe UI Symbol,Cambria Math,DejaVu Sans,Symbola,Quivira,STIX,Code2000;-webkit-touch-callout:none;cursor:pointer;-webkit-user-select:none;-khtml-user-select:none;-moz-user-select:none;-ms-user-select:none;user-select: none;} #reset { font-weight:bold; }]]></style><marker id="markerStart" markerWidth="8" markerHeight="8" style="overflow:visible;"><circle cx="0" cy="0" r="1.5" style="stroke:none;fill:red;fill-opacity:0.5;"/></marker><marker id="markerEnd" style="overflow:visible;"><circle cx="0" cy="0" r="0.8" style="stroke:none;fill:blue;fill-opacity:0.5;"><animate attributeName="opacity" from="1" to="0" dur="3s" repeatCount="indefinite" /></circle></marker></defs><rect x="4" y="4" width="100" height="100" /><path d="M33.25,16.5c0.25,2.25-0.07,5.19-0.87,7.11C27.25,35.87,20.75,47.38,9,62.3" class="grey" /><path d="M26.53,44.01c1.18,10.23-0.82,42.76-0.28,51.74" class="grey" /><path d="M57.23,14.15c1.77,1.35,3.52,3.35,4.68,5.84" class="grey" /><path d="M40.66,27.51c0.72,0.04,2.35,0.37,3.04,0.22c2.83-0.61,22.81-3.53,36.31-5.29c1.18-0.15,1.89-0.18,2.48-0.19" class="grey" /><path d="M49.66,30.17c2.66,3.68,3.21,7.3,3.59,9.94" class="grey" /><path d="M72.18,26.43c0.32,1.32-0.06,2.6-0.2,2.98c-1.4,3.87-3.63,8.93-4.67,11.14" class="grey" /><path d="M35.75,44.88c1.26,0.03,2.74-0.13,3.94-0.25c19.08-1.85,30.99-5.5,47.2-6.14c2.07-0.08,4.37-0.16,5.61,0.23" class="grey" /><path d="M43.7,51.88c0.47,0.49,1.27,1.43,1.27,2.12c0,0.7,3.6,19.17,3.6,19.52c0,0.35,0.2,1.29,0.2,2" class="grey" /><path d="M45.74,54.05c2.63-0.28,29.37-4.3,31.69-4.82c2.32-0.52,3.51,0.5,3.05,3.44c-0.6,3.88-2.7,13.56-3.7,19.62" class="grey" /><path d="M47.46,63.28c5.22-0.38,10.46-1.39,15.64-2.13c1.74-0.25,3.48-0.5,5.15-0.74" class="grey" /><path d="M49.65,72.85c5.27-0.38,19.16-2.12,25.97-2.6" class="grey" /><path d="M42.04,81.83c0.28,1.75-2.75,9.64-4.96,12.67" class="grey" /><path d="M50.58,80.89c6.49,10.21,17.25,17.59,34.11,15.14c5.11-0.74,5.11-2.55,2.31-5.08" class="grey" /><path d="M67.04,79.1c1.44,2.09,5.21,6.74,6.1,3.7" class="grey" /><path d="M91.19,75.66c2.62,1.48,5.06,4.59,6.71,7.11" class="grey" /><path d="M33.25,16.5c0.25,2.25-0.07,5.19-0.87,7.11C27.25,35.87,20.75,47.38,9,62.3" class="stroke" stroke-dasharray="150"><animate attributeName="stroke-dashoffset" from="150" to="0" dur="1.8s" begin="0s" fill="freeze" /></path><path d="M26.53,44.01c1.18,10.23-0.82,42.76-0.28,51.74" class="stroke" stroke-dasharray="150"><set attributeName="opacity" to="0" dur="1.3s" /><animate attributeName="stroke-dashoffset" from="150" to="0" dur="1.8s" begin="1.3s" fill="freeze" /></path><path d="M57.23,14.15c1.77,1.35,3.52,3.35,4.68,5.84" class="stroke" stroke-dasharray="150"><set attributeName="opacity" to="0" dur="2.6s" /><animate attributeName="stroke-dashoffset" from="150" to="0" dur="1.8s" begin="2.6s" fill="freeze" /></path><path d="M40.66,27.51c0.72,0.04,2.35,0.37,3.04,0.22c2.83-0.61,22.81-3.53,36.31-5.29c1.18-0.15,1.89-0.18,2.48-0.19" class="stroke" stroke-dasharray="150"><set attributeName="opacity" to="0" dur="3.5s" /><animate attributeName="stroke-dashoffset" from="150" to="0" dur="1.8s" begin="3.5s" fill="freeze" /></path><path d="M49.66,30.17c2.66,3.68,3.21,7.3,3.59,9.94" class="stroke" stroke-dasharray="150"><set attributeName="opacity" to="0" dur="4.6s" /><animate attributeName="stroke-dashoffset" from="150" to="0" dur="1.8s" begin="4.6s" fill="freeze" /></path><path d="M72.18,26.43c0.32,1.32-0.06,2.6-0.2,2.98c-1.4,3.87-3.63,8.93-4.67,11.14" class="stroke" stroke-dasharray="150"><set attributeName="opacity" to="0" dur="5.5s" /><animate attributeName="stroke-dashoffset" from="150" to="0" dur="1.8s" begin="5.5s" fill="freeze" /></path><path d="M35.75,44.88c1.26,0.03,2.74-0.13,3.94-0.25c19.08-1.85,30.99-5.5,47.2-6.14c2.07-0.08,4.37-0.16,5.61,0.23" class="stroke" stroke-dasharray="150"><set attributeName="opacity" to="0" dur="6.4s" /><animate attributeName="stroke-dashoffset" from="150" to="0" dur="1.8s" begin="6.4s" fill="freeze" /></path><path d="M43.7,51.88c0.47,0.49,1.27,1.43,1.27,2.12c0,0.7,3.6,19.17,3.6,19.52c0,0.35,0.2,1.29,0.2,2" class="stroke" stroke-dasharray="150"><set attributeName="opacity" to="0" dur="7.800000000000001s" /><animate attributeName="stroke-dashoffset" from="150" to="0" dur="1.8s" begin="7.800000000000001s" fill="freeze" /></path><path d="M45.74,54.05c2.63-0.28,29.37-4.3,31.69-4.82c2.32-0.52,3.51,0.5,3.05,3.44c-0.6,3.88-2.7,13.56-3.7,19.62" class="stroke" stroke-dasharray="150"><set attributeName="opacity" to="0" dur="8.8s" /><animate attributeName="stroke-dashoffset" from="150" to="0" dur="1.8s" begin="8.8s" fill="freeze" /></path><path d="M47.46,63.28c5.22-0.38,10.46-1.39,15.64-2.13c1.74-0.25,3.48-0.5,5.15-0.74" class="stroke" stroke-dasharray="150"><set attributeName="opacity" to="0" dur="10.200000000000001s" /><animate attributeName="stroke-dashoffset" from="150" to="0" dur="1.8s" begin="10.200000000000001s" fill="freeze" /></path><path d="M49.65,72.85c5.27-0.38,19.16-2.12,25.97-2.6" class="stroke" stroke-dasharray="150"><set attributeName="opacity" to="0" dur="11.200000000000001s" /><animate attributeName="stroke-dashoffset" from="150" to="0" dur="1.8s" begin="11.200000000000001s" fill="freeze" /></path><path d="M42.04,81.83c0.28,1.75-2.75,9.64-4.96,12.67" class="stroke" stroke-dasharray="150"><set attributeName="opacity" to="0" dur="12.200000000000001s" /><animate attributeName="stroke-dashoffset" from="150" to="0" dur="1.8s" begin="12.200000000000001s" fill="freeze" /></path><path d="M50.58,80.89c6.49,10.21,17.25,17.59,34.11,15.14c5.11-0.74,5.11-2.55,2.31-5.08" class="stroke" stroke-dasharray="150"><set attributeName="opacity" to="0" dur="13.100000000000001s" /><animate attributeName="stroke-dashoffset" from="150" to="0" dur="1.8s" begin="13.100000000000001s" fill="freeze" /></path><path d="M67.04,79.1c1.44,2.09,5.21,6.74,6.1,3.7" class="stroke" stroke-dasharray="150"><set attributeName="opacity" to="0" dur="14.3s" /><animate attributeName="stroke-dashoffset" from="150" to="0" dur="1.8s" begin="14.3s" fill="freeze" /></path><path d="M91.19,75.66c2.62,1.48,5.06,4.59,6.71,7.11" class="stroke" stroke-dasharray="150"><set attributeName="opacity" to="0" dur="15.200000000000001s" /><animate attributeName="stroke-dashoffset" from="150" to="0" dur="1.8s" begin="15.200000000000001s" fill="freeze" /></path><text x="90" y="120" id="reset">⟳</text><text x="70" y="120" id="pause">◼</text><script type="text/javascript"><![CDATA[function RecurringTimer(e,t){var n,r,i=t;this.pause=function(){window.clearTimeout(n);i-=new Date-r};var s=function(){r=new Date;n=window.setTimeout(function(){i=t;s();e()},i)};this.clear=function(){window.clearTimeout(n);i=t;n=window.setTimeout(function(){i=t;s();e()},i)};this.resume=s;this.resume()}function invoketimer(){timer=new RecurringTimer(function(){svg.setCurrentTime(0)},17100)}var svg=document.getElementById("kanjivg");var pause=document.getElementById("pause");var reset=document.getElementById("reset");var timer;invoketimer();reset.onclick=function(){svg.setCurrentTime(0);timer.clear();svg.unpauseAnimations();pause.innerHTML = "◼";};pause.onclick=function(){if(svg.animationsPaused()){svg.unpauseAnimations();timer.resume();pause.innerHTML="◼"}else{svg.pauseAnimations();timer.pause();pause.innerHTML="▶"}}]]></script></svg>