<svg id="kanjivg" width="106" height="126" xmlns="http://www.w3.org/2000/svg" xmlns:xlink="http://www.w3.org/1999/xlink" xml:space="preserve" version="1.1" baseProfile="full"><defs><style type="text/css"><![CDATA[path.black { fill:none;stroke:black;stroke-width:5;stroke-linecap:round;stroke-linejoin:round; }path.grey { fill:none;stroke:#ddd;stroke-width:5;stroke-linecap:round;stroke-linejoin:round; }path.stroke { fill:none;stroke:black;stroke-width:5;stroke-linecap:round;stroke-linejoin:round; }rect { fill:none;stroke:#555;stroke-width:2;} text{font-size:16px;font-family:Segoe UI Symbol,Cambria Math,DejaVu Sans,Symbola,Quivira,STIX,Code2000;-webkit-touch-callout:none;cursor:pointer;-webkit-user-select:none;-khtml-user-select:none;-moz-user-select:none;-ms-user-select:none;user-select: none;} #reset { font-weight:bold; }]]></style><marker id="markerStart" markerWidth="8" markerHeight="8" style="overflow:visible;"><circle cx="0" cy="0" r="1.5" style="stroke:none;fill:red;fill-opacity:0.5;"/></marker><marker id="markerEnd" style="overflow:visible;"><circle cx="0" cy="0" r="0.8" style="stroke:none;fill:blue;fill-opacity:0.5;"><animate attributeName="opacity" from="1" to="0" dur="3s" repeatCount="indefinite" /></circle></marker></defs><rect x="4" y="4" width="100" height="100" /><path d="M33.44,17c0.13,1.23,0.22,2.78-0.11,4.29C31.19,30.86,22.94,49.36,13,62.32" class="grey" /><path d="M27.48,44.11c0.59,0.61,0.76,1.97,0.76,3.23c0,13.02-0.29,40.15-0.29,48.9" class="grey" /><path d="M62.47,10.25c0.09,0.98,0.41,2.61-0.19,3.93C58.49,22.5,47.74,40,29.75,51.75" class="grey" /><path d="M62.7,13.5c5.05,6.22,26.79,26.55,32.35,31.1c1.89,1.55,4.31,2.21,6.2,2.65" class="grey" /><path d="M51.25,41.11c0.49,0.19,1.38,0.2,1.87,0.19c3.74-0.05,19.36-2.66,22.36-2.44c0.81,0.06,1.3,0.09,1.71,0.19" class="grey" /><path d="M39.1,53.75c0.3,0.34,0.61,0.62,0.75,1.05c1.05,3.37,2.78,12.65,3.5,18.7" class="grey" /><path d="M40.52,55.54c7.69-1.54,14.23-3.2,17.79-3.64c1.3-0.16,2.08,0.96,1.89,1.91c-0.77,3.93-1.67,9.68-2.81,15.12" class="grey" /><path d="M43.49,71.54c4.18-0.5,10.4-1.36,16.13-2.13" class="grey" /><path d="M67.14,52.09c0.31,0.31,0.63,0.57,0.76,0.95c1.08,3.07,2.36,11.53,3.1,17.04" class="grey" /><path d="M69.07,53.67c6.48-1.17,14.07-1.87,17.7-2.27c1.33-0.15,2.13,0.87,1.93,1.74c-0.79,3.58-1.71,8.41-2.88,13.37" class="grey" /><path d="M71.14,68.89c4.27-0.46,10.15-1.24,16.01-1.94" class="grey" /><path d="M51.74,72.62c0.21,1.13,0.13,2.22-0.15,2.95C49.14,82,43.54,90.5,33.49,98.25" class="grey" /><path d="M50.94,80.32c3.84,1.87,8.75,6.84,10.62,11.56" class="grey" /><path d="M77.94,71.37c0.19,1.19,0.12,2.33-0.13,3.1c-2.21,6.74-7.25,15.66-16.28,23.79" class="grey" /><path d="M77.64,79.7c5.68,2.89,12.93,10.58,15.69,17.87" class="grey" /><path d="M33.44,17c0.13,1.23,0.22,2.78-0.11,4.29C31.19,30.86,22.94,49.36,13,62.32" class="stroke" stroke-dasharray="150"><animate attributeName="stroke-dashoffset" from="150" to="0" dur="1.8s" begin="0s" fill="freeze" /></path><path d="M27.48,44.11c0.59,0.61,0.76,1.97,0.76,3.23c0,13.02-0.29,40.15-0.29,48.9" class="stroke" stroke-dasharray="150"><set attributeName="opacity" to="0" dur="1.3s" /><animate attributeName="stroke-dashoffset" from="150" to="0" dur="1.8s" begin="1.3s" fill="freeze" /></path><path d="M62.47,10.25c0.09,0.98,0.41,2.61-0.19,3.93C58.49,22.5,47.74,40,29.75,51.75" class="stroke" stroke-dasharray="150"><set attributeName="opacity" to="0" dur="2.6s" /><animate attributeName="stroke-dashoffset" from="150" to="0" dur="1.8s" begin="2.6s" fill="freeze" /></path><path d="M62.7,13.5c5.05,6.22,26.79,26.55,32.35,31.1c1.89,1.55,4.31,2.21,6.2,2.65" class="stroke" stroke-dasharray="150"><set attributeName="opacity" to="0" dur="3.9000000000000004s" /><animate attributeName="stroke-dashoffset" from="150" to="0" dur="1.8s" begin="3.9000000000000004s" fill="freeze" /></path><path d="M51.25,41.11c0.49,0.19,1.38,0.2,1.87,0.19c3.74-0.05,19.36-2.66,22.36-2.44c0.81,0.06,1.3,0.09,1.71,0.19" class="stroke" stroke-dasharray="150"><set attributeName="opacity" to="0" dur="5.2s" /><animate attributeName="stroke-dashoffset" from="150" to="0" dur="1.8s" begin="5.2s" fill="freeze" /></path><path d="M39.1,53.75c0.3,0.34,0.61,0.62,0.75,1.05c1.05,3.37,2.78,12.65,3.5,18.7" class="stroke" stroke-dasharray="150"><set attributeName="opacity" to="0" dur="6.2s" /><animate attributeName="stroke-dashoffset" from="150" to="0" dur="1.8s" begin="6.2s" fill="freeze" /></path><path d="M40.52,55.54c7.69-1.54,14.23-3.2,17.79-3.64c1.3-0.16,2.08,0.96,1.89,1.91c-0.77,3.93-1.67,9.68-2.81,15.12" class="stroke" stroke-dasharray="150"><set attributeName="opacity" to="0" dur="7.2s" /><animate attributeName="stroke-dashoffset" from="150" to="0" dur="1.8s" begin="7.2s" fill="freeze" /></path><path d="M43.49,71.54c4.18-0.5,10.4-1.36,16.13-2.13" class="stroke" stroke-dasharray="150"><set attributeName="opacity" to="0" dur="8.2s" /><animate attributeName="stroke-dashoffset" from="150" to="0" dur="1.8s" begin="8.2s" fill="freeze" /></path><path d="M67.14,52.09c0.31,0.31,0.63,0.57,0.76,0.95c1.08,3.07,2.36,11.53,3.1,17.04" class="stroke" stroke-dasharray="150"><set attributeName="opacity" to="0" dur="9.1s" /><animate attributeName="stroke-dashoffset" from="150" to="0" dur="1.8s" begin="9.1s" fill="freeze" /></path><path d="M69.07,53.67c6.48-1.17,14.07-1.87,17.7-2.27c1.33-0.15,2.13,0.87,1.93,1.74c-0.79,3.58-1.71,8.41-2.88,13.37" class="stroke" stroke-dasharray="150"><set attributeName="opacity" to="0" dur="10.0s" /><animate attributeName="stroke-dashoffset" from="150" to="0" dur="1.8s" begin="10.0s" fill="freeze" /></path><path d="M71.14,68.89c4.27-0.46,10.15-1.24,16.01-1.94" class="stroke" stroke-dasharray="150"><set attributeName="opacity" to="0" dur="11.0s" /><animate attributeName="stroke-dashoffset" from="150" to="0" dur="1.8s" begin="11.0s" fill="freeze" /></path><path d="M51.74,72.62c0.21,1.13,0.13,2.22-0.15,2.95C49.14,82,43.54,90.5,33.49,98.25" class="stroke" stroke-dasharray="150"><set attributeName="opacity" to="0" dur="11.9s" /><animate attributeName="stroke-dashoffset" from="150" to="0" dur="1.8s" begin="11.9s" fill="freeze" /></path><path d="M50.94,80.32c3.84,1.87,8.75,6.84,10.62,11.56" class="stroke" stroke-dasharray="150"><set attributeName="opacity" to="0" dur="12.9s" /><animate attributeName="stroke-dashoffset" from="150" to="0" dur="1.8s" begin="12.9s" fill="freeze" /></path><path d="M77.94,71.37c0.19,1.19,0.12,2.33-0.13,3.1c-2.21,6.74-7.25,15.66-16.28,23.79" class="stroke" stroke-dasharray="150"><set attributeName="opacity" to="0" dur="13.8s" /><animate attributeName="stroke-dashoffset" from="150" to="0" dur="1.8s" begin="13.8s" fill="freeze" /></path><path d="M77.64,79.7c5.68,2.89,12.93,10.58,15.69,17.87" class="stroke" stroke-dasharray="150"><set attributeName="opacity" to="0" dur="14.8s" /><animate attributeName="stroke-dashoffset" from="150" to="0" dur="1.8s" begin="14.8s" fill="freeze" /></path><text x="90" y="120" id="reset">⟳</text><text x="70" y="120" id="pause">◼</text><script type="text/javascript"><![CDATA[function RecurringTimer(e,t){var n,r,i=t;this.pause=function(){window.clearTimeout(n);i-=new Date-r};var s=function(){r=new Date;n=window.setTimeout(function(){i=t;s();e()},i)};this.clear=function(){window.clearTimeout(n);i=t;n=window.setTimeout(function(){i=t;s();e()},i)};this.resume=s;this.resume()}function invoketimer(){timer=new RecurringTimer(function(){svg.setCurrentTime(0)},16800)}var svg=document.getElementById("kanjivg");var pause=document.getElementById("pause");var reset=document.getElementById("reset");var timer;invoketimer();reset.onclick=function(){svg.setCurrentTime(0);timer.clear();svg.unpauseAnimations();pause.innerHTML = "◼";};pause.onclick=function(){if(svg.animationsPaused()){svg.unpauseAnimations();timer.resume();pause.innerHTML="◼"}else{svg.pauseAnimations();timer.pause();pause.innerHTML="▶"}}]]></script></svg>