<svg id="kanjivg" width="106" height="126" xmlns="http://www.w3.org/2000/svg" xmlns:xlink="http://www.w3.org/1999/xlink" xml:space="preserve" version="1.1" baseProfile="full"><defs><style type="text/css"><![CDATA[path.black { fill:none;stroke:black;stroke-width:5;stroke-linecap:round;stroke-linejoin:round; }path.grey { fill:none;stroke:#ddd;stroke-width:5;stroke-linecap:round;stroke-linejoin:round; }path.stroke { fill:none;stroke:black;stroke-width:5;stroke-linecap:round;stroke-linejoin:round; }rect { fill:none;stroke:#555;stroke-width:2;} text{font-size:16px;font-family:Segoe UI Symbol,Cambria Math,DejaVu Sans,Symbola,Quivira,STIX,Code2000;-webkit-touch-callout:none;cursor:pointer;-webkit-user-select:none;-khtml-user-select:none;-moz-user-select:none;-ms-user-select:none;user-select: none;} #reset { font-weight:bold; }]]></style><marker id="markerStart" markerWidth="8" markerHeight="8" style="overflow:visible;"><circle cx="0" cy="0" r="1.5" style="stroke:none;fill:red;fill-opacity:0.5;"/></marker><marker id="markerEnd" style="overflow:visible;"><circle cx="0" cy="0" r="0.8" style="stroke:none;fill:blue;fill-opacity:0.5;"><animate attributeName="opacity" from="1" to="0" dur="3s" repeatCount="indefinite" /></circle></marker></defs><rect x="4" y="4" width="100" height="100" /><path d="M31.25,19.62c0.24,1.88-0.05,2.96-0.73,4.56c-4.34,10.24-9.27,19.94-19.27,30.56" class="grey" /><path d="M24.03,41.25c0.92,0.92,1.26,2.22,1.26,3.48c0,10.9-0.03,32.68-0.04,44.77c0,2.9,0,5.25,0,6.75" class="grey" /><path d="M47.25,15.5c2.44,1.22,6.3,5.01,6.91,6.91" class="grey" /><path d="M75.19,11.14c0.11,0.72-0.05,1.62-0.38,2.26c-2.06,3.85-3.79,6.02-7.33,10.2" class="grey" /><path d="M44.01,28.95c1.44,0.6,3.76,0.19,5.24-0.06c6.14-1.03,20.06-3.39,26.75-4.01c1.65-0.15,3.41-0.36,5.04,0.05" class="grey" /><path d="M61.07,28.4c0.83,0.83,1.09,1.85,1.09,2.99c0,0.63-0.04,8.99-0.04,13.49" class="grey" /><path d="M43.52,38.79c1.6,0.33,3.49,0.25,4.84,0.05c5.92-0.89,19.9-3.09,26.77-3.74c1.65-0.16,3.41-0.36,5.04,0.05" class="grey" /><path d="M37.52,48.74c2.21,0.81,5.21,0.29,7.47-0.05c8.58-1.3,27.65-4.06,38-5.15c2.47-0.26,4.87-0.34,7.31,0.2" class="grey" /><path d="M55.25,50.75c0.16,0.98-0.44,1.82-1.14,2.6c-2.26,2.5-5.89,4.92-13.66,8.82" class="grey" /><path d="M35.29,68.79c3.21,0.58,5.93,0.35,8.6-0.24c10.99-2.42,28.11-6.3,39.73-7.51c3.25-0.34,6.12-0.68,9.34-0.01" class="grey" /><path d="M52.35,59.19c0.67,0.67,1.04,1.81,1.04,3.05c0,8.72,0.04,26.82,0.04,29.78c0,7.6-4.56,1.85-5.83,0.18" class="grey" /><path d="M35.75,84.67c1.04,1.04,2.16,0.99,3.94-0.16c2.93-1.89,13.18-8.64,18.96-12.41" class="grey" /><path d="M65.93,50.45c1.12,1.06,1.59,2.37,1.99,4.63c3.46,19.68,9.83,29.68,21.96,39.18c6.1,4.78,7.62,3.25,5.79-4.7" class="grey" /><path d="M85.5,67.77c0,0.86-0.27,1.61-0.63,2.31c-3.37,6.55-10.34,12.85-23.12,18.68" class="grey" /><path d="M77.5,49.25c1.98,1.14,5.14,3.76,6.07,5.72" class="grey" /><path d="M31.25,19.62c0.24,1.88-0.05,2.96-0.73,4.56c-4.34,10.24-9.27,19.94-19.27,30.56" class="stroke" stroke-dasharray="150"><animate attributeName="stroke-dashoffset" from="150" to="0" dur="1.8s" begin="0s" fill="freeze" /></path><path d="M24.03,41.25c0.92,0.92,1.26,2.22,1.26,3.48c0,10.9-0.03,32.68-0.04,44.77c0,2.9,0,5.25,0,6.75" class="stroke" stroke-dasharray="150"><set attributeName="opacity" to="0" dur="1.1s" /><animate attributeName="stroke-dashoffset" from="150" to="0" dur="1.8s" begin="1.1s" fill="freeze" /></path><path d="M47.25,15.5c2.44,1.22,6.3,5.01,6.91,6.91" class="stroke" stroke-dasharray="150"><set attributeName="opacity" to="0" dur="2.5s" /><animate attributeName="stroke-dashoffset" from="150" to="0" dur="1.8s" begin="2.5s" fill="freeze" /></path><path d="M75.19,11.14c0.11,0.72-0.05,1.62-0.38,2.26c-2.06,3.85-3.79,6.02-7.33,10.2" class="stroke" stroke-dasharray="150"><set attributeName="opacity" to="0" dur="3.4s" /><animate attributeName="stroke-dashoffset" from="150" to="0" dur="1.8s" begin="3.4s" fill="freeze" /></path><path d="M44.01,28.95c1.44,0.6,3.76,0.19,5.24-0.06c6.14-1.03,20.06-3.39,26.75-4.01c1.65-0.15,3.41-0.36,5.04,0.05" class="stroke" stroke-dasharray="150"><set attributeName="opacity" to="0" dur="4.3s" /><animate attributeName="stroke-dashoffset" from="150" to="0" dur="1.8s" begin="4.3s" fill="freeze" /></path><path d="M61.07,28.4c0.83,0.83,1.09,1.85,1.09,2.99c0,0.63-0.04,8.99-0.04,13.49" class="stroke" stroke-dasharray="150"><set attributeName="opacity" to="0" dur="5.3s" /><animate attributeName="stroke-dashoffset" from="150" to="0" dur="1.8s" begin="5.3s" fill="freeze" /></path><path d="M43.52,38.79c1.6,0.33,3.49,0.25,4.84,0.05c5.92-0.89,19.9-3.09,26.77-3.74c1.65-0.16,3.41-0.36,5.04,0.05" class="stroke" stroke-dasharray="150"><set attributeName="opacity" to="0" dur="6.2s" /><animate attributeName="stroke-dashoffset" from="150" to="0" dur="1.8s" begin="6.2s" fill="freeze" /></path><path d="M37.52,48.74c2.21,0.81,5.21,0.29,7.47-0.05c8.58-1.3,27.65-4.06,38-5.15c2.47-0.26,4.87-0.34,7.31,0.2" class="stroke" stroke-dasharray="150"><set attributeName="opacity" to="0" dur="7.2s" /><animate attributeName="stroke-dashoffset" from="150" to="0" dur="1.8s" begin="7.2s" fill="freeze" /></path><path d="M55.25,50.75c0.16,0.98-0.44,1.82-1.14,2.6c-2.26,2.5-5.89,4.92-13.66,8.82" class="stroke" stroke-dasharray="150"><set attributeName="opacity" to="0" dur="8.5s" /><animate attributeName="stroke-dashoffset" from="150" to="0" dur="1.8s" begin="8.5s" fill="freeze" /></path><path d="M35.29,68.79c3.21,0.58,5.93,0.35,8.6-0.24c10.99-2.42,28.11-6.3,39.73-7.51c3.25-0.34,6.12-0.68,9.34-0.01" class="stroke" stroke-dasharray="150"><set attributeName="opacity" to="0" dur="9.4s" /><animate attributeName="stroke-dashoffset" from="150" to="0" dur="1.8s" begin="9.4s" fill="freeze" /></path><path d="M52.35,59.19c0.67,0.67,1.04,1.81,1.04,3.05c0,8.72,0.04,26.82,0.04,29.78c0,7.6-4.56,1.85-5.83,0.18" class="stroke" stroke-dasharray="150"><set attributeName="opacity" to="0" dur="10.8s" /><animate attributeName="stroke-dashoffset" from="150" to="0" dur="1.8s" begin="10.8s" fill="freeze" /></path><path d="M35.75,84.67c1.04,1.04,2.16,0.99,3.94-0.16c2.93-1.89,13.18-8.64,18.96-12.41" class="stroke" stroke-dasharray="150"><set attributeName="opacity" to="0" dur="11.9s" /><animate attributeName="stroke-dashoffset" from="150" to="0" dur="1.8s" begin="11.9s" fill="freeze" /></path><path d="M65.93,50.45c1.12,1.06,1.59,2.37,1.99,4.63c3.46,19.68,9.83,29.68,21.96,39.18c6.1,4.78,7.62,3.25,5.79-4.7" class="stroke" stroke-dasharray="150"><set attributeName="opacity" to="0" dur="12.9s" /><animate attributeName="stroke-dashoffset" from="150" to="0" dur="1.8s" begin="12.9s" fill="freeze" /></path><path d="M85.5,67.77c0,0.86-0.27,1.61-0.63,2.31c-3.37,6.55-10.34,12.85-23.12,18.68" class="stroke" stroke-dasharray="150"><set attributeName="opacity" to="0" dur="14.4s" /><animate attributeName="stroke-dashoffset" from="150" to="0" dur="1.8s" begin="14.4s" fill="freeze" /></path><path d="M77.5,49.25c1.98,1.14,5.14,3.76,6.07,5.72" class="stroke" stroke-dasharray="150"><set attributeName="opacity" to="0" dur="15.4s" /><animate attributeName="stroke-dashoffset" from="150" to="0" dur="1.8s" begin="15.4s" fill="freeze" /></path><text x="90" y="120" id="reset">⟳</text><text x="70" y="120" id="pause">◼</text><script type="text/javascript"><![CDATA[function RecurringTimer(e,t){var n,r,i=t;this.pause=function(){window.clearTimeout(n);i-=new Date-r};var s=function(){r=new Date;n=window.setTimeout(function(){i=t;s();e()},i)};this.clear=function(){window.clearTimeout(n);i=t;n=window.setTimeout(function(){i=t;s();e()},i)};this.resume=s;this.resume()}function invoketimer(){timer=new RecurringTimer(function(){svg.setCurrentTime(0)},17300)}var svg=document.getElementById("kanjivg");var pause=document.getElementById("pause");var reset=document.getElementById("reset");var timer;invoketimer();reset.onclick=function(){svg.setCurrentTime(0);timer.clear();svg.unpauseAnimations();pause.innerHTML = "◼";};pause.onclick=function(){if(svg.animationsPaused()){svg.unpauseAnimations();timer.resume();pause.innerHTML="◼"}else{svg.pauseAnimations();timer.pause();pause.innerHTML="▶"}}]]></script></svg>