<svg id="kanjivg" width="106" height="126" xmlns="http://www.w3.org/2000/svg" xmlns:xlink="http://www.w3.org/1999/xlink" xml:space="preserve" version="1.1" baseProfile="full"><defs><style type="text/css"><![CDATA[path.black { fill:none;stroke:black;stroke-width:5;stroke-linecap:round;stroke-linejoin:round; }path.grey { fill:none;stroke:#ddd;stroke-width:5;stroke-linecap:round;stroke-linejoin:round; }path.stroke { fill:none;stroke:black;stroke-width:5;stroke-linecap:round;stroke-linejoin:round; }rect { fill:none;stroke:#555;stroke-width:2;} text{font-size:16px;font-family:Segoe UI Symbol,Cambria Math,DejaVu Sans,Symbola,Quivira,STIX,Code2000;-webkit-touch-callout:none;cursor:pointer;-webkit-user-select:none;-khtml-user-select:none;-moz-user-select:none;-ms-user-select:none;user-select: none;} #reset { font-weight:bold; }]]></style><marker id="markerStart" markerWidth="8" markerHeight="8" style="overflow:visible;"><circle cx="0" cy="0" r="1.5" style="stroke:none;fill:red;fill-opacity:0.5;"/></marker><marker id="markerEnd" style="overflow:visible;"><circle cx="0" cy="0" r="0.8" style="stroke:none;fill:blue;fill-opacity:0.5;"><animate attributeName="opacity" from="1" to="0" dur="3s" repeatCount="indefinite" /></circle></marker></defs><rect x="4" y="4" width="100" height="100" /><path d="M33.43,15c0.14,1.19,0.24,2.68-0.13,4.15C30.96,28.4,21.91,46.29,11,58.82" class="grey" /><path d="M26.48,39.61c0.59,0.61,0.76,1.97,0.76,3.23c0,13.02-0.29,45.15-0.29,53.9" class="grey" /><path d="M43.17,20.55c0.29,0.51,0.89,1.79,1.08,2.44c1,3.26,3.79,18.23,3.89,18.91" class="grey" /><path d="M45.24,21.5c2.68-0.32,36.07-3.15,38.44-3.24c2.4-0.1,3.03,1.39,2.77,3.14c-0.51,3.45-2.94,10.1-5.01,17.08" class="grey" /><path d="M55.16,10.89c0.84,0.46,1.86,2.05,1.92,2.98C57.5,19.5,58,30.5,58.68,38.63" class="grey" /><path d="M70.73,9.73c0.84,0.46,1.18,2.05,1.09,2.98c-0.78,8.9-2.03,19.03-2.65,24.22" class="grey" /><path d="M46.41,29.63c2.23,0,35.44-2.6,37.96-2.6" class="grey" /><path d="M48.81,39.69c4.53-0.33,27.04-2.18,32.69-2.46" class="grey" /><path d="M41.15,48.5c1.3,0.44,3.69,0.54,4.99,0.44c10.55-0.82,33.42-3.18,39.04-3.55c2.16-0.14,2.37,0.23,4.55,0.43" class="grey" /><path d="M46.51,49.14C45.5,67.25,39.5,82.25,34.56,90.13" class="grey" /><path d="M55.01,56.15c0.77,0.32,2.19,0.41,2.96,0.32c4.92-0.56,17.39-2.78,22.29-3.3c1.28-0.13,2.06,0.16,2.7,0.32" class="grey" /><path d="M47.54,66.72c0.82,0.29,2.33,0.37,3.15,0.29c5.23-0.5,34.26-3.49,39.92-3.58c1.37-0.02,3.94,0.14,4.63,0.28" class="grey" /><path d="M53.91,69.57c1.13,1.32,1.05,1.89,1.05,3.78c0,8.94-0.26,15.89-0.26,20.9c0,1.46,0.83,2.87,2.41,1.73c1.58-1.13,9.78-9.08,11.88-10.21" class="grey" /><path d="M81.33,69.74c0.02,0.2,0.04,0.51-0.04,0.8c-0.47,1.68-3.2,5.38-6.93,7.65" class="grey" /><path d="M62.16,71.19C65.75,71.25,83.5,87,90.35,91.12c1.64,0.99,2.98,1.51,4.58,1.81" class="grey" /><path d="M33.43,15c0.14,1.19,0.24,2.68-0.13,4.15C30.96,28.4,21.91,46.29,11,58.82" class="stroke" stroke-dasharray="150"><animate attributeName="stroke-dashoffset" from="150" to="0" dur="1.8s" begin="0s" fill="freeze" /></path><path d="M26.48,39.61c0.59,0.61,0.76,1.97,0.76,3.23c0,13.02-0.29,45.15-0.29,53.9" class="stroke" stroke-dasharray="150"><set attributeName="opacity" to="0" dur="1.2s" /><animate attributeName="stroke-dashoffset" from="150" to="0" dur="1.8s" begin="1.2s" fill="freeze" /></path><path d="M43.17,20.55c0.29,0.51,0.89,1.79,1.08,2.44c1,3.26,3.79,18.23,3.89,18.91" class="stroke" stroke-dasharray="150"><set attributeName="opacity" to="0" dur="2.5999999999999996s" /><animate attributeName="stroke-dashoffset" from="150" to="0" dur="1.8s" begin="2.5999999999999996s" fill="freeze" /></path><path d="M45.24,21.5c2.68-0.32,36.07-3.15,38.44-3.24c2.4-0.1,3.03,1.39,2.77,3.14c-0.51,3.45-2.94,10.1-5.01,17.08" class="stroke" stroke-dasharray="150"><set attributeName="opacity" to="0" dur="3.5999999999999996s" /><animate attributeName="stroke-dashoffset" from="150" to="0" dur="1.8s" begin="3.5999999999999996s" fill="freeze" /></path><path d="M55.16,10.89c0.84,0.46,1.86,2.05,1.92,2.98C57.5,19.5,58,30.5,58.68,38.63" class="stroke" stroke-dasharray="150"><set attributeName="opacity" to="0" dur="5.1s" /><animate attributeName="stroke-dashoffset" from="150" to="0" dur="1.8s" begin="5.1s" fill="freeze" /></path><path d="M70.73,9.73c0.84,0.46,1.18,2.05,1.09,2.98c-0.78,8.9-2.03,19.03-2.65,24.22" class="stroke" stroke-dasharray="150"><set attributeName="opacity" to="0" dur="6.1s" /><animate attributeName="stroke-dashoffset" from="150" to="0" dur="1.8s" begin="6.1s" fill="freeze" /></path><path d="M46.41,29.63c2.23,0,35.44-2.6,37.96-2.6" class="stroke" stroke-dasharray="150"><set attributeName="opacity" to="0" dur="7.1s" /><animate attributeName="stroke-dashoffset" from="150" to="0" dur="1.8s" begin="7.1s" fill="freeze" /></path><path d="M48.81,39.69c4.53-0.33,27.04-2.18,32.69-2.46" class="stroke" stroke-dasharray="150"><set attributeName="opacity" to="0" dur="8.1s" /><animate attributeName="stroke-dashoffset" from="150" to="0" dur="1.8s" begin="8.1s" fill="freeze" /></path><path d="M41.15,48.5c1.3,0.44,3.69,0.54,4.99,0.44c10.55-0.82,33.42-3.18,39.04-3.55c2.16-0.14,2.37,0.23,4.55,0.43" class="stroke" stroke-dasharray="150"><set attributeName="opacity" to="0" dur="9.1s" /><animate attributeName="stroke-dashoffset" from="150" to="0" dur="1.8s" begin="9.1s" fill="freeze" /></path><path d="M46.51,49.14C45.5,67.25,39.5,82.25,34.56,90.13" class="stroke" stroke-dasharray="150"><set attributeName="opacity" to="0" dur="10.299999999999999s" /><animate attributeName="stroke-dashoffset" from="150" to="0" dur="1.8s" begin="10.299999999999999s" fill="freeze" /></path><path d="M55.01,56.15c0.77,0.32,2.19,0.41,2.96,0.32c4.92-0.56,17.39-2.78,22.29-3.3c1.28-0.13,2.06,0.16,2.7,0.32" class="stroke" stroke-dasharray="150"><set attributeName="opacity" to="0" dur="11.399999999999999s" /><animate attributeName="stroke-dashoffset" from="150" to="0" dur="1.8s" begin="11.399999999999999s" fill="freeze" /></path><path d="M47.54,66.72c0.82,0.29,2.33,0.37,3.15,0.29c5.23-0.5,34.26-3.49,39.92-3.58c1.37-0.02,3.94,0.14,4.63,0.28" class="stroke" stroke-dasharray="150"><set attributeName="opacity" to="0" dur="12.399999999999999s" /><animate attributeName="stroke-dashoffset" from="150" to="0" dur="1.8s" begin="12.399999999999999s" fill="freeze" /></path><path d="M53.91,69.57c1.13,1.32,1.05,1.89,1.05,3.78c0,8.94-0.26,15.89-0.26,20.9c0,1.46,0.83,2.87,2.41,1.73c1.58-1.13,9.78-9.08,11.88-10.21" class="stroke" stroke-dasharray="150"><set attributeName="opacity" to="0" dur="13.599999999999998s" /><animate attributeName="stroke-dashoffset" from="150" to="0" dur="1.8s" begin="13.599999999999998s" fill="freeze" /></path><path d="M81.33,69.74c0.02,0.2,0.04,0.51-0.04,0.8c-0.47,1.68-3.2,5.38-6.93,7.65" class="stroke" stroke-dasharray="150"><set attributeName="opacity" to="0" dur="14.699999999999998s" /><animate attributeName="stroke-dashoffset" from="150" to="0" dur="1.8s" begin="14.699999999999998s" fill="freeze" /></path><path d="M62.16,71.19C65.75,71.25,83.5,87,90.35,91.12c1.64,0.99,2.98,1.51,4.58,1.81" class="stroke" stroke-dasharray="150"><set attributeName="opacity" to="0" dur="15.599999999999998s" /><animate attributeName="stroke-dashoffset" from="150" to="0" dur="1.8s" begin="15.599999999999998s" fill="freeze" /></path><text x="90" y="120" id="reset">⟳</text><text x="70" y="120" id="pause">◼</text><script type="text/javascript"><![CDATA[function RecurringTimer(e,t){var n,r,i=t;this.pause=function(){window.clearTimeout(n);i-=new Date-r};var s=function(){r=new Date;n=window.setTimeout(function(){i=t;s();e()},i)};this.clear=function(){window.clearTimeout(n);i=t;n=window.setTimeout(function(){i=t;s();e()},i)};this.resume=s;this.resume()}function invoketimer(){timer=new RecurringTimer(function(){svg.setCurrentTime(0)},17599)}var svg=document.getElementById("kanjivg");var pause=document.getElementById("pause");var reset=document.getElementById("reset");var timer;invoketimer();reset.onclick=function(){svg.setCurrentTime(0);timer.clear();svg.unpauseAnimations();pause.innerHTML = "◼";};pause.onclick=function(){if(svg.animationsPaused()){svg.unpauseAnimations();timer.resume();pause.innerHTML="◼"}else{svg.pauseAnimations();timer.pause();pause.innerHTML="▶"}}]]></script></svg>