<svg id="kanjivg" width="106" height="126" xmlns="http://www.w3.org/2000/svg" xmlns:xlink="http://www.w3.org/1999/xlink" xml:space="preserve" version="1.1" baseProfile="full"><defs><style type="text/css"><![CDATA[path.black { fill:none;stroke:black;stroke-width:5;stroke-linecap:round;stroke-linejoin:round; }path.grey { fill:none;stroke:#ddd;stroke-width:5;stroke-linecap:round;stroke-linejoin:round; }path.stroke { fill:none;stroke:black;stroke-width:5;stroke-linecap:round;stroke-linejoin:round; }rect { fill:none;stroke:#555;stroke-width:2;} text{font-size:16px;font-family:Segoe UI Symbol,Cambria Math,DejaVu Sans,Symbola,Quivira,STIX,Code2000;-webkit-touch-callout:none;cursor:pointer;-webkit-user-select:none;-khtml-user-select:none;-moz-user-select:none;-ms-user-select:none;user-select: none;} #reset { font-weight:bold; }]]></style><marker id="markerStart" markerWidth="8" markerHeight="8" style="overflow:visible;"><circle cx="0" cy="0" r="1.5" style="stroke:none;fill:red;fill-opacity:0.5;"/></marker><marker id="markerEnd" style="overflow:visible;"><circle cx="0" cy="0" r="0.8" style="stroke:none;fill:blue;fill-opacity:0.5;"><animate attributeName="opacity" from="1" to="0" dur="3s" repeatCount="indefinite" /></circle></marker></defs><rect x="4" y="4" width="100" height="100" /><path d="M32.26,16c0.14,1.34,0.3,2.97-0.12,4.39C29.5,29.25,21,48.38,9.62,62.55" class="grey" /><path d="M25.03,41.26c0.67,0.67,1.25,1.87,1.25,3.12c0,8.47-0.02,30.84-0.03,43.87c0,3.16,0,5.77,0,7.5" class="grey" /><path d="M58.7,13.32c0.8,0.8,1.25,1.93,1.25,2.87c0,3.06-0.07,5.18-0.07,7.78" class="grey" /><path d="M40.41,27.26c2.22,0.49,4.46,0.2,6.73-0.16c6.23-0.99,18.57-2.73,28.77-4.14c2.3-0.32,4.34-0.33,6.33,0.04" class="grey" /><path d="M48.79,30.3c3.68,3.36,4.43,6.65,4.96,9.06" class="grey" /><path d="M72.08,26.93c0.4,0.82,0.28,1.64-0.09,2.46c-1.41,3.07-3.77,7.22-5.11,8.98" class="grey" /><path d="M35.25,44.13c2.75,0.25,4.74,0.5,7.25,0.16c13.75-1.91,28.37-4.16,41.62-5.42c2.55-0.24,5.64-0.67,8.12,0.1" class="grey" /><path d="M44.2,52.63c0.83,0.83,1.1,1.7,1.27,2.37c0.53,2.11,2,11.66,2.99,17.25c0.24,1.36,0.45,2.51,0.61,3.27" class="grey" /><path d="M46.24,53.8c5.54-1.06,21.13-3.43,29.38-4.36c3.79-0.43,5.42,0.06,4.71,4.2c-0.6,3.5-1.93,9.83-2.91,15.09c-0.24,1.27-0.45,2.48-0.63,3.57" class="grey" /><path d="M48.21,63.28c7.66-1.28,23.54-3.53,29.87-3.79" class="grey" /><path d="M49.65,73.1c6.6-0.85,19.66-2.62,26.47-3.1" class="grey" /><path d="M41.79,82.33c0.09,3.42-2.5,9.64-4.71,12.67" class="grey" /><path d="M50.33,82.14c7.42,10.36,17.33,14.7,34.36,14.14C93,96,91.62,93.12,87,90.19" class="grey" /><path d="M67.04,79.1c2.21,3.03,5.09,6.78,5.85,2.2" class="grey" /><path d="M89.57,75.04c3.68,2.21,6.28,4.99,8.33,7.73" class="grey" /><path d="M32.26,16c0.14,1.34,0.3,2.97-0.12,4.39C29.5,29.25,21,48.38,9.62,62.55" class="stroke" stroke-dasharray="150"><animate attributeName="stroke-dashoffset" from="150" to="0" dur="1.8s" begin="0s" fill="freeze" /></path><path d="M25.03,41.26c0.67,0.67,1.25,1.87,1.25,3.12c0,8.47-0.02,30.84-0.03,43.87c0,3.16,0,5.77,0,7.5" class="stroke" stroke-dasharray="150"><set attributeName="opacity" to="0" dur="1.3s" /><animate attributeName="stroke-dashoffset" from="150" to="0" dur="1.8s" begin="1.3s" fill="freeze" /></path><path d="M58.7,13.32c0.8,0.8,1.25,1.93,1.25,2.87c0,3.06-0.07,5.18-0.07,7.78" class="stroke" stroke-dasharray="150"><set attributeName="opacity" to="0" dur="2.6s" /><animate attributeName="stroke-dashoffset" from="150" to="0" dur="1.8s" begin="2.6s" fill="freeze" /></path><path d="M40.41,27.26c2.22,0.49,4.46,0.2,6.73-0.16c6.23-0.99,18.57-2.73,28.77-4.14c2.3-0.32,4.34-0.33,6.33,0.04" class="stroke" stroke-dasharray="150"><set attributeName="opacity" to="0" dur="3.5s" /><animate attributeName="stroke-dashoffset" from="150" to="0" dur="1.8s" begin="3.5s" fill="freeze" /></path><path d="M48.79,30.3c3.68,3.36,4.43,6.65,4.96,9.06" class="stroke" stroke-dasharray="150"><set attributeName="opacity" to="0" dur="4.6s" /><animate attributeName="stroke-dashoffset" from="150" to="0" dur="1.8s" begin="4.6s" fill="freeze" /></path><path d="M72.08,26.93c0.4,0.82,0.28,1.64-0.09,2.46c-1.41,3.07-3.77,7.22-5.11,8.98" class="stroke" stroke-dasharray="150"><set attributeName="opacity" to="0" dur="5.5s" /><animate attributeName="stroke-dashoffset" from="150" to="0" dur="1.8s" begin="5.5s" fill="freeze" /></path><path d="M35.25,44.13c2.75,0.25,4.74,0.5,7.25,0.16c13.75-1.91,28.37-4.16,41.62-5.42c2.55-0.24,5.64-0.67,8.12,0.1" class="stroke" stroke-dasharray="150"><set attributeName="opacity" to="0" dur="6.4s" /><animate attributeName="stroke-dashoffset" from="150" to="0" dur="1.8s" begin="6.4s" fill="freeze" /></path><path d="M44.2,52.63c0.83,0.83,1.1,1.7,1.27,2.37c0.53,2.11,2,11.66,2.99,17.25c0.24,1.36,0.45,2.51,0.61,3.27" class="stroke" stroke-dasharray="150"><set attributeName="opacity" to="0" dur="7.800000000000001s" /><animate attributeName="stroke-dashoffset" from="150" to="0" dur="1.8s" begin="7.800000000000001s" fill="freeze" /></path><path d="M46.24,53.8c5.54-1.06,21.13-3.43,29.38-4.36c3.79-0.43,5.42,0.06,4.71,4.2c-0.6,3.5-1.93,9.83-2.91,15.09c-0.24,1.27-0.45,2.48-0.63,3.57" class="stroke" stroke-dasharray="150"><set attributeName="opacity" to="0" dur="8.8s" /><animate attributeName="stroke-dashoffset" from="150" to="0" dur="1.8s" begin="8.8s" fill="freeze" /></path><path d="M48.21,63.28c7.66-1.28,23.54-3.53,29.87-3.79" class="stroke" stroke-dasharray="150"><set attributeName="opacity" to="0" dur="10.200000000000001s" /><animate attributeName="stroke-dashoffset" from="150" to="0" dur="1.8s" begin="10.200000000000001s" fill="freeze" /></path><path d="M49.65,73.1c6.6-0.85,19.66-2.62,26.47-3.1" class="stroke" stroke-dasharray="150"><set attributeName="opacity" to="0" dur="11.200000000000001s" /><animate attributeName="stroke-dashoffset" from="150" to="0" dur="1.8s" begin="11.200000000000001s" fill="freeze" /></path><path d="M41.79,82.33c0.09,3.42-2.5,9.64-4.71,12.67" class="stroke" stroke-dasharray="150"><set attributeName="opacity" to="0" dur="12.200000000000001s" /><animate attributeName="stroke-dashoffset" from="150" to="0" dur="1.8s" begin="12.200000000000001s" fill="freeze" /></path><path d="M50.33,82.14c7.42,10.36,17.33,14.7,34.36,14.14C93,96,91.62,93.12,87,90.19" class="stroke" stroke-dasharray="150"><set attributeName="opacity" to="0" dur="13.100000000000001s" /><animate attributeName="stroke-dashoffset" from="150" to="0" dur="1.8s" begin="13.100000000000001s" fill="freeze" /></path><path d="M67.04,79.1c2.21,3.03,5.09,6.78,5.85,2.2" class="stroke" stroke-dasharray="150"><set attributeName="opacity" to="0" dur="14.400000000000002s" /><animate attributeName="stroke-dashoffset" from="150" to="0" dur="1.8s" begin="14.400000000000002s" fill="freeze" /></path><path d="M89.57,75.04c3.68,2.21,6.28,4.99,8.33,7.73" class="stroke" stroke-dasharray="150"><set attributeName="opacity" to="0" dur="15.300000000000002s" /><animate attributeName="stroke-dashoffset" from="150" to="0" dur="1.8s" begin="15.300000000000002s" fill="freeze" /></path><text x="90" y="120" id="reset">⟳</text><text x="70" y="120" id="pause">◼</text><script type="text/javascript"><![CDATA[function RecurringTimer(e,t){var n,r,i=t;this.pause=function(){window.clearTimeout(n);i-=new Date-r};var s=function(){r=new Date;n=window.setTimeout(function(){i=t;s();e()},i)};this.clear=function(){window.clearTimeout(n);i=t;n=window.setTimeout(function(){i=t;s();e()},i)};this.resume=s;this.resume()}function invoketimer(){timer=new RecurringTimer(function(){svg.setCurrentTime(0)},17200)}var svg=document.getElementById("kanjivg");var pause=document.getElementById("pause");var reset=document.getElementById("reset");var timer;invoketimer();reset.onclick=function(){svg.setCurrentTime(0);timer.clear();svg.unpauseAnimations();pause.innerHTML = "◼";};pause.onclick=function(){if(svg.animationsPaused()){svg.unpauseAnimations();timer.resume();pause.innerHTML="◼"}else{svg.pauseAnimations();timer.pause();pause.innerHTML="▶"}}]]></script></svg>