<svg id="kanjivg" width="106" height="126" xmlns="http://www.w3.org/2000/svg" xmlns:xlink="http://www.w3.org/1999/xlink" xml:space="preserve" version="1.1" baseProfile="full"><defs><style type="text/css"><![CDATA[path.black { fill:none;stroke:black;stroke-width:5;stroke-linecap:round;stroke-linejoin:round; }path.grey { fill:none;stroke:#ddd;stroke-width:5;stroke-linecap:round;stroke-linejoin:round; }path.stroke { fill:none;stroke:black;stroke-width:5;stroke-linecap:round;stroke-linejoin:round; }rect { fill:none;stroke:#555;stroke-width:2;} text{font-size:16px;font-family:Segoe UI Symbol,Cambria Math,DejaVu Sans,Symbola,Quivira,STIX,Code2000;-webkit-touch-callout:none;cursor:pointer;-webkit-user-select:none;-khtml-user-select:none;-moz-user-select:none;-ms-user-select:none;user-select: none;} #reset { font-weight:bold; }]]></style><marker id="markerStart" markerWidth="8" markerHeight="8" style="overflow:visible;"><circle cx="0" cy="0" r="1.5" style="stroke:none;fill:red;fill-opacity:0.5;"/></marker><marker id="markerEnd" style="overflow:visible;"><circle cx="0" cy="0" r="0.8" style="stroke:none;fill:blue;fill-opacity:0.5;"><animate attributeName="opacity" from="1" to="0" dur="3s" repeatCount="indefinite" /></circle></marker></defs><rect x="4" y="4" width="100" height="100" /><path d="M31.45,17c0.12,1.22,0.21,2.74-0.11,4.24C29.31,30.7,21.46,49,12,61.82" class="grey" /><path d="M25.98,42.61c0.59,0.61,0.76,1.97,0.76,3.23c0,13.02-0.29,40.15-0.29,48.9" class="grey" /><path d="M59.46,10.92c2.09,0.86,5.24,4.21,5.52,5.92" class="grey" /><path d="M38.07,23.62c1.35,0.34,2.53,0.58,4.09,0.47c9.46-0.65,35.75-4.12,46.51-4.79c1.58-0.1,2.39,0.04,3.57,0.6" class="grey" /><path d="M54.97,27.97c2.05,1.24,5.3,5.08,5.81,7" class="grey" /><path d="M71.88,24.56c0.02,0.28,0.04,0.72-0.04,1.12c-0.43,2.36-2.9,7.54-6.28,10.72" class="grey" /><path d="M63.62,40.01c0.33,0.39,0.56,0.84,0.59,2.13c0.14,6.16-0.01,13.85-0.01,15.94" class="grey" /><path d="M36.53,40.4c0.47,0.24,1.48,0.21,1.89,0.13c3.36-0.67,13.8-3.44,15.66-3.68c1.21-0.16,1.61,0.73,1.48,1.84c-0.7,6.18-2.15,13.81-4.28,18.51c-1.12,2.46-2.41,1.68-3.23-0.24" class="grey" /><path d="M45.29,39.71c0.02,0.41,0.06,1.06-0.05,1.65c-0.81,4.34-4.23,10.48-8.6,15.76" class="grey" /><path d="M87.02,25.81c0.03,0.21,0.06,0.55-0.06,0.86c-0.68,1.81-5.23,6.23-10.59,8.66" class="grey" /><path d="M73.69,36.53c0.32,0.6,0.55,1.4,0.55,2.3s-0.08,12.56-0.08,13.96c0,1.4,0.08,1.8,1.11,0.8c1.03-1,6.45-5.46,7.08-6.06" class="grey" /><path d="M80.98,34.4c2.52,4.85,5.52,10.35,10.29,16.55c1.02,1.32,2.73,2,4.23,2.72" class="grey" /><path d="M46.01,62.13c0.61,0.55,0.83,1.95,0.83,2.54c0,10.08-0.6,23.33-8.2,30.58" class="grey" /><path d="M54.05,67.4c0.82-0.05,1.69-0.11,2.6-0.17c5.81-0.36,11.62-0.69,17.43-1.02c0.88-0.05,1.72-0.1,2.51-0.14" class="grey" /><path d="M52.53,79.13c0.81-0.06,1.67-0.12,2.57-0.18c5.91-0.42,11.82-0.86,17.73-1.28c0.93-0.07,1.82-0.13,2.67-0.19" class="grey" /><path d="M82.05,56.39c0.54,0.55,1.42,2.66,1.42,3.75c0,4.31-0.01,36.9-0.07,40" class="grey" /><path d="M31.45,17c0.12,1.22,0.21,2.74-0.11,4.24C29.31,30.7,21.46,49,12,61.82" class="stroke" stroke-dasharray="150"><animate attributeName="stroke-dashoffset" from="150" to="0" dur="1.8s" begin="0s" fill="freeze" /></path><path d="M25.98,42.61c0.59,0.61,0.76,1.97,0.76,3.23c0,13.02-0.29,40.15-0.29,48.9" class="stroke" stroke-dasharray="150"><set attributeName="opacity" to="0" dur="1.2s" /><animate attributeName="stroke-dashoffset" from="150" to="0" dur="1.8s" begin="1.2s" fill="freeze" /></path><path d="M59.46,10.92c2.09,0.86,5.24,4.21,5.52,5.92" class="stroke" stroke-dasharray="150"><set attributeName="opacity" to="0" dur="2.5s" /><animate attributeName="stroke-dashoffset" from="150" to="0" dur="1.8s" begin="2.5s" fill="freeze" /></path><path d="M38.07,23.62c1.35,0.34,2.53,0.58,4.09,0.47c9.46-0.65,35.75-4.12,46.51-4.79c1.58-0.1,2.39,0.04,3.57,0.6" class="stroke" stroke-dasharray="150"><set attributeName="opacity" to="0" dur="3.4s" /><animate attributeName="stroke-dashoffset" from="150" to="0" dur="1.8s" begin="3.4s" fill="freeze" /></path><path d="M54.97,27.97c2.05,1.24,5.3,5.08,5.81,7" class="stroke" stroke-dasharray="150"><set attributeName="opacity" to="0" dur="4.7s" /><animate attributeName="stroke-dashoffset" from="150" to="0" dur="1.8s" begin="4.7s" fill="freeze" /></path><path d="M71.88,24.56c0.02,0.28,0.04,0.72-0.04,1.12c-0.43,2.36-2.9,7.54-6.28,10.72" class="stroke" stroke-dasharray="150"><set attributeName="opacity" to="0" dur="5.6000000000000005s" /><animate attributeName="stroke-dashoffset" from="150" to="0" dur="1.8s" begin="5.6000000000000005s" fill="freeze" /></path><path d="M63.62,40.01c0.33,0.39,0.56,0.84,0.59,2.13c0.14,6.16-0.01,13.85-0.01,15.94" class="stroke" stroke-dasharray="150"><set attributeName="opacity" to="0" dur="6.500000000000001s" /><animate attributeName="stroke-dashoffset" from="150" to="0" dur="1.8s" begin="6.500000000000001s" fill="freeze" /></path><path d="M36.53,40.4c0.47,0.24,1.48,0.21,1.89,0.13c3.36-0.67,13.8-3.44,15.66-3.68c1.21-0.16,1.61,0.73,1.48,1.84c-0.7,6.18-2.15,13.81-4.28,18.51c-1.12,2.46-2.41,1.68-3.23-0.24" class="stroke" stroke-dasharray="150"><set attributeName="opacity" to="0" dur="7.400000000000001s" /><animate attributeName="stroke-dashoffset" from="150" to="0" dur="1.8s" begin="7.400000000000001s" fill="freeze" /></path><path d="M45.29,39.71c0.02,0.41,0.06,1.06-0.05,1.65c-0.81,4.34-4.23,10.48-8.6,15.76" class="stroke" stroke-dasharray="150"><set attributeName="opacity" to="0" dur="8.500000000000002s" /><animate attributeName="stroke-dashoffset" from="150" to="0" dur="1.8s" begin="8.500000000000002s" fill="freeze" /></path><path d="M87.02,25.81c0.03,0.21,0.06,0.55-0.06,0.86c-0.68,1.81-5.23,6.23-10.59,8.66" class="stroke" stroke-dasharray="150"><set attributeName="opacity" to="0" dur="9.400000000000002s" /><animate attributeName="stroke-dashoffset" from="150" to="0" dur="1.8s" begin="9.400000000000002s" fill="freeze" /></path><path d="M73.69,36.53c0.32,0.6,0.55,1.4,0.55,2.3s-0.08,12.56-0.08,13.96c0,1.4,0.08,1.8,1.11,0.8c1.03-1,6.45-5.46,7.08-6.06" class="stroke" stroke-dasharray="150"><set attributeName="opacity" to="0" dur="10.300000000000002s" /><animate attributeName="stroke-dashoffset" from="150" to="0" dur="1.8s" begin="10.300000000000002s" fill="freeze" /></path><path d="M80.98,34.4c2.52,4.85,5.52,10.35,10.29,16.55c1.02,1.32,2.73,2,4.23,2.72" class="stroke" stroke-dasharray="150"><set attributeName="opacity" to="0" dur="11.300000000000002s" /><animate attributeName="stroke-dashoffset" from="150" to="0" dur="1.8s" begin="11.300000000000002s" fill="freeze" /></path><path d="M46.01,62.13c0.61,0.55,0.83,1.95,0.83,2.54c0,10.08-0.6,23.33-8.2,30.58" class="stroke" stroke-dasharray="150"><set attributeName="opacity" to="0" dur="12.300000000000002s" /><animate attributeName="stroke-dashoffset" from="150" to="0" dur="1.8s" begin="12.300000000000002s" fill="freeze" /></path><path d="M54.05,67.4c0.82-0.05,1.69-0.11,2.6-0.17c5.81-0.36,11.62-0.69,17.43-1.02c0.88-0.05,1.72-0.1,2.51-0.14" class="stroke" stroke-dasharray="150"><set attributeName="opacity" to="0" dur="13.300000000000002s" /><animate attributeName="stroke-dashoffset" from="150" to="0" dur="1.8s" begin="13.300000000000002s" fill="freeze" /></path><path d="M52.53,79.13c0.81-0.06,1.67-0.12,2.57-0.18c5.91-0.42,11.82-0.86,17.73-1.28c0.93-0.07,1.82-0.13,2.67-0.19" class="stroke" stroke-dasharray="150"><set attributeName="opacity" to="0" dur="14.300000000000002s" /><animate attributeName="stroke-dashoffset" from="150" to="0" dur="1.8s" begin="14.300000000000002s" fill="freeze" /></path><path d="M82.05,56.39c0.54,0.55,1.42,2.66,1.42,3.75c0,4.31-0.01,36.9-0.07,40" class="stroke" stroke-dasharray="150"><set attributeName="opacity" to="0" dur="15.300000000000002s" /><animate attributeName="stroke-dashoffset" from="150" to="0" dur="1.8s" begin="15.300000000000002s" fill="freeze" /></path><text x="90" y="120" id="reset">⟳</text><text x="70" y="120" id="pause">◼</text><script type="text/javascript"><![CDATA[function RecurringTimer(e,t){var n,r,i=t;this.pause=function(){window.clearTimeout(n);i-=new Date-r};var s=function(){r=new Date;n=window.setTimeout(function(){i=t;s();e()},i)};this.clear=function(){window.clearTimeout(n);i=t;n=window.setTimeout(function(){i=t;s();e()},i)};this.resume=s;this.resume()}function invoketimer(){timer=new RecurringTimer(function(){svg.setCurrentTime(0)},17400)}var svg=document.getElementById("kanjivg");var pause=document.getElementById("pause");var reset=document.getElementById("reset");var timer;invoketimer();reset.onclick=function(){svg.setCurrentTime(0);timer.clear();svg.unpauseAnimations();pause.innerHTML = "◼";};pause.onclick=function(){if(svg.animationsPaused()){svg.unpauseAnimations();timer.resume();pause.innerHTML="◼"}else{svg.pauseAnimations();timer.pause();pause.innerHTML="▶"}}]]></script></svg>