<svg id="kanjivg" width="106" height="126" xmlns="http://www.w3.org/2000/svg" xmlns:xlink="http://www.w3.org/1999/xlink" xml:space="preserve" version="1.1" baseProfile="full"><defs><style type="text/css"><![CDATA[path.black { fill:none;stroke:black;stroke-width:5;stroke-linecap:round;stroke-linejoin:round; }path.grey { fill:none;stroke:#ddd;stroke-width:5;stroke-linecap:round;stroke-linejoin:round; }path.stroke { fill:none;stroke:black;stroke-width:5;stroke-linecap:round;stroke-linejoin:round; }rect { fill:none;stroke:#555;stroke-width:2;} text{font-size:16px;font-family:Segoe UI Symbol,Cambria Math,DejaVu Sans,Symbola,Quivira,STIX,Code2000;-webkit-touch-callout:none;cursor:pointer;-webkit-user-select:none;-khtml-user-select:none;-moz-user-select:none;-ms-user-select:none;user-select: none;} #reset { font-weight:bold; }]]></style><marker id="markerStart" markerWidth="8" markerHeight="8" style="overflow:visible;"><circle cx="0" cy="0" r="1.5" style="stroke:none;fill:red;fill-opacity:0.5;"/></marker><marker id="markerEnd" style="overflow:visible;"><circle cx="0" cy="0" r="0.8" style="stroke:none;fill:blue;fill-opacity:0.5;"><animate attributeName="opacity" from="1" to="0" dur="3s" repeatCount="indefinite" /></circle></marker></defs><rect x="4" y="4" width="100" height="100" /><path d="M31.94,16c0.13,1.2,0.23,2.7-0.12,4.17c-2.19,9.3-10.64,27.29-20.82,39.9" class="grey" /><path d="M26.48,41.11c0.59,0.61,0.76,1.97,0.76,3.23c0,13.02-0.29,40.15-0.29,48.9" class="grey" /><path d="M43.04,18.09c0.4,0.26,0.63,1.66,0.71,2.18c0.08,0.52,0,37.39-0.08,40.61" class="grey" /><path d="M43.84,19.87c3.87-0.19,14.46-2.71,20.5-3.09c0.92-0.06,1.46-0.12,1.92,0.02" class="grey" /><path d="M54.61,19.7c0.68,0.55,0.81,0.97,0.82,2.13c0.02,2.66-0.02,7.64-0.07,9.89" class="grey" /><path d="M43.99,33.27c6.23-0.95,14.42-1.93,18.74-2.58c1.75-0.26,2.23,0.8,1.99,2.2c-0.44,2.52-1.59,7.04-2.04,10.07" class="grey" /><path d="M44.02,46.23c2.6-0.38,17.13-2.38,19.57-2.62" class="grey" /><path d="M54.89,46.19c0.21,0.65,0.82,1.1,0.82,2.01c0,2.97-0.02,6.47-0.07,8.7" class="grey" /><path d="M44.27,58.95c4.75-0.67,14.14-1.63,20.33-2.25c0.91-0.09,1.47-0.12,1.92,0.02" class="grey" /><path d="M79.52,13.5c0.03,0.61,0.2,1.65-0.06,2.46c-1.91,6-5.38,15.26-10.32,23.55" class="grey" /><path d="M75.24,30.67c0.76,0.54,2.16,0.66,2.93,0.54c4.07-0.63,10.58-1.46,15.17-1.73c1.3-0.08,2.44-0.25,3.08,0.02" class="grey" /><path d="M71.84,50.02c0.68,0.54,1.9,0.59,2.59,0.54c4.32-0.31,10.02-1.11,15.38-1.78c1.11-0.28,2.16-0.36,3.17-0.04" class="grey" /><path d="M45.84,67.62c0.53,0.66,1.21,0.8,1.33,1.38c0.9,4.55,2.55,16.12,3.18,24.33" class="grey" /><path d="M48.2,69.59C58.25,68.75,86.84,66,88.09,66c2.16,0,2.91,1.25,2.52,3.62c-0.88,5.38-2.32,13.84-4.04,21.01" class="grey" /><path d="M60.38,71.07c0.22,0.43,0.52,0.78,0.54,1.33c0.31,7.4,0.76,12.79,1.31,20.54" class="grey" /><path d="M75.52,69.67c0.4,0.51,0.79,1.39,0.73,2.06c-0.64,6.72-1.3,11.62-2.08,20.23" class="grey" /><path d="M37.16,94.23c1.21,0.4,3.41,0.38,4.62,0.31c14.98-0.89,31.91-2.08,54.96-2.8c2-0.06,3.21,0.12,4.21,0.31" class="grey" /><path d="M31.94,16c0.13,1.2,0.23,2.7-0.12,4.17c-2.19,9.3-10.64,27.29-20.82,39.9" class="stroke" stroke-dasharray="150"><animate attributeName="stroke-dashoffset" from="150" to="0" dur="1.8s" begin="0s" fill="freeze" /></path><path d="M26.48,41.11c0.59,0.61,0.76,1.97,0.76,3.23c0,13.02-0.29,40.15-0.29,48.9" class="stroke" stroke-dasharray="150"><set attributeName="opacity" to="0" dur="1.2s" /><animate attributeName="stroke-dashoffset" from="150" to="0" dur="1.8s" begin="1.2s" fill="freeze" /></path><path d="M43.04,18.09c0.4,0.26,0.63,1.66,0.71,2.18c0.08,0.52,0,37.39-0.08,40.61" class="stroke" stroke-dasharray="150"><set attributeName="opacity" to="0" dur="2.5s" /><animate attributeName="stroke-dashoffset" from="150" to="0" dur="1.8s" begin="2.5s" fill="freeze" /></path><path d="M43.84,19.87c3.87-0.19,14.46-2.71,20.5-3.09c0.92-0.06,1.46-0.12,1.92,0.02" class="stroke" stroke-dasharray="150"><set attributeName="opacity" to="0" dur="3.6s" /><animate attributeName="stroke-dashoffset" from="150" to="0" dur="1.8s" begin="3.6s" fill="freeze" /></path><path d="M54.61,19.7c0.68,0.55,0.81,0.97,0.82,2.13c0.02,2.66-0.02,7.64-0.07,9.89" class="stroke" stroke-dasharray="150"><set attributeName="opacity" to="0" dur="4.6s" /><animate attributeName="stroke-dashoffset" from="150" to="0" dur="1.8s" begin="4.6s" fill="freeze" /></path><path d="M43.99,33.27c6.23-0.95,14.42-1.93,18.74-2.58c1.75-0.26,2.23,0.8,1.99,2.2c-0.44,2.52-1.59,7.04-2.04,10.07" class="stroke" stroke-dasharray="150"><set attributeName="opacity" to="0" dur="5.5s" /><animate attributeName="stroke-dashoffset" from="150" to="0" dur="1.8s" begin="5.5s" fill="freeze" /></path><path d="M44.02,46.23c2.6-0.38,17.13-2.38,19.57-2.62" class="stroke" stroke-dasharray="150"><set attributeName="opacity" to="0" dur="6.5s" /><animate attributeName="stroke-dashoffset" from="150" to="0" dur="1.8s" begin="6.5s" fill="freeze" /></path><path d="M54.89,46.19c0.21,0.65,0.82,1.1,0.82,2.01c0,2.97-0.02,6.47-0.07,8.7" class="stroke" stroke-dasharray="150"><set attributeName="opacity" to="0" dur="7.4s" /><animate attributeName="stroke-dashoffset" from="150" to="0" dur="1.8s" begin="7.4s" fill="freeze" /></path><path d="M44.27,58.95c4.75-0.67,14.14-1.63,20.33-2.25c0.91-0.09,1.47-0.12,1.92,0.02" class="stroke" stroke-dasharray="150"><set attributeName="opacity" to="0" dur="8.3s" /><animate attributeName="stroke-dashoffset" from="150" to="0" dur="1.8s" begin="8.3s" fill="freeze" /></path><path d="M79.52,13.5c0.03,0.61,0.2,1.65-0.06,2.46c-1.91,6-5.38,15.26-10.32,23.55" class="stroke" stroke-dasharray="150"><set attributeName="opacity" to="0" dur="9.3s" /><animate attributeName="stroke-dashoffset" from="150" to="0" dur="1.8s" begin="9.3s" fill="freeze" /></path><path d="M75.24,30.67c0.76,0.54,2.16,0.66,2.93,0.54c4.07-0.63,10.58-1.46,15.17-1.73c1.3-0.08,2.44-0.25,3.08,0.02" class="stroke" stroke-dasharray="150"><set attributeName="opacity" to="0" dur="10.3s" /><animate attributeName="stroke-dashoffset" from="150" to="0" dur="1.8s" begin="10.3s" fill="freeze" /></path><path d="M71.84,50.02c0.68,0.54,1.9,0.59,2.59,0.54c4.32-0.31,10.02-1.11,15.38-1.78c1.11-0.28,2.16-0.36,3.17-0.04" class="stroke" stroke-dasharray="150"><set attributeName="opacity" to="0" dur="11.3s" /><animate attributeName="stroke-dashoffset" from="150" to="0" dur="1.8s" begin="11.3s" fill="freeze" /></path><path d="M45.84,67.62c0.53,0.66,1.21,0.8,1.33,1.38c0.9,4.55,2.55,16.12,3.18,24.33" class="stroke" stroke-dasharray="150"><set attributeName="opacity" to="0" dur="12.3s" /><animate attributeName="stroke-dashoffset" from="150" to="0" dur="1.8s" begin="12.3s" fill="freeze" /></path><path d="M48.2,69.59C58.25,68.75,86.84,66,88.09,66c2.16,0,2.91,1.25,2.52,3.62c-0.88,5.38-2.32,13.84-4.04,21.01" class="stroke" stroke-dasharray="150"><set attributeName="opacity" to="0" dur="13.3s" /><animate attributeName="stroke-dashoffset" from="150" to="0" dur="1.8s" begin="13.3s" fill="freeze" /></path><path d="M60.38,71.07c0.22,0.43,0.52,0.78,0.54,1.33c0.31,7.4,0.76,12.79,1.31,20.54" class="stroke" stroke-dasharray="150"><set attributeName="opacity" to="0" dur="14.8s" /><animate attributeName="stroke-dashoffset" from="150" to="0" dur="1.8s" begin="14.8s" fill="freeze" /></path><path d="M75.52,69.67c0.4,0.51,0.79,1.39,0.73,2.06c-0.64,6.72-1.3,11.62-2.08,20.23" class="stroke" stroke-dasharray="150"><set attributeName="opacity" to="0" dur="15.8s" /><animate attributeName="stroke-dashoffset" from="150" to="0" dur="1.8s" begin="15.8s" fill="freeze" /></path><path d="M37.16,94.23c1.21,0.4,3.41,0.38,4.62,0.31c14.98-0.89,31.91-2.08,54.96-2.8c2-0.06,3.21,0.12,4.21,0.31" class="stroke" stroke-dasharray="150"><set attributeName="opacity" to="0" dur="16.8s" /><animate attributeName="stroke-dashoffset" from="150" to="0" dur="1.8s" begin="16.8s" fill="freeze" /></path><text x="90" y="120" id="reset">⟳</text><text x="70" y="120" id="pause">◼</text><script type="text/javascript"><![CDATA[function RecurringTimer(e,t){var n,r,i=t;this.pause=function(){window.clearTimeout(n);i-=new Date-r};var s=function(){r=new Date;n=window.setTimeout(function(){i=t;s();e()},i)};this.clear=function(){window.clearTimeout(n);i=t;n=window.setTimeout(function(){i=t;s();e()},i)};this.resume=s;this.resume()}function invoketimer(){timer=new RecurringTimer(function(){svg.setCurrentTime(0)},19300)}var svg=document.getElementById("kanjivg");var pause=document.getElementById("pause");var reset=document.getElementById("reset");var timer;invoketimer();reset.onclick=function(){svg.setCurrentTime(0);timer.clear();svg.unpauseAnimations();pause.innerHTML = "◼";};pause.onclick=function(){if(svg.animationsPaused()){svg.unpauseAnimations();timer.resume();pause.innerHTML="◼"}else{svg.pauseAnimations();timer.pause();pause.innerHTML="▶"}}]]></script></svg>