<svg id="kanjivg" width="106" height="126" xmlns="http://www.w3.org/2000/svg" xmlns:xlink="http://www.w3.org/1999/xlink" xml:space="preserve" version="1.1" baseProfile="full"><defs><style type="text/css"><![CDATA[path.black { fill:none;stroke:black;stroke-width:5;stroke-linecap:round;stroke-linejoin:round; }path.grey { fill:none;stroke:#ddd;stroke-width:5;stroke-linecap:round;stroke-linejoin:round; }path.stroke { fill:none;stroke:black;stroke-width:5;stroke-linecap:round;stroke-linejoin:round; }rect { fill:none;stroke:#555;stroke-width:2;} text{font-size:16px;font-family:Segoe UI Symbol,Cambria Math,DejaVu Sans,Symbola,Quivira,STIX,Code2000;-webkit-touch-callout:none;cursor:pointer;-webkit-user-select:none;-khtml-user-select:none;-moz-user-select:none;-ms-user-select:none;user-select: none;} #reset { font-weight:bold; }]]></style><marker id="markerStart" markerWidth="8" markerHeight="8" style="overflow:visible;"><circle cx="0" cy="0" r="1.5" style="stroke:none;fill:red;fill-opacity:0.5;"/></marker><marker id="markerEnd" style="overflow:visible;"><circle cx="0" cy="0" r="0.8" style="stroke:none;fill:blue;fill-opacity:0.5;"><animate attributeName="opacity" from="1" to="0" dur="3s" repeatCount="indefinite" /></circle></marker></defs><rect x="4" y="4" width="100" height="100" /><path d="M30.25,15.39c0.13,1.14-0.02,2.08-0.37,3.48c-2.19,8.88-10.64,26.05-20.82,38.09" class="grey" /><path d="M24.73,36.5c0.95,0.95,1.12,2.52,1.12,3.97c0,12.9,0,37.07-0.07,50.03c-0.01,2.13-0.02,3.95-0.02,5.38" class="grey" /><path d="M45.42,19.39c2.58,0.48,5.21-0.01,7.83-0.35c7.14-0.91,19.84-2.52,25.62-2.85c1.97-0.11,4.04-0.26,6,0.04" class="grey" /><path d="M41.39,30.33c-0.17,5.22-1.67,9.99-2.78,15.26" class="grey" /><path d="M42.09,31.76c16.16-2.39,35.69-5.01,47.79-5.01c7.01,0,2.24,5.49-0.22,8.14" class="grey" /><path d="M63.79,20.93c0.7,1.4,1.01,2.32,1.02,3.69c0,0.36-0.11,13.58-0.17,21.13c-0.02,2.73-0.04,4.72-0.04,5.08" class="grey" /><path d="M50.51,36.12c2.51,0.5,5.92,2.01,7.29,2.85" class="grey" /><path d="M49.03,43.86c2.54,0.57,6.45,2.67,7.84,3.62" class="grey" /><path d="M73.88,33.5c2.93,0.6,6.25,1.79,7.42,2.29" class="grey" /><path d="M74.79,42.15c2.84,0.6,6.71,2.39,8.26,3.39" class="grey" /><path d="M43.04,59.13c2.58,0.62,5.29,0.4,7.45,0.16c7.76-0.89,21.56-2.25,28.88-2.59c2.17-0.1,4.54-0.2,6.67,0.35" class="grey" /><path d="M63,61.11c0,0.64-0.26,1.34-0.59,1.8c-1.06,2.16-1.96,3.41-5.06,6.85" class="grey" /><path d="M40.74,72.13c0.94,0.94,1.41,2.4,1.54,4.08c0.13,1.68,0.71,8.83,1.18,14.29c0.22,2.53,0.42,4.7,0.54,5.79" class="grey" /><path d="M42.39,73.98c6.21-0.74,40.98-4.85,45.61-5.44c2.65-0.34,4.13,0.96,4.09,3.44C92,78,91,85.25,89.5,91.6c-1.52,6.44-4.78,5.02-6.74,2.61" class="grey" /><path d="M56.93,74.74c0.92,0.92,1.16,2.01,1.16,3.46c0,2.8-0.09,6.89-0.08,11.08c0,2.17,0,3.89,0,4.35" class="grey" /><path d="M72.13,73.52c0.86,0.86,1.02,2.33,1.02,3.69c0,2.94-0.02,8.51-0.02,12.79c0,1.77-0.01,3.32-0.01,4.38" class="grey" /><path d="M30.25,15.39c0.13,1.14-0.02,2.08-0.37,3.48c-2.19,8.88-10.64,26.05-20.82,38.09" class="stroke" stroke-dasharray="150"><animate attributeName="stroke-dashoffset" from="150" to="0" dur="1.8s" begin="0s" fill="freeze" /></path><path d="M24.73,36.5c0.95,0.95,1.12,2.52,1.12,3.97c0,12.9,0,37.07-0.07,50.03c-0.01,2.13-0.02,3.95-0.02,5.38" class="stroke" stroke-dasharray="150"><set attributeName="opacity" to="0" dur="1.2s" /><animate attributeName="stroke-dashoffset" from="150" to="0" dur="1.8s" begin="1.2s" fill="freeze" /></path><path d="M45.42,19.39c2.58,0.48,5.21-0.01,7.83-0.35c7.14-0.91,19.84-2.52,25.62-2.85c1.97-0.11,4.04-0.26,6,0.04" class="stroke" stroke-dasharray="150"><set attributeName="opacity" to="0" dur="2.5999999999999996s" /><animate attributeName="stroke-dashoffset" from="150" to="0" dur="1.8s" begin="2.5999999999999996s" fill="freeze" /></path><path d="M41.39,30.33c-0.17,5.22-1.67,9.99-2.78,15.26" class="stroke" stroke-dasharray="150"><set attributeName="opacity" to="0" dur="3.5999999999999996s" /><animate attributeName="stroke-dashoffset" from="150" to="0" dur="1.8s" begin="3.5999999999999996s" fill="freeze" /></path><path d="M42.09,31.76c16.16-2.39,35.69-5.01,47.79-5.01c7.01,0,2.24,5.49-0.22,8.14" class="stroke" stroke-dasharray="150"><set attributeName="opacity" to="0" dur="4.5s" /><animate attributeName="stroke-dashoffset" from="150" to="0" dur="1.8s" begin="4.5s" fill="freeze" /></path><path d="M63.79,20.93c0.7,1.4,1.01,2.32,1.02,3.69c0,0.36-0.11,13.58-0.17,21.13c-0.02,2.73-0.04,4.72-0.04,5.08" class="stroke" stroke-dasharray="150"><set attributeName="opacity" to="0" dur="6.0s" /><animate attributeName="stroke-dashoffset" from="150" to="0" dur="1.8s" begin="6.0s" fill="freeze" /></path><path d="M50.51,36.12c2.51,0.5,5.92,2.01,7.29,2.85" class="stroke" stroke-dasharray="150"><set attributeName="opacity" to="0" dur="7.0s" /><animate attributeName="stroke-dashoffset" from="150" to="0" dur="1.8s" begin="7.0s" fill="freeze" /></path><path d="M49.03,43.86c2.54,0.57,6.45,2.67,7.84,3.62" class="stroke" stroke-dasharray="150"><set attributeName="opacity" to="0" dur="7.9s" /><animate attributeName="stroke-dashoffset" from="150" to="0" dur="1.8s" begin="7.9s" fill="freeze" /></path><path d="M73.88,33.5c2.93,0.6,6.25,1.79,7.42,2.29" class="stroke" stroke-dasharray="150"><set attributeName="opacity" to="0" dur="8.8s" /><animate attributeName="stroke-dashoffset" from="150" to="0" dur="1.8s" begin="8.8s" fill="freeze" /></path><path d="M74.79,42.15c2.84,0.6,6.71,2.39,8.26,3.39" class="stroke" stroke-dasharray="150"><set attributeName="opacity" to="0" dur="9.700000000000001s" /><animate attributeName="stroke-dashoffset" from="150" to="0" dur="1.8s" begin="9.700000000000001s" fill="freeze" /></path><path d="M43.04,59.13c2.58,0.62,5.29,0.4,7.45,0.16c7.76-0.89,21.56-2.25,28.88-2.59c2.17-0.1,4.54-0.2,6.67,0.35" class="stroke" stroke-dasharray="150"><set attributeName="opacity" to="0" dur="10.600000000000001s" /><animate attributeName="stroke-dashoffset" from="150" to="0" dur="1.8s" begin="10.600000000000001s" fill="freeze" /></path><path d="M63,61.11c0,0.64-0.26,1.34-0.59,1.8c-1.06,2.16-1.96,3.41-5.06,6.85" class="stroke" stroke-dasharray="150"><set attributeName="opacity" to="0" dur="11.700000000000001s" /><animate attributeName="stroke-dashoffset" from="150" to="0" dur="1.8s" begin="11.700000000000001s" fill="freeze" /></path><path d="M40.74,72.13c0.94,0.94,1.41,2.4,1.54,4.08c0.13,1.68,0.71,8.83,1.18,14.29c0.22,2.53,0.42,4.7,0.54,5.79" class="stroke" stroke-dasharray="150"><set attributeName="opacity" to="0" dur="12.600000000000001s" /><animate attributeName="stroke-dashoffset" from="150" to="0" dur="1.8s" begin="12.600000000000001s" fill="freeze" /></path><path d="M42.39,73.98c6.21-0.74,40.98-4.85,45.61-5.44c2.65-0.34,4.13,0.96,4.09,3.44C92,78,91,85.25,89.5,91.6c-1.52,6.44-4.78,5.02-6.74,2.61" class="stroke" stroke-dasharray="150"><set attributeName="opacity" to="0" dur="13.600000000000001s" /><animate attributeName="stroke-dashoffset" from="150" to="0" dur="1.8s" begin="13.600000000000001s" fill="freeze" /></path><path d="M56.93,74.74c0.92,0.92,1.16,2.01,1.16,3.46c0,2.8-0.09,6.89-0.08,11.08c0,2.17,0,3.89,0,4.35" class="stroke" stroke-dasharray="150"><set attributeName="opacity" to="0" dur="15.3s" /><animate attributeName="stroke-dashoffset" from="150" to="0" dur="1.8s" begin="15.3s" fill="freeze" /></path><path d="M72.13,73.52c0.86,0.86,1.02,2.33,1.02,3.69c0,2.94-0.02,8.51-0.02,12.79c0,1.77-0.01,3.32-0.01,4.38" class="stroke" stroke-dasharray="150"><set attributeName="opacity" to="0" dur="16.2s" /><animate attributeName="stroke-dashoffset" from="150" to="0" dur="1.8s" begin="16.2s" fill="freeze" /></path><text x="90" y="120" id="reset">⟳</text><text x="70" y="120" id="pause">◼</text><script type="text/javascript"><![CDATA[function RecurringTimer(e,t){var n,r,i=t;this.pause=function(){window.clearTimeout(n);i-=new Date-r};var s=function(){r=new Date;n=window.setTimeout(function(){i=t;s();e()},i)};this.clear=function(){window.clearTimeout(n);i=t;n=window.setTimeout(function(){i=t;s();e()},i)};this.resume=s;this.resume()}function invoketimer(){timer=new RecurringTimer(function(){svg.setCurrentTime(0)},18200)}var svg=document.getElementById("kanjivg");var pause=document.getElementById("pause");var reset=document.getElementById("reset");var timer;invoketimer();reset.onclick=function(){svg.setCurrentTime(0);timer.clear();svg.unpauseAnimations();pause.innerHTML = "◼";};pause.onclick=function(){if(svg.animationsPaused()){svg.unpauseAnimations();timer.resume();pause.innerHTML="◼"}else{svg.pauseAnimations();timer.pause();pause.innerHTML="▶"}}]]></script></svg>