<svg id="kanjivg" width="106" height="126" xmlns="http://www.w3.org/2000/svg" xmlns:xlink="http://www.w3.org/1999/xlink" xml:space="preserve" version="1.1" baseProfile="full"><defs><style type="text/css"><![CDATA[path.black { fill:none;stroke:black;stroke-width:5;stroke-linecap:round;stroke-linejoin:round; }path.grey { fill:none;stroke:#ddd;stroke-width:5;stroke-linecap:round;stroke-linejoin:round; }path.stroke { fill:none;stroke:black;stroke-width:5;stroke-linecap:round;stroke-linejoin:round; }rect { fill:none;stroke:#555;stroke-width:2;} text{font-size:16px;font-family:Segoe UI Symbol,Cambria Math,DejaVu Sans,Symbola,Quivira,STIX,Code2000;-webkit-touch-callout:none;cursor:pointer;-webkit-user-select:none;-khtml-user-select:none;-moz-user-select:none;-ms-user-select:none;user-select: none;} #reset { font-weight:bold; }]]></style><marker id="markerStart" markerWidth="8" markerHeight="8" style="overflow:visible;"><circle cx="0" cy="0" r="1.5" style="stroke:none;fill:red;fill-opacity:0.5;"/></marker><marker id="markerEnd" style="overflow:visible;"><circle cx="0" cy="0" r="0.8" style="stroke:none;fill:blue;fill-opacity:0.5;"><animate attributeName="opacity" from="1" to="0" dur="3s" repeatCount="indefinite" /></circle></marker></defs><rect x="4" y="4" width="100" height="100" /><path d="M30.01,15.39c0.12,1.25,0.2,2.81-0.1,4.34c-1.95,9.67-9.5,28.38-18.59,41.49" class="grey" /><path d="M26.49,38c0.66,0.68,0.84,2.19,0.84,3.58c0,14.46-0.32,44.58-0.32,54.29" class="grey" /><path d="M43.92,22.73c2.08,0.22,2.67,0.57,4.59,0.43c8.76-0.65,24.26-3.25,32.6-3.68c2.71-0.14,4.56,1.05,4.17,3.23c-0.62,3.45-1.12,8.91-2.58,18.61" class="grey" /><path d="M38.88,33.99c1.64,0.56,2.93,0.82,4.74,0.56c15.88-2.26,35.22-4.3,47.82-5.15c2.01-0.13,3.65,0.57,4.56,0.85" class="grey" /><path d="M43.76,45.36c1.04,0.21,2.92,0.33,4.17,0.21c11.47-1.08,21.89-2.17,32.31-3.25c1.66-0.17,2.71,0,3.96,0.22" class="grey" /><path d="M38.82,56.82c1.27,0.47,3.59,0.61,4.85,0.47c14.84-1.74,34.69-4.15,46.21-4.54c2.11-0.07,3.38,0.22,4.43,0.46" class="grey" /><path d="M62.83,11.25c0.91,0.43,1.63,1.91,1.63,2.8c0,4.77-0.18,34.38-0.18,40.98" class="grey" /><path d="M42.34,64.54c0,3.87-5.22,9.59-6.59,10.69" class="grey" /><path d="M54.36,63.18c2.1,1.58,4.09,5.94,4.62,8.41" class="grey" /><path d="M69,61.22c2.51,1.44,6.49,5.91,7.12,8.15" class="grey" /><path d="M85.42,60.21c3.24,1.96,8.36,8.05,9.17,11.1" class="grey" /><path d="M43.32,77.28c0.51,0.48,1.16,1.5,1.27,1.91c0.85,3.25,1.06,9.84,1.64,15.68" class="grey" /><path d="M44.87,78.69c9.1-0.67,37.44-3.77,40.75-3.69c1.43,0.04,2.32,0.73,2.08,1.94c-0.45,2.31-1.45,9.56-2.64,15.68" class="grey" /><path d="M58.03,79.37c0.21,0.31,0.52,1.4,0.52,1.8c0,4.88,0.08,6.34,0.14,12.59" class="grey" /><path d="M71.44,77.94c0.39,0.37,0.71,1,0.69,1.48C72,84,71.5,87.5,70.94,92.92" class="grey" /><path d="M35.82,95.44c1.16,0.54,3.29,0.62,4.44,0.54c12.07-0.9,32.65-3.05,54.86-3.19c1.93-0.01,3.09,0.25,4.06,0.52" class="grey" /><path d="M30.01,15.39c0.12,1.25,0.2,2.81-0.1,4.34c-1.95,9.67-9.5,28.38-18.59,41.49" class="stroke" stroke-dasharray="150"><animate attributeName="stroke-dashoffset" from="150" to="0" dur="1.8s" begin="0s" fill="freeze" /></path><path d="M26.49,38c0.66,0.68,0.84,2.19,0.84,3.58c0,14.46-0.32,44.58-0.32,54.29" class="stroke" stroke-dasharray="150"><set attributeName="opacity" to="0" dur="1.3s" /><animate attributeName="stroke-dashoffset" from="150" to="0" dur="1.8s" begin="1.3s" fill="freeze" /></path><path d="M43.92,22.73c2.08,0.22,2.67,0.57,4.59,0.43c8.76-0.65,24.26-3.25,32.6-3.68c2.71-0.14,4.56,1.05,4.17,3.23c-0.62,3.45-1.12,8.91-2.58,18.61" class="stroke" stroke-dasharray="150"><set attributeName="opacity" to="0" dur="2.7s" /><animate attributeName="stroke-dashoffset" from="150" to="0" dur="1.8s" begin="2.7s" fill="freeze" /></path><path d="M38.88,33.99c1.64,0.56,2.93,0.82,4.74,0.56c15.88-2.26,35.22-4.3,47.82-5.15c2.01-0.13,3.65,0.57,4.56,0.85" class="stroke" stroke-dasharray="150"><set attributeName="opacity" to="0" dur="4.2s" /><animate attributeName="stroke-dashoffset" from="150" to="0" dur="1.8s" begin="4.2s" fill="freeze" /></path><path d="M43.76,45.36c1.04,0.21,2.92,0.33,4.17,0.21c11.47-1.08,21.89-2.17,32.31-3.25c1.66-0.17,2.71,0,3.96,0.22" class="stroke" stroke-dasharray="150"><set attributeName="opacity" to="0" dur="5.6s" /><animate attributeName="stroke-dashoffset" from="150" to="0" dur="1.8s" begin="5.6s" fill="freeze" /></path><path d="M38.82,56.82c1.27,0.47,3.59,0.61,4.85,0.47c14.84-1.74,34.69-4.15,46.21-4.54c2.11-0.07,3.38,0.22,4.43,0.46" class="stroke" stroke-dasharray="150"><set attributeName="opacity" to="0" dur="6.699999999999999s" /><animate attributeName="stroke-dashoffset" from="150" to="0" dur="1.8s" begin="6.699999999999999s" fill="freeze" /></path><path d="M62.83,11.25c0.91,0.43,1.63,1.91,1.63,2.8c0,4.77-0.18,34.38-0.18,40.98" class="stroke" stroke-dasharray="150"><set attributeName="opacity" to="0" dur="8.1s" /><animate attributeName="stroke-dashoffset" from="150" to="0" dur="1.8s" begin="8.1s" fill="freeze" /></path><path d="M42.34,64.54c0,3.87-5.22,9.59-6.59,10.69" class="stroke" stroke-dasharray="150"><set attributeName="opacity" to="0" dur="9.2s" /><animate attributeName="stroke-dashoffset" from="150" to="0" dur="1.8s" begin="9.2s" fill="freeze" /></path><path d="M54.36,63.18c2.1,1.58,4.09,5.94,4.62,8.41" class="stroke" stroke-dasharray="150"><set attributeName="opacity" to="0" dur="10.1s" /><animate attributeName="stroke-dashoffset" from="150" to="0" dur="1.8s" begin="10.1s" fill="freeze" /></path><path d="M69,61.22c2.51,1.44,6.49,5.91,7.12,8.15" class="stroke" stroke-dasharray="150"><set attributeName="opacity" to="0" dur="11.0s" /><animate attributeName="stroke-dashoffset" from="150" to="0" dur="1.8s" begin="11.0s" fill="freeze" /></path><path d="M85.42,60.21c3.24,1.96,8.36,8.05,9.17,11.1" class="stroke" stroke-dasharray="150"><set attributeName="opacity" to="0" dur="11.9s" /><animate attributeName="stroke-dashoffset" from="150" to="0" dur="1.8s" begin="11.9s" fill="freeze" /></path><path d="M43.32,77.28c0.51,0.48,1.16,1.5,1.27,1.91c0.85,3.25,1.06,9.84,1.64,15.68" class="stroke" stroke-dasharray="150"><set attributeName="opacity" to="0" dur="12.8s" /><animate attributeName="stroke-dashoffset" from="150" to="0" dur="1.8s" begin="12.8s" fill="freeze" /></path><path d="M44.87,78.69c9.1-0.67,37.44-3.77,40.75-3.69c1.43,0.04,2.32,0.73,2.08,1.94c-0.45,2.31-1.45,9.56-2.64,15.68" class="stroke" stroke-dasharray="150"><set attributeName="opacity" to="0" dur="13.700000000000001s" /><animate attributeName="stroke-dashoffset" from="150" to="0" dur="1.8s" begin="13.700000000000001s" fill="freeze" /></path><path d="M58.03,79.37c0.21,0.31,0.52,1.4,0.52,1.8c0,4.88,0.08,6.34,0.14,12.59" class="stroke" stroke-dasharray="150"><set attributeName="opacity" to="0" dur="15.200000000000001s" /><animate attributeName="stroke-dashoffset" from="150" to="0" dur="1.8s" begin="15.200000000000001s" fill="freeze" /></path><path d="M71.44,77.94c0.39,0.37,0.71,1,0.69,1.48C72,84,71.5,87.5,70.94,92.92" class="stroke" stroke-dasharray="150"><set attributeName="opacity" to="0" dur="16.1s" /><animate attributeName="stroke-dashoffset" from="150" to="0" dur="1.8s" begin="16.1s" fill="freeze" /></path><path d="M35.82,95.44c1.16,0.54,3.29,0.62,4.44,0.54c12.07-0.9,32.65-3.05,54.86-3.19c1.93-0.01,3.09,0.25,4.06,0.52" class="stroke" stroke-dasharray="150"><set attributeName="opacity" to="0" dur="17.0s" /><animate attributeName="stroke-dashoffset" from="150" to="0" dur="1.8s" begin="17.0s" fill="freeze" /></path><text x="90" y="120" id="reset">⟳</text><text x="70" y="120" id="pause">◼</text><script type="text/javascript"><![CDATA[function RecurringTimer(e,t){var n,r,i=t;this.pause=function(){window.clearTimeout(n);i-=new Date-r};var s=function(){r=new Date;n=window.setTimeout(function(){i=t;s();e()},i)};this.clear=function(){window.clearTimeout(n);i=t;n=window.setTimeout(function(){i=t;s();e()},i)};this.resume=s;this.resume()}function invoketimer(){timer=new RecurringTimer(function(){svg.setCurrentTime(0)},19500)}var svg=document.getElementById("kanjivg");var pause=document.getElementById("pause");var reset=document.getElementById("reset");var timer;invoketimer();reset.onclick=function(){svg.setCurrentTime(0);timer.clear();svg.unpauseAnimations();pause.innerHTML = "◼";};pause.onclick=function(){if(svg.animationsPaused()){svg.unpauseAnimations();timer.resume();pause.innerHTML="◼"}else{svg.pauseAnimations();timer.pause();pause.innerHTML="▶"}}]]></script></svg>