<svg id="kanjivg" width="106" height="126" xmlns="http://www.w3.org/2000/svg" xmlns:xlink="http://www.w3.org/1999/xlink" xml:space="preserve" version="1.1" baseProfile="full"><defs><style type="text/css"><![CDATA[path.black { fill:none;stroke:black;stroke-width:5;stroke-linecap:round;stroke-linejoin:round; }path.grey { fill:none;stroke:#ddd;stroke-width:5;stroke-linecap:round;stroke-linejoin:round; }path.stroke { fill:none;stroke:black;stroke-width:5;stroke-linecap:round;stroke-linejoin:round; }rect { fill:none;stroke:#555;stroke-width:2;} text{font-size:16px;font-family:Segoe UI Symbol,Cambria Math,DejaVu Sans,Symbola,Quivira,STIX,Code2000;-webkit-touch-callout:none;cursor:pointer;-webkit-user-select:none;-khtml-user-select:none;-moz-user-select:none;-ms-user-select:none;user-select: none;} #reset { font-weight:bold; }]]></style><marker id="markerStart" markerWidth="8" markerHeight="8" style="overflow:visible;"><circle cx="0" cy="0" r="1.5" style="stroke:none;fill:red;fill-opacity:0.5;"/></marker><marker id="markerEnd" style="overflow:visible;"><circle cx="0" cy="0" r="0.8" style="stroke:none;fill:blue;fill-opacity:0.5;"><animate attributeName="opacity" from="1" to="0" dur="3s" repeatCount="indefinite" /></circle></marker></defs><rect x="4" y="4" width="100" height="100" /><path d="M33.44,13.5c0.13,1.23,0.22,2.78-0.11,4.29C31.19,27.36,22.94,45.86,13,58.82" class="grey" /><path d="M26.48,41.61c0.59,0.61,0.76,1.97,0.76,3.23c0,13.02-0.29,42.15-0.29,50.9" class="grey" /><path d="M41.91,19.13c0.87,0.38,2.45,0.44,3.32,0.38c9.01-0.63,24.81-3.63,35.12-3.61c1.44,0,2.31,0.18,3.03,0.37" class="grey" /><path d="M60.6,9.75c0.71,0.35,1.14,1.57,1.28,2.27s0.41,9.97,0.26,14.34" class="grey" /><path d="M46.77,28.61c0.69,0.26,1.95,0.3,2.65,0.26c7.09-0.37,18.58-3.33,28.21-3.31c1.15,0,1.84,0.12,2.42,0.25" class="grey" /><path d="M35.15,37.74c1.23,0.51,3.55,1.02,5.8,0.65C52.5,36.5,75.25,33,87.32,32.34c8.44-0.46,1.99,6.16-0.46,8.28" class="grey" /><path d="M44.58,44.69c0.57,0.38,2.42,0.5,2.99,0.39c2.67-0.52,23.28-3.49,27.76-3.88c0.88-0.08,1.67,0.08,2.4,0.4" class="grey" /><path d="M61.59,43.04c0.4,0.62,0.4,0.99,0.4,1.48c0,3.46-0.01,2.06-0.01,8" class="grey" /><path d="M42.74,54.21c0.46,0.23,2.09,0.45,2.87,0.37c8.88-0.83,24.98-3.43,32.6-3.78c1.25-0.06,2.75,0.39,3.37,0.76" class="grey" /><path d="M35.25,62.7c1.24,0.54,3.51,0.61,4.75,0.54c9.5-0.49,35.25-4.74,50.16-5.73c2.06-0.14,3.3,0.26,4.34,0.53" class="grey" /><path d="M38.46,73.3c0.27,0.29,0.55,0.53,0.67,0.89c0.94,2.85,2.06,11.7,2.7,16.81" class="grey" /><path d="M40.15,75.23c5.54-1.48,11.78-3.13,14.95-3.5c1.16-0.14,1.86,0.81,1.69,1.61c-0.69,3.33-1.49,9.34-2.51,13.94" class="grey" /><path d="M41.96,89c3.73-0.42,8.86-1.15,13.98-1.8" class="grey" /><path d="M62.75,70.92c0.8,0.62,2.26,0.75,3.07,0.62c8.75-1.51,17.78-2.34,27.54-3.28c1.33-0.13,2.13,0.29,2.8,0.6" class="grey" /><path d="M81.07,61.06c0.05,0.41,0.83,2.13,0.83,4.74c0,17.51-0.17,23.42-0.17,27.67c0,10.33-4.96,1.53-6.42,0.21" class="grey" /><path d="M66.59,78.27c2.02,1.12,5.22,4.62,5.73,6.37" class="grey" /><path d="M33.44,13.5c0.13,1.23,0.22,2.78-0.11,4.29C31.19,27.36,22.94,45.86,13,58.82" class="stroke" stroke-dasharray="150"><animate attributeName="stroke-dashoffset" from="150" to="0" dur="1.8s" begin="0s" fill="freeze" /></path><path d="M26.48,41.61c0.59,0.61,0.76,1.97,0.76,3.23c0,13.02-0.29,42.15-0.29,50.9" class="stroke" stroke-dasharray="150"><set attributeName="opacity" to="0" dur="1.3s" /><animate attributeName="stroke-dashoffset" from="150" to="0" dur="1.8s" begin="1.3s" fill="freeze" /></path><path d="M41.91,19.13c0.87,0.38,2.45,0.44,3.32,0.38c9.01-0.63,24.81-3.63,35.12-3.61c1.44,0,2.31,0.18,3.03,0.37" class="stroke" stroke-dasharray="150"><set attributeName="opacity" to="0" dur="2.6s" /><animate attributeName="stroke-dashoffset" from="150" to="0" dur="1.8s" begin="2.6s" fill="freeze" /></path><path d="M60.6,9.75c0.71,0.35,1.14,1.57,1.28,2.27s0.41,9.97,0.26,14.34" class="stroke" stroke-dasharray="150"><set attributeName="opacity" to="0" dur="3.7s" /><animate attributeName="stroke-dashoffset" from="150" to="0" dur="1.8s" begin="3.7s" fill="freeze" /></path><path d="M46.77,28.61c0.69,0.26,1.95,0.3,2.65,0.26c7.09-0.37,18.58-3.33,28.21-3.31c1.15,0,1.84,0.12,2.42,0.25" class="stroke" stroke-dasharray="150"><set attributeName="opacity" to="0" dur="4.6000000000000005s" /><animate attributeName="stroke-dashoffset" from="150" to="0" dur="1.8s" begin="4.6000000000000005s" fill="freeze" /></path><path d="M35.15,37.74c1.23,0.51,3.55,1.02,5.8,0.65C52.5,36.5,75.25,33,87.32,32.34c8.44-0.46,1.99,6.16-0.46,8.28" class="stroke" stroke-dasharray="150"><set attributeName="opacity" to="0" dur="5.6000000000000005s" /><animate attributeName="stroke-dashoffset" from="150" to="0" dur="1.8s" begin="5.6000000000000005s" fill="freeze" /></path><path d="M44.58,44.69c0.57,0.38,2.42,0.5,2.99,0.39c2.67-0.52,23.28-3.49,27.76-3.88c0.88-0.08,1.67,0.08,2.4,0.4" class="stroke" stroke-dasharray="150"><set attributeName="opacity" to="0" dur="7.1000000000000005s" /><animate attributeName="stroke-dashoffset" from="150" to="0" dur="1.8s" begin="7.1000000000000005s" fill="freeze" /></path><path d="M61.59,43.04c0.4,0.62,0.4,0.99,0.4,1.48c0,3.46-0.01,2.06-0.01,8" class="stroke" stroke-dasharray="150"><set attributeName="opacity" to="0" dur="8.100000000000001s" /><animate attributeName="stroke-dashoffset" from="150" to="0" dur="1.8s" begin="8.100000000000001s" fill="freeze" /></path><path d="M42.74,54.21c0.46,0.23,2.09,0.45,2.87,0.37c8.88-0.83,24.98-3.43,32.6-3.78c1.25-0.06,2.75,0.39,3.37,0.76" class="stroke" stroke-dasharray="150"><set attributeName="opacity" to="0" dur="9.000000000000002s" /><animate attributeName="stroke-dashoffset" from="150" to="0" dur="1.8s" begin="9.000000000000002s" fill="freeze" /></path><path d="M35.25,62.7c1.24,0.54,3.51,0.61,4.75,0.54c9.5-0.49,35.25-4.74,50.16-5.73c2.06-0.14,3.3,0.26,4.34,0.53" class="stroke" stroke-dasharray="150"><set attributeName="opacity" to="0" dur="10.000000000000002s" /><animate attributeName="stroke-dashoffset" from="150" to="0" dur="1.8s" begin="10.000000000000002s" fill="freeze" /></path><path d="M38.46,73.3c0.27,0.29,0.55,0.53,0.67,0.89c0.94,2.85,2.06,11.7,2.7,16.81" class="stroke" stroke-dasharray="150"><set attributeName="opacity" to="0" dur="11.400000000000002s" /><animate attributeName="stroke-dashoffset" from="150" to="0" dur="1.8s" begin="11.400000000000002s" fill="freeze" /></path><path d="M40.15,75.23c5.54-1.48,11.78-3.13,14.95-3.5c1.16-0.14,1.86,0.81,1.69,1.61c-0.69,3.33-1.49,9.34-2.51,13.94" class="stroke" stroke-dasharray="150"><set attributeName="opacity" to="0" dur="12.300000000000002s" /><animate attributeName="stroke-dashoffset" from="150" to="0" dur="1.8s" begin="12.300000000000002s" fill="freeze" /></path><path d="M41.96,89c3.73-0.42,8.86-1.15,13.98-1.8" class="stroke" stroke-dasharray="150"><set attributeName="opacity" to="0" dur="13.300000000000002s" /><animate attributeName="stroke-dashoffset" from="150" to="0" dur="1.8s" begin="13.300000000000002s" fill="freeze" /></path><path d="M62.75,70.92c0.8,0.62,2.26,0.75,3.07,0.62c8.75-1.51,17.78-2.34,27.54-3.28c1.33-0.13,2.13,0.29,2.8,0.6" class="stroke" stroke-dasharray="150"><set attributeName="opacity" to="0" dur="14.200000000000003s" /><animate attributeName="stroke-dashoffset" from="150" to="0" dur="1.8s" begin="14.200000000000003s" fill="freeze" /></path><path d="M81.07,61.06c0.05,0.41,0.83,2.13,0.83,4.74c0,17.51-0.17,23.42-0.17,27.67c0,10.33-4.96,1.53-6.42,0.21" class="stroke" stroke-dasharray="150"><set attributeName="opacity" to="0" dur="15.200000000000003s" /><animate attributeName="stroke-dashoffset" from="150" to="0" dur="1.8s" begin="15.200000000000003s" fill="freeze" /></path><path d="M66.59,78.27c2.02,1.12,5.22,4.62,5.73,6.37" class="stroke" stroke-dasharray="150"><set attributeName="opacity" to="0" dur="16.400000000000002s" /><animate attributeName="stroke-dashoffset" from="150" to="0" dur="1.8s" begin="16.400000000000002s" fill="freeze" /></path><text x="90" y="120" id="reset">⟳</text><text x="70" y="120" id="pause">◼</text><script type="text/javascript"><![CDATA[function RecurringTimer(e,t){var n,r,i=t;this.pause=function(){window.clearTimeout(n);i-=new Date-r};var s=function(){r=new Date;n=window.setTimeout(function(){i=t;s();e()},i)};this.clear=function(){window.clearTimeout(n);i=t;n=window.setTimeout(function(){i=t;s();e()},i)};this.resume=s;this.resume()}function invoketimer(){timer=new RecurringTimer(function(){svg.setCurrentTime(0)},18300)}var svg=document.getElementById("kanjivg");var pause=document.getElementById("pause");var reset=document.getElementById("reset");var timer;invoketimer();reset.onclick=function(){svg.setCurrentTime(0);timer.clear();svg.unpauseAnimations();pause.innerHTML = "◼";};pause.onclick=function(){if(svg.animationsPaused()){svg.unpauseAnimations();timer.resume();pause.innerHTML="◼"}else{svg.pauseAnimations();timer.pause();pause.innerHTML="▶"}}]]></script></svg>