<svg id="kanjivg" width="106" height="126" xmlns="http://www.w3.org/2000/svg" xmlns:xlink="http://www.w3.org/1999/xlink" xml:space="preserve" version="1.1" baseProfile="full"><defs><style type="text/css"><![CDATA[path.black { fill:none;stroke:black;stroke-width:5;stroke-linecap:round;stroke-linejoin:round; }path.grey { fill:none;stroke:#ddd;stroke-width:5;stroke-linecap:round;stroke-linejoin:round; }path.stroke { fill:none;stroke:black;stroke-width:5;stroke-linecap:round;stroke-linejoin:round; }rect { fill:none;stroke:#555;stroke-width:2;} text{font-size:16px;font-family:Segoe UI Symbol,Cambria Math,DejaVu Sans,Symbola,Quivira,STIX,Code2000;-webkit-touch-callout:none;cursor:pointer;-webkit-user-select:none;-khtml-user-select:none;-moz-user-select:none;-ms-user-select:none;user-select: none;} #reset { font-weight:bold; }]]></style><marker id="markerStart" markerWidth="8" markerHeight="8" style="overflow:visible;"><circle cx="0" cy="0" r="1.5" style="stroke:none;fill:red;fill-opacity:0.5;"/></marker><marker id="markerEnd" style="overflow:visible;"><circle cx="0" cy="0" r="0.8" style="stroke:none;fill:blue;fill-opacity:0.5;"><animate attributeName="opacity" from="1" to="0" dur="3s" repeatCount="indefinite" /></circle></marker></defs><rect x="4" y="4" width="100" height="100" /><path d="M30.46,15c0.11,1.04,0.19,2.35-0.1,3.63c-1.85,8.09-8.99,23.73-17.61,34.7" class="grey" /><path d="M24.45,39.61c0.64,0.66,0.81,2.12,0.81,3.48c0,14.02-0.31,43.23-0.31,52.65" class="grey" /><path d="M37.63,15.81c0.77,0.38,2.18,0.42,2.95,0.38c4.43-0.27,11.85-2.27,16.6-1.83c1.28,0.12,2.06,0.18,2.7,0.37" class="grey" /><path d="M40.86,24.44c0.24,0.59,0.48,0.88,0.48,1.66s-0.08,15.87,0,16.65" class="grey" /><path d="M41.74,25.52c1.35-0.1,14.53-1.87,15.77-1.98c1.03-0.1,1.69,1.08,1.61,1.66c-0.16,1.17-0.32,14.46-0.32,15.04" class="grey" /><path d="M47.11,31.41c1.92,1.01,4.95,4.17,5.43,5.74" class="grey" /><path d="M66.63,14.35c0.77,0.38,2.18,0.42,2.95,0.38c4.43-0.27,14.35-2.77,19.1-2.33c1.28,0.12,2.05,0.18,2.7,0.37" class="grey" /><path d="M68.63,22.97c0.24,0.59,0.98,1.38,0.98,2.16s-0.08,13.37,0,14.15" class="grey" /><path d="M69.51,24.56c1.35-0.1,16.26-2.37,17.5-2.48c1.03-0.1,1.69,1.08,1.61,1.66c-0.16,1.17-0.32,14.46-0.32,15.04" class="grey" /><path d="M76.61,30.69c1.92,1.15,4.95,4.71,5.43,6.49" class="grey" /><path d="M61.77,39.68c1.73,0.82,3.73,2.82,4.33,4.84" class="grey" /><path d="M38.93,49.23c1.23,0.37,3.48,0.43,4.71,0.37c12.79-0.62,34.28-3.17,45.59-3.89c2.04-0.13,3.28,0.18,4.3,0.36" class="grey" /><path d="M43.21,50.1c0.03,1.09,0.06,2.82-0.06,4.39c-0.72,9.26-2.34,31.72-10.09,41.69" class="grey" /><path d="M46.8,59.02c1.5,0.43,2.78,0.72,4.33,0.55c10.74-1.2,31.94-3.39,34.95-3.57c2.25-0.14,3.06,1.16,2.65,2.71c-0.76,2.85-1.76,6.55-2.78,9.61" class="grey" /><path d="M58.79,52.46c0.66,0.29,1.05,1.78,1.19,2.35c0.13,0.57,0.38,9.94,0.38,14.43" class="grey" /><path d="M73.5,51.8c0.66,0.29,1.23,1.76,1.19,2.35c-0.17,2.55-0.19,8.61-0.35,14.39" class="grey" /><path d="M47.76,71.04c0.7,0.26,2,0.33,2.7,0.26c4.49-0.45,29.36-3.6,34.4-3.51c1.17,0.02,1.88,0.12,2.47,0.26" class="grey" /><path d="M51.86,82.27c3.73-0.2,8.03-1.4,11.28-1.74c0.95-0.1,1.56-0.1,2.05-0.04" class="grey" /><path d="M50.23,76.27c0.67,0.36,1.25,1.43,1.25,1.93c0,1.34-0.21,14.21-0.21,15.91c0,1.89,1.36,1.61,2.7,1.01c3.5-1.55,5.95-2.81,10.16-5.27" class="grey" /><path d="M74.86,81.02c4.78-0.26,10.29-1.8,14.45-2.23c1.22-0.13,2-0.12,2.63-0.05" class="grey" /><path d="M73.46,73.38c0.73,0.36,1,1.12,1,2.02c0,1.19-0.06,13.2-0.08,14.6c-0.08,5.1,2.51,6.09,11.16,6.09c4.18,0,7.1-0.14,8.96-0.88" class="grey" /><path d="M30.46,15c0.11,1.04,0.19,2.35-0.1,3.63c-1.85,8.09-8.99,23.73-17.61,34.7" class="stroke" stroke-dasharray="150"><animate attributeName="stroke-dashoffset" from="150" to="0" dur="1.8s" begin="0s" fill="freeze" /></path><path d="M24.45,39.61c0.64,0.66,0.81,2.12,0.81,3.48c0,14.02-0.31,43.23-0.31,52.65" class="stroke" stroke-dasharray="150"><set attributeName="opacity" to="0" dur="1.1s" /><animate attributeName="stroke-dashoffset" from="150" to="0" dur="1.8s" begin="1.1s" fill="freeze" /></path><path d="M37.63,15.81c0.77,0.38,2.18,0.42,2.95,0.38c4.43-0.27,11.85-2.27,16.6-1.83c1.28,0.12,2.06,0.18,2.7,0.37" class="stroke" stroke-dasharray="150"><set attributeName="opacity" to="0" dur="2.5s" /><animate attributeName="stroke-dashoffset" from="150" to="0" dur="1.8s" begin="2.5s" fill="freeze" /></path><path d="M40.86,24.44c0.24,0.59,0.48,0.88,0.48,1.66s-0.08,15.87,0,16.65" class="stroke" stroke-dasharray="150"><set attributeName="opacity" to="0" dur="3.5s" /><animate attributeName="stroke-dashoffset" from="150" to="0" dur="1.8s" begin="3.5s" fill="freeze" /></path><path d="M41.74,25.52c1.35-0.1,14.53-1.87,15.77-1.98c1.03-0.1,1.69,1.08,1.61,1.66c-0.16,1.17-0.32,14.46-0.32,15.04" class="stroke" stroke-dasharray="150"><set attributeName="opacity" to="0" dur="4.4s" /><animate attributeName="stroke-dashoffset" from="150" to="0" dur="1.8s" begin="4.4s" fill="freeze" /></path><path d="M47.11,31.41c1.92,1.01,4.95,4.17,5.43,5.74" class="stroke" stroke-dasharray="150"><set attributeName="opacity" to="0" dur="5.4s" /><animate attributeName="stroke-dashoffset" from="150" to="0" dur="1.8s" begin="5.4s" fill="freeze" /></path><path d="M66.63,14.35c0.77,0.38,2.18,0.42,2.95,0.38c4.43-0.27,14.35-2.77,19.1-2.33c1.28,0.12,2.05,0.18,2.7,0.37" class="stroke" stroke-dasharray="150"><set attributeName="opacity" to="0" dur="6.300000000000001s" /><animate attributeName="stroke-dashoffset" from="150" to="0" dur="1.8s" begin="6.300000000000001s" fill="freeze" /></path><path d="M68.63,22.97c0.24,0.59,0.98,1.38,0.98,2.16s-0.08,13.37,0,14.15" class="stroke" stroke-dasharray="150"><set attributeName="opacity" to="0" dur="7.300000000000001s" /><animate attributeName="stroke-dashoffset" from="150" to="0" dur="1.8s" begin="7.300000000000001s" fill="freeze" /></path><path d="M69.51,24.56c1.35-0.1,16.26-2.37,17.5-2.48c1.03-0.1,1.69,1.08,1.61,1.66c-0.16,1.17-0.32,14.46-0.32,15.04" class="stroke" stroke-dasharray="150"><set attributeName="opacity" to="0" dur="8.200000000000001s" /><animate attributeName="stroke-dashoffset" from="150" to="0" dur="1.8s" begin="8.200000000000001s" fill="freeze" /></path><path d="M76.61,30.69c1.92,1.15,4.95,4.71,5.43,6.49" class="stroke" stroke-dasharray="150"><set attributeName="opacity" to="0" dur="9.200000000000001s" /><animate attributeName="stroke-dashoffset" from="150" to="0" dur="1.8s" begin="9.200000000000001s" fill="freeze" /></path><path d="M61.77,39.68c1.73,0.82,3.73,2.82,4.33,4.84" class="stroke" stroke-dasharray="150"><set attributeName="opacity" to="0" dur="10.100000000000001s" /><animate attributeName="stroke-dashoffset" from="150" to="0" dur="1.8s" begin="10.100000000000001s" fill="freeze" /></path><path d="M38.93,49.23c1.23,0.37,3.48,0.43,4.71,0.37c12.79-0.62,34.28-3.17,45.59-3.89c2.04-0.13,3.28,0.18,4.3,0.36" class="stroke" stroke-dasharray="150"><set attributeName="opacity" to="0" dur="11.000000000000002s" /><animate attributeName="stroke-dashoffset" from="150" to="0" dur="1.8s" begin="11.000000000000002s" fill="freeze" /></path><path d="M43.21,50.1c0.03,1.09,0.06,2.82-0.06,4.39c-0.72,9.26-2.34,31.72-10.09,41.69" class="stroke" stroke-dasharray="150"><set attributeName="opacity" to="0" dur="12.300000000000002s" /><animate attributeName="stroke-dashoffset" from="150" to="0" dur="1.8s" begin="12.300000000000002s" fill="freeze" /></path><path d="M46.8,59.02c1.5,0.43,2.78,0.72,4.33,0.55c10.74-1.2,31.94-3.39,34.95-3.57c2.25-0.14,3.06,1.16,2.65,2.71c-0.76,2.85-1.76,6.55-2.78,9.61" class="stroke" stroke-dasharray="150"><set attributeName="opacity" to="0" dur="13.500000000000002s" /><animate attributeName="stroke-dashoffset" from="150" to="0" dur="1.8s" begin="13.500000000000002s" fill="freeze" /></path><path d="M58.79,52.46c0.66,0.29,1.05,1.78,1.19,2.35c0.13,0.57,0.38,9.94,0.38,14.43" class="stroke" stroke-dasharray="150"><set attributeName="opacity" to="0" dur="14.800000000000002s" /><animate attributeName="stroke-dashoffset" from="150" to="0" dur="1.8s" begin="14.800000000000002s" fill="freeze" /></path><path d="M73.5,51.8c0.66,0.29,1.23,1.76,1.19,2.35c-0.17,2.55-0.19,8.61-0.35,14.39" class="stroke" stroke-dasharray="150"><set attributeName="opacity" to="0" dur="15.700000000000003s" /><animate attributeName="stroke-dashoffset" from="150" to="0" dur="1.8s" begin="15.700000000000003s" fill="freeze" /></path><path d="M47.76,71.04c0.7,0.26,2,0.33,2.7,0.26c4.49-0.45,29.36-3.6,34.4-3.51c1.17,0.02,1.88,0.12,2.47,0.26" class="stroke" stroke-dasharray="150"><set attributeName="opacity" to="0" dur="16.6s" /><animate attributeName="stroke-dashoffset" from="150" to="0" dur="1.8s" begin="16.6s" fill="freeze" /></path><path d="M51.86,82.27c3.73-0.2,8.03-1.4,11.28-1.74c0.95-0.1,1.56-0.1,2.05-0.04" class="stroke" stroke-dasharray="150"><set attributeName="opacity" to="0" dur="17.6s" /><animate attributeName="stroke-dashoffset" from="150" to="0" dur="1.8s" begin="17.6s" fill="freeze" /></path><path d="M50.23,76.27c0.67,0.36,1.25,1.43,1.25,1.93c0,1.34-0.21,14.21-0.21,15.91c0,1.89,1.36,1.61,2.7,1.01c3.5-1.55,5.95-2.81,10.16-5.27" class="stroke" stroke-dasharray="150"><set attributeName="opacity" to="0" dur="18.5s" /><animate attributeName="stroke-dashoffset" from="150" to="0" dur="1.8s" begin="18.5s" fill="freeze" /></path><path d="M74.86,81.02c4.78-0.26,10.29-1.8,14.45-2.23c1.22-0.13,2-0.12,2.63-0.05" class="stroke" stroke-dasharray="150"><set attributeName="opacity" to="0" dur="19.5s" /><animate attributeName="stroke-dashoffset" from="150" to="0" dur="1.8s" begin="19.5s" fill="freeze" /></path><path d="M73.46,73.38c0.73,0.36,1,1.12,1,2.02c0,1.19-0.06,13.2-0.08,14.6c-0.08,5.1,2.51,6.09,11.16,6.09c4.18,0,7.1-0.14,8.96-0.88" class="stroke" stroke-dasharray="150"><set attributeName="opacity" to="0" dur="20.4s" /><animate attributeName="stroke-dashoffset" from="150" to="0" dur="1.8s" begin="20.4s" fill="freeze" /></path><text x="90" y="120" id="reset">⟳</text><text x="70" y="120" id="pause">◼</text><script type="text/javascript"><![CDATA[function RecurringTimer(e,t){var n,r,i=t;this.pause=function(){window.clearTimeout(n);i-=new Date-r};var s=function(){r=new Date;n=window.setTimeout(function(){i=t;s();e()},i)};this.clear=function(){window.clearTimeout(n);i=t;n=window.setTimeout(function(){i=t;s();e()},i)};this.resume=s;this.resume()}function invoketimer(){timer=new RecurringTimer(function(){svg.setCurrentTime(0)},22500)}var svg=document.getElementById("kanjivg");var pause=document.getElementById("pause");var reset=document.getElementById("reset");var timer;invoketimer();reset.onclick=function(){svg.setCurrentTime(0);timer.clear();svg.unpauseAnimations();pause.innerHTML = "◼";};pause.onclick=function(){if(svg.animationsPaused()){svg.unpauseAnimations();timer.resume();pause.innerHTML="◼"}else{svg.pauseAnimations();timer.pause();pause.innerHTML="▶"}}]]></script></svg>