<svg id="kanjivg" width="106" height="126" xmlns="http://www.w3.org/2000/svg" xmlns:xlink="http://www.w3.org/1999/xlink" xml:space="preserve" version="1.1" baseProfile="full"><defs><style type="text/css"><![CDATA[path.black { fill:none;stroke:black;stroke-width:5;stroke-linecap:round;stroke-linejoin:round; }path.grey { fill:none;stroke:#ddd;stroke-width:5;stroke-linecap:round;stroke-linejoin:round; }path.stroke { fill:none;stroke:black;stroke-width:5;stroke-linecap:round;stroke-linejoin:round; }rect { fill:none;stroke:#555;stroke-width:2;} text{font-size:16px;font-family:Segoe UI Symbol,Cambria Math,DejaVu Sans,Symbola,Quivira,STIX,Code2000;-webkit-touch-callout:none;cursor:pointer;-webkit-user-select:none;-khtml-user-select:none;-moz-user-select:none;-ms-user-select:none;user-select: none;} #reset { font-weight:bold; }]]></style><marker id="markerStart" markerWidth="8" markerHeight="8" style="overflow:visible;"><circle cx="0" cy="0" r="1.5" style="stroke:none;fill:red;fill-opacity:0.5;"/></marker><marker id="markerEnd" style="overflow:visible;"><circle cx="0" cy="0" r="0.8" style="stroke:none;fill:blue;fill-opacity:0.5;"><animate attributeName="opacity" from="1" to="0" dur="3s" repeatCount="indefinite" /></circle></marker></defs><rect x="4" y="4" width="100" height="100" /><path d="M39.75,18.25c0.5,0.75,0.88,3.76,0.88,5.06c0,8.19,0.06,21.19,0.06,30.21c0,26.99-6.21,34.15-15.44,42.23" class="grey" /><path d="M58.49,11.87c0.74,1.19,1.33,2.59,1.38,4.43c0.2,8.19-0.03,61.64-0.03,67.2c0,13,8.9,12.03,17.67,12.03c9.25,0,15.34-1.68,16.64-2.62c2.75-2,2-3,2.25-6.5" class="grey" /><path d="M19,33.75c4.77,2.03,12.31,8.34,13.5,11.5" class="grey" /><path d="M14.75,72.5c1.5,0.75,3,1,4.14,0.15C20.47,71.47,31.81,61.69,38,56" class="grey" /><path d="M84.76,23.64c0.04,0.38,0.09,0.99-0.09,1.54c-1.09,3.26-7.33,10.4-15.86,14.78" class="grey" /><path d="M73,56c4.77,2.43,12.31,9.97,13.5,13.75" class="grey" /><path d="M39.75,18.25c0.5,0.75,0.88,3.76,0.88,5.06c0,8.19,0.06,21.19,0.06,30.21c0,26.99-6.21,34.15-15.44,42.23" class="stroke" stroke-dasharray="150"><animate attributeName="stroke-dashoffset" from="150" to="0" dur="1.8s" begin="0s" fill="freeze" /></path><path d="M58.49,11.87c0.74,1.19,1.33,2.59,1.38,4.43c0.2,8.19-0.03,61.64-0.03,67.2c0,13,8.9,12.03,17.67,12.03c9.25,0,15.34-1.68,16.64-2.62c2.75-2,2-3,2.25-6.5" class="stroke" stroke-dasharray="150"><set attributeName="opacity" to="0" dur="1.7s" /><animate attributeName="stroke-dashoffset" from="150" to="0" dur="1.8s" begin="1.7s" fill="freeze" /></path><path d="M19,33.75c4.77,2.03,12.31,8.34,13.5,11.5" class="stroke" stroke-dasharray="150"><set attributeName="opacity" to="0" dur="3.7s" /><animate attributeName="stroke-dashoffset" from="150" to="0" dur="1.8s" begin="3.7s" fill="freeze" /></path><path d="M14.75,72.5c1.5,0.75,3,1,4.14,0.15C20.47,71.47,31.81,61.69,38,56" class="stroke" stroke-dasharray="150"><set attributeName="opacity" to="0" dur="4.6000000000000005s" /><animate attributeName="stroke-dashoffset" from="150" to="0" dur="1.8s" begin="4.6000000000000005s" fill="freeze" /></path><path d="M84.76,23.64c0.04,0.38,0.09,0.99-0.09,1.54c-1.09,3.26-7.33,10.4-15.86,14.78" class="stroke" stroke-dasharray="150"><set attributeName="opacity" to="0" dur="5.6000000000000005s" /><animate attributeName="stroke-dashoffset" from="150" to="0" dur="1.8s" begin="5.6000000000000005s" fill="freeze" /></path><path d="M73,56c4.77,2.43,12.31,9.97,13.5,13.75" class="stroke" stroke-dasharray="150"><set attributeName="opacity" to="0" dur="6.6000000000000005s" /><animate attributeName="stroke-dashoffset" from="150" to="0" dur="1.8s" begin="6.6000000000000005s" fill="freeze" /></path><text x="90" y="120" id="reset">⟳</text><text x="70" y="120" id="pause">◼</text><script type="text/javascript"><![CDATA[function RecurringTimer(e,t){var n,r,i=t;this.pause=function(){window.clearTimeout(n);i-=new Date-r};var s=function(){r=new Date;n=window.setTimeout(function(){i=t;s();e()},i)};this.clear=function(){window.clearTimeout(n);i=t;n=window.setTimeout(function(){i=t;s();e()},i)};this.resume=s;this.resume()}function invoketimer(){timer=new RecurringTimer(function(){svg.setCurrentTime(0)},8500)}var svg=document.getElementById("kanjivg");var pause=document.getElementById("pause");var reset=document.getElementById("reset");var timer;invoketimer();reset.onclick=function(){svg.setCurrentTime(0);timer.clear();svg.unpauseAnimations();pause.innerHTML = "◼";};pause.onclick=function(){if(svg.animationsPaused()){svg.unpauseAnimations();timer.resume();pause.innerHTML="◼"}else{svg.pauseAnimations();timer.pause();pause.innerHTML="▶"}}]]></script></svg>