<svg id="kanjivg" width="106" height="126" xmlns="http://www.w3.org/2000/svg" xmlns:xlink="http://www.w3.org/1999/xlink" xml:space="preserve" version="1.1" baseProfile="full"><defs><style type="text/css"><![CDATA[path.black { fill:none;stroke:black;stroke-width:5;stroke-linecap:round;stroke-linejoin:round; }path.grey { fill:none;stroke:#ddd;stroke-width:5;stroke-linecap:round;stroke-linejoin:round; }path.stroke { fill:none;stroke:black;stroke-width:5;stroke-linecap:round;stroke-linejoin:round; }rect { fill:none;stroke:#555;stroke-width:2;} text{font-size:16px;font-family:Segoe UI Symbol,Cambria Math,DejaVu Sans,Symbola,Quivira,STIX,Code2000;-webkit-touch-callout:none;cursor:pointer;-webkit-user-select:none;-khtml-user-select:none;-moz-user-select:none;-ms-user-select:none;user-select: none;} #reset { font-weight:bold; }]]></style><marker id="markerStart" markerWidth="8" markerHeight="8" style="overflow:visible;"><circle cx="0" cy="0" r="1.5" style="stroke:none;fill:red;fill-opacity:0.5;"/></marker><marker id="markerEnd" style="overflow:visible;"><circle cx="0" cy="0" r="0.8" style="stroke:none;fill:blue;fill-opacity:0.5;"><animate attributeName="opacity" from="1" to="0" dur="3s" repeatCount="indefinite" /></circle></marker></defs><rect x="4" y="4" width="100" height="100" /><path d="M68.22,13.43c0,1.57-0.82,2.88-1.75,4.26C58.75,29.12,50.25,37.38,36,46.32" class="grey" /><path d="M38.06,19.58c11.81,4.05,25.19,14.17,30.91,23.89" class="grey" /><path d="M27.31,17.88c1.09,1.09,1.14,2.37,1.14,3.81c0,4.49-0.64,22.56-0.64,28.68c0,1.84,0.21,3.34,2.32,3.16c10.99-0.91,41.69-3.26,47.62-3.61" class="grey" /><path d="M80.83,13.88c0.96,0.96,1.05,1.87,0.98,3.35c-0.14,3.28-1.56,21.02-3.24,36.65" class="grey" /><path d="M43.74,57c0.08,0.92,0.14,1.88-0.15,3.21C41.25,71,33.12,86.5,16.17,96.17" class="grey" /><path d="M58.99,55.87c1.01,1.01,1.31,2.25,1.31,3.93c0,8.19-0.03,19.14-0.03,24.7c0,9.75,1.98,11.53,16.85,11.53c12.75,0,16.87,0.36,17.51-9.12" class="grey" /><path d="M68.22,13.43c0,1.57-0.82,2.88-1.75,4.26C58.75,29.12,50.25,37.38,36,46.32" class="stroke" stroke-dasharray="150"><animate attributeName="stroke-dashoffset" from="150" to="0" dur="1.8s" begin="0s" fill="freeze" /></path><path d="M38.06,19.58c11.81,4.05,25.19,14.17,30.91,23.89" class="stroke" stroke-dasharray="150"><set attributeName="opacity" to="0" dur="1.2s" /><animate attributeName="stroke-dashoffset" from="150" to="0" dur="1.8s" begin="1.2s" fill="freeze" /></path><path d="M27.31,17.88c1.09,1.09,1.14,2.37,1.14,3.81c0,4.49-0.64,22.56-0.64,28.68c0,1.84,0.21,3.34,2.32,3.16c10.99-0.91,41.69-3.26,47.62-3.61" class="stroke" stroke-dasharray="150"><set attributeName="opacity" to="0" dur="2.2s" /><animate attributeName="stroke-dashoffset" from="150" to="0" dur="1.8s" begin="2.2s" fill="freeze" /></path><path d="M80.83,13.88c0.96,0.96,1.05,1.87,0.98,3.35c-0.14,3.28-1.56,21.02-3.24,36.65" class="stroke" stroke-dasharray="150"><set attributeName="opacity" to="0" dur="3.9000000000000004s" /><animate attributeName="stroke-dashoffset" from="150" to="0" dur="1.8s" begin="3.9000000000000004s" fill="freeze" /></path><path d="M43.74,57c0.08,0.92,0.14,1.88-0.15,3.21C41.25,71,33.12,86.5,16.17,96.17" class="stroke" stroke-dasharray="150"><set attributeName="opacity" to="0" dur="5.0s" /><animate attributeName="stroke-dashoffset" from="150" to="0" dur="1.8s" begin="5.0s" fill="freeze" /></path><path d="M58.99,55.87c1.01,1.01,1.31,2.25,1.31,3.93c0,8.19-0.03,19.14-0.03,24.7c0,9.75,1.98,11.53,16.85,11.53c12.75,0,16.87,0.36,17.51-9.12" class="stroke" stroke-dasharray="150"><set attributeName="opacity" to="0" dur="6.2s" /><animate attributeName="stroke-dashoffset" from="150" to="0" dur="1.8s" begin="6.2s" fill="freeze" /></path><text x="90" y="120" id="reset">⟳</text><text x="70" y="120" id="pause">◼</text><script type="text/javascript"><![CDATA[function RecurringTimer(e,t){var n,r,i=t;this.pause=function(){window.clearTimeout(n);i-=new Date-r};var s=function(){r=new Date;n=window.setTimeout(function(){i=t;s();e()},i)};this.clear=function(){window.clearTimeout(n);i=t;n=window.setTimeout(function(){i=t;s();e()},i)};this.resume=s;this.resume()}function invoketimer(){timer=new RecurringTimer(function(){svg.setCurrentTime(0)},8900)}var svg=document.getElementById("kanjivg");var pause=document.getElementById("pause");var reset=document.getElementById("reset");var timer;invoketimer();reset.onclick=function(){svg.setCurrentTime(0);timer.clear();svg.unpauseAnimations();pause.innerHTML = "◼";};pause.onclick=function(){if(svg.animationsPaused()){svg.unpauseAnimations();timer.resume();pause.innerHTML="◼"}else{svg.pauseAnimations();timer.pause();pause.innerHTML="▶"}}]]></script></svg>