<svg id="kanjivg" width="106" height="126" xmlns="http://www.w3.org/2000/svg" xmlns:xlink="http://www.w3.org/1999/xlink" xml:space="preserve" version="1.1" baseProfile="full"><defs><style type="text/css"><![CDATA[path.black { fill:none;stroke:black;stroke-width:5;stroke-linecap:round;stroke-linejoin:round; }path.grey { fill:none;stroke:#ddd;stroke-width:5;stroke-linecap:round;stroke-linejoin:round; }path.stroke { fill:none;stroke:black;stroke-width:5;stroke-linecap:round;stroke-linejoin:round; }rect { fill:none;stroke:#555;stroke-width:2;} text{font-size:16px;font-family:Segoe UI Symbol,Cambria Math,DejaVu Sans,Symbola,Quivira,STIX,Code2000;-webkit-touch-callout:none;cursor:pointer;-webkit-user-select:none;-khtml-user-select:none;-moz-user-select:none;-ms-user-select:none;user-select: none;} #reset { font-weight:bold; }]]></style><marker id="markerStart" markerWidth="8" markerHeight="8" style="overflow:visible;"><circle cx="0" cy="0" r="1.5" style="stroke:none;fill:red;fill-opacity:0.5;"/></marker><marker id="markerEnd" style="overflow:visible;"><circle cx="0" cy="0" r="0.8" style="stroke:none;fill:blue;fill-opacity:0.5;"><animate attributeName="opacity" from="1" to="0" dur="3s" repeatCount="indefinite" /></circle></marker></defs><rect x="4" y="4" width="100" height="100" /><path d="M48.01,12.75c3.83,1.6,8.36,6.46,10.12,10.96" class="grey" /><path d="M19.85,31.68c1.23,0.09,4.05,0.6,5.25,0.48c9.69-1,45.64-4.68,59.46-5.37c2.03-0.1,3.07,0.04,4.59,0.61" class="grey" /><path d="M50.95,31.95c0.05,1.05,0.15,2.6-0.31,3.19c-4.89,6.35-9.89,12.35-15.37,16.39c-2.5,1.84-2.45,3.95,1.14,3.38c8.76-1.38,23.41-4.5,35.6-6.83" class="grey" /><path d="M63.71,39.18C69,42.01,77.37,50.83,78.69,55.24" class="grey" /><path d="M43.73,62.83c0.07,0.82,0.14,2.12-0.13,3.3c-1.61,6.96-10.08,23.56-23.46,31.59" class="grey" /><path d="M60.29,57.26c0.68,1.27,1.22,2.76,1.26,4.72c0.18,8.72-0.48,17.2-0.48,23.13c0,13.85,8.12,12.29,16.12,12.29c8.44,0,14-1.79,15.18-2.8c2.51-2.13,1.83-3.2,2.05-6.92" class="grey" /><path d="M48.01,12.75c3.83,1.6,8.36,6.46,10.12,10.96" class="stroke" stroke-dasharray="150"><animate attributeName="stroke-dashoffset" from="150" to="0" dur="1.8s" begin="0s" fill="freeze" /></path><path d="M19.85,31.68c1.23,0.09,4.05,0.6,5.25,0.48c9.69-1,45.64-4.68,59.46-5.37c2.03-0.1,3.07,0.04,4.59,0.61" class="stroke" stroke-dasharray="150"><set attributeName="opacity" to="0" dur="0.9s" /><animate attributeName="stroke-dashoffset" from="150" to="0" dur="1.8s" begin="0.9s" fill="freeze" /></path><path d="M50.95,31.95c0.05,1.05,0.15,2.6-0.31,3.19c-4.89,6.35-9.89,12.35-15.37,16.39c-2.5,1.84-2.45,3.95,1.14,3.38c8.76-1.38,23.41-4.5,35.6-6.83" class="stroke" stroke-dasharray="150"><set attributeName="opacity" to="0" dur="2.4s" /><animate attributeName="stroke-dashoffset" from="150" to="0" dur="1.8s" begin="2.4s" fill="freeze" /></path><path d="M63.71,39.18C69,42.01,77.37,50.83,78.69,55.24" class="stroke" stroke-dasharray="150"><set attributeName="opacity" to="0" dur="3.9s" /><animate attributeName="stroke-dashoffset" from="150" to="0" dur="1.8s" begin="3.9s" fill="freeze" /></path><path d="M43.73,62.83c0.07,0.82,0.14,2.12-0.13,3.3c-1.61,6.96-10.08,23.56-23.46,31.59" class="stroke" stroke-dasharray="150"><set attributeName="opacity" to="0" dur="4.9s" /><animate attributeName="stroke-dashoffset" from="150" to="0" dur="1.8s" begin="4.9s" fill="freeze" /></path><path d="M60.29,57.26c0.68,1.27,1.22,2.76,1.26,4.72c0.18,8.72-0.48,17.2-0.48,23.13c0,13.85,8.12,12.29,16.12,12.29c8.44,0,14-1.79,15.18-2.8c2.51-2.13,1.83-3.2,2.05-6.92" class="stroke" stroke-dasharray="150"><set attributeName="opacity" to="0" dur="6.0s" /><animate attributeName="stroke-dashoffset" from="150" to="0" dur="1.8s" begin="6.0s" fill="freeze" /></path><text x="90" y="120" id="reset">⟳</text><text x="70" y="120" id="pause">◼</text><script type="text/javascript"><![CDATA[function RecurringTimer(e,t){var n,r,i=t;this.pause=function(){window.clearTimeout(n);i-=new Date-r};var s=function(){r=new Date;n=window.setTimeout(function(){i=t;s();e()},i)};this.clear=function(){window.clearTimeout(n);i=t;n=window.setTimeout(function(){i=t;s();e()},i)};this.resume=s;this.resume()}function invoketimer(){timer=new RecurringTimer(function(){svg.setCurrentTime(0)},8700)}var svg=document.getElementById("kanjivg");var pause=document.getElementById("pause");var reset=document.getElementById("reset");var timer;invoketimer();reset.onclick=function(){svg.setCurrentTime(0);timer.clear();svg.unpauseAnimations();pause.innerHTML = "◼";};pause.onclick=function(){if(svg.animationsPaused()){svg.unpauseAnimations();timer.resume();pause.innerHTML="◼"}else{svg.pauseAnimations();timer.pause();pause.innerHTML="▶"}}]]></script></svg>