<svg id="kanjivg" width="106" height="126" xmlns="http://www.w3.org/2000/svg" xmlns:xlink="http://www.w3.org/1999/xlink" xml:space="preserve" version="1.1" baseProfile="full"><defs><style type="text/css"><![CDATA[path.black { fill:none;stroke:black;stroke-width:5;stroke-linecap:round;stroke-linejoin:round; }path.grey { fill:none;stroke:#ddd;stroke-width:5;stroke-linecap:round;stroke-linejoin:round; }path.stroke { fill:none;stroke:black;stroke-width:5;stroke-linecap:round;stroke-linejoin:round; }rect { fill:none;stroke:#555;stroke-width:2;} text{font-size:16px;font-family:Segoe UI Symbol,Cambria Math,DejaVu Sans,Symbola,Quivira,STIX,Code2000;-webkit-touch-callout:none;cursor:pointer;-webkit-user-select:none;-khtml-user-select:none;-moz-user-select:none;-ms-user-select:none;user-select: none;} #reset { font-weight:bold; }]]></style><marker id="markerStart" markerWidth="8" markerHeight="8" style="overflow:visible;"><circle cx="0" cy="0" r="1.5" style="stroke:none;fill:red;fill-opacity:0.5;"/></marker><marker id="markerEnd" style="overflow:visible;"><circle cx="0" cy="0" r="0.8" style="stroke:none;fill:blue;fill-opacity:0.5;"><animate attributeName="opacity" from="1" to="0" dur="3s" repeatCount="indefinite" /></circle></marker></defs><rect x="4" y="4" width="100" height="100" /><path d="M37.51,21c0.07,0.62,0.15,1.61-0.14,2.49C35.25,29.88,31.62,37.38,24.5,45" class="grey" /><path d="M38.13,32.04c1.5,0.09,3.95-0.16,4.64-0.22c6.48-0.57,20.36-1.82,27.82-2.94c1.65-0.25,3.66-0.13,5.16,0.27" class="grey" /><path d="M52.81,12.38c1.28,1.28,2.01,3.12,2.01,4.75c0,0.75-0.05,31.92-0.07,32.87" class="grey" /><path d="M15.88,53.26c3.42,0.98,7.15,0.5,10.62,0.22c15.99-1.3,38.99-3.55,59-4.4c2.94-0.13,5.84-0.03,8.75,0.47" class="grey" /><path d="M45.18,55.68c0.32,1.45,0.15,2.48-0.15,3.85C43.24,67.65,35,86.62,20,96.38" class="grey" /><path d="M60.49,53.62c1.07,1.07,1.38,2.71,1.38,4.98c0,7.78-0.22,14.88-0.22,21.89c0,15.14,1.1,16.04,15.85,16.04c14.62,0,15.64-1.78,15.64-11.29" class="grey" /><path d="M37.51,21c0.07,0.62,0.15,1.61-0.14,2.49C35.25,29.88,31.62,37.38,24.5,45" class="stroke" stroke-dasharray="150"><animate attributeName="stroke-dashoffset" from="150" to="0" dur="1.8s" begin="0s" fill="freeze" /></path><path d="M38.13,32.04c1.5,0.09,3.95-0.16,4.64-0.22c6.48-0.57,20.36-1.82,27.82-2.94c1.65-0.25,3.66-0.13,5.16,0.27" class="stroke" stroke-dasharray="150"><set attributeName="opacity" to="0" dur="1.0s" /><animate attributeName="stroke-dashoffset" from="150" to="0" dur="1.8s" begin="1.0s" fill="freeze" /></path><path d="M52.81,12.38c1.28,1.28,2.01,3.12,2.01,4.75c0,0.75-0.05,31.92-0.07,32.87" class="stroke" stroke-dasharray="150"><set attributeName="opacity" to="0" dur="2.0s" /><animate attributeName="stroke-dashoffset" from="150" to="0" dur="1.8s" begin="2.0s" fill="freeze" /></path><path d="M15.88,53.26c3.42,0.98,7.15,0.5,10.62,0.22c15.99-1.3,38.99-3.55,59-4.4c2.94-0.13,5.84-0.03,8.75,0.47" class="stroke" stroke-dasharray="150"><set attributeName="opacity" to="0" dur="3.0s" /><animate attributeName="stroke-dashoffset" from="150" to="0" dur="1.8s" begin="3.0s" fill="freeze" /></path><path d="M45.18,55.68c0.32,1.45,0.15,2.48-0.15,3.85C43.24,67.65,35,86.62,20,96.38" class="stroke" stroke-dasharray="150"><set attributeName="opacity" to="0" dur="4.7s" /><animate attributeName="stroke-dashoffset" from="150" to="0" dur="1.8s" begin="4.7s" fill="freeze" /></path><path d="M60.49,53.62c1.07,1.07,1.38,2.71,1.38,4.98c0,7.78-0.22,14.88-0.22,21.89c0,15.14,1.1,16.04,15.85,16.04c14.62,0,15.64-1.78,15.64-11.29" class="stroke" stroke-dasharray="150"><set attributeName="opacity" to="0" dur="5.9s" /><animate attributeName="stroke-dashoffset" from="150" to="0" dur="1.8s" begin="5.9s" fill="freeze" /></path><text x="90" y="120" id="reset">⟳</text><text x="70" y="120" id="pause">◼</text><script type="text/javascript"><![CDATA[function RecurringTimer(e,t){var n,r,i=t;this.pause=function(){window.clearTimeout(n);i-=new Date-r};var s=function(){r=new Date;n=window.setTimeout(function(){i=t;s();e()},i)};this.clear=function(){window.clearTimeout(n);i=t;n=window.setTimeout(function(){i=t;s();e()},i)};this.resume=s;this.resume()}function invoketimer(){timer=new RecurringTimer(function(){svg.setCurrentTime(0)},8600)}var svg=document.getElementById("kanjivg");var pause=document.getElementById("pause");var reset=document.getElementById("reset");var timer;invoketimer();reset.onclick=function(){svg.setCurrentTime(0);timer.clear();svg.unpauseAnimations();pause.innerHTML = "◼";};pause.onclick=function(){if(svg.animationsPaused()){svg.unpauseAnimations();timer.resume();pause.innerHTML="◼"}else{svg.pauseAnimations();timer.pause();pause.innerHTML="▶"}}]]></script></svg>