<svg id="kanjivg" width="106" height="126" xmlns="http://www.w3.org/2000/svg" xmlns:xlink="http://www.w3.org/1999/xlink" xml:space="preserve" version="1.1" baseProfile="full"><defs><style type="text/css"><![CDATA[path.black { fill:none;stroke:black;stroke-width:5;stroke-linecap:round;stroke-linejoin:round; }path.grey { fill:none;stroke:#ddd;stroke-width:5;stroke-linecap:round;stroke-linejoin:round; }path.stroke { fill:none;stroke:black;stroke-width:5;stroke-linecap:round;stroke-linejoin:round; }rect { fill:none;stroke:#555;stroke-width:2;} text{font-size:16px;font-family:Segoe UI Symbol,Cambria Math,DejaVu Sans,Symbola,Quivira,STIX,Code2000;-webkit-touch-callout:none;cursor:pointer;-webkit-user-select:none;-khtml-user-select:none;-moz-user-select:none;-ms-user-select:none;user-select: none;} #reset { font-weight:bold; }]]></style><marker id="markerStart" markerWidth="8" markerHeight="8" style="overflow:visible;"><circle cx="0" cy="0" r="1.5" style="stroke:none;fill:red;fill-opacity:0.5;"/></marker><marker id="markerEnd" style="overflow:visible;"><circle cx="0" cy="0" r="0.8" style="stroke:none;fill:blue;fill-opacity:0.5;"><animate attributeName="opacity" from="1" to="0" dur="3s" repeatCount="indefinite" /></circle></marker></defs><rect x="4" y="4" width="100" height="100" /><path d="M28.59,21.36c1.78,0.33,5.04,0.48,6.82,0.33c10.84-0.94,21.52-2.57,32.08-3.03c2.96-0.13,4.75,0.16,6.23,0.32" class="grey" /><path d="M16.13,44.06c2.16,0.47,5.88,0.62,8.04,0.47c18.08-1.27,36.71-3.9,56.39-4.5c3.6-0.11,5.77,0.22,7.57,0.46" class="grey" /><path d="M41.29,46.69c0.59,1.18,0.74,2.97,0.36,4.44c-2.9,11.36-8.78,27.99-25.4,41.36" class="grey" /><path d="M56.7,44.12c1.53,1.53,2,3.11,2,5.66c0,9.59,0.01,19.49,0.01,27.97c0,14.38,1.03,15.62,18.28,15.62c14.88,0,16.14-1.12,16.14-12.69" class="grey" /><path d="M28.59,21.36c1.78,0.33,5.04,0.48,6.82,0.33c10.84-0.94,21.52-2.57,32.08-3.03c2.96-0.13,4.75,0.16,6.23,0.32" class="stroke" stroke-dasharray="150"><animate attributeName="stroke-dashoffset" from="150" to="0" dur="1.8s" begin="0s" fill="freeze" /></path><path d="M16.13,44.06c2.16,0.47,5.88,0.62,8.04,0.47c18.08-1.27,36.71-3.9,56.39-4.5c3.6-0.11,5.77,0.22,7.57,0.46" class="stroke" stroke-dasharray="150"><set attributeName="opacity" to="0" dur="1.2s" /><animate attributeName="stroke-dashoffset" from="150" to="0" dur="1.8s" begin="1.2s" fill="freeze" /></path><path d="M41.29,46.69c0.59,1.18,0.74,2.97,0.36,4.44c-2.9,11.36-8.78,27.99-25.4,41.36" class="stroke" stroke-dasharray="150"><set attributeName="opacity" to="0" dur="2.9s" /><animate attributeName="stroke-dashoffset" from="150" to="0" dur="1.8s" begin="2.9s" fill="freeze" /></path><path d="M56.7,44.12c1.53,1.53,2,3.11,2,5.66c0,9.59,0.01,19.49,0.01,27.97c0,14.38,1.03,15.62,18.28,15.62c14.88,0,16.14-1.12,16.14-12.69" class="stroke" stroke-dasharray="150"><set attributeName="opacity" to="0" dur="4.2s" /><animate attributeName="stroke-dashoffset" from="150" to="0" dur="1.8s" begin="4.2s" fill="freeze" /></path><text x="90" y="120" id="reset">⟳</text><text x="70" y="120" id="pause">◼</text><script type="text/javascript"><![CDATA[function RecurringTimer(e,t){var n,r,i=t;this.pause=function(){window.clearTimeout(n);i-=new Date-r};var s=function(){r=new Date;n=window.setTimeout(function(){i=t;s();e()},i)};this.clear=function(){window.clearTimeout(n);i=t;n=window.setTimeout(function(){i=t;s();e()},i)};this.resume=s;this.resume()}function invoketimer(){timer=new RecurringTimer(function(){svg.setCurrentTime(0)},6900)}var svg=document.getElementById("kanjivg");var pause=document.getElementById("pause");var reset=document.getElementById("reset");var timer;invoketimer();reset.onclick=function(){svg.setCurrentTime(0);timer.clear();svg.unpauseAnimations();pause.innerHTML = "◼";};pause.onclick=function(){if(svg.animationsPaused()){svg.unpauseAnimations();timer.resume();pause.innerHTML="◼"}else{svg.pauseAnimations();timer.pause();pause.innerHTML="▶"}}]]></script></svg>