<svg id="kanjivg" width="106" height="126" xmlns="http://www.w3.org/2000/svg" xmlns:xlink="http://www.w3.org/1999/xlink" xml:space="preserve" version="1.1" baseProfile="full"><defs><style type="text/css"><![CDATA[path.black { fill:none;stroke:black;stroke-width:5;stroke-linecap:round;stroke-linejoin:round; }path.grey { fill:none;stroke:#ddd;stroke-width:5;stroke-linecap:round;stroke-linejoin:round; }path.stroke { fill:none;stroke:black;stroke-width:5;stroke-linecap:round;stroke-linejoin:round; }rect { fill:none;stroke:#555;stroke-width:2;} text{font-size:16px;font-family:Segoe UI Symbol,Cambria Math,DejaVu Sans,Symbola,Quivira,STIX,Code2000;-webkit-touch-callout:none;cursor:pointer;-webkit-user-select:none;-khtml-user-select:none;-moz-user-select:none;-ms-user-select:none;user-select: none;} #reset { font-weight:bold; }]]></style><marker id="markerStart" markerWidth="8" markerHeight="8" style="overflow:visible;"><circle cx="0" cy="0" r="1.5" style="stroke:none;fill:red;fill-opacity:0.5;"/></marker><marker id="markerEnd" style="overflow:visible;"><circle cx="0" cy="0" r="0.8" style="stroke:none;fill:blue;fill-opacity:0.5;"><animate attributeName="opacity" from="1" to="0" dur="3s" repeatCount="indefinite" /></circle></marker></defs><rect x="4" y="4" width="100" height="100" /><path d="M52.57,12.75c1.15,1.15,1.58,2.62,1.58,4.36c0,3.86-0.02,7.27-0.02,10.77" class="grey" /><path d="M19.1,31.18c3.02,0.82,6.35,0.91,9.64,0.53c13.63-1.58,38.93-3.78,52.76-4.7c2.51-0.17,5.62-0.14,8.4,0.63" class="grey" /><path d="M51.2,32.95c0.18,1.17-0.07,2.05-0.81,2.94C44.87,42.59,41,46.12,35.02,51.53c-2.31,2.08-2.18,4.59,1.39,3.88c11.47-2.29,21.72-4.41,35.6-7.33" class="grey" /><path d="M62.38,38.5c5.85,2.91,15.1,11.97,16.57,16.49" class="grey" /><path d="M44.73,63.08c0.12,1.43,0.03,2.57-0.37,3.95c-2.12,7.39-11.39,22.99-24.22,30.69" class="grey" /><path d="M60.04,57.51c1.1,1.1,1.51,2.51,1.51,4.47c0,8.9-0.04,17.59-0.04,23.52c0,9.65,2,11.39,17.43,11.39c13.32,0,15.48-2.01,15.48-9.22" class="grey" /><path d="M52.57,12.75c1.15,1.15,1.58,2.62,1.58,4.36c0,3.86-0.02,7.27-0.02,10.77" class="stroke" stroke-dasharray="150"><animate attributeName="stroke-dashoffset" from="150" to="0" dur="1.8s" begin="0s" fill="freeze" /></path><path d="M19.1,31.18c3.02,0.82,6.35,0.91,9.64,0.53c13.63-1.58,38.93-3.78,52.76-4.7c2.51-0.17,5.62-0.14,8.4,0.63" class="stroke" stroke-dasharray="150"><set attributeName="opacity" to="0" dur="0.9s" /><animate attributeName="stroke-dashoffset" from="150" to="0" dur="1.8s" begin="0.9s" fill="freeze" /></path><path d="M51.2,32.95c0.18,1.17-0.07,2.05-0.81,2.94C44.87,42.59,41,46.12,35.02,51.53c-2.31,2.08-2.18,4.59,1.39,3.88c11.47-2.29,21.72-4.41,35.6-7.33" class="stroke" stroke-dasharray="150"><set attributeName="opacity" to="0" dur="2.6s" /><animate attributeName="stroke-dashoffset" from="150" to="0" dur="1.8s" begin="2.6s" fill="freeze" /></path><path d="M62.38,38.5c5.85,2.91,15.1,11.97,16.57,16.49" class="stroke" stroke-dasharray="150"><set attributeName="opacity" to="0" dur="4.1s" /><animate attributeName="stroke-dashoffset" from="150" to="0" dur="1.8s" begin="4.1s" fill="freeze" /></path><path d="M44.73,63.08c0.12,1.43,0.03,2.57-0.37,3.95c-2.12,7.39-11.39,22.99-24.22,30.69" class="stroke" stroke-dasharray="150"><set attributeName="opacity" to="0" dur="5.1s" /><animate attributeName="stroke-dashoffset" from="150" to="0" dur="1.8s" begin="5.1s" fill="freeze" /></path><path d="M60.04,57.51c1.1,1.1,1.51,2.51,1.51,4.47c0,8.9-0.04,17.59-0.04,23.52c0,9.65,2,11.39,17.43,11.39c13.32,0,15.48-2.01,15.48-9.22" class="stroke" stroke-dasharray="150"><set attributeName="opacity" to="0" dur="6.199999999999999s" /><animate attributeName="stroke-dashoffset" from="150" to="0" dur="1.8s" begin="6.199999999999999s" fill="freeze" /></path><text x="90" y="120" id="reset">⟳</text><text x="70" y="120" id="pause">◼</text><script type="text/javascript"><![CDATA[function RecurringTimer(e,t){var n,r,i=t;this.pause=function(){window.clearTimeout(n);i-=new Date-r};var s=function(){r=new Date;n=window.setTimeout(function(){i=t;s();e()},i)};this.clear=function(){window.clearTimeout(n);i=t;n=window.setTimeout(function(){i=t;s();e()},i)};this.resume=s;this.resume()}function invoketimer(){timer=new RecurringTimer(function(){svg.setCurrentTime(0)},8900)}var svg=document.getElementById("kanjivg");var pause=document.getElementById("pause");var reset=document.getElementById("reset");var timer;invoketimer();reset.onclick=function(){svg.setCurrentTime(0);timer.clear();svg.unpauseAnimations();pause.innerHTML = "◼";};pause.onclick=function(){if(svg.animationsPaused()){svg.unpauseAnimations();timer.resume();pause.innerHTML="◼"}else{svg.pauseAnimations();timer.pause();pause.innerHTML="▶"}}]]></script></svg>