<svg id="kanjivg" width="106" height="126" xmlns="http://www.w3.org/2000/svg" xmlns:xlink="http://www.w3.org/1999/xlink" xml:space="preserve" version="1.1" baseProfile="full"><defs><style type="text/css"><![CDATA[path.black { fill:none;stroke:black;stroke-width:5;stroke-linecap:round;stroke-linejoin:round; }path.grey { fill:none;stroke:#ddd;stroke-width:5;stroke-linecap:round;stroke-linejoin:round; }path.stroke { fill:none;stroke:black;stroke-width:5;stroke-linecap:round;stroke-linejoin:round; }rect { fill:none;stroke:#555;stroke-width:2;} text{font-size:16px;font-family:Segoe UI Symbol,Cambria Math,DejaVu Sans,Symbola,Quivira,STIX,Code2000;-webkit-touch-callout:none;cursor:pointer;-webkit-user-select:none;-khtml-user-select:none;-moz-user-select:none;-ms-user-select:none;user-select: none;} #reset { font-weight:bold; }]]></style><marker id="markerStart" markerWidth="8" markerHeight="8" style="overflow:visible;"><circle cx="0" cy="0" r="1.5" style="stroke:none;fill:red;fill-opacity:0.5;"/></marker><marker id="markerEnd" style="overflow:visible;"><circle cx="0" cy="0" r="0.8" style="stroke:none;fill:blue;fill-opacity:0.5;"><animate attributeName="opacity" from="1" to="0" dur="3s" repeatCount="indefinite" /></circle></marker></defs><rect x="4" y="4" width="100" height="100" /><path d="M28.24,20.33c0.96,0.96,1.51,2.17,1.72,3.33c0.73,4.23,2.35,13.89,3.5,22.34c0.16,1.16,0.32,2.29,0.48,3.38" class="grey" /><path d="M31.29,22.29C43.75,20.38,61,18.12,72,17c2.62-0.27,5,2.25,4.5,4.67c-0.99,4.8-4.27,14.16-5.61,19.85" class="grey" /><path d="M34.5,45.88c6.96-0.45,23.37-2.05,34.45-3.18c1.48-0.15,2.8-0.07,4.17-0.13" class="grey" /><path d="M43.49,53.25c0.26,1.38,0.2,2.51-0.15,4.1C41.56,65.48,32.5,84.25,17.75,94" class="grey" /><path d="M55.99,48.12c0.88,0.88,1.74,2.63,1.74,4.64c0,6.72-0.12,16.9-0.12,25.23c0,14.25,0.63,15.23,16.89,15.23c16.87,0,17.63-1.72,17.63-11.85" class="grey" /><path d="M28.24,20.33c0.96,0.96,1.51,2.17,1.72,3.33c0.73,4.23,2.35,13.89,3.5,22.34c0.16,1.16,0.32,2.29,0.48,3.38" class="stroke" stroke-dasharray="150"><animate attributeName="stroke-dashoffset" from="150" to="0" dur="1.8s" begin="0s" fill="freeze" /></path><path d="M31.29,22.29C43.75,20.38,61,18.12,72,17c2.62-0.27,5,2.25,4.5,4.67c-0.99,4.8-4.27,14.16-5.61,19.85" class="stroke" stroke-dasharray="150"><set attributeName="opacity" to="0" dur="1.0s" /><animate attributeName="stroke-dashoffset" from="150" to="0" dur="1.8s" begin="1.0s" fill="freeze" /></path><path d="M34.5,45.88c6.96-0.45,23.37-2.05,34.45-3.18c1.48-0.15,2.8-0.07,4.17-0.13" class="stroke" stroke-dasharray="150"><set attributeName="opacity" to="0" dur="2.5s" /><animate attributeName="stroke-dashoffset" from="150" to="0" dur="1.8s" begin="2.5s" fill="freeze" /></path><path d="M43.49,53.25c0.26,1.38,0.2,2.51-0.15,4.1C41.56,65.48,32.5,84.25,17.75,94" class="stroke" stroke-dasharray="150"><set attributeName="opacity" to="0" dur="3.5s" /><animate attributeName="stroke-dashoffset" from="150" to="0" dur="1.8s" begin="3.5s" fill="freeze" /></path><path d="M55.99,48.12c0.88,0.88,1.74,2.63,1.74,4.64c0,6.72-0.12,16.9-0.12,25.23c0,14.25,0.63,15.23,16.89,15.23c16.87,0,17.63-1.72,17.63-11.85" class="stroke" stroke-dasharray="150"><set attributeName="opacity" to="0" dur="4.7s" /><animate attributeName="stroke-dashoffset" from="150" to="0" dur="1.8s" begin="4.7s" fill="freeze" /></path><text x="90" y="120" id="reset">⟳</text><text x="70" y="120" id="pause">◼</text><script type="text/javascript"><![CDATA[function RecurringTimer(e,t){var n,r,i=t;this.pause=function(){window.clearTimeout(n);i-=new Date-r};var s=function(){r=new Date;n=window.setTimeout(function(){i=t;s();e()},i)};this.clear=function(){window.clearTimeout(n);i=t;n=window.setTimeout(function(){i=t;s();e()},i)};this.resume=s;this.resume()}function invoketimer(){timer=new RecurringTimer(function(){svg.setCurrentTime(0)},7400)}var svg=document.getElementById("kanjivg");var pause=document.getElementById("pause");var reset=document.getElementById("reset");var timer;invoketimer();reset.onclick=function(){svg.setCurrentTime(0);timer.clear();svg.unpauseAnimations();pause.innerHTML = "◼";};pause.onclick=function(){if(svg.animationsPaused()){svg.unpauseAnimations();timer.resume();pause.innerHTML="◼"}else{svg.pauseAnimations();timer.pause();pause.innerHTML="▶"}}]]></script></svg>