<svg id="kanjivg" width="106" height="126" xmlns="http://www.w3.org/2000/svg" xmlns:xlink="http://www.w3.org/1999/xlink" xml:space="preserve" version="1.1" baseProfile="full"><defs><style type="text/css"><![CDATA[path.black { fill:none;stroke:black;stroke-width:5;stroke-linecap:round;stroke-linejoin:round; }path.grey { fill:none;stroke:#ddd;stroke-width:5;stroke-linecap:round;stroke-linejoin:round; }path.stroke { fill:none;stroke:black;stroke-width:5;stroke-linecap:round;stroke-linejoin:round; }rect { fill:none;stroke:#555;stroke-width:2;} text{font-size:16px;font-family:Segoe UI Symbol,Cambria Math,DejaVu Sans,Symbola,Quivira,STIX,Code2000;-webkit-touch-callout:none;cursor:pointer;-webkit-user-select:none;-khtml-user-select:none;-moz-user-select:none;-ms-user-select:none;user-select: none;} #reset { font-weight:bold; }]]></style><marker id="markerStart" markerWidth="8" markerHeight="8" style="overflow:visible;"><circle cx="0" cy="0" r="1.5" style="stroke:none;fill:red;fill-opacity:0.5;"/></marker><marker id="markerEnd" style="overflow:visible;"><circle cx="0" cy="0" r="0.8" style="stroke:none;fill:blue;fill-opacity:0.5;"><animate attributeName="opacity" from="1" to="0" dur="3s" repeatCount="indefinite" /></circle></marker></defs><rect x="4" y="4" width="100" height="100" /><path d="M51.72,15.37c1.14,1.14,1.93,3.06,1.93,5.27c0,6.12,0.05,20.6-0.03,26.62" class="grey" /><path d="M26.5,26.25c4.01,2.63,10.36,10.84,11.37,14.94" class="grey" /><path d="M77.5,20.5c0.06,0.86,0.01,1.7-0.21,2.54c-1.08,4.25-5.38,12.46-11.17,17.59" class="grey" /><path d="M16.13,51.48c2.19,0.54,5,0.65,8.38,0.29c15.8-1.67,41.61-4.89,58.84-5.73c3.64-0.18,5.83,0.26,7.65,0.53" class="grey" /><path d="M45.5,53.5c0.25,1.25,0.23,2.35-0.13,3.62C42.38,67.62,37.75,81.25,22,91.75" class="grey" /><path d="M58.74,51.37c0.68,1.19,1.21,2.59,1.25,4.43c0.11,4.82-0.02,13.81-0.02,21.2c0,13,1.28,14.53,17.78,14.53c14.5,0,15.89-2.03,15.89-8.62" class="grey" /><path d="M51.72,15.37c1.14,1.14,1.93,3.06,1.93,5.27c0,6.12,0.05,20.6-0.03,26.62" class="stroke" stroke-dasharray="150"><animate attributeName="stroke-dashoffset" from="150" to="0" dur="1.8s" begin="0s" fill="freeze" /></path><path d="M26.5,26.25c4.01,2.63,10.36,10.84,11.37,14.94" class="stroke" stroke-dasharray="150"><set attributeName="opacity" to="0" dur="1.0s" /><animate attributeName="stroke-dashoffset" from="150" to="0" dur="1.8s" begin="1.0s" fill="freeze" /></path><path d="M77.5,20.5c0.06,0.86,0.01,1.7-0.21,2.54c-1.08,4.25-5.38,12.46-11.17,17.59" class="stroke" stroke-dasharray="150"><set attributeName="opacity" to="0" dur="1.9s" /><animate attributeName="stroke-dashoffset" from="150" to="0" dur="1.8s" begin="1.9s" fill="freeze" /></path><path d="M16.13,51.48c2.19,0.54,5,0.65,8.38,0.29c15.8-1.67,41.61-4.89,58.84-5.73c3.64-0.18,5.83,0.26,7.65,0.53" class="stroke" stroke-dasharray="150"><set attributeName="opacity" to="0" dur="2.9s" /><animate attributeName="stroke-dashoffset" from="150" to="0" dur="1.8s" begin="2.9s" fill="freeze" /></path><path d="M45.5,53.5c0.25,1.25,0.23,2.35-0.13,3.62C42.38,67.62,37.75,81.25,22,91.75" class="stroke" stroke-dasharray="150"><set attributeName="opacity" to="0" dur="4.6s" /><animate attributeName="stroke-dashoffset" from="150" to="0" dur="1.8s" begin="4.6s" fill="freeze" /></path><path d="M58.74,51.37c0.68,1.19,1.21,2.59,1.25,4.43c0.11,4.82-0.02,13.81-0.02,21.2c0,13,1.28,14.53,17.78,14.53c14.5,0,15.89-2.03,15.89-8.62" class="stroke" stroke-dasharray="150"><set attributeName="opacity" to="0" dur="5.8s" /><animate attributeName="stroke-dashoffset" from="150" to="0" dur="1.8s" begin="5.8s" fill="freeze" /></path><text x="90" y="120" id="reset">⟳</text><text x="70" y="120" id="pause">◼</text><script type="text/javascript"><![CDATA[function RecurringTimer(e,t){var n,r,i=t;this.pause=function(){window.clearTimeout(n);i-=new Date-r};var s=function(){r=new Date;n=window.setTimeout(function(){i=t;s();e()},i)};this.clear=function(){window.clearTimeout(n);i=t;n=window.setTimeout(function(){i=t;s();e()},i)};this.resume=s;this.resume()}function invoketimer(){timer=new RecurringTimer(function(){svg.setCurrentTime(0)},8500)}var svg=document.getElementById("kanjivg");var pause=document.getElementById("pause");var reset=document.getElementById("reset");var timer;invoketimer();reset.onclick=function(){svg.setCurrentTime(0);timer.clear();svg.unpauseAnimations();pause.innerHTML = "◼";};pause.onclick=function(){if(svg.animationsPaused()){svg.unpauseAnimations();timer.resume();pause.innerHTML="◼"}else{svg.pauseAnimations();timer.pause();pause.innerHTML="▶"}}]]></script></svg>