<svg id="kanjivg" width="106" height="126" xmlns="http://www.w3.org/2000/svg" xmlns:xlink="http://www.w3.org/1999/xlink" xml:space="preserve" version="1.1" baseProfile="full"><defs><style type="text/css"><![CDATA[path.black { fill:none;stroke:black;stroke-width:5;stroke-linecap:round;stroke-linejoin:round; }path.grey { fill:none;stroke:#ddd;stroke-width:5;stroke-linecap:round;stroke-linejoin:round; }path.stroke { fill:none;stroke:black;stroke-width:5;stroke-linecap:round;stroke-linejoin:round; }rect { fill:none;stroke:#555;stroke-width:2;} text{font-size:16px;font-family:Segoe UI Symbol,Cambria Math,DejaVu Sans,Symbola,Quivira,STIX,Code2000;-webkit-touch-callout:none;cursor:pointer;-webkit-user-select:none;-khtml-user-select:none;-moz-user-select:none;-ms-user-select:none;user-select: none;} #reset { font-weight:bold; }]]></style><marker id="markerStart" markerWidth="8" markerHeight="8" style="overflow:visible;"><circle cx="0" cy="0" r="1.5" style="stroke:none;fill:red;fill-opacity:0.5;"/></marker><marker id="markerEnd" style="overflow:visible;"><circle cx="0" cy="0" r="0.8" style="stroke:none;fill:blue;fill-opacity:0.5;"><animate attributeName="opacity" from="1" to="0" dur="3s" repeatCount="indefinite" /></circle></marker></defs><rect x="4" y="4" width="100" height="100" /><path d="M49.17,13.46c0.05,0.21-0.78,1.62-1.1,1.85c-4.35,3.03-8.32,5.94-18.85,9.87" class="grey" /><path d="M27.08,24.3c0.84,0.64,1.18,2.06,1.39,3.36c0.76,4.77,3.15,21.39,3.91,27.84" class="grey" /><path d="M30.66,37.34c4.46-0.62,16.76-3.1,17.82-3.1c1.06,0,2.55,0,3.4,0" class="grey" /><path d="M59.49,18.49c0.98,0.15,1.77,0.43,3.15,0.43c1.38,0,15.47-1.74,17.05-1.88c1.58-0.14,3.48,0.94,3.26,2.59c-1.21,9.11-2.76,23.64-3.94,30.59c-0.17,1.01,0,1.59-0.2,2.17" class="grey" /><path d="M58.89,32.49c0.99,0.14,1.78,0.43,3.16,0.43c1.38,0,17.58-1.66,19.15-1.8" class="grey" /><path d="M32.57,53.04c4.93-0.29,42.5-3.38,45.45-3.53" class="grey" /><path d="M44.5,58.75c0.07,0.89,0.14,2.31-0.13,3.59c-1.61,7.56-10.08,25.61-23.45,34.33" class="grey" /><path d="M58.99,54.62c0.74,1.19,1.33,2.59,1.38,4.43c0.2,8.19,0.16,20.14-0.03,25.7C60,94.75,63.25,96.28,78,96.28c15.5,0,16.39-2.28,16.39-9.12" class="grey" /><path d="M49.17,13.46c0.05,0.21-0.78,1.62-1.1,1.85c-4.35,3.03-8.32,5.94-18.85,9.87" class="stroke" stroke-dasharray="150"><animate attributeName="stroke-dashoffset" from="150" to="0" dur="1.8s" begin="0s" fill="freeze" /></path><path d="M27.08,24.3c0.84,0.64,1.18,2.06,1.39,3.36c0.76,4.77,3.15,21.39,3.91,27.84" class="stroke" stroke-dasharray="150"><set attributeName="opacity" to="0" dur="1.0s" /><animate attributeName="stroke-dashoffset" from="150" to="0" dur="1.8s" begin="1.0s" fill="freeze" /></path><path d="M30.66,37.34c4.46-0.62,16.76-3.1,17.82-3.1c1.06,0,2.55,0,3.4,0" class="stroke" stroke-dasharray="150"><set attributeName="opacity" to="0" dur="2.0s" /><animate attributeName="stroke-dashoffset" from="150" to="0" dur="1.8s" begin="2.0s" fill="freeze" /></path><path d="M59.49,18.49c0.98,0.15,1.77,0.43,3.15,0.43c1.38,0,15.47-1.74,17.05-1.88c1.58-0.14,3.48,0.94,3.26,2.59c-1.21,9.11-2.76,23.64-3.94,30.59c-0.17,1.01,0,1.59-0.2,2.17" class="stroke" stroke-dasharray="150"><set attributeName="opacity" to="0" dur="3.0s" /><animate attributeName="stroke-dashoffset" from="150" to="0" dur="1.8s" begin="3.0s" fill="freeze" /></path><path d="M58.89,32.49c0.99,0.14,1.78,0.43,3.16,0.43c1.38,0,17.58-1.66,19.15-1.8" class="stroke" stroke-dasharray="150"><set attributeName="opacity" to="0" dur="4.4s" /><animate attributeName="stroke-dashoffset" from="150" to="0" dur="1.8s" begin="4.4s" fill="freeze" /></path><path d="M32.57,53.04c4.93-0.29,42.5-3.38,45.45-3.53" class="stroke" stroke-dasharray="150"><set attributeName="opacity" to="0" dur="5.4s" /><animate attributeName="stroke-dashoffset" from="150" to="0" dur="1.8s" begin="5.4s" fill="freeze" /></path><path d="M44.5,58.75c0.07,0.89,0.14,2.31-0.13,3.59c-1.61,7.56-10.08,25.61-23.45,34.33" class="stroke" stroke-dasharray="150"><set attributeName="opacity" to="0" dur="6.6000000000000005s" /><animate attributeName="stroke-dashoffset" from="150" to="0" dur="1.8s" begin="6.6000000000000005s" fill="freeze" /></path><path d="M58.99,54.62c0.74,1.19,1.33,2.59,1.38,4.43c0.2,8.19,0.16,20.14-0.03,25.7C60,94.75,63.25,96.28,78,96.28c15.5,0,16.39-2.28,16.39-9.12" class="stroke" stroke-dasharray="150"><set attributeName="opacity" to="0" dur="7.800000000000001s" /><animate attributeName="stroke-dashoffset" from="150" to="0" dur="1.8s" begin="7.800000000000001s" fill="freeze" /></path><text x="90" y="120" id="reset">⟳</text><text x="70" y="120" id="pause">◼</text><script type="text/javascript"><![CDATA[function RecurringTimer(e,t){var n,r,i=t;this.pause=function(){window.clearTimeout(n);i-=new Date-r};var s=function(){r=new Date;n=window.setTimeout(function(){i=t;s();e()},i)};this.clear=function(){window.clearTimeout(n);i=t;n=window.setTimeout(function(){i=t;s();e()},i)};this.resume=s;this.resume()}function invoketimer(){timer=new RecurringTimer(function(){svg.setCurrentTime(0)},10500)}var svg=document.getElementById("kanjivg");var pause=document.getElementById("pause");var reset=document.getElementById("reset");var timer;invoketimer();reset.onclick=function(){svg.setCurrentTime(0);timer.clear();svg.unpauseAnimations();pause.innerHTML = "◼";};pause.onclick=function(){if(svg.animationsPaused()){svg.unpauseAnimations();timer.resume();pause.innerHTML="◼"}else{svg.pauseAnimations();timer.pause();pause.innerHTML="▶"}}]]></script></svg>