<svg id="kanjivg" width="106" height="126" xmlns="http://www.w3.org/2000/svg" xmlns:xlink="http://www.w3.org/1999/xlink" xml:space="preserve" version="1.1" baseProfile="full"><defs><style type="text/css"><![CDATA[path.black { fill:none;stroke:black;stroke-width:5;stroke-linecap:round;stroke-linejoin:round; }path.grey { fill:none;stroke:#ddd;stroke-width:5;stroke-linecap:round;stroke-linejoin:round; }path.stroke { fill:none;stroke:black;stroke-width:5;stroke-linecap:round;stroke-linejoin:round; }rect { fill:none;stroke:#555;stroke-width:2;} text{font-size:16px;font-family:Segoe UI Symbol,Cambria Math,DejaVu Sans,Symbola,Quivira,STIX,Code2000;-webkit-touch-callout:none;cursor:pointer;-webkit-user-select:none;-khtml-user-select:none;-moz-user-select:none;-ms-user-select:none;user-select: none;} #reset { font-weight:bold; }]]></style><marker id="markerStart" markerWidth="8" markerHeight="8" style="overflow:visible;"><circle cx="0" cy="0" r="1.5" style="stroke:none;fill:red;fill-opacity:0.5;"/></marker><marker id="markerEnd" style="overflow:visible;"><circle cx="0" cy="0" r="0.8" style="stroke:none;fill:blue;fill-opacity:0.5;"><animate attributeName="opacity" from="1" to="0" dur="3s" repeatCount="indefinite" /></circle></marker></defs><rect x="4" y="4" width="100" height="100" /><path d="M25.37,14c0.81,0.81,1.21,2.25,1.21,3.5c0,0.85,0.02,18.41,0.03,29.12c0,2.16,0,4.01,0,5.38" class="grey" /><path d="M45.74,16.05c0.79,0.79,1.31,2.22,1.31,3.3c0,2.48-0.01,19.6-0.02,27.77c0,1.37,0,2.5,0,3.25" class="grey" /><path d="M47.72,17.44c1.93-0.12,19.5-2.2,26.03-2.95c3.12-0.36,5.12,1.39,4.79,4.77c-0.67,6.82-1.49,15.67-2.4,26.74c-0.1,1.17-0.19,2.37-0.29,3.59" class="grey" /><path d="M48.12,33.08c4.26-0.46,22.63-2.08,28.16-2.15" class="grey" /><path d="M47.98,48.71c7.4-0.46,19.24-1.13,27.04-1.63" class="grey" /><path d="M39.25,60c0.06,0.82,0.14,2.12-0.13,3.3c-1.59,6.97-9.97,23.58-23.2,31.61" class="grey" /><path d="M55.74,56.87c1.07,1.07,1.59,2.46,1.59,4.38c0,9.37-0.01,16.89-0.01,22.71c0,10.41,1.69,12.06,17.7,12.06c15.62,0,17.38-1.9,17.38-12.05" class="grey" /><path d="M25.37,14c0.81,0.81,1.21,2.25,1.21,3.5c0,0.85,0.02,18.41,0.03,29.12c0,2.16,0,4.01,0,5.38" class="stroke" stroke-dasharray="150"><animate attributeName="stroke-dashoffset" from="150" to="0" dur="1.8s" begin="0s" fill="freeze" /></path><path d="M45.74,16.05c0.79,0.79,1.31,2.22,1.31,3.3c0,2.48-0.01,19.6-0.02,27.77c0,1.37,0,2.5,0,3.25" class="stroke" stroke-dasharray="150"><set attributeName="opacity" to="0" dur="1.0s" /><animate attributeName="stroke-dashoffset" from="150" to="0" dur="1.8s" begin="1.0s" fill="freeze" /></path><path d="M47.72,17.44c1.93-0.12,19.5-2.2,26.03-2.95c3.12-0.36,5.12,1.39,4.79,4.77c-0.67,6.82-1.49,15.67-2.4,26.74c-0.1,1.17-0.19,2.37-0.29,3.59" class="stroke" stroke-dasharray="150"><set attributeName="opacity" to="0" dur="2.0s" /><animate attributeName="stroke-dashoffset" from="150" to="0" dur="1.8s" begin="2.0s" fill="freeze" /></path><path d="M48.12,33.08c4.26-0.46,22.63-2.08,28.16-2.15" class="stroke" stroke-dasharray="150"><set attributeName="opacity" to="0" dur="3.5s" /><animate attributeName="stroke-dashoffset" from="150" to="0" dur="1.8s" begin="3.5s" fill="freeze" /></path><path d="M47.98,48.71c7.4-0.46,19.24-1.13,27.04-1.63" class="stroke" stroke-dasharray="150"><set attributeName="opacity" to="0" dur="4.5s" /><animate attributeName="stroke-dashoffset" from="150" to="0" dur="1.8s" begin="4.5s" fill="freeze" /></path><path d="M39.25,60c0.06,0.82,0.14,2.12-0.13,3.3c-1.59,6.97-9.97,23.58-23.2,31.61" class="stroke" stroke-dasharray="150"><set attributeName="opacity" to="0" dur="5.5s" /><animate attributeName="stroke-dashoffset" from="150" to="0" dur="1.8s" begin="5.5s" fill="freeze" /></path><path d="M55.74,56.87c1.07,1.07,1.59,2.46,1.59,4.38c0,9.37-0.01,16.89-0.01,22.71c0,10.41,1.69,12.06,17.7,12.06c15.62,0,17.38-1.9,17.38-12.05" class="stroke" stroke-dasharray="150"><set attributeName="opacity" to="0" dur="6.6s" /><animate attributeName="stroke-dashoffset" from="150" to="0" dur="1.8s" begin="6.6s" fill="freeze" /></path><text x="90" y="120" id="reset">⟳</text><text x="70" y="120" id="pause">◼</text><script type="text/javascript"><![CDATA[function RecurringTimer(e,t){var n,r,i=t;this.pause=function(){window.clearTimeout(n);i-=new Date-r};var s=function(){r=new Date;n=window.setTimeout(function(){i=t;s();e()},i)};this.clear=function(){window.clearTimeout(n);i=t;n=window.setTimeout(function(){i=t;s();e()},i)};this.resume=s;this.resume()}function invoketimer(){timer=new RecurringTimer(function(){svg.setCurrentTime(0)},9299)}var svg=document.getElementById("kanjivg");var pause=document.getElementById("pause");var reset=document.getElementById("reset");var timer;invoketimer();reset.onclick=function(){svg.setCurrentTime(0);timer.clear();svg.unpauseAnimations();pause.innerHTML = "◼";};pause.onclick=function(){if(svg.animationsPaused()){svg.unpauseAnimations();timer.resume();pause.innerHTML="◼"}else{svg.pauseAnimations();timer.pause();pause.innerHTML="▶"}}]]></script></svg>