<svg id="kanjivg" width="106" height="126" xmlns="http://www.w3.org/2000/svg" xmlns:xlink="http://www.w3.org/1999/xlink" xml:space="preserve" version="1.1" baseProfile="full"><defs><style type="text/css"><![CDATA[path.black { fill:none;stroke:black;stroke-width:5;stroke-linecap:round;stroke-linejoin:round; }path.grey { fill:none;stroke:#ddd;stroke-width:5;stroke-linecap:round;stroke-linejoin:round; }path.stroke { fill:none;stroke:black;stroke-width:5;stroke-linecap:round;stroke-linejoin:round; }rect { fill:none;stroke:#555;stroke-width:2;} text{font-size:16px;font-family:Segoe UI Symbol,Cambria Math,DejaVu Sans,Symbola,Quivira,STIX,Code2000;-webkit-touch-callout:none;cursor:pointer;-webkit-user-select:none;-khtml-user-select:none;-moz-user-select:none;-ms-user-select:none;user-select: none;} #reset { font-weight:bold; }]]></style><marker id="markerStart" markerWidth="8" markerHeight="8" style="overflow:visible;"><circle cx="0" cy="0" r="1.5" style="stroke:none;fill:red;fill-opacity:0.5;"/></marker><marker id="markerEnd" style="overflow:visible;"><circle cx="0" cy="0" r="0.8" style="stroke:none;fill:blue;fill-opacity:0.5;"><animate attributeName="opacity" from="1" to="0" dur="3s" repeatCount="indefinite" /></circle></marker></defs><rect x="4" y="4" width="100" height="100" /><path d="M24.62,13.75c1.09,0.5,1.74,2.25,1.96,3.25c0.22,1,0,28.25-0.22,34.5" class="grey" /><path d="M45.74,16.8c0.4,0.81,1.31,2.22,1.31,3.3c0,1.08-0.27,29.74-0.27,30.28" class="grey" /><path d="M47.72,17.94c2.27-0.14,26.26-3.28,28.33-3.44c1.73-0.14,2.79,1.49,2.7,2.3C78,23.5,77,32,76.35,47.34c-0.05,1.22-0.13,1.76-0.13,2.57" class="grey" /><path d="M48.12,33.08c4.62,0,9.34-0.76,13.93-1.2c1.55-0.15,3.11-0.3,4.6-0.44" class="grey" /><path d="M47.98,48.96c6.27-0.58,19.49-1.13,27.29-1.63" class="grey" /><path d="M39.25,60.25c0.06,0.82,0.14,2.12-0.13,3.3c-1.59,6.97-9.97,23.58-23.2,31.61" class="grey" /><path d="M56.24,56.62c0.72,1.24,1.3,2.71,1.34,4.63c0.19,8.57-0.51,16.89-0.51,22.71c0,13.6,8.67,12.06,17.2,12.06c9,0,14.93-1.76,16.19-2.75c2.68-2.09,1.95-3.14,2.19-6.8" class="grey" /><path d="M24.62,13.75c1.09,0.5,1.74,2.25,1.96,3.25c0.22,1,0,28.25-0.22,34.5" class="stroke" stroke-dasharray="150"><animate attributeName="stroke-dashoffset" from="150" to="0" dur="1.8s" begin="0s" fill="freeze" /></path><path d="M45.74,16.8c0.4,0.81,1.31,2.22,1.31,3.3c0,1.08-0.27,29.74-0.27,30.28" class="stroke" stroke-dasharray="150"><set attributeName="opacity" to="0" dur="1.0s" /><animate attributeName="stroke-dashoffset" from="150" to="0" dur="1.8s" begin="1.0s" fill="freeze" /></path><path d="M47.72,17.94c2.27-0.14,26.26-3.28,28.33-3.44c1.73-0.14,2.79,1.49,2.7,2.3C78,23.5,77,32,76.35,47.34c-0.05,1.22-0.13,1.76-0.13,2.57" class="stroke" stroke-dasharray="150"><set attributeName="opacity" to="0" dur="2.0s" /><animate attributeName="stroke-dashoffset" from="150" to="0" dur="1.8s" begin="2.0s" fill="freeze" /></path><path d="M48.12,33.08c4.62,0,9.34-0.76,13.93-1.2c1.55-0.15,3.11-0.3,4.6-0.44" class="stroke" stroke-dasharray="150"><set attributeName="opacity" to="0" dur="3.5s" /><animate attributeName="stroke-dashoffset" from="150" to="0" dur="1.8s" begin="3.5s" fill="freeze" /></path><path d="M47.98,48.96c6.27-0.58,19.49-1.13,27.29-1.63" class="stroke" stroke-dasharray="150"><set attributeName="opacity" to="0" dur="4.4s" /><animate attributeName="stroke-dashoffset" from="150" to="0" dur="1.8s" begin="4.4s" fill="freeze" /></path><path d="M39.25,60.25c0.06,0.82,0.14,2.12-0.13,3.3c-1.59,6.97-9.97,23.58-23.2,31.61" class="stroke" stroke-dasharray="150"><set attributeName="opacity" to="0" dur="5.4s" /><animate attributeName="stroke-dashoffset" from="150" to="0" dur="1.8s" begin="5.4s" fill="freeze" /></path><path d="M56.24,56.62c0.72,1.24,1.3,2.71,1.34,4.63c0.19,8.57-0.51,16.89-0.51,22.71c0,13.6,8.67,12.06,17.2,12.06c9,0,14.93-1.76,16.19-2.75c2.68-2.09,1.95-3.14,2.19-6.8" class="stroke" stroke-dasharray="150"><set attributeName="opacity" to="0" dur="6.5s" /><animate attributeName="stroke-dashoffset" from="150" to="0" dur="1.8s" begin="6.5s" fill="freeze" /></path><text x="90" y="120" id="reset">⟳</text><text x="70" y="120" id="pause">◼</text><script type="text/javascript"><![CDATA[function RecurringTimer(e,t){var n,r,i=t;this.pause=function(){window.clearTimeout(n);i-=new Date-r};var s=function(){r=new Date;n=window.setTimeout(function(){i=t;s();e()},i)};this.clear=function(){window.clearTimeout(n);i=t;n=window.setTimeout(function(){i=t;s();e()},i)};this.resume=s;this.resume()}function invoketimer(){timer=new RecurringTimer(function(){svg.setCurrentTime(0)},9200)}var svg=document.getElementById("kanjivg");var pause=document.getElementById("pause");var reset=document.getElementById("reset");var timer;invoketimer();reset.onclick=function(){svg.setCurrentTime(0);timer.clear();svg.unpauseAnimations();pause.innerHTML = "◼";};pause.onclick=function(){if(svg.animationsPaused()){svg.unpauseAnimations();timer.resume();pause.innerHTML="◼"}else{svg.pauseAnimations();timer.pause();pause.innerHTML="▶"}}]]></script></svg>