<svg id="kanjivg" width="106" height="126" xmlns="http://www.w3.org/2000/svg" xmlns:xlink="http://www.w3.org/1999/xlink" xml:space="preserve" version="1.1" baseProfile="full"><defs><style type="text/css"><![CDATA[path.black { fill:none;stroke:black;stroke-width:5;stroke-linecap:round;stroke-linejoin:round; }path.grey { fill:none;stroke:#ddd;stroke-width:5;stroke-linecap:round;stroke-linejoin:round; }path.stroke { fill:none;stroke:black;stroke-width:5;stroke-linecap:round;stroke-linejoin:round; }rect { fill:none;stroke:#555;stroke-width:2;} text{font-size:16px;font-family:Segoe UI Symbol,Cambria Math,DejaVu Sans,Symbola,Quivira,STIX,Code2000;-webkit-touch-callout:none;cursor:pointer;-webkit-user-select:none;-khtml-user-select:none;-moz-user-select:none;-ms-user-select:none;user-select: none;} #reset { font-weight:bold; }]]></style><marker id="markerStart" markerWidth="8" markerHeight="8" style="overflow:visible;"><circle cx="0" cy="0" r="1.5" style="stroke:none;fill:red;fill-opacity:0.5;"/></marker><marker id="markerEnd" style="overflow:visible;"><circle cx="0" cy="0" r="0.8" style="stroke:none;fill:blue;fill-opacity:0.5;"><animate attributeName="opacity" from="1" to="0" dur="3s" repeatCount="indefinite" /></circle></marker></defs><rect x="4" y="4" width="100" height="100" /><path d="M46.38,12.15c0.06,0.47,0.13,1.22-0.12,1.9c-1.47,4-9.93,12.79-21.51,18.17" class="grey" /><path d="M48.33,15.7c2.69,0,14.69-1.77,17.52-2.04c2.43-0.23,3.19,2.44,2.17,3.57C63.75,21.98,57.75,28,51,35.6" class="grey" /><path d="M27.5,37.6c0.5,0.47,1.02,0.86,1.24,1.45c1.75,4.66,2.31,10.32,3.51,18.69" class="grey" /><path d="M30.64,39.21c12.36-1.96,40.17-5.53,46.55-6.19c2.33-0.24,3.73,2.43,3.4,3.85c-1.38,5.87-2.84,8.13-6.92,16.4" class="grey" /><path d="M33.25,55.75c5-0.5,35.75-4.25,41.25-4.5" class="grey" /><path d="M51.97,39.5c0.09,1.33,0.2,3.45-0.19,5.36c-2.27,11.31-12.02,40.07-32.12,52.31" class="grey" /><path d="M55.49,59.37c0.74,1.19,1.33,2.59,1.38,4.43c0.2,8.19-0.53,14.14-0.53,19.7c0,13,8.9,12.03,17.67,12.03c9.25,0,15.34-1.68,16.64-2.62c2.75-2,2-3,2.25-6.5" class="grey" /><path d="M70.5,64c3.35,1.94,8.66,7.98,9.5,11" class="grey" /><path d="M46.38,12.15c0.06,0.47,0.13,1.22-0.12,1.9c-1.47,4-9.93,12.79-21.51,18.17" class="stroke" stroke-dasharray="150"><animate attributeName="stroke-dashoffset" from="150" to="0" dur="1.8s" begin="0s" fill="freeze" /></path><path d="M48.33,15.7c2.69,0,14.69-1.77,17.52-2.04c2.43-0.23,3.19,2.44,2.17,3.57C63.75,21.98,57.75,28,51,35.6" class="stroke" stroke-dasharray="150"><set attributeName="opacity" to="0" dur="1.0s" /><animate attributeName="stroke-dashoffset" from="150" to="0" dur="1.8s" begin="1.0s" fill="freeze" /></path><path d="M27.5,37.6c0.5,0.47,1.02,0.86,1.24,1.45c1.75,4.66,2.31,10.32,3.51,18.69" class="stroke" stroke-dasharray="150"><set attributeName="opacity" to="0" dur="2.2s" /><animate attributeName="stroke-dashoffset" from="150" to="0" dur="1.8s" begin="2.2s" fill="freeze" /></path><path d="M30.64,39.21c12.36-1.96,40.17-5.53,46.55-6.19c2.33-0.24,3.73,2.43,3.4,3.85c-1.38,5.87-2.84,8.13-6.92,16.4" class="stroke" stroke-dasharray="150"><set attributeName="opacity" to="0" dur="3.2s" /><animate attributeName="stroke-dashoffset" from="150" to="0" dur="1.8s" begin="3.2s" fill="freeze" /></path><path d="M33.25,55.75c5-0.5,35.75-4.25,41.25-4.5" class="stroke" stroke-dasharray="150"><set attributeName="opacity" to="0" dur="4.9s" /><animate attributeName="stroke-dashoffset" from="150" to="0" dur="1.8s" begin="4.9s" fill="freeze" /></path><path d="M51.97,39.5c0.09,1.33,0.2,3.45-0.19,5.36c-2.27,11.31-12.02,40.07-32.12,52.31" class="stroke" stroke-dasharray="150"><set attributeName="opacity" to="0" dur="6.0s" /><animate attributeName="stroke-dashoffset" from="150" to="0" dur="1.8s" begin="6.0s" fill="freeze" /></path><path d="M55.49,59.37c0.74,1.19,1.33,2.59,1.38,4.43c0.2,8.19-0.53,14.14-0.53,19.7c0,13,8.9,12.03,17.67,12.03c9.25,0,15.34-1.68,16.64-2.62c2.75-2,2-3,2.25-6.5" class="stroke" stroke-dasharray="150"><set attributeName="opacity" to="0" dur="7.5s" /><animate attributeName="stroke-dashoffset" from="150" to="0" dur="1.8s" begin="7.5s" fill="freeze" /></path><path d="M70.5,64c3.35,1.94,8.66,7.98,9.5,11" class="stroke" stroke-dasharray="150"><set attributeName="opacity" to="0" dur="9.2s" /><animate attributeName="stroke-dashoffset" from="150" to="0" dur="1.8s" begin="9.2s" fill="freeze" /></path><text x="90" y="120" id="reset">⟳</text><text x="70" y="120" id="pause">◼</text><script type="text/javascript"><![CDATA[function RecurringTimer(e,t){var n,r,i=t;this.pause=function(){window.clearTimeout(n);i-=new Date-r};var s=function(){r=new Date;n=window.setTimeout(function(){i=t;s();e()},i)};this.clear=function(){window.clearTimeout(n);i=t;n=window.setTimeout(function(){i=t;s();e()},i)};this.resume=s;this.resume()}function invoketimer(){timer=new RecurringTimer(function(){svg.setCurrentTime(0)},11100)}var svg=document.getElementById("kanjivg");var pause=document.getElementById("pause");var reset=document.getElementById("reset");var timer;invoketimer();reset.onclick=function(){svg.setCurrentTime(0);timer.clear();svg.unpauseAnimations();pause.innerHTML = "◼";};pause.onclick=function(){if(svg.animationsPaused()){svg.unpauseAnimations();timer.resume();pause.innerHTML="◼"}else{svg.pauseAnimations();timer.pause();pause.innerHTML="▶"}}]]></script></svg>