<svg id="kanjivg" width="106" height="126" xmlns="http://www.w3.org/2000/svg" xmlns:xlink="http://www.w3.org/1999/xlink" xml:space="preserve" version="1.1" baseProfile="full"><defs><style type="text/css"><![CDATA[path.black { fill:none;stroke:black;stroke-width:5;stroke-linecap:round;stroke-linejoin:round; }path.grey { fill:none;stroke:#ddd;stroke-width:5;stroke-linecap:round;stroke-linejoin:round; }path.stroke { fill:none;stroke:black;stroke-width:5;stroke-linecap:round;stroke-linejoin:round; }rect { fill:none;stroke:#555;stroke-width:2;} text{font-size:16px;font-family:Segoe UI Symbol,Cambria Math,DejaVu Sans,Symbola,Quivira,STIX,Code2000;-webkit-touch-callout:none;cursor:pointer;-webkit-user-select:none;-khtml-user-select:none;-moz-user-select:none;-ms-user-select:none;user-select: none;} #reset { font-weight:bold; }]]></style><marker id="markerStart" markerWidth="8" markerHeight="8" style="overflow:visible;"><circle cx="0" cy="0" r="1.5" style="stroke:none;fill:red;fill-opacity:0.5;"/></marker><marker id="markerEnd" style="overflow:visible;"><circle cx="0" cy="0" r="0.8" style="stroke:none;fill:blue;fill-opacity:0.5;"><animate attributeName="opacity" from="1" to="0" dur="3s" repeatCount="indefinite" /></circle></marker></defs><rect x="4" y="4" width="100" height="100" /><path d="M23.5,22.82c1.72,0.45,2.87,0.72,4.6,0.68c7.74-0.2,33.47-4.34,49.54-5.11c2.3-0.11,4.03-0.13,6.61,0.32" class="grey" /><path d="M20.25,45c0.18,0.72,1.2,3.93,1.38,5.38c1.32,10.65,1.62,37.33,1.62,42.12" class="grey" /><path d="M21.25,46.5c12.25-1,55.79-5.98,63.5-6.75c2.5-0.25,4.3,1.01,4.5,3.75c1,13.5,0.75,32-2,45c-1.54,7.3-4.5,5-7.75,0" class="grey" /><path d="M52.75,22.75C54,24,55,25.5,55,27.25c0,1-0.75,60.75-0.75,63.5" class="grey" /><path d="M38.47,64.83c-1.4,3.83-5.05,9.24-7.97,11.41" class="grey" /><path d="M31.48,55c0.58,0,1.11,0.54,1.39,0.93c4.63,6.57,9.88,13.32,14.17,17.96c0.49,0.53,0.95,0.72,1.46,0.86" class="grey" /><path d="M69.72,60.08c-1.8,4.41-6.48,10.66-10.22,13.16" class="grey" /><path d="M63.48,52.75c0.66,0,1.31,0.48,1.57,0.89c3.89,6.07,9.76,12.82,16.04,17.04c0.64,0.43,1.08,0.68,1.65,0.82" class="grey" /><path d="M23.5,22.82c1.72,0.45,2.87,0.72,4.6,0.68c7.74-0.2,33.47-4.34,49.54-5.11c2.3-0.11,4.03-0.13,6.61,0.32" class="stroke" stroke-dasharray="150"><animate attributeName="stroke-dashoffset" from="150" to="0" dur="1.8s" begin="0s" fill="freeze" /></path><path d="M20.25,45c0.18,0.72,1.2,3.93,1.38,5.38c1.32,10.65,1.62,37.33,1.62,42.12" class="stroke" stroke-dasharray="150"><set attributeName="opacity" to="0" dur="1.5s" /><animate attributeName="stroke-dashoffset" from="150" to="0" dur="1.8s" begin="1.5s" fill="freeze" /></path><path d="M21.25,46.5c12.25-1,55.79-5.98,63.5-6.75c2.5-0.25,4.3,1.01,4.5,3.75c1,13.5,0.75,32-2,45c-1.54,7.3-4.5,5-7.75,0" class="stroke" stroke-dasharray="150"><set attributeName="opacity" to="0" dur="2.7s" /><animate attributeName="stroke-dashoffset" from="150" to="0" dur="1.8s" begin="2.7s" fill="freeze" /></path><path d="M52.75,22.75C54,24,55,25.5,55,27.25c0,1-0.75,60.75-0.75,63.5" class="stroke" stroke-dasharray="150"><set attributeName="opacity" to="0" dur="4.7s" /><animate attributeName="stroke-dashoffset" from="150" to="0" dur="1.8s" begin="4.7s" fill="freeze" /></path><path d="M38.47,64.83c-1.4,3.83-5.05,9.24-7.97,11.41" class="stroke" stroke-dasharray="150"><set attributeName="opacity" to="0" dur="6.2s" /><animate attributeName="stroke-dashoffset" from="150" to="0" dur="1.8s" begin="6.2s" fill="freeze" /></path><path d="M31.48,55c0.58,0,1.11,0.54,1.39,0.93c4.63,6.57,9.88,13.32,14.17,17.96c0.49,0.53,0.95,0.72,1.46,0.86" class="stroke" stroke-dasharray="150"><set attributeName="opacity" to="0" dur="7.1000000000000005s" /><animate attributeName="stroke-dashoffset" from="150" to="0" dur="1.8s" begin="7.1000000000000005s" fill="freeze" /></path><path d="M69.72,60.08c-1.8,4.41-6.48,10.66-10.22,13.16" class="stroke" stroke-dasharray="150"><set attributeName="opacity" to="0" dur="8.100000000000001s" /><animate attributeName="stroke-dashoffset" from="150" to="0" dur="1.8s" begin="8.100000000000001s" fill="freeze" /></path><path d="M63.48,52.75c0.66,0,1.31,0.48,1.57,0.89c3.89,6.07,9.76,12.82,16.04,17.04c0.64,0.43,1.08,0.68,1.65,0.82" class="stroke" stroke-dasharray="150"><set attributeName="opacity" to="0" dur="9.000000000000002s" /><animate attributeName="stroke-dashoffset" from="150" to="0" dur="1.8s" begin="9.000000000000002s" fill="freeze" /></path><text x="90" y="120" id="reset">⟳</text><text x="70" y="120" id="pause">◼</text><script type="text/javascript"><![CDATA[function RecurringTimer(e,t){var n,r,i=t;this.pause=function(){window.clearTimeout(n);i-=new Date-r};var s=function(){r=new Date;n=window.setTimeout(function(){i=t;s();e()},i)};this.clear=function(){window.clearTimeout(n);i=t;n=window.setTimeout(function(){i=t;s();e()},i)};this.resume=s;this.resume()}function invoketimer(){timer=new RecurringTimer(function(){svg.setCurrentTime(0)},11000)}var svg=document.getElementById("kanjivg");var pause=document.getElementById("pause");var reset=document.getElementById("reset");var timer;invoketimer();reset.onclick=function(){svg.setCurrentTime(0);timer.clear();svg.unpauseAnimations();pause.innerHTML = "◼";};pause.onclick=function(){if(svg.animationsPaused()){svg.unpauseAnimations();timer.resume();pause.innerHTML="◼"}else{svg.pauseAnimations();timer.pause();pause.innerHTML="▶"}}]]></script></svg>