<svg id="kanjivg" width="106" height="126" xmlns="http://www.w3.org/2000/svg" xmlns:xlink="http://www.w3.org/1999/xlink" xml:space="preserve" version="1.1" baseProfile="full"><defs><style type="text/css"><![CDATA[path.black { fill:none;stroke:black;stroke-width:5;stroke-linecap:round;stroke-linejoin:round; }path.grey { fill:none;stroke:#ddd;stroke-width:5;stroke-linecap:round;stroke-linejoin:round; }path.stroke { fill:none;stroke:black;stroke-width:5;stroke-linecap:round;stroke-linejoin:round; }rect { fill:none;stroke:#555;stroke-width:2;} text{font-size:16px;font-family:Segoe UI Symbol,Cambria Math,DejaVu Sans,Symbola,Quivira,STIX,Code2000;-webkit-touch-callout:none;cursor:pointer;-webkit-user-select:none;-khtml-user-select:none;-moz-user-select:none;-ms-user-select:none;user-select: none;} #reset { font-weight:bold; }]]></style><marker id="markerStart" markerWidth="8" markerHeight="8" style="overflow:visible;"><circle cx="0" cy="0" r="1.5" style="stroke:none;fill:red;fill-opacity:0.5;"/></marker><marker id="markerEnd" style="overflow:visible;"><circle cx="0" cy="0" r="0.8" style="stroke:none;fill:blue;fill-opacity:0.5;"><animate attributeName="opacity" from="1" to="0" dur="3s" repeatCount="indefinite" /></circle></marker></defs><rect x="4" y="4" width="100" height="100" /><path d="M10.65,27.53c0.46,0.16,1.68,0.48,2.9,0.48c6.7-0.01,23.45-3.19,29.9-3.51c1.22-0.06,2.09,0.16,2.85,0.32" class="grey" /><path d="M26.78,14.5c1.16,0.66,2.09,2.59,2.09,3.93c0,4.82-0.23,15.07-0.23,22.07" class="grey" /><path d="M13.29,41.81c0.26,0.67,0.55,1.14,0.64,1.66c0.63,3.74,2.55,10.96,3.44,18.04" class="grey" /><path d="M14.59,43.44c7.88-1.41,23.61-4.94,29.28-4.95c1.46,0,2.53,1.45,2.1,3.28c-1.07,4.61-2.36,9.17-3.45,14.88" class="grey" /><path d="M18.26,59.96c7.44-1.08,18.49-2.34,25.57-2.75" class="grey" /><path d="M24.58,62.5c0.04,0.8,0.09,2.06-0.09,3.21c-1.04,6.77-6.55,22.9-15.25,30.71" class="grey" /><path d="M34.09,61.37c0.58,1.19,1.03,2.59,1.07,4.43c0.17,9.19-0.52,15.95-0.52,22.2c0,2,0.86,4.5,3.61,1.75c4.63-4.63,11.5-13,14.75-16.25" class="grey" /><path d="M55.04,26.53c0.48,0.16,1.76,0.58,3.03,0.48c6.24-0.48,24.47-3.19,31.2-3.51c1.28-0.06,2.18,0.16,2.98,0.32" class="grey" /><path d="M69.58,12.5c1.16,0.66,2.09,2.59,2.09,3.93c0,4.82-0.23,17.07-0.23,24.07" class="grey" /><path d="M56.15,41.04c0.25,0.62,0.55,1.05,0.64,1.52c0.63,3.44,2.71,10.68,4.43,18.93" class="grey" /><path d="M57.43,42.54c7.84-1.29,25.52-4.04,31.17-4.06c1.45,0,2.52,1.33,2.1,3.02c-1.06,4.24-2.35,8.43-3.44,13.69" class="grey" /><path d="M61.59,58.24c7.41-0.99,19.92-2.16,26.96-2.53" class="grey" /><path d="M67.63,60.75c0.06,0.82,0.12,2.12-0.11,3.3c-1.36,6.96-8.53,23.58-19.86,31.61" class="grey" /><path d="M75.38,60.37c0.57,1.19,1.03,2.59,1.06,4.43c0.15,8.19-0.52,15.64-0.52,21.2c0,7.75,2.59,9.03,11.14,9.03c8.94,0,10.08-1.78,10.08-9.12" class="grey" /><path d="M10.65,27.53c0.46,0.16,1.68,0.48,2.9,0.48c6.7-0.01,23.45-3.19,29.9-3.51c1.22-0.06,2.09,0.16,2.85,0.32" class="stroke" stroke-dasharray="150"><animate attributeName="stroke-dashoffset" from="150" to="0" dur="1.8s" begin="0s" fill="freeze" /></path><path d="M26.78,14.5c1.16,0.66,2.09,2.59,2.09,3.93c0,4.82-0.23,15.07-0.23,22.07" class="stroke" stroke-dasharray="150"><set attributeName="opacity" to="0" dur="1.0s" /><animate attributeName="stroke-dashoffset" from="150" to="0" dur="1.8s" begin="1.0s" fill="freeze" /></path><path d="M13.29,41.81c0.26,0.67,0.55,1.14,0.64,1.66c0.63,3.74,2.55,10.96,3.44,18.04" class="stroke" stroke-dasharray="150"><set attributeName="opacity" to="0" dur="2.0s" /><animate attributeName="stroke-dashoffset" from="150" to="0" dur="1.8s" begin="2.0s" fill="freeze" /></path><path d="M14.59,43.44c7.88-1.41,23.61-4.94,29.28-4.95c1.46,0,2.53,1.45,2.1,3.28c-1.07,4.61-2.36,9.17-3.45,14.88" class="stroke" stroke-dasharray="150"><set attributeName="opacity" to="0" dur="3.0s" /><animate attributeName="stroke-dashoffset" from="150" to="0" dur="1.8s" begin="3.0s" fill="freeze" /></path><path d="M18.26,59.96c7.44-1.08,18.49-2.34,25.57-2.75" class="stroke" stroke-dasharray="150"><set attributeName="opacity" to="0" dur="4.2s" /><animate attributeName="stroke-dashoffset" from="150" to="0" dur="1.8s" begin="4.2s" fill="freeze" /></path><path d="M24.58,62.5c0.04,0.8,0.09,2.06-0.09,3.21c-1.04,6.77-6.55,22.9-15.25,30.71" class="stroke" stroke-dasharray="150"><set attributeName="opacity" to="0" dur="5.2s" /><animate attributeName="stroke-dashoffset" from="150" to="0" dur="1.8s" begin="5.2s" fill="freeze" /></path><path d="M34.09,61.37c0.58,1.19,1.03,2.59,1.07,4.43c0.17,9.19-0.52,15.95-0.52,22.2c0,2,0.86,4.5,3.61,1.75c4.63-4.63,11.5-13,14.75-16.25" class="stroke" stroke-dasharray="150"><set attributeName="opacity" to="0" dur="6.2s" /><animate attributeName="stroke-dashoffset" from="150" to="0" dur="1.8s" begin="6.2s" fill="freeze" /></path><path d="M55.04,26.53c0.48,0.16,1.76,0.58,3.03,0.48c6.24-0.48,24.47-3.19,31.2-3.51c1.28-0.06,2.18,0.16,2.98,0.32" class="stroke" stroke-dasharray="150"><set attributeName="opacity" to="0" dur="7.5s" /><animate attributeName="stroke-dashoffset" from="150" to="0" dur="1.8s" begin="7.5s" fill="freeze" /></path><path d="M69.58,12.5c1.16,0.66,2.09,2.59,2.09,3.93c0,4.82-0.23,17.07-0.23,24.07" class="stroke" stroke-dasharray="150"><set attributeName="opacity" to="0" dur="8.5s" /><animate attributeName="stroke-dashoffset" from="150" to="0" dur="1.8s" begin="8.5s" fill="freeze" /></path><path d="M56.15,41.04c0.25,0.62,0.55,1.05,0.64,1.52c0.63,3.44,2.71,10.68,4.43,18.93" class="stroke" stroke-dasharray="150"><set attributeName="opacity" to="0" dur="9.5s" /><animate attributeName="stroke-dashoffset" from="150" to="0" dur="1.8s" begin="9.5s" fill="freeze" /></path><path d="M57.43,42.54c7.84-1.29,25.52-4.04,31.17-4.06c1.45,0,2.52,1.33,2.1,3.02c-1.06,4.24-2.35,8.43-3.44,13.69" class="stroke" stroke-dasharray="150"><set attributeName="opacity" to="0" dur="10.5s" /><animate attributeName="stroke-dashoffset" from="150" to="0" dur="1.8s" begin="10.5s" fill="freeze" /></path><path d="M61.59,58.24c7.41-0.99,19.92-2.16,26.96-2.53" class="stroke" stroke-dasharray="150"><set attributeName="opacity" to="0" dur="11.7s" /><animate attributeName="stroke-dashoffset" from="150" to="0" dur="1.8s" begin="11.7s" fill="freeze" /></path><path d="M67.63,60.75c0.06,0.82,0.12,2.12-0.11,3.3c-1.36,6.96-8.53,23.58-19.86,31.61" class="stroke" stroke-dasharray="150"><set attributeName="opacity" to="0" dur="12.7s" /><animate attributeName="stroke-dashoffset" from="150" to="0" dur="1.8s" begin="12.7s" fill="freeze" /></path><path d="M75.38,60.37c0.57,1.19,1.03,2.59,1.06,4.43c0.15,8.19-0.52,15.64-0.52,21.2c0,7.75,2.59,9.03,11.14,9.03c8.94,0,10.08-1.78,10.08-9.12" class="stroke" stroke-dasharray="150"><set attributeName="opacity" to="0" dur="13.799999999999999s" /><animate attributeName="stroke-dashoffset" from="150" to="0" dur="1.8s" begin="13.799999999999999s" fill="freeze" /></path><text x="90" y="120" id="reset">⟳</text><text x="70" y="120" id="pause">◼</text><script type="text/javascript"><![CDATA[function RecurringTimer(e,t){var n,r,i=t;this.pause=function(){window.clearTimeout(n);i-=new Date-r};var s=function(){r=new Date;n=window.setTimeout(function(){i=t;s();e()},i)};this.clear=function(){window.clearTimeout(n);i=t;n=window.setTimeout(function(){i=t;s();e()},i)};this.resume=s;this.resume()}function invoketimer(){timer=new RecurringTimer(function(){svg.setCurrentTime(0)},16200)}var svg=document.getElementById("kanjivg");var pause=document.getElementById("pause");var reset=document.getElementById("reset");var timer;invoketimer();reset.onclick=function(){svg.setCurrentTime(0);timer.clear();svg.unpauseAnimations();pause.innerHTML = "◼";};pause.onclick=function(){if(svg.animationsPaused()){svg.unpauseAnimations();timer.resume();pause.innerHTML="◼"}else{svg.pauseAnimations();timer.pause();pause.innerHTML="▶"}}]]></script></svg>