<svg id="kanjivg" width="106" height="126" xmlns="http://www.w3.org/2000/svg" xmlns:xlink="http://www.w3.org/1999/xlink" xml:space="preserve" version="1.1" baseProfile="full"><defs><style type="text/css"><![CDATA[path.black { fill:none;stroke:black;stroke-width:5;stroke-linecap:round;stroke-linejoin:round; }path.grey { fill:none;stroke:#ddd;stroke-width:5;stroke-linecap:round;stroke-linejoin:round; }path.stroke { fill:none;stroke:black;stroke-width:5;stroke-linecap:round;stroke-linejoin:round; }rect { fill:none;stroke:#555;stroke-width:2;} text{font-size:16px;font-family:Segoe UI Symbol,Cambria Math,DejaVu Sans,Symbola,Quivira,STIX,Code2000;-webkit-touch-callout:none;cursor:pointer;-webkit-user-select:none;-khtml-user-select:none;-moz-user-select:none;-ms-user-select:none;user-select: none;} #reset { font-weight:bold; }]]></style><marker id="markerStart" markerWidth="8" markerHeight="8" style="overflow:visible;"><circle cx="0" cy="0" r="1.5" style="stroke:none;fill:red;fill-opacity:0.5;"/></marker><marker id="markerEnd" style="overflow:visible;"><circle cx="0" cy="0" r="0.8" style="stroke:none;fill:blue;fill-opacity:0.5;"><animate attributeName="opacity" from="1" to="0" dur="3s" repeatCount="indefinite" /></circle></marker></defs><rect x="4" y="4" width="100" height="100" /><path d="M50.25,12c0.11,1.15,0.4,3.02-0.21,4.61C46.25,26.5,33.25,47.5,12.5,60.75" class="grey" /><path d="M51.25,17.13C58.12,23.66,81.13,46,87.34,50.96c2.11,1.68,4.81,2.4,6.91,2.88" class="grey" /><path d="M31.92,53.79c0.85,0.47,3.64,0.17,4.5,0.03c4.01-0.63,21.26-2.37,30.93-2.86c1.32-0.07,2.51,0.09,3.6,0.49" class="grey" /><path d="M32.7,72.18c0.84,0.51,3.63,0.31,4.5,0.23c9-0.9,17.57-1.7,28.13-2.62c1.05-0.09,3.38-0.21,4.95,0.24" class="grey" /><path d="M19.85,93.51c0.83,0.29,5.13,0.15,6.52,0c19.57-2.02,33.53-3,54.45-3.7c2.25-0.08,4.95,0.48,6.07,0.93" class="grey" /><path d="M51.16,53.99c0.9,1.12,0.9,1.8,0.9,2.7c0,6.3,0.45,26.86,0.23,33.15" class="grey" /><path d="M50.25,12c0.11,1.15,0.4,3.02-0.21,4.61C46.25,26.5,33.25,47.5,12.5,60.75" class="stroke" stroke-dasharray="150"><animate attributeName="stroke-dashoffset" from="150" to="0" dur="1.8s" begin="0s" fill="freeze" /></path><path d="M51.25,17.13C58.12,23.66,81.13,46,87.34,50.96c2.11,1.68,4.81,2.4,6.91,2.88" class="stroke" stroke-dasharray="150"><set attributeName="opacity" to="0" dur="1.5s" /><animate attributeName="stroke-dashoffset" from="150" to="0" dur="1.8s" begin="1.5s" fill="freeze" /></path><path d="M31.92,53.79c0.85,0.47,3.64,0.17,4.5,0.03c4.01-0.63,21.26-2.37,30.93-2.86c1.32-0.07,2.51,0.09,3.6,0.49" class="stroke" stroke-dasharray="150"><set attributeName="opacity" to="0" dur="2.9s" /><animate attributeName="stroke-dashoffset" from="150" to="0" dur="1.8s" begin="2.9s" fill="freeze" /></path><path d="M32.7,72.18c0.84,0.51,3.63,0.31,4.5,0.23c9-0.9,17.57-1.7,28.13-2.62c1.05-0.09,3.38-0.21,4.95,0.24" class="stroke" stroke-dasharray="150"><set attributeName="opacity" to="0" dur="3.9s" /><animate attributeName="stroke-dashoffset" from="150" to="0" dur="1.8s" begin="3.9s" fill="freeze" /></path><path d="M19.85,93.51c0.83,0.29,5.13,0.15,6.52,0c19.57-2.02,33.53-3,54.45-3.7c2.25-0.08,4.95,0.48,6.07,0.93" class="stroke" stroke-dasharray="150"><set attributeName="opacity" to="0" dur="4.9s" /><animate attributeName="stroke-dashoffset" from="150" to="0" dur="1.8s" begin="4.9s" fill="freeze" /></path><path d="M51.16,53.99c0.9,1.12,0.9,1.8,0.9,2.7c0,6.3,0.45,26.86,0.23,33.15" class="stroke" stroke-dasharray="150"><set attributeName="opacity" to="0" dur="6.4s" /><animate attributeName="stroke-dashoffset" from="150" to="0" dur="1.8s" begin="6.4s" fill="freeze" /></path><text x="90" y="120" id="reset">⟳</text><text x="70" y="120" id="pause">◼</text><script type="text/javascript"><![CDATA[function RecurringTimer(e,t){var n,r,i=t;this.pause=function(){window.clearTimeout(n);i-=new Date-r};var s=function(){r=new Date;n=window.setTimeout(function(){i=t;s();e()},i)};this.clear=function(){window.clearTimeout(n);i=t;n=window.setTimeout(function(){i=t;s();e()},i)};this.resume=s;this.resume()}function invoketimer(){timer=new RecurringTimer(function(){svg.setCurrentTime(0)},8400)}var svg=document.getElementById("kanjivg");var pause=document.getElementById("pause");var reset=document.getElementById("reset");var timer;invoketimer();reset.onclick=function(){svg.setCurrentTime(0);timer.clear();svg.unpauseAnimations();pause.innerHTML = "◼";};pause.onclick=function(){if(svg.animationsPaused()){svg.unpauseAnimations();timer.resume();pause.innerHTML="◼"}else{svg.pauseAnimations();timer.pause();pause.innerHTML="▶"}}]]></script></svg>