<svg id="kanjivg" width="106" height="126" xmlns="http://www.w3.org/2000/svg" xmlns:xlink="http://www.w3.org/1999/xlink" xml:space="preserve" version="1.1" baseProfile="full"><defs><style type="text/css"><![CDATA[path.black { fill:none;stroke:black;stroke-width:5;stroke-linecap:round;stroke-linejoin:round; }path.grey { fill:none;stroke:#ddd;stroke-width:5;stroke-linecap:round;stroke-linejoin:round; }path.stroke { fill:none;stroke:black;stroke-width:5;stroke-linecap:round;stroke-linejoin:round; }rect { fill:none;stroke:#555;stroke-width:2;} text{font-size:16px;font-family:Segoe UI Symbol,Cambria Math,DejaVu Sans,Symbola,Quivira,STIX,Code2000;-webkit-touch-callout:none;cursor:pointer;-webkit-user-select:none;-khtml-user-select:none;-moz-user-select:none;-ms-user-select:none;user-select: none;} #reset { font-weight:bold; }]]></style><marker id="markerStart" markerWidth="8" markerHeight="8" style="overflow:visible;"><circle cx="0" cy="0" r="1.5" style="stroke:none;fill:red;fill-opacity:0.5;"/></marker><marker id="markerEnd" style="overflow:visible;"><circle cx="0" cy="0" r="0.8" style="stroke:none;fill:blue;fill-opacity:0.5;"><animate attributeName="opacity" from="1" to="0" dur="3s" repeatCount="indefinite" /></circle></marker></defs><rect x="4" y="4" width="100" height="100" /><path d="M51,12c0.1,1.1-0.11,2.9-0.71,4.42C46.54,25.91,34.42,46.29,13.88,59" class="grey" /><path d="M51.25,17.13c6.01,5.71,24.37,23.52,33.03,31.21c3.08,2.73,4.85,3.78,9.22,5.5" class="grey" /><path d="M32.17,53.79c1.95,0.59,4.65,0.47,6.45,0.26c6.04-0.71,17.52-2.14,26.01-2.69c2.11-0.13,4.5-0.12,6.32,0.33" class="grey" /><path d="M50.91,54.99c0.92,0.92,1.4,2.3,1.4,3.2c0,6.3-0.02,24.06-0.02,31.65" class="grey" /><path d="M33.45,71.93c1.84,0.57,3.93,0.31,5.81,0.12c8.21-0.8,16.37-1.4,24.75-2.14c2.07-0.18,4.23-0.46,6.27,0.12" class="grey" /><path d="M20.48,92.76c1.91,0.49,4.89,0.79,8.3,0.5c13.59-1.14,33.47-2.89,50.39-3.45c2.86-0.09,6.3,0.23,7.73,0.68" class="grey" /><path d="M51,12c0.1,1.1-0.11,2.9-0.71,4.42C46.54,25.91,34.42,46.29,13.88,59" class="stroke" stroke-dasharray="150"><animate attributeName="stroke-dashoffset" from="150" to="0" dur="1.8s" begin="0s" fill="freeze" /></path><path d="M51.25,17.13c6.01,5.71,24.37,23.52,33.03,31.21c3.08,2.73,4.85,3.78,9.22,5.5" class="stroke" stroke-dasharray="150"><set attributeName="opacity" to="0" dur="1.5s" /><animate attributeName="stroke-dashoffset" from="150" to="0" dur="1.8s" begin="1.5s" fill="freeze" /></path><path d="M32.17,53.79c1.95,0.59,4.65,0.47,6.45,0.26c6.04-0.71,17.52-2.14,26.01-2.69c2.11-0.13,4.5-0.12,6.32,0.33" class="stroke" stroke-dasharray="150"><set attributeName="opacity" to="0" dur="2.9s" /><animate attributeName="stroke-dashoffset" from="150" to="0" dur="1.8s" begin="2.9s" fill="freeze" /></path><path d="M50.91,54.99c0.92,0.92,1.4,2.3,1.4,3.2c0,6.3-0.02,24.06-0.02,31.65" class="stroke" stroke-dasharray="150"><set attributeName="opacity" to="0" dur="3.9s" /><animate attributeName="stroke-dashoffset" from="150" to="0" dur="1.8s" begin="3.9s" fill="freeze" /></path><path d="M33.45,71.93c1.84,0.57,3.93,0.31,5.81,0.12c8.21-0.8,16.37-1.4,24.75-2.14c2.07-0.18,4.23-0.46,6.27,0.12" class="stroke" stroke-dasharray="150"><set attributeName="opacity" to="0" dur="4.9s" /><animate attributeName="stroke-dashoffset" from="150" to="0" dur="1.8s" begin="4.9s" fill="freeze" /></path><path d="M20.48,92.76c1.91,0.49,4.89,0.79,8.3,0.5c13.59-1.14,33.47-2.89,50.39-3.45c2.86-0.09,6.3,0.23,7.73,0.68" class="stroke" stroke-dasharray="150"><set attributeName="opacity" to="0" dur="5.9s" /><animate attributeName="stroke-dashoffset" from="150" to="0" dur="1.8s" begin="5.9s" fill="freeze" /></path><text x="90" y="120" id="reset">⟳</text><text x="70" y="120" id="pause">◼</text><script type="text/javascript"><![CDATA[function RecurringTimer(e,t){var n,r,i=t;this.pause=function(){window.clearTimeout(n);i-=new Date-r};var s=function(){r=new Date;n=window.setTimeout(function(){i=t;s();e()},i)};this.clear=function(){window.clearTimeout(n);i=t;n=window.setTimeout(function(){i=t;s();e()},i)};this.resume=s;this.resume()}function invoketimer(){timer=new RecurringTimer(function(){svg.setCurrentTime(0)},8400)}var svg=document.getElementById("kanjivg");var pause=document.getElementById("pause");var reset=document.getElementById("reset");var timer;invoketimer();reset.onclick=function(){svg.setCurrentTime(0);timer.clear();svg.unpauseAnimations();pause.innerHTML = "◼";};pause.onclick=function(){if(svg.animationsPaused()){svg.unpauseAnimations();timer.resume();pause.innerHTML="◼"}else{svg.pauseAnimations();timer.pause();pause.innerHTML="▶"}}]]></script></svg>