<svg id="kanjivg" width="106" height="126" xmlns="http://www.w3.org/2000/svg" xmlns:xlink="http://www.w3.org/1999/xlink" xml:space="preserve" version="1.1" baseProfile="full"><defs><style type="text/css"><![CDATA[path.black { fill:none;stroke:black;stroke-width:5;stroke-linecap:round;stroke-linejoin:round; }path.grey { fill:none;stroke:#ddd;stroke-width:5;stroke-linecap:round;stroke-linejoin:round; }path.stroke { fill:none;stroke:black;stroke-width:5;stroke-linecap:round;stroke-linejoin:round; }rect { fill:none;stroke:#555;stroke-width:2;} text{font-size:16px;font-family:Segoe UI Symbol,Cambria Math,DejaVu Sans,Symbola,Quivira,STIX,Code2000;-webkit-touch-callout:none;cursor:pointer;-webkit-user-select:none;-khtml-user-select:none;-moz-user-select:none;-ms-user-select:none;user-select: none;} #reset { font-weight:bold; }]]></style><marker id="markerStart" markerWidth="8" markerHeight="8" style="overflow:visible;"><circle cx="0" cy="0" r="1.5" style="stroke:none;fill:red;fill-opacity:0.5;"/></marker><marker id="markerEnd" style="overflow:visible;"><circle cx="0" cy="0" r="0.8" style="stroke:none;fill:blue;fill-opacity:0.5;"><animate attributeName="opacity" from="1" to="0" dur="3s" repeatCount="indefinite" /></circle></marker></defs><rect x="4" y="4" width="100" height="100" /><path d="M24.5,39.15c2.5,0.6,4.91,0.49,7.21,0.13c9.36-1.44,35.65-5.22,47.54-6.09c2.49-0.18,5.03-0.36,7.49,0.18" class="grey" /><path d="M39.12,18.5c0.88,0.88,1.64,2.23,1.71,3.25c0.55,8.5,1.42,30,1.92,38.25" class="grey" /><path d="M66.62,12.75c0.88,0.88,1.5,2.23,1.46,3.25c-0.58,13.75-1.33,26.75-1.83,42" class="grey" /><path d="M13.5,63.23c2.26,0.74,6.41,0.99,8.65,0.74c15.72-1.72,47.22-6.16,66.07-6.83c3.76-0.13,6.02,0.35,7.9,0.73" class="grey" /><path d="M42,72.14c0.05,0.57,0.11,1.46-0.1,2.28c-1.27,4.8-9.65,13.33-18.59,21.05" class="grey" /><path d="M68.5,72.62c6.99,4.25,18.06,17.48,19.81,24.09" class="grey" /><path d="M24.5,39.15c2.5,0.6,4.91,0.49,7.21,0.13c9.36-1.44,35.65-5.22,47.54-6.09c2.49-0.18,5.03-0.36,7.49,0.18" class="stroke" stroke-dasharray="150"><animate attributeName="stroke-dashoffset" from="150" to="0" dur="1.8s" begin="0s" fill="freeze" /></path><path d="M39.12,18.5c0.88,0.88,1.64,2.23,1.71,3.25c0.55,8.5,1.42,30,1.92,38.25" class="stroke" stroke-dasharray="150"><set attributeName="opacity" to="0" dur="1.5s" /><animate attributeName="stroke-dashoffset" from="150" to="0" dur="1.8s" begin="1.5s" fill="freeze" /></path><path d="M66.62,12.75c0.88,0.88,1.5,2.23,1.46,3.25c-0.58,13.75-1.33,26.75-1.83,42" class="stroke" stroke-dasharray="150"><set attributeName="opacity" to="0" dur="2.6s" /><animate attributeName="stroke-dashoffset" from="150" to="0" dur="1.8s" begin="2.6s" fill="freeze" /></path><path d="M13.5,63.23c2.26,0.74,6.41,0.99,8.65,0.74c15.72-1.72,47.22-6.16,66.07-6.83c3.76-0.13,6.02,0.35,7.9,0.73" class="stroke" stroke-dasharray="150"><set attributeName="opacity" to="0" dur="3.8s" /><animate attributeName="stroke-dashoffset" from="150" to="0" dur="1.8s" begin="3.8s" fill="freeze" /></path><path d="M42,72.14c0.05,0.57,0.11,1.46-0.1,2.28c-1.27,4.8-9.65,13.33-18.59,21.05" class="stroke" stroke-dasharray="150"><set attributeName="opacity" to="0" dur="5.5s" /><animate attributeName="stroke-dashoffset" from="150" to="0" dur="1.8s" begin="5.5s" fill="freeze" /></path><path d="M68.5,72.62c6.99,4.25,18.06,17.48,19.81,24.09" class="stroke" stroke-dasharray="150"><set attributeName="opacity" to="0" dur="6.5s" /><animate attributeName="stroke-dashoffset" from="150" to="0" dur="1.8s" begin="6.5s" fill="freeze" /></path><text x="90" y="120" id="reset">⟳</text><text x="70" y="120" id="pause">◼</text><script type="text/javascript"><![CDATA[function RecurringTimer(e,t){var n,r,i=t;this.pause=function(){window.clearTimeout(n);i-=new Date-r};var s=function(){r=new Date;n=window.setTimeout(function(){i=t;s();e()},i)};this.clear=function(){window.clearTimeout(n);i=t;n=window.setTimeout(function(){i=t;s();e()},i)};this.resume=s;this.resume()}function invoketimer(){timer=new RecurringTimer(function(){svg.setCurrentTime(0)},8500)}var svg=document.getElementById("kanjivg");var pause=document.getElementById("pause");var reset=document.getElementById("reset");var timer;invoketimer();reset.onclick=function(){svg.setCurrentTime(0);timer.clear();svg.unpauseAnimations();pause.innerHTML = "◼";};pause.onclick=function(){if(svg.animationsPaused()){svg.unpauseAnimations();timer.resume();pause.innerHTML="◼"}else{svg.pauseAnimations();timer.pause();pause.innerHTML="▶"}}]]></script></svg>