<svg id="kanjivg" width="106" height="126" xmlns="http://www.w3.org/2000/svg" xmlns:xlink="http://www.w3.org/1999/xlink" xml:space="preserve" version="1.1" baseProfile="full"><defs><style type="text/css"><![CDATA[path.black { fill:none;stroke:black;stroke-width:5;stroke-linecap:round;stroke-linejoin:round; }path.grey { fill:none;stroke:#ddd;stroke-width:5;stroke-linecap:round;stroke-linejoin:round; }path.stroke { fill:none;stroke:black;stroke-width:5;stroke-linecap:round;stroke-linejoin:round; }rect { fill:none;stroke:#555;stroke-width:2;} text{font-size:16px;font-family:Segoe UI Symbol,Cambria Math,DejaVu Sans,Symbola,Quivira,STIX,Code2000;-webkit-touch-callout:none;cursor:pointer;-webkit-user-select:none;-khtml-user-select:none;-moz-user-select:none;-ms-user-select:none;user-select: none;} #reset { font-weight:bold; }]]></style><marker id="markerStart" markerWidth="8" markerHeight="8" style="overflow:visible;"><circle cx="0" cy="0" r="1.5" style="stroke:none;fill:red;fill-opacity:0.5;"/></marker><marker id="markerEnd" style="overflow:visible;"><circle cx="0" cy="0" r="0.8" style="stroke:none;fill:blue;fill-opacity:0.5;"><animate attributeName="opacity" from="1" to="0" dur="3s" repeatCount="indefinite" /></circle></marker></defs><rect x="4" y="4" width="100" height="100" /><path d="M33.34,17.63c1.08,1.08,1.3,2.54,1.3,3.9c0,4.34,0.06,27.34,0.07,36.85c0,1.67,0,2.92,0,3.58" class="grey" /><path d="M35.45,20.05c5.55-0.8,30.33-4.1,33.59-4.31c3.63-0.23,4.97,1.38,4.97,4.51c0,6.29-0.12,21.37-0.14,33.62c0,1.63,0,3.21,0,4.71" class="grey" /><path d="M35.89,33.24C46.25,32,66.25,30.25,73,29.75" class="grey" /><path d="M36,46.5c14.25-1.25,26.74-2.7,36.75-3.25" class="grey" /><path d="M36,58.75C44,58,61.5,56.5,72.5,55.5" class="grey" /><path d="M15.75,71.7c3.75,0.68,8.42,0.66,12.39,0.26c12.76-1.28,39.61-3.71,55.24-4.05c3.49-0.08,7.12-0.03,10.62,0.63" class="grey" /><path d="M41.25,77.14c0.13,0.98,0.04,1.84-0.54,2.64c-2.83,3.97-10.08,10.09-20.9,15.68" class="grey" /><path d="M67.25,78c6.46,2.91,15.62,11.25,18.31,16.47" class="grey" /><path d="M33.34,17.63c1.08,1.08,1.3,2.54,1.3,3.9c0,4.34,0.06,27.34,0.07,36.85c0,1.67,0,2.92,0,3.58" class="stroke" stroke-dasharray="150"><animate attributeName="stroke-dashoffset" from="150" to="0" dur="1.8s" begin="0s" fill="freeze" /></path><path d="M35.45,20.05c5.55-0.8,30.33-4.1,33.59-4.31c3.63-0.23,4.97,1.38,4.97,4.51c0,6.29-0.12,21.37-0.14,33.62c0,1.63,0,3.21,0,4.71" class="stroke" stroke-dasharray="150"><set attributeName="opacity" to="0" dur="1.1s" /><animate attributeName="stroke-dashoffset" from="150" to="0" dur="1.8s" begin="1.1s" fill="freeze" /></path><path d="M35.89,33.24C46.25,32,66.25,30.25,73,29.75" class="stroke" stroke-dasharray="150"><set attributeName="opacity" to="0" dur="2.8s" /><animate attributeName="stroke-dashoffset" from="150" to="0" dur="1.8s" begin="2.8s" fill="freeze" /></path><path d="M36,46.5c14.25-1.25,26.74-2.7,36.75-3.25" class="stroke" stroke-dasharray="150"><set attributeName="opacity" to="0" dur="3.8s" /><animate attributeName="stroke-dashoffset" from="150" to="0" dur="1.8s" begin="3.8s" fill="freeze" /></path><path d="M36,58.75C44,58,61.5,56.5,72.5,55.5" class="stroke" stroke-dasharray="150"><set attributeName="opacity" to="0" dur="4.8s" /><animate attributeName="stroke-dashoffset" from="150" to="0" dur="1.8s" begin="4.8s" fill="freeze" /></path><path d="M15.75,71.7c3.75,0.68,8.42,0.66,12.39,0.26c12.76-1.28,39.61-3.71,55.24-4.05c3.49-0.08,7.12-0.03,10.62,0.63" class="stroke" stroke-dasharray="150"><set attributeName="opacity" to="0" dur="5.8s" /><animate attributeName="stroke-dashoffset" from="150" to="0" dur="1.8s" begin="5.8s" fill="freeze" /></path><path d="M41.25,77.14c0.13,0.98,0.04,1.84-0.54,2.64c-2.83,3.97-10.08,10.09-20.9,15.68" class="stroke" stroke-dasharray="150"><set attributeName="opacity" to="0" dur="7.5s" /><animate attributeName="stroke-dashoffset" from="150" to="0" dur="1.8s" begin="7.5s" fill="freeze" /></path><path d="M67.25,78c6.46,2.91,15.62,11.25,18.31,16.47" class="stroke" stroke-dasharray="150"><set attributeName="opacity" to="0" dur="8.5s" /><animate attributeName="stroke-dashoffset" from="150" to="0" dur="1.8s" begin="8.5s" fill="freeze" /></path><text x="90" y="120" id="reset">⟳</text><text x="70" y="120" id="pause">◼</text><script type="text/javascript"><![CDATA[function RecurringTimer(e,t){var n,r,i=t;this.pause=function(){window.clearTimeout(n);i-=new Date-r};var s=function(){r=new Date;n=window.setTimeout(function(){i=t;s();e()},i)};this.clear=function(){window.clearTimeout(n);i=t;n=window.setTimeout(function(){i=t;s();e()},i)};this.resume=s;this.resume()}function invoketimer(){timer=new RecurringTimer(function(){svg.setCurrentTime(0)},10500)}var svg=document.getElementById("kanjivg");var pause=document.getElementById("pause");var reset=document.getElementById("reset");var timer;invoketimer();reset.onclick=function(){svg.setCurrentTime(0);timer.clear();svg.unpauseAnimations();pause.innerHTML = "◼";};pause.onclick=function(){if(svg.animationsPaused()){svg.unpauseAnimations();timer.resume();pause.innerHTML="◼"}else{svg.pauseAnimations();timer.pause();pause.innerHTML="▶"}}]]></script></svg>