<svg id="kanjivg" width="106" height="126" xmlns="http://www.w3.org/2000/svg" xmlns:xlink="http://www.w3.org/1999/xlink" xml:space="preserve" version="1.1" baseProfile="full"><defs><style type="text/css"><![CDATA[path.black { fill:none;stroke:black;stroke-width:5;stroke-linecap:round;stroke-linejoin:round; }path.grey { fill:none;stroke:#ddd;stroke-width:5;stroke-linecap:round;stroke-linejoin:round; }path.stroke { fill:none;stroke:black;stroke-width:5;stroke-linecap:round;stroke-linejoin:round; }rect { fill:none;stroke:#555;stroke-width:2;} text{font-size:16px;font-family:Segoe UI Symbol,Cambria Math,DejaVu Sans,Symbola,Quivira,STIX,Code2000;-webkit-touch-callout:none;cursor:pointer;-webkit-user-select:none;-khtml-user-select:none;-moz-user-select:none;-ms-user-select:none;user-select: none;} #reset { font-weight:bold; }]]></style><marker id="markerStart" markerWidth="8" markerHeight="8" style="overflow:visible;"><circle cx="0" cy="0" r="1.5" style="stroke:none;fill:red;fill-opacity:0.5;"/></marker><marker id="markerEnd" style="overflow:visible;"><circle cx="0" cy="0" r="0.8" style="stroke:none;fill:blue;fill-opacity:0.5;"><animate attributeName="opacity" from="1" to="0" dur="3s" repeatCount="indefinite" /></circle></marker></defs><rect x="4" y="4" width="100" height="100" /><path d="M33.59,18.13c0.63,1.02,1.55,1.79,1.55,3.15s-0.42,37.5-0.42,38.18c0,0.68,0.21,0.68,0.42,2.04" class="grey" /><path d="M36.2,19.55c5.55-0.8,30.83-3.35,34.09-3.56c2.72-0.17,4.86,0.95,4.63,2.22c-0.29,1.6-1.06,25.37-1.05,40.37" class="grey" /><path d="M36.14,32.74c6.58-0.79,13.19-1.42,19.79-2.03c1.77-0.16,3.51-0.32,5.18-0.47" class="grey" /><path d="M36,46.5c6.7-0.59,13.39-1.25,20.09-1.89c1.55-0.15,3.08-0.29,4.56-0.42" class="grey" /><path d="M35.75,59c8-0.75,25.75-2.25,36.75-3.25" class="grey" /><path d="M15.75,72.7c1.52,0.54,4.32,0.8,5.82,0.54c6.15-1.05,50.18-5.99,66.11-5.23c2.53,0.12,4.05,0.26,5.31,0.53" class="grey" /><path d="M40.75,77.14c0.06,0.44,0.12,1.13-0.12,1.76c-1.43,3.71-9.62,11.84-20.82,16.82" class="grey" /><path d="M69.52,79.58c5.4,2.58,13.94,10.62,15.29,14.63" class="grey" /><path d="M33.59,18.13c0.63,1.02,1.55,1.79,1.55,3.15s-0.42,37.5-0.42,38.18c0,0.68,0.21,0.68,0.42,2.04" class="stroke" stroke-dasharray="150"><animate attributeName="stroke-dashoffset" from="150" to="0" dur="1.8s" begin="0s" fill="freeze" /></path><path d="M36.2,19.55c5.55-0.8,30.83-3.35,34.09-3.56c2.72-0.17,4.86,0.95,4.63,2.22c-0.29,1.6-1.06,25.37-1.05,40.37" class="stroke" stroke-dasharray="150"><set attributeName="opacity" to="0" dur="1.1s" /><animate attributeName="stroke-dashoffset" from="150" to="0" dur="1.8s" begin="1.1s" fill="freeze" /></path><path d="M36.14,32.74c6.58-0.79,13.19-1.42,19.79-2.03c1.77-0.16,3.51-0.32,5.18-0.47" class="stroke" stroke-dasharray="150"><set attributeName="opacity" to="0" dur="2.8s" /><animate attributeName="stroke-dashoffset" from="150" to="0" dur="1.8s" begin="2.8s" fill="freeze" /></path><path d="M36,46.5c6.7-0.59,13.39-1.25,20.09-1.89c1.55-0.15,3.08-0.29,4.56-0.42" class="stroke" stroke-dasharray="150"><set attributeName="opacity" to="0" dur="3.8s" /><animate attributeName="stroke-dashoffset" from="150" to="0" dur="1.8s" begin="3.8s" fill="freeze" /></path><path d="M35.75,59c8-0.75,25.75-2.25,36.75-3.25" class="stroke" stroke-dasharray="150"><set attributeName="opacity" to="0" dur="4.8s" /><animate attributeName="stroke-dashoffset" from="150" to="0" dur="1.8s" begin="4.8s" fill="freeze" /></path><path d="M15.75,72.7c1.52,0.54,4.32,0.8,5.82,0.54c6.15-1.05,50.18-5.99,66.11-5.23c2.53,0.12,4.05,0.26,5.31,0.53" class="stroke" stroke-dasharray="150"><set attributeName="opacity" to="0" dur="5.8s" /><animate attributeName="stroke-dashoffset" from="150" to="0" dur="1.8s" begin="5.8s" fill="freeze" /></path><path d="M40.75,77.14c0.06,0.44,0.12,1.13-0.12,1.76c-1.43,3.71-9.62,11.84-20.82,16.82" class="stroke" stroke-dasharray="150"><set attributeName="opacity" to="0" dur="7.5s" /><animate attributeName="stroke-dashoffset" from="150" to="0" dur="1.8s" begin="7.5s" fill="freeze" /></path><path d="M69.52,79.58c5.4,2.58,13.94,10.62,15.29,14.63" class="stroke" stroke-dasharray="150"><set attributeName="opacity" to="0" dur="8.5s" /><animate attributeName="stroke-dashoffset" from="150" to="0" dur="1.8s" begin="8.5s" fill="freeze" /></path><text x="90" y="120" id="reset">⟳</text><text x="70" y="120" id="pause">◼</text><script type="text/javascript"><![CDATA[function RecurringTimer(e,t){var n,r,i=t;this.pause=function(){window.clearTimeout(n);i-=new Date-r};var s=function(){r=new Date;n=window.setTimeout(function(){i=t;s();e()},i)};this.clear=function(){window.clearTimeout(n);i=t;n=window.setTimeout(function(){i=t;s();e()},i)};this.resume=s;this.resume()}function invoketimer(){timer=new RecurringTimer(function(){svg.setCurrentTime(0)},10500)}var svg=document.getElementById("kanjivg");var pause=document.getElementById("pause");var reset=document.getElementById("reset");var timer;invoketimer();reset.onclick=function(){svg.setCurrentTime(0);timer.clear();svg.unpauseAnimations();pause.innerHTML = "◼";};pause.onclick=function(){if(svg.animationsPaused()){svg.unpauseAnimations();timer.resume();pause.innerHTML="◼"}else{svg.pauseAnimations();timer.pause();pause.innerHTML="▶"}}]]></script></svg>