<svg id="kanjivg" width="106" height="126" xmlns="http://www.w3.org/2000/svg" xmlns:xlink="http://www.w3.org/1999/xlink" xml:space="preserve" version="1.1" baseProfile="full"><defs><style type="text/css"><![CDATA[path.black { fill:none;stroke:black;stroke-width:5;stroke-linecap:round;stroke-linejoin:round; }path.grey { fill:none;stroke:#ddd;stroke-width:5;stroke-linecap:round;stroke-linejoin:round; }path.stroke { fill:none;stroke:black;stroke-width:5;stroke-linecap:round;stroke-linejoin:round; }rect { fill:none;stroke:#555;stroke-width:2;} text{font-size:16px;font-family:Segoe UI Symbol,Cambria Math,DejaVu Sans,Symbola,Quivira,STIX,Code2000;-webkit-touch-callout:none;cursor:pointer;-webkit-user-select:none;-khtml-user-select:none;-moz-user-select:none;-ms-user-select:none;user-select: none;} #reset { font-weight:bold; }]]></style><marker id="markerStart" markerWidth="8" markerHeight="8" style="overflow:visible;"><circle cx="0" cy="0" r="1.5" style="stroke:none;fill:red;fill-opacity:0.5;"/></marker><marker id="markerEnd" style="overflow:visible;"><circle cx="0" cy="0" r="0.8" style="stroke:none;fill:blue;fill-opacity:0.5;"><animate attributeName="opacity" from="1" to="0" dur="3s" repeatCount="indefinite" /></circle></marker></defs><rect x="4" y="4" width="100" height="100" /><path d="M26.47,32.59c0.41,0.97,0.83,1.46,0.83,2.75c0,1.3,2.88,36.81,2.88,37.46" class="grey" /><path d="M27.98,34.41c3.8-0.61,48.78-5.84,52.12-6.2C82,28,84.25,29,84.02,31.37c-0.35,3.65-2.93,21.58-3.92,36.91" class="grey" /><path d="M42.72,16.98c0.86,0.41,1.52,1.85,1.55,2.69c0.53,18.24,1.12,42.73,1.71,50.4" class="grey" /><path d="M64.81,13.25c0.86,0.42,1.6,1.85,1.54,2.69c-1.64,25.07-2.82,35.68-4.01,53.09" class="grey" /><path d="M28.59,52.34c12.66-1.34,21.66-2.09,35.15-2.72c1.46-0.07,2.87-0.23,4.23-0.34" class="grey" /><path d="M15.75,73.2c1.52,0.54,4.31,0.73,5.82,0.54c11.68-1.49,51.18-4.99,69.11-5.23c2.53-0.03,4.05,0.26,5.31,0.53" class="grey" /><path d="M41.25,77.14c0.06,0.46,0.12,1.19-0.11,1.85c-1.36,3.91-9.16,12.48-19.83,17.72" class="grey" /><path d="M66.25,79.37c7.78,2.85,20.1,11.71,22.04,16.13" class="grey" /><path d="M26.47,32.59c0.41,0.97,0.83,1.46,0.83,2.75c0,1.3,2.88,36.81,2.88,37.46" class="stroke" stroke-dasharray="150"><animate attributeName="stroke-dashoffset" from="150" to="0" dur="1.8s" begin="0s" fill="freeze" /></path><path d="M27.98,34.41c3.8-0.61,48.78-5.84,52.12-6.2C82,28,84.25,29,84.02,31.37c-0.35,3.65-2.93,21.58-3.92,36.91" class="stroke" stroke-dasharray="150"><set attributeName="opacity" to="0" dur="1.1s" /><animate attributeName="stroke-dashoffset" from="150" to="0" dur="1.8s" begin="1.1s" fill="freeze" /></path><path d="M42.72,16.98c0.86,0.41,1.52,1.85,1.55,2.69c0.53,18.24,1.12,42.73,1.71,50.4" class="stroke" stroke-dasharray="150"><set attributeName="opacity" to="0" dur="2.9000000000000004s" /><animate attributeName="stroke-dashoffset" from="150" to="0" dur="1.8s" begin="2.9000000000000004s" fill="freeze" /></path><path d="M64.81,13.25c0.86,0.42,1.6,1.85,1.54,2.69c-1.64,25.07-2.82,35.68-4.01,53.09" class="stroke" stroke-dasharray="150"><set attributeName="opacity" to="0" dur="4.2s" /><animate attributeName="stroke-dashoffset" from="150" to="0" dur="1.8s" begin="4.2s" fill="freeze" /></path><path d="M28.59,52.34c12.66-1.34,21.66-2.09,35.15-2.72c1.46-0.07,2.87-0.23,4.23-0.34" class="stroke" stroke-dasharray="150"><set attributeName="opacity" to="0" dur="5.6s" /><animate attributeName="stroke-dashoffset" from="150" to="0" dur="1.8s" begin="5.6s" fill="freeze" /></path><path d="M15.75,73.2c1.52,0.54,4.31,0.73,5.82,0.54c11.68-1.49,51.18-4.99,69.11-5.23c2.53-0.03,4.05,0.26,5.31,0.53" class="stroke" stroke-dasharray="150"><set attributeName="opacity" to="0" dur="6.6s" /><animate attributeName="stroke-dashoffset" from="150" to="0" dur="1.8s" begin="6.6s" fill="freeze" /></path><path d="M41.25,77.14c0.06,0.46,0.12,1.19-0.11,1.85c-1.36,3.91-9.16,12.48-19.83,17.72" class="stroke" stroke-dasharray="150"><set attributeName="opacity" to="0" dur="8.299999999999999s" /><animate attributeName="stroke-dashoffset" from="150" to="0" dur="1.8s" begin="8.299999999999999s" fill="freeze" /></path><path d="M66.25,79.37c7.78,2.85,20.1,11.71,22.04,16.13" class="stroke" stroke-dasharray="150"><set attributeName="opacity" to="0" dur="9.299999999999999s" /><animate attributeName="stroke-dashoffset" from="150" to="0" dur="1.8s" begin="9.299999999999999s" fill="freeze" /></path><text x="90" y="120" id="reset">⟳</text><text x="70" y="120" id="pause">◼</text><script type="text/javascript"><![CDATA[function RecurringTimer(e,t){var n,r,i=t;this.pause=function(){window.clearTimeout(n);i-=new Date-r};var s=function(){r=new Date;n=window.setTimeout(function(){i=t;s();e()},i)};this.clear=function(){window.clearTimeout(n);i=t;n=window.setTimeout(function(){i=t;s();e()},i)};this.resume=s;this.resume()}function invoketimer(){timer=new RecurringTimer(function(){svg.setCurrentTime(0)},11299)}var svg=document.getElementById("kanjivg");var pause=document.getElementById("pause");var reset=document.getElementById("reset");var timer;invoketimer();reset.onclick=function(){svg.setCurrentTime(0);timer.clear();svg.unpauseAnimations();pause.innerHTML = "◼";};pause.onclick=function(){if(svg.animationsPaused()){svg.unpauseAnimations();timer.resume();pause.innerHTML="◼"}else{svg.pauseAnimations();timer.pause();pause.innerHTML="▶"}}]]></script></svg>