<svg id="kanjivg" width="106" height="126" xmlns="http://www.w3.org/2000/svg" xmlns:xlink="http://www.w3.org/1999/xlink" xml:space="preserve" version="1.1" baseProfile="full"><defs><style type="text/css"><![CDATA[path.black { fill:none;stroke:black;stroke-width:5;stroke-linecap:round;stroke-linejoin:round; }path.grey { fill:none;stroke:#ddd;stroke-width:5;stroke-linecap:round;stroke-linejoin:round; }path.stroke { fill:none;stroke:black;stroke-width:5;stroke-linecap:round;stroke-linejoin:round; }rect { fill:none;stroke:#555;stroke-width:2;} text{font-size:16px;font-family:Segoe UI Symbol,Cambria Math,DejaVu Sans,Symbola,Quivira,STIX,Code2000;-webkit-touch-callout:none;cursor:pointer;-webkit-user-select:none;-khtml-user-select:none;-moz-user-select:none;-ms-user-select:none;user-select: none;} #reset { font-weight:bold; }]]></style><marker id="markerStart" markerWidth="8" markerHeight="8" style="overflow:visible;"><circle cx="0" cy="0" r="1.5" style="stroke:none;fill:red;fill-opacity:0.5;"/></marker><marker id="markerEnd" style="overflow:visible;"><circle cx="0" cy="0" r="0.8" style="stroke:none;fill:blue;fill-opacity:0.5;"><animate attributeName="opacity" from="1" to="0" dur="3s" repeatCount="indefinite" /></circle></marker></defs><rect x="4" y="4" width="100" height="100" /><path d="M28.45,30.19c0.53,1.1,0.88,2.87,0.71,4.85c-0.18,1.98,0.18,57.9,0.18,61.21" class="grey" /><path d="M29.15,32.39c6.71-0.88,43.5-4.1,44.82-4.41c2.82-0.66,4.9,1.61,4.59,2.65c-0.53,1.76-0.53,56.04-0.53,61.11c0,8.16-5.29,3.01-7.62,1.32" class="grey" /><path d="M51.92,13.12c0.12,0.29,1.77,1.52,1.77,3.39c0,12,0.14,33.5,0.14,49.36" class="grey" /><path d="M29.39,50.05C42.5,49,63.5,47.5,77.69,46.66" class="grey" /><path d="M11.88,70.23c1.52,0.54,4.31,0.66,5.82,0.54c18.8-1.52,58.3-5.02,75.11-5.73c2.53-0.11,4.05,0.26,5.31,0.53" class="grey" /><path d="M28.45,30.19c0.53,1.1,0.88,2.87,0.71,4.85c-0.18,1.98,0.18,57.9,0.18,61.21" class="stroke" stroke-dasharray="150"><animate attributeName="stroke-dashoffset" from="150" to="0" dur="1.8s" begin="0s" fill="freeze" /></path><path d="M29.15,32.39c6.71-0.88,43.5-4.1,44.82-4.41c2.82-0.66,4.9,1.61,4.59,2.65c-0.53,1.76-0.53,56.04-0.53,61.11c0,8.16-5.29,3.01-7.62,1.32" class="stroke" stroke-dasharray="150"><set attributeName="opacity" to="0" dur="1.5s" /><animate attributeName="stroke-dashoffset" from="150" to="0" dur="1.8s" begin="1.5s" fill="freeze" /></path><path d="M51.92,13.12c0.12,0.29,1.77,1.52,1.77,3.39c0,12,0.14,33.5,0.14,49.36" class="stroke" stroke-dasharray="150"><set attributeName="opacity" to="0" dur="3.5s" /><animate attributeName="stroke-dashoffset" from="150" to="0" dur="1.8s" begin="3.5s" fill="freeze" /></path><path d="M29.39,50.05C42.5,49,63.5,47.5,77.69,46.66" class="stroke" stroke-dasharray="150"><set attributeName="opacity" to="0" dur="4.8s" /><animate attributeName="stroke-dashoffset" from="150" to="0" dur="1.8s" begin="4.8s" fill="freeze" /></path><path d="M11.88,70.23c1.52,0.54,4.31,0.66,5.82,0.54c18.8-1.52,58.3-5.02,75.11-5.73c2.53-0.11,4.05,0.26,5.31,0.53" class="stroke" stroke-dasharray="150"><set attributeName="opacity" to="0" dur="6.0s" /><animate attributeName="stroke-dashoffset" from="150" to="0" dur="1.8s" begin="6.0s" fill="freeze" /></path><text x="90" y="120" id="reset">⟳</text><text x="70" y="120" id="pause">◼</text><script type="text/javascript"><![CDATA[function RecurringTimer(e,t){var n,r,i=t;this.pause=function(){window.clearTimeout(n);i-=new Date-r};var s=function(){r=new Date;n=window.setTimeout(function(){i=t;s();e()},i)};this.clear=function(){window.clearTimeout(n);i=t;n=window.setTimeout(function(){i=t;s();e()},i)};this.resume=s;this.resume()}function invoketimer(){timer=new RecurringTimer(function(){svg.setCurrentTime(0)},8700)}var svg=document.getElementById("kanjivg");var pause=document.getElementById("pause");var reset=document.getElementById("reset");var timer;invoketimer();reset.onclick=function(){svg.setCurrentTime(0);timer.clear();svg.unpauseAnimations();pause.innerHTML = "◼";};pause.onclick=function(){if(svg.animationsPaused()){svg.unpauseAnimations();timer.resume();pause.innerHTML="◼"}else{svg.pauseAnimations();timer.pause();pause.innerHTML="▶"}}]]></script></svg>