<svg id="kanjivg" width="106" height="126" xmlns="http://www.w3.org/2000/svg" xmlns:xlink="http://www.w3.org/1999/xlink" xml:space="preserve" version="1.1" baseProfile="full"><defs><style type="text/css"><![CDATA[path.black { fill:none;stroke:black;stroke-width:5;stroke-linecap:round;stroke-linejoin:round; }path.grey { fill:none;stroke:#ddd;stroke-width:5;stroke-linecap:round;stroke-linejoin:round; }path.stroke { fill:none;stroke:black;stroke-width:5;stroke-linecap:round;stroke-linejoin:round; }rect { fill:none;stroke:#555;stroke-width:2;} text{font-size:16px;font-family:Segoe UI Symbol,Cambria Math,DejaVu Sans,Symbola,Quivira,STIX,Code2000;-webkit-touch-callout:none;cursor:pointer;-webkit-user-select:none;-khtml-user-select:none;-moz-user-select:none;-ms-user-select:none;user-select: none;} #reset { font-weight:bold; }]]></style><marker id="markerStart" markerWidth="8" markerHeight="8" style="overflow:visible;"><circle cx="0" cy="0" r="1.5" style="stroke:none;fill:red;fill-opacity:0.5;"/></marker><marker id="markerEnd" style="overflow:visible;"><circle cx="0" cy="0" r="0.8" style="stroke:none;fill:blue;fill-opacity:0.5;"><animate attributeName="opacity" from="1" to="0" dur="3s" repeatCount="indefinite" /></circle></marker></defs><rect x="4" y="4" width="100" height="100" /><path d="M20.1,22.07c1.65,0.17,2.07,0.25,3.72,0.25c1.66,0,18.86-1.83,20.31-1.83" class="grey" /><path d="M42.45,11c0.77,0.88,1.4,1.91,1.4,2.5s0.13,14.27,0.13,15.89" class="grey" /><path d="M20.03,34.19c0.97,1.31,2.47,1.42,3.92,0.99c8.69-2.63,18.48-5.41,23.07-6.87" class="grey" /><path d="M82.8,11.33c0.15,0.17,0.21,0.65-0.14,0.93c-3.31,2.72-11.49,6.72-18.65,8.14" class="grey" /><path d="M58.89,11c0.59,0.34,1.38,1,1.38,1.68c0,0.46,0.2,11.92,0.2,13.31c0,3.51,4.28,4.72,13.85,4.72c3.15,0,10.83-0.07,12.8-1.08c1.96-1.01,2.16-2.48,2.36-3.49" class="grey" /><path d="M30.4,39.72c0.31,0.32,0.31,0.53,0.48,0.92c1.36,3.23,3.43,11.29,4.23,17.24" class="grey" /><path d="M32.26,40.82c10.84-0.33,36.12-2.32,44.19-3.09c2.3-0.22,2.37,1.71,2.15,2.59c-1.1,4.44-2.1,8.44-3.67,14.84" class="grey" /><path d="M52.87,39.73c0.48,0.42,1.21,1.18,1.21,2.23c0,4.22-0.22,7.84-0.22,12.53" class="grey" /><path d="M34.2,48.8c9.45-0.42,18.9-1.39,28.34-2.09c1.14-0.08,2.25-0.17,3.31-0.24" class="grey" /><path d="M35.26,56.45c9.69-0.82,32.7-2.42,40.19-2.71" class="grey" /><path d="M28.35,70.99c1.01,0.27,2.86,0.29,3.86,0.27c10.05-0.26,37.33-3.2,46.9-3.2c1.68,0,2.68,0.13,3.52,0.26" class="grey" /><path d="M42.3,61.59c0.75,0.37,1.33,1.66,1.35,2.42c0.1,4.24,0.6,11.99,0.76,17.63" class="grey" /><path d="M65.04,60.61c0.87,0.42,1.64,1.88,1.57,2.73C66.25,68,65.25,76.5,64.65,80.97" class="grey" /><path d="M19.23,83.09c1.5,0.28,4.26,0.36,5.75,0.28c9.81-0.52,50.75-3.52,63.29-3.77c2.5-0.05,4,0.13,5.25,0.28" class="grey" /><path d="M43.66,86.68c0.05,0.33,0.1,0.84-0.1,1.3c-1.16,2.75-8.76,8.05-16.88,12.47" class="grey" /><path d="M66.09,86.7c6.38,2.3,16.48,9.44,18.08,13.02" class="grey" /><path d="M20.1,22.07c1.65,0.17,2.07,0.25,3.72,0.25c1.66,0,18.86-1.83,20.31-1.83" class="stroke" stroke-dasharray="150"><animate attributeName="stroke-dashoffset" from="150" to="0" dur="1.8s" begin="0s" fill="freeze" /></path><path d="M42.45,11c0.77,0.88,1.4,1.91,1.4,2.5s0.13,14.27,0.13,15.89" class="stroke" stroke-dasharray="150"><set attributeName="opacity" to="0" dur="1.0s" /><animate attributeName="stroke-dashoffset" from="150" to="0" dur="1.8s" begin="1.0s" fill="freeze" /></path><path d="M20.03,34.19c0.97,1.31,2.47,1.42,3.92,0.99c8.69-2.63,18.48-5.41,23.07-6.87" class="stroke" stroke-dasharray="150"><set attributeName="opacity" to="0" dur="1.9s" /><animate attributeName="stroke-dashoffset" from="150" to="0" dur="1.8s" begin="1.9s" fill="freeze" /></path><path d="M82.8,11.33c0.15,0.17,0.21,0.65-0.14,0.93c-3.31,2.72-11.49,6.72-18.65,8.14" class="stroke" stroke-dasharray="150"><set attributeName="opacity" to="0" dur="2.9s" /><animate attributeName="stroke-dashoffset" from="150" to="0" dur="1.8s" begin="2.9s" fill="freeze" /></path><path d="M58.89,11c0.59,0.34,1.38,1,1.38,1.68c0,0.46,0.2,11.92,0.2,13.31c0,3.51,4.28,4.72,13.85,4.72c3.15,0,10.83-0.07,12.8-1.08c1.96-1.01,2.16-2.48,2.36-3.49" class="stroke" stroke-dasharray="150"><set attributeName="opacity" to="0" dur="3.9s" /><animate attributeName="stroke-dashoffset" from="150" to="0" dur="1.8s" begin="3.9s" fill="freeze" /></path><path d="M30.4,39.72c0.31,0.32,0.31,0.53,0.48,0.92c1.36,3.23,3.43,11.29,4.23,17.24" class="stroke" stroke-dasharray="150"><set attributeName="opacity" to="0" dur="5.1s" /><animate attributeName="stroke-dashoffset" from="150" to="0" dur="1.8s" begin="5.1s" fill="freeze" /></path><path d="M32.26,40.82c10.84-0.33,36.12-2.32,44.19-3.09c2.3-0.22,2.37,1.71,2.15,2.59c-1.1,4.44-2.1,8.44-3.67,14.84" class="stroke" stroke-dasharray="150"><set attributeName="opacity" to="0" dur="6.0s" /><animate attributeName="stroke-dashoffset" from="150" to="0" dur="1.8s" begin="6.0s" fill="freeze" /></path><path d="M52.87,39.73c0.48,0.42,1.21,1.18,1.21,2.23c0,4.22-0.22,7.84-0.22,12.53" class="stroke" stroke-dasharray="150"><set attributeName="opacity" to="0" dur="7.5s" /><animate attributeName="stroke-dashoffset" from="150" to="0" dur="1.8s" begin="7.5s" fill="freeze" /></path><path d="M34.2,48.8c9.45-0.42,18.9-1.39,28.34-2.09c1.14-0.08,2.25-0.17,3.31-0.24" class="stroke" stroke-dasharray="150"><set attributeName="opacity" to="0" dur="8.4s" /><animate attributeName="stroke-dashoffset" from="150" to="0" dur="1.8s" begin="8.4s" fill="freeze" /></path><path d="M35.26,56.45c9.69-0.82,32.7-2.42,40.19-2.71" class="stroke" stroke-dasharray="150"><set attributeName="opacity" to="0" dur="9.4s" /><animate attributeName="stroke-dashoffset" from="150" to="0" dur="1.8s" begin="9.4s" fill="freeze" /></path><path d="M28.35,70.99c1.01,0.27,2.86,0.29,3.86,0.27c10.05-0.26,37.33-3.2,46.9-3.2c1.68,0,2.68,0.13,3.52,0.26" class="stroke" stroke-dasharray="150"><set attributeName="opacity" to="0" dur="10.5s" /><animate attributeName="stroke-dashoffset" from="150" to="0" dur="1.8s" begin="10.5s" fill="freeze" /></path><path d="M42.3,61.59c0.75,0.37,1.33,1.66,1.35,2.42c0.1,4.24,0.6,11.99,0.76,17.63" class="stroke" stroke-dasharray="150"><set attributeName="opacity" to="0" dur="11.8s" /><animate attributeName="stroke-dashoffset" from="150" to="0" dur="1.8s" begin="11.8s" fill="freeze" /></path><path d="M65.04,60.61c0.87,0.42,1.64,1.88,1.57,2.73C66.25,68,65.25,76.5,64.65,80.97" class="stroke" stroke-dasharray="150"><set attributeName="opacity" to="0" dur="12.8s" /><animate attributeName="stroke-dashoffset" from="150" to="0" dur="1.8s" begin="12.8s" fill="freeze" /></path><path d="M19.23,83.09c1.5,0.28,4.26,0.36,5.75,0.28c9.81-0.52,50.75-3.52,63.29-3.77c2.5-0.05,4,0.13,5.25,0.28" class="stroke" stroke-dasharray="150"><set attributeName="opacity" to="0" dur="13.8s" /><animate attributeName="stroke-dashoffset" from="150" to="0" dur="1.8s" begin="13.8s" fill="freeze" /></path><path d="M43.66,86.68c0.05,0.33,0.1,0.84-0.1,1.3c-1.16,2.75-8.76,8.05-16.88,12.47" class="stroke" stroke-dasharray="150"><set attributeName="opacity" to="0" dur="15.5s" /><animate attributeName="stroke-dashoffset" from="150" to="0" dur="1.8s" begin="15.5s" fill="freeze" /></path><path d="M66.09,86.7c6.38,2.3,16.48,9.44,18.08,13.02" class="stroke" stroke-dasharray="150"><set attributeName="opacity" to="0" dur="16.5s" /><animate attributeName="stroke-dashoffset" from="150" to="0" dur="1.8s" begin="16.5s" fill="freeze" /></path><text x="90" y="120" id="reset">⟳</text><text x="70" y="120" id="pause">◼</text><script type="text/javascript"><![CDATA[function RecurringTimer(e,t){var n,r,i=t;this.pause=function(){window.clearTimeout(n);i-=new Date-r};var s=function(){r=new Date;n=window.setTimeout(function(){i=t;s();e()},i)};this.clear=function(){window.clearTimeout(n);i=t;n=window.setTimeout(function(){i=t;s();e()},i)};this.resume=s;this.resume()}function invoketimer(){timer=new RecurringTimer(function(){svg.setCurrentTime(0)},18500)}var svg=document.getElementById("kanjivg");var pause=document.getElementById("pause");var reset=document.getElementById("reset");var timer;invoketimer();reset.onclick=function(){svg.setCurrentTime(0);timer.clear();svg.unpauseAnimations();pause.innerHTML = "◼";};pause.onclick=function(){if(svg.animationsPaused()){svg.unpauseAnimations();timer.resume();pause.innerHTML="◼"}else{svg.pauseAnimations();timer.pause();pause.innerHTML="▶"}}]]></script></svg>