<svg id="kanjivg" width="106" height="126" xmlns="http://www.w3.org/2000/svg" xmlns:xlink="http://www.w3.org/1999/xlink" xml:space="preserve" version="1.1" baseProfile="full"><defs><style type="text/css"><![CDATA[path.black { fill:none;stroke:black;stroke-width:5;stroke-linecap:round;stroke-linejoin:round; }path.grey { fill:none;stroke:#ddd;stroke-width:5;stroke-linecap:round;stroke-linejoin:round; }path.stroke { fill:none;stroke:black;stroke-width:5;stroke-linecap:round;stroke-linejoin:round; }rect { fill:none;stroke:#555;stroke-width:2;} text{font-size:16px;font-family:Segoe UI Symbol,Cambria Math,DejaVu Sans,Symbola,Quivira,STIX,Code2000;-webkit-touch-callout:none;cursor:pointer;-webkit-user-select:none;-khtml-user-select:none;-moz-user-select:none;-ms-user-select:none;user-select: none;} #reset { font-weight:bold; }]]></style><marker id="markerStart" markerWidth="8" markerHeight="8" style="overflow:visible;"><circle cx="0" cy="0" r="1.5" style="stroke:none;fill:red;fill-opacity:0.5;"/></marker><marker id="markerEnd" style="overflow:visible;"><circle cx="0" cy="0" r="0.8" style="stroke:none;fill:blue;fill-opacity:0.5;"><animate attributeName="opacity" from="1" to="0" dur="3s" repeatCount="indefinite" /></circle></marker></defs><rect x="4" y="4" width="100" height="100" /><path d="M25.71,20.26c0.58,0.64,1.03,1.31,1.17,1.87c1.12,4.62,3.24,15.58,3.9,24.08" class="grey" /><path d="M27.67,21.51c10.47-1.15,47-3.02,53.63-3.47c2.43-0.17,3.34,1.17,3.21,2.41c-0.49,4.53-1.95,15.24-3.48,22.7" class="grey" /><path d="M52.36,8.5c1.16,0.8,1.85,1.95,1.85,3c0.04,10.36,0.21,27.82,0.21,30.52" class="grey" /><path d="M28.75,31.83C31.64,31.6,80.98,29,83.37,29" class="grey" /><path d="M30.75,44.06c7.31-0.33,41.54-3.02,50.36-3.14" class="grey" /><path d="M36.7,53.72c0.41,0.76,0.68,1.98,0.54,3.34c-0.14,1.37,0.14,39.91,0.14,42.19" class="grey" /><path d="M37.24,55.24c5.13-0.61,33.31-2.83,34.32-3.04c2.16-0.46,3.75,1.11,3.51,1.82c-0.41,1.22-0.41,38.62-0.41,42.12c0,5.62-5.55,0.08-7.33-1.09" class="grey" /><path d="M44.25,67.14c0.43,0.17,1.21,0.21,1.64,0.17c2.72-0.29,17.48-1.89,20.12-1.7c0.71,0.05,1.14,0.08,1.5,0.16" class="grey" /><path d="M44.25,79.14c0.43,0.17,1.21,0.21,1.64,0.17c2.72-0.29,17.48-1.89,20.12-1.7c0.71,0.05,1.14,0.08,1.5,0.16" class="grey" /><path d="M25.71,20.26c0.58,0.64,1.03,1.31,1.17,1.87c1.12,4.62,3.24,15.58,3.9,24.08" class="stroke" stroke-dasharray="150"><animate attributeName="stroke-dashoffset" from="150" to="0" dur="1.8s" begin="0s" fill="freeze" /></path><path d="M27.67,21.51c10.47-1.15,47-3.02,53.63-3.47c2.43-0.17,3.34,1.17,3.21,2.41c-0.49,4.53-1.95,15.24-3.48,22.7" class="stroke" stroke-dasharray="150"><set attributeName="opacity" to="0" dur="1.0s" /><animate attributeName="stroke-dashoffset" from="150" to="0" dur="1.8s" begin="1.0s" fill="freeze" /></path><path d="M52.36,8.5c1.16,0.8,1.85,1.95,1.85,3c0.04,10.36,0.21,27.82,0.21,30.52" class="stroke" stroke-dasharray="150"><set attributeName="opacity" to="0" dur="2.7s" /><animate attributeName="stroke-dashoffset" from="150" to="0" dur="1.8s" begin="2.7s" fill="freeze" /></path><path d="M28.75,31.83C31.64,31.6,80.98,29,83.37,29" class="stroke" stroke-dasharray="150"><set attributeName="opacity" to="0" dur="3.7s" /><animate attributeName="stroke-dashoffset" from="150" to="0" dur="1.8s" begin="3.7s" fill="freeze" /></path><path d="M30.75,44.06c7.31-0.33,41.54-3.02,50.36-3.14" class="stroke" stroke-dasharray="150"><set attributeName="opacity" to="0" dur="5.0s" /><animate attributeName="stroke-dashoffset" from="150" to="0" dur="1.8s" begin="5.0s" fill="freeze" /></path><path d="M36.7,53.72c0.41,0.76,0.68,1.98,0.54,3.34c-0.14,1.37,0.14,39.91,0.14,42.19" class="stroke" stroke-dasharray="150"><set attributeName="opacity" to="0" dur="6.3s" /><animate attributeName="stroke-dashoffset" from="150" to="0" dur="1.8s" begin="6.3s" fill="freeze" /></path><path d="M37.24,55.24c5.13-0.61,33.31-2.83,34.32-3.04c2.16-0.46,3.75,1.11,3.51,1.82c-0.41,1.22-0.41,38.62-0.41,42.12c0,5.62-5.55,0.08-7.33-1.09" class="stroke" stroke-dasharray="150"><set attributeName="opacity" to="0" dur="7.5s" /><animate attributeName="stroke-dashoffset" from="150" to="0" dur="1.8s" begin="7.5s" fill="freeze" /></path><path d="M44.25,67.14c0.43,0.17,1.21,0.21,1.64,0.17c2.72-0.29,17.48-1.89,20.12-1.7c0.71,0.05,1.14,0.08,1.5,0.16" class="stroke" stroke-dasharray="150"><set attributeName="opacity" to="0" dur="9.3s" /><animate attributeName="stroke-dashoffset" from="150" to="0" dur="1.8s" begin="9.3s" fill="freeze" /></path><path d="M44.25,79.14c0.43,0.17,1.21,0.21,1.64,0.17c2.72-0.29,17.48-1.89,20.12-1.7c0.71,0.05,1.14,0.08,1.5,0.16" class="stroke" stroke-dasharray="150"><set attributeName="opacity" to="0" dur="10.3s" /><animate attributeName="stroke-dashoffset" from="150" to="0" dur="1.8s" begin="10.3s" fill="freeze" /></path><text x="90" y="120" id="reset">⟳</text><text x="70" y="120" id="pause">◼</text><script type="text/javascript"><![CDATA[function RecurringTimer(e,t){var n,r,i=t;this.pause=function(){window.clearTimeout(n);i-=new Date-r};var s=function(){r=new Date;n=window.setTimeout(function(){i=t;s();e()},i)};this.clear=function(){window.clearTimeout(n);i=t;n=window.setTimeout(function(){i=t;s();e()},i)};this.resume=s;this.resume()}function invoketimer(){timer=new RecurringTimer(function(){svg.setCurrentTime(0)},12300)}var svg=document.getElementById("kanjivg");var pause=document.getElementById("pause");var reset=document.getElementById("reset");var timer;invoketimer();reset.onclick=function(){svg.setCurrentTime(0);timer.clear();svg.unpauseAnimations();pause.innerHTML = "◼";};pause.onclick=function(){if(svg.animationsPaused()){svg.unpauseAnimations();timer.resume();pause.innerHTML="◼"}else{svg.pauseAnimations();timer.pause();pause.innerHTML="▶"}}]]></script></svg>