<svg id="kanjivg" width="106" height="126" xmlns="http://www.w3.org/2000/svg" xmlns:xlink="http://www.w3.org/1999/xlink" xml:space="preserve" version="1.1" baseProfile="full"><defs><style type="text/css"><![CDATA[path.black { fill:none;stroke:black;stroke-width:5;stroke-linecap:round;stroke-linejoin:round; }path.grey { fill:none;stroke:#ddd;stroke-width:5;stroke-linecap:round;stroke-linejoin:round; }path.stroke { fill:none;stroke:black;stroke-width:5;stroke-linecap:round;stroke-linejoin:round; }rect { fill:none;stroke:#555;stroke-width:2;} text{font-size:16px;font-family:Segoe UI Symbol,Cambria Math,DejaVu Sans,Symbola,Quivira,STIX,Code2000;-webkit-touch-callout:none;cursor:pointer;-webkit-user-select:none;-khtml-user-select:none;-moz-user-select:none;-ms-user-select:none;user-select: none;} #reset { font-weight:bold; }]]></style><marker id="markerStart" markerWidth="8" markerHeight="8" style="overflow:visible;"><circle cx="0" cy="0" r="1.5" style="stroke:none;fill:red;fill-opacity:0.5;"/></marker><marker id="markerEnd" style="overflow:visible;"><circle cx="0" cy="0" r="0.8" style="stroke:none;fill:blue;fill-opacity:0.5;"><animate attributeName="opacity" from="1" to="0" dur="3s" repeatCount="indefinite" /></circle></marker></defs><rect x="4" y="4" width="100" height="100" /><path d="M19,16.62c-0.12,4.66-2.98,16.85-4,19.62" class="grey" /><path d="M20.47,19.44c12.4-0.82,45.24-4.46,64.51-4.69c10.4-0.13,3.52,6.12-0.71,9.87" class="grey" /><path d="M40,37c8-1,16.75-2.25,24.5-3.5c2.47-0.4,4-0.25,5.25,0" class="grey" /><path d="M39.75,25.25c1,1.5,1.16,3.47,0.75,5.82c-1,5.68-2.62,10.93-4.25,17.4c-1.09,4.33-0.52,4.94,4.25,3.92c7.62-1.63,16.5-3.26,25.5-4.06c3-0.27,4.91,1.94,4.5,5.1c-2,15.33-6.25,30.58-11.25,37.54c-5.06,7.05-8.35,3.92-14-0.68" class="grey" /><path d="M13.25,68.45c4.88,1.05,8.87,0.83,13,0.31c16.25-2.01,38.75-5.44,55.49-5.7c4.38-0.07,8.28,0.18,12.01,0.98" class="grey" /><path d="M19,16.62c-0.12,4.66-2.98,16.85-4,19.62" class="stroke" stroke-dasharray="150"><animate attributeName="stroke-dashoffset" from="150" to="0" dur="1.8s" begin="0s" fill="freeze" /></path><path d="M20.47,19.44c12.4-0.82,45.24-4.46,64.51-4.69c10.4-0.13,3.52,6.12-0.71,9.87" class="stroke" stroke-dasharray="150"><set attributeName="opacity" to="0" dur="1.0s" /><animate attributeName="stroke-dashoffset" from="150" to="0" dur="1.8s" begin="1.0s" fill="freeze" /></path><path d="M40,37c8-1,16.75-2.25,24.5-3.5c2.47-0.4,4-0.25,5.25,0" class="stroke" stroke-dasharray="150"><set attributeName="opacity" to="0" dur="2.7s" /><animate attributeName="stroke-dashoffset" from="150" to="0" dur="1.8s" begin="2.7s" fill="freeze" /></path><path d="M39.75,25.25c1,1.5,1.16,3.47,0.75,5.82c-1,5.68-2.62,10.93-4.25,17.4c-1.09,4.33-0.52,4.94,4.25,3.92c7.62-1.63,16.5-3.26,25.5-4.06c3-0.27,4.91,1.94,4.5,5.1c-2,15.33-6.25,30.58-11.25,37.54c-5.06,7.05-8.35,3.92-14-0.68" class="stroke" stroke-dasharray="150"><set attributeName="opacity" to="0" dur="3.7s" /><animate attributeName="stroke-dashoffset" from="150" to="0" dur="1.8s" begin="3.7s" fill="freeze" /></path><path d="M13.25,68.45c4.88,1.05,8.87,0.83,13,0.31c16.25-2.01,38.75-5.44,55.49-5.7c4.38-0.07,8.28,0.18,12.01,0.98" class="stroke" stroke-dasharray="150"><set attributeName="opacity" to="0" dur="5.7s" /><animate attributeName="stroke-dashoffset" from="150" to="0" dur="1.8s" begin="5.7s" fill="freeze" /></path><text x="90" y="120" id="reset">⟳</text><text x="70" y="120" id="pause">◼</text><script type="text/javascript"><![CDATA[function RecurringTimer(e,t){var n,r,i=t;this.pause=function(){window.clearTimeout(n);i-=new Date-r};var s=function(){r=new Date;n=window.setTimeout(function(){i=t;s();e()},i)};this.clear=function(){window.clearTimeout(n);i=t;n=window.setTimeout(function(){i=t;s();e()},i)};this.resume=s;this.resume()}function invoketimer(){timer=new RecurringTimer(function(){svg.setCurrentTime(0)},8400)}var svg=document.getElementById("kanjivg");var pause=document.getElementById("pause");var reset=document.getElementById("reset");var timer;invoketimer();reset.onclick=function(){svg.setCurrentTime(0);timer.clear();svg.unpauseAnimations();pause.innerHTML = "◼";};pause.onclick=function(){if(svg.animationsPaused()){svg.unpauseAnimations();timer.resume();pause.innerHTML="◼"}else{svg.pauseAnimations();timer.pause();pause.innerHTML="▶"}}]]></script></svg>