<svg id="kanjivg" width="106" height="126" xmlns="http://www.w3.org/2000/svg" xmlns:xlink="http://www.w3.org/1999/xlink" xml:space="preserve" version="1.1" baseProfile="full"><defs><style type="text/css"><![CDATA[path.black { fill:none;stroke:black;stroke-width:5;stroke-linecap:round;stroke-linejoin:round; }path.grey { fill:none;stroke:#ddd;stroke-width:5;stroke-linecap:round;stroke-linejoin:round; }path.stroke { fill:none;stroke:black;stroke-width:5;stroke-linecap:round;stroke-linejoin:round; }rect { fill:none;stroke:#555;stroke-width:2;} text{font-size:16px;font-family:Segoe UI Symbol,Cambria Math,DejaVu Sans,Symbola,Quivira,STIX,Code2000;-webkit-touch-callout:none;cursor:pointer;-webkit-user-select:none;-khtml-user-select:none;-moz-user-select:none;-ms-user-select:none;user-select: none;} #reset { font-weight:bold; }]]></style><marker id="markerStart" markerWidth="8" markerHeight="8" style="overflow:visible;"><circle cx="0" cy="0" r="1.5" style="stroke:none;fill:red;fill-opacity:0.5;"/></marker><marker id="markerEnd" style="overflow:visible;"><circle cx="0" cy="0" r="0.8" style="stroke:none;fill:blue;fill-opacity:0.5;"><animate attributeName="opacity" from="1" to="0" dur="3s" repeatCount="indefinite" /></circle></marker></defs><rect x="4" y="4" width="100" height="100" /><path d="M24.49,15.12c0.87,0.93,1.54,2.37,1.75,3.6c1.26,7.16,2.01,12.41,3.23,20.75c0.24,1.66,0.41,3.27,0.61,4.74" class="grey" /><path d="M26.74,17.25C43.38,15.62,64,14,79.28,13.29c3.35-0.16,5.31,1.02,4.74,4.35c-0.74,4.29-2.21,12-3.64,18.64c-0.4,1.85-0.79,3.62-1.16,5.21" class="grey" /><path d="M29.02,28.98c4.85-0.46,45.48-3.11,52.23-3.07" class="grey" /><path d="M31.1,41.92c13.4-0.92,31.4-2.05,47.36-2.71" class="grey" /><path d="M32.06,51.84c1.12,1.12,1.21,2.56,1.21,3.94c0,1.04,0.02,24.59,0.03,36.22c0,3.82,0.01,6.4,0.01,6.57" class="grey" /><path d="M34.05,53.18c3.93-0.17,34.74-2.44,38.32-2.65c2.98-0.17,5.08,0.97,5.08,4.25c0,4.38,0.03,22.35-0.05,36c-0.01,1.84-0.02,3.59-0.02,5.22" class="grey" /><path d="M34.6,66.51c9.65-0.89,35.37-2.95,41.67-2.95" class="grey" /><path d="M34.42,80.21c11.2-0.96,29.33-2.46,41.64-2.82" class="grey" /><path d="M34.37,95.23c10.13-0.73,30.63-2.1,41.75-2.3" class="grey" /><path d="M24.49,15.12c0.87,0.93,1.54,2.37,1.75,3.6c1.26,7.16,2.01,12.41,3.23,20.75c0.24,1.66,0.41,3.27,0.61,4.74" class="stroke" stroke-dasharray="150"><animate attributeName="stroke-dashoffset" from="150" to="0" dur="1.8s" begin="0s" fill="freeze" /></path><path d="M26.74,17.25C43.38,15.62,64,14,79.28,13.29c3.35-0.16,5.31,1.02,4.74,4.35c-0.74,4.29-2.21,12-3.64,18.64c-0.4,1.85-0.79,3.62-1.16,5.21" class="stroke" stroke-dasharray="150"><set attributeName="opacity" to="0" dur="1.0s" /><animate attributeName="stroke-dashoffset" from="150" to="0" dur="1.8s" begin="1.0s" fill="freeze" /></path><path d="M29.02,28.98c4.85-0.46,45.48-3.11,52.23-3.07" class="stroke" stroke-dasharray="150"><set attributeName="opacity" to="0" dur="2.7s" /><animate attributeName="stroke-dashoffset" from="150" to="0" dur="1.8s" begin="2.7s" fill="freeze" /></path><path d="M31.1,41.92c13.4-0.92,31.4-2.05,47.36-2.71" class="stroke" stroke-dasharray="150"><set attributeName="opacity" to="0" dur="4.0s" /><animate attributeName="stroke-dashoffset" from="150" to="0" dur="1.8s" begin="4.0s" fill="freeze" /></path><path d="M32.06,51.84c1.12,1.12,1.21,2.56,1.21,3.94c0,1.04,0.02,24.59,0.03,36.22c0,3.82,0.01,6.4,0.01,6.57" class="stroke" stroke-dasharray="150"><set attributeName="opacity" to="0" dur="5.2s" /><animate attributeName="stroke-dashoffset" from="150" to="0" dur="1.8s" begin="5.2s" fill="freeze" /></path><path d="M34.05,53.18c3.93-0.17,34.74-2.44,38.32-2.65c2.98-0.17,5.08,0.97,5.08,4.25c0,4.38,0.03,22.35-0.05,36c-0.01,1.84-0.02,3.59-0.02,5.22" class="stroke" stroke-dasharray="150"><set attributeName="opacity" to="0" dur="6.4s" /><animate attributeName="stroke-dashoffset" from="150" to="0" dur="1.8s" begin="6.4s" fill="freeze" /></path><path d="M34.6,66.51c9.65-0.89,35.37-2.95,41.67-2.95" class="stroke" stroke-dasharray="150"><set attributeName="opacity" to="0" dur="8.1s" /><animate attributeName="stroke-dashoffset" from="150" to="0" dur="1.8s" begin="8.1s" fill="freeze" /></path><path d="M34.42,80.21c11.2-0.96,29.33-2.46,41.64-2.82" class="stroke" stroke-dasharray="150"><set attributeName="opacity" to="0" dur="9.2s" /><animate attributeName="stroke-dashoffset" from="150" to="0" dur="1.8s" begin="9.2s" fill="freeze" /></path><path d="M34.37,95.23c10.13-0.73,30.63-2.1,41.75-2.3" class="stroke" stroke-dasharray="150"><set attributeName="opacity" to="0" dur="10.299999999999999s" /><animate attributeName="stroke-dashoffset" from="150" to="0" dur="1.8s" begin="10.299999999999999s" fill="freeze" /></path><text x="90" y="120" id="reset">⟳</text><text x="70" y="120" id="pause">◼</text><script type="text/javascript"><![CDATA[function RecurringTimer(e,t){var n,r,i=t;this.pause=function(){window.clearTimeout(n);i-=new Date-r};var s=function(){r=new Date;n=window.setTimeout(function(){i=t;s();e()},i)};this.clear=function(){window.clearTimeout(n);i=t;n=window.setTimeout(function(){i=t;s();e()},i)};this.resume=s;this.resume()}function invoketimer(){timer=new RecurringTimer(function(){svg.setCurrentTime(0)},12399)}var svg=document.getElementById("kanjivg");var pause=document.getElementById("pause");var reset=document.getElementById("reset");var timer;invoketimer();reset.onclick=function(){svg.setCurrentTime(0);timer.clear();svg.unpauseAnimations();pause.innerHTML = "◼";};pause.onclick=function(){if(svg.animationsPaused()){svg.unpauseAnimations();timer.resume();pause.innerHTML="◼"}else{svg.pauseAnimations();timer.pause();pause.innerHTML="▶"}}]]></script></svg>