<svg id="kanjivg" width="106" height="126" xmlns="http://www.w3.org/2000/svg" xmlns:xlink="http://www.w3.org/1999/xlink" xml:space="preserve" version="1.1" baseProfile="full"><defs><style type="text/css"><![CDATA[path.black { fill:none;stroke:black;stroke-width:5;stroke-linecap:round;stroke-linejoin:round; }path.grey { fill:none;stroke:#ddd;stroke-width:5;stroke-linecap:round;stroke-linejoin:round; }path.stroke { fill:none;stroke:black;stroke-width:5;stroke-linecap:round;stroke-linejoin:round; }rect { fill:none;stroke:#555;stroke-width:2;} text{font-size:16px;font-family:Segoe UI Symbol,Cambria Math,DejaVu Sans,Symbola,Quivira,STIX,Code2000;-webkit-touch-callout:none;cursor:pointer;-webkit-user-select:none;-khtml-user-select:none;-moz-user-select:none;-ms-user-select:none;user-select: none;} #reset { font-weight:bold; }]]></style><marker id="markerStart" markerWidth="8" markerHeight="8" style="overflow:visible;"><circle cx="0" cy="0" r="1.5" style="stroke:none;fill:red;fill-opacity:0.5;"/></marker><marker id="markerEnd" style="overflow:visible;"><circle cx="0" cy="0" r="0.8" style="stroke:none;fill:blue;fill-opacity:0.5;"><animate attributeName="opacity" from="1" to="0" dur="3s" repeatCount="indefinite" /></circle></marker></defs><rect x="4" y="4" width="100" height="100" /><path d="M29.46,11.22c0.84,0.36,1.52,2.38,1.61,3.08C31.75,19.5,33,27,33.86,32.75" class="grey" /><path d="M30.74,12.98c8.26-0.73,42.31-2.45,43.32-2.75c2.16-0.64,3.75,1.55,3.51,2.55c-0.82,3.47-2.82,11.72-4.82,17.72" class="grey" /><path d="M40.25,20.73c0.49,0.19,1.38,0.19,1.87,0.19c4.12,0,19.92-2.16,22.93-1.94c0.81,0.06,1.3,0.09,1.71,0.18" class="grey" /><path d="M39,29.77c0.51,0.2,1.44,0.2,1.96,0.2c4.29,0.03,22.09-1.67,24.01-1.53c0.85,0.06,1.36,0.09,1.79,0.19" class="grey" /><path d="M45.88,35.4c0.07,0.57,0.15,1.47-0.14,2.29C44.04,42.52,34.32,53.12,21,59.61" class="grey" /><path d="M43.83,43.16c2.69,0,15.67-1.91,20.67-3.16c2.36-0.59,3.5,0,2.02,2.18C63.19,47.08,60.75,50,57,57.03" class="grey" /><path d="M30,58.59c0.46,0.43,0.93,0.79,1.13,1.33c1.59,4.27,2.1,9.45,3.19,17.12" class="grey" /><path d="M32.86,60.06c11.23-1.79,39.61-3.14,45.4-3.75c2.12-0.22,3.41,2.23,3.09,3.53C80.25,64.25,79,68,76.96,72.81" class="grey" /><path d="M35.23,75.67c4.54-0.46,39.13-2.48,44.13-2.71" class="grey" /><path d="M54.46,61.1c0.29,0.65,0.52,2.85,0.28,4.24C53,75.5,41.75,95.75,16.42,101.17" class="grey" /><path d="M55.49,75.96c0.78,0.8,1.4,1.74,1.45,2.96c0.21,5.48-0.06,7.97-0.06,11.7c0,8.7,9.38,7.72,18.62,7.72c16.76,0,19.4-1.33,19.4-9.11" class="grey" /><path d="M29.46,11.22c0.84,0.36,1.52,2.38,1.61,3.08C31.75,19.5,33,27,33.86,32.75" class="stroke" stroke-dasharray="150"><animate attributeName="stroke-dashoffset" from="150" to="0" dur="1.8s" begin="0s" fill="freeze" /></path><path d="M30.74,12.98c8.26-0.73,42.31-2.45,43.32-2.75c2.16-0.64,3.75,1.55,3.51,2.55c-0.82,3.47-2.82,11.72-4.82,17.72" class="stroke" stroke-dasharray="150"><set attributeName="opacity" to="0" dur="1.0s" /><animate attributeName="stroke-dashoffset" from="150" to="0" dur="1.8s" begin="1.0s" fill="freeze" /></path><path d="M40.25,20.73c0.49,0.19,1.38,0.19,1.87,0.19c4.12,0,19.92-2.16,22.93-1.94c0.81,0.06,1.3,0.09,1.71,0.18" class="stroke" stroke-dasharray="150"><set attributeName="opacity" to="0" dur="2.5s" /><animate attributeName="stroke-dashoffset" from="150" to="0" dur="1.8s" begin="2.5s" fill="freeze" /></path><path d="M39,29.77c0.51,0.2,1.44,0.2,1.96,0.2c4.29,0.03,22.09-1.67,24.01-1.53c0.85,0.06,1.36,0.09,1.79,0.19" class="stroke" stroke-dasharray="150"><set attributeName="opacity" to="0" dur="3.5s" /><animate attributeName="stroke-dashoffset" from="150" to="0" dur="1.8s" begin="3.5s" fill="freeze" /></path><path d="M45.88,35.4c0.07,0.57,0.15,1.47-0.14,2.29C44.04,42.52,34.32,53.12,21,59.61" class="stroke" stroke-dasharray="150"><set attributeName="opacity" to="0" dur="4.5s" /><animate attributeName="stroke-dashoffset" from="150" to="0" dur="1.8s" begin="4.5s" fill="freeze" /></path><path d="M43.83,43.16c2.69,0,15.67-1.91,20.67-3.16c2.36-0.59,3.5,0,2.02,2.18C63.19,47.08,60.75,50,57,57.03" class="stroke" stroke-dasharray="150"><set attributeName="opacity" to="0" dur="5.5s" /><animate attributeName="stroke-dashoffset" from="150" to="0" dur="1.8s" begin="5.5s" fill="freeze" /></path><path d="M30,58.59c0.46,0.43,0.93,0.79,1.13,1.33c1.59,4.27,2.1,9.45,3.19,17.12" class="stroke" stroke-dasharray="150"><set attributeName="opacity" to="0" dur="6.6s" /><animate attributeName="stroke-dashoffset" from="150" to="0" dur="1.8s" begin="6.6s" fill="freeze" /></path><path d="M32.86,60.06c11.23-1.79,39.61-3.14,45.4-3.75c2.12-0.22,3.41,2.23,3.09,3.53C80.25,64.25,79,68,76.96,72.81" class="stroke" stroke-dasharray="150"><set attributeName="opacity" to="0" dur="7.5s" /><animate attributeName="stroke-dashoffset" from="150" to="0" dur="1.8s" begin="7.5s" fill="freeze" /></path><path d="M35.23,75.67c4.54-0.46,39.13-2.48,44.13-2.71" class="stroke" stroke-dasharray="150"><set attributeName="opacity" to="0" dur="9.0s" /><animate attributeName="stroke-dashoffset" from="150" to="0" dur="1.8s" begin="9.0s" fill="freeze" /></path><path d="M54.46,61.1c0.29,0.65,0.52,2.85,0.28,4.24C53,75.5,41.75,95.75,16.42,101.17" class="stroke" stroke-dasharray="150"><set attributeName="opacity" to="0" dur="10.1s" /><animate attributeName="stroke-dashoffset" from="150" to="0" dur="1.8s" begin="10.1s" fill="freeze" /></path><path d="M55.49,75.96c0.78,0.8,1.4,1.74,1.45,2.96c0.21,5.48-0.06,7.97-0.06,11.7c0,8.7,9.38,7.72,18.62,7.72c16.76,0,19.4-1.33,19.4-9.11" class="stroke" stroke-dasharray="150"><set attributeName="opacity" to="0" dur="11.5s" /><animate attributeName="stroke-dashoffset" from="150" to="0" dur="1.8s" begin="11.5s" fill="freeze" /></path><text x="90" y="120" id="reset">⟳</text><text x="70" y="120" id="pause">◼</text><script type="text/javascript"><![CDATA[function RecurringTimer(e,t){var n,r,i=t;this.pause=function(){window.clearTimeout(n);i-=new Date-r};var s=function(){r=new Date;n=window.setTimeout(function(){i=t;s();e()},i)};this.clear=function(){window.clearTimeout(n);i=t;n=window.setTimeout(function(){i=t;s();e()},i)};this.resume=s;this.resume()}function invoketimer(){timer=new RecurringTimer(function(){svg.setCurrentTime(0)},14000)}var svg=document.getElementById("kanjivg");var pause=document.getElementById("pause");var reset=document.getElementById("reset");var timer;invoketimer();reset.onclick=function(){svg.setCurrentTime(0);timer.clear();svg.unpauseAnimations();pause.innerHTML = "◼";};pause.onclick=function(){if(svg.animationsPaused()){svg.unpauseAnimations();timer.resume();pause.innerHTML="◼"}else{svg.pauseAnimations();timer.pause();pause.innerHTML="▶"}}]]></script></svg>