<svg id="kanjivg" width="106" height="126" xmlns="http://www.w3.org/2000/svg" xmlns:xlink="http://www.w3.org/1999/xlink" xml:space="preserve" version="1.1" baseProfile="full"><defs><style type="text/css"><![CDATA[path.black { fill:none;stroke:black;stroke-width:5;stroke-linecap:round;stroke-linejoin:round; }path.grey { fill:none;stroke:#ddd;stroke-width:5;stroke-linecap:round;stroke-linejoin:round; }path.stroke { fill:none;stroke:black;stroke-width:5;stroke-linecap:round;stroke-linejoin:round; }rect { fill:none;stroke:#555;stroke-width:2;} text{font-size:16px;font-family:Segoe UI Symbol,Cambria Math,DejaVu Sans,Symbola,Quivira,STIX,Code2000;-webkit-touch-callout:none;cursor:pointer;-webkit-user-select:none;-khtml-user-select:none;-moz-user-select:none;-ms-user-select:none;user-select: none;} #reset { font-weight:bold; }]]></style><marker id="markerStart" markerWidth="8" markerHeight="8" style="overflow:visible;"><circle cx="0" cy="0" r="1.5" style="stroke:none;fill:red;fill-opacity:0.5;"/></marker><marker id="markerEnd" style="overflow:visible;"><circle cx="0" cy="0" r="0.8" style="stroke:none;fill:blue;fill-opacity:0.5;"><animate attributeName="opacity" from="1" to="0" dur="3s" repeatCount="indefinite" /></circle></marker></defs><rect x="4" y="4" width="100" height="100" /><path d="M24.25,21.7c1.14,0.33,3.25,0.48,4.37,0.33c4.62-0.64,41.38-4.28,52.64-4.77c1.9-0.08,3.04,0.16,3.99,0.32" class="grey" /><path d="M37.31,12.88c0.76,0.41,2.36,3.08,2.51,3.9C39.98,17.61,41,32.75,42,43.25" class="grey" /><path d="M65.31,9.38c1.44,0.62,2.6,3.35,2.51,4.25C67.5,17,66.5,33.75,65.75,41.25" class="grey" /><path d="M26.25,33.2c1.14,0.33,3.25,0.48,4.37,0.33c4.62-0.64,37.38-4.28,48.64-4.77c1.9-0.08,3.04,0.16,3.99,0.32" class="grey" /><path d="M16.25,45.7c1.52,0.54,4.31,0.7,5.82,0.54c9.68-0.99,50.43-5.24,67.61-5.73c2.53-0.07,4.05,0.26,5.31,0.53" class="grey" /><path d="M33.87,53.41c0.45,0.78,0.74,2.02,0.6,3.42S34.61,96.67,34.61,99" class="grey" /><path d="M34.46,54.96c5.65-0.62,36.67-3.89,37.78-4.11c2.38-0.47,3.89,2.09,3.87,2.87c-0.12,4.78-0.45,38.52-0.45,42.1c0,5.75-4.46,2.12-6.42,0.93" class="grey" /><path d="M52.66,43.87c0.1,0.21,1.49,1.07,1.49,2.39c0,8.46,0.12,19.62,0.12,30.82" class="grey" /><path d="M34.66,66.42c11.05-0.74,28.75-3.3,40.72-3.89" class="grey" /><path d="M18.9,79.63c1.61,0.4,4.59,0.59,6.19,0.4C39.75,78.25,73.75,75,88.7,73.74c2.68-0.23,4.31,0.19,5.65,0.39" class="grey" /><path d="M24.25,21.7c1.14,0.33,3.25,0.48,4.37,0.33c4.62-0.64,41.38-4.28,52.64-4.77c1.9-0.08,3.04,0.16,3.99,0.32" class="stroke" stroke-dasharray="150"><animate attributeName="stroke-dashoffset" from="150" to="0" dur="1.8s" begin="0s" fill="freeze" /></path><path d="M37.31,12.88c0.76,0.41,2.36,3.08,2.51,3.9C39.98,17.61,41,32.75,42,43.25" class="stroke" stroke-dasharray="150"><set attributeName="opacity" to="0" dur="1.5s" /><animate attributeName="stroke-dashoffset" from="150" to="0" dur="1.8s" begin="1.5s" fill="freeze" /></path><path d="M65.31,9.38c1.44,0.62,2.6,3.35,2.51,4.25C67.5,17,66.5,33.75,65.75,41.25" class="stroke" stroke-dasharray="150"><set attributeName="opacity" to="0" dur="2.5s" /><animate attributeName="stroke-dashoffset" from="150" to="0" dur="1.8s" begin="2.5s" fill="freeze" /></path><path d="M26.25,33.2c1.14,0.33,3.25,0.48,4.37,0.33c4.62-0.64,37.38-4.28,48.64-4.77c1.9-0.08,3.04,0.16,3.99,0.32" class="stroke" stroke-dasharray="150"><set attributeName="opacity" to="0" dur="3.5s" /><animate attributeName="stroke-dashoffset" from="150" to="0" dur="1.8s" begin="3.5s" fill="freeze" /></path><path d="M16.25,45.7c1.52,0.54,4.31,0.7,5.82,0.54c9.68-0.99,50.43-5.24,67.61-5.73c2.53-0.07,4.05,0.26,5.31,0.53" class="stroke" stroke-dasharray="150"><set attributeName="opacity" to="0" dur="4.9s" /><animate attributeName="stroke-dashoffset" from="150" to="0" dur="1.8s" begin="4.9s" fill="freeze" /></path><path d="M33.87,53.41c0.45,0.78,0.74,2.02,0.6,3.42S34.61,96.67,34.61,99" class="stroke" stroke-dasharray="150"><set attributeName="opacity" to="0" dur="6.6000000000000005s" /><animate attributeName="stroke-dashoffset" from="150" to="0" dur="1.8s" begin="6.6000000000000005s" fill="freeze" /></path><path d="M34.46,54.96c5.65-0.62,36.67-3.89,37.78-4.11c2.38-0.47,3.89,2.09,3.87,2.87c-0.12,4.78-0.45,38.52-0.45,42.1c0,5.75-4.46,2.12-6.42,0.93" class="stroke" stroke-dasharray="150"><set attributeName="opacity" to="0" dur="7.800000000000001s" /><animate attributeName="stroke-dashoffset" from="150" to="0" dur="1.8s" begin="7.800000000000001s" fill="freeze" /></path><path d="M52.66,43.87c0.1,0.21,1.49,1.07,1.49,2.39c0,8.46,0.12,19.62,0.12,30.82" class="stroke" stroke-dasharray="150"><set attributeName="opacity" to="0" dur="9.600000000000001s" /><animate attributeName="stroke-dashoffset" from="150" to="0" dur="1.8s" begin="9.600000000000001s" fill="freeze" /></path><path d="M34.66,66.42c11.05-0.74,28.75-3.3,40.72-3.89" class="stroke" stroke-dasharray="150"><set attributeName="opacity" to="0" dur="10.600000000000001s" /><animate attributeName="stroke-dashoffset" from="150" to="0" dur="1.8s" begin="10.600000000000001s" fill="freeze" /></path><path d="M18.9,79.63c1.61,0.4,4.59,0.59,6.19,0.4C39.75,78.25,73.75,75,88.7,73.74c2.68-0.23,4.31,0.19,5.65,0.39" class="stroke" stroke-dasharray="150"><set attributeName="opacity" to="0" dur="11.700000000000001s" /><animate attributeName="stroke-dashoffset" from="150" to="0" dur="1.8s" begin="11.700000000000001s" fill="freeze" /></path><text x="90" y="120" id="reset">⟳</text><text x="70" y="120" id="pause">◼</text><script type="text/javascript"><![CDATA[function RecurringTimer(e,t){var n,r,i=t;this.pause=function(){window.clearTimeout(n);i-=new Date-r};var s=function(){r=new Date;n=window.setTimeout(function(){i=t;s();e()},i)};this.clear=function(){window.clearTimeout(n);i=t;n=window.setTimeout(function(){i=t;s();e()},i)};this.resume=s;this.resume()}function invoketimer(){timer=new RecurringTimer(function(){svg.setCurrentTime(0)},14400)}var svg=document.getElementById("kanjivg");var pause=document.getElementById("pause");var reset=document.getElementById("reset");var timer;invoketimer();reset.onclick=function(){svg.setCurrentTime(0);timer.clear();svg.unpauseAnimations();pause.innerHTML = "◼";};pause.onclick=function(){if(svg.animationsPaused()){svg.unpauseAnimations();timer.resume();pause.innerHTML="◼"}else{svg.pauseAnimations();timer.pause();pause.innerHTML="▶"}}]]></script></svg>