<svg id="kanjivg" width="106" height="126" xmlns="http://www.w3.org/2000/svg" xmlns:xlink="http://www.w3.org/1999/xlink" xml:space="preserve" version="1.1" baseProfile="full"><defs><style type="text/css"><![CDATA[path.black { fill:none;stroke:black;stroke-width:5;stroke-linecap:round;stroke-linejoin:round; }path.grey { fill:none;stroke:#ddd;stroke-width:5;stroke-linecap:round;stroke-linejoin:round; }path.stroke { fill:none;stroke:black;stroke-width:5;stroke-linecap:round;stroke-linejoin:round; }rect { fill:none;stroke:#555;stroke-width:2;} text{font-size:16px;font-family:Segoe UI Symbol,Cambria Math,DejaVu Sans,Symbola,Quivira,STIX,Code2000;-webkit-touch-callout:none;cursor:pointer;-webkit-user-select:none;-khtml-user-select:none;-moz-user-select:none;-ms-user-select:none;user-select: none;} #reset { font-weight:bold; }]]></style><marker id="markerStart" markerWidth="8" markerHeight="8" style="overflow:visible;"><circle cx="0" cy="0" r="1.5" style="stroke:none;fill:red;fill-opacity:0.5;"/></marker><marker id="markerEnd" style="overflow:visible;"><circle cx="0" cy="0" r="0.8" style="stroke:none;fill:blue;fill-opacity:0.5;"><animate attributeName="opacity" from="1" to="0" dur="3s" repeatCount="indefinite" /></circle></marker></defs><rect x="4" y="4" width="100" height="100" /><path d="M23.75,14.25c0.75,1.25,1.89,3.12,2,4c0.85,6.58,2.42,17.98,3.5,25.25" class="grey" /><path d="M25.75,16.34C35.94,15.37,73.5,12.5,78,12c2.78-0.31,5.25,2.91,5,4.25c-1.03,5.45-2.54,17-3.8,23.75" class="grey" /><path d="M34.75,26.65c0.65,0.21,3.08,0.56,3.73,0.48C44,26.5,60.5,24.5,68.22,24c1.09-0.07,3.24,0.45,3.78,0.56" class="grey" /><path d="M35.5,39.56c0.65,0.24,2.74,0.37,3.39,0.38c5.47,0.04,28.15-3.03,30.59-2.86c1.08,0.07,2.48,0.42,3.02,0.54" class="grey" /><path d="M32.75,50.5c1.03,0.69,1.5,2.72,1.5,3.5c0,5.25,0.39,43.43,0.25,45" class="grey" /><path d="M35.28,52.33c3.04-0.21,32.44-3.41,34.7-3.62c4.05-0.39,5.08,1.94,5.08,3.05c0,2.49-0.08,25.46-0.08,38.8c0,10.69-7.01,2.52-8.03,1.71" class="grey" /><path d="M36.83,64.54c6.2-0.6,12.4-1.17,18.6-1.7c1.66-0.14,3.31-0.28,4.92-0.42" class="grey" /><path d="M35.75,76.71c6.09-0.44,12.68-1,18.76-1.51c1.79-0.15,3.58-0.3,5.34-0.44" class="grey" /><path d="M23.75,14.25c0.75,1.25,1.89,3.12,2,4c0.85,6.58,2.42,17.98,3.5,25.25" class="stroke" stroke-dasharray="150"><animate attributeName="stroke-dashoffset" from="150" to="0" dur="1.8s" begin="0s" fill="freeze" /></path><path d="M25.75,16.34C35.94,15.37,73.5,12.5,78,12c2.78-0.31,5.25,2.91,5,4.25c-1.03,5.45-2.54,17-3.8,23.75" class="stroke" stroke-dasharray="150"><set attributeName="opacity" to="0" dur="1.0s" /><animate attributeName="stroke-dashoffset" from="150" to="0" dur="1.8s" begin="1.0s" fill="freeze" /></path><path d="M34.75,26.65c0.65,0.21,3.08,0.56,3.73,0.48C44,26.5,60.5,24.5,68.22,24c1.09-0.07,3.24,0.45,3.78,0.56" class="stroke" stroke-dasharray="150"><set attributeName="opacity" to="0" dur="2.7s" /><animate attributeName="stroke-dashoffset" from="150" to="0" dur="1.8s" begin="2.7s" fill="freeze" /></path><path d="M35.5,39.56c0.65,0.24,2.74,0.37,3.39,0.38c5.47,0.04,28.15-3.03,30.59-2.86c1.08,0.07,2.48,0.42,3.02,0.54" class="stroke" stroke-dasharray="150"><set attributeName="opacity" to="0" dur="3.7s" /><animate attributeName="stroke-dashoffset" from="150" to="0" dur="1.8s" begin="3.7s" fill="freeze" /></path><path d="M32.75,50.5c1.03,0.69,1.5,2.72,1.5,3.5c0,5.25,0.39,43.43,0.25,45" class="stroke" stroke-dasharray="150"><set attributeName="opacity" to="0" dur="4.7s" /><animate attributeName="stroke-dashoffset" from="150" to="0" dur="1.8s" begin="4.7s" fill="freeze" /></path><path d="M35.28,52.33c3.04-0.21,32.44-3.41,34.7-3.62c4.05-0.39,5.08,1.94,5.08,3.05c0,2.49-0.08,25.46-0.08,38.8c0,10.69-7.01,2.52-8.03,1.71" class="stroke" stroke-dasharray="150"><set attributeName="opacity" to="0" dur="5.9s" /><animate attributeName="stroke-dashoffset" from="150" to="0" dur="1.8s" begin="5.9s" fill="freeze" /></path><path d="M36.83,64.54c6.2-0.6,12.4-1.17,18.6-1.7c1.66-0.14,3.31-0.28,4.92-0.42" class="stroke" stroke-dasharray="150"><set attributeName="opacity" to="0" dur="7.7s" /><animate attributeName="stroke-dashoffset" from="150" to="0" dur="1.8s" begin="7.7s" fill="freeze" /></path><path d="M35.75,76.71c6.09-0.44,12.68-1,18.76-1.51c1.79-0.15,3.58-0.3,5.34-0.44" class="stroke" stroke-dasharray="150"><set attributeName="opacity" to="0" dur="8.7s" /><animate attributeName="stroke-dashoffset" from="150" to="0" dur="1.8s" begin="8.7s" fill="freeze" /></path><text x="90" y="120" id="reset">⟳</text><text x="70" y="120" id="pause">◼</text><script type="text/javascript"><![CDATA[function RecurringTimer(e,t){var n,r,i=t;this.pause=function(){window.clearTimeout(n);i-=new Date-r};var s=function(){r=new Date;n=window.setTimeout(function(){i=t;s();e()},i)};this.clear=function(){window.clearTimeout(n);i=t;n=window.setTimeout(function(){i=t;s();e()},i)};this.resume=s;this.resume()}function invoketimer(){timer=new RecurringTimer(function(){svg.setCurrentTime(0)},10700)}var svg=document.getElementById("kanjivg");var pause=document.getElementById("pause");var reset=document.getElementById("reset");var timer;invoketimer();reset.onclick=function(){svg.setCurrentTime(0);timer.clear();svg.unpauseAnimations();pause.innerHTML = "◼";};pause.onclick=function(){if(svg.animationsPaused()){svg.unpauseAnimations();timer.resume();pause.innerHTML="◼"}else{svg.pauseAnimations();timer.pause();pause.innerHTML="▶"}}]]></script></svg>