<svg id="kanjivg" width="106" height="126" xmlns="http://www.w3.org/2000/svg" xmlns:xlink="http://www.w3.org/1999/xlink" xml:space="preserve" version="1.1" baseProfile="full"><defs><style type="text/css"><![CDATA[path.black { fill:none;stroke:black;stroke-width:5;stroke-linecap:round;stroke-linejoin:round; }path.grey { fill:none;stroke:#ddd;stroke-width:5;stroke-linecap:round;stroke-linejoin:round; }path.stroke { fill:none;stroke:black;stroke-width:5;stroke-linecap:round;stroke-linejoin:round; }rect { fill:none;stroke:#555;stroke-width:2;} text{font-size:16px;font-family:Segoe UI Symbol,Cambria Math,DejaVu Sans,Symbola,Quivira,STIX,Code2000;-webkit-touch-callout:none;cursor:pointer;-webkit-user-select:none;-khtml-user-select:none;-moz-user-select:none;-ms-user-select:none;user-select: none;} #reset { font-weight:bold; }]]></style><marker id="markerStart" markerWidth="8" markerHeight="8" style="overflow:visible;"><circle cx="0" cy="0" r="1.5" style="stroke:none;fill:red;fill-opacity:0.5;"/></marker><marker id="markerEnd" style="overflow:visible;"><circle cx="0" cy="0" r="0.8" style="stroke:none;fill:blue;fill-opacity:0.5;"><animate attributeName="opacity" from="1" to="0" dur="3s" repeatCount="indefinite" /></circle></marker></defs><rect x="4" y="4" width="100" height="100" /><path d="M24.49,15.12c0.43,0.46,0.94,1.27,1.17,1.85c1.92,4.73,3.23,18.17,4.42,26.99" class="grey" /><path d="M26.49,17.25c14.89-1.19,41.43-3.21,52.55-4.21c4.08-0.37,5.18,1.93,4.97,3.23c-0.77,4.77-3.17,17.25-5.04,25.22" class="grey" /><path d="M28.77,28.98c8.91-0.85,17.88-1.29,26.81-1.89c3.03-0.2,6.06-0.4,8.93-0.59" class="grey" /><path d="M30.85,42.17c13.4-0.92,33.8-2.13,48.61-2.96" class="grey" /><path d="M32.06,51.84c0.69,1.04,1.21,2.81,1.21,4.19c0,1.38-0.46,41.6-0.46,42.29" class="grey" /><path d="M33.05,53.68c3.93-0.17,36.24-3.19,39.82-3.4c2.98-0.17,5.08,0.97,5.08,4.25c0,4.97-0.71,26.23-0.7,41.44" class="grey" /><path d="M33.85,66.76c7.43-0.23,14.86-1.06,22.25-1.69c2.27-0.19,4.54-0.38,6.7-0.56" class="grey" /><path d="M33.67,80.21c7.23-0.41,15.46-1,22.68-1.5c2.05-0.14,4.11-0.28,6.11-0.41" class="grey" /><path d="M33.62,95.23c8.94-0.31,33.4-2.05,43.5-2.05" class="grey" /><path d="M24.49,15.12c0.43,0.46,0.94,1.27,1.17,1.85c1.92,4.73,3.23,18.17,4.42,26.99" class="stroke" stroke-dasharray="150"><animate attributeName="stroke-dashoffset" from="150" to="0" dur="1.8s" begin="0s" fill="freeze" /></path><path d="M26.49,17.25c14.89-1.19,41.43-3.21,52.55-4.21c4.08-0.37,5.18,1.93,4.97,3.23c-0.77,4.77-3.17,17.25-5.04,25.22" class="stroke" stroke-dasharray="150"><set attributeName="opacity" to="0" dur="1.0s" /><animate attributeName="stroke-dashoffset" from="150" to="0" dur="1.8s" begin="1.0s" fill="freeze" /></path><path d="M28.77,28.98c8.91-0.85,17.88-1.29,26.81-1.89c3.03-0.2,6.06-0.4,8.93-0.59" class="stroke" stroke-dasharray="150"><set attributeName="opacity" to="0" dur="2.7s" /><animate attributeName="stroke-dashoffset" from="150" to="0" dur="1.8s" begin="2.7s" fill="freeze" /></path><path d="M30.85,42.17c13.4-0.92,33.8-2.13,48.61-2.96" class="stroke" stroke-dasharray="150"><set attributeName="opacity" to="0" dur="3.7s" /><animate attributeName="stroke-dashoffset" from="150" to="0" dur="1.8s" begin="3.7s" fill="freeze" /></path><path d="M32.06,51.84c0.69,1.04,1.21,2.81,1.21,4.19c0,1.38-0.46,41.6-0.46,42.29" class="stroke" stroke-dasharray="150"><set attributeName="opacity" to="0" dur="4.9s" /><animate attributeName="stroke-dashoffset" from="150" to="0" dur="1.8s" begin="4.9s" fill="freeze" /></path><path d="M33.05,53.68c3.93-0.17,36.24-3.19,39.82-3.4c2.98-0.17,5.08,0.97,5.08,4.25c0,4.97-0.71,26.23-0.7,41.44" class="stroke" stroke-dasharray="150"><set attributeName="opacity" to="0" dur="6.1000000000000005s" /><animate attributeName="stroke-dashoffset" from="150" to="0" dur="1.8s" begin="6.1000000000000005s" fill="freeze" /></path><path d="M33.85,66.76c7.43-0.23,14.86-1.06,22.25-1.69c2.27-0.19,4.54-0.38,6.7-0.56" class="stroke" stroke-dasharray="150"><set attributeName="opacity" to="0" dur="7.800000000000001s" /><animate attributeName="stroke-dashoffset" from="150" to="0" dur="1.8s" begin="7.800000000000001s" fill="freeze" /></path><path d="M33.67,80.21c7.23-0.41,15.46-1,22.68-1.5c2.05-0.14,4.11-0.28,6.11-0.41" class="stroke" stroke-dasharray="150"><set attributeName="opacity" to="0" dur="8.8s" /><animate attributeName="stroke-dashoffset" from="150" to="0" dur="1.8s" begin="8.8s" fill="freeze" /></path><path d="M33.62,95.23c8.94-0.31,33.4-2.05,43.5-2.05" class="stroke" stroke-dasharray="150"><set attributeName="opacity" to="0" dur="9.8s" /><animate attributeName="stroke-dashoffset" from="150" to="0" dur="1.8s" begin="9.8s" fill="freeze" /></path><text x="90" y="120" id="reset">⟳</text><text x="70" y="120" id="pause">◼</text><script type="text/javascript"><![CDATA[function RecurringTimer(e,t){var n,r,i=t;this.pause=function(){window.clearTimeout(n);i-=new Date-r};var s=function(){r=new Date;n=window.setTimeout(function(){i=t;s();e()},i)};this.clear=function(){window.clearTimeout(n);i=t;n=window.setTimeout(function(){i=t;s();e()},i)};this.resume=s;this.resume()}function invoketimer(){timer=new RecurringTimer(function(){svg.setCurrentTime(0)},11900)}var svg=document.getElementById("kanjivg");var pause=document.getElementById("pause");var reset=document.getElementById("reset");var timer;invoketimer();reset.onclick=function(){svg.setCurrentTime(0);timer.clear();svg.unpauseAnimations();pause.innerHTML = "◼";};pause.onclick=function(){if(svg.animationsPaused()){svg.unpauseAnimations();timer.resume();pause.innerHTML="◼"}else{svg.pauseAnimations();timer.pause();pause.innerHTML="▶"}}]]></script></svg>