<svg id="kanjivg" width="106" height="126" xmlns="http://www.w3.org/2000/svg" xmlns:xlink="http://www.w3.org/1999/xlink" xml:space="preserve" version="1.1" baseProfile="full"><defs><style type="text/css"><![CDATA[path.black { fill:none;stroke:black;stroke-width:5;stroke-linecap:round;stroke-linejoin:round; }path.grey { fill:none;stroke:#ddd;stroke-width:5;stroke-linecap:round;stroke-linejoin:round; }path.stroke { fill:none;stroke:black;stroke-width:5;stroke-linecap:round;stroke-linejoin:round; }rect { fill:none;stroke:#555;stroke-width:2;} text{font-size:16px;font-family:Segoe UI Symbol,Cambria Math,DejaVu Sans,Symbola,Quivira,STIX,Code2000;-webkit-touch-callout:none;cursor:pointer;-webkit-user-select:none;-khtml-user-select:none;-moz-user-select:none;-ms-user-select:none;user-select: none;} #reset { font-weight:bold; }]]></style><marker id="markerStart" markerWidth="8" markerHeight="8" style="overflow:visible;"><circle cx="0" cy="0" r="1.5" style="stroke:none;fill:red;fill-opacity:0.5;"/></marker><marker id="markerEnd" style="overflow:visible;"><circle cx="0" cy="0" r="0.8" style="stroke:none;fill:blue;fill-opacity:0.5;"><animate attributeName="opacity" from="1" to="0" dur="3s" repeatCount="indefinite" /></circle></marker></defs><rect x="4" y="4" width="100" height="100" /><path d="M12,44.73c0.88,0.3,2.51,0.44,3.39,0.3c8.69-1.36,18.61-5.29,24.36-6.79c1.42-0.37,2.36-0.36,3.09-0.21" class="grey" /><path d="M26,18.5c0.81,1,1.63,1.67,1.9,3.01c0.27,1.34,0.1,42.08,0.1,46.24c0,2.75,1.5,3.75,2.75,3C35.47,67.92,44.5,62,49.25,58.5" class="grey" /><path d="M52.75,30.5c1.75,0.75,3.96,0.66,5.48,0.4c12.48-2.08,26.35-4.64,33.27-5.4c4.5-0.5,6.51,1.5,6.25,5c-1,13.25-6,43.25-12.5,56.25c-5.2,10.4-10.18,0.34-12-0.75" class="grey" /><path d="M67.94,37.18c0.07,1.22,0.1,3.15-0.14,4.9C65.5,59.25,58.48,74.68,43.5,88" class="grey" /><path d="M12,44.73c0.88,0.3,2.51,0.44,3.39,0.3c8.69-1.36,18.61-5.29,24.36-6.79c1.42-0.37,2.36-0.36,3.09-0.21" class="stroke" stroke-dasharray="150"><animate attributeName="stroke-dashoffset" from="150" to="0" dur="1.8s" begin="0s" fill="freeze" /></path><path d="M26,18.5c0.81,1,1.63,1.67,1.9,3.01c0.27,1.34,0.1,42.08,0.1,46.24c0,2.75,1.5,3.75,2.75,3C35.47,67.92,44.5,62,49.25,58.5" class="stroke" stroke-dasharray="150"><set attributeName="opacity" to="0" dur="1.0s" /><animate attributeName="stroke-dashoffset" from="150" to="0" dur="1.8s" begin="1.0s" fill="freeze" /></path><path d="M52.75,30.5c1.75,0.75,3.96,0.66,5.48,0.4c12.48-2.08,26.35-4.64,33.27-5.4c4.5-0.5,6.51,1.5,6.25,5c-1,13.25-6,43.25-12.5,56.25c-5.2,10.4-10.18,0.34-12-0.75" class="stroke" stroke-dasharray="150"><set attributeName="opacity" to="0" dur="2.7s" /><animate attributeName="stroke-dashoffset" from="150" to="0" dur="1.8s" begin="2.7s" fill="freeze" /></path><path d="M67.94,37.18c0.07,1.22,0.1,3.15-0.14,4.9C65.5,59.25,58.48,74.68,43.5,88" class="stroke" stroke-dasharray="150"><set attributeName="opacity" to="0" dur="4.7s" /><animate attributeName="stroke-dashoffset" from="150" to="0" dur="1.8s" begin="4.7s" fill="freeze" /></path><text x="90" y="120" id="reset">⟳</text><text x="70" y="120" id="pause">◼</text><script type="text/javascript"><![CDATA[function RecurringTimer(e,t){var n,r,i=t;this.pause=function(){window.clearTimeout(n);i-=new Date-r};var s=function(){r=new Date;n=window.setTimeout(function(){i=t;s();e()},i)};this.clear=function(){window.clearTimeout(n);i=t;n=window.setTimeout(function(){i=t;s();e()},i)};this.resume=s;this.resume()}function invoketimer(){timer=new RecurringTimer(function(){svg.setCurrentTime(0)},7100)}var svg=document.getElementById("kanjivg");var pause=document.getElementById("pause");var reset=document.getElementById("reset");var timer;invoketimer();reset.onclick=function(){svg.setCurrentTime(0);timer.clear();svg.unpauseAnimations();pause.innerHTML = "◼";};pause.onclick=function(){if(svg.animationsPaused()){svg.unpauseAnimations();timer.resume();pause.innerHTML="◼"}else{svg.pauseAnimations();timer.pause();pause.innerHTML="▶"}}]]></script></svg>