<svg id="kanjivg" width="106" height="126" xmlns="http://www.w3.org/2000/svg" xmlns:xlink="http://www.w3.org/1999/xlink" xml:space="preserve" version="1.1" baseProfile="full"><defs><style type="text/css"><![CDATA[path.black { fill:none;stroke:black;stroke-width:5;stroke-linecap:round;stroke-linejoin:round; }path.grey { fill:none;stroke:#ddd;stroke-width:5;stroke-linecap:round;stroke-linejoin:round; }path.stroke { fill:none;stroke:black;stroke-width:5;stroke-linecap:round;stroke-linejoin:round; }rect { fill:none;stroke:#555;stroke-width:2;} text{font-size:16px;font-family:Segoe UI Symbol,Cambria Math,DejaVu Sans,Symbola,Quivira,STIX,Code2000;-webkit-touch-callout:none;cursor:pointer;-webkit-user-select:none;-khtml-user-select:none;-moz-user-select:none;-ms-user-select:none;user-select: none;} #reset { font-weight:bold; }]]></style><marker id="markerStart" markerWidth="8" markerHeight="8" style="overflow:visible;"><circle cx="0" cy="0" r="1.5" style="stroke:none;fill:red;fill-opacity:0.5;"/></marker><marker id="markerEnd" style="overflow:visible;"><circle cx="0" cy="0" r="0.8" style="stroke:none;fill:blue;fill-opacity:0.5;"><animate attributeName="opacity" from="1" to="0" dur="3s" repeatCount="indefinite" /></circle></marker></defs><rect x="4" y="4" width="100" height="100" /><path d="M41.12,19.38c0.25,1.24-0.44,3.01-1.1,4.08C34.31,32.72,27.13,40.62,13,51.25" class="grey" /><path d="M54.69,13.75c7.56-0.12,20.68,19.17,29.41,25.95c3.07,2.39,6.02,4.05,10.4,5.3" class="grey" /><path d="M29.35,55.37c2.42,0.83,4.97,0.75,7.42,0.37c11.06-1.7,28.87-5.3,34.1-5.76c3.69-0.33,5.08,1.48,4.88,3.77c-0.54,6.05-5.94,29.03-10.5,36.3c-4.99,7.96-5.74,4.21-9.84-0.49" class="grey" /><path d="M49.12,57.25c0.15,1.49,0.06,2.72-0.56,4.08C43.5,72.5,35.75,82,22.5,90.75" class="grey" /><path d="M41.12,19.38c0.25,1.24-0.44,3.01-1.1,4.08C34.31,32.72,27.13,40.62,13,51.25" class="stroke" stroke-dasharray="150"><animate attributeName="stroke-dashoffset" from="150" to="0" dur="1.8s" begin="0s" fill="freeze" /></path><path d="M54.69,13.75c7.56-0.12,20.68,19.17,29.41,25.95c3.07,2.39,6.02,4.05,10.4,5.3" class="stroke" stroke-dasharray="150"><set attributeName="opacity" to="0" dur="1.1s" /><animate attributeName="stroke-dashoffset" from="150" to="0" dur="1.8s" begin="1.1s" fill="freeze" /></path><path d="M29.35,55.37c2.42,0.83,4.97,0.75,7.42,0.37c11.06-1.7,28.87-5.3,34.1-5.76c3.69-0.33,5.08,1.48,4.88,3.77c-0.54,6.05-5.94,29.03-10.5,36.3c-4.99,7.96-5.74,4.21-9.84-0.49" class="stroke" stroke-dasharray="150"><set attributeName="opacity" to="0" dur="2.4000000000000004s" /><animate attributeName="stroke-dashoffset" from="150" to="0" dur="1.8s" begin="2.4000000000000004s" fill="freeze" /></path><path d="M49.12,57.25c0.15,1.49,0.06,2.72-0.56,4.08C43.5,72.5,35.75,82,22.5,90.75" class="stroke" stroke-dasharray="150"><set attributeName="opacity" to="0" dur="4.300000000000001s" /><animate attributeName="stroke-dashoffset" from="150" to="0" dur="1.8s" begin="4.300000000000001s" fill="freeze" /></path><text x="90" y="120" id="reset">⟳</text><text x="70" y="120" id="pause">◼</text><script type="text/javascript"><![CDATA[function RecurringTimer(e,t){var n,r,i=t;this.pause=function(){window.clearTimeout(n);i-=new Date-r};var s=function(){r=new Date;n=window.setTimeout(function(){i=t;s();e()},i)};this.clear=function(){window.clearTimeout(n);i=t;n=window.setTimeout(function(){i=t;s();e()},i)};this.resume=s;this.resume()}function invoketimer(){timer=new RecurringTimer(function(){svg.setCurrentTime(0)},6400)}var svg=document.getElementById("kanjivg");var pause=document.getElementById("pause");var reset=document.getElementById("reset");var timer;invoketimer();reset.onclick=function(){svg.setCurrentTime(0);timer.clear();svg.unpauseAnimations();pause.innerHTML = "◼";};pause.onclick=function(){if(svg.animationsPaused()){svg.unpauseAnimations();timer.resume();pause.innerHTML="◼"}else{svg.pauseAnimations();timer.pause();pause.innerHTML="▶"}}]]></script></svg>