<svg id="kanjivg" width="106" height="126" xmlns="http://www.w3.org/2000/svg" xmlns:xlink="http://www.w3.org/1999/xlink" xml:space="preserve" version="1.1" baseProfile="full"><defs><style type="text/css"><![CDATA[path.black { fill:none;stroke:black;stroke-width:5;stroke-linecap:round;stroke-linejoin:round; }path.grey { fill:none;stroke:#ddd;stroke-width:5;stroke-linecap:round;stroke-linejoin:round; }path.stroke { fill:none;stroke:black;stroke-width:5;stroke-linecap:round;stroke-linejoin:round; }rect { fill:none;stroke:#555;stroke-width:2;} text{font-size:16px;font-family:Segoe UI Symbol,Cambria Math,DejaVu Sans,Symbola,Quivira,STIX,Code2000;-webkit-touch-callout:none;cursor:pointer;-webkit-user-select:none;-khtml-user-select:none;-moz-user-select:none;-ms-user-select:none;user-select: none;} #reset { font-weight:bold; }]]></style><marker id="markerStart" markerWidth="8" markerHeight="8" style="overflow:visible;"><circle cx="0" cy="0" r="1.5" style="stroke:none;fill:red;fill-opacity:0.5;"/></marker><marker id="markerEnd" style="overflow:visible;"><circle cx="0" cy="0" r="0.8" style="stroke:none;fill:blue;fill-opacity:0.5;"><animate attributeName="opacity" from="1" to="0" dur="3s" repeatCount="indefinite" /></circle></marker></defs><rect x="4" y="4" width="100" height="100" /><path d="M11.5,43.98c1.05,0.3,2.98,0.42,4.01,0.3c7.74-0.91,15.49-3.54,22.67-5.54c1.66-0.46,3.45-0.65,4.32-0.5" class="grey" /><path d="M26.75,18.25c1,1,1.67,2.53,1.73,4.5c0.2,7.02-0.48,34.49-0.48,40C28,69.5,29,71,37.75,71c5.5,0,8.75-0.88,11.75-2" class="grey" /><path d="M52.75,29.75c2.39,1.02,5.02,0.94,7.48,0.57C70.75,28.75,83.75,26.5,91.5,25c4.45-0.86,6.62,0.88,6.25,5.5C96.68,43.74,92,73,85.5,86c-5.2,10.4-9.88,2.5-12.25,0" class="grey" /><path d="M68.25,36.62c0.45,1.33,0.35,3.15,0.11,4.91c-2.15,15.67-10,32.82-25.11,45.97" class="grey" /><path d="M11.5,43.98c1.05,0.3,2.98,0.42,4.01,0.3c7.74-0.91,15.49-3.54,22.67-5.54c1.66-0.46,3.45-0.65,4.32-0.5" class="stroke" stroke-dasharray="150"><animate attributeName="stroke-dashoffset" from="150" to="0" dur="1.8s" begin="0s" fill="freeze" /></path><path d="M26.75,18.25c1,1,1.67,2.53,1.73,4.5c0.2,7.02-0.48,34.49-0.48,40C28,69.5,29,71,37.75,71c5.5,0,8.75-0.88,11.75-2" class="stroke" stroke-dasharray="150"><set attributeName="opacity" to="0" dur="1.0s" /><animate attributeName="stroke-dashoffset" from="150" to="0" dur="1.8s" begin="1.0s" fill="freeze" /></path><path d="M52.75,29.75c2.39,1.02,5.02,0.94,7.48,0.57C70.75,28.75,83.75,26.5,91.5,25c4.45-0.86,6.62,0.88,6.25,5.5C96.68,43.74,92,73,85.5,86c-5.2,10.4-9.88,2.5-12.25,0" class="stroke" stroke-dasharray="150"><set attributeName="opacity" to="0" dur="2.7s" /><animate attributeName="stroke-dashoffset" from="150" to="0" dur="1.8s" begin="2.7s" fill="freeze" /></path><path d="M68.25,36.62c0.45,1.33,0.35,3.15,0.11,4.91c-2.15,15.67-10,32.82-25.11,45.97" class="stroke" stroke-dasharray="150"><set attributeName="opacity" to="0" dur="4.7s" /><animate attributeName="stroke-dashoffset" from="150" to="0" dur="1.8s" begin="4.7s" fill="freeze" /></path><text x="90" y="120" id="reset">⟳</text><text x="70" y="120" id="pause">◼</text><script type="text/javascript"><![CDATA[function RecurringTimer(e,t){var n,r,i=t;this.pause=function(){window.clearTimeout(n);i-=new Date-r};var s=function(){r=new Date;n=window.setTimeout(function(){i=t;s();e()},i)};this.clear=function(){window.clearTimeout(n);i=t;n=window.setTimeout(function(){i=t;s();e()},i)};this.resume=s;this.resume()}function invoketimer(){timer=new RecurringTimer(function(){svg.setCurrentTime(0)},7100)}var svg=document.getElementById("kanjivg");var pause=document.getElementById("pause");var reset=document.getElementById("reset");var timer;invoketimer();reset.onclick=function(){svg.setCurrentTime(0);timer.clear();svg.unpauseAnimations();pause.innerHTML = "◼";};pause.onclick=function(){if(svg.animationsPaused()){svg.unpauseAnimations();timer.resume();pause.innerHTML="◼"}else{svg.pauseAnimations();timer.pause();pause.innerHTML="▶"}}]]></script></svg>