<svg id="kanjivg" width="106" height="126" xmlns="http://www.w3.org/2000/svg" xmlns:xlink="http://www.w3.org/1999/xlink" xml:space="preserve" version="1.1" baseProfile="full"><defs><style type="text/css"><![CDATA[path.black { fill:none;stroke:black;stroke-width:5;stroke-linecap:round;stroke-linejoin:round; }path.grey { fill:none;stroke:#ddd;stroke-width:5;stroke-linecap:round;stroke-linejoin:round; }path.stroke { fill:none;stroke:black;stroke-width:5;stroke-linecap:round;stroke-linejoin:round; }rect { fill:none;stroke:#555;stroke-width:2;} text{font-size:16px;font-family:Segoe UI Symbol,Cambria Math,DejaVu Sans,Symbola,Quivira,STIX,Code2000;-webkit-touch-callout:none;cursor:pointer;-webkit-user-select:none;-khtml-user-select:none;-moz-user-select:none;-ms-user-select:none;user-select: none;} #reset { font-weight:bold; }]]></style><marker id="markerStart" markerWidth="8" markerHeight="8" style="overflow:visible;"><circle cx="0" cy="0" r="1.5" style="stroke:none;fill:red;fill-opacity:0.5;"/></marker><marker id="markerEnd" style="overflow:visible;"><circle cx="0" cy="0" r="0.8" style="stroke:none;fill:blue;fill-opacity:0.5;"><animate attributeName="opacity" from="1" to="0" dur="3s" repeatCount="indefinite" /></circle></marker></defs><rect x="4" y="4" width="100" height="100" /><path d="M16.25,24.98c2.5,0.64,5.16,0.42,7.51,0.1c7.22-0.98,19.17-2.95,26.48-3.61c2.38-0.22,4.68-0.37,7,0.29" class="grey" /><path d="M37.11,25.65c0.23,0.62,0.29,1.73-0.05,2.94C34.75,36.62,26.5,52.38,14.48,60.8" class="grey" /><path d="M35.81,39.06c1.19,0.56,2.19,0.31,3.36,0.11c2.72-0.47,4.2-0.8,8.38-2.06c2.67-0.81,4.31,0.95,3.78,3.58C48.25,56,30,85.38,12.27,95.75" class="grey" /><path d="M26.25,54c4.01,1.77,10.35,7.29,11.35,10.05" class="grey" /><path d="M68.77,28.87c1.18,1.18,1.76,2.51,1.76,4.77c0,11.46,0,19.5,0,24.74c0,1.96,0,3.63,0,5.12" class="grey" /><path d="M87.02,16.58c1.33,1.33,2.01,2.74,2.01,5.77c0,16.15-0.01,58.9-0.01,65.12c0,10.28-7.21,1.5-8.71,0.25" class="grey" /><path d="M16.25,24.98c2.5,0.64,5.16,0.42,7.51,0.1c7.22-0.98,19.17-2.95,26.48-3.61c2.38-0.22,4.68-0.37,7,0.29" class="stroke" stroke-dasharray="150"><animate attributeName="stroke-dashoffset" from="150" to="0" dur="1.8s" begin="0s" fill="freeze" /></path><path d="M37.11,25.65c0.23,0.62,0.29,1.73-0.05,2.94C34.75,36.62,26.5,52.38,14.48,60.8" class="stroke" stroke-dasharray="150"><set attributeName="opacity" to="0" dur="1.1s" /><animate attributeName="stroke-dashoffset" from="150" to="0" dur="1.8s" begin="1.1s" fill="freeze" /></path><path d="M35.81,39.06c1.19,0.56,2.19,0.31,3.36,0.11c2.72-0.47,4.2-0.8,8.38-2.06c2.67-0.81,4.31,0.95,3.78,3.58C48.25,56,30,85.38,12.27,95.75" class="stroke" stroke-dasharray="150"><set attributeName="opacity" to="0" dur="2.2s" /><animate attributeName="stroke-dashoffset" from="150" to="0" dur="1.8s" begin="2.2s" fill="freeze" /></path><path d="M26.25,54c4.01,1.77,10.35,7.29,11.35,10.05" class="stroke" stroke-dasharray="150"><set attributeName="opacity" to="0" dur="3.9000000000000004s" /><animate attributeName="stroke-dashoffset" from="150" to="0" dur="1.8s" begin="3.9000000000000004s" fill="freeze" /></path><path d="M68.77,28.87c1.18,1.18,1.76,2.51,1.76,4.77c0,11.46,0,19.5,0,24.74c0,1.96,0,3.63,0,5.12" class="stroke" stroke-dasharray="150"><set attributeName="opacity" to="0" dur="4.800000000000001s" /><animate attributeName="stroke-dashoffset" from="150" to="0" dur="1.8s" begin="4.800000000000001s" fill="freeze" /></path><path d="M87.02,16.58c1.33,1.33,2.01,2.74,2.01,5.77c0,16.15-0.01,58.9-0.01,65.12c0,10.28-7.21,1.5-8.71,0.25" class="stroke" stroke-dasharray="150"><set attributeName="opacity" to="0" dur="5.800000000000001s" /><animate attributeName="stroke-dashoffset" from="150" to="0" dur="1.8s" begin="5.800000000000001s" fill="freeze" /></path><text x="90" y="120" id="reset">⟳</text><text x="70" y="120" id="pause">◼</text><script type="text/javascript"><![CDATA[function RecurringTimer(e,t){var n,r,i=t;this.pause=function(){window.clearTimeout(n);i-=new Date-r};var s=function(){r=new Date;n=window.setTimeout(function(){i=t;s();e()},i)};this.clear=function(){window.clearTimeout(n);i=t;n=window.setTimeout(function(){i=t;s();e()},i)};this.resume=s;this.resume()}function invoketimer(){timer=new RecurringTimer(function(){svg.setCurrentTime(0)},8500)}var svg=document.getElementById("kanjivg");var pause=document.getElementById("pause");var reset=document.getElementById("reset");var timer;invoketimer();reset.onclick=function(){svg.setCurrentTime(0);timer.clear();svg.unpauseAnimations();pause.innerHTML = "◼";};pause.onclick=function(){if(svg.animationsPaused()){svg.unpauseAnimations();timer.resume();pause.innerHTML="◼"}else{svg.pauseAnimations();timer.pause();pause.innerHTML="▶"}}]]></script></svg>