<svg id="kanjivg" width="106" height="126" xmlns="http://www.w3.org/2000/svg" xmlns:xlink="http://www.w3.org/1999/xlink" xml:space="preserve" version="1.1" baseProfile="full"><defs><style type="text/css"><![CDATA[path.black { fill:none;stroke:black;stroke-width:5;stroke-linecap:round;stroke-linejoin:round; }path.grey { fill:none;stroke:#ddd;stroke-width:5;stroke-linecap:round;stroke-linejoin:round; }path.stroke { fill:none;stroke:black;stroke-width:5;stroke-linecap:round;stroke-linejoin:round; }rect { fill:none;stroke:#555;stroke-width:2;} text{font-size:16px;font-family:Segoe UI Symbol,Cambria Math,DejaVu Sans,Symbola,Quivira,STIX,Code2000;-webkit-touch-callout:none;cursor:pointer;-webkit-user-select:none;-khtml-user-select:none;-moz-user-select:none;-ms-user-select:none;user-select: none;} #reset { font-weight:bold; }]]></style><marker id="markerStart" markerWidth="8" markerHeight="8" style="overflow:visible;"><circle cx="0" cy="0" r="1.5" style="stroke:none;fill:red;fill-opacity:0.5;"/></marker><marker id="markerEnd" style="overflow:visible;"><circle cx="0" cy="0" r="0.8" style="stroke:none;fill:blue;fill-opacity:0.5;"><animate attributeName="opacity" from="1" to="0" dur="3s" repeatCount="indefinite" /></circle></marker></defs><rect x="4" y="4" width="100" height="100" /><path d="M17.05,32.07c1.41,0.72,3.06,1.45,5.17,1.21c2.12-0.24,25.95-4.36,28.78-4.36c1.74,0,3.49,1.08,2.74,3.83c-1.2,4.4-2.25,12.5-2.75,18" class="grey" /><path d="M12.12,55.03c0.91,0.42,3.25,0.7,4.24,0.59c12.13-1.37,28.87-4.01,40.04-4.94c2.09-0.17,4.09-0.17,5.87,0.39" class="grey" /><path d="M34.91,15.25c0.59,1,1.61,2.08,1.7,4.17C38,50.5,34.25,78.5,15.5,93.25" class="grey" /><path d="M38.56,60.96c6.29,4.27,14.04,14.4,17.55,21.67" class="grey" /><path d="M70.27,24.33c0.98,0.92,1.67,1.99,1.76,5.02C72.42,43.91,72,61.04,72,66" class="grey" /><path d="M88.77,13.33c0.98,0.92,1.67,1.99,1.76,5.02c0.4,14.55-0.26,65.16-0.26,70.12c0,13.14-7.21,1.5-8.71,0.25" class="grey" /><path d="M17.05,32.07c1.41,0.72,3.06,1.45,5.17,1.21c2.12-0.24,25.95-4.36,28.78-4.36c1.74,0,3.49,1.08,2.74,3.83c-1.2,4.4-2.25,12.5-2.75,18" class="stroke" stroke-dasharray="150"><animate attributeName="stroke-dashoffset" from="150" to="0" dur="1.8s" begin="0s" fill="freeze" /></path><path d="M12.12,55.03c0.91,0.42,3.25,0.7,4.24,0.59c12.13-1.37,28.87-4.01,40.04-4.94c2.09-0.17,4.09-0.17,5.87,0.39" class="stroke" stroke-dasharray="150"><set attributeName="opacity" to="0" dur="1.4s" /><animate attributeName="stroke-dashoffset" from="150" to="0" dur="1.8s" begin="1.4s" fill="freeze" /></path><path d="M34.91,15.25c0.59,1,1.61,2.08,1.7,4.17C38,50.5,34.25,78.5,15.5,93.25" class="stroke" stroke-dasharray="150"><set attributeName="opacity" to="0" dur="2.7s" /><animate attributeName="stroke-dashoffset" from="150" to="0" dur="1.8s" begin="2.7s" fill="freeze" /></path><path d="M38.56,60.96c6.29,4.27,14.04,14.4,17.55,21.67" class="stroke" stroke-dasharray="150"><set attributeName="opacity" to="0" dur="4.4s" /><animate attributeName="stroke-dashoffset" from="150" to="0" dur="1.8s" begin="4.4s" fill="freeze" /></path><path d="M70.27,24.33c0.98,0.92,1.67,1.99,1.76,5.02C72.42,43.91,72,61.04,72,66" class="stroke" stroke-dasharray="150"><set attributeName="opacity" to="0" dur="5.4s" /><animate attributeName="stroke-dashoffset" from="150" to="0" dur="1.8s" begin="5.4s" fill="freeze" /></path><path d="M88.77,13.33c0.98,0.92,1.67,1.99,1.76,5.02c0.4,14.55-0.26,65.16-0.26,70.12c0,13.14-7.21,1.5-8.71,0.25" class="stroke" stroke-dasharray="150"><set attributeName="opacity" to="0" dur="6.5s" /><animate attributeName="stroke-dashoffset" from="150" to="0" dur="1.8s" begin="6.5s" fill="freeze" /></path><text x="90" y="120" id="reset">⟳</text><text x="70" y="120" id="pause">◼</text><script type="text/javascript"><![CDATA[function RecurringTimer(e,t){var n,r,i=t;this.pause=function(){window.clearTimeout(n);i-=new Date-r};var s=function(){r=new Date;n=window.setTimeout(function(){i=t;s();e()},i)};this.clear=function(){window.clearTimeout(n);i=t;n=window.setTimeout(function(){i=t;s();e()},i)};this.resume=s;this.resume()}function invoketimer(){timer=new RecurringTimer(function(){svg.setCurrentTime(0)},9300)}var svg=document.getElementById("kanjivg");var pause=document.getElementById("pause");var reset=document.getElementById("reset");var timer;invoketimer();reset.onclick=function(){svg.setCurrentTime(0);timer.clear();svg.unpauseAnimations();pause.innerHTML = "◼";};pause.onclick=function(){if(svg.animationsPaused()){svg.unpauseAnimations();timer.resume();pause.innerHTML="◼"}else{svg.pauseAnimations();timer.pause();pause.innerHTML="▶"}}]]></script></svg>