<svg id="kanjivg" width="106" height="126" xmlns="http://www.w3.org/2000/svg" xmlns:xlink="http://www.w3.org/1999/xlink" xml:space="preserve" version="1.1" baseProfile="full"><defs><style type="text/css"><![CDATA[path.black { fill:none;stroke:black;stroke-width:5;stroke-linecap:round;stroke-linejoin:round; }path.grey { fill:none;stroke:#ddd;stroke-width:5;stroke-linecap:round;stroke-linejoin:round; }path.stroke { fill:none;stroke:black;stroke-width:5;stroke-linecap:round;stroke-linejoin:round; }rect { fill:none;stroke:#555;stroke-width:2;} text{font-size:16px;font-family:Segoe UI Symbol,Cambria Math,DejaVu Sans,Symbola,Quivira,STIX,Code2000;-webkit-touch-callout:none;cursor:pointer;-webkit-user-select:none;-khtml-user-select:none;-moz-user-select:none;-ms-user-select:none;user-select: none;} #reset { font-weight:bold; }]]></style><marker id="markerStart" markerWidth="8" markerHeight="8" style="overflow:visible;"><circle cx="0" cy="0" r="1.5" style="stroke:none;fill:red;fill-opacity:0.5;"/></marker><marker id="markerEnd" style="overflow:visible;"><circle cx="0" cy="0" r="0.8" style="stroke:none;fill:blue;fill-opacity:0.5;"><animate attributeName="opacity" from="1" to="0" dur="3s" repeatCount="indefinite" /></circle></marker></defs><rect x="4" y="4" width="100" height="100" /><path d="M15.75,23.39c1.97,0.8,4.94,0.48,6.98,0.23c7.31-0.91,21.32-2.67,28.78-3.29c2.18-0.18,4.34-0.34,6.49,0.19" class="grey" /><path d="M11.75,50.64c2.16,0.88,5.4,0.42,7.65,0.13c8.6-1.12,26.45-3.44,35.35-4.32c2.4-0.24,5.14-0.26,7.5,0.32" class="grey" /><path d="M28.22,25.82c1.23,1.23,1.4,2.69,1.44,4.5c0.84,40.93-2.53,51.8-14.91,62.93" class="grey" /><path d="M46.25,23.13c0.75,0.75,1.16,2.74,1.16,4.24c0,6.5-0.02,41.77-0.03,57.13c0,3.8,0,6.38,0,7" class="grey" /><path d="M71.02,26.33c0.98,0.92,1.76,2.67,1.76,5.02c0,10.52,0.06,22.4,0.06,30.65c0,3.5-0.08,6.24-0.08,7.75" class="grey" /><path d="M90.77,15.83c1.2,1.2,1.76,2.67,1.76,5.02c0,14.56-0.01,62.41-0.01,67.37c0,8.12-5.52,5.41-9.96,0.75" class="grey" /><path d="M15.75,23.39c1.97,0.8,4.94,0.48,6.98,0.23c7.31-0.91,21.32-2.67,28.78-3.29c2.18-0.18,4.34-0.34,6.49,0.19" class="stroke" stroke-dasharray="150"><animate attributeName="stroke-dashoffset" from="150" to="0" dur="1.8s" begin="0s" fill="freeze" /></path><path d="M11.75,50.64c2.16,0.88,5.4,0.42,7.65,0.13c8.6-1.12,26.45-3.44,35.35-4.32c2.4-0.24,5.14-0.26,7.5,0.32" class="stroke" stroke-dasharray="150"><set attributeName="opacity" to="0" dur="1.1s" /><animate attributeName="stroke-dashoffset" from="150" to="0" dur="1.8s" begin="1.1s" fill="freeze" /></path><path d="M28.22,25.82c1.23,1.23,1.4,2.69,1.44,4.5c0.84,40.93-2.53,51.8-14.91,62.93" class="stroke" stroke-dasharray="150"><set attributeName="opacity" to="0" dur="2.4000000000000004s" /><animate attributeName="stroke-dashoffset" from="150" to="0" dur="1.8s" begin="2.4000000000000004s" fill="freeze" /></path><path d="M46.25,23.13c0.75,0.75,1.16,2.74,1.16,4.24c0,6.5-0.02,41.77-0.03,57.13c0,3.8,0,6.38,0,7" class="stroke" stroke-dasharray="150"><set attributeName="opacity" to="0" dur="4.1000000000000005s" /><animate attributeName="stroke-dashoffset" from="150" to="0" dur="1.8s" begin="4.1000000000000005s" fill="freeze" /></path><path d="M71.02,26.33c0.98,0.92,1.76,2.67,1.76,5.02c0,10.52,0.06,22.4,0.06,30.65c0,3.5-0.08,6.24-0.08,7.75" class="stroke" stroke-dasharray="150"><set attributeName="opacity" to="0" dur="5.6000000000000005s" /><animate attributeName="stroke-dashoffset" from="150" to="0" dur="1.8s" begin="5.6000000000000005s" fill="freeze" /></path><path d="M90.77,15.83c1.2,1.2,1.76,2.67,1.76,5.02c0,14.56-0.01,62.41-0.01,67.37c0,8.12-5.52,5.41-9.96,0.75" class="stroke" stroke-dasharray="150"><set attributeName="opacity" to="0" dur="6.700000000000001s" /><animate attributeName="stroke-dashoffset" from="150" to="0" dur="1.8s" begin="6.700000000000001s" fill="freeze" /></path><text x="90" y="120" id="reset">⟳</text><text x="70" y="120" id="pause">◼</text><script type="text/javascript"><![CDATA[function RecurringTimer(e,t){var n,r,i=t;this.pause=function(){window.clearTimeout(n);i-=new Date-r};var s=function(){r=new Date;n=window.setTimeout(function(){i=t;s();e()},i)};this.clear=function(){window.clearTimeout(n);i=t;n=window.setTimeout(function(){i=t;s();e()},i)};this.resume=s;this.resume()}function invoketimer(){timer=new RecurringTimer(function(){svg.setCurrentTime(0)},9400)}var svg=document.getElementById("kanjivg");var pause=document.getElementById("pause");var reset=document.getElementById("reset");var timer;invoketimer();reset.onclick=function(){svg.setCurrentTime(0);timer.clear();svg.unpauseAnimations();pause.innerHTML = "◼";};pause.onclick=function(){if(svg.animationsPaused()){svg.unpauseAnimations();timer.resume();pause.innerHTML="◼"}else{svg.pauseAnimations();timer.pause();pause.innerHTML="▶"}}]]></script></svg>