<svg id="kanjivg" width="106" height="126" xmlns="http://www.w3.org/2000/svg" xmlns:xlink="http://www.w3.org/1999/xlink" xml:space="preserve" version="1.1" baseProfile="full"><defs><style type="text/css"><![CDATA[path.black { fill:none;stroke:black;stroke-width:5;stroke-linecap:round;stroke-linejoin:round; }path.grey { fill:none;stroke:#ddd;stroke-width:5;stroke-linecap:round;stroke-linejoin:round; }path.stroke { fill:none;stroke:black;stroke-width:5;stroke-linecap:round;stroke-linejoin:round; }rect { fill:none;stroke:#555;stroke-width:2;} text{font-size:16px;font-family:Segoe UI Symbol,Cambria Math,DejaVu Sans,Symbola,Quivira,STIX,Code2000;-webkit-touch-callout:none;cursor:pointer;-webkit-user-select:none;-khtml-user-select:none;-moz-user-select:none;-ms-user-select:none;user-select: none;} #reset { font-weight:bold; }]]></style><marker id="markerStart" markerWidth="8" markerHeight="8" style="overflow:visible;"><circle cx="0" cy="0" r="1.5" style="stroke:none;fill:red;fill-opacity:0.5;"/></marker><marker id="markerEnd" style="overflow:visible;"><circle cx="0" cy="0" r="0.8" style="stroke:none;fill:blue;fill-opacity:0.5;"><animate attributeName="opacity" from="1" to="0" dur="3s" repeatCount="indefinite" /></circle></marker></defs><rect x="4" y="4" width="100" height="100" /><path d="M47.06,12.75c-0.18,1.25-0.85,2.42-1.55,3.13c-3.76,3.81-14.5,9.65-29.46,14.58" class="grey" /><path d="M11.87,44.95c2.25,0.67,4.36,0.65,6.16,0.37c7.23-1.14,23.24-4.6,31.72-5.53c1.5-0.16,4-0.41,5.47-0.23" class="grey" /><path d="M35.68,25.38c1.34,1.34,1.84,3.12,1.84,5.17c0,4.73,0.05,43.08,0.07,60.08c0,3.57,0.01,6.2,0.01,7.38" class="grey" /><path d="M36.13,43.18c0,0.94-0.6,2.55-0.92,3.34C30.61,57.8,23.05,71.22,13.61,80.17" class="grey" /><path d="M40.62,51.12c4.8,2.29,8.87,6.86,11.46,9.8" class="grey" /><path d="M66.52,27.33c1.26,1.26,1.76,2.67,1.76,5.02c0,11.08-0.01,22.53-0.02,29.65c0,2.37,0,4.26,0,5.5" class="grey" /><path d="M90.27,11.33c1.2,1.2,1.76,2.79,1.76,5.02c0,14.56-0.26,70.65-0.26,75.87c0,11.78-6.96,1.5-8.46,0.25" class="grey" /><path d="M47.06,12.75c-0.18,1.25-0.85,2.42-1.55,3.13c-3.76,3.81-14.5,9.65-29.46,14.58" class="stroke" stroke-dasharray="150"><animate attributeName="stroke-dashoffset" from="150" to="0" dur="1.8s" begin="0s" fill="freeze" /></path><path d="M11.87,44.95c2.25,0.67,4.36,0.65,6.16,0.37c7.23-1.14,23.24-4.6,31.72-5.53c1.5-0.16,4-0.41,5.47-0.23" class="stroke" stroke-dasharray="150"><set attributeName="opacity" to="0" dur="1.0s" /><animate attributeName="stroke-dashoffset" from="150" to="0" dur="1.8s" begin="1.0s" fill="freeze" /></path><path d="M35.68,25.38c1.34,1.34,1.84,3.12,1.84,5.17c0,4.73,0.05,43.08,0.07,60.08c0,3.57,0.01,6.2,0.01,7.38" class="stroke" stroke-dasharray="150"><set attributeName="opacity" to="0" dur="2.1s" /><animate attributeName="stroke-dashoffset" from="150" to="0" dur="1.8s" begin="2.1s" fill="freeze" /></path><path d="M36.13,43.18c0,0.94-0.6,2.55-0.92,3.34C30.61,57.8,23.05,71.22,13.61,80.17" class="stroke" stroke-dasharray="150"><set attributeName="opacity" to="0" dur="3.8s" /><animate attributeName="stroke-dashoffset" from="150" to="0" dur="1.8s" begin="3.8s" fill="freeze" /></path><path d="M40.62,51.12c4.8,2.29,8.87,6.86,11.46,9.8" class="stroke" stroke-dasharray="150"><set attributeName="opacity" to="0" dur="4.9s" /><animate attributeName="stroke-dashoffset" from="150" to="0" dur="1.8s" begin="4.9s" fill="freeze" /></path><path d="M66.52,27.33c1.26,1.26,1.76,2.67,1.76,5.02c0,11.08-0.01,22.53-0.02,29.65c0,2.37,0,4.26,0,5.5" class="stroke" stroke-dasharray="150"><set attributeName="opacity" to="0" dur="5.800000000000001s" /><animate attributeName="stroke-dashoffset" from="150" to="0" dur="1.8s" begin="5.800000000000001s" fill="freeze" /></path><path d="M90.27,11.33c1.2,1.2,1.76,2.79,1.76,5.02c0,14.56-0.26,70.65-0.26,75.87c0,11.78-6.96,1.5-8.46,0.25" class="stroke" stroke-dasharray="150"><set attributeName="opacity" to="0" dur="6.9s" /><animate attributeName="stroke-dashoffset" from="150" to="0" dur="1.8s" begin="6.9s" fill="freeze" /></path><text x="90" y="120" id="reset">⟳</text><text x="70" y="120" id="pause">◼</text><script type="text/javascript"><![CDATA[function RecurringTimer(e,t){var n,r,i=t;this.pause=function(){window.clearTimeout(n);i-=new Date-r};var s=function(){r=new Date;n=window.setTimeout(function(){i=t;s();e()},i)};this.clear=function(){window.clearTimeout(n);i=t;n=window.setTimeout(function(){i=t;s();e()},i)};this.resume=s;this.resume()}function invoketimer(){timer=new RecurringTimer(function(){svg.setCurrentTime(0)},9700)}var svg=document.getElementById("kanjivg");var pause=document.getElementById("pause");var reset=document.getElementById("reset");var timer;invoketimer();reset.onclick=function(){svg.setCurrentTime(0);timer.clear();svg.unpauseAnimations();pause.innerHTML = "◼";};pause.onclick=function(){if(svg.animationsPaused()){svg.unpauseAnimations();timer.resume();pause.innerHTML="◼"}else{svg.pauseAnimations();timer.pause();pause.innerHTML="▶"}}]]></script></svg>