<svg id="kanjivg" width="106" height="126" xmlns="http://www.w3.org/2000/svg" xmlns:xlink="http://www.w3.org/1999/xlink" xml:space="preserve" version="1.1" baseProfile="full"><defs><style type="text/css"><![CDATA[path.black { fill:none;stroke:black;stroke-width:5;stroke-linecap:round;stroke-linejoin:round; }path.grey { fill:none;stroke:#ddd;stroke-width:5;stroke-linecap:round;stroke-linejoin:round; }path.stroke { fill:none;stroke:black;stroke-width:5;stroke-linecap:round;stroke-linejoin:round; }rect { fill:none;stroke:#555;stroke-width:2;} text{font-size:16px;font-family:Segoe UI Symbol,Cambria Math,DejaVu Sans,Symbola,Quivira,STIX,Code2000;-webkit-touch-callout:none;cursor:pointer;-webkit-user-select:none;-khtml-user-select:none;-moz-user-select:none;-ms-user-select:none;user-select: none;} #reset { font-weight:bold; }]]></style><marker id="markerStart" markerWidth="8" markerHeight="8" style="overflow:visible;"><circle cx="0" cy="0" r="1.5" style="stroke:none;fill:red;fill-opacity:0.5;"/></marker><marker id="markerEnd" style="overflow:visible;"><circle cx="0" cy="0" r="0.8" style="stroke:none;fill:blue;fill-opacity:0.5;"><animate attributeName="opacity" from="1" to="0" dur="3s" repeatCount="indefinite" /></circle></marker></defs><rect x="4" y="4" width="100" height="100" /><path d="M18.79,24.46c2.54,2.29,6.56,9.44,7.19,13.01" class="grey" /><path d="M56.78,18.75c0.11,1.25-0.1,2.26-0.67,3.37c-1.8,3.44-4.6,8.39-8.95,12.88" class="grey" /><path d="M18.58,48.83c1.64,0.73,4.09,0.3,5.78-0.01c7.08-1.29,18.54-3.55,25.63-4.32c1.65-0.18,3.63-0.12,5.23,0.31" class="grey" /><path d="M13.75,67.59c1.99,0.78,4.77,0.6,6.85,0.27c8.67-1.39,25.05-4.45,32.92-5.45c2.19-0.28,4.59-0.38,6.73,0.12" class="grey" /><path d="M36.62,14c1,1,1.71,2.88,1.71,4c0,5.25,0.04,54.43,0.04,73.5c0,4.52,0,7.35-0.01,7.5" class="grey" /><path d="M69.02,25.83c0.98,0.92,1.76,2.67,1.76,5.02c0,12.4,0.04,23.65,0.04,31.65c0,2.66-0.06,4.75-0.06,6" class="grey" /><path d="M90.27,11.58c0.98,0.92,1.76,2.67,1.76,4.52c0,20.15-0.01,65.65-0.01,73.37c0,12.53-7.21,1.5-8.71,0.25" class="grey" /><path d="M18.79,24.46c2.54,2.29,6.56,9.44,7.19,13.01" class="stroke" stroke-dasharray="150"><animate attributeName="stroke-dashoffset" from="150" to="0" dur="1.8s" begin="0s" fill="freeze" /></path><path d="M56.78,18.75c0.11,1.25-0.1,2.26-0.67,3.37c-1.8,3.44-4.6,8.39-8.95,12.88" class="stroke" stroke-dasharray="150"><set attributeName="opacity" to="0" dur="0.9s" /><animate attributeName="stroke-dashoffset" from="150" to="0" dur="1.8s" begin="0.9s" fill="freeze" /></path><path d="M18.58,48.83c1.64,0.73,4.09,0.3,5.78-0.01c7.08-1.29,18.54-3.55,25.63-4.32c1.65-0.18,3.63-0.12,5.23,0.31" class="stroke" stroke-dasharray="150"><set attributeName="opacity" to="0" dur="1.8s" /><animate attributeName="stroke-dashoffset" from="150" to="0" dur="1.8s" begin="1.8s" fill="freeze" /></path><path d="M13.75,67.59c1.99,0.78,4.77,0.6,6.85,0.27c8.67-1.39,25.05-4.45,32.92-5.45c2.19-0.28,4.59-0.38,6.73,0.12" class="stroke" stroke-dasharray="150"><set attributeName="opacity" to="0" dur="2.8s" /><animate attributeName="stroke-dashoffset" from="150" to="0" dur="1.8s" begin="2.8s" fill="freeze" /></path><path d="M36.62,14c1,1,1.71,2.88,1.71,4c0,5.25,0.04,54.43,0.04,73.5c0,4.52,0,7.35-0.01,7.5" class="stroke" stroke-dasharray="150"><set attributeName="opacity" to="0" dur="4.0s" /><animate attributeName="stroke-dashoffset" from="150" to="0" dur="1.8s" begin="4.0s" fill="freeze" /></path><path d="M69.02,25.83c0.98,0.92,1.76,2.67,1.76,5.02c0,12.4,0.04,23.65,0.04,31.65c0,2.66-0.06,4.75-0.06,6" class="stroke" stroke-dasharray="150"><set attributeName="opacity" to="0" dur="5.7s" /><animate attributeName="stroke-dashoffset" from="150" to="0" dur="1.8s" begin="5.7s" fill="freeze" /></path><path d="M90.27,11.58c0.98,0.92,1.76,2.67,1.76,4.52c0,20.15-0.01,65.65-0.01,73.37c0,12.53-7.21,1.5-8.71,0.25" class="stroke" stroke-dasharray="150"><set attributeName="opacity" to="0" dur="6.800000000000001s" /><animate attributeName="stroke-dashoffset" from="150" to="0" dur="1.8s" begin="6.800000000000001s" fill="freeze" /></path><text x="90" y="120" id="reset">⟳</text><text x="70" y="120" id="pause">◼</text><script type="text/javascript"><![CDATA[function RecurringTimer(e,t){var n,r,i=t;this.pause=function(){window.clearTimeout(n);i-=new Date-r};var s=function(){r=new Date;n=window.setTimeout(function(){i=t;s();e()},i)};this.clear=function(){window.clearTimeout(n);i=t;n=window.setTimeout(function(){i=t;s();e()},i)};this.resume=s;this.resume()}function invoketimer(){timer=new RecurringTimer(function(){svg.setCurrentTime(0)},9600)}var svg=document.getElementById("kanjivg");var pause=document.getElementById("pause");var reset=document.getElementById("reset");var timer;invoketimer();reset.onclick=function(){svg.setCurrentTime(0);timer.clear();svg.unpauseAnimations();pause.innerHTML = "◼";};pause.onclick=function(){if(svg.animationsPaused()){svg.unpauseAnimations();timer.resume();pause.innerHTML="◼"}else{svg.pauseAnimations();timer.pause();pause.innerHTML="▶"}}]]></script></svg>