<svg id="kanjivg" width="106" height="126" xmlns="http://www.w3.org/2000/svg" xmlns:xlink="http://www.w3.org/1999/xlink" xml:space="preserve" version="1.1" baseProfile="full"><defs><style type="text/css"><![CDATA[path.black { fill:none;stroke:black;stroke-width:5;stroke-linecap:round;stroke-linejoin:round; }path.grey { fill:none;stroke:#ddd;stroke-width:5;stroke-linecap:round;stroke-linejoin:round; }path.stroke { fill:none;stroke:black;stroke-width:5;stroke-linecap:round;stroke-linejoin:round; }rect { fill:none;stroke:#555;stroke-width:2;} text{font-size:16px;font-family:Segoe UI Symbol,Cambria Math,DejaVu Sans,Symbola,Quivira,STIX,Code2000;-webkit-touch-callout:none;cursor:pointer;-webkit-user-select:none;-khtml-user-select:none;-moz-user-select:none;-ms-user-select:none;user-select: none;} #reset { font-weight:bold; }]]></style><marker id="markerStart" markerWidth="8" markerHeight="8" style="overflow:visible;"><circle cx="0" cy="0" r="1.5" style="stroke:none;fill:red;fill-opacity:0.5;"/></marker><marker id="markerEnd" style="overflow:visible;"><circle cx="0" cy="0" r="0.8" style="stroke:none;fill:blue;fill-opacity:0.5;"><animate attributeName="opacity" from="1" to="0" dur="3s" repeatCount="indefinite" /></circle></marker></defs><rect x="4" y="4" width="100" height="100" /><path d="M18.67,24.33c2.58,2.41,6.67,9.89,7.32,13.63" class="grey" /><path d="M56.78,19c0.03,0.39,0.05,1-0.05,1.56c-0.64,3.29-4.8,10.02-9.82,14.44" class="grey" /><path d="M18.58,48.83c1.53,0.68,3.83,0.35,5.42,0.05c7.35-1.38,19.6-3.54,26.76-4.21c1.57-0.15,2.95-0.26,4.47,0.15" class="grey" /><path d="M14,67.84c1.93,0.75,4.01,0.46,5.98,0.16c8.59-1.35,26.11-4.49,34.03-5.4c2.14-0.25,4.12-0.3,6.24,0.19" class="grey" /><path d="M37.37,14.25c1.06,1.06,1.21,2.38,1.21,4c0,39.5,1.3,63-8.22,80.75" class="grey" /><path d="M69.27,25.83c0.98,0.92,1.76,2.54,1.76,5.02c0,11.84-0.01,23.75-0.02,31.27c0,2.82,0,5.02,0,6.38" class="grey" /><path d="M90.27,11.83c0.98,0.92,1.76,2.79,1.76,5.02c0,16.65-0.01,67.66-0.01,72.62c0,12.53-7.21,1.5-8.71,0.25" class="grey" /><path d="M18.67,24.33c2.58,2.41,6.67,9.89,7.32,13.63" class="stroke" stroke-dasharray="150"><animate attributeName="stroke-dashoffset" from="150" to="0" dur="1.8s" begin="0s" fill="freeze" /></path><path d="M56.78,19c0.03,0.39,0.05,1-0.05,1.56c-0.64,3.29-4.8,10.02-9.82,14.44" class="stroke" stroke-dasharray="150"><set attributeName="opacity" to="0" dur="0.9s" /><animate attributeName="stroke-dashoffset" from="150" to="0" dur="1.8s" begin="0.9s" fill="freeze" /></path><path d="M18.58,48.83c1.53,0.68,3.83,0.35,5.42,0.05c7.35-1.38,19.6-3.54,26.76-4.21c1.57-0.15,2.95-0.26,4.47,0.15" class="stroke" stroke-dasharray="150"><set attributeName="opacity" to="0" dur="1.8s" /><animate attributeName="stroke-dashoffset" from="150" to="0" dur="1.8s" begin="1.8s" fill="freeze" /></path><path d="M14,67.84c1.93,0.75,4.01,0.46,5.98,0.16c8.59-1.35,26.11-4.49,34.03-5.4c2.14-0.25,4.12-0.3,6.24,0.19" class="stroke" stroke-dasharray="150"><set attributeName="opacity" to="0" dur="2.8s" /><animate attributeName="stroke-dashoffset" from="150" to="0" dur="1.8s" begin="2.8s" fill="freeze" /></path><path d="M37.37,14.25c1.06,1.06,1.21,2.38,1.21,4c0,39.5,1.3,63-8.22,80.75" class="stroke" stroke-dasharray="150"><set attributeName="opacity" to="0" dur="4.0s" /><animate attributeName="stroke-dashoffset" from="150" to="0" dur="1.8s" begin="4.0s" fill="freeze" /></path><path d="M69.27,25.83c0.98,0.92,1.76,2.54,1.76,5.02c0,11.84-0.01,23.75-0.02,31.27c0,2.82,0,5.02,0,6.38" class="stroke" stroke-dasharray="150"><set attributeName="opacity" to="0" dur="5.7s" /><animate attributeName="stroke-dashoffset" from="150" to="0" dur="1.8s" begin="5.7s" fill="freeze" /></path><path d="M90.27,11.83c0.98,0.92,1.76,2.79,1.76,5.02c0,16.65-0.01,67.66-0.01,72.62c0,12.53-7.21,1.5-8.71,0.25" class="stroke" stroke-dasharray="150"><set attributeName="opacity" to="0" dur="6.800000000000001s" /><animate attributeName="stroke-dashoffset" from="150" to="0" dur="1.8s" begin="6.800000000000001s" fill="freeze" /></path><text x="90" y="120" id="reset">⟳</text><text x="70" y="120" id="pause">◼</text><script type="text/javascript"><![CDATA[function RecurringTimer(e,t){var n,r,i=t;this.pause=function(){window.clearTimeout(n);i-=new Date-r};var s=function(){r=new Date;n=window.setTimeout(function(){i=t;s();e()},i)};this.clear=function(){window.clearTimeout(n);i=t;n=window.setTimeout(function(){i=t;s();e()},i)};this.resume=s;this.resume()}function invoketimer(){timer=new RecurringTimer(function(){svg.setCurrentTime(0)},9600)}var svg=document.getElementById("kanjivg");var pause=document.getElementById("pause");var reset=document.getElementById("reset");var timer;invoketimer();reset.onclick=function(){svg.setCurrentTime(0);timer.clear();svg.unpauseAnimations();pause.innerHTML = "◼";};pause.onclick=function(){if(svg.animationsPaused()){svg.unpauseAnimations();timer.resume();pause.innerHTML="◼"}else{svg.pauseAnimations();timer.pause();pause.innerHTML="▶"}}]]></script></svg>