<svg id="kanjivg" width="106" height="126" xmlns="http://www.w3.org/2000/svg" xmlns:xlink="http://www.w3.org/1999/xlink" xml:space="preserve" version="1.1" baseProfile="full"><defs><style type="text/css"><![CDATA[path.black { fill:none;stroke:black;stroke-width:5;stroke-linecap:round;stroke-linejoin:round; }path.grey { fill:none;stroke:#ddd;stroke-width:5;stroke-linecap:round;stroke-linejoin:round; }path.stroke { fill:none;stroke:black;stroke-width:5;stroke-linecap:round;stroke-linejoin:round; }rect { fill:none;stroke:#555;stroke-width:2;} text{font-size:16px;font-family:Segoe UI Symbol,Cambria Math,DejaVu Sans,Symbola,Quivira,STIX,Code2000;-webkit-touch-callout:none;cursor:pointer;-webkit-user-select:none;-khtml-user-select:none;-moz-user-select:none;-ms-user-select:none;user-select: none;} #reset { font-weight:bold; }]]></style><marker id="markerStart" markerWidth="8" markerHeight="8" style="overflow:visible;"><circle cx="0" cy="0" r="1.5" style="stroke:none;fill:red;fill-opacity:0.5;"/></marker><marker id="markerEnd" style="overflow:visible;"><circle cx="0" cy="0" r="0.8" style="stroke:none;fill:blue;fill-opacity:0.5;"><animate attributeName="opacity" from="1" to="0" dur="3s" repeatCount="indefinite" /></circle></marker></defs><rect x="4" y="4" width="100" height="100" /><path d="M46.81,12.75c0.08,0.43,0.18,1.11-0.17,1.72c-2.1,3.63-14.12,11.61-30.58,16.49" class="grey" /><path d="M11.87,45.2c0.44,0.25,1.6,0.64,2.77,0.73c3.2,0.24,30.14-5.66,38.15-6.88c1.16-0.18,1.46-0.24,2.18,0" class="grey" /><path d="M35.93,25.88c0.89,0.49,1.59,3.69,1.59,4.67c0,5.72-0.17,60.34-0.17,61.45c0,13.25-6.6,2-7.35,1.25" class="grey" /><path d="M36.38,44.43c-4.46,11.71-11.91,26.16-22.02,35.73" class="grey" /><path d="M40.46,50.84c4.87,2.35,9,7.05,11.62,10.08" class="grey" /><path d="M66.77,27.33c0.98,0.92,1.67,1.99,1.76,5.02c0.4,14.55-0.02,30.19-0.02,35.15" class="grey" /><path d="M89.77,11.83c0.98,0.92,1.67,1.99,1.76,5.02c0.4,14.55-0.26,71.16-0.26,76.12c0,11.78-6.71,1.5-8.21,0.25" class="grey" /><path d="M46.81,12.75c0.08,0.43,0.18,1.11-0.17,1.72c-2.1,3.63-14.12,11.61-30.58,16.49" class="stroke" stroke-dasharray="150"><animate attributeName="stroke-dashoffset" from="150" to="0" dur="1.8s" begin="0s" fill="freeze" /></path><path d="M11.87,45.2c0.44,0.25,1.6,0.64,2.77,0.73c3.2,0.24,30.14-5.66,38.15-6.88c1.16-0.18,1.46-0.24,2.18,0" class="stroke" stroke-dasharray="150"><set attributeName="opacity" to="0" dur="1.0s" /><animate attributeName="stroke-dashoffset" from="150" to="0" dur="1.8s" begin="1.0s" fill="freeze" /></path><path d="M35.93,25.88c0.89,0.49,1.59,3.69,1.59,4.67c0,5.72-0.17,60.34-0.17,61.45c0,13.25-6.6,2-7.35,1.25" class="stroke" stroke-dasharray="150"><set attributeName="opacity" to="0" dur="2.1s" /><animate attributeName="stroke-dashoffset" from="150" to="0" dur="1.8s" begin="2.1s" fill="freeze" /></path><path d="M36.38,44.43c-4.46,11.71-11.91,26.16-22.02,35.73" class="stroke" stroke-dasharray="150"><set attributeName="opacity" to="0" dur="3.8s" /><animate attributeName="stroke-dashoffset" from="150" to="0" dur="1.8s" begin="3.8s" fill="freeze" /></path><path d="M40.46,50.84c4.87,2.35,9,7.05,11.62,10.08" class="stroke" stroke-dasharray="150"><set attributeName="opacity" to="0" dur="4.9s" /><animate attributeName="stroke-dashoffset" from="150" to="0" dur="1.8s" begin="4.9s" fill="freeze" /></path><path d="M66.77,27.33c0.98,0.92,1.67,1.99,1.76,5.02c0.4,14.55-0.02,30.19-0.02,35.15" class="stroke" stroke-dasharray="150"><set attributeName="opacity" to="0" dur="5.800000000000001s" /><animate attributeName="stroke-dashoffset" from="150" to="0" dur="1.8s" begin="5.800000000000001s" fill="freeze" /></path><path d="M89.77,11.83c0.98,0.92,1.67,1.99,1.76,5.02c0.4,14.55-0.26,71.16-0.26,76.12c0,11.78-6.71,1.5-8.21,0.25" class="stroke" stroke-dasharray="150"><set attributeName="opacity" to="0" dur="6.9s" /><animate attributeName="stroke-dashoffset" from="150" to="0" dur="1.8s" begin="6.9s" fill="freeze" /></path><text x="90" y="120" id="reset">⟳</text><text x="70" y="120" id="pause">◼</text><script type="text/javascript"><![CDATA[function RecurringTimer(e,t){var n,r,i=t;this.pause=function(){window.clearTimeout(n);i-=new Date-r};var s=function(){r=new Date;n=window.setTimeout(function(){i=t;s();e()},i)};this.clear=function(){window.clearTimeout(n);i=t;n=window.setTimeout(function(){i=t;s();e()},i)};this.resume=s;this.resume()}function invoketimer(){timer=new RecurringTimer(function(){svg.setCurrentTime(0)},9700)}var svg=document.getElementById("kanjivg");var pause=document.getElementById("pause");var reset=document.getElementById("reset");var timer;invoketimer();reset.onclick=function(){svg.setCurrentTime(0);timer.clear();svg.unpauseAnimations();pause.innerHTML = "◼";};pause.onclick=function(){if(svg.animationsPaused()){svg.unpauseAnimations();timer.resume();pause.innerHTML="◼"}else{svg.pauseAnimations();timer.pause();pause.innerHTML="▶"}}]]></script></svg>