<svg id="kanjivg" width="106" height="126" xmlns="http://www.w3.org/2000/svg" xmlns:xlink="http://www.w3.org/1999/xlink" xml:space="preserve" version="1.1" baseProfile="full"><defs><style type="text/css"><![CDATA[path.black { fill:none;stroke:black;stroke-width:5;stroke-linecap:round;stroke-linejoin:round; }path.grey { fill:none;stroke:#ddd;stroke-width:5;stroke-linecap:round;stroke-linejoin:round; }path.stroke { fill:none;stroke:black;stroke-width:5;stroke-linecap:round;stroke-linejoin:round; }rect { fill:none;stroke:#555;stroke-width:2;} text{font-size:16px;font-family:Segoe UI Symbol,Cambria Math,DejaVu Sans,Symbola,Quivira,STIX,Code2000;-webkit-touch-callout:none;cursor:pointer;-webkit-user-select:none;-khtml-user-select:none;-moz-user-select:none;-ms-user-select:none;user-select: none;} #reset { font-weight:bold; }]]></style><marker id="markerStart" markerWidth="8" markerHeight="8" style="overflow:visible;"><circle cx="0" cy="0" r="1.5" style="stroke:none;fill:red;fill-opacity:0.5;"/></marker><marker id="markerEnd" style="overflow:visible;"><circle cx="0" cy="0" r="0.8" style="stroke:none;fill:blue;fill-opacity:0.5;"><animate attributeName="opacity" from="1" to="0" dur="3s" repeatCount="indefinite" /></circle></marker></defs><rect x="4" y="4" width="100" height="100" /><path d="M20,19.64c0.81,0.81,1.3,1.98,1.58,3.13c1.09,4.48,2.31,10.62,3.2,16.11c0.17,1.07,0.33,2.12,0.48,3.13" class="grey" /><path d="M22.13,21.53c8.81-1.37,22.1-3.5,28.37-4.31c3.81-0.49,5.13,0.6,4.29,4.29c-0.95,4.18-2.29,9.26-3.63,14.54" class="grey" /><path d="M26.2,39.58c4.97-0.5,15.78-1.67,23.94-2.4c1.36-0.12,2.65-0.23,3.83-0.32" class="grey" /><path d="M36.45,49.54c4.3,1.46,11.3,3.08,15.05,3.56c1.62,0.21,2.63,1.65,2.13,3.84c-0.89,3.97-8.9,25.29-15.66,33.27c-3.1,3.66-5.47,0.91-7-1.61" class="grey" /><path d="M36.5,41.5c0.06,0.9,0.21,1.85-0.13,3.13c-2.25,8.62-10.25,24.62-22.13,35.25" class="grey" /><path d="M69.02,25.83c0.98,0.92,1.76,2.42,1.76,5.02c0,10.9-0.01,21.65-0.02,28.65c0,2.41,0,4.37,0,5.75" class="grey" /><path d="M90.77,13.83c0.98,0.92,1.76,2.67,1.76,5.02c0,15.02-0.01,63.77-0.01,69.62c0,10.53-7.21,1.5-8.71,0.25" class="grey" /><path d="M20,19.64c0.81,0.81,1.3,1.98,1.58,3.13c1.09,4.48,2.31,10.62,3.2,16.11c0.17,1.07,0.33,2.12,0.48,3.13" class="stroke" stroke-dasharray="150"><animate attributeName="stroke-dashoffset" from="150" to="0" dur="1.8s" begin="0s" fill="freeze" /></path><path d="M22.13,21.53c8.81-1.37,22.1-3.5,28.37-4.31c3.81-0.49,5.13,0.6,4.29,4.29c-0.95,4.18-2.29,9.26-3.63,14.54" class="stroke" stroke-dasharray="150"><set attributeName="opacity" to="0" dur="1.0s" /><animate attributeName="stroke-dashoffset" from="150" to="0" dur="1.8s" begin="1.0s" fill="freeze" /></path><path d="M26.2,39.58c4.97-0.5,15.78-1.67,23.94-2.4c1.36-0.12,2.65-0.23,3.83-0.32" class="stroke" stroke-dasharray="150"><set attributeName="opacity" to="0" dur="2.3s" /><animate attributeName="stroke-dashoffset" from="150" to="0" dur="1.8s" begin="2.3s" fill="freeze" /></path><path d="M36.45,49.54c4.3,1.46,11.3,3.08,15.05,3.56c1.62,0.21,2.63,1.65,2.13,3.84c-0.89,3.97-8.9,25.29-15.66,33.27c-3.1,3.66-5.47,0.91-7-1.61" class="stroke" stroke-dasharray="150"><set attributeName="opacity" to="0" dur="3.3s" /><animate attributeName="stroke-dashoffset" from="150" to="0" dur="1.8s" begin="3.3s" fill="freeze" /></path><path d="M36.5,41.5c0.06,0.9,0.21,1.85-0.13,3.13c-2.25,8.62-10.25,24.62-22.13,35.25" class="stroke" stroke-dasharray="150"><set attributeName="opacity" to="0" dur="4.8s" /><animate attributeName="stroke-dashoffset" from="150" to="0" dur="1.8s" begin="4.8s" fill="freeze" /></path><path d="M69.02,25.83c0.98,0.92,1.76,2.42,1.76,5.02c0,10.9-0.01,21.65-0.02,28.65c0,2.41,0,4.37,0,5.75" class="stroke" stroke-dasharray="150"><set attributeName="opacity" to="0" dur="6.0s" /><animate attributeName="stroke-dashoffset" from="150" to="0" dur="1.8s" begin="6.0s" fill="freeze" /></path><path d="M90.77,13.83c0.98,0.92,1.76,2.67,1.76,5.02c0,15.02-0.01,63.77-0.01,69.62c0,10.53-7.21,1.5-8.71,0.25" class="stroke" stroke-dasharray="150"><set attributeName="opacity" to="0" dur="7.0s" /><animate attributeName="stroke-dashoffset" from="150" to="0" dur="1.8s" begin="7.0s" fill="freeze" /></path><text x="90" y="120" id="reset">⟳</text><text x="70" y="120" id="pause">◼</text><script type="text/javascript"><![CDATA[function RecurringTimer(e,t){var n,r,i=t;this.pause=function(){window.clearTimeout(n);i-=new Date-r};var s=function(){r=new Date;n=window.setTimeout(function(){i=t;s();e()},i)};this.clear=function(){window.clearTimeout(n);i=t;n=window.setTimeout(function(){i=t;s();e()},i)};this.resume=s;this.resume()}function invoketimer(){timer=new RecurringTimer(function(){svg.setCurrentTime(0)},9700)}var svg=document.getElementById("kanjivg");var pause=document.getElementById("pause");var reset=document.getElementById("reset");var timer;invoketimer();reset.onclick=function(){svg.setCurrentTime(0);timer.clear();svg.unpauseAnimations();pause.innerHTML = "◼";};pause.onclick=function(){if(svg.animationsPaused()){svg.unpauseAnimations();timer.resume();pause.innerHTML="◼"}else{svg.pauseAnimations();timer.pause();pause.innerHTML="▶"}}]]></script></svg>