<svg id="kanjivg" width="106" height="126" xmlns="http://www.w3.org/2000/svg" xmlns:xlink="http://www.w3.org/1999/xlink" xml:space="preserve" version="1.1" baseProfile="full"><defs><style type="text/css"><![CDATA[path.black { fill:none;stroke:black;stroke-width:5;stroke-linecap:round;stroke-linejoin:round; }path.grey { fill:none;stroke:#ddd;stroke-width:5;stroke-linecap:round;stroke-linejoin:round; }path.stroke { fill:none;stroke:black;stroke-width:5;stroke-linecap:round;stroke-linejoin:round; }rect { fill:none;stroke:#555;stroke-width:2;} text{font-size:16px;font-family:Segoe UI Symbol,Cambria Math,DejaVu Sans,Symbola,Quivira,STIX,Code2000;-webkit-touch-callout:none;cursor:pointer;-webkit-user-select:none;-khtml-user-select:none;-moz-user-select:none;-ms-user-select:none;user-select: none;} #reset { font-weight:bold; }]]></style><marker id="markerStart" markerWidth="8" markerHeight="8" style="overflow:visible;"><circle cx="0" cy="0" r="1.5" style="stroke:none;fill:red;fill-opacity:0.5;"/></marker><marker id="markerEnd" style="overflow:visible;"><circle cx="0" cy="0" r="0.8" style="stroke:none;fill:blue;fill-opacity:0.5;"><animate attributeName="opacity" from="1" to="0" dur="3s" repeatCount="indefinite" /></circle></marker></defs><rect x="4" y="4" width="100" height="100" /><path d="M17.33,32.84c0.69,0.34,1.96,0.38,2.65,0.34c6.07-0.34,22.1-2.27,31.23-2.79c1.15-0.07,1.84,0.16,2.42,0.33" class="grey" /><path d="M35.67,13c0.09,0.31,1.26,1.63,1.35,3.61c0.43,9.52,0.11,31.2,0.11,34.44" class="grey" /><path d="M10.25,53c1.05,0.48,2.98,0.62,4.04,0.48c13.46-1.73,29.46-3.23,41.03-4.48c1.74-0.19,2.81,0.23,3.68,0.47" class="grey" /><path d="M34.72,55.13c0.24,1.09,0.08,2.65-0.21,3.28c-4.51,9.84-9.12,20.11-14.49,27.1c-1.68,2.19-1.43,4.46,1.25,3.66c7.11-2.13,20.56-6.62,30.86-9.9" class="grey" /><path d="M43.78,66.85c3.79,3.25,9.78,13.35,10.72,18.4" class="grey" /><path d="M58.58,24.82c1.43,0.9,3.22,1.16,4.49,0.98c11.19-1.55,19.77-2.62,25.44-3.54c3.68-0.6,5.57,1.23,5.5,4.37c-0.25,12.87-3,47.62-7.79,63.1c-2.59,8.4-5.72,3.77-9.33-0.4" class="grey" /><path d="M72.01,26.68c0.49,1.82,0.63,4.17,0.4,6.48C70.7,50.25,68,76.75,54.14,94.65" class="grey" /><path d="M17.33,32.84c0.69,0.34,1.96,0.38,2.65,0.34c6.07-0.34,22.1-2.27,31.23-2.79c1.15-0.07,1.84,0.16,2.42,0.33" class="stroke" stroke-dasharray="150"><animate attributeName="stroke-dashoffset" from="150" to="0" dur="1.8s" begin="0s" fill="freeze" /></path><path d="M35.67,13c0.09,0.31,1.26,1.63,1.35,3.61c0.43,9.52,0.11,31.2,0.11,34.44" class="stroke" stroke-dasharray="150"><set attributeName="opacity" to="0" dur="1.0s" /><animate attributeName="stroke-dashoffset" from="150" to="0" dur="1.8s" begin="1.0s" fill="freeze" /></path><path d="M10.25,53c1.05,0.48,2.98,0.62,4.04,0.48c13.46-1.73,29.46-3.23,41.03-4.48c1.74-0.19,2.81,0.23,3.68,0.47" class="stroke" stroke-dasharray="150"><set attributeName="opacity" to="0" dur="2.0s" /><animate attributeName="stroke-dashoffset" from="150" to="0" dur="1.8s" begin="2.0s" fill="freeze" /></path><path d="M34.72,55.13c0.24,1.09,0.08,2.65-0.21,3.28c-4.51,9.84-9.12,20.11-14.49,27.1c-1.68,2.19-1.43,4.46,1.25,3.66c7.11-2.13,20.56-6.62,30.86-9.9" class="stroke" stroke-dasharray="150"><set attributeName="opacity" to="0" dur="3.2s" /><animate attributeName="stroke-dashoffset" from="150" to="0" dur="1.8s" begin="3.2s" fill="freeze" /></path><path d="M43.78,66.85c3.79,3.25,9.78,13.35,10.72,18.4" class="stroke" stroke-dasharray="150"><set attributeName="opacity" to="0" dur="4.9s" /><animate attributeName="stroke-dashoffset" from="150" to="0" dur="1.8s" begin="4.9s" fill="freeze" /></path><path d="M58.58,24.82c1.43,0.9,3.22,1.16,4.49,0.98c11.19-1.55,19.77-2.62,25.44-3.54c3.68-0.6,5.57,1.23,5.5,4.37c-0.25,12.87-3,47.62-7.79,63.1c-2.59,8.4-5.72,3.77-9.33-0.4" class="stroke" stroke-dasharray="150"><set attributeName="opacity" to="0" dur="5.9s" /><animate attributeName="stroke-dashoffset" from="150" to="0" dur="1.8s" begin="5.9s" fill="freeze" /></path><path d="M72.01,26.68c0.49,1.82,0.63,4.17,0.4,6.48C70.7,50.25,68,76.75,54.14,94.65" class="stroke" stroke-dasharray="150"><set attributeName="opacity" to="0" dur="7.9s" /><animate attributeName="stroke-dashoffset" from="150" to="0" dur="1.8s" begin="7.9s" fill="freeze" /></path><text x="90" y="120" id="reset">⟳</text><text x="70" y="120" id="pause">◼</text><script type="text/javascript"><![CDATA[function RecurringTimer(e,t){var n,r,i=t;this.pause=function(){window.clearTimeout(n);i-=new Date-r};var s=function(){r=new Date;n=window.setTimeout(function(){i=t;s();e()},i)};this.clear=function(){window.clearTimeout(n);i=t;n=window.setTimeout(function(){i=t;s();e()},i)};this.resume=s;this.resume()}function invoketimer(){timer=new RecurringTimer(function(){svg.setCurrentTime(0)},10600)}var svg=document.getElementById("kanjivg");var pause=document.getElementById("pause");var reset=document.getElementById("reset");var timer;invoketimer();reset.onclick=function(){svg.setCurrentTime(0);timer.clear();svg.unpauseAnimations();pause.innerHTML = "◼";};pause.onclick=function(){if(svg.animationsPaused()){svg.unpauseAnimations();timer.resume();pause.innerHTML="◼"}else{svg.pauseAnimations();timer.pause();pause.innerHTML="▶"}}]]></script></svg>