<svg id="kanjivg" width="106" height="126" xmlns="http://www.w3.org/2000/svg" xmlns:xlink="http://www.w3.org/1999/xlink" xml:space="preserve" version="1.1" baseProfile="full"><defs><style type="text/css"><![CDATA[path.black { fill:none;stroke:black;stroke-width:5;stroke-linecap:round;stroke-linejoin:round; }path.grey { fill:none;stroke:#ddd;stroke-width:5;stroke-linecap:round;stroke-linejoin:round; }path.stroke { fill:none;stroke:black;stroke-width:5;stroke-linecap:round;stroke-linejoin:round; }rect { fill:none;stroke:#555;stroke-width:2;} text{font-size:16px;font-family:Segoe UI Symbol,Cambria Math,DejaVu Sans,Symbola,Quivira,STIX,Code2000;-webkit-touch-callout:none;cursor:pointer;-webkit-user-select:none;-khtml-user-select:none;-moz-user-select:none;-ms-user-select:none;user-select: none;} #reset { font-weight:bold; }]]></style><marker id="markerStart" markerWidth="8" markerHeight="8" style="overflow:visible;"><circle cx="0" cy="0" r="1.5" style="stroke:none;fill:red;fill-opacity:0.5;"/></marker><marker id="markerEnd" style="overflow:visible;"><circle cx="0" cy="0" r="0.8" style="stroke:none;fill:blue;fill-opacity:0.5;"><animate attributeName="opacity" from="1" to="0" dur="3s" repeatCount="indefinite" /></circle></marker></defs><rect x="4" y="4" width="100" height="100" /><path d="M14.98,21.96c0.69,0.33,1.95,0.4,2.63,0.33c9.44-0.9,23.44-3.1,34.95-3.51c1.14-0.04,1.83,0.16,2.41,0.33" class="grey" /><path d="M33.03,23.15c0.47,1.1,0.05,2.43-0.26,2.97c-3.54,6.29-7.91,10.34-12.8,16.4c-1.58,1.95-1.69,3.27,0.84,2.7c5.9-1.35,19.73-4.94,29.03-7.17" class="grey" /><path d="M44.59,30.39c3.39,2.58,8.76,10.6,9.61,14.6" class="grey" /><path d="M34.67,46.2c0.11,0.28,1.58,1.44,1.58,3.2c0,5.85,0,26.31,0,29.19" class="grey" /><path d="M18.23,62.5c0.67,0.37,1.9,0.35,2.58,0.37C28.75,63,42.5,60,49.08,58.78c1.1-0.2,1.79,0.17,2.35,0.36" class="grey" /><path d="M14.44,85.08c1.06,0.92,3.28,1.41,4.15,1.08C33.5,80.5,40,78,54.48,73.28" class="grey" /><path d="M65.27,28.33c0.98,0.92,1.76,1.99,1.76,5.02c0,14.9-0.02,26.19-0.02,31.15" class="grey" /><path d="M85.27,15.83c0.98,0.92,1.67,1.99,1.76,5.02c0.4,14.55-0.26,62.16-0.26,67.12c0,13.14-7.21,1.5-8.71,0.25" class="grey" /><path d="M14.98,21.96c0.69,0.33,1.95,0.4,2.63,0.33c9.44-0.9,23.44-3.1,34.95-3.51c1.14-0.04,1.83,0.16,2.41,0.33" class="stroke" stroke-dasharray="150"><animate attributeName="stroke-dashoffset" from="150" to="0" dur="1.8s" begin="0s" fill="freeze" /></path><path d="M33.03,23.15c0.47,1.1,0.05,2.43-0.26,2.97c-3.54,6.29-7.91,10.34-12.8,16.4c-1.58,1.95-1.69,3.27,0.84,2.7c5.9-1.35,19.73-4.94,29.03-7.17" class="stroke" stroke-dasharray="150"><set attributeName="opacity" to="0" dur="1.1s" /><animate attributeName="stroke-dashoffset" from="150" to="0" dur="1.8s" begin="1.1s" fill="freeze" /></path><path d="M44.59,30.39c3.39,2.58,8.76,10.6,9.61,14.6" class="stroke" stroke-dasharray="150"><set attributeName="opacity" to="0" dur="2.5s" /><animate attributeName="stroke-dashoffset" from="150" to="0" dur="1.8s" begin="2.5s" fill="freeze" /></path><path d="M34.67,46.2c0.11,0.28,1.58,1.44,1.58,3.2c0,5.85,0,26.31,0,29.19" class="stroke" stroke-dasharray="150"><set attributeName="opacity" to="0" dur="3.4s" /><animate attributeName="stroke-dashoffset" from="150" to="0" dur="1.8s" begin="3.4s" fill="freeze" /></path><path d="M18.23,62.5c0.67,0.37,1.9,0.35,2.58,0.37C28.75,63,42.5,60,49.08,58.78c1.1-0.2,1.79,0.17,2.35,0.36" class="stroke" stroke-dasharray="150"><set attributeName="opacity" to="0" dur="4.4s" /><animate attributeName="stroke-dashoffset" from="150" to="0" dur="1.8s" begin="4.4s" fill="freeze" /></path><path d="M14.44,85.08c1.06,0.92,3.28,1.41,4.15,1.08C33.5,80.5,40,78,54.48,73.28" class="stroke" stroke-dasharray="150"><set attributeName="opacity" to="0" dur="5.4s" /><animate attributeName="stroke-dashoffset" from="150" to="0" dur="1.8s" begin="5.4s" fill="freeze" /></path><path d="M65.27,28.33c0.98,0.92,1.76,1.99,1.76,5.02c0,14.9-0.02,26.19-0.02,31.15" class="stroke" stroke-dasharray="150"><set attributeName="opacity" to="0" dur="6.5s" /><animate attributeName="stroke-dashoffset" from="150" to="0" dur="1.8s" begin="6.5s" fill="freeze" /></path><path d="M85.27,15.83c0.98,0.92,1.67,1.99,1.76,5.02c0.4,14.55-0.26,62.16-0.26,67.12c0,13.14-7.21,1.5-8.71,0.25" class="stroke" stroke-dasharray="150"><set attributeName="opacity" to="0" dur="7.5s" /><animate attributeName="stroke-dashoffset" from="150" to="0" dur="1.8s" begin="7.5s" fill="freeze" /></path><text x="90" y="120" id="reset">⟳</text><text x="70" y="120" id="pause">◼</text><script type="text/javascript"><![CDATA[function RecurringTimer(e,t){var n,r,i=t;this.pause=function(){window.clearTimeout(n);i-=new Date-r};var s=function(){r=new Date;n=window.setTimeout(function(){i=t;s();e()},i)};this.clear=function(){window.clearTimeout(n);i=t;n=window.setTimeout(function(){i=t;s();e()},i)};this.resume=s;this.resume()}function invoketimer(){timer=new RecurringTimer(function(){svg.setCurrentTime(0)},10200)}var svg=document.getElementById("kanjivg");var pause=document.getElementById("pause");var reset=document.getElementById("reset");var timer;invoketimer();reset.onclick=function(){svg.setCurrentTime(0);timer.clear();svg.unpauseAnimations();pause.innerHTML = "◼";};pause.onclick=function(){if(svg.animationsPaused()){svg.unpauseAnimations();timer.resume();pause.innerHTML="◼"}else{svg.pauseAnimations();timer.pause();pause.innerHTML="▶"}}]]></script></svg>