<svg id="kanjivg" width="106" height="126" xmlns="http://www.w3.org/2000/svg" xmlns:xlink="http://www.w3.org/1999/xlink" xml:space="preserve" version="1.1" baseProfile="full"><defs><style type="text/css"><![CDATA[path.black { fill:none;stroke:black;stroke-width:5;stroke-linecap:round;stroke-linejoin:round; }path.grey { fill:none;stroke:#ddd;stroke-width:5;stroke-linecap:round;stroke-linejoin:round; }path.stroke { fill:none;stroke:black;stroke-width:5;stroke-linecap:round;stroke-linejoin:round; }rect { fill:none;stroke:#555;stroke-width:2;} text{font-size:16px;font-family:Segoe UI Symbol,Cambria Math,DejaVu Sans,Symbola,Quivira,STIX,Code2000;-webkit-touch-callout:none;cursor:pointer;-webkit-user-select:none;-khtml-user-select:none;-moz-user-select:none;-ms-user-select:none;user-select: none;} #reset { font-weight:bold; }]]></style><marker id="markerStart" markerWidth="8" markerHeight="8" style="overflow:visible;"><circle cx="0" cy="0" r="1.5" style="stroke:none;fill:red;fill-opacity:0.5;"/></marker><marker id="markerEnd" style="overflow:visible;"><circle cx="0" cy="0" r="0.8" style="stroke:none;fill:blue;fill-opacity:0.5;"><animate attributeName="opacity" from="1" to="0" dur="3s" repeatCount="indefinite" /></circle></marker></defs><rect x="4" y="4" width="100" height="100" /><path d="M12.16,24.94c1.27,0.41,2.69,0.17,3.52,0.11c14.5-0.98,30.56-3.92,41.01-4.29c1.05-0.04,2.67-0.43,4.63,0.45" class="grey" /><path d="M36.53,10.75c0.41,0.53,0.6,1.65,0.26,2.71C32.25,27.25,25.75,39,11.4,49.94" class="grey" /><path d="M40.23,22.75c4.88,4.69,16.26,16.65,21.13,19.79c1.66,1.07,2.23,1.23,2.99,1.33" class="grey" /><path d="M23.59,43.64c0.43,0.29,2.11,0.32,2.54,0.29c4.59-0.38,14.51-1.01,20.06-2.19c0.7-0.15,2.49,0.14,2.85,0.28" class="grey" /><path d="M13.26,57.48c0.93,0.41,2.63,0.47,3.56,0.41C23,57.5,47.97,54.3,58.29,53.74c1.55-0.08,2.48,0.2,3.25,0.4" class="grey" /><path d="M30.13,57.32c0.36,0.93,0.81,1.5,0.57,2.98c-0.27,1.69-1.2,4.2-3.38,7.45c-1.38,2.05-0.36,3.46,2.19,2.98c6.49-1.23,14.88-3.06,20.96-4.08c2.96-0.5,4.03,1.1,3.51,3.29c-1.69,7.16-5.23,18.31-10.63,24.39c-4.79,5.39-5.6-0.08-7-1.64" class="grey" /><path d="M72.27,22.33c0.98,0.92,1.67,1.99,1.76,5.02C74.42,41.91,74,65.04,74,70" class="grey" /><path d="M89.77,11.83c0.98,0.92,1.67,1.99,1.76,5.02c0.4,14.55-0.26,68.66-0.26,73.62c0,13.14-7.21,1.5-8.71,0.25" class="grey" /><path d="M12.16,24.94c1.27,0.41,2.69,0.17,3.52,0.11c14.5-0.98,30.56-3.92,41.01-4.29c1.05-0.04,2.67-0.43,4.63,0.45" class="stroke" stroke-dasharray="150"><animate attributeName="stroke-dashoffset" from="150" to="0" dur="1.8s" begin="0s" fill="freeze" /></path><path d="M36.53,10.75c0.41,0.53,0.6,1.65,0.26,2.71C32.25,27.25,25.75,39,11.4,49.94" class="stroke" stroke-dasharray="150"><set attributeName="opacity" to="0" dur="1.2s" /><animate attributeName="stroke-dashoffset" from="150" to="0" dur="1.8s" begin="1.2s" fill="freeze" /></path><path d="M40.23,22.75c4.88,4.69,16.26,16.65,21.13,19.79c1.66,1.07,2.23,1.23,2.99,1.33" class="stroke" stroke-dasharray="150"><set attributeName="opacity" to="0" dur="2.4s" /><animate attributeName="stroke-dashoffset" from="150" to="0" dur="1.8s" begin="2.4s" fill="freeze" /></path><path d="M23.59,43.64c0.43,0.29,2.11,0.32,2.54,0.29c4.59-0.38,14.51-1.01,20.06-2.19c0.7-0.15,2.49,0.14,2.85,0.28" class="stroke" stroke-dasharray="150"><set attributeName="opacity" to="0" dur="3.4s" /><animate attributeName="stroke-dashoffset" from="150" to="0" dur="1.8s" begin="3.4s" fill="freeze" /></path><path d="M13.26,57.48c0.93,0.41,2.63,0.47,3.56,0.41C23,57.5,47.97,54.3,58.29,53.74c1.55-0.08,2.48,0.2,3.25,0.4" class="stroke" stroke-dasharray="150"><set attributeName="opacity" to="0" dur="4.4s" /><animate attributeName="stroke-dashoffset" from="150" to="0" dur="1.8s" begin="4.4s" fill="freeze" /></path><path d="M30.13,57.32c0.36,0.93,0.81,1.5,0.57,2.98c-0.27,1.69-1.2,4.2-3.38,7.45c-1.38,2.05-0.36,3.46,2.19,2.98c6.49-1.23,14.88-3.06,20.96-4.08c2.96-0.5,4.03,1.1,3.51,3.29c-1.69,7.16-5.23,18.31-10.63,24.39c-4.79,5.39-5.6-0.08-7-1.64" class="stroke" stroke-dasharray="150"><set attributeName="opacity" to="0" dur="5.6000000000000005s" /><animate attributeName="stroke-dashoffset" from="150" to="0" dur="1.8s" begin="5.6000000000000005s" fill="freeze" /></path><path d="M72.27,22.33c0.98,0.92,1.67,1.99,1.76,5.02C74.42,41.91,74,65.04,74,70" class="stroke" stroke-dasharray="150"><set attributeName="opacity" to="0" dur="7.300000000000001s" /><animate attributeName="stroke-dashoffset" from="150" to="0" dur="1.8s" begin="7.300000000000001s" fill="freeze" /></path><path d="M89.77,11.83c0.98,0.92,1.67,1.99,1.76,5.02c0.4,14.55-0.26,68.66-0.26,73.62c0,13.14-7.21,1.5-8.71,0.25" class="stroke" stroke-dasharray="150"><set attributeName="opacity" to="0" dur="8.5s" /><animate attributeName="stroke-dashoffset" from="150" to="0" dur="1.8s" begin="8.5s" fill="freeze" /></path><text x="90" y="120" id="reset">⟳</text><text x="70" y="120" id="pause">◼</text><script type="text/javascript"><![CDATA[function RecurringTimer(e,t){var n,r,i=t;this.pause=function(){window.clearTimeout(n);i-=new Date-r};var s=function(){r=new Date;n=window.setTimeout(function(){i=t;s();e()},i)};this.clear=function(){window.clearTimeout(n);i=t;n=window.setTimeout(function(){i=t;s();e()},i)};this.resume=s;this.resume()}function invoketimer(){timer=new RecurringTimer(function(){svg.setCurrentTime(0)},11300)}var svg=document.getElementById("kanjivg");var pause=document.getElementById("pause");var reset=document.getElementById("reset");var timer;invoketimer();reset.onclick=function(){svg.setCurrentTime(0);timer.clear();svg.unpauseAnimations();pause.innerHTML = "◼";};pause.onclick=function(){if(svg.animationsPaused()){svg.unpauseAnimations();timer.resume();pause.innerHTML="◼"}else{svg.pauseAnimations();timer.pause();pause.innerHTML="▶"}}]]></script></svg>