<svg id="kanjivg" width="106" height="126" xmlns="http://www.w3.org/2000/svg" xmlns:xlink="http://www.w3.org/1999/xlink" xml:space="preserve" version="1.1" baseProfile="full"><defs><style type="text/css"><![CDATA[path.black { fill:none;stroke:black;stroke-width:5;stroke-linecap:round;stroke-linejoin:round; }path.grey { fill:none;stroke:#ddd;stroke-width:5;stroke-linecap:round;stroke-linejoin:round; }path.stroke { fill:none;stroke:black;stroke-width:5;stroke-linecap:round;stroke-linejoin:round; }rect { fill:none;stroke:#555;stroke-width:2;} text{font-size:16px;font-family:Segoe UI Symbol,Cambria Math,DejaVu Sans,Symbola,Quivira,STIX,Code2000;-webkit-touch-callout:none;cursor:pointer;-webkit-user-select:none;-khtml-user-select:none;-moz-user-select:none;-ms-user-select:none;user-select: none;} #reset { font-weight:bold; }]]></style><marker id="markerStart" markerWidth="8" markerHeight="8" style="overflow:visible;"><circle cx="0" cy="0" r="1.5" style="stroke:none;fill:red;fill-opacity:0.5;"/></marker><marker id="markerEnd" style="overflow:visible;"><circle cx="0" cy="0" r="0.8" style="stroke:none;fill:blue;fill-opacity:0.5;"><animate attributeName="opacity" from="1" to="0" dur="3s" repeatCount="indefinite" /></circle></marker></defs><rect x="4" y="4" width="100" height="100" /><path d="M24.4,18.14c0.03,0.59,0.12,1.52-0.06,2.35c-1.21,5.38-4.83,14.63-10.71,22" class="grey" /><path d="M23.25,32.17c1.25,0.2,2.22,0.08,2.82,0c8.67-1.19,14.43-2.29,22.96-4.26c1.53-0.35,2.99-0.48,4.47-0.12" class="grey" /><path d="M11,49.09c2.01,0.71,4.82,0.45,6.88,0.19c10.85-1.39,25.91-3.94,35-4.88c2.18-0.22,4.22-0.39,6.37,0.07" class="grey" /><path d="M19.81,61.7c0.81,0.81,1.21,2.3,1.21,3.23c0,0.41,0.01,9.34-0.06,17.08c-0.03,3.3-0.06,6.03-0.09,7.1" class="grey" /><path d="M21.91,62.82c5.59-0.95,28.2-3.97,30.26-4.1c2.41-0.15,3.42,1.4,3.34,4.1c-0.26,9.43-0.51,14.93-1.19,22.67c-0.42,4.75-3.87,0.64-5.03-0.96" class="grey" /><path d="M35.68,11.13c1.09,1.09,1.76,2.74,1.76,4.5c0,0.77-0.03,55.38-0.17,75.87c-0.03,3.77-0.05,6.38-0.08,7.25" class="grey" /><path d="M69.52,25.83c0.89,0.89,1.51,2.67,1.51,5.02c0,10.5,0.15,20.52,0.05,27.15C71.03,60.56,71,62.62,71,64" class="grey" /><path d="M89.27,12.58c0.98,0.92,1.76,2.92,1.76,5.27c0,14.56-0.01,66.66-0.01,71.62c0,12.53-7.21,1.5-8.71,0.25" class="grey" /><path d="M24.4,18.14c0.03,0.59,0.12,1.52-0.06,2.35c-1.21,5.38-4.83,14.63-10.71,22" class="stroke" stroke-dasharray="150"><animate attributeName="stroke-dashoffset" from="150" to="0" dur="1.8s" begin="0s" fill="freeze" /></path><path d="M23.25,32.17c1.25,0.2,2.22,0.08,2.82,0c8.67-1.19,14.43-2.29,22.96-4.26c1.53-0.35,2.99-0.48,4.47-0.12" class="stroke" stroke-dasharray="150"><set attributeName="opacity" to="0" dur="1.0s" /><animate attributeName="stroke-dashoffset" from="150" to="0" dur="1.8s" begin="1.0s" fill="freeze" /></path><path d="M11,49.09c2.01,0.71,4.82,0.45,6.88,0.19c10.85-1.39,25.91-3.94,35-4.88c2.18-0.22,4.22-0.39,6.37,0.07" class="stroke" stroke-dasharray="150"><set attributeName="opacity" to="0" dur="2.0s" /><animate attributeName="stroke-dashoffset" from="150" to="0" dur="1.8s" begin="2.0s" fill="freeze" /></path><path d="M19.81,61.7c0.81,0.81,1.21,2.3,1.21,3.23c0,0.41,0.01,9.34-0.06,17.08c-0.03,3.3-0.06,6.03-0.09,7.1" class="stroke" stroke-dasharray="150"><set attributeName="opacity" to="0" dur="3.2s" /><animate attributeName="stroke-dashoffset" from="150" to="0" dur="1.8s" begin="3.2s" fill="freeze" /></path><path d="M21.91,62.82c5.59-0.95,28.2-3.97,30.26-4.1c2.41-0.15,3.42,1.4,3.34,4.1c-0.26,9.43-0.51,14.93-1.19,22.67c-0.42,4.75-3.87,0.64-5.03-0.96" class="stroke" stroke-dasharray="150"><set attributeName="opacity" to="0" dur="4.2s" /><animate attributeName="stroke-dashoffset" from="150" to="0" dur="1.8s" begin="4.2s" fill="freeze" /></path><path d="M35.68,11.13c1.09,1.09,1.76,2.74,1.76,4.5c0,0.77-0.03,55.38-0.17,75.87c-0.03,3.77-0.05,6.38-0.08,7.25" class="stroke" stroke-dasharray="150"><set attributeName="opacity" to="0" dur="5.7s" /><animate attributeName="stroke-dashoffset" from="150" to="0" dur="1.8s" begin="5.7s" fill="freeze" /></path><path d="M69.52,25.83c0.89,0.89,1.51,2.67,1.51,5.02c0,10.5,0.15,20.52,0.05,27.15C71.03,60.56,71,62.62,71,64" class="stroke" stroke-dasharray="150"><set attributeName="opacity" to="0" dur="7.4s" /><animate attributeName="stroke-dashoffset" from="150" to="0" dur="1.8s" begin="7.4s" fill="freeze" /></path><path d="M89.27,12.58c0.98,0.92,1.76,2.92,1.76,5.27c0,14.56-0.01,66.66-0.01,71.62c0,12.53-7.21,1.5-8.71,0.25" class="stroke" stroke-dasharray="150"><set attributeName="opacity" to="0" dur="8.4s" /><animate attributeName="stroke-dashoffset" from="150" to="0" dur="1.8s" begin="8.4s" fill="freeze" /></path><text x="90" y="120" id="reset">⟳</text><text x="70" y="120" id="pause">◼</text><script type="text/javascript"><![CDATA[function RecurringTimer(e,t){var n,r,i=t;this.pause=function(){window.clearTimeout(n);i-=new Date-r};var s=function(){r=new Date;n=window.setTimeout(function(){i=t;s();e()},i)};this.clear=function(){window.clearTimeout(n);i=t;n=window.setTimeout(function(){i=t;s();e()},i)};this.resume=s;this.resume()}function invoketimer(){timer=new RecurringTimer(function(){svg.setCurrentTime(0)},11200)}var svg=document.getElementById("kanjivg");var pause=document.getElementById("pause");var reset=document.getElementById("reset");var timer;invoketimer();reset.onclick=function(){svg.setCurrentTime(0);timer.clear();svg.unpauseAnimations();pause.innerHTML = "◼";};pause.onclick=function(){if(svg.animationsPaused()){svg.unpauseAnimations();timer.resume();pause.innerHTML="◼"}else{svg.pauseAnimations();timer.pause();pause.innerHTML="▶"}}]]></script></svg>