<svg id="kanjivg" width="106" height="126" xmlns="http://www.w3.org/2000/svg" xmlns:xlink="http://www.w3.org/1999/xlink" xml:space="preserve" version="1.1" baseProfile="full"><defs><style type="text/css"><![CDATA[path.black { fill:none;stroke:black;stroke-width:5;stroke-linecap:round;stroke-linejoin:round; }path.grey { fill:none;stroke:#ddd;stroke-width:5;stroke-linecap:round;stroke-linejoin:round; }path.stroke { fill:none;stroke:black;stroke-width:5;stroke-linecap:round;stroke-linejoin:round; }rect { fill:none;stroke:#555;stroke-width:2;} text{font-size:16px;font-family:Segoe UI Symbol,Cambria Math,DejaVu Sans,Symbola,Quivira,STIX,Code2000;-webkit-touch-callout:none;cursor:pointer;-webkit-user-select:none;-khtml-user-select:none;-moz-user-select:none;-ms-user-select:none;user-select: none;} #reset { font-weight:bold; }]]></style><marker id="markerStart" markerWidth="8" markerHeight="8" style="overflow:visible;"><circle cx="0" cy="0" r="1.5" style="stroke:none;fill:red;fill-opacity:0.5;"/></marker><marker id="markerEnd" style="overflow:visible;"><circle cx="0" cy="0" r="0.8" style="stroke:none;fill:blue;fill-opacity:0.5;"><animate attributeName="opacity" from="1" to="0" dur="3s" repeatCount="indefinite" /></circle></marker></defs><rect x="4" y="4" width="100" height="100" /><path d="M29.25,16.88c3.28,2.18,8.49,8.95,9.31,12.34" class="grey" /><path d="M73.77,13.39c0.09,1.19-0.21,2.34-0.77,3.41c-3,5.69-5.88,10.07-11.94,16.16" class="grey" /><path d="M27.75,37.89c2.5,0.49,4.43,0.29,6.5,0.08c8.35-0.86,27.5-2.59,35.62-3.11c1.92-0.12,4-0.05,5.88,0.41" class="grey" /><path d="M15.25,53.45c2.85,1.02,6.52,0.68,9.5,0.44c11.47-0.91,39.7-2.45,55.75-3.17c3.39-0.15,6.66-0.15,10,0.57" class="grey" /><path d="M53.75,11.25c0.5,1.25,0.91,2.54,0.53,4.22C50,34.25,41.75,61.88,14.5,77.25" class="grey" /><path d="M50,34.25c6.15,6.29,24.79,23.54,33.79,31.35c2.93,2.54,5.83,5.08,9.21,7.03" class="grey" /><path d="M35.62,68.13c1.5,0.5,2.88,0.62,4.59,0.45c8.19-0.85,22.68-3.24,27.21-3.61c2.98-0.25,4.35,1.06,3.94,3.93c-0.85,5.88-4.49,19.11-8.53,25.64c-2.5,4.04-4.33,2.84-7.81-0.63" class="grey" /><path d="M50.2,71.47c0.05,1.03-0.22,1.86-0.66,2.66c-5.03,9-12.53,16.87-27.66,24" class="grey" /><path d="M29.25,16.88c3.28,2.18,8.49,8.95,9.31,12.34" class="stroke" stroke-dasharray="150"><animate attributeName="stroke-dashoffset" from="150" to="0" dur="1.8s" begin="0s" fill="freeze" /></path><path d="M73.77,13.39c0.09,1.19-0.21,2.34-0.77,3.41c-3,5.69-5.88,10.07-11.94,16.16" class="stroke" stroke-dasharray="150"><set attributeName="opacity" to="0" dur="0.9s" /><animate attributeName="stroke-dashoffset" from="150" to="0" dur="1.8s" begin="0.9s" fill="freeze" /></path><path d="M27.75,37.89c2.5,0.49,4.43,0.29,6.5,0.08c8.35-0.86,27.5-2.59,35.62-3.11c1.92-0.12,4-0.05,5.88,0.41" class="stroke" stroke-dasharray="150"><set attributeName="opacity" to="0" dur="1.9s" /><animate attributeName="stroke-dashoffset" from="150" to="0" dur="1.8s" begin="1.9s" fill="freeze" /></path><path d="M15.25,53.45c2.85,1.02,6.52,0.68,9.5,0.44c11.47-0.91,39.7-2.45,55.75-3.17c3.39-0.15,6.66-0.15,10,0.57" class="stroke" stroke-dasharray="150"><set attributeName="opacity" to="0" dur="3.0999999999999996s" /><animate attributeName="stroke-dashoffset" from="150" to="0" dur="1.8s" begin="3.0999999999999996s" fill="freeze" /></path><path d="M53.75,11.25c0.5,1.25,0.91,2.54,0.53,4.22C50,34.25,41.75,61.88,14.5,77.25" class="stroke" stroke-dasharray="150"><set attributeName="opacity" to="0" dur="4.8s" /><animate attributeName="stroke-dashoffset" from="150" to="0" dur="1.8s" begin="4.8s" fill="freeze" /></path><path d="M50,34.25c6.15,6.29,24.79,23.54,33.79,31.35c2.93,2.54,5.83,5.08,9.21,7.03" class="stroke" stroke-dasharray="150"><set attributeName="opacity" to="0" dur="6.5s" /><animate attributeName="stroke-dashoffset" from="150" to="0" dur="1.8s" begin="6.5s" fill="freeze" /></path><path d="M35.62,68.13c1.5,0.5,2.88,0.62,4.59,0.45c8.19-0.85,22.68-3.24,27.21-3.61c2.98-0.25,4.35,1.06,3.94,3.93c-0.85,5.88-4.49,19.11-8.53,25.64c-2.5,4.04-4.33,2.84-7.81-0.63" class="stroke" stroke-dasharray="150"><set attributeName="opacity" to="0" dur="7.9s" /><animate attributeName="stroke-dashoffset" from="150" to="0" dur="1.8s" begin="7.9s" fill="freeze" /></path><path d="M50.2,71.47c0.05,1.03-0.22,1.86-0.66,2.66c-5.03,9-12.53,16.87-27.66,24" class="stroke" stroke-dasharray="150"><set attributeName="opacity" to="0" dur="9.6s" /><animate attributeName="stroke-dashoffset" from="150" to="0" dur="1.8s" begin="9.6s" fill="freeze" /></path><text x="90" y="120" id="reset">⟳</text><text x="70" y="120" id="pause">◼</text><script type="text/javascript"><![CDATA[function RecurringTimer(e,t){var n,r,i=t;this.pause=function(){window.clearTimeout(n);i-=new Date-r};var s=function(){r=new Date;n=window.setTimeout(function(){i=t;s();e()},i)};this.clear=function(){window.clearTimeout(n);i=t;n=window.setTimeout(function(){i=t;s();e()},i)};this.resume=s;this.resume()}function invoketimer(){timer=new RecurringTimer(function(){svg.setCurrentTime(0)},11700)}var svg=document.getElementById("kanjivg");var pause=document.getElementById("pause");var reset=document.getElementById("reset");var timer;invoketimer();reset.onclick=function(){svg.setCurrentTime(0);timer.clear();svg.unpauseAnimations();pause.innerHTML = "◼";};pause.onclick=function(){if(svg.animationsPaused()){svg.unpauseAnimations();timer.resume();pause.innerHTML="◼"}else{svg.pauseAnimations();timer.pause();pause.innerHTML="▶"}}]]></script></svg>