<svg id="kanjivg" width="106" height="126" xmlns="http://www.w3.org/2000/svg" xmlns:xlink="http://www.w3.org/1999/xlink" xml:space="preserve" version="1.1" baseProfile="full"><defs><style type="text/css"><![CDATA[path.black { fill:none;stroke:black;stroke-width:5;stroke-linecap:round;stroke-linejoin:round; }path.grey { fill:none;stroke:#ddd;stroke-width:5;stroke-linecap:round;stroke-linejoin:round; }path.stroke { fill:none;stroke:black;stroke-width:5;stroke-linecap:round;stroke-linejoin:round; }rect { fill:none;stroke:#555;stroke-width:2;} text{font-size:16px;font-family:Segoe UI Symbol,Cambria Math,DejaVu Sans,Symbola,Quivira,STIX,Code2000;-webkit-touch-callout:none;cursor:pointer;-webkit-user-select:none;-khtml-user-select:none;-moz-user-select:none;-ms-user-select:none;user-select: none;} #reset { font-weight:bold; }]]></style><marker id="markerStart" markerWidth="8" markerHeight="8" style="overflow:visible;"><circle cx="0" cy="0" r="1.5" style="stroke:none;fill:red;fill-opacity:0.5;"/></marker><marker id="markerEnd" style="overflow:visible;"><circle cx="0" cy="0" r="0.8" style="stroke:none;fill:blue;fill-opacity:0.5;"><animate attributeName="opacity" from="1" to="0" dur="3s" repeatCount="indefinite" /></circle></marker></defs><rect x="4" y="4" width="100" height="100" /><path d="M14.98,21.46c1.36,0.66,3.81,0.47,5.28,0.31c8.36-0.91,19.61-2.55,29.36-3.09c1.86-0.1,3.78-0.35,5.6,0.18" class="grey" /><path d="M33.28,23.65c0.47,1.1,0.14,2.49-0.26,2.97c-4.77,5.88-8.27,9.76-13.55,15.9c-1.64,1.91-0.94,3.27,1.59,2.7c5.9-1.35,18.48-4.69,27.78-6.92" class="grey" /><path d="M44.22,29.64c3.61,2.84,9.33,11.68,10.24,16.1" class="grey" /><path d="M18.48,62.25c1.9,0.63,3.85,0.67,5.55,0.47c9.07-1.07,18.96-2.6,24.81-3.68c1.1-0.2,2.04-0.08,2.6,0.11" class="grey" /><path d="M35.17,46.2c0.75,0.75,1.08,2.19,1.08,3.95c0,5.85,0,25.56,0,28.44" class="grey" /><path d="M14.19,85.08c1.18,1.17,2.66,1.48,4.4,0.83c14.78-5.53,20.03-7.41,35.14-12.88" class="grey" /><path d="M65.77,28.58c1.14,1.14,1.26,2.54,1.26,4.77c0,10.93-0.01,19.93-0.02,25.9c0,2.16,0,3.93,0,5.25" class="grey" /><path d="M85.27,15.58c1.26,1.26,1.76,2.67,1.76,5.02c0,14.56-0.01,62.41-0.01,67.37c0,13.14-7.21,1.5-8.71,0.25" class="grey" /><path d="M14.98,21.46c1.36,0.66,3.81,0.47,5.28,0.31c8.36-0.91,19.61-2.55,29.36-3.09c1.86-0.1,3.78-0.35,5.6,0.18" class="stroke" stroke-dasharray="150"><animate attributeName="stroke-dashoffset" from="150" to="0" dur="1.8s" begin="0s" fill="freeze" /></path><path d="M33.28,23.65c0.47,1.1,0.14,2.49-0.26,2.97c-4.77,5.88-8.27,9.76-13.55,15.9c-1.64,1.91-0.94,3.27,1.59,2.7c5.9-1.35,18.48-4.69,27.78-6.92" class="stroke" stroke-dasharray="150"><set attributeName="opacity" to="0" dur="1.1s" /><animate attributeName="stroke-dashoffset" from="150" to="0" dur="1.8s" begin="1.1s" fill="freeze" /></path><path d="M44.22,29.64c3.61,2.84,9.33,11.68,10.24,16.1" class="stroke" stroke-dasharray="150"><set attributeName="opacity" to="0" dur="2.5s" /><animate attributeName="stroke-dashoffset" from="150" to="0" dur="1.8s" begin="2.5s" fill="freeze" /></path><path d="M18.48,62.25c1.9,0.63,3.85,0.67,5.55,0.47c9.07-1.07,18.96-2.6,24.81-3.68c1.1-0.2,2.04-0.08,2.6,0.11" class="stroke" stroke-dasharray="150"><set attributeName="opacity" to="0" dur="3.4s" /><animate attributeName="stroke-dashoffset" from="150" to="0" dur="1.8s" begin="3.4s" fill="freeze" /></path><path d="M35.17,46.2c0.75,0.75,1.08,2.19,1.08,3.95c0,5.85,0,25.56,0,28.44" class="stroke" stroke-dasharray="150"><set attributeName="opacity" to="0" dur="4.4s" /><animate attributeName="stroke-dashoffset" from="150" to="0" dur="1.8s" begin="4.4s" fill="freeze" /></path><path d="M14.19,85.08c1.18,1.17,2.66,1.48,4.4,0.83c14.78-5.53,20.03-7.41,35.14-12.88" class="stroke" stroke-dasharray="150"><set attributeName="opacity" to="0" dur="5.4s" /><animate attributeName="stroke-dashoffset" from="150" to="0" dur="1.8s" begin="5.4s" fill="freeze" /></path><path d="M65.77,28.58c1.14,1.14,1.26,2.54,1.26,4.77c0,10.93-0.01,19.93-0.02,25.9c0,2.16,0,3.93,0,5.25" class="stroke" stroke-dasharray="150"><set attributeName="opacity" to="0" dur="6.5s" /><animate attributeName="stroke-dashoffset" from="150" to="0" dur="1.8s" begin="6.5s" fill="freeze" /></path><path d="M85.27,15.58c1.26,1.26,1.76,2.67,1.76,5.02c0,14.56-0.01,62.41-0.01,67.37c0,13.14-7.21,1.5-8.71,0.25" class="stroke" stroke-dasharray="150"><set attributeName="opacity" to="0" dur="7.5s" /><animate attributeName="stroke-dashoffset" from="150" to="0" dur="1.8s" begin="7.5s" fill="freeze" /></path><text x="90" y="120" id="reset">⟳</text><text x="70" y="120" id="pause">◼</text><script type="text/javascript"><![CDATA[function RecurringTimer(e,t){var n,r,i=t;this.pause=function(){window.clearTimeout(n);i-=new Date-r};var s=function(){r=new Date;n=window.setTimeout(function(){i=t;s();e()},i)};this.clear=function(){window.clearTimeout(n);i=t;n=window.setTimeout(function(){i=t;s();e()},i)};this.resume=s;this.resume()}function invoketimer(){timer=new RecurringTimer(function(){svg.setCurrentTime(0)},10200)}var svg=document.getElementById("kanjivg");var pause=document.getElementById("pause");var reset=document.getElementById("reset");var timer;invoketimer();reset.onclick=function(){svg.setCurrentTime(0);timer.clear();svg.unpauseAnimations();pause.innerHTML = "◼";};pause.onclick=function(){if(svg.animationsPaused()){svg.unpauseAnimations();timer.resume();pause.innerHTML="◼"}else{svg.pauseAnimations();timer.pause();pause.innerHTML="▶"}}]]></script></svg>