<svg id="kanjivg" width="106" height="126" xmlns="http://www.w3.org/2000/svg" xmlns:xlink="http://www.w3.org/1999/xlink" xml:space="preserve" version="1.1" baseProfile="full"><defs><style type="text/css"><![CDATA[path.black { fill:none;stroke:black;stroke-width:5;stroke-linecap:round;stroke-linejoin:round; }path.grey { fill:none;stroke:#ddd;stroke-width:5;stroke-linecap:round;stroke-linejoin:round; }path.stroke { fill:none;stroke:black;stroke-width:5;stroke-linecap:round;stroke-linejoin:round; }rect { fill:none;stroke:#555;stroke-width:2;} text{font-size:16px;font-family:Segoe UI Symbol,Cambria Math,DejaVu Sans,Symbola,Quivira,STIX,Code2000;-webkit-touch-callout:none;cursor:pointer;-webkit-user-select:none;-khtml-user-select:none;-moz-user-select:none;-ms-user-select:none;user-select: none;} #reset { font-weight:bold; }]]></style><marker id="markerStart" markerWidth="8" markerHeight="8" style="overflow:visible;"><circle cx="0" cy="0" r="1.5" style="stroke:none;fill:red;fill-opacity:0.5;"/></marker><marker id="markerEnd" style="overflow:visible;"><circle cx="0" cy="0" r="0.8" style="stroke:none;fill:blue;fill-opacity:0.5;"><animate attributeName="opacity" from="1" to="0" dur="3s" repeatCount="indefinite" /></circle></marker></defs><rect x="4" y="4" width="100" height="100" /><path d="M19.52,18.18c1.07,0.61,3.15,0.87,4.29,0.79c7.69-0.59,21.69-2.84,27.43-3.57c1.75-0.22,3,1.1,2.75,3.36c-0.34,3.08-1.17,5.77-2.11,12.32" class="grey" /><path d="M23.75,35.3c2.36-0.16,16.89-1.88,24.99-2.76c2.47-0.27,4.34-0.46,5.09-0.51" class="grey" /><path d="M22.53,19.28c0.85,0.85,1.26,1.73,1.22,2.6c-1,25.75-4.12,40.88-13.25,53.88" class="grey" /><path d="M23.81,52.78c0.7,0.7,1.3,1.5,1.35,2.34c0.64,12.45,0.94,17.39,1.27,22.5c0.1,1.61,0.21,3.24,0.33,5.13" class="grey" /><path d="M26.02,54.28c5.11-0.91,20.73-3.28,26.86-3.55c2.23-0.1,3.12,1.14,3.13,3.05c0.03,6.34-0.25,17.72-1.2,24.95c-0.69,5.27-3.54,0.58-4.67-0.58" class="grey" /><path d="M38.8,39.13c0.97,0.97,1.35,2.5,1.35,3.84c0,5.64-0.06,33.62-0.1,45.91c-0.01,3.31-0.02,5.48-0.03,5.76" class="grey" /><path d="M71.27,26.33c1.26,1.26,1.76,3.04,1.76,5.02c0,11.4-0.01,22.23-0.02,28.77c0,1.81,0,3.3,0,4.38" class="grey" /><path d="M91.27,12.83c1.08,1.08,1.76,2.79,1.76,5.02c0,16.27-0.01,67.9-0.01,73.12c0,11.03-5.64,3.16-9.46-0.25" class="grey" /><path d="M19.52,18.18c1.07,0.61,3.15,0.87,4.29,0.79c7.69-0.59,21.69-2.84,27.43-3.57c1.75-0.22,3,1.1,2.75,3.36c-0.34,3.08-1.17,5.77-2.11,12.32" class="stroke" stroke-dasharray="150"><animate attributeName="stroke-dashoffset" from="150" to="0" dur="1.8s" begin="0s" fill="freeze" /></path><path d="M23.75,35.3c2.36-0.16,16.89-1.88,24.99-2.76c2.47-0.27,4.34-0.46,5.09-0.51" class="stroke" stroke-dasharray="150"><set attributeName="opacity" to="0" dur="1.2s" /><animate attributeName="stroke-dashoffset" from="150" to="0" dur="1.8s" begin="1.2s" fill="freeze" /></path><path d="M22.53,19.28c0.85,0.85,1.26,1.73,1.22,2.6c-1,25.75-4.12,40.88-13.25,53.88" class="stroke" stroke-dasharray="150"><set attributeName="opacity" to="0" dur="2.2s" /><animate attributeName="stroke-dashoffset" from="150" to="0" dur="1.8s" begin="2.2s" fill="freeze" /></path><path d="M23.81,52.78c0.7,0.7,1.3,1.5,1.35,2.34c0.64,12.45,0.94,17.39,1.27,22.5c0.1,1.61,0.21,3.24,0.33,5.13" class="stroke" stroke-dasharray="150"><set attributeName="opacity" to="0" dur="3.6s" /><animate attributeName="stroke-dashoffset" from="150" to="0" dur="1.8s" begin="3.6s" fill="freeze" /></path><path d="M26.02,54.28c5.11-0.91,20.73-3.28,26.86-3.55c2.23-0.1,3.12,1.14,3.13,3.05c0.03,6.34-0.25,17.72-1.2,24.95c-0.69,5.27-3.54,0.58-4.67-0.58" class="stroke" stroke-dasharray="150"><set attributeName="opacity" to="0" dur="4.6s" /><animate attributeName="stroke-dashoffset" from="150" to="0" dur="1.8s" begin="4.6s" fill="freeze" /></path><path d="M38.8,39.13c0.97,0.97,1.35,2.5,1.35,3.84c0,5.64-0.06,33.62-0.1,45.91c-0.01,3.31-0.02,5.48-0.03,5.76" class="stroke" stroke-dasharray="150"><set attributeName="opacity" to="0" dur="6.1s" /><animate attributeName="stroke-dashoffset" from="150" to="0" dur="1.8s" begin="6.1s" fill="freeze" /></path><path d="M71.27,26.33c1.26,1.26,1.76,3.04,1.76,5.02c0,11.4-0.01,22.23-0.02,28.77c0,1.81,0,3.3,0,4.38" class="stroke" stroke-dasharray="150"><set attributeName="opacity" to="0" dur="7.5s" /><animate attributeName="stroke-dashoffset" from="150" to="0" dur="1.8s" begin="7.5s" fill="freeze" /></path><path d="M91.27,12.83c1.08,1.08,1.76,2.79,1.76,5.02c0,16.27-0.01,67.9-0.01,73.12c0,11.03-5.64,3.16-9.46-0.25" class="stroke" stroke-dasharray="150"><set attributeName="opacity" to="0" dur="8.5s" /><animate attributeName="stroke-dashoffset" from="150" to="0" dur="1.8s" begin="8.5s" fill="freeze" /></path><text x="90" y="120" id="reset">⟳</text><text x="70" y="120" id="pause">◼</text><script type="text/javascript"><![CDATA[function RecurringTimer(e,t){var n,r,i=t;this.pause=function(){window.clearTimeout(n);i-=new Date-r};var s=function(){r=new Date;n=window.setTimeout(function(){i=t;s();e()},i)};this.clear=function(){window.clearTimeout(n);i=t;n=window.setTimeout(function(){i=t;s();e()},i)};this.resume=s;this.resume()}function invoketimer(){timer=new RecurringTimer(function(){svg.setCurrentTime(0)},11300)}var svg=document.getElementById("kanjivg");var pause=document.getElementById("pause");var reset=document.getElementById("reset");var timer;invoketimer();reset.onclick=function(){svg.setCurrentTime(0);timer.clear();svg.unpauseAnimations();pause.innerHTML = "◼";};pause.onclick=function(){if(svg.animationsPaused()){svg.unpauseAnimations();timer.resume();pause.innerHTML="◼"}else{svg.pauseAnimations();timer.pause();pause.innerHTML="▶"}}]]></script></svg>