<svg id="kanjivg" width="106" height="126" xmlns="http://www.w3.org/2000/svg" xmlns:xlink="http://www.w3.org/1999/xlink" xml:space="preserve" version="1.1" baseProfile="full"><defs><style type="text/css"><![CDATA[path.black { fill:none;stroke:black;stroke-width:5;stroke-linecap:round;stroke-linejoin:round; }path.grey { fill:none;stroke:#ddd;stroke-width:5;stroke-linecap:round;stroke-linejoin:round; }path.stroke { fill:none;stroke:black;stroke-width:5;stroke-linecap:round;stroke-linejoin:round; }rect { fill:none;stroke:#555;stroke-width:2;} text{font-size:16px;font-family:Segoe UI Symbol,Cambria Math,DejaVu Sans,Symbola,Quivira,STIX,Code2000;-webkit-touch-callout:none;cursor:pointer;-webkit-user-select:none;-khtml-user-select:none;-moz-user-select:none;-ms-user-select:none;user-select: none;} #reset { font-weight:bold; }]]></style><marker id="markerStart" markerWidth="8" markerHeight="8" style="overflow:visible;"><circle cx="0" cy="0" r="1.5" style="stroke:none;fill:red;fill-opacity:0.5;"/></marker><marker id="markerEnd" style="overflow:visible;"><circle cx="0" cy="0" r="0.8" style="stroke:none;fill:blue;fill-opacity:0.5;"><animate attributeName="opacity" from="1" to="0" dur="3s" repeatCount="indefinite" /></circle></marker></defs><rect x="4" y="4" width="100" height="100" /><path d="M19.51,21.13c0.46,1.26,1.13,2.2,1.13,3.88c0,1.68-0.31,46.19-0.31,47.03c0,0.84,0.15,0.84,0.31,2.52" class="grey" /><path d="M21.41,21.65c2.6-0.21,22.44-2.9,24.81-3.15c1.98-0.21,3.53,1.17,3.37,2.73c-0.21,1.98-0.77,30.02-0.76,48.5c0,1.9-0.15,2.73-0.15,3.99" class="grey" /><path d="M21.37,39.38c4.2-0.49,8.38-1.16,12.57-1.75c1.26-0.18,2.53-0.35,3.78-0.52" class="grey" /><path d="M21.58,54.84c4.27-0.45,8.54-0.96,12.81-1.41c1.11-0.12,2.22-0.23,3.32-0.34" class="grey" /><path d="M22.25,72.66C28.5,71.75,40,70.5,47.96,70.14" class="grey" /><path d="M27.07,80.44c0.34,1.17,0.63,1.46,0,2.34c-2.82,3.96-7.79,8.91-11.82,11.96" class="grey" /><path d="M42.12,81.18c3.8,3.48,8.29,9.79,9.32,12.84" class="grey" /><path d="M67.27,24.83c0.98,0.92,1.67,1.99,1.76,5.02C69.42,44.41,69,58.04,69,63" class="grey" /><path d="M87.77,14.83c0.98,0.92,1.67,1.99,1.76,5.02c0.4,14.55-0.26,63.66-0.26,68.62c0,5.03-1.52,6.03-3.96,4c-1.89-1.58-3.25-2.5-4.75-3.75" class="grey" /><path d="M19.51,21.13c0.46,1.26,1.13,2.2,1.13,3.88c0,1.68-0.31,46.19-0.31,47.03c0,0.84,0.15,0.84,0.31,2.52" class="stroke" stroke-dasharray="150"><animate attributeName="stroke-dashoffset" from="150" to="0" dur="1.8s" begin="0s" fill="freeze" /></path><path d="M21.41,21.65c2.6-0.21,22.44-2.9,24.81-3.15c1.98-0.21,3.53,1.17,3.37,2.73c-0.21,1.98-0.77,30.02-0.76,48.5c0,1.9-0.15,2.73-0.15,3.99" class="stroke" stroke-dasharray="150"><set attributeName="opacity" to="0" dur="1.3s" /><animate attributeName="stroke-dashoffset" from="150" to="0" dur="1.8s" begin="1.3s" fill="freeze" /></path><path d="M21.37,39.38c4.2-0.49,8.38-1.16,12.57-1.75c1.26-0.18,2.53-0.35,3.78-0.52" class="stroke" stroke-dasharray="150"><set attributeName="opacity" to="0" dur="3.0s" /><animate attributeName="stroke-dashoffset" from="150" to="0" dur="1.8s" begin="3.0s" fill="freeze" /></path><path d="M21.58,54.84c4.27-0.45,8.54-0.96,12.81-1.41c1.11-0.12,2.22-0.23,3.32-0.34" class="stroke" stroke-dasharray="150"><set attributeName="opacity" to="0" dur="3.9s" /><animate attributeName="stroke-dashoffset" from="150" to="0" dur="1.8s" begin="3.9s" fill="freeze" /></path><path d="M22.25,72.66C28.5,71.75,40,70.5,47.96,70.14" class="stroke" stroke-dasharray="150"><set attributeName="opacity" to="0" dur="4.8s" /><animate attributeName="stroke-dashoffset" from="150" to="0" dur="1.8s" begin="4.8s" fill="freeze" /></path><path d="M27.07,80.44c0.34,1.17,0.63,1.46,0,2.34c-2.82,3.96-7.79,8.91-11.82,11.96" class="stroke" stroke-dasharray="150"><set attributeName="opacity" to="0" dur="5.8s" /><animate attributeName="stroke-dashoffset" from="150" to="0" dur="1.8s" begin="5.8s" fill="freeze" /></path><path d="M42.12,81.18c3.8,3.48,8.29,9.79,9.32,12.84" class="stroke" stroke-dasharray="150"><set attributeName="opacity" to="0" dur="6.7s" /><animate attributeName="stroke-dashoffset" from="150" to="0" dur="1.8s" begin="6.7s" fill="freeze" /></path><path d="M67.27,24.83c0.98,0.92,1.67,1.99,1.76,5.02C69.42,44.41,69,58.04,69,63" class="stroke" stroke-dasharray="150"><set attributeName="opacity" to="0" dur="7.6000000000000005s" /><animate attributeName="stroke-dashoffset" from="150" to="0" dur="1.8s" begin="7.6000000000000005s" fill="freeze" /></path><path d="M87.77,14.83c0.98,0.92,1.67,1.99,1.76,5.02c0.4,14.55-0.26,63.66-0.26,68.62c0,5.03-1.52,6.03-3.96,4c-1.89-1.58-3.25-2.5-4.75-3.75" class="stroke" stroke-dasharray="150"><set attributeName="opacity" to="0" dur="8.600000000000001s" /><animate attributeName="stroke-dashoffset" from="150" to="0" dur="1.8s" begin="8.600000000000001s" fill="freeze" /></path><text x="90" y="120" id="reset">⟳</text><text x="70" y="120" id="pause">◼</text><script type="text/javascript"><![CDATA[function RecurringTimer(e,t){var n,r,i=t;this.pause=function(){window.clearTimeout(n);i-=new Date-r};var s=function(){r=new Date;n=window.setTimeout(function(){i=t;s();e()},i)};this.clear=function(){window.clearTimeout(n);i=t;n=window.setTimeout(function(){i=t;s();e()},i)};this.resume=s;this.resume()}function invoketimer(){timer=new RecurringTimer(function(){svg.setCurrentTime(0)},11300)}var svg=document.getElementById("kanjivg");var pause=document.getElementById("pause");var reset=document.getElementById("reset");var timer;invoketimer();reset.onclick=function(){svg.setCurrentTime(0);timer.clear();svg.unpauseAnimations();pause.innerHTML = "◼";};pause.onclick=function(){if(svg.animationsPaused()){svg.unpauseAnimations();timer.resume();pause.innerHTML="◼"}else{svg.pauseAnimations();timer.pause();pause.innerHTML="▶"}}]]></script></svg>