<svg id="kanjivg" width="106" height="126" xmlns="http://www.w3.org/2000/svg" xmlns:xlink="http://www.w3.org/1999/xlink" xml:space="preserve" version="1.1" baseProfile="full"><defs><style type="text/css"><![CDATA[path.black { fill:none;stroke:black;stroke-width:5;stroke-linecap:round;stroke-linejoin:round; }path.grey { fill:none;stroke:#ddd;stroke-width:5;stroke-linecap:round;stroke-linejoin:round; }path.stroke { fill:none;stroke:black;stroke-width:5;stroke-linecap:round;stroke-linejoin:round; }rect { fill:none;stroke:#555;stroke-width:2;} text{font-size:16px;font-family:Segoe UI Symbol,Cambria Math,DejaVu Sans,Symbola,Quivira,STIX,Code2000;-webkit-touch-callout:none;cursor:pointer;-webkit-user-select:none;-khtml-user-select:none;-moz-user-select:none;-ms-user-select:none;user-select: none;} #reset { font-weight:bold; }]]></style><marker id="markerStart" markerWidth="8" markerHeight="8" style="overflow:visible;"><circle cx="0" cy="0" r="1.5" style="stroke:none;fill:red;fill-opacity:0.5;"/></marker><marker id="markerEnd" style="overflow:visible;"><circle cx="0" cy="0" r="0.8" style="stroke:none;fill:blue;fill-opacity:0.5;"><animate attributeName="opacity" from="1" to="0" dur="3s" repeatCount="indefinite" /></circle></marker></defs><rect x="4" y="4" width="100" height="100" /><path d="M21.16,15.25c2.62,1.63,6.78,6.69,7.43,9.22" class="grey" /><path d="M47.85,12c0.08,1.05-0.09,2.06-0.49,3.04C46.2,18.43,44,21.5,39.36,27.25" class="grey" /><path d="M15.18,30.54c1.17,1.07,3.25,1.31,4.75,1.19c6.07-0.48,30.13-4.17,33.11-4.76c2.98-0.59,2.72,2.15,2.19,4.05c-0.55,1.97-1.56,5.47-2.29,8.28c-0.37,1.45-0.67,2.72-0.78,3.51" class="grey" /><path d="M20.25,46.75c5-0.75,27.39-4,29.19-4s3.61,0,5.06,0" class="grey" /><path d="M19.48,45.92c0.89,0.79,0.76,2.95,0.18,4.21c-0.66,1.44-3.27,7.54-3.64,8.34c-1.29,2.78-0.94,4.19,0.95,3.88c1.8-0.29,35.07-5.03,39.84-5.62c4.77-0.6,3.6,3.99,3.26,5.42c-0.65,2.74-3.06,11.6-5.74,17.29c-3.68,7.8-5.3,1.05-6.66-0.48" class="grey" /><path d="M35.87,31.41c1.22,1.15,1.45,2.48,1.48,4.09c0.14,9.47-0.07,40.65-0.14,57.25c-0.01,2.89-0.04,4.08-0.09,5.25" class="grey" /><path d="M34.94,60.5c0.06,0.62,0.13,1.6-0.14,2.49c-1.6,5.25-10.99,17.71-23.55,24.76" class="grey" /><path d="M70.77,25.33c0.98,0.92,1.67,1.99,1.76,5.02c0.31,11.1,0.13,23.12,0.03,30.4c-0.03,2.27-0.05,4.07-0.05,5.25" class="grey" /><path d="M89.27,13.33c0.98,0.92,1.67,1.99,1.76,5.02c0.4,14.55-0.26,65.66-0.26,70.62c0,13.14-7.21,1.5-8.71,0.25" class="grey" /><path d="M21.16,15.25c2.62,1.63,6.78,6.69,7.43,9.22" class="stroke" stroke-dasharray="150"><animate attributeName="stroke-dashoffset" from="150" to="0" dur="1.8s" begin="0s" fill="freeze" /></path><path d="M47.85,12c0.08,1.05-0.09,2.06-0.49,3.04C46.2,18.43,44,21.5,39.36,27.25" class="stroke" stroke-dasharray="150"><set attributeName="opacity" to="0" dur="0.9s" /><animate attributeName="stroke-dashoffset" from="150" to="0" dur="1.8s" begin="0.9s" fill="freeze" /></path><path d="M15.18,30.54c1.17,1.07,3.25,1.31,4.75,1.19c6.07-0.48,30.13-4.17,33.11-4.76c2.98-0.59,2.72,2.15,2.19,4.05c-0.55,1.97-1.56,5.47-2.29,8.28c-0.37,1.45-0.67,2.72-0.78,3.51" class="stroke" stroke-dasharray="150"><set attributeName="opacity" to="0" dur="1.8s" /><animate attributeName="stroke-dashoffset" from="150" to="0" dur="1.8s" begin="1.8s" fill="freeze" /></path><path d="M20.25,46.75c5-0.75,27.39-4,29.19-4s3.61,0,5.06,0" class="stroke" stroke-dasharray="150"><set attributeName="opacity" to="0" dur="3.2s" /><animate attributeName="stroke-dashoffset" from="150" to="0" dur="1.8s" begin="3.2s" fill="freeze" /></path><path d="M19.48,45.92c0.89,0.79,0.76,2.95,0.18,4.21c-0.66,1.44-3.27,7.54-3.64,8.34c-1.29,2.78-0.94,4.19,0.95,3.88c1.8-0.29,35.07-5.03,39.84-5.62c4.77-0.6,3.6,3.99,3.26,5.42c-0.65,2.74-3.06,11.6-5.74,17.29c-3.68,7.8-5.3,1.05-6.66-0.48" class="stroke" stroke-dasharray="150"><set attributeName="opacity" to="0" dur="4.2s" /><animate attributeName="stroke-dashoffset" from="150" to="0" dur="1.8s" begin="4.2s" fill="freeze" /></path><path d="M35.87,31.41c1.22,1.15,1.45,2.48,1.48,4.09c0.14,9.47-0.07,40.65-0.14,57.25c-0.01,2.89-0.04,4.08-0.09,5.25" class="stroke" stroke-dasharray="150"><set attributeName="opacity" to="0" dur="6.0s" /><animate attributeName="stroke-dashoffset" from="150" to="0" dur="1.8s" begin="6.0s" fill="freeze" /></path><path d="M34.94,60.5c0.06,0.62,0.13,1.6-0.14,2.49c-1.6,5.25-10.99,17.71-23.55,24.76" class="stroke" stroke-dasharray="150"><set attributeName="opacity" to="0" dur="7.5s" /><animate attributeName="stroke-dashoffset" from="150" to="0" dur="1.8s" begin="7.5s" fill="freeze" /></path><path d="M70.77,25.33c0.98,0.92,1.67,1.99,1.76,5.02c0.31,11.1,0.13,23.12,0.03,30.4c-0.03,2.27-0.05,4.07-0.05,5.25" class="stroke" stroke-dasharray="150"><set attributeName="opacity" to="0" dur="8.5s" /><animate attributeName="stroke-dashoffset" from="150" to="0" dur="1.8s" begin="8.5s" fill="freeze" /></path><path d="M89.27,13.33c0.98,0.92,1.67,1.99,1.76,5.02c0.4,14.55-0.26,65.66-0.26,70.62c0,13.14-7.21,1.5-8.71,0.25" class="stroke" stroke-dasharray="150"><set attributeName="opacity" to="0" dur="9.6s" /><animate attributeName="stroke-dashoffset" from="150" to="0" dur="1.8s" begin="9.6s" fill="freeze" /></path><text x="90" y="120" id="reset">⟳</text><text x="70" y="120" id="pause">◼</text><script type="text/javascript"><![CDATA[function RecurringTimer(e,t){var n,r,i=t;this.pause=function(){window.clearTimeout(n);i-=new Date-r};var s=function(){r=new Date;n=window.setTimeout(function(){i=t;s();e()},i)};this.clear=function(){window.clearTimeout(n);i=t;n=window.setTimeout(function(){i=t;s();e()},i)};this.resume=s;this.resume()}function invoketimer(){timer=new RecurringTimer(function(){svg.setCurrentTime(0)},12400)}var svg=document.getElementById("kanjivg");var pause=document.getElementById("pause");var reset=document.getElementById("reset");var timer;invoketimer();reset.onclick=function(){svg.setCurrentTime(0);timer.clear();svg.unpauseAnimations();pause.innerHTML = "◼";};pause.onclick=function(){if(svg.animationsPaused()){svg.unpauseAnimations();timer.resume();pause.innerHTML="◼"}else{svg.pauseAnimations();timer.pause();pause.innerHTML="▶"}}]]></script></svg>