<svg id="kanjivg" width="106" height="126" xmlns="http://www.w3.org/2000/svg" xmlns:xlink="http://www.w3.org/1999/xlink" xml:space="preserve" version="1.1" baseProfile="full"><defs><style type="text/css"><![CDATA[path.black { fill:none;stroke:black;stroke-width:5;stroke-linecap:round;stroke-linejoin:round; }path.grey { fill:none;stroke:#ddd;stroke-width:5;stroke-linecap:round;stroke-linejoin:round; }path.stroke { fill:none;stroke:black;stroke-width:5;stroke-linecap:round;stroke-linejoin:round; }rect { fill:none;stroke:#555;stroke-width:2;} text{font-size:16px;font-family:Segoe UI Symbol,Cambria Math,DejaVu Sans,Symbola,Quivira,STIX,Code2000;-webkit-touch-callout:none;cursor:pointer;-webkit-user-select:none;-khtml-user-select:none;-moz-user-select:none;-ms-user-select:none;user-select: none;} #reset { font-weight:bold; }]]></style><marker id="markerStart" markerWidth="8" markerHeight="8" style="overflow:visible;"><circle cx="0" cy="0" r="1.5" style="stroke:none;fill:red;fill-opacity:0.5;"/></marker><marker id="markerEnd" style="overflow:visible;"><circle cx="0" cy="0" r="0.8" style="stroke:none;fill:blue;fill-opacity:0.5;"><animate attributeName="opacity" from="1" to="0" dur="3s" repeatCount="indefinite" /></circle></marker></defs><rect x="4" y="4" width="100" height="100" /><path d="M14.25,21.31c1.03,0.42,2.91,0.49,3.95,0.42c7.84-0.57,30.86-3.59,37.95-3.71c1.71-0.03,2.75,0.2,3.6,0.41" class="grey" /><path d="M22.53,28.34c0.69,0.33,0.15,2.59-0.12,3.36c-1.7,4.95-3.33,9.48-7.82,13.92c-0.87,0.86-0.42,0.88,0,1.11c5.19,2.88,7.96,6.28,10.7,12.14" class="grey" /><path d="M39.05,26.04c0.72,0.34,0.15,2.69-0.12,3.48c-1.77,5.13-3.95,9.33-8.6,13.93c-0.9,0.89-0.43,0.91,0,1.15c5.38,2.99,8.93,6.9,11.73,11.58" class="grey" /><path d="M54.74,24.66c0.62,0.29,0.13,2.3-0.1,2.98c-1.51,4.4-2.95,9.78-6.94,13.72c-0.77,0.76-0.3,0.68,0,0.99C51.25,46,54,49.5,56.19,54.73" class="grey" /><path d="M16.39,65.56c0.61,0.4,2.86,1.19,4.56,0.92c6.39-0.98,24.59-3.44,31.52-4.03c0.95-0.08,2.7-0.29,3.48,0.05" class="grey" /><path d="M35.38,66.41c0.96,0.97,1.63,3.04,1.63,3.82c0,6.52,0.02,12.34-0.17,16.67" class="grey" /><path d="M14.85,92.76c0.66,0.17,2.19,1.91,4.27,1.11c6.28-2.41,22.64-8.74,32.41-12.26" class="grey" /><path d="M68.77,24.83c0.98,0.92,1.67,1.99,1.76,5.02c0.4,14.55-0.02,36.69-0.02,41.65" class="grey" /><path d="M88.77,11.83c0.98,0.92,1.67,1.99,1.76,5.02c0.4,14.55-0.26,68.66-0.26,73.62c0,13.14-7.21,1.5-8.71,0.25" class="grey" /><path d="M14.25,21.31c1.03,0.42,2.91,0.49,3.95,0.42c7.84-0.57,30.86-3.59,37.95-3.71c1.71-0.03,2.75,0.2,3.6,0.41" class="stroke" stroke-dasharray="150"><animate attributeName="stroke-dashoffset" from="150" to="0" dur="1.8s" begin="0s" fill="freeze" /></path><path d="M22.53,28.34c0.69,0.33,0.15,2.59-0.12,3.36c-1.7,4.95-3.33,9.48-7.82,13.92c-0.87,0.86-0.42,0.88,0,1.11c5.19,2.88,7.96,6.28,10.7,12.14" class="stroke" stroke-dasharray="150"><set attributeName="opacity" to="0" dur="1.2s" /><animate attributeName="stroke-dashoffset" from="150" to="0" dur="1.8s" begin="1.2s" fill="freeze" /></path><path d="M39.05,26.04c0.72,0.34,0.15,2.69-0.12,3.48c-1.77,5.13-3.95,9.33-8.6,13.93c-0.9,0.89-0.43,0.91,0,1.15c5.38,2.99,8.93,6.9,11.73,11.58" class="stroke" stroke-dasharray="150"><set attributeName="opacity" to="0" dur="2.2s" /><animate attributeName="stroke-dashoffset" from="150" to="0" dur="1.8s" begin="2.2s" fill="freeze" /></path><path d="M54.74,24.66c0.62,0.29,0.13,2.3-0.1,2.98c-1.51,4.4-2.95,9.78-6.94,13.72c-0.77,0.76-0.3,0.68,0,0.99C51.25,46,54,49.5,56.19,54.73" class="stroke" stroke-dasharray="150"><set attributeName="opacity" to="0" dur="3.2s" /><animate attributeName="stroke-dashoffset" from="150" to="0" dur="1.8s" begin="3.2s" fill="freeze" /></path><path d="M16.39,65.56c0.61,0.4,2.86,1.19,4.56,0.92c6.39-0.98,24.59-3.44,31.52-4.03c0.95-0.08,2.7-0.29,3.48,0.05" class="stroke" stroke-dasharray="150"><set attributeName="opacity" to="0" dur="4.2s" /><animate attributeName="stroke-dashoffset" from="150" to="0" dur="1.8s" begin="4.2s" fill="freeze" /></path><path d="M35.38,66.41c0.96,0.97,1.63,3.04,1.63,3.82c0,6.52,0.02,12.34-0.17,16.67" class="stroke" stroke-dasharray="150"><set attributeName="opacity" to="0" dur="5.300000000000001s" /><animate attributeName="stroke-dashoffset" from="150" to="0" dur="1.8s" begin="5.300000000000001s" fill="freeze" /></path><path d="M14.85,92.76c0.66,0.17,2.19,1.91,4.27,1.11c6.28-2.41,22.64-8.74,32.41-12.26" class="stroke" stroke-dasharray="150"><set attributeName="opacity" to="0" dur="6.300000000000001s" /><animate attributeName="stroke-dashoffset" from="150" to="0" dur="1.8s" begin="6.300000000000001s" fill="freeze" /></path><path d="M68.77,24.83c0.98,0.92,1.67,1.99,1.76,5.02c0.4,14.55-0.02,36.69-0.02,41.65" class="stroke" stroke-dasharray="150"><set attributeName="opacity" to="0" dur="7.300000000000001s" /><animate attributeName="stroke-dashoffset" from="150" to="0" dur="1.8s" begin="7.300000000000001s" fill="freeze" /></path><path d="M88.77,11.83c0.98,0.92,1.67,1.99,1.76,5.02c0.4,14.55-0.26,68.66-0.26,73.62c0,13.14-7.21,1.5-8.71,0.25" class="stroke" stroke-dasharray="150"><set attributeName="opacity" to="0" dur="8.5s" /><animate attributeName="stroke-dashoffset" from="150" to="0" dur="1.8s" begin="8.5s" fill="freeze" /></path><text x="90" y="120" id="reset">⟳</text><text x="70" y="120" id="pause">◼</text><script type="text/javascript"><![CDATA[function RecurringTimer(e,t){var n,r,i=t;this.pause=function(){window.clearTimeout(n);i-=new Date-r};var s=function(){r=new Date;n=window.setTimeout(function(){i=t;s();e()},i)};this.clear=function(){window.clearTimeout(n);i=t;n=window.setTimeout(function(){i=t;s();e()},i)};this.resume=s;this.resume()}function invoketimer(){timer=new RecurringTimer(function(){svg.setCurrentTime(0)},11300)}var svg=document.getElementById("kanjivg");var pause=document.getElementById("pause");var reset=document.getElementById("reset");var timer;invoketimer();reset.onclick=function(){svg.setCurrentTime(0);timer.clear();svg.unpauseAnimations();pause.innerHTML = "◼";};pause.onclick=function(){if(svg.animationsPaused()){svg.unpauseAnimations();timer.resume();pause.innerHTML="◼"}else{svg.pauseAnimations();timer.pause();pause.innerHTML="▶"}}]]></script></svg>