<svg id="kanjivg" width="106" height="126" xmlns="http://www.w3.org/2000/svg" xmlns:xlink="http://www.w3.org/1999/xlink" xml:space="preserve" version="1.1" baseProfile="full"><defs><style type="text/css"><![CDATA[path.black { fill:none;stroke:black;stroke-width:5;stroke-linecap:round;stroke-linejoin:round; }path.grey { fill:none;stroke:#ddd;stroke-width:5;stroke-linecap:round;stroke-linejoin:round; }path.stroke { fill:none;stroke:black;stroke-width:5;stroke-linecap:round;stroke-linejoin:round; }rect { fill:none;stroke:#555;stroke-width:2;} text{font-size:16px;font-family:Segoe UI Symbol,Cambria Math,DejaVu Sans,Symbola,Quivira,STIX,Code2000;-webkit-touch-callout:none;cursor:pointer;-webkit-user-select:none;-khtml-user-select:none;-moz-user-select:none;-ms-user-select:none;user-select: none;} #reset { font-weight:bold; }]]></style><marker id="markerStart" markerWidth="8" markerHeight="8" style="overflow:visible;"><circle cx="0" cy="0" r="1.5" style="stroke:none;fill:red;fill-opacity:0.5;"/></marker><marker id="markerEnd" style="overflow:visible;"><circle cx="0" cy="0" r="0.8" style="stroke:none;fill:blue;fill-opacity:0.5;"><animate attributeName="opacity" from="1" to="0" dur="3s" repeatCount="indefinite" /></circle></marker></defs><rect x="4" y="4" width="100" height="100" /><path d="M19.01,20.13c0.8,0.8,1.38,2.25,1.38,3.38c0,4,0,36.01,0,48c0,2.23,0,3.76,0,4.3" class="grey" /><path d="M21.41,21.65c2.6-0.21,21.69-2.9,24.06-3.15c1.98-0.21,3.37,1.17,3.37,2.73c0,3.02-0.01,38.15-0.01,47.75c0,1.9-0.08,4.77-0.08,6.03" class="grey" /><path d="M21.37,38.88c5.38-0.63,19.38-2.38,26.23-2.91" class="grey" /><path d="M21.58,55.34c7.92-0.84,17.92-2.09,25.96-2.52" class="grey" /><path d="M22.25,72.91c6.25-0.91,17.5-2.16,25.46-2.52" class="grey" /><path d="M27.32,79.94c0.34,1.17,0.13,2.21-0.5,3.09C24,87,18.53,92.45,14.5,95.5" class="grey" /><path d="M42.38,81.43c3.8,3.48,8.29,9.79,9.32,12.84" class="grey" /><path d="M67.52,25.33c1.26,1.26,1.76,2.92,1.76,5.27c0,11.15-0.21,20.4-0.21,27.9c0,2.21-0.06,4-0.06,5.24" class="grey" /><path d="M87.77,15.08c1.08,1.08,1.76,2.79,1.76,4.52c0,19.4-0.01,63.91-0.01,68.87c0,9.91-5.52,3.41-8.21,0.75" class="grey" /><path d="M19.01,20.13c0.8,0.8,1.38,2.25,1.38,3.38c0,4,0,36.01,0,48c0,2.23,0,3.76,0,4.3" class="stroke" stroke-dasharray="150"><animate attributeName="stroke-dashoffset" from="150" to="0" dur="1.8s" begin="0s" fill="freeze" /></path><path d="M21.41,21.65c2.6-0.21,21.69-2.9,24.06-3.15c1.98-0.21,3.37,1.17,3.37,2.73c0,3.02-0.01,38.15-0.01,47.75c0,1.9-0.08,4.77-0.08,6.03" class="stroke" stroke-dasharray="150"><set attributeName="opacity" to="0" dur="1.4s" /><animate attributeName="stroke-dashoffset" from="150" to="0" dur="1.8s" begin="1.4s" fill="freeze" /></path><path d="M21.37,38.88c5.38-0.63,19.38-2.38,26.23-2.91" class="stroke" stroke-dasharray="150"><set attributeName="opacity" to="0" dur="3.0999999999999996s" /><animate attributeName="stroke-dashoffset" from="150" to="0" dur="1.8s" begin="3.0999999999999996s" fill="freeze" /></path><path d="M21.58,55.34c7.92-0.84,17.92-2.09,25.96-2.52" class="stroke" stroke-dasharray="150"><set attributeName="opacity" to="0" dur="4.1s" /><animate attributeName="stroke-dashoffset" from="150" to="0" dur="1.8s" begin="4.1s" fill="freeze" /></path><path d="M22.25,72.91c6.25-0.91,17.5-2.16,25.46-2.52" class="stroke" stroke-dasharray="150"><set attributeName="opacity" to="0" dur="5.1s" /><animate attributeName="stroke-dashoffset" from="150" to="0" dur="1.8s" begin="5.1s" fill="freeze" /></path><path d="M27.32,79.94c0.34,1.17,0.13,2.21-0.5,3.09C24,87,18.53,92.45,14.5,95.5" class="stroke" stroke-dasharray="150"><set attributeName="opacity" to="0" dur="6.1s" /><animate attributeName="stroke-dashoffset" from="150" to="0" dur="1.8s" begin="6.1s" fill="freeze" /></path><path d="M42.38,81.43c3.8,3.48,8.29,9.79,9.32,12.84" class="stroke" stroke-dasharray="150"><set attributeName="opacity" to="0" dur="7.1s" /><animate attributeName="stroke-dashoffset" from="150" to="0" dur="1.8s" begin="7.1s" fill="freeze" /></path><path d="M67.52,25.33c1.26,1.26,1.76,2.92,1.76,5.27c0,11.15-0.21,20.4-0.21,27.9c0,2.21-0.06,4-0.06,5.24" class="stroke" stroke-dasharray="150"><set attributeName="opacity" to="0" dur="8.0s" /><animate attributeName="stroke-dashoffset" from="150" to="0" dur="1.8s" begin="8.0s" fill="freeze" /></path><path d="M87.77,15.08c1.08,1.08,1.76,2.79,1.76,4.52c0,19.4-0.01,63.91-0.01,68.87c0,9.91-5.52,3.41-8.21,0.75" class="stroke" stroke-dasharray="150"><set attributeName="opacity" to="0" dur="9.0s" /><animate attributeName="stroke-dashoffset" from="150" to="0" dur="1.8s" begin="9.0s" fill="freeze" /></path><text x="90" y="120" id="reset">⟳</text><text x="70" y="120" id="pause">◼</text><script type="text/javascript"><![CDATA[function RecurringTimer(e,t){var n,r,i=t;this.pause=function(){window.clearTimeout(n);i-=new Date-r};var s=function(){r=new Date;n=window.setTimeout(function(){i=t;s();e()},i)};this.clear=function(){window.clearTimeout(n);i=t;n=window.setTimeout(function(){i=t;s();e()},i)};this.resume=s;this.resume()}function invoketimer(){timer=new RecurringTimer(function(){svg.setCurrentTime(0)},11700)}var svg=document.getElementById("kanjivg");var pause=document.getElementById("pause");var reset=document.getElementById("reset");var timer;invoketimer();reset.onclick=function(){svg.setCurrentTime(0);timer.clear();svg.unpauseAnimations();pause.innerHTML = "◼";};pause.onclick=function(){if(svg.animationsPaused()){svg.unpauseAnimations();timer.resume();pause.innerHTML="◼"}else{svg.pauseAnimations();timer.pause();pause.innerHTML="▶"}}]]></script></svg>