<svg id="kanjivg" width="106" height="126" xmlns="http://www.w3.org/2000/svg" xmlns:xlink="http://www.w3.org/1999/xlink" xml:space="preserve" version="1.1" baseProfile="full"><defs><style type="text/css"><![CDATA[path.black { fill:none;stroke:black;stroke-width:5;stroke-linecap:round;stroke-linejoin:round; }path.grey { fill:none;stroke:#ddd;stroke-width:5;stroke-linecap:round;stroke-linejoin:round; }path.stroke { fill:none;stroke:black;stroke-width:5;stroke-linecap:round;stroke-linejoin:round; }rect { fill:none;stroke:#555;stroke-width:2;} text{font-size:16px;font-family:Segoe UI Symbol,Cambria Math,DejaVu Sans,Symbola,Quivira,STIX,Code2000;-webkit-touch-callout:none;cursor:pointer;-webkit-user-select:none;-khtml-user-select:none;-moz-user-select:none;-ms-user-select:none;user-select: none;} #reset { font-weight:bold; }]]></style><marker id="markerStart" markerWidth="8" markerHeight="8" style="overflow:visible;"><circle cx="0" cy="0" r="1.5" style="stroke:none;fill:red;fill-opacity:0.5;"/></marker><marker id="markerEnd" style="overflow:visible;"><circle cx="0" cy="0" r="0.8" style="stroke:none;fill:blue;fill-opacity:0.5;"><animate attributeName="opacity" from="1" to="0" dur="3s" repeatCount="indefinite" /></circle></marker></defs><rect x="4" y="4" width="100" height="100" /><path d="M35.71,19.5c1.04,1.01,1.32,2.25,1.32,3.67c0,2.39,0,4.91,0,11.4" class="grey" /><path d="M15.75,37.75c2.32,0.65,5.18,0.41,7.54,0.08c8.31-1.17,21.53-3.46,27.64-4.22c1.92-0.24,3.1,0.15,4.07,0.32" class="grey" /><path d="M23.12,43.62c3.48,3.89,5.06,7.86,5.38,10.43" class="grey" /><path d="M49.75,38.26c0.25,0.86-0.02,2.01-0.23,2.5C47.25,46,44.04,52.24,42.5,55.03" class="grey" /><path d="M11.5,61.49c2.31,0.74,5.16,0.62,7.51,0.2c10.87-1.94,22.61-4.08,33.24-5.21c2.5-0.26,4.77-0.35,7.25,0.13" class="grey" /><path d="M20.25,73.09c0.78,0.6,1.25,1.38,1.38,2.36c0.95,3.05,2.14,8.5,3.02,13.22c0.31,1.67,0.58,3.24,0.78,4.58" class="grey" /><path d="M22.57,74.04c6.88-0.93,19.06-3.12,24.94-3.74c2.87-0.3,4.25,1.32,3.81,3.97c-0.68,4.12-2.21,9.11-3.38,13.46" class="grey" /><path d="M26.11,91c4.09-0.38,12-0.99,18.9-1.59c1.73-0.15,3.36-0.3,4.77-0.45" class="grey" /><path d="M69.52,29.83c0.98,0.92,1.76,2.79,1.76,5.02c0,10.5,0.15,20.27,0.05,26.9c-0.04,2.56-0.07,4.62-0.07,6" class="grey" /><path d="M89.27,16.33c1.33,1.33,1.76,2.79,1.76,5.27c0,14.56-0.01,60.16-0.01,65.12c0,14.03-5.71,2.5-7.21,1.25" class="grey" /><path d="M35.71,19.5c1.04,1.01,1.32,2.25,1.32,3.67c0,2.39,0,4.91,0,11.4" class="stroke" stroke-dasharray="150"><animate attributeName="stroke-dashoffset" from="150" to="0" dur="1.8s" begin="0s" fill="freeze" /></path><path d="M15.75,37.75c2.32,0.65,5.18,0.41,7.54,0.08c8.31-1.17,21.53-3.46,27.64-4.22c1.92-0.24,3.1,0.15,4.07,0.32" class="stroke" stroke-dasharray="150"><set attributeName="opacity" to="0" dur="0.9s" /><animate attributeName="stroke-dashoffset" from="150" to="0" dur="1.8s" begin="0.9s" fill="freeze" /></path><path d="M23.12,43.62c3.48,3.89,5.06,7.86,5.38,10.43" class="stroke" stroke-dasharray="150"><set attributeName="opacity" to="0" dur="1.9s" /><animate attributeName="stroke-dashoffset" from="150" to="0" dur="1.8s" begin="1.9s" fill="freeze" /></path><path d="M49.75,38.26c0.25,0.86-0.02,2.01-0.23,2.5C47.25,46,44.04,52.24,42.5,55.03" class="stroke" stroke-dasharray="150"><set attributeName="opacity" to="0" dur="2.8s" /><animate attributeName="stroke-dashoffset" from="150" to="0" dur="1.8s" begin="2.8s" fill="freeze" /></path><path d="M11.5,61.49c2.31,0.74,5.16,0.62,7.51,0.2c10.87-1.94,22.61-4.08,33.24-5.21c2.5-0.26,4.77-0.35,7.25,0.13" class="stroke" stroke-dasharray="150"><set attributeName="opacity" to="0" dur="3.6999999999999997s" /><animate attributeName="stroke-dashoffset" from="150" to="0" dur="1.8s" begin="3.6999999999999997s" fill="freeze" /></path><path d="M20.25,73.09c0.78,0.6,1.25,1.38,1.38,2.36c0.95,3.05,2.14,8.5,3.02,13.22c0.31,1.67,0.58,3.24,0.78,4.58" class="stroke" stroke-dasharray="150"><set attributeName="opacity" to="0" dur="4.8999999999999995s" /><animate attributeName="stroke-dashoffset" from="150" to="0" dur="1.8s" begin="4.8999999999999995s" fill="freeze" /></path><path d="M22.57,74.04c6.88-0.93,19.06-3.12,24.94-3.74c2.87-0.3,4.25,1.32,3.81,3.97c-0.68,4.12-2.21,9.11-3.38,13.46" class="stroke" stroke-dasharray="150"><set attributeName="opacity" to="0" dur="5.8999999999999995s" /><animate attributeName="stroke-dashoffset" from="150" to="0" dur="1.8s" begin="5.8999999999999995s" fill="freeze" /></path><path d="M26.11,91c4.09-0.38,12-0.99,18.9-1.59c1.73-0.15,3.36-0.3,4.77-0.45" class="stroke" stroke-dasharray="150"><set attributeName="opacity" to="0" dur="7.1s" /><animate attributeName="stroke-dashoffset" from="150" to="0" dur="1.8s" begin="7.1s" fill="freeze" /></path><path d="M69.52,29.83c0.98,0.92,1.76,2.79,1.76,5.02c0,10.5,0.15,20.27,0.05,26.9c-0.04,2.56-0.07,4.62-0.07,6" class="stroke" stroke-dasharray="150"><set attributeName="opacity" to="0" dur="8.1s" /><animate attributeName="stroke-dashoffset" from="150" to="0" dur="1.8s" begin="8.1s" fill="freeze" /></path><path d="M89.27,16.33c1.33,1.33,1.76,2.79,1.76,5.27c0,14.56-0.01,60.16-0.01,65.12c0,14.03-5.71,2.5-7.21,1.25" class="stroke" stroke-dasharray="150"><set attributeName="opacity" to="0" dur="9.1s" /><animate attributeName="stroke-dashoffset" from="150" to="0" dur="1.8s" begin="9.1s" fill="freeze" /></path><text x="90" y="120" id="reset">⟳</text><text x="70" y="120" id="pause">◼</text><script type="text/javascript"><![CDATA[function RecurringTimer(e,t){var n,r,i=t;this.pause=function(){window.clearTimeout(n);i-=new Date-r};var s=function(){r=new Date;n=window.setTimeout(function(){i=t;s();e()},i)};this.clear=function(){window.clearTimeout(n);i=t;n=window.setTimeout(function(){i=t;s();e()},i)};this.resume=s;this.resume()}function invoketimer(){timer=new RecurringTimer(function(){svg.setCurrentTime(0)},11799)}var svg=document.getElementById("kanjivg");var pause=document.getElementById("pause");var reset=document.getElementById("reset");var timer;invoketimer();reset.onclick=function(){svg.setCurrentTime(0);timer.clear();svg.unpauseAnimations();pause.innerHTML = "◼";};pause.onclick=function(){if(svg.animationsPaused()){svg.unpauseAnimations();timer.resume();pause.innerHTML="◼"}else{svg.pauseAnimations();timer.pause();pause.innerHTML="▶"}}]]></script></svg>