<svg id="kanjivg" width="106" height="126" xmlns="http://www.w3.org/2000/svg" xmlns:xlink="http://www.w3.org/1999/xlink" xml:space="preserve" version="1.1" baseProfile="full"><defs><style type="text/css"><![CDATA[path.black { fill:none;stroke:black;stroke-width:5;stroke-linecap:round;stroke-linejoin:round; }path.grey { fill:none;stroke:#ddd;stroke-width:5;stroke-linecap:round;stroke-linejoin:round; }path.stroke { fill:none;stroke:black;stroke-width:5;stroke-linecap:round;stroke-linejoin:round; }rect { fill:none;stroke:#555;stroke-width:2;} text{font-size:16px;font-family:Segoe UI Symbol,Cambria Math,DejaVu Sans,Symbola,Quivira,STIX,Code2000;-webkit-touch-callout:none;cursor:pointer;-webkit-user-select:none;-khtml-user-select:none;-moz-user-select:none;-ms-user-select:none;user-select: none;} #reset { font-weight:bold; }]]></style><marker id="markerStart" markerWidth="8" markerHeight="8" style="overflow:visible;"><circle cx="0" cy="0" r="1.5" style="stroke:none;fill:red;fill-opacity:0.5;"/></marker><marker id="markerEnd" style="overflow:visible;"><circle cx="0" cy="0" r="0.8" style="stroke:none;fill:blue;fill-opacity:0.5;"><animate attributeName="opacity" from="1" to="0" dur="3s" repeatCount="indefinite" /></circle></marker></defs><rect x="4" y="4" width="100" height="100" /><path d="M22.15,15.91c0.41,0.65,1.24,1.92,1.33,2.79c0.52,5.55,3.37,27.39,3.51,28.27" class="grey" /><path d="M24.16,17.45c2.33-0.11,23.87-2.83,25.99-2.96c1.77-0.11,2.83,2.59,2.77,3.26c-0.42,4.94-0.75,16.02-2.25,27.08" class="grey" /><path d="M26.41,30.57c8.2-0.84,19.91-2.24,25.35-2.49" class="grey" /><path d="M27.67,45.3c6.77-0.91,16.97-1.84,23.31-2.28" class="grey" /><path d="M31.58,48.7c0.05,0.49,0.21,1.29-0.11,1.95C28.5,56.75,23,64,12.98,69.32" class="grey" /><path d="M28.38,57.57c0.81,0.45,1.95,0.6,3.25,0.3c1.3-0.3,22.83-2.85,26.07-3c3.24-0.15,3.79,1.49,3.41,4.65c-1.1,9.23-2.63,21.7-8.79,33.9c-2.56,5.08-5.06,3.33-8.19-1.75" class="grey" /><path d="M37.2,60.06c0.04,0.41,0.12,1.06-0.08,1.63c-1.99,5.62-9.72,13.98-17.55,18.59" class="grey" /><path d="M49.59,58.65c0.08,0.79-0.14,2.12-0.65,3.18C45.25,69.5,37.5,81.75,23.16,92.26" class="grey" /><path d="M70.27,23.83c0.98,0.92,1.67,1.99,1.76,5.02C72.42,43.41,72,64.54,72,69.5" class="grey" /><path d="M88.27,12.33c0.98,0.92,1.67,1.99,1.76,5.02c0.4,14.55-0.26,66.16-0.26,71.12c0,13.14-7.21,1.5-8.71,0.25" class="grey" /><path d="M22.15,15.91c0.41,0.65,1.24,1.92,1.33,2.79c0.52,5.55,3.37,27.39,3.51,28.27" class="stroke" stroke-dasharray="150"><animate attributeName="stroke-dashoffset" from="150" to="0" dur="1.8s" begin="0s" fill="freeze" /></path><path d="M24.16,17.45c2.33-0.11,23.87-2.83,25.99-2.96c1.77-0.11,2.83,2.59,2.77,3.26c-0.42,4.94-0.75,16.02-2.25,27.08" class="stroke" stroke-dasharray="150"><set attributeName="opacity" to="0" dur="1.0s" /><animate attributeName="stroke-dashoffset" from="150" to="0" dur="1.8s" begin="1.0s" fill="freeze" /></path><path d="M26.41,30.57c8.2-0.84,19.91-2.24,25.35-2.49" class="stroke" stroke-dasharray="150"><set attributeName="opacity" to="0" dur="2.4s" /><animate attributeName="stroke-dashoffset" from="150" to="0" dur="1.8s" begin="2.4s" fill="freeze" /></path><path d="M27.67,45.3c6.77-0.91,16.97-1.84,23.31-2.28" class="stroke" stroke-dasharray="150"><set attributeName="opacity" to="0" dur="3.4s" /><animate attributeName="stroke-dashoffset" from="150" to="0" dur="1.8s" begin="3.4s" fill="freeze" /></path><path d="M31.58,48.7c0.05,0.49,0.21,1.29-0.11,1.95C28.5,56.75,23,64,12.98,69.32" class="stroke" stroke-dasharray="150"><set attributeName="opacity" to="0" dur="4.4s" /><animate attributeName="stroke-dashoffset" from="150" to="0" dur="1.8s" begin="4.4s" fill="freeze" /></path><path d="M28.38,57.57c0.81,0.45,1.95,0.6,3.25,0.3c1.3-0.3,22.83-2.85,26.07-3c3.24-0.15,3.79,1.49,3.41,4.65c-1.1,9.23-2.63,21.7-8.79,33.9c-2.56,5.08-5.06,3.33-8.19-1.75" class="stroke" stroke-dasharray="150"><set attributeName="opacity" to="0" dur="5.4s" /><animate attributeName="stroke-dashoffset" from="150" to="0" dur="1.8s" begin="5.4s" fill="freeze" /></path><path d="M37.2,60.06c0.04,0.41,0.12,1.06-0.08,1.63c-1.99,5.62-9.72,13.98-17.55,18.59" class="stroke" stroke-dasharray="150"><set attributeName="opacity" to="0" dur="7.1000000000000005s" /><animate attributeName="stroke-dashoffset" from="150" to="0" dur="1.8s" begin="7.1000000000000005s" fill="freeze" /></path><path d="M49.59,58.65c0.08,0.79-0.14,2.12-0.65,3.18C45.25,69.5,37.5,81.75,23.16,92.26" class="stroke" stroke-dasharray="150"><set attributeName="opacity" to="0" dur="8.100000000000001s" /><animate attributeName="stroke-dashoffset" from="150" to="0" dur="1.8s" begin="8.100000000000001s" fill="freeze" /></path><path d="M70.27,23.83c0.98,0.92,1.67,1.99,1.76,5.02C72.42,43.41,72,64.54,72,69.5" class="stroke" stroke-dasharray="150"><set attributeName="opacity" to="0" dur="9.200000000000001s" /><animate attributeName="stroke-dashoffset" from="150" to="0" dur="1.8s" begin="9.200000000000001s" fill="freeze" /></path><path d="M88.27,12.33c0.98,0.92,1.67,1.99,1.76,5.02c0.4,14.55-0.26,66.16-0.26,71.12c0,13.14-7.21,1.5-8.71,0.25" class="stroke" stroke-dasharray="150"><set attributeName="opacity" to="0" dur="10.4s" /><animate attributeName="stroke-dashoffset" from="150" to="0" dur="1.8s" begin="10.4s" fill="freeze" /></path><text x="90" y="120" id="reset">⟳</text><text x="70" y="120" id="pause">◼</text><script type="text/javascript"><![CDATA[function RecurringTimer(e,t){var n,r,i=t;this.pause=function(){window.clearTimeout(n);i-=new Date-r};var s=function(){r=new Date;n=window.setTimeout(function(){i=t;s();e()},i)};this.clear=function(){window.clearTimeout(n);i=t;n=window.setTimeout(function(){i=t;s();e()},i)};this.resume=s;this.resume()}function invoketimer(){timer=new RecurringTimer(function(){svg.setCurrentTime(0)},13200)}var svg=document.getElementById("kanjivg");var pause=document.getElementById("pause");var reset=document.getElementById("reset");var timer;invoketimer();reset.onclick=function(){svg.setCurrentTime(0);timer.clear();svg.unpauseAnimations();pause.innerHTML = "◼";};pause.onclick=function(){if(svg.animationsPaused()){svg.unpauseAnimations();timer.resume();pause.innerHTML="◼"}else{svg.pauseAnimations();timer.pause();pause.innerHTML="▶"}}]]></script></svg>