<svg id="kanjivg" width="106" height="126" xmlns="http://www.w3.org/2000/svg" xmlns:xlink="http://www.w3.org/1999/xlink" xml:space="preserve" version="1.1" baseProfile="full"><defs><style type="text/css"><![CDATA[path.black { fill:none;stroke:black;stroke-width:5;stroke-linecap:round;stroke-linejoin:round; }path.grey { fill:none;stroke:#ddd;stroke-width:5;stroke-linecap:round;stroke-linejoin:round; }path.stroke { fill:none;stroke:black;stroke-width:5;stroke-linecap:round;stroke-linejoin:round; }rect { fill:none;stroke:#555;stroke-width:2;} text{font-size:16px;font-family:Segoe UI Symbol,Cambria Math,DejaVu Sans,Symbola,Quivira,STIX,Code2000;-webkit-touch-callout:none;cursor:pointer;-webkit-user-select:none;-khtml-user-select:none;-moz-user-select:none;-ms-user-select:none;user-select: none;} #reset { font-weight:bold; }]]></style><marker id="markerStart" markerWidth="8" markerHeight="8" style="overflow:visible;"><circle cx="0" cy="0" r="1.5" style="stroke:none;fill:red;fill-opacity:0.5;"/></marker><marker id="markerEnd" style="overflow:visible;"><circle cx="0" cy="0" r="0.8" style="stroke:none;fill:blue;fill-opacity:0.5;"><animate attributeName="opacity" from="1" to="0" dur="3s" repeatCount="indefinite" /></circle></marker></defs><rect x="4" y="4" width="100" height="100" /><path d="M32.18,20.75c2.81,1.69,6.24,4.87,8.07,8.33" class="grey" /><path d="M15.75,38c1.16,0.32,2.53,0.45,3.68,0.32c7.32-0.82,24.32-3.82,31.49-4.72c1.92-0.24,3.1,0.15,4.07,0.32" class="grey" /><path d="M23.25,43.45c3.56,4.05,5.18,8.19,5.5,10.85" class="grey" /><path d="M49.75,36.01c0.77,0.64,0.43,1.99,0.27,2.5c-1.52,4.73-5.23,13.72-6.77,16.51" class="grey" /><path d="M11.5,61.24c1.26,0.41,2.74,0.54,3.99,0.41C26.5,60.5,42,57.5,54.59,56.46c2.09-0.17,3.36,0.19,4.41,0.4" class="grey" /><path d="M20,72.84c0.37,0.33,0.75,0.6,0.92,1c1.29,3.22,3.39,13.36,4.27,19.15" class="grey" /><path d="M22.32,74.29c7.82-1.06,23.09-3.8,27.44-4.22c1.59-0.16,2.55,0.92,2.32,1.83c-0.94,3.77-2.48,11.39-3.89,16.59" class="grey" /><path d="M25.36,91c5.11-0.48,17.39-1.31,24.42-2.04" class="grey" /><path d="M69.27,29.83c0.98,0.92,1.67,1.99,1.76,5.02C71.42,49.41,71,63.04,71,68" class="grey" /><path d="M89.27,16.33c0.98,0.92,1.67,1.99,1.76,5.02c0.4,14.55-0.26,60.16-0.26,65.12c0,14.03-5.71,2.5-7.21,1.25" class="grey" /><path d="M32.18,20.75c2.81,1.69,6.24,4.87,8.07,8.33" class="stroke" stroke-dasharray="150"><animate attributeName="stroke-dashoffset" from="150" to="0" dur="1.8s" begin="0s" fill="freeze" /></path><path d="M15.75,38c1.16,0.32,2.53,0.45,3.68,0.32c7.32-0.82,24.32-3.82,31.49-4.72c1.92-0.24,3.1,0.15,4.07,0.32" class="stroke" stroke-dasharray="150"><set attributeName="opacity" to="0" dur="0.9s" /><animate attributeName="stroke-dashoffset" from="150" to="0" dur="1.8s" begin="0.9s" fill="freeze" /></path><path d="M23.25,43.45c3.56,4.05,5.18,8.19,5.5,10.85" class="stroke" stroke-dasharray="150"><set attributeName="opacity" to="0" dur="1.9s" /><animate attributeName="stroke-dashoffset" from="150" to="0" dur="1.8s" begin="1.9s" fill="freeze" /></path><path d="M49.75,36.01c0.77,0.64,0.43,1.99,0.27,2.5c-1.52,4.73-5.23,13.72-6.77,16.51" class="stroke" stroke-dasharray="150"><set attributeName="opacity" to="0" dur="2.8s" /><animate attributeName="stroke-dashoffset" from="150" to="0" dur="1.8s" begin="2.8s" fill="freeze" /></path><path d="M11.5,61.24c1.26,0.41,2.74,0.54,3.99,0.41C26.5,60.5,42,57.5,54.59,56.46c2.09-0.17,3.36,0.19,4.41,0.4" class="stroke" stroke-dasharray="150"><set attributeName="opacity" to="0" dur="3.8s" /><animate attributeName="stroke-dashoffset" from="150" to="0" dur="1.8s" begin="3.8s" fill="freeze" /></path><path d="M20,72.84c0.37,0.33,0.75,0.6,0.92,1c1.29,3.22,3.39,13.36,4.27,19.15" class="stroke" stroke-dasharray="150"><set attributeName="opacity" to="0" dur="5.0s" /><animate attributeName="stroke-dashoffset" from="150" to="0" dur="1.8s" begin="5.0s" fill="freeze" /></path><path d="M22.32,74.29c7.82-1.06,23.09-3.8,27.44-4.22c1.59-0.16,2.55,0.92,2.32,1.83c-0.94,3.77-2.48,11.39-3.89,16.59" class="stroke" stroke-dasharray="150"><set attributeName="opacity" to="0" dur="6.0s" /><animate attributeName="stroke-dashoffset" from="150" to="0" dur="1.8s" begin="6.0s" fill="freeze" /></path><path d="M25.36,91c5.11-0.48,17.39-1.31,24.42-2.04" class="stroke" stroke-dasharray="150"><set attributeName="opacity" to="0" dur="7.2s" /><animate attributeName="stroke-dashoffset" from="150" to="0" dur="1.8s" begin="7.2s" fill="freeze" /></path><path d="M69.27,29.83c0.98,0.92,1.67,1.99,1.76,5.02C71.42,49.41,71,63.04,71,68" class="stroke" stroke-dasharray="150"><set attributeName="opacity" to="0" dur="8.2s" /><animate attributeName="stroke-dashoffset" from="150" to="0" dur="1.8s" begin="8.2s" fill="freeze" /></path><path d="M89.27,16.33c0.98,0.92,1.67,1.99,1.76,5.02c0.4,14.55-0.26,60.16-0.26,65.12c0,14.03-5.71,2.5-7.21,1.25" class="stroke" stroke-dasharray="150"><set attributeName="opacity" to="0" dur="9.2s" /><animate attributeName="stroke-dashoffset" from="150" to="0" dur="1.8s" begin="9.2s" fill="freeze" /></path><text x="90" y="120" id="reset">⟳</text><text x="70" y="120" id="pause">◼</text><script type="text/javascript"><![CDATA[function RecurringTimer(e,t){var n,r,i=t;this.pause=function(){window.clearTimeout(n);i-=new Date-r};var s=function(){r=new Date;n=window.setTimeout(function(){i=t;s();e()},i)};this.clear=function(){window.clearTimeout(n);i=t;n=window.setTimeout(function(){i=t;s();e()},i)};this.resume=s;this.resume()}function invoketimer(){timer=new RecurringTimer(function(){svg.setCurrentTime(0)},11899)}var svg=document.getElementById("kanjivg");var pause=document.getElementById("pause");var reset=document.getElementById("reset");var timer;invoketimer();reset.onclick=function(){svg.setCurrentTime(0);timer.clear();svg.unpauseAnimations();pause.innerHTML = "◼";};pause.onclick=function(){if(svg.animationsPaused()){svg.unpauseAnimations();timer.resume();pause.innerHTML="◼"}else{svg.pauseAnimations();timer.pause();pause.innerHTML="▶"}}]]></script></svg>