<svg id="kanjivg" width="106" height="126" xmlns="http://www.w3.org/2000/svg" xmlns:xlink="http://www.w3.org/1999/xlink" xml:space="preserve" version="1.1" baseProfile="full"><defs><style type="text/css"><![CDATA[path.black { fill:none;stroke:black;stroke-width:5;stroke-linecap:round;stroke-linejoin:round; }path.grey { fill:none;stroke:#ddd;stroke-width:5;stroke-linecap:round;stroke-linejoin:round; }path.stroke { fill:none;stroke:black;stroke-width:5;stroke-linecap:round;stroke-linejoin:round; }rect { fill:none;stroke:#555;stroke-width:2;} text{font-size:16px;font-family:Segoe UI Symbol,Cambria Math,DejaVu Sans,Symbola,Quivira,STIX,Code2000;-webkit-touch-callout:none;cursor:pointer;-webkit-user-select:none;-khtml-user-select:none;-moz-user-select:none;-ms-user-select:none;user-select: none;} #reset { font-weight:bold; }]]></style><marker id="markerStart" markerWidth="8" markerHeight="8" style="overflow:visible;"><circle cx="0" cy="0" r="1.5" style="stroke:none;fill:red;fill-opacity:0.5;"/></marker><marker id="markerEnd" style="overflow:visible;"><circle cx="0" cy="0" r="0.8" style="stroke:none;fill:blue;fill-opacity:0.5;"><animate attributeName="opacity" from="1" to="0" dur="3s" repeatCount="indefinite" /></circle></marker></defs><rect x="4" y="4" width="100" height="100" /><path d="M35.59,13.5c1.81,0.95,3.75,3.85,4.78,6.48" class="grey" /><path d="M14.8,27.07c0.89,0.09,2.92,0.56,3.79,0.5c7.25-0.47,32.86-3.96,42.37-4.24c1.47-0.04,2.22,0.04,3.31,0.64" class="grey" /><path d="M48.56,28.08c-0.06,1.06-0.1,1.94-0.8,2.93c-6.51,9.28-18.74,19.32-33.57,23.59" class="grey" /><path d="M25.15,34.49c15.35,1.76,28.12,10.09,36.88,17.08" class="grey" /><path d="M26.08,52.97c0.51,0.54,1.03,1.56,1.03,2.13c0,3.41-0.26,13.81-0.33,15.04c-0.34,5.83-2.53,18.37-10.2,24.95" class="grey" /><path d="M27.79,61.74c5.63-0.42,11.24-0.99,16.87-1.48c0.58-0.05,1.15-0.1,1.71-0.14" class="grey" /><path d="M27.96,74.2c5.35-0.31,10.67-1.15,15.99-1.77c0.59-0.07,1.18-0.13,1.76-0.2" class="grey" /><path d="M52.78,51.81c0.44,0.39,1.17,1.9,1.17,2.68c0,3.08-0.01,38.39-0.06,40.6" class="grey" /><path d="M72.27,27.33c0.98,0.92,1.67,1.99,1.76,5.02C74.42,46.91,74,65.04,74,70" class="grey" /><path d="M88.77,14.33c0.98,0.92,1.67,1.99,1.76,5.02c0.4,14.55-0.26,63.66-0.26,68.62c0,13.14-7.21,1.5-8.71,0.25" class="grey" /><path d="M35.59,13.5c1.81,0.95,3.75,3.85,4.78,6.48" class="stroke" stroke-dasharray="150"><animate attributeName="stroke-dashoffset" from="150" to="0" dur="1.8s" begin="0s" fill="freeze" /></path><path d="M14.8,27.07c0.89,0.09,2.92,0.56,3.79,0.5c7.25-0.47,32.86-3.96,42.37-4.24c1.47-0.04,2.22,0.04,3.31,0.64" class="stroke" stroke-dasharray="150"><set attributeName="opacity" to="0" dur="0.9s" /><animate attributeName="stroke-dashoffset" from="150" to="0" dur="1.8s" begin="0.9s" fill="freeze" /></path><path d="M48.56,28.08c-0.06,1.06-0.1,1.94-0.8,2.93c-6.51,9.28-18.74,19.32-33.57,23.59" class="stroke" stroke-dasharray="150"><set attributeName="opacity" to="0" dur="2.1s" /><animate attributeName="stroke-dashoffset" from="150" to="0" dur="1.8s" begin="2.1s" fill="freeze" /></path><path d="M25.15,34.49c15.35,1.76,28.12,10.09,36.88,17.08" class="stroke" stroke-dasharray="150"><set attributeName="opacity" to="0" dur="3.2s" /><animate attributeName="stroke-dashoffset" from="150" to="0" dur="1.8s" begin="3.2s" fill="freeze" /></path><path d="M26.08,52.97c0.51,0.54,1.03,1.56,1.03,2.13c0,3.41-0.26,13.81-0.33,15.04c-0.34,5.83-2.53,18.37-10.2,24.95" class="stroke" stroke-dasharray="150"><set attributeName="opacity" to="0" dur="4.300000000000001s" /><animate attributeName="stroke-dashoffset" from="150" to="0" dur="1.8s" begin="4.300000000000001s" fill="freeze" /></path><path d="M27.79,61.74c5.63-0.42,11.24-0.99,16.87-1.48c0.58-0.05,1.15-0.1,1.71-0.14" class="stroke" stroke-dasharray="150"><set attributeName="opacity" to="0" dur="5.500000000000001s" /><animate attributeName="stroke-dashoffset" from="150" to="0" dur="1.8s" begin="5.500000000000001s" fill="freeze" /></path><path d="M27.96,74.2c5.35-0.31,10.67-1.15,15.99-1.77c0.59-0.07,1.18-0.13,1.76-0.2" class="stroke" stroke-dasharray="150"><set attributeName="opacity" to="0" dur="6.400000000000001s" /><animate attributeName="stroke-dashoffset" from="150" to="0" dur="1.8s" begin="6.400000000000001s" fill="freeze" /></path><path d="M52.78,51.81c0.44,0.39,1.17,1.9,1.17,2.68c0,3.08-0.01,38.39-0.06,40.6" class="stroke" stroke-dasharray="150"><set attributeName="opacity" to="0" dur="7.300000000000002s" /><animate attributeName="stroke-dashoffset" from="150" to="0" dur="1.8s" begin="7.300000000000002s" fill="freeze" /></path><path d="M72.27,27.33c0.98,0.92,1.67,1.99,1.76,5.02C74.42,46.91,74,65.04,74,70" class="stroke" stroke-dasharray="150"><set attributeName="opacity" to="0" dur="8.400000000000002s" /><animate attributeName="stroke-dashoffset" from="150" to="0" dur="1.8s" begin="8.400000000000002s" fill="freeze" /></path><path d="M88.77,14.33c0.98,0.92,1.67,1.99,1.76,5.02c0.4,14.55-0.26,63.66-0.26,68.62c0,13.14-7.21,1.5-8.71,0.25" class="stroke" stroke-dasharray="150"><set attributeName="opacity" to="0" dur="9.500000000000002s" /><animate attributeName="stroke-dashoffset" from="150" to="0" dur="1.8s" begin="9.500000000000002s" fill="freeze" /></path><text x="90" y="120" id="reset">⟳</text><text x="70" y="120" id="pause">◼</text><script type="text/javascript"><![CDATA[function RecurringTimer(e,t){var n,r,i=t;this.pause=function(){window.clearTimeout(n);i-=new Date-r};var s=function(){r=new Date;n=window.setTimeout(function(){i=t;s();e()},i)};this.clear=function(){window.clearTimeout(n);i=t;n=window.setTimeout(function(){i=t;s();e()},i)};this.resume=s;this.resume()}function invoketimer(){timer=new RecurringTimer(function(){svg.setCurrentTime(0)},12300)}var svg=document.getElementById("kanjivg");var pause=document.getElementById("pause");var reset=document.getElementById("reset");var timer;invoketimer();reset.onclick=function(){svg.setCurrentTime(0);timer.clear();svg.unpauseAnimations();pause.innerHTML = "◼";};pause.onclick=function(){if(svg.animationsPaused()){svg.unpauseAnimations();timer.resume();pause.innerHTML="◼"}else{svg.pauseAnimations();timer.pause();pause.innerHTML="▶"}}]]></script></svg>