<svg id="kanjivg" width="106" height="126" xmlns="http://www.w3.org/2000/svg" xmlns:xlink="http://www.w3.org/1999/xlink" xml:space="preserve" version="1.1" baseProfile="full"><defs><style type="text/css"><![CDATA[path.black { fill:none;stroke:black;stroke-width:5;stroke-linecap:round;stroke-linejoin:round; }path.grey { fill:none;stroke:#ddd;stroke-width:5;stroke-linecap:round;stroke-linejoin:round; }path.stroke { fill:none;stroke:black;stroke-width:5;stroke-linecap:round;stroke-linejoin:round; }rect { fill:none;stroke:#555;stroke-width:2;} text{font-size:16px;font-family:Segoe UI Symbol,Cambria Math,DejaVu Sans,Symbola,Quivira,STIX,Code2000;-webkit-touch-callout:none;cursor:pointer;-webkit-user-select:none;-khtml-user-select:none;-moz-user-select:none;-ms-user-select:none;user-select: none;} #reset { font-weight:bold; }]]></style><marker id="markerStart" markerWidth="8" markerHeight="8" style="overflow:visible;"><circle cx="0" cy="0" r="1.5" style="stroke:none;fill:red;fill-opacity:0.5;"/></marker><marker id="markerEnd" style="overflow:visible;"><circle cx="0" cy="0" r="0.8" style="stroke:none;fill:blue;fill-opacity:0.5;"><animate attributeName="opacity" from="1" to="0" dur="3s" repeatCount="indefinite" /></circle></marker></defs><rect x="4" y="4" width="100" height="100" /><path d="M45.68,13c0.08,0.28,0.17,0.72-0.16,1.11c-1.95,2.35-13.16,7.51-28.49,10.67" class="grey" /><path d="M12.25,32.15c0.54,0.31,2.7,1.12,4.13,0.92c6.47-0.92,28.33-4.27,39.29-5.11c1.43-0.11,3.23,0.36,4.13,0.67" class="grey" /><path d="M10.93,49.26c0.97,0.28,1.21,0.41,2.18,0.41s12.52-2.7,13.37-2.7" class="grey" /><path d="M25.38,38.51c0.72,0.83,0.98,2.72,0.98,3.28c0,0.55,0.12,16.21,0.12,17.72" class="grey" /><path d="M11.45,65.81c1.5,1.16,2.65,1.23,3.75,0.65c6.62-3.48,10.24-5.51,13.74-7.45" class="grey" /><path d="M60.71,36.77c0.09,0.2,0.13,0.77-0.09,1.1c-2.12,3.23-7.34,7.95-11.93,9.64" class="grey" /><path d="M47.08,34.8c0.32,0.37,0.75,1.08,0.75,1.81c0,0.49,0.11,16.35,0.11,17.85c0,3.83,1.81,4.83,7.59,4.83c5.15,0,7.49-0.95,7.49-4.93" class="grey" /><path d="M36.72,22.7c0.62,0.45,0.99,2.04,1.11,2.95c0.12,0.91-0.12,60.18-0.12,65.85c0,10.5-4.58,3.38-5.96,2" class="grey" /><path d="M37.79,56.61C33.45,67.74,22.61,80.67,12.1,87.65" class="grey" /><path d="M39.63,62.96c8.37,3.79,13.62,9.29,16.7,15.99" class="grey" /><path d="M70.52,26.08c0.98,0.92,1.67,1.99,1.76,5.02c0.4,14.55-0.02,30.69-0.02,35.65" class="grey" /><path d="M88.52,14.08c0.98,0.92,1.67,1.99,1.76,5.02c0.4,14.55-0.26,64.66-0.26,69.62c0,13.14-7.21,1.5-8.71,0.25" class="grey" /><path d="M45.68,13c0.08,0.28,0.17,0.72-0.16,1.11c-1.95,2.35-13.16,7.51-28.49,10.67" class="stroke" stroke-dasharray="150"><animate attributeName="stroke-dashoffset" from="150" to="0" dur="1.8s" begin="0s" fill="freeze" /></path><path d="M12.25,32.15c0.54,0.31,2.7,1.12,4.13,0.92c6.47-0.92,28.33-4.27,39.29-5.11c1.43-0.11,3.23,0.36,4.13,0.67" class="stroke" stroke-dasharray="150"><set attributeName="opacity" to="0" dur="1.0s" /><animate attributeName="stroke-dashoffset" from="150" to="0" dur="1.8s" begin="1.0s" fill="freeze" /></path><path d="M10.93,49.26c0.97,0.28,1.21,0.41,2.18,0.41s12.52-2.7,13.37-2.7" class="stroke" stroke-dasharray="150"><set attributeName="opacity" to="0" dur="2.2s" /><animate attributeName="stroke-dashoffset" from="150" to="0" dur="1.8s" begin="2.2s" fill="freeze" /></path><path d="M25.38,38.51c0.72,0.83,0.98,2.72,0.98,3.28c0,0.55,0.12,16.21,0.12,17.72" class="stroke" stroke-dasharray="150"><set attributeName="opacity" to="0" dur="3.1s" /><animate attributeName="stroke-dashoffset" from="150" to="0" dur="1.8s" begin="3.1s" fill="freeze" /></path><path d="M11.45,65.81c1.5,1.16,2.65,1.23,3.75,0.65c6.62-3.48,10.24-5.51,13.74-7.45" class="stroke" stroke-dasharray="150"><set attributeName="opacity" to="0" dur="4.1s" /><animate attributeName="stroke-dashoffset" from="150" to="0" dur="1.8s" begin="4.1s" fill="freeze" /></path><path d="M60.71,36.77c0.09,0.2,0.13,0.77-0.09,1.1c-2.12,3.23-7.34,7.95-11.93,9.64" class="stroke" stroke-dasharray="150"><set attributeName="opacity" to="0" dur="5.0s" /><animate attributeName="stroke-dashoffset" from="150" to="0" dur="1.8s" begin="5.0s" fill="freeze" /></path><path d="M47.08,34.8c0.32,0.37,0.75,1.08,0.75,1.81c0,0.49,0.11,16.35,0.11,17.85c0,3.83,1.81,4.83,7.59,4.83c5.15,0,7.49-0.95,7.49-4.93" class="stroke" stroke-dasharray="150"><set attributeName="opacity" to="0" dur="5.9s" /><animate attributeName="stroke-dashoffset" from="150" to="0" dur="1.8s" begin="5.9s" fill="freeze" /></path><path d="M36.72,22.7c0.62,0.45,0.99,2.04,1.11,2.95c0.12,0.91-0.12,60.18-0.12,65.85c0,10.5-4.58,3.38-5.96,2" class="stroke" stroke-dasharray="150"><set attributeName="opacity" to="0" dur="7.0s" /><animate attributeName="stroke-dashoffset" from="150" to="0" dur="1.8s" begin="7.0s" fill="freeze" /></path><path d="M37.79,56.61C33.45,67.74,22.61,80.67,12.1,87.65" class="stroke" stroke-dasharray="150"><set attributeName="opacity" to="0" dur="8.7s" /><animate attributeName="stroke-dashoffset" from="150" to="0" dur="1.8s" begin="8.7s" fill="freeze" /></path><path d="M39.63,62.96c8.37,3.79,13.62,9.29,16.7,15.99" class="stroke" stroke-dasharray="150"><set attributeName="opacity" to="0" dur="9.799999999999999s" /><animate attributeName="stroke-dashoffset" from="150" to="0" dur="1.8s" begin="9.799999999999999s" fill="freeze" /></path><path d="M70.52,26.08c0.98,0.92,1.67,1.99,1.76,5.02c0.4,14.55-0.02,30.69-0.02,35.65" class="stroke" stroke-dasharray="150"><set attributeName="opacity" to="0" dur="10.799999999999999s" /><animate attributeName="stroke-dashoffset" from="150" to="0" dur="1.8s" begin="10.799999999999999s" fill="freeze" /></path><path d="M88.52,14.08c0.98,0.92,1.67,1.99,1.76,5.02c0.4,14.55-0.26,64.66-0.26,69.62c0,13.14-7.21,1.5-8.71,0.25" class="stroke" stroke-dasharray="150"><set attributeName="opacity" to="0" dur="11.899999999999999s" /><animate attributeName="stroke-dashoffset" from="150" to="0" dur="1.8s" begin="11.899999999999999s" fill="freeze" /></path><text x="90" y="120" id="reset">⟳</text><text x="70" y="120" id="pause">◼</text><script type="text/javascript"><![CDATA[function RecurringTimer(e,t){var n,r,i=t;this.pause=function(){window.clearTimeout(n);i-=new Date-r};var s=function(){r=new Date;n=window.setTimeout(function(){i=t;s();e()},i)};this.clear=function(){window.clearTimeout(n);i=t;n=window.setTimeout(function(){i=t;s();e()},i)};this.resume=s;this.resume()}function invoketimer(){timer=new RecurringTimer(function(){svg.setCurrentTime(0)},14700)}var svg=document.getElementById("kanjivg");var pause=document.getElementById("pause");var reset=document.getElementById("reset");var timer;invoketimer();reset.onclick=function(){svg.setCurrentTime(0);timer.clear();svg.unpauseAnimations();pause.innerHTML = "◼";};pause.onclick=function(){if(svg.animationsPaused()){svg.unpauseAnimations();timer.resume();pause.innerHTML="◼"}else{svg.pauseAnimations();timer.pause();pause.innerHTML="▶"}}]]></script></svg>