<svg id="kanjivg" width="106" height="126" xmlns="http://www.w3.org/2000/svg" xmlns:xlink="http://www.w3.org/1999/xlink" xml:space="preserve" version="1.1" baseProfile="full"><defs><style type="text/css"><![CDATA[path.black { fill:none;stroke:black;stroke-width:5;stroke-linecap:round;stroke-linejoin:round; }path.grey { fill:none;stroke:#ddd;stroke-width:5;stroke-linecap:round;stroke-linejoin:round; }path.stroke { fill:none;stroke:black;stroke-width:5;stroke-linecap:round;stroke-linejoin:round; }rect { fill:none;stroke:#555;stroke-width:2;} text{font-size:16px;font-family:Segoe UI Symbol,Cambria Math,DejaVu Sans,Symbola,Quivira,STIX,Code2000;-webkit-touch-callout:none;cursor:pointer;-webkit-user-select:none;-khtml-user-select:none;-moz-user-select:none;-ms-user-select:none;user-select: none;} #reset { font-weight:bold; }]]></style><marker id="markerStart" markerWidth="8" markerHeight="8" style="overflow:visible;"><circle cx="0" cy="0" r="1.5" style="stroke:none;fill:red;fill-opacity:0.5;"/></marker><marker id="markerEnd" style="overflow:visible;"><circle cx="0" cy="0" r="0.8" style="stroke:none;fill:blue;fill-opacity:0.5;"><animate attributeName="opacity" from="1" to="0" dur="3s" repeatCount="indefinite" /></circle></marker></defs><rect x="4" y="4" width="100" height="100" /><path d="M40.85,16c0.28,1-0.1,2.51-0.66,3.66c-3.24,6.73-12.19,20.32-26.74,32.94" class="grey" /><path d="M43,22.12c5.32,2.16,11.29,6.92,14.3,10.86" class="grey" /><path d="M28.53,42.84c0.37,0.24,2.59,0.41,3.58,0.31c4.26-0.41,10.39-1.53,16.96-2.67c0.99-0.17,2.33-0.24,2.95,0" class="grey" /><path d="M23,56.24c0.75,0.75,1.06,1.65,1.22,2.34c1.03,4.54,1.35,6.01,2.23,9.87c0.3,1.31,0.59,2.7,0.85,4.23" class="grey" /><path d="M24.7,56.92c8.53-1.01,22.25-2.69,28.69-3.32c3.05-0.3,4.36,0.78,3.76,3.82c-0.74,3.72-1.12,4.91-2.25,8.15" class="grey" /><path d="M27.44,69.65c4.93-0.37,16.43-1.85,24.31-2.4c1.42-0.1,2.72-0.19,3.84-0.25" class="grey" /><path d="M40.11,45.57c0.66,0.66,1.04,1.98,1.04,3.8c0,24.28-3.27,35.38-22.4,46.13" class="grey" /><path d="M42.62,73.12C48.87,78.33,55.36,85.38,58,91.75" class="grey" /><path d="M69.52,33.08c1.08,1.08,1.51,2.54,1.51,4.77c0,9.6,0.17,17.92,0.08,23.9C71.05,64.84,71,67.31,71,69" class="grey" /><path d="M89.52,15.83c1.14,1.14,1.51,2.67,1.51,4.77c0,14.56-0.01,64.41-0.01,69.37c0,13.14-7.21,1.5-8.71,0.25" class="grey" /><path d="M40.85,16c0.28,1-0.1,2.51-0.66,3.66c-3.24,6.73-12.19,20.32-26.74,32.94" class="stroke" stroke-dasharray="150"><animate attributeName="stroke-dashoffset" from="150" to="0" dur="1.8s" begin="0s" fill="freeze" /></path><path d="M43,22.12c5.32,2.16,11.29,6.92,14.3,10.86" class="stroke" stroke-dasharray="150"><set attributeName="opacity" to="0" dur="1.2s" /><animate attributeName="stroke-dashoffset" from="150" to="0" dur="1.8s" begin="1.2s" fill="freeze" /></path><path d="M28.53,42.84c0.37,0.24,2.59,0.41,3.58,0.31c4.26-0.41,10.39-1.53,16.96-2.67c0.99-0.17,2.33-0.24,2.95,0" class="stroke" stroke-dasharray="150"><set attributeName="opacity" to="0" dur="2.1s" /><animate attributeName="stroke-dashoffset" from="150" to="0" dur="1.8s" begin="2.1s" fill="freeze" /></path><path d="M23,56.24c0.75,0.75,1.06,1.65,1.22,2.34c1.03,4.54,1.35,6.01,2.23,9.87c0.3,1.31,0.59,2.7,0.85,4.23" class="stroke" stroke-dasharray="150"><set attributeName="opacity" to="0" dur="3.1s" /><animate attributeName="stroke-dashoffset" from="150" to="0" dur="1.8s" begin="3.1s" fill="freeze" /></path><path d="M24.7,56.92c8.53-1.01,22.25-2.69,28.69-3.32c3.05-0.3,4.36,0.78,3.76,3.82c-0.74,3.72-1.12,4.91-2.25,8.15" class="stroke" stroke-dasharray="150"><set attributeName="opacity" to="0" dur="4.0s" /><animate attributeName="stroke-dashoffset" from="150" to="0" dur="1.8s" begin="4.0s" fill="freeze" /></path><path d="M27.44,69.65c4.93-0.37,16.43-1.85,24.31-2.4c1.42-0.1,2.72-0.19,3.84-0.25" class="stroke" stroke-dasharray="150"><set attributeName="opacity" to="0" dur="5.1s" /><animate attributeName="stroke-dashoffset" from="150" to="0" dur="1.8s" begin="5.1s" fill="freeze" /></path><path d="M40.11,45.57c0.66,0.66,1.04,1.98,1.04,3.8c0,24.28-3.27,35.38-22.4,46.13" class="stroke" stroke-dasharray="150"><set attributeName="opacity" to="0" dur="6.1s" /><animate attributeName="stroke-dashoffset" from="150" to="0" dur="1.8s" begin="6.1s" fill="freeze" /></path><path d="M42.62,73.12C48.87,78.33,55.36,85.38,58,91.75" class="stroke" stroke-dasharray="150"><set attributeName="opacity" to="0" dur="7.5s" /><animate attributeName="stroke-dashoffset" from="150" to="0" dur="1.8s" begin="7.5s" fill="freeze" /></path><path d="M69.52,33.08c1.08,1.08,1.51,2.54,1.51,4.77c0,9.6,0.17,17.92,0.08,23.9C71.05,64.84,71,67.31,71,69" class="stroke" stroke-dasharray="150"><set attributeName="opacity" to="0" dur="8.5s" /><animate attributeName="stroke-dashoffset" from="150" to="0" dur="1.8s" begin="8.5s" fill="freeze" /></path><path d="M89.52,15.83c1.14,1.14,1.51,2.67,1.51,4.77c0,14.56-0.01,64.41-0.01,69.37c0,13.14-7.21,1.5-8.71,0.25" class="stroke" stroke-dasharray="150"><set attributeName="opacity" to="0" dur="9.5s" /><animate attributeName="stroke-dashoffset" from="150" to="0" dur="1.8s" begin="9.5s" fill="freeze" /></path><text x="90" y="120" id="reset">⟳</text><text x="70" y="120" id="pause">◼</text><script type="text/javascript"><![CDATA[function RecurringTimer(e,t){var n,r,i=t;this.pause=function(){window.clearTimeout(n);i-=new Date-r};var s=function(){r=new Date;n=window.setTimeout(function(){i=t;s();e()},i)};this.clear=function(){window.clearTimeout(n);i=t;n=window.setTimeout(function(){i=t;s();e()},i)};this.resume=s;this.resume()}function invoketimer(){timer=new RecurringTimer(function(){svg.setCurrentTime(0)},12300)}var svg=document.getElementById("kanjivg");var pause=document.getElementById("pause");var reset=document.getElementById("reset");var timer;invoketimer();reset.onclick=function(){svg.setCurrentTime(0);timer.clear();svg.unpauseAnimations();pause.innerHTML = "◼";};pause.onclick=function(){if(svg.animationsPaused()){svg.unpauseAnimations();timer.resume();pause.innerHTML="◼"}else{svg.pauseAnimations();timer.pause();pause.innerHTML="▶"}}]]></script></svg>