<svg id="kanjivg" width="106" height="126" xmlns="http://www.w3.org/2000/svg" xmlns:xlink="http://www.w3.org/1999/xlink" xml:space="preserve" version="1.1" baseProfile="full"><defs><style type="text/css"><![CDATA[path.black { fill:none;stroke:black;stroke-width:5;stroke-linecap:round;stroke-linejoin:round; }path.grey { fill:none;stroke:#ddd;stroke-width:5;stroke-linecap:round;stroke-linejoin:round; }path.stroke { fill:none;stroke:black;stroke-width:5;stroke-linecap:round;stroke-linejoin:round; }rect { fill:none;stroke:#555;stroke-width:2;} text{font-size:16px;font-family:Segoe UI Symbol,Cambria Math,DejaVu Sans,Symbola,Quivira,STIX,Code2000;-webkit-touch-callout:none;cursor:pointer;-webkit-user-select:none;-khtml-user-select:none;-moz-user-select:none;-ms-user-select:none;user-select: none;} #reset { font-weight:bold; }]]></style><marker id="markerStart" markerWidth="8" markerHeight="8" style="overflow:visible;"><circle cx="0" cy="0" r="1.5" style="stroke:none;fill:red;fill-opacity:0.5;"/></marker><marker id="markerEnd" style="overflow:visible;"><circle cx="0" cy="0" r="0.8" style="stroke:none;fill:blue;fill-opacity:0.5;"><animate attributeName="opacity" from="1" to="0" dur="3s" repeatCount="indefinite" /></circle></marker></defs><rect x="4" y="4" width="100" height="100" /><path d="M38.1,14.25c0.89,0.89,1.47,1.88,1.47,3.36c0,1.76-0.01,3.99-0.07,6.76" class="grey" /><path d="M15.3,27.32c2.58,0.68,5.02,0.45,7.7,0.18c8.83-0.89,25.31-3.04,34.75-3.74c2.11-0.16,4.25-0.51,6.51,0.22" class="grey" /><path d="M48.56,28.33c-0.06,1.06-0.06,1.97-0.8,2.93C41.5,39.38,30,48.12,14.19,53.84" class="grey" /><path d="M25.15,34.49c16.1,2.63,27.87,9.59,36.63,16.58" class="grey" /><path d="M26.08,52.97c0.66,0.66,1.03,1.78,1.03,2.88C27.1,81,24,87.12,16.33,94.83" class="grey" /><path d="M28.29,61.74c7.4-0.54,18.25-1.86,24.75-2.13" class="grey" /><path d="M27.46,73.95c6.91-0.82,18.7-2.12,25.48-2.35" class="grey" /><path d="M53.03,51.56c0.83,0.83,1.17,1.82,1.17,2.93c0,2.38-0.01,24.05-0.03,34.76c-0.01,3.14-0.02,5.34-0.03,5.84" class="grey" /><path d="M72.02,27.33c0.98,0.92,1.76,2.17,1.76,4.27c0,10.33,0.16,23.71,0.05,31.65c-0.04,3.25-0.08,5.81-0.08,7.25" class="grey" /><path d="M88.77,14.33c1.26,1.26,1.76,2.92,1.76,5.02c0,14.56-0.01,63.66-0.01,68.62c0,13.14-7.21,1.5-8.71,0.25" class="grey" /><path d="M38.1,14.25c0.89,0.89,1.47,1.88,1.47,3.36c0,1.76-0.01,3.99-0.07,6.76" class="stroke" stroke-dasharray="150"><animate attributeName="stroke-dashoffset" from="150" to="0" dur="1.8s" begin="0s" fill="freeze" /></path><path d="M15.3,27.32c2.58,0.68,5.02,0.45,7.7,0.18c8.83-0.89,25.31-3.04,34.75-3.74c2.11-0.16,4.25-0.51,6.51,0.22" class="stroke" stroke-dasharray="150"><set attributeName="opacity" to="0" dur="0.9s" /><animate attributeName="stroke-dashoffset" from="150" to="0" dur="1.8s" begin="0.9s" fill="freeze" /></path><path d="M48.56,28.33c-0.06,1.06-0.06,1.97-0.8,2.93C41.5,39.38,30,48.12,14.19,53.84" class="stroke" stroke-dasharray="150"><set attributeName="opacity" to="0" dur="2.1s" /><animate attributeName="stroke-dashoffset" from="150" to="0" dur="1.8s" begin="2.1s" fill="freeze" /></path><path d="M25.15,34.49c16.1,2.63,27.87,9.59,36.63,16.58" class="stroke" stroke-dasharray="150"><set attributeName="opacity" to="0" dur="3.2s" /><animate attributeName="stroke-dashoffset" from="150" to="0" dur="1.8s" begin="3.2s" fill="freeze" /></path><path d="M26.08,52.97c0.66,0.66,1.03,1.78,1.03,2.88C27.1,81,24,87.12,16.33,94.83" class="stroke" stroke-dasharray="150"><set attributeName="opacity" to="0" dur="4.300000000000001s" /><animate attributeName="stroke-dashoffset" from="150" to="0" dur="1.8s" begin="4.300000000000001s" fill="freeze" /></path><path d="M28.29,61.74c7.4-0.54,18.25-1.86,24.75-2.13" class="stroke" stroke-dasharray="150"><set attributeName="opacity" to="0" dur="5.4s" /><animate attributeName="stroke-dashoffset" from="150" to="0" dur="1.8s" begin="5.4s" fill="freeze" /></path><path d="M27.46,73.95c6.91-0.82,18.7-2.12,25.48-2.35" class="stroke" stroke-dasharray="150"><set attributeName="opacity" to="0" dur="6.4s" /><animate attributeName="stroke-dashoffset" from="150" to="0" dur="1.8s" begin="6.4s" fill="freeze" /></path><path d="M53.03,51.56c0.83,0.83,1.17,1.82,1.17,2.93c0,2.38-0.01,24.05-0.03,34.76c-0.01,3.14-0.02,5.34-0.03,5.84" class="stroke" stroke-dasharray="150"><set attributeName="opacity" to="0" dur="7.4s" /><animate attributeName="stroke-dashoffset" from="150" to="0" dur="1.8s" begin="7.4s" fill="freeze" /></path><path d="M72.02,27.33c0.98,0.92,1.76,2.17,1.76,4.27c0,10.33,0.16,23.71,0.05,31.65c-0.04,3.25-0.08,5.81-0.08,7.25" class="stroke" stroke-dasharray="150"><set attributeName="opacity" to="0" dur="8.5s" /><animate attributeName="stroke-dashoffset" from="150" to="0" dur="1.8s" begin="8.5s" fill="freeze" /></path><path d="M88.77,14.33c1.26,1.26,1.76,2.92,1.76,5.02c0,14.56-0.01,63.66-0.01,68.62c0,13.14-7.21,1.5-8.71,0.25" class="stroke" stroke-dasharray="150"><set attributeName="opacity" to="0" dur="9.6s" /><animate attributeName="stroke-dashoffset" from="150" to="0" dur="1.8s" begin="9.6s" fill="freeze" /></path><text x="90" y="120" id="reset">⟳</text><text x="70" y="120" id="pause">◼</text><script type="text/javascript"><![CDATA[function RecurringTimer(e,t){var n,r,i=t;this.pause=function(){window.clearTimeout(n);i-=new Date-r};var s=function(){r=new Date;n=window.setTimeout(function(){i=t;s();e()},i)};this.clear=function(){window.clearTimeout(n);i=t;n=window.setTimeout(function(){i=t;s();e()},i)};this.resume=s;this.resume()}function invoketimer(){timer=new RecurringTimer(function(){svg.setCurrentTime(0)},12400)}var svg=document.getElementById("kanjivg");var pause=document.getElementById("pause");var reset=document.getElementById("reset");var timer;invoketimer();reset.onclick=function(){svg.setCurrentTime(0);timer.clear();svg.unpauseAnimations();pause.innerHTML = "◼";};pause.onclick=function(){if(svg.animationsPaused()){svg.unpauseAnimations();timer.resume();pause.innerHTML="◼"}else{svg.pauseAnimations();timer.pause();pause.innerHTML="▶"}}]]></script></svg>