<svg id="kanjivg" width="106" height="126" xmlns="http://www.w3.org/2000/svg" xmlns:xlink="http://www.w3.org/1999/xlink" xml:space="preserve" version="1.1" baseProfile="full"><defs><style type="text/css"><![CDATA[path.black { fill:none;stroke:black;stroke-width:5;stroke-linecap:round;stroke-linejoin:round; }path.grey { fill:none;stroke:#ddd;stroke-width:5;stroke-linecap:round;stroke-linejoin:round; }path.stroke { fill:none;stroke:black;stroke-width:5;stroke-linecap:round;stroke-linejoin:round; }rect { fill:none;stroke:#555;stroke-width:2;} text{font-size:16px;font-family:Segoe UI Symbol,Cambria Math,DejaVu Sans,Symbola,Quivira,STIX,Code2000;-webkit-touch-callout:none;cursor:pointer;-webkit-user-select:none;-khtml-user-select:none;-moz-user-select:none;-ms-user-select:none;user-select: none;} #reset { font-weight:bold; }]]></style><marker id="markerStart" markerWidth="8" markerHeight="8" style="overflow:visible;"><circle cx="0" cy="0" r="1.5" style="stroke:none;fill:red;fill-opacity:0.5;"/></marker><marker id="markerEnd" style="overflow:visible;"><circle cx="0" cy="0" r="0.8" style="stroke:none;fill:blue;fill-opacity:0.5;"><animate attributeName="opacity" from="1" to="0" dur="3s" repeatCount="indefinite" /></circle></marker></defs><rect x="4" y="4" width="100" height="100" /><path d="M18.75,19.75c1.97,0.75,3.24,0.65,5.26,0.5c6.57-0.5,15.99-2.75,20.37-3c2.84-0.16,4.75,1.24,4.38,3.75c-1.1,7.5-2.19,11.25-3.07,21" class="grey" /><path d="M19.25,31.3c1.53,0.12,2.74,0.99,4.42,0.75c5.54-0.82,8.83-1.05,12.34-1.73c1.71-0.33,3.44-0.23,5.1-0.34" class="grey" /><path d="M12,44.58c1.11,0.21,4.43,0.32,5.75,0.21c12.17-1.03,24.57-2.67,35.63-3.08c1.77-0.07,5.53,0,6.86,0.21" class="grey" /><path d="M35.27,46.83c0.09,0.48,1.17,2.49,1.26,5.52c0.4,14.55-0.26,33.16-0.26,38.12c0,10.78-5.71,2-7.21,0.75" class="grey" /><path d="M16,55.75c3.18,1.41,8.21,5.8,9,8" class="grey" /><path d="M11,83.1c2,0.9,3.88,0.86,5.45-0.55c0.93-0.84,6.88-6.77,10.8-10.79" class="grey" /><path d="M54.28,52.14c0.03,0.28,0.06,0.73-0.05,1.14c-0.66,2.41-4.46,7.7-9.66,10.93" class="grey" /><path d="M43.25,70.75c4.24,2.1,10.95,8.83,13.82,14.53" class="grey" /><path d="M69.27,25.83c0.98,0.92,1.67,1.99,1.76,5.02C71.42,45.41,71,60.54,71,65.5" class="grey" /><path d="M89.77,12.33c0.98,0.92,1.67,1.99,1.76,5.02c0.4,14.55-0.26,65.66-0.26,70.62c0,13.14-7.21,1.5-8.71,0.25" class="grey" /><path d="M18.75,19.75c1.97,0.75,3.24,0.65,5.26,0.5c6.57-0.5,15.99-2.75,20.37-3c2.84-0.16,4.75,1.24,4.38,3.75c-1.1,7.5-2.19,11.25-3.07,21" class="stroke" stroke-dasharray="150"><animate attributeName="stroke-dashoffset" from="150" to="0" dur="1.8s" begin="0s" fill="freeze" /></path><path d="M19.25,31.3c1.53,0.12,2.74,0.99,4.42,0.75c5.54-0.82,8.83-1.05,12.34-1.73c1.71-0.33,3.44-0.23,5.1-0.34" class="stroke" stroke-dasharray="150"><set attributeName="opacity" to="0" dur="1.3s" /><animate attributeName="stroke-dashoffset" from="150" to="0" dur="1.8s" begin="1.3s" fill="freeze" /></path><path d="M12,44.58c1.11,0.21,4.43,0.32,5.75,0.21c12.17-1.03,24.57-2.67,35.63-3.08c1.77-0.07,5.53,0,6.86,0.21" class="stroke" stroke-dasharray="150"><set attributeName="opacity" to="0" dur="2.3s" /><animate attributeName="stroke-dashoffset" from="150" to="0" dur="1.8s" begin="2.3s" fill="freeze" /></path><path d="M35.27,46.83c0.09,0.48,1.17,2.49,1.26,5.52c0.4,14.55-0.26,33.16-0.26,38.12c0,10.78-5.71,2-7.21,0.75" class="stroke" stroke-dasharray="150"><set attributeName="opacity" to="0" dur="3.5s" /><animate attributeName="stroke-dashoffset" from="150" to="0" dur="1.8s" begin="3.5s" fill="freeze" /></path><path d="M16,55.75c3.18,1.41,8.21,5.8,9,8" class="stroke" stroke-dasharray="150"><set attributeName="opacity" to="0" dur="4.9s" /><animate attributeName="stroke-dashoffset" from="150" to="0" dur="1.8s" begin="4.9s" fill="freeze" /></path><path d="M11,83.1c2,0.9,3.88,0.86,5.45-0.55c0.93-0.84,6.88-6.77,10.8-10.79" class="stroke" stroke-dasharray="150"><set attributeName="opacity" to="0" dur="5.800000000000001s" /><animate attributeName="stroke-dashoffset" from="150" to="0" dur="1.8s" begin="5.800000000000001s" fill="freeze" /></path><path d="M54.28,52.14c0.03,0.28,0.06,0.73-0.05,1.14c-0.66,2.41-4.46,7.7-9.66,10.93" class="stroke" stroke-dasharray="150"><set attributeName="opacity" to="0" dur="6.800000000000001s" /><animate attributeName="stroke-dashoffset" from="150" to="0" dur="1.8s" begin="6.800000000000001s" fill="freeze" /></path><path d="M43.25,70.75c4.24,2.1,10.95,8.83,13.82,14.53" class="stroke" stroke-dasharray="150"><set attributeName="opacity" to="0" dur="7.700000000000001s" /><animate attributeName="stroke-dashoffset" from="150" to="0" dur="1.8s" begin="7.700000000000001s" fill="freeze" /></path><path d="M69.27,25.83c0.98,0.92,1.67,1.99,1.76,5.02C71.42,45.41,71,60.54,71,65.5" class="stroke" stroke-dasharray="150"><set attributeName="opacity" to="0" dur="8.700000000000001s" /><animate attributeName="stroke-dashoffset" from="150" to="0" dur="1.8s" begin="8.700000000000001s" fill="freeze" /></path><path d="M89.77,12.33c0.98,0.92,1.67,1.99,1.76,5.02c0.4,14.55-0.26,65.66-0.26,70.62c0,13.14-7.21,1.5-8.71,0.25" class="stroke" stroke-dasharray="150"><set attributeName="opacity" to="0" dur="9.8s" /><animate attributeName="stroke-dashoffset" from="150" to="0" dur="1.8s" begin="9.8s" fill="freeze" /></path><text x="90" y="120" id="reset">⟳</text><text x="70" y="120" id="pause">◼</text><script type="text/javascript"><![CDATA[function RecurringTimer(e,t){var n,r,i=t;this.pause=function(){window.clearTimeout(n);i-=new Date-r};var s=function(){r=new Date;n=window.setTimeout(function(){i=t;s();e()},i)};this.clear=function(){window.clearTimeout(n);i=t;n=window.setTimeout(function(){i=t;s();e()},i)};this.resume=s;this.resume()}function invoketimer(){timer=new RecurringTimer(function(){svg.setCurrentTime(0)},12600)}var svg=document.getElementById("kanjivg");var pause=document.getElementById("pause");var reset=document.getElementById("reset");var timer;invoketimer();reset.onclick=function(){svg.setCurrentTime(0);timer.clear();svg.unpauseAnimations();pause.innerHTML = "◼";};pause.onclick=function(){if(svg.animationsPaused()){svg.unpauseAnimations();timer.resume();pause.innerHTML="◼"}else{svg.pauseAnimations();timer.pause();pause.innerHTML="▶"}}]]></script></svg>