<svg id="kanjivg" width="106" height="126" xmlns="http://www.w3.org/2000/svg" xmlns:xlink="http://www.w3.org/1999/xlink" xml:space="preserve" version="1.1" baseProfile="full"><defs><style type="text/css"><![CDATA[path.black { fill:none;stroke:black;stroke-width:5;stroke-linecap:round;stroke-linejoin:round; }path.grey { fill:none;stroke:#ddd;stroke-width:5;stroke-linecap:round;stroke-linejoin:round; }path.stroke { fill:none;stroke:black;stroke-width:5;stroke-linecap:round;stroke-linejoin:round; }rect { fill:none;stroke:#555;stroke-width:2;} text{font-size:16px;font-family:Segoe UI Symbol,Cambria Math,DejaVu Sans,Symbola,Quivira,STIX,Code2000;-webkit-touch-callout:none;cursor:pointer;-webkit-user-select:none;-khtml-user-select:none;-moz-user-select:none;-ms-user-select:none;user-select: none;} #reset { font-weight:bold; }]]></style><marker id="markerStart" markerWidth="8" markerHeight="8" style="overflow:visible;"><circle cx="0" cy="0" r="1.5" style="stroke:none;fill:red;fill-opacity:0.5;"/></marker><marker id="markerEnd" style="overflow:visible;"><circle cx="0" cy="0" r="0.8" style="stroke:none;fill:blue;fill-opacity:0.5;"><animate attributeName="opacity" from="1" to="0" dur="3s" repeatCount="indefinite" /></circle></marker></defs><rect x="4" y="4" width="100" height="100" /><path d="M24.31,14c0.69,0.93,0.71,2.72,0.35,4.19c-1.73,6.98-2.61,9.47-4.78,14.8c-0.6,1.49-0.78,2.88,1.48,2.73c6.69-0.46,11.56-1.32,22.02-1.9" class="grey" /><path d="M24.53,21.86c2.97-0.18,17.38-2.27,20.09-2.48c2.26-0.17,3.18,1.01,2.81,2.28c-1.39,4.7-1.55,8.65-5.54,23.23" class="grey" /><path d="M11.94,47.42c1.03,0.33,2.93,0.42,3.96,0.33c11.85-1,29.6-2.75,40.55-3.63c1.72-0.14,2.76,0.16,3.62,0.32" class="grey" /><path d="M35.27,49.08c0.73,0.67,1.17,2.4,1.26,5.32c0.4,14.03-0.26,31.97-0.26,36.75c0,10.4-5.71,1.93-7.21,0.72" class="grey" /><path d="M16,57.68c3.18,1.36,8.21,5.6,9,7.71" class="grey" /><path d="M11,84.05c2,0.87,3.88,0.83,5.45-0.53c0.93-0.81,6.88-6.53,10.8-10.41" class="grey" /><path d="M54.28,54.2c0.03,0.27,0.06,0.71-0.05,1.1c-0.66,2.32-4.46,7.42-9.66,10.54" class="grey" /><path d="M43.25,72.14c4.24,2.03,10.95,8.51,13.82,14.01" class="grey" /><path d="M69.27,25.83c0.98,0.92,1.67,1.99,1.76,5.02C71.42,45.41,71,60.54,71,65.5" class="grey" /><path d="M89.77,12.33c0.98,0.92,1.67,1.99,1.76,5.02c0.4,14.55-0.26,65.66-0.26,70.62c0,13.14-7.21,1.5-8.71,0.25" class="grey" /><path d="M24.31,14c0.69,0.93,0.71,2.72,0.35,4.19c-1.73,6.98-2.61,9.47-4.78,14.8c-0.6,1.49-0.78,2.88,1.48,2.73c6.69-0.46,11.56-1.32,22.02-1.9" class="stroke" stroke-dasharray="150"><animate attributeName="stroke-dashoffset" from="150" to="0" dur="1.8s" begin="0s" fill="freeze" /></path><path d="M24.53,21.86c2.97-0.18,17.38-2.27,20.09-2.48c2.26-0.17,3.18,1.01,2.81,2.28c-1.39,4.7-1.55,8.65-5.54,23.23" class="stroke" stroke-dasharray="150"><set attributeName="opacity" to="0" dur="1.2s" /><animate attributeName="stroke-dashoffset" from="150" to="0" dur="1.8s" begin="1.2s" fill="freeze" /></path><path d="M11.94,47.42c1.03,0.33,2.93,0.42,3.96,0.33c11.85-1,29.6-2.75,40.55-3.63c1.72-0.14,2.76,0.16,3.62,0.32" class="stroke" stroke-dasharray="150"><set attributeName="opacity" to="0" dur="2.4s" /><animate attributeName="stroke-dashoffset" from="150" to="0" dur="1.8s" begin="2.4s" fill="freeze" /></path><path d="M35.27,49.08c0.73,0.67,1.17,2.4,1.26,5.32c0.4,14.03-0.26,31.97-0.26,36.75c0,10.4-5.71,1.93-7.21,0.72" class="stroke" stroke-dasharray="150"><set attributeName="opacity" to="0" dur="3.5999999999999996s" /><animate attributeName="stroke-dashoffset" from="150" to="0" dur="1.8s" begin="3.5999999999999996s" fill="freeze" /></path><path d="M16,57.68c3.18,1.36,8.21,5.6,9,7.71" class="stroke" stroke-dasharray="150"><set attributeName="opacity" to="0" dur="5.0s" /><animate attributeName="stroke-dashoffset" from="150" to="0" dur="1.8s" begin="5.0s" fill="freeze" /></path><path d="M11,84.05c2,0.87,3.88,0.83,5.45-0.53c0.93-0.81,6.88-6.53,10.8-10.41" class="stroke" stroke-dasharray="150"><set attributeName="opacity" to="0" dur="5.9s" /><animate attributeName="stroke-dashoffset" from="150" to="0" dur="1.8s" begin="5.9s" fill="freeze" /></path><path d="M54.28,54.2c0.03,0.27,0.06,0.71-0.05,1.1c-0.66,2.32-4.46,7.42-9.66,10.54" class="stroke" stroke-dasharray="150"><set attributeName="opacity" to="0" dur="6.9s" /><animate attributeName="stroke-dashoffset" from="150" to="0" dur="1.8s" begin="6.9s" fill="freeze" /></path><path d="M43.25,72.14c4.24,2.03,10.95,8.51,13.82,14.01" class="stroke" stroke-dasharray="150"><set attributeName="opacity" to="0" dur="7.800000000000001s" /><animate attributeName="stroke-dashoffset" from="150" to="0" dur="1.8s" begin="7.800000000000001s" fill="freeze" /></path><path d="M69.27,25.83c0.98,0.92,1.67,1.99,1.76,5.02C71.42,45.41,71,60.54,71,65.5" class="stroke" stroke-dasharray="150"><set attributeName="opacity" to="0" dur="8.700000000000001s" /><animate attributeName="stroke-dashoffset" from="150" to="0" dur="1.8s" begin="8.700000000000001s" fill="freeze" /></path><path d="M89.77,12.33c0.98,0.92,1.67,1.99,1.76,5.02c0.4,14.55-0.26,65.66-0.26,70.62c0,13.14-7.21,1.5-8.71,0.25" class="stroke" stroke-dasharray="150"><set attributeName="opacity" to="0" dur="9.8s" /><animate attributeName="stroke-dashoffset" from="150" to="0" dur="1.8s" begin="9.8s" fill="freeze" /></path><text x="90" y="120" id="reset">⟳</text><text x="70" y="120" id="pause">◼</text><script type="text/javascript"><![CDATA[function RecurringTimer(e,t){var n,r,i=t;this.pause=function(){window.clearTimeout(n);i-=new Date-r};var s=function(){r=new Date;n=window.setTimeout(function(){i=t;s();e()},i)};this.clear=function(){window.clearTimeout(n);i=t;n=window.setTimeout(function(){i=t;s();e()},i)};this.resume=s;this.resume()}function invoketimer(){timer=new RecurringTimer(function(){svg.setCurrentTime(0)},12600)}var svg=document.getElementById("kanjivg");var pause=document.getElementById("pause");var reset=document.getElementById("reset");var timer;invoketimer();reset.onclick=function(){svg.setCurrentTime(0);timer.clear();svg.unpauseAnimations();pause.innerHTML = "◼";};pause.onclick=function(){if(svg.animationsPaused()){svg.unpauseAnimations();timer.resume();pause.innerHTML="◼"}else{svg.pauseAnimations();timer.pause();pause.innerHTML="▶"}}]]></script></svg>