<svg id="kanjivg" width="106" height="126" xmlns="http://www.w3.org/2000/svg" xmlns:xlink="http://www.w3.org/1999/xlink" xml:space="preserve" version="1.1" baseProfile="full"><defs><style type="text/css"><![CDATA[path.black { fill:none;stroke:black;stroke-width:5;stroke-linecap:round;stroke-linejoin:round; }path.grey { fill:none;stroke:#ddd;stroke-width:5;stroke-linecap:round;stroke-linejoin:round; }path.stroke { fill:none;stroke:black;stroke-width:5;stroke-linecap:round;stroke-linejoin:round; }rect { fill:none;stroke:#555;stroke-width:2;} text{font-size:16px;font-family:Segoe UI Symbol,Cambria Math,DejaVu Sans,Symbola,Quivira,STIX,Code2000;-webkit-touch-callout:none;cursor:pointer;-webkit-user-select:none;-khtml-user-select:none;-moz-user-select:none;-ms-user-select:none;user-select: none;} #reset { font-weight:bold; }]]></style><marker id="markerStart" markerWidth="8" markerHeight="8" style="overflow:visible;"><circle cx="0" cy="0" r="1.5" style="stroke:none;fill:red;fill-opacity:0.5;"/></marker><marker id="markerEnd" style="overflow:visible;"><circle cx="0" cy="0" r="0.8" style="stroke:none;fill:blue;fill-opacity:0.5;"><animate attributeName="opacity" from="1" to="0" dur="3s" repeatCount="indefinite" /></circle></marker></defs><rect x="4" y="4" width="100" height="100" /><path d="M34.6,14c0.08,0.8,0.31,2.1-0.16,3.22C31.25,25,24,38.25,8.21,49.1" class="grey" /><path d="M35.78,20.05c6.05,2.43,13.59,8.26,17.03,12.69" class="grey" /><path d="M22.78,39.84c0.37,0.24,2.59,0.41,3.58,0.31c4.26-0.41,10.14-1.77,17.46-2.42c1-0.09,2.33-0.24,2.95,0" class="grey" /><path d="M16.5,53.16c0.39,0.29,0.88,0.5,0.95,0.9c1.1,6.13,2.52,10.2,3.53,16.63" class="grey" /><path d="M18.42,54.15c9.47-1.21,27.69-3.33,32.57-3.74c1.79-0.15,2.86,1.5,2.6,2.38c-1.06,3.63-1.86,10.27-3.16,14.31" class="grey" /><path d="M21.37,67.71c5.74-0.46,22.48-2.36,29.76-2.83" class="grey" /><path d="M34.43,42.82c0.06,1.29,0.72,3.32,0.72,5.2c0,25-3.66,37.33-20.9,47.23" class="grey" /><path d="M35,72.53c6.09,4.05,12.42,9.53,15,14.47" class="grey" /><path d="M56.07,25.4c1.24,0.83,2.78,0.57,3.88,0.45c7.87-0.85,20.03-3.24,24.92-4.09c3.18-0.55,4.35,1.66,4.42,5.55C89.5,40,87.5,74.25,81.84,89.22c-3.22,8.52-5.48,5.81-7.85,0.26" class="grey" /><path d="M70.26,27.33c0.05,1.47,0.07,3.79-0.1,5.91c-1.73,20.7-6.42,41.69-17.66,60.12" class="grey" /><path d="M56.68,38c1.38,0,2.2,0.57,2.83,1.4c7.41,9.69,25.88,36.54,34.73,44.05c2.16,1.83,3.58,3.17,5.51,3.8" class="grey" /><path d="M34.6,14c0.08,0.8,0.31,2.1-0.16,3.22C31.25,25,24,38.25,8.21,49.1" class="stroke" stroke-dasharray="150"><animate attributeName="stroke-dashoffset" from="150" to="0" dur="1.8s" begin="0s" fill="freeze" /></path><path d="M35.78,20.05c6.05,2.43,13.59,8.26,17.03,12.69" class="stroke" stroke-dasharray="150"><set attributeName="opacity" to="0" dur="1.2s" /><animate attributeName="stroke-dashoffset" from="150" to="0" dur="1.8s" begin="1.2s" fill="freeze" /></path><path d="M22.78,39.84c0.37,0.24,2.59,0.41,3.58,0.31c4.26-0.41,10.14-1.77,17.46-2.42c1-0.09,2.33-0.24,2.95,0" class="stroke" stroke-dasharray="150"><set attributeName="opacity" to="0" dur="2.2s" /><animate attributeName="stroke-dashoffset" from="150" to="0" dur="1.8s" begin="2.2s" fill="freeze" /></path><path d="M16.5,53.16c0.39,0.29,0.88,0.5,0.95,0.9c1.1,6.13,2.52,10.2,3.53,16.63" class="stroke" stroke-dasharray="150"><set attributeName="opacity" to="0" dur="3.2s" /><animate attributeName="stroke-dashoffset" from="150" to="0" dur="1.8s" begin="3.2s" fill="freeze" /></path><path d="M18.42,54.15c9.47-1.21,27.69-3.33,32.57-3.74c1.79-0.15,2.86,1.5,2.6,2.38c-1.06,3.63-1.86,10.27-3.16,14.31" class="stroke" stroke-dasharray="150"><set attributeName="opacity" to="0" dur="4.1000000000000005s" /><animate attributeName="stroke-dashoffset" from="150" to="0" dur="1.8s" begin="4.1000000000000005s" fill="freeze" /></path><path d="M21.37,67.71c5.74-0.46,22.48-2.36,29.76-2.83" class="stroke" stroke-dasharray="150"><set attributeName="opacity" to="0" dur="5.4s" /><animate attributeName="stroke-dashoffset" from="150" to="0" dur="1.8s" begin="5.4s" fill="freeze" /></path><path d="M34.43,42.82c0.06,1.29,0.72,3.32,0.72,5.2c0,25-3.66,37.33-20.9,47.23" class="stroke" stroke-dasharray="150"><set attributeName="opacity" to="0" dur="6.4s" /><animate attributeName="stroke-dashoffset" from="150" to="0" dur="1.8s" begin="6.4s" fill="freeze" /></path><path d="M35,72.53c6.09,4.05,12.42,9.53,15,14.47" class="stroke" stroke-dasharray="150"><set attributeName="opacity" to="0" dur="7.9s" /><animate attributeName="stroke-dashoffset" from="150" to="0" dur="1.8s" begin="7.9s" fill="freeze" /></path><path d="M56.07,25.4c1.24,0.83,2.78,0.57,3.88,0.45c7.87-0.85,20.03-3.24,24.92-4.09c3.18-0.55,4.35,1.66,4.42,5.55C89.5,40,87.5,74.25,81.84,89.22c-3.22,8.52-5.48,5.81-7.85,0.26" class="stroke" stroke-dasharray="150"><set attributeName="opacity" to="0" dur="8.9s" /><animate attributeName="stroke-dashoffset" from="150" to="0" dur="1.8s" begin="8.9s" fill="freeze" /></path><path d="M70.26,27.33c0.05,1.47,0.07,3.79-0.1,5.91c-1.73,20.7-6.42,41.69-17.66,60.12" class="stroke" stroke-dasharray="150"><set attributeName="opacity" to="0" dur="10.9s" /><animate attributeName="stroke-dashoffset" from="150" to="0" dur="1.8s" begin="10.9s" fill="freeze" /></path><path d="M56.68,38c1.38,0,2.2,0.57,2.83,1.4c7.41,9.69,25.88,36.54,34.73,44.05c2.16,1.83,3.58,3.17,5.51,3.8" class="stroke" stroke-dasharray="150"><set attributeName="opacity" to="0" dur="12.4s" /><animate attributeName="stroke-dashoffset" from="150" to="0" dur="1.8s" begin="12.4s" fill="freeze" /></path><text x="90" y="120" id="reset">⟳</text><text x="70" y="120" id="pause">◼</text><script type="text/javascript"><![CDATA[function RecurringTimer(e,t){var n,r,i=t;this.pause=function(){window.clearTimeout(n);i-=new Date-r};var s=function(){r=new Date;n=window.setTimeout(function(){i=t;s();e()},i)};this.clear=function(){window.clearTimeout(n);i=t;n=window.setTimeout(function(){i=t;s();e()},i)};this.resume=s;this.resume()}function invoketimer(){timer=new RecurringTimer(function(){svg.setCurrentTime(0)},14900)}var svg=document.getElementById("kanjivg");var pause=document.getElementById("pause");var reset=document.getElementById("reset");var timer;invoketimer();reset.onclick=function(){svg.setCurrentTime(0);timer.clear();svg.unpauseAnimations();pause.innerHTML = "◼";};pause.onclick=function(){if(svg.animationsPaused()){svg.unpauseAnimations();timer.resume();pause.innerHTML="◼"}else{svg.pauseAnimations();timer.pause();pause.innerHTML="▶"}}]]></script></svg>