<svg id="kanjivg" width="106" height="126" xmlns="http://www.w3.org/2000/svg" xmlns:xlink="http://www.w3.org/1999/xlink" xml:space="preserve" version="1.1" baseProfile="full"><defs><style type="text/css"><![CDATA[path.black { fill:none;stroke:black;stroke-width:5;stroke-linecap:round;stroke-linejoin:round; }path.grey { fill:none;stroke:#ddd;stroke-width:5;stroke-linecap:round;stroke-linejoin:round; }path.stroke { fill:none;stroke:black;stroke-width:5;stroke-linecap:round;stroke-linejoin:round; }rect { fill:none;stroke:#555;stroke-width:2;} text{font-size:16px;font-family:Segoe UI Symbol,Cambria Math,DejaVu Sans,Symbola,Quivira,STIX,Code2000;-webkit-touch-callout:none;cursor:pointer;-webkit-user-select:none;-khtml-user-select:none;-moz-user-select:none;-ms-user-select:none;user-select: none;} #reset { font-weight:bold; }]]></style><marker id="markerStart" markerWidth="8" markerHeight="8" style="overflow:visible;"><circle cx="0" cy="0" r="1.5" style="stroke:none;fill:red;fill-opacity:0.5;"/></marker><marker id="markerEnd" style="overflow:visible;"><circle cx="0" cy="0" r="0.8" style="stroke:none;fill:blue;fill-opacity:0.5;"><animate attributeName="opacity" from="1" to="0" dur="3s" repeatCount="indefinite" /></circle></marker></defs><rect x="4" y="4" width="100" height="100" /><path d="M36.08,15.75c0.65,0.65,1.09,1.88,1.09,3.28c0,2.1-0.05,6.1-0.05,8.6" class="grey" /><path d="M17.04,28.27c0,3.36-1.77,12.59-2.57,14.83" class="grey" /><path d="M17.69,31.24c13.56-1.49,29.06-3.99,41.22-4.65c8.07-0.43,0.86,6.18-0.26,6.79" class="grey" /><path d="M22.25,43.62c1.75,0.38,3.51,0.22,4.89,0c5.39-0.85,15.65-2.71,20.88-3.38c1.53-0.2,2.86-0.24,4.45-0.14" class="grey" /><path d="M36.85,33.69c0.79,0.79,1.18,2.06,1.18,3.12c0,0.9-0.03,20.6-0.03,26.93" class="grey" /><path d="M22.37,54.29c1.76,0.34,3.5,0.22,4.88,0.02c5.43-0.77,14.63-1.93,21.38-2.91c1.43-0.21,2.5-0.4,3.83-0.24" class="grey" /><path d="M14.39,67.41c1.86,0.46,4.36,0.19,5.98-0.03c8.29-1.11,27.34-4.32,35.61-5.06c1.82-0.16,3.83-0.34,5.62,0.19" class="grey" /><path d="M23.05,76.1c0.62,0.63,1.18,1.65,1.31,2.53C25,83,26.3,88.44,26.85,92.19c0.23,1.55,0.43,3.01,0.58,4.28" class="grey" /><path d="M24.86,77.47c6.89-0.96,19.83-2.65,25.39-3.38c2.7-0.35,3.82,0.6,3.19,3.67c-0.75,3.71-1.4,6.88-2.97,12.32" class="grey" /><path d="M28.21,93.31c3.62-0.44,13.34-1.68,20.03-2.38c1.3-0.13,2.43-0.25,3.32-0.33" class="grey" /><path d="M73.27,28.58c0.98,0.92,1.76,2.67,1.76,5.02c0,10.55-0.1,24.72-0.2,32.65c-0.04,3.02-0.07,5.38-0.07,6.75" class="grey" /><path d="M89.27,15.08c1.14,1.14,1.76,2.92,1.76,5.02c0,14.56-0.01,64.41-0.01,69.37c0,13.14-7.21,1.5-8.71,0.25" class="grey" /><path d="M36.08,15.75c0.65,0.65,1.09,1.88,1.09,3.28c0,2.1-0.05,6.1-0.05,8.6" class="stroke" stroke-dasharray="150"><animate attributeName="stroke-dashoffset" from="150" to="0" dur="1.8s" begin="0s" fill="freeze" /></path><path d="M17.04,28.27c0,3.36-1.77,12.59-2.57,14.83" class="stroke" stroke-dasharray="150"><set attributeName="opacity" to="0" dur="0.9s" /><animate attributeName="stroke-dashoffset" from="150" to="0" dur="1.8s" begin="0.9s" fill="freeze" /></path><path d="M17.69,31.24c13.56-1.49,29.06-3.99,41.22-4.65c8.07-0.43,0.86,6.18-0.26,6.79" class="stroke" stroke-dasharray="150"><set attributeName="opacity" to="0" dur="1.8s" /><animate attributeName="stroke-dashoffset" from="150" to="0" dur="1.8s" begin="1.8s" fill="freeze" /></path><path d="M22.25,43.62c1.75,0.38,3.51,0.22,4.89,0c5.39-0.85,15.65-2.71,20.88-3.38c1.53-0.2,2.86-0.24,4.45-0.14" class="stroke" stroke-dasharray="150"><set attributeName="opacity" to="0" dur="3.1s" /><animate attributeName="stroke-dashoffset" from="150" to="0" dur="1.8s" begin="3.1s" fill="freeze" /></path><path d="M36.85,33.69c0.79,0.79,1.18,2.06,1.18,3.12c0,0.9-0.03,20.6-0.03,26.93" class="stroke" stroke-dasharray="150"><set attributeName="opacity" to="0" dur="4.1s" /><animate attributeName="stroke-dashoffset" from="150" to="0" dur="1.8s" begin="4.1s" fill="freeze" /></path><path d="M22.37,54.29c1.76,0.34,3.5,0.22,4.88,0.02c5.43-0.77,14.63-1.93,21.38-2.91c1.43-0.21,2.5-0.4,3.83-0.24" class="stroke" stroke-dasharray="150"><set attributeName="opacity" to="0" dur="5.1s" /><animate attributeName="stroke-dashoffset" from="150" to="0" dur="1.8s" begin="5.1s" fill="freeze" /></path><path d="M14.39,67.41c1.86,0.46,4.36,0.19,5.98-0.03c8.29-1.11,27.34-4.32,35.61-5.06c1.82-0.16,3.83-0.34,5.62,0.19" class="stroke" stroke-dasharray="150"><set attributeName="opacity" to="0" dur="6.1s" /><animate attributeName="stroke-dashoffset" from="150" to="0" dur="1.8s" begin="6.1s" fill="freeze" /></path><path d="M23.05,76.1c0.62,0.63,1.18,1.65,1.31,2.53C25,83,26.3,88.44,26.85,92.19c0.23,1.55,0.43,3.01,0.58,4.28" class="stroke" stroke-dasharray="150"><set attributeName="opacity" to="0" dur="7.3s" /><animate attributeName="stroke-dashoffset" from="150" to="0" dur="1.8s" begin="7.3s" fill="freeze" /></path><path d="M24.86,77.47c6.89-0.96,19.83-2.65,25.39-3.38c2.7-0.35,3.82,0.6,3.19,3.67c-0.75,3.71-1.4,6.88-2.97,12.32" class="stroke" stroke-dasharray="150"><set attributeName="opacity" to="0" dur="8.3s" /><animate attributeName="stroke-dashoffset" from="150" to="0" dur="1.8s" begin="8.3s" fill="freeze" /></path><path d="M28.21,93.31c3.62-0.44,13.34-1.68,20.03-2.38c1.3-0.13,2.43-0.25,3.32-0.33" class="stroke" stroke-dasharray="150"><set attributeName="opacity" to="0" dur="9.4s" /><animate attributeName="stroke-dashoffset" from="150" to="0" dur="1.8s" begin="9.4s" fill="freeze" /></path><path d="M73.27,28.58c0.98,0.92,1.76,2.67,1.76,5.02c0,10.55-0.1,24.72-0.2,32.65c-0.04,3.02-0.07,5.38-0.07,6.75" class="stroke" stroke-dasharray="150"><set attributeName="opacity" to="0" dur="10.4s" /><animate attributeName="stroke-dashoffset" from="150" to="0" dur="1.8s" begin="10.4s" fill="freeze" /></path><path d="M89.27,15.08c1.14,1.14,1.76,2.92,1.76,5.02c0,14.56-0.01,64.41-0.01,69.37c0,13.14-7.21,1.5-8.71,0.25" class="stroke" stroke-dasharray="150"><set attributeName="opacity" to="0" dur="11.5s" /><animate attributeName="stroke-dashoffset" from="150" to="0" dur="1.8s" begin="11.5s" fill="freeze" /></path><text x="90" y="120" id="reset">⟳</text><text x="70" y="120" id="pause">◼</text><script type="text/javascript"><![CDATA[function RecurringTimer(e,t){var n,r,i=t;this.pause=function(){window.clearTimeout(n);i-=new Date-r};var s=function(){r=new Date;n=window.setTimeout(function(){i=t;s();e()},i)};this.clear=function(){window.clearTimeout(n);i=t;n=window.setTimeout(function(){i=t;s();e()},i)};this.resume=s;this.resume()}function invoketimer(){timer=new RecurringTimer(function(){svg.setCurrentTime(0)},14300)}var svg=document.getElementById("kanjivg");var pause=document.getElementById("pause");var reset=document.getElementById("reset");var timer;invoketimer();reset.onclick=function(){svg.setCurrentTime(0);timer.clear();svg.unpauseAnimations();pause.innerHTML = "◼";};pause.onclick=function(){if(svg.animationsPaused()){svg.unpauseAnimations();timer.resume();pause.innerHTML="◼"}else{svg.pauseAnimations();timer.pause();pause.innerHTML="▶"}}]]></script></svg>