<svg id="kanjivg" width="106" height="126" xmlns="http://www.w3.org/2000/svg" xmlns:xlink="http://www.w3.org/1999/xlink" xml:space="preserve" version="1.1" baseProfile="full"><defs><style type="text/css"><![CDATA[path.black { fill:none;stroke:black;stroke-width:5;stroke-linecap:round;stroke-linejoin:round; }path.grey { fill:none;stroke:#ddd;stroke-width:5;stroke-linecap:round;stroke-linejoin:round; }path.stroke { fill:none;stroke:black;stroke-width:5;stroke-linecap:round;stroke-linejoin:round; }rect { fill:none;stroke:#555;stroke-width:2;} text{font-size:16px;font-family:Segoe UI Symbol,Cambria Math,DejaVu Sans,Symbola,Quivira,STIX,Code2000;-webkit-touch-callout:none;cursor:pointer;-webkit-user-select:none;-khtml-user-select:none;-moz-user-select:none;-ms-user-select:none;user-select: none;} #reset { font-weight:bold; }]]></style><marker id="markerStart" markerWidth="8" markerHeight="8" style="overflow:visible;"><circle cx="0" cy="0" r="1.5" style="stroke:none;fill:red;fill-opacity:0.5;"/></marker><marker id="markerEnd" style="overflow:visible;"><circle cx="0" cy="0" r="0.8" style="stroke:none;fill:blue;fill-opacity:0.5;"><animate attributeName="opacity" from="1" to="0" dur="3s" repeatCount="indefinite" /></circle></marker></defs><rect x="4" y="4" width="100" height="100" /><path d="M46.51,12.64c0.07,0.25,0.15,0.64-0.15,1c-1.76,2.11-11.85,6.74-25.66,9.57" class="grey" /><path d="M14.59,32.95c1.18,0.54,3.33,0.62,4.51,0.54c7.18-0.49,25.35-4.24,37.32-4.23c1.96,0,3.14,0.26,4.12,0.53" class="grey" /><path d="M12.25,47.45c1.3,0.54,3.69,0.7,4.98,0.54c10.02-1.24,28.02-3.99,42.58-5.23c2.16-0.18,3.46,0.26,4.55,0.53" class="grey" /><path d="M22.92,39.13c0.65,0.38,2.1,2.82,2.15,3.59c0.36,5.17,1.31,13.15,1.65,16.78" class="grey" /><path d="M53.87,34.88c0.3,0.9,1.15,2.29,1.04,3.01c-0.57,3.51-1.43,12.54-2.63,18.36" class="grey" /><path d="M17.52,59.95c1,0.54,2.82,0.69,3.82,0.54c5.04-0.74,26.35-3.74,34.5-4.23c1.66-0.1,2.66,0.26,3.49,0.53" class="grey" /><path d="M38.82,21.38c0.65,0.45,1.29,2.12,1.29,4.25c0,5.37-0.21,64.64-0.21,65.25c0,10.62-5.15,2.37-6.4,1.12" class="grey" /><path d="M39.7,59.75C34.94,68.89,22.55,81.83,12.64,87" class="grey" /><path d="M44.34,64.5C49,67.25,55.5,73.25,58.11,78.94" class="grey" /><path d="M72.27,25.33c0.98,0.92,1.67,1.99,1.76,5.02C74.42,44.91,74,61.54,74,66.5" class="grey" /><path d="M90.77,12.83c0.98,0.92,1.67,1.99,1.76,5.02c0.4,14.55-0.26,66.16-0.26,71.12c0,13.14-6.21,2-7.71,0.75" class="grey" /><path d="M46.51,12.64c0.07,0.25,0.15,0.64-0.15,1c-1.76,2.11-11.85,6.74-25.66,9.57" class="stroke" stroke-dasharray="150"><animate attributeName="stroke-dashoffset" from="150" to="0" dur="1.8s" begin="0s" fill="freeze" /></path><path d="M14.59,32.95c1.18,0.54,3.33,0.62,4.51,0.54c7.18-0.49,25.35-4.24,37.32-4.23c1.96,0,3.14,0.26,4.12,0.53" class="stroke" stroke-dasharray="150"><set attributeName="opacity" to="0" dur="1.0s" /><animate attributeName="stroke-dashoffset" from="150" to="0" dur="1.8s" begin="1.0s" fill="freeze" /></path><path d="M12.25,47.45c1.3,0.54,3.69,0.7,4.98,0.54c10.02-1.24,28.02-3.99,42.58-5.23c2.16-0.18,3.46,0.26,4.55,0.53" class="stroke" stroke-dasharray="150"><set attributeName="opacity" to="0" dur="2.2s" /><animate attributeName="stroke-dashoffset" from="150" to="0" dur="1.8s" begin="2.2s" fill="freeze" /></path><path d="M22.92,39.13c0.65,0.38,2.1,2.82,2.15,3.59c0.36,5.17,1.31,13.15,1.65,16.78" class="stroke" stroke-dasharray="150"><set attributeName="opacity" to="0" dur="3.5s" /><animate attributeName="stroke-dashoffset" from="150" to="0" dur="1.8s" begin="3.5s" fill="freeze" /></path><path d="M53.87,34.88c0.3,0.9,1.15,2.29,1.04,3.01c-0.57,3.51-1.43,12.54-2.63,18.36" class="stroke" stroke-dasharray="150"><set attributeName="opacity" to="0" dur="4.5s" /><animate attributeName="stroke-dashoffset" from="150" to="0" dur="1.8s" begin="4.5s" fill="freeze" /></path><path d="M17.52,59.95c1,0.54,2.82,0.69,3.82,0.54c5.04-0.74,26.35-3.74,34.5-4.23c1.66-0.1,2.66,0.26,3.49,0.53" class="stroke" stroke-dasharray="150"><set attributeName="opacity" to="0" dur="5.5s" /><animate attributeName="stroke-dashoffset" from="150" to="0" dur="1.8s" begin="5.5s" fill="freeze" /></path><path d="M38.82,21.38c0.65,0.45,1.29,2.12,1.29,4.25c0,5.37-0.21,64.64-0.21,65.25c0,10.62-5.15,2.37-6.4,1.12" class="stroke" stroke-dasharray="150"><set attributeName="opacity" to="0" dur="6.6s" /><animate attributeName="stroke-dashoffset" from="150" to="0" dur="1.8s" begin="6.6s" fill="freeze" /></path><path d="M39.7,59.75C34.94,68.89,22.55,81.83,12.64,87" class="stroke" stroke-dasharray="150"><set attributeName="opacity" to="0" dur="8.299999999999999s" /><animate attributeName="stroke-dashoffset" from="150" to="0" dur="1.8s" begin="8.299999999999999s" fill="freeze" /></path><path d="M44.34,64.5C49,67.25,55.5,73.25,58.11,78.94" class="stroke" stroke-dasharray="150"><set attributeName="opacity" to="0" dur="9.299999999999999s" /><animate attributeName="stroke-dashoffset" from="150" to="0" dur="1.8s" begin="9.299999999999999s" fill="freeze" /></path><path d="M72.27,25.33c0.98,0.92,1.67,1.99,1.76,5.02C74.42,44.91,74,61.54,74,66.5" class="stroke" stroke-dasharray="150"><set attributeName="opacity" to="0" dur="10.299999999999999s" /><animate attributeName="stroke-dashoffset" from="150" to="0" dur="1.8s" begin="10.299999999999999s" fill="freeze" /></path><path d="M90.77,12.83c0.98,0.92,1.67,1.99,1.76,5.02c0.4,14.55-0.26,66.16-0.26,71.12c0,13.14-6.21,2-7.71,0.75" class="stroke" stroke-dasharray="150"><set attributeName="opacity" to="0" dur="11.399999999999999s" /><animate attributeName="stroke-dashoffset" from="150" to="0" dur="1.8s" begin="11.399999999999999s" fill="freeze" /></path><text x="90" y="120" id="reset">⟳</text><text x="70" y="120" id="pause">◼</text><script type="text/javascript"><![CDATA[function RecurringTimer(e,t){var n,r,i=t;this.pause=function(){window.clearTimeout(n);i-=new Date-r};var s=function(){r=new Date;n=window.setTimeout(function(){i=t;s();e()},i)};this.clear=function(){window.clearTimeout(n);i=t;n=window.setTimeout(function(){i=t;s();e()},i)};this.resume=s;this.resume()}function invoketimer(){timer=new RecurringTimer(function(){svg.setCurrentTime(0)},14200)}var svg=document.getElementById("kanjivg");var pause=document.getElementById("pause");var reset=document.getElementById("reset");var timer;invoketimer();reset.onclick=function(){svg.setCurrentTime(0);timer.clear();svg.unpauseAnimations();pause.innerHTML = "◼";};pause.onclick=function(){if(svg.animationsPaused()){svg.unpauseAnimations();timer.resume();pause.innerHTML="◼"}else{svg.pauseAnimations();timer.pause();pause.innerHTML="▶"}}]]></script></svg>