<svg id="kanjivg" width="106" height="126" xmlns="http://www.w3.org/2000/svg" xmlns:xlink="http://www.w3.org/1999/xlink" xml:space="preserve" version="1.1" baseProfile="full"><defs><style type="text/css"><![CDATA[path.black { fill:none;stroke:black;stroke-width:5;stroke-linecap:round;stroke-linejoin:round; }path.grey { fill:none;stroke:#ddd;stroke-width:5;stroke-linecap:round;stroke-linejoin:round; }path.stroke { fill:none;stroke:black;stroke-width:5;stroke-linecap:round;stroke-linejoin:round; }rect { fill:none;stroke:#555;stroke-width:2;} text{font-size:16px;font-family:Segoe UI Symbol,Cambria Math,DejaVu Sans,Symbola,Quivira,STIX,Code2000;-webkit-touch-callout:none;cursor:pointer;-webkit-user-select:none;-khtml-user-select:none;-moz-user-select:none;-ms-user-select:none;user-select: none;} #reset { font-weight:bold; }]]></style><marker id="markerStart" markerWidth="8" markerHeight="8" style="overflow:visible;"><circle cx="0" cy="0" r="1.5" style="stroke:none;fill:red;fill-opacity:0.5;"/></marker><marker id="markerEnd" style="overflow:visible;"><circle cx="0" cy="0" r="0.8" style="stroke:none;fill:blue;fill-opacity:0.5;"><animate attributeName="opacity" from="1" to="0" dur="3s" repeatCount="indefinite" /></circle></marker></defs><rect x="4" y="4" width="100" height="100" /><path d="M39.52,12.75c0.07,0.93,0.13,1.98-0.4,3.24c-4,9.63-11.63,23.13-26.63,35.07" class="grey" /><path d="M41.75,18.88c5.09,2.2,10.6,5.25,14.5,11.12" class="grey" /><path d="M32.42,35.05c0.83,0.2,1.67,0.14,2.63-0.01c4.32-0.67,8.06-1.45,11.21-1.98c0.98-0.17,2.77-0.27,3.24-0.27" class="grey" /><path d="M26.27,45.15c0.73,0.35,2.21,0.52,3.71,0.29c5.14-0.79,15.85-2.18,20.28-2.74c3.11-0.39,4.8,0.2,4.3,3.79c-0.41,2.87-1.23,7.92-2.1,13.26c-0.22,1.38-0.47,1.88-0.85,4.39" class="grey" /><path d="M28.59,55.31c5.91-0.68,17.16-2.06,23.97-2.6" class="grey" /><path d="M26.85,65.41c6.15-1.03,15.52-2.53,24.04-2.92" class="grey" /><path d="M27.28,46.16c0.5,0.75,0.84,1.67,0.63,3.28C26.12,63.25,23,80.5,13.52,92.33" class="grey" /><path d="M27.74,76.26c0.73,0.68,1.4,1.77,1.5,2.77c0.84,2.9,1.43,7.11,2.25,11.22c0.25,1.22,0.45,2.41,0.6,3.5" class="grey" /><path d="M29.67,77.2c5.82-0.94,16.95-2.83,22.14-3.57c3.1-0.44,4.13,0.07,3.43,3.38c-0.69,3.28-1.49,6.49-2.46,10.62" class="grey" /><path d="M32.99,91.2c4.58-0.49,12.26-1.44,17.76-2.18c1.32-0.18,2.37-0.21,3.59-0.21" class="grey" /><path d="M69.27,31.83c0.95,0.95,1.51,2.42,1.51,4.52c0,7.4-0.01,16.82-0.02,22.9c0,2.26,0,4.16,0,5.5" class="grey" /><path d="M90.02,15.83c1.45,1.45,1.76,3.04,1.76,5.27c0,18.9-0.01,61.91-0.01,66.87c0,13.14-7.21,1.5-8.71,0.25" class="grey" /><path d="M39.52,12.75c0.07,0.93,0.13,1.98-0.4,3.24c-4,9.63-11.63,23.13-26.63,35.07" class="stroke" stroke-dasharray="150"><animate attributeName="stroke-dashoffset" from="150" to="0" dur="1.8s" begin="0s" fill="freeze" /></path><path d="M41.75,18.88c5.09,2.2,10.6,5.25,14.5,11.12" class="stroke" stroke-dasharray="150"><set attributeName="opacity" to="0" dur="1.2s" /><animate attributeName="stroke-dashoffset" from="150" to="0" dur="1.8s" begin="1.2s" fill="freeze" /></path><path d="M32.42,35.05c0.83,0.2,1.67,0.14,2.63-0.01c4.32-0.67,8.06-1.45,11.21-1.98c0.98-0.17,2.77-0.27,3.24-0.27" class="stroke" stroke-dasharray="150"><set attributeName="opacity" to="0" dur="2.1s" /><animate attributeName="stroke-dashoffset" from="150" to="0" dur="1.8s" begin="2.1s" fill="freeze" /></path><path d="M26.27,45.15c0.73,0.35,2.21,0.52,3.71,0.29c5.14-0.79,15.85-2.18,20.28-2.74c3.11-0.39,4.8,0.2,4.3,3.79c-0.41,2.87-1.23,7.92-2.1,13.26c-0.22,1.38-0.47,1.88-0.85,4.39" class="stroke" stroke-dasharray="150"><set attributeName="opacity" to="0" dur="3.0s" /><animate attributeName="stroke-dashoffset" from="150" to="0" dur="1.8s" begin="3.0s" fill="freeze" /></path><path d="M28.59,55.31c5.91-0.68,17.16-2.06,23.97-2.6" class="stroke" stroke-dasharray="150"><set attributeName="opacity" to="0" dur="4.2s" /><animate attributeName="stroke-dashoffset" from="150" to="0" dur="1.8s" begin="4.2s" fill="freeze" /></path><path d="M26.85,65.41c6.15-1.03,15.52-2.53,24.04-2.92" class="stroke" stroke-dasharray="150"><set attributeName="opacity" to="0" dur="5.2s" /><animate attributeName="stroke-dashoffset" from="150" to="0" dur="1.8s" begin="5.2s" fill="freeze" /></path><path d="M27.28,46.16c0.5,0.75,0.84,1.67,0.63,3.28C26.12,63.25,23,80.5,13.52,92.33" class="stroke" stroke-dasharray="150"><set attributeName="opacity" to="0" dur="6.2s" /><animate attributeName="stroke-dashoffset" from="150" to="0" dur="1.8s" begin="6.2s" fill="freeze" /></path><path d="M27.74,76.26c0.73,0.68,1.4,1.77,1.5,2.77c0.84,2.9,1.43,7.11,2.25,11.22c0.25,1.22,0.45,2.41,0.6,3.5" class="stroke" stroke-dasharray="150"><set attributeName="opacity" to="0" dur="7.4s" /><animate attributeName="stroke-dashoffset" from="150" to="0" dur="1.8s" begin="7.4s" fill="freeze" /></path><path d="M29.67,77.2c5.82-0.94,16.95-2.83,22.14-3.57c3.1-0.44,4.13,0.07,3.43,3.38c-0.69,3.28-1.49,6.49-2.46,10.62" class="stroke" stroke-dasharray="150"><set attributeName="opacity" to="0" dur="8.3s" /><animate attributeName="stroke-dashoffset" from="150" to="0" dur="1.8s" begin="8.3s" fill="freeze" /></path><path d="M32.99,91.2c4.58-0.49,12.26-1.44,17.76-2.18c1.32-0.18,2.37-0.21,3.59-0.21" class="stroke" stroke-dasharray="150"><set attributeName="opacity" to="0" dur="9.3s" /><animate attributeName="stroke-dashoffset" from="150" to="0" dur="1.8s" begin="9.3s" fill="freeze" /></path><path d="M69.27,31.83c0.95,0.95,1.51,2.42,1.51,4.52c0,7.4-0.01,16.82-0.02,22.9c0,2.26,0,4.16,0,5.5" class="stroke" stroke-dasharray="150"><set attributeName="opacity" to="0" dur="10.3s" /><animate attributeName="stroke-dashoffset" from="150" to="0" dur="1.8s" begin="10.3s" fill="freeze" /></path><path d="M90.02,15.83c1.45,1.45,1.76,3.04,1.76,5.27c0,18.9-0.01,61.91-0.01,66.87c0,13.14-7.21,1.5-8.71,0.25" class="stroke" stroke-dasharray="150"><set attributeName="opacity" to="0" dur="11.3s" /><animate attributeName="stroke-dashoffset" from="150" to="0" dur="1.8s" begin="11.3s" fill="freeze" /></path><text x="90" y="120" id="reset">⟳</text><text x="70" y="120" id="pause">◼</text><script type="text/javascript"><![CDATA[function RecurringTimer(e,t){var n,r,i=t;this.pause=function(){window.clearTimeout(n);i-=new Date-r};var s=function(){r=new Date;n=window.setTimeout(function(){i=t;s();e()},i)};this.clear=function(){window.clearTimeout(n);i=t;n=window.setTimeout(function(){i=t;s();e()},i)};this.resume=s;this.resume()}function invoketimer(){timer=new RecurringTimer(function(){svg.setCurrentTime(0)},14000)}var svg=document.getElementById("kanjivg");var pause=document.getElementById("pause");var reset=document.getElementById("reset");var timer;invoketimer();reset.onclick=function(){svg.setCurrentTime(0);timer.clear();svg.unpauseAnimations();pause.innerHTML = "◼";};pause.onclick=function(){if(svg.animationsPaused()){svg.unpauseAnimations();timer.resume();pause.innerHTML="◼"}else{svg.pauseAnimations();timer.pause();pause.innerHTML="▶"}}]]></script></svg>