<svg id="kanjivg" width="106" height="126" xmlns="http://www.w3.org/2000/svg" xmlns:xlink="http://www.w3.org/1999/xlink" xml:space="preserve" version="1.1" baseProfile="full"><defs><style type="text/css"><![CDATA[path.black { fill:none;stroke:black;stroke-width:5;stroke-linecap:round;stroke-linejoin:round; }path.grey { fill:none;stroke:#ddd;stroke-width:5;stroke-linecap:round;stroke-linejoin:round; }path.stroke { fill:none;stroke:black;stroke-width:5;stroke-linecap:round;stroke-linejoin:round; }rect { fill:none;stroke:#555;stroke-width:2;} text{font-size:16px;font-family:Segoe UI Symbol,Cambria Math,DejaVu Sans,Symbola,Quivira,STIX,Code2000;-webkit-touch-callout:none;cursor:pointer;-webkit-user-select:none;-khtml-user-select:none;-moz-user-select:none;-ms-user-select:none;user-select: none;} #reset { font-weight:bold; }]]></style><marker id="markerStart" markerWidth="8" markerHeight="8" style="overflow:visible;"><circle cx="0" cy="0" r="1.5" style="stroke:none;fill:red;fill-opacity:0.5;"/></marker><marker id="markerEnd" style="overflow:visible;"><circle cx="0" cy="0" r="0.8" style="stroke:none;fill:blue;fill-opacity:0.5;"><animate attributeName="opacity" from="1" to="0" dur="3s" repeatCount="indefinite" /></circle></marker></defs><rect x="4" y="4" width="100" height="100" /><path d="M12.82,27.99c0.97,0.5,2.1,0.6,3.07,0.5c8.92-0.92,31.92-4.31,42.2-4.38c1.62-0.01,2.59,0.24,3.4,0.49" class="grey" /><path d="M24.5,17.19c1.31,1.37,1.79,1.77,1.88,2.63c0.75,8.12,1.12,8.43,1.94,15.97" class="grey" /><path d="M48.12,13.5c0.32,1.13,0.58,1.92,0.38,3.35c-1.12,7.65-2.19,11.78-3.12,17.03" class="grey" /><path d="M36.15,36.02c0.07,0.67,0.36,1.79-0.15,2.7c-3.52,6.29-11.61,17.1-26.26,25.84" class="grey" /><path d="M36.96,41.04C45.75,44.25,55.2,52,59.48,57.49" class="grey" /><path d="M24.45,61.18c0.48,0.18,2.71,0.2,3.19,0.18c4.98-0.21,12.61-2.54,19.72-2.57c0.8,0,1.95,0.08,2.35,0.17" class="grey" /><path d="M21.24,74.05c0.48,0.54,1.06,1.83,1.19,2.53c1.62,9.21,2.32,11.02,3.41,18.7" class="grey" /><path d="M22.32,75.29c12.37-1.43,22.06-3.65,27.7-4.35c2.06-0.26,3.3,1.52,3,3.02c-1.22,6.22-2.59,10.1-3.84,17.04" class="grey" /><path d="M25.71,92.8c7.61-0.6,15.44-1.44,25.16-2.02" class="grey" /><path d="M71.77,25.33c0.98,0.92,1.67,1.99,1.76,5.02C73.92,44.91,73.5,63.04,73.5,68" class="grey" /><path d="M88.77,12.33c0.98,0.92,1.67,1.99,1.76,5.02c0.4,14.55-0.26,67.16-0.26,72.12c0,13.14-7.21,1.5-8.71,0.25" class="grey" /><path d="M12.82,27.99c0.97,0.5,2.1,0.6,3.07,0.5c8.92-0.92,31.92-4.31,42.2-4.38c1.62-0.01,2.59,0.24,3.4,0.49" class="stroke" stroke-dasharray="150"><animate attributeName="stroke-dashoffset" from="150" to="0" dur="1.8s" begin="0s" fill="freeze" /></path><path d="M24.5,17.19c1.31,1.37,1.79,1.77,1.88,2.63c0.75,8.12,1.12,8.43,1.94,15.97" class="stroke" stroke-dasharray="150"><set attributeName="opacity" to="0" dur="1.2s" /><animate attributeName="stroke-dashoffset" from="150" to="0" dur="1.8s" begin="1.2s" fill="freeze" /></path><path d="M48.12,13.5c0.32,1.13,0.58,1.92,0.38,3.35c-1.12,7.65-2.19,11.78-3.12,17.03" class="stroke" stroke-dasharray="150"><set attributeName="opacity" to="0" dur="2.1s" /><animate attributeName="stroke-dashoffset" from="150" to="0" dur="1.8s" begin="2.1s" fill="freeze" /></path><path d="M36.15,36.02c0.07,0.67,0.36,1.79-0.15,2.7c-3.52,6.29-11.61,17.1-26.26,25.84" class="stroke" stroke-dasharray="150"><set attributeName="opacity" to="0" dur="3.1s" /><animate attributeName="stroke-dashoffset" from="150" to="0" dur="1.8s" begin="3.1s" fill="freeze" /></path><path d="M36.96,41.04C45.75,44.25,55.2,52,59.48,57.49" class="stroke" stroke-dasharray="150"><set attributeName="opacity" to="0" dur="4.1s" /><animate attributeName="stroke-dashoffset" from="150" to="0" dur="1.8s" begin="4.1s" fill="freeze" /></path><path d="M24.45,61.18c0.48,0.18,2.71,0.2,3.19,0.18c4.98-0.21,12.61-2.54,19.72-2.57c0.8,0,1.95,0.08,2.35,0.17" class="stroke" stroke-dasharray="150"><set attributeName="opacity" to="0" dur="5.1s" /><animate attributeName="stroke-dashoffset" from="150" to="0" dur="1.8s" begin="5.1s" fill="freeze" /></path><path d="M21.24,74.05c0.48,0.54,1.06,1.83,1.19,2.53c1.62,9.21,2.32,11.02,3.41,18.7" class="stroke" stroke-dasharray="150"><set attributeName="opacity" to="0" dur="6.1s" /><animate attributeName="stroke-dashoffset" from="150" to="0" dur="1.8s" begin="6.1s" fill="freeze" /></path><path d="M22.32,75.29c12.37-1.43,22.06-3.65,27.7-4.35c2.06-0.26,3.3,1.52,3,3.02c-1.22,6.22-2.59,10.1-3.84,17.04" class="stroke" stroke-dasharray="150"><set attributeName="opacity" to="0" dur="7.1s" /><animate attributeName="stroke-dashoffset" from="150" to="0" dur="1.8s" begin="7.1s" fill="freeze" /></path><path d="M25.71,92.8c7.61-0.6,15.44-1.44,25.16-2.02" class="stroke" stroke-dasharray="150"><set attributeName="opacity" to="0" dur="8.4s" /><animate attributeName="stroke-dashoffset" from="150" to="0" dur="1.8s" begin="8.4s" fill="freeze" /></path><path d="M71.77,25.33c0.98,0.92,1.67,1.99,1.76,5.02C73.92,44.91,73.5,63.04,73.5,68" class="stroke" stroke-dasharray="150"><set attributeName="opacity" to="0" dur="9.4s" /><animate attributeName="stroke-dashoffset" from="150" to="0" dur="1.8s" begin="9.4s" fill="freeze" /></path><path d="M88.77,12.33c0.98,0.92,1.67,1.99,1.76,5.02c0.4,14.55-0.26,67.16-0.26,72.12c0,13.14-7.21,1.5-8.71,0.25" class="stroke" stroke-dasharray="150"><set attributeName="opacity" to="0" dur="10.5s" /><animate attributeName="stroke-dashoffset" from="150" to="0" dur="1.8s" begin="10.5s" fill="freeze" /></path><text x="90" y="120" id="reset">⟳</text><text x="70" y="120" id="pause">◼</text><script type="text/javascript"><![CDATA[function RecurringTimer(e,t){var n,r,i=t;this.pause=function(){window.clearTimeout(n);i-=new Date-r};var s=function(){r=new Date;n=window.setTimeout(function(){i=t;s();e()},i)};this.clear=function(){window.clearTimeout(n);i=t;n=window.setTimeout(function(){i=t;s();e()},i)};this.resume=s;this.resume()}function invoketimer(){timer=new RecurringTimer(function(){svg.setCurrentTime(0)},13300)}var svg=document.getElementById("kanjivg");var pause=document.getElementById("pause");var reset=document.getElementById("reset");var timer;invoketimer();reset.onclick=function(){svg.setCurrentTime(0);timer.clear();svg.unpauseAnimations();pause.innerHTML = "◼";};pause.onclick=function(){if(svg.animationsPaused()){svg.unpauseAnimations();timer.resume();pause.innerHTML="◼"}else{svg.pauseAnimations();timer.pause();pause.innerHTML="▶"}}]]></script></svg>