<svg id="kanjivg" width="106" height="126" xmlns="http://www.w3.org/2000/svg" xmlns:xlink="http://www.w3.org/1999/xlink" xml:space="preserve" version="1.1" baseProfile="full"><defs><style type="text/css"><![CDATA[path.black { fill:none;stroke:black;stroke-width:5;stroke-linecap:round;stroke-linejoin:round; }path.grey { fill:none;stroke:#ddd;stroke-width:5;stroke-linecap:round;stroke-linejoin:round; }path.stroke { fill:none;stroke:black;stroke-width:5;stroke-linecap:round;stroke-linejoin:round; }rect { fill:none;stroke:#555;stroke-width:2;} text{font-size:16px;font-family:Segoe UI Symbol,Cambria Math,DejaVu Sans,Symbola,Quivira,STIX,Code2000;-webkit-touch-callout:none;cursor:pointer;-webkit-user-select:none;-khtml-user-select:none;-moz-user-select:none;-ms-user-select:none;user-select: none;} #reset { font-weight:bold; }]]></style><marker id="markerStart" markerWidth="8" markerHeight="8" style="overflow:visible;"><circle cx="0" cy="0" r="1.5" style="stroke:none;fill:red;fill-opacity:0.5;"/></marker><marker id="markerEnd" style="overflow:visible;"><circle cx="0" cy="0" r="0.8" style="stroke:none;fill:blue;fill-opacity:0.5;"><animate attributeName="opacity" from="1" to="0" dur="3s" repeatCount="indefinite" /></circle></marker></defs><rect x="4" y="4" width="100" height="100" /><path d="M32.25,15.75c1.93,0.92,6.12,4.92,7.91,8.06" class="grey" /><path d="M17.29,28.02c0,3.36-1.77,12.59-2.57,14.83" class="grey" /><path d="M18.94,31.24c3.81,0.01,35.98-4.4,40.47-4.4c8.09,0,0.86,5.93-0.26,6.54" class="grey" /><path d="M21.75,43.62c0.69,0.34,1.94,0.43,2.63,0.34c4.37-0.58,21.14-3.61,25.68-3.93c1.14-0.08,1.83,0.16,2.4,0.33" class="grey" /><path d="M22.62,54.29c0.69,0.34,1.94,0.43,2.63,0.34c4.37-0.58,19.73-2.95,24.82-3.05c1.14-0.02,1.83,0.16,2.4,0.33" class="grey" /><path d="M14.39,67.66c0.69,0.34,1.94,0.37,2.63,0.34c4.86-0.24,36.92-6.16,42.19-5.82c1.14,0.07,1.83,0.16,2.4,0.33" class="grey" /><path d="M36.85,33.94c0.79,0.44,1.27,1.99,1.43,2.87c0.16,0.88,0.1,21.99-0.06,27.51" class="grey" /><path d="M23.3,76.35c0.29,0.33,0.59,0.6,0.72,1.01c1.01,3.26,2.72,13.24,3.41,19.1" class="grey" /><path d="M25.11,77.47c7.13-1.37,23.14-3.16,26.81-3.62c1.35-0.17,2.15,1.7,1.96,2.69c-0.8,4.1-1.71,7.64-3.41,13.55" class="grey" /><path d="M27.21,93.31c4.32-0.52,19.12-2.19,24.6-2.71" class="grey" /><path d="M72.77,29.33c0.98,0.92,1.67,1.99,1.76,5.02C74.92,48.91,74.5,67.04,74.5,72" class="grey" /><path d="M89.27,15.83c0.98,0.92,1.67,1.99,1.76,5.02c0.4,14.55-0.26,63.66-0.26,68.62c0,13.14-7.21,1.5-8.71,0.25" class="grey" /><path d="M32.25,15.75c1.93,0.92,6.12,4.92,7.91,8.06" class="stroke" stroke-dasharray="150"><animate attributeName="stroke-dashoffset" from="150" to="0" dur="1.8s" begin="0s" fill="freeze" /></path><path d="M17.29,28.02c0,3.36-1.77,12.59-2.57,14.83" class="stroke" stroke-dasharray="150"><set attributeName="opacity" to="0" dur="0.9s" /><animate attributeName="stroke-dashoffset" from="150" to="0" dur="1.8s" begin="0.9s" fill="freeze" /></path><path d="M18.94,31.24c3.81,0.01,35.98-4.4,40.47-4.4c8.09,0,0.86,5.93-0.26,6.54" class="stroke" stroke-dasharray="150"><set attributeName="opacity" to="0" dur="1.8s" /><animate attributeName="stroke-dashoffset" from="150" to="0" dur="1.8s" begin="1.8s" fill="freeze" /></path><path d="M21.75,43.62c0.69,0.34,1.94,0.43,2.63,0.34c4.37-0.58,21.14-3.61,25.68-3.93c1.14-0.08,1.83,0.16,2.4,0.33" class="stroke" stroke-dasharray="150"><set attributeName="opacity" to="0" dur="3.1s" /><animate attributeName="stroke-dashoffset" from="150" to="0" dur="1.8s" begin="3.1s" fill="freeze" /></path><path d="M22.62,54.29c0.69,0.34,1.94,0.43,2.63,0.34c4.37-0.58,19.73-2.95,24.82-3.05c1.14-0.02,1.83,0.16,2.4,0.33" class="stroke" stroke-dasharray="150"><set attributeName="opacity" to="0" dur="4.1s" /><animate attributeName="stroke-dashoffset" from="150" to="0" dur="1.8s" begin="4.1s" fill="freeze" /></path><path d="M14.39,67.66c0.69,0.34,1.94,0.37,2.63,0.34c4.86-0.24,36.92-6.16,42.19-5.82c1.14,0.07,1.83,0.16,2.4,0.33" class="stroke" stroke-dasharray="150"><set attributeName="opacity" to="0" dur="5.1s" /><animate attributeName="stroke-dashoffset" from="150" to="0" dur="1.8s" begin="5.1s" fill="freeze" /></path><path d="M36.85,33.94c0.79,0.44,1.27,1.99,1.43,2.87c0.16,0.88,0.1,21.99-0.06,27.51" class="stroke" stroke-dasharray="150"><set attributeName="opacity" to="0" dur="6.3s" /><animate attributeName="stroke-dashoffset" from="150" to="0" dur="1.8s" begin="6.3s" fill="freeze" /></path><path d="M23.3,76.35c0.29,0.33,0.59,0.6,0.72,1.01c1.01,3.26,2.72,13.24,3.41,19.1" class="stroke" stroke-dasharray="150"><set attributeName="opacity" to="0" dur="7.3s" /><animate attributeName="stroke-dashoffset" from="150" to="0" dur="1.8s" begin="7.3s" fill="freeze" /></path><path d="M25.11,77.47c7.13-1.37,23.14-3.16,26.81-3.62c1.35-0.17,2.15,1.7,1.96,2.69c-0.8,4.1-1.71,7.64-3.41,13.55" class="stroke" stroke-dasharray="150"><set attributeName="opacity" to="0" dur="8.3s" /><animate attributeName="stroke-dashoffset" from="150" to="0" dur="1.8s" begin="8.3s" fill="freeze" /></path><path d="M27.21,93.31c4.32-0.52,19.12-2.19,24.6-2.71" class="stroke" stroke-dasharray="150"><set attributeName="opacity" to="0" dur="9.4s" /><animate attributeName="stroke-dashoffset" from="150" to="0" dur="1.8s" begin="9.4s" fill="freeze" /></path><path d="M72.77,29.33c0.98,0.92,1.67,1.99,1.76,5.02C74.92,48.91,74.5,67.04,74.5,72" class="stroke" stroke-dasharray="150"><set attributeName="opacity" to="0" dur="10.4s" /><animate attributeName="stroke-dashoffset" from="150" to="0" dur="1.8s" begin="10.4s" fill="freeze" /></path><path d="M89.27,15.83c0.98,0.92,1.67,1.99,1.76,5.02c0.4,14.55-0.26,63.66-0.26,68.62c0,13.14-7.21,1.5-8.71,0.25" class="stroke" stroke-dasharray="150"><set attributeName="opacity" to="0" dur="11.5s" /><animate attributeName="stroke-dashoffset" from="150" to="0" dur="1.8s" begin="11.5s" fill="freeze" /></path><text x="90" y="120" id="reset">⟳</text><text x="70" y="120" id="pause">◼</text><script type="text/javascript"><![CDATA[function RecurringTimer(e,t){var n,r,i=t;this.pause=function(){window.clearTimeout(n);i-=new Date-r};var s=function(){r=new Date;n=window.setTimeout(function(){i=t;s();e()},i)};this.clear=function(){window.clearTimeout(n);i=t;n=window.setTimeout(function(){i=t;s();e()},i)};this.resume=s;this.resume()}function invoketimer(){timer=new RecurringTimer(function(){svg.setCurrentTime(0)},14300)}var svg=document.getElementById("kanjivg");var pause=document.getElementById("pause");var reset=document.getElementById("reset");var timer;invoketimer();reset.onclick=function(){svg.setCurrentTime(0);timer.clear();svg.unpauseAnimations();pause.innerHTML = "◼";};pause.onclick=function(){if(svg.animationsPaused()){svg.unpauseAnimations();timer.resume();pause.innerHTML="◼"}else{svg.pauseAnimations();timer.pause();pause.innerHTML="▶"}}]]></script></svg>