<svg id="kanjivg" width="106" height="126" xmlns="http://www.w3.org/2000/svg" xmlns:xlink="http://www.w3.org/1999/xlink" xml:space="preserve" version="1.1" baseProfile="full"><defs><style type="text/css"><![CDATA[path.black { fill:none;stroke:black;stroke-width:5;stroke-linecap:round;stroke-linejoin:round; }path.grey { fill:none;stroke:#ddd;stroke-width:5;stroke-linecap:round;stroke-linejoin:round; }path.stroke { fill:none;stroke:black;stroke-width:5;stroke-linecap:round;stroke-linejoin:round; }rect { fill:none;stroke:#555;stroke-width:2;} text{font-size:16px;font-family:Segoe UI Symbol,Cambria Math,DejaVu Sans,Symbola,Quivira,STIX,Code2000;-webkit-touch-callout:none;cursor:pointer;-webkit-user-select:none;-khtml-user-select:none;-moz-user-select:none;-ms-user-select:none;user-select: none;} #reset { font-weight:bold; }]]></style><marker id="markerStart" markerWidth="8" markerHeight="8" style="overflow:visible;"><circle cx="0" cy="0" r="1.5" style="stroke:none;fill:red;fill-opacity:0.5;"/></marker><marker id="markerEnd" style="overflow:visible;"><circle cx="0" cy="0" r="0.8" style="stroke:none;fill:blue;fill-opacity:0.5;"><animate attributeName="opacity" from="1" to="0" dur="3s" repeatCount="indefinite" /></circle></marker></defs><rect x="4" y="4" width="100" height="100" /><path d="M21.23,20.07c1.64,0.21,2.1,0.55,3.6,0.42c6.88-0.62,21.47-2.73,28.03-3.14c2.13-0.13,3.59,1.01,3.28,3.12c-0.51,3.47-2.62,7.22-3.77,16.63" class="grey" /><path d="M10.52,30.47c1.58,0.45,2.81,0.62,4.56,0.45c15.45-1.56,34.14-3.62,46.25-4.29c1.94-0.11,3.51,0.45,4.39,0.67" class="grey" /><path d="M20.18,39.83c0.88,0.22,2.46,0.34,3.51,0.22c9.66-1.11,19.49-1.78,28.26-2.9c1.4-0.18,2.28,0,3.33,0.22" class="grey" /><path d="M18.25,49.18c0.87,0.43,2.46,0.47,3.33,0.43c9.04-0.49,21.8-2.28,30.61-3.21c1.44-0.15,2.32,0.2,3.04,0.42" class="grey" /><path d="M11.52,59.03c1.07,0.48,3.03,0.63,4.09,0.48c12.5-1.8,34.02-4.3,43.72-4.71c1.78-0.08,2.84,0.23,3.73,0.47" class="grey" /><path d="M36.94,10.25c0.76,0.45,1.22,2.01,1.38,2.9c0.15,0.89,0,37.6-0.15,43.17" class="grey" /><path d="M20.68,65.76c0.24,0.31,0.74,1.03,0.87,1.43c1.06,3.27,2.89,13.5,3.52,19.61" class="grey" /><path d="M22.31,67.17c8.86-1.37,23.91-3.35,30.21-4.08c2.31-0.27,3.08,0.54,2.99,2.49c-0.15,3.36-1.66,12.53-2.13,17.7" class="grey" /><path d="M38.16,65.57c-0.02,0.26-0.03,0.71-0.03,1.3c-0.03,3.88,0.15,13.81,0.15,15.22" class="grey" /><path d="M23.81,75.17c6.77-0.81,13.57-1.42,20.36-2.09c0.82-0.08,1.61-0.16,2.37-0.23" class="grey" /><path d="M24.64,83.96c6.08-0.39,20.43-2.03,28.82-2.66" class="grey" /><path d="M14.84,95.2c1.02,1.43,2.9,1.61,3.92,1.43c11.65-2.03,32.74-7.63,43-9.86" class="grey" /><path d="M72.27,24.33c0.98,0.92,1.67,1.99,1.76,5.02C74.42,43.91,74,64.04,74,69" class="grey" /><path d="M91.27,12.33c0.98,0.92,1.67,1.99,1.76,5.02c0.4,14.55-0.26,67.66-0.26,72.62c0,11.53-7.21,1.5-8.71,0.25" class="grey" /><path d="M21.23,20.07c1.64,0.21,2.1,0.55,3.6,0.42c6.88-0.62,21.47-2.73,28.03-3.14c2.13-0.13,3.59,1.01,3.28,3.12c-0.51,3.47-2.62,7.22-3.77,16.63" class="stroke" stroke-dasharray="150"><animate attributeName="stroke-dashoffset" from="150" to="0" dur="1.8s" begin="0s" fill="freeze" /></path><path d="M10.52,30.47c1.58,0.45,2.81,0.62,4.56,0.45c15.45-1.56,34.14-3.62,46.25-4.29c1.94-0.11,3.51,0.45,4.39,0.67" class="stroke" stroke-dasharray="150"><set attributeName="opacity" to="0" dur="1.3s" /><animate attributeName="stroke-dashoffset" from="150" to="0" dur="1.8s" begin="1.3s" fill="freeze" /></path><path d="M20.18,39.83c0.88,0.22,2.46,0.34,3.51,0.22c9.66-1.11,19.49-1.78,28.26-2.9c1.4-0.18,2.28,0,3.33,0.22" class="stroke" stroke-dasharray="150"><set attributeName="opacity" to="0" dur="2.7s" /><animate attributeName="stroke-dashoffset" from="150" to="0" dur="1.8s" begin="2.7s" fill="freeze" /></path><path d="M18.25,49.18c0.87,0.43,2.46,0.47,3.33,0.43c9.04-0.49,21.8-2.28,30.61-3.21c1.44-0.15,2.32,0.2,3.04,0.42" class="stroke" stroke-dasharray="150"><set attributeName="opacity" to="0" dur="3.7s" /><animate attributeName="stroke-dashoffset" from="150" to="0" dur="1.8s" begin="3.7s" fill="freeze" /></path><path d="M11.52,59.03c1.07,0.48,3.03,0.63,4.09,0.48c12.5-1.8,34.02-4.3,43.72-4.71c1.78-0.08,2.84,0.23,3.73,0.47" class="stroke" stroke-dasharray="150"><set attributeName="opacity" to="0" dur="4.7s" /><animate attributeName="stroke-dashoffset" from="150" to="0" dur="1.8s" begin="4.7s" fill="freeze" /></path><path d="M36.94,10.25c0.76,0.45,1.22,2.01,1.38,2.9c0.15,0.89,0,37.6-0.15,43.17" class="stroke" stroke-dasharray="150"><set attributeName="opacity" to="0" dur="6.0s" /><animate attributeName="stroke-dashoffset" from="150" to="0" dur="1.8s" begin="6.0s" fill="freeze" /></path><path d="M20.68,65.76c0.24,0.31,0.74,1.03,0.87,1.43c1.06,3.27,2.89,13.5,3.52,19.61" class="stroke" stroke-dasharray="150"><set attributeName="opacity" to="0" dur="7.2s" /><animate attributeName="stroke-dashoffset" from="150" to="0" dur="1.8s" begin="7.2s" fill="freeze" /></path><path d="M22.31,67.17c8.86-1.37,23.91-3.35,30.21-4.08c2.31-0.27,3.08,0.54,2.99,2.49c-0.15,3.36-1.66,12.53-2.13,17.7" class="stroke" stroke-dasharray="150"><set attributeName="opacity" to="0" dur="8.2s" /><animate attributeName="stroke-dashoffset" from="150" to="0" dur="1.8s" begin="8.2s" fill="freeze" /></path><path d="M38.16,65.57c-0.02,0.26-0.03,0.71-0.03,1.3c-0.03,3.88,0.15,13.81,0.15,15.22" class="stroke" stroke-dasharray="150"><set attributeName="opacity" to="0" dur="9.5s" /><animate attributeName="stroke-dashoffset" from="150" to="0" dur="1.8s" begin="9.5s" fill="freeze" /></path><path d="M23.81,75.17c6.77-0.81,13.57-1.42,20.36-2.09c0.82-0.08,1.61-0.16,2.37-0.23" class="stroke" stroke-dasharray="150"><set attributeName="opacity" to="0" dur="10.4s" /><animate attributeName="stroke-dashoffset" from="150" to="0" dur="1.8s" begin="10.4s" fill="freeze" /></path><path d="M24.64,83.96c6.08-0.39,20.43-2.03,28.82-2.66" class="stroke" stroke-dasharray="150"><set attributeName="opacity" to="0" dur="11.4s" /><animate attributeName="stroke-dashoffset" from="150" to="0" dur="1.8s" begin="11.4s" fill="freeze" /></path><path d="M14.84,95.2c1.02,1.43,2.9,1.61,3.92,1.43c11.65-2.03,32.74-7.63,43-9.86" class="stroke" stroke-dasharray="150"><set attributeName="opacity" to="0" dur="12.4s" /><animate attributeName="stroke-dashoffset" from="150" to="0" dur="1.8s" begin="12.4s" fill="freeze" /></path><path d="M72.27,24.33c0.98,0.92,1.67,1.99,1.76,5.02C74.42,43.91,74,64.04,74,69" class="stroke" stroke-dasharray="150"><set attributeName="opacity" to="0" dur="13.6s" /><animate attributeName="stroke-dashoffset" from="150" to="0" dur="1.8s" begin="13.6s" fill="freeze" /></path><path d="M91.27,12.33c0.98,0.92,1.67,1.99,1.76,5.02c0.4,14.55-0.26,67.66-0.26,72.62c0,11.53-7.21,1.5-8.71,0.25" class="stroke" stroke-dasharray="150"><set attributeName="opacity" to="0" dur="14.799999999999999s" /><animate attributeName="stroke-dashoffset" from="150" to="0" dur="1.8s" begin="14.799999999999999s" fill="freeze" /></path><text x="90" y="120" id="reset">⟳</text><text x="70" y="120" id="pause">◼</text><script type="text/javascript"><![CDATA[function RecurringTimer(e,t){var n,r,i=t;this.pause=function(){window.clearTimeout(n);i-=new Date-r};var s=function(){r=new Date;n=window.setTimeout(function(){i=t;s();e()},i)};this.clear=function(){window.clearTimeout(n);i=t;n=window.setTimeout(function(){i=t;s();e()},i)};this.resume=s;this.resume()}function invoketimer(){timer=new RecurringTimer(function(){svg.setCurrentTime(0)},17599)}var svg=document.getElementById("kanjivg");var pause=document.getElementById("pause");var reset=document.getElementById("reset");var timer;invoketimer();reset.onclick=function(){svg.setCurrentTime(0);timer.clear();svg.unpauseAnimations();pause.innerHTML = "◼";};pause.onclick=function(){if(svg.animationsPaused()){svg.unpauseAnimations();timer.resume();pause.innerHTML="◼"}else{svg.pauseAnimations();timer.pause();pause.innerHTML="▶"}}]]></script></svg>