<svg id="kanjivg" width="106" height="126" xmlns="http://www.w3.org/2000/svg" xmlns:xlink="http://www.w3.org/1999/xlink" xml:space="preserve" version="1.1" baseProfile="full"><defs><style type="text/css"><![CDATA[path.black { fill:none;stroke:black;stroke-width:5;stroke-linecap:round;stroke-linejoin:round; }path.grey { fill:none;stroke:#ddd;stroke-width:5;stroke-linecap:round;stroke-linejoin:round; }path.stroke { fill:none;stroke:black;stroke-width:5;stroke-linecap:round;stroke-linejoin:round; }rect { fill:none;stroke:#555;stroke-width:2;} text{font-size:16px;font-family:Segoe UI Symbol,Cambria Math,DejaVu Sans,Symbola,Quivira,STIX,Code2000;-webkit-touch-callout:none;cursor:pointer;-webkit-user-select:none;-khtml-user-select:none;-moz-user-select:none;-ms-user-select:none;user-select: none;} #reset { font-weight:bold; }]]></style><marker id="markerStart" markerWidth="8" markerHeight="8" style="overflow:visible;"><circle cx="0" cy="0" r="1.5" style="stroke:none;fill:red;fill-opacity:0.5;"/></marker><marker id="markerEnd" style="overflow:visible;"><circle cx="0" cy="0" r="0.8" style="stroke:none;fill:blue;fill-opacity:0.5;"><animate attributeName="opacity" from="1" to="0" dur="3s" repeatCount="indefinite" /></circle></marker></defs><rect x="4" y="4" width="100" height="100" /><path d="M32.56,12.91c0.03,0.24,0.13,0.69-0.07,0.96c-2.49,3.38-6.18,6.48-12.69,9.2" class="grey" /><path d="M16.87,24.16c0.49,0.3,0.79,1.37,0.89,1.97c0.1,0.61,0.21,13.74,0.1,15.25c-0.1,1.37-0.89,3.95,0.3,2.89c1.18-1.06,9.38-7.71,13.78-10.21" class="grey" /><path d="M27.04,27.84c3.86,2.45,6.32,6.08,7.79,9.65" class="grey" /><path d="M40.51,20.08c0.86,0.31,2.4,0.27,3.15,0.17c6.14-0.87,13.56-2.55,16.96-2.87c2.21-0.21,2.77,1.8,2.64,3.26c-0.33,3.85-4.05,17.24-7.07,21.66c-2.19,3.21-3.46,2.18-5.12,0.1" class="grey" /><path d="M50.15,22.68c0.03,0.4,0.19,1.09-0.06,1.62c-2.84,5.96-5.34,10.21-10.24,16.44" class="grey" /><path d="M37.2,44.74c0,0.67,0.06,1.21-0.19,2.02c-1.32,4.21-13.83,18.27-24.54,24.5" class="grey" /><path d="M39.17,48.4c7.26,1.77,16.54,6.48,20.08,10.93" class="grey" /><path d="M26.48,64.58c1.73,0,2.52,0.13,3.07,0.04C35,63.75,44,61.5,48.17,60.86c0.84-0.13,1.03-0.04,2.47-0.04" class="grey" /><path d="M20.6,74.87c0.68,0.24,2.95,0.35,3.65,0.31C30.57,74.83,44,71.5,52.47,70.4c0.85-0.11,2.74-0.1,4.02,0.11" class="grey" /><path d="M37.2,65.02c1.43,0.56,1.43,1.81,1.43,2.26c0,3.12,0.72,22.74,0.36,25.87" class="grey" /><path d="M22.12,81.52c4.29,2.9,6.39,6.04,7.27,7.73" class="grey" /><path d="M51.9,76.17c0.33,0.95,0.5,2.33,0.37,3.13c-0.33,2.06-2.9,5.82-6.55,11.88" class="grey" /><path d="M19,96.91c1.75,1.34,2.25,1.34,5.18,0.68c1.45-0.33,13.88-3.42,28.85-7.73" class="grey" /><path d="M72.77,27.33c0.98,0.92,1.67,1.99,1.76,5.02C74.92,46.91,74.5,67.04,74.5,72" class="grey" /><path d="M89.77,13.83c0.98,0.92,1.67,1.99,1.76,5.02c0.4,14.55-0.26,66.16-0.26,71.12c0,13.14-7.21,1.5-8.71,0.25" class="grey" /><path d="M32.56,12.91c0.03,0.24,0.13,0.69-0.07,0.96c-2.49,3.38-6.18,6.48-12.69,9.2" class="stroke" stroke-dasharray="150"><animate attributeName="stroke-dashoffset" from="150" to="0" dur="1.8s" begin="0s" fill="freeze" /></path><path d="M16.87,24.16c0.49,0.3,0.79,1.37,0.89,1.97c0.1,0.61,0.21,13.74,0.1,15.25c-0.1,1.37-0.89,3.95,0.3,2.89c1.18-1.06,9.38-7.71,13.78-10.21" class="stroke" stroke-dasharray="150"><set attributeName="opacity" to="0" dur="0.9s" /><animate attributeName="stroke-dashoffset" from="150" to="0" dur="1.8s" begin="0.9s" fill="freeze" /></path><path d="M27.04,27.84c3.86,2.45,6.32,6.08,7.79,9.65" class="stroke" stroke-dasharray="150"><set attributeName="opacity" to="0" dur="1.9s" /><animate attributeName="stroke-dashoffset" from="150" to="0" dur="1.8s" begin="1.9s" fill="freeze" /></path><path d="M40.51,20.08c0.86,0.31,2.4,0.27,3.15,0.17c6.14-0.87,13.56-2.55,16.96-2.87c2.21-0.21,2.77,1.8,2.64,3.26c-0.33,3.85-4.05,17.24-7.07,21.66c-2.19,3.21-3.46,2.18-5.12,0.1" class="stroke" stroke-dasharray="150"><set attributeName="opacity" to="0" dur="2.8s" /><animate attributeName="stroke-dashoffset" from="150" to="0" dur="1.8s" begin="2.8s" fill="freeze" /></path><path d="M50.15,22.68c0.03,0.4,0.19,1.09-0.06,1.62c-2.84,5.96-5.34,10.21-10.24,16.44" class="stroke" stroke-dasharray="150"><set attributeName="opacity" to="0" dur="4.1s" /><animate attributeName="stroke-dashoffset" from="150" to="0" dur="1.8s" begin="4.1s" fill="freeze" /></path><path d="M37.2,44.74c0,0.67,0.06,1.21-0.19,2.02c-1.32,4.21-13.83,18.27-24.54,24.5" class="stroke" stroke-dasharray="150"><set attributeName="opacity" to="0" dur="5.1s" /><animate attributeName="stroke-dashoffset" from="150" to="0" dur="1.8s" begin="5.1s" fill="freeze" /></path><path d="M39.17,48.4c7.26,1.77,16.54,6.48,20.08,10.93" class="stroke" stroke-dasharray="150"><set attributeName="opacity" to="0" dur="6.1s" /><animate attributeName="stroke-dashoffset" from="150" to="0" dur="1.8s" begin="6.1s" fill="freeze" /></path><path d="M26.48,64.58c1.73,0,2.52,0.13,3.07,0.04C35,63.75,44,61.5,48.17,60.86c0.84-0.13,1.03-0.04,2.47-0.04" class="stroke" stroke-dasharray="150"><set attributeName="opacity" to="0" dur="7.1s" /><animate attributeName="stroke-dashoffset" from="150" to="0" dur="1.8s" begin="7.1s" fill="freeze" /></path><path d="M20.6,74.87c0.68,0.24,2.95,0.35,3.65,0.31C30.57,74.83,44,71.5,52.47,70.4c0.85-0.11,2.74-0.1,4.02,0.11" class="stroke" stroke-dasharray="150"><set attributeName="opacity" to="0" dur="8.1s" /><animate attributeName="stroke-dashoffset" from="150" to="0" dur="1.8s" begin="8.1s" fill="freeze" /></path><path d="M37.2,65.02c1.43,0.56,1.43,1.81,1.43,2.26c0,3.12,0.72,22.74,0.36,25.87" class="stroke" stroke-dasharray="150"><set attributeName="opacity" to="0" dur="9.1s" /><animate attributeName="stroke-dashoffset" from="150" to="0" dur="1.8s" begin="9.1s" fill="freeze" /></path><path d="M22.12,81.52c4.29,2.9,6.39,6.04,7.27,7.73" class="stroke" stroke-dasharray="150"><set attributeName="opacity" to="0" dur="10.1s" /><animate attributeName="stroke-dashoffset" from="150" to="0" dur="1.8s" begin="10.1s" fill="freeze" /></path><path d="M51.9,76.17c0.33,0.95,0.5,2.33,0.37,3.13c-0.33,2.06-2.9,5.82-6.55,11.88" class="stroke" stroke-dasharray="150"><set attributeName="opacity" to="0" dur="11.0s" /><animate attributeName="stroke-dashoffset" from="150" to="0" dur="1.8s" begin="11.0s" fill="freeze" /></path><path d="M19,96.91c1.75,1.34,2.25,1.34,5.18,0.68c1.45-0.33,13.88-3.42,28.85-7.73" class="stroke" stroke-dasharray="150"><set attributeName="opacity" to="0" dur="11.9s" /><animate attributeName="stroke-dashoffset" from="150" to="0" dur="1.8s" begin="11.9s" fill="freeze" /></path><path d="M72.77,27.33c0.98,0.92,1.67,1.99,1.76,5.02C74.92,46.91,74.5,67.04,74.5,72" class="stroke" stroke-dasharray="150"><set attributeName="opacity" to="0" dur="12.9s" /><animate attributeName="stroke-dashoffset" from="150" to="0" dur="1.8s" begin="12.9s" fill="freeze" /></path><path d="M89.77,13.83c0.98,0.92,1.67,1.99,1.76,5.02c0.4,14.55-0.26,66.16-0.26,71.12c0,13.14-7.21,1.5-8.71,0.25" class="stroke" stroke-dasharray="150"><set attributeName="opacity" to="0" dur="14.1s" /><animate attributeName="stroke-dashoffset" from="150" to="0" dur="1.8s" begin="14.1s" fill="freeze" /></path><text x="90" y="120" id="reset">⟳</text><text x="70" y="120" id="pause">◼</text><script type="text/javascript"><![CDATA[function RecurringTimer(e,t){var n,r,i=t;this.pause=function(){window.clearTimeout(n);i-=new Date-r};var s=function(){r=new Date;n=window.setTimeout(function(){i=t;s();e()},i)};this.clear=function(){window.clearTimeout(n);i=t;n=window.setTimeout(function(){i=t;s();e()},i)};this.resume=s;this.resume()}function invoketimer(){timer=new RecurringTimer(function(){svg.setCurrentTime(0)},16900)}var svg=document.getElementById("kanjivg");var pause=document.getElementById("pause");var reset=document.getElementById("reset");var timer;invoketimer();reset.onclick=function(){svg.setCurrentTime(0);timer.clear();svg.unpauseAnimations();pause.innerHTML = "◼";};pause.onclick=function(){if(svg.animationsPaused()){svg.unpauseAnimations();timer.resume();pause.innerHTML="◼"}else{svg.pauseAnimations();timer.pause();pause.innerHTML="▶"}}]]></script></svg>