<svg id="kanjivg" width="106" height="126" xmlns="http://www.w3.org/2000/svg" xmlns:xlink="http://www.w3.org/1999/xlink" xml:space="preserve" version="1.1" baseProfile="full"><defs><style type="text/css"><![CDATA[path.black { fill:none;stroke:black;stroke-width:5;stroke-linecap:round;stroke-linejoin:round; }path.grey { fill:none;stroke:#ddd;stroke-width:5;stroke-linecap:round;stroke-linejoin:round; }path.stroke { fill:none;stroke:black;stroke-width:5;stroke-linecap:round;stroke-linejoin:round; }rect { fill:none;stroke:#555;stroke-width:2;} text{font-size:16px;font-family:Segoe UI Symbol,Cambria Math,DejaVu Sans,Symbola,Quivira,STIX,Code2000;-webkit-touch-callout:none;cursor:pointer;-webkit-user-select:none;-khtml-user-select:none;-moz-user-select:none;-ms-user-select:none;user-select: none;} #reset { font-weight:bold; }]]></style><marker id="markerStart" markerWidth="8" markerHeight="8" style="overflow:visible;"><circle cx="0" cy="0" r="1.5" style="stroke:none;fill:red;fill-opacity:0.5;"/></marker><marker id="markerEnd" style="overflow:visible;"><circle cx="0" cy="0" r="0.8" style="stroke:none;fill:blue;fill-opacity:0.5;"><animate attributeName="opacity" from="1" to="0" dur="3s" repeatCount="indefinite" /></circle></marker></defs><rect x="4" y="4" width="100" height="100" /><path d="M24.38,16.65c1.13,0.34,3.32,0.65,4.52,0.58c6.46-0.38,17.07-2.97,19.66-3.11c1.28-0.07,2.45,0.87,2.18,1.86c-0.67,2.45-2.04,6.2-3.1,11.64" class="grey" /><path d="M28.42,29.85c3.24-0.11,13.07-1.62,21.42-2.09" class="grey" /><path d="M28.65,17c0,1.65-0.29,4.68-0.32,6.23c-0.21,11.18-4.67,25.39-14.53,32.56" class="grey" /><path d="M28.09,40.78c0.14,0.5,0.63,1.64,0.68,2.03c0.36,2.8,1.48,8.75,1.99,14.05" class="grey" /><path d="M28.83,42.07c4.05-0.56,15.74-2.48,18.51-2.57c1.14-0.04,1.57,1.18,1.42,2.01c-0.62,3.31-2.17,7.37-2.78,11.6" class="grey" /><path d="M30.98,55.13c3.35-0.24,12.26-1.3,16.29-1.6" class="grey" /><path d="M70.62,8.59c1.88,0.91,3.88,2.66,5.27,5.61" class="grey" /><path d="M56.61,19.91c1.02,0.4,2.21,0.47,3.23,0.4c5.75-0.35,19.95-2.56,28.65-2.85c1.7-0.06,2.72,0.19,3.57,0.4" class="grey" /><path d="M62.33,23.01c3.15,3.16,4.59,6.4,4.87,8.48" class="grey" /><path d="M84,20.68c0.53,0.39,0.18,1.83,0.03,2.12c-1.53,2.95-3.47,7.98-4.53,9.67" class="grey" /><path d="M53.97,35.31c1.28,0.45,2.77,0.49,4.05,0.45c8.16-0.25,24.14-3.25,33.7-3.52c2.14-0.06,3.42,0.22,4.48,0.44" class="grey" /><path d="M55.83,46.31c0.97,0.27,2.76,0.34,3.73,0.27c12.36-0.89,17.3-2.2,28.76-2.77c1.62-0.08,2.59,0.13,3.4,0.27" class="grey" /><path d="M73.26,35.57c0.44,0.28,1.38,2.09,1.47,2.64c0.51,3.2-0.13,19.26-0.15,20.08" class="grey" /><path d="M26.5,67.46c1.59,0.9,3.58,0.55,4.99,0.48c10.47-0.48,42.19-3.76,48.48-4.68c4.09-0.6,5.15,0.96,4.55,5.09c-1.14,7.79-8,20.27-12.09,26.56c-5.18,7.96-7.73,1.3-9.09-1.1" class="grey" /><path d="M54.16,69.02c0.09,0.65-0.17,2.23-0.68,3.1C49.25,79.25,40,88.5,21.89,96.5" class="grey" /><path d="M24.38,16.65c1.13,0.34,3.32,0.65,4.52,0.58c6.46-0.38,17.07-2.97,19.66-3.11c1.28-0.07,2.45,0.87,2.18,1.86c-0.67,2.45-2.04,6.2-3.1,11.64" class="stroke" stroke-dasharray="150"><animate attributeName="stroke-dashoffset" from="150" to="0" dur="1.8s" begin="0s" fill="freeze" /></path><path d="M28.42,29.85c3.24-0.11,13.07-1.62,21.42-2.09" class="stroke" stroke-dasharray="150"><set attributeName="opacity" to="0" dur="1.0s" /><animate attributeName="stroke-dashoffset" from="150" to="0" dur="1.8s" begin="1.0s" fill="freeze" /></path><path d="M28.65,17c0,1.65-0.29,4.68-0.32,6.23c-0.21,11.18-4.67,25.39-14.53,32.56" class="stroke" stroke-dasharray="150"><set attributeName="opacity" to="0" dur="2.0s" /><animate attributeName="stroke-dashoffset" from="150" to="0" dur="1.8s" begin="2.0s" fill="freeze" /></path><path d="M28.09,40.78c0.14,0.5,0.63,1.64,0.68,2.03c0.36,2.8,1.48,8.75,1.99,14.05" class="stroke" stroke-dasharray="150"><set attributeName="opacity" to="0" dur="3.1s" /><animate attributeName="stroke-dashoffset" from="150" to="0" dur="1.8s" begin="3.1s" fill="freeze" /></path><path d="M28.83,42.07c4.05-0.56,15.74-2.48,18.51-2.57c1.14-0.04,1.57,1.18,1.42,2.01c-0.62,3.31-2.17,7.37-2.78,11.6" class="stroke" stroke-dasharray="150"><set attributeName="opacity" to="0" dur="4.0s" /><animate attributeName="stroke-dashoffset" from="150" to="0" dur="1.8s" begin="4.0s" fill="freeze" /></path><path d="M30.98,55.13c3.35-0.24,12.26-1.3,16.29-1.6" class="stroke" stroke-dasharray="150"><set attributeName="opacity" to="0" dur="5.0s" /><animate attributeName="stroke-dashoffset" from="150" to="0" dur="1.8s" begin="5.0s" fill="freeze" /></path><path d="M70.62,8.59c1.88,0.91,3.88,2.66,5.27,5.61" class="stroke" stroke-dasharray="150"><set attributeName="opacity" to="0" dur="5.9s" /><animate attributeName="stroke-dashoffset" from="150" to="0" dur="1.8s" begin="5.9s" fill="freeze" /></path><path d="M56.61,19.91c1.02,0.4,2.21,0.47,3.23,0.4c5.75-0.35,19.95-2.56,28.65-2.85c1.7-0.06,2.72,0.19,3.57,0.4" class="stroke" stroke-dasharray="150"><set attributeName="opacity" to="0" dur="6.800000000000001s" /><animate attributeName="stroke-dashoffset" from="150" to="0" dur="1.8s" begin="6.800000000000001s" fill="freeze" /></path><path d="M62.33,23.01c3.15,3.16,4.59,6.4,4.87,8.48" class="stroke" stroke-dasharray="150"><set attributeName="opacity" to="0" dur="7.800000000000001s" /><animate attributeName="stroke-dashoffset" from="150" to="0" dur="1.8s" begin="7.800000000000001s" fill="freeze" /></path><path d="M84,20.68c0.53,0.39,0.18,1.83,0.03,2.12c-1.53,2.95-3.47,7.98-4.53,9.67" class="stroke" stroke-dasharray="150"><set attributeName="opacity" to="0" dur="8.700000000000001s" /><animate attributeName="stroke-dashoffset" from="150" to="0" dur="1.8s" begin="8.700000000000001s" fill="freeze" /></path><path d="M53.97,35.31c1.28,0.45,2.77,0.49,4.05,0.45c8.16-0.25,24.14-3.25,33.7-3.52c2.14-0.06,3.42,0.22,4.48,0.44" class="stroke" stroke-dasharray="150"><set attributeName="opacity" to="0" dur="9.600000000000001s" /><animate attributeName="stroke-dashoffset" from="150" to="0" dur="1.8s" begin="9.600000000000001s" fill="freeze" /></path><path d="M55.83,46.31c0.97,0.27,2.76,0.34,3.73,0.27c12.36-0.89,17.3-2.2,28.76-2.77c1.62-0.08,2.59,0.13,3.4,0.27" class="stroke" stroke-dasharray="150"><set attributeName="opacity" to="0" dur="10.700000000000001s" /><animate attributeName="stroke-dashoffset" from="150" to="0" dur="1.8s" begin="10.700000000000001s" fill="freeze" /></path><path d="M73.26,35.57c0.44,0.28,1.38,2.09,1.47,2.64c0.51,3.2-0.13,19.26-0.15,20.08" class="stroke" stroke-dasharray="150"><set attributeName="opacity" to="0" dur="11.700000000000001s" /><animate attributeName="stroke-dashoffset" from="150" to="0" dur="1.8s" begin="11.700000000000001s" fill="freeze" /></path><path d="M26.5,67.46c1.59,0.9,3.58,0.55,4.99,0.48c10.47-0.48,42.19-3.76,48.48-4.68c4.09-0.6,5.15,0.96,4.55,5.09c-1.14,7.79-8,20.27-12.09,26.56c-5.18,7.96-7.73,1.3-9.09-1.1" class="stroke" stroke-dasharray="150"><set attributeName="opacity" to="0" dur="12.700000000000001s" /><animate attributeName="stroke-dashoffset" from="150" to="0" dur="1.8s" begin="12.700000000000001s" fill="freeze" /></path><path d="M54.16,69.02c0.09,0.65-0.17,2.23-0.68,3.1C49.25,79.25,40,88.5,21.89,96.5" class="stroke" stroke-dasharray="150"><set attributeName="opacity" to="0" dur="14.600000000000001s" /><animate attributeName="stroke-dashoffset" from="150" to="0" dur="1.8s" begin="14.600000000000001s" fill="freeze" /></path><text x="90" y="120" id="reset">⟳</text><text x="70" y="120" id="pause">◼</text><script type="text/javascript"><![CDATA[function RecurringTimer(e,t){var n,r,i=t;this.pause=function(){window.clearTimeout(n);i-=new Date-r};var s=function(){r=new Date;n=window.setTimeout(function(){i=t;s();e()},i)};this.clear=function(){window.clearTimeout(n);i=t;n=window.setTimeout(function(){i=t;s();e()},i)};this.resume=s;this.resume()}function invoketimer(){timer=new RecurringTimer(function(){svg.setCurrentTime(0)},16700)}var svg=document.getElementById("kanjivg");var pause=document.getElementById("pause");var reset=document.getElementById("reset");var timer;invoketimer();reset.onclick=function(){svg.setCurrentTime(0);timer.clear();svg.unpauseAnimations();pause.innerHTML = "◼";};pause.onclick=function(){if(svg.animationsPaused()){svg.unpauseAnimations();timer.resume();pause.innerHTML="◼"}else{svg.pauseAnimations();timer.pause();pause.innerHTML="▶"}}]]></script></svg>