<svg id="kanjivg" width="106" height="126" xmlns="http://www.w3.org/2000/svg" xmlns:xlink="http://www.w3.org/1999/xlink" xml:space="preserve" version="1.1" baseProfile="full"><defs><style type="text/css"><![CDATA[path.black { fill:none;stroke:black;stroke-width:5;stroke-linecap:round;stroke-linejoin:round; }path.grey { fill:none;stroke:#ddd;stroke-width:5;stroke-linecap:round;stroke-linejoin:round; }path.stroke { fill:none;stroke:black;stroke-width:5;stroke-linecap:round;stroke-linejoin:round; }rect { fill:none;stroke:#555;stroke-width:2;} text{font-size:16px;font-family:Segoe UI Symbol,Cambria Math,DejaVu Sans,Symbola,Quivira,STIX,Code2000;-webkit-touch-callout:none;cursor:pointer;-webkit-user-select:none;-khtml-user-select:none;-moz-user-select:none;-ms-user-select:none;user-select: none;} #reset { font-weight:bold; }]]></style><marker id="markerStart" markerWidth="8" markerHeight="8" style="overflow:visible;"><circle cx="0" cy="0" r="1.5" style="stroke:none;fill:red;fill-opacity:0.5;"/></marker><marker id="markerEnd" style="overflow:visible;"><circle cx="0" cy="0" r="0.8" style="stroke:none;fill:blue;fill-opacity:0.5;"><animate attributeName="opacity" from="1" to="0" dur="3s" repeatCount="indefinite" /></circle></marker></defs><rect x="4" y="4" width="100" height="100" /><path d="M41.35,19.77C48,19,51,18.5,54.46,17.89c1.09-0.19,3.04-0.14,4.29,0.11" class="grey" /><path d="M38.02,10.58c0.98,0.92,1.76,1.99,1.76,5.02c0,5.9-0.02,8.19-0.02,13.15" class="grey" /><path d="M22.24,33.85c1.51,0.15,2.82-0.4,4.38-0.83c9.13-2.51,23.63-5.76,30.2-5.99c10.29-0.36,2.18,6.11-0.38,7.91" class="grey" /><path d="M20.93,30.68c0.48,0.52,1.03,2.46,1.03,4.34c0,22.48-2.7,41.23-11.7,53.64" class="grey" /><path d="M27,42.52c0.58,0.19,1.64,0.24,2.21,0.19c5.79-0.46,14.29-3.96,20.77-5.13c0.95-0.17,1.54,0.09,2.02,0.19" class="grey" /><path d="M37.75,32.68c0.35,0.26,0.19,0.93,0.31,1.27s-0.06,6.96-0.06,8.24c0,3.63-0.32,4.14,6.58,4.08c1.85-0.02,5.84,0,7.43-0.51" class="grey" /><path d="M27.2,55.74c0.54,0.31,1.53,0.36,2.07,0.31c5.98-0.55,17.23-3.55,23.98-4.5c0.89-0.13,1.44,0.15,1.89,0.3" class="grey" /><path d="M40.07,56.24c0.04,0.28,0.09,0.72-0.08,1.13c-0.99,2.38-6.66,7.61-14.43,10.81" class="grey" /><path d="M38.22,62.67c6.86,3.12,12.46,20.56,7.1,33.1c-1.6,3.76-5.93,0.63-6.78,0.03" class="grey" /><path d="M40.12,66.44c0.05,0.35,0.11,0.89-0.1,1.39c-1.26,2.94-8.46,9.38-18.33,13.33" class="grey" /><path d="M42.96,75.11c0.06,0.42,0.26,1.15-0.13,1.68C40,80.75,32.52,88.12,20.49,92.88" class="grey" /><path d="M56.91,58.36c0.03,0.26,0.06,0.68-0.06,1.06c-0.74,2.23-4.98,7.12-10.78,10.12" class="grey" /><path d="M46.44,69.64c5.31,2.11,13.31,7.36,16.81,13.61" class="grey" /><path d="M71.77,27.83c0.98,0.92,1.67,1.99,1.76,5.02c0.4,14.55-0.02,27.69-0.02,32.65" class="grey" /><path d="M88.27,14.83c0.98,0.92,1.67,1.99,1.76,5.02c0.4,14.55-0.26,63.66-0.26,68.62c0,11.53-7.21,1.5-8.71,0.25" class="grey" /><path d="M41.35,19.77C48,19,51,18.5,54.46,17.89c1.09-0.19,3.04-0.14,4.29,0.11" class="stroke" stroke-dasharray="150"><animate attributeName="stroke-dashoffset" from="150" to="0" dur="1.8s" begin="0s" fill="freeze" /></path><path d="M38.02,10.58c0.98,0.92,1.76,1.99,1.76,5.02c0,5.9-0.02,8.19-0.02,13.15" class="stroke" stroke-dasharray="150"><set attributeName="opacity" to="0" dur="0.9s" /><animate attributeName="stroke-dashoffset" from="150" to="0" dur="1.8s" begin="0.9s" fill="freeze" /></path><path d="M22.24,33.85c1.51,0.15,2.82-0.4,4.38-0.83c9.13-2.51,23.63-5.76,30.2-5.99c10.29-0.36,2.18,6.11-0.38,7.91" class="stroke" stroke-dasharray="150"><set attributeName="opacity" to="0" dur="1.8s" /><animate attributeName="stroke-dashoffset" from="150" to="0" dur="1.8s" begin="1.8s" fill="freeze" /></path><path d="M20.93,30.68c0.48,0.52,1.03,2.46,1.03,4.34c0,22.48-2.7,41.23-11.7,53.64" class="stroke" stroke-dasharray="150"><set attributeName="opacity" to="0" dur="3.0s" /><animate attributeName="stroke-dashoffset" from="150" to="0" dur="1.8s" begin="3.0s" fill="freeze" /></path><path d="M27,42.52c0.58,0.19,1.64,0.24,2.21,0.19c5.79-0.46,14.29-3.96,20.77-5.13c0.95-0.17,1.54,0.09,2.02,0.19" class="stroke" stroke-dasharray="150"><set attributeName="opacity" to="0" dur="4.5s" /><animate attributeName="stroke-dashoffset" from="150" to="0" dur="1.8s" begin="4.5s" fill="freeze" /></path><path d="M37.75,32.68c0.35,0.26,0.19,0.93,0.31,1.27s-0.06,6.96-0.06,8.24c0,3.63-0.32,4.14,6.58,4.08c1.85-0.02,5.84,0,7.43-0.51" class="stroke" stroke-dasharray="150"><set attributeName="opacity" to="0" dur="5.5s" /><animate attributeName="stroke-dashoffset" from="150" to="0" dur="1.8s" begin="5.5s" fill="freeze" /></path><path d="M27.2,55.74c0.54,0.31,1.53,0.36,2.07,0.31c5.98-0.55,17.23-3.55,23.98-4.5c0.89-0.13,1.44,0.15,1.89,0.3" class="stroke" stroke-dasharray="150"><set attributeName="opacity" to="0" dur="6.5s" /><animate attributeName="stroke-dashoffset" from="150" to="0" dur="1.8s" begin="6.5s" fill="freeze" /></path><path d="M40.07,56.24c0.04,0.28,0.09,0.72-0.08,1.13c-0.99,2.38-6.66,7.61-14.43,10.81" class="stroke" stroke-dasharray="150"><set attributeName="opacity" to="0" dur="7.5s" /><animate attributeName="stroke-dashoffset" from="150" to="0" dur="1.8s" begin="7.5s" fill="freeze" /></path><path d="M38.22,62.67c6.86,3.12,12.46,20.56,7.1,33.1c-1.6,3.76-5.93,0.63-6.78,0.03" class="stroke" stroke-dasharray="150"><set attributeName="opacity" to="0" dur="8.4s" /><animate attributeName="stroke-dashoffset" from="150" to="0" dur="1.8s" begin="8.4s" fill="freeze" /></path><path d="M40.12,66.44c0.05,0.35,0.11,0.89-0.1,1.39c-1.26,2.94-8.46,9.38-18.33,13.33" class="stroke" stroke-dasharray="150"><set attributeName="opacity" to="0" dur="9.5s" /><animate attributeName="stroke-dashoffset" from="150" to="0" dur="1.8s" begin="9.5s" fill="freeze" /></path><path d="M42.96,75.11c0.06,0.42,0.26,1.15-0.13,1.68C40,80.75,32.52,88.12,20.49,92.88" class="stroke" stroke-dasharray="150"><set attributeName="opacity" to="0" dur="10.5s" /><animate attributeName="stroke-dashoffset" from="150" to="0" dur="1.8s" begin="10.5s" fill="freeze" /></path><path d="M56.91,58.36c0.03,0.26,0.06,0.68-0.06,1.06c-0.74,2.23-4.98,7.12-10.78,10.12" class="stroke" stroke-dasharray="150"><set attributeName="opacity" to="0" dur="11.5s" /><animate attributeName="stroke-dashoffset" from="150" to="0" dur="1.8s" begin="11.5s" fill="freeze" /></path><path d="M46.44,69.64c5.31,2.11,13.31,7.36,16.81,13.61" class="stroke" stroke-dasharray="150"><set attributeName="opacity" to="0" dur="12.4s" /><animate attributeName="stroke-dashoffset" from="150" to="0" dur="1.8s" begin="12.4s" fill="freeze" /></path><path d="M71.77,27.83c0.98,0.92,1.67,1.99,1.76,5.02c0.4,14.55-0.02,27.69-0.02,32.65" class="stroke" stroke-dasharray="150"><set attributeName="opacity" to="0" dur="13.4s" /><animate attributeName="stroke-dashoffset" from="150" to="0" dur="1.8s" begin="13.4s" fill="freeze" /></path><path d="M88.27,14.83c0.98,0.92,1.67,1.99,1.76,5.02c0.4,14.55-0.26,63.66-0.26,68.62c0,11.53-7.21,1.5-8.71,0.25" class="stroke" stroke-dasharray="150"><set attributeName="opacity" to="0" dur="14.4s" /><animate attributeName="stroke-dashoffset" from="150" to="0" dur="1.8s" begin="14.4s" fill="freeze" /></path><text x="90" y="120" id="reset">⟳</text><text x="70" y="120" id="pause">◼</text><script type="text/javascript"><![CDATA[function RecurringTimer(e,t){var n,r,i=t;this.pause=function(){window.clearTimeout(n);i-=new Date-r};var s=function(){r=new Date;n=window.setTimeout(function(){i=t;s();e()},i)};this.clear=function(){window.clearTimeout(n);i=t;n=window.setTimeout(function(){i=t;s();e()},i)};this.resume=s;this.resume()}function invoketimer(){timer=new RecurringTimer(function(){svg.setCurrentTime(0)},17100)}var svg=document.getElementById("kanjivg");var pause=document.getElementById("pause");var reset=document.getElementById("reset");var timer;invoketimer();reset.onclick=function(){svg.setCurrentTime(0);timer.clear();svg.unpauseAnimations();pause.innerHTML = "◼";};pause.onclick=function(){if(svg.animationsPaused()){svg.unpauseAnimations();timer.resume();pause.innerHTML="◼"}else{svg.pauseAnimations();timer.pause();pause.innerHTML="▶"}}]]></script></svg>