<svg id="kanjivg" width="106" height="126" xmlns="http://www.w3.org/2000/svg" xmlns:xlink="http://www.w3.org/1999/xlink" xml:space="preserve" version="1.1" baseProfile="full"><defs><style type="text/css"><![CDATA[path.black { fill:none;stroke:black;stroke-width:5;stroke-linecap:round;stroke-linejoin:round; }path.grey { fill:none;stroke:#ddd;stroke-width:5;stroke-linecap:round;stroke-linejoin:round; }path.stroke { fill:none;stroke:black;stroke-width:5;stroke-linecap:round;stroke-linejoin:round; }rect { fill:none;stroke:#555;stroke-width:2;} text{font-size:16px;font-family:Segoe UI Symbol,Cambria Math,DejaVu Sans,Symbola,Quivira,STIX,Code2000;-webkit-touch-callout:none;cursor:pointer;-webkit-user-select:none;-khtml-user-select:none;-moz-user-select:none;-ms-user-select:none;user-select: none;} #reset { font-weight:bold; }]]></style><marker id="markerStart" markerWidth="8" markerHeight="8" style="overflow:visible;"><circle cx="0" cy="0" r="1.5" style="stroke:none;fill:red;fill-opacity:0.5;"/></marker><marker id="markerEnd" style="overflow:visible;"><circle cx="0" cy="0" r="0.8" style="stroke:none;fill:blue;fill-opacity:0.5;"><animate attributeName="opacity" from="1" to="0" dur="3s" repeatCount="indefinite" /></circle></marker></defs><rect x="4" y="4" width="100" height="100" /><path d="M21.23,20.07c1.79,0.46,3.59,0.54,5.4,0.24c6.96-0.7,18.65-2.16,25-2.65c3.51-0.27,4.73,1.18,4.07,4.11c-0.72,3.22-1.94,7.86-3.07,14.33" class="grey" /><path d="M11.02,30.47c2.74,0.57,5.47,0.6,8.21,0.07c13.55-1.39,28.61-2.83,39.64-3.52c2.29-0.26,4.58-0.17,6.85,0.27" class="grey" /><path d="M20.43,39.83c2.42,0.54,4.86,0.64,7.32,0.31c7.38-0.77,14.51-1.74,21.36-2.62c2.05-0.45,4.1-0.49,6.18-0.14" class="grey" /><path d="M18.25,49.18c2.16,0.66,4.38,0.99,6.62,0.71c9.01-1.14,16.54-1.89,23.89-2.84c2.14-0.45,4.3-0.53,6.47-0.24" class="grey" /><path d="M11.52,59.03c3.23,0.6,5.83,0.3,8.73-0.16C30.82,57.44,44.12,56,54.39,55.1c2.94-0.26,5.74-0.47,8.67,0.17" class="grey" /><path d="M36.94,11c1.03,1.03,1.38,2.62,1.38,3.9c0,0.9-0.15,34.6-0.15,40.67" class="grey" /><path d="M20.68,65.76c0.66,0.8,1.05,1.71,1.24,2.73c1.2,6.39,2.2,12.39,3.15,18.32" class="grey" /><path d="M22.31,66.92c8.87-1.07,21.53-2.78,28.44-3.62c4.28-0.52,4.91,0.78,4.69,3.33c-0.34,3.94-1.63,11.94-2.06,16.64" class="grey" /><path d="M36.88,65.75c0.81,0.81,1.26,2,1.26,3.37c0,3.48-0.01,10.17-0.01,12.63" class="grey" /><path d="M24.06,75.17c7.33-0.91,18.81-2.17,29.68-3.02" class="grey" /><path d="M25.89,84.46c7.73-1.08,18.18-2.03,26.57-2.66" class="grey" /><path d="M14.59,94.7c1.02,1.43,2.9,1.63,3.92,1.43c13.87-2.75,31.99-6.75,43.25-9.36" class="grey" /><path d="M72.52,24.33c1.33,1.33,1.76,3.17,1.76,5.02c0,9.71-0.01,21.89-0.02,30.4c0,4.26,0,7.6,0,9.25" class="grey" /><path d="M91.02,12.33c1.14,1.14,1.76,2.79,1.76,5.02c0,14.56-0.01,67.66-0.01,72.62c0,11.53-7.21,1.5-8.71,0.25" class="grey" /><path d="M21.23,20.07c1.79,0.46,3.59,0.54,5.4,0.24c6.96-0.7,18.65-2.16,25-2.65c3.51-0.27,4.73,1.18,4.07,4.11c-0.72,3.22-1.94,7.86-3.07,14.33" class="stroke" stroke-dasharray="150"><animate attributeName="stroke-dashoffset" from="150" to="0" dur="1.8s" begin="0s" fill="freeze" /></path><path d="M11.02,30.47c2.74,0.57,5.47,0.6,8.21,0.07c13.55-1.39,28.61-2.83,39.64-3.52c2.29-0.26,4.58-0.17,6.85,0.27" class="stroke" stroke-dasharray="150"><set attributeName="opacity" to="0" dur="1.3s" /><animate attributeName="stroke-dashoffset" from="150" to="0" dur="1.8s" begin="1.3s" fill="freeze" /></path><path d="M20.43,39.83c2.42,0.54,4.86,0.64,7.32,0.31c7.38-0.77,14.51-1.74,21.36-2.62c2.05-0.45,4.1-0.49,6.18-0.14" class="stroke" stroke-dasharray="150"><set attributeName="opacity" to="0" dur="2.6s" /><animate attributeName="stroke-dashoffset" from="150" to="0" dur="1.8s" begin="2.6s" fill="freeze" /></path><path d="M18.25,49.18c2.16,0.66,4.38,0.99,6.62,0.71c9.01-1.14,16.54-1.89,23.89-2.84c2.14-0.45,4.3-0.53,6.47-0.24" class="stroke" stroke-dasharray="150"><set attributeName="opacity" to="0" dur="3.6s" /><animate attributeName="stroke-dashoffset" from="150" to="0" dur="1.8s" begin="3.6s" fill="freeze" /></path><path d="M11.52,59.03c3.23,0.6,5.83,0.3,8.73-0.16C30.82,57.44,44.12,56,54.39,55.1c2.94-0.26,5.74-0.47,8.67,0.17" class="stroke" stroke-dasharray="150"><set attributeName="opacity" to="0" dur="4.6s" /><animate attributeName="stroke-dashoffset" from="150" to="0" dur="1.8s" begin="4.6s" fill="freeze" /></path><path d="M36.94,11c1.03,1.03,1.38,2.62,1.38,3.9c0,0.9-0.15,34.6-0.15,40.67" class="stroke" stroke-dasharray="150"><set attributeName="opacity" to="0" dur="5.8999999999999995s" /><animate attributeName="stroke-dashoffset" from="150" to="0" dur="1.8s" begin="5.8999999999999995s" fill="freeze" /></path><path d="M20.68,65.76c0.66,0.8,1.05,1.71,1.24,2.73c1.2,6.39,2.2,12.39,3.15,18.32" class="stroke" stroke-dasharray="150"><set attributeName="opacity" to="0" dur="7.0s" /><animate attributeName="stroke-dashoffset" from="150" to="0" dur="1.8s" begin="7.0s" fill="freeze" /></path><path d="M22.31,66.92c8.87-1.07,21.53-2.78,28.44-3.62c4.28-0.52,4.91,0.78,4.69,3.33c-0.34,3.94-1.63,11.94-2.06,16.64" class="stroke" stroke-dasharray="150"><set attributeName="opacity" to="0" dur="8.0s" /><animate attributeName="stroke-dashoffset" from="150" to="0" dur="1.8s" begin="8.0s" fill="freeze" /></path><path d="M36.88,65.75c0.81,0.81,1.26,2,1.26,3.37c0,3.48-0.01,10.17-0.01,12.63" class="stroke" stroke-dasharray="150"><set attributeName="opacity" to="0" dur="9.3s" /><animate attributeName="stroke-dashoffset" from="150" to="0" dur="1.8s" begin="9.3s" fill="freeze" /></path><path d="M24.06,75.17c7.33-0.91,18.81-2.17,29.68-3.02" class="stroke" stroke-dasharray="150"><set attributeName="opacity" to="0" dur="10.200000000000001s" /><animate attributeName="stroke-dashoffset" from="150" to="0" dur="1.8s" begin="10.200000000000001s" fill="freeze" /></path><path d="M25.89,84.46c7.73-1.08,18.18-2.03,26.57-2.66" class="stroke" stroke-dasharray="150"><set attributeName="opacity" to="0" dur="11.200000000000001s" /><animate attributeName="stroke-dashoffset" from="150" to="0" dur="1.8s" begin="11.200000000000001s" fill="freeze" /></path><path d="M14.59,94.7c1.02,1.43,2.9,1.63,3.92,1.43c13.87-2.75,31.99-6.75,43.25-9.36" class="stroke" stroke-dasharray="150"><set attributeName="opacity" to="0" dur="12.200000000000001s" /><animate attributeName="stroke-dashoffset" from="150" to="0" dur="1.8s" begin="12.200000000000001s" fill="freeze" /></path><path d="M72.52,24.33c1.33,1.33,1.76,3.17,1.76,5.02c0,9.71-0.01,21.89-0.02,30.4c0,4.26,0,7.6,0,9.25" class="stroke" stroke-dasharray="150"><set attributeName="opacity" to="0" dur="13.4s" /><animate attributeName="stroke-dashoffset" from="150" to="0" dur="1.8s" begin="13.4s" fill="freeze" /></path><path d="M91.02,12.33c1.14,1.14,1.76,2.79,1.76,5.02c0,14.56-0.01,67.66-0.01,72.62c0,11.53-7.21,1.5-8.71,0.25" class="stroke" stroke-dasharray="150"><set attributeName="opacity" to="0" dur="14.6s" /><animate attributeName="stroke-dashoffset" from="150" to="0" dur="1.8s" begin="14.6s" fill="freeze" /></path><text x="90" y="120" id="reset">⟳</text><text x="70" y="120" id="pause">◼</text><script type="text/javascript"><![CDATA[function RecurringTimer(e,t){var n,r,i=t;this.pause=function(){window.clearTimeout(n);i-=new Date-r};var s=function(){r=new Date;n=window.setTimeout(function(){i=t;s();e()},i)};this.clear=function(){window.clearTimeout(n);i=t;n=window.setTimeout(function(){i=t;s();e()},i)};this.resume=s;this.resume()}function invoketimer(){timer=new RecurringTimer(function(){svg.setCurrentTime(0)},17400)}var svg=document.getElementById("kanjivg");var pause=document.getElementById("pause");var reset=document.getElementById("reset");var timer;invoketimer();reset.onclick=function(){svg.setCurrentTime(0);timer.clear();svg.unpauseAnimations();pause.innerHTML = "◼";};pause.onclick=function(){if(svg.animationsPaused()){svg.unpauseAnimations();timer.resume();pause.innerHTML="◼"}else{svg.pauseAnimations();timer.pause();pause.innerHTML="▶"}}]]></script></svg>