<svg id="kanjivg" width="106" height="126" xmlns="http://www.w3.org/2000/svg" xmlns:xlink="http://www.w3.org/1999/xlink" xml:space="preserve" version="1.1" baseProfile="full"><defs><style type="text/css"><![CDATA[path.black { fill:none;stroke:black;stroke-width:5;stroke-linecap:round;stroke-linejoin:round; }path.grey { fill:none;stroke:#ddd;stroke-width:5;stroke-linecap:round;stroke-linejoin:round; }path.stroke { fill:none;stroke:black;stroke-width:5;stroke-linecap:round;stroke-linejoin:round; }rect { fill:none;stroke:#555;stroke-width:2;} text{font-size:16px;font-family:Segoe UI Symbol,Cambria Math,DejaVu Sans,Symbola,Quivira,STIX,Code2000;-webkit-touch-callout:none;cursor:pointer;-webkit-user-select:none;-khtml-user-select:none;-moz-user-select:none;-ms-user-select:none;user-select: none;} #reset { font-weight:bold; }]]></style><marker id="markerStart" markerWidth="8" markerHeight="8" style="overflow:visible;"><circle cx="0" cy="0" r="1.5" style="stroke:none;fill:red;fill-opacity:0.5;"/></marker><marker id="markerEnd" style="overflow:visible;"><circle cx="0" cy="0" r="0.8" style="stroke:none;fill:blue;fill-opacity:0.5;"><animate attributeName="opacity" from="1" to="0" dur="3s" repeatCount="indefinite" /></circle></marker></defs><rect x="4" y="4" width="100" height="100" /><path d="M37.92,11.25c0.54,0.42,1.44,2.05,1.44,2.89c0,3.09-0.17,4.5-0.07,7.12" class="grey" /><path d="M13.29,23.19c1.21,0.34,2.26,0.59,3.66,0.48c8.47-0.67,34.24-3.68,43.87-4.38c1.42-0.1,2.14,0.04,3.2,0.61" class="grey" /><path d="M32.92,28.58c1.62,1.26,4.18,5.18,4.58,7.13" class="grey" /><path d="M47.05,26.14c0.01,0.27,0.03,0.69-0.03,1.07c-0.34,2.26-2.28,7.22-4.93,10.25" class="grey" /><path d="M39.61,39.83c0.3,0.4,0.5,0.86,0.53,2.17c0.12,6.28-0.01,10.11-0.01,12.25" class="grey" /><path d="M15.16,36.5c0.37,0.23,1.16,0.2,1.48,0.12c2.63-0.63,11.59-2.81,13.04-3.04c0.95-0.15,1.26,0.69,1.16,1.74c-0.55,5.84-0.68,11.14-2.35,15.58c-0.87,2.33-1.89,1.59-2.53-0.23" class="grey" /><path d="M22.8,37.52c0.03,0.38,0.01,0.96-0.05,1.51c-0.5,4.71-2.5,9.21-9.36,14.47" class="grey" /><path d="M59.71,25.89c0.03,0.22,0.05,0.56-0.05,0.87c-0.61,1.84-4.68,6.35-9.48,8.83" class="grey" /><path d="M50.62,35.27c0.28,0.61,0.5,1.43,0.5,2.34c0,0.92-0.07,9.32-0.07,10.75c0,1.43,0.07,1.83,0.99,0.81c0.92-1.02,5.77-5.56,6.34-6.17" class="grey" /><path d="M57.15,37.86c3.74,2.26,6.65,8.22,8.33,12.33" class="grey" /><path d="M24.46,57.32c0.83,0.54,1.13,1.9,1.13,2.48c0,3.14-0.16,13.25-0.25,14.46c-0.54,6.92-2.65,16.33-10.84,22.2" class="grey" /><path d="M25.47,65.82c3.45-0.57,27.87-2.57,30.31-2.82" class="grey" /><path d="M25.27,76.63c3.11-0.13,26.33-2.38,30.49-2.59" class="grey" /><path d="M54.71,55.01c0.48,0.56,1.27,2.71,1.27,3.83c0,4.4-0.01,33.65-0.06,36.8" class="grey" /><path d="M71.27,29.58c0.98,0.92,1.67,1.99,1.76,5.02C73.42,49.16,73,69.79,73,74.75" class="grey" /><path d="M87.77,14.08c0.98,0.92,1.67,1.99,1.76,5.02c0.4,14.55-0.26,64.16-0.26,69.12c0,13.14-7.21,1.5-8.71,0.25" class="grey" /><path d="M37.92,11.25c0.54,0.42,1.44,2.05,1.44,2.89c0,3.09-0.17,4.5-0.07,7.12" class="stroke" stroke-dasharray="150"><animate attributeName="stroke-dashoffset" from="150" to="0" dur="1.8s" begin="0s" fill="freeze" /></path><path d="M13.29,23.19c1.21,0.34,2.26,0.59,3.66,0.48c8.47-0.67,34.24-3.68,43.87-4.38c1.42-0.1,2.14,0.04,3.2,0.61" class="stroke" stroke-dasharray="150"><set attributeName="opacity" to="0" dur="0.9s" /><animate attributeName="stroke-dashoffset" from="150" to="0" dur="1.8s" begin="0.9s" fill="freeze" /></path><path d="M32.92,28.58c1.62,1.26,4.18,5.18,4.58,7.13" class="stroke" stroke-dasharray="150"><set attributeName="opacity" to="0" dur="2.2s" /><animate attributeName="stroke-dashoffset" from="150" to="0" dur="1.8s" begin="2.2s" fill="freeze" /></path><path d="M47.05,26.14c0.01,0.27,0.03,0.69-0.03,1.07c-0.34,2.26-2.28,7.22-4.93,10.25" class="stroke" stroke-dasharray="150"><set attributeName="opacity" to="0" dur="3.1s" /><animate attributeName="stroke-dashoffset" from="150" to="0" dur="1.8s" begin="3.1s" fill="freeze" /></path><path d="M39.61,39.83c0.3,0.4,0.5,0.86,0.53,2.17c0.12,6.28-0.01,10.11-0.01,12.25" class="stroke" stroke-dasharray="150"><set attributeName="opacity" to="0" dur="4.0s" /><animate attributeName="stroke-dashoffset" from="150" to="0" dur="1.8s" begin="4.0s" fill="freeze" /></path><path d="M15.16,36.5c0.37,0.23,1.16,0.2,1.48,0.12c2.63-0.63,11.59-2.81,13.04-3.04c0.95-0.15,1.26,0.69,1.16,1.74c-0.55,5.84-0.68,11.14-2.35,15.58c-0.87,2.33-1.89,1.59-2.53-0.23" class="stroke" stroke-dasharray="150"><set attributeName="opacity" to="0" dur="4.9s" /><animate attributeName="stroke-dashoffset" from="150" to="0" dur="1.8s" begin="4.9s" fill="freeze" /></path><path d="M22.8,37.52c0.03,0.38,0.01,0.96-0.05,1.51c-0.5,4.71-2.5,9.21-9.36,14.47" class="stroke" stroke-dasharray="150"><set attributeName="opacity" to="0" dur="5.9s" /><animate attributeName="stroke-dashoffset" from="150" to="0" dur="1.8s" begin="5.9s" fill="freeze" /></path><path d="M59.71,25.89c0.03,0.22,0.05,0.56-0.05,0.87c-0.61,1.84-4.68,6.35-9.48,8.83" class="stroke" stroke-dasharray="150"><set attributeName="opacity" to="0" dur="6.800000000000001s" /><animate attributeName="stroke-dashoffset" from="150" to="0" dur="1.8s" begin="6.800000000000001s" fill="freeze" /></path><path d="M50.62,35.27c0.28,0.61,0.5,1.43,0.5,2.34c0,0.92-0.07,9.32-0.07,10.75c0,1.43,0.07,1.83,0.99,0.81c0.92-1.02,5.77-5.56,6.34-6.17" class="stroke" stroke-dasharray="150"><set attributeName="opacity" to="0" dur="7.700000000000001s" /><animate attributeName="stroke-dashoffset" from="150" to="0" dur="1.8s" begin="7.700000000000001s" fill="freeze" /></path><path d="M57.15,37.86c3.74,2.26,6.65,8.22,8.33,12.33" class="stroke" stroke-dasharray="150"><set attributeName="opacity" to="0" dur="8.700000000000001s" /><animate attributeName="stroke-dashoffset" from="150" to="0" dur="1.8s" begin="8.700000000000001s" fill="freeze" /></path><path d="M24.46,57.32c0.83,0.54,1.13,1.9,1.13,2.48c0,3.14-0.16,13.25-0.25,14.46c-0.54,6.92-2.65,16.33-10.84,22.2" class="stroke" stroke-dasharray="150"><set attributeName="opacity" to="0" dur="9.600000000000001s" /><animate attributeName="stroke-dashoffset" from="150" to="0" dur="1.8s" begin="9.600000000000001s" fill="freeze" /></path><path d="M25.47,65.82c3.45-0.57,27.87-2.57,30.31-2.82" class="stroke" stroke-dasharray="150"><set attributeName="opacity" to="0" dur="10.700000000000001s" /><animate attributeName="stroke-dashoffset" from="150" to="0" dur="1.8s" begin="10.700000000000001s" fill="freeze" /></path><path d="M25.27,76.63c3.11-0.13,26.33-2.38,30.49-2.59" class="stroke" stroke-dasharray="150"><set attributeName="opacity" to="0" dur="11.700000000000001s" /><animate attributeName="stroke-dashoffset" from="150" to="0" dur="1.8s" begin="11.700000000000001s" fill="freeze" /></path><path d="M54.71,55.01c0.48,0.56,1.27,2.71,1.27,3.83c0,4.4-0.01,33.65-0.06,36.8" class="stroke" stroke-dasharray="150"><set attributeName="opacity" to="0" dur="12.700000000000001s" /><animate attributeName="stroke-dashoffset" from="150" to="0" dur="1.8s" begin="12.700000000000001s" fill="freeze" /></path><path d="M71.27,29.58c0.98,0.92,1.67,1.99,1.76,5.02C73.42,49.16,73,69.79,73,74.75" class="stroke" stroke-dasharray="150"><set attributeName="opacity" to="0" dur="13.8s" /><animate attributeName="stroke-dashoffset" from="150" to="0" dur="1.8s" begin="13.8s" fill="freeze" /></path><path d="M87.77,14.08c0.98,0.92,1.67,1.99,1.76,5.02c0.4,14.55-0.26,64.16-0.26,69.12c0,13.14-7.21,1.5-8.71,0.25" class="stroke" stroke-dasharray="150"><set attributeName="opacity" to="0" dur="15.0s" /><animate attributeName="stroke-dashoffset" from="150" to="0" dur="1.8s" begin="15.0s" fill="freeze" /></path><text x="90" y="120" id="reset">⟳</text><text x="70" y="120" id="pause">◼</text><script type="text/javascript"><![CDATA[function RecurringTimer(e,t){var n,r,i=t;this.pause=function(){window.clearTimeout(n);i-=new Date-r};var s=function(){r=new Date;n=window.setTimeout(function(){i=t;s();e()},i)};this.clear=function(){window.clearTimeout(n);i=t;n=window.setTimeout(function(){i=t;s();e()},i)};this.resume=s;this.resume()}function invoketimer(){timer=new RecurringTimer(function(){svg.setCurrentTime(0)},17800)}var svg=document.getElementById("kanjivg");var pause=document.getElementById("pause");var reset=document.getElementById("reset");var timer;invoketimer();reset.onclick=function(){svg.setCurrentTime(0);timer.clear();svg.unpauseAnimations();pause.innerHTML = "◼";};pause.onclick=function(){if(svg.animationsPaused()){svg.unpauseAnimations();timer.resume();pause.innerHTML="◼"}else{svg.pauseAnimations();timer.pause();pause.innerHTML="▶"}}]]></script></svg>