<svg id="kanjivg" width="106" height="126" xmlns="http://www.w3.org/2000/svg" xmlns:xlink="http://www.w3.org/1999/xlink" xml:space="preserve" version="1.1" baseProfile="full"><defs><style type="text/css"><![CDATA[path.black { fill:none;stroke:black;stroke-width:5;stroke-linecap:round;stroke-linejoin:round; }path.grey { fill:none;stroke:#ddd;stroke-width:5;stroke-linecap:round;stroke-linejoin:round; }path.stroke { fill:none;stroke:black;stroke-width:5;stroke-linecap:round;stroke-linejoin:round; }rect { fill:none;stroke:#555;stroke-width:2;} text{font-size:16px;font-family:Segoe UI Symbol,Cambria Math,DejaVu Sans,Symbola,Quivira,STIX,Code2000;-webkit-touch-callout:none;cursor:pointer;-webkit-user-select:none;-khtml-user-select:none;-moz-user-select:none;-ms-user-select:none;user-select: none;} #reset { font-weight:bold; }]]></style><marker id="markerStart" markerWidth="8" markerHeight="8" style="overflow:visible;"><circle cx="0" cy="0" r="1.5" style="stroke:none;fill:red;fill-opacity:0.5;"/></marker><marker id="markerEnd" style="overflow:visible;"><circle cx="0" cy="0" r="0.8" style="stroke:none;fill:blue;fill-opacity:0.5;"><animate attributeName="opacity" from="1" to="0" dur="3s" repeatCount="indefinite" /></circle></marker></defs><rect x="4" y="4" width="100" height="100" /><path d="M40.5,11.5c0.07,0.89,0.35,2.35-0.13,3.56C37,23.5,32,35.75,17.25,49.13" class="grey" /><path d="M38.5,27.01c1.29,0.79,3.1,1.06,5.16,0.53c2.06-0.53,39.5-5.03,44.66-5.29c5.16-0.26,6.2,2.65,5.42,8.2C92.97,36.01,89,76,78.19,93.62c-2.97,4.83-5.21,1.99-8.26-1.32" class="grey" /><path d="M54.88,39.68c0.34,0.87,0.61,1.53,0.17,3.09c-3.96,13.88-11.17,26.32-20.93,32.48" class="grey" /><path d="M37.02,50.42c8.48,4.33,17.48,11.83,22.33,20.34" class="grey" /><path d="M26.97,52.44c0.45,0.27,1.11,3.02,1.01,3.56C27,61.25,25.75,72.5,25.34,81.13c-0.08,1.62,1.03,2.28,1.9,2.03c11.02-3.17,35.11-4.8,39.85-5.07" class="grey" /><path d="M68.41,46.88c0.46,0.27,1.42,2.02,1.51,2.56c0.09,0.54-1.42,19.56-2.15,32.84" class="grey" /><path d="M40.5,11.5c0.07,0.89,0.35,2.35-0.13,3.56C37,23.5,32,35.75,17.25,49.13" class="stroke" stroke-dasharray="150"><animate attributeName="stroke-dashoffset" from="150" to="0" dur="1.8s" begin="0s" fill="freeze" /></path><path d="M38.5,27.01c1.29,0.79,3.1,1.06,5.16,0.53c2.06-0.53,39.5-5.03,44.66-5.29c5.16-0.26,6.2,2.65,5.42,8.2C92.97,36.01,89,76,78.19,93.62c-2.97,4.83-5.21,1.99-8.26-1.32" class="stroke" stroke-dasharray="150"><set attributeName="opacity" to="0" dur="1.2s" /><animate attributeName="stroke-dashoffset" from="150" to="0" dur="1.8s" begin="1.2s" fill="freeze" /></path><path d="M54.88,39.68c0.34,0.87,0.61,1.53,0.17,3.09c-3.96,13.88-11.17,26.32-20.93,32.48" class="stroke" stroke-dasharray="150"><set attributeName="opacity" to="0" dur="3.2s" /><animate attributeName="stroke-dashoffset" from="150" to="0" dur="1.8s" begin="3.2s" fill="freeze" /></path><path d="M37.02,50.42c8.48,4.33,17.48,11.83,22.33,20.34" class="stroke" stroke-dasharray="150"><set attributeName="opacity" to="0" dur="4.300000000000001s" /><animate attributeName="stroke-dashoffset" from="150" to="0" dur="1.8s" begin="4.300000000000001s" fill="freeze" /></path><path d="M26.97,52.44c0.45,0.27,1.11,3.02,1.01,3.56C27,61.25,25.75,72.5,25.34,81.13c-0.08,1.62,1.03,2.28,1.9,2.03c11.02-3.17,35.11-4.8,39.85-5.07" class="stroke" stroke-dasharray="150"><set attributeName="opacity" to="0" dur="5.300000000000001s" /><animate attributeName="stroke-dashoffset" from="150" to="0" dur="1.8s" begin="5.300000000000001s" fill="freeze" /></path><path d="M68.41,46.88c0.46,0.27,1.42,2.02,1.51,2.56c0.09,0.54-1.42,19.56-2.15,32.84" class="stroke" stroke-dasharray="150"><set attributeName="opacity" to="0" dur="7.000000000000001s" /><animate attributeName="stroke-dashoffset" from="150" to="0" dur="1.8s" begin="7.000000000000001s" fill="freeze" /></path><text x="90" y="120" id="reset">⟳</text><text x="70" y="120" id="pause">◼</text><script type="text/javascript"><![CDATA[function RecurringTimer(e,t){var n,r,i=t;this.pause=function(){window.clearTimeout(n);i-=new Date-r};var s=function(){r=new Date;n=window.setTimeout(function(){i=t;s();e()},i)};this.clear=function(){window.clearTimeout(n);i=t;n=window.setTimeout(function(){i=t;s();e()},i)};this.resume=s;this.resume()}function invoketimer(){timer=new RecurringTimer(function(){svg.setCurrentTime(0)},9000)}var svg=document.getElementById("kanjivg");var pause=document.getElementById("pause");var reset=document.getElementById("reset");var timer;invoketimer();reset.onclick=function(){svg.setCurrentTime(0);timer.clear();svg.unpauseAnimations();pause.innerHTML = "◼";};pause.onclick=function(){if(svg.animationsPaused()){svg.unpauseAnimations();timer.resume();pause.innerHTML="◼"}else{svg.pauseAnimations();timer.pause();pause.innerHTML="▶"}}]]></script></svg>