<svg id="kanjivg" width="106" height="126" xmlns="http://www.w3.org/2000/svg" xmlns:xlink="http://www.w3.org/1999/xlink" xml:space="preserve" version="1.1" baseProfile="full"><defs><style type="text/css"><![CDATA[path.black { fill:none;stroke:black;stroke-width:5;stroke-linecap:round;stroke-linejoin:round; }path.grey { fill:none;stroke:#ddd;stroke-width:5;stroke-linecap:round;stroke-linejoin:round; }path.stroke { fill:none;stroke:black;stroke-width:5;stroke-linecap:round;stroke-linejoin:round; }rect { fill:none;stroke:#555;stroke-width:2;} text{font-size:16px;font-family:Segoe UI Symbol,Cambria Math,DejaVu Sans,Symbola,Quivira,STIX,Code2000;-webkit-touch-callout:none;cursor:pointer;-webkit-user-select:none;-khtml-user-select:none;-moz-user-select:none;-ms-user-select:none;user-select: none;} #reset { font-weight:bold; }]]></style><marker id="markerStart" markerWidth="8" markerHeight="8" style="overflow:visible;"><circle cx="0" cy="0" r="1.5" style="stroke:none;fill:red;fill-opacity:0.5;"/></marker><marker id="markerEnd" style="overflow:visible;"><circle cx="0" cy="0" r="0.8" style="stroke:none;fill:blue;fill-opacity:0.5;"><animate attributeName="opacity" from="1" to="0" dur="3s" repeatCount="indefinite" /></circle></marker></defs><rect x="4" y="4" width="100" height="100" /><path d="M39,11c0.06,0.81,0.08,1.91-0.38,3.01C35.65,21.22,27.59,34.27,16.5,44.8" class="grey" /><path d="M35.66,26.05c1.34,0.45,2.58,0.63,4.38,0.46c5.34-0.5,32.77-3.67,37.14-4.07c2.07-0.19,4.44,1.25,4.32,3.81c-0.25,5.25-4,28.5-9.62,40.17c-2.11,4.38-4.42,1.71-7.01-1.14" class="grey" /><path d="M27.54,43.7c1.71,0.8,3.36,1.05,6.02,0.7c4.66-0.61,15.11-1.87,18.94-2.29c3.48-0.38,5.08,0.98,4.17,4.53c-0.55,2.15-1.97,8.06-3.26,14.66" class="grey" /><path d="M26.88,62.62c1.5,0.75,2.86,1.08,5,1.06c5.68-0.05,12.81-0.76,18.75-1.37c1.79-0.18,3.47-0.18,4.93-0.26" class="grey" /><path d="M28.74,63.53c0.8,0.8,1.14,1.47,1.14,2.82c0,6.29-0.26,11.56-0.26,16.88c0,11.51,1.39,12.7,30.67,12.7c27.22,0,29.22-3.19,29.22-14.17" class="grey" /><path d="M39,11c0.06,0.81,0.08,1.91-0.38,3.01C35.65,21.22,27.59,34.27,16.5,44.8" class="stroke" stroke-dasharray="150"><animate attributeName="stroke-dashoffset" from="150" to="0" dur="1.8s" begin="0s" fill="freeze" /></path><path d="M35.66,26.05c1.34,0.45,2.58,0.63,4.38,0.46c5.34-0.5,32.77-3.67,37.14-4.07c2.07-0.19,4.44,1.25,4.32,3.81c-0.25,5.25-4,28.5-9.62,40.17c-2.11,4.38-4.42,1.71-7.01-1.14" class="stroke" stroke-dasharray="150"><set attributeName="opacity" to="0" dur="1.1s" /><animate attributeName="stroke-dashoffset" from="150" to="0" dur="1.8s" begin="1.1s" fill="freeze" /></path><path d="M27.54,43.7c1.71,0.8,3.36,1.05,6.02,0.7c4.66-0.61,15.11-1.87,18.94-2.29c3.48-0.38,5.08,0.98,4.17,4.53c-0.55,2.15-1.97,8.06-3.26,14.66" class="stroke" stroke-dasharray="150"><set attributeName="opacity" to="0" dur="2.9000000000000004s" /><animate attributeName="stroke-dashoffset" from="150" to="0" dur="1.8s" begin="2.9000000000000004s" fill="freeze" /></path><path d="M26.88,62.62c1.5,0.75,2.86,1.08,5,1.06c5.68-0.05,12.81-0.76,18.75-1.37c1.79-0.18,3.47-0.18,4.93-0.26" class="stroke" stroke-dasharray="150"><set attributeName="opacity" to="0" dur="4.1000000000000005s" /><animate attributeName="stroke-dashoffset" from="150" to="0" dur="1.8s" begin="4.1000000000000005s" fill="freeze" /></path><path d="M28.74,63.53c0.8,0.8,1.14,1.47,1.14,2.82c0,6.29-0.26,11.56-0.26,16.88c0,11.51,1.39,12.7,30.67,12.7c27.22,0,29.22-3.19,29.22-14.17" class="stroke" stroke-dasharray="150"><set attributeName="opacity" to="0" dur="5.1000000000000005s" /><animate attributeName="stroke-dashoffset" from="150" to="0" dur="1.8s" begin="5.1000000000000005s" fill="freeze" /></path><text x="90" y="120" id="reset">⟳</text><text x="70" y="120" id="pause">◼</text><script type="text/javascript"><![CDATA[function RecurringTimer(e,t){var n,r,i=t;this.pause=function(){window.clearTimeout(n);i-=new Date-r};var s=function(){r=new Date;n=window.setTimeout(function(){i=t;s();e()},i)};this.clear=function(){window.clearTimeout(n);i=t;n=window.setTimeout(function(){i=t;s();e()},i)};this.resume=s;this.resume()}function invoketimer(){timer=new RecurringTimer(function(){svg.setCurrentTime(0)},7900)}var svg=document.getElementById("kanjivg");var pause=document.getElementById("pause");var reset=document.getElementById("reset");var timer;invoketimer();reset.onclick=function(){svg.setCurrentTime(0);timer.clear();svg.unpauseAnimations();pause.innerHTML = "◼";};pause.onclick=function(){if(svg.animationsPaused()){svg.unpauseAnimations();timer.resume();pause.innerHTML="◼"}else{svg.pauseAnimations();timer.pause();pause.innerHTML="▶"}}]]></script></svg>