<svg id="kanjivg" width="106" height="126" xmlns="http://www.w3.org/2000/svg" xmlns:xlink="http://www.w3.org/1999/xlink" xml:space="preserve" version="1.1" baseProfile="full"><defs><style type="text/css"><![CDATA[path.black { fill:none;stroke:black;stroke-width:5;stroke-linecap:round;stroke-linejoin:round; }path.grey { fill:none;stroke:#ddd;stroke-width:5;stroke-linecap:round;stroke-linejoin:round; }path.stroke { fill:none;stroke:black;stroke-width:5;stroke-linecap:round;stroke-linejoin:round; }rect { fill:none;stroke:#555;stroke-width:2;} text{font-size:16px;font-family:Segoe UI Symbol,Cambria Math,DejaVu Sans,Symbola,Quivira,STIX,Code2000;-webkit-touch-callout:none;cursor:pointer;-webkit-user-select:none;-khtml-user-select:none;-moz-user-select:none;-ms-user-select:none;user-select: none;} #reset { font-weight:bold; }]]></style><marker id="markerStart" markerWidth="8" markerHeight="8" style="overflow:visible;"><circle cx="0" cy="0" r="1.5" style="stroke:none;fill:red;fill-opacity:0.5;"/></marker><marker id="markerEnd" style="overflow:visible;"><circle cx="0" cy="0" r="0.8" style="stroke:none;fill:blue;fill-opacity:0.5;"><animate attributeName="opacity" from="1" to="0" dur="3s" repeatCount="indefinite" /></circle></marker></defs><rect x="4" y="4" width="100" height="100" /><path d="M39.347137,4.4573948C39.427372,5.4742637,39.363184,6.8222064,38.785487,8.2292693C34.260199,19.237467,25.434283,33.568226,10.799308,46.882115" class="grey" /><path d="M32.52711,29.193324C35.271168,29.725407,37.501718,29.630814,39.908786,29.441629C45.894362,28.980491,79.288421,25.705227,85.065384,25.433274C90.842348,25.16132,95.447872,26.130893,94.34062,31.865561C90.633735,51.008711,85.418421,74.964253,72.291876,94.225643C68.954075,99.120803,63.546195,98.316767,58.635776,93.445255" class="grey" /><path d="M31.291482,43.275777C37.82266,45.238571,46.712765,50.275619,49.809859,54.366744" class="grey" /><path d="M27.263654,76.891574C28.900461,77.411833,31.740801,77.435481,33.634362,76.371316C41.304885,72.04371,56.854546,64.062471,64.862059,60.054115" class="grey" /><path d="M39.347137,4.4573948C39.427372,5.4742637,39.363184,6.8222064,38.785487,8.2292693C34.260199,19.237467,25.434283,33.568226,10.799308,46.882115" class="stroke" stroke-dasharray="150"><animate attributeName="stroke-dashoffset" from="150" to="0" dur="1.8s" begin="0s" fill="freeze" /></path><path d="M32.52711,29.193324C35.271168,29.725407,37.501718,29.630814,39.908786,29.441629C45.894362,28.980491,79.288421,25.705227,85.065384,25.433274C90.842348,25.16132,95.447872,26.130893,94.34062,31.865561C90.633735,51.008711,85.418421,74.964253,72.291876,94.225643C68.954075,99.120803,63.546195,98.316767,58.635776,93.445255" class="stroke" stroke-dasharray="150"><set attributeName="opacity" to="0" dur="1.3s" /><animate attributeName="stroke-dashoffset" from="150" to="0" dur="1.8s" begin="1.3s" fill="freeze" /></path><path d="M31.291482,43.275777C37.82266,45.238571,46.712765,50.275619,49.809859,54.366744" class="stroke" stroke-dasharray="150"><set attributeName="opacity" to="0" dur="3.3s" /><animate attributeName="stroke-dashoffset" from="150" to="0" dur="1.8s" begin="3.3s" fill="freeze" /></path><path d="M27.263654,76.891574C28.900461,77.411833,31.740801,77.435481,33.634362,76.371316C41.304885,72.04371,56.854546,64.062471,64.862059,60.054115" class="stroke" stroke-dasharray="150"><set attributeName="opacity" to="0" dur="4.3s" /><animate attributeName="stroke-dashoffset" from="150" to="0" dur="1.8s" begin="4.3s" fill="freeze" /></path><text x="90" y="120" id="reset">⟳</text><text x="70" y="120" id="pause">◼</text><script type="text/javascript"><![CDATA[function RecurringTimer(e,t){var n,r,i=t;this.pause=function(){window.clearTimeout(n);i-=new Date-r};var s=function(){r=new Date;n=window.setTimeout(function(){i=t;s();e()},i)};this.clear=function(){window.clearTimeout(n);i=t;n=window.setTimeout(function(){i=t;s();e()},i)};this.resume=s;this.resume()}function invoketimer(){timer=new RecurringTimer(function(){svg.setCurrentTime(0)},6400)}var svg=document.getElementById("kanjivg");var pause=document.getElementById("pause");var reset=document.getElementById("reset");var timer;invoketimer();reset.onclick=function(){svg.setCurrentTime(0);timer.clear();svg.unpauseAnimations();pause.innerHTML = "◼";};pause.onclick=function(){if(svg.animationsPaused()){svg.unpauseAnimations();timer.resume();pause.innerHTML="◼"}else{svg.pauseAnimations();timer.pause();pause.innerHTML="▶"}}]]></script></svg>