<svg id="kanjivg" width="106" height="126" xmlns="http://www.w3.org/2000/svg" xmlns:xlink="http://www.w3.org/1999/xlink" xml:space="preserve" version="1.1" baseProfile="full"><defs><style type="text/css"><![CDATA[path.black { fill:none;stroke:black;stroke-width:5;stroke-linecap:round;stroke-linejoin:round; }path.grey { fill:none;stroke:#ddd;stroke-width:5;stroke-linecap:round;stroke-linejoin:round; }path.stroke { fill:none;stroke:black;stroke-width:5;stroke-linecap:round;stroke-linejoin:round; }rect { fill:none;stroke:#555;stroke-width:2;} text{font-size:16px;font-family:Segoe UI Symbol,Cambria Math,DejaVu Sans,Symbola,Quivira,STIX,Code2000;-webkit-touch-callout:none;cursor:pointer;-webkit-user-select:none;-khtml-user-select:none;-moz-user-select:none;-ms-user-select:none;user-select: none;} #reset { font-weight:bold; }]]></style><marker id="markerStart" markerWidth="8" markerHeight="8" style="overflow:visible;"><circle cx="0" cy="0" r="1.5" style="stroke:none;fill:red;fill-opacity:0.5;"/></marker><marker id="markerEnd" style="overflow:visible;"><circle cx="0" cy="0" r="0.8" style="stroke:none;fill:blue;fill-opacity:0.5;"><animate attributeName="opacity" from="1" to="0" dur="3s" repeatCount="indefinite" /></circle></marker></defs><rect x="4" y="4" width="100" height="100" /><path d="M38.5,15.5c0.06,0.76,0.33,2.03-0.13,3.05c-3.13,6.95-9.13,19.2-21.13,29.2" class="grey" /><path d="M32.75,34.14c1.29,0.67,3.05,0.57,5.16,0.45c6.09-0.34,39.5-3.76,44.66-3.98c5.16-0.22,6.2,2.24,5.42,6.95c-0.77,4.71-6.7,40.4-18.05,53.18c-3.41,3.84-5.21,1.68-8.26-1.12" class="grey" /><path d="M47.5,37.75c0.07,0.65,0.2,1.71-0.14,2.63C44,49.43,36,58.06,22.75,65.5" class="grey" /><path d="M67.44,35.5c0.13,1.26-0.05,3.3-0.76,5.04C62,52,48.32,73.98,24,88.25" class="grey" /><path d="M31.77,48.08c11.49,3.02,29.67,12.43,32.54,17.13" class="grey" /><path d="M38.5,15.5c0.06,0.76,0.33,2.03-0.13,3.05c-3.13,6.95-9.13,19.2-21.13,29.2" class="stroke" stroke-dasharray="150"><animate attributeName="stroke-dashoffset" from="150" to="0" dur="1.8s" begin="0s" fill="freeze" /></path><path d="M32.75,34.14c1.29,0.67,3.05,0.57,5.16,0.45c6.09-0.34,39.5-3.76,44.66-3.98c5.16-0.22,6.2,2.24,5.42,6.95c-0.77,4.71-6.7,40.4-18.05,53.18c-3.41,3.84-5.21,1.68-8.26-1.12" class="stroke" stroke-dasharray="150"><set attributeName="opacity" to="0" dur="1.0s" /><animate attributeName="stroke-dashoffset" from="150" to="0" dur="1.8s" begin="1.0s" fill="freeze" /></path><path d="M47.5,37.75c0.07,0.65,0.2,1.71-0.14,2.63C44,49.43,36,58.06,22.75,65.5" class="stroke" stroke-dasharray="150"><set attributeName="opacity" to="0" dur="3.0s" /><animate attributeName="stroke-dashoffset" from="150" to="0" dur="1.8s" begin="3.0s" fill="freeze" /></path><path d="M67.44,35.5c0.13,1.26-0.05,3.3-0.76,5.04C62,52,48.32,73.98,24,88.25" class="stroke" stroke-dasharray="150"><set attributeName="opacity" to="0" dur="4.0s" /><animate attributeName="stroke-dashoffset" from="150" to="0" dur="1.8s" begin="4.0s" fill="freeze" /></path><path d="M31.77,48.08c11.49,3.02,29.67,12.43,32.54,17.13" class="stroke" stroke-dasharray="150"><set attributeName="opacity" to="0" dur="5.7s" /><animate attributeName="stroke-dashoffset" from="150" to="0" dur="1.8s" begin="5.7s" fill="freeze" /></path><text x="90" y="120" id="reset">⟳</text><text x="70" y="120" id="pause">◼</text><script type="text/javascript"><![CDATA[function RecurringTimer(e,t){var n,r,i=t;this.pause=function(){window.clearTimeout(n);i-=new Date-r};var s=function(){r=new Date;n=window.setTimeout(function(){i=t;s();e()},i)};this.clear=function(){window.clearTimeout(n);i=t;n=window.setTimeout(function(){i=t;s();e()},i)};this.resume=s;this.resume()}function invoketimer(){timer=new RecurringTimer(function(){svg.setCurrentTime(0)},7700)}var svg=document.getElementById("kanjivg");var pause=document.getElementById("pause");var reset=document.getElementById("reset");var timer;invoketimer();reset.onclick=function(){svg.setCurrentTime(0);timer.clear();svg.unpauseAnimations();pause.innerHTML = "◼";};pause.onclick=function(){if(svg.animationsPaused()){svg.unpauseAnimations();timer.resume();pause.innerHTML="◼"}else{svg.pauseAnimations();timer.pause();pause.innerHTML="▶"}}]]></script></svg>