<svg id="kanjivg" width="106" height="126" xmlns="http://www.w3.org/2000/svg" xmlns:xlink="http://www.w3.org/1999/xlink" xml:space="preserve" version="1.1" baseProfile="full"><defs><style type="text/css"><![CDATA[path.black { fill:none;stroke:black;stroke-width:5;stroke-linecap:round;stroke-linejoin:round; }path.grey { fill:none;stroke:#ddd;stroke-width:5;stroke-linecap:round;stroke-linejoin:round; }path.stroke { fill:none;stroke:black;stroke-width:5;stroke-linecap:round;stroke-linejoin:round; }rect { fill:none;stroke:#555;stroke-width:2;} text{font-size:16px;font-family:Segoe UI Symbol,Cambria Math,DejaVu Sans,Symbola,Quivira,STIX,Code2000;-webkit-touch-callout:none;cursor:pointer;-webkit-user-select:none;-khtml-user-select:none;-moz-user-select:none;-ms-user-select:none;user-select: none;} #reset { font-weight:bold; }]]></style><marker id="markerStart" markerWidth="8" markerHeight="8" style="overflow:visible;"><circle cx="0" cy="0" r="1.5" style="stroke:none;fill:red;fill-opacity:0.5;"/></marker><marker id="markerEnd" style="overflow:visible;"><circle cx="0" cy="0" r="0.8" style="stroke:none;fill:blue;fill-opacity:0.5;"><animate attributeName="opacity" from="1" to="0" dur="3s" repeatCount="indefinite" /></circle></marker></defs><rect x="4" y="4" width="100" height="100" /><path d="M42.23,10c0.08,0.98,0.38,2.6-0.16,3.94C38,24,28.75,38.75,13.25,51.63" class="grey" /><path d="M38,29.25c1.25,0.75,3,1,5,0.5s39.25-4.25,44.25-4.5s5.6,0.46,5.25,5.75C92,38.5,87.75,74,78,94.25c-2.35,4.87-5.05,1.88-8-1.25" class="grey" /><path d="M59.53,45.06c0.19,0.28,0.32,1.1-0.18,1.54c-3.24,2.8-13.09,8.9-24.84,12.9" class="grey" /><path d="M31,44.25c1.07,1.19,1.51,1.95,1.51,3.57c0,3.93,0.19,14.42,0.19,18.26c0,9.87,9.3,8.33,17.22,8.33c14.34,0,15.34-2.91,15.34-10.01" class="grey" /><path d="M42.23,10c0.08,0.98,0.38,2.6-0.16,3.94C38,24,28.75,38.75,13.25,51.63" class="stroke" stroke-dasharray="150"><animate attributeName="stroke-dashoffset" from="150" to="0" dur="1.8s" begin="0s" fill="freeze" /></path><path d="M38,29.25c1.25,0.75,3,1,5,0.5s39.25-4.25,44.25-4.5s5.6,0.46,5.25,5.75C92,38.5,87.75,74,78,94.25c-2.35,4.87-5.05,1.88-8-1.25" class="stroke" stroke-dasharray="150"><set attributeName="opacity" to="0" dur="1.3s" /><animate attributeName="stroke-dashoffset" from="150" to="0" dur="1.8s" begin="1.3s" fill="freeze" /></path><path d="M59.53,45.06c0.19,0.28,0.32,1.1-0.18,1.54c-3.24,2.8-13.09,8.9-24.84,12.9" class="stroke" stroke-dasharray="150"><set attributeName="opacity" to="0" dur="3.3s" /><animate attributeName="stroke-dashoffset" from="150" to="0" dur="1.8s" begin="3.3s" fill="freeze" /></path><path d="M31,44.25c1.07,1.19,1.51,1.95,1.51,3.57c0,3.93,0.19,14.42,0.19,18.26c0,9.87,9.3,8.33,17.22,8.33c14.34,0,15.34-2.91,15.34-10.01" class="stroke" stroke-dasharray="150"><set attributeName="opacity" to="0" dur="4.3s" /><animate attributeName="stroke-dashoffset" from="150" to="0" dur="1.8s" begin="4.3s" fill="freeze" /></path><text x="90" y="120" id="reset">⟳</text><text x="70" y="120" id="pause">◼</text><script type="text/javascript"><![CDATA[function RecurringTimer(e,t){var n,r,i=t;this.pause=function(){window.clearTimeout(n);i-=new Date-r};var s=function(){r=new Date;n=window.setTimeout(function(){i=t;s();e()},i)};this.clear=function(){window.clearTimeout(n);i=t;n=window.setTimeout(function(){i=t;s();e()},i)};this.resume=s;this.resume()}function invoketimer(){timer=new RecurringTimer(function(){svg.setCurrentTime(0)},6800)}var svg=document.getElementById("kanjivg");var pause=document.getElementById("pause");var reset=document.getElementById("reset");var timer;invoketimer();reset.onclick=function(){svg.setCurrentTime(0);timer.clear();svg.unpauseAnimations();pause.innerHTML = "◼";};pause.onclick=function(){if(svg.animationsPaused()){svg.unpauseAnimations();timer.resume();pause.innerHTML="◼"}else{svg.pauseAnimations();timer.pause();pause.innerHTML="▶"}}]]></script></svg>