<svg id="kanjivg" width="106" height="126" xmlns="http://www.w3.org/2000/svg" xmlns:xlink="http://www.w3.org/1999/xlink" xml:space="preserve" version="1.1" baseProfile="full"><defs><style type="text/css"><![CDATA[path.black { fill:none;stroke:black;stroke-width:5;stroke-linecap:round;stroke-linejoin:round; }path.grey { fill:none;stroke:#ddd;stroke-width:5;stroke-linecap:round;stroke-linejoin:round; }path.stroke { fill:none;stroke:black;stroke-width:5;stroke-linecap:round;stroke-linejoin:round; }rect { fill:none;stroke:#555;stroke-width:2;} text{font-size:16px;font-family:Segoe UI Symbol,Cambria Math,DejaVu Sans,Symbola,Quivira,STIX,Code2000;-webkit-touch-callout:none;cursor:pointer;-webkit-user-select:none;-khtml-user-select:none;-moz-user-select:none;-ms-user-select:none;user-select: none;} #reset { font-weight:bold; }]]></style><marker id="markerStart" markerWidth="8" markerHeight="8" style="overflow:visible;"><circle cx="0" cy="0" r="1.5" style="stroke:none;fill:red;fill-opacity:0.5;"/></marker><marker id="markerEnd" style="overflow:visible;"><circle cx="0" cy="0" r="0.8" style="stroke:none;fill:blue;fill-opacity:0.5;"><animate attributeName="opacity" from="1" to="0" dur="3s" repeatCount="indefinite" /></circle></marker></defs><rect x="4" y="4" width="100" height="100" /><path d="M19.27,16.54c0.78,0.78,1.04,1.72,1.24,2.77c0.32,1.69,1.52,9.5,2.44,15.55c0.47,3.12,0.87,5.78,1.04,6.89" class="grey" /><path d="M21.12,18.89c3.01-0.33,16.74-2.35,22.51-2.93c3.19-0.32,4.95,1.28,4.56,4.42c-0.38,3.06-1.05,8.13-1.6,12.38c-0.51,3.92-0.93,7.12-0.93,7.38" class="grey" /><path d="M23.15,29.48c6.47-0.73,16.6-2.35,22.97-2.69" class="grey" /><path d="M24.84,40.16c6.78-0.66,12.78-1.39,19.95-1.78" class="grey" /><path d="M11.75,50.2c2.83,0.59,5.67,0.48,8.53,0.11c9.97-1.31,17.6-1.93,25.97-2.78c3.03-0.31,5.99-0.67,9-0.23" class="grey" /><path d="M34.5,50.5c0.88,0.88,1,1.75,1,3.25c0,2.5,0,18.12,0,24.75" class="grey" /><path d="M37.12,64.88c4.44-0.52,7.5-1.12,11.38-1.49c1.77-0.17,2.85-0.07,3.74,0.12" class="grey" /><path d="M22.74,58.89c0.24,1.11,0.56,2.19,0.46,3.41C22.5,71,18.62,85,10.81,94.47" class="grey" /><path d="M22.38,75.25c9.72,2.98,37.67,13.24,53.6,17.11C80.94,93.49,85.95,94.37,91,95" class="grey" /><path d="M91.88,27.97c-0.25,1.28-0.85,2.28-1.78,3.14C86,34.88,80,40,68.62,45" class="grey" /><path d="M64.53,19.28c0.97,0.97,1.09,2.12,1.09,3.6c0,1.17,0,38.88,0,42.5c0,9.96,2.79,11.66,14.96,11.66c11.67,0,12.91-1.46,13.67-11.31" class="grey" /><path d="M19.27,16.54c0.78,0.78,1.04,1.72,1.24,2.77c0.32,1.69,1.52,9.5,2.44,15.55c0.47,3.12,0.87,5.78,1.04,6.89" class="stroke" stroke-dasharray="150"><animate attributeName="stroke-dashoffset" from="150" to="0" dur="1.8s" begin="0s" fill="freeze" /></path><path d="M21.12,18.89c3.01-0.33,16.74-2.35,22.51-2.93c3.19-0.32,4.95,1.28,4.56,4.42c-0.38,3.06-1.05,8.13-1.6,12.38c-0.51,3.92-0.93,7.12-0.93,7.38" class="stroke" stroke-dasharray="150"><set attributeName="opacity" to="0" dur="1.0s" /><animate attributeName="stroke-dashoffset" from="150" to="0" dur="1.8s" begin="1.0s" fill="freeze" /></path><path d="M23.15,29.48c6.47-0.73,16.6-2.35,22.97-2.69" class="stroke" stroke-dasharray="150"><set attributeName="opacity" to="0" dur="2.3s" /><animate attributeName="stroke-dashoffset" from="150" to="0" dur="1.8s" begin="2.3s" fill="freeze" /></path><path d="M24.84,40.16c6.78-0.66,12.78-1.39,19.95-1.78" class="stroke" stroke-dasharray="150"><set attributeName="opacity" to="0" dur="3.3s" /><animate attributeName="stroke-dashoffset" from="150" to="0" dur="1.8s" begin="3.3s" fill="freeze" /></path><path d="M11.75,50.2c2.83,0.59,5.67,0.48,8.53,0.11c9.97-1.31,17.6-1.93,25.97-2.78c3.03-0.31,5.99-0.67,9-0.23" class="stroke" stroke-dasharray="150"><set attributeName="opacity" to="0" dur="4.3s" /><animate attributeName="stroke-dashoffset" from="150" to="0" dur="1.8s" begin="4.3s" fill="freeze" /></path><path d="M34.5,50.5c0.88,0.88,1,1.75,1,3.25c0,2.5,0,18.12,0,24.75" class="stroke" stroke-dasharray="150"><set attributeName="opacity" to="0" dur="5.4s" /><animate attributeName="stroke-dashoffset" from="150" to="0" dur="1.8s" begin="5.4s" fill="freeze" /></path><path d="M37.12,64.88c4.44-0.52,7.5-1.12,11.38-1.49c1.77-0.17,2.85-0.07,3.74,0.12" class="stroke" stroke-dasharray="150"><set attributeName="opacity" to="0" dur="6.4s" /><animate attributeName="stroke-dashoffset" from="150" to="0" dur="1.8s" begin="6.4s" fill="freeze" /></path><path d="M22.74,58.89c0.24,1.11,0.56,2.19,0.46,3.41C22.5,71,18.62,85,10.81,94.47" class="stroke" stroke-dasharray="150"><set attributeName="opacity" to="0" dur="7.300000000000001s" /><animate attributeName="stroke-dashoffset" from="150" to="0" dur="1.8s" begin="7.300000000000001s" fill="freeze" /></path><path d="M22.38,75.25c9.72,2.98,37.67,13.24,53.6,17.11C80.94,93.49,85.95,94.37,91,95" class="stroke" stroke-dasharray="150"><set attributeName="opacity" to="0" dur="8.3s" /><animate attributeName="stroke-dashoffset" from="150" to="0" dur="1.8s" begin="8.3s" fill="freeze" /></path><path d="M91.88,27.97c-0.25,1.28-0.85,2.28-1.78,3.14C86,34.88,80,40,68.62,45" class="stroke" stroke-dasharray="150"><set attributeName="opacity" to="0" dur="10.0s" /><animate attributeName="stroke-dashoffset" from="150" to="0" dur="1.8s" begin="10.0s" fill="freeze" /></path><path d="M64.53,19.28c0.97,0.97,1.09,2.12,1.09,3.6c0,1.17,0,38.88,0,42.5c0,9.96,2.79,11.66,14.96,11.66c11.67,0,12.91-1.46,13.67-11.31" class="stroke" stroke-dasharray="150"><set attributeName="opacity" to="0" dur="11.0s" /><animate attributeName="stroke-dashoffset" from="150" to="0" dur="1.8s" begin="11.0s" fill="freeze" /></path><text x="90" y="120" id="reset">⟳</text><text x="70" y="120" id="pause">◼</text><script type="text/javascript"><![CDATA[function RecurringTimer(e,t){var n,r,i=t;this.pause=function(){window.clearTimeout(n);i-=new Date-r};var s=function(){r=new Date;n=window.setTimeout(function(){i=t;s();e()},i)};this.clear=function(){window.clearTimeout(n);i=t;n=window.setTimeout(function(){i=t;s();e()},i)};this.resume=s;this.resume()}function invoketimer(){timer=new RecurringTimer(function(){svg.setCurrentTime(0)},13800)}var svg=document.getElementById("kanjivg");var pause=document.getElementById("pause");var reset=document.getElementById("reset");var timer;invoketimer();reset.onclick=function(){svg.setCurrentTime(0);timer.clear();svg.unpauseAnimations();pause.innerHTML = "◼";};pause.onclick=function(){if(svg.animationsPaused()){svg.unpauseAnimations();timer.resume();pause.innerHTML="◼"}else{svg.pauseAnimations();timer.pause();pause.innerHTML="▶"}}]]></script></svg>