<svg id="kanjivg" width="106" height="126" xmlns="http://www.w3.org/2000/svg" xmlns:xlink="http://www.w3.org/1999/xlink" xml:space="preserve" version="1.1" baseProfile="full"><defs><style type="text/css"><![CDATA[path.black { fill:none;stroke:black;stroke-width:5;stroke-linecap:round;stroke-linejoin:round; }path.grey { fill:none;stroke:#ddd;stroke-width:5;stroke-linecap:round;stroke-linejoin:round; }path.stroke { fill:none;stroke:black;stroke-width:5;stroke-linecap:round;stroke-linejoin:round; }rect { fill:none;stroke:#555;stroke-width:2;} text{font-size:16px;font-family:Segoe UI Symbol,Cambria Math,DejaVu Sans,Symbola,Quivira,STIX,Code2000;-webkit-touch-callout:none;cursor:pointer;-webkit-user-select:none;-khtml-user-select:none;-moz-user-select:none;-ms-user-select:none;user-select: none;} #reset { font-weight:bold; }]]></style><marker id="markerStart" markerWidth="8" markerHeight="8" style="overflow:visible;"><circle cx="0" cy="0" r="1.5" style="stroke:none;fill:red;fill-opacity:0.5;"/></marker><marker id="markerEnd" style="overflow:visible;"><circle cx="0" cy="0" r="0.8" style="stroke:none;fill:blue;fill-opacity:0.5;"><animate attributeName="opacity" from="1" to="0" dur="3s" repeatCount="indefinite" /></circle></marker></defs><rect x="4" y="4" width="100" height="100" /><path d="M37.95,10.5c0.07,0.84,0.15,2.17-0.14,3.38c-1.7,7.13-11.56,21.37-24.31,32.36" class="grey" /><path d="M34.82,24.57c1.42,0.79,3.4,1.05,5.66,0.52c2.27-0.52,41.38-4.48,47.05-4.74c5.66-0.26,6.35,2.07,5.95,7.63C92.25,44.75,92,66.5,85.15,91.63c-1.54,5.64-4.45,5.12-8.69,0.14" class="grey" /><path d="M26.75,37.91c0.94,0.31,2.66,0.39,3.6,0.31c5.98-0.53,28.15-3.74,35.11-3.83c1.56-0.02,2.5,0.15,3.29,0.3" class="grey" /><path d="M30.53,46.11c0.33,0.25,0.68,0.46,0.82,0.78c1.16,2.49,2.54,9.38,3.33,13.86" class="grey" /><path d="M32.61,47.37c8.18-1.05,26.1-3.33,30.32-3.68c1.54-0.13,2.47,1.3,2.25,2.06c-0.91,3.14-1.96,5.35-3.92,9.88" class="grey" /><path d="M35.02,59.1c4.95-0.4,22-2.17,28.28-2.57" class="grey" /><path d="M26.61,69.79c0.29,0.48,0.8,1.8,0.96,2.4c1.3,4.88,2.97,16.07,3.74,25.06" class="grey" /><path d="M27.99,70.65c13.51-1.58,31.04-3.94,38.75-4.42c2.83-0.18,4.28,1.24,4.12,2.55c-0.57,4.79-2.61,16.86-4.11,26.26" class="grey" /><path d="M46.39,69.29c1.11,0.38,1.96,1.1,1.96,2.4c-0.01,6,0.19,18.58,0.19,20.53" class="grey" /><path d="M30.33,82.55c3.37-0.24,35.43-3.87,38.21-3.87" class="grey" /><path d="M31.85,95.17c12.15-0.96,22.4-2.06,34.99-2.93" class="grey" /><path d="M37.95,10.5c0.07,0.84,0.15,2.17-0.14,3.38c-1.7,7.13-11.56,21.37-24.31,32.36" class="stroke" stroke-dasharray="150"><animate attributeName="stroke-dashoffset" from="150" to="0" dur="1.8s" begin="0s" fill="freeze" /></path><path d="M34.82,24.57c1.42,0.79,3.4,1.05,5.66,0.52c2.27-0.52,41.38-4.48,47.05-4.74c5.66-0.26,6.35,2.07,5.95,7.63C92.25,44.75,92,66.5,85.15,91.63c-1.54,5.64-4.45,5.12-8.69,0.14" class="stroke" stroke-dasharray="150"><set attributeName="opacity" to="0" dur="1.1s" /><animate attributeName="stroke-dashoffset" from="150" to="0" dur="1.8s" begin="1.1s" fill="freeze" /></path><path d="M26.75,37.91c0.94,0.31,2.66,0.39,3.6,0.31c5.98-0.53,28.15-3.74,35.11-3.83c1.56-0.02,2.5,0.15,3.29,0.3" class="stroke" stroke-dasharray="150"><set attributeName="opacity" to="0" dur="3.1s" /><animate attributeName="stroke-dashoffset" from="150" to="0" dur="1.8s" begin="3.1s" fill="freeze" /></path><path d="M30.53,46.11c0.33,0.25,0.68,0.46,0.82,0.78c1.16,2.49,2.54,9.38,3.33,13.86" class="stroke" stroke-dasharray="150"><set attributeName="opacity" to="0" dur="4.2s" /><animate attributeName="stroke-dashoffset" from="150" to="0" dur="1.8s" begin="4.2s" fill="freeze" /></path><path d="M32.61,47.37c8.18-1.05,26.1-3.33,30.32-3.68c1.54-0.13,2.47,1.3,2.25,2.06c-0.91,3.14-1.96,5.35-3.92,9.88" class="stroke" stroke-dasharray="150"><set attributeName="opacity" to="0" dur="5.1000000000000005s" /><animate attributeName="stroke-dashoffset" from="150" to="0" dur="1.8s" begin="5.1000000000000005s" fill="freeze" /></path><path d="M35.02,59.1c4.95-0.4,22-2.17,28.28-2.57" class="stroke" stroke-dasharray="150"><set attributeName="opacity" to="0" dur="6.200000000000001s" /><animate attributeName="stroke-dashoffset" from="150" to="0" dur="1.8s" begin="6.200000000000001s" fill="freeze" /></path><path d="M26.61,69.79c0.29,0.48,0.8,1.8,0.96,2.4c1.3,4.88,2.97,16.07,3.74,25.06" class="stroke" stroke-dasharray="150"><set attributeName="opacity" to="0" dur="7.200000000000001s" /><animate attributeName="stroke-dashoffset" from="150" to="0" dur="1.8s" begin="7.200000000000001s" fill="freeze" /></path><path d="M27.99,70.65c13.51-1.58,31.04-3.94,38.75-4.42c2.83-0.18,4.28,1.24,4.12,2.55c-0.57,4.79-2.61,16.86-4.11,26.26" class="stroke" stroke-dasharray="150"><set attributeName="opacity" to="0" dur="8.200000000000001s" /><animate attributeName="stroke-dashoffset" from="150" to="0" dur="1.8s" begin="8.200000000000001s" fill="freeze" /></path><path d="M46.39,69.29c1.11,0.38,1.96,1.1,1.96,2.4c-0.01,6,0.19,18.58,0.19,20.53" class="stroke" stroke-dasharray="150"><set attributeName="opacity" to="0" dur="9.9s" /><animate attributeName="stroke-dashoffset" from="150" to="0" dur="1.8s" begin="9.9s" fill="freeze" /></path><path d="M30.33,82.55c3.37-0.24,35.43-3.87,38.21-3.87" class="stroke" stroke-dasharray="150"><set attributeName="opacity" to="0" dur="10.9s" /><animate attributeName="stroke-dashoffset" from="150" to="0" dur="1.8s" begin="10.9s" fill="freeze" /></path><path d="M31.85,95.17c12.15-0.96,22.4-2.06,34.99-2.93" class="stroke" stroke-dasharray="150"><set attributeName="opacity" to="0" dur="11.9s" /><animate attributeName="stroke-dashoffset" from="150" to="0" dur="1.8s" begin="11.9s" fill="freeze" /></path><text x="90" y="120" id="reset">⟳</text><text x="70" y="120" id="pause">◼</text><script type="text/javascript"><![CDATA[function RecurringTimer(e,t){var n,r,i=t;this.pause=function(){window.clearTimeout(n);i-=new Date-r};var s=function(){r=new Date;n=window.setTimeout(function(){i=t;s();e()},i)};this.clear=function(){window.clearTimeout(n);i=t;n=window.setTimeout(function(){i=t;s();e()},i)};this.resume=s;this.resume()}function invoketimer(){timer=new RecurringTimer(function(){svg.setCurrentTime(0)},13900)}var svg=document.getElementById("kanjivg");var pause=document.getElementById("pause");var reset=document.getElementById("reset");var timer;invoketimer();reset.onclick=function(){svg.setCurrentTime(0);timer.clear();svg.unpauseAnimations();pause.innerHTML = "◼";};pause.onclick=function(){if(svg.animationsPaused()){svg.unpauseAnimations();timer.resume();pause.innerHTML="◼"}else{svg.pauseAnimations();timer.pause();pause.innerHTML="▶"}}]]></script></svg>