<svg id="kanjivg" width="106" height="126" xmlns="http://www.w3.org/2000/svg" xmlns:xlink="http://www.w3.org/1999/xlink" xml:space="preserve" version="1.1" baseProfile="full"><defs><style type="text/css"><![CDATA[path.black { fill:none;stroke:black;stroke-width:5;stroke-linecap:round;stroke-linejoin:round; }path.grey { fill:none;stroke:#ddd;stroke-width:5;stroke-linecap:round;stroke-linejoin:round; }path.stroke { fill:none;stroke:black;stroke-width:5;stroke-linecap:round;stroke-linejoin:round; }rect { fill:none;stroke:#555;stroke-width:2;} text{font-size:16px;font-family:Segoe UI Symbol,Cambria Math,DejaVu Sans,Symbola,Quivira,STIX,Code2000;-webkit-touch-callout:none;cursor:pointer;-webkit-user-select:none;-khtml-user-select:none;-moz-user-select:none;-ms-user-select:none;user-select: none;} #reset { font-weight:bold; }]]></style><marker id="markerStart" markerWidth="8" markerHeight="8" style="overflow:visible;"><circle cx="0" cy="0" r="1.5" style="stroke:none;fill:red;fill-opacity:0.5;"/></marker><marker id="markerEnd" style="overflow:visible;"><circle cx="0" cy="0" r="0.8" style="stroke:none;fill:blue;fill-opacity:0.5;"><animate attributeName="opacity" from="1" to="0" dur="3s" repeatCount="indefinite" /></circle></marker></defs><rect x="4" y="4" width="100" height="100" /><path d="M19.77,17.04c0.37,0.63,0.74,1.44,0.74,2.27c0,0.83,3.36,21.61,3.48,22.44" class="grey" /><path d="M21.12,18.64c2.09-0.1,23.21-2.53,25.12-2.65c1.59-0.1,2.54,1.15,2.48,1.77c-0.26,2.72-2.81,21.75-2.81,22.38" class="grey" /><path d="M22.65,29.48c4.05,0,8.22-0.85,12.22-1.34c1.36-0.17,2.72-0.34,4.02-0.49" class="grey" /><path d="M24.84,40.41c5.76-0.45,13.03-1.64,20.2-2.03" class="grey" /><path d="M11.75,50.2c1.17,0.54,3.31,0.66,4.48,0.54c7.64-0.74,28.52-3.49,34.93-3.98c1.94-0.15,3.11,0.26,4.09,0.53" class="grey" /><path d="M33.5,49.75c1.25,0.5,2.25,2.22,2.25,3.25c0,2.5,0,18.75-0.25,25" class="grey" /><path d="M35.85,65.27c4.44-0.52,9.28-1.88,12.66-1.88c1.78,0,2.85,0.18,3.74,0.37" class="grey" /><path d="M22.49,58.39c0.24,1.11,0.56,2.19,0.46,3.41c-0.71,8.69-4.21,21.69-12.15,32.66" class="grey" /><path d="M20.75,75c10.25,2.06,47,15.58,60.83,17.78c3.38,0.54,6.12,1.23,9.42,1.47" class="grey" /><path d="M91.88,27.97c0.12,0.78-0.16,1.81-0.7,2.33c-3.45,3.34-14.28,12.05-25.43,15.47" class="grey" /><path d="M64.69,19.25c0.6,0.87,0.64,1.44,0.84,2.6c0.2,1.15,0.2,43.73,0.2,47.34c0,9.29,8.02,7.84,14.86,7.84c5.3,0,9.72-0.49,11.71-3.09c2-2.6,1.75-5.62,1.95-8.22" class="grey" /><path d="M19.77,17.04c0.37,0.63,0.74,1.44,0.74,2.27c0,0.83,3.36,21.61,3.48,22.44" class="stroke" stroke-dasharray="150"><animate attributeName="stroke-dashoffset" from="150" to="0" dur="1.8s" begin="0s" fill="freeze" /></path><path d="M21.12,18.64c2.09-0.1,23.21-2.53,25.12-2.65c1.59-0.1,2.54,1.15,2.48,1.77c-0.26,2.72-2.81,21.75-2.81,22.38" class="stroke" stroke-dasharray="150"><set attributeName="opacity" to="0" dur="1.0s" /><animate attributeName="stroke-dashoffset" from="150" to="0" dur="1.8s" begin="1.0s" fill="freeze" /></path><path d="M22.65,29.48c4.05,0,8.22-0.85,12.22-1.34c1.36-0.17,2.72-0.34,4.02-0.49" class="stroke" stroke-dasharray="150"><set attributeName="opacity" to="0" dur="2.3s" /><animate attributeName="stroke-dashoffset" from="150" to="0" dur="1.8s" begin="2.3s" fill="freeze" /></path><path d="M24.84,40.41c5.76-0.45,13.03-1.64,20.2-2.03" class="stroke" stroke-dasharray="150"><set attributeName="opacity" to="0" dur="3.1999999999999997s" /><animate attributeName="stroke-dashoffset" from="150" to="0" dur="1.8s" begin="3.1999999999999997s" fill="freeze" /></path><path d="M11.75,50.2c1.17,0.54,3.31,0.66,4.48,0.54c7.64-0.74,28.52-3.49,34.93-3.98c1.94-0.15,3.11,0.26,4.09,0.53" class="stroke" stroke-dasharray="150"><set attributeName="opacity" to="0" dur="4.199999999999999s" /><animate attributeName="stroke-dashoffset" from="150" to="0" dur="1.8s" begin="4.199999999999999s" fill="freeze" /></path><path d="M33.5,49.75c1.25,0.5,2.25,2.22,2.25,3.25c0,2.5,0,18.75-0.25,25" class="stroke" stroke-dasharray="150"><set attributeName="opacity" to="0" dur="5.299999999999999s" /><animate attributeName="stroke-dashoffset" from="150" to="0" dur="1.8s" begin="5.299999999999999s" fill="freeze" /></path><path d="M35.85,65.27c4.44-0.52,9.28-1.88,12.66-1.88c1.78,0,2.85,0.18,3.74,0.37" class="stroke" stroke-dasharray="150"><set attributeName="opacity" to="0" dur="6.299999999999999s" /><animate attributeName="stroke-dashoffset" from="150" to="0" dur="1.8s" begin="6.299999999999999s" fill="freeze" /></path><path d="M22.49,58.39c0.24,1.11,0.56,2.19,0.46,3.41c-0.71,8.69-4.21,21.69-12.15,32.66" class="stroke" stroke-dasharray="150"><set attributeName="opacity" to="0" dur="7.199999999999999s" /><animate attributeName="stroke-dashoffset" from="150" to="0" dur="1.8s" begin="7.199999999999999s" fill="freeze" /></path><path d="M20.75,75c10.25,2.06,47,15.58,60.83,17.78c3.38,0.54,6.12,1.23,9.42,1.47" class="stroke" stroke-dasharray="150"><set attributeName="opacity" to="0" dur="8.2s" /><animate attributeName="stroke-dashoffset" from="150" to="0" dur="1.8s" begin="8.2s" fill="freeze" /></path><path d="M91.88,27.97c0.12,0.78-0.16,1.81-0.7,2.33c-3.45,3.34-14.28,12.05-25.43,15.47" class="stroke" stroke-dasharray="150"><set attributeName="opacity" to="0" dur="9.899999999999999s" /><animate attributeName="stroke-dashoffset" from="150" to="0" dur="1.8s" begin="9.899999999999999s" fill="freeze" /></path><path d="M64.69,19.25c0.6,0.87,0.64,1.44,0.84,2.6c0.2,1.15,0.2,43.73,0.2,47.34c0,9.29,8.02,7.84,14.86,7.84c5.3,0,9.72-0.49,11.71-3.09c2-2.6,1.75-5.62,1.95-8.22" class="stroke" stroke-dasharray="150"><set attributeName="opacity" to="0" dur="10.899999999999999s" /><animate attributeName="stroke-dashoffset" from="150" to="0" dur="1.8s" begin="10.899999999999999s" fill="freeze" /></path><text x="90" y="120" id="reset">⟳</text><text x="70" y="120" id="pause">◼</text><script type="text/javascript"><![CDATA[function RecurringTimer(e,t){var n,r,i=t;this.pause=function(){window.clearTimeout(n);i-=new Date-r};var s=function(){r=new Date;n=window.setTimeout(function(){i=t;s();e()},i)};this.clear=function(){window.clearTimeout(n);i=t;n=window.setTimeout(function(){i=t;s();e()},i)};this.resume=s;this.resume()}function invoketimer(){timer=new RecurringTimer(function(){svg.setCurrentTime(0)},13700)}var svg=document.getElementById("kanjivg");var pause=document.getElementById("pause");var reset=document.getElementById("reset");var timer;invoketimer();reset.onclick=function(){svg.setCurrentTime(0);timer.clear();svg.unpauseAnimations();pause.innerHTML = "◼";};pause.onclick=function(){if(svg.animationsPaused()){svg.unpauseAnimations();timer.resume();pause.innerHTML="◼"}else{svg.pauseAnimations();timer.pause();pause.innerHTML="▶"}}]]></script></svg>