<svg id="kanjivg" width="106" height="126" xmlns="http://www.w3.org/2000/svg" xmlns:xlink="http://www.w3.org/1999/xlink" xml:space="preserve" version="1.1" baseProfile="full"><defs><style type="text/css"><![CDATA[path.black { fill:none;stroke:black;stroke-width:5;stroke-linecap:round;stroke-linejoin:round; }path.grey { fill:none;stroke:#ddd;stroke-width:5;stroke-linecap:round;stroke-linejoin:round; }path.stroke { fill:none;stroke:black;stroke-width:5;stroke-linecap:round;stroke-linejoin:round; }rect { fill:none;stroke:#555;stroke-width:2;} text{font-size:16px;font-family:Segoe UI Symbol,Cambria Math,DejaVu Sans,Symbola,Quivira,STIX,Code2000;-webkit-touch-callout:none;cursor:pointer;-webkit-user-select:none;-khtml-user-select:none;-moz-user-select:none;-ms-user-select:none;user-select: none;} #reset { font-weight:bold; }]]></style><marker id="markerStart" markerWidth="8" markerHeight="8" style="overflow:visible;"><circle cx="0" cy="0" r="1.5" style="stroke:none;fill:red;fill-opacity:0.5;"/></marker><marker id="markerEnd" style="overflow:visible;"><circle cx="0" cy="0" r="0.8" style="stroke:none;fill:blue;fill-opacity:0.5;"><animate attributeName="opacity" from="1" to="0" dur="3s" repeatCount="indefinite" /></circle></marker></defs><rect x="4" y="4" width="100" height="100" /><path d="M16.63,21.23c1.52,0.54,4.3,0.63,5.82,0.54c15.8-0.91,41.3-4.73,58.61-4.73c2.53,0,4.05,0.26,5.31,0.53" class="grey" /><path d="M34.99,35.57c0.77,0.29,3.27,0.08,4.05,0.02c8.51-0.69,24.93-3.08,33.64-3.38c1.19-0.04,2.26,0.06,3.25,0.3" class="grey" /><path d="M37.07,54.32c0.64,0.32,2.75,0.19,3.41,0.14c6.82-0.56,21.42-2.67,29.44-3.23c0.8-0.06,2.56-0.13,3.75,0.15" class="grey" /><path d="M30.5,73.58c0.63,0.18,3.89,0.59,4.94,0.5c14.83-1.25,28.35-2.78,44.2-3.21c1.7-0.05,3.75,0.29,4.6,0.57" class="grey" /><path d="M54.35,34.5c1.31,1.33,1.31,2.13,1.31,3.19c0,7.45-0.01,22.01-0.01,33.95" class="grey" /><path d="M22.5,23.25c0,4-0.5,61.5-0.5,65.25c0,3,0.99,3.63,2.75,3.5c10-0.75,57.25-4.25,60.5-4.25s6,0.25,8,0.75" class="grey" /><path d="M16.63,21.23c1.52,0.54,4.3,0.63,5.82,0.54c15.8-0.91,41.3-4.73,58.61-4.73c2.53,0,4.05,0.26,5.31,0.53" class="stroke" stroke-dasharray="150"><animate attributeName="stroke-dashoffset" from="150" to="0" dur="1.8s" begin="0s" fill="freeze" /></path><path d="M34.99,35.57c0.77,0.29,3.27,0.08,4.05,0.02c8.51-0.69,24.93-3.08,33.64-3.38c1.19-0.04,2.26,0.06,3.25,0.3" class="stroke" stroke-dasharray="150"><set attributeName="opacity" to="0" dur="1.7s" /><animate attributeName="stroke-dashoffset" from="150" to="0" dur="1.8s" begin="1.7s" fill="freeze" /></path><path d="M37.07,54.32c0.64,0.32,2.75,0.19,3.41,0.14c6.82-0.56,21.42-2.67,29.44-3.23c0.8-0.06,2.56-0.13,3.75,0.15" class="stroke" stroke-dasharray="150"><set attributeName="opacity" to="0" dur="2.8s" /><animate attributeName="stroke-dashoffset" from="150" to="0" dur="1.8s" begin="2.8s" fill="freeze" /></path><path d="M30.5,73.58c0.63,0.18,3.89,0.59,4.94,0.5c14.83-1.25,28.35-2.78,44.2-3.21c1.7-0.05,3.75,0.29,4.6,0.57" class="stroke" stroke-dasharray="150"><set attributeName="opacity" to="0" dur="3.8s" /><animate attributeName="stroke-dashoffset" from="150" to="0" dur="1.8s" begin="3.8s" fill="freeze" /></path><path d="M54.35,34.5c1.31,1.33,1.31,2.13,1.31,3.19c0,7.45-0.01,22.01-0.01,33.95" class="stroke" stroke-dasharray="150"><set attributeName="opacity" to="0" dur="5.1s" /><animate attributeName="stroke-dashoffset" from="150" to="0" dur="1.8s" begin="5.1s" fill="freeze" /></path><path d="M22.5,23.25c0,4-0.5,61.5-0.5,65.25c0,3,0.99,3.63,2.75,3.5c10-0.75,57.25-4.25,60.5-4.25s6,0.25,8,0.75" class="stroke" stroke-dasharray="150"><set attributeName="opacity" to="0" dur="6.1s" /><animate attributeName="stroke-dashoffset" from="150" to="0" dur="1.8s" begin="6.1s" fill="freeze" /></path><text x="90" y="120" id="reset">⟳</text><text x="70" y="120" id="pause">◼</text><script type="text/javascript"><![CDATA[function RecurringTimer(e,t){var n,r,i=t;this.pause=function(){window.clearTimeout(n);i-=new Date-r};var s=function(){r=new Date;n=window.setTimeout(function(){i=t;s();e()},i)};this.clear=function(){window.clearTimeout(n);i=t;n=window.setTimeout(function(){i=t;s();e()},i)};this.resume=s;this.resume()}function invoketimer(){timer=new RecurringTimer(function(){svg.setCurrentTime(0)},9100)}var svg=document.getElementById("kanjivg");var pause=document.getElementById("pause");var reset=document.getElementById("reset");var timer;invoketimer();reset.onclick=function(){svg.setCurrentTime(0);timer.clear();svg.unpauseAnimations();pause.innerHTML = "◼";};pause.onclick=function(){if(svg.animationsPaused()){svg.unpauseAnimations();timer.resume();pause.innerHTML="◼"}else{svg.pauseAnimations();timer.pause();pause.innerHTML="▶"}}]]></script></svg>