<svg id="kanjivg" width="106" height="126" xmlns="http://www.w3.org/2000/svg" xmlns:xlink="http://www.w3.org/1999/xlink" xml:space="preserve" version="1.1" baseProfile="full"><defs><style type="text/css"><![CDATA[path.black { fill:none;stroke:black;stroke-width:5;stroke-linecap:round;stroke-linejoin:round; }path.grey { fill:none;stroke:#ddd;stroke-width:5;stroke-linecap:round;stroke-linejoin:round; }path.stroke { fill:none;stroke:black;stroke-width:5;stroke-linecap:round;stroke-linejoin:round; }rect { fill:none;stroke:#555;stroke-width:2;} text{font-size:16px;font-family:Segoe UI Symbol,Cambria Math,DejaVu Sans,Symbola,Quivira,STIX,Code2000;-webkit-touch-callout:none;cursor:pointer;-webkit-user-select:none;-khtml-user-select:none;-moz-user-select:none;-ms-user-select:none;user-select: none;} #reset { font-weight:bold; }]]></style><marker id="markerStart" markerWidth="8" markerHeight="8" style="overflow:visible;"><circle cx="0" cy="0" r="1.5" style="stroke:none;fill:red;fill-opacity:0.5;"/></marker><marker id="markerEnd" style="overflow:visible;"><circle cx="0" cy="0" r="0.8" style="stroke:none;fill:blue;fill-opacity:0.5;"><animate attributeName="opacity" from="1" to="0" dur="3s" repeatCount="indefinite" /></circle></marker></defs><rect x="4" y="4" width="100" height="100" /><path d="M15.88,16.04c1.55,0.51,4.39,0.6,5.94,0.51c16.13-0.86,42.65-4.01,60.32-4.01c2.58,0,4.13,0.25,5.42,0.5" class="grey" /><path d="M31.2,28.84c0.33,0.55,0.88,1.75,1.04,2.43c1.65,6.91,3.35,18.81,4.21,29.07" class="grey" /><path d="M33.28,30.87c12.67-1.27,32.76-3.85,41.48-4.4c3.2-0.2,5.13,0.98,5.01,3.29c-0.27,5.5-2.92,24.02-4.19,27.41" class="grey" /><path d="M35.89,44.39c3.81-0.27,39.17-3.46,42.31-3.46" class="grey" /><path d="M37.57,58.74c11.03-1.25,26.09-2.44,38.15-2.97" class="grey" /><path d="M53.61,29.3c0.89,0.49,1.44,1.77,1.44,3.31c-0.03,7.82,0.3,49.06,0.3,51.61" class="grey" /><path d="M19.83,16.96c0,3.8,0,70.71,0,74.27c0,3.02,1.02,4.04,2.81,3.8c16.61-2.28,48.61-4.53,61.2-4.56c3.32-0.01,6.12,0.24,8.17,0.71" class="grey" /><path d="M15.88,16.04c1.55,0.51,4.39,0.6,5.94,0.51c16.13-0.86,42.65-4.01,60.32-4.01c2.58,0,4.13,0.25,5.42,0.5" class="stroke" stroke-dasharray="150"><animate attributeName="stroke-dashoffset" from="150" to="0" dur="1.8s" begin="0s" fill="freeze" /></path><path d="M31.2,28.84c0.33,0.55,0.88,1.75,1.04,2.43c1.65,6.91,3.35,18.81,4.21,29.07" class="stroke" stroke-dasharray="150"><set attributeName="opacity" to="0" dur="1.7s" /><animate attributeName="stroke-dashoffset" from="150" to="0" dur="1.8s" begin="1.7s" fill="freeze" /></path><path d="M33.28,30.87c12.67-1.27,32.76-3.85,41.48-4.4c3.2-0.2,5.13,0.98,5.01,3.29c-0.27,5.5-2.92,24.02-4.19,27.41" class="stroke" stroke-dasharray="150"><set attributeName="opacity" to="0" dur="2.7s" /><animate attributeName="stroke-dashoffset" from="150" to="0" dur="1.8s" begin="2.7s" fill="freeze" /></path><path d="M35.89,44.39c3.81-0.27,39.17-3.46,42.31-3.46" class="stroke" stroke-dasharray="150"><set attributeName="opacity" to="0" dur="4.4s" /><animate attributeName="stroke-dashoffset" from="150" to="0" dur="1.8s" begin="4.4s" fill="freeze" /></path><path d="M37.57,58.74c11.03-1.25,26.09-2.44,38.15-2.97" class="stroke" stroke-dasharray="150"><set attributeName="opacity" to="0" dur="5.5s" /><animate attributeName="stroke-dashoffset" from="150" to="0" dur="1.8s" begin="5.5s" fill="freeze" /></path><path d="M53.61,29.3c0.89,0.49,1.44,1.77,1.44,3.31c-0.03,7.82,0.3,49.06,0.3,51.61" class="stroke" stroke-dasharray="150"><set attributeName="opacity" to="0" dur="6.5s" /><animate attributeName="stroke-dashoffset" from="150" to="0" dur="1.8s" begin="6.5s" fill="freeze" /></path><path d="M19.83,16.96c0,3.8,0,70.71,0,74.27c0,3.02,1.02,4.04,2.81,3.8c16.61-2.28,48.61-4.53,61.2-4.56c3.32-0.01,6.12,0.24,8.17,0.71" class="stroke" stroke-dasharray="150"><set attributeName="opacity" to="0" dur="7.9s" /><animate attributeName="stroke-dashoffset" from="150" to="0" dur="1.8s" begin="7.9s" fill="freeze" /></path><text x="90" y="120" id="reset">⟳</text><text x="70" y="120" id="pause">◼</text><script type="text/javascript"><![CDATA[function RecurringTimer(e,t){var n,r,i=t;this.pause=function(){window.clearTimeout(n);i-=new Date-r};var s=function(){r=new Date;n=window.setTimeout(function(){i=t;s();e()},i)};this.clear=function(){window.clearTimeout(n);i=t;n=window.setTimeout(function(){i=t;s();e()},i)};this.resume=s;this.resume()}function invoketimer(){timer=new RecurringTimer(function(){svg.setCurrentTime(0)},10900)}var svg=document.getElementById("kanjivg");var pause=document.getElementById("pause");var reset=document.getElementById("reset");var timer;invoketimer();reset.onclick=function(){svg.setCurrentTime(0);timer.clear();svg.unpauseAnimations();pause.innerHTML = "◼";};pause.onclick=function(){if(svg.animationsPaused()){svg.unpauseAnimations();timer.resume();pause.innerHTML="◼"}else{svg.pauseAnimations();timer.pause();pause.innerHTML="▶"}}]]></script></svg>