<svg id="kanjivg" width="106" height="126" xmlns="http://www.w3.org/2000/svg" xmlns:xlink="http://www.w3.org/1999/xlink" xml:space="preserve" version="1.1" baseProfile="full"><defs><style type="text/css"><![CDATA[path.black { fill:none;stroke:black;stroke-width:5;stroke-linecap:round;stroke-linejoin:round; }path.grey { fill:none;stroke:#ddd;stroke-width:5;stroke-linecap:round;stroke-linejoin:round; }path.stroke { fill:none;stroke:black;stroke-width:5;stroke-linecap:round;stroke-linejoin:round; }rect { fill:none;stroke:#555;stroke-width:2;} text{font-size:16px;font-family:Segoe UI Symbol,Cambria Math,DejaVu Sans,Symbola,Quivira,STIX,Code2000;-webkit-touch-callout:none;cursor:pointer;-webkit-user-select:none;-khtml-user-select:none;-moz-user-select:none;-ms-user-select:none;user-select: none;} #reset { font-weight:bold; }]]></style><marker id="markerStart" markerWidth="8" markerHeight="8" style="overflow:visible;"><circle cx="0" cy="0" r="1.5" style="stroke:none;fill:red;fill-opacity:0.5;"/></marker><marker id="markerEnd" style="overflow:visible;"><circle cx="0" cy="0" r="0.8" style="stroke:none;fill:blue;fill-opacity:0.5;"><animate attributeName="opacity" from="1" to="0" dur="3s" repeatCount="indefinite" /></circle></marker></defs><rect x="4" y="4" width="100" height="100" /><path d="M21.38,20.98c3.62,0.77,7.34,0.7,10.75,0.52c14.34-0.78,33.9-1.95,48.74-2.67c3.23-0.16,6.58-0.19,9.75,0.49" class="grey" /><path d="M69.35,27c-0.35,0.88-1.02,1.63-1.69,2.18c-5,4.15-12.26,7.37-22.06,11.03" class="grey" /><path d="M42.32,38.23c0.85,0.85,1.01,2.82,1.04,4.26C43.75,63.5,41.5,73.5,33.22,81.31" class="grey" /><path d="M45.72,50.07c1.02,0,2.61-0.11,4.56-0.3c8.14-0.78,22.48-2.47,29.48-3.04c1.87-0.15,3.98-0.49,5.83-0.15" class="grey" /><path d="M65.07,51.33c0.86,0.86,1.14,2.3,1.14,3.68c0,0.54-0.04,12.85-0.05,22.12c0,1.77,0,3.43,0,4.88" class="grey" /><path d="M23.75,21.75c0.81,0.81,1.15,2.25,1.15,3.51c0,13.31-1.37,54.01-1.62,63.62c-0.07,2.85,0.33,4.92,3.71,4.38c11.81-1.89,39.12-4.5,57.62-4.13c3.4,0.07,6.58,0.56,9.88,1.38" class="grey" /><path d="M21.38,20.98c3.62,0.77,7.34,0.7,10.75,0.52c14.34-0.78,33.9-1.95,48.74-2.67c3.23-0.16,6.58-0.19,9.75,0.49" class="stroke" stroke-dasharray="150"><animate attributeName="stroke-dashoffset" from="150" to="0" dur="1.8s" begin="0s" fill="freeze" /></path><path d="M69.35,27c-0.35,0.88-1.02,1.63-1.69,2.18c-5,4.15-12.26,7.37-22.06,11.03" class="stroke" stroke-dasharray="150"><set attributeName="opacity" to="0" dur="1.5s" /><animate attributeName="stroke-dashoffset" from="150" to="0" dur="1.8s" begin="1.5s" fill="freeze" /></path><path d="M42.32,38.23c0.85,0.85,1.01,2.82,1.04,4.26C43.75,63.5,41.5,73.5,33.22,81.31" class="stroke" stroke-dasharray="150"><set attributeName="opacity" to="0" dur="2.5s" /><animate attributeName="stroke-dashoffset" from="150" to="0" dur="1.8s" begin="2.5s" fill="freeze" /></path><path d="M45.72,50.07c1.02,0,2.61-0.11,4.56-0.3c8.14-0.78,22.48-2.47,29.48-3.04c1.87-0.15,3.98-0.49,5.83-0.15" class="stroke" stroke-dasharray="150"><set attributeName="opacity" to="0" dur="3.7s" /><animate attributeName="stroke-dashoffset" from="150" to="0" dur="1.8s" begin="3.7s" fill="freeze" /></path><path d="M65.07,51.33c0.86,0.86,1.14,2.3,1.14,3.68c0,0.54-0.04,12.85-0.05,22.12c0,1.77,0,3.43,0,4.88" class="stroke" stroke-dasharray="150"><set attributeName="opacity" to="0" dur="4.800000000000001s" /><animate attributeName="stroke-dashoffset" from="150" to="0" dur="1.8s" begin="4.800000000000001s" fill="freeze" /></path><path d="M23.75,21.75c0.81,0.81,1.15,2.25,1.15,3.51c0,13.31-1.37,54.01-1.62,63.62c-0.07,2.85,0.33,4.92,3.71,4.38c11.81-1.89,39.12-4.5,57.62-4.13c3.4,0.07,6.58,0.56,9.88,1.38" class="stroke" stroke-dasharray="150"><set attributeName="opacity" to="0" dur="5.800000000000001s" /><animate attributeName="stroke-dashoffset" from="150" to="0" dur="1.8s" begin="5.800000000000001s" fill="freeze" /></path><text x="90" y="120" id="reset">⟳</text><text x="70" y="120" id="pause">◼</text><script type="text/javascript"><![CDATA[function RecurringTimer(e,t){var n,r,i=t;this.pause=function(){window.clearTimeout(n);i-=new Date-r};var s=function(){r=new Date;n=window.setTimeout(function(){i=t;s();e()},i)};this.clear=function(){window.clearTimeout(n);i=t;n=window.setTimeout(function(){i=t;s();e()},i)};this.resume=s;this.resume()}function invoketimer(){timer=new RecurringTimer(function(){svg.setCurrentTime(0)},8800)}var svg=document.getElementById("kanjivg");var pause=document.getElementById("pause");var reset=document.getElementById("reset");var timer;invoketimer();reset.onclick=function(){svg.setCurrentTime(0);timer.clear();svg.unpauseAnimations();pause.innerHTML = "◼";};pause.onclick=function(){if(svg.animationsPaused()){svg.unpauseAnimations();timer.resume();pause.innerHTML="◼"}else{svg.pauseAnimations();timer.pause();pause.innerHTML="▶"}}]]></script></svg>