<svg id="kanjivg" width="106" height="126" xmlns="http://www.w3.org/2000/svg" xmlns:xlink="http://www.w3.org/1999/xlink" xml:space="preserve" version="1.1" baseProfile="full"><defs><style type="text/css"><![CDATA[path.black { fill:none;stroke:black;stroke-width:5;stroke-linecap:round;stroke-linejoin:round; }path.grey { fill:none;stroke:#ddd;stroke-width:5;stroke-linecap:round;stroke-linejoin:round; }path.stroke { fill:none;stroke:black;stroke-width:5;stroke-linecap:round;stroke-linejoin:round; }rect { fill:none;stroke:#555;stroke-width:2;} text{font-size:16px;font-family:Segoe UI Symbol,Cambria Math,DejaVu Sans,Symbola,Quivira,STIX,Code2000;-webkit-touch-callout:none;cursor:pointer;-webkit-user-select:none;-khtml-user-select:none;-moz-user-select:none;-ms-user-select:none;user-select: none;} #reset { font-weight:bold; }]]></style><marker id="markerStart" markerWidth="8" markerHeight="8" style="overflow:visible;"><circle cx="0" cy="0" r="1.5" style="stroke:none;fill:red;fill-opacity:0.5;"/></marker><marker id="markerEnd" style="overflow:visible;"><circle cx="0" cy="0" r="0.8" style="stroke:none;fill:blue;fill-opacity:0.5;"><animate attributeName="opacity" from="1" to="0" dur="3s" repeatCount="indefinite" /></circle></marker></defs><rect x="4" y="4" width="100" height="100" /><path d="M16.63,21.23c3.09,1.1,7.07,0.6,10.26,0.24c15.24-1.72,33.69-3.46,48.86-4.06c3.7-0.15,7.48-0.12,11.13,0.66" class="grey" /><path d="M34.49,35.07c2.09,0.79,5,0.45,7.13,0.23c7.55-0.77,19.09-2.25,27.01-2.86c2.39-0.18,4.94-0.52,7.3,0.06" class="grey" /><path d="M54.35,35.75c1.31,1.33,1.31,2.5,1.31,4.19c0,7.45-0.01,19.01-0.01,30.95" class="grey" /><path d="M37.07,53.57c2.05,0.43,4.51,0.58,6.3,0.39c6.48-0.68,16.41-1.83,23.63-2.48c2.36-0.21,4.59-0.4,6.92,0.14" class="grey" /><path d="M31,73.33c2.76,0.78,5.71,0.77,8.5,0.44c12.75-1.52,23.21-2.5,36.13-3.01c2.98-0.12,5.75-0.24,8.62,0.69" class="grey" /><path d="M20.77,22.63c1.06,1.06,1.24,2.45,1.23,4.25C21.92,38.78,22.01,72.25,22.01,86c0,4.68,0.26,6.41,5.11,5.79C41,90,66.5,88.38,80.75,87.98c4.13-0.11,8.74-0.23,12.75,0.77" class="grey" /><path d="M16.63,21.23c3.09,1.1,7.07,0.6,10.26,0.24c15.24-1.72,33.69-3.46,48.86-4.06c3.7-0.15,7.48-0.12,11.13,0.66" class="stroke" stroke-dasharray="150"><animate attributeName="stroke-dashoffset" from="150" to="0" dur="1.8s" begin="0s" fill="freeze" /></path><path d="M34.49,35.07c2.09,0.79,5,0.45,7.13,0.23c7.55-0.77,19.09-2.25,27.01-2.86c2.39-0.18,4.94-0.52,7.3,0.06" class="stroke" stroke-dasharray="150"><set attributeName="opacity" to="0" dur="1.7s" /><animate attributeName="stroke-dashoffset" from="150" to="0" dur="1.8s" begin="1.7s" fill="freeze" /></path><path d="M54.35,35.75c1.31,1.33,1.31,2.5,1.31,4.19c0,7.45-0.01,19.01-0.01,30.95" class="stroke" stroke-dasharray="150"><set attributeName="opacity" to="0" dur="2.8s" /><animate attributeName="stroke-dashoffset" from="150" to="0" dur="1.8s" begin="2.8s" fill="freeze" /></path><path d="M37.07,53.57c2.05,0.43,4.51,0.58,6.3,0.39c6.48-0.68,16.41-1.83,23.63-2.48c2.36-0.21,4.59-0.4,6.92,0.14" class="stroke" stroke-dasharray="150"><set attributeName="opacity" to="0" dur="3.8s" /><animate attributeName="stroke-dashoffset" from="150" to="0" dur="1.8s" begin="3.8s" fill="freeze" /></path><path d="M31,73.33c2.76,0.78,5.71,0.77,8.5,0.44c12.75-1.52,23.21-2.5,36.13-3.01c2.98-0.12,5.75-0.24,8.62,0.69" class="stroke" stroke-dasharray="150"><set attributeName="opacity" to="0" dur="4.8s" /><animate attributeName="stroke-dashoffset" from="150" to="0" dur="1.8s" begin="4.8s" fill="freeze" /></path><path d="M20.77,22.63c1.06,1.06,1.24,2.45,1.23,4.25C21.92,38.78,22.01,72.25,22.01,86c0,4.68,0.26,6.41,5.11,5.79C41,90,66.5,88.38,80.75,87.98c4.13-0.11,8.74-0.23,12.75,0.77" class="stroke" stroke-dasharray="150"><set attributeName="opacity" to="0" dur="6.1s" /><animate attributeName="stroke-dashoffset" from="150" to="0" dur="1.8s" begin="6.1s" fill="freeze" /></path><text x="90" y="120" id="reset">⟳</text><text x="70" y="120" id="pause">◼</text><script type="text/javascript"><![CDATA[function RecurringTimer(e,t){var n,r,i=t;this.pause=function(){window.clearTimeout(n);i-=new Date-r};var s=function(){r=new Date;n=window.setTimeout(function(){i=t;s();e()},i)};this.clear=function(){window.clearTimeout(n);i=t;n=window.setTimeout(function(){i=t;s();e()},i)};this.resume=s;this.resume()}function invoketimer(){timer=new RecurringTimer(function(){svg.setCurrentTime(0)},9100)}var svg=document.getElementById("kanjivg");var pause=document.getElementById("pause");var reset=document.getElementById("reset");var timer;invoketimer();reset.onclick=function(){svg.setCurrentTime(0);timer.clear();svg.unpauseAnimations();pause.innerHTML = "◼";};pause.onclick=function(){if(svg.animationsPaused()){svg.unpauseAnimations();timer.resume();pause.innerHTML="◼"}else{svg.pauseAnimations();timer.pause();pause.innerHTML="▶"}}]]></script></svg>