<svg id="kanjivg" width="106" height="126" xmlns="http://www.w3.org/2000/svg" xmlns:xlink="http://www.w3.org/1999/xlink" xml:space="preserve" version="1.1" baseProfile="full"><defs><style type="text/css"><![CDATA[path.black { fill:none;stroke:black;stroke-width:5;stroke-linecap:round;stroke-linejoin:round; }path.grey { fill:none;stroke:#ddd;stroke-width:5;stroke-linecap:round;stroke-linejoin:round; }path.stroke { fill:none;stroke:black;stroke-width:5;stroke-linecap:round;stroke-linejoin:round; }rect { fill:none;stroke:#555;stroke-width:2;} text{font-size:16px;font-family:Segoe UI Symbol,Cambria Math,DejaVu Sans,Symbola,Quivira,STIX,Code2000;-webkit-touch-callout:none;cursor:pointer;-webkit-user-select:none;-khtml-user-select:none;-moz-user-select:none;-ms-user-select:none;user-select: none;} #reset { font-weight:bold; }]]></style><marker id="markerStart" markerWidth="8" markerHeight="8" style="overflow:visible;"><circle cx="0" cy="0" r="1.5" style="stroke:none;fill:red;fill-opacity:0.5;"/></marker><marker id="markerEnd" style="overflow:visible;"><circle cx="0" cy="0" r="0.8" style="stroke:none;fill:blue;fill-opacity:0.5;"><animate attributeName="opacity" from="1" to="0" dur="3s" repeatCount="indefinite" /></circle></marker></defs><rect x="4" y="4" width="100" height="100" /><path d="M16.88,16.54c1.55,0.51,4.39,0.6,5.94,0.51c16.13-0.86,42.15-4.51,59.82-4.51c2.58,0,4.13,0.25,5.42,0.5" class="grey" /><path d="M35.76,25.2c0.34,0.14,1.01,0.44,1.12,0.77c0.77,2.38,1.7,6.09,2.78,10.59" class="grey" /><path d="M37.67,26.32c8.65-0.48,27.5-3.63,33.75-3.98C73,22.25,74,23.5,73.4,25.16s-1.4,3.09-2.38,6.57" class="grey" /><path d="M40.13,34.63c6.96-0.48,23.27-2.55,33.01-2.99" class="grey" /><path d="M52.54,18.25c0.97,0.43,1.74,1.9,1.74,2.78c0,8.15,0,14.57-0.19,19.92" class="grey" /><path d="M26.87,43.35c1.17,0.46,3.33,0.6,4.5,0.46c9.99-1.25,37.97-3.91,52.41-4.32c1.95-0.06,3.13,0.22,4.11,0.45" class="grey" /><path d="M38.67,49.98c0.54,0.66,0.93,2.47,0.93,3.35c0,0.88,0.05,24.66,0.05,25.1" class="grey" /><path d="M40.1,51.57c5.56-0.98,27.02-3.27,29.83-3.41c2.34-0.11,3.68,0.51,3.17,2.75c-0.58,2.53-0.68,25.11-0.68,25.77" class="grey" /><path d="M39.87,59.5c5.61-0.64,27.66-2.61,32.61-2.61" class="grey" /><path d="M40.12,67.16c6.13,0,24.05-2.2,31.99-2.2" class="grey" /><path d="M39.85,76.19c6.13,0,24.62-2.2,32.56-2.2" class="grey" /><path d="M45.91,81.32c0.4,0.9-0.2,1.64-1,2.29c-2.41,1.97-7.84,6.81-12.66,9.14" class="grey" /><path d="M62.46,79.9c6.06,2.54,13.22,7.13,14.88,9.35" class="grey" /><path d="M20.33,18.46c0,3.8-0.5,72.21-0.5,75.77c0,3.02,1.01,3.92,2.81,3.8c10.21-0.71,56.88-3.56,60.2-3.56c3.32,0,6.12,0.24,8.17,0.71" class="grey" /><path d="M16.88,16.54c1.55,0.51,4.39,0.6,5.94,0.51c16.13-0.86,42.15-4.51,59.82-4.51c2.58,0,4.13,0.25,5.42,0.5" class="stroke" stroke-dasharray="150"><animate attributeName="stroke-dashoffset" from="150" to="0" dur="1.8s" begin="0s" fill="freeze" /></path><path d="M35.76,25.2c0.34,0.14,1.01,0.44,1.12,0.77c0.77,2.38,1.7,6.09,2.78,10.59" class="stroke" stroke-dasharray="150"><set attributeName="opacity" to="0" dur="1.7s" /><animate attributeName="stroke-dashoffset" from="150" to="0" dur="1.8s" begin="1.7s" fill="freeze" /></path><path d="M37.67,26.32c8.65-0.48,27.5-3.63,33.75-3.98C73,22.25,74,23.5,73.4,25.16s-1.4,3.09-2.38,6.57" class="stroke" stroke-dasharray="150"><set attributeName="opacity" to="0" dur="2.6s" /><animate attributeName="stroke-dashoffset" from="150" to="0" dur="1.8s" begin="2.6s" fill="freeze" /></path><path d="M40.13,34.63c6.96-0.48,23.27-2.55,33.01-2.99" class="stroke" stroke-dasharray="150"><set attributeName="opacity" to="0" dur="3.8s" /><animate attributeName="stroke-dashoffset" from="150" to="0" dur="1.8s" begin="3.8s" fill="freeze" /></path><path d="M52.54,18.25c0.97,0.43,1.74,1.9,1.74,2.78c0,8.15,0,14.57-0.19,19.92" class="stroke" stroke-dasharray="150"><set attributeName="opacity" to="0" dur="4.8s" /><animate attributeName="stroke-dashoffset" from="150" to="0" dur="1.8s" begin="4.8s" fill="freeze" /></path><path d="M26.87,43.35c1.17,0.46,3.33,0.6,4.5,0.46c9.99-1.25,37.97-3.91,52.41-4.32c1.95-0.06,3.13,0.22,4.11,0.45" class="stroke" stroke-dasharray="150"><set attributeName="opacity" to="0" dur="5.8s" /><animate attributeName="stroke-dashoffset" from="150" to="0" dur="1.8s" begin="5.8s" fill="freeze" /></path><path d="M38.67,49.98c0.54,0.66,0.93,2.47,0.93,3.35c0,0.88,0.05,24.66,0.05,25.1" class="stroke" stroke-dasharray="150"><set attributeName="opacity" to="0" dur="7.3s" /><animate attributeName="stroke-dashoffset" from="150" to="0" dur="1.8s" begin="7.3s" fill="freeze" /></path><path d="M40.1,51.57c5.56-0.98,27.02-3.27,29.83-3.41c2.34-0.11,3.68,0.51,3.17,2.75c-0.58,2.53-0.68,25.11-0.68,25.77" class="stroke" stroke-dasharray="150"><set attributeName="opacity" to="0" dur="8.3s" /><animate attributeName="stroke-dashoffset" from="150" to="0" dur="1.8s" begin="8.3s" fill="freeze" /></path><path d="M39.87,59.5c5.61-0.64,27.66-2.61,32.61-2.61" class="stroke" stroke-dasharray="150"><set attributeName="opacity" to="0" dur="9.8s" /><animate attributeName="stroke-dashoffset" from="150" to="0" dur="1.8s" begin="9.8s" fill="freeze" /></path><path d="M40.12,67.16c6.13,0,24.05-2.2,31.99-2.2" class="stroke" stroke-dasharray="150"><set attributeName="opacity" to="0" dur="10.8s" /><animate attributeName="stroke-dashoffset" from="150" to="0" dur="1.8s" begin="10.8s" fill="freeze" /></path><path d="M39.85,76.19c6.13,0,24.62-2.2,32.56-2.2" class="stroke" stroke-dasharray="150"><set attributeName="opacity" to="0" dur="11.8s" /><animate attributeName="stroke-dashoffset" from="150" to="0" dur="1.8s" begin="11.8s" fill="freeze" /></path><path d="M45.91,81.32c0.4,0.9-0.2,1.64-1,2.29c-2.41,1.97-7.84,6.81-12.66,9.14" class="stroke" stroke-dasharray="150"><set attributeName="opacity" to="0" dur="12.8s" /><animate attributeName="stroke-dashoffset" from="150" to="0" dur="1.8s" begin="12.8s" fill="freeze" /></path><path d="M62.46,79.9c6.06,2.54,13.22,7.13,14.88,9.35" class="stroke" stroke-dasharray="150"><set attributeName="opacity" to="0" dur="13.700000000000001s" /><animate attributeName="stroke-dashoffset" from="150" to="0" dur="1.8s" begin="13.700000000000001s" fill="freeze" /></path><path d="M20.33,18.46c0,3.8-0.5,72.21-0.5,75.77c0,3.02,1.01,3.92,2.81,3.8c10.21-0.71,56.88-3.56,60.2-3.56c3.32,0,6.12,0.24,8.17,0.71" class="stroke" stroke-dasharray="150"><set attributeName="opacity" to="0" dur="14.600000000000001s" /><animate attributeName="stroke-dashoffset" from="150" to="0" dur="1.8s" begin="14.600000000000001s" fill="freeze" /></path><text x="90" y="120" id="reset">⟳</text><text x="70" y="120" id="pause">◼</text><script type="text/javascript"><![CDATA[function RecurringTimer(e,t){var n,r,i=t;this.pause=function(){window.clearTimeout(n);i-=new Date-r};var s=function(){r=new Date;n=window.setTimeout(function(){i=t;s();e()},i)};this.clear=function(){window.clearTimeout(n);i=t;n=window.setTimeout(function(){i=t;s();e()},i)};this.resume=s;this.resume()}function invoketimer(){timer=new RecurringTimer(function(){svg.setCurrentTime(0)},17600)}var svg=document.getElementById("kanjivg");var pause=document.getElementById("pause");var reset=document.getElementById("reset");var timer;invoketimer();reset.onclick=function(){svg.setCurrentTime(0);timer.clear();svg.unpauseAnimations();pause.innerHTML = "◼";};pause.onclick=function(){if(svg.animationsPaused()){svg.unpauseAnimations();timer.resume();pause.innerHTML="◼"}else{svg.pauseAnimations();timer.pause();pause.innerHTML="▶"}}]]></script></svg>