<svg id="kanjivg" width="106" height="126" xmlns="http://www.w3.org/2000/svg" xmlns:xlink="http://www.w3.org/1999/xlink" xml:space="preserve" version="1.1" baseProfile="full"><defs><style type="text/css"><![CDATA[path.black { fill:none;stroke:black;stroke-width:5;stroke-linecap:round;stroke-linejoin:round; }path.grey { fill:none;stroke:#ddd;stroke-width:5;stroke-linecap:round;stroke-linejoin:round; }path.stroke { fill:none;stroke:black;stroke-width:5;stroke-linecap:round;stroke-linejoin:round; }rect { fill:none;stroke:#555;stroke-width:2;} text{font-size:16px;font-family:Segoe UI Symbol,Cambria Math,DejaVu Sans,Symbola,Quivira,STIX,Code2000;-webkit-touch-callout:none;cursor:pointer;-webkit-user-select:none;-khtml-user-select:none;-moz-user-select:none;-ms-user-select:none;user-select: none;} #reset { font-weight:bold; }]]></style><marker id="markerStart" markerWidth="8" markerHeight="8" style="overflow:visible;"><circle cx="0" cy="0" r="1.5" style="stroke:none;fill:red;fill-opacity:0.5;"/></marker><marker id="markerEnd" style="overflow:visible;"><circle cx="0" cy="0" r="0.8" style="stroke:none;fill:blue;fill-opacity:0.5;"><animate attributeName="opacity" from="1" to="0" dur="3s" repeatCount="indefinite" /></circle></marker></defs><rect x="4" y="4" width="100" height="100" /><path d="M17.38,23.09c3.05,0.97,6.26,0.86,9.38,0.52c15.15-1.67,35.99-4.36,52.87-4.98c3.6-0.13,6.71-0.04,10.25,0.64" class="grey" /><path d="M45.27,29.25c1.05,1.05,1.42,2.46,1.42,3.98c0,13.02-3.31,32.27-15.19,41.02" class="grey" /><path d="M64.99,27.37c1.2,1.2,1.38,2.59,1.38,4.43c0,8.45-0.1,17.83-0.1,27.95c0,8.12,0.98,9.53,10.58,9.53c8.9,0,10.9-1.03,12.15-2.37" class="grey" /><path d="M21.75,24.9c0.5,0.85,1,2.22,1,4.1c0,12.97-1.5,52.62-1.5,57.48c0,2.38,0.94,3.79,3.37,3.51C38.05,88.42,70.5,85.75,86,85.95c3.25,0.04,6,0.22,8,0.67" class="grey" /><path d="M17.38,23.09c3.05,0.97,6.26,0.86,9.38,0.52c15.15-1.67,35.99-4.36,52.87-4.98c3.6-0.13,6.71-0.04,10.25,0.64" class="stroke" stroke-dasharray="150"><animate attributeName="stroke-dashoffset" from="150" to="0" dur="1.8s" begin="0s" fill="freeze" /></path><path d="M45.27,29.25c1.05,1.05,1.42,2.46,1.42,3.98c0,13.02-3.31,32.27-15.19,41.02" class="stroke" stroke-dasharray="150"><set attributeName="opacity" to="0" dur="1.7s" /><animate attributeName="stroke-dashoffset" from="150" to="0" dur="1.8s" begin="1.7s" fill="freeze" /></path><path d="M64.99,27.37c1.2,1.2,1.38,2.59,1.38,4.43c0,8.45-0.1,17.83-0.1,27.95c0,8.12,0.98,9.53,10.58,9.53c8.9,0,10.9-1.03,12.15-2.37" class="stroke" stroke-dasharray="150"><set attributeName="opacity" to="0" dur="2.9s" /><animate attributeName="stroke-dashoffset" from="150" to="0" dur="1.8s" begin="2.9s" fill="freeze" /></path><path d="M21.75,24.9c0.5,0.85,1,2.22,1,4.1c0,12.97-1.5,52.62-1.5,57.48c0,2.38,0.94,3.79,3.37,3.51C38.05,88.42,70.5,85.75,86,85.95c3.25,0.04,6,0.22,8,0.67" class="stroke" stroke-dasharray="150"><set attributeName="opacity" to="0" dur="4.4s" /><animate attributeName="stroke-dashoffset" from="150" to="0" dur="1.8s" begin="4.4s" fill="freeze" /></path><text x="90" y="120" id="reset">⟳</text><text x="70" y="120" id="pause">◼</text><script type="text/javascript"><![CDATA[function RecurringTimer(e,t){var n,r,i=t;this.pause=function(){window.clearTimeout(n);i-=new Date-r};var s=function(){r=new Date;n=window.setTimeout(function(){i=t;s();e()},i)};this.clear=function(){window.clearTimeout(n);i=t;n=window.setTimeout(function(){i=t;s();e()},i)};this.resume=s;this.resume()}function invoketimer(){timer=new RecurringTimer(function(){svg.setCurrentTime(0)},7400)}var svg=document.getElementById("kanjivg");var pause=document.getElementById("pause");var reset=document.getElementById("reset");var timer;invoketimer();reset.onclick=function(){svg.setCurrentTime(0);timer.clear();svg.unpauseAnimations();pause.innerHTML = "◼";};pause.onclick=function(){if(svg.animationsPaused()){svg.unpauseAnimations();timer.resume();pause.innerHTML="◼"}else{svg.pauseAnimations();timer.pause();pause.innerHTML="▶"}}]]></script></svg>