<svg id="kanjivg" width="106" height="126" xmlns="http://www.w3.org/2000/svg" xmlns:xlink="http://www.w3.org/1999/xlink" xml:space="preserve" version="1.1" baseProfile="full"><defs><style type="text/css"><![CDATA[path.black { fill:none;stroke:black;stroke-width:5;stroke-linecap:round;stroke-linejoin:round; }path.grey { fill:none;stroke:#ddd;stroke-width:5;stroke-linecap:round;stroke-linejoin:round; }path.stroke { fill:none;stroke:black;stroke-width:5;stroke-linecap:round;stroke-linejoin:round; }rect { fill:none;stroke:#555;stroke-width:2;} text{font-size:16px;font-family:Segoe UI Symbol,Cambria Math,DejaVu Sans,Symbola,Quivira,STIX,Code2000;-webkit-touch-callout:none;cursor:pointer;-webkit-user-select:none;-khtml-user-select:none;-moz-user-select:none;-ms-user-select:none;user-select: none;} #reset { font-weight:bold; }]]></style><marker id="markerStart" markerWidth="8" markerHeight="8" style="overflow:visible;"><circle cx="0" cy="0" r="1.5" style="stroke:none;fill:red;fill-opacity:0.5;"/></marker><marker id="markerEnd" style="overflow:visible;"><circle cx="0" cy="0" r="0.8" style="stroke:none;fill:blue;fill-opacity:0.5;"><animate attributeName="opacity" from="1" to="0" dur="3s" repeatCount="indefinite" /></circle></marker></defs><rect x="4" y="4" width="100" height="100" /><path d="M17.38,16.04c1.55,0.51,4.39,0.6,5.94,0.51c16.13-0.86,42.15-3.51,59.82-3.51c2.58,0,4.13,0.25,5.42,0.5" class="grey" /><path d="M53.03,21.25c0.07,0.73,0.31,1.95-0.14,2.93C50.01,30.39,41.85,43.44,28.2,52.2" class="grey" /><path d="M54.2,24.16c4,4.03,21.26,17.2,25.67,20.15c1.5,1,3.42,1.43,4.92,1.72" class="grey" /><path d="M42.32,45.35c0.48,0.18,1.36,0.18,1.84,0.18c3.68-0.05,19.04-2.45,21.99-2.25c0.8,0.05,1.28,0.08,1.68,0.17" class="grey" /><path d="M34.36,55.08c0.26,0.23,0.53,0.42,0.65,0.71c0.91,2.29,2.41,8.6,3.03,12.7" class="grey" /><path d="M35.6,56.29c6.66-1.04,12.83-2.17,15.92-2.47c1.13-0.11,1.8,0.65,1.64,1.3c-0.67,2.67-1.45,6.08-2.44,9.77" class="grey" /><path d="M38.17,67.17c3.62-0.34,9.52-1.42,14.48-1.95" class="grey" /><path d="M59.84,51.98c0.25,0.25,0.51,0.46,0.63,0.78c0.88,2.51,1.94,9.43,2.54,13.94" class="grey" /><path d="M61.42,53.28c5.31-0.96,13.03-2.03,16.01-2.36c1.09-0.12,1.74,0.71,1.59,1.42c-0.63,2.87-2.37,6.74-3.36,10.94" class="grey" /><path d="M63.13,64.73c3.5-0.37,9.82-1.02,14.62-1.59" class="grey" /><path d="M45.73,68.78c0.16,0.87,0.1,1.71-0.12,2.27C43.67,76,39.23,82.54,31.27,88.5" class="grey" /><path d="M44.32,76.33c3.42,1.25,7.79,4.56,9.45,7.7" class="grey" /><path d="M70.2,67.25c0.15,0.91,0.19,1.82-0.11,2.36C67.25,74.75,63,81.5,56.99,87.75" class="grey" /><path d="M67.95,75.57c5.1,1.8,11.63,6.59,14.11,11.12" class="grey" /><path d="M20.83,16.96c0,3.8-0.5,71.71-0.5,75.27c0,3.02,1.01,3.92,2.81,3.8c10.21-0.71,58.38-3.06,61.7-3.06c3.32,0,6.12,0.24,8.17,0.71" class="grey" /><path d="M17.38,16.04c1.55,0.51,4.39,0.6,5.94,0.51c16.13-0.86,42.15-3.51,59.82-3.51c2.58,0,4.13,0.25,5.42,0.5" class="stroke" stroke-dasharray="150"><animate attributeName="stroke-dashoffset" from="150" to="0" dur="1.8s" begin="0s" fill="freeze" /></path><path d="M53.03,21.25c0.07,0.73,0.31,1.95-0.14,2.93C50.01,30.39,41.85,43.44,28.2,52.2" class="stroke" stroke-dasharray="150"><set attributeName="opacity" to="0" dur="1.7s" /><animate attributeName="stroke-dashoffset" from="150" to="0" dur="1.8s" begin="1.7s" fill="freeze" /></path><path d="M54.2,24.16c4,4.03,21.26,17.2,25.67,20.15c1.5,1,3.42,1.43,4.92,1.72" class="stroke" stroke-dasharray="150"><set attributeName="opacity" to="0" dur="2.8s" /><animate attributeName="stroke-dashoffset" from="150" to="0" dur="1.8s" begin="2.8s" fill="freeze" /></path><path d="M42.32,45.35c0.48,0.18,1.36,0.18,1.84,0.18c3.68-0.05,19.04-2.45,21.99-2.25c0.8,0.05,1.28,0.08,1.68,0.17" class="stroke" stroke-dasharray="150"><set attributeName="opacity" to="0" dur="3.8s" /><animate attributeName="stroke-dashoffset" from="150" to="0" dur="1.8s" begin="3.8s" fill="freeze" /></path><path d="M34.36,55.08c0.26,0.23,0.53,0.42,0.65,0.71c0.91,2.29,2.41,8.6,3.03,12.7" class="stroke" stroke-dasharray="150"><set attributeName="opacity" to="0" dur="4.8s" /><animate attributeName="stroke-dashoffset" from="150" to="0" dur="1.8s" begin="4.8s" fill="freeze" /></path><path d="M35.6,56.29c6.66-1.04,12.83-2.17,15.92-2.47c1.13-0.11,1.8,0.65,1.64,1.3c-0.67,2.67-1.45,6.08-2.44,9.77" class="stroke" stroke-dasharray="150"><set attributeName="opacity" to="0" dur="5.7s" /><animate attributeName="stroke-dashoffset" from="150" to="0" dur="1.8s" begin="5.7s" fill="freeze" /></path><path d="M38.17,67.17c3.62-0.34,9.52-1.42,14.48-1.95" class="stroke" stroke-dasharray="150"><set attributeName="opacity" to="0" dur="6.7s" /><animate attributeName="stroke-dashoffset" from="150" to="0" dur="1.8s" begin="6.7s" fill="freeze" /></path><path d="M59.84,51.98c0.25,0.25,0.51,0.46,0.63,0.78c0.88,2.51,1.94,9.43,2.54,13.94" class="stroke" stroke-dasharray="150"><set attributeName="opacity" to="0" dur="7.6000000000000005s" /><animate attributeName="stroke-dashoffset" from="150" to="0" dur="1.8s" begin="7.6000000000000005s" fill="freeze" /></path><path d="M61.42,53.28c5.31-0.96,13.03-2.03,16.01-2.36c1.09-0.12,1.74,0.71,1.59,1.42c-0.63,2.87-2.37,6.74-3.36,10.94" class="stroke" stroke-dasharray="150"><set attributeName="opacity" to="0" dur="8.5s" /><animate attributeName="stroke-dashoffset" from="150" to="0" dur="1.8s" begin="8.5s" fill="freeze" /></path><path d="M63.13,64.73c3.5-0.37,9.82-1.02,14.62-1.59" class="stroke" stroke-dasharray="150"><set attributeName="opacity" to="0" dur="9.5s" /><animate attributeName="stroke-dashoffset" from="150" to="0" dur="1.8s" begin="9.5s" fill="freeze" /></path><path d="M45.73,68.78c0.16,0.87,0.1,1.71-0.12,2.27C43.67,76,39.23,82.54,31.27,88.5" class="stroke" stroke-dasharray="150"><set attributeName="opacity" to="0" dur="10.4s" /><animate attributeName="stroke-dashoffset" from="150" to="0" dur="1.8s" begin="10.4s" fill="freeze" /></path><path d="M44.32,76.33c3.42,1.25,7.79,4.56,9.45,7.7" class="stroke" stroke-dasharray="150"><set attributeName="opacity" to="0" dur="11.4s" /><animate attributeName="stroke-dashoffset" from="150" to="0" dur="1.8s" begin="11.4s" fill="freeze" /></path><path d="M70.2,67.25c0.15,0.91,0.19,1.82-0.11,2.36C67.25,74.75,63,81.5,56.99,87.75" class="stroke" stroke-dasharray="150"><set attributeName="opacity" to="0" dur="12.3s" /><animate attributeName="stroke-dashoffset" from="150" to="0" dur="1.8s" begin="12.3s" fill="freeze" /></path><path d="M67.95,75.57c5.1,1.8,11.63,6.59,14.11,11.12" class="stroke" stroke-dasharray="150"><set attributeName="opacity" to="0" dur="13.3s" /><animate attributeName="stroke-dashoffset" from="150" to="0" dur="1.8s" begin="13.3s" fill="freeze" /></path><path d="M20.83,16.96c0,3.8-0.5,71.71-0.5,75.27c0,3.02,1.01,3.92,2.81,3.8c10.21-0.71,58.38-3.06,61.7-3.06c3.32,0,6.12,0.24,8.17,0.71" class="stroke" stroke-dasharray="200"><set attributeName="opacity" to="0" dur="14.200000000000001s" /><animate attributeName="stroke-dashoffset" from="200" to="0" dur="1.8s" begin="14.200000000000001s" fill="freeze" /></path><text x="90" y="120" id="reset">⟳</text><text x="70" y="120" id="pause">◼</text><script type="text/javascript"><![CDATA[function RecurringTimer(e,t){var n,r,i=t;this.pause=function(){window.clearTimeout(n);i-=new Date-r};var s=function(){r=new Date;n=window.setTimeout(function(){i=t;s();e()},i)};this.clear=function(){window.clearTimeout(n);i=t;n=window.setTimeout(function(){i=t;s();e()},i)};this.resume=s;this.resume()}function invoketimer(){timer=new RecurringTimer(function(){svg.setCurrentTime(0)},17200)}var svg=document.getElementById("kanjivg");var pause=document.getElementById("pause");var reset=document.getElementById("reset");var timer;invoketimer();reset.onclick=function(){svg.setCurrentTime(0);timer.clear();svg.unpauseAnimations();pause.innerHTML = "◼";};pause.onclick=function(){if(svg.animationsPaused()){svg.unpauseAnimations();timer.resume();pause.innerHTML="◼"}else{svg.pauseAnimations();timer.pause();pause.innerHTML="▶"}}]]></script></svg>