<svg id="kanjivg" width="106" height="126" xmlns="http://www.w3.org/2000/svg" xmlns:xlink="http://www.w3.org/1999/xlink" xml:space="preserve" version="1.1" baseProfile="full"><defs><style type="text/css"><![CDATA[path.black { fill:none;stroke:black;stroke-width:5;stroke-linecap:round;stroke-linejoin:round; }path.grey { fill:none;stroke:#ddd;stroke-width:5;stroke-linecap:round;stroke-linejoin:round; }path.stroke { fill:none;stroke:black;stroke-width:5;stroke-linecap:round;stroke-linejoin:round; }rect { fill:none;stroke:#555;stroke-width:2;} text{font-size:16px;font-family:Segoe UI Symbol,Cambria Math,DejaVu Sans,Symbola,Quivira,STIX,Code2000;-webkit-touch-callout:none;cursor:pointer;-webkit-user-select:none;-khtml-user-select:none;-moz-user-select:none;-ms-user-select:none;user-select: none;} #reset { font-weight:bold; }]]></style><marker id="markerStart" markerWidth="8" markerHeight="8" style="overflow:visible;"><circle cx="0" cy="0" r="1.5" style="stroke:none;fill:red;fill-opacity:0.5;"/></marker><marker id="markerEnd" style="overflow:visible;"><circle cx="0" cy="0" r="0.8" style="stroke:none;fill:blue;fill-opacity:0.5;"><animate attributeName="opacity" from="1" to="0" dur="3s" repeatCount="indefinite" /></circle></marker></defs><rect x="4" y="4" width="100" height="100" /><path d="M13.75,50.7c1.56,0.54,4.41,0.69,5.96,0.54c10.17-0.99,55.54-5.74,71.84-6.23c2.59-0.08,4.15,0.26,5.45,0.53" class="grey" /><path d="M34.4,20.93c0.84,1.82,1,4.45,1,6.37c0,43.96,0.09,53.46-15.91,65.71" class="grey" /><path d="M53.25,17.63c0.43,0.36,1.33,2.69,1.41,3.4c0.09,0.72-0.05,67.36-0.14,71.85" class="grey" /><path d="M73.31,15.63c0.76,0.45,2.01,2.12,2.01,4.25c0,0.91-0.1,69.65-0.25,75.25" class="grey" /><path d="M13.75,50.7c1.56,0.54,4.41,0.69,5.96,0.54c10.17-0.99,55.54-5.74,71.84-6.23c2.59-0.08,4.15,0.26,5.45,0.53" class="stroke" stroke-dasharray="150"><animate attributeName="stroke-dashoffset" from="150" to="0" dur="1.8s" begin="0s" fill="freeze" /></path><path d="M34.4,20.93c0.84,1.82,1,4.45,1,6.37c0,43.96,0.09,53.46-15.91,65.71" class="stroke" stroke-dasharray="150"><set attributeName="opacity" to="0" dur="1.7s" /><animate attributeName="stroke-dashoffset" from="150" to="0" dur="1.8s" begin="1.7s" fill="freeze" /></path><path d="M53.25,17.63c0.43,0.36,1.33,2.69,1.41,3.4c0.09,0.72-0.05,67.36-0.14,71.85" class="stroke" stroke-dasharray="150"><set attributeName="opacity" to="0" dur="3.4s" /><animate attributeName="stroke-dashoffset" from="150" to="0" dur="1.8s" begin="3.4s" fill="freeze" /></path><path d="M73.31,15.63c0.76,0.45,2.01,2.12,2.01,4.25c0,0.91-0.1,69.65-0.25,75.25" class="stroke" stroke-dasharray="150"><set attributeName="opacity" to="0" dur="5.1s" /><animate attributeName="stroke-dashoffset" from="150" to="0" dur="1.8s" begin="5.1s" fill="freeze" /></path><text x="90" y="120" id="reset">⟳</text><text x="70" y="120" id="pause">◼</text><script type="text/javascript"><![CDATA[function RecurringTimer(e,t){var n,r,i=t;this.pause=function(){window.clearTimeout(n);i-=new Date-r};var s=function(){r=new Date;n=window.setTimeout(function(){i=t;s();e()},i)};this.clear=function(){window.clearTimeout(n);i=t;n=window.setTimeout(function(){i=t;s();e()},i)};this.resume=s;this.resume()}function invoketimer(){timer=new RecurringTimer(function(){svg.setCurrentTime(0)},7800)}var svg=document.getElementById("kanjivg");var pause=document.getElementById("pause");var reset=document.getElementById("reset");var timer;invoketimer();reset.onclick=function(){svg.setCurrentTime(0);timer.clear();svg.unpauseAnimations();pause.innerHTML = "◼";};pause.onclick=function(){if(svg.animationsPaused()){svg.unpauseAnimations();timer.resume();pause.innerHTML="◼"}else{svg.pauseAnimations();timer.pause();pause.innerHTML="▶"}}]]></script></svg>