<svg id="kanjivg" width="106" height="126" xmlns="http://www.w3.org/2000/svg" xmlns:xlink="http://www.w3.org/1999/xlink" xml:space="preserve" version="1.1" baseProfile="full"><defs><style type="text/css"><![CDATA[path.black { fill:none;stroke:black;stroke-width:5;stroke-linecap:round;stroke-linejoin:round; }path.grey { fill:none;stroke:#ddd;stroke-width:5;stroke-linecap:round;stroke-linejoin:round; }path.stroke { fill:none;stroke:black;stroke-width:5;stroke-linecap:round;stroke-linejoin:round; }rect { fill:none;stroke:#555;stroke-width:2;} text{font-size:16px;font-family:Segoe UI Symbol,Cambria Math,DejaVu Sans,Symbola,Quivira,STIX,Code2000;-webkit-touch-callout:none;cursor:pointer;-webkit-user-select:none;-khtml-user-select:none;-moz-user-select:none;-ms-user-select:none;user-select: none;} #reset { font-weight:bold; }]]></style><marker id="markerStart" markerWidth="8" markerHeight="8" style="overflow:visible;"><circle cx="0" cy="0" r="1.5" style="stroke:none;fill:red;fill-opacity:0.5;"/></marker><marker id="markerEnd" style="overflow:visible;"><circle cx="0" cy="0" r="0.8" style="stroke:none;fill:blue;fill-opacity:0.5;"><animate attributeName="opacity" from="1" to="0" dur="3s" repeatCount="indefinite" /></circle></marker></defs><rect x="4" y="4" width="100" height="100" /><path d="M50.18,11.25c2.48,1.22,6.1,5.99,6.56,8.38" class="grey" /><path d="M24.45,26.81c1.13,0.08,3.7,0.55,4.8,0.44c8.86-0.92,40.35-4.68,51.6-4.91c1.86-0.04,2.81,0.04,4.2,0.55" class="grey" /><path d="M38.75,31.99c0,0.51,0.04,0.92-0.13,1.53c-0.92,3.2-9.66,13.87-17.15,18.6" class="grey" /><path d="M36.89,38.46C41,40.25,46.25,45,48.25,49.5" class="grey" /><path d="M70.75,30.49c0,0.49,0.04,0.87-0.11,1.46c-0.76,3.04-7.99,13.18-14.17,17.68" class="grey" /><path d="M69.89,38.46c7,2.15,15.95,7.87,19.36,13.29" class="grey" /><path d="M14.88,67.84c1.52,0.54,4.31,0.68,5.82,0.54c19.3-1.77,55.8-4.52,69.11-4.73c2.53-0.04,4.05,0.26,5.31,0.53" class="grey" /><path d="M52.84,54.75c0.52,0.6,1.62,4.52,1.73,5.73c0.1,1.21-0.07,30.48-0.17,38.02" class="grey" /><path d="M50.18,11.25c2.48,1.22,6.1,5.99,6.56,8.38" class="stroke" stroke-dasharray="150"><animate attributeName="stroke-dashoffset" from="150" to="0" dur="1.8s" begin="0s" fill="freeze" /></path><path d="M24.45,26.81c1.13,0.08,3.7,0.55,4.8,0.44c8.86-0.92,40.35-4.68,51.6-4.91c1.86-0.04,2.81,0.04,4.2,0.55" class="stroke" stroke-dasharray="150"><set attributeName="opacity" to="0" dur="0.9s" /><animate attributeName="stroke-dashoffset" from="150" to="0" dur="1.8s" begin="0.9s" fill="freeze" /></path><path d="M38.75,31.99c0,0.51,0.04,0.92-0.13,1.53c-0.92,3.2-9.66,13.87-17.15,18.6" class="stroke" stroke-dasharray="150"><set attributeName="opacity" to="0" dur="2.4s" /><animate attributeName="stroke-dashoffset" from="150" to="0" dur="1.8s" begin="2.4s" fill="freeze" /></path><path d="M36.89,38.46C41,40.25,46.25,45,48.25,49.5" class="stroke" stroke-dasharray="150"><set attributeName="opacity" to="0" dur="3.4s" /><animate attributeName="stroke-dashoffset" from="150" to="0" dur="1.8s" begin="3.4s" fill="freeze" /></path><path d="M70.75,30.49c0,0.49,0.04,0.87-0.11,1.46c-0.76,3.04-7.99,13.18-14.17,17.68" class="stroke" stroke-dasharray="150"><set attributeName="opacity" to="0" dur="4.3s" /><animate attributeName="stroke-dashoffset" from="150" to="0" dur="1.8s" begin="4.3s" fill="freeze" /></path><path d="M69.89,38.46c7,2.15,15.95,7.87,19.36,13.29" class="stroke" stroke-dasharray="150"><set attributeName="opacity" to="0" dur="5.3s" /><animate attributeName="stroke-dashoffset" from="150" to="0" dur="1.8s" begin="5.3s" fill="freeze" /></path><path d="M14.88,67.84c1.52,0.54,4.31,0.68,5.82,0.54c19.3-1.77,55.8-4.52,69.11-4.73c2.53-0.04,4.05,0.26,5.31,0.53" class="stroke" stroke-dasharray="150"><set attributeName="opacity" to="0" dur="6.3s" /><animate attributeName="stroke-dashoffset" from="150" to="0" dur="1.8s" begin="6.3s" fill="freeze" /></path><path d="M52.84,54.75c0.52,0.6,1.62,4.52,1.73,5.73c0.1,1.21-0.07,30.48-0.17,38.02" class="stroke" stroke-dasharray="150"><set attributeName="opacity" to="0" dur="8.0s" /><animate attributeName="stroke-dashoffset" from="150" to="0" dur="1.8s" begin="8.0s" fill="freeze" /></path><text x="90" y="120" id="reset">⟳</text><text x="70" y="120" id="pause">◼</text><script type="text/javascript"><![CDATA[function RecurringTimer(e,t){var n,r,i=t;this.pause=function(){window.clearTimeout(n);i-=new Date-r};var s=function(){r=new Date;n=window.setTimeout(function(){i=t;s();e()},i)};this.clear=function(){window.clearTimeout(n);i=t;n=window.setTimeout(function(){i=t;s();e()},i)};this.resume=s;this.resume()}function invoketimer(){timer=new RecurringTimer(function(){svg.setCurrentTime(0)},10100)}var svg=document.getElementById("kanjivg");var pause=document.getElementById("pause");var reset=document.getElementById("reset");var timer;invoketimer();reset.onclick=function(){svg.setCurrentTime(0);timer.clear();svg.unpauseAnimations();pause.innerHTML = "◼";};pause.onclick=function(){if(svg.animationsPaused()){svg.unpauseAnimations();timer.resume();pause.innerHTML="◼"}else{svg.pauseAnimations();timer.pause();pause.innerHTML="▶"}}]]></script></svg>