<svg id="kanjivg" width="106" height="126" xmlns="http://www.w3.org/2000/svg" xmlns:xlink="http://www.w3.org/1999/xlink" xml:space="preserve" version="1.1" baseProfile="full"><defs><style type="text/css"><![CDATA[path.black { fill:none;stroke:black;stroke-width:5;stroke-linecap:round;stroke-linejoin:round; }path.grey { fill:none;stroke:#ddd;stroke-width:5;stroke-linecap:round;stroke-linejoin:round; }path.stroke { fill:none;stroke:black;stroke-width:5;stroke-linecap:round;stroke-linejoin:round; }rect { fill:none;stroke:#555;stroke-width:2;} text{font-size:16px;font-family:Segoe UI Symbol,Cambria Math,DejaVu Sans,Symbola,Quivira,STIX,Code2000;-webkit-touch-callout:none;cursor:pointer;-webkit-user-select:none;-khtml-user-select:none;-moz-user-select:none;-ms-user-select:none;user-select: none;} #reset { font-weight:bold; }]]></style><marker id="markerStart" markerWidth="8" markerHeight="8" style="overflow:visible;"><circle cx="0" cy="0" r="1.5" style="stroke:none;fill:red;fill-opacity:0.5;"/></marker><marker id="markerEnd" style="overflow:visible;"><circle cx="0" cy="0" r="0.8" style="stroke:none;fill:blue;fill-opacity:0.5;"><animate attributeName="opacity" from="1" to="0" dur="3s" repeatCount="indefinite" /></circle></marker></defs><rect x="4" y="4" width="100" height="100" /><path d="M27.38,28.25c1.82,0.38,4.2,0.45,7.22,0.2c11.52-0.95,28.37-3.2,40.58-3.7c3.03-0.12,4.92-0.23,6.82,0" class="grey" /><path d="M52.35,10.75c0.95,0.95,1.55,2.86,1.55,3.96c0,7.3,0,19.47,0,28.54" class="grey" /><path d="M20.25,45.75c1.25,1.25,1.89,2.74,2,5c0.19,4.06,0.83,27.03,1.12,37.99c0.08,3.23,0.13,5.48,0.13,6.01" class="grey" /><path d="M22.78,47.6c16.31-1.76,59.32-6.35,60.97-6.35c5,0,6.25,1.62,6.25,6.75c0,5.25-0.25,37.3-0.25,43.05c0,7.7-3.5,6.45-9.5,0.95" class="grey" /><path d="M38.5,49.38c2.58,1.74,6.66,7.14,7.31,9.84" class="grey" /><path d="M66.25,45.5c0.05,0.89-0.07,1.75-0.37,2.59c-0.8,2.73-2.75,6.92-5.26,9.66" class="grey" /><path d="M34.78,61.67c1.81,0.39,4.55,0.55,6.36,0.39c9.11-0.8,18.63-1.54,27.63-2.39c2.99-0.28,4.83-0.32,6.33-0.12" class="grey" /><path d="M33.13,74.19c1.81,0.49,4.55,0.83,6.38,0.74c10.73-0.56,22.66-1.94,31.04-2.66c3-0.26,4.82-0.02,6.33,0.23" class="grey" /><path d="M53.5,62.5c0.75,0.75,1,2.14,0.99,3.5c-0.04,6.22-0.15,18.46-0.21,25.26c-0.02,2.19-0.03,3.81-0.03,4.49" class="grey" /><path d="M27.38,28.25c1.82,0.38,4.2,0.45,7.22,0.2c11.52-0.95,28.37-3.2,40.58-3.7c3.03-0.12,4.92-0.23,6.82,0" class="stroke" stroke-dasharray="150"><animate attributeName="stroke-dashoffset" from="150" to="0" dur="1.8s" begin="0s" fill="freeze" /></path><path d="M52.35,10.75c0.95,0.95,1.55,2.86,1.55,3.96c0,7.3,0,19.47,0,28.54" class="stroke" stroke-dasharray="150"><set attributeName="opacity" to="0" dur="1.3s" /><animate attributeName="stroke-dashoffset" from="150" to="0" dur="1.8s" begin="1.3s" fill="freeze" /></path><path d="M20.25,45.75c1.25,1.25,1.89,2.74,2,5c0.19,4.06,0.83,27.03,1.12,37.99c0.08,3.23,0.13,5.48,0.13,6.01" class="stroke" stroke-dasharray="150"><set attributeName="opacity" to="0" dur="2.3s" /><animate attributeName="stroke-dashoffset" from="150" to="0" dur="1.8s" begin="2.3s" fill="freeze" /></path><path d="M22.78,47.6c16.31-1.76,59.32-6.35,60.97-6.35c5,0,6.25,1.62,6.25,6.75c0,5.25-0.25,37.3-0.25,43.05c0,7.7-3.5,6.45-9.5,0.95" class="stroke" stroke-dasharray="150"><set attributeName="opacity" to="0" dur="3.5s" /><animate attributeName="stroke-dashoffset" from="150" to="0" dur="1.8s" begin="3.5s" fill="freeze" /></path><path d="M38.5,49.38c2.58,1.74,6.66,7.14,7.31,9.84" class="stroke" stroke-dasharray="150"><set attributeName="opacity" to="0" dur="5.5s" /><animate attributeName="stroke-dashoffset" from="150" to="0" dur="1.8s" begin="5.5s" fill="freeze" /></path><path d="M66.25,45.5c0.05,0.89-0.07,1.75-0.37,2.59c-0.8,2.73-2.75,6.92-5.26,9.66" class="stroke" stroke-dasharray="150"><set attributeName="opacity" to="0" dur="6.4s" /><animate attributeName="stroke-dashoffset" from="150" to="0" dur="1.8s" begin="6.4s" fill="freeze" /></path><path d="M34.78,61.67c1.81,0.39,4.55,0.55,6.36,0.39c9.11-0.8,18.63-1.54,27.63-2.39c2.99-0.28,4.83-0.32,6.33-0.12" class="stroke" stroke-dasharray="150"><set attributeName="opacity" to="0" dur="7.300000000000001s" /><animate attributeName="stroke-dashoffset" from="150" to="0" dur="1.8s" begin="7.300000000000001s" fill="freeze" /></path><path d="M33.13,74.19c1.81,0.49,4.55,0.83,6.38,0.74c10.73-0.56,22.66-1.94,31.04-2.66c3-0.26,4.82-0.02,6.33,0.23" class="stroke" stroke-dasharray="150"><set attributeName="opacity" to="0" dur="8.4s" /><animate attributeName="stroke-dashoffset" from="150" to="0" dur="1.8s" begin="8.4s" fill="freeze" /></path><path d="M53.5,62.5c0.75,0.75,1,2.14,0.99,3.5c-0.04,6.22-0.15,18.46-0.21,25.26c-0.02,2.19-0.03,3.81-0.03,4.49" class="stroke" stroke-dasharray="150"><set attributeName="opacity" to="0" dur="9.5s" /><animate attributeName="stroke-dashoffset" from="150" to="0" dur="1.8s" begin="9.5s" fill="freeze" /></path><text x="90" y="120" id="reset">⟳</text><text x="70" y="120" id="pause">◼</text><script type="text/javascript"><![CDATA[function RecurringTimer(e,t){var n,r,i=t;this.pause=function(){window.clearTimeout(n);i-=new Date-r};var s=function(){r=new Date;n=window.setTimeout(function(){i=t;s();e()},i)};this.clear=function(){window.clearTimeout(n);i=t;n=window.setTimeout(function(){i=t;s();e()},i)};this.resume=s;this.resume()}function invoketimer(){timer=new RecurringTimer(function(){svg.setCurrentTime(0)},11500)}var svg=document.getElementById("kanjivg");var pause=document.getElementById("pause");var reset=document.getElementById("reset");var timer;invoketimer();reset.onclick=function(){svg.setCurrentTime(0);timer.clear();svg.unpauseAnimations();pause.innerHTML = "◼";};pause.onclick=function(){if(svg.animationsPaused()){svg.unpauseAnimations();timer.resume();pause.innerHTML="◼"}else{svg.pauseAnimations();timer.pause();pause.innerHTML="▶"}}]]></script></svg>