<svg id="kanjivg" width="106" height="126" xmlns="http://www.w3.org/2000/svg" xmlns:xlink="http://www.w3.org/1999/xlink" xml:space="preserve" version="1.1" baseProfile="full"><defs><style type="text/css"><![CDATA[path.black { fill:none;stroke:black;stroke-width:5;stroke-linecap:round;stroke-linejoin:round; }path.grey { fill:none;stroke:#ddd;stroke-width:5;stroke-linecap:round;stroke-linejoin:round; }path.stroke { fill:none;stroke:black;stroke-width:5;stroke-linecap:round;stroke-linejoin:round; }rect { fill:none;stroke:#555;stroke-width:2;} text{font-size:16px;font-family:Segoe UI Symbol,Cambria Math,DejaVu Sans,Symbola,Quivira,STIX,Code2000;-webkit-touch-callout:none;cursor:pointer;-webkit-user-select:none;-khtml-user-select:none;-moz-user-select:none;-ms-user-select:none;user-select: none;} #reset { font-weight:bold; }]]></style><marker id="markerStart" markerWidth="8" markerHeight="8" style="overflow:visible;"><circle cx="0" cy="0" r="1.5" style="stroke:none;fill:red;fill-opacity:0.5;"/></marker><marker id="markerEnd" style="overflow:visible;"><circle cx="0" cy="0" r="0.8" style="stroke:none;fill:blue;fill-opacity:0.5;"><animate attributeName="opacity" from="1" to="0" dur="3s" repeatCount="indefinite" /></circle></marker></defs><rect x="4" y="4" width="100" height="100" /><path d="M55.25,24.5c2,0,11.67-1.86,17.5-2.77c2.09-0.33,3.01-0.15,4.25-0.23" class="grey" /><path d="M51.81,10.88c0.76,0.33,2.36,2.46,2.51,3.12c0.15,0.66,0.4,16.03,0.25,20.13" class="grey" /><path d="M33.66,35.53c0.73,1.22,1.72,1.61,1.95,3.25c0.64,4.47,2.89,19.97,2.92,23.72" class="grey" /><path d="M36.55,37.03c4.17-0.2,35.93-4.55,39.7-4.04c1.49,0.2,2.93,1.8,2.35,3.86c-1.08,3.85-2.25,15.72-4.2,22.61" class="grey" /><path d="M37.39,48.2c6.62-0.42,13.22-1.06,19.83-1.59c2.02-0.16,4.04-0.32,5.98-0.47" class="grey" /><path d="M39.26,60.27c10.24-0.77,29.51-2.44,34.72-2.44" class="grey" /><path d="M16.13,76.41c1.47,0.48,4.18,0.61,5.64,0.48c12.73-1.13,55.98-4.63,67.96-4.59c2.45,0.01,3.92,0.23,5.15,0.47" class="grey" /><path d="M54.73,60.25c0.44,0.55,1.38,4.13,1.47,5.24c0.09,1.1-0.06,27.12-0.15,34.01" class="grey" /><path d="M55.25,24.5c2,0,11.67-1.86,17.5-2.77c2.09-0.33,3.01-0.15,4.25-0.23" class="stroke" stroke-dasharray="150"><animate attributeName="stroke-dashoffset" from="150" to="0" dur="1.8s" begin="0s" fill="freeze" /></path><path d="M51.81,10.88c0.76,0.33,2.36,2.46,2.51,3.12c0.15,0.66,0.4,16.03,0.25,20.13" class="stroke" stroke-dasharray="150"><set attributeName="opacity" to="0" dur="1.0s" /><animate attributeName="stroke-dashoffset" from="150" to="0" dur="1.8s" begin="1.0s" fill="freeze" /></path><path d="M33.66,35.53c0.73,1.22,1.72,1.61,1.95,3.25c0.64,4.47,2.89,19.97,2.92,23.72" class="stroke" stroke-dasharray="150"><set attributeName="opacity" to="0" dur="2.0s" /><animate attributeName="stroke-dashoffset" from="150" to="0" dur="1.8s" begin="2.0s" fill="freeze" /></path><path d="M36.55,37.03c4.17-0.2,35.93-4.55,39.7-4.04c1.49,0.2,2.93,1.8,2.35,3.86c-1.08,3.85-2.25,15.72-4.2,22.61" class="stroke" stroke-dasharray="150"><set attributeName="opacity" to="0" dur="3.0s" /><animate attributeName="stroke-dashoffset" from="150" to="0" dur="1.8s" begin="3.0s" fill="freeze" /></path><path d="M37.39,48.2c6.62-0.42,13.22-1.06,19.83-1.59c2.02-0.16,4.04-0.32,5.98-0.47" class="stroke" stroke-dasharray="150"><set attributeName="opacity" to="0" dur="4.5s" /><animate attributeName="stroke-dashoffset" from="150" to="0" dur="1.8s" begin="4.5s" fill="freeze" /></path><path d="M39.26,60.27c10.24-0.77,29.51-2.44,34.72-2.44" class="stroke" stroke-dasharray="150"><set attributeName="opacity" to="0" dur="5.5s" /><animate attributeName="stroke-dashoffset" from="150" to="0" dur="1.8s" begin="5.5s" fill="freeze" /></path><path d="M16.13,76.41c1.47,0.48,4.18,0.61,5.64,0.48c12.73-1.13,55.98-4.63,67.96-4.59c2.45,0.01,3.92,0.23,5.15,0.47" class="stroke" stroke-dasharray="150"><set attributeName="opacity" to="0" dur="6.5s" /><animate attributeName="stroke-dashoffset" from="150" to="0" dur="1.8s" begin="6.5s" fill="freeze" /></path><path d="M54.73,60.25c0.44,0.55,1.38,4.13,1.47,5.24c0.09,1.1-0.06,27.12-0.15,34.01" class="stroke" stroke-dasharray="150"><set attributeName="opacity" to="0" dur="8.2s" /><animate attributeName="stroke-dashoffset" from="150" to="0" dur="1.8s" begin="8.2s" fill="freeze" /></path><text x="90" y="120" id="reset">⟳</text><text x="70" y="120" id="pause">◼</text><script type="text/javascript"><![CDATA[function RecurringTimer(e,t){var n,r,i=t;this.pause=function(){window.clearTimeout(n);i-=new Date-r};var s=function(){r=new Date;n=window.setTimeout(function(){i=t;s();e()},i)};this.clear=function(){window.clearTimeout(n);i=t;n=window.setTimeout(function(){i=t;s();e()},i)};this.resume=s;this.resume()}function invoketimer(){timer=new RecurringTimer(function(){svg.setCurrentTime(0)},10200)}var svg=document.getElementById("kanjivg");var pause=document.getElementById("pause");var reset=document.getElementById("reset");var timer;invoketimer();reset.onclick=function(){svg.setCurrentTime(0);timer.clear();svg.unpauseAnimations();pause.innerHTML = "◼";};pause.onclick=function(){if(svg.animationsPaused()){svg.unpauseAnimations();timer.resume();pause.innerHTML="◼"}else{svg.pauseAnimations();timer.pause();pause.innerHTML="▶"}}]]></script></svg>