<svg id="kanjivg" width="106" height="126" xmlns="http://www.w3.org/2000/svg" xmlns:xlink="http://www.w3.org/1999/xlink" xml:space="preserve" version="1.1" baseProfile="full"><defs><style type="text/css"><![CDATA[path.black { fill:none;stroke:black;stroke-width:5;stroke-linecap:round;stroke-linejoin:round; }path.grey { fill:none;stroke:#ddd;stroke-width:5;stroke-linecap:round;stroke-linejoin:round; }path.stroke { fill:none;stroke:black;stroke-width:5;stroke-linecap:round;stroke-linejoin:round; }rect { fill:none;stroke:#555;stroke-width:2;} text{font-size:16px;font-family:Segoe UI Symbol,Cambria Math,DejaVu Sans,Symbola,Quivira,STIX,Code2000;-webkit-touch-callout:none;cursor:pointer;-webkit-user-select:none;-khtml-user-select:none;-moz-user-select:none;-ms-user-select:none;user-select: none;} #reset { font-weight:bold; }]]></style><marker id="markerStart" markerWidth="8" markerHeight="8" style="overflow:visible;"><circle cx="0" cy="0" r="1.5" style="stroke:none;fill:red;fill-opacity:0.5;"/></marker><marker id="markerEnd" style="overflow:visible;"><circle cx="0" cy="0" r="0.8" style="stroke:none;fill:blue;fill-opacity:0.5;"><animate attributeName="opacity" from="1" to="0" dur="3s" repeatCount="indefinite" /></circle></marker></defs><rect x="4" y="4" width="100" height="100" /><path d="M52.81,11.13c0.9,0.9,1.51,2.12,1.51,3.37c0,0.67,0,12.75,0,19.13" class="grey" /><path d="M57,24.5c3.62-0.62,8.38-1.5,15.25-2.77c2.08-0.38,3.76-0.4,5-0.48" class="grey" /><path d="M33.91,35.78c1.03,1.03,1.47,2.36,1.7,4c0.5,3.47,1.96,13.09,2.61,19.19c0.19,1.76,0.3,3.19,0.31,4.03" class="grey" /><path d="M35.8,37.03c4.92-0.66,27.99-3.46,37.2-4c4.18-0.24,6.48,0.56,5.51,5.25c-0.76,3.69-2.09,10.51-3.22,16.28c-0.35,1.77-0.72,3.44-1.13,4.89" class="grey" /><path d="M37.39,48.2c9.11-1.08,28.11-2.7,38.35-3.09" class="grey" /><path d="M39.51,60.27c11.99-1.39,25.99-2.39,34.22-2.69" class="grey" /><path d="M16.63,75.66c2.77,0.89,6.52,0.7,9.37,0.41c16.1-1.63,46.09-3.65,60-3.98c3.23-0.08,6.21,0.05,9.38,0.66" class="grey" /><path d="M54.73,61.25c1.13,1.13,1.22,2.38,1.22,4.24c0,0.87,0.07,16.75-0.01,27.01c-0.02,2.74-0.04,5.05-0.06,6.5" class="grey" /><path d="M52.81,11.13c0.9,0.9,1.51,2.12,1.51,3.37c0,0.67,0,12.75,0,19.13" class="stroke" stroke-dasharray="150"><animate attributeName="stroke-dashoffset" from="150" to="0" dur="1.8s" begin="0s" fill="freeze" /></path><path d="M57,24.5c3.62-0.62,8.38-1.5,15.25-2.77c2.08-0.38,3.76-0.4,5-0.48" class="stroke" stroke-dasharray="150"><set attributeName="opacity" to="0" dur="1.0s" /><animate attributeName="stroke-dashoffset" from="150" to="0" dur="1.8s" begin="1.0s" fill="freeze" /></path><path d="M33.91,35.78c1.03,1.03,1.47,2.36,1.7,4c0.5,3.47,1.96,13.09,2.61,19.19c0.19,1.76,0.3,3.19,0.31,4.03" class="stroke" stroke-dasharray="150"><set attributeName="opacity" to="0" dur="2.0s" /><animate attributeName="stroke-dashoffset" from="150" to="0" dur="1.8s" begin="2.0s" fill="freeze" /></path><path d="M35.8,37.03c4.92-0.66,27.99-3.46,37.2-4c4.18-0.24,6.48,0.56,5.51,5.25c-0.76,3.69-2.09,10.51-3.22,16.28c-0.35,1.77-0.72,3.44-1.13,4.89" class="stroke" stroke-dasharray="150"><set attributeName="opacity" to="0" dur="3.0s" /><animate attributeName="stroke-dashoffset" from="150" to="0" dur="1.8s" begin="3.0s" fill="freeze" /></path><path d="M37.39,48.2c9.11-1.08,28.11-2.7,38.35-3.09" class="stroke" stroke-dasharray="150"><set attributeName="opacity" to="0" dur="4.5s" /><animate attributeName="stroke-dashoffset" from="150" to="0" dur="1.8s" begin="4.5s" fill="freeze" /></path><path d="M39.51,60.27c11.99-1.39,25.99-2.39,34.22-2.69" class="stroke" stroke-dasharray="150"><set attributeName="opacity" to="0" dur="5.5s" /><animate attributeName="stroke-dashoffset" from="150" to="0" dur="1.8s" begin="5.5s" fill="freeze" /></path><path d="M16.63,75.66c2.77,0.89,6.52,0.7,9.37,0.41c16.1-1.63,46.09-3.65,60-3.98c3.23-0.08,6.21,0.05,9.38,0.66" class="stroke" stroke-dasharray="150"><set attributeName="opacity" to="0" dur="6.5s" /><animate attributeName="stroke-dashoffset" from="150" to="0" dur="1.8s" begin="6.5s" fill="freeze" /></path><path d="M54.73,61.25c1.13,1.13,1.22,2.38,1.22,4.24c0,0.87,0.07,16.75-0.01,27.01c-0.02,2.74-0.04,5.05-0.06,6.5" class="stroke" stroke-dasharray="150"><set attributeName="opacity" to="0" dur="8.2s" /><animate attributeName="stroke-dashoffset" from="150" to="0" dur="1.8s" begin="8.2s" fill="freeze" /></path><text x="90" y="120" id="reset">⟳</text><text x="70" y="120" id="pause">◼</text><script type="text/javascript"><![CDATA[function RecurringTimer(e,t){var n,r,i=t;this.pause=function(){window.clearTimeout(n);i-=new Date-r};var s=function(){r=new Date;n=window.setTimeout(function(){i=t;s();e()},i)};this.clear=function(){window.clearTimeout(n);i=t;n=window.setTimeout(function(){i=t;s();e()},i)};this.resume=s;this.resume()}function invoketimer(){timer=new RecurringTimer(function(){svg.setCurrentTime(0)},10200)}var svg=document.getElementById("kanjivg");var pause=document.getElementById("pause");var reset=document.getElementById("reset");var timer;invoketimer();reset.onclick=function(){svg.setCurrentTime(0);timer.clear();svg.unpauseAnimations();pause.innerHTML = "◼";};pause.onclick=function(){if(svg.animationsPaused()){svg.unpauseAnimations();timer.resume();pause.innerHTML="◼"}else{svg.pauseAnimations();timer.pause();pause.innerHTML="▶"}}]]></script></svg>