<svg id="kanjivg" width="106" height="126" xmlns="http://www.w3.org/2000/svg" xmlns:xlink="http://www.w3.org/1999/xlink" xml:space="preserve" version="1.1" baseProfile="full"><defs><style type="text/css"><![CDATA[path.black { fill:none;stroke:black;stroke-width:5;stroke-linecap:round;stroke-linejoin:round; }path.grey { fill:none;stroke:#ddd;stroke-width:5;stroke-linecap:round;stroke-linejoin:round; }path.stroke { fill:none;stroke:black;stroke-width:5;stroke-linecap:round;stroke-linejoin:round; }rect { fill:none;stroke:#555;stroke-width:2;} text{font-size:16px;font-family:Segoe UI Symbol,Cambria Math,DejaVu Sans,Symbola,Quivira,STIX,Code2000;-webkit-touch-callout:none;cursor:pointer;-webkit-user-select:none;-khtml-user-select:none;-moz-user-select:none;-ms-user-select:none;user-select: none;} #reset { font-weight:bold; }]]></style><marker id="markerStart" markerWidth="8" markerHeight="8" style="overflow:visible;"><circle cx="0" cy="0" r="1.5" style="stroke:none;fill:red;fill-opacity:0.5;"/></marker><marker id="markerEnd" style="overflow:visible;"><circle cx="0" cy="0" r="0.8" style="stroke:none;fill:blue;fill-opacity:0.5;"><animate attributeName="opacity" from="1" to="0" dur="3s" repeatCount="indefinite" /></circle></marker></defs><rect x="4" y="4" width="100" height="100" /><path d="M52.72,11.25c1.02,1.02,1.53,2.25,1.53,3.44c0,3.41-0.27,5.94-0.11,8.82" class="grey" /><path d="M24.45,26.31c2.52,0.57,5.57,0.35,7.22,0.19c12.83-1.24,33.45-2.99,47.31-3.66c2.79-0.14,4.47,0.04,6.56,0.55" class="grey" /><path d="M39.5,32.24c0,0.61-0.09,1.39-0.44,2.09c-2.05,4.04-9.3,12.42-18.3,17.97" class="grey" /><path d="M39.62,40.62c3.39,1.6,7.72,5.85,9.38,9.88" class="grey" /><path d="M70,30.74c0,0.61,0.16,1.38-0.17,2.08c-1.66,3.54-5.92,9.98-13.82,16.34" class="grey" /><path d="M70.38,39.25c7.38,2.62,14.5,7,18.62,11.75" class="grey" /><path d="M14.88,67.59c2.46,0.54,6.98,0.76,9.42,0.54c18.45-1.63,47.82-3.63,61.72-3.98c3.88-0.1,6.23,0.34,8.6,1.03" class="grey" /><path d="M52.84,55c1.02,1.02,1.73,2.38,1.73,4.23c0,4.77-0.11,20.96-0.15,32.89c-0.01,2.92-0.02,5.35-0.02,6.88" class="grey" /><path d="M52.72,11.25c1.02,1.02,1.53,2.25,1.53,3.44c0,3.41-0.27,5.94-0.11,8.82" class="stroke" stroke-dasharray="150"><animate attributeName="stroke-dashoffset" from="150" to="0" dur="1.8s" begin="0s" fill="freeze" /></path><path d="M24.45,26.31c2.52,0.57,5.57,0.35,7.22,0.19c12.83-1.24,33.45-2.99,47.31-3.66c2.79-0.14,4.47,0.04,6.56,0.55" class="stroke" stroke-dasharray="150"><set attributeName="opacity" to="0" dur="0.9s" /><animate attributeName="stroke-dashoffset" from="150" to="0" dur="1.8s" begin="0.9s" fill="freeze" /></path><path d="M39.5,32.24c0,0.61-0.09,1.39-0.44,2.09c-2.05,4.04-9.3,12.42-18.3,17.97" class="stroke" stroke-dasharray="150"><set attributeName="opacity" to="0" dur="2.4s" /><animate attributeName="stroke-dashoffset" from="150" to="0" dur="1.8s" begin="2.4s" fill="freeze" /></path><path d="M39.62,40.62c3.39,1.6,7.72,5.85,9.38,9.88" class="stroke" stroke-dasharray="150"><set attributeName="opacity" to="0" dur="3.4s" /><animate attributeName="stroke-dashoffset" from="150" to="0" dur="1.8s" begin="3.4s" fill="freeze" /></path><path d="M70,30.74c0,0.61,0.16,1.38-0.17,2.08c-1.66,3.54-5.92,9.98-13.82,16.34" class="stroke" stroke-dasharray="150"><set attributeName="opacity" to="0" dur="4.3s" /><animate attributeName="stroke-dashoffset" from="150" to="0" dur="1.8s" begin="4.3s" fill="freeze" /></path><path d="M70.38,39.25c7.38,2.62,14.5,7,18.62,11.75" class="stroke" stroke-dasharray="150"><set attributeName="opacity" to="0" dur="5.3s" /><animate attributeName="stroke-dashoffset" from="150" to="0" dur="1.8s" begin="5.3s" fill="freeze" /></path><path d="M14.88,67.59c2.46,0.54,6.98,0.76,9.42,0.54c18.45-1.63,47.82-3.63,61.72-3.98c3.88-0.1,6.23,0.34,8.6,1.03" class="stroke" stroke-dasharray="150"><set attributeName="opacity" to="0" dur="6.3s" /><animate attributeName="stroke-dashoffset" from="150" to="0" dur="1.8s" begin="6.3s" fill="freeze" /></path><path d="M52.84,55c1.02,1.02,1.73,2.38,1.73,4.23c0,4.77-0.11,20.96-0.15,32.89c-0.01,2.92-0.02,5.35-0.02,6.88" class="stroke" stroke-dasharray="150"><set attributeName="opacity" to="0" dur="8.0s" /><animate attributeName="stroke-dashoffset" from="150" to="0" dur="1.8s" begin="8.0s" fill="freeze" /></path><text x="90" y="120" id="reset">⟳</text><text x="70" y="120" id="pause">◼</text><script type="text/javascript"><![CDATA[function RecurringTimer(e,t){var n,r,i=t;this.pause=function(){window.clearTimeout(n);i-=new Date-r};var s=function(){r=new Date;n=window.setTimeout(function(){i=t;s();e()},i)};this.clear=function(){window.clearTimeout(n);i=t;n=window.setTimeout(function(){i=t;s();e()},i)};this.resume=s;this.resume()}function invoketimer(){timer=new RecurringTimer(function(){svg.setCurrentTime(0)},10100)}var svg=document.getElementById("kanjivg");var pause=document.getElementById("pause");var reset=document.getElementById("reset");var timer;invoketimer();reset.onclick=function(){svg.setCurrentTime(0);timer.clear();svg.unpauseAnimations();pause.innerHTML = "◼";};pause.onclick=function(){if(svg.animationsPaused()){svg.unpauseAnimations();timer.resume();pause.innerHTML="◼"}else{svg.pauseAnimations();timer.pause();pause.innerHTML="▶"}}]]></script></svg>