<svg id="kanjivg" width="106" height="126" xmlns="http://www.w3.org/2000/svg" xmlns:xlink="http://www.w3.org/1999/xlink" xml:space="preserve" version="1.1" baseProfile="full"><defs><style type="text/css"><![CDATA[path.black { fill:none;stroke:black;stroke-width:5;stroke-linecap:round;stroke-linejoin:round; }path.grey { fill:none;stroke:#ddd;stroke-width:5;stroke-linecap:round;stroke-linejoin:round; }path.stroke { fill:none;stroke:black;stroke-width:5;stroke-linecap:round;stroke-linejoin:round; }rect { fill:none;stroke:#555;stroke-width:2;} text{font-size:16px;font-family:Segoe UI Symbol,Cambria Math,DejaVu Sans,Symbola,Quivira,STIX,Code2000;-webkit-touch-callout:none;cursor:pointer;-webkit-user-select:none;-khtml-user-select:none;-moz-user-select:none;-ms-user-select:none;user-select: none;} #reset { font-weight:bold; }]]></style><marker id="markerStart" markerWidth="8" markerHeight="8" style="overflow:visible;"><circle cx="0" cy="0" r="1.5" style="stroke:none;fill:red;fill-opacity:0.5;"/></marker><marker id="markerEnd" style="overflow:visible;"><circle cx="0" cy="0" r="0.8" style="stroke:none;fill:blue;fill-opacity:0.5;"><animate attributeName="opacity" from="1" to="0" dur="3s" repeatCount="indefinite" /></circle></marker></defs><rect x="4" y="4" width="100" height="100" /><path d="M51.27,10.14c0.03,0.33,0.07,0.84-0.07,1.31c-0.62,2.1-3.46,6.12-7.58,9.55" class="grey" /><path d="M28.49,23.73c0.76,0.76,1.18,1.76,1.43,3.25C31.12,34,32.1,41.63,33.01,50c0.19,1.74,0.37,3.41,0.53,4.96" class="grey" /><path d="M30.45,25.17c14.17-2.17,33.42-4.8,45.69-5.88c3.51-0.31,4.36,1.2,4.11,3.95c-0.39,4.33-2.03,14.19-3.49,22.5c-0.31,1.77-0.61,3.46-0.9,5" class="grey" /><path d="M52.7,24.75c1.02,1.03,1.37,2.17,1.37,2.99c0,4.51-0.07,17.09-0.07,21.14" class="grey" /><path d="M32.83,38.36c10.23-1.47,37.07-4.29,44.13-4.72" class="grey" /><path d="M34.45,51.79c13.55-1.67,26.43-3.04,40.92-3.54" class="grey" /><path d="M46.22,54.18c0.07,0.96,0.02,1.6-0.38,2.49c-1.91,4.23-5.54,10.26-10.22,16.08" class="grey" /><path d="M15.75,75.5c2.86,1.1,6.03,1.01,8.98,0.63c18.21-2.34,44.49-5.02,61.26-5.65c3.31-0.12,7.24-0.1,10.51,0.65" class="grey" /><path d="M62.87,54.75c1.07,1.06,1.21,2.25,1.21,3.5c0,0.64,0.02,23.95,0.03,35.5c0,3.37,0,5.74,0,6.25" class="grey" /><path d="M51.27,10.14c0.03,0.33,0.07,0.84-0.07,1.31c-0.62,2.1-3.46,6.12-7.58,9.55" class="stroke" stroke-dasharray="150"><animate attributeName="stroke-dashoffset" from="150" to="0" dur="1.8s" begin="0s" fill="freeze" /></path><path d="M28.49,23.73c0.76,0.76,1.18,1.76,1.43,3.25C31.12,34,32.1,41.63,33.01,50c0.19,1.74,0.37,3.41,0.53,4.96" class="stroke" stroke-dasharray="150"><set attributeName="opacity" to="0" dur="0.9s" /><animate attributeName="stroke-dashoffset" from="150" to="0" dur="1.8s" begin="0.9s" fill="freeze" /></path><path d="M30.45,25.17c14.17-2.17,33.42-4.8,45.69-5.88c3.51-0.31,4.36,1.2,4.11,3.95c-0.39,4.33-2.03,14.19-3.49,22.5c-0.31,1.77-0.61,3.46-0.9,5" class="stroke" stroke-dasharray="150"><set attributeName="opacity" to="0" dur="1.9s" /><animate attributeName="stroke-dashoffset" from="150" to="0" dur="1.8s" begin="1.9s" fill="freeze" /></path><path d="M52.7,24.75c1.02,1.03,1.37,2.17,1.37,2.99c0,4.51-0.07,17.09-0.07,21.14" class="stroke" stroke-dasharray="150"><set attributeName="opacity" to="0" dur="3.5999999999999996s" /><animate attributeName="stroke-dashoffset" from="150" to="0" dur="1.8s" begin="3.5999999999999996s" fill="freeze" /></path><path d="M32.83,38.36c10.23-1.47,37.07-4.29,44.13-4.72" class="stroke" stroke-dasharray="150"><set attributeName="opacity" to="0" dur="4.6s" /><animate attributeName="stroke-dashoffset" from="150" to="0" dur="1.8s" begin="4.6s" fill="freeze" /></path><path d="M34.45,51.79c13.55-1.67,26.43-3.04,40.92-3.54" class="stroke" stroke-dasharray="150"><set attributeName="opacity" to="0" dur="5.699999999999999s" /><animate attributeName="stroke-dashoffset" from="150" to="0" dur="1.8s" begin="5.699999999999999s" fill="freeze" /></path><path d="M46.22,54.18c0.07,0.96,0.02,1.6-0.38,2.49c-1.91,4.23-5.54,10.26-10.22,16.08" class="stroke" stroke-dasharray="150"><set attributeName="opacity" to="0" dur="6.799999999999999s" /><animate attributeName="stroke-dashoffset" from="150" to="0" dur="1.8s" begin="6.799999999999999s" fill="freeze" /></path><path d="M15.75,75.5c2.86,1.1,6.03,1.01,8.98,0.63c18.21-2.34,44.49-5.02,61.26-5.65c3.31-0.12,7.24-0.1,10.51,0.65" class="stroke" stroke-dasharray="150"><set attributeName="opacity" to="0" dur="7.799999999999999s" /><animate attributeName="stroke-dashoffset" from="150" to="0" dur="1.8s" begin="7.799999999999999s" fill="freeze" /></path><path d="M62.87,54.75c1.07,1.06,1.21,2.25,1.21,3.5c0,0.64,0.02,23.95,0.03,35.5c0,3.37,0,5.74,0,6.25" class="stroke" stroke-dasharray="150"><set attributeName="opacity" to="0" dur="9.499999999999998s" /><animate attributeName="stroke-dashoffset" from="150" to="0" dur="1.8s" begin="9.499999999999998s" fill="freeze" /></path><text x="90" y="120" id="reset">⟳</text><text x="70" y="120" id="pause">◼</text><script type="text/javascript"><![CDATA[function RecurringTimer(e,t){var n,r,i=t;this.pause=function(){window.clearTimeout(n);i-=new Date-r};var s=function(){r=new Date;n=window.setTimeout(function(){i=t;s();e()},i)};this.clear=function(){window.clearTimeout(n);i=t;n=window.setTimeout(function(){i=t;s();e()},i)};this.resume=s;this.resume()}function invoketimer(){timer=new RecurringTimer(function(){svg.setCurrentTime(0)},11699)}var svg=document.getElementById("kanjivg");var pause=document.getElementById("pause");var reset=document.getElementById("reset");var timer;invoketimer();reset.onclick=function(){svg.setCurrentTime(0);timer.clear();svg.unpauseAnimations();pause.innerHTML = "◼";};pause.onclick=function(){if(svg.animationsPaused()){svg.unpauseAnimations();timer.resume();pause.innerHTML="◼"}else{svg.pauseAnimations();timer.pause();pause.innerHTML="▶"}}]]></script></svg>