<svg id="kanjivg" width="106" height="126" xmlns="http://www.w3.org/2000/svg" xmlns:xlink="http://www.w3.org/1999/xlink" xml:space="preserve" version="1.1" baseProfile="full"><defs><style type="text/css"><![CDATA[path.black { fill:none;stroke:black;stroke-width:5;stroke-linecap:round;stroke-linejoin:round; }path.grey { fill:none;stroke:#ddd;stroke-width:5;stroke-linecap:round;stroke-linejoin:round; }path.stroke { fill:none;stroke:black;stroke-width:5;stroke-linecap:round;stroke-linejoin:round; }rect { fill:none;stroke:#555;stroke-width:2;} text{font-size:16px;font-family:Segoe UI Symbol,Cambria Math,DejaVu Sans,Symbola,Quivira,STIX,Code2000;-webkit-touch-callout:none;cursor:pointer;-webkit-user-select:none;-khtml-user-select:none;-moz-user-select:none;-ms-user-select:none;user-select: none;} #reset { font-weight:bold; }]]></style><marker id="markerStart" markerWidth="8" markerHeight="8" style="overflow:visible;"><circle cx="0" cy="0" r="1.5" style="stroke:none;fill:red;fill-opacity:0.5;"/></marker><marker id="markerEnd" style="overflow:visible;"><circle cx="0" cy="0" r="0.8" style="stroke:none;fill:blue;fill-opacity:0.5;"><animate attributeName="opacity" from="1" to="0" dur="3s" repeatCount="indefinite" /></circle></marker></defs><rect x="4" y="4" width="100" height="100" /><path d="M51.28,10.64c0.02,0.26,0.05,0.67-0.05,1.05c-0.56,2.21-3.78,7.06-8.18,10.03" class="grey" /><path d="M28.74,23.98c0.36,0.5,0.37,0.85,0.57,1.48c1.65,5.19,3.2,19.81,4.22,29.5" class="grey" /><path d="M30.45,24.67c12.77-1.31,35.65-4.03,45.19-5.12c3.5-0.4,4.86,0.7,4.61,3.45c-0.48,5.26-2.79,19-4.39,27.75" class="grey" /><path d="M51.95,23.25c1.05,1.25,1.58,1.42,1.62,2.24c0.3,7.35,0.11,19.71,0.11,23.76" class="grey" /><path d="M32.83,38.11c9.89-1.21,19.84-2.1,29.75-3.1c1.19-0.12,2.35-0.23,3.46-0.34" class="grey" /><path d="M34.2,52.04c9.19-0.56,28.97-2.88,41.67-3.79" class="grey" /><path d="M45.97,53.93c0.03,0.46,0.2,1.23-0.06,1.85C44,60.25,40,67,34.76,73.5" class="grey" /><path d="M15.25,75.5c1.01,0.39,3.71,1.44,6.39,1.16c18.11-1.91,50.61-5.91,67.81-6.28c2.69-0.06,4.86,0.11,6.55,0.5" class="grey" /><path d="M62.37,54.25c1.09,0.5,1.74,2.25,1.96,3.25c0.22,1,0,36.25-0.22,42.5" class="grey" /><path d="M51.28,10.64c0.02,0.26,0.05,0.67-0.05,1.05c-0.56,2.21-3.78,7.06-8.18,10.03" class="stroke" stroke-dasharray="150"><animate attributeName="stroke-dashoffset" from="150" to="0" dur="1.8s" begin="0s" fill="freeze" /></path><path d="M28.74,23.98c0.36,0.5,0.37,0.85,0.57,1.48c1.65,5.19,3.2,19.81,4.22,29.5" class="stroke" stroke-dasharray="150"><set attributeName="opacity" to="0" dur="0.9s" /><animate attributeName="stroke-dashoffset" from="150" to="0" dur="1.8s" begin="0.9s" fill="freeze" /></path><path d="M30.45,24.67c12.77-1.31,35.65-4.03,45.19-5.12c3.5-0.4,4.86,0.7,4.61,3.45c-0.48,5.26-2.79,19-4.39,27.75" class="stroke" stroke-dasharray="150"><set attributeName="opacity" to="0" dur="1.9s" /><animate attributeName="stroke-dashoffset" from="150" to="0" dur="1.8s" begin="1.9s" fill="freeze" /></path><path d="M51.95,23.25c1.05,1.25,1.58,1.42,1.62,2.24c0.3,7.35,0.11,19.71,0.11,23.76" class="stroke" stroke-dasharray="150"><set attributeName="opacity" to="0" dur="3.5999999999999996s" /><animate attributeName="stroke-dashoffset" from="150" to="0" dur="1.8s" begin="3.5999999999999996s" fill="freeze" /></path><path d="M32.83,38.11c9.89-1.21,19.84-2.1,29.75-3.1c1.19-0.12,2.35-0.23,3.46-0.34" class="stroke" stroke-dasharray="150"><set attributeName="opacity" to="0" dur="4.6s" /><animate attributeName="stroke-dashoffset" from="150" to="0" dur="1.8s" begin="4.6s" fill="freeze" /></path><path d="M34.2,52.04c9.19-0.56,28.97-2.88,41.67-3.79" class="stroke" stroke-dasharray="150"><set attributeName="opacity" to="0" dur="5.6s" /><animate attributeName="stroke-dashoffset" from="150" to="0" dur="1.8s" begin="5.6s" fill="freeze" /></path><path d="M45.97,53.93c0.03,0.46,0.2,1.23-0.06,1.85C44,60.25,40,67,34.76,73.5" class="stroke" stroke-dasharray="150"><set attributeName="opacity" to="0" dur="6.699999999999999s" /><animate attributeName="stroke-dashoffset" from="150" to="0" dur="1.8s" begin="6.699999999999999s" fill="freeze" /></path><path d="M15.25,75.5c1.01,0.39,3.71,1.44,6.39,1.16c18.11-1.91,50.61-5.91,67.81-6.28c2.69-0.06,4.86,0.11,6.55,0.5" class="stroke" stroke-dasharray="150"><set attributeName="opacity" to="0" dur="7.699999999999999s" /><animate attributeName="stroke-dashoffset" from="150" to="0" dur="1.8s" begin="7.699999999999999s" fill="freeze" /></path><path d="M62.37,54.25c1.09,0.5,1.74,2.25,1.96,3.25c0.22,1,0,36.25-0.22,42.5" class="stroke" stroke-dasharray="150"><set attributeName="opacity" to="0" dur="9.399999999999999s" /><animate attributeName="stroke-dashoffset" from="150" to="0" dur="1.8s" begin="9.399999999999999s" fill="freeze" /></path><text x="90" y="120" id="reset">⟳</text><text x="70" y="120" id="pause">◼</text><script type="text/javascript"><![CDATA[function RecurringTimer(e,t){var n,r,i=t;this.pause=function(){window.clearTimeout(n);i-=new Date-r};var s=function(){r=new Date;n=window.setTimeout(function(){i=t;s();e()},i)};this.clear=function(){window.clearTimeout(n);i=t;n=window.setTimeout(function(){i=t;s();e()},i)};this.resume=s;this.resume()}function invoketimer(){timer=new RecurringTimer(function(){svg.setCurrentTime(0)},11599)}var svg=document.getElementById("kanjivg");var pause=document.getElementById("pause");var reset=document.getElementById("reset");var timer;invoketimer();reset.onclick=function(){svg.setCurrentTime(0);timer.clear();svg.unpauseAnimations();pause.innerHTML = "◼";};pause.onclick=function(){if(svg.animationsPaused()){svg.unpauseAnimations();timer.resume();pause.innerHTML="◼"}else{svg.pauseAnimations();timer.pause();pause.innerHTML="▶"}}]]></script></svg>