<svg id="kanjivg" width="106" height="126" xmlns="http://www.w3.org/2000/svg" xmlns:xlink="http://www.w3.org/1999/xlink" xml:space="preserve" version="1.1" baseProfile="full"><defs><style type="text/css"><![CDATA[path.black { fill:none;stroke:black;stroke-width:5;stroke-linecap:round;stroke-linejoin:round; }path.grey { fill:none;stroke:#ddd;stroke-width:5;stroke-linecap:round;stroke-linejoin:round; }path.stroke { fill:none;stroke:black;stroke-width:5;stroke-linecap:round;stroke-linejoin:round; }rect { fill:none;stroke:#555;stroke-width:2;} text{font-size:16px;font-family:Segoe UI Symbol,Cambria Math,DejaVu Sans,Symbola,Quivira,STIX,Code2000;-webkit-touch-callout:none;cursor:pointer;-webkit-user-select:none;-khtml-user-select:none;-moz-user-select:none;-ms-user-select:none;user-select: none;} #reset { font-weight:bold; }]]></style><marker id="markerStart" markerWidth="8" markerHeight="8" style="overflow:visible;"><circle cx="0" cy="0" r="1.5" style="stroke:none;fill:red;fill-opacity:0.5;"/></marker><marker id="markerEnd" style="overflow:visible;"><circle cx="0" cy="0" r="0.8" style="stroke:none;fill:blue;fill-opacity:0.5;"><animate attributeName="opacity" from="1" to="0" dur="3s" repeatCount="indefinite" /></circle></marker></defs><rect x="4" y="4" width="100" height="100" /><path d="M27.62,14.5C31.86,18.35,36.4,25.08,37,27" class="grey" /><path d="M49.5,11.5c1.78,2.24,6.04,8.11,6.75,11.75" class="grey" /><path d="M78.25,11.38c0.31,1.17,0.04,2.02-0.72,3.29c-1.6,2.64-5.07,6.81-8.27,9.84" class="grey" /><path d="M27.84,34.42c0.74,0.74,1.62,1.83,1.81,2.99c1.11,7.07,2.33,14.25,3.58,22.59c0.27,1.79,0.54,3.63,0.81,5.53" class="grey" /><path d="M30,35.64c12.75-1.67,34.38-3.91,44.27-4.89c4.19-0.41,7.11,1.25,6.41,5.01c-1.16,6.21-2.86,13.91-4.67,20.03c-0.48,1.63-0.97,3.14-1.46,4.48" class="grey" /><path d="M32.57,48.36c8.93-1.23,39.31-4.11,45.02-4.19" class="grey" /><path d="M34.66,61.04C46.38,60,61,58.62,74.38,57.71" class="grey" /><path d="M12.25,76.95c2.54,0.54,7.24,0.78,9.76,0.54c19.5-1.87,43.7-3.62,66.71-4.48c4.23-0.16,6.79,0.26,8.91,0.53" class="grey" /><path d="M52.99,35.86c0.89,0.89,1.59,2.19,1.6,3.48c0.04,5.51-0.01,38.66-0.03,53.79c0,2.88,0,5.11,0,6.39" class="grey" /><path d="M27.62,14.5C31.86,18.35,36.4,25.08,37,27" class="stroke" stroke-dasharray="150"><animate attributeName="stroke-dashoffset" from="150" to="0" dur="1.8s" begin="0s" fill="freeze" /></path><path d="M49.5,11.5c1.78,2.24,6.04,8.11,6.75,11.75" class="stroke" stroke-dasharray="150"><set attributeName="opacity" to="0" dur="0.9s" /><animate attributeName="stroke-dashoffset" from="150" to="0" dur="1.8s" begin="0.9s" fill="freeze" /></path><path d="M78.25,11.38c0.31,1.17,0.04,2.02-0.72,3.29c-1.6,2.64-5.07,6.81-8.27,9.84" class="stroke" stroke-dasharray="150"><set attributeName="opacity" to="0" dur="1.8s" /><animate attributeName="stroke-dashoffset" from="150" to="0" dur="1.8s" begin="1.8s" fill="freeze" /></path><path d="M27.84,34.42c0.74,0.74,1.62,1.83,1.81,2.99c1.11,7.07,2.33,14.25,3.58,22.59c0.27,1.79,0.54,3.63,0.81,5.53" class="stroke" stroke-dasharray="150"><set attributeName="opacity" to="0" dur="2.7s" /><animate attributeName="stroke-dashoffset" from="150" to="0" dur="1.8s" begin="2.7s" fill="freeze" /></path><path d="M30,35.64c12.75-1.67,34.38-3.91,44.27-4.89c4.19-0.41,7.11,1.25,6.41,5.01c-1.16,6.21-2.86,13.91-4.67,20.03c-0.48,1.63-0.97,3.14-1.46,4.48" class="stroke" stroke-dasharray="150"><set attributeName="opacity" to="0" dur="3.7s" /><animate attributeName="stroke-dashoffset" from="150" to="0" dur="1.8s" begin="3.7s" fill="freeze" /></path><path d="M32.57,48.36c8.93-1.23,39.31-4.11,45.02-4.19" class="stroke" stroke-dasharray="150"><set attributeName="opacity" to="0" dur="5.4s" /><animate attributeName="stroke-dashoffset" from="150" to="0" dur="1.8s" begin="5.4s" fill="freeze" /></path><path d="M34.66,61.04C46.38,60,61,58.62,74.38,57.71" class="stroke" stroke-dasharray="150"><set attributeName="opacity" to="0" dur="6.6000000000000005s" /><animate attributeName="stroke-dashoffset" from="150" to="0" dur="1.8s" begin="6.6000000000000005s" fill="freeze" /></path><path d="M12.25,76.95c2.54,0.54,7.24,0.78,9.76,0.54c19.5-1.87,43.7-3.62,66.71-4.48c4.23-0.16,6.79,0.26,8.91,0.53" class="stroke" stroke-dasharray="150"><set attributeName="opacity" to="0" dur="7.6000000000000005s" /><animate attributeName="stroke-dashoffset" from="150" to="0" dur="1.8s" begin="7.6000000000000005s" fill="freeze" /></path><path d="M52.99,35.86c0.89,0.89,1.59,2.19,1.6,3.48c0.04,5.51-0.01,38.66-0.03,53.79c0,2.88,0,5.11,0,6.39" class="stroke" stroke-dasharray="150"><set attributeName="opacity" to="0" dur="9.3s" /><animate attributeName="stroke-dashoffset" from="150" to="0" dur="1.8s" begin="9.3s" fill="freeze" /></path><text x="90" y="120" id="reset">⟳</text><text x="70" y="120" id="pause">◼</text><script type="text/javascript"><![CDATA[function RecurringTimer(e,t){var n,r,i=t;this.pause=function(){window.clearTimeout(n);i-=new Date-r};var s=function(){r=new Date;n=window.setTimeout(function(){i=t;s();e()},i)};this.clear=function(){window.clearTimeout(n);i=t;n=window.setTimeout(function(){i=t;s();e()},i)};this.resume=s;this.resume()}function invoketimer(){timer=new RecurringTimer(function(){svg.setCurrentTime(0)},11800)}var svg=document.getElementById("kanjivg");var pause=document.getElementById("pause");var reset=document.getElementById("reset");var timer;invoketimer();reset.onclick=function(){svg.setCurrentTime(0);timer.clear();svg.unpauseAnimations();pause.innerHTML = "◼";};pause.onclick=function(){if(svg.animationsPaused()){svg.unpauseAnimations();timer.resume();pause.innerHTML="◼"}else{svg.pauseAnimations();timer.pause();pause.innerHTML="▶"}}]]></script></svg>