<svg id="kanjivg" width="106" height="126" xmlns="http://www.w3.org/2000/svg" xmlns:xlink="http://www.w3.org/1999/xlink" xml:space="preserve" version="1.1" baseProfile="full"><defs><style type="text/css"><![CDATA[path.black { fill:none;stroke:black;stroke-width:5;stroke-linecap:round;stroke-linejoin:round; }path.grey { fill:none;stroke:#ddd;stroke-width:5;stroke-linecap:round;stroke-linejoin:round; }path.stroke { fill:none;stroke:black;stroke-width:5;stroke-linecap:round;stroke-linejoin:round; }rect { fill:none;stroke:#555;stroke-width:2;} text{font-size:16px;font-family:Segoe UI Symbol,Cambria Math,DejaVu Sans,Symbola,Quivira,STIX,Code2000;-webkit-touch-callout:none;cursor:pointer;-webkit-user-select:none;-khtml-user-select:none;-moz-user-select:none;-ms-user-select:none;user-select: none;} #reset { font-weight:bold; }]]></style><marker id="markerStart" markerWidth="8" markerHeight="8" style="overflow:visible;"><circle cx="0" cy="0" r="1.5" style="stroke:none;fill:red;fill-opacity:0.5;"/></marker><marker id="markerEnd" style="overflow:visible;"><circle cx="0" cy="0" r="0.8" style="stroke:none;fill:blue;fill-opacity:0.5;"><animate attributeName="opacity" from="1" to="0" dur="3s" repeatCount="indefinite" /></circle></marker></defs><rect x="4" y="4" width="100" height="100" /><path d="M29.25,15.75c3.39,3.23,7.02,8.88,7.5,10.5" class="grey" /><path d="M49.25,11.5c1.78,2.24,6.04,8.11,6.75,11.75" class="grey" /><path d="M76.45,11c0.53,0.75,1.07,1.5,0.8,3c-0.27,1.5-6.13,8.5-8,10.75" class="grey" /><path d="M28.59,34.42c0.35,0.51,0.36,0.85,0.56,1.49c1.6,5.22,3.64,19.43,4.65,29.12" class="grey" /><path d="M30.25,35.89c13.34-1.75,35.38-4.12,44.57-5.02c3.38-0.33,5.41,0.71,5.31,2.9c-0.24,5.22-4.49,23.57-5.09,25.75" class="grey" /><path d="M33.57,48.11c9.9-1.04,19.79-2.19,29.69-3.26c1.19-0.13,2.35-0.25,3.46-0.37" class="grey" /><path d="M34.41,61.54c11.61-1.66,28-2.56,40.71-3.58" class="grey" /><path d="M12.75,77.2c1.52,0.54,4.32,0.8,5.82,0.54c6.15-1.05,54.18-4.49,73.11-5.23c2.53-0.1,4.05,0.26,5.31,0.53" class="grey" /><path d="M53.24,35.61c0.67,0.38,1.09,1.44,1.1,2.73c0.04,6.56,0.2,58.54,0.22,60.68" class="grey" /><path d="M29.25,15.75c3.39,3.23,7.02,8.88,7.5,10.5" class="stroke" stroke-dasharray="150"><animate attributeName="stroke-dashoffset" from="150" to="0" dur="1.8s" begin="0s" fill="freeze" /></path><path d="M49.25,11.5c1.78,2.24,6.04,8.11,6.75,11.75" class="stroke" stroke-dasharray="150"><set attributeName="opacity" to="0" dur="0.9s" /><animate attributeName="stroke-dashoffset" from="150" to="0" dur="1.8s" begin="0.9s" fill="freeze" /></path><path d="M76.45,11c0.53,0.75,1.07,1.5,0.8,3c-0.27,1.5-6.13,8.5-8,10.75" class="stroke" stroke-dasharray="150"><set attributeName="opacity" to="0" dur="1.8s" /><animate attributeName="stroke-dashoffset" from="150" to="0" dur="1.8s" begin="1.8s" fill="freeze" /></path><path d="M28.59,34.42c0.35,0.51,0.36,0.85,0.56,1.49c1.6,5.22,3.64,19.43,4.65,29.12" class="stroke" stroke-dasharray="150"><set attributeName="opacity" to="0" dur="2.7s" /><animate attributeName="stroke-dashoffset" from="150" to="0" dur="1.8s" begin="2.7s" fill="freeze" /></path><path d="M30.25,35.89c13.34-1.75,35.38-4.12,44.57-5.02c3.38-0.33,5.41,0.71,5.31,2.9c-0.24,5.22-4.49,23.57-5.09,25.75" class="stroke" stroke-dasharray="150"><set attributeName="opacity" to="0" dur="3.7s" /><animate attributeName="stroke-dashoffset" from="150" to="0" dur="1.8s" begin="3.7s" fill="freeze" /></path><path d="M33.57,48.11c9.9-1.04,19.79-2.19,29.69-3.26c1.19-0.13,2.35-0.25,3.46-0.37" class="stroke" stroke-dasharray="150"><set attributeName="opacity" to="0" dur="5.4s" /><animate attributeName="stroke-dashoffset" from="150" to="0" dur="1.8s" begin="5.4s" fill="freeze" /></path><path d="M34.41,61.54c11.61-1.66,28-2.56,40.71-3.58" class="stroke" stroke-dasharray="150"><set attributeName="opacity" to="0" dur="6.4s" /><animate attributeName="stroke-dashoffset" from="150" to="0" dur="1.8s" begin="6.4s" fill="freeze" /></path><path d="M12.75,77.2c1.52,0.54,4.32,0.8,5.82,0.54c6.15-1.05,54.18-4.49,73.11-5.23c2.53-0.1,4.05,0.26,5.31,0.53" class="stroke" stroke-dasharray="150"><set attributeName="opacity" to="0" dur="7.5s" /><animate attributeName="stroke-dashoffset" from="150" to="0" dur="1.8s" begin="7.5s" fill="freeze" /></path><path d="M53.24,35.61c0.67,0.38,1.09,1.44,1.1,2.73c0.04,6.56,0.2,58.54,0.22,60.68" class="stroke" stroke-dasharray="150"><set attributeName="opacity" to="0" dur="9.2s" /><animate attributeName="stroke-dashoffset" from="150" to="0" dur="1.8s" begin="9.2s" fill="freeze" /></path><text x="90" y="120" id="reset">⟳</text><text x="70" y="120" id="pause">◼</text><script type="text/javascript"><![CDATA[function RecurringTimer(e,t){var n,r,i=t;this.pause=function(){window.clearTimeout(n);i-=new Date-r};var s=function(){r=new Date;n=window.setTimeout(function(){i=t;s();e()},i)};this.clear=function(){window.clearTimeout(n);i=t;n=window.setTimeout(function(){i=t;s();e()},i)};this.resume=s;this.resume()}function invoketimer(){timer=new RecurringTimer(function(){svg.setCurrentTime(0)},11700)}var svg=document.getElementById("kanjivg");var pause=document.getElementById("pause");var reset=document.getElementById("reset");var timer;invoketimer();reset.onclick=function(){svg.setCurrentTime(0);timer.clear();svg.unpauseAnimations();pause.innerHTML = "◼";};pause.onclick=function(){if(svg.animationsPaused()){svg.unpauseAnimations();timer.resume();pause.innerHTML="◼"}else{svg.pauseAnimations();timer.pause();pause.innerHTML="▶"}}]]></script></svg>