<svg id="kanjivg" width="106" height="126" xmlns="http://www.w3.org/2000/svg" xmlns:xlink="http://www.w3.org/1999/xlink" xml:space="preserve" version="1.1" baseProfile="full"><defs><style type="text/css"><![CDATA[path.black { fill:none;stroke:black;stroke-width:5;stroke-linecap:round;stroke-linejoin:round; }path.grey { fill:none;stroke:#ddd;stroke-width:5;stroke-linecap:round;stroke-linejoin:round; }path.stroke { fill:none;stroke:black;stroke-width:5;stroke-linecap:round;stroke-linejoin:round; }rect { fill:none;stroke:#555;stroke-width:2;} text{font-size:16px;font-family:Segoe UI Symbol,Cambria Math,DejaVu Sans,Symbola,Quivira,STIX,Code2000;-webkit-touch-callout:none;cursor:pointer;-webkit-user-select:none;-khtml-user-select:none;-moz-user-select:none;-ms-user-select:none;user-select: none;} #reset { font-weight:bold; }]]></style><marker id="markerStart" markerWidth="8" markerHeight="8" style="overflow:visible;"><circle cx="0" cy="0" r="1.5" style="stroke:none;fill:red;fill-opacity:0.5;"/></marker><marker id="markerEnd" style="overflow:visible;"><circle cx="0" cy="0" r="0.8" style="stroke:none;fill:blue;fill-opacity:0.5;"><animate attributeName="opacity" from="1" to="0" dur="3s" repeatCount="indefinite" /></circle></marker></defs><rect x="4" y="4" width="100" height="100" /><path d="M10.75,43.28c1.69,0.46,3.66,0.26,5.4,0.11c6.1-0.53,14.22-2.39,20.81-3.46c1.53-0.25,3.25-0.21,4.04-0.09" class="grey" /><path d="M25.62,17.5c0.88,0.88,1.46,2.48,1.46,3.5c0,8.41,0.02,47.7,0.03,67c0,3.08,0,5.64,0,7.5" class="grey" /><path d="M47.42,28.61c1.95,0.84,3.8,1.03,5.84,0.82c8.74-0.92,26.03-4.34,29.22-4.69c2.32-0.26,2.96,1.16,2.84,2.97c-0.34,4.76-5.96,18.49-9.57,21.71c-2.7,2.41-3.38,1.3-6.19-0.39" class="grey" /><path d="M66.37,12c0.47,1.09,0.64,2.25,0.4,3.64c-1.79,10.27-7.3,26.67-19.02,37.24" class="grey" /><path d="M35.82,70.33c0.86,0.41,3.76,0.66,4.69,0.49c6.14-1.14,16.76-3.12,19.28-3.43c1.88-0.23,2.4,1.04,2.3,2.65c-0.28,4.26-5.89,19.17-8.82,22.05c-2.21,2.17-2.8,1.12-5.01-0.35" class="grey" /><path d="M49.5,58.43c0.38,1.2,0.38,2.31,0.14,3.58c-1.76,9.46-4.89,24.87-17.51,33.56" class="grey" /><path d="M68.84,66.61c0.83,0.46,3.21,0.49,4.16,0.27c5.91-1.35,16.1-4.04,18.56-4.4c1.81-0.26,2.88,0.92,2.71,2.71c-0.89,9.05-5.52,22.3-9.22,27.71c-1.84,2.68-2.56,1.35-4.81-0.39" class="grey" /><path d="M80.53,55.43c0.6,0.95,0.59,2.15,0.39,3.49c-1.42,9.46-6.04,26.83-19.42,35.83" class="grey" /><path d="M10.75,43.28c1.69,0.46,3.66,0.26,5.4,0.11c6.1-0.53,14.22-2.39,20.81-3.46c1.53-0.25,3.25-0.21,4.04-0.09" class="stroke" stroke-dasharray="150"><animate attributeName="stroke-dashoffset" from="150" to="0" dur="1.8s" begin="0s" fill="freeze" /></path><path d="M25.62,17.5c0.88,0.88,1.46,2.48,1.46,3.5c0,8.41,0.02,47.7,0.03,67c0,3.08,0,5.64,0,7.5" class="stroke" stroke-dasharray="150"><set attributeName="opacity" to="0" dur="1.0s" /><animate attributeName="stroke-dashoffset" from="150" to="0" dur="1.8s" begin="1.0s" fill="freeze" /></path><path d="M47.42,28.61c1.95,0.84,3.8,1.03,5.84,0.82c8.74-0.92,26.03-4.34,29.22-4.69c2.32-0.26,2.96,1.16,2.84,2.97c-0.34,4.76-5.96,18.49-9.57,21.71c-2.7,2.41-3.38,1.3-6.19-0.39" class="stroke" stroke-dasharray="150"><set attributeName="opacity" to="0" dur="2.7s" /><animate attributeName="stroke-dashoffset" from="150" to="0" dur="1.8s" begin="2.7s" fill="freeze" /></path><path d="M66.37,12c0.47,1.09,0.64,2.25,0.4,3.64c-1.79,10.27-7.3,26.67-19.02,37.24" class="stroke" stroke-dasharray="150"><set attributeName="opacity" to="0" dur="4.4s" /><animate attributeName="stroke-dashoffset" from="150" to="0" dur="1.8s" begin="4.4s" fill="freeze" /></path><path d="M35.82,70.33c0.86,0.41,3.76,0.66,4.69,0.49c6.14-1.14,16.76-3.12,19.28-3.43c1.88-0.23,2.4,1.04,2.3,2.65c-0.28,4.26-5.89,19.17-8.82,22.05c-2.21,2.17-2.8,1.12-5.01-0.35" class="stroke" stroke-dasharray="150"><set attributeName="opacity" to="0" dur="5.6000000000000005s" /><animate attributeName="stroke-dashoffset" from="150" to="0" dur="1.8s" begin="5.6000000000000005s" fill="freeze" /></path><path d="M49.5,58.43c0.38,1.2,0.38,2.31,0.14,3.58c-1.76,9.46-4.89,24.87-17.51,33.56" class="stroke" stroke-dasharray="150"><set attributeName="opacity" to="0" dur="7.0s" /><animate attributeName="stroke-dashoffset" from="150" to="0" dur="1.8s" begin="7.0s" fill="freeze" /></path><path d="M68.84,66.61c0.83,0.46,3.21,0.49,4.16,0.27c5.91-1.35,16.1-4.04,18.56-4.4c1.81-0.26,2.88,0.92,2.71,2.71c-0.89,9.05-5.52,22.3-9.22,27.71c-1.84,2.68-2.56,1.35-4.81-0.39" class="stroke" stroke-dasharray="150"><set attributeName="opacity" to="0" dur="8.1s" /><animate attributeName="stroke-dashoffset" from="150" to="0" dur="1.8s" begin="8.1s" fill="freeze" /></path><path d="M80.53,55.43c0.6,0.95,0.59,2.15,0.39,3.49c-1.42,9.46-6.04,26.83-19.42,35.83" class="stroke" stroke-dasharray="150"><set attributeName="opacity" to="0" dur="9.6s" /><animate attributeName="stroke-dashoffset" from="150" to="0" dur="1.8s" begin="9.6s" fill="freeze" /></path><text x="90" y="120" id="reset">⟳</text><text x="70" y="120" id="pause">◼</text><script type="text/javascript"><![CDATA[function RecurringTimer(e,t){var n,r,i=t;this.pause=function(){window.clearTimeout(n);i-=new Date-r};var s=function(){r=new Date;n=window.setTimeout(function(){i=t;s();e()},i)};this.clear=function(){window.clearTimeout(n);i=t;n=window.setTimeout(function(){i=t;s();e()},i)};this.resume=s;this.resume()}function invoketimer(){timer=new RecurringTimer(function(){svg.setCurrentTime(0)},11799)}var svg=document.getElementById("kanjivg");var pause=document.getElementById("pause");var reset=document.getElementById("reset");var timer;invoketimer();reset.onclick=function(){svg.setCurrentTime(0);timer.clear();svg.unpauseAnimations();pause.innerHTML = "◼";};pause.onclick=function(){if(svg.animationsPaused()){svg.unpauseAnimations();timer.resume();pause.innerHTML="◼"}else{svg.pauseAnimations();timer.pause();pause.innerHTML="▶"}}]]></script></svg>