<svg id="kanjivg" width="106" height="126" xmlns="http://www.w3.org/2000/svg" xmlns:xlink="http://www.w3.org/1999/xlink" xml:space="preserve" version="1.1" baseProfile="full"><defs><style type="text/css"><![CDATA[path.black { fill:none;stroke:black;stroke-width:5;stroke-linecap:round;stroke-linejoin:round; }path.grey { fill:none;stroke:#ddd;stroke-width:5;stroke-linecap:round;stroke-linejoin:round; }path.stroke { fill:none;stroke:black;stroke-width:5;stroke-linecap:round;stroke-linejoin:round; }rect { fill:none;stroke:#555;stroke-width:2;} text{font-size:16px;font-family:Segoe UI Symbol,Cambria Math,DejaVu Sans,Symbola,Quivira,STIX,Code2000;-webkit-touch-callout:none;cursor:pointer;-webkit-user-select:none;-khtml-user-select:none;-moz-user-select:none;-ms-user-select:none;user-select: none;} #reset { font-weight:bold; }]]></style><marker id="markerStart" markerWidth="8" markerHeight="8" style="overflow:visible;"><circle cx="0" cy="0" r="1.5" style="stroke:none;fill:red;fill-opacity:0.5;"/></marker><marker id="markerEnd" style="overflow:visible;"><circle cx="0" cy="0" r="0.8" style="stroke:none;fill:blue;fill-opacity:0.5;"><animate attributeName="opacity" from="1" to="0" dur="3s" repeatCount="indefinite" /></circle></marker></defs><rect x="4" y="4" width="100" height="100" /><path d="M22.1,29.68c1.92,0.36,3.85,0.48,5.8,0.36c8.04-0.71,13.77-1.82,20.09-2.75c2.01-0.31,4.03-0.48,6.07-0.51" class="grey" /><path d="M37.03,11.5c0.98,0.98,1.23,2.5,1.23,3.92c0,13-0.01,14.01-0.01,31.2" class="grey" /><path d="M15.13,49.73c2.87,0.72,5.7,0.48,8.62,0.02c10.74-1.69,19.88-2.87,30-3.51c2.33-0.15,5.11-0.24,7.38,0.33" class="grey" /><path d="M21.54,70.68c2.21,0.79,4.45,0.65,6.84,0.37c7.47-0.88,16.12-2.3,22.63-3.37c1.92-0.32,4.21-0.38,6.06,0.11" class="grey" /><path d="M38.18,53.12c0.79,0.79,1.02,2.01,1.02,3.39c0,12-0.08,16.26-0.08,32.12" class="grey" /><path d="M16.63,96.22c1.25,0.65,2.81,0.62,3.79,0.25C35.5,90.88,40.75,89,57.31,82.7" class="grey" /><path d="M69.81,11.38c1.28,1.28,1.26,2.87,1.26,4.25c0,0.73,0,49.94,0,72.37c0,5.46,0,9.36,0,10.63" class="grey" /><path d="M74.38,44c7.88,4.38,18.33,11.16,20.38,17.88" class="grey" /><path d="M22.1,29.68c1.92,0.36,3.85,0.48,5.8,0.36c8.04-0.71,13.77-1.82,20.09-2.75c2.01-0.31,4.03-0.48,6.07-0.51" class="stroke" stroke-dasharray="150"><animate attributeName="stroke-dashoffset" from="150" to="0" dur="1.8s" begin="0s" fill="freeze" /></path><path d="M37.03,11.5c0.98,0.98,1.23,2.5,1.23,3.92c0,13-0.01,14.01-0.01,31.2" class="stroke" stroke-dasharray="150"><set attributeName="opacity" to="0" dur="1.0s" /><animate attributeName="stroke-dashoffset" from="150" to="0" dur="1.8s" begin="1.0s" fill="freeze" /></path><path d="M15.13,49.73c2.87,0.72,5.7,0.48,8.62,0.02c10.74-1.69,19.88-2.87,30-3.51c2.33-0.15,5.11-0.24,7.38,0.33" class="stroke" stroke-dasharray="150"><set attributeName="opacity" to="0" dur="2.0s" /><animate attributeName="stroke-dashoffset" from="150" to="0" dur="1.8s" begin="2.0s" fill="freeze" /></path><path d="M21.54,70.68c2.21,0.79,4.45,0.65,6.84,0.37c7.47-0.88,16.12-2.3,22.63-3.37c1.92-0.32,4.21-0.38,6.06,0.11" class="stroke" stroke-dasharray="150"><set attributeName="opacity" to="0" dur="3.2s" /><animate attributeName="stroke-dashoffset" from="150" to="0" dur="1.8s" begin="3.2s" fill="freeze" /></path><path d="M38.18,53.12c0.79,0.79,1.02,2.01,1.02,3.39c0,12-0.08,16.26-0.08,32.12" class="stroke" stroke-dasharray="150"><set attributeName="opacity" to="0" dur="4.2s" /><animate attributeName="stroke-dashoffset" from="150" to="0" dur="1.8s" begin="4.2s" fill="freeze" /></path><path d="M16.63,96.22c1.25,0.65,2.81,0.62,3.79,0.25C35.5,90.88,40.75,89,57.31,82.7" class="stroke" stroke-dasharray="150"><set attributeName="opacity" to="0" dur="5.2s" /><animate attributeName="stroke-dashoffset" from="150" to="0" dur="1.8s" begin="5.2s" fill="freeze" /></path><path d="M69.81,11.38c1.28,1.28,1.26,2.87,1.26,4.25c0,0.73,0,49.94,0,72.37c0,5.46,0,9.36,0,10.63" class="stroke" stroke-dasharray="150"><set attributeName="opacity" to="0" dur="6.300000000000001s" /><animate attributeName="stroke-dashoffset" from="150" to="0" dur="1.8s" begin="6.300000000000001s" fill="freeze" /></path><path d="M74.38,44c7.88,4.38,18.33,11.16,20.38,17.88" class="stroke" stroke-dasharray="150"><set attributeName="opacity" to="0" dur="8.0s" /><animate attributeName="stroke-dashoffset" from="150" to="0" dur="1.8s" begin="8.0s" fill="freeze" /></path><text x="90" y="120" id="reset">⟳</text><text x="70" y="120" id="pause">◼</text><script type="text/javascript"><![CDATA[function RecurringTimer(e,t){var n,r,i=t;this.pause=function(){window.clearTimeout(n);i-=new Date-r};var s=function(){r=new Date;n=window.setTimeout(function(){i=t;s();e()},i)};this.clear=function(){window.clearTimeout(n);i=t;n=window.setTimeout(function(){i=t;s();e()},i)};this.resume=s;this.resume()}function invoketimer(){timer=new RecurringTimer(function(){svg.setCurrentTime(0)},10000)}var svg=document.getElementById("kanjivg");var pause=document.getElementById("pause");var reset=document.getElementById("reset");var timer;invoketimer();reset.onclick=function(){svg.setCurrentTime(0);timer.clear();svg.unpauseAnimations();pause.innerHTML = "◼";};pause.onclick=function(){if(svg.animationsPaused()){svg.unpauseAnimations();timer.resume();pause.innerHTML="◼"}else{svg.pauseAnimations();timer.pause();pause.innerHTML="▶"}}]]></script></svg>