<svg id="kanjivg" width="106" height="126" xmlns="http://www.w3.org/2000/svg" xmlns:xlink="http://www.w3.org/1999/xlink" xml:space="preserve" version="1.1" baseProfile="full"><defs><style type="text/css"><![CDATA[path.black { fill:none;stroke:black;stroke-width:5;stroke-linecap:round;stroke-linejoin:round; }path.grey { fill:none;stroke:#ddd;stroke-width:5;stroke-linecap:round;stroke-linejoin:round; }path.stroke { fill:none;stroke:black;stroke-width:5;stroke-linecap:round;stroke-linejoin:round; }rect { fill:none;stroke:#555;stroke-width:2;} text{font-size:16px;font-family:Segoe UI Symbol,Cambria Math,DejaVu Sans,Symbola,Quivira,STIX,Code2000;-webkit-touch-callout:none;cursor:pointer;-webkit-user-select:none;-khtml-user-select:none;-moz-user-select:none;-ms-user-select:none;user-select: none;} #reset { font-weight:bold; }]]></style><marker id="markerStart" markerWidth="8" markerHeight="8" style="overflow:visible;"><circle cx="0" cy="0" r="1.5" style="stroke:none;fill:red;fill-opacity:0.5;"/></marker><marker id="markerEnd" style="overflow:visible;"><circle cx="0" cy="0" r="0.8" style="stroke:none;fill:blue;fill-opacity:0.5;"><animate attributeName="opacity" from="1" to="0" dur="3s" repeatCount="indefinite" /></circle></marker></defs><rect x="4" y="4" width="100" height="100" /><path d="M37.76,15.64c0.05,0.44,0.1,1.15-0.1,1.78c-1.14,3.76-7.42,10.17-16.6,17.04" class="grey" /><path d="M69.77,15.08c5.32,2.23,12.96,8.66,14.29,12.13" class="grey" /><path d="M33.25,32.89c0.94,0.38,2.66,0.49,3.6,0.38c5.98-0.66,26.65-3.52,34.11-3.88c1.56-0.08,2.5,0.18,3.29,0.37" class="grey" /><path d="M17.25,49.7c1.52,0.54,4.31,0.69,5.82,0.54c7.68-0.74,48.68-5.99,64.61-6.23c2.53-0.04,4.05,0.26,5.31,0.53" class="grey" /><path d="M53.21,11.75c0.78,0.95,1.27,2.37,0.83,4.49C51.38,28.86,42.48,61.42,14.5,74.25" class="grey" /><path d="M58,36.5c2.5,0.5,25.88,23.6,31.26,27.65c1.83,1.38,4.17,1.96,5.99,2.35" class="grey" /><path d="M39.65,63.22c0.68,0.11,2.48,0.34,3.86,0.25c5.36-0.34,20.72-3.8,22.54-4.19c2.73-0.59,4.5,1.03,4.39,3.39c-0.18,4.01-1.51,11.49-5.1,17.86c-2.62,4.65-4.94,0.56-5.45,0.34" class="grey" /><path d="M40.87,63.57c0.92,1.37,0.75,2.56,0.75,4.67c0,12.58,0.27,9.82,0.27,16.22c0,12.86,2.55,13.25,21.96,13.25c20.16,0,22.78-1.08,22.78-10.49" class="grey" /><path d="M37.76,15.64c0.05,0.44,0.1,1.15-0.1,1.78c-1.14,3.76-7.42,10.17-16.6,17.04" class="stroke" stroke-dasharray="150"><animate attributeName="stroke-dashoffset" from="150" to="0" dur="1.8s" begin="0s" fill="freeze" /></path><path d="M69.77,15.08c5.32,2.23,12.96,8.66,14.29,12.13" class="stroke" stroke-dasharray="150"><set attributeName="opacity" to="0" dur="1.0s" /><animate attributeName="stroke-dashoffset" from="150" to="0" dur="1.8s" begin="1.0s" fill="freeze" /></path><path d="M33.25,32.89c0.94,0.38,2.66,0.49,3.6,0.38c5.98-0.66,26.65-3.52,34.11-3.88c1.56-0.08,2.5,0.18,3.29,0.37" class="stroke" stroke-dasharray="150"><set attributeName="opacity" to="0" dur="1.9s" /><animate attributeName="stroke-dashoffset" from="150" to="0" dur="1.8s" begin="1.9s" fill="freeze" /></path><path d="M17.25,49.7c1.52,0.54,4.31,0.69,5.82,0.54c7.68-0.74,48.68-5.99,64.61-6.23c2.53-0.04,4.05,0.26,5.31,0.53" class="stroke" stroke-dasharray="150"><set attributeName="opacity" to="0" dur="3.0s" /><animate attributeName="stroke-dashoffset" from="150" to="0" dur="1.8s" begin="3.0s" fill="freeze" /></path><path d="M53.21,11.75c0.78,0.95,1.27,2.37,0.83,4.49C51.38,28.86,42.48,61.42,14.5,74.25" class="stroke" stroke-dasharray="150"><set attributeName="opacity" to="0" dur="4.7s" /><animate attributeName="stroke-dashoffset" from="150" to="0" dur="1.8s" begin="4.7s" fill="freeze" /></path><path d="M58,36.5c2.5,0.5,25.88,23.6,31.26,27.65c1.83,1.38,4.17,1.96,5.99,2.35" class="stroke" stroke-dasharray="150"><set attributeName="opacity" to="0" dur="6.4s" /><animate attributeName="stroke-dashoffset" from="150" to="0" dur="1.8s" begin="6.4s" fill="freeze" /></path><path d="M39.65,63.22c0.68,0.11,2.48,0.34,3.86,0.25c5.36-0.34,20.72-3.8,22.54-4.19c2.73-0.59,4.5,1.03,4.39,3.39c-0.18,4.01-1.51,11.49-5.1,17.86c-2.62,4.65-4.94,0.56-5.45,0.34" class="stroke" stroke-dasharray="150"><set attributeName="opacity" to="0" dur="7.6000000000000005s" /><animate attributeName="stroke-dashoffset" from="150" to="0" dur="1.8s" begin="7.6000000000000005s" fill="freeze" /></path><path d="M40.87,63.57c0.92,1.37,0.75,2.56,0.75,4.67c0,12.58,0.27,9.82,0.27,16.22c0,12.86,2.55,13.25,21.96,13.25c20.16,0,22.78-1.08,22.78-10.49" class="stroke" stroke-dasharray="150"><set attributeName="opacity" to="0" dur="9.0s" /><animate attributeName="stroke-dashoffset" from="150" to="0" dur="1.8s" begin="9.0s" fill="freeze" /></path><text x="90" y="120" id="reset">⟳</text><text x="70" y="120" id="pause">◼</text><script type="text/javascript"><![CDATA[function RecurringTimer(e,t){var n,r,i=t;this.pause=function(){window.clearTimeout(n);i-=new Date-r};var s=function(){r=new Date;n=window.setTimeout(function(){i=t;s();e()},i)};this.clear=function(){window.clearTimeout(n);i=t;n=window.setTimeout(function(){i=t;s();e()},i)};this.resume=s;this.resume()}function invoketimer(){timer=new RecurringTimer(function(){svg.setCurrentTime(0)},11700)}var svg=document.getElementById("kanjivg");var pause=document.getElementById("pause");var reset=document.getElementById("reset");var timer;invoketimer();reset.onclick=function(){svg.setCurrentTime(0);timer.clear();svg.unpauseAnimations();pause.innerHTML = "◼";};pause.onclick=function(){if(svg.animationsPaused()){svg.unpauseAnimations();timer.resume();pause.innerHTML="◼"}else{svg.pauseAnimations();timer.pause();pause.innerHTML="▶"}}]]></script></svg>