<svg id="kanjivg" width="106" height="126" xmlns="http://www.w3.org/2000/svg" xmlns:xlink="http://www.w3.org/1999/xlink" xml:space="preserve" version="1.1" baseProfile="full"><defs><style type="text/css"><![CDATA[path.black { fill:none;stroke:black;stroke-width:5;stroke-linecap:round;stroke-linejoin:round; }path.grey { fill:none;stroke:#ddd;stroke-width:5;stroke-linecap:round;stroke-linejoin:round; }path.stroke { fill:none;stroke:black;stroke-width:5;stroke-linecap:round;stroke-linejoin:round; }rect { fill:none;stroke:#555;stroke-width:2;} text{font-size:16px;font-family:Segoe UI Symbol,Cambria Math,DejaVu Sans,Symbola,Quivira,STIX,Code2000;-webkit-touch-callout:none;cursor:pointer;-webkit-user-select:none;-khtml-user-select:none;-moz-user-select:none;-ms-user-select:none;user-select: none;} #reset { font-weight:bold; }]]></style><marker id="markerStart" markerWidth="8" markerHeight="8" style="overflow:visible;"><circle cx="0" cy="0" r="1.5" style="stroke:none;fill:red;fill-opacity:0.5;"/></marker><marker id="markerEnd" style="overflow:visible;"><circle cx="0" cy="0" r="0.8" style="stroke:none;fill:blue;fill-opacity:0.5;"><animate attributeName="opacity" from="1" to="0" dur="3s" repeatCount="indefinite" /></circle></marker></defs><rect x="4" y="4" width="100" height="100" /><path d="M40.82,16c0.05,0.33,0.21,0.94-0.11,1.3C36.84,21.89,31.1,26.1,21,29.79" class="grey" /><path d="M18.37,30.01c0.85,0.46,1.36,2.07,1.53,2.99c0.17,0.92,0.36,26.44,0.17,28.72c-0.17,2.07,0.51,0.92-0.51,3.22c-1.02,2.3-1.02,2.76,1.02,1.15C22.61,64.48,38,55.75,44,53.75" class="grey" /><path d="M43.97,30.93c0.78,0.82,1.42,4.28,1.42,6.39c0,16.44,0.61,40.44-15.5,56.34" class="grey" /><path d="M29.27,38.33c2.31,1.92,5.97,7.9,6.54,10.88" class="grey" /><path d="M61.75,25.74c0.86,0.21,2.57,1.5,4.28,1.28c1.71-0.21,20.76-2.64,22.9-2.85c2.14-0.21,5.35-0.43,5.56,4.07c0.1,2.15-1.7,26.56-3.92,36.38C88,76,83.94,66.69,83.3,66.26" class="grey" /><path d="M64.22,27.86c0.03,7.39,0,60.84-0.2,66.64" class="grey" /><path d="M73.52,38.83c2.4,2.27,6.19,9.35,6.79,12.88" class="grey" /><path d="M40.82,16c0.05,0.33,0.21,0.94-0.11,1.3C36.84,21.89,31.1,26.1,21,29.79" class="stroke" stroke-dasharray="150"><animate attributeName="stroke-dashoffset" from="150" to="0" dur="1.8s" begin="0s" fill="freeze" /></path><path d="M18.37,30.01c0.85,0.46,1.36,2.07,1.53,2.99c0.17,0.92,0.36,26.44,0.17,28.72c-0.17,2.07,0.51,0.92-0.51,3.22c-1.02,2.3-1.02,2.76,1.02,1.15C22.61,64.48,38,55.75,44,53.75" class="stroke" stroke-dasharray="150"><set attributeName="opacity" to="0" dur="1.0s" /><animate attributeName="stroke-dashoffset" from="150" to="0" dur="1.8s" begin="1.0s" fill="freeze" /></path><path d="M43.97,30.93c0.78,0.82,1.42,4.28,1.42,6.39c0,16.44,0.61,40.44-15.5,56.34" class="stroke" stroke-dasharray="150"><set attributeName="opacity" to="0" dur="2.5s" /><animate attributeName="stroke-dashoffset" from="150" to="0" dur="1.8s" begin="2.5s" fill="freeze" /></path><path d="M29.27,38.33c2.31,1.92,5.97,7.9,6.54,10.88" class="stroke" stroke-dasharray="150"><set attributeName="opacity" to="0" dur="4.0s" /><animate attributeName="stroke-dashoffset" from="150" to="0" dur="1.8s" begin="4.0s" fill="freeze" /></path><path d="M61.75,25.74c0.86,0.21,2.57,1.5,4.28,1.28c1.71-0.21,20.76-2.64,22.9-2.85c2.14-0.21,5.35-0.43,5.56,4.07c0.1,2.15-1.7,26.56-3.92,36.38C88,76,83.94,66.69,83.3,66.26" class="stroke" stroke-dasharray="150"><set attributeName="opacity" to="0" dur="4.9s" /><animate attributeName="stroke-dashoffset" from="150" to="0" dur="1.8s" begin="4.9s" fill="freeze" /></path><path d="M64.22,27.86c0.03,7.39,0,60.84-0.2,66.64" class="stroke" stroke-dasharray="150"><set attributeName="opacity" to="0" dur="6.6000000000000005s" /><animate attributeName="stroke-dashoffset" from="150" to="0" dur="1.8s" begin="6.6000000000000005s" fill="freeze" /></path><path d="M73.52,38.83c2.4,2.27,6.19,9.35,6.79,12.88" class="stroke" stroke-dasharray="150"><set attributeName="opacity" to="0" dur="8.100000000000001s" /><animate attributeName="stroke-dashoffset" from="150" to="0" dur="1.8s" begin="8.100000000000001s" fill="freeze" /></path><text x="90" y="120" id="reset">⟳</text><text x="70" y="120" id="pause">◼</text><script type="text/javascript"><![CDATA[function RecurringTimer(e,t){var n,r,i=t;this.pause=function(){window.clearTimeout(n);i-=new Date-r};var s=function(){r=new Date;n=window.setTimeout(function(){i=t;s();e()},i)};this.clear=function(){window.clearTimeout(n);i=t;n=window.setTimeout(function(){i=t;s();e()},i)};this.resume=s;this.resume()}function invoketimer(){timer=new RecurringTimer(function(){svg.setCurrentTime(0)},10000)}var svg=document.getElementById("kanjivg");var pause=document.getElementById("pause");var reset=document.getElementById("reset");var timer;invoketimer();reset.onclick=function(){svg.setCurrentTime(0);timer.clear();svg.unpauseAnimations();pause.innerHTML = "◼";};pause.onclick=function(){if(svg.animationsPaused()){svg.unpauseAnimations();timer.resume();pause.innerHTML="◼"}else{svg.pauseAnimations();timer.pause();pause.innerHTML="▶"}}]]></script></svg>