<svg id="kanjivg" width="106" height="126" xmlns="http://www.w3.org/2000/svg" xmlns:xlink="http://www.w3.org/1999/xlink" xml:space="preserve" version="1.1" baseProfile="full"><defs><style type="text/css"><![CDATA[path.black { fill:none;stroke:black;stroke-width:5;stroke-linecap:round;stroke-linejoin:round; }path.grey { fill:none;stroke:#ddd;stroke-width:5;stroke-linecap:round;stroke-linejoin:round; }path.stroke { fill:none;stroke:black;stroke-width:5;stroke-linecap:round;stroke-linejoin:round; }rect { fill:none;stroke:#555;stroke-width:2;} text{font-size:16px;font-family:Segoe UI Symbol,Cambria Math,DejaVu Sans,Symbola,Quivira,STIX,Code2000;-webkit-touch-callout:none;cursor:pointer;-webkit-user-select:none;-khtml-user-select:none;-moz-user-select:none;-ms-user-select:none;user-select: none;} #reset { font-weight:bold; }]]></style><marker id="markerStart" markerWidth="8" markerHeight="8" style="overflow:visible;"><circle cx="0" cy="0" r="1.5" style="stroke:none;fill:red;fill-opacity:0.5;"/></marker><marker id="markerEnd" style="overflow:visible;"><circle cx="0" cy="0" r="0.8" style="stroke:none;fill:blue;fill-opacity:0.5;"><animate attributeName="opacity" from="1" to="0" dur="3s" repeatCount="indefinite" /></circle></marker></defs><rect x="4" y="4" width="100" height="100" /><path d="M18.08,32.59c1.38,0.68,3.98,0.46,5.46,0.32c7.09-0.66,16.34-2.66,25.32-3.86c1.57-0.21,3.01-0.31,4.51-0.08" class="grey" /><path d="M36.8,13.25c0.85,0.85,1.13,2.11,1.13,3.77c0,8.98-0.05,29.01-0.05,31.73" class="grey" /><path d="M13.25,52.75c2.75,0.88,5.62,0.44,7.9,0.07c10.07-1.63,21.89-3.96,30.36-4.79c2.44-0.24,4.85-0.52,7.23,0.19" class="grey" /><path d="M36.47,53.88c0.16,1.37,0.03,2.24-0.71,3.53c-4.82,8.33-8.12,12.61-13.49,19.6c-1.68,2.19-1.18,3.96,1.5,3.16c7.11-2.13,16.06-4.88,26.36-8.15" class="grey" /><path d="M45.15,62.85c3.56,2.85,9.21,11.72,10.1,16.15" class="grey" /><path d="M66.24,28.27c1.51,0.48,4.03,0.62,5.4,0.5c2.86-0.27,16.26-2.72,17.95-3.03c3.29-0.61,5.12,0.52,4.92,3.45c-0.64,9.45-2.89,28.45-6.66,40.61c-2.75,8.88-6.96,1.54-7.47,1.12" class="grey" /><path d="M67.8,29.31c1.01,1.01,1.06,2.19,1.06,3.69c0,8.64,0.01,39.64,0.01,54.87c0,4.28,0,7.28,0,8.12" class="grey" /><path d="M18.08,32.59c1.38,0.68,3.98,0.46,5.46,0.32c7.09-0.66,16.34-2.66,25.32-3.86c1.57-0.21,3.01-0.31,4.51-0.08" class="stroke" stroke-dasharray="150"><animate attributeName="stroke-dashoffset" from="150" to="0" dur="1.8s" begin="0s" fill="freeze" /></path><path d="M36.8,13.25c0.85,0.85,1.13,2.11,1.13,3.77c0,8.98-0.05,29.01-0.05,31.73" class="stroke" stroke-dasharray="150"><set attributeName="opacity" to="0" dur="1.0s" /><animate attributeName="stroke-dashoffset" from="150" to="0" dur="1.8s" begin="1.0s" fill="freeze" /></path><path d="M13.25,52.75c2.75,0.88,5.62,0.44,7.9,0.07c10.07-1.63,21.89-3.96,30.36-4.79c2.44-0.24,4.85-0.52,7.23,0.19" class="stroke" stroke-dasharray="150"><set attributeName="opacity" to="0" dur="2.0s" /><animate attributeName="stroke-dashoffset" from="150" to="0" dur="1.8s" begin="2.0s" fill="freeze" /></path><path d="M36.47,53.88c0.16,1.37,0.03,2.24-0.71,3.53c-4.82,8.33-8.12,12.61-13.49,19.6c-1.68,2.19-1.18,3.96,1.5,3.16c7.11-2.13,16.06-4.88,26.36-8.15" class="stroke" stroke-dasharray="150"><set attributeName="opacity" to="0" dur="3.2s" /><animate attributeName="stroke-dashoffset" from="150" to="0" dur="1.8s" begin="3.2s" fill="freeze" /></path><path d="M45.15,62.85c3.56,2.85,9.21,11.72,10.1,16.15" class="stroke" stroke-dasharray="150"><set attributeName="opacity" to="0" dur="4.7s" /><animate attributeName="stroke-dashoffset" from="150" to="0" dur="1.8s" begin="4.7s" fill="freeze" /></path><path d="M66.24,28.27c1.51,0.48,4.03,0.62,5.4,0.5c2.86-0.27,16.26-2.72,17.95-3.03c3.29-0.61,5.12,0.52,4.92,3.45c-0.64,9.45-2.89,28.45-6.66,40.61c-2.75,8.88-6.96,1.54-7.47,1.12" class="stroke" stroke-dasharray="150"><set attributeName="opacity" to="0" dur="5.6000000000000005s" /><animate attributeName="stroke-dashoffset" from="150" to="0" dur="1.8s" begin="5.6000000000000005s" fill="freeze" /></path><path d="M67.8,29.31c1.01,1.01,1.06,2.19,1.06,3.69c0,8.64,0.01,39.64,0.01,54.87c0,4.28,0,7.28,0,8.12" class="stroke" stroke-dasharray="150"><set attributeName="opacity" to="0" dur="7.300000000000001s" /><animate attributeName="stroke-dashoffset" from="150" to="0" dur="1.8s" begin="7.300000000000001s" fill="freeze" /></path><text x="90" y="120" id="reset">⟳</text><text x="70" y="120" id="pause">◼</text><script type="text/javascript"><![CDATA[function RecurringTimer(e,t){var n,r,i=t;this.pause=function(){window.clearTimeout(n);i-=new Date-r};var s=function(){r=new Date;n=window.setTimeout(function(){i=t;s();e()},i)};this.clear=function(){window.clearTimeout(n);i=t;n=window.setTimeout(function(){i=t;s();e()},i)};this.resume=s;this.resume()}function invoketimer(){timer=new RecurringTimer(function(){svg.setCurrentTime(0)},9800)}var svg=document.getElementById("kanjivg");var pause=document.getElementById("pause");var reset=document.getElementById("reset");var timer;invoketimer();reset.onclick=function(){svg.setCurrentTime(0);timer.clear();svg.unpauseAnimations();pause.innerHTML = "◼";};pause.onclick=function(){if(svg.animationsPaused()){svg.unpauseAnimations();timer.resume();pause.innerHTML="◼"}else{svg.pauseAnimations();timer.pause();pause.innerHTML="▶"}}]]></script></svg>