<svg id="kanjivg" width="106" height="126" xmlns="http://www.w3.org/2000/svg" xmlns:xlink="http://www.w3.org/1999/xlink" xml:space="preserve" version="1.1" baseProfile="full"><defs><style type="text/css"><![CDATA[path.black { fill:none;stroke:black;stroke-width:5;stroke-linecap:round;stroke-linejoin:round; }path.grey { fill:none;stroke:#ddd;stroke-width:5;stroke-linecap:round;stroke-linejoin:round; }path.stroke { fill:none;stroke:black;stroke-width:5;stroke-linecap:round;stroke-linejoin:round; }rect { fill:none;stroke:#555;stroke-width:2;} text{font-size:16px;font-family:Segoe UI Symbol,Cambria Math,DejaVu Sans,Symbola,Quivira,STIX,Code2000;-webkit-touch-callout:none;cursor:pointer;-webkit-user-select:none;-khtml-user-select:none;-moz-user-select:none;-ms-user-select:none;user-select: none;} #reset { font-weight:bold; }]]></style><marker id="markerStart" markerWidth="8" markerHeight="8" style="overflow:visible;"><circle cx="0" cy="0" r="1.5" style="stroke:none;fill:red;fill-opacity:0.5;"/></marker><marker id="markerEnd" style="overflow:visible;"><circle cx="0" cy="0" r="0.8" style="stroke:none;fill:blue;fill-opacity:0.5;"><animate attributeName="opacity" from="1" to="0" dur="3s" repeatCount="indefinite" /></circle></marker></defs><rect x="4" y="4" width="100" height="100" /><path d="M16.01,17.26c1.49,0.87,2.82,1.2,5.29,0.87c5.54-0.74,15.21-1.97,19.6-2.5c2.89-0.35,4.54,0.87,4.54,3.25c0,5.11-0.63,15.26-1.35,22.65c-0.15,1.5-0.29,2.9-0.42,4.13" class="grey" /><path d="M18.7,31.98c5.43-0.58,19.95-2.13,25.17-2.59" class="grey" /><path d="M18.66,46.34c8.22-1.22,16.72-2.22,23.96-2.91" class="grey" /><path d="M16.51,18.01c0.93,0.93,1.21,1.87,1.21,3.54c0,1.19,0,50.53,0,53.44c0,4.02,1.58,4.31,4.53,2.27C25.2,75.21,39,66.75,44.75,64" class="grey" /><path d="M39.06,55.52C42.18,58,47.37,66.06,48.8,72.5" class="grey" /><path d="M61,23.01c1.84,1.22,3.12,0.96,5.13,0.68c7.31-1,19.18-2.61,20.75-2.73c4.19-0.32,5.88,1.22,5.45,5.43c-0.65,6.4-3.22,23.17-5.05,29.45c-3.03,10.41-8.21,0.82-8.86,0.49" class="grey" /><path d="M62.37,24c0.88,0.88,1.21,2,1.21,3.75c0,0.66,0.04,53.88,0.04,60c0,2.38,0,7.75-0.01,8" class="grey" /><path d="M16.01,17.26c1.49,0.87,2.82,1.2,5.29,0.87c5.54-0.74,15.21-1.97,19.6-2.5c2.89-0.35,4.54,0.87,4.54,3.25c0,5.11-0.63,15.26-1.35,22.65c-0.15,1.5-0.29,2.9-0.42,4.13" class="stroke" stroke-dasharray="150"><animate attributeName="stroke-dashoffset" from="150" to="0" dur="1.8s" begin="0s" fill="freeze" /></path><path d="M18.7,31.98c5.43-0.58,19.95-2.13,25.17-2.59" class="stroke" stroke-dasharray="150"><set attributeName="opacity" to="0" dur="1.4s" /><animate attributeName="stroke-dashoffset" from="150" to="0" dur="1.8s" begin="1.4s" fill="freeze" /></path><path d="M18.66,46.34c8.22-1.22,16.72-2.22,23.96-2.91" class="stroke" stroke-dasharray="150"><set attributeName="opacity" to="0" dur="2.4s" /><animate attributeName="stroke-dashoffset" from="150" to="0" dur="1.8s" begin="2.4s" fill="freeze" /></path><path d="M16.51,18.01c0.93,0.93,1.21,1.87,1.21,3.54c0,1.19,0,50.53,0,53.44c0,4.02,1.58,4.31,4.53,2.27C25.2,75.21,39,66.75,44.75,64" class="stroke" stroke-dasharray="150"><set attributeName="opacity" to="0" dur="3.4s" /><animate attributeName="stroke-dashoffset" from="150" to="0" dur="1.8s" begin="3.4s" fill="freeze" /></path><path d="M39.06,55.52C42.18,58,47.37,66.06,48.8,72.5" class="stroke" stroke-dasharray="150"><set attributeName="opacity" to="0" dur="5.2s" /><animate attributeName="stroke-dashoffset" from="150" to="0" dur="1.8s" begin="5.2s" fill="freeze" /></path><path d="M61,23.01c1.84,1.22,3.12,0.96,5.13,0.68c7.31-1,19.18-2.61,20.75-2.73c4.19-0.32,5.88,1.22,5.45,5.43c-0.65,6.4-3.22,23.17-5.05,29.45c-3.03,10.41-8.21,0.82-8.86,0.49" class="stroke" stroke-dasharray="150"><set attributeName="opacity" to="0" dur="6.1000000000000005s" /><animate attributeName="stroke-dashoffset" from="150" to="0" dur="1.8s" begin="6.1000000000000005s" fill="freeze" /></path><path d="M62.37,24c0.88,0.88,1.21,2,1.21,3.75c0,0.66,0.04,53.88,0.04,60c0,2.38,0,7.75-0.01,8" class="stroke" stroke-dasharray="150"><set attributeName="opacity" to="0" dur="7.800000000000001s" /><animate attributeName="stroke-dashoffset" from="150" to="0" dur="1.8s" begin="7.800000000000001s" fill="freeze" /></path><text x="90" y="120" id="reset">⟳</text><text x="70" y="120" id="pause">◼</text><script type="text/javascript"><![CDATA[function RecurringTimer(e,t){var n,r,i=t;this.pause=function(){window.clearTimeout(n);i-=new Date-r};var s=function(){r=new Date;n=window.setTimeout(function(){i=t;s();e()},i)};this.clear=function(){window.clearTimeout(n);i=t;n=window.setTimeout(function(){i=t;s();e()},i)};this.resume=s;this.resume()}function invoketimer(){timer=new RecurringTimer(function(){svg.setCurrentTime(0)},10500)}var svg=document.getElementById("kanjivg");var pause=document.getElementById("pause");var reset=document.getElementById("reset");var timer;invoketimer();reset.onclick=function(){svg.setCurrentTime(0);timer.clear();svg.unpauseAnimations();pause.innerHTML = "◼";};pause.onclick=function(){if(svg.animationsPaused()){svg.unpauseAnimations();timer.resume();pause.innerHTML="◼"}else{svg.pauseAnimations();timer.pause();pause.innerHTML="▶"}}]]></script></svg>