<svg id="kanjivg" width="106" height="126" xmlns="http://www.w3.org/2000/svg" xmlns:xlink="http://www.w3.org/1999/xlink" xml:space="preserve" version="1.1" baseProfile="full"><defs><style type="text/css"><![CDATA[path.black { fill:none;stroke:black;stroke-width:5;stroke-linecap:round;stroke-linejoin:round; }path.grey { fill:none;stroke:#ddd;stroke-width:5;stroke-linecap:round;stroke-linejoin:round; }path.stroke { fill:none;stroke:black;stroke-width:5;stroke-linecap:round;stroke-linejoin:round; }rect { fill:none;stroke:#555;stroke-width:2;} text{font-size:16px;font-family:Segoe UI Symbol,Cambria Math,DejaVu Sans,Symbola,Quivira,STIX,Code2000;-webkit-touch-callout:none;cursor:pointer;-webkit-user-select:none;-khtml-user-select:none;-moz-user-select:none;-ms-user-select:none;user-select: none;} #reset { font-weight:bold; }]]></style><marker id="markerStart" markerWidth="8" markerHeight="8" style="overflow:visible;"><circle cx="0" cy="0" r="1.5" style="stroke:none;fill:red;fill-opacity:0.5;"/></marker><marker id="markerEnd" style="overflow:visible;"><circle cx="0" cy="0" r="0.8" style="stroke:none;fill:blue;fill-opacity:0.5;"><animate attributeName="opacity" from="1" to="0" dur="3s" repeatCount="indefinite" /></circle></marker></defs><rect x="4" y="4" width="100" height="100" /><path d="M42.38,13.25c0,1.25-0.6,2.34-1.37,3.09c-3.98,3.91-9.81,7.29-20.2,12.13" class="grey" /><path d="M17.87,29.75c0.88,0.88,1.46,2.38,1.46,3.75c0,3.04-0.14,23.52-0.2,34.75c-0.01,2.61-0.02,4.73-0.02,6" class="grey" /><path d="M20,49c9-1.62,17.62-3.75,19.5-4c1.51-0.2,2.88-0.25,4.25,0" class="grey" /><path d="M19.75,71.5c8.88-1.88,19.38-4,21.55-4.25c1.31-0.15,2.88-0.25,4.2,0.03" class="grey" /><path d="M57.5,26.16c1.5,0.44,2.81,0.38,3.91,0.29c7.97-0.72,21.75-2.92,26.68-3.46c3.21-0.35,4.01,1.59,3.92,4.06C91.5,40.35,88.5,54.49,83.4,65.43c-2.17,4.66-5.52,1.7-8.3-1.52" class="grey" /><path d="M60,27c0.81,0.81,1.25,2.43,1.25,3.88c0,11.58,0,47.58,0,62.12c0,2.8,0,4.82,0,5.75" class="grey" /><path d="M42.38,13.25c0,1.25-0.6,2.34-1.37,3.09c-3.98,3.91-9.81,7.29-20.2,12.13" class="stroke" stroke-dasharray="150"><animate attributeName="stroke-dashoffset" from="150" to="0" dur="1.8s" begin="0s" fill="freeze" /></path><path d="M17.87,29.75c0.88,0.88,1.46,2.38,1.46,3.75c0,3.04-0.14,23.52-0.2,34.75c-0.01,2.61-0.02,4.73-0.02,6" class="stroke" stroke-dasharray="150"><set attributeName="opacity" to="0" dur="1.0s" /><animate attributeName="stroke-dashoffset" from="150" to="0" dur="1.8s" begin="1.0s" fill="freeze" /></path><path d="M20,49c9-1.62,17.62-3.75,19.5-4c1.51-0.2,2.88-0.25,4.25,0" class="stroke" stroke-dasharray="150"><set attributeName="opacity" to="0" dur="2.1s" /><animate attributeName="stroke-dashoffset" from="150" to="0" dur="1.8s" begin="2.1s" fill="freeze" /></path><path d="M19.75,71.5c8.88-1.88,19.38-4,21.55-4.25c1.31-0.15,2.88-0.25,4.2,0.03" class="stroke" stroke-dasharray="150"><set attributeName="opacity" to="0" dur="3.1s" /><animate attributeName="stroke-dashoffset" from="150" to="0" dur="1.8s" begin="3.1s" fill="freeze" /></path><path d="M57.5,26.16c1.5,0.44,2.81,0.38,3.91,0.29c7.97-0.72,21.75-2.92,26.68-3.46c3.21-0.35,4.01,1.59,3.92,4.06C91.5,40.35,88.5,54.49,83.4,65.43c-2.17,4.66-5.52,1.7-8.3-1.52" class="stroke" stroke-dasharray="150"><set attributeName="opacity" to="0" dur="4.1s" /><animate attributeName="stroke-dashoffset" from="150" to="0" dur="1.8s" begin="4.1s" fill="freeze" /></path><path d="M60,27c0.81,0.81,1.25,2.43,1.25,3.88c0,11.58,0,47.58,0,62.12c0,2.8,0,4.82,0,5.75" class="stroke" stroke-dasharray="150"><set attributeName="opacity" to="0" dur="5.8s" /><animate attributeName="stroke-dashoffset" from="150" to="0" dur="1.8s" begin="5.8s" fill="freeze" /></path><text x="90" y="120" id="reset">⟳</text><text x="70" y="120" id="pause">◼</text><script type="text/javascript"><![CDATA[function RecurringTimer(e,t){var n,r,i=t;this.pause=function(){window.clearTimeout(n);i-=new Date-r};var s=function(){r=new Date;n=window.setTimeout(function(){i=t;s();e()},i)};this.clear=function(){window.clearTimeout(n);i=t;n=window.setTimeout(function(){i=t;s();e()},i)};this.resume=s;this.resume()}function invoketimer(){timer=new RecurringTimer(function(){svg.setCurrentTime(0)},8500)}var svg=document.getElementById("kanjivg");var pause=document.getElementById("pause");var reset=document.getElementById("reset");var timer;invoketimer();reset.onclick=function(){svg.setCurrentTime(0);timer.clear();svg.unpauseAnimations();pause.innerHTML = "◼";};pause.onclick=function(){if(svg.animationsPaused()){svg.unpauseAnimations();timer.resume();pause.innerHTML="◼"}else{svg.pauseAnimations();timer.pause();pause.innerHTML="▶"}}]]></script></svg>