<svg id="kanjivg" width="106" height="126" xmlns="http://www.w3.org/2000/svg" xmlns:xlink="http://www.w3.org/1999/xlink" xml:space="preserve" version="1.1" baseProfile="full"><defs><style type="text/css"><![CDATA[path.black { fill:none;stroke:black;stroke-width:5;stroke-linecap:round;stroke-linejoin:round; }path.grey { fill:none;stroke:#ddd;stroke-width:5;stroke-linecap:round;stroke-linejoin:round; }path.stroke { fill:none;stroke:black;stroke-width:5;stroke-linecap:round;stroke-linejoin:round; }rect { fill:none;stroke:#555;stroke-width:2;} text{font-size:16px;font-family:Segoe UI Symbol,Cambria Math,DejaVu Sans,Symbola,Quivira,STIX,Code2000;-webkit-touch-callout:none;cursor:pointer;-webkit-user-select:none;-khtml-user-select:none;-moz-user-select:none;-ms-user-select:none;user-select: none;} #reset { font-weight:bold; }]]></style><marker id="markerStart" markerWidth="8" markerHeight="8" style="overflow:visible;"><circle cx="0" cy="0" r="1.5" style="stroke:none;fill:red;fill-opacity:0.5;"/></marker><marker id="markerEnd" style="overflow:visible;"><circle cx="0" cy="0" r="0.8" style="stroke:none;fill:blue;fill-opacity:0.5;"><animate attributeName="opacity" from="1" to="0" dur="3s" repeatCount="indefinite" /></circle></marker></defs><rect x="4" y="4" width="100" height="100" /><path d="M31.09,12.75c0.08,1.2,0.02,2.14-0.4,3.27c-2.98,8-7.21,14.51-14.69,22.27" class="grey" /><path d="M28.25,28.64c1.88,0.11,2.64-0.18,4.14-0.47c5.36-1.04,11.19-2.2,15.5-3.12c1.46-0.31,3.61-0.68,4.86-0.29" class="grey" /><path d="M15.25,46.75c2.62,0.5,5.31,0.09,7.77-0.41c7.59-1.53,20.04-4.02,27.5-5.18c2.54-0.39,5.18-0.88,7.72-0.26" class="grey" /><path d="M37.12,30.5c0.94,0.94,1.21,2.25,1.21,3.75c0,1.02,0.03,36.12,0.03,44" class="grey" /><path d="M39.38,56.75c4.03-0.87,7.28-1.56,10.49-2.22C51.53,54.2,53.3,53.61,55,54" class="grey" /><path d="M22.62,57.75c1,1,1.21,2.25,1.21,3.75c0,1.02,0.03,16.62,0.03,23.75" class="grey" /><path d="M18.5,86.88c0.41,0.95,2.11,1.41,3.12,0.85C28.75,83.75,49,73.75,55,70.25" class="grey" /><path d="M64,26.33c0.83,0.21,2.49,0.2,4.15,0s18.13-4.08,20.21-4.28s5.19-0.42,5.4,3.94c0.1,2.08-0.86,27.56-3.02,37.09c-2.08,9.13-7.89,1.04-8.51,0.62" class="grey" /><path d="M66.08,27c0.96,0.96,1.31,2.12,1.31,3.25c0,7.78-0.01,45.27-0.01,61.12c0,3.63,0,6.13,0,6.88" class="grey" /><path d="M31.09,12.75c0.08,1.2,0.02,2.14-0.4,3.27c-2.98,8-7.21,14.51-14.69,22.27" class="stroke" stroke-dasharray="150"><animate attributeName="stroke-dashoffset" from="150" to="0" dur="1.8s" begin="0s" fill="freeze" /></path><path d="M28.25,28.64c1.88,0.11,2.64-0.18,4.14-0.47c5.36-1.04,11.19-2.2,15.5-3.12c1.46-0.31,3.61-0.68,4.86-0.29" class="stroke" stroke-dasharray="150"><set attributeName="opacity" to="0" dur="1.0s" /><animate attributeName="stroke-dashoffset" from="150" to="0" dur="1.8s" begin="1.0s" fill="freeze" /></path><path d="M15.25,46.75c2.62,0.5,5.31,0.09,7.77-0.41c7.59-1.53,20.04-4.02,27.5-5.18c2.54-0.39,5.18-0.88,7.72-0.26" class="stroke" stroke-dasharray="150"><set attributeName="opacity" to="0" dur="2.0s" /><animate attributeName="stroke-dashoffset" from="150" to="0" dur="1.8s" begin="2.0s" fill="freeze" /></path><path d="M37.12,30.5c0.94,0.94,1.21,2.25,1.21,3.75c0,1.02,0.03,36.12,0.03,44" class="stroke" stroke-dasharray="150"><set attributeName="opacity" to="0" dur="3.1s" /><animate attributeName="stroke-dashoffset" from="150" to="0" dur="1.8s" begin="3.1s" fill="freeze" /></path><path d="M39.38,56.75c4.03-0.87,7.28-1.56,10.49-2.22C51.53,54.2,53.3,53.61,55,54" class="stroke" stroke-dasharray="150"><set attributeName="opacity" to="0" dur="4.3s" /><animate attributeName="stroke-dashoffset" from="150" to="0" dur="1.8s" begin="4.3s" fill="freeze" /></path><path d="M22.62,57.75c1,1,1.21,2.25,1.21,3.75c0,1.02,0.03,16.62,0.03,23.75" class="stroke" stroke-dasharray="150"><set attributeName="opacity" to="0" dur="5.2s" /><animate attributeName="stroke-dashoffset" from="150" to="0" dur="1.8s" begin="5.2s" fill="freeze" /></path><path d="M18.5,86.88c0.41,0.95,2.11,1.41,3.12,0.85C28.75,83.75,49,73.75,55,70.25" class="stroke" stroke-dasharray="150"><set attributeName="opacity" to="0" dur="6.2s" /><animate attributeName="stroke-dashoffset" from="150" to="0" dur="1.8s" begin="6.2s" fill="freeze" /></path><path d="M64,26.33c0.83,0.21,2.49,0.2,4.15,0s18.13-4.08,20.21-4.28s5.19-0.42,5.4,3.94c0.1,2.08-0.86,27.56-3.02,37.09c-2.08,9.13-7.89,1.04-8.51,0.62" class="stroke" stroke-dasharray="150"><set attributeName="opacity" to="0" dur="7.300000000000001s" /><animate attributeName="stroke-dashoffset" from="150" to="0" dur="1.8s" begin="7.300000000000001s" fill="freeze" /></path><path d="M66.08,27c0.96,0.96,1.31,2.12,1.31,3.25c0,7.78-0.01,45.27-0.01,61.12c0,3.63,0,6.13,0,6.88" class="stroke" stroke-dasharray="150"><set attributeName="opacity" to="0" dur="9.0s" /><animate attributeName="stroke-dashoffset" from="150" to="0" dur="1.8s" begin="9.0s" fill="freeze" /></path><text x="90" y="120" id="reset">⟳</text><text x="70" y="120" id="pause">◼</text><script type="text/javascript"><![CDATA[function RecurringTimer(e,t){var n,r,i=t;this.pause=function(){window.clearTimeout(n);i-=new Date-r};var s=function(){r=new Date;n=window.setTimeout(function(){i=t;s();e()},i)};this.clear=function(){window.clearTimeout(n);i=t;n=window.setTimeout(function(){i=t;s();e()},i)};this.resume=s;this.resume()}function invoketimer(){timer=new RecurringTimer(function(){svg.setCurrentTime(0)},11700)}var svg=document.getElementById("kanjivg");var pause=document.getElementById("pause");var reset=document.getElementById("reset");var timer;invoketimer();reset.onclick=function(){svg.setCurrentTime(0);timer.clear();svg.unpauseAnimations();pause.innerHTML = "◼";};pause.onclick=function(){if(svg.animationsPaused()){svg.unpauseAnimations();timer.resume();pause.innerHTML="◼"}else{svg.pauseAnimations();timer.pause();pause.innerHTML="▶"}}]]></script></svg>