<svg id="kanjivg" width="106" height="126" xmlns="http://www.w3.org/2000/svg" xmlns:xlink="http://www.w3.org/1999/xlink" xml:space="preserve" version="1.1" baseProfile="full"><defs><style type="text/css"><![CDATA[path.black { fill:none;stroke:black;stroke-width:5;stroke-linecap:round;stroke-linejoin:round; }path.grey { fill:none;stroke:#ddd;stroke-width:5;stroke-linecap:round;stroke-linejoin:round; }path.stroke { fill:none;stroke:black;stroke-width:5;stroke-linecap:round;stroke-linejoin:round; }rect { fill:none;stroke:#555;stroke-width:2;} text{font-size:16px;font-family:Segoe UI Symbol,Cambria Math,DejaVu Sans,Symbola,Quivira,STIX,Code2000;-webkit-touch-callout:none;cursor:pointer;-webkit-user-select:none;-khtml-user-select:none;-moz-user-select:none;-ms-user-select:none;user-select: none;} #reset { font-weight:bold; }]]></style><marker id="markerStart" markerWidth="8" markerHeight="8" style="overflow:visible;"><circle cx="0" cy="0" r="1.5" style="stroke:none;fill:red;fill-opacity:0.5;"/></marker><marker id="markerEnd" style="overflow:visible;"><circle cx="0" cy="0" r="0.8" style="stroke:none;fill:blue;fill-opacity:0.5;"><animate attributeName="opacity" from="1" to="0" dur="3s" repeatCount="indefinite" /></circle></marker></defs><rect x="4" y="4" width="100" height="100" /><path d="M45.5,10.5c0.06,0.54-0.17,1.49-0.62,2.18c-3,4.57-12.38,15.07-23.13,22.32" class="grey" /><path d="M42.25,17.63c2.84,0,17.7-1.87,20.69-2.15c2.56-0.24,3.37,2.31,2.31,3.51c-4.88,5.5-8.62,10.88-15.5,19" class="grey" /><path d="M23.69,41.32c2.59,0.79,6.19,0.66,8.83,0.28c12.74-1.85,26.24-3.85,42.49-5.37c3.03-0.28,5.64-0.6,8.63-0.05" class="grey" /><path d="M25.72,42.17c0.81,0.81,1.2,2.04,1.18,3.75c-0.15,12.46-1.78,33.46-12.09,47.58" class="grey" /><path d="M37,52.25c1.38,0.62,2.8,0.77,4.64,0.58c7.98-0.83,22.54-2.8,24.82-3.17c3.75-0.6,6.19,1.31,6.04,3.73c-0.25,4.11-3.43,14.92-5.85,20.21c-2.32,5.06-5.9,1.02-7.49-0.41" class="grey" /><path d="M39.74,53.8c0.86,0.86,1.34,2.2,1.34,3.84c0,9.87,0.04,19.21,0.04,25.92c0,11.69,2.75,13.65,24.44,13.65c23.44,0,24.82-2.21,24.82-11" class="grey" /><path d="M45.5,10.5c0.06,0.54-0.17,1.49-0.62,2.18c-3,4.57-12.38,15.07-23.13,22.32" class="stroke" stroke-dasharray="150"><animate attributeName="stroke-dashoffset" from="150" to="0" dur="1.8s" begin="0s" fill="freeze" /></path><path d="M42.25,17.63c2.84,0,17.7-1.87,20.69-2.15c2.56-0.24,3.37,2.31,2.31,3.51c-4.88,5.5-8.62,10.88-15.5,19" class="stroke" stroke-dasharray="150"><set attributeName="opacity" to="0" dur="1.0s" /><animate attributeName="stroke-dashoffset" from="150" to="0" dur="1.8s" begin="1.0s" fill="freeze" /></path><path d="M23.69,41.32c2.59,0.79,6.19,0.66,8.83,0.28c12.74-1.85,26.24-3.85,42.49-5.37c3.03-0.28,5.64-0.6,8.63-0.05" class="stroke" stroke-dasharray="150"><set attributeName="opacity" to="0" dur="2.3s" /><animate attributeName="stroke-dashoffset" from="150" to="0" dur="1.8s" begin="2.3s" fill="freeze" /></path><path d="M25.72,42.17c0.81,0.81,1.2,2.04,1.18,3.75c-0.15,12.46-1.78,33.46-12.09,47.58" class="stroke" stroke-dasharray="150"><set attributeName="opacity" to="0" dur="3.8s" /><animate attributeName="stroke-dashoffset" from="150" to="0" dur="1.8s" begin="3.8s" fill="freeze" /></path><path d="M37,52.25c1.38,0.62,2.8,0.77,4.64,0.58c7.98-0.83,22.54-2.8,24.82-3.17c3.75-0.6,6.19,1.31,6.04,3.73c-0.25,4.11-3.43,14.92-5.85,20.21c-2.32,5.06-5.9,1.02-7.49-0.41" class="stroke" stroke-dasharray="150"><set attributeName="opacity" to="0" dur="5.1s" /><animate attributeName="stroke-dashoffset" from="150" to="0" dur="1.8s" begin="5.1s" fill="freeze" /></path><path d="M39.74,53.8c0.86,0.86,1.34,2.2,1.34,3.84c0,9.87,0.04,19.21,0.04,25.92c0,11.69,2.75,13.65,24.44,13.65c23.44,0,24.82-2.21,24.82-11" class="stroke" stroke-dasharray="150"><set attributeName="opacity" to="0" dur="6.6s" /><animate attributeName="stroke-dashoffset" from="150" to="0" dur="1.8s" begin="6.6s" fill="freeze" /></path><text x="90" y="120" id="reset">⟳</text><text x="70" y="120" id="pause">◼</text><script type="text/javascript"><![CDATA[function RecurringTimer(e,t){var n,r,i=t;this.pause=function(){window.clearTimeout(n);i-=new Date-r};var s=function(){r=new Date;n=window.setTimeout(function(){i=t;s();e()},i)};this.clear=function(){window.clearTimeout(n);i=t;n=window.setTimeout(function(){i=t;s();e()},i)};this.resume=s;this.resume()}function invoketimer(){timer=new RecurringTimer(function(){svg.setCurrentTime(0)},9400)}var svg=document.getElementById("kanjivg");var pause=document.getElementById("pause");var reset=document.getElementById("reset");var timer;invoketimer();reset.onclick=function(){svg.setCurrentTime(0);timer.clear();svg.unpauseAnimations();pause.innerHTML = "◼";};pause.onclick=function(){if(svg.animationsPaused()){svg.unpauseAnimations();timer.resume();pause.innerHTML="◼"}else{svg.pauseAnimations();timer.pause();pause.innerHTML="▶"}}]]></script></svg>