<svg id="kanjivg" width="106" height="126" xmlns="http://www.w3.org/2000/svg" xmlns:xlink="http://www.w3.org/1999/xlink" xml:space="preserve" version="1.1" baseProfile="full"><defs><style type="text/css"><![CDATA[path.black { fill:none;stroke:black;stroke-width:5;stroke-linecap:round;stroke-linejoin:round; }path.grey { fill:none;stroke:#ddd;stroke-width:5;stroke-linecap:round;stroke-linejoin:round; }path.stroke { fill:none;stroke:black;stroke-width:5;stroke-linecap:round;stroke-linejoin:round; }rect { fill:none;stroke:#555;stroke-width:2;} text{font-size:16px;font-family:Segoe UI Symbol,Cambria Math,DejaVu Sans,Symbola,Quivira,STIX,Code2000;-webkit-touch-callout:none;cursor:pointer;-webkit-user-select:none;-khtml-user-select:none;-moz-user-select:none;-ms-user-select:none;user-select: none;} #reset { font-weight:bold; }]]></style><marker id="markerStart" markerWidth="8" markerHeight="8" style="overflow:visible;"><circle cx="0" cy="0" r="1.5" style="stroke:none;fill:red;fill-opacity:0.5;"/></marker><marker id="markerEnd" style="overflow:visible;"><circle cx="0" cy="0" r="0.8" style="stroke:none;fill:blue;fill-opacity:0.5;"><animate attributeName="opacity" from="1" to="0" dur="3s" repeatCount="indefinite" /></circle></marker></defs><rect x="4" y="4" width="100" height="100" /><path d="M17.66,18.73c2.16-0.12,23.79-2.96,25.76-3.1c1.64-0.12,2.59,1.33,2.57,2.07c-0.11,5.18-1.49,20.06-2.31,27.97" class="grey" /><path d="M17.45,32.23c4.52-0.48,9.03-1.13,13.54-1.72c1.35-0.18,2.7-0.35,4-0.52" class="grey" /><path d="M17.91,46.59c7.45-0.93,17.36-2.27,25.46-3.16" class="grey" /><path d="M15.51,16.51c1.23,0.58,1.47,2.62,1.71,3.79c0.25,1.17,0.25,51.78,0.25,54.69c0,4.02-0.08,5.18,2.87,3.14C23.29,76.08,39,66.75,44.75,64" class="grey" /><path d="M38.81,55.27c3.13,2.48,8.31,10.54,9.74,16.99" class="grey" /><path d="M63.25,24.26c4.5-0.51,20.97-3.13,23.13-3.29c2.16-0.16,5.4-0.33,5.62,3.1c0.1,1.64-2.79,24.78-4.97,32.28c-3.03,10.41-8.21,0.82-8.86,0.49" class="grey" /><path d="M61.37,22.25c1.09,0.5,1.74,2.25,1.96,3.25c0.22,1,0,63.25-0.22,69.5" class="grey" /><path d="M17.66,18.73c2.16-0.12,23.79-2.96,25.76-3.1c1.64-0.12,2.59,1.33,2.57,2.07c-0.11,5.18-1.49,20.06-2.31,27.97" class="stroke" stroke-dasharray="150"><animate attributeName="stroke-dashoffset" from="150" to="0" dur="1.8s" begin="0s" fill="freeze" /></path><path d="M17.45,32.23c4.52-0.48,9.03-1.13,13.54-1.72c1.35-0.18,2.7-0.35,4-0.52" class="stroke" stroke-dasharray="150"><set attributeName="opacity" to="0" dur="1.4s" /><animate attributeName="stroke-dashoffset" from="150" to="0" dur="1.8s" begin="1.4s" fill="freeze" /></path><path d="M17.91,46.59c7.45-0.93,17.36-2.27,25.46-3.16" class="stroke" stroke-dasharray="150"><set attributeName="opacity" to="0" dur="2.3s" /><animate attributeName="stroke-dashoffset" from="150" to="0" dur="1.8s" begin="2.3s" fill="freeze" /></path><path d="M15.51,16.51c1.23,0.58,1.47,2.62,1.71,3.79c0.25,1.17,0.25,51.78,0.25,54.69c0,4.02-0.08,5.18,2.87,3.14C23.29,76.08,39,66.75,44.75,64" class="stroke" stroke-dasharray="150"><set attributeName="opacity" to="0" dur="3.3s" /><animate attributeName="stroke-dashoffset" from="150" to="0" dur="1.8s" begin="3.3s" fill="freeze" /></path><path d="M38.81,55.27c3.13,2.48,8.31,10.54,9.74,16.99" class="stroke" stroke-dasharray="150"><set attributeName="opacity" to="0" dur="5.1s" /><animate attributeName="stroke-dashoffset" from="150" to="0" dur="1.8s" begin="5.1s" fill="freeze" /></path><path d="M63.25,24.26c4.5-0.51,20.97-3.13,23.13-3.29c2.16-0.16,5.4-0.33,5.62,3.1c0.1,1.64-2.79,24.78-4.97,32.28c-3.03,10.41-8.21,0.82-8.86,0.49" class="stroke" stroke-dasharray="150"><set attributeName="opacity" to="0" dur="6.0s" /><animate attributeName="stroke-dashoffset" from="150" to="0" dur="1.8s" begin="6.0s" fill="freeze" /></path><path d="M61.37,22.25c1.09,0.5,1.74,2.25,1.96,3.25c0.22,1,0,63.25-0.22,69.5" class="stroke" stroke-dasharray="150"><set attributeName="opacity" to="0" dur="7.7s" /><animate attributeName="stroke-dashoffset" from="150" to="0" dur="1.8s" begin="7.7s" fill="freeze" /></path><text x="90" y="120" id="reset">⟳</text><text x="70" y="120" id="pause">◼</text><script type="text/javascript"><![CDATA[function RecurringTimer(e,t){var n,r,i=t;this.pause=function(){window.clearTimeout(n);i-=new Date-r};var s=function(){r=new Date;n=window.setTimeout(function(){i=t;s();e()},i)};this.clear=function(){window.clearTimeout(n);i=t;n=window.setTimeout(function(){i=t;s();e()},i)};this.resume=s;this.resume()}function invoketimer(){timer=new RecurringTimer(function(){svg.setCurrentTime(0)},10400)}var svg=document.getElementById("kanjivg");var pause=document.getElementById("pause");var reset=document.getElementById("reset");var timer;invoketimer();reset.onclick=function(){svg.setCurrentTime(0);timer.clear();svg.unpauseAnimations();pause.innerHTML = "◼";};pause.onclick=function(){if(svg.animationsPaused()){svg.unpauseAnimations();timer.resume();pause.innerHTML="◼"}else{svg.pauseAnimations();timer.pause();pause.innerHTML="▶"}}]]></script></svg>