<svg id="kanjivg" width="106" height="126" xmlns="http://www.w3.org/2000/svg" xmlns:xlink="http://www.w3.org/1999/xlink" xml:space="preserve" version="1.1" baseProfile="full"><defs><style type="text/css"><![CDATA[path.black { fill:none;stroke:black;stroke-width:5;stroke-linecap:round;stroke-linejoin:round; }path.grey { fill:none;stroke:#ddd;stroke-width:5;stroke-linecap:round;stroke-linejoin:round; }path.stroke { fill:none;stroke:black;stroke-width:5;stroke-linecap:round;stroke-linejoin:round; }rect { fill:none;stroke:#555;stroke-width:2;} text{font-size:16px;font-family:Segoe UI Symbol,Cambria Math,DejaVu Sans,Symbola,Quivira,STIX,Code2000;-webkit-touch-callout:none;cursor:pointer;-webkit-user-select:none;-khtml-user-select:none;-moz-user-select:none;-ms-user-select:none;user-select: none;} #reset { font-weight:bold; }]]></style><marker id="markerStart" markerWidth="8" markerHeight="8" style="overflow:visible;"><circle cx="0" cy="0" r="1.5" style="stroke:none;fill:red;fill-opacity:0.5;"/></marker><marker id="markerEnd" style="overflow:visible;"><circle cx="0" cy="0" r="0.8" style="stroke:none;fill:blue;fill-opacity:0.5;"><animate attributeName="opacity" from="1" to="0" dur="3s" repeatCount="indefinite" /></circle></marker></defs><rect x="4" y="4" width="100" height="100" /><path d="M40.32,15.25c0.13,0.78-0.24,1.68-0.71,2.22c-3.83,4.42-8.62,8.41-16.86,12.57" class="grey" /><path d="M18.87,30.51c0.81,0.81,1.03,2.11,1.03,3.49c0,3.88-0.08,23.12-0.08,27.22c0,3.53,1.38,3.93,3.51,2.87C27.5,62,36.75,57.75,44,54.25" class="grey" /><path d="M29.02,38.33c2.31,1.92,5.97,7.9,6.54,10.88" class="grey" /><path d="M44.47,30.68c0.78,0.82,1.17,2.03,1.17,4.14c0,16.44,0.36,42.94-15.75,58.84" class="grey" /><path d="M61.75,25.99c1.12,0.51,2.56,1.38,4.28,1.28c4.84-0.28,20.76-2.89,22.9-3.1c2.14-0.21,5.35-0.43,5.56,4.07c0.1,2.15-1.7,26.56-3.92,36.38C88,76,83.94,66.69,83.3,66.26" class="grey" /><path d="M73.52,38.96c2.6,2.17,6.71,8.92,7.36,12.29" class="grey" /><path d="M62.97,27.11c0.96,0.96,1.25,2.49,1.26,3.63c0.02,10.15-0.01,39.72-0.11,55.01c-0.03,4.38-0.06,7.56-0.1,8.75" class="grey" /><path d="M40.32,15.25c0.13,0.78-0.24,1.68-0.71,2.22c-3.83,4.42-8.62,8.41-16.86,12.57" class="stroke" stroke-dasharray="150"><animate attributeName="stroke-dashoffset" from="150" to="0" dur="1.8s" begin="0s" fill="freeze" /></path><path d="M18.87,30.51c0.81,0.81,1.03,2.11,1.03,3.49c0,3.88-0.08,23.12-0.08,27.22c0,3.53,1.38,3.93,3.51,2.87C27.5,62,36.75,57.75,44,54.25" class="stroke" stroke-dasharray="150"><set attributeName="opacity" to="0" dur="1.0s" /><animate attributeName="stroke-dashoffset" from="150" to="0" dur="1.8s" begin="1.0s" fill="freeze" /></path><path d="M29.02,38.33c2.31,1.92,5.97,7.9,6.54,10.88" class="stroke" stroke-dasharray="150"><set attributeName="opacity" to="0" dur="2.4s" /><animate attributeName="stroke-dashoffset" from="150" to="0" dur="1.8s" begin="2.4s" fill="freeze" /></path><path d="M44.47,30.68c0.78,0.82,1.17,2.03,1.17,4.14c0,16.44,0.36,42.94-15.75,58.84" class="stroke" stroke-dasharray="150"><set attributeName="opacity" to="0" dur="3.3s" /><animate attributeName="stroke-dashoffset" from="150" to="0" dur="1.8s" begin="3.3s" fill="freeze" /></path><path d="M61.75,25.99c1.12,0.51,2.56,1.38,4.28,1.28c4.84-0.28,20.76-2.89,22.9-3.1c2.14-0.21,5.35-0.43,5.56,4.07c0.1,2.15-1.7,26.56-3.92,36.38C88,76,83.94,66.69,83.3,66.26" class="stroke" stroke-dasharray="150"><set attributeName="opacity" to="0" dur="4.8s" /><animate attributeName="stroke-dashoffset" from="150" to="0" dur="1.8s" begin="4.8s" fill="freeze" /></path><path d="M73.52,38.96c2.6,2.17,6.71,8.92,7.36,12.29" class="stroke" stroke-dasharray="150"><set attributeName="opacity" to="0" dur="6.5s" /><animate attributeName="stroke-dashoffset" from="150" to="0" dur="1.8s" begin="6.5s" fill="freeze" /></path><path d="M62.97,27.11c0.96,0.96,1.25,2.49,1.26,3.63c0.02,10.15-0.01,39.72-0.11,55.01c-0.03,4.38-0.06,7.56-0.1,8.75" class="stroke" stroke-dasharray="150"><set attributeName="opacity" to="0" dur="7.4s" /><animate attributeName="stroke-dashoffset" from="150" to="0" dur="1.8s" begin="7.4s" fill="freeze" /></path><text x="90" y="120" id="reset">⟳</text><text x="70" y="120" id="pause">◼</text><script type="text/javascript"><![CDATA[function RecurringTimer(e,t){var n,r,i=t;this.pause=function(){window.clearTimeout(n);i-=new Date-r};var s=function(){r=new Date;n=window.setTimeout(function(){i=t;s();e()},i)};this.clear=function(){window.clearTimeout(n);i=t;n=window.setTimeout(function(){i=t;s();e()},i)};this.resume=s;this.resume()}function invoketimer(){timer=new RecurringTimer(function(){svg.setCurrentTime(0)},9900)}var svg=document.getElementById("kanjivg");var pause=document.getElementById("pause");var reset=document.getElementById("reset");var timer;invoketimer();reset.onclick=function(){svg.setCurrentTime(0);timer.clear();svg.unpauseAnimations();pause.innerHTML = "◼";};pause.onclick=function(){if(svg.animationsPaused()){svg.unpauseAnimations();timer.resume();pause.innerHTML="◼"}else{svg.pauseAnimations();timer.pause();pause.innerHTML="▶"}}]]></script></svg>