<svg id="kanjivg" width="106" height="126" xmlns="http://www.w3.org/2000/svg" xmlns:xlink="http://www.w3.org/1999/xlink" xml:space="preserve" version="1.1" baseProfile="full"><defs><style type="text/css"><![CDATA[path.black { fill:none;stroke:black;stroke-width:5;stroke-linecap:round;stroke-linejoin:round; }path.grey { fill:none;stroke:#ddd;stroke-width:5;stroke-linecap:round;stroke-linejoin:round; }path.stroke { fill:none;stroke:black;stroke-width:5;stroke-linecap:round;stroke-linejoin:round; }rect { fill:none;stroke:#555;stroke-width:2;} text{font-size:16px;font-family:Segoe UI Symbol,Cambria Math,DejaVu Sans,Symbola,Quivira,STIX,Code2000;-webkit-touch-callout:none;cursor:pointer;-webkit-user-select:none;-khtml-user-select:none;-moz-user-select:none;-ms-user-select:none;user-select: none;} #reset { font-weight:bold; }]]></style><marker id="markerStart" markerWidth="8" markerHeight="8" style="overflow:visible;"><circle cx="0" cy="0" r="1.5" style="stroke:none;fill:red;fill-opacity:0.5;"/></marker><marker id="markerEnd" style="overflow:visible;"><circle cx="0" cy="0" r="0.8" style="stroke:none;fill:blue;fill-opacity:0.5;"><animate attributeName="opacity" from="1" to="0" dur="3s" repeatCount="indefinite" /></circle></marker></defs><rect x="4" y="4" width="100" height="100" /><path d="M24.44,19.61c2.71,1.06,6.02,0.46,8.81,0.22c13.57-1.21,27.63-2.95,43.5-4.2c2.89-0.23,5.78-0.24,8.63,0.43" class="grey" /><path d="M27.96,21.04c0.81,0.81,0.99,2.33,0.89,3.96c-1.23,21.62-3.48,47.62-18.29,62.46" class="grey" /><path d="M41.25,39.87c2.22,0.85,4.84,0.74,7.14,0.39c8.99-1.38,19.11-3.13,24.66-3.8c3.74-0.45,5.74,1.24,5.45,4.04c-0.62,5.89-3,17.01-5.76,23.94c-2.33,5.86-5.49,2.32-7.38,0.4" class="grey" /><path d="M42.99,40.87c0.76,0.76,0.97,2,0.97,3.98c0,11.99-0.09,22.75-0.09,30.9c0,14.62,2.62,17.5,22.08,17.5c19.79,0,23.68-2.25,23.68-13.36" class="grey" /><path d="M24.44,19.61c2.71,1.06,6.02,0.46,8.81,0.22c13.57-1.21,27.63-2.95,43.5-4.2c2.89-0.23,5.78-0.24,8.63,0.43" class="stroke" stroke-dasharray="150"><animate attributeName="stroke-dashoffset" from="150" to="0" dur="1.8s" begin="0s" fill="freeze" /></path><path d="M27.96,21.04c0.81,0.81,0.99,2.33,0.89,3.96c-1.23,21.62-3.48,47.62-18.29,62.46" class="stroke" stroke-dasharray="150"><set attributeName="opacity" to="0" dur="1.5s" /><animate attributeName="stroke-dashoffset" from="150" to="0" dur="1.8s" begin="1.5s" fill="freeze" /></path><path d="M41.25,39.87c2.22,0.85,4.84,0.74,7.14,0.39c8.99-1.38,19.11-3.13,24.66-3.8c3.74-0.45,5.74,1.24,5.45,4.04c-0.62,5.89-3,17.01-5.76,23.94c-2.33,5.86-5.49,2.32-7.38,0.4" class="stroke" stroke-dasharray="150"><set attributeName="opacity" to="0" dur="3.2s" /><animate attributeName="stroke-dashoffset" from="150" to="0" dur="1.8s" begin="3.2s" fill="freeze" /></path><path d="M42.99,40.87c0.76,0.76,0.97,2,0.97,3.98c0,11.99-0.09,22.75-0.09,30.9c0,14.62,2.62,17.5,22.08,17.5c19.79,0,23.68-2.25,23.68-13.36" class="stroke" stroke-dasharray="150"><set attributeName="opacity" to="0" dur="4.9s" /><animate attributeName="stroke-dashoffset" from="150" to="0" dur="1.8s" begin="4.9s" fill="freeze" /></path><text x="90" y="120" id="reset">⟳</text><text x="70" y="120" id="pause">◼</text><script type="text/javascript"><![CDATA[function RecurringTimer(e,t){var n,r,i=t;this.pause=function(){window.clearTimeout(n);i-=new Date-r};var s=function(){r=new Date;n=window.setTimeout(function(){i=t;s();e()},i)};this.clear=function(){window.clearTimeout(n);i=t;n=window.setTimeout(function(){i=t;s();e()},i)};this.resume=s;this.resume()}function invoketimer(){timer=new RecurringTimer(function(){svg.setCurrentTime(0)},7800)}var svg=document.getElementById("kanjivg");var pause=document.getElementById("pause");var reset=document.getElementById("reset");var timer;invoketimer();reset.onclick=function(){svg.setCurrentTime(0);timer.clear();svg.unpauseAnimations();pause.innerHTML = "◼";};pause.onclick=function(){if(svg.animationsPaused()){svg.unpauseAnimations();timer.resume();pause.innerHTML="◼"}else{svg.pauseAnimations();timer.pause();pause.innerHTML="▶"}}]]></script></svg>