<svg id="kanjivg" width="106" height="126" xmlns="http://www.w3.org/2000/svg" xmlns:xlink="http://www.w3.org/1999/xlink" xml:space="preserve" version="1.1" baseProfile="full"><defs><style type="text/css"><![CDATA[path.black { fill:none;stroke:black;stroke-width:5;stroke-linecap:round;stroke-linejoin:round; }path.grey { fill:none;stroke:#ddd;stroke-width:5;stroke-linecap:round;stroke-linejoin:round; }path.stroke { fill:none;stroke:black;stroke-width:5;stroke-linecap:round;stroke-linejoin:round; }rect { fill:none;stroke:#555;stroke-width:2;} text{font-size:16px;font-family:Segoe UI Symbol,Cambria Math,DejaVu Sans,Symbola,Quivira,STIX,Code2000;-webkit-touch-callout:none;cursor:pointer;-webkit-user-select:none;-khtml-user-select:none;-moz-user-select:none;-ms-user-select:none;user-select: none;} #reset { font-weight:bold; }]]></style><marker id="markerStart" markerWidth="8" markerHeight="8" style="overflow:visible;"><circle cx="0" cy="0" r="1.5" style="stroke:none;fill:red;fill-opacity:0.5;"/></marker><marker id="markerEnd" style="overflow:visible;"><circle cx="0" cy="0" r="0.8" style="stroke:none;fill:blue;fill-opacity:0.5;"><animate attributeName="opacity" from="1" to="0" dur="3s" repeatCount="indefinite" /></circle></marker></defs><rect x="4" y="4" width="100" height="100" /><path d="M22.38,18.91c1.45,0.52,4.12,0.62,5.57,0.52c17.03-1.21,36.14-3.34,55.1-3.55c2.42-0.03,3.87,0.25,5.08,0.51" class="grey" /><path d="M27.74,19.75c0.05,1.62-0.01,4.17-0.1,6.5C27,43.75,25,73.75,10.81,87.97" class="grey" /><path d="M37.26,34.45c0.33,0.47,0.34,0.79,0.52,1.38c1.5,4.84,2.91,17.06,3.84,26.08" class="grey" /><path d="M38.81,35.1c11.61-1.22,31.5-3.29,40.17-4.31c3.18-0.38,4.81,0.95,4.65,2.28c-0.6,4.88-2.08,18.16-3.53,26.31" class="grey" /><path d="M40.98,47.61c8.99-1.13,18.03-1.96,27.05-2.88c1.08-0.11,2.13-0.22,3.14-0.32" class="grey" /><path d="M42.22,60.6c8.36-0.52,26.34-2.69,37.88-3.54" class="grey" /><path d="M58.54,33.78c0.33,0.93,1.28,2.19,1.31,4.06c0.24,13.03,0.08,48.46,0.08,52.13" class="grey" /><path d="M39.27,76.42c0.81,0.32,2.28,0.35,3.09,0.32c8.38-0.37,26.83-3.58,37.2-3.66c1.34-0.01,2.15,0.15,2.82,0.31" class="grey" /><path d="M26.46,92.61c1.27,0.46,3.6,0.54,4.87,0.46c13.23-0.77,39.77-3.48,55.52-3.45c2.12,0,3.39,0.22,4.45,0.45" class="grey" /><path d="M22.38,18.91c1.45,0.52,4.12,0.62,5.57,0.52c17.03-1.21,36.14-3.34,55.1-3.55c2.42-0.03,3.87,0.25,5.08,0.51" class="stroke" stroke-dasharray="150"><animate attributeName="stroke-dashoffset" from="150" to="0" dur="1.8s" begin="0s" fill="freeze" /></path><path d="M27.74,19.75c0.05,1.62-0.01,4.17-0.1,6.5C27,43.75,25,73.75,10.81,87.97" class="stroke" stroke-dasharray="150"><set attributeName="opacity" to="0" dur="1.5s" /><animate attributeName="stroke-dashoffset" from="150" to="0" dur="1.8s" begin="1.5s" fill="freeze" /></path><path d="M37.26,34.45c0.33,0.47,0.34,0.79,0.52,1.38c1.5,4.84,2.91,17.06,3.84,26.08" class="stroke" stroke-dasharray="150"><set attributeName="opacity" to="0" dur="3.2s" /><animate attributeName="stroke-dashoffset" from="150" to="0" dur="1.8s" begin="3.2s" fill="freeze" /></path><path d="M38.81,35.1c11.61-1.22,31.5-3.29,40.17-4.31c3.18-0.38,4.81,0.95,4.65,2.28c-0.6,4.88-2.08,18.16-3.53,26.31" class="stroke" stroke-dasharray="150"><set attributeName="opacity" to="0" dur="4.2s" /><animate attributeName="stroke-dashoffset" from="150" to="0" dur="1.8s" begin="4.2s" fill="freeze" /></path><path d="M40.98,47.61c8.99-1.13,18.03-1.96,27.05-2.88c1.08-0.11,2.13-0.22,3.14-0.32" class="stroke" stroke-dasharray="150"><set attributeName="opacity" to="0" dur="5.9s" /><animate attributeName="stroke-dashoffset" from="150" to="0" dur="1.8s" begin="5.9s" fill="freeze" /></path><path d="M42.22,60.6c8.36-0.52,26.34-2.69,37.88-3.54" class="stroke" stroke-dasharray="150"><set attributeName="opacity" to="0" dur="6.9s" /><animate attributeName="stroke-dashoffset" from="150" to="0" dur="1.8s" begin="6.9s" fill="freeze" /></path><path d="M58.54,33.78c0.33,0.93,1.28,2.19,1.31,4.06c0.24,13.03,0.08,48.46,0.08,52.13" class="stroke" stroke-dasharray="150"><set attributeName="opacity" to="0" dur="7.9s" /><animate attributeName="stroke-dashoffset" from="150" to="0" dur="1.8s" begin="7.9s" fill="freeze" /></path><path d="M39.27,76.42c0.81,0.32,2.28,0.35,3.09,0.32c8.38-0.37,26.83-3.58,37.2-3.66c1.34-0.01,2.15,0.15,2.82,0.31" class="stroke" stroke-dasharray="150"><set attributeName="opacity" to="0" dur="9.3s" /><animate attributeName="stroke-dashoffset" from="150" to="0" dur="1.8s" begin="9.3s" fill="freeze" /></path><path d="M26.46,92.61c1.27,0.46,3.6,0.54,4.87,0.46c13.23-0.77,39.77-3.48,55.52-3.45c2.12,0,3.39,0.22,4.45,0.45" class="stroke" stroke-dasharray="150"><set attributeName="opacity" to="0" dur="10.4s" /><animate attributeName="stroke-dashoffset" from="150" to="0" dur="1.8s" begin="10.4s" fill="freeze" /></path><text x="90" y="120" id="reset">⟳</text><text x="70" y="120" id="pause">◼</text><script type="text/javascript"><![CDATA[function RecurringTimer(e,t){var n,r,i=t;this.pause=function(){window.clearTimeout(n);i-=new Date-r};var s=function(){r=new Date;n=window.setTimeout(function(){i=t;s();e()},i)};this.clear=function(){window.clearTimeout(n);i=t;n=window.setTimeout(function(){i=t;s();e()},i)};this.resume=s;this.resume()}function invoketimer(){timer=new RecurringTimer(function(){svg.setCurrentTime(0)},12900)}var svg=document.getElementById("kanjivg");var pause=document.getElementById("pause");var reset=document.getElementById("reset");var timer;invoketimer();reset.onclick=function(){svg.setCurrentTime(0);timer.clear();svg.unpauseAnimations();pause.innerHTML = "◼";};pause.onclick=function(){if(svg.animationsPaused()){svg.unpauseAnimations();timer.resume();pause.innerHTML="◼"}else{svg.pauseAnimations();timer.pause();pause.innerHTML="▶"}}]]></script></svg>