<svg id="kanjivg" width="106" height="126" xmlns="http://www.w3.org/2000/svg" xmlns:xlink="http://www.w3.org/1999/xlink" xml:space="preserve" version="1.1" baseProfile="full"><defs><style type="text/css"><![CDATA[path.black { fill:none;stroke:black;stroke-width:5;stroke-linecap:round;stroke-linejoin:round; }path.grey { fill:none;stroke:#ddd;stroke-width:5;stroke-linecap:round;stroke-linejoin:round; }path.stroke { fill:none;stroke:black;stroke-width:5;stroke-linecap:round;stroke-linejoin:round; }rect { fill:none;stroke:#555;stroke-width:2;} text{font-size:16px;font-family:Segoe UI Symbol,Cambria Math,DejaVu Sans,Symbola,Quivira,STIX,Code2000;-webkit-touch-callout:none;cursor:pointer;-webkit-user-select:none;-khtml-user-select:none;-moz-user-select:none;-ms-user-select:none;user-select: none;} #reset { font-weight:bold; }]]></style><marker id="markerStart" markerWidth="8" markerHeight="8" style="overflow:visible;"><circle cx="0" cy="0" r="1.5" style="stroke:none;fill:red;fill-opacity:0.5;"/></marker><marker id="markerEnd" style="overflow:visible;"><circle cx="0" cy="0" r="0.8" style="stroke:none;fill:blue;fill-opacity:0.5;"><animate attributeName="opacity" from="1" to="0" dur="3s" repeatCount="indefinite" /></circle></marker></defs><rect x="4" y="4" width="100" height="100" /><path d="M22.88,18.66c2.74,0.98,5.94,0.75,8.76,0.53c14.9-1.13,30.75-3.07,47.11-3.48c3.15-0.08,6.28-0.23,9.38,0.43" class="grey" /><path d="M26.99,20.5c1.01,1.01,1.24,2.11,1.15,4C27.25,42.75,25,73.75,10.81,87.97" class="grey" /><path d="M37.01,33.95c0.83,0.83,1.24,2.05,1.43,3.26c0.97,6.29,1.86,13.04,2.65,20.25c0.19,1.71,0.37,3.38,0.53,4.95" class="grey" /><path d="M38.56,34.85c11.61-1.22,30.19-2.98,40.67-3.81c3.88-0.31,4.81,1.2,4.35,4.59c-0.6,4.45-1.93,11.73-2.96,18.17c-0.35,2.2-0.7,4.28-1.02,6.09" class="grey" /><path d="M40.98,47.36c10.15-1.11,33.15-2.99,40.12-3.16" class="grey" /><path d="M42.47,60.85c12.28-1.35,27.03-2.47,36.63-2.79" class="grey" /><path d="M58.54,35.28c0.91,0.91,1.31,2.35,1.31,4.06c0,13.03-0.1,46.5-0.1,50.17" class="grey" /><path d="M39.77,76.17c2.48,0.58,4.61,0.33,6.62,0.06c9.36-1.24,21.23-2.61,29.23-3.04c2.14-0.12,4.65-0.05,6.75,0.45" class="grey" /><path d="M26.46,92.11c2.57,0.93,6.29,0.7,8.94,0.44c13.36-1.3,31.73-2.8,47.48-3.15c2.81-0.06,5.66,0.06,8.43,0.66" class="grey" /><path d="M22.88,18.66c2.74,0.98,5.94,0.75,8.76,0.53c14.9-1.13,30.75-3.07,47.11-3.48c3.15-0.08,6.28-0.23,9.38,0.43" class="stroke" stroke-dasharray="150"><animate attributeName="stroke-dashoffset" from="150" to="0" dur="1.8s" begin="0s" fill="freeze" /></path><path d="M26.99,20.5c1.01,1.01,1.24,2.11,1.15,4C27.25,42.75,25,73.75,10.81,87.97" class="stroke" stroke-dasharray="150"><set attributeName="opacity" to="0" dur="1.5s" /><animate attributeName="stroke-dashoffset" from="150" to="0" dur="1.8s" begin="1.5s" fill="freeze" /></path><path d="M37.01,33.95c0.83,0.83,1.24,2.05,1.43,3.26c0.97,6.29,1.86,13.04,2.65,20.25c0.19,1.71,0.37,3.38,0.53,4.95" class="stroke" stroke-dasharray="150"><set attributeName="opacity" to="0" dur="3.2s" /><animate attributeName="stroke-dashoffset" from="150" to="0" dur="1.8s" begin="3.2s" fill="freeze" /></path><path d="M38.56,34.85c11.61-1.22,30.19-2.98,40.67-3.81c3.88-0.31,4.81,1.2,4.35,4.59c-0.6,4.45-1.93,11.73-2.96,18.17c-0.35,2.2-0.7,4.28-1.02,6.09" class="stroke" stroke-dasharray="150"><set attributeName="opacity" to="0" dur="4.2s" /><animate attributeName="stroke-dashoffset" from="150" to="0" dur="1.8s" begin="4.2s" fill="freeze" /></path><path d="M40.98,47.36c10.15-1.11,33.15-2.99,40.12-3.16" class="stroke" stroke-dasharray="150"><set attributeName="opacity" to="0" dur="5.9s" /><animate attributeName="stroke-dashoffset" from="150" to="0" dur="1.8s" begin="5.9s" fill="freeze" /></path><path d="M42.47,60.85c12.28-1.35,27.03-2.47,36.63-2.79" class="stroke" stroke-dasharray="150"><set attributeName="opacity" to="0" dur="7.0s" /><animate attributeName="stroke-dashoffset" from="150" to="0" dur="1.8s" begin="7.0s" fill="freeze" /></path><path d="M58.54,35.28c0.91,0.91,1.31,2.35,1.31,4.06c0,13.03-0.1,46.5-0.1,50.17" class="stroke" stroke-dasharray="150"><set attributeName="opacity" to="0" dur="8.0s" /><animate attributeName="stroke-dashoffset" from="150" to="0" dur="1.8s" begin="8.0s" fill="freeze" /></path><path d="M39.77,76.17c2.48,0.58,4.61,0.33,6.62,0.06c9.36-1.24,21.23-2.61,29.23-3.04c2.14-0.12,4.65-0.05,6.75,0.45" class="stroke" stroke-dasharray="150"><set attributeName="opacity" to="0" dur="9.3s" /><animate attributeName="stroke-dashoffset" from="150" to="0" dur="1.8s" begin="9.3s" fill="freeze" /></path><path d="M26.46,92.11c2.57,0.93,6.29,0.7,8.94,0.44c13.36-1.3,31.73-2.8,47.48-3.15c2.81-0.06,5.66,0.06,8.43,0.66" class="stroke" stroke-dasharray="150"><set attributeName="opacity" to="0" dur="10.4s" /><animate attributeName="stroke-dashoffset" from="150" to="0" dur="1.8s" begin="10.4s" fill="freeze" /></path><text x="90" y="120" id="reset">⟳</text><text x="70" y="120" id="pause">◼</text><script type="text/javascript"><![CDATA[function RecurringTimer(e,t){var n,r,i=t;this.pause=function(){window.clearTimeout(n);i-=new Date-r};var s=function(){r=new Date;n=window.setTimeout(function(){i=t;s();e()},i)};this.clear=function(){window.clearTimeout(n);i=t;n=window.setTimeout(function(){i=t;s();e()},i)};this.resume=s;this.resume()}function invoketimer(){timer=new RecurringTimer(function(){svg.setCurrentTime(0)},12900)}var svg=document.getElementById("kanjivg");var pause=document.getElementById("pause");var reset=document.getElementById("reset");var timer;invoketimer();reset.onclick=function(){svg.setCurrentTime(0);timer.clear();svg.unpauseAnimations();pause.innerHTML = "◼";};pause.onclick=function(){if(svg.animationsPaused()){svg.unpauseAnimations();timer.resume();pause.innerHTML="◼"}else{svg.pauseAnimations();timer.pause();pause.innerHTML="▶"}}]]></script></svg>