<svg id="kanjivg" width="106" height="126" xmlns="http://www.w3.org/2000/svg" xmlns:xlink="http://www.w3.org/1999/xlink" xml:space="preserve" version="1.1" baseProfile="full"><defs><style type="text/css"><![CDATA[path.black { fill:none;stroke:black;stroke-width:5;stroke-linecap:round;stroke-linejoin:round; }path.grey { fill:none;stroke:#ddd;stroke-width:5;stroke-linecap:round;stroke-linejoin:round; }path.stroke { fill:none;stroke:black;stroke-width:5;stroke-linecap:round;stroke-linejoin:round; }rect { fill:none;stroke:#555;stroke-width:2;} text{font-size:16px;font-family:Segoe UI Symbol,Cambria Math,DejaVu Sans,Symbola,Quivira,STIX,Code2000;-webkit-touch-callout:none;cursor:pointer;-webkit-user-select:none;-khtml-user-select:none;-moz-user-select:none;-ms-user-select:none;user-select: none;} #reset { font-weight:bold; }]]></style><marker id="markerStart" markerWidth="8" markerHeight="8" style="overflow:visible;"><circle cx="0" cy="0" r="1.5" style="stroke:none;fill:red;fill-opacity:0.5;"/></marker><marker id="markerEnd" style="overflow:visible;"><circle cx="0" cy="0" r="0.8" style="stroke:none;fill:blue;fill-opacity:0.5;"><animate attributeName="opacity" from="1" to="0" dur="3s" repeatCount="indefinite" /></circle></marker></defs><rect x="4" y="4" width="100" height="100" /><path d="M21.13,19.73c2.12,0.27,4.31,0.68,5.82,0.54c16.8-1.52,39.3-4.02,54.61-4.73c2.53-0.12,4.05,0.26,5.31,0.53" class="grey" /><path d="M25.5,20.5c0.5,1.5,0.51,1.9,0.43,4.36C25.25,44.5,23.5,75.75,12.81,92.47" class="grey" /><path d="M31.51,44.17c0.73,0.46,2.05,0.47,2.79,0.46c7.2-0.13,22.7-3.13,30.73-3.94c1.21-0.12,1.94,0.22,2.54,0.45" class="grey" /><path d="M49.75,26.75c0.5,1.5,0.65,1.63,0.68,4c0.14,11.16-5.93,48-27.26,64.26" class="grey" /><path d="M51.3,56.44c0.86,1.21,1.14,1.92,1.19,3.79c0.23,8.36-0.21,17.21-0.21,22.89c0,12.86,4.66,12.14,20.47,12.14c18.14,0,21.88-1.65,21.88-9.68" class="grey" /><path d="M60.16,25.46c2.61,1.35,6.75,5.57,7.4,7.68" class="grey" /><path d="M83.73,29.5c0.05,0.59,0.3,1.63-0.11,2.36c-3.04,5.44-9.11,14.73-19.34,21.75" class="grey" /><path d="M87.88,46.39c0.07,0.55,0.23,1.51-0.13,2.22c-2.45,4.85-12.4,15.64-22.49,21.23" class="grey" /><path d="M89.62,65.68c0.08,0.54,0.16,1.39-0.15,2.16c-1.84,4.55-12.38,14.53-26.81,20.64" class="grey" /><path d="M21.13,19.73c2.12,0.27,4.31,0.68,5.82,0.54c16.8-1.52,39.3-4.02,54.61-4.73c2.53-0.12,4.05,0.26,5.31,0.53" class="stroke" stroke-dasharray="150"><animate attributeName="stroke-dashoffset" from="150" to="0" dur="1.8s" begin="0s" fill="freeze" /></path><path d="M25.5,20.5c0.5,1.5,0.51,1.9,0.43,4.36C25.25,44.5,23.5,75.75,12.81,92.47" class="stroke" stroke-dasharray="150"><set attributeName="opacity" to="0" dur="1.5s" /><animate attributeName="stroke-dashoffset" from="150" to="0" dur="1.8s" begin="1.5s" fill="freeze" /></path><path d="M31.51,44.17c0.73,0.46,2.05,0.47,2.79,0.46c7.2-0.13,22.7-3.13,30.73-3.94c1.21-0.12,1.94,0.22,2.54,0.45" class="stroke" stroke-dasharray="150"><set attributeName="opacity" to="0" dur="3.2s" /><animate attributeName="stroke-dashoffset" from="150" to="0" dur="1.8s" begin="3.2s" fill="freeze" /></path><path d="M49.75,26.75c0.5,1.5,0.65,1.63,0.68,4c0.14,11.16-5.93,48-27.26,64.26" class="stroke" stroke-dasharray="150"><set attributeName="opacity" to="0" dur="4.2s" /><animate attributeName="stroke-dashoffset" from="150" to="0" dur="1.8s" begin="4.2s" fill="freeze" /></path><path d="M51.3,56.44c0.86,1.21,1.14,1.92,1.19,3.79c0.23,8.36-0.21,17.21-0.21,22.89c0,12.86,4.66,12.14,20.47,12.14c18.14,0,21.88-1.65,21.88-9.68" class="stroke" stroke-dasharray="150"><set attributeName="opacity" to="0" dur="5.9s" /><animate attributeName="stroke-dashoffset" from="150" to="0" dur="1.8s" begin="5.9s" fill="freeze" /></path><path d="M60.16,25.46c2.61,1.35,6.75,5.57,7.4,7.68" class="stroke" stroke-dasharray="150"><set attributeName="opacity" to="0" dur="7.6000000000000005s" /><animate attributeName="stroke-dashoffset" from="150" to="0" dur="1.8s" begin="7.6000000000000005s" fill="freeze" /></path><path d="M83.73,29.5c0.05,0.59,0.3,1.63-0.11,2.36c-3.04,5.44-9.11,14.73-19.34,21.75" class="stroke" stroke-dasharray="150"><set attributeName="opacity" to="0" dur="8.5s" /><animate attributeName="stroke-dashoffset" from="150" to="0" dur="1.8s" begin="8.5s" fill="freeze" /></path><path d="M87.88,46.39c0.07,0.55,0.23,1.51-0.13,2.22c-2.45,4.85-12.4,15.64-22.49,21.23" class="stroke" stroke-dasharray="150"><set attributeName="opacity" to="0" dur="9.5s" /><animate attributeName="stroke-dashoffset" from="150" to="0" dur="1.8s" begin="9.5s" fill="freeze" /></path><path d="M89.62,65.68c0.08,0.54,0.16,1.39-0.15,2.16c-1.84,4.55-12.38,14.53-26.81,20.64" class="stroke" stroke-dasharray="150"><set attributeName="opacity" to="0" dur="10.5s" /><animate attributeName="stroke-dashoffset" from="150" to="0" dur="1.8s" begin="10.5s" fill="freeze" /></path><text x="90" y="120" id="reset">⟳</text><text x="70" y="120" id="pause">◼</text><script type="text/javascript"><![CDATA[function RecurringTimer(e,t){var n,r,i=t;this.pause=function(){window.clearTimeout(n);i-=new Date-r};var s=function(){r=new Date;n=window.setTimeout(function(){i=t;s();e()},i)};this.clear=function(){window.clearTimeout(n);i=t;n=window.setTimeout(function(){i=t;s();e()},i)};this.resume=s;this.resume()}function invoketimer(){timer=new RecurringTimer(function(){svg.setCurrentTime(0)},12500)}var svg=document.getElementById("kanjivg");var pause=document.getElementById("pause");var reset=document.getElementById("reset");var timer;invoketimer();reset.onclick=function(){svg.setCurrentTime(0);timer.clear();svg.unpauseAnimations();pause.innerHTML = "◼";};pause.onclick=function(){if(svg.animationsPaused()){svg.unpauseAnimations();timer.resume();pause.innerHTML="◼"}else{svg.pauseAnimations();timer.pause();pause.innerHTML="▶"}}]]></script></svg>