<svg id="kanjivg" width="106" height="126" xmlns="http://www.w3.org/2000/svg" xmlns:xlink="http://www.w3.org/1999/xlink" xml:space="preserve" version="1.1" baseProfile="full"><defs><style type="text/css"><![CDATA[path.black { fill:none;stroke:black;stroke-width:5;stroke-linecap:round;stroke-linejoin:round; }path.grey { fill:none;stroke:#ddd;stroke-width:5;stroke-linecap:round;stroke-linejoin:round; }path.stroke { fill:none;stroke:black;stroke-width:5;stroke-linecap:round;stroke-linejoin:round; }rect { fill:none;stroke:#555;stroke-width:2;} text{font-size:16px;font-family:Segoe UI Symbol,Cambria Math,DejaVu Sans,Symbola,Quivira,STIX,Code2000;-webkit-touch-callout:none;cursor:pointer;-webkit-user-select:none;-khtml-user-select:none;-moz-user-select:none;-ms-user-select:none;user-select: none;} #reset { font-weight:bold; }]]></style><marker id="markerStart" markerWidth="8" markerHeight="8" style="overflow:visible;"><circle cx="0" cy="0" r="1.5" style="stroke:none;fill:red;fill-opacity:0.5;"/></marker><marker id="markerEnd" style="overflow:visible;"><circle cx="0" cy="0" r="0.8" style="stroke:none;fill:blue;fill-opacity:0.5;"><animate attributeName="opacity" from="1" to="0" dur="3s" repeatCount="indefinite" /></circle></marker></defs><rect x="4" y="4" width="100" height="100" /><path d="M43.71,11.5c0.06,0.76,0.12,1.96-0.12,3.05c-1.44,6.43-9.72,20.54-21.06,29.17" class="grey" /><path d="M42.74,23.42c0.41,0.04,2.19,0.12,3.34-0.12c5.16-1.05,12.62-2.82,18.14-4.01c3.79-0.81,4.61,1.43,3.65,3.65C62.56,35.07,41.5,62.25,17.44,71.5" class="grey" /><path d="M37.71,28.93c5.79,5.32,29.16,23.45,41.36,32.01c3.23,2.27,6.51,4.69,10.3,5.81" class="grey" /><path d="M34,71.73c1.06,1.09,1.26,1.9,1.6,3.27c1.09,4.44,2,12.24,2.79,18.77c0.17,1.38,0.33,2.71,0.49,3.93" class="grey" /><path d="M36.69,73.23c8.52-1.23,21.58-2.48,28.8-3.29c3.94-0.44,6.92-0.9,5.92,4.07c-1,4.96-2.42,11.07-3.85,17.36" class="grey" /><path d="M39.34,94.82c5.06-0.56,16.66-1.39,25.8-2.16c1.6-0.13,3.12-0.27,4.52-0.39" class="grey" /><path d="M43.71,11.5c0.06,0.76,0.12,1.96-0.12,3.05c-1.44,6.43-9.72,20.54-21.06,29.17" class="stroke" stroke-dasharray="150"><animate attributeName="stroke-dashoffset" from="150" to="0" dur="1.8s" begin="0s" fill="freeze" /></path><path d="M42.74,23.42c0.41,0.04,2.19,0.12,3.34-0.12c5.16-1.05,12.62-2.82,18.14-4.01c3.79-0.81,4.61,1.43,3.65,3.65C62.56,35.07,41.5,62.25,17.44,71.5" class="stroke" stroke-dasharray="150"><set attributeName="opacity" to="0" dur="1.0s" /><animate attributeName="stroke-dashoffset" from="150" to="0" dur="1.8s" begin="1.0s" fill="freeze" /></path><path d="M37.71,28.93c5.79,5.32,29.16,23.45,41.36,32.01c3.23,2.27,6.51,4.69,10.3,5.81" class="stroke" stroke-dasharray="150"><set attributeName="opacity" to="0" dur="2.9s" /><animate attributeName="stroke-dashoffset" from="150" to="0" dur="1.8s" begin="2.9s" fill="freeze" /></path><path d="M34,71.73c1.06,1.09,1.26,1.9,1.6,3.27c1.09,4.44,2,12.24,2.79,18.77c0.17,1.38,0.33,2.71,0.49,3.93" class="stroke" stroke-dasharray="150"><set attributeName="opacity" to="0" dur="4.4s" /><animate attributeName="stroke-dashoffset" from="150" to="0" dur="1.8s" begin="4.4s" fill="freeze" /></path><path d="M36.69,73.23c8.52-1.23,21.58-2.48,28.8-3.29c3.94-0.44,6.92-0.9,5.92,4.07c-1,4.96-2.42,11.07-3.85,17.36" class="stroke" stroke-dasharray="150"><set attributeName="opacity" to="0" dur="5.4s" /><animate attributeName="stroke-dashoffset" from="150" to="0" dur="1.8s" begin="5.4s" fill="freeze" /></path><path d="M39.34,94.82c5.06-0.56,16.66-1.39,25.8-2.16c1.6-0.13,3.12-0.27,4.52-0.39" class="stroke" stroke-dasharray="150"><set attributeName="opacity" to="0" dur="6.800000000000001s" /><animate attributeName="stroke-dashoffset" from="150" to="0" dur="1.8s" begin="6.800000000000001s" fill="freeze" /></path><text x="90" y="120" id="reset">⟳</text><text x="70" y="120" id="pause">◼</text><script type="text/javascript"><![CDATA[function RecurringTimer(e,t){var n,r,i=t;this.pause=function(){window.clearTimeout(n);i-=new Date-r};var s=function(){r=new Date;n=window.setTimeout(function(){i=t;s();e()},i)};this.clear=function(){window.clearTimeout(n);i=t;n=window.setTimeout(function(){i=t;s();e()},i)};this.resume=s;this.resume()}function invoketimer(){timer=new RecurringTimer(function(){svg.setCurrentTime(0)},8800)}var svg=document.getElementById("kanjivg");var pause=document.getElementById("pause");var reset=document.getElementById("reset");var timer;invoketimer();reset.onclick=function(){svg.setCurrentTime(0);timer.clear();svg.unpauseAnimations();pause.innerHTML = "◼";};pause.onclick=function(){if(svg.animationsPaused()){svg.unpauseAnimations();timer.resume();pause.innerHTML="◼"}else{svg.pauseAnimations();timer.pause();pause.innerHTML="▶"}}]]></script></svg>