<svg id="kanjivg" width="106" height="126" xmlns="http://www.w3.org/2000/svg" xmlns:xlink="http://www.w3.org/1999/xlink" xml:space="preserve" version="1.1" baseProfile="full"><defs><style type="text/css"><![CDATA[path.black { fill:none;stroke:black;stroke-width:5;stroke-linecap:round;stroke-linejoin:round; }path.grey { fill:none;stroke:#ddd;stroke-width:5;stroke-linecap:round;stroke-linejoin:round; }path.stroke { fill:none;stroke:black;stroke-width:5;stroke-linecap:round;stroke-linejoin:round; }rect { fill:none;stroke:#555;stroke-width:2;} text{font-size:16px;font-family:Segoe UI Symbol,Cambria Math,DejaVu Sans,Symbola,Quivira,STIX,Code2000;-webkit-touch-callout:none;cursor:pointer;-webkit-user-select:none;-khtml-user-select:none;-moz-user-select:none;-ms-user-select:none;user-select: none;} #reset { font-weight:bold; }]]></style><marker id="markerStart" markerWidth="8" markerHeight="8" style="overflow:visible;"><circle cx="0" cy="0" r="1.5" style="stroke:none;fill:red;fill-opacity:0.5;"/></marker><marker id="markerEnd" style="overflow:visible;"><circle cx="0" cy="0" r="0.8" style="stroke:none;fill:blue;fill-opacity:0.5;"><animate attributeName="opacity" from="1" to="0" dur="3s" repeatCount="indefinite" /></circle></marker></defs><rect x="4" y="4" width="100" height="100" /><path d="M10.25,33.29c0.37,0.51,0.76,0.94,0.92,1.58c1.29,5.07,3.34,18.54,4.23,27.63" class="grey" /><path d="M11.58,35.22c6.92-1.22,17.55-2.56,21.92-3.23c1.6-0.24,2.56,1.44,2.33,2.87c-0.95,5.92-3.05,14.07-4.46,22.25" class="grey" /><path d="M15.07,59.05c5.14-0.75,11.33-1.05,18.39-2.21" class="grey" /><path d="M45.16,22.49c0.98,0.48,2.75,0.55,3.74,0.48c6.6-0.47,28.89-4.77,38.17-4.77c1.63,0,2.61,0.23,3.42,0.47" class="grey" /><path d="M40.27,49.86c1.44,0.56,4.09,0.7,5.53,0.56c10.65-1.05,32.31-3.88,47.88-3.82c2.4,0.01,3.84,0.27,5.05,0.55" class="grey" /><path d="M67.25,23.66c0.74,0.88,1.69,2.87,1.69,5.79c0,12.8-0.72,58.43-0.72,63.2c0,10.09-7.63,0.19-8.61-0.71" class="grey" /><path d="M10.25,33.29c0.37,0.51,0.76,0.94,0.92,1.58c1.29,5.07,3.34,18.54,4.23,27.63" class="stroke" stroke-dasharray="150"><animate attributeName="stroke-dashoffset" from="150" to="0" dur="1.8s" begin="0s" fill="freeze" /></path><path d="M11.58,35.22c6.92-1.22,17.55-2.56,21.92-3.23c1.6-0.24,2.56,1.44,2.33,2.87c-0.95,5.92-3.05,14.07-4.46,22.25" class="stroke" stroke-dasharray="150"><set attributeName="opacity" to="0" dur="1.0s" /><animate attributeName="stroke-dashoffset" from="150" to="0" dur="1.8s" begin="1.0s" fill="freeze" /></path><path d="M15.07,59.05c5.14-0.75,11.33-1.05,18.39-2.21" class="stroke" stroke-dasharray="150"><set attributeName="opacity" to="0" dur="2.2s" /><animate attributeName="stroke-dashoffset" from="150" to="0" dur="1.8s" begin="2.2s" fill="freeze" /></path><path d="M45.16,22.49c0.98,0.48,2.75,0.55,3.74,0.48c6.6-0.47,28.89-4.77,38.17-4.77c1.63,0,2.61,0.23,3.42,0.47" class="stroke" stroke-dasharray="150"><set attributeName="opacity" to="0" dur="3.1s" /><animate attributeName="stroke-dashoffset" from="150" to="0" dur="1.8s" begin="3.1s" fill="freeze" /></path><path d="M40.27,49.86c1.44,0.56,4.09,0.7,5.53,0.56c10.65-1.05,32.31-3.88,47.88-3.82c2.4,0.01,3.84,0.27,5.05,0.55" class="stroke" stroke-dasharray="150"><set attributeName="opacity" to="0" dur="4.3s" /><animate attributeName="stroke-dashoffset" from="150" to="0" dur="1.8s" begin="4.3s" fill="freeze" /></path><path d="M67.25,23.66c0.74,0.88,1.69,2.87,1.69,5.79c0,12.8-0.72,58.43-0.72,63.2c0,10.09-7.63,0.19-8.61-0.71" class="stroke" stroke-dasharray="150"><set attributeName="opacity" to="0" dur="5.699999999999999s" /><animate attributeName="stroke-dashoffset" from="150" to="0" dur="1.8s" begin="5.699999999999999s" fill="freeze" /></path><text x="90" y="120" id="reset">⟳</text><text x="70" y="120" id="pause">◼</text><script type="text/javascript"><![CDATA[function RecurringTimer(e,t){var n,r,i=t;this.pause=function(){window.clearTimeout(n);i-=new Date-r};var s=function(){r=new Date;n=window.setTimeout(function(){i=t;s();e()},i)};this.clear=function(){window.clearTimeout(n);i=t;n=window.setTimeout(function(){i=t;s();e()},i)};this.resume=s;this.resume()}function invoketimer(){timer=new RecurringTimer(function(){svg.setCurrentTime(0)},8400)}var svg=document.getElementById("kanjivg");var pause=document.getElementById("pause");var reset=document.getElementById("reset");var timer;invoketimer();reset.onclick=function(){svg.setCurrentTime(0);timer.clear();svg.unpauseAnimations();pause.innerHTML = "◼";};pause.onclick=function(){if(svg.animationsPaused()){svg.unpauseAnimations();timer.resume();pause.innerHTML="◼"}else{svg.pauseAnimations();timer.pause();pause.innerHTML="▶"}}]]></script></svg>