<svg id="kanjivg" width="106" height="126" xmlns="http://www.w3.org/2000/svg" xmlns:xlink="http://www.w3.org/1999/xlink" xml:space="preserve" version="1.1" baseProfile="full"><defs><style type="text/css"><![CDATA[path.black { fill:none;stroke:black;stroke-width:5;stroke-linecap:round;stroke-linejoin:round; }path.grey { fill:none;stroke:#ddd;stroke-width:5;stroke-linecap:round;stroke-linejoin:round; }path.stroke { fill:none;stroke:black;stroke-width:5;stroke-linecap:round;stroke-linejoin:round; }rect { fill:none;stroke:#555;stroke-width:2;} text{font-size:16px;font-family:Segoe UI Symbol,Cambria Math,DejaVu Sans,Symbola,Quivira,STIX,Code2000;-webkit-touch-callout:none;cursor:pointer;-webkit-user-select:none;-khtml-user-select:none;-moz-user-select:none;-ms-user-select:none;user-select: none;} #reset { font-weight:bold; }]]></style><marker id="markerStart" markerWidth="8" markerHeight="8" style="overflow:visible;"><circle cx="0" cy="0" r="1.5" style="stroke:none;fill:red;fill-opacity:0.5;"/></marker><marker id="markerEnd" style="overflow:visible;"><circle cx="0" cy="0" r="0.8" style="stroke:none;fill:blue;fill-opacity:0.5;"><animate attributeName="opacity" from="1" to="0" dur="3s" repeatCount="indefinite" /></circle></marker></defs><rect x="4" y="4" width="100" height="100" /><path d="M13.25,34.5c4.12,0.63,7.66,0.79,11.12,0.3c19.88-2.8,43.24-4.17,61.5-5.43c3.55-0.25,7.36-0.42,10.89,0.18" class="grey" /><path d="M52.98,12.01c1.01,1.01,1.26,2.62,1.26,4.14c0,6.35-0.11,22.78-0.11,35.48" class="grey" /><path d="M26.9,54.88c2.36,0.65,5.25,0.36,7.62,0.09c11.87-1.36,24.73-3.09,38.1-3.94c2.47-0.16,4.67,0.1,7.11,0.46" class="grey" /><path d="M31,68.85c0.76,0.76,1.68,2.38,1.95,3.59c1.3,5.8,2.47,12.33,3.55,19.27c0.29,1.85,0.55,3.63,0.78,5.25" class="grey" /><path d="M33.14,70.46c11.27-1.34,32.91-3.42,41.22-4.25c3.61-0.36,6.07,1.2,4.91,4.95c-2.03,6.59-2.9,10.09-5.61,18.61" class="grey" /><path d="M37.79,93.63c6.11-0.61,22.14-1.98,32.71-2.87c2.37-0.2,4.51-0.38,6.25-0.51" class="grey" /><path d="M13.25,34.5c4.12,0.63,7.66,0.79,11.12,0.3c19.88-2.8,43.24-4.17,61.5-5.43c3.55-0.25,7.36-0.42,10.89,0.18" class="stroke" stroke-dasharray="150"><animate attributeName="stroke-dashoffset" from="150" to="0" dur="1.8s" begin="0s" fill="freeze" /></path><path d="M52.98,12.01c1.01,1.01,1.26,2.62,1.26,4.14c0,6.35-0.11,22.78-0.11,35.48" class="stroke" stroke-dasharray="150"><set attributeName="opacity" to="0" dur="1.7s" /><animate attributeName="stroke-dashoffset" from="150" to="0" dur="1.8s" begin="1.7s" fill="freeze" /></path><path d="M26.9,54.88c2.36,0.65,5.25,0.36,7.62,0.09c11.87-1.36,24.73-3.09,38.1-3.94c2.47-0.16,4.67,0.1,7.11,0.46" class="stroke" stroke-dasharray="150"><set attributeName="opacity" to="0" dur="2.7s" /><animate attributeName="stroke-dashoffset" from="150" to="0" dur="1.8s" begin="2.7s" fill="freeze" /></path><path d="M31,68.85c0.76,0.76,1.68,2.38,1.95,3.59c1.3,5.8,2.47,12.33,3.55,19.27c0.29,1.85,0.55,3.63,0.78,5.25" class="stroke" stroke-dasharray="150"><set attributeName="opacity" to="0" dur="4.0s" /><animate attributeName="stroke-dashoffset" from="150" to="0" dur="1.8s" begin="4.0s" fill="freeze" /></path><path d="M33.14,70.46c11.27-1.34,32.91-3.42,41.22-4.25c3.61-0.36,6.07,1.2,4.91,4.95c-2.03,6.59-2.9,10.09-5.61,18.61" class="stroke" stroke-dasharray="150"><set attributeName="opacity" to="0" dur="5.0s" /><animate attributeName="stroke-dashoffset" from="150" to="0" dur="1.8s" begin="5.0s" fill="freeze" /></path><path d="M37.79,93.63c6.11-0.61,22.14-1.98,32.71-2.87c2.37-0.2,4.51-0.38,6.25-0.51" class="stroke" stroke-dasharray="150"><set attributeName="opacity" to="0" dur="6.5s" /><animate attributeName="stroke-dashoffset" from="150" to="0" dur="1.8s" begin="6.5s" fill="freeze" /></path><text x="90" y="120" id="reset">⟳</text><text x="70" y="120" id="pause">◼</text><script type="text/javascript"><![CDATA[function RecurringTimer(e,t){var n,r,i=t;this.pause=function(){window.clearTimeout(n);i-=new Date-r};var s=function(){r=new Date;n=window.setTimeout(function(){i=t;s();e()},i)};this.clear=function(){window.clearTimeout(n);i=t;n=window.setTimeout(function(){i=t;s();e()},i)};this.resume=s;this.resume()}function invoketimer(){timer=new RecurringTimer(function(){svg.setCurrentTime(0)},8500)}var svg=document.getElementById("kanjivg");var pause=document.getElementById("pause");var reset=document.getElementById("reset");var timer;invoketimer();reset.onclick=function(){svg.setCurrentTime(0);timer.clear();svg.unpauseAnimations();pause.innerHTML = "◼";};pause.onclick=function(){if(svg.animationsPaused()){svg.unpauseAnimations();timer.resume();pause.innerHTML="◼"}else{svg.pauseAnimations();timer.pause();pause.innerHTML="▶"}}]]></script></svg>