<svg id="kanjivg" width="106" height="126" xmlns="http://www.w3.org/2000/svg" xmlns:xlink="http://www.w3.org/1999/xlink" xml:space="preserve" version="1.1" baseProfile="full"><defs><style type="text/css"><![CDATA[path.black { fill:none;stroke:black;stroke-width:5;stroke-linecap:round;stroke-linejoin:round; }path.grey { fill:none;stroke:#ddd;stroke-width:5;stroke-linecap:round;stroke-linejoin:round; }path.stroke { fill:none;stroke:black;stroke-width:5;stroke-linecap:round;stroke-linejoin:round; }rect { fill:none;stroke:#555;stroke-width:2;} text{font-size:16px;font-family:Segoe UI Symbol,Cambria Math,DejaVu Sans,Symbola,Quivira,STIX,Code2000;-webkit-touch-callout:none;cursor:pointer;-webkit-user-select:none;-khtml-user-select:none;-moz-user-select:none;-ms-user-select:none;user-select: none;} #reset { font-weight:bold; }]]></style><marker id="markerStart" markerWidth="8" markerHeight="8" style="overflow:visible;"><circle cx="0" cy="0" r="1.5" style="stroke:none;fill:red;fill-opacity:0.5;"/></marker><marker id="markerEnd" style="overflow:visible;"><circle cx="0" cy="0" r="0.8" style="stroke:none;fill:blue;fill-opacity:0.5;"><animate attributeName="opacity" from="1" to="0" dur="3s" repeatCount="indefinite" /></circle></marker></defs><rect x="4" y="4" width="100" height="100" /><path d="M48.5,10.5c0.37,1.75,0.01,3.14-0.71,4.73C42.75,26.25,32.5,45.12,11,60" class="grey" /><path d="M50.25,14.75c5.41,6.77,25.92,26.39,35.46,34.92c3.33,2.98,6.37,5.04,10.79,6.08" class="grey" /><path d="M31.38,53.77c1.93,0.48,3.65,0.5,6.88,0.25c6.37-0.51,15.19-1.64,24.02-2.3c1.89-0.14,3.82-0.21,5.6,0.24" class="grey" /><path d="M27.5,72.08c0.84,0.84,1.77,1.84,1.94,2.64c1.93,8.81,2.6,14.74,3.67,21.26c0.21,1.28,0.44,2.11,0.69,3.55" class="grey" /><path d="M30.5,74.23c10.5-1.98,33-4.86,39.76-5.27c2.95-0.18,4.74,1.16,4.04,4.2c-1.42,6.12-3.17,11.21-5.5,19.45" class="grey" /><path d="M33.63,96.19c9.65-0.61,21.14-1.61,33.13-2.35c1.51-0.09,3.05-0.18,4.61-0.25" class="grey" /><path d="M48.5,10.5c0.37,1.75,0.01,3.14-0.71,4.73C42.75,26.25,32.5,45.12,11,60" class="stroke" stroke-dasharray="150"><animate attributeName="stroke-dashoffset" from="150" to="0" dur="1.8s" begin="0s" fill="freeze" /></path><path d="M50.25,14.75c5.41,6.77,25.92,26.39,35.46,34.92c3.33,2.98,6.37,5.04,10.79,6.08" class="stroke" stroke-dasharray="150"><set attributeName="opacity" to="0" dur="1.5s" /><animate attributeName="stroke-dashoffset" from="150" to="0" dur="1.8s" begin="1.5s" fill="freeze" /></path><path d="M31.38,53.77c1.93,0.48,3.65,0.5,6.88,0.25c6.37-0.51,15.19-1.64,24.02-2.3c1.89-0.14,3.82-0.21,5.6,0.24" class="stroke" stroke-dasharray="150"><set attributeName="opacity" to="0" dur="3.0s" /><animate attributeName="stroke-dashoffset" from="150" to="0" dur="1.8s" begin="3.0s" fill="freeze" /></path><path d="M27.5,72.08c0.84,0.84,1.77,1.84,1.94,2.64c1.93,8.81,2.6,14.74,3.67,21.26c0.21,1.28,0.44,2.11,0.69,3.55" class="stroke" stroke-dasharray="150"><set attributeName="opacity" to="0" dur="4.0s" /><animate attributeName="stroke-dashoffset" from="150" to="0" dur="1.8s" begin="4.0s" fill="freeze" /></path><path d="M30.5,74.23c10.5-1.98,33-4.86,39.76-5.27c2.95-0.18,4.74,1.16,4.04,4.2c-1.42,6.12-3.17,11.21-5.5,19.45" class="stroke" stroke-dasharray="150"><set attributeName="opacity" to="0" dur="5.0s" /><animate attributeName="stroke-dashoffset" from="150" to="0" dur="1.8s" begin="5.0s" fill="freeze" /></path><path d="M33.63,96.19c9.65-0.61,21.14-1.61,33.13-2.35c1.51-0.09,3.05-0.18,4.61-0.25" class="stroke" stroke-dasharray="150"><set attributeName="opacity" to="0" dur="6.5s" /><animate attributeName="stroke-dashoffset" from="150" to="0" dur="1.8s" begin="6.5s" fill="freeze" /></path><text x="90" y="120" id="reset">⟳</text><text x="70" y="120" id="pause">◼</text><script type="text/javascript"><![CDATA[function RecurringTimer(e,t){var n,r,i=t;this.pause=function(){window.clearTimeout(n);i-=new Date-r};var s=function(){r=new Date;n=window.setTimeout(function(){i=t;s();e()},i)};this.clear=function(){window.clearTimeout(n);i=t;n=window.setTimeout(function(){i=t;s();e()},i)};this.resume=s;this.resume()}function invoketimer(){timer=new RecurringTimer(function(){svg.setCurrentTime(0)},8500)}var svg=document.getElementById("kanjivg");var pause=document.getElementById("pause");var reset=document.getElementById("reset");var timer;invoketimer();reset.onclick=function(){svg.setCurrentTime(0);timer.clear();svg.unpauseAnimations();pause.innerHTML = "◼";};pause.onclick=function(){if(svg.animationsPaused()){svg.unpauseAnimations();timer.resume();pause.innerHTML="◼"}else{svg.pauseAnimations();timer.pause();pause.innerHTML="▶"}}]]></script></svg>