<svg id="kanjivg" width="106" height="126" xmlns="http://www.w3.org/2000/svg" xmlns:xlink="http://www.w3.org/1999/xlink" xml:space="preserve" version="1.1" baseProfile="full"><defs><style type="text/css"><![CDATA[path.black { fill:none;stroke:black;stroke-width:5;stroke-linecap:round;stroke-linejoin:round; }path.grey { fill:none;stroke:#ddd;stroke-width:5;stroke-linecap:round;stroke-linejoin:round; }path.stroke { fill:none;stroke:black;stroke-width:5;stroke-linecap:round;stroke-linejoin:round; }rect { fill:none;stroke:#555;stroke-width:2;} text{font-size:16px;font-family:Segoe UI Symbol,Cambria Math,DejaVu Sans,Symbola,Quivira,STIX,Code2000;-webkit-touch-callout:none;cursor:pointer;-webkit-user-select:none;-khtml-user-select:none;-moz-user-select:none;-ms-user-select:none;user-select: none;} #reset { font-weight:bold; }]]></style><marker id="markerStart" markerWidth="8" markerHeight="8" style="overflow:visible;"><circle cx="0" cy="0" r="1.5" style="stroke:none;fill:red;fill-opacity:0.5;"/></marker><marker id="markerEnd" style="overflow:visible;"><circle cx="0" cy="0" r="0.8" style="stroke:none;fill:blue;fill-opacity:0.5;"><animate attributeName="opacity" from="1" to="0" dur="3s" repeatCount="indefinite" /></circle></marker></defs><rect x="4" y="4" width="100" height="100" /><path d="M13,38.81c0.75,1.04,1,1.77,1.25,3.06c0.87,4.5,1.67,12.81,2.46,20.13c0.27,2.48,0.51,4.87,0.71,7" class="grey" /><path d="M14.84,40.02c9.08-1.74,15.14-2.67,19.45-3.25c3.34-0.45,4.62,0.41,4.09,3.87c-0.84,5.58-1.5,13.48-2.28,19.65" class="grey" /><path d="M17.85,63.27c4-0.59,9.76-1.21,15.45-2c1.66-0.23,3.83-0.49,5.16-0.49" class="grey" /><path d="M46.85,48.92c2.15,0.46,3.78,0.58,5.4,0.4c9.42-1.01,20.76-2.85,29.62-3.48c1.99-0.14,4.02-0.39,5.96,0.2" class="grey" /><path d="M64.67,17.62c0.86,0.85,1.27,2.27,1.27,4.14c0,12-0.07,47.13-0.07,62.75" class="grey" /><path d="M36.88,87.23c2.87,0.77,6.09,0.67,8.62,0.38c14.07-1.6,31.24-2.86,43.27-3.52c3.39-0.19,6.33-0.43,9.61,0.48" class="grey" /><path d="M13,38.81c0.75,1.04,1,1.77,1.25,3.06c0.87,4.5,1.67,12.81,2.46,20.13c0.27,2.48,0.51,4.87,0.71,7" class="stroke" stroke-dasharray="150"><animate attributeName="stroke-dashoffset" from="150" to="0" dur="1.8s" begin="0s" fill="freeze" /></path><path d="M14.84,40.02c9.08-1.74,15.14-2.67,19.45-3.25c3.34-0.45,4.62,0.41,4.09,3.87c-0.84,5.58-1.5,13.48-2.28,19.65" class="stroke" stroke-dasharray="150"><set attributeName="opacity" to="0" dur="1.0s" /><animate attributeName="stroke-dashoffset" from="150" to="0" dur="1.8s" begin="1.0s" fill="freeze" /></path><path d="M17.85,63.27c4-0.59,9.76-1.21,15.45-2c1.66-0.23,3.83-0.49,5.16-0.49" class="stroke" stroke-dasharray="150"><set attributeName="opacity" to="0" dur="2.2s" /><animate attributeName="stroke-dashoffset" from="150" to="0" dur="1.8s" begin="2.2s" fill="freeze" /></path><path d="M46.85,48.92c2.15,0.46,3.78,0.58,5.4,0.4c9.42-1.01,20.76-2.85,29.62-3.48c1.99-0.14,4.02-0.39,5.96,0.2" class="stroke" stroke-dasharray="150"><set attributeName="opacity" to="0" dur="3.2s" /><animate attributeName="stroke-dashoffset" from="150" to="0" dur="1.8s" begin="3.2s" fill="freeze" /></path><path d="M64.67,17.62c0.86,0.85,1.27,2.27,1.27,4.14c0,12-0.07,47.13-0.07,62.75" class="stroke" stroke-dasharray="150"><set attributeName="opacity" to="0" dur="4.300000000000001s" /><animate attributeName="stroke-dashoffset" from="150" to="0" dur="1.8s" begin="4.300000000000001s" fill="freeze" /></path><path d="M36.88,87.23c2.87,0.77,6.09,0.67,8.62,0.38c14.07-1.6,31.24-2.86,43.27-3.52c3.39-0.19,6.33-0.43,9.61,0.48" class="stroke" stroke-dasharray="150"><set attributeName="opacity" to="0" dur="5.800000000000001s" /><animate attributeName="stroke-dashoffset" from="150" to="0" dur="1.8s" begin="5.800000000000001s" fill="freeze" /></path><text x="90" y="120" id="reset">⟳</text><text x="70" y="120" id="pause">◼</text><script type="text/javascript"><![CDATA[function RecurringTimer(e,t){var n,r,i=t;this.pause=function(){window.clearTimeout(n);i-=new Date-r};var s=function(){r=new Date;n=window.setTimeout(function(){i=t;s();e()},i)};this.clear=function(){window.clearTimeout(n);i=t;n=window.setTimeout(function(){i=t;s();e()},i)};this.resume=s;this.resume()}function invoketimer(){timer=new RecurringTimer(function(){svg.setCurrentTime(0)},8300)}var svg=document.getElementById("kanjivg");var pause=document.getElementById("pause");var reset=document.getElementById("reset");var timer;invoketimer();reset.onclick=function(){svg.setCurrentTime(0);timer.clear();svg.unpauseAnimations();pause.innerHTML = "◼";};pause.onclick=function(){if(svg.animationsPaused()){svg.unpauseAnimations();timer.resume();pause.innerHTML="◼"}else{svg.pauseAnimations();timer.pause();pause.innerHTML="▶"}}]]></script></svg>