<svg id="kanjivg" width="106" height="126" xmlns="http://www.w3.org/2000/svg" xmlns:xlink="http://www.w3.org/1999/xlink" xml:space="preserve" version="1.1" baseProfile="full"><defs><style type="text/css"><![CDATA[path.black { fill:none;stroke:black;stroke-width:5;stroke-linecap:round;stroke-linejoin:round; }path.grey { fill:none;stroke:#ddd;stroke-width:5;stroke-linecap:round;stroke-linejoin:round; }path.stroke { fill:none;stroke:black;stroke-width:5;stroke-linecap:round;stroke-linejoin:round; }rect { fill:none;stroke:#555;stroke-width:2;} text{font-size:16px;font-family:Segoe UI Symbol,Cambria Math,DejaVu Sans,Symbola,Quivira,STIX,Code2000;-webkit-touch-callout:none;cursor:pointer;-webkit-user-select:none;-khtml-user-select:none;-moz-user-select:none;-ms-user-select:none;user-select: none;} #reset { font-weight:bold; }]]></style><marker id="markerStart" markerWidth="8" markerHeight="8" style="overflow:visible;"><circle cx="0" cy="0" r="1.5" style="stroke:none;fill:red;fill-opacity:0.5;"/></marker><marker id="markerEnd" style="overflow:visible;"><circle cx="0" cy="0" r="0.8" style="stroke:none;fill:blue;fill-opacity:0.5;"><animate attributeName="opacity" from="1" to="0" dur="3s" repeatCount="indefinite" /></circle></marker></defs><rect x="4" y="4" width="100" height="100" /><path d="M10.75,38.89c0.38,0.4,0.78,0.73,0.95,1.23c1.33,3.94,2.93,14.81,3.85,21.89" class="grey" /><path d="M13.15,40.78c9.72-1.73,16.51-2.77,21.02-3.29c1.65-0.19,2.64,1.12,2.4,2.23c-0.98,4.6-2.62,10.72-4.07,17.09" class="grey" /><path d="M15.73,60.1c5.29-0.59,12.19-1.82,19.46-2.72" class="grey" /><path d="M43.4,45.27c0.72,0.35,3.18,0.79,4.57,0.58c7.28-1.07,32.46-4.28,41.23-5.02c1-0.08,2.42,0.14,4.66,0.74" class="grey" /><path d="M62.5,14.25c1.02,1.18,1.65,2.35,1.78,4.7c1.8,30.67-3.54,64.55-35.79,78.55" class="grey" /><path d="M65.06,45c6.4,14.1,18.85,37.96,27.02,48.03c2.15,2.64,2.93,2.98,3.92,3.22" class="grey" /><path d="M77.41,20c6.09,3.61,7.75,6.36,9.64,9.75" class="grey" /><path d="M10.75,38.89c0.38,0.4,0.78,0.73,0.95,1.23c1.33,3.94,2.93,14.81,3.85,21.89" class="stroke" stroke-dasharray="150"><animate attributeName="stroke-dashoffset" from="150" to="0" dur="1.8s" begin="0s" fill="freeze" /></path><path d="M13.15,40.78c9.72-1.73,16.51-2.77,21.02-3.29c1.65-0.19,2.64,1.12,2.4,2.23c-0.98,4.6-2.62,10.72-4.07,17.09" class="stroke" stroke-dasharray="150"><set attributeName="opacity" to="0" dur="1.0s" /><animate attributeName="stroke-dashoffset" from="150" to="0" dur="1.8s" begin="1.0s" fill="freeze" /></path><path d="M15.73,60.1c5.29-0.59,12.19-1.82,19.46-2.72" class="stroke" stroke-dasharray="150"><set attributeName="opacity" to="0" dur="2.1s" /><animate attributeName="stroke-dashoffset" from="150" to="0" dur="1.8s" begin="2.1s" fill="freeze" /></path><path d="M43.4,45.27c0.72,0.35,3.18,0.79,4.57,0.58c7.28-1.07,32.46-4.28,41.23-5.02c1-0.08,2.42,0.14,4.66,0.74" class="stroke" stroke-dasharray="150"><set attributeName="opacity" to="0" dur="3.0s" /><animate attributeName="stroke-dashoffset" from="150" to="0" dur="1.8s" begin="3.0s" fill="freeze" /></path><path d="M62.5,14.25c1.02,1.18,1.65,2.35,1.78,4.7c1.8,30.67-3.54,64.55-35.79,78.55" class="stroke" stroke-dasharray="150"><set attributeName="opacity" to="0" dur="4.3s" /><animate attributeName="stroke-dashoffset" from="150" to="0" dur="1.8s" begin="4.3s" fill="freeze" /></path><path d="M65.06,45c6.4,14.1,18.85,37.96,27.02,48.03c2.15,2.64,2.93,2.98,3.92,3.22" class="stroke" stroke-dasharray="150"><set attributeName="opacity" to="0" dur="6.1s" /><animate attributeName="stroke-dashoffset" from="150" to="0" dur="1.8s" begin="6.1s" fill="freeze" /></path><path d="M77.41,20c6.09,3.61,7.75,6.36,9.64,9.75" class="stroke" stroke-dasharray="150"><set attributeName="opacity" to="0" dur="7.6s" /><animate attributeName="stroke-dashoffset" from="150" to="0" dur="1.8s" begin="7.6s" fill="freeze" /></path><text x="90" y="120" id="reset">⟳</text><text x="70" y="120" id="pause">◼</text><script type="text/javascript"><![CDATA[function RecurringTimer(e,t){var n,r,i=t;this.pause=function(){window.clearTimeout(n);i-=new Date-r};var s=function(){r=new Date;n=window.setTimeout(function(){i=t;s();e()},i)};this.clear=function(){window.clearTimeout(n);i=t;n=window.setTimeout(function(){i=t;s();e()},i)};this.resume=s;this.resume()}function invoketimer(){timer=new RecurringTimer(function(){svg.setCurrentTime(0)},9500)}var svg=document.getElementById("kanjivg");var pause=document.getElementById("pause");var reset=document.getElementById("reset");var timer;invoketimer();reset.onclick=function(){svg.setCurrentTime(0);timer.clear();svg.unpauseAnimations();pause.innerHTML = "◼";};pause.onclick=function(){if(svg.animationsPaused()){svg.unpauseAnimations();timer.resume();pause.innerHTML="◼"}else{svg.pauseAnimations();timer.pause();pause.innerHTML="▶"}}]]></script></svg>