<svg id="kanjivg" width="106" height="126" xmlns="http://www.w3.org/2000/svg" xmlns:xlink="http://www.w3.org/1999/xlink" xml:space="preserve" version="1.1" baseProfile="full"><defs><style type="text/css"><![CDATA[path.black { fill:none;stroke:black;stroke-width:5;stroke-linecap:round;stroke-linejoin:round; }path.grey { fill:none;stroke:#ddd;stroke-width:5;stroke-linecap:round;stroke-linejoin:round; }path.stroke { fill:none;stroke:black;stroke-width:5;stroke-linecap:round;stroke-linejoin:round; }rect { fill:none;stroke:#555;stroke-width:2;} text{font-size:16px;font-family:Segoe UI Symbol,Cambria Math,DejaVu Sans,Symbola,Quivira,STIX,Code2000;-webkit-touch-callout:none;cursor:pointer;-webkit-user-select:none;-khtml-user-select:none;-moz-user-select:none;-ms-user-select:none;user-select: none;} #reset { font-weight:bold; }]]></style><marker id="markerStart" markerWidth="8" markerHeight="8" style="overflow:visible;"><circle cx="0" cy="0" r="1.5" style="stroke:none;fill:red;fill-opacity:0.5;"/></marker><marker id="markerEnd" style="overflow:visible;"><circle cx="0" cy="0" r="0.8" style="stroke:none;fill:blue;fill-opacity:0.5;"><animate attributeName="opacity" from="1" to="0" dur="3s" repeatCount="indefinite" /></circle></marker></defs><rect x="4" y="4" width="100" height="100" /><path d="M23.56,17.85c3.69,0.52,6.84,0.49,9.95,0.17c10.8-1.12,31.53-2.65,45.12-3.52c3.24-0.21,6.62-0.27,9.8,0.42" class="grey" /><path d="M53.22,19.55c0.11,0.85,0.17,1.78-0.47,2.9C48.38,30.12,35.38,44,14.27,54.98" class="grey" /><path d="M52.79,30.78c0.78,0.78,1.26,1.72,1.26,2.92c0,1.99,0.05,14.33,0.06,21.67c0,2.95,0,5.1-0.01,5.44" class="grey" /><path d="M67.22,33.76c9.41,3.61,19.28,10.49,26.38,17.79" class="grey" /><path d="M30,69.35c1.01,1.01,1.62,2.27,1.86,3.37c1.26,5.93,2.68,12.5,3.73,19.3c0.25,1.65,0.49,3.24,0.7,4.69" class="grey" /><path d="M32.14,71.21c13.99-1.58,31.73-3.46,42.47-4.25c4.16-0.31,6.01,1.5,5.06,5.68c-1.07,4.71-1.56,7.65-3.76,17.38" class="grey" /><path d="M36.29,93.63C46.5,93,57.5,92.25,72.25,91.26c2.02-0.14,3.96-0.19,5.75-0.26" class="grey" /><path d="M23.56,17.85c3.69,0.52,6.84,0.49,9.95,0.17c10.8-1.12,31.53-2.65,45.12-3.52c3.24-0.21,6.62-0.27,9.8,0.42" class="stroke" stroke-dasharray="150"><animate attributeName="stroke-dashoffset" from="150" to="0" dur="1.8s" begin="0s" fill="freeze" /></path><path d="M53.22,19.55c0.11,0.85,0.17,1.78-0.47,2.9C48.38,30.12,35.38,44,14.27,54.98" class="stroke" stroke-dasharray="150"><set attributeName="opacity" to="0" dur="1.5s" /><animate attributeName="stroke-dashoffset" from="150" to="0" dur="1.8s" begin="1.5s" fill="freeze" /></path><path d="M52.79,30.78c0.78,0.78,1.26,1.72,1.26,2.92c0,1.99,0.05,14.33,0.06,21.67c0,2.95,0,5.1-0.01,5.44" class="stroke" stroke-dasharray="150"><set attributeName="opacity" to="0" dur="2.8s" /><animate attributeName="stroke-dashoffset" from="150" to="0" dur="1.8s" begin="2.8s" fill="freeze" /></path><path d="M67.22,33.76c9.41,3.61,19.28,10.49,26.38,17.79" class="stroke" stroke-dasharray="150"><set attributeName="opacity" to="0" dur="3.8s" /><animate attributeName="stroke-dashoffset" from="150" to="0" dur="1.8s" begin="3.8s" fill="freeze" /></path><path d="M30,69.35c1.01,1.01,1.62,2.27,1.86,3.37c1.26,5.93,2.68,12.5,3.73,19.3c0.25,1.65,0.49,3.24,0.7,4.69" class="stroke" stroke-dasharray="150"><set attributeName="opacity" to="0" dur="4.8s" /><animate attributeName="stroke-dashoffset" from="150" to="0" dur="1.8s" begin="4.8s" fill="freeze" /></path><path d="M32.14,71.21c13.99-1.58,31.73-3.46,42.47-4.25c4.16-0.31,6.01,1.5,5.06,5.68c-1.07,4.71-1.56,7.65-3.76,17.38" class="stroke" stroke-dasharray="150"><set attributeName="opacity" to="0" dur="5.8s" /><animate attributeName="stroke-dashoffset" from="150" to="0" dur="1.8s" begin="5.8s" fill="freeze" /></path><path d="M36.29,93.63C46.5,93,57.5,92.25,72.25,91.26c2.02-0.14,3.96-0.19,5.75-0.26" class="stroke" stroke-dasharray="150"><set attributeName="opacity" to="0" dur="7.3s" /><animate attributeName="stroke-dashoffset" from="150" to="0" dur="1.8s" begin="7.3s" fill="freeze" /></path><text x="90" y="120" id="reset">⟳</text><text x="70" y="120" id="pause">◼</text><script type="text/javascript"><![CDATA[function RecurringTimer(e,t){var n,r,i=t;this.pause=function(){window.clearTimeout(n);i-=new Date-r};var s=function(){r=new Date;n=window.setTimeout(function(){i=t;s();e()},i)};this.clear=function(){window.clearTimeout(n);i=t;n=window.setTimeout(function(){i=t;s();e()},i)};this.resume=s;this.resume()}function invoketimer(){timer=new RecurringTimer(function(){svg.setCurrentTime(0)},9400)}var svg=document.getElementById("kanjivg");var pause=document.getElementById("pause");var reset=document.getElementById("reset");var timer;invoketimer();reset.onclick=function(){svg.setCurrentTime(0);timer.clear();svg.unpauseAnimations();pause.innerHTML = "◼";};pause.onclick=function(){if(svg.animationsPaused()){svg.unpauseAnimations();timer.resume();pause.innerHTML="◼"}else{svg.pauseAnimations();timer.pause();pause.innerHTML="▶"}}]]></script></svg>