<svg id="kanjivg" width="106" height="126" xmlns="http://www.w3.org/2000/svg" xmlns:xlink="http://www.w3.org/1999/xlink" xml:space="preserve" version="1.1" baseProfile="full"><defs><style type="text/css"><![CDATA[path.black { fill:none;stroke:black;stroke-width:5;stroke-linecap:round;stroke-linejoin:round; }path.grey { fill:none;stroke:#ddd;stroke-width:5;stroke-linecap:round;stroke-linejoin:round; }path.stroke { fill:none;stroke:black;stroke-width:5;stroke-linecap:round;stroke-linejoin:round; }rect { fill:none;stroke:#555;stroke-width:2;} text{font-size:16px;font-family:Segoe UI Symbol,Cambria Math,DejaVu Sans,Symbola,Quivira,STIX,Code2000;-webkit-touch-callout:none;cursor:pointer;-webkit-user-select:none;-khtml-user-select:none;-moz-user-select:none;-ms-user-select:none;user-select: none;} #reset { font-weight:bold; }]]></style><marker id="markerStart" markerWidth="8" markerHeight="8" style="overflow:visible;"><circle cx="0" cy="0" r="1.5" style="stroke:none;fill:red;fill-opacity:0.5;"/></marker><marker id="markerEnd" style="overflow:visible;"><circle cx="0" cy="0" r="0.8" style="stroke:none;fill:blue;fill-opacity:0.5;"><animate attributeName="opacity" from="1" to="0" dur="3s" repeatCount="indefinite" /></circle></marker></defs><rect x="4" y="4" width="100" height="100" /><path d="M9.25,33.25c0.37,0.5,0.76,0.91,0.92,1.54c1.29,4.94,3.34,18.58,4.23,27.47" class="grey" /><path d="M11.58,35.62c9.42-2.17,16.55-3.48,20.92-4.13c1.6-0.24,2.56,1.41,2.33,2.8c-0.95,5.78-3.05,13.71-4.46,21.69" class="grey" /><path d="M14.57,58.86c5.14-0.73,11.33-1.03,18.39-2.16" class="grey" /><path d="M56.26,19.02c0.3,0.91-0.07,1.94-0.42,3.07c-2.87,9.35-8.88,19.65-17,27.41" class="grey" /><path d="M64.59,13c8.71,3.42,19.27,24.49,26.53,29.95c2.81,2.11,3.81,3.24,6.53,3.93" class="grey" /><path d="M46.73,51.04c1.52,0.46,4.26,0.5,5.33,0.31c8.71-1.59,22.71-3.27,27.54-3.86c3.14-0.38,4.54,1.15,4.36,3.82c-0.46,7.07-5.95,31.28-9.9,39.51c-3.53,7.33-6.44,0.94-7.85-1.13" class="grey" /><path d="M59.53,53.25c0.06,0.91,0.22,2.4-0.13,3.67c-3.92,14.12-9.37,25.88-22.2,37.33" class="grey" /><path d="M9.25,33.25c0.37,0.5,0.76,0.91,0.92,1.54c1.29,4.94,3.34,18.58,4.23,27.47" class="stroke" stroke-dasharray="150"><animate attributeName="stroke-dashoffset" from="150" to="0" dur="1.8s" begin="0s" fill="freeze" /></path><path d="M11.58,35.62c9.42-2.17,16.55-3.48,20.92-4.13c1.6-0.24,2.56,1.41,2.33,2.8c-0.95,5.78-3.05,13.71-4.46,21.69" class="stroke" stroke-dasharray="150"><set attributeName="opacity" to="0" dur="1.0s" /><animate attributeName="stroke-dashoffset" from="150" to="0" dur="1.8s" begin="1.0s" fill="freeze" /></path><path d="M14.57,58.86c5.14-0.73,11.33-1.03,18.39-2.16" class="stroke" stroke-dasharray="150"><set attributeName="opacity" to="0" dur="2.2s" /><animate attributeName="stroke-dashoffset" from="150" to="0" dur="1.8s" begin="2.2s" fill="freeze" /></path><path d="M56.26,19.02c0.3,0.91-0.07,1.94-0.42,3.07c-2.87,9.35-8.88,19.65-17,27.41" class="stroke" stroke-dasharray="150"><set attributeName="opacity" to="0" dur="3.1s" /><animate attributeName="stroke-dashoffset" from="150" to="0" dur="1.8s" begin="3.1s" fill="freeze" /></path><path d="M64.59,13c8.71,3.42,19.27,24.49,26.53,29.95c2.81,2.11,3.81,3.24,6.53,3.93" class="stroke" stroke-dasharray="150"><set attributeName="opacity" to="0" dur="4.1s" /><animate attributeName="stroke-dashoffset" from="150" to="0" dur="1.8s" begin="4.1s" fill="freeze" /></path><path d="M46.73,51.04c1.52,0.46,4.26,0.5,5.33,0.31c8.71-1.59,22.71-3.27,27.54-3.86c3.14-0.38,4.54,1.15,4.36,3.82c-0.46,7.07-5.95,31.28-9.9,39.51c-3.53,7.33-6.44,0.94-7.85-1.13" class="stroke" stroke-dasharray="150"><set attributeName="opacity" to="0" dur="5.3s" /><animate attributeName="stroke-dashoffset" from="150" to="0" dur="1.8s" begin="5.3s" fill="freeze" /></path><path d="M59.53,53.25c0.06,0.91,0.22,2.4-0.13,3.67c-3.92,14.12-9.37,25.88-22.2,37.33" class="stroke" stroke-dasharray="150"><set attributeName="opacity" to="0" dur="7.1s" /><animate attributeName="stroke-dashoffset" from="150" to="0" dur="1.8s" begin="7.1s" fill="freeze" /></path><text x="90" y="120" id="reset">⟳</text><text x="70" y="120" id="pause">◼</text><script type="text/javascript"><![CDATA[function RecurringTimer(e,t){var n,r,i=t;this.pause=function(){window.clearTimeout(n);i-=new Date-r};var s=function(){r=new Date;n=window.setTimeout(function(){i=t;s();e()},i)};this.clear=function(){window.clearTimeout(n);i=t;n=window.setTimeout(function(){i=t;s();e()},i)};this.resume=s;this.resume()}function invoketimer(){timer=new RecurringTimer(function(){svg.setCurrentTime(0)},9299)}var svg=document.getElementById("kanjivg");var pause=document.getElementById("pause");var reset=document.getElementById("reset");var timer;invoketimer();reset.onclick=function(){svg.setCurrentTime(0);timer.clear();svg.unpauseAnimations();pause.innerHTML = "◼";};pause.onclick=function(){if(svg.animationsPaused()){svg.unpauseAnimations();timer.resume();pause.innerHTML="◼"}else{svg.pauseAnimations();timer.pause();pause.innerHTML="▶"}}]]></script></svg>