<svg id="kanjivg" width="106" height="126" xmlns="http://www.w3.org/2000/svg" xmlns:xlink="http://www.w3.org/1999/xlink" xml:space="preserve" version="1.1" baseProfile="full"><defs><style type="text/css"><![CDATA[path.black { fill:none;stroke:black;stroke-width:5;stroke-linecap:round;stroke-linejoin:round; }path.grey { fill:none;stroke:#ddd;stroke-width:5;stroke-linecap:round;stroke-linejoin:round; }path.stroke { fill:none;stroke:black;stroke-width:5;stroke-linecap:round;stroke-linejoin:round; }rect { fill:none;stroke:#555;stroke-width:2;} text{font-size:16px;font-family:Segoe UI Symbol,Cambria Math,DejaVu Sans,Symbola,Quivira,STIX,Code2000;-webkit-touch-callout:none;cursor:pointer;-webkit-user-select:none;-khtml-user-select:none;-moz-user-select:none;-ms-user-select:none;user-select: none;} #reset { font-weight:bold; }]]></style><marker id="markerStart" markerWidth="8" markerHeight="8" style="overflow:visible;"><circle cx="0" cy="0" r="1.5" style="stroke:none;fill:red;fill-opacity:0.5;"/></marker><marker id="markerEnd" style="overflow:visible;"><circle cx="0" cy="0" r="0.8" style="stroke:none;fill:blue;fill-opacity:0.5;"><animate attributeName="opacity" from="1" to="0" dur="3s" repeatCount="indefinite" /></circle></marker></defs><rect x="4" y="4" width="100" height="100" /><path d="M13,30.89c0.79,0.93,1.22,2.01,1.26,3.24c0.49,6.63,0.96,12.07,1.42,19.13c0.11,1.76,0.24,3.45,0.4,4.99" class="grey" /><path d="M14.79,31.89c6.83-1.4,13.68-2.8,18.2-3.57c3.62-0.61,4.62,0.53,4.04,4.19c-0.87,5.53-1.91,12.12-3.12,20.06" class="grey" /><path d="M17,55.79c4.16-0.59,8.96-1.27,14.76-2.19c1.25-0.2,2.49-0.34,3.73-0.34" class="grey" /><path d="M58.14,15.25c0.11,1.12,0,2.18-0.33,3.34C55.62,26.38,50.75,39.25,43.17,50" class="grey" /><path d="M55.52,34.74c0.95,0.36,3.24,0.38,4.69,0.11c5.91-1.1,20.04-3.52,23.39-3.79c6.89-0.56-0.48,7.44-4.64,11.44" class="grey" /><path d="M57.87,48.25c0.63,1.12,0.49,2.97,0.09,4.46C54.75,64.75,48.5,82.5,29.5,93" class="grey" /><path d="M57.23,59C63.62,65.69,74,78,83.42,87.07c2.73,2.63,6.08,4.93,9.33,6.43" class="grey" /><path d="M13,30.89c0.79,0.93,1.22,2.01,1.26,3.24c0.49,6.63,0.96,12.07,1.42,19.13c0.11,1.76,0.24,3.45,0.4,4.99" class="stroke" stroke-dasharray="150"><animate attributeName="stroke-dashoffset" from="150" to="0" dur="1.8s" begin="0s" fill="freeze" /></path><path d="M14.79,31.89c6.83-1.4,13.68-2.8,18.2-3.57c3.62-0.61,4.62,0.53,4.04,4.19c-0.87,5.53-1.91,12.12-3.12,20.06" class="stroke" stroke-dasharray="150"><set attributeName="opacity" to="0" dur="1.0s" /><animate attributeName="stroke-dashoffset" from="150" to="0" dur="1.8s" begin="1.0s" fill="freeze" /></path><path d="M17,55.79c4.16-0.59,8.96-1.27,14.76-2.19c1.25-0.2,2.49-0.34,3.73-0.34" class="stroke" stroke-dasharray="150"><set attributeName="opacity" to="0" dur="2.2s" /><animate attributeName="stroke-dashoffset" from="150" to="0" dur="1.8s" begin="2.2s" fill="freeze" /></path><path d="M58.14,15.25c0.11,1.12,0,2.18-0.33,3.34C55.62,26.38,50.75,39.25,43.17,50" class="stroke" stroke-dasharray="150"><set attributeName="opacity" to="0" dur="3.1s" /><animate attributeName="stroke-dashoffset" from="150" to="0" dur="1.8s" begin="3.1s" fill="freeze" /></path><path d="M55.52,34.74c0.95,0.36,3.24,0.38,4.69,0.11c5.91-1.1,20.04-3.52,23.39-3.79c6.89-0.56-0.48,7.44-4.64,11.44" class="stroke" stroke-dasharray="150"><set attributeName="opacity" to="0" dur="4.1s" /><animate attributeName="stroke-dashoffset" from="150" to="0" dur="1.8s" begin="4.1s" fill="freeze" /></path><path d="M57.87,48.25c0.63,1.12,0.49,2.97,0.09,4.46C54.75,64.75,48.5,82.5,29.5,93" class="stroke" stroke-dasharray="150"><set attributeName="opacity" to="0" dur="5.199999999999999s" /><animate attributeName="stroke-dashoffset" from="150" to="0" dur="1.8s" begin="5.199999999999999s" fill="freeze" /></path><path d="M57.23,59C63.62,65.69,74,78,83.42,87.07c2.73,2.63,6.08,4.93,9.33,6.43" class="stroke" stroke-dasharray="150"><set attributeName="opacity" to="0" dur="6.6s" /><animate attributeName="stroke-dashoffset" from="150" to="0" dur="1.8s" begin="6.6s" fill="freeze" /></path><text x="90" y="120" id="reset">⟳</text><text x="70" y="120" id="pause">◼</text><script type="text/javascript"><![CDATA[function RecurringTimer(e,t){var n,r,i=t;this.pause=function(){window.clearTimeout(n);i-=new Date-r};var s=function(){r=new Date;n=window.setTimeout(function(){i=t;s();e()},i)};this.clear=function(){window.clearTimeout(n);i=t;n=window.setTimeout(function(){i=t;s();e()},i)};this.resume=s;this.resume()}function invoketimer(){timer=new RecurringTimer(function(){svg.setCurrentTime(0)},8800)}var svg=document.getElementById("kanjivg");var pause=document.getElementById("pause");var reset=document.getElementById("reset");var timer;invoketimer();reset.onclick=function(){svg.setCurrentTime(0);timer.clear();svg.unpauseAnimations();pause.innerHTML = "◼";};pause.onclick=function(){if(svg.animationsPaused()){svg.unpauseAnimations();timer.resume();pause.innerHTML="◼"}else{svg.pauseAnimations();timer.pause();pause.innerHTML="▶"}}]]></script></svg>