<svg id="kanjivg" width="106" height="126" xmlns="http://www.w3.org/2000/svg" xmlns:xlink="http://www.w3.org/1999/xlink" xml:space="preserve" version="1.1" baseProfile="full"><defs><style type="text/css"><![CDATA[path.black { fill:none;stroke:black;stroke-width:5;stroke-linecap:round;stroke-linejoin:round; }path.grey { fill:none;stroke:#ddd;stroke-width:5;stroke-linecap:round;stroke-linejoin:round; }path.stroke { fill:none;stroke:black;stroke-width:5;stroke-linecap:round;stroke-linejoin:round; }rect { fill:none;stroke:#555;stroke-width:2;} text{font-size:16px;font-family:Segoe UI Symbol,Cambria Math,DejaVu Sans,Symbola,Quivira,STIX,Code2000;-webkit-touch-callout:none;cursor:pointer;-webkit-user-select:none;-khtml-user-select:none;-moz-user-select:none;-ms-user-select:none;user-select: none;} #reset { font-weight:bold; }]]></style><marker id="markerStart" markerWidth="8" markerHeight="8" style="overflow:visible;"><circle cx="0" cy="0" r="1.5" style="stroke:none;fill:red;fill-opacity:0.5;"/></marker><marker id="markerEnd" style="overflow:visible;"><circle cx="0" cy="0" r="0.8" style="stroke:none;fill:blue;fill-opacity:0.5;"><animate attributeName="opacity" from="1" to="0" dur="3s" repeatCount="indefinite" /></circle></marker></defs><rect x="4" y="4" width="100" height="100" /><path d="M10.25,32.79c0.37,0.51,0.76,0.94,0.92,1.58c1.29,5.07,3.34,19.04,4.23,28.13" class="grey" /><path d="M12.58,35.22C22,33,29.12,32.16,33.49,31.49c1.6-0.24,2.56,1.44,2.33,2.87c-0.95,5.92-3.05,13.07-4.46,21.25" class="grey" /><path d="M15.57,58.55c5.14-0.75,11.33-1.05,18.39-2.21" class="grey" /><path d="M46.5,29.86c0.52,1.06,0.86,2.77,0.69,4.68c-0.17,1.91,0.17,59.27,0.17,62.46" class="grey" /><path d="M47.19,31.48c6.56-0.85,42.54-3.96,43.84-4.25c2.76-0.64,4.79,1.56,4.49,2.55C95,31.48,95,85.29,95,90.18c0,11.32-5.5,4.57-8,2.28" class="grey" /><path d="M69.99,40.39c-3.12,9.71-11.24,23.94-17.74,29.44" class="grey" /><path d="M58.95,10.5c1.01,0,2.62,1.45,2.89,2.73C66.75,36.75,73.5,52,85.74,65.73c1.08,1.22,1.63,2.1,2.51,2.52" class="grey" /><path d="M10.25,32.79c0.37,0.51,0.76,0.94,0.92,1.58c1.29,5.07,3.34,19.04,4.23,28.13" class="stroke" stroke-dasharray="150"><animate attributeName="stroke-dashoffset" from="150" to="0" dur="1.8s" begin="0s" fill="freeze" /></path><path d="M12.58,35.22C22,33,29.12,32.16,33.49,31.49c1.6-0.24,2.56,1.44,2.33,2.87c-0.95,5.92-3.05,13.07-4.46,21.25" class="stroke" stroke-dasharray="150"><set attributeName="opacity" to="0" dur="1.0s" /><animate attributeName="stroke-dashoffset" from="150" to="0" dur="1.8s" begin="1.0s" fill="freeze" /></path><path d="M15.57,58.55c5.14-0.75,11.33-1.05,18.39-2.21" class="stroke" stroke-dasharray="150"><set attributeName="opacity" to="0" dur="2.2s" /><animate attributeName="stroke-dashoffset" from="150" to="0" dur="1.8s" begin="2.2s" fill="freeze" /></path><path d="M46.5,29.86c0.52,1.06,0.86,2.77,0.69,4.68c-0.17,1.91,0.17,59.27,0.17,62.46" class="stroke" stroke-dasharray="150"><set attributeName="opacity" to="0" dur="3.1s" /><animate attributeName="stroke-dashoffset" from="150" to="0" dur="1.8s" begin="3.1s" fill="freeze" /></path><path d="M47.19,31.48c6.56-0.85,42.54-3.96,43.84-4.25c2.76-0.64,4.79,1.56,4.49,2.55C95,31.48,95,85.29,95,90.18c0,11.32-5.5,4.57-8,2.28" class="stroke" stroke-dasharray="150"><set attributeName="opacity" to="0" dur="4.6s" /><animate attributeName="stroke-dashoffset" from="150" to="0" dur="1.8s" begin="4.6s" fill="freeze" /></path><path d="M69.99,40.39c-3.12,9.71-11.24,23.94-17.74,29.44" class="stroke" stroke-dasharray="150"><set attributeName="opacity" to="0" dur="6.6s" /><animate attributeName="stroke-dashoffset" from="150" to="0" dur="1.8s" begin="6.6s" fill="freeze" /></path><path d="M58.95,10.5c1.01,0,2.62,1.45,2.89,2.73C66.75,36.75,73.5,52,85.74,65.73c1.08,1.22,1.63,2.1,2.51,2.52" class="stroke" stroke-dasharray="150"><set attributeName="opacity" to="0" dur="7.6s" /><animate attributeName="stroke-dashoffset" from="150" to="0" dur="1.8s" begin="7.6s" fill="freeze" /></path><text x="90" y="120" id="reset">⟳</text><text x="70" y="120" id="pause">◼</text><script type="text/javascript"><![CDATA[function RecurringTimer(e,t){var n,r,i=t;this.pause=function(){window.clearTimeout(n);i-=new Date-r};var s=function(){r=new Date;n=window.setTimeout(function(){i=t;s();e()},i)};this.clear=function(){window.clearTimeout(n);i=t;n=window.setTimeout(function(){i=t;s();e()},i)};this.resume=s;this.resume()}function invoketimer(){timer=new RecurringTimer(function(){svg.setCurrentTime(0)},10100)}var svg=document.getElementById("kanjivg");var pause=document.getElementById("pause");var reset=document.getElementById("reset");var timer;invoketimer();reset.onclick=function(){svg.setCurrentTime(0);timer.clear();svg.unpauseAnimations();pause.innerHTML = "◼";};pause.onclick=function(){if(svg.animationsPaused()){svg.unpauseAnimations();timer.resume();pause.innerHTML="◼"}else{svg.pauseAnimations();timer.pause();pause.innerHTML="▶"}}]]></script></svg>