<svg id="kanjivg" width="106" height="126" xmlns="http://www.w3.org/2000/svg" xmlns:xlink="http://www.w3.org/1999/xlink" xml:space="preserve" version="1.1" baseProfile="full"><defs><style type="text/css"><![CDATA[path.black { fill:none;stroke:black;stroke-width:5;stroke-linecap:round;stroke-linejoin:round; }path.grey { fill:none;stroke:#ddd;stroke-width:5;stroke-linecap:round;stroke-linejoin:round; }path.stroke { fill:none;stroke:black;stroke-width:5;stroke-linecap:round;stroke-linejoin:round; }rect { fill:none;stroke:#555;stroke-width:2;} text{font-size:16px;font-family:Segoe UI Symbol,Cambria Math,DejaVu Sans,Symbola,Quivira,STIX,Code2000;-webkit-touch-callout:none;cursor:pointer;-webkit-user-select:none;-khtml-user-select:none;-moz-user-select:none;-ms-user-select:none;user-select: none;} #reset { font-weight:bold; }]]></style><marker id="markerStart" markerWidth="8" markerHeight="8" style="overflow:visible;"><circle cx="0" cy="0" r="1.5" style="stroke:none;fill:red;fill-opacity:0.5;"/></marker><marker id="markerEnd" style="overflow:visible;"><circle cx="0" cy="0" r="0.8" style="stroke:none;fill:blue;fill-opacity:0.5;"><animate attributeName="opacity" from="1" to="0" dur="3s" repeatCount="indefinite" /></circle></marker></defs><rect x="4" y="4" width="100" height="100" /><path d="M12.25,34.42c0.6,0.6,1.12,1.83,1.23,2.9c0.49,4.73,1.18,9.53,1.85,16.89c0.14,1.51,0.27,3.06,0.39,4.65" class="grey" /><path d="M14.24,36.17c8.47-1.88,15.06-3.08,20.38-4.04c2.77-0.5,4.12,0.86,3.67,3.25c-0.85,4.49-2.56,11.38-3.94,16.85" class="grey" /><path d="M16.67,55.61c4.51-0.45,9.68-1.51,15.83-2.34c1.35-0.18,2.71-0.35,4.07-0.51" class="grey" /><path d="M52.32,30.71c0.68,1.29,0.7,2.97,0.42,4.76c-1.99,12.78-10.99,38.78-31.61,50.95" class="grey" /><path d="M41.65,26.58c1.98,0.55,4.28,0.72,6.89,0.26c6.09-1.07,21.11-5.81,25.2-7.08s5.27,1.31,3.62,4.29C61.5,52.75,60.38,47.62,77,44.65c2.65-0.47,3.97,1.32,3.07,3.55c-7.82,19.3-18.32,32.55-38.07,42.57" class="grey" /><path d="M49.4,53.36c6.52,5.93,22.43,22.03,32.39,29.72c3.24,2.51,6.83,4.75,10.46,6.65" class="grey" /><path d="M12.25,34.42c0.6,0.6,1.12,1.83,1.23,2.9c0.49,4.73,1.18,9.53,1.85,16.89c0.14,1.51,0.27,3.06,0.39,4.65" class="stroke" stroke-dasharray="150"><animate attributeName="stroke-dashoffset" from="150" to="0" dur="1.8s" begin="0s" fill="freeze" /></path><path d="M14.24,36.17c8.47-1.88,15.06-3.08,20.38-4.04c2.77-0.5,4.12,0.86,3.67,3.25c-0.85,4.49-2.56,11.38-3.94,16.85" class="stroke" stroke-dasharray="150"><set attributeName="opacity" to="0" dur="1.0s" /><animate attributeName="stroke-dashoffset" from="150" to="0" dur="1.8s" begin="1.0s" fill="freeze" /></path><path d="M16.67,55.61c4.51-0.45,9.68-1.51,15.83-2.34c1.35-0.18,2.71-0.35,4.07-0.51" class="stroke" stroke-dasharray="150"><set attributeName="opacity" to="0" dur="2.1s" /><animate attributeName="stroke-dashoffset" from="150" to="0" dur="1.8s" begin="2.1s" fill="freeze" /></path><path d="M52.32,30.71c0.68,1.29,0.7,2.97,0.42,4.76c-1.99,12.78-10.99,38.78-31.61,50.95" class="stroke" stroke-dasharray="150"><set attributeName="opacity" to="0" dur="3.1s" /><animate attributeName="stroke-dashoffset" from="150" to="0" dur="1.8s" begin="3.1s" fill="freeze" /></path><path d="M41.65,26.58c1.98,0.55,4.28,0.72,6.89,0.26c6.09-1.07,21.11-5.81,25.2-7.08s5.27,1.31,3.62,4.29C61.5,52.75,60.38,47.62,77,44.65c2.65-0.47,3.97,1.32,3.07,3.55c-7.82,19.3-18.32,32.55-38.07,42.57" class="stroke" stroke-dasharray="150"><set attributeName="opacity" to="0" dur="4.6s" /><animate attributeName="stroke-dashoffset" from="150" to="0" dur="1.8s" begin="4.6s" fill="freeze" /></path><path d="M49.4,53.36c6.52,5.93,22.43,22.03,32.39,29.72c3.24,2.51,6.83,4.75,10.46,6.65" class="stroke" stroke-dasharray="150"><set attributeName="opacity" to="0" dur="6.6s" /><animate attributeName="stroke-dashoffset" from="150" to="0" dur="1.8s" begin="6.6s" fill="freeze" /></path><text x="90" y="120" id="reset">⟳</text><text x="70" y="120" id="pause">◼</text><script type="text/javascript"><![CDATA[function RecurringTimer(e,t){var n,r,i=t;this.pause=function(){window.clearTimeout(n);i-=new Date-r};var s=function(){r=new Date;n=window.setTimeout(function(){i=t;s();e()},i)};this.clear=function(){window.clearTimeout(n);i=t;n=window.setTimeout(function(){i=t;s();e()},i)};this.resume=s;this.resume()}function invoketimer(){timer=new RecurringTimer(function(){svg.setCurrentTime(0)},9000)}var svg=document.getElementById("kanjivg");var pause=document.getElementById("pause");var reset=document.getElementById("reset");var timer;invoketimer();reset.onclick=function(){svg.setCurrentTime(0);timer.clear();svg.unpauseAnimations();pause.innerHTML = "◼";};pause.onclick=function(){if(svg.animationsPaused()){svg.unpauseAnimations();timer.resume();pause.innerHTML="◼"}else{svg.pauseAnimations();timer.pause();pause.innerHTML="▶"}}]]></script></svg>