<svg id="kanjivg" width="106" height="126" xmlns="http://www.w3.org/2000/svg" xmlns:xlink="http://www.w3.org/1999/xlink" xml:space="preserve" version="1.1" baseProfile="full"><defs><style type="text/css"><![CDATA[path.black { fill:none;stroke:black;stroke-width:5;stroke-linecap:round;stroke-linejoin:round; }path.grey { fill:none;stroke:#ddd;stroke-width:5;stroke-linecap:round;stroke-linejoin:round; }path.stroke { fill:none;stroke:black;stroke-width:5;stroke-linecap:round;stroke-linejoin:round; }rect { fill:none;stroke:#555;stroke-width:2;} text{font-size:16px;font-family:Segoe UI Symbol,Cambria Math,DejaVu Sans,Symbola,Quivira,STIX,Code2000;-webkit-touch-callout:none;cursor:pointer;-webkit-user-select:none;-khtml-user-select:none;-moz-user-select:none;-ms-user-select:none;user-select: none;} #reset { font-weight:bold; }]]></style><marker id="markerStart" markerWidth="8" markerHeight="8" style="overflow:visible;"><circle cx="0" cy="0" r="1.5" style="stroke:none;fill:red;fill-opacity:0.5;"/></marker><marker id="markerEnd" style="overflow:visible;"><circle cx="0" cy="0" r="0.8" style="stroke:none;fill:blue;fill-opacity:0.5;"><animate attributeName="opacity" from="1" to="0" dur="3s" repeatCount="indefinite" /></circle></marker></defs><rect x="4" y="4" width="100" height="100" /><path d="M28.71,19.08c0.49,0.4,1,0.74,1.21,1.24c1.71,3.99,3.58,12.18,5.42,21.64" class="grey" /><path d="M31.78,20.45c12.06-1.67,36.32-4.37,42.54-4.93c2.28-0.21,3.64,2.08,3.32,3.29c-1.35,5.02-2.89,8.84-5.77,16.08" class="grey" /><path d="M35.83,39.33c7.31-0.64,29.03-3.17,38.3-3.81" class="grey" /><path d="M29,54.22c0.95,0.52,4.04,0.19,5,0.03c4.46-0.7,30.75-3.75,41.5-4.29c1.46-0.07,2.79,0.1,4,0.54" class="grey" /><path d="M29.25,70.5c0.94,0.57,4.04,0.35,5,0.25c10-1,27.75-3,39.5-4.02c1.17-0.1,3.75-0.23,5.5,0.27" class="grey" /><path d="M15.75,90.99c0.92,0.32,5.7,0.12,7.25,0.01c23-1.75,41-3.5,64.25-4.28c2.5-0.08,5.5,0.53,6.75,1.03" class="grey" /><path d="M53.25,54.25c1,1.25,1,2,1,3c0,7,0.25,24,0,31" class="grey" /><path d="M28.71,19.08c0.49,0.4,1,0.74,1.21,1.24c1.71,3.99,3.58,12.18,5.42,21.64" class="stroke" stroke-dasharray="150"><animate attributeName="stroke-dashoffset" from="150" to="0" dur="1.8s" begin="0s" fill="freeze" /></path><path d="M31.78,20.45c12.06-1.67,36.32-4.37,42.54-4.93c2.28-0.21,3.64,2.08,3.32,3.29c-1.35,5.02-2.89,8.84-5.77,16.08" class="stroke" stroke-dasharray="150"><set attributeName="opacity" to="0" dur="1.0s" /><animate attributeName="stroke-dashoffset" from="150" to="0" dur="1.8s" begin="1.0s" fill="freeze" /></path><path d="M35.83,39.33c7.31-0.64,29.03-3.17,38.3-3.81" class="stroke" stroke-dasharray="150"><set attributeName="opacity" to="0" dur="2.5s" /><animate attributeName="stroke-dashoffset" from="150" to="0" dur="1.8s" begin="2.5s" fill="freeze" /></path><path d="M29,54.22c0.95,0.52,4.04,0.19,5,0.03c4.46-0.7,30.75-3.75,41.5-4.29c1.46-0.07,2.79,0.1,4,0.54" class="stroke" stroke-dasharray="150"><set attributeName="opacity" to="0" dur="3.5s" /><animate attributeName="stroke-dashoffset" from="150" to="0" dur="1.8s" begin="3.5s" fill="freeze" /></path><path d="M29.25,70.5c0.94,0.57,4.04,0.35,5,0.25c10-1,27.75-3,39.5-4.02c1.17-0.1,3.75-0.23,5.5,0.27" class="stroke" stroke-dasharray="150"><set attributeName="opacity" to="0" dur="4.8s" /><animate attributeName="stroke-dashoffset" from="150" to="0" dur="1.8s" begin="4.8s" fill="freeze" /></path><path d="M15.75,90.99c0.92,0.32,5.7,0.12,7.25,0.01c23-1.75,41-3.5,64.25-4.28c2.5-0.08,5.5,0.53,6.75,1.03" class="stroke" stroke-dasharray="150"><set attributeName="opacity" to="0" dur="6.1s" /><animate attributeName="stroke-dashoffset" from="150" to="0" dur="1.8s" begin="6.1s" fill="freeze" /></path><path d="M53.25,54.25c1,1.25,1,2,1,3c0,7,0.25,24,0,31" class="stroke" stroke-dasharray="150"><set attributeName="opacity" to="0" dur="7.8s" /><animate attributeName="stroke-dashoffset" from="150" to="0" dur="1.8s" begin="7.8s" fill="freeze" /></path><text x="90" y="120" id="reset">⟳</text><text x="70" y="120" id="pause">◼</text><script type="text/javascript"><![CDATA[function RecurringTimer(e,t){var n,r,i=t;this.pause=function(){window.clearTimeout(n);i-=new Date-r};var s=function(){r=new Date;n=window.setTimeout(function(){i=t;s();e()},i)};this.clear=function(){window.clearTimeout(n);i=t;n=window.setTimeout(function(){i=t;s();e()},i)};this.resume=s;this.resume()}function invoketimer(){timer=new RecurringTimer(function(){svg.setCurrentTime(0)},9800)}var svg=document.getElementById("kanjivg");var pause=document.getElementById("pause");var reset=document.getElementById("reset");var timer;invoketimer();reset.onclick=function(){svg.setCurrentTime(0);timer.clear();svg.unpauseAnimations();pause.innerHTML = "◼";};pause.onclick=function(){if(svg.animationsPaused()){svg.unpauseAnimations();timer.resume();pause.innerHTML="◼"}else{svg.pauseAnimations();timer.pause();pause.innerHTML="▶"}}]]></script></svg>