<svg id="kanjivg" width="106" height="126" xmlns="http://www.w3.org/2000/svg" xmlns:xlink="http://www.w3.org/1999/xlink" xml:space="preserve" version="1.1" baseProfile="full"><defs><style type="text/css"><![CDATA[path.black { fill:none;stroke:black;stroke-width:5;stroke-linecap:round;stroke-linejoin:round; }path.grey { fill:none;stroke:#ddd;stroke-width:5;stroke-linecap:round;stroke-linejoin:round; }path.stroke { fill:none;stroke:black;stroke-width:5;stroke-linecap:round;stroke-linejoin:round; }rect { fill:none;stroke:#555;stroke-width:2;} text{font-size:16px;font-family:Segoe UI Symbol,Cambria Math,DejaVu Sans,Symbola,Quivira,STIX,Code2000;-webkit-touch-callout:none;cursor:pointer;-webkit-user-select:none;-khtml-user-select:none;-moz-user-select:none;-ms-user-select:none;user-select: none;} #reset { font-weight:bold; }]]></style><marker id="markerStart" markerWidth="8" markerHeight="8" style="overflow:visible;"><circle cx="0" cy="0" r="1.5" style="stroke:none;fill:red;fill-opacity:0.5;"/></marker><marker id="markerEnd" style="overflow:visible;"><circle cx="0" cy="0" r="0.8" style="stroke:none;fill:blue;fill-opacity:0.5;"><animate attributeName="opacity" from="1" to="0" dur="3s" repeatCount="indefinite" /></circle></marker></defs><rect x="4" y="4" width="100" height="100" /><path d="M28.71,19.08c0.89,0.59,1.45,1.4,1.68,2.42c1.36,4.62,2.71,9.67,4.11,16.5c0.28,1.37,0.56,2.78,0.84,4.21" class="grey" /><path d="M31.03,20.45c11.23-1.56,33.93-4,41.99-4.79c3.06-0.3,5.53,0.85,4.56,4.26c-1.28,4.5-3.05,8.27-5.72,14.96" class="grey" /><path d="M35.83,39.33c7.17-0.95,22.87-2.46,33.41-3.41c1.85-0.17,3.51-0.31,4.89-0.4" class="grey" /><path d="M29,53.97c2.88,0.41,5.88,0.14,8.12-0.14c7.65-0.98,25.12-2.7,35.27-3.42c2.23-0.16,4.98-0.28,7.11,0.35" class="grey" /><path d="M53,54.75c0.88,0.88,1.25,1.75,1.25,3.25c0,7,0,22.38,0,29.5" class="grey" /><path d="M29.25,70.25c2.5,0.62,6.43,0.36,8.39,0.15c9.26-0.96,22.62-2.68,32.87-3.63c2.82-0.26,6.25-0.4,8.75,0.23" class="grey" /><path d="M15.75,90.49c3.07,1.06,7.09,0.77,10.25,0.52c20.4-1.58,37.09-3.35,57.63-4.17c3.43-0.14,7.35,0.09,10.62,1.4" class="grey" /><path d="M28.71,19.08c0.89,0.59,1.45,1.4,1.68,2.42c1.36,4.62,2.71,9.67,4.11,16.5c0.28,1.37,0.56,2.78,0.84,4.21" class="stroke" stroke-dasharray="150"><animate attributeName="stroke-dashoffset" from="150" to="0" dur="1.8s" begin="0s" fill="freeze" /></path><path d="M31.03,20.45c11.23-1.56,33.93-4,41.99-4.79c3.06-0.3,5.53,0.85,4.56,4.26c-1.28,4.5-3.05,8.27-5.72,14.96" class="stroke" stroke-dasharray="150"><set attributeName="opacity" to="0" dur="1.0s" /><animate attributeName="stroke-dashoffset" from="150" to="0" dur="1.8s" begin="1.0s" fill="freeze" /></path><path d="M35.83,39.33c7.17-0.95,22.87-2.46,33.41-3.41c1.85-0.17,3.51-0.31,4.89-0.4" class="stroke" stroke-dasharray="150"><set attributeName="opacity" to="0" dur="2.5s" /><animate attributeName="stroke-dashoffset" from="150" to="0" dur="1.8s" begin="2.5s" fill="freeze" /></path><path d="M29,53.97c2.88,0.41,5.88,0.14,8.12-0.14c7.65-0.98,25.12-2.7,35.27-3.42c2.23-0.16,4.98-0.28,7.11,0.35" class="stroke" stroke-dasharray="150"><set attributeName="opacity" to="0" dur="3.5s" /><animate attributeName="stroke-dashoffset" from="150" to="0" dur="1.8s" begin="3.5s" fill="freeze" /></path><path d="M53,54.75c0.88,0.88,1.25,1.75,1.25,3.25c0,7,0,22.38,0,29.5" class="stroke" stroke-dasharray="150"><set attributeName="opacity" to="0" dur="4.8s" /><animate attributeName="stroke-dashoffset" from="150" to="0" dur="1.8s" begin="4.8s" fill="freeze" /></path><path d="M29.25,70.25c2.5,0.62,6.43,0.36,8.39,0.15c9.26-0.96,22.62-2.68,32.87-3.63c2.82-0.26,6.25-0.4,8.75,0.23" class="stroke" stroke-dasharray="150"><set attributeName="opacity" to="0" dur="5.8s" /><animate attributeName="stroke-dashoffset" from="150" to="0" dur="1.8s" begin="5.8s" fill="freeze" /></path><path d="M15.75,90.49c3.07,1.06,7.09,0.77,10.25,0.52c20.4-1.58,37.09-3.35,57.63-4.17c3.43-0.14,7.35,0.09,10.62,1.4" class="stroke" stroke-dasharray="150"><set attributeName="opacity" to="0" dur="7.1s" /><animate attributeName="stroke-dashoffset" from="150" to="0" dur="1.8s" begin="7.1s" fill="freeze" /></path><text x="90" y="120" id="reset">⟳</text><text x="70" y="120" id="pause">◼</text><script type="text/javascript"><![CDATA[function RecurringTimer(e,t){var n,r,i=t;this.pause=function(){window.clearTimeout(n);i-=new Date-r};var s=function(){r=new Date;n=window.setTimeout(function(){i=t;s();e()},i)};this.clear=function(){window.clearTimeout(n);i=t;n=window.setTimeout(function(){i=t;s();e()},i)};this.resume=s;this.resume()}function invoketimer(){timer=new RecurringTimer(function(){svg.setCurrentTime(0)},9799)}var svg=document.getElementById("kanjivg");var pause=document.getElementById("pause");var reset=document.getElementById("reset");var timer;invoketimer();reset.onclick=function(){svg.setCurrentTime(0);timer.clear();svg.unpauseAnimations();pause.innerHTML = "◼";};pause.onclick=function(){if(svg.animationsPaused()){svg.unpauseAnimations();timer.resume();pause.innerHTML="◼"}else{svg.pauseAnimations();timer.pause();pause.innerHTML="▶"}}]]></script></svg>