<svg id="kanjivg" width="106" height="126" xmlns="http://www.w3.org/2000/svg" xmlns:xlink="http://www.w3.org/1999/xlink" xml:space="preserve" version="1.1" baseProfile="full"><defs><style type="text/css"><![CDATA[path.black { fill:none;stroke:black;stroke-width:5;stroke-linecap:round;stroke-linejoin:round; }path.grey { fill:none;stroke:#ddd;stroke-width:5;stroke-linecap:round;stroke-linejoin:round; }path.stroke { fill:none;stroke:black;stroke-width:5;stroke-linecap:round;stroke-linejoin:round; }rect { fill:none;stroke:#555;stroke-width:2;} text{font-size:16px;font-family:Segoe UI Symbol,Cambria Math,DejaVu Sans,Symbola,Quivira,STIX,Code2000;-webkit-touch-callout:none;cursor:pointer;-webkit-user-select:none;-khtml-user-select:none;-moz-user-select:none;-ms-user-select:none;user-select: none;} #reset { font-weight:bold; }]]></style><marker id="markerStart" markerWidth="8" markerHeight="8" style="overflow:visible;"><circle cx="0" cy="0" r="1.5" style="stroke:none;fill:red;fill-opacity:0.5;"/></marker><marker id="markerEnd" style="overflow:visible;"><circle cx="0" cy="0" r="0.8" style="stroke:none;fill:blue;fill-opacity:0.5;"><animate attributeName="opacity" from="1" to="0" dur="3s" repeatCount="indefinite" /></circle></marker></defs><rect x="4" y="4" width="100" height="100" /><path d="M29.75,16.79c0.5,0.46,1.01,0.85,1.22,1.43c1.72,4.59,4.29,16.77,5.47,25.02" class="grey" /><path d="M31.35,18.9c13.15-1.4,38.04-3.55,43.86-4.15c2.13-0.22,3.41,1.31,3.1,2.6c-1.26,5.37-2.73,12.85-4.61,20.27" class="grey" /><path d="M36.67,41.21c6.84-0.68,29.77-1.86,39.16-2.91" class="grey" /><path d="M19.15,59.08c1.55,0,3.89,0.32,5.96,0.2c9.4-0.53,46.3-3.04,60.54-4.06c2.06-0.15,2.59-0.2,3.89,0" class="grey" /><path d="M52.25,46.25c1.25,0.5,2.25,3.22,2.25,4.25c0,7,0,42.75-0.25,49" class="grey" /><path d="M52.28,58.68C45.81,69.44,28.97,84.66,15.5,90.75" class="grey" /><path d="M55.21,58.48c4.92,4.26,26.51,24.42,31.86,28.62c1.81,1.42,3.37,2.03,5.18,2.44" class="grey" /><path d="M29.75,16.79c0.5,0.46,1.01,0.85,1.22,1.43c1.72,4.59,4.29,16.77,5.47,25.02" class="stroke" stroke-dasharray="150"><animate attributeName="stroke-dashoffset" from="150" to="0" dur="1.8s" begin="0s" fill="freeze" /></path><path d="M31.35,18.9c13.15-1.4,38.04-3.55,43.86-4.15c2.13-0.22,3.41,1.31,3.1,2.6c-1.26,5.37-2.73,12.85-4.61,20.27" class="stroke" stroke-dasharray="150"><set attributeName="opacity" to="0" dur="1.0s" /><animate attributeName="stroke-dashoffset" from="150" to="0" dur="1.8s" begin="1.0s" fill="freeze" /></path><path d="M36.67,41.21c6.84-0.68,29.77-1.86,39.16-2.91" class="stroke" stroke-dasharray="150"><set attributeName="opacity" to="0" dur="2.5s" /><animate attributeName="stroke-dashoffset" from="150" to="0" dur="1.8s" begin="2.5s" fill="freeze" /></path><path d="M19.15,59.08c1.55,0,3.89,0.32,5.96,0.2c9.4-0.53,46.3-3.04,60.54-4.06c2.06-0.15,2.59-0.2,3.89,0" class="stroke" stroke-dasharray="150"><set attributeName="opacity" to="0" dur="3.5s" /><animate attributeName="stroke-dashoffset" from="150" to="0" dur="1.8s" begin="3.5s" fill="freeze" /></path><path d="M52.25,46.25c1.25,0.5,2.25,3.22,2.25,4.25c0,7,0,42.75-0.25,49" class="stroke" stroke-dasharray="150"><set attributeName="opacity" to="0" dur="5.2s" /><animate attributeName="stroke-dashoffset" from="150" to="0" dur="1.8s" begin="5.2s" fill="freeze" /></path><path d="M52.28,58.68C45.81,69.44,28.97,84.66,15.5,90.75" class="stroke" stroke-dasharray="150"><set attributeName="opacity" to="0" dur="6.5s" /><animate attributeName="stroke-dashoffset" from="150" to="0" dur="1.8s" begin="6.5s" fill="freeze" /></path><path d="M55.21,58.48c4.92,4.26,26.51,24.42,31.86,28.62c1.81,1.42,3.37,2.03,5.18,2.44" class="stroke" stroke-dasharray="150"><set attributeName="opacity" to="0" dur="7.7s" /><animate attributeName="stroke-dashoffset" from="150" to="0" dur="1.8s" begin="7.7s" fill="freeze" /></path><text x="90" y="120" id="reset">⟳</text><text x="70" y="120" id="pause">◼</text><script type="text/javascript"><![CDATA[function RecurringTimer(e,t){var n,r,i=t;this.pause=function(){window.clearTimeout(n);i-=new Date-r};var s=function(){r=new Date;n=window.setTimeout(function(){i=t;s();e()},i)};this.clear=function(){window.clearTimeout(n);i=t;n=window.setTimeout(function(){i=t;s();e()},i)};this.resume=s;this.resume()}function invoketimer(){timer=new RecurringTimer(function(){svg.setCurrentTime(0)},9900)}var svg=document.getElementById("kanjivg");var pause=document.getElementById("pause");var reset=document.getElementById("reset");var timer;invoketimer();reset.onclick=function(){svg.setCurrentTime(0);timer.clear();svg.unpauseAnimations();pause.innerHTML = "◼";};pause.onclick=function(){if(svg.animationsPaused()){svg.unpauseAnimations();timer.resume();pause.innerHTML="◼"}else{svg.pauseAnimations();timer.pause();pause.innerHTML="▶"}}]]></script></svg>