<svg id="kanjivg" width="106" height="126" xmlns="http://www.w3.org/2000/svg" xmlns:xlink="http://www.w3.org/1999/xlink" xml:space="preserve" version="1.1" baseProfile="full"><defs><style type="text/css"><![CDATA[path.black { fill:none;stroke:black;stroke-width:5;stroke-linecap:round;stroke-linejoin:round; }path.grey { fill:none;stroke:#ddd;stroke-width:5;stroke-linecap:round;stroke-linejoin:round; }path.stroke { fill:none;stroke:black;stroke-width:5;stroke-linecap:round;stroke-linejoin:round; }rect { fill:none;stroke:#555;stroke-width:2;} text{font-size:16px;font-family:Segoe UI Symbol,Cambria Math,DejaVu Sans,Symbola,Quivira,STIX,Code2000;-webkit-touch-callout:none;cursor:pointer;-webkit-user-select:none;-khtml-user-select:none;-moz-user-select:none;-ms-user-select:none;user-select: none;} #reset { font-weight:bold; }]]></style><marker id="markerStart" markerWidth="8" markerHeight="8" style="overflow:visible;"><circle cx="0" cy="0" r="1.5" style="stroke:none;fill:red;fill-opacity:0.5;"/></marker><marker id="markerEnd" style="overflow:visible;"><circle cx="0" cy="0" r="0.8" style="stroke:none;fill:blue;fill-opacity:0.5;"><animate attributeName="opacity" from="1" to="0" dur="3s" repeatCount="indefinite" /></circle></marker></defs><rect x="4" y="4" width="100" height="100" /><path d="M10.25,33.29c0.37,0.51,0.76,0.94,0.92,1.58C12.46,39.93,14.51,53.9,15.4,63" class="grey" /><path d="M12.58,35.22C22,33,29.12,32.16,33.49,31.49c1.6-0.24,2.56,1.44,2.33,2.87c-0.95,5.92-3.05,13.07-4.46,21.25" class="grey" /><path d="M15.57,58.55c5.14-0.75,11.33-1.05,18.39-2.21" class="grey" /><path d="M44.44,17.89c1.04,0.48,2.94,0.54,3.98,0.48c7.91-0.42,30.55-3.89,40.94-4.19c1.73-0.05,2.77,0.23,3.64,0.47" class="grey" /><path d="M49.28,26.85c1.48,1.24,1.59,2.8,1.58,4.2c-1.09,7.41-2.08,12.85-3.58,16.55c-1.12,2.76,0.47,3.04,2.73,2.47c5.91-1.48,35.94-5.19,45.91-4.55c1.73,0.11,2.77,0.23,3.64,0.47" class="grey" /><path d="M77.15,17.84c1.18,1.11,2.18,3.22,2.26,7.15c0.41,18.86-0.26,60.41-0.26,66.83c0,12.85-7.22,3.21-9.86,0.82" class="grey" /><path d="M72.32,47.09c0.84,0.51,0.54,2.18,0.06,3.11c-4.88,9.51-15.47,27.3-37.18,37.18" class="grey" /><path d="M10.25,33.29c0.37,0.51,0.76,0.94,0.92,1.58C12.46,39.93,14.51,53.9,15.4,63" class="stroke" stroke-dasharray="150"><animate attributeName="stroke-dashoffset" from="150" to="0" dur="1.8s" begin="0s" fill="freeze" /></path><path d="M12.58,35.22C22,33,29.12,32.16,33.49,31.49c1.6-0.24,2.56,1.44,2.33,2.87c-0.95,5.92-3.05,13.07-4.46,21.25" class="stroke" stroke-dasharray="150"><set attributeName="opacity" to="0" dur="1.0s" /><animate attributeName="stroke-dashoffset" from="150" to="0" dur="1.8s" begin="1.0s" fill="freeze" /></path><path d="M15.57,58.55c5.14-0.75,11.33-1.05,18.39-2.21" class="stroke" stroke-dasharray="150"><set attributeName="opacity" to="0" dur="2.2s" /><animate attributeName="stroke-dashoffset" from="150" to="0" dur="1.8s" begin="2.2s" fill="freeze" /></path><path d="M44.44,17.89c1.04,0.48,2.94,0.54,3.98,0.48c7.91-0.42,30.55-3.89,40.94-4.19c1.73-0.05,2.77,0.23,3.64,0.47" class="stroke" stroke-dasharray="150"><set attributeName="opacity" to="0" dur="3.1s" /><animate attributeName="stroke-dashoffset" from="150" to="0" dur="1.8s" begin="3.1s" fill="freeze" /></path><path d="M49.28,26.85c1.48,1.24,1.59,2.8,1.58,4.2c-1.09,7.41-2.08,12.85-3.58,16.55c-1.12,2.76,0.47,3.04,2.73,2.47c5.91-1.48,35.94-5.19,45.91-4.55c1.73,0.11,2.77,0.23,3.64,0.47" class="stroke" stroke-dasharray="150"><set attributeName="opacity" to="0" dur="4.3s" /><animate attributeName="stroke-dashoffset" from="150" to="0" dur="1.8s" begin="4.3s" fill="freeze" /></path><path d="M77.15,17.84c1.18,1.11,2.18,3.22,2.26,7.15c0.41,18.86-0.26,60.41-0.26,66.83c0,12.85-7.22,3.21-9.86,0.82" class="stroke" stroke-dasharray="150"><set attributeName="opacity" to="0" dur="6.0s" /><animate attributeName="stroke-dashoffset" from="150" to="0" dur="1.8s" begin="6.0s" fill="freeze" /></path><path d="M72.32,47.09c0.84,0.51,0.54,2.18,0.06,3.11c-4.88,9.51-15.47,27.3-37.18,37.18" class="stroke" stroke-dasharray="150"><set attributeName="opacity" to="0" dur="7.8s" /><animate attributeName="stroke-dashoffset" from="150" to="0" dur="1.8s" begin="7.8s" fill="freeze" /></path><text x="90" y="120" id="reset">⟳</text><text x="70" y="120" id="pause">◼</text><script type="text/javascript"><![CDATA[function RecurringTimer(e,t){var n,r,i=t;this.pause=function(){window.clearTimeout(n);i-=new Date-r};var s=function(){r=new Date;n=window.setTimeout(function(){i=t;s();e()},i)};this.clear=function(){window.clearTimeout(n);i=t;n=window.setTimeout(function(){i=t;s();e()},i)};this.resume=s;this.resume()}function invoketimer(){timer=new RecurringTimer(function(){svg.setCurrentTime(0)},10200)}var svg=document.getElementById("kanjivg");var pause=document.getElementById("pause");var reset=document.getElementById("reset");var timer;invoketimer();reset.onclick=function(){svg.setCurrentTime(0);timer.clear();svg.unpauseAnimations();pause.innerHTML = "◼";};pause.onclick=function(){if(svg.animationsPaused()){svg.unpauseAnimations();timer.resume();pause.innerHTML="◼"}else{svg.pauseAnimations();timer.pause();pause.innerHTML="▶"}}]]></script></svg>