<svg id="kanjivg" width="106" height="126" xmlns="http://www.w3.org/2000/svg" xmlns:xlink="http://www.w3.org/1999/xlink" xml:space="preserve" version="1.1" baseProfile="full"><defs><style type="text/css"><![CDATA[path.black { fill:none;stroke:black;stroke-width:5;stroke-linecap:round;stroke-linejoin:round; }path.grey { fill:none;stroke:#ddd;stroke-width:5;stroke-linecap:round;stroke-linejoin:round; }path.stroke { fill:none;stroke:black;stroke-width:5;stroke-linecap:round;stroke-linejoin:round; }rect { fill:none;stroke:#555;stroke-width:2;} text{font-size:16px;font-family:Segoe UI Symbol,Cambria Math,DejaVu Sans,Symbola,Quivira,STIX,Code2000;-webkit-touch-callout:none;cursor:pointer;-webkit-user-select:none;-khtml-user-select:none;-moz-user-select:none;-ms-user-select:none;user-select: none;} #reset { font-weight:bold; }]]></style><marker id="markerStart" markerWidth="8" markerHeight="8" style="overflow:visible;"><circle cx="0" cy="0" r="1.5" style="stroke:none;fill:red;fill-opacity:0.5;"/></marker><marker id="markerEnd" style="overflow:visible;"><circle cx="0" cy="0" r="0.8" style="stroke:none;fill:blue;fill-opacity:0.5;"><animate attributeName="opacity" from="1" to="0" dur="3s" repeatCount="indefinite" /></circle></marker></defs><rect x="4" y="4" width="100" height="100" /><path d="M28.3,17.97c1.02,0.89,1.54,1.55,1.88,2.93c1.36,5.69,2.52,12.28,3.89,19.26c0.34,1.73,0.69,3.47,1.06,5.24" class="grey" /><path d="M30.99,19.31c11.74-1.08,30.48-3.06,38.31-3.74c3.71-0.32,5.72,0.98,4.98,4.71c-1.16,5.84-2.16,9.59-4.16,18.73" class="grey" /><path d="M35.6,43.23c5.77-0.5,21.08-1.93,31.29-2.74c2.2-0.17,4.17-0.32,5.75-0.42" class="grey" /><path d="M51.58,45.43c0.29,0.94,0.17,1.82-0.58,3.32c-1.68,3.36-5.5,9.62-7.81,13.14" class="grey" /><path d="M25.59,64.27c0.91,1.11,1.42,2.03,1.64,3.52c1.09,7.14,2.18,14,3.37,21.7c0.32,2.1,0.65,4.25,0.99,6.5" class="grey" /><path d="M27.63,65.88c16.51-1.72,38.75-3.64,48.25-4.29c4.26-0.29,6.97,1.54,5.97,6.16c-1.46,6.75-2.34,11.5-4.34,22.07" class="grey" /><path d="M32.45,93.64c7.47-0.4,27.3-1.81,40.42-2.49c2.75-0.14,5.2-0.26,7.19-0.32" class="grey" /><path d="M28.3,17.97c1.02,0.89,1.54,1.55,1.88,2.93c1.36,5.69,2.52,12.28,3.89,19.26c0.34,1.73,0.69,3.47,1.06,5.24" class="stroke" stroke-dasharray="150"><animate attributeName="stroke-dashoffset" from="150" to="0" dur="1.8s" begin="0s" fill="freeze" /></path><path d="M30.99,19.31c11.74-1.08,30.48-3.06,38.31-3.74c3.71-0.32,5.72,0.98,4.98,4.71c-1.16,5.84-2.16,9.59-4.16,18.73" class="stroke" stroke-dasharray="150"><set attributeName="opacity" to="0" dur="1.0s" /><animate attributeName="stroke-dashoffset" from="150" to="0" dur="1.8s" begin="1.0s" fill="freeze" /></path><path d="M35.6,43.23c5.77-0.5,21.08-1.93,31.29-2.74c2.2-0.17,4.17-0.32,5.75-0.42" class="stroke" stroke-dasharray="150"><set attributeName="opacity" to="0" dur="2.5s" /><animate attributeName="stroke-dashoffset" from="150" to="0" dur="1.8s" begin="2.5s" fill="freeze" /></path><path d="M51.58,45.43c0.29,0.94,0.17,1.82-0.58,3.32c-1.68,3.36-5.5,9.62-7.81,13.14" class="stroke" stroke-dasharray="150"><set attributeName="opacity" to="0" dur="3.5s" /><animate attributeName="stroke-dashoffset" from="150" to="0" dur="1.8s" begin="3.5s" fill="freeze" /></path><path d="M25.59,64.27c0.91,1.11,1.42,2.03,1.64,3.52c1.09,7.14,2.18,14,3.37,21.7c0.32,2.1,0.65,4.25,0.99,6.5" class="stroke" stroke-dasharray="150"><set attributeName="opacity" to="0" dur="4.4s" /><animate attributeName="stroke-dashoffset" from="150" to="0" dur="1.8s" begin="4.4s" fill="freeze" /></path><path d="M27.63,65.88c16.51-1.72,38.75-3.64,48.25-4.29c4.26-0.29,6.97,1.54,5.97,6.16c-1.46,6.75-2.34,11.5-4.34,22.07" class="stroke" stroke-dasharray="150"><set attributeName="opacity" to="0" dur="5.4s" /><animate attributeName="stroke-dashoffset" from="150" to="0" dur="1.8s" begin="5.4s" fill="freeze" /></path><path d="M32.45,93.64c7.47-0.4,27.3-1.81,40.42-2.49c2.75-0.14,5.2-0.26,7.19-0.32" class="stroke" stroke-dasharray="150"><set attributeName="opacity" to="0" dur="7.1000000000000005s" /><animate attributeName="stroke-dashoffset" from="150" to="0" dur="1.8s" begin="7.1000000000000005s" fill="freeze" /></path><text x="90" y="120" id="reset">⟳</text><text x="70" y="120" id="pause">◼</text><script type="text/javascript"><![CDATA[function RecurringTimer(e,t){var n,r,i=t;this.pause=function(){window.clearTimeout(n);i-=new Date-r};var s=function(){r=new Date;n=window.setTimeout(function(){i=t;s();e()},i)};this.clear=function(){window.clearTimeout(n);i=t;n=window.setTimeout(function(){i=t;s();e()},i)};this.resume=s;this.resume()}function invoketimer(){timer=new RecurringTimer(function(){svg.setCurrentTime(0)},9300)}var svg=document.getElementById("kanjivg");var pause=document.getElementById("pause");var reset=document.getElementById("reset");var timer;invoketimer();reset.onclick=function(){svg.setCurrentTime(0);timer.clear();svg.unpauseAnimations();pause.innerHTML = "◼";};pause.onclick=function(){if(svg.animationsPaused()){svg.unpauseAnimations();timer.resume();pause.innerHTML="◼"}else{svg.pauseAnimations();timer.pause();pause.innerHTML="▶"}}]]></script></svg>