<svg id="kanjivg" width="106" height="126" xmlns="http://www.w3.org/2000/svg" xmlns:xlink="http://www.w3.org/1999/xlink" xml:space="preserve" version="1.1" baseProfile="full"><defs><style type="text/css"><![CDATA[path.black { fill:none;stroke:black;stroke-width:5;stroke-linecap:round;stroke-linejoin:round; }path.grey { fill:none;stroke:#ddd;stroke-width:5;stroke-linecap:round;stroke-linejoin:round; }path.stroke { fill:none;stroke:black;stroke-width:5;stroke-linecap:round;stroke-linejoin:round; }rect { fill:none;stroke:#555;stroke-width:2;} text{font-size:16px;font-family:Segoe UI Symbol,Cambria Math,DejaVu Sans,Symbola,Quivira,STIX,Code2000;-webkit-touch-callout:none;cursor:pointer;-webkit-user-select:none;-khtml-user-select:none;-moz-user-select:none;-ms-user-select:none;user-select: none;} #reset { font-weight:bold; }]]></style><marker id="markerStart" markerWidth="8" markerHeight="8" style="overflow:visible;"><circle cx="0" cy="0" r="1.5" style="stroke:none;fill:red;fill-opacity:0.5;"/></marker><marker id="markerEnd" style="overflow:visible;"><circle cx="0" cy="0" r="0.8" style="stroke:none;fill:blue;fill-opacity:0.5;"><animate attributeName="opacity" from="1" to="0" dur="3s" repeatCount="indefinite" /></circle></marker></defs><rect x="4" y="4" width="100" height="100" /><path d="M35.53,16.45c0.96,0.67,1.49,1.84,1.6,3.01c0.86,5.16,1.66,9.42,2.52,14.25c0.27,1.5,0.51,2.94,0.72,4.24" class="grey" /><path d="M37.71,18.15c9.92-1.69,26.64-3.25,33.93-3.93c3.23-0.3,5.88,0.25,4.79,4.1c-1.09,3.84-2.04,6.05-4.38,12.61" class="grey" /><path d="M41.3,34.9c5.46-0.48,20.25-1.86,29.44-2.6c1.52-0.12,2.88-0.23,4.03-0.31" class="grey" /><path d="M23.64,32.24c1.25,1.25,1.61,2.51,1.56,4.38c-0.07,2.87-0.08,6.27-0.09,10.88c0,2.21,0.64,3.06,3.31,2.72c13.46-1.72,37.83-4.34,47.1-4.74c2.98-0.13,3.98,1.15,3.03,4.42c-1.33,4.6-2.55,7.1-4.3,13.35" class="grey" /><path d="M13.75,67.95c3.5,0.93,6.79,0.7,10.01,0.43c18.29-1.55,44.12-3.25,61.62-4.04c3.07-0.14,6.1,0.05,9.12,0.7" class="grey" /><path d="M41.25,77.14c0.14,1.14,0.03,2.11-0.64,3.05c-3.36,4.68-9.98,10.93-19.8,16.78" class="grey" /><path d="M67.27,76.58c6.54,3.6,16.91,14.79,18.54,20.38" class="grey" /><path d="M35.53,16.45c0.96,0.67,1.49,1.84,1.6,3.01c0.86,5.16,1.66,9.42,2.52,14.25c0.27,1.5,0.51,2.94,0.72,4.24" class="stroke" stroke-dasharray="150"><animate attributeName="stroke-dashoffset" from="150" to="0" dur="1.8s" begin="0s" fill="freeze" /></path><path d="M37.71,18.15c9.92-1.69,26.64-3.25,33.93-3.93c3.23-0.3,5.88,0.25,4.79,4.1c-1.09,3.84-2.04,6.05-4.38,12.61" class="stroke" stroke-dasharray="150"><set attributeName="opacity" to="0" dur="1.0s" /><animate attributeName="stroke-dashoffset" from="150" to="0" dur="1.8s" begin="1.0s" fill="freeze" /></path><path d="M41.3,34.9c5.46-0.48,20.25-1.86,29.44-2.6c1.52-0.12,2.88-0.23,4.03-0.31" class="stroke" stroke-dasharray="150"><set attributeName="opacity" to="0" dur="2.4s" /><animate attributeName="stroke-dashoffset" from="150" to="0" dur="1.8s" begin="2.4s" fill="freeze" /></path><path d="M23.64,32.24c1.25,1.25,1.61,2.51,1.56,4.38c-0.07,2.87-0.08,6.27-0.09,10.88c0,2.21,0.64,3.06,3.31,2.72c13.46-1.72,37.83-4.34,47.1-4.74c2.98-0.13,3.98,1.15,3.03,4.42c-1.33,4.6-2.55,7.1-4.3,13.35" class="stroke" stroke-dasharray="150"><set attributeName="opacity" to="0" dur="3.4s" /><animate attributeName="stroke-dashoffset" from="150" to="0" dur="1.8s" begin="3.4s" fill="freeze" /></path><path d="M13.75,67.95c3.5,0.93,6.79,0.7,10.01,0.43c18.29-1.55,44.12-3.25,61.62-4.04c3.07-0.14,6.1,0.05,9.12,0.7" class="stroke" stroke-dasharray="150"><set attributeName="opacity" to="0" dur="5.1s" /><animate attributeName="stroke-dashoffset" from="150" to="0" dur="1.8s" begin="5.1s" fill="freeze" /></path><path d="M41.25,77.14c0.14,1.14,0.03,2.11-0.64,3.05c-3.36,4.68-9.98,10.93-19.8,16.78" class="stroke" stroke-dasharray="150"><set attributeName="opacity" to="0" dur="6.8s" /><animate attributeName="stroke-dashoffset" from="150" to="0" dur="1.8s" begin="6.8s" fill="freeze" /></path><path d="M67.27,76.58c6.54,3.6,16.91,14.79,18.54,20.38" class="stroke" stroke-dasharray="150"><set attributeName="opacity" to="0" dur="7.8s" /><animate attributeName="stroke-dashoffset" from="150" to="0" dur="1.8s" begin="7.8s" fill="freeze" /></path><text x="90" y="120" id="reset">⟳</text><text x="70" y="120" id="pause">◼</text><script type="text/javascript"><![CDATA[function RecurringTimer(e,t){var n,r,i=t;this.pause=function(){window.clearTimeout(n);i-=new Date-r};var s=function(){r=new Date;n=window.setTimeout(function(){i=t;s();e()},i)};this.clear=function(){window.clearTimeout(n);i=t;n=window.setTimeout(function(){i=t;s();e()},i)};this.resume=s;this.resume()}function invoketimer(){timer=new RecurringTimer(function(){svg.setCurrentTime(0)},9800)}var svg=document.getElementById("kanjivg");var pause=document.getElementById("pause");var reset=document.getElementById("reset");var timer;invoketimer();reset.onclick=function(){svg.setCurrentTime(0);timer.clear();svg.unpauseAnimations();pause.innerHTML = "◼";};pause.onclick=function(){if(svg.animationsPaused()){svg.unpauseAnimations();timer.resume();pause.innerHTML="◼"}else{svg.pauseAnimations();timer.pause();pause.innerHTML="▶"}}]]></script></svg>