<svg id="kanjivg" width="106" height="126" xmlns="http://www.w3.org/2000/svg" xmlns:xlink="http://www.w3.org/1999/xlink" xml:space="preserve" version="1.1" baseProfile="full"><defs><style type="text/css"><![CDATA[path.black { fill:none;stroke:black;stroke-width:5;stroke-linecap:round;stroke-linejoin:round; }path.grey { fill:none;stroke:#ddd;stroke-width:5;stroke-linecap:round;stroke-linejoin:round; }path.stroke { fill:none;stroke:black;stroke-width:5;stroke-linecap:round;stroke-linejoin:round; }rect { fill:none;stroke:#555;stroke-width:2;} text{font-size:16px;font-family:Segoe UI Symbol,Cambria Math,DejaVu Sans,Symbola,Quivira,STIX,Code2000;-webkit-touch-callout:none;cursor:pointer;-webkit-user-select:none;-khtml-user-select:none;-moz-user-select:none;-ms-user-select:none;user-select: none;} #reset { font-weight:bold; }]]></style><marker id="markerStart" markerWidth="8" markerHeight="8" style="overflow:visible;"><circle cx="0" cy="0" r="1.5" style="stroke:none;fill:red;fill-opacity:0.5;"/></marker><marker id="markerEnd" style="overflow:visible;"><circle cx="0" cy="0" r="0.8" style="stroke:none;fill:blue;fill-opacity:0.5;"><animate attributeName="opacity" from="1" to="0" dur="3s" repeatCount="indefinite" /></circle></marker></defs><rect x="4" y="4" width="100" height="100" /><path d="M25.25,16c1.12,1.12,1.46,2.74,1.5,5c0.5,32,0.5,59-13.5,73.75" class="grey" /><path d="M27.25,17.75c8.39-0.88,41.3-3.77,50.11-4.57c5.74-0.52,7.62-0.19,7.64,5.94c0.03,9.63,0,63.78,0,69.13c0,12.25-6.25,4-8.83,1.42" class="grey" /><path d="M37.72,33.48c1.42,0.45,4.02,0.38,5.44,0.27c4.6-0.35,18.83-2.53,24.51-2.75c2.36-0.09,3.78,0.08,4.96,0.28" class="grey" /><path d="M53.72,21.42c0.81,0.81,1.25,2.2,1.25,3.49c0,4.34,0.07,16.84,0.07,22.62" class="grey" /><path d="M35.32,49.5c2.06,0.38,4.63,0.25,6.7,0.07c8.03-0.69,15.82-1.8,26.86-2.48c2.32-0.14,4.74-0.22,7.05,0.13" class="grey" /><path d="M39.88,62.12c0.81,0.74,1.43,2.17,1.62,3.26c0.84,4.98,1.5,9.36,2.34,14.6c0.17,1.07,0.35,2.17,0.54,3.32" class="grey" /><path d="M42.35,64.25c5.96-0.92,15.55-2.27,20.89-2.82c3.28-0.34,4.88,1.2,4.39,3.86c-0.72,3.9-1.64,8.07-2.9,12.59" class="grey" /><path d="M45.15,80.68c3.46-0.46,11.71-1.14,17.85-1.52c1.35-0.08,2.57-0.14,3.58-0.16" class="grey" /><path d="M25.25,16c1.12,1.12,1.46,2.74,1.5,5c0.5,32,0.5,59-13.5,73.75" class="stroke" stroke-dasharray="150"><animate attributeName="stroke-dashoffset" from="150" to="0" dur="1.8s" begin="0s" fill="freeze" /></path><path d="M27.25,17.75c8.39-0.88,41.3-3.77,50.11-4.57c5.74-0.52,7.62-0.19,7.64,5.94c0.03,9.63,0,63.78,0,69.13c0,12.25-6.25,4-8.83,1.42" class="stroke" stroke-dasharray="150"><set attributeName="opacity" to="0" dur="1.7s" /><animate attributeName="stroke-dashoffset" from="150" to="0" dur="1.8s" begin="1.7s" fill="freeze" /></path><path d="M37.72,33.48c1.42,0.45,4.02,0.38,5.44,0.27c4.6-0.35,18.83-2.53,24.51-2.75c2.36-0.09,3.78,0.08,4.96,0.28" class="stroke" stroke-dasharray="150"><set attributeName="opacity" to="0" dur="3.7s" /><animate attributeName="stroke-dashoffset" from="150" to="0" dur="1.8s" begin="3.7s" fill="freeze" /></path><path d="M53.72,21.42c0.81,0.81,1.25,2.2,1.25,3.49c0,4.34,0.07,16.84,0.07,22.62" class="stroke" stroke-dasharray="150"><set attributeName="opacity" to="0" dur="4.7s" /><animate attributeName="stroke-dashoffset" from="150" to="0" dur="1.8s" begin="4.7s" fill="freeze" /></path><path d="M35.32,49.5c2.06,0.38,4.63,0.25,6.7,0.07c8.03-0.69,15.82-1.8,26.86-2.48c2.32-0.14,4.74-0.22,7.05,0.13" class="stroke" stroke-dasharray="150"><set attributeName="opacity" to="0" dur="5.7s" /><animate attributeName="stroke-dashoffset" from="150" to="0" dur="1.8s" begin="5.7s" fill="freeze" /></path><path d="M39.88,62.12c0.81,0.74,1.43,2.17,1.62,3.26c0.84,4.98,1.5,9.36,2.34,14.6c0.17,1.07,0.35,2.17,0.54,3.32" class="stroke" stroke-dasharray="150"><set attributeName="opacity" to="0" dur="6.800000000000001s" /><animate attributeName="stroke-dashoffset" from="150" to="0" dur="1.8s" begin="6.800000000000001s" fill="freeze" /></path><path d="M42.35,64.25c5.96-0.92,15.55-2.27,20.89-2.82c3.28-0.34,4.88,1.2,4.39,3.86c-0.72,3.9-1.64,8.07-2.9,12.59" class="stroke" stroke-dasharray="150"><set attributeName="opacity" to="0" dur="7.800000000000001s" /><animate attributeName="stroke-dashoffset" from="150" to="0" dur="1.8s" begin="7.800000000000001s" fill="freeze" /></path><path d="M45.15,80.68c3.46-0.46,11.71-1.14,17.85-1.52c1.35-0.08,2.57-0.14,3.58-0.16" class="stroke" stroke-dasharray="150"><set attributeName="opacity" to="0" dur="8.9s" /><animate attributeName="stroke-dashoffset" from="150" to="0" dur="1.8s" begin="8.9s" fill="freeze" /></path><text x="90" y="120" id="reset">⟳</text><text x="70" y="120" id="pause">◼</text><script type="text/javascript"><![CDATA[function RecurringTimer(e,t){var n,r,i=t;this.pause=function(){window.clearTimeout(n);i-=new Date-r};var s=function(){r=new Date;n=window.setTimeout(function(){i=t;s();e()},i)};this.clear=function(){window.clearTimeout(n);i=t;n=window.setTimeout(function(){i=t;s();e()},i)};this.resume=s;this.resume()}function invoketimer(){timer=new RecurringTimer(function(){svg.setCurrentTime(0)},10900)}var svg=document.getElementById("kanjivg");var pause=document.getElementById("pause");var reset=document.getElementById("reset");var timer;invoketimer();reset.onclick=function(){svg.setCurrentTime(0);timer.clear();svg.unpauseAnimations();pause.innerHTML = "◼";};pause.onclick=function(){if(svg.animationsPaused()){svg.unpauseAnimations();timer.resume();pause.innerHTML="◼"}else{svg.pauseAnimations();timer.pause();pause.innerHTML="▶"}}]]></script></svg>