<svg id="kanjivg" width="106" height="126" xmlns="http://www.w3.org/2000/svg" xmlns:xlink="http://www.w3.org/1999/xlink" xml:space="preserve" version="1.1" baseProfile="full"><defs><style type="text/css"><![CDATA[path.black { fill:none;stroke:black;stroke-width:5;stroke-linecap:round;stroke-linejoin:round; }path.grey { fill:none;stroke:#ddd;stroke-width:5;stroke-linecap:round;stroke-linejoin:round; }path.stroke { fill:none;stroke:black;stroke-width:5;stroke-linecap:round;stroke-linejoin:round; }rect { fill:none;stroke:#555;stroke-width:2;} text{font-size:16px;font-family:Segoe UI Symbol,Cambria Math,DejaVu Sans,Symbola,Quivira,STIX,Code2000;-webkit-touch-callout:none;cursor:pointer;-webkit-user-select:none;-khtml-user-select:none;-moz-user-select:none;-ms-user-select:none;user-select: none;} #reset { font-weight:bold; }]]></style><marker id="markerStart" markerWidth="8" markerHeight="8" style="overflow:visible;"><circle cx="0" cy="0" r="1.5" style="stroke:none;fill:red;fill-opacity:0.5;"/></marker><marker id="markerEnd" style="overflow:visible;"><circle cx="0" cy="0" r="0.8" style="stroke:none;fill:blue;fill-opacity:0.5;"><animate attributeName="opacity" from="1" to="0" dur="3s" repeatCount="indefinite" /></circle></marker></defs><rect x="4" y="4" width="100" height="100" /><path d="M9.75,34.62c0.37,0.46,0.76,0.85,0.92,1.43c1.29,4.58,3.34,17.23,4.23,25.46" class="grey" /><path d="M12.08,35.82c9.42-2.01,15.55-3.22,19.92-3.83c1.6-0.22,2.56,1.3,2.33,2.6c-0.95,5.35-2.05,13.13-3.46,20.53" class="grey" /><path d="M15.07,58.29c5.14-0.68,11.33-1.45,18.39-2.5" class="grey" /><path d="M38.72,22.13c1.61,0.51,4.55,0.6,6.16,0.51C55.4,22,81.62,18.96,94.92,18.29c2.67-0.13,4.28,0.24,5.62,0.5" class="grey" /><path d="M45.83,41.07c0.33,0.37,1.18,2.18,1.32,2.64c1.16,3.66,3.54,16.26,4.33,22.83" class="grey" /><path d="M47.9,43.05c6.85-1.55,15.64-3.52,19.55-4c1.43-0.18,2.2,1.03,2.08,2.08C69,45.75,67.5,54,66.94,60.98" class="grey" /><path d="M51.64,63.33c4.59-0.54,10.92-0.98,17.23-1.82" class="grey" /><path d="M86.31,21.59c0.07,0.48,1.41,2.5,1.48,5.54c0.34,14.6-0.22,57.89-0.22,62.86c0,8.53-5.57,4.51-10.36,0.25" class="grey" /><path d="M9.75,34.62c0.37,0.46,0.76,0.85,0.92,1.43c1.29,4.58,3.34,17.23,4.23,25.46" class="stroke" stroke-dasharray="150"><animate attributeName="stroke-dashoffset" from="150" to="0" dur="1.8s" begin="0s" fill="freeze" /></path><path d="M12.08,35.82c9.42-2.01,15.55-3.22,19.92-3.83c1.6-0.22,2.56,1.3,2.33,2.6c-0.95,5.35-2.05,13.13-3.46,20.53" class="stroke" stroke-dasharray="150"><set attributeName="opacity" to="0" dur="1.0s" /><animate attributeName="stroke-dashoffset" from="150" to="0" dur="1.8s" begin="1.0s" fill="freeze" /></path><path d="M15.07,58.29c5.14-0.68,11.33-1.45,18.39-2.5" class="stroke" stroke-dasharray="150"><set attributeName="opacity" to="0" dur="2.2s" /><animate attributeName="stroke-dashoffset" from="150" to="0" dur="1.8s" begin="2.2s" fill="freeze" /></path><path d="M38.72,22.13c1.61,0.51,4.55,0.6,6.16,0.51C55.4,22,81.62,18.96,94.92,18.29c2.67-0.13,4.28,0.24,5.62,0.5" class="stroke" stroke-dasharray="150"><set attributeName="opacity" to="0" dur="3.1s" /><animate attributeName="stroke-dashoffset" from="150" to="0" dur="1.8s" begin="3.1s" fill="freeze" /></path><path d="M45.83,41.07c0.33,0.37,1.18,2.18,1.32,2.64c1.16,3.66,3.54,16.26,4.33,22.83" class="stroke" stroke-dasharray="150"><set attributeName="opacity" to="0" dur="4.6s" /><animate attributeName="stroke-dashoffset" from="150" to="0" dur="1.8s" begin="4.6s" fill="freeze" /></path><path d="M47.9,43.05c6.85-1.55,15.64-3.52,19.55-4c1.43-0.18,2.2,1.03,2.08,2.08C69,45.75,67.5,54,66.94,60.98" class="stroke" stroke-dasharray="150"><set attributeName="opacity" to="0" dur="5.6s" /><animate attributeName="stroke-dashoffset" from="150" to="0" dur="1.8s" begin="5.6s" fill="freeze" /></path><path d="M51.64,63.33c4.59-0.54,10.92-0.98,17.23-1.82" class="stroke" stroke-dasharray="150"><set attributeName="opacity" to="0" dur="6.699999999999999s" /><animate attributeName="stroke-dashoffset" from="150" to="0" dur="1.8s" begin="6.699999999999999s" fill="freeze" /></path><path d="M86.31,21.59c0.07,0.48,1.41,2.5,1.48,5.54c0.34,14.6-0.22,57.89-0.22,62.86c0,8.53-5.57,4.51-10.36,0.25" class="stroke" stroke-dasharray="150"><set attributeName="opacity" to="0" dur="7.6s" /><animate attributeName="stroke-dashoffset" from="150" to="0" dur="1.8s" begin="7.6s" fill="freeze" /></path><text x="90" y="120" id="reset">⟳</text><text x="70" y="120" id="pause">◼</text><script type="text/javascript"><![CDATA[function RecurringTimer(e,t){var n,r,i=t;this.pause=function(){window.clearTimeout(n);i-=new Date-r};var s=function(){r=new Date;n=window.setTimeout(function(){i=t;s();e()},i)};this.clear=function(){window.clearTimeout(n);i=t;n=window.setTimeout(function(){i=t;s();e()},i)};this.resume=s;this.resume()}function invoketimer(){timer=new RecurringTimer(function(){svg.setCurrentTime(0)},10299)}var svg=document.getElementById("kanjivg");var pause=document.getElementById("pause");var reset=document.getElementById("reset");var timer;invoketimer();reset.onclick=function(){svg.setCurrentTime(0);timer.clear();svg.unpauseAnimations();pause.innerHTML = "◼";};pause.onclick=function(){if(svg.animationsPaused()){svg.unpauseAnimations();timer.resume();pause.innerHTML="◼"}else{svg.pauseAnimations();timer.pause();pause.innerHTML="▶"}}]]></script></svg>