<svg id="kanjivg" width="106" height="126" xmlns="http://www.w3.org/2000/svg" xmlns:xlink="http://www.w3.org/1999/xlink" xml:space="preserve" version="1.1" baseProfile="full"><defs><style type="text/css"><![CDATA[path.black { fill:none;stroke:black;stroke-width:5;stroke-linecap:round;stroke-linejoin:round; }path.grey { fill:none;stroke:#ddd;stroke-width:5;stroke-linecap:round;stroke-linejoin:round; }path.stroke { fill:none;stroke:black;stroke-width:5;stroke-linecap:round;stroke-linejoin:round; }rect { fill:none;stroke:#555;stroke-width:2;} text{font-size:16px;font-family:Segoe UI Symbol,Cambria Math,DejaVu Sans,Symbola,Quivira,STIX,Code2000;-webkit-touch-callout:none;cursor:pointer;-webkit-user-select:none;-khtml-user-select:none;-moz-user-select:none;-ms-user-select:none;user-select: none;} #reset { font-weight:bold; }]]></style><marker id="markerStart" markerWidth="8" markerHeight="8" style="overflow:visible;"><circle cx="0" cy="0" r="1.5" style="stroke:none;fill:red;fill-opacity:0.5;"/></marker><marker id="markerEnd" style="overflow:visible;"><circle cx="0" cy="0" r="0.8" style="stroke:none;fill:blue;fill-opacity:0.5;"><animate attributeName="opacity" from="1" to="0" dur="3s" repeatCount="indefinite" /></circle></marker></defs><rect x="4" y="4" width="100" height="100" /><path d="M11.25,33.29c0.37,0.51,0.76,0.94,0.92,1.58C13.46,39.93,15.01,53.9,15.9,63" class="grey" /><path d="M13.58,35.72c9.42-2.22,15.05-3.56,19.42-4.23c1.6-0.24,2.56,1.44,2.33,2.87c-0.95,5.92-2.05,15.07-3.46,23.25" class="grey" /><path d="M16.07,60.55c5.14-0.75,11.33-1.05,18.39-2.21" class="grey" /><path d="M75,8c0.07,0.5-0.11,2.1-0.52,2.66c-5.14,7.03-12.37,12.82-25.78,18.49" class="grey" /><path d="M45.24,28.21c0.35,0.82,0.9,2.26,0.99,4.6c0.96,24.32-0.63,52.82-12.19,64.41" class="grey" /><path d="M59.22,26.53c0.96,0.68,1.73,3.04,1.73,4.43c0,7.12-0.19,38.79-0.19,50.34" class="grey" /><path d="M48.72,86.22c0.65,0.68,1.93,1.98,3.29,1.25c7.23-3.88,12.69-7.37,20.42-11.67" class="grey" /><path d="M69.04,70.09c2.15,2.95,5.56,12.12,6.1,16.71" class="grey" /><path d="M71.97,22c0.2,0,0.86,0.69,1.09,2.09c2.49,15.23,6.66,47.59,15.31,66.57c1.31,2.88,2.71,4.67,3.64,5.61" class="grey" /><path d="M11.25,33.29c0.37,0.51,0.76,0.94,0.92,1.58C13.46,39.93,15.01,53.9,15.9,63" class="stroke" stroke-dasharray="150"><animate attributeName="stroke-dashoffset" from="150" to="0" dur="1.8s" begin="0s" fill="freeze" /></path><path d="M13.58,35.72c9.42-2.22,15.05-3.56,19.42-4.23c1.6-0.24,2.56,1.44,2.33,2.87c-0.95,5.92-2.05,15.07-3.46,23.25" class="stroke" stroke-dasharray="150"><set attributeName="opacity" to="0" dur="1.0s" /><animate attributeName="stroke-dashoffset" from="150" to="0" dur="1.8s" begin="1.0s" fill="freeze" /></path><path d="M16.07,60.55c5.14-0.75,11.33-1.05,18.39-2.21" class="stroke" stroke-dasharray="150"><set attributeName="opacity" to="0" dur="2.2s" /><animate attributeName="stroke-dashoffset" from="150" to="0" dur="1.8s" begin="2.2s" fill="freeze" /></path><path d="M75,8c0.07,0.5-0.11,2.1-0.52,2.66c-5.14,7.03-12.37,12.82-25.78,18.49" class="stroke" stroke-dasharray="150"><set attributeName="opacity" to="0" dur="3.1s" /><animate attributeName="stroke-dashoffset" from="150" to="0" dur="1.8s" begin="3.1s" fill="freeze" /></path><path d="M45.24,28.21c0.35,0.82,0.9,2.26,0.99,4.6c0.96,24.32-0.63,52.82-12.19,64.41" class="stroke" stroke-dasharray="150"><set attributeName="opacity" to="0" dur="4.1s" /><animate attributeName="stroke-dashoffset" from="150" to="0" dur="1.8s" begin="4.1s" fill="freeze" /></path><path d="M59.22,26.53c0.96,0.68,1.73,3.04,1.73,4.43c0,7.12-0.19,38.79-0.19,50.34" class="stroke" stroke-dasharray="150"><set attributeName="opacity" to="0" dur="5.8s" /><animate attributeName="stroke-dashoffset" from="150" to="0" dur="1.8s" begin="5.8s" fill="freeze" /></path><path d="M48.72,86.22c0.65,0.68,1.93,1.98,3.29,1.25c7.23-3.88,12.69-7.37,20.42-11.67" class="stroke" stroke-dasharray="150"><set attributeName="opacity" to="0" dur="7.199999999999999s" /><animate attributeName="stroke-dashoffset" from="150" to="0" dur="1.8s" begin="7.199999999999999s" fill="freeze" /></path><path d="M69.04,70.09c2.15,2.95,5.56,12.12,6.1,16.71" class="stroke" stroke-dasharray="150"><set attributeName="opacity" to="0" dur="8.2s" /><animate attributeName="stroke-dashoffset" from="150" to="0" dur="1.8s" begin="8.2s" fill="freeze" /></path><path d="M71.97,22c0.2,0,0.86,0.69,1.09,2.09c2.49,15.23,6.66,47.59,15.31,66.57c1.31,2.88,2.71,4.67,3.64,5.61" class="stroke" stroke-dasharray="150"><set attributeName="opacity" to="0" dur="9.1s" /><animate attributeName="stroke-dashoffset" from="150" to="0" dur="1.8s" begin="9.1s" fill="freeze" /></path><text x="90" y="120" id="reset">⟳</text><text x="70" y="120" id="pause">◼</text><script type="text/javascript"><![CDATA[function RecurringTimer(e,t){var n,r,i=t;this.pause=function(){window.clearTimeout(n);i-=new Date-r};var s=function(){r=new Date;n=window.setTimeout(function(){i=t;s();e()},i)};this.clear=function(){window.clearTimeout(n);i=t;n=window.setTimeout(function(){i=t;s();e()},i)};this.resume=s;this.resume()}function invoketimer(){timer=new RecurringTimer(function(){svg.setCurrentTime(0)},11799)}var svg=document.getElementById("kanjivg");var pause=document.getElementById("pause");var reset=document.getElementById("reset");var timer;invoketimer();reset.onclick=function(){svg.setCurrentTime(0);timer.clear();svg.unpauseAnimations();pause.innerHTML = "◼";};pause.onclick=function(){if(svg.animationsPaused()){svg.unpauseAnimations();timer.resume();pause.innerHTML="◼"}else{svg.pauseAnimations();timer.pause();pause.innerHTML="▶"}}]]></script></svg>