<svg id="kanjivg" width="106" height="126" xmlns="http://www.w3.org/2000/svg" xmlns:xlink="http://www.w3.org/1999/xlink" xml:space="preserve" version="1.1" baseProfile="full"><defs><style type="text/css"><![CDATA[path.black { fill:none;stroke:black;stroke-width:5;stroke-linecap:round;stroke-linejoin:round; }path.grey { fill:none;stroke:#ddd;stroke-width:5;stroke-linecap:round;stroke-linejoin:round; }path.stroke { fill:none;stroke:black;stroke-width:5;stroke-linecap:round;stroke-linejoin:round; }rect { fill:none;stroke:#555;stroke-width:2;} text{font-size:16px;font-family:Segoe UI Symbol,Cambria Math,DejaVu Sans,Symbola,Quivira,STIX,Code2000;-webkit-touch-callout:none;cursor:pointer;-webkit-user-select:none;-khtml-user-select:none;-moz-user-select:none;-ms-user-select:none;user-select: none;} #reset { font-weight:bold; }]]></style><marker id="markerStart" markerWidth="8" markerHeight="8" style="overflow:visible;"><circle cx="0" cy="0" r="1.5" style="stroke:none;fill:red;fill-opacity:0.5;"/></marker><marker id="markerEnd" style="overflow:visible;"><circle cx="0" cy="0" r="0.8" style="stroke:none;fill:blue;fill-opacity:0.5;"><animate attributeName="opacity" from="1" to="0" dur="3s" repeatCount="indefinite" /></circle></marker></defs><rect x="4" y="4" width="100" height="100" /><path d="M11.21,35.83c0.28,0.85,0.61,1.43,0.71,2.08c0.7,4.69,1.55,16.25,2.53,25.13" class="grey" /><path d="M12.64,37.62c5.39-0.85,17.34-3.03,21.01-3.16c1.52-0.06,2.5,1.28,2.21,2.5c-1.04,4.34-2.69,12.89-3.28,19.62" class="grey" /><path d="M14.17,58.88c3.98,0,14.59-1.54,20.09-1.66" class="grey" /><path d="M45.56,33.52c0.8,0.28,2.27,0.31,3.07,0.28c8.34-0.32,20.61-3.05,30.03-3.73c1.33-0.1,2.14,0.13,2.81,0.27" class="grey" /><path d="M40.13,51.5c0.81,0.25,2.7,0.5,4.87,0.5c6.5,0,27.45-3.5,42.33-4.75c2.16-0.18,2.71-0.25,4.06,0" class="grey" /><path d="M61.18,11.25c1.35,0.5,2.16,2.25,2.43,3.25s-0.27,78.72-0.27,80c0,10.75-5.72,1.88-6.84,0.75" class="grey" /><path d="M60.72,52.25c-6.08,11.07-21.07,26.73-33.72,33" class="grey" /><path d="M65.28,51.25c4.55,6.64,21.25,23.94,28.03,29.49c1.69,1.39,3.05,2.09,4.69,2.51" class="grey" /><path d="M11.21,35.83c0.28,0.85,0.61,1.43,0.71,2.08c0.7,4.69,1.55,16.25,2.53,25.13" class="stroke" stroke-dasharray="150"><animate attributeName="stroke-dashoffset" from="150" to="0" dur="1.8s" begin="0s" fill="freeze" /></path><path d="M12.64,37.62c5.39-0.85,17.34-3.03,21.01-3.16c1.52-0.06,2.5,1.28,2.21,2.5c-1.04,4.34-2.69,12.89-3.28,19.62" class="stroke" stroke-dasharray="150"><set attributeName="opacity" to="0" dur="1.0s" /><animate attributeName="stroke-dashoffset" from="150" to="0" dur="1.8s" begin="1.0s" fill="freeze" /></path><path d="M14.17,58.88c3.98,0,14.59-1.54,20.09-1.66" class="stroke" stroke-dasharray="150"><set attributeName="opacity" to="0" dur="2.2s" /><animate attributeName="stroke-dashoffset" from="150" to="0" dur="1.8s" begin="2.2s" fill="freeze" /></path><path d="M45.56,33.52c0.8,0.28,2.27,0.31,3.07,0.28c8.34-0.32,20.61-3.05,30.03-3.73c1.33-0.1,2.14,0.13,2.81,0.27" class="stroke" stroke-dasharray="150"><set attributeName="opacity" to="0" dur="3.2s" /><animate attributeName="stroke-dashoffset" from="150" to="0" dur="1.8s" begin="3.2s" fill="freeze" /></path><path d="M40.13,51.5c0.81,0.25,2.7,0.5,4.87,0.5c6.5,0,27.45-3.5,42.33-4.75c2.16-0.18,2.71-0.25,4.06,0" class="stroke" stroke-dasharray="150"><set attributeName="opacity" to="0" dur="4.2s" /><animate attributeName="stroke-dashoffset" from="150" to="0" dur="1.8s" begin="4.2s" fill="freeze" /></path><path d="M61.18,11.25c1.35,0.5,2.16,2.25,2.43,3.25s-0.27,78.72-0.27,80c0,10.75-5.72,1.88-6.84,0.75" class="stroke" stroke-dasharray="150"><set attributeName="opacity" to="0" dur="5.5s" /><animate attributeName="stroke-dashoffset" from="150" to="0" dur="1.8s" begin="5.5s" fill="freeze" /></path><path d="M60.72,52.25c-6.08,11.07-21.07,26.73-33.72,33" class="stroke" stroke-dasharray="150"><set attributeName="opacity" to="0" dur="7.3s" /><animate attributeName="stroke-dashoffset" from="150" to="0" dur="1.8s" begin="7.3s" fill="freeze" /></path><path d="M65.28,51.25c4.55,6.64,21.25,23.94,28.03,29.49c1.69,1.39,3.05,2.09,4.69,2.51" class="stroke" stroke-dasharray="150"><set attributeName="opacity" to="0" dur="8.5s" /><animate attributeName="stroke-dashoffset" from="150" to="0" dur="1.8s" begin="8.5s" fill="freeze" /></path><text x="90" y="120" id="reset">⟳</text><text x="70" y="120" id="pause">◼</text><script type="text/javascript"><![CDATA[function RecurringTimer(e,t){var n,r,i=t;this.pause=function(){window.clearTimeout(n);i-=new Date-r};var s=function(){r=new Date;n=window.setTimeout(function(){i=t;s();e()},i)};this.clear=function(){window.clearTimeout(n);i=t;n=window.setTimeout(function(){i=t;s();e()},i)};this.resume=s;this.resume()}function invoketimer(){timer=new RecurringTimer(function(){svg.setCurrentTime(0)},10700)}var svg=document.getElementById("kanjivg");var pause=document.getElementById("pause");var reset=document.getElementById("reset");var timer;invoketimer();reset.onclick=function(){svg.setCurrentTime(0);timer.clear();svg.unpauseAnimations();pause.innerHTML = "◼";};pause.onclick=function(){if(svg.animationsPaused()){svg.unpauseAnimations();timer.resume();pause.innerHTML="◼"}else{svg.pauseAnimations();timer.pause();pause.innerHTML="▶"}}]]></script></svg>