<svg id="kanjivg" width="106" height="126" xmlns="http://www.w3.org/2000/svg" xmlns:xlink="http://www.w3.org/1999/xlink" xml:space="preserve" version="1.1" baseProfile="full"><defs><style type="text/css"><![CDATA[path.black { fill:none;stroke:black;stroke-width:5;stroke-linecap:round;stroke-linejoin:round; }path.grey { fill:none;stroke:#ddd;stroke-width:5;stroke-linecap:round;stroke-linejoin:round; }path.stroke { fill:none;stroke:black;stroke-width:5;stroke-linecap:round;stroke-linejoin:round; }rect { fill:none;stroke:#555;stroke-width:2;} text{font-size:16px;font-family:Segoe UI Symbol,Cambria Math,DejaVu Sans,Symbola,Quivira,STIX,Code2000;-webkit-touch-callout:none;cursor:pointer;-webkit-user-select:none;-khtml-user-select:none;-moz-user-select:none;-ms-user-select:none;user-select: none;} #reset { font-weight:bold; }]]></style><marker id="markerStart" markerWidth="8" markerHeight="8" style="overflow:visible;"><circle cx="0" cy="0" r="1.5" style="stroke:none;fill:red;fill-opacity:0.5;"/></marker><marker id="markerEnd" style="overflow:visible;"><circle cx="0" cy="0" r="0.8" style="stroke:none;fill:blue;fill-opacity:0.5;"><animate attributeName="opacity" from="1" to="0" dur="3s" repeatCount="indefinite" /></circle></marker></defs><rect x="4" y="4" width="100" height="100" /><path d="M36.65,31.49c4.5-0.52,10.82-2.06,15.24-2.58c1.1-0.13,1.38-0.17,2.06,0" class="grey" /><path d="M34.32,13.23c1.01,0.35,1.62,1.56,1.82,2.25c0.2,0.69-0.07,27.91-0.07,35.35" class="grey" /><path d="M17.45,27.51c1.01,0.35,1.82,2.04,1.82,2.75c0,3.81-0.74,18.49-0.74,24.11c0,1.38,0.48,2.4,2.47,1.88c6.75-1.75,18.25-5.75,30.5-10" class="grey" /><path d="M88.04,16.19c0.2,0.33,0.32,1.3-0.18,1.81c-3.25,3.3-14.41,12.4-24.92,15.78" class="grey" /><path d="M60.46,12.5c1.09,1.03,1.16,1.71,1.53,3.08c0.36,1.37,0.11,21.54,0.11,30.88c0,9.34,8.87,7.84,16.43,7.84c14.86,0,15.11-2.6,15.11-9.15" class="grey" /><path d="M31,67.35c0.47,0.52,0.95,0.96,1.16,1.61c1.63,5.18,3.09,18.47,4.2,27.78" class="grey" /><path d="M32.56,69.37c14.94-1.87,32.54-3.69,40.18-4.37c2.79-0.25,4.46,1.48,4.06,2.94c-1.65,6.05-3.08,13.87-5.54,22.24" class="grey" /><path d="M36.42,93.7c8.96-0.77,25.32-2.1,37.63-3.28" class="grey" /><path d="M36.65,31.49c4.5-0.52,10.82-2.06,15.24-2.58c1.1-0.13,1.38-0.17,2.06,0" class="stroke" stroke-dasharray="150"><animate attributeName="stroke-dashoffset" from="150" to="0" dur="1.8s" begin="0s" fill="freeze" /></path><path d="M34.32,13.23c1.01,0.35,1.62,1.56,1.82,2.25c0.2,0.69-0.07,27.91-0.07,35.35" class="stroke" stroke-dasharray="150"><set attributeName="opacity" to="0" dur="0.9s" /><animate attributeName="stroke-dashoffset" from="150" to="0" dur="1.8s" begin="0.9s" fill="freeze" /></path><path d="M17.45,27.51c1.01,0.35,1.82,2.04,1.82,2.75c0,3.81-0.74,18.49-0.74,24.11c0,1.38,0.48,2.4,2.47,1.88c6.75-1.75,18.25-5.75,30.5-10" class="stroke" stroke-dasharray="150"><set attributeName="opacity" to="0" dur="1.9s" /><animate attributeName="stroke-dashoffset" from="150" to="0" dur="1.8s" begin="1.9s" fill="freeze" /></path><path d="M88.04,16.19c0.2,0.33,0.32,1.3-0.18,1.81c-3.25,3.3-14.41,12.4-24.92,15.78" class="stroke" stroke-dasharray="150"><set attributeName="opacity" to="0" dur="3.4s" /><animate attributeName="stroke-dashoffset" from="150" to="0" dur="1.8s" begin="3.4s" fill="freeze" /></path><path d="M60.46,12.5c1.09,1.03,1.16,1.71,1.53,3.08c0.36,1.37,0.11,21.54,0.11,30.88c0,9.34,8.87,7.84,16.43,7.84c14.86,0,15.11-2.6,15.11-9.15" class="stroke" stroke-dasharray="150"><set attributeName="opacity" to="0" dur="4.4s" /><animate attributeName="stroke-dashoffset" from="150" to="0" dur="1.8s" begin="4.4s" fill="freeze" /></path><path d="M31,67.35c0.47,0.52,0.95,0.96,1.16,1.61c1.63,5.18,3.09,18.47,4.2,27.78" class="stroke" stroke-dasharray="150"><set attributeName="opacity" to="0" dur="6.1000000000000005s" /><animate attributeName="stroke-dashoffset" from="150" to="0" dur="1.8s" begin="6.1000000000000005s" fill="freeze" /></path><path d="M32.56,69.37c14.94-1.87,32.54-3.69,40.18-4.37c2.79-0.25,4.46,1.48,4.06,2.94c-1.65,6.05-3.08,13.87-5.54,22.24" class="stroke" stroke-dasharray="150"><set attributeName="opacity" to="0" dur="7.1000000000000005s" /><animate attributeName="stroke-dashoffset" from="150" to="0" dur="1.8s" begin="7.1000000000000005s" fill="freeze" /></path><path d="M36.42,93.7c8.96-0.77,25.32-2.1,37.63-3.28" class="stroke" stroke-dasharray="150"><set attributeName="opacity" to="0" dur="8.600000000000001s" /><animate attributeName="stroke-dashoffset" from="150" to="0" dur="1.8s" begin="8.600000000000001s" fill="freeze" /></path><text x="90" y="120" id="reset">⟳</text><text x="70" y="120" id="pause">◼</text><script type="text/javascript"><![CDATA[function RecurringTimer(e,t){var n,r,i=t;this.pause=function(){window.clearTimeout(n);i-=new Date-r};var s=function(){r=new Date;n=window.setTimeout(function(){i=t;s();e()},i)};this.clear=function(){window.clearTimeout(n);i=t;n=window.setTimeout(function(){i=t;s();e()},i)};this.resume=s;this.resume()}function invoketimer(){timer=new RecurringTimer(function(){svg.setCurrentTime(0)},10600)}var svg=document.getElementById("kanjivg");var pause=document.getElementById("pause");var reset=document.getElementById("reset");var timer;invoketimer();reset.onclick=function(){svg.setCurrentTime(0);timer.clear();svg.unpauseAnimations();pause.innerHTML = "◼";};pause.onclick=function(){if(svg.animationsPaused()){svg.unpauseAnimations();timer.resume();pause.innerHTML="◼"}else{svg.pauseAnimations();timer.pause();pause.innerHTML="▶"}}]]></script></svg>