<svg id="kanjivg" width="106" height="126" xmlns="http://www.w3.org/2000/svg" xmlns:xlink="http://www.w3.org/1999/xlink" xml:space="preserve" version="1.1" baseProfile="full"><defs><style type="text/css"><![CDATA[path.black { fill:none;stroke:black;stroke-width:5;stroke-linecap:round;stroke-linejoin:round; }path.grey { fill:none;stroke:#ddd;stroke-width:5;stroke-linecap:round;stroke-linejoin:round; }path.stroke { fill:none;stroke:black;stroke-width:5;stroke-linecap:round;stroke-linejoin:round; }rect { fill:none;stroke:#555;stroke-width:2;} text{font-size:16px;font-family:Segoe UI Symbol,Cambria Math,DejaVu Sans,Symbola,Quivira,STIX,Code2000;-webkit-touch-callout:none;cursor:pointer;-webkit-user-select:none;-khtml-user-select:none;-moz-user-select:none;-ms-user-select:none;user-select: none;} #reset { font-weight:bold; }]]></style><marker id="markerStart" markerWidth="8" markerHeight="8" style="overflow:visible;"><circle cx="0" cy="0" r="1.5" style="stroke:none;fill:red;fill-opacity:0.5;"/></marker><marker id="markerEnd" style="overflow:visible;"><circle cx="0" cy="0" r="0.8" style="stroke:none;fill:blue;fill-opacity:0.5;"><animate attributeName="opacity" from="1" to="0" dur="3s" repeatCount="indefinite" /></circle></marker></defs><rect x="4" y="4" width="100" height="100" /><path d="M8.75,34.41c0.34,0.47,0.69,0.87,0.83,1.46c1.17,4.7,2.58,17.68,3.38,26.13" class="grey" /><path d="M10.86,36.67c8.54-2.06,13.64-3.31,17.61-3.93c1.45-0.23,2.32,1.34,2.11,2.67c-0.86,5.49-1.86,12.49-3.14,20.09" class="grey" /><path d="M13.12,57.73c4.66-0.7,10.28-0.98,16.67-2.05" class="grey" /><path d="M49.12,14.44c0.4,1.43,1.12,3.79,0.91,5.75c-1.02,9.6-6.53,34.54-11.01,45.28c-0.92,2.2,0.39,3.37,0.91,3.61c7.72,3.52,13.14,6.67,19.14,16.04" class="grey" /><path d="M60.56,36.94c0.06,1.37,0.11,4.7-0.15,6.64c-2.14,15.69-8.29,37.5-23.47,47.27" class="grey" /><path d="M34.75,44.89c0.6,1.36,1.81,1.82,3.43,1.7c1.74-0.12,17.62-3.86,24.81-6.25" class="grey" /><path d="M66.78,30.14c1.41,0.49,1.55,1.12,4.39,0.49c5.08-1.13,15.05-3.27,16.98-4.01c1.93-0.74,4.24,2.12,3.57,4.82C86.28,53.37,77.25,82,58.83,93.12" class="grey" /><path d="M66.89,36.77C70,39.25,80.75,73,94.77,88.08c1.89,2.04,2.79,3.77,4.29,4.52" class="grey" /><path d="M8.75,34.41c0.34,0.47,0.69,0.87,0.83,1.46c1.17,4.7,2.58,17.68,3.38,26.13" class="stroke" stroke-dasharray="150"><animate attributeName="stroke-dashoffset" from="150" to="0" dur="1.8s" begin="0s" fill="freeze" /></path><path d="M10.86,36.67c8.54-2.06,13.64-3.31,17.61-3.93c1.45-0.23,2.32,1.34,2.11,2.67c-0.86,5.49-1.86,12.49-3.14,20.09" class="stroke" stroke-dasharray="150"><set attributeName="opacity" to="0" dur="1.0s" /><animate attributeName="stroke-dashoffset" from="150" to="0" dur="1.8s" begin="1.0s" fill="freeze" /></path><path d="M13.12,57.73c4.66-0.7,10.28-0.98,16.67-2.05" class="stroke" stroke-dasharray="150"><set attributeName="opacity" to="0" dur="2.1s" /><animate attributeName="stroke-dashoffset" from="150" to="0" dur="1.8s" begin="2.1s" fill="freeze" /></path><path d="M49.12,14.44c0.4,1.43,1.12,3.79,0.91,5.75c-1.02,9.6-6.53,34.54-11.01,45.28c-0.92,2.2,0.39,3.37,0.91,3.61c7.72,3.52,13.14,6.67,19.14,16.04" class="stroke" stroke-dasharray="150"><set attributeName="opacity" to="0" dur="3.0s" /><animate attributeName="stroke-dashoffset" from="150" to="0" dur="1.8s" begin="3.0s" fill="freeze" /></path><path d="M60.56,36.94c0.06,1.37,0.11,4.7-0.15,6.64c-2.14,15.69-8.29,37.5-23.47,47.27" class="stroke" stroke-dasharray="150"><set attributeName="opacity" to="0" dur="4.7s" /><animate attributeName="stroke-dashoffset" from="150" to="0" dur="1.8s" begin="4.7s" fill="freeze" /></path><path d="M34.75,44.89c0.6,1.36,1.81,1.82,3.43,1.7c1.74-0.12,17.62-3.86,24.81-6.25" class="stroke" stroke-dasharray="150"><set attributeName="opacity" to="0" dur="6.2s" /><animate attributeName="stroke-dashoffset" from="150" to="0" dur="1.8s" begin="6.2s" fill="freeze" /></path><path d="M66.78,30.14c1.41,0.49,1.55,1.12,4.39,0.49c5.08-1.13,15.05-3.27,16.98-4.01c1.93-0.74,4.24,2.12,3.57,4.82C86.28,53.37,77.25,82,58.83,93.12" class="stroke" stroke-dasharray="150"><set attributeName="opacity" to="0" dur="7.2s" /><animate attributeName="stroke-dashoffset" from="150" to="0" dur="1.8s" begin="7.2s" fill="freeze" /></path><path d="M66.89,36.77C70,39.25,80.75,73,94.77,88.08c1.89,2.04,2.79,3.77,4.29,4.52" class="stroke" stroke-dasharray="150"><set attributeName="opacity" to="0" dur="9.1s" /><animate attributeName="stroke-dashoffset" from="150" to="0" dur="1.8s" begin="9.1s" fill="freeze" /></path><text x="90" y="120" id="reset">⟳</text><text x="70" y="120" id="pause">◼</text><script type="text/javascript"><![CDATA[function RecurringTimer(e,t){var n,r,i=t;this.pause=function(){window.clearTimeout(n);i-=new Date-r};var s=function(){r=new Date;n=window.setTimeout(function(){i=t;s();e()},i)};this.clear=function(){window.clearTimeout(n);i=t;n=window.setTimeout(function(){i=t;s();e()},i)};this.resume=s;this.resume()}function invoketimer(){timer=new RecurringTimer(function(){svg.setCurrentTime(0)},11600)}var svg=document.getElementById("kanjivg");var pause=document.getElementById("pause");var reset=document.getElementById("reset");var timer;invoketimer();reset.onclick=function(){svg.setCurrentTime(0);timer.clear();svg.unpauseAnimations();pause.innerHTML = "◼";};pause.onclick=function(){if(svg.animationsPaused()){svg.unpauseAnimations();timer.resume();pause.innerHTML="◼"}else{svg.pauseAnimations();timer.pause();pause.innerHTML="▶"}}]]></script></svg>