<svg id="kanjivg" width="106" height="126" xmlns="http://www.w3.org/2000/svg" xmlns:xlink="http://www.w3.org/1999/xlink" xml:space="preserve" version="1.1" baseProfile="full"><defs><style type="text/css"><![CDATA[path.black { fill:none;stroke:black;stroke-width:5;stroke-linecap:round;stroke-linejoin:round; }path.grey { fill:none;stroke:#ddd;stroke-width:5;stroke-linecap:round;stroke-linejoin:round; }path.stroke { fill:none;stroke:black;stroke-width:5;stroke-linecap:round;stroke-linejoin:round; }rect { fill:none;stroke:#555;stroke-width:2;} text{font-size:16px;font-family:Segoe UI Symbol,Cambria Math,DejaVu Sans,Symbola,Quivira,STIX,Code2000;-webkit-touch-callout:none;cursor:pointer;-webkit-user-select:none;-khtml-user-select:none;-moz-user-select:none;-ms-user-select:none;user-select: none;} #reset { font-weight:bold; }]]></style><marker id="markerStart" markerWidth="8" markerHeight="8" style="overflow:visible;"><circle cx="0" cy="0" r="1.5" style="stroke:none;fill:red;fill-opacity:0.5;"/></marker><marker id="markerEnd" style="overflow:visible;"><circle cx="0" cy="0" r="0.8" style="stroke:none;fill:blue;fill-opacity:0.5;"><animate attributeName="opacity" from="1" to="0" dur="3s" repeatCount="indefinite" /></circle></marker></defs><rect x="4" y="4" width="100" height="100" /><path d="M10.46,35.58c0.79,0.79,1.25,2.27,1.43,3.67c0.57,4.36,1.33,11.99,2.07,18.99c0.17,1.56,0.33,3.09,0.49,4.54" class="grey" /><path d="M12.64,37.37c4.54-0.72,13.77-2.2,18.75-2.73c3.08-0.32,4.74,1.14,4.01,4.27c-1.06,4.55-2.56,11.44-3.57,17.68" class="grey" /><path d="M14.17,58.88c3.12,0,10.34-0.95,15.96-1.42c1.54-0.13,2.95-0.22,4.13-0.25" class="grey" /><path d="M45.31,32.77c1.8,0.63,4.34,0.76,6.2,0.59c7.33-0.64,16.7-2.27,24.62-3.07c1.82-0.18,4.04-0.33,5.84,0.05" class="grey" /><path d="M40.13,51.5c2.36,0.73,5.09,0.73,7.5,0.38c8.62-1.26,23.37-3.03,36.12-4.3c2.47-0.25,5.16-0.29,7.63,0.17" class="grey" /><path d="M61.68,11.5c1.41,1.41,1.93,3.25,1.93,4.75c0,0.88-0.01,54.18-0.02,75.5c0,3.68,0,6.41,0,7.75" class="grey" /><path d="M61,51.12c0,1.97-0.91,3.63-1.98,5.21c-7.06,10.48-19.73,23.07-30.64,28.54" class="grey" /><path d="M64.65,50.62c3.78,5.82,16.49,19.94,23.74,26.88c2.02,1.93,3.61,3.5,6.36,4.75" class="grey" /><path d="M10.46,35.58c0.79,0.79,1.25,2.27,1.43,3.67c0.57,4.36,1.33,11.99,2.07,18.99c0.17,1.56,0.33,3.09,0.49,4.54" class="stroke" stroke-dasharray="150"><animate attributeName="stroke-dashoffset" from="150" to="0" dur="1.8s" begin="0s" fill="freeze" /></path><path d="M12.64,37.37c4.54-0.72,13.77-2.2,18.75-2.73c3.08-0.32,4.74,1.14,4.01,4.27c-1.06,4.55-2.56,11.44-3.57,17.68" class="stroke" stroke-dasharray="150"><set attributeName="opacity" to="0" dur="1.0s" /><animate attributeName="stroke-dashoffset" from="150" to="0" dur="1.8s" begin="1.0s" fill="freeze" /></path><path d="M14.17,58.88c3.12,0,10.34-0.95,15.96-1.42c1.54-0.13,2.95-0.22,4.13-0.25" class="stroke" stroke-dasharray="150"><set attributeName="opacity" to="0" dur="2.1s" /><animate attributeName="stroke-dashoffset" from="150" to="0" dur="1.8s" begin="2.1s" fill="freeze" /></path><path d="M45.31,32.77c1.8,0.63,4.34,0.76,6.2,0.59c7.33-0.64,16.7-2.27,24.62-3.07c1.82-0.18,4.04-0.33,5.84,0.05" class="stroke" stroke-dasharray="150"><set attributeName="opacity" to="0" dur="3.1s" /><animate attributeName="stroke-dashoffset" from="150" to="0" dur="1.8s" begin="3.1s" fill="freeze" /></path><path d="M40.13,51.5c2.36,0.73,5.09,0.73,7.5,0.38c8.62-1.26,23.37-3.03,36.12-4.3c2.47-0.25,5.16-0.29,7.63,0.17" class="stroke" stroke-dasharray="150"><set attributeName="opacity" to="0" dur="4.1s" /><animate attributeName="stroke-dashoffset" from="150" to="0" dur="1.8s" begin="4.1s" fill="freeze" /></path><path d="M61.68,11.5c1.41,1.41,1.93,3.25,1.93,4.75c0,0.88-0.01,54.18-0.02,75.5c0,3.68,0,6.41,0,7.75" class="stroke" stroke-dasharray="150"><set attributeName="opacity" to="0" dur="5.3999999999999995s" /><animate attributeName="stroke-dashoffset" from="150" to="0" dur="1.8s" begin="5.3999999999999995s" fill="freeze" /></path><path d="M61,51.12c0,1.97-0.91,3.63-1.98,5.21c-7.06,10.48-19.73,23.07-30.64,28.54" class="stroke" stroke-dasharray="150"><set attributeName="opacity" to="0" dur="7.1s" /><animate attributeName="stroke-dashoffset" from="150" to="0" dur="1.8s" begin="7.1s" fill="freeze" /></path><path d="M64.65,50.62c3.78,5.82,16.49,19.94,23.74,26.88c2.02,1.93,3.61,3.5,6.36,4.75" class="stroke" stroke-dasharray="150"><set attributeName="opacity" to="0" dur="8.299999999999999s" /><animate attributeName="stroke-dashoffset" from="150" to="0" dur="1.8s" begin="8.299999999999999s" fill="freeze" /></path><text x="90" y="120" id="reset">⟳</text><text x="70" y="120" id="pause">◼</text><script type="text/javascript"><![CDATA[function RecurringTimer(e,t){var n,r,i=t;this.pause=function(){window.clearTimeout(n);i-=new Date-r};var s=function(){r=new Date;n=window.setTimeout(function(){i=t;s();e()},i)};this.clear=function(){window.clearTimeout(n);i=t;n=window.setTimeout(function(){i=t;s();e()},i)};this.resume=s;this.resume()}function invoketimer(){timer=new RecurringTimer(function(){svg.setCurrentTime(0)},10399)}var svg=document.getElementById("kanjivg");var pause=document.getElementById("pause");var reset=document.getElementById("reset");var timer;invoketimer();reset.onclick=function(){svg.setCurrentTime(0);timer.clear();svg.unpauseAnimations();pause.innerHTML = "◼";};pause.onclick=function(){if(svg.animationsPaused()){svg.unpauseAnimations();timer.resume();pause.innerHTML="◼"}else{svg.pauseAnimations();timer.pause();pause.innerHTML="▶"}}]]></script></svg>