<svg id="kanjivg" width="106" height="126" xmlns="http://www.w3.org/2000/svg" xmlns:xlink="http://www.w3.org/1999/xlink" xml:space="preserve" version="1.1" baseProfile="full"><defs><style type="text/css"><![CDATA[path.black { fill:none;stroke:black;stroke-width:5;stroke-linecap:round;stroke-linejoin:round; }path.grey { fill:none;stroke:#ddd;stroke-width:5;stroke-linecap:round;stroke-linejoin:round; }path.stroke { fill:none;stroke:black;stroke-width:5;stroke-linecap:round;stroke-linejoin:round; }rect { fill:none;stroke:#555;stroke-width:2;} text{font-size:16px;font-family:Segoe UI Symbol,Cambria Math,DejaVu Sans,Symbola,Quivira,STIX,Code2000;-webkit-touch-callout:none;cursor:pointer;-webkit-user-select:none;-khtml-user-select:none;-moz-user-select:none;-ms-user-select:none;user-select: none;} #reset { font-weight:bold; }]]></style><marker id="markerStart" markerWidth="8" markerHeight="8" style="overflow:visible;"><circle cx="0" cy="0" r="1.5" style="stroke:none;fill:red;fill-opacity:0.5;"/></marker><marker id="markerEnd" style="overflow:visible;"><circle cx="0" cy="0" r="0.8" style="stroke:none;fill:blue;fill-opacity:0.5;"><animate attributeName="opacity" from="1" to="0" dur="3s" repeatCount="indefinite" /></circle></marker></defs><rect x="4" y="4" width="100" height="100" /><path d="M10.75,33.29c0.37,0.51,0.76,0.94,0.92,1.58C12.96,39.93,14.51,52.9,15.4,62" class="grey" /><path d="M13.08,35.22c3.17-0.97,16.05-2.56,20.42-3.23c1.6-0.24,2.56,1.44,2.33,2.87c-0.95,5.92-3.05,12.57-4.46,20.75" class="grey" /><path d="M15.57,58.55c5.14-0.75,11.33-1.05,18.39-2.21" class="grey" /><path d="M49.96,16.59c0.59,1.03,0.98,2.05,1.18,3.06c0.2,1.01,0.43,69.08,0.36,71.31" class="grey" /><path d="M52.3,17.73c2.27-0.1,24.12-2.98,25.81-3.16c3.03-0.31,4.18,3.51,3.81,4.98c-0.36,1.41-0.18,48.21-0.29,68.39" class="grey" /><path d="M52.38,40.4c4.82-0.62,9.65-1.15,14.49-1.63c1.31-0.13,2.62-0.26,3.89-0.37" class="grey" /><path d="M52.84,63.86c4.44-0.26,8.87-0.68,13.31-1.02c1.3-0.1,2.61-0.2,3.89-0.29" class="grey" /><path d="M33.54,92.29c1.42,0.53,4.04,0.61,5.46,0.53c14.83-0.88,42.21-3.54,57.14-3.54c2.38,0,3.8,0.25,4.99,0.51" class="grey" /><path d="M10.75,33.29c0.37,0.51,0.76,0.94,0.92,1.58C12.96,39.93,14.51,52.9,15.4,62" class="stroke" stroke-dasharray="150"><animate attributeName="stroke-dashoffset" from="150" to="0" dur="1.8s" begin="0s" fill="freeze" /></path><path d="M13.08,35.22c3.17-0.97,16.05-2.56,20.42-3.23c1.6-0.24,2.56,1.44,2.33,2.87c-0.95,5.92-3.05,12.57-4.46,20.75" class="stroke" stroke-dasharray="150"><set attributeName="opacity" to="0" dur="1.0s" /><animate attributeName="stroke-dashoffset" from="150" to="0" dur="1.8s" begin="1.0s" fill="freeze" /></path><path d="M15.57,58.55c5.14-0.75,11.33-1.05,18.39-2.21" class="stroke" stroke-dasharray="150"><set attributeName="opacity" to="0" dur="2.2s" /><animate attributeName="stroke-dashoffset" from="150" to="0" dur="1.8s" begin="2.2s" fill="freeze" /></path><path d="M49.96,16.59c0.59,1.03,0.98,2.05,1.18,3.06c0.2,1.01,0.43,69.08,0.36,71.31" class="stroke" stroke-dasharray="150"><set attributeName="opacity" to="0" dur="3.1s" /><animate attributeName="stroke-dashoffset" from="150" to="0" dur="1.8s" begin="3.1s" fill="freeze" /></path><path d="M52.3,17.73c2.27-0.1,24.12-2.98,25.81-3.16c3.03-0.31,4.18,3.51,3.81,4.98c-0.36,1.41-0.18,48.21-0.29,68.39" class="stroke" stroke-dasharray="150"><set attributeName="opacity" to="0" dur="4.8s" /><animate attributeName="stroke-dashoffset" from="150" to="0" dur="1.8s" begin="4.8s" fill="freeze" /></path><path d="M52.38,40.4c4.82-0.62,9.65-1.15,14.49-1.63c1.31-0.13,2.62-0.26,3.89-0.37" class="stroke" stroke-dasharray="150"><set attributeName="opacity" to="0" dur="6.699999999999999s" /><animate attributeName="stroke-dashoffset" from="150" to="0" dur="1.8s" begin="6.699999999999999s" fill="freeze" /></path><path d="M52.84,63.86c4.44-0.26,8.87-0.68,13.31-1.02c1.3-0.1,2.61-0.2,3.89-0.29" class="stroke" stroke-dasharray="150"><set attributeName="opacity" to="0" dur="7.6s" /><animate attributeName="stroke-dashoffset" from="150" to="0" dur="1.8s" begin="7.6s" fill="freeze" /></path><path d="M33.54,92.29c1.42,0.53,4.04,0.61,5.46,0.53c14.83-0.88,42.21-3.54,57.14-3.54c2.38,0,3.8,0.25,4.99,0.51" class="stroke" stroke-dasharray="150"><set attributeName="opacity" to="0" dur="8.5s" /><animate attributeName="stroke-dashoffset" from="150" to="0" dur="1.8s" begin="8.5s" fill="freeze" /></path><text x="90" y="120" id="reset">⟳</text><text x="70" y="120" id="pause">◼</text><script type="text/javascript"><![CDATA[function RecurringTimer(e,t){var n,r,i=t;this.pause=function(){window.clearTimeout(n);i-=new Date-r};var s=function(){r=new Date;n=window.setTimeout(function(){i=t;s();e()},i)};this.clear=function(){window.clearTimeout(n);i=t;n=window.setTimeout(function(){i=t;s();e()},i)};this.resume=s;this.resume()}function invoketimer(){timer=new RecurringTimer(function(){svg.setCurrentTime(0)},11000)}var svg=document.getElementById("kanjivg");var pause=document.getElementById("pause");var reset=document.getElementById("reset");var timer;invoketimer();reset.onclick=function(){svg.setCurrentTime(0);timer.clear();svg.unpauseAnimations();pause.innerHTML = "◼";};pause.onclick=function(){if(svg.animationsPaused()){svg.unpauseAnimations();timer.resume();pause.innerHTML="◼"}else{svg.pauseAnimations();timer.pause();pause.innerHTML="▶"}}]]></script></svg>