<svg id="kanjivg" width="106" height="126" xmlns="http://www.w3.org/2000/svg" xmlns:xlink="http://www.w3.org/1999/xlink" xml:space="preserve" version="1.1" baseProfile="full"><defs><style type="text/css"><![CDATA[path.black { fill:none;stroke:black;stroke-width:5;stroke-linecap:round;stroke-linejoin:round; }path.grey { fill:none;stroke:#ddd;stroke-width:5;stroke-linecap:round;stroke-linejoin:round; }path.stroke { fill:none;stroke:black;stroke-width:5;stroke-linecap:round;stroke-linejoin:round; }rect { fill:none;stroke:#555;stroke-width:2;} text{font-size:16px;font-family:Segoe UI Symbol,Cambria Math,DejaVu Sans,Symbola,Quivira,STIX,Code2000;-webkit-touch-callout:none;cursor:pointer;-webkit-user-select:none;-khtml-user-select:none;-moz-user-select:none;-ms-user-select:none;user-select: none;} #reset { font-weight:bold; }]]></style><marker id="markerStart" markerWidth="8" markerHeight="8" style="overflow:visible;"><circle cx="0" cy="0" r="1.5" style="stroke:none;fill:red;fill-opacity:0.5;"/></marker><marker id="markerEnd" style="overflow:visible;"><circle cx="0" cy="0" r="0.8" style="stroke:none;fill:blue;fill-opacity:0.5;"><animate attributeName="opacity" from="1" to="0" dur="3s" repeatCount="indefinite" /></circle></marker></defs><rect x="4" y="4" width="100" height="100" /><path d="M10.25,33.29c0.37,0.51,0.76,0.94,0.92,1.58C12.46,39.93,14.51,53.9,15.4,63" class="grey" /><path d="M11.58,35.72c9.42-2.22,17.05-4.06,21.42-4.73c1.6-0.24,2.56,1.44,2.33,2.87c-0.98,6.11-2.58,14.7-3.96,22.75" class="grey" /><path d="M15.07,59.05c5.14-0.75,11.33-1.05,18.39-2.21" class="grey" /><path d="M57.6,13c0.05,0.82,0.27,2.18-0.1,3.29c-2.44,7.25-9.05,20.86-18.14,31.44" class="grey" /><path d="M54.49,29.18c0.98,0.61,2.85,0.82,4.42,0.41s27.09-4.28,30.99-4.64c1.85-0.17,3.99,1.12,3.87,3.41C93,42,90.75,57,86.17,72.07c-2.09,6.88-4.96,3.03-7.27,0.48" class="grey" /><path d="M48.03,45.74c1.28,0.94,2.37,0.94,4.25,0.63c3.81-0.63,18.64-3.27,19.8-3.39c1.54-0.16,2.75,1.03,2.2,3.47c-0.16,0.73-1.28,7.05-3.12,13.53" class="grey" /><path d="M52.24,62.85c4.12-0.45,15.57-1.79,21.43-2.18" class="grey" /><path d="M50.52,46.52c0.9,1.16,1.12,1.5,1.11,3.3c-0.03,5.74,0.15,28.84,0.15,33.86c0,10.9,2.64,12.26,25.45,12.26c19.06,0,21.4-3.25,21.4-13.65" class="grey" /><path d="M10.25,33.29c0.37,0.51,0.76,0.94,0.92,1.58C12.46,39.93,14.51,53.9,15.4,63" class="stroke" stroke-dasharray="150"><animate attributeName="stroke-dashoffset" from="150" to="0" dur="1.8s" begin="0s" fill="freeze" /></path><path d="M11.58,35.72c9.42-2.22,17.05-4.06,21.42-4.73c1.6-0.24,2.56,1.44,2.33,2.87c-0.98,6.11-2.58,14.7-3.96,22.75" class="stroke" stroke-dasharray="150"><set attributeName="opacity" to="0" dur="1.0s" /><animate attributeName="stroke-dashoffset" from="150" to="0" dur="1.8s" begin="1.0s" fill="freeze" /></path><path d="M15.07,59.05c5.14-0.75,11.33-1.05,18.39-2.21" class="stroke" stroke-dasharray="150"><set attributeName="opacity" to="0" dur="2.2s" /><animate attributeName="stroke-dashoffset" from="150" to="0" dur="1.8s" begin="2.2s" fill="freeze" /></path><path d="M57.6,13c0.05,0.82,0.27,2.18-0.1,3.29c-2.44,7.25-9.05,20.86-18.14,31.44" class="stroke" stroke-dasharray="150"><set attributeName="opacity" to="0" dur="3.1s" /><animate attributeName="stroke-dashoffset" from="150" to="0" dur="1.8s" begin="3.1s" fill="freeze" /></path><path d="M54.49,29.18c0.98,0.61,2.85,0.82,4.42,0.41s27.09-4.28,30.99-4.64c1.85-0.17,3.99,1.12,3.87,3.41C93,42,90.75,57,86.17,72.07c-2.09,6.88-4.96,3.03-7.27,0.48" class="stroke" stroke-dasharray="150"><set attributeName="opacity" to="0" dur="4.1s" /><animate attributeName="stroke-dashoffset" from="150" to="0" dur="1.8s" begin="4.1s" fill="freeze" /></path><path d="M48.03,45.74c1.28,0.94,2.37,0.94,4.25,0.63c3.81-0.63,18.64-3.27,19.8-3.39c1.54-0.16,2.75,1.03,2.2,3.47c-0.16,0.73-1.28,7.05-3.12,13.53" class="stroke" stroke-dasharray="150"><set attributeName="opacity" to="0" dur="5.8999999999999995s" /><animate attributeName="stroke-dashoffset" from="150" to="0" dur="1.8s" begin="5.8999999999999995s" fill="freeze" /></path><path d="M52.24,62.85c4.12-0.45,15.57-1.79,21.43-2.18" class="stroke" stroke-dasharray="150"><set attributeName="opacity" to="0" dur="7.0s" /><animate attributeName="stroke-dashoffset" from="150" to="0" dur="1.8s" begin="7.0s" fill="freeze" /></path><path d="M50.52,46.52c0.9,1.16,1.12,1.5,1.11,3.3c-0.03,5.74,0.15,28.84,0.15,33.86c0,10.9,2.64,12.26,25.45,12.26c19.06,0,21.4-3.25,21.4-13.65" class="stroke" stroke-dasharray="150"><set attributeName="opacity" to="0" dur="8.0s" /><animate attributeName="stroke-dashoffset" from="150" to="0" dur="1.8s" begin="8.0s" fill="freeze" /></path><text x="90" y="120" id="reset">⟳</text><text x="70" y="120" id="pause">◼</text><script type="text/javascript"><![CDATA[function RecurringTimer(e,t){var n,r,i=t;this.pause=function(){window.clearTimeout(n);i-=new Date-r};var s=function(){r=new Date;n=window.setTimeout(function(){i=t;s();e()},i)};this.clear=function(){window.clearTimeout(n);i=t;n=window.setTimeout(function(){i=t;s();e()},i)};this.resume=s;this.resume()}function invoketimer(){timer=new RecurringTimer(function(){svg.setCurrentTime(0)},10900)}var svg=document.getElementById("kanjivg");var pause=document.getElementById("pause");var reset=document.getElementById("reset");var timer;invoketimer();reset.onclick=function(){svg.setCurrentTime(0);timer.clear();svg.unpauseAnimations();pause.innerHTML = "◼";};pause.onclick=function(){if(svg.animationsPaused()){svg.unpauseAnimations();timer.resume();pause.innerHTML="◼"}else{svg.pauseAnimations();timer.pause();pause.innerHTML="▶"}}]]></script></svg>