<svg id="kanjivg" width="106" height="126" xmlns="http://www.w3.org/2000/svg" xmlns:xlink="http://www.w3.org/1999/xlink" xml:space="preserve" version="1.1" baseProfile="full"><defs><style type="text/css"><![CDATA[path.black { fill:none;stroke:black;stroke-width:5;stroke-linecap:round;stroke-linejoin:round; }path.grey { fill:none;stroke:#ddd;stroke-width:5;stroke-linecap:round;stroke-linejoin:round; }path.stroke { fill:none;stroke:black;stroke-width:5;stroke-linecap:round;stroke-linejoin:round; }rect { fill:none;stroke:#555;stroke-width:2;} text{font-size:16px;font-family:Segoe UI Symbol,Cambria Math,DejaVu Sans,Symbola,Quivira,STIX,Code2000;-webkit-touch-callout:none;cursor:pointer;-webkit-user-select:none;-khtml-user-select:none;-moz-user-select:none;-ms-user-select:none;user-select: none;} #reset { font-weight:bold; }]]></style><marker id="markerStart" markerWidth="8" markerHeight="8" style="overflow:visible;"><circle cx="0" cy="0" r="1.5" style="stroke:none;fill:red;fill-opacity:0.5;"/></marker><marker id="markerEnd" style="overflow:visible;"><circle cx="0" cy="0" r="0.8" style="stroke:none;fill:blue;fill-opacity:0.5;"><animate attributeName="opacity" from="1" to="0" dur="3s" repeatCount="indefinite" /></circle></marker></defs><rect x="4" y="4" width="100" height="100" /><path d="M10.25,34.38c0.33,0.45,0.67,0.83,0.81,1.4c1.15,4.49,3.02,17.86,3.8,25.92" class="grey" /><path d="M12.31,36.54c8.35-1.97,13.83-3.16,17.7-3.75c1.42-0.22,2.27,1.28,2.06,2.54c-0.84,5.24-1.82,12.35-3.07,19.59" class="grey" /><path d="M15.02,58.03c4.55-0.67,10.04-1.43,16.29-2.46" class="grey" /><path d="M53.62,16.77c0.18,1.93-0.05,4.46-0.64,6.11c-3.76,10.54-8.89,23.8-17.51,36.63" class="grey" /><path d="M46.69,44.35c0.38,1.04,1.02,3.21,1.02,4.66c0,13.74-0.44,34.99-0.44,43.85" class="grey" /><path d="M55.09,41.25c1.17,0.79,3.31,0.5,4.49,0.29c8.17-1.45,22.58-3.68,33.73-4.63c1.95-0.17,3.12-0.12,4.1,0.28" class="grey" /><path d="M81.58,13.43c1.17,1.32,1.7,2.27,1.78,6.26c0.41,19.16-0.26,63.23-0.26,69.75c0,12.22-6.65,2.35-8.89,0.33" class="grey" /><path d="M62.51,55.15c2.93,2.27,7.58,9.34,8.32,12.87" class="grey" /><path d="M10.25,34.38c0.33,0.45,0.67,0.83,0.81,1.4c1.15,4.49,3.02,17.86,3.8,25.92" class="stroke" stroke-dasharray="150"><animate attributeName="stroke-dashoffset" from="150" to="0" dur="1.8s" begin="0s" fill="freeze" /></path><path d="M12.31,36.54c8.35-1.97,13.83-3.16,17.7-3.75c1.42-0.22,2.27,1.28,2.06,2.54c-0.84,5.24-1.82,12.35-3.07,19.59" class="stroke" stroke-dasharray="150"><set attributeName="opacity" to="0" dur="1.0s" /><animate attributeName="stroke-dashoffset" from="150" to="0" dur="1.8s" begin="1.0s" fill="freeze" /></path><path d="M15.02,58.03c4.55-0.67,10.04-1.43,16.29-2.46" class="stroke" stroke-dasharray="150"><set attributeName="opacity" to="0" dur="2.1s" /><animate attributeName="stroke-dashoffset" from="150" to="0" dur="1.8s" begin="2.1s" fill="freeze" /></path><path d="M53.62,16.77c0.18,1.93-0.05,4.46-0.64,6.11c-3.76,10.54-8.89,23.8-17.51,36.63" class="stroke" stroke-dasharray="150"><set attributeName="opacity" to="0" dur="3.0s" /><animate attributeName="stroke-dashoffset" from="150" to="0" dur="1.8s" begin="3.0s" fill="freeze" /></path><path d="M46.69,44.35c0.38,1.04,1.02,3.21,1.02,4.66c0,13.74-0.44,34.99-0.44,43.85" class="stroke" stroke-dasharray="150"><set attributeName="opacity" to="0" dur="4.2s" /><animate attributeName="stroke-dashoffset" from="150" to="0" dur="1.8s" begin="4.2s" fill="freeze" /></path><path d="M55.09,41.25c1.17,0.79,3.31,0.5,4.49,0.29c8.17-1.45,22.58-3.68,33.73-4.63c1.95-0.17,3.12-0.12,4.1,0.28" class="stroke" stroke-dasharray="150"><set attributeName="opacity" to="0" dur="5.4s" /><animate attributeName="stroke-dashoffset" from="150" to="0" dur="1.8s" begin="5.4s" fill="freeze" /></path><path d="M81.58,13.43c1.17,1.32,1.7,2.27,1.78,6.26c0.41,19.16-0.26,63.23-0.26,69.75c0,12.22-6.65,2.35-8.89,0.33" class="stroke" stroke-dasharray="150"><set attributeName="opacity" to="0" dur="6.5s" /><animate attributeName="stroke-dashoffset" from="150" to="0" dur="1.8s" begin="6.5s" fill="freeze" /></path><path d="M62.51,55.15c2.93,2.27,7.58,9.34,8.32,12.87" class="stroke" stroke-dasharray="150"><set attributeName="opacity" to="0" dur="8.3s" /><animate attributeName="stroke-dashoffset" from="150" to="0" dur="1.8s" begin="8.3s" fill="freeze" /></path><text x="90" y="120" id="reset">⟳</text><text x="70" y="120" id="pause">◼</text><script type="text/javascript"><![CDATA[function RecurringTimer(e,t){var n,r,i=t;this.pause=function(){window.clearTimeout(n);i-=new Date-r};var s=function(){r=new Date;n=window.setTimeout(function(){i=t;s();e()},i)};this.clear=function(){window.clearTimeout(n);i=t;n=window.setTimeout(function(){i=t;s();e()},i)};this.resume=s;this.resume()}function invoketimer(){timer=new RecurringTimer(function(){svg.setCurrentTime(0)},10200)}var svg=document.getElementById("kanjivg");var pause=document.getElementById("pause");var reset=document.getElementById("reset");var timer;invoketimer();reset.onclick=function(){svg.setCurrentTime(0);timer.clear();svg.unpauseAnimations();pause.innerHTML = "◼";};pause.onclick=function(){if(svg.animationsPaused()){svg.unpauseAnimations();timer.resume();pause.innerHTML="◼"}else{svg.pauseAnimations();timer.pause();pause.innerHTML="▶"}}]]></script></svg>