<svg id="kanjivg" width="106" height="126" xmlns="http://www.w3.org/2000/svg" xmlns:xlink="http://www.w3.org/1999/xlink" xml:space="preserve" version="1.1" baseProfile="full"><defs><style type="text/css"><![CDATA[path.black { fill:none;stroke:black;stroke-width:5;stroke-linecap:round;stroke-linejoin:round; }path.grey { fill:none;stroke:#ddd;stroke-width:5;stroke-linecap:round;stroke-linejoin:round; }path.stroke { fill:none;stroke:black;stroke-width:5;stroke-linecap:round;stroke-linejoin:round; }rect { fill:none;stroke:#555;stroke-width:2;} text{font-size:16px;font-family:Segoe UI Symbol,Cambria Math,DejaVu Sans,Symbola,Quivira,STIX,Code2000;-webkit-touch-callout:none;cursor:pointer;-webkit-user-select:none;-khtml-user-select:none;-moz-user-select:none;-ms-user-select:none;user-select: none;} #reset { font-weight:bold; }]]></style><marker id="markerStart" markerWidth="8" markerHeight="8" style="overflow:visible;"><circle cx="0" cy="0" r="1.5" style="stroke:none;fill:red;fill-opacity:0.5;"/></marker><marker id="markerEnd" style="overflow:visible;"><circle cx="0" cy="0" r="0.8" style="stroke:none;fill:blue;fill-opacity:0.5;"><animate attributeName="opacity" from="1" to="0" dur="3s" repeatCount="indefinite" /></circle></marker></defs><rect x="4" y="4" width="100" height="100" /><path d="M21.25,15.64c0.39,0.39,0.79,0.72,0.96,1.21c1.35,3.9,2.97,12.65,3.89,19.65" class="grey" /><path d="M23.68,17.78c8.57-1.53,17.66-2.78,22.22-3.29c1.67-0.19,2.67,1.11,2.43,2.21c-0.99,4.55-2.14,8.55-3.61,14.85" class="grey" /><path d="M26.28,34.58C31.64,34,39.02,33,46.38,32.11" class="grey" /><path d="M58.25,14.14c0.42,0.39,0.85,0.72,1.04,1.21c1.46,3.9,2.21,12.15,3.21,19.15" class="grey" /><path d="M60.38,15.28C70.75,13.75,79,13,83.94,12.49c1.8-0.19,2.89,1.11,2.63,2.21c-1.07,4.55-2.32,9.55-3.91,15.85" class="grey" /><path d="M62.7,32.08c5.8-0.58,12.55-0.83,21.77-1.47" class="grey" /><path d="M38.83,46c0.92,1.25,1.28,1.56,1.28,4.06c0,22.77-2.62,37.69-22.62,47.69" class="grey" /><path d="M40.5,48c3.75-0.75,20-2.75,23-3.5s6.25,0.75,5.5,4.5s-0.5,35-0.5,37.75c0,5,1.75,8.25,13.25,8.25c13.75,0,14-2,14-9.75" class="grey" /><path d="M21.25,15.64c0.39,0.39,0.79,0.72,0.96,1.21c1.35,3.9,2.97,12.65,3.89,19.65" class="stroke" stroke-dasharray="150"><animate attributeName="stroke-dashoffset" from="150" to="0" dur="1.8s" begin="0s" fill="freeze" /></path><path d="M23.68,17.78c8.57-1.53,17.66-2.78,22.22-3.29c1.67-0.19,2.67,1.11,2.43,2.21c-0.99,4.55-2.14,8.55-3.61,14.85" class="stroke" stroke-dasharray="150"><set attributeName="opacity" to="0" dur="1.0s" /><animate attributeName="stroke-dashoffset" from="150" to="0" dur="1.8s" begin="1.0s" fill="freeze" /></path><path d="M26.28,34.58C31.64,34,39.02,33,46.38,32.11" class="stroke" stroke-dasharray="150"><set attributeName="opacity" to="0" dur="2.1s" /><animate attributeName="stroke-dashoffset" from="150" to="0" dur="1.8s" begin="2.1s" fill="freeze" /></path><path d="M58.25,14.14c0.42,0.39,0.85,0.72,1.04,1.21c1.46,3.9,2.21,12.15,3.21,19.15" class="stroke" stroke-dasharray="150"><set attributeName="opacity" to="0" dur="3.1s" /><animate attributeName="stroke-dashoffset" from="150" to="0" dur="1.8s" begin="3.1s" fill="freeze" /></path><path d="M60.38,15.28C70.75,13.75,79,13,83.94,12.49c1.8-0.19,2.89,1.11,2.63,2.21c-1.07,4.55-2.32,9.55-3.91,15.85" class="stroke" stroke-dasharray="150"><set attributeName="opacity" to="0" dur="4.1s" /><animate attributeName="stroke-dashoffset" from="150" to="0" dur="1.8s" begin="4.1s" fill="freeze" /></path><path d="M62.7,32.08c5.8-0.58,12.55-0.83,21.77-1.47" class="stroke" stroke-dasharray="150"><set attributeName="opacity" to="0" dur="5.199999999999999s" /><animate attributeName="stroke-dashoffset" from="150" to="0" dur="1.8s" begin="5.199999999999999s" fill="freeze" /></path><path d="M38.83,46c0.92,1.25,1.28,1.56,1.28,4.06c0,22.77-2.62,37.69-22.62,47.69" class="stroke" stroke-dasharray="150"><set attributeName="opacity" to="0" dur="6.199999999999999s" /><animate attributeName="stroke-dashoffset" from="150" to="0" dur="1.8s" begin="6.199999999999999s" fill="freeze" /></path><path d="M40.5,48c3.75-0.75,20-2.75,23-3.5s6.25,0.75,5.5,4.5s-0.5,35-0.5,37.75c0,5,1.75,8.25,13.25,8.25c13.75,0,14-2,14-9.75" class="stroke" stroke-dasharray="150"><set attributeName="opacity" to="0" dur="7.699999999999999s" /><animate attributeName="stroke-dashoffset" from="150" to="0" dur="1.8s" begin="7.699999999999999s" fill="freeze" /></path><text x="90" y="120" id="reset">⟳</text><text x="70" y="120" id="pause">◼</text><script type="text/javascript"><![CDATA[function RecurringTimer(e,t){var n,r,i=t;this.pause=function(){window.clearTimeout(n);i-=new Date-r};var s=function(){r=new Date;n=window.setTimeout(function(){i=t;s();e()},i)};this.clear=function(){window.clearTimeout(n);i=t;n=window.setTimeout(function(){i=t;s();e()},i)};this.resume=s;this.resume()}function invoketimer(){timer=new RecurringTimer(function(){svg.setCurrentTime(0)},10600)}var svg=document.getElementById("kanjivg");var pause=document.getElementById("pause");var reset=document.getElementById("reset");var timer;invoketimer();reset.onclick=function(){svg.setCurrentTime(0);timer.clear();svg.unpauseAnimations();pause.innerHTML = "◼";};pause.onclick=function(){if(svg.animationsPaused()){svg.unpauseAnimations();timer.resume();pause.innerHTML="◼"}else{svg.pauseAnimations();timer.pause();pause.innerHTML="▶"}}]]></script></svg>