<svg id="kanjivg" width="106" height="126" xmlns="http://www.w3.org/2000/svg" xmlns:xlink="http://www.w3.org/1999/xlink" xml:space="preserve" version="1.1" baseProfile="full"><defs><style type="text/css"><![CDATA[path.black { fill:none;stroke:black;stroke-width:5;stroke-linecap:round;stroke-linejoin:round; }path.grey { fill:none;stroke:#ddd;stroke-width:5;stroke-linecap:round;stroke-linejoin:round; }path.stroke { fill:none;stroke:black;stroke-width:5;stroke-linecap:round;stroke-linejoin:round; }rect { fill:none;stroke:#555;stroke-width:2;} text{font-size:16px;font-family:Segoe UI Symbol,Cambria Math,DejaVu Sans,Symbola,Quivira,STIX,Code2000;-webkit-touch-callout:none;cursor:pointer;-webkit-user-select:none;-khtml-user-select:none;-moz-user-select:none;-ms-user-select:none;user-select: none;} #reset { font-weight:bold; }]]></style><marker id="markerStart" markerWidth="8" markerHeight="8" style="overflow:visible;"><circle cx="0" cy="0" r="1.5" style="stroke:none;fill:red;fill-opacity:0.5;"/></marker><marker id="markerEnd" style="overflow:visible;"><circle cx="0" cy="0" r="0.8" style="stroke:none;fill:blue;fill-opacity:0.5;"><animate attributeName="opacity" from="1" to="0" dur="3s" repeatCount="indefinite" /></circle></marker></defs><rect x="4" y="4" width="100" height="100" /><path d="M13.25,28.71c0.81,1.18,1.07,2.27,1.34,3.67c1.03,5.33,2.28,15.07,3.06,23.11c0.17,1.76,0.33,3.45,0.47,5.01" class="grey" /><path d="M15.31,31.11c8.35-1.6,15.19-2.42,19.71-3.06c3.06-0.44,4.69,0.21,4.17,3.61c-0.95,6.23-2.22,14.14-3.56,22.44" class="grey" /><path d="M19.05,57.28c6-0.65,8.5-1.03,14.46-1.73c1.2-0.14,2.5-0.28,3.96-0.43" class="grey" /><path d="M51.08,15.08c1.04,1.04,1.35,2.38,1.35,4.2c0,1.51-0.05,34.29-0.05,49.79c0,3.06-0.01,4.62-0.01,6.69" class="grey" /><path d="M53.35,16.66c3.11-0.23,25.69-2.34,28.53-2.61c2.36-0.23,3.62,1.25,3.62,2.95c0,3.27,0.01,43.62,0.01,50.26c0,3.9-0.01,6.58-0.01,6.87" class="grey" /><path d="M53.75,35.38c5.46-0.48,25.92-2.46,30.61-2.46" class="grey" /><path d="M53.5,52.84c8.78-1,21.59-1.78,30.89-1.98" class="grey" /><path d="M53.6,72.12c8.78-0.75,22.54-1.73,30.55-1.73" class="grey" /><path d="M59.31,79.24c0.07,1.14-0.51,2.27-1.75,3.29C53.81,85.59,44,92.5,35.75,95.75" class="grey" /><path d="M75.89,79.73C83.47,84.21,90.75,90.88,94.25,96" class="grey" /><path d="M13.25,28.71c0.81,1.18,1.07,2.27,1.34,3.67c1.03,5.33,2.28,15.07,3.06,23.11c0.17,1.76,0.33,3.45,0.47,5.01" class="stroke" stroke-dasharray="150"><animate attributeName="stroke-dashoffset" from="150" to="0" dur="1.8s" begin="0s" fill="freeze" /></path><path d="M15.31,31.11c8.35-1.6,15.19-2.42,19.71-3.06c3.06-0.44,4.69,0.21,4.17,3.61c-0.95,6.23-2.22,14.14-3.56,22.44" class="stroke" stroke-dasharray="150"><set attributeName="opacity" to="0" dur="1.0s" /><animate attributeName="stroke-dashoffset" from="150" to="0" dur="1.8s" begin="1.0s" fill="freeze" /></path><path d="M19.05,57.28c6-0.65,8.5-1.03,14.46-1.73c1.2-0.14,2.5-0.28,3.96-0.43" class="stroke" stroke-dasharray="150"><set attributeName="opacity" to="0" dur="2.2s" /><animate attributeName="stroke-dashoffset" from="150" to="0" dur="1.8s" begin="2.2s" fill="freeze" /></path><path d="M51.08,15.08c1.04,1.04,1.35,2.38,1.35,4.2c0,1.51-0.05,34.29-0.05,49.79c0,3.06-0.01,4.62-0.01,6.69" class="stroke" stroke-dasharray="150"><set attributeName="opacity" to="0" dur="3.1s" /><animate attributeName="stroke-dashoffset" from="150" to="0" dur="1.8s" begin="3.1s" fill="freeze" /></path><path d="M53.35,16.66c3.11-0.23,25.69-2.34,28.53-2.61c2.36-0.23,3.62,1.25,3.62,2.95c0,3.27,0.01,43.62,0.01,50.26c0,3.9-0.01,6.58-0.01,6.87" class="stroke" stroke-dasharray="150"><set attributeName="opacity" to="0" dur="4.6s" /><animate attributeName="stroke-dashoffset" from="150" to="0" dur="1.8s" begin="4.6s" fill="freeze" /></path><path d="M53.75,35.38c5.46-0.48,25.92-2.46,30.61-2.46" class="stroke" stroke-dasharray="150"><set attributeName="opacity" to="0" dur="6.3999999999999995s" /><animate attributeName="stroke-dashoffset" from="150" to="0" dur="1.8s" begin="6.3999999999999995s" fill="freeze" /></path><path d="M53.5,52.84c8.78-1,21.59-1.78,30.89-1.98" class="stroke" stroke-dasharray="150"><set attributeName="opacity" to="0" dur="7.3999999999999995s" /><animate attributeName="stroke-dashoffset" from="150" to="0" dur="1.8s" begin="7.3999999999999995s" fill="freeze" /></path><path d="M53.6,72.12c8.78-0.75,22.54-1.73,30.55-1.73" class="stroke" stroke-dasharray="150"><set attributeName="opacity" to="0" dur="8.399999999999999s" /><animate attributeName="stroke-dashoffset" from="150" to="0" dur="1.8s" begin="8.399999999999999s" fill="freeze" /></path><path d="M59.31,79.24c0.07,1.14-0.51,2.27-1.75,3.29C53.81,85.59,44,92.5,35.75,95.75" class="stroke" stroke-dasharray="150"><set attributeName="opacity" to="0" dur="9.399999999999999s" /><animate attributeName="stroke-dashoffset" from="150" to="0" dur="1.8s" begin="9.399999999999999s" fill="freeze" /></path><path d="M75.89,79.73C83.47,84.21,90.75,90.88,94.25,96" class="stroke" stroke-dasharray="150"><set attributeName="opacity" to="0" dur="10.399999999999999s" /><animate attributeName="stroke-dashoffset" from="150" to="0" dur="1.8s" begin="10.399999999999999s" fill="freeze" /></path><text x="90" y="120" id="reset">⟳</text><text x="70" y="120" id="pause">◼</text><script type="text/javascript"><![CDATA[function RecurringTimer(e,t){var n,r,i=t;this.pause=function(){window.clearTimeout(n);i-=new Date-r};var s=function(){r=new Date;n=window.setTimeout(function(){i=t;s();e()},i)};this.clear=function(){window.clearTimeout(n);i=t;n=window.setTimeout(function(){i=t;s();e()},i)};this.resume=s;this.resume()}function invoketimer(){timer=new RecurringTimer(function(){svg.setCurrentTime(0)},12399)}var svg=document.getElementById("kanjivg");var pause=document.getElementById("pause");var reset=document.getElementById("reset");var timer;invoketimer();reset.onclick=function(){svg.setCurrentTime(0);timer.clear();svg.unpauseAnimations();pause.innerHTML = "◼";};pause.onclick=function(){if(svg.animationsPaused()){svg.unpauseAnimations();timer.resume();pause.innerHTML="◼"}else{svg.pauseAnimations();timer.pause();pause.innerHTML="▶"}}]]></script></svg>