<svg id="kanjivg" width="106" height="126" xmlns="http://www.w3.org/2000/svg" xmlns:xlink="http://www.w3.org/1999/xlink" xml:space="preserve" version="1.1" baseProfile="full"><defs><style type="text/css"><![CDATA[path.black { fill:none;stroke:black;stroke-width:5;stroke-linecap:round;stroke-linejoin:round; }path.grey { fill:none;stroke:#ddd;stroke-width:5;stroke-linecap:round;stroke-linejoin:round; }path.stroke { fill:none;stroke:black;stroke-width:5;stroke-linecap:round;stroke-linejoin:round; }rect { fill:none;stroke:#555;stroke-width:2;} text{font-size:16px;font-family:Segoe UI Symbol,Cambria Math,DejaVu Sans,Symbola,Quivira,STIX,Code2000;-webkit-touch-callout:none;cursor:pointer;-webkit-user-select:none;-khtml-user-select:none;-moz-user-select:none;-ms-user-select:none;user-select: none;} #reset { font-weight:bold; }]]></style><marker id="markerStart" markerWidth="8" markerHeight="8" style="overflow:visible;"><circle cx="0" cy="0" r="1.5" style="stroke:none;fill:red;fill-opacity:0.5;"/></marker><marker id="markerEnd" style="overflow:visible;"><circle cx="0" cy="0" r="0.8" style="stroke:none;fill:blue;fill-opacity:0.5;"><animate attributeName="opacity" from="1" to="0" dur="3s" repeatCount="indefinite" /></circle></marker></defs><rect x="4" y="4" width="100" height="100" /><path d="M13.5,28.71c0.37,0.54,0.75,0.99,0.91,1.67c1.29,5.38,2.83,20.21,3.71,29.86" class="grey" /><path d="M15.31,31.36c8.94-2.11,17.34-2.91,21.69-3.61c1.59-0.26,2.54,1.53,2.32,3.05c-0.94,6.28-2.54,15.37-3.94,24.05" class="grey" /><path d="M18.3,57.53c7.2-0.78,10.45-1.53,19.17-2.41" class="grey" /><path d="M51.08,15.08c0.55,1.36,1.35,2.38,1.35,4.2c0,1.82,0.25,48.55-0.4,56.16" class="grey" /><path d="M53.35,16.66c3.11-0.23,26.32-2.14,29.16-2.41c2.36-0.23,3.62,1.25,3.62,2.95c0,4.16-0.7,55.45-0.7,56.82" class="grey" /><path d="M52.49,35.85c5.58-0.5,11.16-1.05,16.74-1.54c1.72-0.15,3.43-0.3,5.06-0.44" class="grey" /><path d="M52.75,53.09c5.36-0.61,10.74-1.04,16.12-1.42c1.47-0.1,2.95-0.2,4.42-0.29" class="grey" /><path d="M52.35,72.37c8.78-0.75,25.04-2.23,33.05-2.23" class="grey" /><path d="M58.56,78.74c0.63,1.39,0.24,2.77-1,3.79C53.81,85.59,44,92.5,35.75,95.75" class="grey" /><path d="M75.14,79.48c7.58,4.48,16.54,12.6,18.61,16.52" class="grey" /><path d="M13.5,28.71c0.37,0.54,0.75,0.99,0.91,1.67c1.29,5.38,2.83,20.21,3.71,29.86" class="stroke" stroke-dasharray="150"><animate attributeName="stroke-dashoffset" from="150" to="0" dur="1.8s" begin="0s" fill="freeze" /></path><path d="M15.31,31.36c8.94-2.11,17.34-2.91,21.69-3.61c1.59-0.26,2.54,1.53,2.32,3.05c-0.94,6.28-2.54,15.37-3.94,24.05" class="stroke" stroke-dasharray="150"><set attributeName="opacity" to="0" dur="1.0s" /><animate attributeName="stroke-dashoffset" from="150" to="0" dur="1.8s" begin="1.0s" fill="freeze" /></path><path d="M18.3,57.53c7.2-0.78,10.45-1.53,19.17-2.41" class="stroke" stroke-dasharray="150"><set attributeName="opacity" to="0" dur="2.3s" /><animate attributeName="stroke-dashoffset" from="150" to="0" dur="1.8s" begin="2.3s" fill="freeze" /></path><path d="M51.08,15.08c0.55,1.36,1.35,2.38,1.35,4.2c0,1.82,0.25,48.55-0.4,56.16" class="stroke" stroke-dasharray="150"><set attributeName="opacity" to="0" dur="3.1999999999999997s" /><animate attributeName="stroke-dashoffset" from="150" to="0" dur="1.8s" begin="3.1999999999999997s" fill="freeze" /></path><path d="M53.35,16.66c3.11-0.23,26.32-2.14,29.16-2.41c2.36-0.23,3.62,1.25,3.62,2.95c0,4.16-0.7,55.45-0.7,56.82" class="stroke" stroke-dasharray="150"><set attributeName="opacity" to="0" dur="4.699999999999999s" /><animate attributeName="stroke-dashoffset" from="150" to="0" dur="1.8s" begin="4.699999999999999s" fill="freeze" /></path><path d="M52.49,35.85c5.58-0.5,11.16-1.05,16.74-1.54c1.72-0.15,3.43-0.3,5.06-0.44" class="stroke" stroke-dasharray="150"><set attributeName="opacity" to="0" dur="6.499999999999999s" /><animate attributeName="stroke-dashoffset" from="150" to="0" dur="1.8s" begin="6.499999999999999s" fill="freeze" /></path><path d="M52.75,53.09c5.36-0.61,10.74-1.04,16.12-1.42c1.47-0.1,2.95-0.2,4.42-0.29" class="stroke" stroke-dasharray="150"><set attributeName="opacity" to="0" dur="7.499999999999999s" /><animate attributeName="stroke-dashoffset" from="150" to="0" dur="1.8s" begin="7.499999999999999s" fill="freeze" /></path><path d="M52.35,72.37c8.78-0.75,25.04-2.23,33.05-2.23" class="stroke" stroke-dasharray="150"><set attributeName="opacity" to="0" dur="8.5s" /><animate attributeName="stroke-dashoffset" from="150" to="0" dur="1.8s" begin="8.5s" fill="freeze" /></path><path d="M58.56,78.74c0.63,1.39,0.24,2.77-1,3.79C53.81,85.59,44,92.5,35.75,95.75" class="stroke" stroke-dasharray="150"><set attributeName="opacity" to="0" dur="9.5s" /><animate attributeName="stroke-dashoffset" from="150" to="0" dur="1.8s" begin="9.5s" fill="freeze" /></path><path d="M75.14,79.48c7.58,4.48,16.54,12.6,18.61,16.52" class="stroke" stroke-dasharray="150"><set attributeName="opacity" to="0" dur="10.5s" /><animate attributeName="stroke-dashoffset" from="150" to="0" dur="1.8s" begin="10.5s" fill="freeze" /></path><text x="90" y="120" id="reset">⟳</text><text x="70" y="120" id="pause">◼</text><script type="text/javascript"><![CDATA[function RecurringTimer(e,t){var n,r,i=t;this.pause=function(){window.clearTimeout(n);i-=new Date-r};var s=function(){r=new Date;n=window.setTimeout(function(){i=t;s();e()},i)};this.clear=function(){window.clearTimeout(n);i=t;n=window.setTimeout(function(){i=t;s();e()},i)};this.resume=s;this.resume()}function invoketimer(){timer=new RecurringTimer(function(){svg.setCurrentTime(0)},12500)}var svg=document.getElementById("kanjivg");var pause=document.getElementById("pause");var reset=document.getElementById("reset");var timer;invoketimer();reset.onclick=function(){svg.setCurrentTime(0);timer.clear();svg.unpauseAnimations();pause.innerHTML = "◼";};pause.onclick=function(){if(svg.animationsPaused()){svg.unpauseAnimations();timer.resume();pause.innerHTML="◼"}else{svg.pauseAnimations();timer.pause();pause.innerHTML="▶"}}]]></script></svg>