<svg id="kanjivg" width="106" height="126" xmlns="http://www.w3.org/2000/svg" xmlns:xlink="http://www.w3.org/1999/xlink" xml:space="preserve" version="1.1" baseProfile="full"><defs><style type="text/css"><![CDATA[path.black { fill:none;stroke:black;stroke-width:5;stroke-linecap:round;stroke-linejoin:round; }path.grey { fill:none;stroke:#ddd;stroke-width:5;stroke-linecap:round;stroke-linejoin:round; }path.stroke { fill:none;stroke:black;stroke-width:5;stroke-linecap:round;stroke-linejoin:round; }rect { fill:none;stroke:#555;stroke-width:2;} text{font-size:16px;font-family:Segoe UI Symbol,Cambria Math,DejaVu Sans,Symbola,Quivira,STIX,Code2000;-webkit-touch-callout:none;cursor:pointer;-webkit-user-select:none;-khtml-user-select:none;-moz-user-select:none;-ms-user-select:none;user-select: none;} #reset { font-weight:bold; }]]></style><marker id="markerStart" markerWidth="8" markerHeight="8" style="overflow:visible;"><circle cx="0" cy="0" r="1.5" style="stroke:none;fill:red;fill-opacity:0.5;"/></marker><marker id="markerEnd" style="overflow:visible;"><circle cx="0" cy="0" r="0.8" style="stroke:none;fill:blue;fill-opacity:0.5;"><animate attributeName="opacity" from="1" to="0" dur="3s" repeatCount="indefinite" /></circle></marker></defs><rect x="4" y="4" width="100" height="100" /><path d="M14.89,33.43c0.73,1.12,0.89,1.82,1.09,3.17c0.77,5.34,1.34,13.67,2.05,21.14c0.16,1.64,0.31,3.24,0.48,4.75" class="grey" /><path d="M17.31,35.2c5.34-1.13,9.97-2.14,14.7-3.16c3.73-0.8,5.61-0.55,4.96,3.82c-0.88,5.87-2.33,11.15-3.8,21.19" class="grey" /><path d="M19.38,60.38c3.5-0.46,7.04-1.21,11.67-1.82c1.67-0.22,3.39-0.46,5.12-0.72" class="grey" /><path d="M64.41,11.5c0.34,1.25,0.08,2.45-0.4,3.19c-4.38,6.81-7.76,11.68-12.7,18.2c-1.47,1.95-0.86,3.16,1.88,2.52c9.81-2.29,18.68-4.91,29.6-7.66" class="grey" /><path d="M76.9,21.01c4.47,2.36,11.54,9.7,12.66,13.37" class="grey" /><path d="M58.56,38.36c0.1,0.81,0,1.58-0.29,2.32c-1.2,3.41-5.17,8.48-12.32,13.99" class="grey" /><path d="M73.48,33.55c0.61,0.61,0.96,1.7,0.96,3.12c0,3.46-0.02,5.07-0.02,7.43c0,4.65,1.58,5.62,8.57,5.62c5.51,0,7.7-0.67,8.54-2.04" class="grey" /><path d="M58.84,53.5c0.05,0.58-0.22,2.06-0.6,2.83c-2.74,5.42-7.99,14.17-18.2,21.78" class="grey" /><path d="M59.75,60.56c1.39,0.17,2.87-0.22,4.19-0.61c3.04-0.89,7.73-2.69,10.9-3.7c3.81-1.22,5.62,0.61,3.7,4.26C72.49,71.98,58.5,86.75,40.67,94.75" class="grey" /><path d="M53.81,67.18c3.67,0.65,20.06,13.32,30.33,21.11c2.96,2.25,5.23,3.71,9.43,5.35" class="grey" /><path d="M14.89,33.43c0.73,1.12,0.89,1.82,1.09,3.17c0.77,5.34,1.34,13.67,2.05,21.14c0.16,1.64,0.31,3.24,0.48,4.75" class="stroke" stroke-dasharray="150"><animate attributeName="stroke-dashoffset" from="150" to="0" dur="1.8s" begin="0s" fill="freeze" /></path><path d="M17.31,35.2c5.34-1.13,9.97-2.14,14.7-3.16c3.73-0.8,5.61-0.55,4.96,3.82c-0.88,5.87-2.33,11.15-3.8,21.19" class="stroke" stroke-dasharray="150"><set attributeName="opacity" to="0" dur="1.0s" /><animate attributeName="stroke-dashoffset" from="150" to="0" dur="1.8s" begin="1.0s" fill="freeze" /></path><path d="M19.38,60.38c3.5-0.46,7.04-1.21,11.67-1.82c1.67-0.22,3.39-0.46,5.12-0.72" class="stroke" stroke-dasharray="150"><set attributeName="opacity" to="0" dur="2.1s" /><animate attributeName="stroke-dashoffset" from="150" to="0" dur="1.8s" begin="2.1s" fill="freeze" /></path><path d="M64.41,11.5c0.34,1.25,0.08,2.45-0.4,3.19c-4.38,6.81-7.76,11.68-12.7,18.2c-1.47,1.95-0.86,3.16,1.88,2.52c9.81-2.29,18.68-4.91,29.6-7.66" class="stroke" stroke-dasharray="150"><set attributeName="opacity" to="0" dur="3.0s" /><animate attributeName="stroke-dashoffset" from="150" to="0" dur="1.8s" begin="3.0s" fill="freeze" /></path><path d="M76.9,21.01c4.47,2.36,11.54,9.7,12.66,13.37" class="stroke" stroke-dasharray="150"><set attributeName="opacity" to="0" dur="4.5s" /><animate attributeName="stroke-dashoffset" from="150" to="0" dur="1.8s" begin="4.5s" fill="freeze" /></path><path d="M58.56,38.36c0.1,0.81,0,1.58-0.29,2.32c-1.2,3.41-5.17,8.48-12.32,13.99" class="stroke" stroke-dasharray="150"><set attributeName="opacity" to="0" dur="5.4s" /><animate attributeName="stroke-dashoffset" from="150" to="0" dur="1.8s" begin="5.4s" fill="freeze" /></path><path d="M73.48,33.55c0.61,0.61,0.96,1.7,0.96,3.12c0,3.46-0.02,5.07-0.02,7.43c0,4.65,1.58,5.62,8.57,5.62c5.51,0,7.7-0.67,8.54-2.04" class="stroke" stroke-dasharray="150"><set attributeName="opacity" to="0" dur="6.4s" /><animate attributeName="stroke-dashoffset" from="150" to="0" dur="1.8s" begin="6.4s" fill="freeze" /></path><path d="M58.84,53.5c0.05,0.58-0.22,2.06-0.6,2.83c-2.74,5.42-7.99,14.17-18.2,21.78" class="stroke" stroke-dasharray="150"><set attributeName="opacity" to="0" dur="7.4s" /><animate attributeName="stroke-dashoffset" from="150" to="0" dur="1.8s" begin="7.4s" fill="freeze" /></path><path d="M59.75,60.56c1.39,0.17,2.87-0.22,4.19-0.61c3.04-0.89,7.73-2.69,10.9-3.7c3.81-1.22,5.62,0.61,3.7,4.26C72.49,71.98,58.5,86.75,40.67,94.75" class="stroke" stroke-dasharray="150"><set attributeName="opacity" to="0" dur="8.4s" /><animate attributeName="stroke-dashoffset" from="150" to="0" dur="1.8s" begin="8.4s" fill="freeze" /></path><path d="M53.81,67.18c3.67,0.65,20.06,13.32,30.33,21.11c2.96,2.25,5.23,3.71,9.43,5.35" class="stroke" stroke-dasharray="150"><set attributeName="opacity" to="0" dur="10.1s" /><animate attributeName="stroke-dashoffset" from="150" to="0" dur="1.8s" begin="10.1s" fill="freeze" /></path><text x="90" y="120" id="reset">⟳</text><text x="70" y="120" id="pause">◼</text><script type="text/javascript"><![CDATA[function RecurringTimer(e,t){var n,r,i=t;this.pause=function(){window.clearTimeout(n);i-=new Date-r};var s=function(){r=new Date;n=window.setTimeout(function(){i=t;s();e()},i)};this.clear=function(){window.clearTimeout(n);i=t;n=window.setTimeout(function(){i=t;s();e()},i)};this.resume=s;this.resume()}function invoketimer(){timer=new RecurringTimer(function(){svg.setCurrentTime(0)},12299)}var svg=document.getElementById("kanjivg");var pause=document.getElementById("pause");var reset=document.getElementById("reset");var timer;invoketimer();reset.onclick=function(){svg.setCurrentTime(0);timer.clear();svg.unpauseAnimations();pause.innerHTML = "◼";};pause.onclick=function(){if(svg.animationsPaused()){svg.unpauseAnimations();timer.resume();pause.innerHTML="◼"}else{svg.pauseAnimations();timer.pause();pause.innerHTML="▶"}}]]></script></svg>