<svg id="kanjivg" width="106" height="126" xmlns="http://www.w3.org/2000/svg" xmlns:xlink="http://www.w3.org/1999/xlink" xml:space="preserve" version="1.1" baseProfile="full"><defs><style type="text/css"><![CDATA[path.black { fill:none;stroke:black;stroke-width:5;stroke-linecap:round;stroke-linejoin:round; }path.grey { fill:none;stroke:#ddd;stroke-width:5;stroke-linecap:round;stroke-linejoin:round; }path.stroke { fill:none;stroke:black;stroke-width:5;stroke-linecap:round;stroke-linejoin:round; }rect { fill:none;stroke:#555;stroke-width:2;} text{font-size:16px;font-family:Segoe UI Symbol,Cambria Math,DejaVu Sans,Symbola,Quivira,STIX,Code2000;-webkit-touch-callout:none;cursor:pointer;-webkit-user-select:none;-khtml-user-select:none;-moz-user-select:none;-ms-user-select:none;user-select: none;} #reset { font-weight:bold; }]]></style><marker id="markerStart" markerWidth="8" markerHeight="8" style="overflow:visible;"><circle cx="0" cy="0" r="1.5" style="stroke:none;fill:red;fill-opacity:0.5;"/></marker><marker id="markerEnd" style="overflow:visible;"><circle cx="0" cy="0" r="0.8" style="stroke:none;fill:blue;fill-opacity:0.5;"><animate attributeName="opacity" from="1" to="0" dur="3s" repeatCount="indefinite" /></circle></marker></defs><rect x="4" y="4" width="100" height="100" /><path d="M28.24,16.95c2.99,1.02,6.47,0.51,9.52,0.16c11.62-1.36,26.97-2.77,35.13-3.52c2.97-0.28,5.69-0.41,8.62,0.19" class="grey" /><path d="M29.9,17.73c0.94,0.94,1.19,2.23,1.17,4.31C30.88,38.62,27.5,57.5,15.75,72.3" class="grey" /><path d="M39.92,27.6c2.2,0.4,4.7,0.16,6.73-0.14c6.37-0.94,15.62-2.02,21.74-2.61c2.19-0.21,4.13-0.35,6.29,0.15" class="grey" /><path d="M34.31,38.43c2.57,0.69,4.66,0.47,7.07,0.21c8.63-0.91,27.16-3.04,35.25-3.62c2.54-0.18,5.35-0.39,7.85,0.19" class="grey" /><path d="M39.17,40.15c1.09,1.09,1.33,2.73,1.33,4.3c0,6.05,0.07,18.56,0.07,20.38c0,2.54,0.93,2.92,3.33,1.49c2.08-1.24,7.23-4.57,14.14-8.57" class="grey" /><path d="M74.88,40.89c0,0.86-0.33,1.38-0.82,1.78c-1.18,1.56-4.07,3.95-7.45,5.92" class="grey" /><path d="M51.45,43.27C55,43.35,71.52,56.48,80.95,63.09c2.89,2.03,5.63,3.42,8.81,4.91" class="grey" /><path d="M35.68,74.33c0.94,0.94,1.34,2.11,1.6,3.51c0.97,5.16,2.04,10.53,2.85,16.37c0.23,1.63,0.43,3.2,0.62,4.62" class="grey" /><path d="M37.97,75.89c9.33-0.91,26.5-2.69,33.66-3.23c3.84-0.29,5.05,1.21,4.23,4.83c-1.05,4.64-1.74,7.88-3.97,15.73" class="grey" /><path d="M41.66,96.34c5.06-0.29,18.46-1.46,27.35-1.91c1.73-0.09,3.26-0.16,4.51-0.2" class="grey" /><path d="M28.24,16.95c2.99,1.02,6.47,0.51,9.52,0.16c11.62-1.36,26.97-2.77,35.13-3.52c2.97-0.28,5.69-0.41,8.62,0.19" class="stroke" stroke-dasharray="150"><animate attributeName="stroke-dashoffset" from="150" to="0" dur="1.8s" begin="0s" fill="freeze" /></path><path d="M29.9,17.73c0.94,0.94,1.19,2.23,1.17,4.31C30.88,38.62,27.5,57.5,15.75,72.3" class="stroke" stroke-dasharray="150"><set attributeName="opacity" to="0" dur="1.3s" /><animate attributeName="stroke-dashoffset" from="150" to="0" dur="1.8s" begin="1.3s" fill="freeze" /></path><path d="M39.92,27.6c2.2,0.4,4.7,0.16,6.73-0.14c6.37-0.94,15.62-2.02,21.74-2.61c2.19-0.21,4.13-0.35,6.29,0.15" class="stroke" stroke-dasharray="150"><set attributeName="opacity" to="0" dur="2.7s" /><animate attributeName="stroke-dashoffset" from="150" to="0" dur="1.8s" begin="2.7s" fill="freeze" /></path><path d="M34.31,38.43c2.57,0.69,4.66,0.47,7.07,0.21c8.63-0.91,27.16-3.04,35.25-3.62c2.54-0.18,5.35-0.39,7.85,0.19" class="stroke" stroke-dasharray="150"><set attributeName="opacity" to="0" dur="3.7s" /><animate attributeName="stroke-dashoffset" from="150" to="0" dur="1.8s" begin="3.7s" fill="freeze" /></path><path d="M39.17,40.15c1.09,1.09,1.33,2.73,1.33,4.3c0,6.05,0.07,18.56,0.07,20.38c0,2.54,0.93,2.92,3.33,1.49c2.08-1.24,7.23-4.57,14.14-8.57" class="stroke" stroke-dasharray="150"><set attributeName="opacity" to="0" dur="5.0s" /><animate attributeName="stroke-dashoffset" from="150" to="0" dur="1.8s" begin="5.0s" fill="freeze" /></path><path d="M74.88,40.89c0,0.86-0.33,1.38-0.82,1.78c-1.18,1.56-4.07,3.95-7.45,5.92" class="stroke" stroke-dasharray="150"><set attributeName="opacity" to="0" dur="6.2s" /><animate attributeName="stroke-dashoffset" from="150" to="0" dur="1.8s" begin="6.2s" fill="freeze" /></path><path d="M51.45,43.27C55,43.35,71.52,56.48,80.95,63.09c2.89,2.03,5.63,3.42,8.81,4.91" class="stroke" stroke-dasharray="150"><set attributeName="opacity" to="0" dur="7.1000000000000005s" /><animate attributeName="stroke-dashoffset" from="150" to="0" dur="1.8s" begin="7.1000000000000005s" fill="freeze" /></path><path d="M35.68,74.33c0.94,0.94,1.34,2.11,1.6,3.51c0.97,5.16,2.04,10.53,2.85,16.37c0.23,1.63,0.43,3.2,0.62,4.62" class="stroke" stroke-dasharray="150"><set attributeName="opacity" to="0" dur="8.3s" /><animate attributeName="stroke-dashoffset" from="150" to="0" dur="1.8s" begin="8.3s" fill="freeze" /></path><path d="M37.97,75.89c9.33-0.91,26.5-2.69,33.66-3.23c3.84-0.29,5.05,1.21,4.23,4.83c-1.05,4.64-1.74,7.88-3.97,15.73" class="stroke" stroke-dasharray="150"><set attributeName="opacity" to="0" dur="9.3s" /><animate attributeName="stroke-dashoffset" from="150" to="0" dur="1.8s" begin="9.3s" fill="freeze" /></path><path d="M41.66,96.34c5.06-0.29,18.46-1.46,27.35-1.91c1.73-0.09,3.26-0.16,4.51-0.2" class="stroke" stroke-dasharray="150"><set attributeName="opacity" to="0" dur="10.700000000000001s" /><animate attributeName="stroke-dashoffset" from="150" to="0" dur="1.8s" begin="10.700000000000001s" fill="freeze" /></path><text x="90" y="120" id="reset">⟳</text><text x="70" y="120" id="pause">◼</text><script type="text/javascript"><![CDATA[function RecurringTimer(e,t){var n,r,i=t;this.pause=function(){window.clearTimeout(n);i-=new Date-r};var s=function(){r=new Date;n=window.setTimeout(function(){i=t;s();e()},i)};this.clear=function(){window.clearTimeout(n);i=t;n=window.setTimeout(function(){i=t;s();e()},i)};this.resume=s;this.resume()}function invoketimer(){timer=new RecurringTimer(function(){svg.setCurrentTime(0)},12700)}var svg=document.getElementById("kanjivg");var pause=document.getElementById("pause");var reset=document.getElementById("reset");var timer;invoketimer();reset.onclick=function(){svg.setCurrentTime(0);timer.clear();svg.unpauseAnimations();pause.innerHTML = "◼";};pause.onclick=function(){if(svg.animationsPaused()){svg.unpauseAnimations();timer.resume();pause.innerHTML="◼"}else{svg.pauseAnimations();timer.pause();pause.innerHTML="▶"}}]]></script></svg>