<svg id="kanjivg" width="106" height="126" xmlns="http://www.w3.org/2000/svg" xmlns:xlink="http://www.w3.org/1999/xlink" xml:space="preserve" version="1.1" baseProfile="full"><defs><style type="text/css"><![CDATA[path.black { fill:none;stroke:black;stroke-width:5;stroke-linecap:round;stroke-linejoin:round; }path.grey { fill:none;stroke:#ddd;stroke-width:5;stroke-linecap:round;stroke-linejoin:round; }path.stroke { fill:none;stroke:black;stroke-width:5;stroke-linecap:round;stroke-linejoin:round; }rect { fill:none;stroke:#555;stroke-width:2;} text{font-size:16px;font-family:Segoe UI Symbol,Cambria Math,DejaVu Sans,Symbola,Quivira,STIX,Code2000;-webkit-touch-callout:none;cursor:pointer;-webkit-user-select:none;-khtml-user-select:none;-moz-user-select:none;-ms-user-select:none;user-select: none;} #reset { font-weight:bold; }]]></style><marker id="markerStart" markerWidth="8" markerHeight="8" style="overflow:visible;"><circle cx="0" cy="0" r="1.5" style="stroke:none;fill:red;fill-opacity:0.5;"/></marker><marker id="markerEnd" style="overflow:visible;"><circle cx="0" cy="0" r="0.8" style="stroke:none;fill:blue;fill-opacity:0.5;"><animate attributeName="opacity" from="1" to="0" dur="3s" repeatCount="indefinite" /></circle></marker></defs><rect x="4" y="4" width="100" height="100" /><path d="M12.25,34.29c0.99,1.35,1.19,2.58,1.37,4.19c0.71,6.59,1.39,14.31,2.06,21.53c0.16,1.7,0.32,3.37,0.47,4.99" class="grey" /><path d="M14.08,36.22c8.46-1.4,13.38-2.31,17.46-2.96c3.33-0.53,4.27,1.03,3.82,3.99c-0.88,5.77-1.81,13.31-2.75,21.61" class="grey" /><path d="M16.82,61.8c4.11-0.6,7.51-0.99,13.43-1.66c1.48-0.17,3.12-0.35,4.96-0.55" class="grey" /><path d="M43.09,20.65c2.66,0.73,5.36,0.22,7.67,0.01C60.9,19.75,73.7,18.52,85,17.5c2.75-0.25,5.59-0.32,8.3,0.42" class="grey" /><path d="M41.64,42.01c1.17,1.18,1.35,2.29,1.63,3.87c0.8,4.42,1.4,10.48,1.99,16.99c0.16,1.83,0.33,3.69,0.49,5.56" class="grey" /><path d="M44.08,44.26c13.29-2.01,31.29-3.89,43.81-5.1c4.64-0.45,5.61,0.84,5.16,5.01c-0.56,5.28-1.54,11.09-2.59,16.84c-0.27,1.46-0.54,2.92-0.81,4.36" class="grey" /><path d="M46.74,66.71c9.26-0.96,28.76-2.96,42.02-3.62" class="grey" /><path d="M57.8,22.54c1.21,1.2,1.69,3.17,1.69,4.59c0,9.75-0.11,55.02-0.11,62.5" class="grey" /><path d="M74.67,20.64c0.97,0.97,1.4,2.36,1.4,3.43c0,5.56-0.18,56.43-0.18,64.5" class="grey" /><path d="M33.88,91.7c2.65,1.18,6.11,0.47,8.87,0.28c15.42-1.07,34.32-2.32,47.51-2.79c3.05-0.11,5.5,0.41,8.37,1.17" class="grey" /><path d="M12.25,34.29c0.99,1.35,1.19,2.58,1.37,4.19c0.71,6.59,1.39,14.31,2.06,21.53c0.16,1.7,0.32,3.37,0.47,4.99" class="stroke" stroke-dasharray="150"><animate attributeName="stroke-dashoffset" from="150" to="0" dur="1.8s" begin="0s" fill="freeze" /></path><path d="M14.08,36.22c8.46-1.4,13.38-2.31,17.46-2.96c3.33-0.53,4.27,1.03,3.82,3.99c-0.88,5.77-1.81,13.31-2.75,21.61" class="stroke" stroke-dasharray="150"><set attributeName="opacity" to="0" dur="1.0s" /><animate attributeName="stroke-dashoffset" from="150" to="0" dur="1.8s" begin="1.0s" fill="freeze" /></path><path d="M16.82,61.8c4.11-0.6,7.51-0.99,13.43-1.66c1.48-0.17,3.12-0.35,4.96-0.55" class="stroke" stroke-dasharray="150"><set attributeName="opacity" to="0" dur="2.2s" /><animate attributeName="stroke-dashoffset" from="150" to="0" dur="1.8s" begin="2.2s" fill="freeze" /></path><path d="M43.09,20.65c2.66,0.73,5.36,0.22,7.67,0.01C60.9,19.75,73.7,18.52,85,17.5c2.75-0.25,5.59-0.32,8.3,0.42" class="stroke" stroke-dasharray="150"><set attributeName="opacity" to="0" dur="3.1s" /><animate attributeName="stroke-dashoffset" from="150" to="0" dur="1.8s" begin="3.1s" fill="freeze" /></path><path d="M41.64,42.01c1.17,1.18,1.35,2.29,1.63,3.87c0.8,4.42,1.4,10.48,1.99,16.99c0.16,1.83,0.33,3.69,0.49,5.56" class="stroke" stroke-dasharray="150"><set attributeName="opacity" to="0" dur="4.4s" /><animate attributeName="stroke-dashoffset" from="150" to="0" dur="1.8s" begin="4.4s" fill="freeze" /></path><path d="M44.08,44.26c13.29-2.01,31.29-3.89,43.81-5.1c4.64-0.45,5.61,0.84,5.16,5.01c-0.56,5.28-1.54,11.09-2.59,16.84c-0.27,1.46-0.54,2.92-0.81,4.36" class="stroke" stroke-dasharray="150"><set attributeName="opacity" to="0" dur="5.4s" /><animate attributeName="stroke-dashoffset" from="150" to="0" dur="1.8s" begin="5.4s" fill="freeze" /></path><path d="M46.74,66.71c9.26-0.96,28.76-2.96,42.02-3.62" class="stroke" stroke-dasharray="150"><set attributeName="opacity" to="0" dur="7.1000000000000005s" /><animate attributeName="stroke-dashoffset" from="150" to="0" dur="1.8s" begin="7.1000000000000005s" fill="freeze" /></path><path d="M57.8,22.54c1.21,1.2,1.69,3.17,1.69,4.59c0,9.75-0.11,55.02-0.11,62.5" class="stroke" stroke-dasharray="150"><set attributeName="opacity" to="0" dur="8.200000000000001s" /><animate attributeName="stroke-dashoffset" from="150" to="0" dur="1.8s" begin="8.200000000000001s" fill="freeze" /></path><path d="M74.67,20.64c0.97,0.97,1.4,2.36,1.4,3.43c0,5.56-0.18,56.43-0.18,64.5" class="stroke" stroke-dasharray="150"><set attributeName="opacity" to="0" dur="9.700000000000001s" /><animate attributeName="stroke-dashoffset" from="150" to="0" dur="1.8s" begin="9.700000000000001s" fill="freeze" /></path><path d="M33.88,91.7c2.65,1.18,6.11,0.47,8.87,0.28c15.42-1.07,34.32-2.32,47.51-2.79c3.05-0.11,5.5,0.41,8.37,1.17" class="stroke" stroke-dasharray="150"><set attributeName="opacity" to="0" dur="11.200000000000001s" /><animate attributeName="stroke-dashoffset" from="150" to="0" dur="1.8s" begin="11.200000000000001s" fill="freeze" /></path><text x="90" y="120" id="reset">⟳</text><text x="70" y="120" id="pause">◼</text><script type="text/javascript"><![CDATA[function RecurringTimer(e,t){var n,r,i=t;this.pause=function(){window.clearTimeout(n);i-=new Date-r};var s=function(){r=new Date;n=window.setTimeout(function(){i=t;s();e()},i)};this.clear=function(){window.clearTimeout(n);i=t;n=window.setTimeout(function(){i=t;s();e()},i)};this.resume=s;this.resume()}function invoketimer(){timer=new RecurringTimer(function(){svg.setCurrentTime(0)},13700)}var svg=document.getElementById("kanjivg");var pause=document.getElementById("pause");var reset=document.getElementById("reset");var timer;invoketimer();reset.onclick=function(){svg.setCurrentTime(0);timer.clear();svg.unpauseAnimations();pause.innerHTML = "◼";};pause.onclick=function(){if(svg.animationsPaused()){svg.unpauseAnimations();timer.resume();pause.innerHTML="◼"}else{svg.pauseAnimations();timer.pause();pause.innerHTML="▶"}}]]></script></svg>