<svg id="kanjivg" width="106" height="126" xmlns="http://www.w3.org/2000/svg" xmlns:xlink="http://www.w3.org/1999/xlink" xml:space="preserve" version="1.1" baseProfile="full"><defs><style type="text/css"><![CDATA[path.black { fill:none;stroke:black;stroke-width:5;stroke-linecap:round;stroke-linejoin:round; }path.grey { fill:none;stroke:#ddd;stroke-width:5;stroke-linecap:round;stroke-linejoin:round; }path.stroke { fill:none;stroke:black;stroke-width:5;stroke-linecap:round;stroke-linejoin:round; }rect { fill:none;stroke:#555;stroke-width:2;} text{font-size:16px;font-family:Segoe UI Symbol,Cambria Math,DejaVu Sans,Symbola,Quivira,STIX,Code2000;-webkit-touch-callout:none;cursor:pointer;-webkit-user-select:none;-khtml-user-select:none;-moz-user-select:none;-ms-user-select:none;user-select: none;} #reset { font-weight:bold; }]]></style><marker id="markerStart" markerWidth="8" markerHeight="8" style="overflow:visible;"><circle cx="0" cy="0" r="1.5" style="stroke:none;fill:red;fill-opacity:0.5;"/></marker><marker id="markerEnd" style="overflow:visible;"><circle cx="0" cy="0" r="0.8" style="stroke:none;fill:blue;fill-opacity:0.5;"><animate attributeName="opacity" from="1" to="0" dur="3s" repeatCount="indefinite" /></circle></marker></defs><rect x="4" y="4" width="100" height="100" /><path d="M54.3,11.88c0.91,0.91,1.25,2.12,1.25,3.4c0,0.78-0.05,4.96-0.05,7.71" class="grey" /><path d="M24.56,26.48c2.94,1.05,6.31,0.61,9.31,0.21c14.38-1.93,31.75-3.18,44.63-4.19c2.99-0.23,5.46-0.05,8.38,0.58" class="grey" /><path d="M28.15,27.75c1.11,1.11,1.16,2.34,1.16,4.63c0,22.87-5.31,48.37-17,63.59" class="grey" /><path d="M37.63,40.4c2.01,0.24,3.73,0.69,5.57,0.48C54.5,39.62,64,38.25,74.4,37.75c2.61-0.12,4.41,1.21,4.01,3.62c-1.05,6.31-2.04,13.38-3.21,20.77" class="grey" /><path d="M33,52.41c2.7,0.36,5.03,0.5,7.75,0.21c15.38-1.61,30.63-2.69,43.27-3.35c2.98-0.16,6.05-0.14,8.98,0.57" class="grey" /><path d="M36.83,65.95c2.26,0.33,4.27,0.44,6.55,0.25c10.21-0.83,21.26-2.5,30.52-2.77c1.6-0.05,2.61,0,3.81,0.15" class="grey" /><path d="M55.37,30.5c1.07,1.06,1.21,2.25,1.21,3.75c0,1.02,0.03,23,0.03,30" class="grey" /><path d="M39.5,77.3c0.85,0.65,1.36,1.51,1.52,2.56c1.1,4.38,1.87,8.58,2.73,13.84c0.28,1.7,0.53,3.33,0.75,4.79" class="grey" /><path d="M41.38,78.09c8.99-1.19,24.97-2.92,31.9-3.63c3.26-0.34,5.29-0.11,4.36,3.67c-1.07,4.36-2.08,9.14-3.47,14.42" class="grey" /><path d="M45.2,96.22c4.83-0.46,15.46-1.6,25.3-2.26c1.96-0.13,3.89-0.25,5.71-0.36" class="grey" /><path d="M54.3,11.88c0.91,0.91,1.25,2.12,1.25,3.4c0,0.78-0.05,4.96-0.05,7.71" class="stroke" stroke-dasharray="150"><animate attributeName="stroke-dashoffset" from="150" to="0" dur="1.8s" begin="0s" fill="freeze" /></path><path d="M24.56,26.48c2.94,1.05,6.31,0.61,9.31,0.21c14.38-1.93,31.75-3.18,44.63-4.19c2.99-0.23,5.46-0.05,8.38,0.58" class="stroke" stroke-dasharray="150"><set attributeName="opacity" to="0" dur="0.9s" /><animate attributeName="stroke-dashoffset" from="150" to="0" dur="1.8s" begin="0.9s" fill="freeze" /></path><path d="M28.15,27.75c1.11,1.11,1.16,2.34,1.16,4.63c0,22.87-5.31,48.37-17,63.59" class="stroke" stroke-dasharray="150"><set attributeName="opacity" to="0" dur="2.4s" /><animate attributeName="stroke-dashoffset" from="150" to="0" dur="1.8s" begin="2.4s" fill="freeze" /></path><path d="M37.63,40.4c2.01,0.24,3.73,0.69,5.57,0.48C54.5,39.62,64,38.25,74.4,37.75c2.61-0.12,4.41,1.21,4.01,3.62c-1.05,6.31-2.04,13.38-3.21,20.77" class="stroke" stroke-dasharray="150"><set attributeName="opacity" to="0" dur="4.1s" /><animate attributeName="stroke-dashoffset" from="150" to="0" dur="1.8s" begin="4.1s" fill="freeze" /></path><path d="M33,52.41c2.7,0.36,5.03,0.5,7.75,0.21c15.38-1.61,30.63-2.69,43.27-3.35c2.98-0.16,6.05-0.14,8.98,0.57" class="stroke" stroke-dasharray="150"><set attributeName="opacity" to="0" dur="5.6s" /><animate attributeName="stroke-dashoffset" from="150" to="0" dur="1.8s" begin="5.6s" fill="freeze" /></path><path d="M36.83,65.95c2.26,0.33,4.27,0.44,6.55,0.25c10.21-0.83,21.26-2.5,30.52-2.77c1.6-0.05,2.61,0,3.81,0.15" class="stroke" stroke-dasharray="150"><set attributeName="opacity" to="0" dur="7.1s" /><animate attributeName="stroke-dashoffset" from="150" to="0" dur="1.8s" begin="7.1s" fill="freeze" /></path><path d="M55.37,30.5c1.07,1.06,1.21,2.25,1.21,3.75c0,1.02,0.03,23,0.03,30" class="stroke" stroke-dasharray="150"><set attributeName="opacity" to="0" dur="8.2s" /><animate attributeName="stroke-dashoffset" from="150" to="0" dur="1.8s" begin="8.2s" fill="freeze" /></path><path d="M39.5,77.3c0.85,0.65,1.36,1.51,1.52,2.56c1.1,4.38,1.87,8.58,2.73,13.84c0.28,1.7,0.53,3.33,0.75,4.79" class="stroke" stroke-dasharray="150"><set attributeName="opacity" to="0" dur="9.2s" /><animate attributeName="stroke-dashoffset" from="150" to="0" dur="1.8s" begin="9.2s" fill="freeze" /></path><path d="M41.38,78.09c8.99-1.19,24.97-2.92,31.9-3.63c3.26-0.34,5.29-0.11,4.36,3.67c-1.07,4.36-2.08,9.14-3.47,14.42" class="stroke" stroke-dasharray="150"><set attributeName="opacity" to="0" dur="10.2s" /><animate attributeName="stroke-dashoffset" from="150" to="0" dur="1.8s" begin="10.2s" fill="freeze" /></path><path d="M45.2,96.22c4.83-0.46,15.46-1.6,25.3-2.26c1.96-0.13,3.89-0.25,5.71-0.36" class="stroke" stroke-dasharray="150"><set attributeName="opacity" to="0" dur="11.5s" /><animate attributeName="stroke-dashoffset" from="150" to="0" dur="1.8s" begin="11.5s" fill="freeze" /></path><text x="90" y="120" id="reset">⟳</text><text x="70" y="120" id="pause">◼</text><script type="text/javascript"><![CDATA[function RecurringTimer(e,t){var n,r,i=t;this.pause=function(){window.clearTimeout(n);i-=new Date-r};var s=function(){r=new Date;n=window.setTimeout(function(){i=t;s();e()},i)};this.clear=function(){window.clearTimeout(n);i=t;n=window.setTimeout(function(){i=t;s();e()},i)};this.resume=s;this.resume()}function invoketimer(){timer=new RecurringTimer(function(){svg.setCurrentTime(0)},13500)}var svg=document.getElementById("kanjivg");var pause=document.getElementById("pause");var reset=document.getElementById("reset");var timer;invoketimer();reset.onclick=function(){svg.setCurrentTime(0);timer.clear();svg.unpauseAnimations();pause.innerHTML = "◼";};pause.onclick=function(){if(svg.animationsPaused()){svg.unpauseAnimations();timer.resume();pause.innerHTML="◼"}else{svg.pauseAnimations();timer.pause();pause.innerHTML="▶"}}]]></script></svg>