<svg id="kanjivg" width="106" height="126" xmlns="http://www.w3.org/2000/svg" xmlns:xlink="http://www.w3.org/1999/xlink" xml:space="preserve" version="1.1" baseProfile="full"><defs><style type="text/css"><![CDATA[path.black { fill:none;stroke:black;stroke-width:5;stroke-linecap:round;stroke-linejoin:round; }path.grey { fill:none;stroke:#ddd;stroke-width:5;stroke-linecap:round;stroke-linejoin:round; }path.stroke { fill:none;stroke:black;stroke-width:5;stroke-linecap:round;stroke-linejoin:round; }rect { fill:none;stroke:#555;stroke-width:2;} text{font-size:16px;font-family:Segoe UI Symbol,Cambria Math,DejaVu Sans,Symbola,Quivira,STIX,Code2000;-webkit-touch-callout:none;cursor:pointer;-webkit-user-select:none;-khtml-user-select:none;-moz-user-select:none;-ms-user-select:none;user-select: none;} #reset { font-weight:bold; }]]></style><marker id="markerStart" markerWidth="8" markerHeight="8" style="overflow:visible;"><circle cx="0" cy="0" r="1.5" style="stroke:none;fill:red;fill-opacity:0.5;"/></marker><marker id="markerEnd" style="overflow:visible;"><circle cx="0" cy="0" r="0.8" style="stroke:none;fill:blue;fill-opacity:0.5;"><animate attributeName="opacity" from="1" to="0" dur="3s" repeatCount="indefinite" /></circle></marker></defs><rect x="4" y="4" width="100" height="100" /><path d="M50.34,11.13c2.54,0.93,7.93,6.95,8.43,8.8" class="grey" /><path d="M24.56,26.73c1.51,0.54,4.28,0.68,5.78,0.54C44.25,26,69.5,23.25,81.6,22.54c2.51-0.15,4.02,0.26,5.28,0.53" class="grey" /><path d="M29.4,29c0.04,1.59-0.09,4.09-0.09,6.38c0,22.87-6.06,48.37-17,60.59" class="grey" /><path d="M37.63,40.65c2.01,0.24,2.97,0.64,4.82,0.48C53.68,40.17,63.75,38.5,74.15,38c2.61-0.12,4.41,1.21,4.01,3.62c-1.05,6.31-1.81,9.41-3.21,20.27" class="grey" /><path d="M32.5,52.91c1.81,0.24,3.22,0.7,5.22,0.48c17.46-1.93,35.42-3.31,49.27-4.03C89.2,49.24,92,49.34,93,49.58" class="grey" /><path d="M36.83,66.2c1,0.15,2.81,0.52,4.01,0.44c11.04-0.73,22.27-2.91,32.3-3.21c1.6-0.05,2.61,0,3.81,0.15" class="grey" /><path d="M54.37,30.25c1.09,0.5,1.74,2.25,1.96,3.25c0.22,1,0.5,24.75,0.28,31" class="grey" /><path d="M39.25,76.55c0.42,0.38,0.85,0.69,1.04,1.17c1.46,3.74,3.21,14.06,4.21,20.78" class="grey" /><path d="M41.88,78.59c10.12-1.34,28.62-3.61,33.56-4.1c1.8-0.18,2.89,1.07,2.63,2.12C77,80.98,75.25,87.76,73.66,93.8" class="grey" /><path d="M44.7,96.22c5.8-0.56,20.3-1.72,31.27-2.37" class="grey" /><path d="M50.34,11.13c2.54,0.93,7.93,6.95,8.43,8.8" class="stroke" stroke-dasharray="150"><animate attributeName="stroke-dashoffset" from="150" to="0" dur="1.8s" begin="0s" fill="freeze" /></path><path d="M24.56,26.73c1.51,0.54,4.28,0.68,5.78,0.54C44.25,26,69.5,23.25,81.6,22.54c2.51-0.15,4.02,0.26,5.28,0.53" class="stroke" stroke-dasharray="150"><set attributeName="opacity" to="0" dur="0.9s" /><animate attributeName="stroke-dashoffset" from="150" to="0" dur="1.8s" begin="0.9s" fill="freeze" /></path><path d="M29.4,29c0.04,1.59-0.09,4.09-0.09,6.38c0,22.87-6.06,48.37-17,60.59" class="stroke" stroke-dasharray="150"><set attributeName="opacity" to="0" dur="2.4s" /><animate attributeName="stroke-dashoffset" from="150" to="0" dur="1.8s" begin="2.4s" fill="freeze" /></path><path d="M37.63,40.65c2.01,0.24,2.97,0.64,4.82,0.48C53.68,40.17,63.75,38.5,74.15,38c2.61-0.12,4.41,1.21,4.01,3.62c-1.05,6.31-1.81,9.41-3.21,20.27" class="stroke" stroke-dasharray="150"><set attributeName="opacity" to="0" dur="4.1s" /><animate attributeName="stroke-dashoffset" from="150" to="0" dur="1.8s" begin="4.1s" fill="freeze" /></path><path d="M32.5,52.91c1.81,0.24,3.22,0.7,5.22,0.48c17.46-1.93,35.42-3.31,49.27-4.03C89.2,49.24,92,49.34,93,49.58" class="stroke" stroke-dasharray="150"><set attributeName="opacity" to="0" dur="5.6s" /><animate attributeName="stroke-dashoffset" from="150" to="0" dur="1.8s" begin="5.6s" fill="freeze" /></path><path d="M36.83,66.2c1,0.15,2.81,0.52,4.01,0.44c11.04-0.73,22.27-2.91,32.3-3.21c1.6-0.05,2.61,0,3.81,0.15" class="stroke" stroke-dasharray="150"><set attributeName="opacity" to="0" dur="7.1s" /><animate attributeName="stroke-dashoffset" from="150" to="0" dur="1.8s" begin="7.1s" fill="freeze" /></path><path d="M54.37,30.25c1.09,0.5,1.74,2.25,1.96,3.25c0.22,1,0.5,24.75,0.28,31" class="stroke" stroke-dasharray="150"><set attributeName="opacity" to="0" dur="8.2s" /><animate attributeName="stroke-dashoffset" from="150" to="0" dur="1.8s" begin="8.2s" fill="freeze" /></path><path d="M39.25,76.55c0.42,0.38,0.85,0.69,1.04,1.17c1.46,3.74,3.21,14.06,4.21,20.78" class="stroke" stroke-dasharray="150"><set attributeName="opacity" to="0" dur="9.2s" /><animate attributeName="stroke-dashoffset" from="150" to="0" dur="1.8s" begin="9.2s" fill="freeze" /></path><path d="M41.88,78.59c10.12-1.34,28.62-3.61,33.56-4.1c1.8-0.18,2.89,1.07,2.63,2.12C77,80.98,75.25,87.76,73.66,93.8" class="stroke" stroke-dasharray="150"><set attributeName="opacity" to="0" dur="10.2s" /><animate attributeName="stroke-dashoffset" from="150" to="0" dur="1.8s" begin="10.2s" fill="freeze" /></path><path d="M44.7,96.22c5.8-0.56,20.3-1.72,31.27-2.37" class="stroke" stroke-dasharray="150"><set attributeName="opacity" to="0" dur="11.6s" /><animate attributeName="stroke-dashoffset" from="150" to="0" dur="1.8s" begin="11.6s" fill="freeze" /></path><text x="90" y="120" id="reset">⟳</text><text x="70" y="120" id="pause">◼</text><script type="text/javascript"><![CDATA[function RecurringTimer(e,t){var n,r,i=t;this.pause=function(){window.clearTimeout(n);i-=new Date-r};var s=function(){r=new Date;n=window.setTimeout(function(){i=t;s();e()},i)};this.clear=function(){window.clearTimeout(n);i=t;n=window.setTimeout(function(){i=t;s();e()},i)};this.resume=s;this.resume()}function invoketimer(){timer=new RecurringTimer(function(){svg.setCurrentTime(0)},13600)}var svg=document.getElementById("kanjivg");var pause=document.getElementById("pause");var reset=document.getElementById("reset");var timer;invoketimer();reset.onclick=function(){svg.setCurrentTime(0);timer.clear();svg.unpauseAnimations();pause.innerHTML = "◼";};pause.onclick=function(){if(svg.animationsPaused()){svg.unpauseAnimations();timer.resume();pause.innerHTML="◼"}else{svg.pauseAnimations();timer.pause();pause.innerHTML="▶"}}]]></script></svg>