<svg id="kanjivg" width="106" height="126" xmlns="http://www.w3.org/2000/svg" xmlns:xlink="http://www.w3.org/1999/xlink" xml:space="preserve" version="1.1" baseProfile="full"><defs><style type="text/css"><![CDATA[path.black { fill:none;stroke:black;stroke-width:5;stroke-linecap:round;stroke-linejoin:round; }path.grey { fill:none;stroke:#ddd;stroke-width:5;stroke-linecap:round;stroke-linejoin:round; }path.stroke { fill:none;stroke:black;stroke-width:5;stroke-linecap:round;stroke-linejoin:round; }rect { fill:none;stroke:#555;stroke-width:2;} text{font-size:16px;font-family:Segoe UI Symbol,Cambria Math,DejaVu Sans,Symbola,Quivira,STIX,Code2000;-webkit-touch-callout:none;cursor:pointer;-webkit-user-select:none;-khtml-user-select:none;-moz-user-select:none;-ms-user-select:none;user-select: none;} #reset { font-weight:bold; }]]></style><marker id="markerStart" markerWidth="8" markerHeight="8" style="overflow:visible;"><circle cx="0" cy="0" r="1.5" style="stroke:none;fill:red;fill-opacity:0.5;"/></marker><marker id="markerEnd" style="overflow:visible;"><circle cx="0" cy="0" r="0.8" style="stroke:none;fill:blue;fill-opacity:0.5;"><animate attributeName="opacity" from="1" to="0" dur="3s" repeatCount="indefinite" /></circle></marker></defs><rect x="4" y="4" width="100" height="100" /><path d="M10.75,34.79c0.37,0.51,0.76,0.94,0.92,1.58C12.96,41.43,15.01,52.9,15.9,62" class="grey" /><path d="M12.08,36.22c8.17-1.97,15.55-3.06,19.92-3.73c1.6-0.24,2.56,1.44,2.33,2.87c-0.95,5.92-2.05,12.57-3.46,20.75" class="grey" /><path d="M16.07,58.05c5.14-0.75,10.33-1.05,17.39-2.21" class="grey" /><path d="M45.04,19.32c0.98,0.18,2.77,0.16,3.76,0.1c11.88-0.68,19.19-3.07,37.97-3.65c1.64-0.05,2.62,0.03,3.43,0.11" class="grey" /><path d="M64,20.75c0.28,0.22,1,2.75,0.62,4.02c-1.45,4.95-6.85,26.45-7.89,29.65" class="grey" /><path d="M47.93,34.71c0.79,0.4,2.88,0.52,3.53,0.46c9.05-0.92,24.3-3.67,30.81-4.4c1.5-0.17,3.21,1.23,3.21,2.93c0,2.91-2.77,11.67-3.98,18.05" class="grey" /><path d="M40.33,55.77c1.1,0.33,3.82,0.76,4.92,0.61c8.5-1.13,30.5-3.63,49.66-3.73c1.84-0.01,3.08,0.09,4.56,0.62" class="grey" /><path d="M48,66.88c0.3,0.45,0.61,0.82,0.74,1.37c1.04,4.41,3.29,19.07,4.01,26.99" class="grey" /><path d="M49.86,68.79c10.89-1.54,29.14-3.2,34.98-3.77c2.14-0.21,3.41,0.98,3.11,2.93c-0.77,5.1-2.46,14.05-4.13,21.96" class="grey" /><path d="M52.7,92.74c6.87-0.64,23.8-2.24,33.76-2.71" class="grey" /><path d="M10.75,34.79c0.37,0.51,0.76,0.94,0.92,1.58C12.96,41.43,15.01,52.9,15.9,62" class="stroke" stroke-dasharray="150"><animate attributeName="stroke-dashoffset" from="150" to="0" dur="1.8s" begin="0s" fill="freeze" /></path><path d="M12.08,36.22c8.17-1.97,15.55-3.06,19.92-3.73c1.6-0.24,2.56,1.44,2.33,2.87c-0.95,5.92-2.05,12.57-3.46,20.75" class="stroke" stroke-dasharray="150"><set attributeName="opacity" to="0" dur="1.0s" /><animate attributeName="stroke-dashoffset" from="150" to="0" dur="1.8s" begin="1.0s" fill="freeze" /></path><path d="M16.07,58.05c5.14-0.75,10.33-1.05,17.39-2.21" class="stroke" stroke-dasharray="150"><set attributeName="opacity" to="0" dur="2.2s" /><animate attributeName="stroke-dashoffset" from="150" to="0" dur="1.8s" begin="2.2s" fill="freeze" /></path><path d="M45.04,19.32c0.98,0.18,2.77,0.16,3.76,0.1c11.88-0.68,19.19-3.07,37.97-3.65c1.64-0.05,2.62,0.03,3.43,0.11" class="stroke" stroke-dasharray="150"><set attributeName="opacity" to="0" dur="3.1s" /><animate attributeName="stroke-dashoffset" from="150" to="0" dur="1.8s" begin="3.1s" fill="freeze" /></path><path d="M64,20.75c0.28,0.22,1,2.75,0.62,4.02c-1.45,4.95-6.85,26.45-7.89,29.65" class="stroke" stroke-dasharray="150"><set attributeName="opacity" to="0" dur="4.3s" /><animate attributeName="stroke-dashoffset" from="150" to="0" dur="1.8s" begin="4.3s" fill="freeze" /></path><path d="M47.93,34.71c0.79,0.4,2.88,0.52,3.53,0.46c9.05-0.92,24.3-3.67,30.81-4.4c1.5-0.17,3.21,1.23,3.21,2.93c0,2.91-2.77,11.67-3.98,18.05" class="stroke" stroke-dasharray="150"><set attributeName="opacity" to="0" dur="5.3s" /><animate attributeName="stroke-dashoffset" from="150" to="0" dur="1.8s" begin="5.3s" fill="freeze" /></path><path d="M40.33,55.77c1.1,0.33,3.82,0.76,4.92,0.61c8.5-1.13,30.5-3.63,49.66-3.73c1.84-0.01,3.08,0.09,4.56,0.62" class="stroke" stroke-dasharray="150"><set attributeName="opacity" to="0" dur="6.699999999999999s" /><animate attributeName="stroke-dashoffset" from="150" to="0" dur="1.8s" begin="6.699999999999999s" fill="freeze" /></path><path d="M48,66.88c0.3,0.45,0.61,0.82,0.74,1.37c1.04,4.41,3.29,19.07,4.01,26.99" class="stroke" stroke-dasharray="150"><set attributeName="opacity" to="0" dur="8.1s" /><animate attributeName="stroke-dashoffset" from="150" to="0" dur="1.8s" begin="8.1s" fill="freeze" /></path><path d="M49.86,68.79c10.89-1.54,29.14-3.2,34.98-3.77c2.14-0.21,3.41,0.98,3.11,2.93c-0.77,5.1-2.46,14.05-4.13,21.96" class="stroke" stroke-dasharray="150"><set attributeName="opacity" to="0" dur="9.1s" /><animate attributeName="stroke-dashoffset" from="150" to="0" dur="1.8s" begin="9.1s" fill="freeze" /></path><path d="M52.7,92.74c6.87-0.64,23.8-2.24,33.76-2.71" class="stroke" stroke-dasharray="150"><set attributeName="opacity" to="0" dur="10.6s" /><animate attributeName="stroke-dashoffset" from="150" to="0" dur="1.8s" begin="10.6s" fill="freeze" /></path><text x="90" y="120" id="reset">⟳</text><text x="70" y="120" id="pause">◼</text><script type="text/javascript"><![CDATA[function RecurringTimer(e,t){var n,r,i=t;this.pause=function(){window.clearTimeout(n);i-=new Date-r};var s=function(){r=new Date;n=window.setTimeout(function(){i=t;s();e()},i)};this.clear=function(){window.clearTimeout(n);i=t;n=window.setTimeout(function(){i=t;s();e()},i)};this.resume=s;this.resume()}function invoketimer(){timer=new RecurringTimer(function(){svg.setCurrentTime(0)},12600)}var svg=document.getElementById("kanjivg");var pause=document.getElementById("pause");var reset=document.getElementById("reset");var timer;invoketimer();reset.onclick=function(){svg.setCurrentTime(0);timer.clear();svg.unpauseAnimations();pause.innerHTML = "◼";};pause.onclick=function(){if(svg.animationsPaused()){svg.unpauseAnimations();timer.resume();pause.innerHTML="◼"}else{svg.pauseAnimations();timer.pause();pause.innerHTML="▶"}}]]></script></svg>