<svg id="kanjivg" width="106" height="126" xmlns="http://www.w3.org/2000/svg" xmlns:xlink="http://www.w3.org/1999/xlink" xml:space="preserve" version="1.1" baseProfile="full"><defs><style type="text/css"><![CDATA[path.black { fill:none;stroke:black;stroke-width:5;stroke-linecap:round;stroke-linejoin:round; }path.grey { fill:none;stroke:#ddd;stroke-width:5;stroke-linecap:round;stroke-linejoin:round; }path.stroke { fill:none;stroke:black;stroke-width:5;stroke-linecap:round;stroke-linejoin:round; }rect { fill:none;stroke:#555;stroke-width:2;} text{font-size:16px;font-family:Segoe UI Symbol,Cambria Math,DejaVu Sans,Symbola,Quivira,STIX,Code2000;-webkit-touch-callout:none;cursor:pointer;-webkit-user-select:none;-khtml-user-select:none;-moz-user-select:none;-ms-user-select:none;user-select: none;} #reset { font-weight:bold; }]]></style><marker id="markerStart" markerWidth="8" markerHeight="8" style="overflow:visible;"><circle cx="0" cy="0" r="1.5" style="stroke:none;fill:red;fill-opacity:0.5;"/></marker><marker id="markerEnd" style="overflow:visible;"><circle cx="0" cy="0" r="0.8" style="stroke:none;fill:blue;fill-opacity:0.5;"><animate attributeName="opacity" from="1" to="0" dur="3s" repeatCount="indefinite" /></circle></marker></defs><rect x="4" y="4" width="100" height="100" /><path d="M8.25,34.75c0.34,0.43,0.69,0.79,0.83,1.33c1.17,4.26,3.08,17.52,3.88,25.17" class="grey" /><path d="M10.36,36.8c8.54-1.87,13.64-3,17.61-3.56c1.45-0.21,2.32,1.21,2.11,2.42c-0.86,4.98-1.86,12.68-3.14,19.56" class="grey" /><path d="M12.62,57.69c4.66-0.63,10.28-0.89,16.67-1.86" class="grey" /><path d="M46.51,13.25c0.83,0.52,2.18,2.54,2.18,3.58c0,3.83-0.11,8.69-0.11,13.81" class="grey" /><path d="M35.05,31.35c0.67,0.32,2.09,0.53,2.71,0.45c6.12-0.79,14.94-1.47,23.25-3.22c1.04-0.22,2-0.44,2.78,0.09" class="grey" /><path d="M47.25,41.1c2.21,0.89,6.89,2.51,10.24,3.41c1.17,0.32,2.06,2.37,1.84,4.09c-1.67,13.42-6.63,30.7-12.73,40.09c-3.74,5.76-6.17-0.23-7.28-1" class="grey" /><path d="M46.56,33.67c0.26,1.51,0.21,3.21-0.1,4.91c-2.11,11.71-8.21,35.37-17.69,46.45" class="grey" /><path d="M78.23,13.97c0.04,0.92,0.18,2.42-0.08,3.72c-1.67,8.46-6.77,24.3-13.79,35.57" class="grey" /><path d="M78.18,17.3c2.59,6.76,13.77,28.83,16.63,33.78c0.97,1.68,2.22,2.4,3.19,2.88" class="grey" /><path d="M73.28,54.42c3.8,1.65,9.82,6.8,10.77,9.38" class="grey" /><path d="M69.18,75.78c6.58,3.25,17,13.38,18.64,18.44" class="grey" /><path d="M8.25,34.75c0.34,0.43,0.69,0.79,0.83,1.33c1.17,4.26,3.08,17.52,3.88,25.17" class="stroke" stroke-dasharray="150"><animate attributeName="stroke-dashoffset" from="150" to="0" dur="1.8s" begin="0s" fill="freeze" /></path><path d="M10.36,36.8c8.54-1.87,13.64-3,17.61-3.56c1.45-0.21,2.32,1.21,2.11,2.42c-0.86,4.98-1.86,12.68-3.14,19.56" class="stroke" stroke-dasharray="150"><set attributeName="opacity" to="0" dur="1.0s" /><animate attributeName="stroke-dashoffset" from="150" to="0" dur="1.8s" begin="1.0s" fill="freeze" /></path><path d="M12.62,57.69c4.66-0.63,10.28-0.89,16.67-1.86" class="stroke" stroke-dasharray="150"><set attributeName="opacity" to="0" dur="2.1s" /><animate attributeName="stroke-dashoffset" from="150" to="0" dur="1.8s" begin="2.1s" fill="freeze" /></path><path d="M46.51,13.25c0.83,0.52,2.18,2.54,2.18,3.58c0,3.83-0.11,8.69-0.11,13.81" class="stroke" stroke-dasharray="150"><set attributeName="opacity" to="0" dur="3.0s" /><animate attributeName="stroke-dashoffset" from="150" to="0" dur="1.8s" begin="3.0s" fill="freeze" /></path><path d="M35.05,31.35c0.67,0.32,2.09,0.53,2.71,0.45c6.12-0.79,14.94-1.47,23.25-3.22c1.04-0.22,2-0.44,2.78,0.09" class="stroke" stroke-dasharray="150"><set attributeName="opacity" to="0" dur="3.9s" /><animate attributeName="stroke-dashoffset" from="150" to="0" dur="1.8s" begin="3.9s" fill="freeze" /></path><path d="M47.25,41.1c2.21,0.89,6.89,2.51,10.24,3.41c1.17,0.32,2.06,2.37,1.84,4.09c-1.67,13.42-6.63,30.7-12.73,40.09c-3.74,5.76-6.17-0.23-7.28-1" class="stroke" stroke-dasharray="150"><set attributeName="opacity" to="0" dur="4.9s" /><animate attributeName="stroke-dashoffset" from="150" to="0" dur="1.8s" begin="4.9s" fill="freeze" /></path><path d="M46.56,33.67c0.26,1.51,0.21,3.21-0.1,4.91c-2.11,11.71-8.21,35.37-17.69,46.45" class="stroke" stroke-dasharray="150"><set attributeName="opacity" to="0" dur="6.4s" /><animate attributeName="stroke-dashoffset" from="150" to="0" dur="1.8s" begin="6.4s" fill="freeze" /></path><path d="M78.23,13.97c0.04,0.92,0.18,2.42-0.08,3.72c-1.67,8.46-6.77,24.3-13.79,35.57" class="stroke" stroke-dasharray="150"><set attributeName="opacity" to="0" dur="7.800000000000001s" /><animate attributeName="stroke-dashoffset" from="150" to="0" dur="1.8s" begin="7.800000000000001s" fill="freeze" /></path><path d="M78.18,17.3c2.59,6.76,13.77,28.83,16.63,33.78c0.97,1.68,2.22,2.4,3.19,2.88" class="stroke" stroke-dasharray="150"><set attributeName="opacity" to="0" dur="8.9s" /><animate attributeName="stroke-dashoffset" from="150" to="0" dur="1.8s" begin="8.9s" fill="freeze" /></path><path d="M73.28,54.42c3.8,1.65,9.82,6.8,10.77,9.38" class="stroke" stroke-dasharray="150"><set attributeName="opacity" to="0" dur="10.0s" /><animate attributeName="stroke-dashoffset" from="150" to="0" dur="1.8s" begin="10.0s" fill="freeze" /></path><path d="M69.18,75.78c6.58,3.25,17,13.38,18.64,18.44" class="stroke" stroke-dasharray="150"><set attributeName="opacity" to="0" dur="10.9s" /><animate attributeName="stroke-dashoffset" from="150" to="0" dur="1.8s" begin="10.9s" fill="freeze" /></path><text x="90" y="120" id="reset">⟳</text><text x="70" y="120" id="pause">◼</text><script type="text/javascript"><![CDATA[function RecurringTimer(e,t){var n,r,i=t;this.pause=function(){window.clearTimeout(n);i-=new Date-r};var s=function(){r=new Date;n=window.setTimeout(function(){i=t;s();e()},i)};this.clear=function(){window.clearTimeout(n);i=t;n=window.setTimeout(function(){i=t;s();e()},i)};this.resume=s;this.resume()}function invoketimer(){timer=new RecurringTimer(function(){svg.setCurrentTime(0)},12900)}var svg=document.getElementById("kanjivg");var pause=document.getElementById("pause");var reset=document.getElementById("reset");var timer;invoketimer();reset.onclick=function(){svg.setCurrentTime(0);timer.clear();svg.unpauseAnimations();pause.innerHTML = "◼";};pause.onclick=function(){if(svg.animationsPaused()){svg.unpauseAnimations();timer.resume();pause.innerHTML="◼"}else{svg.pauseAnimations();timer.pause();pause.innerHTML="▶"}}]]></script></svg>