<svg id="kanjivg" width="106" height="126" xmlns="http://www.w3.org/2000/svg" xmlns:xlink="http://www.w3.org/1999/xlink" xml:space="preserve" version="1.1" baseProfile="full"><defs><style type="text/css"><![CDATA[path.black { fill:none;stroke:black;stroke-width:5;stroke-linecap:round;stroke-linejoin:round; }path.grey { fill:none;stroke:#ddd;stroke-width:5;stroke-linecap:round;stroke-linejoin:round; }path.stroke { fill:none;stroke:black;stroke-width:5;stroke-linecap:round;stroke-linejoin:round; }rect { fill:none;stroke:#555;stroke-width:2;} text{font-size:16px;font-family:Segoe UI Symbol,Cambria Math,DejaVu Sans,Symbola,Quivira,STIX,Code2000;-webkit-touch-callout:none;cursor:pointer;-webkit-user-select:none;-khtml-user-select:none;-moz-user-select:none;-ms-user-select:none;user-select: none;} #reset { font-weight:bold; }]]></style><marker id="markerStart" markerWidth="8" markerHeight="8" style="overflow:visible;"><circle cx="0" cy="0" r="1.5" style="stroke:none;fill:red;fill-opacity:0.5;"/></marker><marker id="markerEnd" style="overflow:visible;"><circle cx="0" cy="0" r="0.8" style="stroke:none;fill:blue;fill-opacity:0.5;"><animate attributeName="opacity" from="1" to="0" dur="3s" repeatCount="indefinite" /></circle></marker></defs><rect x="4" y="4" width="100" height="100" /><path d="M12.75,29.88c0.81,0.81,1.25,2.12,1.47,3.38c0.95,5.48,1.66,13.3,2.38,21.01c0.18,1.93,0.36,3.86,0.55,5.74" class="grey" /><path d="M14.95,32.17c9.63-1.25,16.32-1.84,20.93-2.43c2.75-0.35,4.62,0.21,4.08,3.41c-0.97,5.86-2.1,11.6-3.53,19.71" class="grey" /><path d="M17.58,55.42c5.75-0.55,10.51-0.99,17.18-1.49c1.36-0.1,2.81-0.21,4.36-0.31" class="grey" /><path d="M49.52,18.57c0.83,0.83,1.53,2.04,1.53,2.96c0,0.7,1.72,15.76,2.55,23.23c0.27,2.39,0.44,4,0.44,4.11" class="grey" /><path d="M51.69,19.93c10.39-1.59,27.59-3.13,32.94-3.57c2.85-0.23,4.98,0.98,4.46,4.14c-0.86,5.38-1.96,12.65-4.32,21.79c-0.29,1.13-0.6,2.29-0.94,3.48" class="grey" /><path d="M53.33,32.68c7.42-0.68,25.79-2.55,33.22-2.73" class="grey" /><path d="M54.94,45.66c6.06-0.5,19.81-1.91,28.6-2.25" class="grey" /><path d="M44.02,58.49c0.87,0.87,1.51,2.2,1.65,3.25c0.24,1.81,2.12,17.51,3.21,26.51c0.42,3.48,0.73,5.96,0.79,6.25" class="grey" /><path d="M46.12,59.87c7-0.74,35.87-2.93,43.75-3.51c4.02-0.29,5.43,1.54,4.85,5.4c-0.92,6.07-3.14,17.17-4.67,24.9c-0.32,1.6-0.6,3.05-0.84,4.29" class="grey" /><path d="M48.44,73.97c9.31-0.72,38.22-2.34,43.18-2.34" class="grey" /><path d="M50.24,89.52c8.94-0.57,27.23-1.09,38.37-1.58" class="grey" /><path d="M12.75,29.88c0.81,0.81,1.25,2.12,1.47,3.38c0.95,5.48,1.66,13.3,2.38,21.01c0.18,1.93,0.36,3.86,0.55,5.74" class="stroke" stroke-dasharray="150"><animate attributeName="stroke-dashoffset" from="150" to="0" dur="1.8s" begin="0s" fill="freeze" /></path><path d="M14.95,32.17c9.63-1.25,16.32-1.84,20.93-2.43c2.75-0.35,4.62,0.21,4.08,3.41c-0.97,5.86-2.1,11.6-3.53,19.71" class="stroke" stroke-dasharray="150"><set attributeName="opacity" to="0" dur="1.0s" /><animate attributeName="stroke-dashoffset" from="150" to="0" dur="1.8s" begin="1.0s" fill="freeze" /></path><path d="M17.58,55.42c5.75-0.55,10.51-0.99,17.18-1.49c1.36-0.1,2.81-0.21,4.36-0.31" class="stroke" stroke-dasharray="150"><set attributeName="opacity" to="0" dur="2.2s" /><animate attributeName="stroke-dashoffset" from="150" to="0" dur="1.8s" begin="2.2s" fill="freeze" /></path><path d="M49.52,18.57c0.83,0.83,1.53,2.04,1.53,2.96c0,0.7,1.72,15.76,2.55,23.23c0.27,2.39,0.44,4,0.44,4.11" class="stroke" stroke-dasharray="150"><set attributeName="opacity" to="0" dur="3.2s" /><animate attributeName="stroke-dashoffset" from="150" to="0" dur="1.8s" begin="3.2s" fill="freeze" /></path><path d="M51.69,19.93c10.39-1.59,27.59-3.13,32.94-3.57c2.85-0.23,4.98,0.98,4.46,4.14c-0.86,5.38-1.96,12.65-4.32,21.79c-0.29,1.13-0.6,2.29-0.94,3.48" class="stroke" stroke-dasharray="150"><set attributeName="opacity" to="0" dur="4.2s" /><animate attributeName="stroke-dashoffset" from="150" to="0" dur="1.8s" begin="4.2s" fill="freeze" /></path><path d="M53.33,32.68c7.42-0.68,25.79-2.55,33.22-2.73" class="stroke" stroke-dasharray="150"><set attributeName="opacity" to="0" dur="5.7s" /><animate attributeName="stroke-dashoffset" from="150" to="0" dur="1.8s" begin="5.7s" fill="freeze" /></path><path d="M54.94,45.66c6.06-0.5,19.81-1.91,28.6-2.25" class="stroke" stroke-dasharray="150"><set attributeName="opacity" to="0" dur="6.7s" /><animate attributeName="stroke-dashoffset" from="150" to="0" dur="1.8s" begin="6.7s" fill="freeze" /></path><path d="M44.02,58.49c0.87,0.87,1.51,2.2,1.65,3.25c0.24,1.81,2.12,17.51,3.21,26.51c0.42,3.48,0.73,5.96,0.79,6.25" class="stroke" stroke-dasharray="150"><set attributeName="opacity" to="0" dur="7.7s" /><animate attributeName="stroke-dashoffset" from="150" to="0" dur="1.8s" begin="7.7s" fill="freeze" /></path><path d="M46.12,59.87c7-0.74,35.87-2.93,43.75-3.51c4.02-0.29,5.43,1.54,4.85,5.4c-0.92,6.07-3.14,17.17-4.67,24.9c-0.32,1.6-0.6,3.05-0.84,4.29" class="stroke" stroke-dasharray="150"><set attributeName="opacity" to="0" dur="8.7s" /><animate attributeName="stroke-dashoffset" from="150" to="0" dur="1.8s" begin="8.7s" fill="freeze" /></path><path d="M48.44,73.97c9.31-0.72,38.22-2.34,43.18-2.34" class="stroke" stroke-dasharray="150"><set attributeName="opacity" to="0" dur="10.399999999999999s" /><animate attributeName="stroke-dashoffset" from="150" to="0" dur="1.8s" begin="10.399999999999999s" fill="freeze" /></path><path d="M50.24,89.52c8.94-0.57,27.23-1.09,38.37-1.58" class="stroke" stroke-dasharray="150"><set attributeName="opacity" to="0" dur="11.499999999999998s" /><animate attributeName="stroke-dashoffset" from="150" to="0" dur="1.8s" begin="11.499999999999998s" fill="freeze" /></path><text x="90" y="120" id="reset">⟳</text><text x="70" y="120" id="pause">◼</text><script type="text/javascript"><![CDATA[function RecurringTimer(e,t){var n,r,i=t;this.pause=function(){window.clearTimeout(n);i-=new Date-r};var s=function(){r=new Date;n=window.setTimeout(function(){i=t;s();e()},i)};this.clear=function(){window.clearTimeout(n);i=t;n=window.setTimeout(function(){i=t;s();e()},i)};this.resume=s;this.resume()}function invoketimer(){timer=new RecurringTimer(function(){svg.setCurrentTime(0)},13499)}var svg=document.getElementById("kanjivg");var pause=document.getElementById("pause");var reset=document.getElementById("reset");var timer;invoketimer();reset.onclick=function(){svg.setCurrentTime(0);timer.clear();svg.unpauseAnimations();pause.innerHTML = "◼";};pause.onclick=function(){if(svg.animationsPaused()){svg.unpauseAnimations();timer.resume();pause.innerHTML="◼"}else{svg.pauseAnimations();timer.pause();pause.innerHTML="▶"}}]]></script></svg>