<svg id="kanjivg" width="106" height="126" xmlns="http://www.w3.org/2000/svg" xmlns:xlink="http://www.w3.org/1999/xlink" xml:space="preserve" version="1.1" baseProfile="full"><defs><style type="text/css"><![CDATA[path.black { fill:none;stroke:black;stroke-width:5;stroke-linecap:round;stroke-linejoin:round; }path.grey { fill:none;stroke:#ddd;stroke-width:5;stroke-linecap:round;stroke-linejoin:round; }path.stroke { fill:none;stroke:black;stroke-width:5;stroke-linecap:round;stroke-linejoin:round; }rect { fill:none;stroke:#555;stroke-width:2;} text{font-size:16px;font-family:Segoe UI Symbol,Cambria Math,DejaVu Sans,Symbola,Quivira,STIX,Code2000;-webkit-touch-callout:none;cursor:pointer;-webkit-user-select:none;-khtml-user-select:none;-moz-user-select:none;-ms-user-select:none;user-select: none;} #reset { font-weight:bold; }]]></style><marker id="markerStart" markerWidth="8" markerHeight="8" style="overflow:visible;"><circle cx="0" cy="0" r="1.5" style="stroke:none;fill:red;fill-opacity:0.5;"/></marker><marker id="markerEnd" style="overflow:visible;"><circle cx="0" cy="0" r="0.8" style="stroke:none;fill:blue;fill-opacity:0.5;"><animate attributeName="opacity" from="1" to="0" dur="3s" repeatCount="indefinite" /></circle></marker></defs><rect x="4" y="4" width="100" height="100" /><path d="M12.75,29.88c0.39,0.53,0.79,0.97,0.97,1.62c1.36,5.22,2.49,19.12,3.42,28.5" class="grey" /><path d="M14.7,32.42C25,31,33.02,30.18,37.62,29.49c1.68-0.25,2.69,1.49,2.45,2.96c-1,6.1-2.16,11.97-3.64,20.4" class="grey" /><path d="M17.83,55.42c6.92-0.67,11.42-1.42,20.78-1.81" class="grey" /><path d="M49.77,18.57c0.39,0.69,1.28,2.04,1.28,2.96c0,0.92,2.74,24.88,2.74,25.34c0,0.46,0.13,0.46,0.26,1.38" class="grey" /><path d="M51.69,19.68c2.2-0.12,32.41-3.3,34.42-3.44c1.67-0.12,3.39,1.76,3.11,3.46c-0.99,6.09-2.22,14.8-5.39,26.07" class="grey" /><path d="M52.58,32.68c6.04-0.55,12.1-0.89,18.16-1.29c1.77-0.12,3.53-0.23,5.21-0.34" class="grey" /><path d="M53.94,45.66c6.06-0.5,22.81-1.82,30.35-2.25" class="grey" /><path d="M44.52,58.49c0.57,0.79,1.01,1.7,1.15,2.75c0.33,2.51,3.62,29.64,3.62,30.17c0,0.53,0.19,2.03,0.38,3.09" class="grey" /><path d="M46.62,59.62c3.24-0.13,42.03-3.22,44.99-3.38c2.46-0.13,3.54,2.27,3.39,3.51C94.25,66,90.75,83,89.21,90.95" class="grey" /><path d="M47.69,73.97c7.98-0.62,15.98-1.02,23.97-1.44c2.35-0.12,4.66-0.24,6.85-0.35" class="grey" /><path d="M49.99,90.02c8.94-0.57,28.73-1.59,39.87-2.08" class="grey" /><path d="M12.75,29.88c0.39,0.53,0.79,0.97,0.97,1.62c1.36,5.22,2.49,19.12,3.42,28.5" class="stroke" stroke-dasharray="150"><animate attributeName="stroke-dashoffset" from="150" to="0" dur="1.8s" begin="0s" fill="freeze" /></path><path d="M14.7,32.42C25,31,33.02,30.18,37.62,29.49c1.68-0.25,2.69,1.49,2.45,2.96c-1,6.1-2.16,11.97-3.64,20.4" class="stroke" stroke-dasharray="150"><set attributeName="opacity" to="0" dur="1.0s" /><animate attributeName="stroke-dashoffset" from="150" to="0" dur="1.8s" begin="1.0s" fill="freeze" /></path><path d="M17.83,55.42c6.92-0.67,11.42-1.42,20.78-1.81" class="stroke" stroke-dasharray="150"><set attributeName="opacity" to="0" dur="2.2s" /><animate attributeName="stroke-dashoffset" from="150" to="0" dur="1.8s" begin="2.2s" fill="freeze" /></path><path d="M49.77,18.57c0.39,0.69,1.28,2.04,1.28,2.96c0,0.92,2.74,24.88,2.74,25.34c0,0.46,0.13,0.46,0.26,1.38" class="stroke" stroke-dasharray="150"><set attributeName="opacity" to="0" dur="3.2s" /><animate attributeName="stroke-dashoffset" from="150" to="0" dur="1.8s" begin="3.2s" fill="freeze" /></path><path d="M51.69,19.68c2.2-0.12,32.41-3.3,34.42-3.44c1.67-0.12,3.39,1.76,3.11,3.46c-0.99,6.09-2.22,14.8-5.39,26.07" class="stroke" stroke-dasharray="150"><set attributeName="opacity" to="0" dur="4.2s" /><animate attributeName="stroke-dashoffset" from="150" to="0" dur="1.8s" begin="4.2s" fill="freeze" /></path><path d="M52.58,32.68c6.04-0.55,12.1-0.89,18.16-1.29c1.77-0.12,3.53-0.23,5.21-0.34" class="stroke" stroke-dasharray="150"><set attributeName="opacity" to="0" dur="5.7s" /><animate attributeName="stroke-dashoffset" from="150" to="0" dur="1.8s" begin="5.7s" fill="freeze" /></path><path d="M53.94,45.66c6.06-0.5,22.81-1.82,30.35-2.25" class="stroke" stroke-dasharray="150"><set attributeName="opacity" to="0" dur="6.7s" /><animate attributeName="stroke-dashoffset" from="150" to="0" dur="1.8s" begin="6.7s" fill="freeze" /></path><path d="M44.52,58.49c0.57,0.79,1.01,1.7,1.15,2.75c0.33,2.51,3.62,29.64,3.62,30.17c0,0.53,0.19,2.03,0.38,3.09" class="stroke" stroke-dasharray="150"><set attributeName="opacity" to="0" dur="7.7s" /><animate attributeName="stroke-dashoffset" from="150" to="0" dur="1.8s" begin="7.7s" fill="freeze" /></path><path d="M46.62,59.62c3.24-0.13,42.03-3.22,44.99-3.38c2.46-0.13,3.54,2.27,3.39,3.51C94.25,66,90.75,83,89.21,90.95" class="stroke" stroke-dasharray="150"><set attributeName="opacity" to="0" dur="8.7s" /><animate attributeName="stroke-dashoffset" from="150" to="0" dur="1.8s" begin="8.7s" fill="freeze" /></path><path d="M47.69,73.97c7.98-0.62,15.98-1.02,23.97-1.44c2.35-0.12,4.66-0.24,6.85-0.35" class="stroke" stroke-dasharray="150"><set attributeName="opacity" to="0" dur="10.399999999999999s" /><animate attributeName="stroke-dashoffset" from="150" to="0" dur="1.8s" begin="10.399999999999999s" fill="freeze" /></path><path d="M49.99,90.02c8.94-0.57,28.73-1.59,39.87-2.08" class="stroke" stroke-dasharray="150"><set attributeName="opacity" to="0" dur="11.399999999999999s" /><animate attributeName="stroke-dashoffset" from="150" to="0" dur="1.8s" begin="11.399999999999999s" fill="freeze" /></path><text x="90" y="120" id="reset">⟳</text><text x="70" y="120" id="pause">◼</text><script type="text/javascript"><![CDATA[function RecurringTimer(e,t){var n,r,i=t;this.pause=function(){window.clearTimeout(n);i-=new Date-r};var s=function(){r=new Date;n=window.setTimeout(function(){i=t;s();e()},i)};this.clear=function(){window.clearTimeout(n);i=t;n=window.setTimeout(function(){i=t;s();e()},i)};this.resume=s;this.resume()}function invoketimer(){timer=new RecurringTimer(function(){svg.setCurrentTime(0)},13399)}var svg=document.getElementById("kanjivg");var pause=document.getElementById("pause");var reset=document.getElementById("reset");var timer;invoketimer();reset.onclick=function(){svg.setCurrentTime(0);timer.clear();svg.unpauseAnimations();pause.innerHTML = "◼";};pause.onclick=function(){if(svg.animationsPaused()){svg.unpauseAnimations();timer.resume();pause.innerHTML="◼"}else{svg.pauseAnimations();timer.pause();pause.innerHTML="▶"}}]]></script></svg>