<svg id="kanjivg" width="106" height="126" xmlns="http://www.w3.org/2000/svg" xmlns:xlink="http://www.w3.org/1999/xlink" xml:space="preserve" version="1.1" baseProfile="full"><defs><style type="text/css"><![CDATA[path.black { fill:none;stroke:black;stroke-width:5;stroke-linecap:round;stroke-linejoin:round; }path.grey { fill:none;stroke:#ddd;stroke-width:5;stroke-linecap:round;stroke-linejoin:round; }path.stroke { fill:none;stroke:black;stroke-width:5;stroke-linecap:round;stroke-linejoin:round; }rect { fill:none;stroke:#555;stroke-width:2;} text{font-size:16px;font-family:Segoe UI Symbol,Cambria Math,DejaVu Sans,Symbola,Quivira,STIX,Code2000;-webkit-touch-callout:none;cursor:pointer;-webkit-user-select:none;-khtml-user-select:none;-moz-user-select:none;-ms-user-select:none;user-select: none;} #reset { font-weight:bold; }]]></style><marker id="markerStart" markerWidth="8" markerHeight="8" style="overflow:visible;"><circle cx="0" cy="0" r="1.5" style="stroke:none;fill:red;fill-opacity:0.5;"/></marker><marker id="markerEnd" style="overflow:visible;"><circle cx="0" cy="0" r="0.8" style="stroke:none;fill:blue;fill-opacity:0.5;"><animate attributeName="opacity" from="1" to="0" dur="3s" repeatCount="indefinite" /></circle></marker></defs><rect x="4" y="4" width="100" height="100" /><path d="M9.75,34.09c0.36,0.45,0.73,0.83,0.89,1.4c1.25,4.5,3.26,18.42,4.11,26.51" class="grey" /><path d="M11,36.25c9.13-1.98,16.08-3.17,20.31-3.76c1.55-0.22,2.48,1.28,2.26,2.55c-0.92,5.26-2.49,13.39-3.85,20.67" class="grey" /><path d="M14.92,58.33c4.98-0.67,10.48-1.43,17.31-2.46" class="grey" /><path d="M62.42,12.25c0.07,0.85,0.24,2.22-0.13,3.4c-2.63,8.19-10.42,21.48-23.2,32.5" class="grey" /><path d="M62.99,16.35c4.21,5.35,22.36,22.8,27,26.72c1.58,1.33,3.6,1.9,5.17,2.27" class="grey" /><path d="M53.25,40.55c0.3,0.14,2.11,0.16,2.4,0.14c3.08-0.16,10.09-1.44,13.7-2.15c0.48-0.1,2.55,0.07,2.8,0.14" class="grey" /><path d="M47.59,53.65c0.78,0.37,1.23,0.57,3.11,0.27c7.31-1.17,18.89-3.21,24.12-4.16c3.1-0.57,3.81,1.35,2.34,4.26C74,60.25,72.75,62,67.97,68.72" class="grey" /><path d="M40.66,77.58c0.26,2.34-2.61,12.67-4.7,16.58" class="grey" /><path d="M49.57,76.26c5.83,13.98,16.83,23.81,35.97,21.38c5.27-0.67,5.27-2.7,2.38-5.71" class="grey" /><path d="M65.43,74.25c2.16,5.94,5.41,8.9,6.43,3.06" class="grey" /><path d="M86.56,74.66c4.82,1.51,8.44,2.89,12.35,7.57" class="grey" /><path d="M9.75,34.09c0.36,0.45,0.73,0.83,0.89,1.4c1.25,4.5,3.26,18.42,4.11,26.51" class="stroke" stroke-dasharray="150"><animate attributeName="stroke-dashoffset" from="150" to="0" dur="1.8s" begin="0s" fill="freeze" /></path><path d="M11,36.25c9.13-1.98,16.08-3.17,20.31-3.76c1.55-0.22,2.48,1.28,2.26,2.55c-0.92,5.26-2.49,13.39-3.85,20.67" class="stroke" stroke-dasharray="150"><set attributeName="opacity" to="0" dur="1.0s" /><animate attributeName="stroke-dashoffset" from="150" to="0" dur="1.8s" begin="1.0s" fill="freeze" /></path><path d="M14.92,58.33c4.98-0.67,10.48-1.43,17.31-2.46" class="stroke" stroke-dasharray="150"><set attributeName="opacity" to="0" dur="2.2s" /><animate attributeName="stroke-dashoffset" from="150" to="0" dur="1.8s" begin="2.2s" fill="freeze" /></path><path d="M62.42,12.25c0.07,0.85,0.24,2.22-0.13,3.4c-2.63,8.19-10.42,21.48-23.2,32.5" class="stroke" stroke-dasharray="150"><set attributeName="opacity" to="0" dur="3.1s" /><animate attributeName="stroke-dashoffset" from="150" to="0" dur="1.8s" begin="3.1s" fill="freeze" /></path><path d="M62.99,16.35c4.21,5.35,22.36,22.8,27,26.72c1.58,1.33,3.6,1.9,5.17,2.27" class="stroke" stroke-dasharray="150"><set attributeName="opacity" to="0" dur="4.2s" /><animate attributeName="stroke-dashoffset" from="150" to="0" dur="1.8s" begin="4.2s" fill="freeze" /></path><path d="M53.25,40.55c0.3,0.14,2.11,0.16,2.4,0.14c3.08-0.16,10.09-1.44,13.7-2.15c0.48-0.1,2.55,0.07,2.8,0.14" class="stroke" stroke-dasharray="150"><set attributeName="opacity" to="0" dur="5.300000000000001s" /><animate attributeName="stroke-dashoffset" from="150" to="0" dur="1.8s" begin="5.300000000000001s" fill="freeze" /></path><path d="M47.59,53.65c0.78,0.37,1.23,0.57,3.11,0.27c7.31-1.17,18.89-3.21,24.12-4.16c3.1-0.57,3.81,1.35,2.34,4.26C74,60.25,72.75,62,67.97,68.72" class="stroke" stroke-dasharray="150"><set attributeName="opacity" to="0" dur="6.200000000000001s" /><animate attributeName="stroke-dashoffset" from="150" to="0" dur="1.8s" begin="6.200000000000001s" fill="freeze" /></path><path d="M40.66,77.58c0.26,2.34-2.61,12.67-4.7,16.58" class="stroke" stroke-dasharray="150"><set attributeName="opacity" to="0" dur="7.500000000000001s" /><animate attributeName="stroke-dashoffset" from="150" to="0" dur="1.8s" begin="7.500000000000001s" fill="freeze" /></path><path d="M49.57,76.26c5.83,13.98,16.83,23.81,35.97,21.38c5.27-0.67,5.27-2.7,2.38-5.71" class="stroke" stroke-dasharray="150"><set attributeName="opacity" to="0" dur="8.4s" /><animate attributeName="stroke-dashoffset" from="150" to="0" dur="1.8s" begin="8.4s" fill="freeze" /></path><path d="M65.43,74.25c2.16,5.94,5.41,8.9,6.43,3.06" class="stroke" stroke-dasharray="150"><set attributeName="opacity" to="0" dur="9.700000000000001s" /><animate attributeName="stroke-dashoffset" from="150" to="0" dur="1.8s" begin="9.700000000000001s" fill="freeze" /></path><path d="M86.56,74.66c4.82,1.51,8.44,2.89,12.35,7.57" class="stroke" stroke-dasharray="150"><set attributeName="opacity" to="0" dur="10.600000000000001s" /><animate attributeName="stroke-dashoffset" from="150" to="0" dur="1.8s" begin="10.600000000000001s" fill="freeze" /></path><text x="90" y="120" id="reset">⟳</text><text x="70" y="120" id="pause">◼</text><script type="text/javascript"><![CDATA[function RecurringTimer(e,t){var n,r,i=t;this.pause=function(){window.clearTimeout(n);i-=new Date-r};var s=function(){r=new Date;n=window.setTimeout(function(){i=t;s();e()},i)};this.clear=function(){window.clearTimeout(n);i=t;n=window.setTimeout(function(){i=t;s();e()},i)};this.resume=s;this.resume()}function invoketimer(){timer=new RecurringTimer(function(){svg.setCurrentTime(0)},12500)}var svg=document.getElementById("kanjivg");var pause=document.getElementById("pause");var reset=document.getElementById("reset");var timer;invoketimer();reset.onclick=function(){svg.setCurrentTime(0);timer.clear();svg.unpauseAnimations();pause.innerHTML = "◼";};pause.onclick=function(){if(svg.animationsPaused()){svg.unpauseAnimations();timer.resume();pause.innerHTML="◼"}else{svg.pauseAnimations();timer.pause();pause.innerHTML="▶"}}]]></script></svg>