<svg id="kanjivg" width="106" height="126" xmlns="http://www.w3.org/2000/svg" xmlns:xlink="http://www.w3.org/1999/xlink" xml:space="preserve" version="1.1" baseProfile="full"><defs><style type="text/css"><![CDATA[path.black { fill:none;stroke:black;stroke-width:5;stroke-linecap:round;stroke-linejoin:round; }path.grey { fill:none;stroke:#ddd;stroke-width:5;stroke-linecap:round;stroke-linejoin:round; }path.stroke { fill:none;stroke:black;stroke-width:5;stroke-linecap:round;stroke-linejoin:round; }rect { fill:none;stroke:#555;stroke-width:2;} text{font-size:16px;font-family:Segoe UI Symbol,Cambria Math,DejaVu Sans,Symbola,Quivira,STIX,Code2000;-webkit-touch-callout:none;cursor:pointer;-webkit-user-select:none;-khtml-user-select:none;-moz-user-select:none;-ms-user-select:none;user-select: none;} #reset { font-weight:bold; }]]></style><marker id="markerStart" markerWidth="8" markerHeight="8" style="overflow:visible;"><circle cx="0" cy="0" r="1.5" style="stroke:none;fill:red;fill-opacity:0.5;"/></marker><marker id="markerEnd" style="overflow:visible;"><circle cx="0" cy="0" r="0.8" style="stroke:none;fill:blue;fill-opacity:0.5;"><animate attributeName="opacity" from="1" to="0" dur="3s" repeatCount="indefinite" /></circle></marker></defs><rect x="4" y="4" width="100" height="100" /><path d="M11,34.57c0.35,0.45,1.22,1.83,1.37,2.39c1.23,4.46,2.7,16.77,3.54,24.79" class="grey" /><path d="M12.21,36.22c8.94-1.96,15.77-3.14,19.91-3.73c1.52-0.21,2.43,1.27,2.21,2.53c-0.9,5.21-1.95,13.27-3.28,20.48" class="grey" /><path d="M16.07,58.09c4.87-0.66,10.75-1.43,17.43-2.45" class="grey" /><path d="M43.43,18.24c0.86,0.31,3.34,0.36,4.2,0.31c9.94-0.59,22.5-2.2,36.24-4.01c1.42-0.19,3.2,0.15,3.91,0.3" class="grey" /><path d="M43.2,31.35c1.05,0.39,2.64,1.09,4.7,0.81c10.72-1.46,31.26-3.79,37.97-4.49c1.82-0.19,3.65,1.3,2.96,4.17c-1.21,5.08-1.62,6.86-2.49,9.71" class="grey" /><path d="M46.61,46.93c7.14-1.18,30.64-3.68,41.77-4.52" class="grey" /><path d="M45.97,32.75c0.04,1.41,0.3,3.62,0.31,5.65c0.13,25.56-2.53,41.6-15.07,54.1" class="grey" /><path d="M49.84,63.29c0.75,0.4,2.75,0.86,4.34,0.69c10.76-1.19,23.78-3.56,33.44-4.13c1.66-0.1,3-0.05,4.5,0.26" class="grey" /><path d="M67.04,47.96c0.39,0.69,0.59,1.49,0.58,2.99c-0.19,25.91-9.56,39.58-24.97,47.54" class="grey" /><path d="M67.6,62.81c5.54,9.66,17.85,25.9,25.25,31c2.15,1.48,2.76,1.95,3.69,2.12" class="grey" /><path d="M11,34.57c0.35,0.45,1.22,1.83,1.37,2.39c1.23,4.46,2.7,16.77,3.54,24.79" class="stroke" stroke-dasharray="150"><animate attributeName="stroke-dashoffset" from="150" to="0" dur="1.8s" begin="0s" fill="freeze" /></path><path d="M12.21,36.22c8.94-1.96,15.77-3.14,19.91-3.73c1.52-0.21,2.43,1.27,2.21,2.53c-0.9,5.21-1.95,13.27-3.28,20.48" class="stroke" stroke-dasharray="150"><set attributeName="opacity" to="0" dur="1.0s" /><animate attributeName="stroke-dashoffset" from="150" to="0" dur="1.8s" begin="1.0s" fill="freeze" /></path><path d="M16.07,58.09c4.87-0.66,10.75-1.43,17.43-2.45" class="stroke" stroke-dasharray="150"><set attributeName="opacity" to="0" dur="2.1s" /><animate attributeName="stroke-dashoffset" from="150" to="0" dur="1.8s" begin="2.1s" fill="freeze" /></path><path d="M43.43,18.24c0.86,0.31,3.34,0.36,4.2,0.31c9.94-0.59,22.5-2.2,36.24-4.01c1.42-0.19,3.2,0.15,3.91,0.3" class="stroke" stroke-dasharray="150"><set attributeName="opacity" to="0" dur="3.0s" /><animate attributeName="stroke-dashoffset" from="150" to="0" dur="1.8s" begin="3.0s" fill="freeze" /></path><path d="M43.2,31.35c1.05,0.39,2.64,1.09,4.7,0.81c10.72-1.46,31.26-3.79,37.97-4.49c1.82-0.19,3.65,1.3,2.96,4.17c-1.21,5.08-1.62,6.86-2.49,9.71" class="stroke" stroke-dasharray="150"><set attributeName="opacity" to="0" dur="4.1s" /><animate attributeName="stroke-dashoffset" from="150" to="0" dur="1.8s" begin="4.1s" fill="freeze" /></path><path d="M46.61,46.93c7.14-1.18,30.64-3.68,41.77-4.52" class="stroke" stroke-dasharray="150"><set attributeName="opacity" to="0" dur="5.5s" /><animate attributeName="stroke-dashoffset" from="150" to="0" dur="1.8s" begin="5.5s" fill="freeze" /></path><path d="M45.97,32.75c0.04,1.41,0.3,3.62,0.31,5.65c0.13,25.56-2.53,41.6-15.07,54.1" class="stroke" stroke-dasharray="150"><set attributeName="opacity" to="0" dur="6.6s" /><animate attributeName="stroke-dashoffset" from="150" to="0" dur="1.8s" begin="6.6s" fill="freeze" /></path><path d="M49.84,63.29c0.75,0.4,2.75,0.86,4.34,0.69c10.76-1.19,23.78-3.56,33.44-4.13c1.66-0.1,3-0.05,4.5,0.26" class="stroke" stroke-dasharray="150"><set attributeName="opacity" to="0" dur="8.1s" /><animate attributeName="stroke-dashoffset" from="150" to="0" dur="1.8s" begin="8.1s" fill="freeze" /></path><path d="M67.04,47.96c0.39,0.69,0.59,1.49,0.58,2.99c-0.19,25.91-9.56,39.58-24.97,47.54" class="stroke" stroke-dasharray="150"><set attributeName="opacity" to="0" dur="9.2s" /><animate attributeName="stroke-dashoffset" from="150" to="0" dur="1.8s" begin="9.2s" fill="freeze" /></path><path d="M67.6,62.81c5.54,9.66,17.85,25.9,25.25,31c2.15,1.48,2.76,1.95,3.69,2.12" class="stroke" stroke-dasharray="150"><set attributeName="opacity" to="0" dur="10.6s" /><animate attributeName="stroke-dashoffset" from="150" to="0" dur="1.8s" begin="10.6s" fill="freeze" /></path><text x="90" y="120" id="reset">⟳</text><text x="70" y="120" id="pause">◼</text><script type="text/javascript"><![CDATA[function RecurringTimer(e,t){var n,r,i=t;this.pause=function(){window.clearTimeout(n);i-=new Date-r};var s=function(){r=new Date;n=window.setTimeout(function(){i=t;s();e()},i)};this.clear=function(){window.clearTimeout(n);i=t;n=window.setTimeout(function(){i=t;s();e()},i)};this.resume=s;this.resume()}function invoketimer(){timer=new RecurringTimer(function(){svg.setCurrentTime(0)},12700)}var svg=document.getElementById("kanjivg");var pause=document.getElementById("pause");var reset=document.getElementById("reset");var timer;invoketimer();reset.onclick=function(){svg.setCurrentTime(0);timer.clear();svg.unpauseAnimations();pause.innerHTML = "◼";};pause.onclick=function(){if(svg.animationsPaused()){svg.unpauseAnimations();timer.resume();pause.innerHTML="◼"}else{svg.pauseAnimations();timer.pause();pause.innerHTML="▶"}}]]></script></svg>