<svg id="kanjivg" width="106" height="126" xmlns="http://www.w3.org/2000/svg" xmlns:xlink="http://www.w3.org/1999/xlink" xml:space="preserve" version="1.1" baseProfile="full"><defs><style type="text/css"><![CDATA[path.black { fill:none;stroke:black;stroke-width:5;stroke-linecap:round;stroke-linejoin:round; }path.grey { fill:none;stroke:#ddd;stroke-width:5;stroke-linecap:round;stroke-linejoin:round; }path.stroke { fill:none;stroke:black;stroke-width:5;stroke-linecap:round;stroke-linejoin:round; }rect { fill:none;stroke:#555;stroke-width:2;} text{font-size:16px;font-family:Segoe UI Symbol,Cambria Math,DejaVu Sans,Symbola,Quivira,STIX,Code2000;-webkit-touch-callout:none;cursor:pointer;-webkit-user-select:none;-khtml-user-select:none;-moz-user-select:none;-ms-user-select:none;user-select: none;} #reset { font-weight:bold; }]]></style><marker id="markerStart" markerWidth="8" markerHeight="8" style="overflow:visible;"><circle cx="0" cy="0" r="1.5" style="stroke:none;fill:red;fill-opacity:0.5;"/></marker><marker id="markerEnd" style="overflow:visible;"><circle cx="0" cy="0" r="0.8" style="stroke:none;fill:blue;fill-opacity:0.5;"><animate attributeName="opacity" from="1" to="0" dur="3s" repeatCount="indefinite" /></circle></marker></defs><rect x="4" y="4" width="100" height="100" /><path d="M10.75,34.66c0.37,0.47,0.76,0.87,0.92,1.46c1.29,4.7,3.34,17.18,4.23,25.63" class="grey" /><path d="M13.08,35.92c9.42-2.06,14.55-2.81,18.92-3.43c1.6-0.23,2.56,1.34,2.33,2.67c-0.95,5.49-2.05,12.49-3.46,20.09" class="grey" /><path d="M16.07,57.98c5.14-0.7,9.18-0.98,17.39-2.05" class="grey" /><path d="M43.92,21.3c1.09,0.52,3.09,0.6,4.18,0.52C58.5,21,75.5,19,90.31,18.29c1.81-0.09,2.91,0.25,3.81,0.5" class="grey" /><path d="M47.41,22.44c0.04,1.55,0,3.99-0.08,6.22C46.5,53.5,43.74,74.61,33.5,88.75" class="grey" /><path d="M56.2,40.46c0.62,0.27,1.75,0.34,2.37,0.27c7.94-0.93,20.81-2.98,28.8-3.22c1.03-0.03,1.65,0.13,2.16,0.27" class="grey" /><path d="M70.86,26.62c0.1,0.28,1.48,1.48,1.48,3.29c0,11.66-0.19,10.84-0.19,23.9" class="grey" /><path d="M52.62,54.84c1.1,0.45,3.12,0.51,4.23,0.45c8.9-0.54,26.15-2.29,35.5-2.57c1.84-0.06,2.94,0.21,3.86,0.44" class="grey" /><path d="M55.09,72.21c0.7,0.27,1.97,0.34,2.67,0.27c8.95-0.93,23.05-2.39,32.06-2.63c1.16-0.03,1.86,0.13,2.44,0.27" class="grey" /><path d="M71.4,59.46c0.09,0.36,1.29,1.86,1.29,4.15c0,14.68-0.19,12.09-0.19,25.15" class="grey" /><path d="M46.8,90.33c1.1,0.45,3.13,0.55,4.23,0.45c13.66-1.25,34.09-1.98,46.31-2.57c1.84-0.09,2.94,0.21,3.86,0.44" class="grey" /><path d="M10.75,34.66c0.37,0.47,0.76,0.87,0.92,1.46c1.29,4.7,3.34,17.18,4.23,25.63" class="stroke" stroke-dasharray="150"><animate attributeName="stroke-dashoffset" from="150" to="0" dur="1.8s" begin="0s" fill="freeze" /></path><path d="M13.08,35.92c9.42-2.06,14.55-2.81,18.92-3.43c1.6-0.23,2.56,1.34,2.33,2.67c-0.95,5.49-2.05,12.49-3.46,20.09" class="stroke" stroke-dasharray="150"><set attributeName="opacity" to="0" dur="1.0s" /><animate attributeName="stroke-dashoffset" from="150" to="0" dur="1.8s" begin="1.0s" fill="freeze" /></path><path d="M16.07,57.98c5.14-0.7,9.18-0.98,17.39-2.05" class="stroke" stroke-dasharray="150"><set attributeName="opacity" to="0" dur="2.1s" /><animate attributeName="stroke-dashoffset" from="150" to="0" dur="1.8s" begin="2.1s" fill="freeze" /></path><path d="M43.92,21.3c1.09,0.52,3.09,0.6,4.18,0.52C58.5,21,75.5,19,90.31,18.29c1.81-0.09,2.91,0.25,3.81,0.5" class="stroke" stroke-dasharray="150"><set attributeName="opacity" to="0" dur="3.0s" /><animate attributeName="stroke-dashoffset" from="150" to="0" dur="1.8s" begin="3.0s" fill="freeze" /></path><path d="M47.41,22.44c0.04,1.55,0,3.99-0.08,6.22C46.5,53.5,43.74,74.61,33.5,88.75" class="stroke" stroke-dasharray="150"><set attributeName="opacity" to="0" dur="4.3s" /><animate attributeName="stroke-dashoffset" from="150" to="0" dur="1.8s" begin="4.3s" fill="freeze" /></path><path d="M56.2,40.46c0.62,0.27,1.75,0.34,2.37,0.27c7.94-0.93,20.81-2.98,28.8-3.22c1.03-0.03,1.65,0.13,2.16,0.27" class="stroke" stroke-dasharray="150"><set attributeName="opacity" to="0" dur="5.8s" /><animate attributeName="stroke-dashoffset" from="150" to="0" dur="1.8s" begin="5.8s" fill="freeze" /></path><path d="M70.86,26.62c0.1,0.28,1.48,1.48,1.48,3.29c0,11.66-0.19,10.84-0.19,23.9" class="stroke" stroke-dasharray="150"><set attributeName="opacity" to="0" dur="6.8s" /><animate attributeName="stroke-dashoffset" from="150" to="0" dur="1.8s" begin="6.8s" fill="freeze" /></path><path d="M52.62,54.84c1.1,0.45,3.12,0.51,4.23,0.45c8.9-0.54,26.15-2.29,35.5-2.57c1.84-0.06,2.94,0.21,3.86,0.44" class="stroke" stroke-dasharray="150"><set attributeName="opacity" to="0" dur="7.8s" /><animate attributeName="stroke-dashoffset" from="150" to="0" dur="1.8s" begin="7.8s" fill="freeze" /></path><path d="M55.09,72.21c0.7,0.27,1.97,0.34,2.67,0.27c8.95-0.93,23.05-2.39,32.06-2.63c1.16-0.03,1.86,0.13,2.44,0.27" class="stroke" stroke-dasharray="150"><set attributeName="opacity" to="0" dur="8.9s" /><animate attributeName="stroke-dashoffset" from="150" to="0" dur="1.8s" begin="8.9s" fill="freeze" /></path><path d="M71.4,59.46c0.09,0.36,1.29,1.86,1.29,4.15c0,14.68-0.19,12.09-0.19,25.15" class="stroke" stroke-dasharray="150"><set attributeName="opacity" to="0" dur="9.9s" /><animate attributeName="stroke-dashoffset" from="150" to="0" dur="1.8s" begin="9.9s" fill="freeze" /></path><path d="M46.8,90.33c1.1,0.45,3.13,0.55,4.23,0.45c13.66-1.25,34.09-1.98,46.31-2.57c1.84-0.09,2.94,0.21,3.86,0.44" class="stroke" stroke-dasharray="150"><set attributeName="opacity" to="0" dur="10.9s" /><animate attributeName="stroke-dashoffset" from="150" to="0" dur="1.8s" begin="10.9s" fill="freeze" /></path><text x="90" y="120" id="reset">⟳</text><text x="70" y="120" id="pause">◼</text><script type="text/javascript"><![CDATA[function RecurringTimer(e,t){var n,r,i=t;this.pause=function(){window.clearTimeout(n);i-=new Date-r};var s=function(){r=new Date;n=window.setTimeout(function(){i=t;s();e()},i)};this.clear=function(){window.clearTimeout(n);i=t;n=window.setTimeout(function(){i=t;s();e()},i)};this.resume=s;this.resume()}function invoketimer(){timer=new RecurringTimer(function(){svg.setCurrentTime(0)},13200)}var svg=document.getElementById("kanjivg");var pause=document.getElementById("pause");var reset=document.getElementById("reset");var timer;invoketimer();reset.onclick=function(){svg.setCurrentTime(0);timer.clear();svg.unpauseAnimations();pause.innerHTML = "◼";};pause.onclick=function(){if(svg.animationsPaused()){svg.unpauseAnimations();timer.resume();pause.innerHTML="◼"}else{svg.pauseAnimations();timer.pause();pause.innerHTML="▶"}}]]></script></svg>