<svg id="kanjivg" width="106" height="126" xmlns="http://www.w3.org/2000/svg" xmlns:xlink="http://www.w3.org/1999/xlink" xml:space="preserve" version="1.1" baseProfile="full"><defs><style type="text/css"><![CDATA[path.black { fill:none;stroke:black;stroke-width:5;stroke-linecap:round;stroke-linejoin:round; }path.grey { fill:none;stroke:#ddd;stroke-width:5;stroke-linecap:round;stroke-linejoin:round; }path.stroke { fill:none;stroke:black;stroke-width:5;stroke-linecap:round;stroke-linejoin:round; }rect { fill:none;stroke:#555;stroke-width:2;} text{font-size:16px;font-family:Segoe UI Symbol,Cambria Math,DejaVu Sans,Symbola,Quivira,STIX,Code2000;-webkit-touch-callout:none;cursor:pointer;-webkit-user-select:none;-khtml-user-select:none;-moz-user-select:none;-ms-user-select:none;user-select: none;} #reset { font-weight:bold; }]]></style><marker id="markerStart" markerWidth="8" markerHeight="8" style="overflow:visible;"><circle cx="0" cy="0" r="1.5" style="stroke:none;fill:red;fill-opacity:0.5;"/></marker><marker id="markerEnd" style="overflow:visible;"><circle cx="0" cy="0" r="0.8" style="stroke:none;fill:blue;fill-opacity:0.5;"><animate attributeName="opacity" from="1" to="0" dur="3s" repeatCount="indefinite" /></circle></marker></defs><rect x="4" y="4" width="100" height="100" /><path d="M52.86,12.25c1.01,1.01,1.73,2.46,1.73,3.66c0,1.59-0.15,5.84-0.15,8.65" class="grey" /><path d="M18,27.61c2.81,0.52,6.58,0.44,8.52,0.3c15.74-1.16,37.26-3.66,58.65-3.95c3.3-0.05,4.99,0.05,7.45,0.7" class="grey" /><path d="M35.27,31.46c2.57,2.43,6.65,9.98,7.29,13.76" class="grey" /><path d="M70.54,28.14c0.34,0.86,0.29,1.72,0.03,2.41c-1.02,3.52-2.94,8.45-5.69,13.32" class="grey" /><path d="M23,47.5c1.06,1.06,1.17,2.54,1.17,3.83c0,1.18-0.01,28.78-0.02,40.66c0,2.84,0,4.78,0,5.25" class="grey" /><path d="M25.23,49.4c8.77-0.65,55.33-4.34,57.09-4.41c4.14-0.16,5.33,1.51,5.33,5.68c0,1.61-0.02,38.07-0.02,41.79c0,7.54-4.75,2.66-7.85-0.06" class="grey" /><path d="M45.72,51.43c0.03,0.82-0.29,1.77-0.83,2.68C43,57.25,38.5,61.62,30.75,66.75" class="grey" /><path d="M61.1,49.37c0.51,0.51,0.73,1.79,0.73,2.53c0,1.73-0.03,4.23-0.03,5.8c0,3.42,0.58,4.38,9.36,4.38c4.9,0,8.13-0.67,8.82-1.05" class="grey" /><path d="M39.31,71.82C40,72.38,40.5,73,40.62,73.93c0.57,4.4,1.16,8.16,1.86,12.95c0.13,0.89,0.27,1.58,0.41,2.58" class="grey" /><path d="M41.98,73.23c7.93-0.82,18.28-2.46,23.9-3.04c3.23-0.33,4.93,0.5,3.99,3.95c-0.91,3.38-2.08,8.03-3.43,11.76" class="grey" /><path d="M43.35,87.9c5.21-0.36,13.55-0.98,21.91-1.36c1.09-0.05,2.18-0.09,3.27-0.13" class="grey" /><path d="M52.86,12.25c1.01,1.01,1.73,2.46,1.73,3.66c0,1.59-0.15,5.84-0.15,8.65" class="stroke" stroke-dasharray="150"><animate attributeName="stroke-dashoffset" from="150" to="0" dur="1.8s" begin="0s" fill="freeze" /></path><path d="M18,27.61c2.81,0.52,6.58,0.44,8.52,0.3c15.74-1.16,37.26-3.66,58.65-3.95c3.3-0.05,4.99,0.05,7.45,0.7" class="stroke" stroke-dasharray="150"><set attributeName="opacity" to="0" dur="0.9s" /><animate attributeName="stroke-dashoffset" from="150" to="0" dur="1.8s" begin="0.9s" fill="freeze" /></path><path d="M35.27,31.46c2.57,2.43,6.65,9.98,7.29,13.76" class="stroke" stroke-dasharray="150"><set attributeName="opacity" to="0" dur="2.6s" /><animate attributeName="stroke-dashoffset" from="150" to="0" dur="1.8s" begin="2.6s" fill="freeze" /></path><path d="M70.54,28.14c0.34,0.86,0.29,1.72,0.03,2.41c-1.02,3.52-2.94,8.45-5.69,13.32" class="stroke" stroke-dasharray="150"><set attributeName="opacity" to="0" dur="3.5s" /><animate attributeName="stroke-dashoffset" from="150" to="0" dur="1.8s" begin="3.5s" fill="freeze" /></path><path d="M23,47.5c1.06,1.06,1.17,2.54,1.17,3.83c0,1.18-0.01,28.78-0.02,40.66c0,2.84,0,4.78,0,5.25" class="stroke" stroke-dasharray="150"><set attributeName="opacity" to="0" dur="4.4s" /><animate attributeName="stroke-dashoffset" from="150" to="0" dur="1.8s" begin="4.4s" fill="freeze" /></path><path d="M25.23,49.4c8.77-0.65,55.33-4.34,57.09-4.41c4.14-0.16,5.33,1.51,5.33,5.68c0,1.61-0.02,38.07-0.02,41.79c0,7.54-4.75,2.66-7.85-0.06" class="stroke" stroke-dasharray="150"><set attributeName="opacity" to="0" dur="5.7s" /><animate attributeName="stroke-dashoffset" from="150" to="0" dur="1.8s" begin="5.7s" fill="freeze" /></path><path d="M45.72,51.43c0.03,0.82-0.29,1.77-0.83,2.68C43,57.25,38.5,61.62,30.75,66.75" class="stroke" stroke-dasharray="150"><set attributeName="opacity" to="0" dur="7.7s" /><animate attributeName="stroke-dashoffset" from="150" to="0" dur="1.8s" begin="7.7s" fill="freeze" /></path><path d="M61.1,49.37c0.51,0.51,0.73,1.79,0.73,2.53c0,1.73-0.03,4.23-0.03,5.8c0,3.42,0.58,4.38,9.36,4.38c4.9,0,8.13-0.67,8.82-1.05" class="stroke" stroke-dasharray="150"><set attributeName="opacity" to="0" dur="8.7s" /><animate attributeName="stroke-dashoffset" from="150" to="0" dur="1.8s" begin="8.7s" fill="freeze" /></path><path d="M39.31,71.82C40,72.38,40.5,73,40.62,73.93c0.57,4.4,1.16,8.16,1.86,12.95c0.13,0.89,0.27,1.58,0.41,2.58" class="stroke" stroke-dasharray="150"><set attributeName="opacity" to="0" dur="9.7s" /><animate attributeName="stroke-dashoffset" from="150" to="0" dur="1.8s" begin="9.7s" fill="freeze" /></path><path d="M41.98,73.23c7.93-0.82,18.28-2.46,23.9-3.04c3.23-0.33,4.93,0.5,3.99,3.95c-0.91,3.38-2.08,8.03-3.43,11.76" class="stroke" stroke-dasharray="150"><set attributeName="opacity" to="0" dur="10.6s" /><animate attributeName="stroke-dashoffset" from="150" to="0" dur="1.8s" begin="10.6s" fill="freeze" /></path><path d="M43.35,87.9c5.21-0.36,13.55-0.98,21.91-1.36c1.09-0.05,2.18-0.09,3.27-0.13" class="stroke" stroke-dasharray="150"><set attributeName="opacity" to="0" dur="11.7s" /><animate attributeName="stroke-dashoffset" from="150" to="0" dur="1.8s" begin="11.7s" fill="freeze" /></path><text x="90" y="120" id="reset">⟳</text><text x="70" y="120" id="pause">◼</text><script type="text/javascript"><![CDATA[function RecurringTimer(e,t){var n,r,i=t;this.pause=function(){window.clearTimeout(n);i-=new Date-r};var s=function(){r=new Date;n=window.setTimeout(function(){i=t;s();e()},i)};this.clear=function(){window.clearTimeout(n);i=t;n=window.setTimeout(function(){i=t;s();e()},i)};this.resume=s;this.resume()}function invoketimer(){timer=new RecurringTimer(function(){svg.setCurrentTime(0)},13700)}var svg=document.getElementById("kanjivg");var pause=document.getElementById("pause");var reset=document.getElementById("reset");var timer;invoketimer();reset.onclick=function(){svg.setCurrentTime(0);timer.clear();svg.unpauseAnimations();pause.innerHTML = "◼";};pause.onclick=function(){if(svg.animationsPaused()){svg.unpauseAnimations();timer.resume();pause.innerHTML="◼"}else{svg.pauseAnimations();timer.pause();pause.innerHTML="▶"}}]]></script></svg>