<svg id="kanjivg" width="106" height="126" xmlns="http://www.w3.org/2000/svg" xmlns:xlink="http://www.w3.org/1999/xlink" xml:space="preserve" version="1.1" baseProfile="full"><defs><style type="text/css"><![CDATA[path.black { fill:none;stroke:black;stroke-width:5;stroke-linecap:round;stroke-linejoin:round; }path.grey { fill:none;stroke:#ddd;stroke-width:5;stroke-linecap:round;stroke-linejoin:round; }path.stroke { fill:none;stroke:black;stroke-width:5;stroke-linecap:round;stroke-linejoin:round; }rect { fill:none;stroke:#555;stroke-width:2;} text{font-size:16px;font-family:Segoe UI Symbol,Cambria Math,DejaVu Sans,Symbola,Quivira,STIX,Code2000;-webkit-touch-callout:none;cursor:pointer;-webkit-user-select:none;-khtml-user-select:none;-moz-user-select:none;-ms-user-select:none;user-select: none;} #reset { font-weight:bold; }]]></style><marker id="markerStart" markerWidth="8" markerHeight="8" style="overflow:visible;"><circle cx="0" cy="0" r="1.5" style="stroke:none;fill:red;fill-opacity:0.5;"/></marker><marker id="markerEnd" style="overflow:visible;"><circle cx="0" cy="0" r="0.8" style="stroke:none;fill:blue;fill-opacity:0.5;"><animate attributeName="opacity" from="1" to="0" dur="3s" repeatCount="indefinite" /></circle></marker></defs><rect x="4" y="4" width="100" height="100" /><path d="M10.25,33.91c0.86,0.86,1.12,2.47,1.39,3.84c1.06,5.5,1.77,12.66,2.66,20.63c0.21,1.91,0.38,3.8,0.49,5.62" class="grey" /><path d="M12.12,35.21c5.51-1.09,12.12-1.9,17.13-2.46c3.59-0.4,5.29,0.21,4.61,4.24c-0.93,5.51-2.35,13.69-3.67,21.62" class="grey" /><path d="M16.04,61.02c4.01-0.47,8.46-0.93,12.33-1.28c1.39-0.12,2.71-0.23,3.91-0.32" class="grey" /><path d="M37.66,21.45c2.84,0.55,5.63,0.35,8.08,0.09c9.38-1.02,27.69-3.05,38.64-3.6c2.42-0.12,5.25-0.12,7.56,0.65" class="grey" /><path d="M62.69,22.68c0.15,1.32-0.33,2.37-1.13,3.37C57.5,31.12,50,37.75,39.77,44.9" class="grey" /><path d="M56.2,34.25c10.05,9,17.8,34.5,9.77,57.33c-3.24,9.21-7.39,1.62-8.35,0.56" class="grey" /><path d="M59,42c0.14,1.29-0.05,2.4-0.59,3.58c-2.54,5.51-11.63,15.68-23.77,22.08" class="grey" /><path d="M64.2,56.25c0.17,1.54,0.01,3.08-0.76,4.46c-3.69,6.66-14.19,17.91-28.89,26.79" class="grey" /><path d="M87.74,33.25c0.11,0.86-0.21,1.95-0.76,2.68c-2.98,3.95-6.74,7.93-16.73,14.7" class="grey" /><path d="M67.17,50.75c3.18,3.53,14.59,18.37,21.27,26.17c1.57,1.83,4.18,4.46,7.06,6.58" class="grey" /><path d="M10.25,33.91c0.86,0.86,1.12,2.47,1.39,3.84c1.06,5.5,1.77,12.66,2.66,20.63c0.21,1.91,0.38,3.8,0.49,5.62" class="stroke" stroke-dasharray="150"><animate attributeName="stroke-dashoffset" from="150" to="0" dur="1.8s" begin="0s" fill="freeze" /></path><path d="M12.12,35.21c5.51-1.09,12.12-1.9,17.13-2.46c3.59-0.4,5.29,0.21,4.61,4.24c-0.93,5.51-2.35,13.69-3.67,21.62" class="stroke" stroke-dasharray="150"><set attributeName="opacity" to="0" dur="1.0s" /><animate attributeName="stroke-dashoffset" from="150" to="0" dur="1.8s" begin="1.0s" fill="freeze" /></path><path d="M16.04,61.02c4.01-0.47,8.46-0.93,12.33-1.28c1.39-0.12,2.71-0.23,3.91-0.32" class="stroke" stroke-dasharray="150"><set attributeName="opacity" to="0" dur="2.2s" /><animate attributeName="stroke-dashoffset" from="150" to="0" dur="1.8s" begin="2.2s" fill="freeze" /></path><path d="M37.66,21.45c2.84,0.55,5.63,0.35,8.08,0.09c9.38-1.02,27.69-3.05,38.64-3.6c2.42-0.12,5.25-0.12,7.56,0.65" class="stroke" stroke-dasharray="150"><set attributeName="opacity" to="0" dur="3.1s" /><animate attributeName="stroke-dashoffset" from="150" to="0" dur="1.8s" begin="3.1s" fill="freeze" /></path><path d="M62.69,22.68c0.15,1.32-0.33,2.37-1.13,3.37C57.5,31.12,50,37.75,39.77,44.9" class="stroke" stroke-dasharray="150"><set attributeName="opacity" to="0" dur="4.4s" /><animate attributeName="stroke-dashoffset" from="150" to="0" dur="1.8s" begin="4.4s" fill="freeze" /></path><path d="M56.2,34.25c10.05,9,17.8,34.5,9.77,57.33c-3.24,9.21-7.39,1.62-8.35,0.56" class="stroke" stroke-dasharray="150"><set attributeName="opacity" to="0" dur="5.4s" /><animate attributeName="stroke-dashoffset" from="150" to="0" dur="1.8s" begin="5.4s" fill="freeze" /></path><path d="M59,42c0.14,1.29-0.05,2.4-0.59,3.58c-2.54,5.51-11.63,15.68-23.77,22.08" class="stroke" stroke-dasharray="150"><set attributeName="opacity" to="0" dur="7.1000000000000005s" /><animate attributeName="stroke-dashoffset" from="150" to="0" dur="1.8s" begin="7.1000000000000005s" fill="freeze" /></path><path d="M64.2,56.25c0.17,1.54,0.01,3.08-0.76,4.46c-3.69,6.66-14.19,17.91-28.89,26.79" class="stroke" stroke-dasharray="150"><set attributeName="opacity" to="0" dur="8.100000000000001s" /><animate attributeName="stroke-dashoffset" from="150" to="0" dur="1.8s" begin="8.100000000000001s" fill="freeze" /></path><path d="M87.74,33.25c0.11,0.86-0.21,1.95-0.76,2.68c-2.98,3.95-6.74,7.93-16.73,14.7" class="stroke" stroke-dasharray="150"><set attributeName="opacity" to="0" dur="9.200000000000001s" /><animate attributeName="stroke-dashoffset" from="150" to="0" dur="1.8s" begin="9.200000000000001s" fill="freeze" /></path><path d="M67.17,50.75c3.18,3.53,14.59,18.37,21.27,26.17c1.57,1.83,4.18,4.46,7.06,6.58" class="stroke" stroke-dasharray="150"><set attributeName="opacity" to="0" dur="10.200000000000001s" /><animate attributeName="stroke-dashoffset" from="150" to="0" dur="1.8s" begin="10.200000000000001s" fill="freeze" /></path><text x="90" y="120" id="reset">⟳</text><text x="70" y="120" id="pause">◼</text><script type="text/javascript"><![CDATA[function RecurringTimer(e,t){var n,r,i=t;this.pause=function(){window.clearTimeout(n);i-=new Date-r};var s=function(){r=new Date;n=window.setTimeout(function(){i=t;s();e()},i)};this.clear=function(){window.clearTimeout(n);i=t;n=window.setTimeout(function(){i=t;s();e()},i)};this.resume=s;this.resume()}function invoketimer(){timer=new RecurringTimer(function(){svg.setCurrentTime(0)},12300)}var svg=document.getElementById("kanjivg");var pause=document.getElementById("pause");var reset=document.getElementById("reset");var timer;invoketimer();reset.onclick=function(){svg.setCurrentTime(0);timer.clear();svg.unpauseAnimations();pause.innerHTML = "◼";};pause.onclick=function(){if(svg.animationsPaused()){svg.unpauseAnimations();timer.resume();pause.innerHTML="◼"}else{svg.pauseAnimations();timer.pause();pause.innerHTML="▶"}}]]></script></svg>