<svg id="kanjivg" width="106" height="126" xmlns="http://www.w3.org/2000/svg" xmlns:xlink="http://www.w3.org/1999/xlink" xml:space="preserve" version="1.1" baseProfile="full"><defs><style type="text/css"><![CDATA[path.black { fill:none;stroke:black;stroke-width:5;stroke-linecap:round;stroke-linejoin:round; }path.grey { fill:none;stroke:#ddd;stroke-width:5;stroke-linecap:round;stroke-linejoin:round; }path.stroke { fill:none;stroke:black;stroke-width:5;stroke-linecap:round;stroke-linejoin:round; }rect { fill:none;stroke:#555;stroke-width:2;} text{font-size:16px;font-family:Segoe UI Symbol,Cambria Math,DejaVu Sans,Symbola,Quivira,STIX,Code2000;-webkit-touch-callout:none;cursor:pointer;-webkit-user-select:none;-khtml-user-select:none;-moz-user-select:none;-ms-user-select:none;user-select: none;} #reset { font-weight:bold; }]]></style><marker id="markerStart" markerWidth="8" markerHeight="8" style="overflow:visible;"><circle cx="0" cy="0" r="1.5" style="stroke:none;fill:red;fill-opacity:0.5;"/></marker><marker id="markerEnd" style="overflow:visible;"><circle cx="0" cy="0" r="0.8" style="stroke:none;fill:blue;fill-opacity:0.5;"><animate attributeName="opacity" from="1" to="0" dur="3s" repeatCount="indefinite" /></circle></marker></defs><rect x="4" y="4" width="100" height="100" /><path d="M11.25,33.79c0.37,0.51,0.76,0.94,0.92,1.58C13.46,40.43,15.51,52.9,16.4,62" class="grey" /><path d="M13.08,35.72c9.42-1.47,15.05-2.56,19.42-3.23c1.6-0.24,2.56,1.44,2.33,2.87c-0.95,5.92-2.05,12.57-3.46,20.75" class="grey" /><path d="M16.57,58.05c5.14-0.75,9.83-1.05,16.89-2.21" class="grey" /><path d="M65.75,21.5c2,0,13.17-1.36,19-2.27C86.83,18.9,87.75,19.08,89,19" class="grey" /><path d="M63.31,10.38c0.76,0.33,1.86,2.96,2.01,3.62c0.15,0.66,0.4,14.53,0.25,18.63" class="grey" /><path d="M45.66,34.17c0.69,1.17,1.6,1.54,1.82,3.11c0.6,4.28,2.7,19.63,2.73,23.22" class="grey" /><path d="M47.36,35.11c3.89-0.19,36.04-4.36,39.55-3.87c1.39,0.19,2.73,1.73,2.2,3.69c-1,3.69-3.09,15.05-4.92,21.66" class="grey" /><path d="M49.14,46.31c6.35-0.41,12.68-1.16,19.01-1.77c1.95-0.19,3.89-0.37,5.76-0.54" class="grey" /><path d="M50.88,57.36c9.56-0.74,28.05-2.83,32.91-2.83" class="grey" /><path d="M36.88,73.21c1.19,0.46,3.38,0.58,4.57,0.46c10.31-1.09,43.82-4.46,53.51-4.42c1.99,0.01,3.18,0.22,4.17,0.45" class="grey" /><path d="M65.73,58.75c0.44,0.55,1.38,2.63,1.47,3.74c0.09,1.1-0.06,29.62-0.15,36.51" class="grey" /><path d="M11.25,33.79c0.37,0.51,0.76,0.94,0.92,1.58C13.46,40.43,15.51,52.9,16.4,62" class="stroke" stroke-dasharray="150"><animate attributeName="stroke-dashoffset" from="150" to="0" dur="1.8s" begin="0s" fill="freeze" /></path><path d="M13.08,35.72c9.42-1.47,15.05-2.56,19.42-3.23c1.6-0.24,2.56,1.44,2.33,2.87c-0.95,5.92-2.05,12.57-3.46,20.75" class="stroke" stroke-dasharray="150"><set attributeName="opacity" to="0" dur="1.0s" /><animate attributeName="stroke-dashoffset" from="150" to="0" dur="1.8s" begin="1.0s" fill="freeze" /></path><path d="M16.57,58.05c5.14-0.75,9.83-1.05,16.89-2.21" class="stroke" stroke-dasharray="150"><set attributeName="opacity" to="0" dur="2.2s" /><animate attributeName="stroke-dashoffset" from="150" to="0" dur="1.8s" begin="2.2s" fill="freeze" /></path><path d="M65.75,21.5c2,0,13.17-1.36,19-2.27C86.83,18.9,87.75,19.08,89,19" class="stroke" stroke-dasharray="150"><set attributeName="opacity" to="0" dur="3.1s" /><animate attributeName="stroke-dashoffset" from="150" to="0" dur="1.8s" begin="3.1s" fill="freeze" /></path><path d="M63.31,10.38c0.76,0.33,1.86,2.96,2.01,3.62c0.15,0.66,0.4,14.53,0.25,18.63" class="stroke" stroke-dasharray="150"><set attributeName="opacity" to="0" dur="4.1s" /><animate attributeName="stroke-dashoffset" from="150" to="0" dur="1.8s" begin="4.1s" fill="freeze" /></path><path d="M45.66,34.17c0.69,1.17,1.6,1.54,1.82,3.11c0.6,4.28,2.7,19.63,2.73,23.22" class="stroke" stroke-dasharray="150"><set attributeName="opacity" to="0" dur="5.1s" /><animate attributeName="stroke-dashoffset" from="150" to="0" dur="1.8s" begin="5.1s" fill="freeze" /></path><path d="M47.36,35.11c3.89-0.19,36.04-4.36,39.55-3.87c1.39,0.19,2.73,1.73,2.2,3.69c-1,3.69-3.09,15.05-4.92,21.66" class="stroke" stroke-dasharray="150"><set attributeName="opacity" to="0" dur="6.1s" /><animate attributeName="stroke-dashoffset" from="150" to="0" dur="1.8s" begin="6.1s" fill="freeze" /></path><path d="M49.14,46.31c6.35-0.41,12.68-1.16,19.01-1.77c1.95-0.19,3.89-0.37,5.76-0.54" class="stroke" stroke-dasharray="150"><set attributeName="opacity" to="0" dur="7.6s" /><animate attributeName="stroke-dashoffset" from="150" to="0" dur="1.8s" begin="7.6s" fill="freeze" /></path><path d="M50.88,57.36c9.56-0.74,28.05-2.83,32.91-2.83" class="stroke" stroke-dasharray="150"><set attributeName="opacity" to="0" dur="8.6s" /><animate attributeName="stroke-dashoffset" from="150" to="0" dur="1.8s" begin="8.6s" fill="freeze" /></path><path d="M36.88,73.21c1.19,0.46,3.38,0.58,4.57,0.46c10.31-1.09,43.82-4.46,53.51-4.42c1.99,0.01,3.18,0.22,4.17,0.45" class="stroke" stroke-dasharray="150"><set attributeName="opacity" to="0" dur="9.6s" /><animate attributeName="stroke-dashoffset" from="150" to="0" dur="1.8s" begin="9.6s" fill="freeze" /></path><path d="M65.73,58.75c0.44,0.55,1.38,2.63,1.47,3.74c0.09,1.1-0.06,29.62-0.15,36.51" class="stroke" stroke-dasharray="150"><set attributeName="opacity" to="0" dur="11.1s" /><animate attributeName="stroke-dashoffset" from="150" to="0" dur="1.8s" begin="11.1s" fill="freeze" /></path><text x="90" y="120" id="reset">⟳</text><text x="70" y="120" id="pause">◼</text><script type="text/javascript"><![CDATA[function RecurringTimer(e,t){var n,r,i=t;this.pause=function(){window.clearTimeout(n);i-=new Date-r};var s=function(){r=new Date;n=window.setTimeout(function(){i=t;s();e()},i)};this.clear=function(){window.clearTimeout(n);i=t;n=window.setTimeout(function(){i=t;s();e()},i)};this.resume=s;this.resume()}function invoketimer(){timer=new RecurringTimer(function(){svg.setCurrentTime(0)},13200)}var svg=document.getElementById("kanjivg");var pause=document.getElementById("pause");var reset=document.getElementById("reset");var timer;invoketimer();reset.onclick=function(){svg.setCurrentTime(0);timer.clear();svg.unpauseAnimations();pause.innerHTML = "◼";};pause.onclick=function(){if(svg.animationsPaused()){svg.unpauseAnimations();timer.resume();pause.innerHTML="◼"}else{svg.pauseAnimations();timer.pause();pause.innerHTML="▶"}}]]></script></svg>