<svg id="kanjivg" width="106" height="126" xmlns="http://www.w3.org/2000/svg" xmlns:xlink="http://www.w3.org/1999/xlink" xml:space="preserve" version="1.1" baseProfile="full"><defs><style type="text/css"><![CDATA[path.black { fill:none;stroke:black;stroke-width:5;stroke-linecap:round;stroke-linejoin:round; }path.grey { fill:none;stroke:#ddd;stroke-width:5;stroke-linecap:round;stroke-linejoin:round; }path.stroke { fill:none;stroke:black;stroke-width:5;stroke-linecap:round;stroke-linejoin:round; }rect { fill:none;stroke:#555;stroke-width:2;} text{font-size:16px;font-family:Segoe UI Symbol,Cambria Math,DejaVu Sans,Symbola,Quivira,STIX,Code2000;-webkit-touch-callout:none;cursor:pointer;-webkit-user-select:none;-khtml-user-select:none;-moz-user-select:none;-ms-user-select:none;user-select: none;} #reset { font-weight:bold; }]]></style><marker id="markerStart" markerWidth="8" markerHeight="8" style="overflow:visible;"><circle cx="0" cy="0" r="1.5" style="stroke:none;fill:red;fill-opacity:0.5;"/></marker><marker id="markerEnd" style="overflow:visible;"><circle cx="0" cy="0" r="0.8" style="stroke:none;fill:blue;fill-opacity:0.5;"><animate attributeName="opacity" from="1" to="0" dur="3s" repeatCount="indefinite" /></circle></marker></defs><rect x="4" y="4" width="100" height="100" /><path d="M49.31,11.75c2.97,1.33,7.35,6.48,7.86,9.08" class="grey" /><path d="M18.5,27.61c1.42,0.1,4.68,0.69,6.06,0.55C35.75,27,72,24.25,87.2,23.95c2.35-0.05,3.55,0.05,5.3,0.7" class="grey" /><path d="M34.52,30.58c2.84,2.58,7.33,10.62,8.04,14.63" class="grey" /><path d="M70.54,27.64c0.02,0.4,0.04,1.04-0.03,1.62c-0.41,3.41-2.74,10.88-5.94,15.46" class="grey" /><path d="M22.75,48c0.69,0.81,0.92,1.29,0.92,2.58c0,1.46,0.23,44.24,0.23,46.66" class="grey" /><path d="M25.98,48.65c8.77-0.65,54.58-2.84,56.34-2.91c4.14-0.16,5.54,1.13,5.54,1.94s-0.46,1.13-0.46,2.74c0,1.61-0.08,39.08,0.23,42.79c0.23,2.74-2.31,3.07-4.85,1.94" class="grey" /><path d="M45.22,49.68c0.03,0.38-0.05,0.98-0.07,1.53c-0.1,4.2-4.65,9.29-11.93,14.64" class="grey" /><path d="M60.1,49.37c0.39,0.5,0.71,1.08,0.73,1.85c0.1,3.41,0.22,4.23,0.22,6.55c0,5.42,4.72,4.81,9.36,4.81c4.9,0,8.13-0.7,8.82-1.09" class="grey" /><path d="M39.31,72.82c0.43,0.28,0.87,0.51,1.06,0.86c1.49,2.75,1.76,10.34,2.77,15.28" class="grey" /><path d="M41.98,73.98c8.77-0.9,20.48-2.82,25.5-3.18c1.83-0.13,3.27,0.94,2.67,3.06c-1.01,3.61-1.97,7.93-3.47,12.04" class="grey" /><path d="M43.35,88.4c5.9-0.41,17.08-1.12,25.18-1.74" class="grey" /><path d="M49.31,11.75c2.97,1.33,7.35,6.48,7.86,9.08" class="stroke" stroke-dasharray="150"><animate attributeName="stroke-dashoffset" from="150" to="0" dur="1.8s" begin="0s" fill="freeze" /></path><path d="M18.5,27.61c1.42,0.1,4.68,0.69,6.06,0.55C35.75,27,72,24.25,87.2,23.95c2.35-0.05,3.55,0.05,5.3,0.7" class="stroke" stroke-dasharray="150"><set attributeName="opacity" to="0" dur="0.9s" /><animate attributeName="stroke-dashoffset" from="150" to="0" dur="1.8s" begin="0.9s" fill="freeze" /></path><path d="M34.52,30.58c2.84,2.58,7.33,10.62,8.04,14.63" class="stroke" stroke-dasharray="150"><set attributeName="opacity" to="0" dur="2.6s" /><animate attributeName="stroke-dashoffset" from="150" to="0" dur="1.8s" begin="2.6s" fill="freeze" /></path><path d="M70.54,27.64c0.02,0.4,0.04,1.04-0.03,1.62c-0.41,3.41-2.74,10.88-5.94,15.46" class="stroke" stroke-dasharray="150"><set attributeName="opacity" to="0" dur="3.5s" /><animate attributeName="stroke-dashoffset" from="150" to="0" dur="1.8s" begin="3.5s" fill="freeze" /></path><path d="M22.75,48c0.69,0.81,0.92,1.29,0.92,2.58c0,1.46,0.23,44.24,0.23,46.66" class="stroke" stroke-dasharray="150"><set attributeName="opacity" to="0" dur="4.4s" /><animate attributeName="stroke-dashoffset" from="150" to="0" dur="1.8s" begin="4.4s" fill="freeze" /></path><path d="M25.98,48.65c8.77-0.65,54.58-2.84,56.34-2.91c4.14-0.16,5.54,1.13,5.54,1.94s-0.46,1.13-0.46,2.74c0,1.61-0.08,39.08,0.23,42.79c0.23,2.74-2.31,3.07-4.85,1.94" class="stroke" stroke-dasharray="150"><set attributeName="opacity" to="0" dur="5.6000000000000005s" /><animate attributeName="stroke-dashoffset" from="150" to="0" dur="1.8s" begin="5.6000000000000005s" fill="freeze" /></path><path d="M45.22,49.68c0.03,0.38-0.05,0.98-0.07,1.53c-0.1,4.2-4.65,9.29-11.93,14.64" class="stroke" stroke-dasharray="150"><set attributeName="opacity" to="0" dur="7.6000000000000005s" /><animate attributeName="stroke-dashoffset" from="150" to="0" dur="1.8s" begin="7.6000000000000005s" fill="freeze" /></path><path d="M60.1,49.37c0.39,0.5,0.71,1.08,0.73,1.85c0.1,3.41,0.22,4.23,0.22,6.55c0,5.42,4.72,4.81,9.36,4.81c4.9,0,8.13-0.7,8.82-1.09" class="stroke" stroke-dasharray="150"><set attributeName="opacity" to="0" dur="8.600000000000001s" /><animate attributeName="stroke-dashoffset" from="150" to="0" dur="1.8s" begin="8.600000000000001s" fill="freeze" /></path><path d="M39.31,72.82c0.43,0.28,0.87,0.51,1.06,0.86c1.49,2.75,1.76,10.34,2.77,15.28" class="stroke" stroke-dasharray="150"><set attributeName="opacity" to="0" dur="9.600000000000001s" /><animate attributeName="stroke-dashoffset" from="150" to="0" dur="1.8s" begin="9.600000000000001s" fill="freeze" /></path><path d="M41.98,73.98c8.77-0.9,20.48-2.82,25.5-3.18c1.83-0.13,3.27,0.94,2.67,3.06c-1.01,3.61-1.97,7.93-3.47,12.04" class="stroke" stroke-dasharray="150"><set attributeName="opacity" to="0" dur="10.500000000000002s" /><animate attributeName="stroke-dashoffset" from="150" to="0" dur="1.8s" begin="10.500000000000002s" fill="freeze" /></path><path d="M43.35,88.4c5.9-0.41,17.08-1.12,25.18-1.74" class="stroke" stroke-dasharray="150"><set attributeName="opacity" to="0" dur="11.600000000000001s" /><animate attributeName="stroke-dashoffset" from="150" to="0" dur="1.8s" begin="11.600000000000001s" fill="freeze" /></path><text x="90" y="120" id="reset">⟳</text><text x="70" y="120" id="pause">◼</text><script type="text/javascript"><![CDATA[function RecurringTimer(e,t){var n,r,i=t;this.pause=function(){window.clearTimeout(n);i-=new Date-r};var s=function(){r=new Date;n=window.setTimeout(function(){i=t;s();e()},i)};this.clear=function(){window.clearTimeout(n);i=t;n=window.setTimeout(function(){i=t;s();e()},i)};this.resume=s;this.resume()}function invoketimer(){timer=new RecurringTimer(function(){svg.setCurrentTime(0)},13600)}var svg=document.getElementById("kanjivg");var pause=document.getElementById("pause");var reset=document.getElementById("reset");var timer;invoketimer();reset.onclick=function(){svg.setCurrentTime(0);timer.clear();svg.unpauseAnimations();pause.innerHTML = "◼";};pause.onclick=function(){if(svg.animationsPaused()){svg.unpauseAnimations();timer.resume();pause.innerHTML="◼"}else{svg.pauseAnimations();timer.pause();pause.innerHTML="▶"}}]]></script></svg>