<svg id="kanjivg" width="106" height="126" xmlns="http://www.w3.org/2000/svg" xmlns:xlink="http://www.w3.org/1999/xlink" xml:space="preserve" version="1.1" baseProfile="full"><defs><style type="text/css"><![CDATA[path.black { fill:none;stroke:black;stroke-width:5;stroke-linecap:round;stroke-linejoin:round; }path.grey { fill:none;stroke:#ddd;stroke-width:5;stroke-linecap:round;stroke-linejoin:round; }path.stroke { fill:none;stroke:black;stroke-width:5;stroke-linecap:round;stroke-linejoin:round; }rect { fill:none;stroke:#555;stroke-width:2;} text{font-size:16px;font-family:Segoe UI Symbol,Cambria Math,DejaVu Sans,Symbola,Quivira,STIX,Code2000;-webkit-touch-callout:none;cursor:pointer;-webkit-user-select:none;-khtml-user-select:none;-moz-user-select:none;-ms-user-select:none;user-select: none;} #reset { font-weight:bold; }]]></style><marker id="markerStart" markerWidth="8" markerHeight="8" style="overflow:visible;"><circle cx="0" cy="0" r="1.5" style="stroke:none;fill:red;fill-opacity:0.5;"/></marker><marker id="markerEnd" style="overflow:visible;"><circle cx="0" cy="0" r="0.8" style="stroke:none;fill:blue;fill-opacity:0.5;"><animate attributeName="opacity" from="1" to="0" dur="3s" repeatCount="indefinite" /></circle></marker></defs><rect x="4" y="4" width="100" height="100" /><path d="M10.3,33.95c0.35,0.49,0.71,0.89,0.87,1.5c1.22,4.82,3.68,17.63,4.52,26.3" class="grey" /><path d="M12.5,36.27c8.9-2.12,15.7-3.39,19.83-4.03c1.51-0.23,2.42,1.37,2.2,2.73c-0.89,5.64-2.44,12.35-3.77,20.14" class="grey" /><path d="M15.85,57.92c4.85-0.72,10.7-1,17.35-2.1" class="grey" /><path d="M42.12,23.08c3.35,2.16,8.22,8.28,9.13,10.44" class="grey" /><path d="M83.95,19.03c0.64,0.5,0.17,2.53-0.42,3.31c-0.58,0.77-5.78,5.47-8.69,7.27" class="grey" /><path d="M62.73,11.25c0.77,1,1.1,2.8,1.03,3.45C61.87,33.68,59.06,42.69,42.5,51" class="grey" /><path d="M62.26,27.83c8.41,7.99,18.61,16.11,24.15,19.44c1.75,1.05,2.15,0.93,3.58,1.2" class="grey" /><path d="M44.25,62c4.64,2.19,7.53,7.63,8.79,9.83" class="grey" /><path d="M84.21,56.65c0.54,1.28,0.44,2.84-0.18,3.95c-0.62,1.12-5.42,5.77-8.5,8.37" class="grey" /><path d="M64.05,52c0.95,1.2,1.12,2.51,1.09,3.27c-1.17,25.71-12.5,34.75-29.2,42.23" class="grey" /><path d="M63.64,69.21C73.7,79.46,85.9,89.88,92.53,94.15c2.09,1.34,2.57,1.2,4.28,1.54" class="grey" /><path d="M10.3,33.95c0.35,0.49,0.71,0.89,0.87,1.5c1.22,4.82,3.68,17.63,4.52,26.3" class="stroke" stroke-dasharray="150"><animate attributeName="stroke-dashoffset" from="150" to="0" dur="1.8s" begin="0s" fill="freeze" /></path><path d="M12.5,36.27c8.9-2.12,15.7-3.39,19.83-4.03c1.51-0.23,2.42,1.37,2.2,2.73c-0.89,5.64-2.44,12.35-3.77,20.14" class="stroke" stroke-dasharray="150"><set attributeName="opacity" to="0" dur="1.0s" /><animate attributeName="stroke-dashoffset" from="150" to="0" dur="1.8s" begin="1.0s" fill="freeze" /></path><path d="M15.85,57.92c4.85-0.72,10.7-1,17.35-2.1" class="stroke" stroke-dasharray="150"><set attributeName="opacity" to="0" dur="2.1s" /><animate attributeName="stroke-dashoffset" from="150" to="0" dur="1.8s" begin="2.1s" fill="freeze" /></path><path d="M42.12,23.08c3.35,2.16,8.22,8.28,9.13,10.44" class="stroke" stroke-dasharray="150"><set attributeName="opacity" to="0" dur="3.0s" /><animate attributeName="stroke-dashoffset" from="150" to="0" dur="1.8s" begin="3.0s" fill="freeze" /></path><path d="M83.95,19.03c0.64,0.5,0.17,2.53-0.42,3.31c-0.58,0.77-5.78,5.47-8.69,7.27" class="stroke" stroke-dasharray="150"><set attributeName="opacity" to="0" dur="3.9s" /><animate attributeName="stroke-dashoffset" from="150" to="0" dur="1.8s" begin="3.9s" fill="freeze" /></path><path d="M62.73,11.25c0.77,1,1.1,2.8,1.03,3.45C61.87,33.68,59.06,42.69,42.5,51" class="stroke" stroke-dasharray="150"><set attributeName="opacity" to="0" dur="4.8s" /><animate attributeName="stroke-dashoffset" from="150" to="0" dur="1.8s" begin="4.8s" fill="freeze" /></path><path d="M62.26,27.83c8.41,7.99,18.61,16.11,24.15,19.44c1.75,1.05,2.15,0.93,3.58,1.2" class="stroke" stroke-dasharray="150"><set attributeName="opacity" to="0" dur="6.0s" /><animate attributeName="stroke-dashoffset" from="150" to="0" dur="1.8s" begin="6.0s" fill="freeze" /></path><path d="M44.25,62c4.64,2.19,7.53,7.63,8.79,9.83" class="stroke" stroke-dasharray="150"><set attributeName="opacity" to="0" dur="7.0s" /><animate attributeName="stroke-dashoffset" from="150" to="0" dur="1.8s" begin="7.0s" fill="freeze" /></path><path d="M84.21,56.65c0.54,1.28,0.44,2.84-0.18,3.95c-0.62,1.12-5.42,5.77-8.5,8.37" class="stroke" stroke-dasharray="150"><set attributeName="opacity" to="0" dur="7.9s" /><animate attributeName="stroke-dashoffset" from="150" to="0" dur="1.8s" begin="7.9s" fill="freeze" /></path><path d="M64.05,52c0.95,1.2,1.12,2.51,1.09,3.27c-1.17,25.71-12.5,34.75-29.2,42.23" class="stroke" stroke-dasharray="150"><set attributeName="opacity" to="0" dur="8.8s" /><animate attributeName="stroke-dashoffset" from="150" to="0" dur="1.8s" begin="8.8s" fill="freeze" /></path><path d="M63.64,69.21C73.7,79.46,85.9,89.88,92.53,94.15c2.09,1.34,2.57,1.2,4.28,1.54" class="stroke" stroke-dasharray="150"><set attributeName="opacity" to="0" dur="10.200000000000001s" /><animate attributeName="stroke-dashoffset" from="150" to="0" dur="1.8s" begin="10.200000000000001s" fill="freeze" /></path><text x="90" y="120" id="reset">⟳</text><text x="70" y="120" id="pause">◼</text><script type="text/javascript"><![CDATA[function RecurringTimer(e,t){var n,r,i=t;this.pause=function(){window.clearTimeout(n);i-=new Date-r};var s=function(){r=new Date;n=window.setTimeout(function(){i=t;s();e()},i)};this.clear=function(){window.clearTimeout(n);i=t;n=window.setTimeout(function(){i=t;s();e()},i)};this.resume=s;this.resume()}function invoketimer(){timer=new RecurringTimer(function(){svg.setCurrentTime(0)},12300)}var svg=document.getElementById("kanjivg");var pause=document.getElementById("pause");var reset=document.getElementById("reset");var timer;invoketimer();reset.onclick=function(){svg.setCurrentTime(0);timer.clear();svg.unpauseAnimations();pause.innerHTML = "◼";};pause.onclick=function(){if(svg.animationsPaused()){svg.unpauseAnimations();timer.resume();pause.innerHTML="◼"}else{svg.pauseAnimations();timer.pause();pause.innerHTML="▶"}}]]></script></svg>