<svg id="kanjivg" width="106" height="126" xmlns="http://www.w3.org/2000/svg" xmlns:xlink="http://www.w3.org/1999/xlink" xml:space="preserve" version="1.1" baseProfile="full"><defs><style type="text/css"><![CDATA[path.black { fill:none;stroke:black;stroke-width:5;stroke-linecap:round;stroke-linejoin:round; }path.grey { fill:none;stroke:#ddd;stroke-width:5;stroke-linecap:round;stroke-linejoin:round; }path.stroke { fill:none;stroke:black;stroke-width:5;stroke-linecap:round;stroke-linejoin:round; }rect { fill:none;stroke:#555;stroke-width:2;} text{font-size:16px;font-family:Segoe UI Symbol,Cambria Math,DejaVu Sans,Symbola,Quivira,STIX,Code2000;-webkit-touch-callout:none;cursor:pointer;-webkit-user-select:none;-khtml-user-select:none;-moz-user-select:none;-ms-user-select:none;user-select: none;} #reset { font-weight:bold; }]]></style><marker id="markerStart" markerWidth="8" markerHeight="8" style="overflow:visible;"><circle cx="0" cy="0" r="1.5" style="stroke:none;fill:red;fill-opacity:0.5;"/></marker><marker id="markerEnd" style="overflow:visible;"><circle cx="0" cy="0" r="0.8" style="stroke:none;fill:blue;fill-opacity:0.5;"><animate attributeName="opacity" from="1" to="0" dur="3s" repeatCount="indefinite" /></circle></marker></defs><rect x="4" y="4" width="100" height="100" /><path d="M11.5,34.04c0.37,0.44,0.75,0.81,0.91,1.36c1.28,4.38,3.31,18.47,4.19,26.34" class="grey" /><path d="M13.8,36.15c9.33-1.92,14.89-3.08,19.22-3.66c1.58-0.21,2.53,1.25,2.31,2.48c-0.94,5.12-2.03,13.03-3.43,20.11" class="grey" /><path d="M16.27,58.13c5.08-0.65,11.22-1.41,18.2-2.41" class="grey" /><path d="M62.34,11c0.06,0.87,0.12,2.25-0.11,3.51c-1.38,7.39-9.3,23.62-20.15,33.55" class="grey" /><path d="M62.41,21.59c0.65,0.28,1.55,0.33,2.59,0.19c4-0.53,15.58-2.77,18.17-2.86c2.59-0.09,3.11,0.93,2.72,2.88c-0.39,1.95-4.37,17.42-10.07,22.72c-1.71,1.59-3.72,0.43-5.66-1.34" class="grey" /><path d="M63.47,48.71c0.05,0.27,0.21,0.8-0.1,1.1c-4.12,3.92-8.92,7.41-18.31,10.52" class="grey" /><path d="M43.03,59.3c0.79,0.74,1.12,2.4,1.31,3.92c0.72,5.56,2.98,27.27,3.7,34.78" class="grey" /><path d="M46.18,76.87c3.92-0.34,15.26-2.69,16.19-2.69c0.94,0,2.24,0,2.99,0" class="grey" /><path d="M73.27,56.62c0.93,0.17,1.68,0.51,2.99,0.51c1.31,0,15.13-2.03,16.62-2.2c1.49-0.17,2.73,0.84,2.62,1.86c-1.12,9.8-2.62,28.72-3.74,36.82c-0.16,1.17,0,1.86-0.19,2.53" class="grey" /><path d="M73.65,73.01c0.93,0.17,1.68,0.51,2.99,0.51s15.76-1.35,17.25-1.52" class="grey" /><path d="M48.24,95.13c2.43,0,39.79-2.2,42.59-2.37" class="grey" /><path d="M11.5,34.04c0.37,0.44,0.75,0.81,0.91,1.36c1.28,4.38,3.31,18.47,4.19,26.34" class="stroke" stroke-dasharray="150"><animate attributeName="stroke-dashoffset" from="150" to="0" dur="1.8s" begin="0s" fill="freeze" /></path><path d="M13.8,36.15c9.33-1.92,14.89-3.08,19.22-3.66c1.58-0.21,2.53,1.25,2.31,2.48c-0.94,5.12-2.03,13.03-3.43,20.11" class="stroke" stroke-dasharray="150"><set attributeName="opacity" to="0" dur="1.0s" /><animate attributeName="stroke-dashoffset" from="150" to="0" dur="1.8s" begin="1.0s" fill="freeze" /></path><path d="M16.27,58.13c5.08-0.65,11.22-1.41,18.2-2.41" class="stroke" stroke-dasharray="150"><set attributeName="opacity" to="0" dur="2.1s" /><animate attributeName="stroke-dashoffset" from="150" to="0" dur="1.8s" begin="2.1s" fill="freeze" /></path><path d="M62.34,11c0.06,0.87,0.12,2.25-0.11,3.51c-1.38,7.39-9.3,23.62-20.15,33.55" class="stroke" stroke-dasharray="150"><set attributeName="opacity" to="0" dur="3.0s" /><animate attributeName="stroke-dashoffset" from="150" to="0" dur="1.8s" begin="3.0s" fill="freeze" /></path><path d="M62.41,21.59c0.65,0.28,1.55,0.33,2.59,0.19c4-0.53,15.58-2.77,18.17-2.86c2.59-0.09,3.11,0.93,2.72,2.88c-0.39,1.95-4.37,17.42-10.07,22.72c-1.71,1.59-3.72,0.43-5.66-1.34" class="stroke" stroke-dasharray="150"><set attributeName="opacity" to="0" dur="4.1s" /><animate attributeName="stroke-dashoffset" from="150" to="0" dur="1.8s" begin="4.1s" fill="freeze" /></path><path d="M63.47,48.71c0.05,0.27,0.21,0.8-0.1,1.1c-4.12,3.92-8.92,7.41-18.31,10.52" class="stroke" stroke-dasharray="150"><set attributeName="opacity" to="0" dur="5.5s" /><animate attributeName="stroke-dashoffset" from="150" to="0" dur="1.8s" begin="5.5s" fill="freeze" /></path><path d="M43.03,59.3c0.79,0.74,1.12,2.4,1.31,3.92c0.72,5.56,2.98,27.27,3.7,34.78" class="stroke" stroke-dasharray="150"><set attributeName="opacity" to="0" dur="6.5s" /><animate attributeName="stroke-dashoffset" from="150" to="0" dur="1.8s" begin="6.5s" fill="freeze" /></path><path d="M46.18,76.87c3.92-0.34,15.26-2.69,16.19-2.69c0.94,0,2.24,0,2.99,0" class="stroke" stroke-dasharray="150"><set attributeName="opacity" to="0" dur="7.5s" /><animate attributeName="stroke-dashoffset" from="150" to="0" dur="1.8s" begin="7.5s" fill="freeze" /></path><path d="M73.27,56.62c0.93,0.17,1.68,0.51,2.99,0.51c1.31,0,15.13-2.03,16.62-2.2c1.49-0.17,2.73,0.84,2.62,1.86c-1.12,9.8-2.62,28.72-3.74,36.82c-0.16,1.17,0,1.86-0.19,2.53" class="stroke" stroke-dasharray="150"><set attributeName="opacity" to="0" dur="8.4s" /><animate attributeName="stroke-dashoffset" from="150" to="0" dur="1.8s" begin="8.4s" fill="freeze" /></path><path d="M73.65,73.01c0.93,0.17,1.68,0.51,2.99,0.51s15.76-1.35,17.25-1.52" class="stroke" stroke-dasharray="150"><set attributeName="opacity" to="0" dur="9.9s" /><animate attributeName="stroke-dashoffset" from="150" to="0" dur="1.8s" begin="9.9s" fill="freeze" /></path><path d="M48.24,95.13c2.43,0,39.79-2.2,42.59-2.37" class="stroke" stroke-dasharray="150"><set attributeName="opacity" to="0" dur="10.9s" /><animate attributeName="stroke-dashoffset" from="150" to="0" dur="1.8s" begin="10.9s" fill="freeze" /></path><text x="90" y="120" id="reset">⟳</text><text x="70" y="120" id="pause">◼</text><script type="text/javascript"><![CDATA[function RecurringTimer(e,t){var n,r,i=t;this.pause=function(){window.clearTimeout(n);i-=new Date-r};var s=function(){r=new Date;n=window.setTimeout(function(){i=t;s();e()},i)};this.clear=function(){window.clearTimeout(n);i=t;n=window.setTimeout(function(){i=t;s();e()},i)};this.resume=s;this.resume()}function invoketimer(){timer=new RecurringTimer(function(){svg.setCurrentTime(0)},13000)}var svg=document.getElementById("kanjivg");var pause=document.getElementById("pause");var reset=document.getElementById("reset");var timer;invoketimer();reset.onclick=function(){svg.setCurrentTime(0);timer.clear();svg.unpauseAnimations();pause.innerHTML = "◼";};pause.onclick=function(){if(svg.animationsPaused()){svg.unpauseAnimations();timer.resume();pause.innerHTML="◼"}else{svg.pauseAnimations();timer.pause();pause.innerHTML="▶"}}]]></script></svg>