<svg id="kanjivg" width="106" height="126" xmlns="http://www.w3.org/2000/svg" xmlns:xlink="http://www.w3.org/1999/xlink" xml:space="preserve" version="1.1" baseProfile="full"><defs><style type="text/css"><![CDATA[path.black { fill:none;stroke:black;stroke-width:5;stroke-linecap:round;stroke-linejoin:round; }path.grey { fill:none;stroke:#ddd;stroke-width:5;stroke-linecap:round;stroke-linejoin:round; }path.stroke { fill:none;stroke:black;stroke-width:5;stroke-linecap:round;stroke-linejoin:round; }rect { fill:none;stroke:#555;stroke-width:2;} text{font-size:16px;font-family:Segoe UI Symbol,Cambria Math,DejaVu Sans,Symbola,Quivira,STIX,Code2000;-webkit-touch-callout:none;cursor:pointer;-webkit-user-select:none;-khtml-user-select:none;-moz-user-select:none;-ms-user-select:none;user-select: none;} #reset { font-weight:bold; }]]></style><marker id="markerStart" markerWidth="8" markerHeight="8" style="overflow:visible;"><circle cx="0" cy="0" r="1.5" style="stroke:none;fill:red;fill-opacity:0.5;"/></marker><marker id="markerEnd" style="overflow:visible;"><circle cx="0" cy="0" r="0.8" style="stroke:none;fill:blue;fill-opacity:0.5;"><animate attributeName="opacity" from="1" to="0" dur="3s" repeatCount="indefinite" /></circle></marker></defs><rect x="4" y="4" width="100" height="100" /><path d="M16.67,20.56c1.39,0.55,3.78,0.39,5.21,0.22c5.32-0.63,13.87-1.9,20.62-2.52c1.72-0.16,3.55-0.27,5.25,0.13" class="grey" /><path d="M20.07,33.61c1.18,0.26,2.53,0.35,3.75,0.19c5.05-0.62,13.85-2.17,18.44-2.85c2.13-0.32,4.22-0.08,3.59,2.82c-0.71,3.32-1.61,6.97-3.41,12.62" class="grey" /><path d="M23,49.56c4.5-0.56,10.2-1.14,16.72-1.98c1.72-0.22,3.36-0.43,4.83-0.58" class="grey" /><path d="M21.21,34.51c0.77,0.77,0.9,1.69,0.92,3.03C22.25,50.12,22.5,61,11.62,71.75" class="grey" /><path d="M62.52,12.39c0.23,0.86,0.15,1.96-0.06,2.73c-1.59,6-3.96,12-10.3,20.1" class="grey" /><path d="M62.82,24.22c1.5,0.22,2.94,0.1,4.44-0.1c5.01-0.67,12.19-2.29,17.36-3.48c1.41-0.33,3.55-0.53,4.99-0.04" class="grey" /><path d="M75.47,28.72c0.45,0.76,0.48,1.82-0.03,3.2C71.38,43,62.88,53.62,47.09,59.25" class="grey" /><path d="M58.86,37.92c4.64,0.43,18.32,12.71,28.28,19.14c2.36,1.52,5.49,3.06,8.13,3.96" class="grey" /><path d="M33.75,70.44c0.97,1.05,1.28,2.02,1.64,3.39c1.17,4.49,2.62,12.3,3.64,19.13c0.29,1.94,0.55,3.81,0.76,5.5" class="grey" /><path d="M36.02,71.58c10.73-1.3,27.67-3.39,35.13-4.3c3.44-0.42,5.76,0.45,4.95,4.39c-1.16,5.61-2.29,11.32-4.72,19.41" class="grey" /><path d="M40.73,94.8c5.35-0.62,17.57-1.51,26.76-2.42c2.15-0.21,4.1-0.4,5.69-0.55" class="grey" /><path d="M16.67,20.56c1.39,0.55,3.78,0.39,5.21,0.22c5.32-0.63,13.87-1.9,20.62-2.52c1.72-0.16,3.55-0.27,5.25,0.13" class="stroke" stroke-dasharray="150"><animate attributeName="stroke-dashoffset" from="150" to="0" dur="1.8s" begin="0s" fill="freeze" /></path><path d="M20.07,33.61c1.18,0.26,2.53,0.35,3.75,0.19c5.05-0.62,13.85-2.17,18.44-2.85c2.13-0.32,4.22-0.08,3.59,2.82c-0.71,3.32-1.61,6.97-3.41,12.62" class="stroke" stroke-dasharray="150"><set attributeName="opacity" to="0" dur="1.0s" /><animate attributeName="stroke-dashoffset" from="150" to="0" dur="1.8s" begin="1.0s" fill="freeze" /></path><path d="M23,49.56c4.5-0.56,10.2-1.14,16.72-1.98c1.72-0.22,3.36-0.43,4.83-0.58" class="stroke" stroke-dasharray="150"><set attributeName="opacity" to="0" dur="2.1s" /><animate attributeName="stroke-dashoffset" from="150" to="0" dur="1.8s" begin="2.1s" fill="freeze" /></path><path d="M21.21,34.51c0.77,0.77,0.9,1.69,0.92,3.03C22.25,50.12,22.5,61,11.62,71.75" class="stroke" stroke-dasharray="150"><set attributeName="opacity" to="0" dur="3.1s" /><animate attributeName="stroke-dashoffset" from="150" to="0" dur="1.8s" begin="3.1s" fill="freeze" /></path><path d="M62.52,12.39c0.23,0.86,0.15,1.96-0.06,2.73c-1.59,6-3.96,12-10.3,20.1" class="stroke" stroke-dasharray="150"><set attributeName="opacity" to="0" dur="4.2s" /><animate attributeName="stroke-dashoffset" from="150" to="0" dur="1.8s" begin="4.2s" fill="freeze" /></path><path d="M62.82,24.22c1.5,0.22,2.94,0.1,4.44-0.1c5.01-0.67,12.19-2.29,17.36-3.48c1.41-0.33,3.55-0.53,4.99-0.04" class="stroke" stroke-dasharray="150"><set attributeName="opacity" to="0" dur="5.2s" /><animate attributeName="stroke-dashoffset" from="150" to="0" dur="1.8s" begin="5.2s" fill="freeze" /></path><path d="M75.47,28.72c0.45,0.76,0.48,1.82-0.03,3.2C71.38,43,62.88,53.62,47.09,59.25" class="stroke" stroke-dasharray="150"><set attributeName="opacity" to="0" dur="6.2s" /><animate attributeName="stroke-dashoffset" from="150" to="0" dur="1.8s" begin="6.2s" fill="freeze" /></path><path d="M58.86,37.92c4.64,0.43,18.32,12.71,28.28,19.14c2.36,1.52,5.49,3.06,8.13,3.96" class="stroke" stroke-dasharray="150"><set attributeName="opacity" to="0" dur="7.300000000000001s" /><animate attributeName="stroke-dashoffset" from="150" to="0" dur="1.8s" begin="7.300000000000001s" fill="freeze" /></path><path d="M33.75,70.44c0.97,1.05,1.28,2.02,1.64,3.39c1.17,4.49,2.62,12.3,3.64,19.13c0.29,1.94,0.55,3.81,0.76,5.5" class="stroke" stroke-dasharray="150"><set attributeName="opacity" to="0" dur="8.4s" /><animate attributeName="stroke-dashoffset" from="150" to="0" dur="1.8s" begin="8.4s" fill="freeze" /></path><path d="M36.02,71.58c10.73-1.3,27.67-3.39,35.13-4.3c3.44-0.42,5.76,0.45,4.95,4.39c-1.16,5.61-2.29,11.32-4.72,19.41" class="stroke" stroke-dasharray="150"><set attributeName="opacity" to="0" dur="9.4s" /><animate attributeName="stroke-dashoffset" from="150" to="0" dur="1.8s" begin="9.4s" fill="freeze" /></path><path d="M40.73,94.8c5.35-0.62,17.57-1.51,26.76-2.42c2.15-0.21,4.1-0.4,5.69-0.55" class="stroke" stroke-dasharray="150"><set attributeName="opacity" to="0" dur="10.9s" /><animate attributeName="stroke-dashoffset" from="150" to="0" dur="1.8s" begin="10.9s" fill="freeze" /></path><text x="90" y="120" id="reset">⟳</text><text x="70" y="120" id="pause">◼</text><script type="text/javascript"><![CDATA[function RecurringTimer(e,t){var n,r,i=t;this.pause=function(){window.clearTimeout(n);i-=new Date-r};var s=function(){r=new Date;n=window.setTimeout(function(){i=t;s();e()},i)};this.clear=function(){window.clearTimeout(n);i=t;n=window.setTimeout(function(){i=t;s();e()},i)};this.resume=s;this.resume()}function invoketimer(){timer=new RecurringTimer(function(){svg.setCurrentTime(0)},12900)}var svg=document.getElementById("kanjivg");var pause=document.getElementById("pause");var reset=document.getElementById("reset");var timer;invoketimer();reset.onclick=function(){svg.setCurrentTime(0);timer.clear();svg.unpauseAnimations();pause.innerHTML = "◼";};pause.onclick=function(){if(svg.animationsPaused()){svg.unpauseAnimations();timer.resume();pause.innerHTML="◼"}else{svg.pauseAnimations();timer.pause();pause.innerHTML="▶"}}]]></script></svg>