<svg id="kanjivg" width="106" height="126" xmlns="http://www.w3.org/2000/svg" xmlns:xlink="http://www.w3.org/1999/xlink" xml:space="preserve" version="1.1" baseProfile="full"><defs><style type="text/css"><![CDATA[path.black { fill:none;stroke:black;stroke-width:5;stroke-linecap:round;stroke-linejoin:round; }path.grey { fill:none;stroke:#ddd;stroke-width:5;stroke-linecap:round;stroke-linejoin:round; }path.stroke { fill:none;stroke:black;stroke-width:5;stroke-linecap:round;stroke-linejoin:round; }rect { fill:none;stroke:#555;stroke-width:2;} text{font-size:16px;font-family:Segoe UI Symbol,Cambria Math,DejaVu Sans,Symbola,Quivira,STIX,Code2000;-webkit-touch-callout:none;cursor:pointer;-webkit-user-select:none;-khtml-user-select:none;-moz-user-select:none;-ms-user-select:none;user-select: none;} #reset { font-weight:bold; }]]></style><marker id="markerStart" markerWidth="8" markerHeight="8" style="overflow:visible;"><circle cx="0" cy="0" r="1.5" style="stroke:none;fill:red;fill-opacity:0.5;"/></marker><marker id="markerEnd" style="overflow:visible;"><circle cx="0" cy="0" r="0.8" style="stroke:none;fill:blue;fill-opacity:0.5;"><animate attributeName="opacity" from="1" to="0" dur="3s" repeatCount="indefinite" /></circle></marker></defs><rect x="4" y="4" width="100" height="100" /><path d="M8.25,34.07c0.35,0.45,0.7,0.83,0.85,1.39c1.2,4.46,3.14,18.27,3.96,26.29" class="grey" /><path d="M9.91,36.72c8.74-1.96,14.95-3.64,19.01-4.23c1.48-0.21,2.37,1.27,2.16,2.53c-0.88,5.21-2.4,12.77-3.71,19.98" class="grey" /><path d="M12.72,58.09c4.76-0.66,10.51-1.43,17.05-2.45" class="grey" /><path d="M47.04,13c0.03,0.55,0.11,1.59-0.06,2.22c-2.1,7.79-5.21,14.93-10.69,21.21" class="grey" /><path d="M45.28,26.63c0.35,0.17,0.98,0.21,1.33,0.17c3.51-0.35,12.56-3.83,15.63-3.99c0.58-0.03,1.29,0.08,1.58,0.17" class="grey" /><path d="M34.24,43.24c0.96,0.18,2.72,0.21,3.68,0.18c6.33-0.17,19.48-3.21,26.5-3.44c1.59-0.05,2.56,0.09,3.36,0.18" class="grey" /><path d="M51.23,26.86c0.8,0.45,1.28,2.04,1.44,2.95c0.16,0.91,0,34.67-0.16,40.34" class="grey" /><path d="M53.08,54.43c4.17-0.68,8.5-1.09,11.06-1.77c1.25-0.33,1.6-0.23,2.39,0" class="grey" /><path d="M38.23,54.06c0.8,0.45,1.28,2.04,1.44,2.95c0.16,0.91,0,14.9-0.16,20.57" class="grey" /><path d="M32.63,78.92c0.87,0.58,2.48,0.84,3.43,0.3c6.69-3.77,25.21-12.76,30.84-16.08" class="grey" /><path d="M73.08,27.18c0.64,0.2,1.93,1.43,3.21,1.22c1.28-0.2,17.18-3,18.79-3.2c1.6-0.2,4.01-0.41,4.17,3.88c0.08,2.05-1.5,25.17-5.03,34.48c-3.24,8.53-6.1,1.02-6.58,0.61" class="grey" /><path d="M75.44,28.69c0.16,0.91,0,61.65-0.16,67.31" class="grey" /><path d="M8.25,34.07c0.35,0.45,0.7,0.83,0.85,1.39c1.2,4.46,3.14,18.27,3.96,26.29" class="stroke" stroke-dasharray="150"><animate attributeName="stroke-dashoffset" from="150" to="0" dur="1.8s" begin="0s" fill="freeze" /></path><path d="M9.91,36.72c8.74-1.96,14.95-3.64,19.01-4.23c1.48-0.21,2.37,1.27,2.16,2.53c-0.88,5.21-2.4,12.77-3.71,19.98" class="stroke" stroke-dasharray="150"><set attributeName="opacity" to="0" dur="1.0s" /><animate attributeName="stroke-dashoffset" from="150" to="0" dur="1.8s" begin="1.0s" fill="freeze" /></path><path d="M12.72,58.09c4.76-0.66,10.51-1.43,17.05-2.45" class="stroke" stroke-dasharray="150"><set attributeName="opacity" to="0" dur="2.1s" /><animate attributeName="stroke-dashoffset" from="150" to="0" dur="1.8s" begin="2.1s" fill="freeze" /></path><path d="M47.04,13c0.03,0.55,0.11,1.59-0.06,2.22c-2.1,7.79-5.21,14.93-10.69,21.21" class="stroke" stroke-dasharray="150"><set attributeName="opacity" to="0" dur="3.0s" /><animate attributeName="stroke-dashoffset" from="150" to="0" dur="1.8s" begin="3.0s" fill="freeze" /></path><path d="M45.28,26.63c0.35,0.17,0.98,0.21,1.33,0.17c3.51-0.35,12.56-3.83,15.63-3.99c0.58-0.03,1.29,0.08,1.58,0.17" class="stroke" stroke-dasharray="150"><set attributeName="opacity" to="0" dur="4.0s" /><animate attributeName="stroke-dashoffset" from="150" to="0" dur="1.8s" begin="4.0s" fill="freeze" /></path><path d="M34.24,43.24c0.96,0.18,2.72,0.21,3.68,0.18c6.33-0.17,19.48-3.21,26.5-3.44c1.59-0.05,2.56,0.09,3.36,0.18" class="stroke" stroke-dasharray="150"><set attributeName="opacity" to="0" dur="4.9s" /><animate attributeName="stroke-dashoffset" from="150" to="0" dur="1.8s" begin="4.9s" fill="freeze" /></path><path d="M51.23,26.86c0.8,0.45,1.28,2.04,1.44,2.95c0.16,0.91,0,34.67-0.16,40.34" class="stroke" stroke-dasharray="150"><set attributeName="opacity" to="0" dur="5.9s" /><animate attributeName="stroke-dashoffset" from="150" to="0" dur="1.8s" begin="5.9s" fill="freeze" /></path><path d="M53.08,54.43c4.17-0.68,8.5-1.09,11.06-1.77c1.25-0.33,1.6-0.23,2.39,0" class="stroke" stroke-dasharray="150"><set attributeName="opacity" to="0" dur="7.0s" /><animate attributeName="stroke-dashoffset" from="150" to="0" dur="1.8s" begin="7.0s" fill="freeze" /></path><path d="M38.23,54.06c0.8,0.45,1.28,2.04,1.44,2.95c0.16,0.91,0,14.9-0.16,20.57" class="stroke" stroke-dasharray="150"><set attributeName="opacity" to="0" dur="7.9s" /><animate attributeName="stroke-dashoffset" from="150" to="0" dur="1.8s" begin="7.9s" fill="freeze" /></path><path d="M32.63,78.92c0.87,0.58,2.48,0.84,3.43,0.3c6.69-3.77,25.21-12.76,30.84-16.08" class="stroke" stroke-dasharray="150"><set attributeName="opacity" to="0" dur="8.9s" /><animate attributeName="stroke-dashoffset" from="150" to="0" dur="1.8s" begin="8.9s" fill="freeze" /></path><path d="M73.08,27.18c0.64,0.2,1.93,1.43,3.21,1.22c1.28-0.2,17.18-3,18.79-3.2c1.6-0.2,4.01-0.41,4.17,3.88c0.08,2.05-1.5,25.17-5.03,34.48c-3.24,8.53-6.1,1.02-6.58,0.61" class="stroke" stroke-dasharray="150"><set attributeName="opacity" to="0" dur="9.9s" /><animate attributeName="stroke-dashoffset" from="150" to="0" dur="1.8s" begin="9.9s" fill="freeze" /></path><path d="M75.44,28.69c0.16,0.91,0,61.65-0.16,67.31" class="stroke" stroke-dasharray="150"><set attributeName="opacity" to="0" dur="11.6s" /><animate attributeName="stroke-dashoffset" from="150" to="0" dur="1.8s" begin="11.6s" fill="freeze" /></path><text x="90" y="120" id="reset">⟳</text><text x="70" y="120" id="pause">◼</text><script type="text/javascript"><![CDATA[function RecurringTimer(e,t){var n,r,i=t;this.pause=function(){window.clearTimeout(n);i-=new Date-r};var s=function(){r=new Date;n=window.setTimeout(function(){i=t;s();e()},i)};this.clear=function(){window.clearTimeout(n);i=t;n=window.setTimeout(function(){i=t;s();e()},i)};this.resume=s;this.resume()}function invoketimer(){timer=new RecurringTimer(function(){svg.setCurrentTime(0)},14100)}var svg=document.getElementById("kanjivg");var pause=document.getElementById("pause");var reset=document.getElementById("reset");var timer;invoketimer();reset.onclick=function(){svg.setCurrentTime(0);timer.clear();svg.unpauseAnimations();pause.innerHTML = "◼";};pause.onclick=function(){if(svg.animationsPaused()){svg.unpauseAnimations();timer.resume();pause.innerHTML="◼"}else{svg.pauseAnimations();timer.pause();pause.innerHTML="▶"}}]]></script></svg>