<svg id="kanjivg" width="106" height="126" xmlns="http://www.w3.org/2000/svg" xmlns:xlink="http://www.w3.org/1999/xlink" xml:space="preserve" version="1.1" baseProfile="full"><defs><style type="text/css"><![CDATA[path.black { fill:none;stroke:black;stroke-width:5;stroke-linecap:round;stroke-linejoin:round; }path.grey { fill:none;stroke:#ddd;stroke-width:5;stroke-linecap:round;stroke-linejoin:round; }path.stroke { fill:none;stroke:black;stroke-width:5;stroke-linecap:round;stroke-linejoin:round; }rect { fill:none;stroke:#555;stroke-width:2;} text{font-size:16px;font-family:Segoe UI Symbol,Cambria Math,DejaVu Sans,Symbola,Quivira,STIX,Code2000;-webkit-touch-callout:none;cursor:pointer;-webkit-user-select:none;-khtml-user-select:none;-moz-user-select:none;-ms-user-select:none;user-select: none;} #reset { font-weight:bold; }]]></style><marker id="markerStart" markerWidth="8" markerHeight="8" style="overflow:visible;"><circle cx="0" cy="0" r="1.5" style="stroke:none;fill:red;fill-opacity:0.5;"/></marker><marker id="markerEnd" style="overflow:visible;"><circle cx="0" cy="0" r="0.8" style="stroke:none;fill:blue;fill-opacity:0.5;"><animate attributeName="opacity" from="1" to="0" dur="3s" repeatCount="indefinite" /></circle></marker></defs><rect x="4" y="4" width="100" height="100" /><path d="M9.75,34.32c0.35,0.45,0.72,0.82,0.87,1.39c1.23,4.46,3.7,17.78,4.54,25.79" class="grey" /><path d="M11.96,36.46c8.94-1.96,15.27-3.14,19.41-3.72c1.52-0.21,2.43,1.27,2.21,2.53c-0.9,5.21-2.45,12.26-3.78,19.47" class="grey" /><path d="M14.82,57.83c4.87-0.66,10.75-1.43,17.43-2.45" class="grey" /><path d="M41.36,25.78c1.53,0.34,3.54,0.44,5.28,0.25c7.82-0.82,36.84-4.03,45.09-4.89c1.73-0.18,3.67-0.27,4.76,0" class="grey" /><path d="M65.76,10.75c0.98,0.49,1.76,2.18,1.76,3.2c0,6.76,0,18.06,0,26.46" class="grey" /><path d="M42.41,41.38c0.59,1.31,1.09,3.39,1.17,5.76c0.2,5.5-0.17,48.27-0.17,50.69" class="grey" /><path d="M43.48,43.45c7.44-1.05,46.7-5.81,48.19-5.81c2.87,0,4.31,1.34,4.31,4.88c0,5.5-0.31,41.77-0.31,47.8c0,8.06-3.46,6.95-8.15,1.19" class="grey" /><path d="M56.62,46.44c2.07,1.39,5.35,5.73,5.87,7.9" class="grey" /><path d="M79.23,42.72c0.02,0.3,0.05,0.76-0.04,1.19c-0.53,2.5-3.59,7.99-7.77,11.35" class="grey" /><path d="M52.78,58.75c0.59,0.29,1.68,0.32,2.27,0.29c6.17-0.33,21.27-2.44,28.22-3.33c0.98-0.13,1.58,0.14,2.08,0.28" class="grey" /><path d="M50.26,71.96c0.71,0.27,3.92,0.3,4.63,0.27c7.38-0.31,23-2.89,31.47-3.82c1.18-0.13,1.89,0.13,2.48,0.27" class="grey" /><path d="M66.72,60.2c1.12,0.94,1.72,3.29,1.72,4.59c-0.04,8.46-0.19,24.62-0.19,27.58" class="grey" /><path d="M9.75,34.32c0.35,0.45,0.72,0.82,0.87,1.39c1.23,4.46,3.7,17.78,4.54,25.79" class="stroke" stroke-dasharray="150"><animate attributeName="stroke-dashoffset" from="150" to="0" dur="1.8s" begin="0s" fill="freeze" /></path><path d="M11.96,36.46c8.94-1.96,15.27-3.14,19.41-3.72c1.52-0.21,2.43,1.27,2.21,2.53c-0.9,5.21-2.45,12.26-3.78,19.47" class="stroke" stroke-dasharray="150"><set attributeName="opacity" to="0" dur="1.0s" /><animate attributeName="stroke-dashoffset" from="150" to="0" dur="1.8s" begin="1.0s" fill="freeze" /></path><path d="M14.82,57.83c4.87-0.66,10.75-1.43,17.43-2.45" class="stroke" stroke-dasharray="150"><set attributeName="opacity" to="0" dur="2.1s" /><animate attributeName="stroke-dashoffset" from="150" to="0" dur="1.8s" begin="2.1s" fill="freeze" /></path><path d="M41.36,25.78c1.53,0.34,3.54,0.44,5.28,0.25c7.82-0.82,36.84-4.03,45.09-4.89c1.73-0.18,3.67-0.27,4.76,0" class="stroke" stroke-dasharray="150"><set attributeName="opacity" to="0" dur="3.0s" /><animate attributeName="stroke-dashoffset" from="150" to="0" dur="1.8s" begin="3.0s" fill="freeze" /></path><path d="M65.76,10.75c0.98,0.49,1.76,2.18,1.76,3.2c0,6.76,0,18.06,0,26.46" class="stroke" stroke-dasharray="150"><set attributeName="opacity" to="0" dur="4.4s" /><animate attributeName="stroke-dashoffset" from="150" to="0" dur="1.8s" begin="4.4s" fill="freeze" /></path><path d="M42.41,41.38c0.59,1.31,1.09,3.39,1.17,5.76c0.2,5.5-0.17,48.27-0.17,50.69" class="stroke" stroke-dasharray="150"><set attributeName="opacity" to="0" dur="5.4s" /><animate attributeName="stroke-dashoffset" from="150" to="0" dur="1.8s" begin="5.4s" fill="freeze" /></path><path d="M43.48,43.45c7.44-1.05,46.7-5.81,48.19-5.81c2.87,0,4.31,1.34,4.31,4.88c0,5.5-0.31,41.77-0.31,47.8c0,8.06-3.46,6.95-8.15,1.19" class="stroke" stroke-dasharray="150"><set attributeName="opacity" to="0" dur="6.800000000000001s" /><animate attributeName="stroke-dashoffset" from="150" to="0" dur="1.8s" begin="6.800000000000001s" fill="freeze" /></path><path d="M56.62,46.44c2.07,1.39,5.35,5.73,5.87,7.9" class="stroke" stroke-dasharray="150"><set attributeName="opacity" to="0" dur="8.8s" /><animate attributeName="stroke-dashoffset" from="150" to="0" dur="1.8s" begin="8.8s" fill="freeze" /></path><path d="M79.23,42.72c0.02,0.3,0.05,0.76-0.04,1.19c-0.53,2.5-3.59,7.99-7.77,11.35" class="stroke" stroke-dasharray="150"><set attributeName="opacity" to="0" dur="9.700000000000001s" /><animate attributeName="stroke-dashoffset" from="150" to="0" dur="1.8s" begin="9.700000000000001s" fill="freeze" /></path><path d="M52.78,58.75c0.59,0.29,1.68,0.32,2.27,0.29c6.17-0.33,21.27-2.44,28.22-3.33c0.98-0.13,1.58,0.14,2.08,0.28" class="stroke" stroke-dasharray="150"><set attributeName="opacity" to="0" dur="10.600000000000001s" /><animate attributeName="stroke-dashoffset" from="150" to="0" dur="1.8s" begin="10.600000000000001s" fill="freeze" /></path><path d="M50.26,71.96c0.71,0.27,3.92,0.3,4.63,0.27c7.38-0.31,23-2.89,31.47-3.82c1.18-0.13,1.89,0.13,2.48,0.27" class="stroke" stroke-dasharray="150"><set attributeName="opacity" to="0" dur="11.600000000000001s" /><animate attributeName="stroke-dashoffset" from="150" to="0" dur="1.8s" begin="11.600000000000001s" fill="freeze" /></path><path d="M66.72,60.2c1.12,0.94,1.72,3.29,1.72,4.59c-0.04,8.46-0.19,24.62-0.19,27.58" class="stroke" stroke-dasharray="150"><set attributeName="opacity" to="0" dur="12.600000000000001s" /><animate attributeName="stroke-dashoffset" from="150" to="0" dur="1.8s" begin="12.600000000000001s" fill="freeze" /></path><text x="90" y="120" id="reset">⟳</text><text x="70" y="120" id="pause">◼</text><script type="text/javascript"><![CDATA[function RecurringTimer(e,t){var n,r,i=t;this.pause=function(){window.clearTimeout(n);i-=new Date-r};var s=function(){r=new Date;n=window.setTimeout(function(){i=t;s();e()},i)};this.clear=function(){window.clearTimeout(n);i=t;n=window.setTimeout(function(){i=t;s();e()},i)};this.resume=s;this.resume()}function invoketimer(){timer=new RecurringTimer(function(){svg.setCurrentTime(0)},14600)}var svg=document.getElementById("kanjivg");var pause=document.getElementById("pause");var reset=document.getElementById("reset");var timer;invoketimer();reset.onclick=function(){svg.setCurrentTime(0);timer.clear();svg.unpauseAnimations();pause.innerHTML = "◼";};pause.onclick=function(){if(svg.animationsPaused()){svg.unpauseAnimations();timer.resume();pause.innerHTML="◼"}else{svg.pauseAnimations();timer.pause();pause.innerHTML="▶"}}]]></script></svg>