<svg id="kanjivg" width="106" height="126" xmlns="http://www.w3.org/2000/svg" xmlns:xlink="http://www.w3.org/1999/xlink" xml:space="preserve" version="1.1" baseProfile="full"><defs><style type="text/css"><![CDATA[path.black { fill:none;stroke:black;stroke-width:5;stroke-linecap:round;stroke-linejoin:round; }path.grey { fill:none;stroke:#ddd;stroke-width:5;stroke-linecap:round;stroke-linejoin:round; }path.stroke { fill:none;stroke:black;stroke-width:5;stroke-linecap:round;stroke-linejoin:round; }rect { fill:none;stroke:#555;stroke-width:2;} text{font-size:16px;font-family:Segoe UI Symbol,Cambria Math,DejaVu Sans,Symbola,Quivira,STIX,Code2000;-webkit-touch-callout:none;cursor:pointer;-webkit-user-select:none;-khtml-user-select:none;-moz-user-select:none;-ms-user-select:none;user-select: none;} #reset { font-weight:bold; }]]></style><marker id="markerStart" markerWidth="8" markerHeight="8" style="overflow:visible;"><circle cx="0" cy="0" r="1.5" style="stroke:none;fill:red;fill-opacity:0.5;"/></marker><marker id="markerEnd" style="overflow:visible;"><circle cx="0" cy="0" r="0.8" style="stroke:none;fill:blue;fill-opacity:0.5;"><animate attributeName="opacity" from="1" to="0" dur="3s" repeatCount="indefinite" /></circle></marker></defs><rect x="4" y="4" width="100" height="100" /><path d="M8.75,34.56C9.07,35,9.4,35.38,9.54,35.94c1.11,4.42,3.35,18.12,4.11,26.06" class="grey" /><path d="M10.75,36.68c8.09-1.94,13.83-3.11,17.58-3.69c1.37-0.21,2.2,1.26,2,2.51c-0.81,5.17-2.22,12.65-3.43,19.8" class="grey" /><path d="M13.35,57.86c4.41-0.66,9.73-1.42,15.79-2.43" class="grey" /><path d="M36.96,27.75c0.61,0.45,2.73,0.73,3.34,0.65c5.12-0.61,20.26-3.29,25.74-3.71c1.02-0.08,2.63,0.21,3.14,0.43" class="grey" /><path d="M38.59,38.1c0.23,0.36,0.46,0.66,0.56,1.11c0.79,3.57,2.19,12.73,2.73,19.14" class="grey" /><path d="M40.01,40.05c6.86-1.54,23.14-3.5,25.83-3.86c1.67-0.22,2.73,2.31,2.29,4.38c-1.18,5.54-1.47,7.98-2.41,12.21" class="grey" /><path d="M41.99,56.25c8.24-0.89,18.97-2.28,25.15-2.95" class="grey" /><path d="M52.16,12.75c0.97,0.47,1.56,2.13,1.75,3.08c0.19,0.95-0.19,69.73-0.19,75.67c0,11-3.47,4.25-5.22,2.5" class="grey" /><path d="M53.17,55.87c-4.6,10.2-16.57,24.64-26.15,30.42" class="grey" /><path d="M56.01,61.17c5.67,2.99,10.23,8.87,13.08,14.84" class="grey" /><path d="M77.95,23.97c0.77,0.79,1.31,1.71,1.38,4.31c0.32,12.51-0.02,37.11-0.02,41.37" class="grey" /><path d="M92.75,14.07c0.99,0.88,1.68,1.9,1.76,4.8c0.41,13.93-0.26,65.72-0.26,70.46c0,12.58-7.25,1.44-8.76,0.24" class="grey" /><path d="M8.75,34.56C9.07,35,9.4,35.38,9.54,35.94c1.11,4.42,3.35,18.12,4.11,26.06" class="stroke" stroke-dasharray="150"><animate attributeName="stroke-dashoffset" from="150" to="0" dur="1.8s" begin="0s" fill="freeze" /></path><path d="M10.75,36.68c8.09-1.94,13.83-3.11,17.58-3.69c1.37-0.21,2.2,1.26,2,2.51c-0.81,5.17-2.22,12.65-3.43,19.8" class="stroke" stroke-dasharray="150"><set attributeName="opacity" to="0" dur="1.0s" /><animate attributeName="stroke-dashoffset" from="150" to="0" dur="1.8s" begin="1.0s" fill="freeze" /></path><path d="M13.35,57.86c4.41-0.66,9.73-1.42,15.79-2.43" class="stroke" stroke-dasharray="150"><set attributeName="opacity" to="0" dur="2.1s" /><animate attributeName="stroke-dashoffset" from="150" to="0" dur="1.8s" begin="2.1s" fill="freeze" /></path><path d="M36.96,27.75c0.61,0.45,2.73,0.73,3.34,0.65c5.12-0.61,20.26-3.29,25.74-3.71c1.02-0.08,2.63,0.21,3.14,0.43" class="stroke" stroke-dasharray="150"><set attributeName="opacity" to="0" dur="3.0s" /><animate attributeName="stroke-dashoffset" from="150" to="0" dur="1.8s" begin="3.0s" fill="freeze" /></path><path d="M38.59,38.1c0.23,0.36,0.46,0.66,0.56,1.11c0.79,3.57,2.19,12.73,2.73,19.14" class="stroke" stroke-dasharray="150"><set attributeName="opacity" to="0" dur="4.0s" /><animate attributeName="stroke-dashoffset" from="150" to="0" dur="1.8s" begin="4.0s" fill="freeze" /></path><path d="M40.01,40.05c6.86-1.54,23.14-3.5,25.83-3.86c1.67-0.22,2.73,2.31,2.29,4.38c-1.18,5.54-1.47,7.98-2.41,12.21" class="stroke" stroke-dasharray="150"><set attributeName="opacity" to="0" dur="5.0s" /><animate attributeName="stroke-dashoffset" from="150" to="0" dur="1.8s" begin="5.0s" fill="freeze" /></path><path d="M41.99,56.25c8.24-0.89,18.97-2.28,25.15-2.95" class="stroke" stroke-dasharray="150"><set attributeName="opacity" to="0" dur="6.1s" /><animate attributeName="stroke-dashoffset" from="150" to="0" dur="1.8s" begin="6.1s" fill="freeze" /></path><path d="M52.16,12.75c0.97,0.47,1.56,2.13,1.75,3.08c0.19,0.95-0.19,69.73-0.19,75.67c0,11-3.47,4.25-5.22,2.5" class="stroke" stroke-dasharray="150"><set attributeName="opacity" to="0" dur="7.1s" /><animate attributeName="stroke-dashoffset" from="150" to="0" dur="1.8s" begin="7.1s" fill="freeze" /></path><path d="M53.17,55.87c-4.6,10.2-16.57,24.64-26.15,30.42" class="stroke" stroke-dasharray="150"><set attributeName="opacity" to="0" dur="8.9s" /><animate attributeName="stroke-dashoffset" from="150" to="0" dur="1.8s" begin="8.9s" fill="freeze" /></path><path d="M56.01,61.17c5.67,2.99,10.23,8.87,13.08,14.84" class="stroke" stroke-dasharray="150"><set attributeName="opacity" to="0" dur="10.0s" /><animate attributeName="stroke-dashoffset" from="150" to="0" dur="1.8s" begin="10.0s" fill="freeze" /></path><path d="M77.95,23.97c0.77,0.79,1.31,1.71,1.38,4.31c0.32,12.51-0.02,37.11-0.02,41.37" class="stroke" stroke-dasharray="150"><set attributeName="opacity" to="0" dur="11.0s" /><animate attributeName="stroke-dashoffset" from="150" to="0" dur="1.8s" begin="11.0s" fill="freeze" /></path><path d="M92.75,14.07c0.99,0.88,1.68,1.9,1.76,4.8c0.41,13.93-0.26,65.72-0.26,70.46c0,12.58-7.25,1.44-8.76,0.24" class="stroke" stroke-dasharray="150"><set attributeName="opacity" to="0" dur="12.2s" /><animate attributeName="stroke-dashoffset" from="150" to="0" dur="1.8s" begin="12.2s" fill="freeze" /></path><text x="90" y="120" id="reset">⟳</text><text x="70" y="120" id="pause">◼</text><script type="text/javascript"><![CDATA[function RecurringTimer(e,t){var n,r,i=t;this.pause=function(){window.clearTimeout(n);i-=new Date-r};var s=function(){r=new Date;n=window.setTimeout(function(){i=t;s();e()},i)};this.clear=function(){window.clearTimeout(n);i=t;n=window.setTimeout(function(){i=t;s();e()},i)};this.resume=s;this.resume()}function invoketimer(){timer=new RecurringTimer(function(){svg.setCurrentTime(0)},15000)}var svg=document.getElementById("kanjivg");var pause=document.getElementById("pause");var reset=document.getElementById("reset");var timer;invoketimer();reset.onclick=function(){svg.setCurrentTime(0);timer.clear();svg.unpauseAnimations();pause.innerHTML = "◼";};pause.onclick=function(){if(svg.animationsPaused()){svg.unpauseAnimations();timer.resume();pause.innerHTML="◼"}else{svg.pauseAnimations();timer.pause();pause.innerHTML="▶"}}]]></script></svg>