<svg id="kanjivg" width="106" height="126" xmlns="http://www.w3.org/2000/svg" xmlns:xlink="http://www.w3.org/1999/xlink" xml:space="preserve" version="1.1" baseProfile="full"><defs><style type="text/css"><![CDATA[path.black { fill:none;stroke:black;stroke-width:5;stroke-linecap:round;stroke-linejoin:round; }path.grey { fill:none;stroke:#ddd;stroke-width:5;stroke-linecap:round;stroke-linejoin:round; }path.stroke { fill:none;stroke:black;stroke-width:5;stroke-linecap:round;stroke-linejoin:round; }rect { fill:none;stroke:#555;stroke-width:2;} text{font-size:16px;font-family:Segoe UI Symbol,Cambria Math,DejaVu Sans,Symbola,Quivira,STIX,Code2000;-webkit-touch-callout:none;cursor:pointer;-webkit-user-select:none;-khtml-user-select:none;-moz-user-select:none;-ms-user-select:none;user-select: none;} #reset { font-weight:bold; }]]></style><marker id="markerStart" markerWidth="8" markerHeight="8" style="overflow:visible;"><circle cx="0" cy="0" r="1.5" style="stroke:none;fill:red;fill-opacity:0.5;"/></marker><marker id="markerEnd" style="overflow:visible;"><circle cx="0" cy="0" r="0.8" style="stroke:none;fill:blue;fill-opacity:0.5;"><animate attributeName="opacity" from="1" to="0" dur="3s" repeatCount="indefinite" /></circle></marker></defs><rect x="4" y="4" width="100" height="100" /><path d="M10.75,27.79c0.86,0.85,1.03,1.62,1.15,2.58c0.53,6.54,1.16,11.92,1.69,18.24c0.2,2.37,0.39,4.88,0.56,7.63" class="grey" /><path d="M12.08,29.22c6.7-1.27,10.78-1.88,14.57-2.45c2.52-0.38,4.44,0.91,4,3.74c-0.91,5.83-1.64,12.23-2.78,20.6" class="grey" /><path d="M15.32,53.8c3.83-0.56,5.66-0.73,9.43-1.16c1.29-0.15,2.81-0.32,4.71-0.55" class="grey" /><path d="M50.01,17.75c0,1.21-0.07,2.24-0.53,3.41c-5.6,13.97-11.73,27.22-22.23,40.38" class="grey" /><path d="M40.87,45c0.88,0.88,1.14,1.97,1.14,3.23c0,8.99,0,25.87,0,37.27c0,4.32,0,7.85,0,9.88" class="grey" /><path d="M58.73,17.4c2.23,0.35,4.44,0.36,6.63,0.03c5.33-0.66,10.69-1.57,14.52-2.01c1.74-0.2,4.85,0.22,4.25,3.11C83.62,21,82.88,26,82.25,30" class="grey" /><path d="M52.11,32.65c3.14,0.6,6.18,0.45,9.25,0.1c8.64-1,20-1.9,28.14-2.41c3.01-0.34,6-0.16,8.99,0.53" class="grey" /><path d="M63.6,39.5c0.1,0.99,0,1.95-0.3,2.89c-2.67,5.86-5.93,11.19-10.75,16.85" class="grey" /><path d="M63.7,48.33c1.98,0.47,3.9,0.14,5.91-0.09c4.27-0.49,11.52-1.36,16.48-2.46c2.02-0.45,3.98-0.43,6,0.03" class="grey" /><path d="M48.12,65.69c2.87,0.48,5.72,0.25,8.63-0.08c9.62-1.09,23.26-2.46,31.76-2.86c3.14-0.29,6.24,0.13,9.26,0.8" class="grey" /><path d="M71.76,50.55c0.85,0.85,0.86,2.23,0.84,3.5c-0.34,18.2-7.84,34.2-24.66,41.12" class="grey" /><path d="M72.88,65.88c3.94,6.82,9.22,13.53,15.85,21.53c2.01,2.14,4.19,4.1,6.52,5.87" class="grey" /><path d="M10.75,27.79c0.86,0.85,1.03,1.62,1.15,2.58c0.53,6.54,1.16,11.92,1.69,18.24c0.2,2.37,0.39,4.88,0.56,7.63" class="stroke" stroke-dasharray="150"><animate attributeName="stroke-dashoffset" from="150" to="0" dur="1.8s" begin="0s" fill="freeze" /></path><path d="M12.08,29.22c6.7-1.27,10.78-1.88,14.57-2.45c2.52-0.38,4.44,0.91,4,3.74c-0.91,5.83-1.64,12.23-2.78,20.6" class="stroke" stroke-dasharray="150"><set attributeName="opacity" to="0" dur="1.0s" /><animate attributeName="stroke-dashoffset" from="150" to="0" dur="1.8s" begin="1.0s" fill="freeze" /></path><path d="M15.32,53.8c3.83-0.56,5.66-0.73,9.43-1.16c1.29-0.15,2.81-0.32,4.71-0.55" class="stroke" stroke-dasharray="150"><set attributeName="opacity" to="0" dur="2.1s" /><animate attributeName="stroke-dashoffset" from="150" to="0" dur="1.8s" begin="2.1s" fill="freeze" /></path><path d="M50.01,17.75c0,1.21-0.07,2.24-0.53,3.41c-5.6,13.97-11.73,27.22-22.23,40.38" class="stroke" stroke-dasharray="150"><set attributeName="opacity" to="0" dur="3.0s" /><animate attributeName="stroke-dashoffset" from="150" to="0" dur="1.8s" begin="3.0s" fill="freeze" /></path><path d="M40.87,45c0.88,0.88,1.14,1.97,1.14,3.23c0,8.99,0,25.87,0,37.27c0,4.32,0,7.85,0,9.88" class="stroke" stroke-dasharray="150"><set attributeName="opacity" to="0" dur="4.2s" /><animate attributeName="stroke-dashoffset" from="150" to="0" dur="1.8s" begin="4.2s" fill="freeze" /></path><path d="M58.73,17.4c2.23,0.35,4.44,0.36,6.63,0.03c5.33-0.66,10.69-1.57,14.52-2.01c1.74-0.2,4.85,0.22,4.25,3.11C83.62,21,82.88,26,82.25,30" class="stroke" stroke-dasharray="150"><set attributeName="opacity" to="0" dur="5.5s" /><animate attributeName="stroke-dashoffset" from="150" to="0" dur="1.8s" begin="5.5s" fill="freeze" /></path><path d="M52.11,32.65c3.14,0.6,6.18,0.45,9.25,0.1c8.64-1,20-1.9,28.14-2.41c3.01-0.34,6-0.16,8.99,0.53" class="stroke" stroke-dasharray="150"><set attributeName="opacity" to="0" dur="6.5s" /><animate attributeName="stroke-dashoffset" from="150" to="0" dur="1.8s" begin="6.5s" fill="freeze" /></path><path d="M63.6,39.5c0.1,0.99,0,1.95-0.3,2.89c-2.67,5.86-5.93,11.19-10.75,16.85" class="stroke" stroke-dasharray="150"><set attributeName="opacity" to="0" dur="7.7s" /><animate attributeName="stroke-dashoffset" from="150" to="0" dur="1.8s" begin="7.7s" fill="freeze" /></path><path d="M63.7,48.33c1.98,0.47,3.9,0.14,5.91-0.09c4.27-0.49,11.52-1.36,16.48-2.46c2.02-0.45,3.98-0.43,6,0.03" class="stroke" stroke-dasharray="150"><set attributeName="opacity" to="0" dur="8.7s" /><animate attributeName="stroke-dashoffset" from="150" to="0" dur="1.8s" begin="8.7s" fill="freeze" /></path><path d="M48.12,65.69c2.87,0.48,5.72,0.25,8.63-0.08c9.62-1.09,23.26-2.46,31.76-2.86c3.14-0.29,6.24,0.13,9.26,0.8" class="stroke" stroke-dasharray="150"><set attributeName="opacity" to="0" dur="9.7s" /><animate attributeName="stroke-dashoffset" from="150" to="0" dur="1.8s" begin="9.7s" fill="freeze" /></path><path d="M71.76,50.55c0.85,0.85,0.86,2.23,0.84,3.5c-0.34,18.2-7.84,34.2-24.66,41.12" class="stroke" stroke-dasharray="150"><set attributeName="opacity" to="0" dur="10.899999999999999s" /><animate attributeName="stroke-dashoffset" from="150" to="0" dur="1.8s" begin="10.899999999999999s" fill="freeze" /></path><path d="M72.88,65.88c3.94,6.82,9.22,13.53,15.85,21.53c2.01,2.14,4.19,4.1,6.52,5.87" class="stroke" stroke-dasharray="150"><set attributeName="opacity" to="0" dur="12.2s" /><animate attributeName="stroke-dashoffset" from="150" to="0" dur="1.8s" begin="12.2s" fill="freeze" /></path><text x="90" y="120" id="reset">⟳</text><text x="70" y="120" id="pause">◼</text><script type="text/javascript"><![CDATA[function RecurringTimer(e,t){var n,r,i=t;this.pause=function(){window.clearTimeout(n);i-=new Date-r};var s=function(){r=new Date;n=window.setTimeout(function(){i=t;s();e()},i)};this.clear=function(){window.clearTimeout(n);i=t;n=window.setTimeout(function(){i=t;s();e()},i)};this.resume=s;this.resume()}function invoketimer(){timer=new RecurringTimer(function(){svg.setCurrentTime(0)},14200)}var svg=document.getElementById("kanjivg");var pause=document.getElementById("pause");var reset=document.getElementById("reset");var timer;invoketimer();reset.onclick=function(){svg.setCurrentTime(0);timer.clear();svg.unpauseAnimations();pause.innerHTML = "◼";};pause.onclick=function(){if(svg.animationsPaused()){svg.unpauseAnimations();timer.resume();pause.innerHTML="◼"}else{svg.pauseAnimations();timer.pause();pause.innerHTML="▶"}}]]></script></svg>