<svg id="kanjivg" width="106" height="126" xmlns="http://www.w3.org/2000/svg" xmlns:xlink="http://www.w3.org/1999/xlink" xml:space="preserve" version="1.1" baseProfile="full"><defs><style type="text/css"><![CDATA[path.black { fill:none;stroke:black;stroke-width:5;stroke-linecap:round;stroke-linejoin:round; }path.grey { fill:none;stroke:#ddd;stroke-width:5;stroke-linecap:round;stroke-linejoin:round; }path.stroke { fill:none;stroke:black;stroke-width:5;stroke-linecap:round;stroke-linejoin:round; }rect { fill:none;stroke:#555;stroke-width:2;} text{font-size:16px;font-family:Segoe UI Symbol,Cambria Math,DejaVu Sans,Symbola,Quivira,STIX,Code2000;-webkit-touch-callout:none;cursor:pointer;-webkit-user-select:none;-khtml-user-select:none;-moz-user-select:none;-ms-user-select:none;user-select: none;} #reset { font-weight:bold; }]]></style><marker id="markerStart" markerWidth="8" markerHeight="8" style="overflow:visible;"><circle cx="0" cy="0" r="1.5" style="stroke:none;fill:red;fill-opacity:0.5;"/></marker><marker id="markerEnd" style="overflow:visible;"><circle cx="0" cy="0" r="0.8" style="stroke:none;fill:blue;fill-opacity:0.5;"><animate attributeName="opacity" from="1" to="0" dur="3s" repeatCount="indefinite" /></circle></marker></defs><rect x="4" y="4" width="100" height="100" /><path d="M35.52,12.33c3.63,1.7,9.38,6.99,10.29,9.63" class="grey" /><path d="M69.78,9.89c0.07,0.76-0.05,1.48-0.36,2.17c-0.98,2.54-3.55,6.13-8.36,10.4" class="grey" /><path d="M29,27.64c2.5,0.49,4.82,0.28,7,0.08c9.55-0.87,26.51-2.49,37.25-2.98c1.95-0.09,4.12-0.23,6.25,0.28" class="grey" /><path d="M30.25,39.14c2.62,0.61,4.82,0.29,6.99,0.12c9.76-0.77,24.35-2.03,33.39-2.68c2.1-0.15,4.62-0.08,6.62,0.18" class="grey" /><path d="M29.25,50.64c2.38,0.61,5.33,0.43,7.52,0.21c10.77-1.09,25.83-2.33,35.6-2.82c2.24-0.11,4.75-0.16,6.63,0.23" class="grey" /><path d="M51.75,26.75C53,27.25,53.75,29,54,30s0,28.75-0.25,35" class="grey" /><path d="M36.27,55.83c1.78,1.39,4.6,5.72,5.04,7.88" class="grey" /><path d="M72.04,51.89c0.08,0.61-0.01,1.19-0.27,1.74c-0.78,2.28-1.89,4.25-4.46,8.09" class="grey" /><path d="M13.75,68.45c3.13,1.12,6.98,0.59,10.21,0.21c12.67-1.48,45.53-4.59,62.16-5.08c3.14-0.09,6.29,0.05,9.38,0.71" class="grey" /><path d="M34.14,76.71c0.88,0.88,1.53,1.96,1.66,3.18c0.95,5.6,1.58,9.84,2.49,15.3c0.23,1.42,0.45,2.77,0.64,4.01" class="grey" /><path d="M36.41,78.17C46.06,76.78,63.3,75.2,71,74.49c3.37-0.31,6.15,0.23,5.08,4.27c-1.13,4.27-2.49,8.77-4.84,14.87" class="grey" /><path d="M39.62,96.93c5.53-0.51,19.55-1.47,28.88-2.29c1.8-0.16,2.75-0.13,4.79-0.14" class="grey" /><path d="M35.52,12.33c3.63,1.7,9.38,6.99,10.29,9.63" class="stroke" stroke-dasharray="150"><animate attributeName="stroke-dashoffset" from="150" to="0" dur="1.8s" begin="0s" fill="freeze" /></path><path d="M69.78,9.89c0.07,0.76-0.05,1.48-0.36,2.17c-0.98,2.54-3.55,6.13-8.36,10.4" class="stroke" stroke-dasharray="150"><set attributeName="opacity" to="0" dur="0.9s" /><animate attributeName="stroke-dashoffset" from="150" to="0" dur="1.8s" begin="0.9s" fill="freeze" /></path><path d="M29,27.64c2.5,0.49,4.82,0.28,7,0.08c9.55-0.87,26.51-2.49,37.25-2.98c1.95-0.09,4.12-0.23,6.25,0.28" class="stroke" stroke-dasharray="150"><set attributeName="opacity" to="0" dur="1.8s" /><animate attributeName="stroke-dashoffset" from="150" to="0" dur="1.8s" begin="1.8s" fill="freeze" /></path><path d="M30.25,39.14c2.62,0.61,4.82,0.29,6.99,0.12c9.76-0.77,24.35-2.03,33.39-2.68c2.1-0.15,4.62-0.08,6.62,0.18" class="stroke" stroke-dasharray="150"><set attributeName="opacity" to="0" dur="3.1s" /><animate attributeName="stroke-dashoffset" from="150" to="0" dur="1.8s" begin="3.1s" fill="freeze" /></path><path d="M29.25,50.64c2.38,0.61,5.33,0.43,7.52,0.21c10.77-1.09,25.83-2.33,35.6-2.82c2.24-0.11,4.75-0.16,6.63,0.23" class="stroke" stroke-dasharray="150"><set attributeName="opacity" to="0" dur="4.3s" /><animate attributeName="stroke-dashoffset" from="150" to="0" dur="1.8s" begin="4.3s" fill="freeze" /></path><path d="M51.75,26.75C53,27.25,53.75,29,54,30s0,28.75-0.25,35" class="stroke" stroke-dasharray="150"><set attributeName="opacity" to="0" dur="5.5s" /><animate attributeName="stroke-dashoffset" from="150" to="0" dur="1.8s" begin="5.5s" fill="freeze" /></path><path d="M36.27,55.83c1.78,1.39,4.6,5.72,5.04,7.88" class="stroke" stroke-dasharray="150"><set attributeName="opacity" to="0" dur="6.5s" /><animate attributeName="stroke-dashoffset" from="150" to="0" dur="1.8s" begin="6.5s" fill="freeze" /></path><path d="M72.04,51.89c0.08,0.61-0.01,1.19-0.27,1.74c-0.78,2.28-1.89,4.25-4.46,8.09" class="stroke" stroke-dasharray="150"><set attributeName="opacity" to="0" dur="7.4s" /><animate attributeName="stroke-dashoffset" from="150" to="0" dur="1.8s" begin="7.4s" fill="freeze" /></path><path d="M13.75,68.45c3.13,1.12,6.98,0.59,10.21,0.21c12.67-1.48,45.53-4.59,62.16-5.08c3.14-0.09,6.29,0.05,9.38,0.71" class="stroke" stroke-dasharray="150"><set attributeName="opacity" to="0" dur="8.3s" /><animate attributeName="stroke-dashoffset" from="150" to="0" dur="1.8s" begin="8.3s" fill="freeze" /></path><path d="M34.14,76.71c0.88,0.88,1.53,1.96,1.66,3.18c0.95,5.6,1.58,9.84,2.49,15.3c0.23,1.42,0.45,2.77,0.64,4.01" class="stroke" stroke-dasharray="150"><set attributeName="opacity" to="0" dur="10.0s" /><animate attributeName="stroke-dashoffset" from="150" to="0" dur="1.8s" begin="10.0s" fill="freeze" /></path><path d="M36.41,78.17C46.06,76.78,63.3,75.2,71,74.49c3.37-0.31,6.15,0.23,5.08,4.27c-1.13,4.27-2.49,8.77-4.84,14.87" class="stroke" stroke-dasharray="150"><set attributeName="opacity" to="0" dur="11.0s" /><animate attributeName="stroke-dashoffset" from="150" to="0" dur="1.8s" begin="11.0s" fill="freeze" /></path><path d="M39.62,96.93c5.53-0.51,19.55-1.47,28.88-2.29c1.8-0.16,2.75-0.13,4.79-0.14" class="stroke" stroke-dasharray="150"><set attributeName="opacity" to="0" dur="12.4s" /><animate attributeName="stroke-dashoffset" from="150" to="0" dur="1.8s" begin="12.4s" fill="freeze" /></path><text x="90" y="120" id="reset">⟳</text><text x="70" y="120" id="pause">◼</text><script type="text/javascript"><![CDATA[function RecurringTimer(e,t){var n,r,i=t;this.pause=function(){window.clearTimeout(n);i-=new Date-r};var s=function(){r=new Date;n=window.setTimeout(function(){i=t;s();e()},i)};this.clear=function(){window.clearTimeout(n);i=t;n=window.setTimeout(function(){i=t;s();e()},i)};this.resume=s;this.resume()}function invoketimer(){timer=new RecurringTimer(function(){svg.setCurrentTime(0)},14400)}var svg=document.getElementById("kanjivg");var pause=document.getElementById("pause");var reset=document.getElementById("reset");var timer;invoketimer();reset.onclick=function(){svg.setCurrentTime(0);timer.clear();svg.unpauseAnimations();pause.innerHTML = "◼";};pause.onclick=function(){if(svg.animationsPaused()){svg.unpauseAnimations();timer.resume();pause.innerHTML="◼"}else{svg.pauseAnimations();timer.pause();pause.innerHTML="▶"}}]]></script></svg>