<svg id="kanjivg" width="106" height="126" xmlns="http://www.w3.org/2000/svg" xmlns:xlink="http://www.w3.org/1999/xlink" xml:space="preserve" version="1.1" baseProfile="full"><defs><style type="text/css"><![CDATA[path.black { fill:none;stroke:black;stroke-width:5;stroke-linecap:round;stroke-linejoin:round; }path.grey { fill:none;stroke:#ddd;stroke-width:5;stroke-linecap:round;stroke-linejoin:round; }path.stroke { fill:none;stroke:black;stroke-width:5;stroke-linecap:round;stroke-linejoin:round; }rect { fill:none;stroke:#555;stroke-width:2;} text{font-size:16px;font-family:Segoe UI Symbol,Cambria Math,DejaVu Sans,Symbola,Quivira,STIX,Code2000;-webkit-touch-callout:none;cursor:pointer;-webkit-user-select:none;-khtml-user-select:none;-moz-user-select:none;-ms-user-select:none;user-select: none;} #reset { font-weight:bold; }]]></style><marker id="markerStart" markerWidth="8" markerHeight="8" style="overflow:visible;"><circle cx="0" cy="0" r="1.5" style="stroke:none;fill:red;fill-opacity:0.5;"/></marker><marker id="markerEnd" style="overflow:visible;"><circle cx="0" cy="0" r="0.8" style="stroke:none;fill:blue;fill-opacity:0.5;"><animate attributeName="opacity" from="1" to="0" dur="3s" repeatCount="indefinite" /></circle></marker></defs><rect x="4" y="4" width="100" height="100" /><path d="M10.25,34.59c0.35,0.45,0.71,0.83,0.86,1.4c1.21,4.5,3.17,17.42,4,25.51" class="grey" /><path d="M11.43,36.25c8.07-1.75,15.61-3.17,19.71-3.76c1.5-0.22,2.4,1.28,2.18,2.55c-0.89,5.26-1.93,12.89-3.25,20.17" class="grey" /><path d="M15.27,57.83c4.82-0.67,10.63-0.93,17.24-1.96" class="grey" /><path d="M61.91,11.7c2.95,1.32,6.97,4.99,7.84,8.91" class="grey" /><path d="M44.01,26.55c0,3.22-2.6,12.06-3.78,14.21" class="grey" /><path d="M43.93,29.67c13.15-1.7,35.19-4.14,45.99-4.52c11.08-0.39,1,7.63-0.3,8.27" class="grey" /><path d="M59.75,32.08c0.05,0.54,0.1,1.41-0.1,2.19c-1.19,4.61-7.5,15.23-16.84,21.43" class="grey" /><path d="M59.83,40.65c0.31,0.03,1.63,0,2.52-0.08c2.91-0.27,10.73-2.98,14.88-3.82c2.85-0.57,3.72,0.68,2.93,2.22C73.75,51.5,58.5,68.5,36.62,75.63" class="grey" /><path d="M55.68,47.53C62,52,82.18,66.59,91.12,70.5c2.19,0.96,3.82,1.69,5.88,2.02" class="grey" /><path d="M48.8,74.69c0.4,0.41,0.81,0.75,0.98,1.26c1.38,4.05,3.04,15.23,3.98,22.51" class="grey" /><path d="M51.28,76.53c9.04-1.81,25.44-3.54,30.11-4.07c1.71-0.2,2.73,1.15,2.49,2.3c-1.01,4.73-2.19,11.37-3.69,17.92" class="grey" /><path d="M53.95,95.83c5.48-0.6,20.41-1.64,27.94-2.57" class="grey" /><path d="M10.25,34.59c0.35,0.45,0.71,0.83,0.86,1.4c1.21,4.5,3.17,17.42,4,25.51" class="stroke" stroke-dasharray="150"><animate attributeName="stroke-dashoffset" from="150" to="0" dur="1.8s" begin="0s" fill="freeze" /></path><path d="M11.43,36.25c8.07-1.75,15.61-3.17,19.71-3.76c1.5-0.22,2.4,1.28,2.18,2.55c-0.89,5.26-1.93,12.89-3.25,20.17" class="stroke" stroke-dasharray="150"><set attributeName="opacity" to="0" dur="1.0s" /><animate attributeName="stroke-dashoffset" from="150" to="0" dur="1.8s" begin="1.0s" fill="freeze" /></path><path d="M15.27,57.83c4.82-0.67,10.63-0.93,17.24-1.96" class="stroke" stroke-dasharray="150"><set attributeName="opacity" to="0" dur="2.1s" /><animate attributeName="stroke-dashoffset" from="150" to="0" dur="1.8s" begin="2.1s" fill="freeze" /></path><path d="M61.91,11.7c2.95,1.32,6.97,4.99,7.84,8.91" class="stroke" stroke-dasharray="150"><set attributeName="opacity" to="0" dur="3.0s" /><animate attributeName="stroke-dashoffset" from="150" to="0" dur="1.8s" begin="3.0s" fill="freeze" /></path><path d="M44.01,26.55c0,3.22-2.6,12.06-3.78,14.21" class="stroke" stroke-dasharray="150"><set attributeName="opacity" to="0" dur="3.9s" /><animate attributeName="stroke-dashoffset" from="150" to="0" dur="1.8s" begin="3.9s" fill="freeze" /></path><path d="M43.93,29.67c13.15-1.7,35.19-4.14,45.99-4.52c11.08-0.39,1,7.63-0.3,8.27" class="stroke" stroke-dasharray="150"><set attributeName="opacity" to="0" dur="4.8s" /><animate attributeName="stroke-dashoffset" from="150" to="0" dur="1.8s" begin="4.8s" fill="freeze" /></path><path d="M59.75,32.08c0.05,0.54,0.1,1.41-0.1,2.19c-1.19,4.61-7.5,15.23-16.84,21.43" class="stroke" stroke-dasharray="150"><set attributeName="opacity" to="0" dur="6.3s" /><animate attributeName="stroke-dashoffset" from="150" to="0" dur="1.8s" begin="6.3s" fill="freeze" /></path><path d="M59.83,40.65c0.31,0.03,1.63,0,2.52-0.08c2.91-0.27,10.73-2.98,14.88-3.82c2.85-0.57,3.72,0.68,2.93,2.22C73.75,51.5,58.5,68.5,36.62,75.63" class="stroke" stroke-dasharray="150"><set attributeName="opacity" to="0" dur="7.3s" /><animate attributeName="stroke-dashoffset" from="150" to="0" dur="1.8s" begin="7.3s" fill="freeze" /></path><path d="M55.68,47.53C62,52,82.18,66.59,91.12,70.5c2.19,0.96,3.82,1.69,5.88,2.02" class="stroke" stroke-dasharray="150"><set attributeName="opacity" to="0" dur="9.0s" /><animate attributeName="stroke-dashoffset" from="150" to="0" dur="1.8s" begin="9.0s" fill="freeze" /></path><path d="M48.8,74.69c0.4,0.41,0.81,0.75,0.98,1.26c1.38,4.05,3.04,15.23,3.98,22.51" class="stroke" stroke-dasharray="150"><set attributeName="opacity" to="0" dur="10.2s" /><animate attributeName="stroke-dashoffset" from="150" to="0" dur="1.8s" begin="10.2s" fill="freeze" /></path><path d="M51.28,76.53c9.04-1.81,25.44-3.54,30.11-4.07c1.71-0.2,2.73,1.15,2.49,2.3c-1.01,4.73-2.19,11.37-3.69,17.92" class="stroke" stroke-dasharray="150"><set attributeName="opacity" to="0" dur="11.2s" /><animate attributeName="stroke-dashoffset" from="150" to="0" dur="1.8s" begin="11.2s" fill="freeze" /></path><path d="M53.95,95.83c5.48-0.6,20.41-1.64,27.94-2.57" class="stroke" stroke-dasharray="150"><set attributeName="opacity" to="0" dur="12.5s" /><animate attributeName="stroke-dashoffset" from="150" to="0" dur="1.8s" begin="12.5s" fill="freeze" /></path><text x="90" y="120" id="reset">⟳</text><text x="70" y="120" id="pause">◼</text><script type="text/javascript"><![CDATA[function RecurringTimer(e,t){var n,r,i=t;this.pause=function(){window.clearTimeout(n);i-=new Date-r};var s=function(){r=new Date;n=window.setTimeout(function(){i=t;s();e()},i)};this.clear=function(){window.clearTimeout(n);i=t;n=window.setTimeout(function(){i=t;s();e()},i)};this.resume=s;this.resume()}function invoketimer(){timer=new RecurringTimer(function(){svg.setCurrentTime(0)},14500)}var svg=document.getElementById("kanjivg");var pause=document.getElementById("pause");var reset=document.getElementById("reset");var timer;invoketimer();reset.onclick=function(){svg.setCurrentTime(0);timer.clear();svg.unpauseAnimations();pause.innerHTML = "◼";};pause.onclick=function(){if(svg.animationsPaused()){svg.unpauseAnimations();timer.resume();pause.innerHTML="◼"}else{svg.pauseAnimations();timer.pause();pause.innerHTML="▶"}}]]></script></svg>