<svg id="kanjivg" width="106" height="126" xmlns="http://www.w3.org/2000/svg" xmlns:xlink="http://www.w3.org/1999/xlink" xml:space="preserve" version="1.1" baseProfile="full"><defs><style type="text/css"><![CDATA[path.black { fill:none;stroke:black;stroke-width:5;stroke-linecap:round;stroke-linejoin:round; }path.grey { fill:none;stroke:#ddd;stroke-width:5;stroke-linecap:round;stroke-linejoin:round; }path.stroke { fill:none;stroke:black;stroke-width:5;stroke-linecap:round;stroke-linejoin:round; }rect { fill:none;stroke:#555;stroke-width:2;} text{font-size:16px;font-family:Segoe UI Symbol,Cambria Math,DejaVu Sans,Symbola,Quivira,STIX,Code2000;-webkit-touch-callout:none;cursor:pointer;-webkit-user-select:none;-khtml-user-select:none;-moz-user-select:none;-ms-user-select:none;user-select: none;} #reset { font-weight:bold; }]]></style><marker id="markerStart" markerWidth="8" markerHeight="8" style="overflow:visible;"><circle cx="0" cy="0" r="1.5" style="stroke:none;fill:red;fill-opacity:0.5;"/></marker><marker id="markerEnd" style="overflow:visible;"><circle cx="0" cy="0" r="0.8" style="stroke:none;fill:blue;fill-opacity:0.5;"><animate attributeName="opacity" from="1" to="0" dur="3s" repeatCount="indefinite" /></circle></marker></defs><rect x="4" y="4" width="100" height="100" /><path d="M9.75,34.09c0.36,0.45,0.72,0.83,0.88,1.4c1.24,4.5,3.73,17.92,4.57,26.01" class="grey" /><path d="M11.98,36.25c9.03-1.98,15.42-3.17,19.61-3.76c1.53-0.22,2.45,1.28,2.23,2.55c-0.91,5.26-2.47,12.89-3.82,20.17" class="grey" /><path d="M14.87,57.83c4.92-0.67,10.86-0.93,17.62-1.96" class="grey" /><path d="M55.66,10.75c0.59,1.19,0.83,3.07,0.29,4.84c-1.18,3.91-4.98,12.66-6.65,15.93c-0.7,1.37,0.18,2.23,1.62,1.98c5.97-1.02,16.3-3.05,25.17-3.78" class="grey" /><path d="M54.32,20.96c4.43-0.21,20.84-2.44,23.17-2.71c1.94-0.23,2.99,1.38,2.41,2.95c-2.4,6.55-4.86,12.55-6.37,18.55" class="grey" /><path d="M38,42.71c1.11,0.53,3.14,0.58,4.24,0.53c11.73-0.49,38.76-4.88,50.38-4.13c1.84,0.12,2.95,0.25,3.88,0.52" class="grey" /><path d="M66.04,42.9c0.07,0.42,0.15,1.09-0.14,1.7c-1.72,3.58-11.58,11.43-25.07,16.24" class="grey" /><path d="M58.43,52.9C68.5,60.5,74,77.25,68.35,94.08c-2.33,6.93-8.35,2.92-9.3,0.54" class="grey" /><path d="M61.76,58.48c0.06,0.45,0.14,1.15-0.13,1.79c-1.56,3.78-10.5,12.08-22.74,17.17" class="grey" /><path d="M65.97,68.95c0.08,0.57,0.16,1.46-0.15,2.27c-1.87,4.78-12.56,15.28-27.21,21.71" class="grey" /><path d="M85.82,48.74c0.05,0.37,0.1,0.95-0.1,1.48c-1.17,3.12-7.9,9.97-17.1,14.17" class="grey" /><path d="M69.3,65.83c3.69,3.39,19.87,19.44,23.88,22.77c1.36,1.13,2.52,1.61,3.88,1.94" class="grey" /><path d="M9.75,34.09c0.36,0.45,0.72,0.83,0.88,1.4c1.24,4.5,3.73,17.92,4.57,26.01" class="stroke" stroke-dasharray="150"><animate attributeName="stroke-dashoffset" from="150" to="0" dur="1.8s" begin="0s" fill="freeze" /></path><path d="M11.98,36.25c9.03-1.98,15.42-3.17,19.61-3.76c1.53-0.22,2.45,1.28,2.23,2.55c-0.91,5.26-2.47,12.89-3.82,20.17" class="stroke" stroke-dasharray="150"><set attributeName="opacity" to="0" dur="1.0s" /><animate attributeName="stroke-dashoffset" from="150" to="0" dur="1.8s" begin="1.0s" fill="freeze" /></path><path d="M14.87,57.83c4.92-0.67,10.86-0.93,17.62-1.96" class="stroke" stroke-dasharray="150"><set attributeName="opacity" to="0" dur="2.1s" /><animate attributeName="stroke-dashoffset" from="150" to="0" dur="1.8s" begin="2.1s" fill="freeze" /></path><path d="M55.66,10.75c0.59,1.19,0.83,3.07,0.29,4.84c-1.18,3.91-4.98,12.66-6.65,15.93c-0.7,1.37,0.18,2.23,1.62,1.98c5.97-1.02,16.3-3.05,25.17-3.78" class="stroke" stroke-dasharray="150"><set attributeName="opacity" to="0" dur="3.0s" /><animate attributeName="stroke-dashoffset" from="150" to="0" dur="1.8s" begin="3.0s" fill="freeze" /></path><path d="M54.32,20.96c4.43-0.21,20.84-2.44,23.17-2.71c1.94-0.23,2.99,1.38,2.41,2.95c-2.4,6.55-4.86,12.55-6.37,18.55" class="stroke" stroke-dasharray="150"><set attributeName="opacity" to="0" dur="4.3s" /><animate attributeName="stroke-dashoffset" from="150" to="0" dur="1.8s" begin="4.3s" fill="freeze" /></path><path d="M38,42.71c1.11,0.53,3.14,0.58,4.24,0.53c11.73-0.49,38.76-4.88,50.38-4.13c1.84,0.12,2.95,0.25,3.88,0.52" class="stroke" stroke-dasharray="150"><set attributeName="opacity" to="0" dur="5.5s" /><animate attributeName="stroke-dashoffset" from="150" to="0" dur="1.8s" begin="5.5s" fill="freeze" /></path><path d="M66.04,42.9c0.07,0.42,0.15,1.09-0.14,1.7c-1.72,3.58-11.58,11.43-25.07,16.24" class="stroke" stroke-dasharray="150"><set attributeName="opacity" to="0" dur="6.9s" /><animate attributeName="stroke-dashoffset" from="150" to="0" dur="1.8s" begin="6.9s" fill="freeze" /></path><path d="M58.43,52.9C68.5,60.5,74,77.25,68.35,94.08c-2.33,6.93-8.35,2.92-9.3,0.54" class="stroke" stroke-dasharray="150"><set attributeName="opacity" to="0" dur="7.9s" /><animate attributeName="stroke-dashoffset" from="150" to="0" dur="1.8s" begin="7.9s" fill="freeze" /></path><path d="M61.76,58.48c0.06,0.45,0.14,1.15-0.13,1.79c-1.56,3.78-10.5,12.08-22.74,17.17" class="stroke" stroke-dasharray="150"><set attributeName="opacity" to="0" dur="9.3s" /><animate attributeName="stroke-dashoffset" from="150" to="0" dur="1.8s" begin="9.3s" fill="freeze" /></path><path d="M65.97,68.95c0.08,0.57,0.16,1.46-0.15,2.27c-1.87,4.78-12.56,15.28-27.21,21.71" class="stroke" stroke-dasharray="150"><set attributeName="opacity" to="0" dur="10.3s" /><animate attributeName="stroke-dashoffset" from="150" to="0" dur="1.8s" begin="10.3s" fill="freeze" /></path><path d="M85.82,48.74c0.05,0.37,0.1,0.95-0.1,1.48c-1.17,3.12-7.9,9.97-17.1,14.17" class="stroke" stroke-dasharray="150"><set attributeName="opacity" to="0" dur="11.3s" /><animate attributeName="stroke-dashoffset" from="150" to="0" dur="1.8s" begin="11.3s" fill="freeze" /></path><path d="M69.3,65.83c3.69,3.39,19.87,19.44,23.88,22.77c1.36,1.13,2.52,1.61,3.88,1.94" class="stroke" stroke-dasharray="150"><set attributeName="opacity" to="0" dur="12.3s" /><animate attributeName="stroke-dashoffset" from="150" to="0" dur="1.8s" begin="12.3s" fill="freeze" /></path><text x="90" y="120" id="reset">⟳</text><text x="70" y="120" id="pause">◼</text><script type="text/javascript"><![CDATA[function RecurringTimer(e,t){var n,r,i=t;this.pause=function(){window.clearTimeout(n);i-=new Date-r};var s=function(){r=new Date;n=window.setTimeout(function(){i=t;s();e()},i)};this.clear=function(){window.clearTimeout(n);i=t;n=window.setTimeout(function(){i=t;s();e()},i)};this.resume=s;this.resume()}function invoketimer(){timer=new RecurringTimer(function(){svg.setCurrentTime(0)},14300)}var svg=document.getElementById("kanjivg");var pause=document.getElementById("pause");var reset=document.getElementById("reset");var timer;invoketimer();reset.onclick=function(){svg.setCurrentTime(0);timer.clear();svg.unpauseAnimations();pause.innerHTML = "◼";};pause.onclick=function(){if(svg.animationsPaused()){svg.unpauseAnimations();timer.resume();pause.innerHTML="◼"}else{svg.pauseAnimations();timer.pause();pause.innerHTML="▶"}}]]></script></svg>