<svg id="kanjivg" width="106" height="126" xmlns="http://www.w3.org/2000/svg" xmlns:xlink="http://www.w3.org/1999/xlink" xml:space="preserve" version="1.1" baseProfile="full"><defs><style type="text/css"><![CDATA[path.black { fill:none;stroke:black;stroke-width:5;stroke-linecap:round;stroke-linejoin:round; }path.grey { fill:none;stroke:#ddd;stroke-width:5;stroke-linecap:round;stroke-linejoin:round; }path.stroke { fill:none;stroke:black;stroke-width:5;stroke-linecap:round;stroke-linejoin:round; }rect { fill:none;stroke:#555;stroke-width:2;} text{font-size:16px;font-family:Segoe UI Symbol,Cambria Math,DejaVu Sans,Symbola,Quivira,STIX,Code2000;-webkit-touch-callout:none;cursor:pointer;-webkit-user-select:none;-khtml-user-select:none;-moz-user-select:none;-ms-user-select:none;user-select: none;} #reset { font-weight:bold; }]]></style><marker id="markerStart" markerWidth="8" markerHeight="8" style="overflow:visible;"><circle cx="0" cy="0" r="1.5" style="stroke:none;fill:red;fill-opacity:0.5;"/></marker><marker id="markerEnd" style="overflow:visible;"><circle cx="0" cy="0" r="0.8" style="stroke:none;fill:blue;fill-opacity:0.5;"><animate attributeName="opacity" from="1" to="0" dur="3s" repeatCount="indefinite" /></circle></marker></defs><rect x="4" y="4" width="100" height="100" /><path d="M9.75,34.06c0.35,0.45,0.72,0.82,0.87,1.38c1.23,4.42,3.7,18.12,4.54,26.06" class="grey" /><path d="M11.96,36.18c8.94-1.94,15.27-3.11,19.41-3.69c1.52-0.21,2.43,1.26,2.21,2.51c-0.9,5.17-2.45,12.65-3.78,19.8" class="grey" /><path d="M14.82,57.86c4.87-0.66,10.75-1.42,17.43-2.43" class="grey" /><path d="M66.29,10.5c1.35,1.35,2.03,2,2.03,3.43c0,6.07-0.08,12.75-0.2,17.28" class="grey" /><path d="M48.92,19.56c0.69,0.41,1.48,2.14,1.38,2.96c-0.46,3.64-2.22,7.34-2.84,10.79c-0.33,1.85,0.78,2,2.49,1.72c7.7-1.23,29.56-4.67,38.2-4.9" class="grey" /><path d="M89.63,14.76c0.69,0.41,1.46,3.04,1.38,3.87c-0.5,5.37-1,9.12-1.69,15.17" class="grey" /><path d="M42.79,46.8c1.24,0.34,3.51,0.38,4.74,0.34c9.52-0.35,32.17-4.22,45.67-4.4c2.06-0.03,3.3,0.16,4.33,0.33" class="grey" /><path d="M66.97,49.06c0.02,0.26,0.04,0.67-0.03,1.04c-0.42,2.19-2.82,7-6.1,9.95" class="grey" /><path d="M43.5,61.82c0.49,0.85,1.04,2.7,1.16,4.23c0.16,2.2,1.8,28.73,1.8,31.27" class="grey" /><path d="M45.91,64.25c11.59-2,45.23-4.92,46.33-5.13c2.62-0.51,4.36,1.02,4.26,3.05c-0.25,4.84-2.75,24.09-4.65,29.79c-2.41,7.24-3.77,3.22-5.74,1.02" class="grey" /><path d="M59.76,65.43c0.65,0.62,1.15,1.35,1.15,3.4c0,10.48-0.2,14.67-0.2,24.13" class="grey" /><path d="M74.64,64.22c0.65,0.62,1.15,1.35,1.15,3.4c0,11.63-0.33,18.13-0.33,24.68" class="grey" /><path d="M9.75,34.06c0.35,0.45,0.72,0.82,0.87,1.38c1.23,4.42,3.7,18.12,4.54,26.06" class="stroke" stroke-dasharray="150"><animate attributeName="stroke-dashoffset" from="150" to="0" dur="1.8s" begin="0s" fill="freeze" /></path><path d="M11.96,36.18c8.94-1.94,15.27-3.11,19.41-3.69c1.52-0.21,2.43,1.26,2.21,2.51c-0.9,5.17-2.45,12.65-3.78,19.8" class="stroke" stroke-dasharray="150"><set attributeName="opacity" to="0" dur="1.0s" /><animate attributeName="stroke-dashoffset" from="150" to="0" dur="1.8s" begin="1.0s" fill="freeze" /></path><path d="M14.82,57.86c4.87-0.66,10.75-1.42,17.43-2.43" class="stroke" stroke-dasharray="150"><set attributeName="opacity" to="0" dur="2.1s" /><animate attributeName="stroke-dashoffset" from="150" to="0" dur="1.8s" begin="2.1s" fill="freeze" /></path><path d="M66.29,10.5c1.35,1.35,2.03,2,2.03,3.43c0,6.07-0.08,12.75-0.2,17.28" class="stroke" stroke-dasharray="150"><set attributeName="opacity" to="0" dur="3.0s" /><animate attributeName="stroke-dashoffset" from="150" to="0" dur="1.8s" begin="3.0s" fill="freeze" /></path><path d="M48.92,19.56c0.69,0.41,1.48,2.14,1.38,2.96c-0.46,3.64-2.22,7.34-2.84,10.79c-0.33,1.85,0.78,2,2.49,1.72c7.7-1.23,29.56-4.67,38.2-4.9" class="stroke" stroke-dasharray="150"><set attributeName="opacity" to="0" dur="4.0s" /><animate attributeName="stroke-dashoffset" from="150" to="0" dur="1.8s" begin="4.0s" fill="freeze" /></path><path d="M89.63,14.76c0.69,0.41,1.46,3.04,1.38,3.87c-0.5,5.37-1,9.12-1.69,15.17" class="stroke" stroke-dasharray="150"><set attributeName="opacity" to="0" dur="5.4s" /><animate attributeName="stroke-dashoffset" from="150" to="0" dur="1.8s" begin="5.4s" fill="freeze" /></path><path d="M42.79,46.8c1.24,0.34,3.51,0.38,4.74,0.34c9.52-0.35,32.17-4.22,45.67-4.4c2.06-0.03,3.3,0.16,4.33,0.33" class="stroke" stroke-dasharray="150"><set attributeName="opacity" to="0" dur="6.300000000000001s" /><animate attributeName="stroke-dashoffset" from="150" to="0" dur="1.8s" begin="6.300000000000001s" fill="freeze" /></path><path d="M66.97,49.06c0.02,0.26,0.04,0.67-0.03,1.04c-0.42,2.19-2.82,7-6.1,9.95" class="stroke" stroke-dasharray="150"><set attributeName="opacity" to="0" dur="7.700000000000001s" /><animate attributeName="stroke-dashoffset" from="150" to="0" dur="1.8s" begin="7.700000000000001s" fill="freeze" /></path><path d="M43.5,61.82c0.49,0.85,1.04,2.7,1.16,4.23c0.16,2.2,1.8,28.73,1.8,31.27" class="stroke" stroke-dasharray="150"><set attributeName="opacity" to="0" dur="8.600000000000001s" /><animate attributeName="stroke-dashoffset" from="150" to="0" dur="1.8s" begin="8.600000000000001s" fill="freeze" /></path><path d="M45.91,64.25c11.59-2,45.23-4.92,46.33-5.13c2.62-0.51,4.36,1.02,4.26,3.05c-0.25,4.84-2.75,24.09-4.65,29.79c-2.41,7.24-3.77,3.22-5.74,1.02" class="stroke" stroke-dasharray="150"><set attributeName="opacity" to="0" dur="9.600000000000001s" /><animate attributeName="stroke-dashoffset" from="150" to="0" dur="1.8s" begin="9.600000000000001s" fill="freeze" /></path><path d="M59.76,65.43c0.65,0.62,1.15,1.35,1.15,3.4c0,10.48-0.2,14.67-0.2,24.13" class="stroke" stroke-dasharray="150"><set attributeName="opacity" to="0" dur="11.400000000000002s" /><animate attributeName="stroke-dashoffset" from="150" to="0" dur="1.8s" begin="11.400000000000002s" fill="freeze" /></path><path d="M74.64,64.22c0.65,0.62,1.15,1.35,1.15,3.4c0,11.63-0.33,18.13-0.33,24.68" class="stroke" stroke-dasharray="150"><set attributeName="opacity" to="0" dur="12.400000000000002s" /><animate attributeName="stroke-dashoffset" from="150" to="0" dur="1.8s" begin="12.400000000000002s" fill="freeze" /></path><text x="90" y="120" id="reset">⟳</text><text x="70" y="120" id="pause">◼</text><script type="text/javascript"><![CDATA[function RecurringTimer(e,t){var n,r,i=t;this.pause=function(){window.clearTimeout(n);i-=new Date-r};var s=function(){r=new Date;n=window.setTimeout(function(){i=t;s();e()},i)};this.clear=function(){window.clearTimeout(n);i=t;n=window.setTimeout(function(){i=t;s();e()},i)};this.resume=s;this.resume()}function invoketimer(){timer=new RecurringTimer(function(){svg.setCurrentTime(0)},14400)}var svg=document.getElementById("kanjivg");var pause=document.getElementById("pause");var reset=document.getElementById("reset");var timer;invoketimer();reset.onclick=function(){svg.setCurrentTime(0);timer.clear();svg.unpauseAnimations();pause.innerHTML = "◼";};pause.onclick=function(){if(svg.animationsPaused()){svg.unpauseAnimations();timer.resume();pause.innerHTML="◼"}else{svg.pauseAnimations();timer.pause();pause.innerHTML="▶"}}]]></script></svg>