<svg id="kanjivg" width="106" height="126" xmlns="http://www.w3.org/2000/svg" xmlns:xlink="http://www.w3.org/1999/xlink" xml:space="preserve" version="1.1" baseProfile="full"><defs><style type="text/css"><![CDATA[path.black { fill:none;stroke:black;stroke-width:5;stroke-linecap:round;stroke-linejoin:round; }path.grey { fill:none;stroke:#ddd;stroke-width:5;stroke-linecap:round;stroke-linejoin:round; }path.stroke { fill:none;stroke:black;stroke-width:5;stroke-linecap:round;stroke-linejoin:round; }rect { fill:none;stroke:#555;stroke-width:2;} text{font-size:16px;font-family:Segoe UI Symbol,Cambria Math,DejaVu Sans,Symbola,Quivira,STIX,Code2000;-webkit-touch-callout:none;cursor:pointer;-webkit-user-select:none;-khtml-user-select:none;-moz-user-select:none;-ms-user-select:none;user-select: none;} #reset { font-weight:bold; }]]></style><marker id="markerStart" markerWidth="8" markerHeight="8" style="overflow:visible;"><circle cx="0" cy="0" r="1.5" style="stroke:none;fill:red;fill-opacity:0.5;"/></marker><marker id="markerEnd" style="overflow:visible;"><circle cx="0" cy="0" r="0.8" style="stroke:none;fill:blue;fill-opacity:0.5;"><animate attributeName="opacity" from="1" to="0" dur="3s" repeatCount="indefinite" /></circle></marker></defs><rect x="4" y="4" width="100" height="100" /><path d="M11.89,34.65c0.8,0.72,1.23,1.6,1.42,2.96c0.82,5.76,2.26,15.41,3.26,22.67c0.26,1.92,0.5,3.55,0.68,4.72" class="grey" /><path d="M14.06,36.12c5.89-0.81,12.9-1.69,18.6-2.52c3.17-0.46,3.97,0.41,3.44,3.49c-0.86,5.07-2.23,13.9-3.43,21.12" class="grey" /><path d="M17.75,60.62c3.89-0.36,8.1-0.93,13.07-1.49c1.16-0.13,2.35-0.26,3.6-0.39" class="grey" /><path d="M40.57,24.06c2.06,0.44,4.37,0.35,6.43,0.11c10.2-1.16,27.23-3.37,37.75-3.91c2.47-0.13,5.01-0.33,7.43,0.29" class="grey" /><path d="M53.25,13.5c0.74,0.82,1.24,1.93,1.38,2.72c1.28,7.39,1.65,12.46,2.01,15.15" class="grey" /><path d="M75.39,10.75c0.38,1.08,0.54,2.11,0.21,3.46c-1.2,4.87-2.22,10.04-3.56,16.15" class="grey" /><path d="M44.5,38.05c0.73,0.73,1.08,1.5,1.25,2.45c0.89,2.68,1.5,6.75,2.14,10.73c0.2,1.24,0.4,2.5,0.61,3.72" class="grey" /><path d="M46.63,39.23c7.88-1.17,26.91-3.37,34.87-4.22c2.67-0.29,5.02,0.05,3.95,3.84c-0.99,3.49-1.88,6.34-3.29,10.96" class="grey" /><path d="M49.7,53.37c4.79-0.4,19.95-1.74,29.57-2.61c2.03-0.18,3.81-0.35,5.19-0.47" class="grey" /><path d="M45.46,62.93c2.66,0.69,4.87,0.42,7.05,0.17c7.48-0.87,19.37-2.1,27.62-2.88c2.08-0.2,4.29-0.26,6.34,0.27" class="grey" /><path d="M39.59,75.29c2.57,0.62,5.2,0.28,7.79,0.04c10.37-0.96,30.02-2.98,38.74-3.5c2.33-0.14,4.88-0.21,7.2,0.37" class="grey" /><path d="M64.08,38.92c0.75,0.75,0.94,1.83,0.94,3.24c0,39.91-6.49,47.97-28.77,55.33" class="grey" /><path d="M64.5,74.37c6.7,6.03,14.62,13.1,21.27,17.66c2.44,1.68,5.73,3.59,8.73,4.68" class="grey" /><path d="M11.89,34.65c0.8,0.72,1.23,1.6,1.42,2.96c0.82,5.76,2.26,15.41,3.26,22.67c0.26,1.92,0.5,3.55,0.68,4.72" class="stroke" stroke-dasharray="150"><animate attributeName="stroke-dashoffset" from="150" to="0" dur="1.8s" begin="0s" fill="freeze" /></path><path d="M14.06,36.12c5.89-0.81,12.9-1.69,18.6-2.52c3.17-0.46,3.97,0.41,3.44,3.49c-0.86,5.07-2.23,13.9-3.43,21.12" class="stroke" stroke-dasharray="150"><set attributeName="opacity" to="0" dur="1.0s" /><animate attributeName="stroke-dashoffset" from="150" to="0" dur="1.8s" begin="1.0s" fill="freeze" /></path><path d="M17.75,60.62c3.89-0.36,8.1-0.93,13.07-1.49c1.16-0.13,2.35-0.26,3.6-0.39" class="stroke" stroke-dasharray="150"><set attributeName="opacity" to="0" dur="2.2s" /><animate attributeName="stroke-dashoffset" from="150" to="0" dur="1.8s" begin="2.2s" fill="freeze" /></path><path d="M40.57,24.06c2.06,0.44,4.37,0.35,6.43,0.11c10.2-1.16,27.23-3.37,37.75-3.91c2.47-0.13,5.01-0.33,7.43,0.29" class="stroke" stroke-dasharray="150"><set attributeName="opacity" to="0" dur="3.1s" /><animate attributeName="stroke-dashoffset" from="150" to="0" dur="1.8s" begin="3.1s" fill="freeze" /></path><path d="M53.25,13.5c0.74,0.82,1.24,1.93,1.38,2.72c1.28,7.39,1.65,12.46,2.01,15.15" class="stroke" stroke-dasharray="150"><set attributeName="opacity" to="0" dur="4.4s" /><animate attributeName="stroke-dashoffset" from="150" to="0" dur="1.8s" begin="4.4s" fill="freeze" /></path><path d="M75.39,10.75c0.38,1.08,0.54,2.11,0.21,3.46c-1.2,4.87-2.22,10.04-3.56,16.15" class="stroke" stroke-dasharray="150"><set attributeName="opacity" to="0" dur="5.300000000000001s" /><animate attributeName="stroke-dashoffset" from="150" to="0" dur="1.8s" begin="5.300000000000001s" fill="freeze" /></path><path d="M44.5,38.05c0.73,0.73,1.08,1.5,1.25,2.45c0.89,2.68,1.5,6.75,2.14,10.73c0.2,1.24,0.4,2.5,0.61,3.72" class="stroke" stroke-dasharray="150"><set attributeName="opacity" to="0" dur="6.300000000000001s" /><animate attributeName="stroke-dashoffset" from="150" to="0" dur="1.8s" begin="6.300000000000001s" fill="freeze" /></path><path d="M46.63,39.23c7.88-1.17,26.91-3.37,34.87-4.22c2.67-0.29,5.02,0.05,3.95,3.84c-0.99,3.49-1.88,6.34-3.29,10.96" class="stroke" stroke-dasharray="150"><set attributeName="opacity" to="0" dur="7.200000000000001s" /><animate attributeName="stroke-dashoffset" from="150" to="0" dur="1.8s" begin="7.200000000000001s" fill="freeze" /></path><path d="M49.7,53.37c4.79-0.4,19.95-1.74,29.57-2.61c2.03-0.18,3.81-0.35,5.19-0.47" class="stroke" stroke-dasharray="150"><set attributeName="opacity" to="0" dur="8.500000000000002s" /><animate attributeName="stroke-dashoffset" from="150" to="0" dur="1.8s" begin="8.500000000000002s" fill="freeze" /></path><path d="M45.46,62.93c2.66,0.69,4.87,0.42,7.05,0.17c7.48-0.87,19.37-2.1,27.62-2.88c2.08-0.2,4.29-0.26,6.34,0.27" class="stroke" stroke-dasharray="150"><set attributeName="opacity" to="0" dur="9.500000000000002s" /><animate attributeName="stroke-dashoffset" from="150" to="0" dur="1.8s" begin="9.500000000000002s" fill="freeze" /></path><path d="M39.59,75.29c2.57,0.62,5.2,0.28,7.79,0.04c10.37-0.96,30.02-2.98,38.74-3.5c2.33-0.14,4.88-0.21,7.2,0.37" class="stroke" stroke-dasharray="150"><set attributeName="opacity" to="0" dur="10.600000000000001s" /><animate attributeName="stroke-dashoffset" from="150" to="0" dur="1.8s" begin="10.600000000000001s" fill="freeze" /></path><path d="M64.08,38.92c0.75,0.75,0.94,1.83,0.94,3.24c0,39.91-6.49,47.97-28.77,55.33" class="stroke" stroke-dasharray="150"><set attributeName="opacity" to="0" dur="11.900000000000002s" /><animate attributeName="stroke-dashoffset" from="150" to="0" dur="1.8s" begin="11.900000000000002s" fill="freeze" /></path><path d="M64.5,74.37c6.7,6.03,14.62,13.1,21.27,17.66c2.44,1.68,5.73,3.59,8.73,4.68" class="stroke" stroke-dasharray="150"><set attributeName="opacity" to="0" dur="13.600000000000001s" /><animate attributeName="stroke-dashoffset" from="150" to="0" dur="1.8s" begin="13.600000000000001s" fill="freeze" /></path><text x="90" y="120" id="reset">⟳</text><text x="70" y="120" id="pause">◼</text><script type="text/javascript"><![CDATA[function RecurringTimer(e,t){var n,r,i=t;this.pause=function(){window.clearTimeout(n);i-=new Date-r};var s=function(){r=new Date;n=window.setTimeout(function(){i=t;s();e()},i)};this.clear=function(){window.clearTimeout(n);i=t;n=window.setTimeout(function(){i=t;s();e()},i)};this.resume=s;this.resume()}function invoketimer(){timer=new RecurringTimer(function(){svg.setCurrentTime(0)},15600)}var svg=document.getElementById("kanjivg");var pause=document.getElementById("pause");var reset=document.getElementById("reset");var timer;invoketimer();reset.onclick=function(){svg.setCurrentTime(0);timer.clear();svg.unpauseAnimations();pause.innerHTML = "◼";};pause.onclick=function(){if(svg.animationsPaused()){svg.unpauseAnimations();timer.resume();pause.innerHTML="◼"}else{svg.pauseAnimations();timer.pause();pause.innerHTML="▶"}}]]></script></svg>