<svg id="kanjivg" width="106" height="126" xmlns="http://www.w3.org/2000/svg" xmlns:xlink="http://www.w3.org/1999/xlink" xml:space="preserve" version="1.1" baseProfile="full"><defs><style type="text/css"><![CDATA[path.black { fill:none;stroke:black;stroke-width:5;stroke-linecap:round;stroke-linejoin:round; }path.grey { fill:none;stroke:#ddd;stroke-width:5;stroke-linecap:round;stroke-linejoin:round; }path.stroke { fill:none;stroke:black;stroke-width:5;stroke-linecap:round;stroke-linejoin:round; }rect { fill:none;stroke:#555;stroke-width:2;} text{font-size:16px;font-family:Segoe UI Symbol,Cambria Math,DejaVu Sans,Symbola,Quivira,STIX,Code2000;-webkit-touch-callout:none;cursor:pointer;-webkit-user-select:none;-khtml-user-select:none;-moz-user-select:none;-ms-user-select:none;user-select: none;} #reset { font-weight:bold; }]]></style><marker id="markerStart" markerWidth="8" markerHeight="8" style="overflow:visible;"><circle cx="0" cy="0" r="1.5" style="stroke:none;fill:red;fill-opacity:0.5;"/></marker><marker id="markerEnd" style="overflow:visible;"><circle cx="0" cy="0" r="0.8" style="stroke:none;fill:blue;fill-opacity:0.5;"><animate attributeName="opacity" from="1" to="0" dur="3s" repeatCount="indefinite" /></circle></marker></defs><rect x="4" y="4" width="100" height="100" /><path d="M28.31,21.1c2.11,0.78,5.45,0.25,7.58,0.02c10.37-1.15,24.86-2.78,35.75-3.73c2.65-0.23,5.41-0.45,8.05,0.08" class="grey" /><path d="M52.16,9.51c0.98,0.98,1.17,1.99,1.17,3.06c0,3.16-0.09,9.6-0.09,15.93" class="grey" /><path d="M33.43,31.26c1.83,0.52,4.09,0.29,5.94,0.1c8.58-0.88,16.81-2.33,28.75-3.15c1.95-0.13,3.95-0.36,5.9-0.06" class="grey" /><path d="M35.51,38.58c1.07,0.66,1.3,1.39,1.71,2.51c0.82,2.26,1.66,5.65,2.34,8.62c0.25,1.08,0.47,2.1,0.66,3" class="grey" /><path d="M37.5,39.63c6.95-0.87,24.37-3.57,31.13-4.38c2.91-0.35,4.59,0.18,3.51,3.42c-0.76,2.28-1.26,4.2-2.69,7.96" class="grey" /><path d="M40.79,50.43c3.81-0.3,17.81-2.1,26.23-2.99c2.02-0.21,3.73-0.37,4.89-0.44" class="grey" /><path d="M35.25,54.88c2.32,1.15,5.98,4.73,6.56,6.52" class="grey" /><path d="M68.94,50.89c0.02,0.28,0.04,0.72-0.04,1.11c-0.36,1.64-1.89,4.63-4.15,7.37" class="grey" /><path d="M15.14,65.67c2.94,0.96,6.85,0.7,9.88,0.33c16.6-2.01,45.02-5.08,61.98-5.73c3.25-0.12,6.5-0.06,9.71,0.56" class="grey" /><path d="M21.45,77.92c1.95,0.59,3.53,0.67,5.54,0.38c5.47-0.78,14.24-2.43,18.75-3.1c3.64-0.53,5.02-0.12,4.55,3.67c-0.45,3.64-1.54,9.5-5.02,14.75c-2.61,3.94-4.88,0.12-5.75-0.25" class="grey" /><path d="M36.34,68.43c0.74,0.74,0.62,1.95,0.52,2.7c-1.15,8.26-6.92,21.69-18.82,28.55" class="grey" /><path d="M60,73.62c0.74,0.75,1.15,1.66,1.23,2.72c0.81,3.35,1.85,9.34,2.63,14.57c0.33,2.18,0.61,4.24,0.81,5.92" class="grey" /><path d="M62.01,75.24c8.62-1.37,14.12-2.37,19.94-3.06c2.81-0.34,3.76,1.02,3.19,3.61c-1.12,4.98-2.05,8.5-3.24,14.88" class="grey" /><path d="M65.43,93.32c5.32-0.69,8.85-0.95,14.3-1.52c1.32-0.14,2.69-0.25,4.14-0.33" class="grey" /><path d="M28.31,21.1c2.11,0.78,5.45,0.25,7.58,0.02c10.37-1.15,24.86-2.78,35.75-3.73c2.65-0.23,5.41-0.45,8.05,0.08" class="stroke" stroke-dasharray="150"><animate attributeName="stroke-dashoffset" from="150" to="0" dur="1.8s" begin="0s" fill="freeze" /></path><path d="M52.16,9.51c0.98,0.98,1.17,1.99,1.17,3.06c0,3.16-0.09,9.6-0.09,15.93" class="stroke" stroke-dasharray="150"><set attributeName="opacity" to="0" dur="1.3s" /><animate attributeName="stroke-dashoffset" from="150" to="0" dur="1.8s" begin="1.3s" fill="freeze" /></path><path d="M33.43,31.26c1.83,0.52,4.09,0.29,5.94,0.1c8.58-0.88,16.81-2.33,28.75-3.15c1.95-0.13,3.95-0.36,5.9-0.06" class="stroke" stroke-dasharray="150"><set attributeName="opacity" to="0" dur="2.2s" /><animate attributeName="stroke-dashoffset" from="150" to="0" dur="1.8s" begin="2.2s" fill="freeze" /></path><path d="M35.51,38.58c1.07,0.66,1.3,1.39,1.71,2.51c0.82,2.26,1.66,5.65,2.34,8.62c0.25,1.08,0.47,2.1,0.66,3" class="stroke" stroke-dasharray="150"><set attributeName="opacity" to="0" dur="3.3000000000000003s" /><animate attributeName="stroke-dashoffset" from="150" to="0" dur="1.8s" begin="3.3000000000000003s" fill="freeze" /></path><path d="M37.5,39.63c6.95-0.87,24.37-3.57,31.13-4.38c2.91-0.35,4.59,0.18,3.51,3.42c-0.76,2.28-1.26,4.2-2.69,7.96" class="stroke" stroke-dasharray="150"><set attributeName="opacity" to="0" dur="4.2s" /><animate attributeName="stroke-dashoffset" from="150" to="0" dur="1.8s" begin="4.2s" fill="freeze" /></path><path d="M40.79,50.43c3.81-0.3,17.81-2.1,26.23-2.99c2.02-0.21,3.73-0.37,4.89-0.44" class="stroke" stroke-dasharray="150"><set attributeName="opacity" to="0" dur="5.4s" /><animate attributeName="stroke-dashoffset" from="150" to="0" dur="1.8s" begin="5.4s" fill="freeze" /></path><path d="M35.25,54.88c2.32,1.15,5.98,4.73,6.56,6.52" class="stroke" stroke-dasharray="150"><set attributeName="opacity" to="0" dur="6.4s" /><animate attributeName="stroke-dashoffset" from="150" to="0" dur="1.8s" begin="6.4s" fill="freeze" /></path><path d="M68.94,50.89c0.02,0.28,0.04,0.72-0.04,1.11c-0.36,1.64-1.89,4.63-4.15,7.37" class="stroke" stroke-dasharray="150"><set attributeName="opacity" to="0" dur="7.300000000000001s" /><animate attributeName="stroke-dashoffset" from="150" to="0" dur="1.8s" begin="7.300000000000001s" fill="freeze" /></path><path d="M15.14,65.67c2.94,0.96,6.85,0.7,9.88,0.33c16.6-2.01,45.02-5.08,61.98-5.73c3.25-0.12,6.5-0.06,9.71,0.56" class="stroke" stroke-dasharray="150"><set attributeName="opacity" to="0" dur="8.200000000000001s" /><animate attributeName="stroke-dashoffset" from="150" to="0" dur="1.8s" begin="8.200000000000001s" fill="freeze" /></path><path d="M21.45,77.92c1.95,0.59,3.53,0.67,5.54,0.38c5.47-0.78,14.24-2.43,18.75-3.1c3.64-0.53,5.02-0.12,4.55,3.67c-0.45,3.64-1.54,9.5-5.02,14.75c-2.61,3.94-4.88,0.12-5.75-0.25" class="stroke" stroke-dasharray="150"><set attributeName="opacity" to="0" dur="9.9s" /><animate attributeName="stroke-dashoffset" from="150" to="0" dur="1.8s" begin="9.9s" fill="freeze" /></path><path d="M36.34,68.43c0.74,0.74,0.62,1.95,0.52,2.7c-1.15,8.26-6.92,21.69-18.82,28.55" class="stroke" stroke-dasharray="150"><set attributeName="opacity" to="0" dur="11.3s" /><animate attributeName="stroke-dashoffset" from="150" to="0" dur="1.8s" begin="11.3s" fill="freeze" /></path><path d="M60,73.62c0.74,0.75,1.15,1.66,1.23,2.72c0.81,3.35,1.85,9.34,2.63,14.57c0.33,2.18,0.61,4.24,0.81,5.92" class="stroke" stroke-dasharray="150"><set attributeName="opacity" to="0" dur="12.3s" /><animate attributeName="stroke-dashoffset" from="150" to="0" dur="1.8s" begin="12.3s" fill="freeze" /></path><path d="M62.01,75.24c8.62-1.37,14.12-2.37,19.94-3.06c2.81-0.34,3.76,1.02,3.19,3.61c-1.12,4.98-2.05,8.5-3.24,14.88" class="stroke" stroke-dasharray="150"><set attributeName="opacity" to="0" dur="13.3s" /><animate attributeName="stroke-dashoffset" from="150" to="0" dur="1.8s" begin="13.3s" fill="freeze" /></path><path d="M65.43,93.32c5.32-0.69,8.85-0.95,14.3-1.52c1.32-0.14,2.69-0.25,4.14-0.33" class="stroke" stroke-dasharray="150"><set attributeName="opacity" to="0" dur="14.4s" /><animate attributeName="stroke-dashoffset" from="150" to="0" dur="1.8s" begin="14.4s" fill="freeze" /></path><text x="90" y="120" id="reset">⟳</text><text x="70" y="120" id="pause">◼</text><script type="text/javascript"><![CDATA[function RecurringTimer(e,t){var n,r,i=t;this.pause=function(){window.clearTimeout(n);i-=new Date-r};var s=function(){r=new Date;n=window.setTimeout(function(){i=t;s();e()},i)};this.clear=function(){window.clearTimeout(n);i=t;n=window.setTimeout(function(){i=t;s();e()},i)};this.resume=s;this.resume()}function invoketimer(){timer=new RecurringTimer(function(){svg.setCurrentTime(0)},16300)}var svg=document.getElementById("kanjivg");var pause=document.getElementById("pause");var reset=document.getElementById("reset");var timer;invoketimer();reset.onclick=function(){svg.setCurrentTime(0);timer.clear();svg.unpauseAnimations();pause.innerHTML = "◼";};pause.onclick=function(){if(svg.animationsPaused()){svg.unpauseAnimations();timer.resume();pause.innerHTML="◼"}else{svg.pauseAnimations();timer.pause();pause.innerHTML="▶"}}]]></script></svg>