<svg id="kanjivg" width="106" height="126" xmlns="http://www.w3.org/2000/svg" xmlns:xlink="http://www.w3.org/1999/xlink" xml:space="preserve" version="1.1" baseProfile="full"><defs><style type="text/css"><![CDATA[path.black { fill:none;stroke:black;stroke-width:5;stroke-linecap:round;stroke-linejoin:round; }path.grey { fill:none;stroke:#ddd;stroke-width:5;stroke-linecap:round;stroke-linejoin:round; }path.stroke { fill:none;stroke:black;stroke-width:5;stroke-linecap:round;stroke-linejoin:round; }rect { fill:none;stroke:#555;stroke-width:2;} text{font-size:16px;font-family:Segoe UI Symbol,Cambria Math,DejaVu Sans,Symbola,Quivira,STIX,Code2000;-webkit-touch-callout:none;cursor:pointer;-webkit-user-select:none;-khtml-user-select:none;-moz-user-select:none;-ms-user-select:none;user-select: none;} #reset { font-weight:bold; }]]></style><marker id="markerStart" markerWidth="8" markerHeight="8" style="overflow:visible;"><circle cx="0" cy="0" r="1.5" style="stroke:none;fill:red;fill-opacity:0.5;"/></marker><marker id="markerEnd" style="overflow:visible;"><circle cx="0" cy="0" r="0.8" style="stroke:none;fill:blue;fill-opacity:0.5;"><animate attributeName="opacity" from="1" to="0" dur="3s" repeatCount="indefinite" /></circle></marker></defs><rect x="4" y="4" width="100" height="100" /><path d="M52.96,9.37c0.9,0.9,1.26,1.63,1.26,2.99c0,3.64-0.01,8.32-0.01,11.01" class="grey" /><path d="M32.02,12.08c2.84,1.66,7.08,6.56,7.79,9.13" class="grey" /><path d="M75.26,10.25c0.08,0.8-0.01,1.6-0.45,2.27c-1.68,2.6-3.61,4.81-7.81,9.23" class="grey" /><path d="M21.32,25.13c-0.15,3.7-3.03,12.36-4.32,14.56" class="grey" /><path d="M21.75,28.12c21.12-2.88,40.5-4.75,63.54-5.82c10.95-0.51,4.21,5.19-0.65,7.95" class="grey" /><path d="M37.64,32.38c0.74,0.74,0.81,0.99,0.98,1.72c0.5,2.17,0.86,3.58,1.21,4.98c0.26,1.04,0.5,2.08,0.8,3.42" class="grey" /><path d="M39.35,33.32c4.57-0.47,21.29-2.07,28.03-2.76c2.34-0.24,4.42,0.67,3.37,3.32c-0.63,1.6-1.04,2.06-2.13,4.69" class="grey" /><path d="M41.44,41.21c5.19-0.57,15.45-1.15,23.31-1.56c2.06-0.11,3.95-0.2,5.55-0.28" class="grey" /><path d="M75.18,44.59c-0.5,1.24-1.47,1.97-2.65,2.5c-8.28,3.67-20.17,5.22-36.21,7.15" class="grey" /><path d="M31.75,45.07c0.92,0.92,1,2,1,3.43c0,1.38,0.05,2.25,0.05,4.94c0,7.37,2.95,8.54,26.99,8.54c24.82,0,26.03-2.61,26.03-7.37" class="grey" /><path d="M38.05,70.98c0.86,0.86,0.92,2.15,0.92,2.98c0,0.53-0.02,10.98-0.04,18.41c-0.01,4.05-0.02,7.21-0.02,7.35" class="grey" /><path d="M39.49,72.56c7-0.61,24.06-1.87,29.53-2.28c3.61-0.27,4.43,1.1,4.43,4.34c0,4.16-0.02,11.71-0.04,17.13c-0.01,3.54-0.02,6.18-0.02,6.38" class="grey" /><path d="M39.95,84.52c13.55-0.77,22.18-1.52,32.2-1.97" class="grey" /><path d="M39.78,96.56C51,96,61.5,95.5,72.13,95.29" class="grey" /><path d="M52.96,9.37c0.9,0.9,1.26,1.63,1.26,2.99c0,3.64-0.01,8.32-0.01,11.01" class="stroke" stroke-dasharray="150"><animate attributeName="stroke-dashoffset" from="150" to="0" dur="1.8s" begin="0s" fill="freeze" /></path><path d="M32.02,12.08c2.84,1.66,7.08,6.56,7.79,9.13" class="stroke" stroke-dasharray="150"><set attributeName="opacity" to="0" dur="0.9s" /><animate attributeName="stroke-dashoffset" from="150" to="0" dur="1.8s" begin="0.9s" fill="freeze" /></path><path d="M75.26,10.25c0.08,0.8-0.01,1.6-0.45,2.27c-1.68,2.6-3.61,4.81-7.81,9.23" class="stroke" stroke-dasharray="150"><set attributeName="opacity" to="0" dur="1.8s" /><animate attributeName="stroke-dashoffset" from="150" to="0" dur="1.8s" begin="1.8s" fill="freeze" /></path><path d="M21.32,25.13c-0.15,3.7-3.03,12.36-4.32,14.56" class="stroke" stroke-dasharray="150"><set attributeName="opacity" to="0" dur="2.7s" /><animate attributeName="stroke-dashoffset" from="150" to="0" dur="1.8s" begin="2.7s" fill="freeze" /></path><path d="M21.75,28.12c21.12-2.88,40.5-4.75,63.54-5.82c10.95-0.51,4.21,5.19-0.65,7.95" class="stroke" stroke-dasharray="150"><set attributeName="opacity" to="0" dur="3.6s" /><animate attributeName="stroke-dashoffset" from="150" to="0" dur="1.8s" begin="3.6s" fill="freeze" /></path><path d="M37.64,32.38c0.74,0.74,0.81,0.99,0.98,1.72c0.5,2.17,0.86,3.58,1.21,4.98c0.26,1.04,0.5,2.08,0.8,3.42" class="stroke" stroke-dasharray="150"><set attributeName="opacity" to="0" dur="5.3s" /><animate attributeName="stroke-dashoffset" from="150" to="0" dur="1.8s" begin="5.3s" fill="freeze" /></path><path d="M39.35,33.32c4.57-0.47,21.29-2.07,28.03-2.76c2.34-0.24,4.42,0.67,3.37,3.32c-0.63,1.6-1.04,2.06-2.13,4.69" class="stroke" stroke-dasharray="150"><set attributeName="opacity" to="0" dur="6.2s" /><animate attributeName="stroke-dashoffset" from="150" to="0" dur="1.8s" begin="6.2s" fill="freeze" /></path><path d="M41.44,41.21c5.19-0.57,15.45-1.15,23.31-1.56c2.06-0.11,3.95-0.2,5.55-0.28" class="stroke" stroke-dasharray="150"><set attributeName="opacity" to="0" dur="7.2s" /><animate attributeName="stroke-dashoffset" from="150" to="0" dur="1.8s" begin="7.2s" fill="freeze" /></path><path d="M75.18,44.59c-0.5,1.24-1.47,1.97-2.65,2.5c-8.28,3.67-20.17,5.22-36.21,7.15" class="stroke" stroke-dasharray="150"><set attributeName="opacity" to="0" dur="8.2s" /><animate attributeName="stroke-dashoffset" from="150" to="0" dur="1.8s" begin="8.2s" fill="freeze" /></path><path d="M31.75,45.07c0.92,0.92,1,2,1,3.43c0,1.38,0.05,2.25,0.05,4.94c0,7.37,2.95,8.54,26.99,8.54c24.82,0,26.03-2.61,26.03-7.37" class="stroke" stroke-dasharray="150"><set attributeName="opacity" to="0" dur="9.299999999999999s" /><animate attributeName="stroke-dashoffset" from="150" to="0" dur="1.8s" begin="9.299999999999999s" fill="freeze" /></path><path d="M38.05,70.98c0.86,0.86,0.92,2.15,0.92,2.98c0,0.53-0.02,10.98-0.04,18.41c-0.01,4.05-0.02,7.21-0.02,7.35" class="stroke" stroke-dasharray="150"><set attributeName="opacity" to="0" dur="10.999999999999998s" /><animate attributeName="stroke-dashoffset" from="150" to="0" dur="1.8s" begin="10.999999999999998s" fill="freeze" /></path><path d="M39.49,72.56c7-0.61,24.06-1.87,29.53-2.28c3.61-0.27,4.43,1.1,4.43,4.34c0,4.16-0.02,11.71-0.04,17.13c-0.01,3.54-0.02,6.18-0.02,6.38" class="stroke" stroke-dasharray="150"><set attributeName="opacity" to="0" dur="11.999999999999998s" /><animate attributeName="stroke-dashoffset" from="150" to="0" dur="1.8s" begin="11.999999999999998s" fill="freeze" /></path><path d="M39.95,84.52c13.55-0.77,22.18-1.52,32.2-1.97" class="stroke" stroke-dasharray="150"><set attributeName="opacity" to="0" dur="13.499999999999998s" /><animate attributeName="stroke-dashoffset" from="150" to="0" dur="1.8s" begin="13.499999999999998s" fill="freeze" /></path><path d="M39.78,96.56C51,96,61.5,95.5,72.13,95.29" class="stroke" stroke-dasharray="150"><set attributeName="opacity" to="0" dur="14.499999999999998s" /><animate attributeName="stroke-dashoffset" from="150" to="0" dur="1.8s" begin="14.499999999999998s" fill="freeze" /></path><text x="90" y="120" id="reset">⟳</text><text x="70" y="120" id="pause">◼</text><script type="text/javascript"><![CDATA[function RecurringTimer(e,t){var n,r,i=t;this.pause=function(){window.clearTimeout(n);i-=new Date-r};var s=function(){r=new Date;n=window.setTimeout(function(){i=t;s();e()},i)};this.clear=function(){window.clearTimeout(n);i=t;n=window.setTimeout(function(){i=t;s();e()},i)};this.resume=s;this.resume()}function invoketimer(){timer=new RecurringTimer(function(){svg.setCurrentTime(0)},16500)}var svg=document.getElementById("kanjivg");var pause=document.getElementById("pause");var reset=document.getElementById("reset");var timer;invoketimer();reset.onclick=function(){svg.setCurrentTime(0);timer.clear();svg.unpauseAnimations();pause.innerHTML = "◼";};pause.onclick=function(){if(svg.animationsPaused()){svg.unpauseAnimations();timer.resume();pause.innerHTML="◼"}else{svg.pauseAnimations();timer.pause();pause.innerHTML="▶"}}]]></script></svg>