<svg id="kanjivg" width="106" height="126" xmlns="http://www.w3.org/2000/svg" xmlns:xlink="http://www.w3.org/1999/xlink" xml:space="preserve" version="1.1" baseProfile="full"><defs><style type="text/css"><![CDATA[path.black { fill:none;stroke:black;stroke-width:5;stroke-linecap:round;stroke-linejoin:round; }path.grey { fill:none;stroke:#ddd;stroke-width:5;stroke-linecap:round;stroke-linejoin:round; }path.stroke { fill:none;stroke:black;stroke-width:5;stroke-linecap:round;stroke-linejoin:round; }rect { fill:none;stroke:#555;stroke-width:2;} text{font-size:16px;font-family:Segoe UI Symbol,Cambria Math,DejaVu Sans,Symbola,Quivira,STIX,Code2000;-webkit-touch-callout:none;cursor:pointer;-webkit-user-select:none;-khtml-user-select:none;-moz-user-select:none;-ms-user-select:none;user-select: none;} #reset { font-weight:bold; }]]></style><marker id="markerStart" markerWidth="8" markerHeight="8" style="overflow:visible;"><circle cx="0" cy="0" r="1.5" style="stroke:none;fill:red;fill-opacity:0.5;"/></marker><marker id="markerEnd" style="overflow:visible;"><circle cx="0" cy="0" r="0.8" style="stroke:none;fill:blue;fill-opacity:0.5;"><animate attributeName="opacity" from="1" to="0" dur="3s" repeatCount="indefinite" /></circle></marker></defs><rect x="4" y="4" width="100" height="100" /><path d="M11.25,34.06c0.35,0.45,0.72,0.82,0.87,1.38c1.23,4.42,3.7,18.12,4.54,26.06" class="grey" /><path d="M13.46,36.18c8.94-1.94,15.77-3.11,19.91-3.69c1.52-0.21,2.43,1.26,2.21,2.51c-0.9,5.17-2.45,12.65-3.78,19.8" class="grey" /><path d="M16.32,57.86c4.87-0.66,11.25-1.42,17.93-2.43" class="grey" /><path d="M49.54,22.54c0.86,0.37,2.43,0.44,3.3,0.37c6.2-0.53,26.18-2.12,31.53-2.69c1.43-0.15,2.02-0.08,2.78-0.02" class="grey" /><path d="M64.86,10.13c0.66,0.23,2.19,2.28,2.19,2.76c0,6.08,0.32,23.02,0.37,29.37" class="grey" /><path d="M49.77,33.25c0.85,0.16,2.41,0.19,3.26,0.16c6.12-0.23,25.28-2.83,30.56-3.07c1.41-0.06,2.45-0.04,3.19-0.01" class="grey" /><path d="M40.31,44.74c1.31,0.37,3.71,0.55,5.01,0.37c12.14-1.67,37.12-3.81,47.62-4.11c2.17-0.06,3.81-0.31,5.38,0.6" class="grey" /><path d="M52.04,51.5c0.5,0.71,1.22,1.24,1.22,2.18c0,0.94-0.16,28.82,0,29.76" class="grey" /><path d="M54.09,52.27c2.81-0.12,23.72-2.58,26.28-2.72c2.13-0.12,3.63,0.25,3.64,2.49c0.01,3.01-0.49,28.79-0.49,29.5" class="grey" /><path d="M53.54,61.79c4.02,0,25.81-1.92,30.32-1.92" class="grey" /><path d="M53.27,70.95c5.58,0,23.03-1.92,30.26-1.92" class="grey" /><path d="M53.5,80.47c5.58,0,22.53-1.92,29.76-1.92" class="grey" /><path d="M61.46,83.67c0.45,1.2,0.39,2.52-0.5,3.39c-2.68,2.63-10.46,8.09-15.83,11.2" class="grey" /><path d="M76.22,84.62c6.63,3.66,14.47,10.29,16.28,13.5" class="grey" /><path d="M11.25,34.06c0.35,0.45,0.72,0.82,0.87,1.38c1.23,4.42,3.7,18.12,4.54,26.06" class="stroke" stroke-dasharray="150"><animate attributeName="stroke-dashoffset" from="150" to="0" dur="1.8s" begin="0s" fill="freeze" /></path><path d="M13.46,36.18c8.94-1.94,15.77-3.11,19.91-3.69c1.52-0.21,2.43,1.26,2.21,2.51c-0.9,5.17-2.45,12.65-3.78,19.8" class="stroke" stroke-dasharray="150"><set attributeName="opacity" to="0" dur="1.0s" /><animate attributeName="stroke-dashoffset" from="150" to="0" dur="1.8s" begin="1.0s" fill="freeze" /></path><path d="M16.32,57.86c4.87-0.66,11.25-1.42,17.93-2.43" class="stroke" stroke-dasharray="150"><set attributeName="opacity" to="0" dur="2.1s" /><animate attributeName="stroke-dashoffset" from="150" to="0" dur="1.8s" begin="2.1s" fill="freeze" /></path><path d="M49.54,22.54c0.86,0.37,2.43,0.44,3.3,0.37c6.2-0.53,26.18-2.12,31.53-2.69c1.43-0.15,2.02-0.08,2.78-0.02" class="stroke" stroke-dasharray="150"><set attributeName="opacity" to="0" dur="3.0s" /><animate attributeName="stroke-dashoffset" from="150" to="0" dur="1.8s" begin="3.0s" fill="freeze" /></path><path d="M64.86,10.13c0.66,0.23,2.19,2.28,2.19,2.76c0,6.08,0.32,23.02,0.37,29.37" class="stroke" stroke-dasharray="150"><set attributeName="opacity" to="0" dur="4.0s" /><animate attributeName="stroke-dashoffset" from="150" to="0" dur="1.8s" begin="4.0s" fill="freeze" /></path><path d="M49.77,33.25c0.85,0.16,2.41,0.19,3.26,0.16c6.12-0.23,25.28-2.83,30.56-3.07c1.41-0.06,2.45-0.04,3.19-0.01" class="stroke" stroke-dasharray="150"><set attributeName="opacity" to="0" dur="5.0s" /><animate attributeName="stroke-dashoffset" from="150" to="0" dur="1.8s" begin="5.0s" fill="freeze" /></path><path d="M40.31,44.74c1.31,0.37,3.71,0.55,5.01,0.37c12.14-1.67,37.12-3.81,47.62-4.11c2.17-0.06,3.81-0.31,5.38,0.6" class="stroke" stroke-dasharray="150"><set attributeName="opacity" to="0" dur="6.0s" /><animate attributeName="stroke-dashoffset" from="150" to="0" dur="1.8s" begin="6.0s" fill="freeze" /></path><path d="M52.04,51.5c0.5,0.71,1.22,1.24,1.22,2.18c0,0.94-0.16,28.82,0,29.76" class="stroke" stroke-dasharray="150"><set attributeName="opacity" to="0" dur="7.4s" /><animate attributeName="stroke-dashoffset" from="150" to="0" dur="1.8s" begin="7.4s" fill="freeze" /></path><path d="M54.09,52.27c2.81-0.12,23.72-2.58,26.28-2.72c2.13-0.12,3.63,0.25,3.64,2.49c0.01,3.01-0.49,28.79-0.49,29.5" class="stroke" stroke-dasharray="150"><set attributeName="opacity" to="0" dur="8.4s" /><animate attributeName="stroke-dashoffset" from="150" to="0" dur="1.8s" begin="8.4s" fill="freeze" /></path><path d="M53.54,61.79c4.02,0,25.81-1.92,30.32-1.92" class="stroke" stroke-dasharray="150"><set attributeName="opacity" to="0" dur="9.9s" /><animate attributeName="stroke-dashoffset" from="150" to="0" dur="1.8s" begin="9.9s" fill="freeze" /></path><path d="M53.27,70.95c5.58,0,23.03-1.92,30.26-1.92" class="stroke" stroke-dasharray="150"><set attributeName="opacity" to="0" dur="10.9s" /><animate attributeName="stroke-dashoffset" from="150" to="0" dur="1.8s" begin="10.9s" fill="freeze" /></path><path d="M53.5,80.47c5.58,0,22.53-1.92,29.76-1.92" class="stroke" stroke-dasharray="150"><set attributeName="opacity" to="0" dur="11.9s" /><animate attributeName="stroke-dashoffset" from="150" to="0" dur="1.8s" begin="11.9s" fill="freeze" /></path><path d="M61.46,83.67c0.45,1.2,0.39,2.52-0.5,3.39c-2.68,2.63-10.46,8.09-15.83,11.2" class="stroke" stroke-dasharray="150"><set attributeName="opacity" to="0" dur="12.9s" /><animate attributeName="stroke-dashoffset" from="150" to="0" dur="1.8s" begin="12.9s" fill="freeze" /></path><path d="M76.22,84.62c6.63,3.66,14.47,10.29,16.28,13.5" class="stroke" stroke-dasharray="150"><set attributeName="opacity" to="0" dur="13.9s" /><animate attributeName="stroke-dashoffset" from="150" to="0" dur="1.8s" begin="13.9s" fill="freeze" /></path><text x="90" y="120" id="reset">⟳</text><text x="70" y="120" id="pause">◼</text><script type="text/javascript"><![CDATA[function RecurringTimer(e,t){var n,r,i=t;this.pause=function(){window.clearTimeout(n);i-=new Date-r};var s=function(){r=new Date;n=window.setTimeout(function(){i=t;s();e()},i)};this.clear=function(){window.clearTimeout(n);i=t;n=window.setTimeout(function(){i=t;s();e()},i)};this.resume=s;this.resume()}function invoketimer(){timer=new RecurringTimer(function(){svg.setCurrentTime(0)},15900)}var svg=document.getElementById("kanjivg");var pause=document.getElementById("pause");var reset=document.getElementById("reset");var timer;invoketimer();reset.onclick=function(){svg.setCurrentTime(0);timer.clear();svg.unpauseAnimations();pause.innerHTML = "◼";};pause.onclick=function(){if(svg.animationsPaused()){svg.unpauseAnimations();timer.resume();pause.innerHTML="◼"}else{svg.pauseAnimations();timer.pause();pause.innerHTML="▶"}}]]></script></svg>