<svg id="kanjivg" width="106" height="126" xmlns="http://www.w3.org/2000/svg" xmlns:xlink="http://www.w3.org/1999/xlink" xml:space="preserve" version="1.1" baseProfile="full"><defs><style type="text/css"><![CDATA[path.black { fill:none;stroke:black;stroke-width:5;stroke-linecap:round;stroke-linejoin:round; }path.grey { fill:none;stroke:#ddd;stroke-width:5;stroke-linecap:round;stroke-linejoin:round; }path.stroke { fill:none;stroke:black;stroke-width:5;stroke-linecap:round;stroke-linejoin:round; }rect { fill:none;stroke:#555;stroke-width:2;} text{font-size:16px;font-family:Segoe UI Symbol,Cambria Math,DejaVu Sans,Symbola,Quivira,STIX,Code2000;-webkit-touch-callout:none;cursor:pointer;-webkit-user-select:none;-khtml-user-select:none;-moz-user-select:none;-ms-user-select:none;user-select: none;} #reset { font-weight:bold; }]]></style><marker id="markerStart" markerWidth="8" markerHeight="8" style="overflow:visible;"><circle cx="0" cy="0" r="1.5" style="stroke:none;fill:red;fill-opacity:0.5;"/></marker><marker id="markerEnd" style="overflow:visible;"><circle cx="0" cy="0" r="0.8" style="stroke:none;fill:blue;fill-opacity:0.5;"><animate attributeName="opacity" from="1" to="0" dur="3s" repeatCount="indefinite" /></circle></marker></defs><rect x="4" y="4" width="100" height="100" /><path d="M52.96,9.37c0.09,0.26,1.17,1.35,1.26,2.99c0.4,7.9,0.24,9.07,0.24,11.76" class="grey" /><path d="M32.02,12.08c2.84,1.66,7.33,6.81,8.04,9.38" class="grey" /><path d="M75.26,10.25c0.03,0.3,0.06,0.77-0.06,1.2c-0.66,2.54-4.45,8.11-9.64,11.51" class="grey" /><path d="M21.32,25.13c-0.15,3.7-2.78,12.36-4.07,14.56" class="grey" /><path d="M21.49,27.68c6.76,0.32,47.34-5.53,63.8-5.62c10.96-0.06,4.21,5.44-0.65,8.2" class="grey" /><path d="M37.64,31.88c0.27,0.21,0.59,0.38,0.68,0.66c0.78,2.45,1.77,7.61,2.56,11.21" class="grey" /><path d="M39.35,33.32c5.07-0.52,25.43-2.43,30.11-2.96C70.63,30.23,72,31,71.5,32.5c-0.81,2.44-1.5,3.5-2.88,6.81" class="grey" /><path d="M41.44,41.46C48,40.75,65.61,39.6,70.8,39.12" class="grey" /><path d="M75.43,44.34c0.18,0.82,0.03,1.32-0.75,1.66c-8.12,3.56-22.38,6.94-39.36,8.99" class="grey" /><path d="M30.91,44c1.34,0.5,1.5,2.43,1.5,2.93c0,2.36,0.4,4.32,0.4,7.01c0,7.37,4.16,8.04,26.99,8.04c24.82,0,25.28-2.61,25.28-7.37" class="grey" /><path d="M37.8,70.73c0.58,0.69,0.92,1.65,0.92,2.48c0,0.83-0.31,25.35-0.31,25.76" class="grey" /><path d="M39.49,72.56c2.6-0.1,28.88-2.51,31.25-2.64c1.97-0.1,3.24,1.15,3.09,1.76c-0.31,1.24-0.21,25.59-0.21,26.21" class="grey" /><path d="M39.95,84.27c5.14,0,10.34-0.67,15.46-1.07c1.74-0.14,3.49-0.27,5.18-0.4" class="grey" /><path d="M39.78,96.81c7.16-0.44,23.43-1.63,32.35-2.01" class="grey" /><path d="M52.96,9.37c0.09,0.26,1.17,1.35,1.26,2.99c0.4,7.9,0.24,9.07,0.24,11.76" class="stroke" stroke-dasharray="150"><animate attributeName="stroke-dashoffset" from="150" to="0" dur="1.8s" begin="0s" fill="freeze" /></path><path d="M32.02,12.08c2.84,1.66,7.33,6.81,8.04,9.38" class="stroke" stroke-dasharray="150"><set attributeName="opacity" to="0" dur="0.9s" /><animate attributeName="stroke-dashoffset" from="150" to="0" dur="1.8s" begin="0.9s" fill="freeze" /></path><path d="M75.26,10.25c0.03,0.3,0.06,0.77-0.06,1.2c-0.66,2.54-4.45,8.11-9.64,11.51" class="stroke" stroke-dasharray="150"><set attributeName="opacity" to="0" dur="1.8s" /><animate attributeName="stroke-dashoffset" from="150" to="0" dur="1.8s" begin="1.8s" fill="freeze" /></path><path d="M21.32,25.13c-0.15,3.7-2.78,12.36-4.07,14.56" class="stroke" stroke-dasharray="150"><set attributeName="opacity" to="0" dur="2.7s" /><animate attributeName="stroke-dashoffset" from="150" to="0" dur="1.8s" begin="2.7s" fill="freeze" /></path><path d="M21.49,27.68c6.76,0.32,47.34-5.53,63.8-5.62c10.96-0.06,4.21,5.44-0.65,8.2" class="stroke" stroke-dasharray="150"><set attributeName="opacity" to="0" dur="3.6s" /><animate attributeName="stroke-dashoffset" from="150" to="0" dur="1.8s" begin="3.6s" fill="freeze" /></path><path d="M37.64,31.88c0.27,0.21,0.59,0.38,0.68,0.66c0.78,2.45,1.77,7.61,2.56,11.21" class="stroke" stroke-dasharray="150"><set attributeName="opacity" to="0" dur="5.3s" /><animate attributeName="stroke-dashoffset" from="150" to="0" dur="1.8s" begin="5.3s" fill="freeze" /></path><path d="M39.35,33.32c5.07-0.52,25.43-2.43,30.11-2.96C70.63,30.23,72,31,71.5,32.5c-0.81,2.44-1.5,3.5-2.88,6.81" class="stroke" stroke-dasharray="150"><set attributeName="opacity" to="0" dur="6.2s" /><animate attributeName="stroke-dashoffset" from="150" to="0" dur="1.8s" begin="6.2s" fill="freeze" /></path><path d="M41.44,41.46C48,40.75,65.61,39.6,70.8,39.12" class="stroke" stroke-dasharray="150"><set attributeName="opacity" to="0" dur="7.300000000000001s" /><animate attributeName="stroke-dashoffset" from="150" to="0" dur="1.8s" begin="7.300000000000001s" fill="freeze" /></path><path d="M75.43,44.34c0.18,0.82,0.03,1.32-0.75,1.66c-8.12,3.56-22.38,6.94-39.36,8.99" class="stroke" stroke-dasharray="150"><set attributeName="opacity" to="0" dur="8.3s" /><animate attributeName="stroke-dashoffset" from="150" to="0" dur="1.8s" begin="8.3s" fill="freeze" /></path><path d="M30.91,44c1.34,0.5,1.5,2.43,1.5,2.93c0,2.36,0.4,4.32,0.4,7.01c0,7.37,4.16,8.04,26.99,8.04c24.82,0,25.28-2.61,25.28-7.37" class="stroke" stroke-dasharray="150"><set attributeName="opacity" to="0" dur="9.4s" /><animate attributeName="stroke-dashoffset" from="150" to="0" dur="1.8s" begin="9.4s" fill="freeze" /></path><path d="M37.8,70.73c0.58,0.69,0.92,1.65,0.92,2.48c0,0.83-0.31,25.35-0.31,25.76" class="stroke" stroke-dasharray="150"><set attributeName="opacity" to="0" dur="11.1s" /><animate attributeName="stroke-dashoffset" from="150" to="0" dur="1.8s" begin="11.1s" fill="freeze" /></path><path d="M39.49,72.56c2.6-0.1,28.88-2.51,31.25-2.64c1.97-0.1,3.24,1.15,3.09,1.76c-0.31,1.24-0.21,25.59-0.21,26.21" class="stroke" stroke-dasharray="150"><set attributeName="opacity" to="0" dur="12.1s" /><animate attributeName="stroke-dashoffset" from="150" to="0" dur="1.8s" begin="12.1s" fill="freeze" /></path><path d="M39.95,84.27c5.14,0,10.34-0.67,15.46-1.07c1.74-0.14,3.49-0.27,5.18-0.4" class="stroke" stroke-dasharray="150"><set attributeName="opacity" to="0" dur="13.6s" /><animate attributeName="stroke-dashoffset" from="150" to="0" dur="1.8s" begin="13.6s" fill="freeze" /></path><path d="M39.78,96.81c7.16-0.44,23.43-1.63,32.35-2.01" class="stroke" stroke-dasharray="150"><set attributeName="opacity" to="0" dur="14.6s" /><animate attributeName="stroke-dashoffset" from="150" to="0" dur="1.8s" begin="14.6s" fill="freeze" /></path><text x="90" y="120" id="reset">⟳</text><text x="70" y="120" id="pause">◼</text><script type="text/javascript"><![CDATA[function RecurringTimer(e,t){var n,r,i=t;this.pause=function(){window.clearTimeout(n);i-=new Date-r};var s=function(){r=new Date;n=window.setTimeout(function(){i=t;s();e()},i)};this.clear=function(){window.clearTimeout(n);i=t;n=window.setTimeout(function(){i=t;s();e()},i)};this.resume=s;this.resume()}function invoketimer(){timer=new RecurringTimer(function(){svg.setCurrentTime(0)},16600)}var svg=document.getElementById("kanjivg");var pause=document.getElementById("pause");var reset=document.getElementById("reset");var timer;invoketimer();reset.onclick=function(){svg.setCurrentTime(0);timer.clear();svg.unpauseAnimations();pause.innerHTML = "◼";};pause.onclick=function(){if(svg.animationsPaused()){svg.unpauseAnimations();timer.resume();pause.innerHTML="◼"}else{svg.pauseAnimations();timer.pause();pause.innerHTML="▶"}}]]></script></svg>