<svg id="kanjivg" width="106" height="126" xmlns="http://www.w3.org/2000/svg" xmlns:xlink="http://www.w3.org/1999/xlink" xml:space="preserve" version="1.1" baseProfile="full"><defs><style type="text/css"><![CDATA[path.black { fill:none;stroke:black;stroke-width:5;stroke-linecap:round;stroke-linejoin:round; }path.grey { fill:none;stroke:#ddd;stroke-width:5;stroke-linecap:round;stroke-linejoin:round; }path.stroke { fill:none;stroke:black;stroke-width:5;stroke-linecap:round;stroke-linejoin:round; }rect { fill:none;stroke:#555;stroke-width:2;} text{font-size:16px;font-family:Segoe UI Symbol,Cambria Math,DejaVu Sans,Symbola,Quivira,STIX,Code2000;-webkit-touch-callout:none;cursor:pointer;-webkit-user-select:none;-khtml-user-select:none;-moz-user-select:none;-ms-user-select:none;user-select: none;} #reset { font-weight:bold; }]]></style><marker id="markerStart" markerWidth="8" markerHeight="8" style="overflow:visible;"><circle cx="0" cy="0" r="1.5" style="stroke:none;fill:red;fill-opacity:0.5;"/></marker><marker id="markerEnd" style="overflow:visible;"><circle cx="0" cy="0" r="0.8" style="stroke:none;fill:blue;fill-opacity:0.5;"><animate attributeName="opacity" from="1" to="0" dur="3s" repeatCount="indefinite" /></circle></marker></defs><rect x="4" y="4" width="100" height="100" /><path d="M13.25,34.02c0.34,0.45,0.69,0.82,0.84,1.38c1.19,4.44,2.61,16.67,3.42,24.63" class="grey" /><path d="M15.38,36.16c8.64-1.95,13.8-3.12,17.81-3.7c1.47-0.21,2.35,1.26,2.14,2.51c-0.87,5.18-1.88,13.19-3.17,20.35" class="grey" /><path d="M17.67,57.9c4.71-0.66,10.39-0.92,16.86-1.93" class="grey" /><path d="M62.59,11.58c0.91,0.92,1.62,1.99,1.62,5.02c0,5.9-0.02,8.19-0.02,13.15" class="grey" /><path d="M64.16,20.27c4.84-0.82,10.76-1.79,15.25-2.38c1.52-0.2,2.45,0.18,3.21,0.37" class="grey" /><path d="M45.31,32.24c1.94,0,2.67,0.06,4.2-0.22c10.94-2.02,29.65-4.02,39.02-4.18c9.87-0.17,2.09,6.66-0.37,8.78" class="grey" /><path d="M44.68,30.68c0.54,0.58,1.25,3.75,1.1,5.82c-1.66,21.72-3.03,38-14.28,57.25" class="grey" /><path d="M51.13,43.69c0.65,0.37,2.24,0.45,2.9,0.37c6.72-0.81,20.1-3.07,27.13-3.97c1.08-0.14,1.73,0.18,2.28,0.36" class="grey" /><path d="M63.72,34.18c0.45,0.45,1.05,2.22,1.05,2.84c0,4.98-0.08,7.14-0.08,9.37c0,6.61,4.01,6.61,10.48,6.61c2.41,0,11.83,0,13.91-0.89" class="grey" /><path d="M61.64,59.33c0.76,0.86,1.29,1.87,1.35,4.73c0.31,13.72-0.2,25.23-0.2,29.9" class="grey" /><path d="M73.6,59.08c0.75,0.85,1.27,1.85,1.33,4.66c0.31,13.52-0.19,24.87-0.19,29.47" class="grey" /><path d="M49.29,70.75c1.76,2.38,4.54,9.77,4.98,13.47" class="grey" /><path d="M91.32,67.14c0.02,0.34,0.05,0.89-0.05,1.38c-0.58,2.92-3.92,9.31-8.49,13.22" class="grey" /><path d="M42.38,95.26c1.04,0.45,2.97,0.66,4,0.45c4.22-0.87,37.81-3.14,47.72-3.14c1.74,0,2.78,0.21,3.65,0.44" class="grey" /><path d="M13.25,34.02c0.34,0.45,0.69,0.82,0.84,1.38c1.19,4.44,2.61,16.67,3.42,24.63" class="stroke" stroke-dasharray="150"><animate attributeName="stroke-dashoffset" from="150" to="0" dur="1.8s" begin="0s" fill="freeze" /></path><path d="M15.38,36.16c8.64-1.95,13.8-3.12,17.81-3.7c1.47-0.21,2.35,1.26,2.14,2.51c-0.87,5.18-1.88,13.19-3.17,20.35" class="stroke" stroke-dasharray="150"><set attributeName="opacity" to="0" dur="1.0s" /><animate attributeName="stroke-dashoffset" from="150" to="0" dur="1.8s" begin="1.0s" fill="freeze" /></path><path d="M17.67,57.9c4.71-0.66,10.39-0.92,16.86-1.93" class="stroke" stroke-dasharray="150"><set attributeName="opacity" to="0" dur="2.1s" /><animate attributeName="stroke-dashoffset" from="150" to="0" dur="1.8s" begin="2.1s" fill="freeze" /></path><path d="M62.59,11.58c0.91,0.92,1.62,1.99,1.62,5.02c0,5.9-0.02,8.19-0.02,13.15" class="stroke" stroke-dasharray="150"><set attributeName="opacity" to="0" dur="3.0s" /><animate attributeName="stroke-dashoffset" from="150" to="0" dur="1.8s" begin="3.0s" fill="freeze" /></path><path d="M64.16,20.27c4.84-0.82,10.76-1.79,15.25-2.38c1.52-0.2,2.45,0.18,3.21,0.37" class="stroke" stroke-dasharray="150"><set attributeName="opacity" to="0" dur="3.9s" /><animate attributeName="stroke-dashoffset" from="150" to="0" dur="1.8s" begin="3.9s" fill="freeze" /></path><path d="M45.31,32.24c1.94,0,2.67,0.06,4.2-0.22c10.94-2.02,29.65-4.02,39.02-4.18c9.87-0.17,2.09,6.66-0.37,8.78" class="stroke" stroke-dasharray="150"><set attributeName="opacity" to="0" dur="4.8s" /><animate attributeName="stroke-dashoffset" from="150" to="0" dur="1.8s" begin="4.8s" fill="freeze" /></path><path d="M44.68,30.68c0.54,0.58,1.25,3.75,1.1,5.82c-1.66,21.72-3.03,38-14.28,57.25" class="stroke" stroke-dasharray="150"><set attributeName="opacity" to="0" dur="6.199999999999999s" /><animate attributeName="stroke-dashoffset" from="150" to="0" dur="1.8s" begin="6.199999999999999s" fill="freeze" /></path><path d="M51.13,43.69c0.65,0.37,2.24,0.45,2.9,0.37c6.72-0.81,20.1-3.07,27.13-3.97c1.08-0.14,1.73,0.18,2.28,0.36" class="stroke" stroke-dasharray="150"><set attributeName="opacity" to="0" dur="7.699999999999999s" /><animate attributeName="stroke-dashoffset" from="150" to="0" dur="1.8s" begin="7.699999999999999s" fill="freeze" /></path><path d="M63.72,34.18c0.45,0.45,1.05,2.22,1.05,2.84c0,4.98-0.08,7.14-0.08,9.37c0,6.61,4.01,6.61,10.48,6.61c2.41,0,11.83,0,13.91-0.89" class="stroke" stroke-dasharray="150"><set attributeName="opacity" to="0" dur="8.7s" /><animate attributeName="stroke-dashoffset" from="150" to="0" dur="1.8s" begin="8.7s" fill="freeze" /></path><path d="M61.64,59.33c0.76,0.86,1.29,1.87,1.35,4.73c0.31,13.72-0.2,25.23-0.2,29.9" class="stroke" stroke-dasharray="150"><set attributeName="opacity" to="0" dur="9.799999999999999s" /><animate attributeName="stroke-dashoffset" from="150" to="0" dur="1.8s" begin="9.799999999999999s" fill="freeze" /></path><path d="M73.6,59.08c0.75,0.85,1.27,1.85,1.33,4.66c0.31,13.52-0.19,24.87-0.19,29.47" class="stroke" stroke-dasharray="150"><set attributeName="opacity" to="0" dur="10.799999999999999s" /><animate attributeName="stroke-dashoffset" from="150" to="0" dur="1.8s" begin="10.799999999999999s" fill="freeze" /></path><path d="M49.29,70.75c1.76,2.38,4.54,9.77,4.98,13.47" class="stroke" stroke-dasharray="150"><set attributeName="opacity" to="0" dur="11.799999999999999s" /><animate attributeName="stroke-dashoffset" from="150" to="0" dur="1.8s" begin="11.799999999999999s" fill="freeze" /></path><path d="M91.32,67.14c0.02,0.34,0.05,0.89-0.05,1.38c-0.58,2.92-3.92,9.31-8.49,13.22" class="stroke" stroke-dasharray="150"><set attributeName="opacity" to="0" dur="12.7s" /><animate attributeName="stroke-dashoffset" from="150" to="0" dur="1.8s" begin="12.7s" fill="freeze" /></path><path d="M42.38,95.26c1.04,0.45,2.97,0.66,4,0.45c4.22-0.87,37.81-3.14,47.72-3.14c1.74,0,2.78,0.21,3.65,0.44" class="stroke" stroke-dasharray="150"><set attributeName="opacity" to="0" dur="13.6s" /><animate attributeName="stroke-dashoffset" from="150" to="0" dur="1.8s" begin="13.6s" fill="freeze" /></path><text x="90" y="120" id="reset">⟳</text><text x="70" y="120" id="pause">◼</text><script type="text/javascript"><![CDATA[function RecurringTimer(e,t){var n,r,i=t;this.pause=function(){window.clearTimeout(n);i-=new Date-r};var s=function(){r=new Date;n=window.setTimeout(function(){i=t;s();e()},i)};this.clear=function(){window.clearTimeout(n);i=t;n=window.setTimeout(function(){i=t;s();e()},i)};this.resume=s;this.resume()}function invoketimer(){timer=new RecurringTimer(function(){svg.setCurrentTime(0)},16000)}var svg=document.getElementById("kanjivg");var pause=document.getElementById("pause");var reset=document.getElementById("reset");var timer;invoketimer();reset.onclick=function(){svg.setCurrentTime(0);timer.clear();svg.unpauseAnimations();pause.innerHTML = "◼";};pause.onclick=function(){if(svg.animationsPaused()){svg.unpauseAnimations();timer.resume();pause.innerHTML="◼"}else{svg.pauseAnimations();timer.pause();pause.innerHTML="▶"}}]]></script></svg>