<svg id="kanjivg" width="106" height="126" xmlns="http://www.w3.org/2000/svg" xmlns:xlink="http://www.w3.org/1999/xlink" xml:space="preserve" version="1.1" baseProfile="full"><defs><style type="text/css"><![CDATA[path.black { fill:none;stroke:black;stroke-width:5;stroke-linecap:round;stroke-linejoin:round; }path.grey { fill:none;stroke:#ddd;stroke-width:5;stroke-linecap:round;stroke-linejoin:round; }path.stroke { fill:none;stroke:black;stroke-width:5;stroke-linecap:round;stroke-linejoin:round; }rect { fill:none;stroke:#555;stroke-width:2;} text{font-size:16px;font-family:Segoe UI Symbol,Cambria Math,DejaVu Sans,Symbola,Quivira,STIX,Code2000;-webkit-touch-callout:none;cursor:pointer;-webkit-user-select:none;-khtml-user-select:none;-moz-user-select:none;-ms-user-select:none;user-select: none;} #reset { font-weight:bold; }]]></style><marker id="markerStart" markerWidth="8" markerHeight="8" style="overflow:visible;"><circle cx="0" cy="0" r="1.5" style="stroke:none;fill:red;fill-opacity:0.5;"/></marker><marker id="markerEnd" style="overflow:visible;"><circle cx="0" cy="0" r="0.8" style="stroke:none;fill:blue;fill-opacity:0.5;"><animate attributeName="opacity" from="1" to="0" dur="3s" repeatCount="indefinite" /></circle></marker></defs><rect x="4" y="4" width="100" height="100" /><path d="M9.75,34.06c0.35,0.45,0.72,0.82,0.87,1.38c1.23,4.42,3.7,18.12,4.54,26.06" class="grey" /><path d="M11.96,36.18c8.94-1.94,15.27-3.11,19.41-3.69c1.52-0.21,2.43,1.26,2.21,2.51c-0.9,5.17-2.45,12.65-3.78,19.8" class="grey" /><path d="M14.82,57.86c4.87-0.66,10.75-1.42,17.43-2.43" class="grey" /><path d="M40.38,17.17c1.45,0.51,4.11,0.59,5.56,0.51c15.1-0.85,28.74-3.48,45.02-3.94c2.42-0.07,3.87,0.24,5.08,0.5" class="grey" /><path d="M57.43,27.37c0.31,0.31,0.64,0.57,0.77,0.96c1.09,3.08,3.39,11.07,4.14,16.59" class="grey" /><path d="M58.84,28.88c7.49-1.18,21.09-3.56,25.38-4.03c1.57-0.17,2.51,1.02,2.29,2.04c-0.93,4.19-1.58,6-2.96,11.8" class="grey" /><path d="M62.29,42.48c5.04-0.53,16.34-2.45,23.26-3.27" class="grey" /><path d="M52.37,56.61c0.37,0.44,0.74,0.8,0.9,1.34c1.27,4.32,2.61,17.79,3.48,25.55" class="grey" /><path d="M54.21,58.53c4.67-1.14,10.4-2.14,14.69-2.7c1.57-0.21,2.51,1.23,2.29,2.45c-0.93,5.04-2.08,14.41-3.46,21.38" class="grey" /><path d="M56.67,80.92c5.04-0.64,11.65-1.3,13.57-1.18" class="grey" /><path d="M76.8,54.64c0.37,0.4,0.74,0.72,0.9,1.22c1.27,3.91,2.79,19.19,3.66,26.21" class="grey" /><path d="M78.22,56.79c7.06-1.53,11.57-2.79,15.87-3.3c1.57-0.19,2.51,1.11,2.29,2.21c-0.93,4.57-2.51,16.08-3.9,22.39" class="grey" /><path d="M81.1,79.14c5.04-0.58,7.02-0.58,13.94-1.48" class="grey" /><path d="M44.68,18.11c0,3.5-0.44,71.14-0.44,74.42c0,2.78,0.88,3.61,2.44,3.5c8.87-0.66,45.83-2.86,48.72-2.86c2.88,0,3.84,0.33,6.09,1.16" class="grey" /><path d="M9.75,34.06c0.35,0.45,0.72,0.82,0.87,1.38c1.23,4.42,3.7,18.12,4.54,26.06" class="stroke" stroke-dasharray="150"><animate attributeName="stroke-dashoffset" from="150" to="0" dur="1.8s" begin="0s" fill="freeze" /></path><path d="M11.96,36.18c8.94-1.94,15.27-3.11,19.41-3.69c1.52-0.21,2.43,1.26,2.21,2.51c-0.9,5.17-2.45,12.65-3.78,19.8" class="stroke" stroke-dasharray="150"><set attributeName="opacity" to="0" dur="1.0s" /><animate attributeName="stroke-dashoffset" from="150" to="0" dur="1.8s" begin="1.0s" fill="freeze" /></path><path d="M14.82,57.86c4.87-0.66,10.75-1.42,17.43-2.43" class="stroke" stroke-dasharray="150"><set attributeName="opacity" to="0" dur="2.1s" /><animate attributeName="stroke-dashoffset" from="150" to="0" dur="1.8s" begin="2.1s" fill="freeze" /></path><path d="M40.38,17.17c1.45,0.51,4.11,0.59,5.56,0.51c15.1-0.85,28.74-3.48,45.02-3.94c2.42-0.07,3.87,0.24,5.08,0.5" class="stroke" stroke-dasharray="150"><set attributeName="opacity" to="0" dur="3.0s" /><animate attributeName="stroke-dashoffset" from="150" to="0" dur="1.8s" begin="3.0s" fill="freeze" /></path><path d="M57.43,27.37c0.31,0.31,0.64,0.57,0.77,0.96c1.09,3.08,3.39,11.07,4.14,16.59" class="stroke" stroke-dasharray="150"><set attributeName="opacity" to="0" dur="4.4s" /><animate attributeName="stroke-dashoffset" from="150" to="0" dur="1.8s" begin="4.4s" fill="freeze" /></path><path d="M58.84,28.88c7.49-1.18,21.09-3.56,25.38-4.03c1.57-0.17,2.51,1.02,2.29,2.04c-0.93,4.19-1.58,6-2.96,11.8" class="stroke" stroke-dasharray="150"><set attributeName="opacity" to="0" dur="5.300000000000001s" /><animate attributeName="stroke-dashoffset" from="150" to="0" dur="1.8s" begin="5.300000000000001s" fill="freeze" /></path><path d="M62.29,42.48c5.04-0.53,16.34-2.45,23.26-3.27" class="stroke" stroke-dasharray="150"><set attributeName="opacity" to="0" dur="6.4s" /><animate attributeName="stroke-dashoffset" from="150" to="0" dur="1.8s" begin="6.4s" fill="freeze" /></path><path d="M52.37,56.61c0.37,0.44,0.74,0.8,0.9,1.34c1.27,4.32,2.61,17.79,3.48,25.55" class="stroke" stroke-dasharray="150"><set attributeName="opacity" to="0" dur="7.4s" /><animate attributeName="stroke-dashoffset" from="150" to="0" dur="1.8s" begin="7.4s" fill="freeze" /></path><path d="M54.21,58.53c4.67-1.14,10.4-2.14,14.69-2.7c1.57-0.21,2.51,1.23,2.29,2.45c-0.93,5.04-2.08,14.41-3.46,21.38" class="stroke" stroke-dasharray="150"><set attributeName="opacity" to="0" dur="8.4s" /><animate attributeName="stroke-dashoffset" from="150" to="0" dur="1.8s" begin="8.4s" fill="freeze" /></path><path d="M56.67,80.92c5.04-0.64,11.65-1.3,13.57-1.18" class="stroke" stroke-dasharray="150"><set attributeName="opacity" to="0" dur="9.5s" /><animate attributeName="stroke-dashoffset" from="150" to="0" dur="1.8s" begin="9.5s" fill="freeze" /></path><path d="M76.8,54.64c0.37,0.4,0.74,0.72,0.9,1.22c1.27,3.91,2.79,19.19,3.66,26.21" class="stroke" stroke-dasharray="150"><set attributeName="opacity" to="0" dur="10.4s" /><animate attributeName="stroke-dashoffset" from="150" to="0" dur="1.8s" begin="10.4s" fill="freeze" /></path><path d="M78.22,56.79c7.06-1.53,11.57-2.79,15.87-3.3c1.57-0.19,2.51,1.11,2.29,2.21c-0.93,4.57-2.51,16.08-3.9,22.39" class="stroke" stroke-dasharray="150"><set attributeName="opacity" to="0" dur="11.4s" /><animate attributeName="stroke-dashoffset" from="150" to="0" dur="1.8s" begin="11.4s" fill="freeze" /></path><path d="M81.1,79.14c5.04-0.58,7.02-0.58,13.94-1.48" class="stroke" stroke-dasharray="150"><set attributeName="opacity" to="0" dur="12.5s" /><animate attributeName="stroke-dashoffset" from="150" to="0" dur="1.8s" begin="12.5s" fill="freeze" /></path><path d="M44.68,18.11c0,3.5-0.44,71.14-0.44,74.42c0,2.78,0.88,3.61,2.44,3.5c8.87-0.66,45.83-2.86,48.72-2.86c2.88,0,3.84,0.33,6.09,1.16" class="stroke" stroke-dasharray="150"><set attributeName="opacity" to="0" dur="13.4s" /><animate attributeName="stroke-dashoffset" from="150" to="0" dur="1.8s" begin="13.4s" fill="freeze" /></path><text x="90" y="120" id="reset">⟳</text><text x="70" y="120" id="pause">◼</text><script type="text/javascript"><![CDATA[function RecurringTimer(e,t){var n,r,i=t;this.pause=function(){window.clearTimeout(n);i-=new Date-r};var s=function(){r=new Date;n=window.setTimeout(function(){i=t;s();e()},i)};this.clear=function(){window.clearTimeout(n);i=t;n=window.setTimeout(function(){i=t;s();e()},i)};this.resume=s;this.resume()}function invoketimer(){timer=new RecurringTimer(function(){svg.setCurrentTime(0)},16400)}var svg=document.getElementById("kanjivg");var pause=document.getElementById("pause");var reset=document.getElementById("reset");var timer;invoketimer();reset.onclick=function(){svg.setCurrentTime(0);timer.clear();svg.unpauseAnimations();pause.innerHTML = "◼";};pause.onclick=function(){if(svg.animationsPaused()){svg.unpauseAnimations();timer.resume();pause.innerHTML="◼"}else{svg.pauseAnimations();timer.pause();pause.innerHTML="▶"}}]]></script></svg>