<svg id="kanjivg" width="106" height="126" xmlns="http://www.w3.org/2000/svg" xmlns:xlink="http://www.w3.org/1999/xlink" xml:space="preserve" version="1.1" baseProfile="full"><defs><style type="text/css"><![CDATA[path.black { fill:none;stroke:black;stroke-width:5;stroke-linecap:round;stroke-linejoin:round; }path.grey { fill:none;stroke:#ddd;stroke-width:5;stroke-linecap:round;stroke-linejoin:round; }path.stroke { fill:none;stroke:black;stroke-width:5;stroke-linecap:round;stroke-linejoin:round; }rect { fill:none;stroke:#555;stroke-width:2;} text{font-size:16px;font-family:Segoe UI Symbol,Cambria Math,DejaVu Sans,Symbola,Quivira,STIX,Code2000;-webkit-touch-callout:none;cursor:pointer;-webkit-user-select:none;-khtml-user-select:none;-moz-user-select:none;-ms-user-select:none;user-select: none;} #reset { font-weight:bold; }]]></style><marker id="markerStart" markerWidth="8" markerHeight="8" style="overflow:visible;"><circle cx="0" cy="0" r="1.5" style="stroke:none;fill:red;fill-opacity:0.5;"/></marker><marker id="markerEnd" style="overflow:visible;"><circle cx="0" cy="0" r="0.8" style="stroke:none;fill:blue;fill-opacity:0.5;"><animate attributeName="opacity" from="1" to="0" dur="3s" repeatCount="indefinite" /></circle></marker></defs><rect x="4" y="4" width="100" height="100" /><path d="m13.25,34.02c0.77,0.92,1.19,1.99,1.25,3.2,0.76,4.78,1.55,11.56,2.2,17.64,0.2,1.9,0.39,3.74,0.56,5.42" class="grey" /><path d="m15.38,36.16c7.16,-1.61,11.93,-2.69,15.63,-3.35,2.61,-0.46,4.58,0.43,4.1,3.46-0.82,5.16-1.77,12.46-2.96,19.05" class="grey" /><path d="m17.92,58.15c3.61,-0.5,7.54,-1.03,12.21,-1.58,1.42,-0.17,2.89,-0.36,4.4,-0.6" class="grey" /><path d="m62.59,11.58c0.91,0.92,1.62,1.99,1.62,5.02,0,5.9-0.02,7.44-0.02,12.4" class="grey" /><path d="m64.91,20.27c4.52,-0.77,9.07,-1.44,13.34,-2.01,1.36,-0.23,2.73,-0.23,4.12,0" class="grey" /><path d="m44.68,31.18c0.82,0.82,1.25,2.5,1.1,4.57-1.66,21.72-3.03,38.75-14.28,58" class="grey" /><path d="m45.34,31.72c1.52,0.4,3.03,0.44,4.53,0.12,11.94,-1.71,26.85,-2.83,38.66,-4.01,9.82,-0.98,2.09,6.66-0.37,8.78" class="grey" /><path d="m51.13,43.69c1.92,0.49,3.84,0.49,5.76,-0.01,6.14,-0.85,14.58,-2.31,20.88,-3.21,1.73,-0.52,3.7,-0.53,5.42,-0.04" class="grey" /><path d="m63.72,34.18c0.8,0.8,1.05,1.7,1.05,3.09,0,4.98-0.08,6.89-0.08,9.12,0,6.61,4.01,6.61,10.48,6.61,2.41,0,11.83,0,13.91,-0.89" class="grey" /><path d="m61.64,59.33c1.01,1.01,1.35,2.42,1.35,4.73,0,10.44,0.05,23.98,0.05,28.65" class="grey" /><path d="m73.6,58.83c0.97,0.97,1.33,2.17,1.33,4.16,0,13.88-0.19,23.25-0.19,29.22" class="grey" /><path d="m49.29,70.75c1.76,2.38,4.54,9.77,4.98,13.47" class="grey" /><path d="m91.32,67.14c0.07,0.73-0.01,1.44-0.24,2.13-0.93,3.16-2.96,7.6-8.3,12.47" class="grey" /><path d="m42.38,95.01c3.04,0.65,6,0.38,9.11,0.08,10.13,-0.97,28.35,-2.12,38.38,-2.45,2.64,-0.25,5.27,-0.13,7.88,0.35" class="grey" /><path d="m13.25,34.02c0.77,0.92,1.19,1.99,1.25,3.2,0.76,4.78,1.55,11.56,2.2,17.64,0.2,1.9,0.39,3.74,0.56,5.42" class="stroke" stroke-dasharray="150"><animate attributeName="stroke-dashoffset" from="150" to="0" dur="1.8s" begin="0s" fill="freeze" /></path><path d="m15.38,36.16c7.16,-1.61,11.93,-2.69,15.63,-3.35,2.61,-0.46,4.58,0.43,4.1,3.46-0.82,5.16-1.77,12.46-2.96,19.05" class="stroke" stroke-dasharray="150"><set attributeName="opacity" to="0" dur="1.0s" /><animate attributeName="stroke-dashoffset" from="150" to="0" dur="1.8s" begin="1.0s" fill="freeze" /></path><path d="m17.92,58.15c3.61,-0.5,7.54,-1.03,12.21,-1.58,1.42,-0.17,2.89,-0.36,4.4,-0.6" class="stroke" stroke-dasharray="150"><set attributeName="opacity" to="0" dur="2.1s" /><animate attributeName="stroke-dashoffset" from="150" to="0" dur="1.8s" begin="2.1s" fill="freeze" /></path><path d="m62.59,11.58c0.91,0.92,1.62,1.99,1.62,5.02,0,5.9-0.02,7.44-0.02,12.4" class="stroke" stroke-dasharray="150"><set attributeName="opacity" to="0" dur="3.0s" /><animate attributeName="stroke-dashoffset" from="150" to="0" dur="1.8s" begin="3.0s" fill="freeze" /></path><path d="m64.91,20.27c4.52,-0.77,9.07,-1.44,13.34,-2.01,1.36,-0.23,2.73,-0.23,4.12,0" class="stroke" stroke-dasharray="150"><set attributeName="opacity" to="0" dur="3.9s" /><animate attributeName="stroke-dashoffset" from="150" to="0" dur="1.8s" begin="3.9s" fill="freeze" /></path><path d="m44.68,31.18c0.82,0.82,1.25,2.5,1.1,4.57-1.66,21.72-3.03,38.75-14.28,58" class="stroke" stroke-dasharray="150"><set attributeName="opacity" to="0" dur="4.8s" /><animate attributeName="stroke-dashoffset" from="150" to="0" dur="1.8s" begin="4.8s" fill="freeze" /></path><path d="m45.34,31.72c1.52,0.4,3.03,0.44,4.53,0.12,11.94,-1.71,26.85,-2.83,38.66,-4.01,9.82,-0.98,2.09,6.66-0.37,8.78" class="stroke" stroke-dasharray="150"><set attributeName="opacity" to="0" dur="6.3s" /><animate attributeName="stroke-dashoffset" from="150" to="0" dur="1.8s" begin="6.3s" fill="freeze" /></path><path d="m51.13,43.69c1.92,0.49,3.84,0.49,5.76,-0.01,6.14,-0.85,14.58,-2.31,20.88,-3.21,1.73,-0.52,3.7,-0.53,5.42,-0.04" class="stroke" stroke-dasharray="150"><set attributeName="opacity" to="0" dur="7.699999999999999s" /><animate attributeName="stroke-dashoffset" from="150" to="0" dur="1.8s" begin="7.699999999999999s" fill="freeze" /></path><path d="m63.72,34.18c0.8,0.8,1.05,1.7,1.05,3.09,0,4.98-0.08,6.89-0.08,9.12,0,6.61,4.01,6.61,10.48,6.61,2.41,0,11.83,0,13.91,-0.89" class="stroke" stroke-dasharray="150"><set attributeName="opacity" to="0" dur="8.7s" /><animate attributeName="stroke-dashoffset" from="150" to="0" dur="1.8s" begin="8.7s" fill="freeze" /></path><path d="m61.64,59.33c1.01,1.01,1.35,2.42,1.35,4.73,0,10.44,0.05,23.98,0.05,28.65" class="stroke" stroke-dasharray="150"><set attributeName="opacity" to="0" dur="9.799999999999999s" /><animate attributeName="stroke-dashoffset" from="150" to="0" dur="1.8s" begin="9.799999999999999s" fill="freeze" /></path><path d="m73.6,58.83c0.97,0.97,1.33,2.17,1.33,4.16,0,13.88-0.19,23.25-0.19,29.22" class="stroke" stroke-dasharray="150"><set attributeName="opacity" to="0" dur="10.799999999999999s" /><animate attributeName="stroke-dashoffset" from="150" to="0" dur="1.8s" begin="10.799999999999999s" fill="freeze" /></path><path d="m49.29,70.75c1.76,2.38,4.54,9.77,4.98,13.47" class="stroke" stroke-dasharray="150"><set attributeName="opacity" to="0" dur="11.799999999999999s" /><animate attributeName="stroke-dashoffset" from="150" to="0" dur="1.8s" begin="11.799999999999999s" fill="freeze" /></path><path d="m91.32,67.14c0.07,0.73-0.01,1.44-0.24,2.13-0.93,3.16-2.96,7.6-8.3,12.47" class="stroke" stroke-dasharray="150"><set attributeName="opacity" to="0" dur="12.7s" /><animate attributeName="stroke-dashoffset" from="150" to="0" dur="1.8s" begin="12.7s" fill="freeze" /></path><path d="m42.38,95.01c3.04,0.65,6,0.38,9.11,0.08,10.13,-0.97,28.35,-2.12,38.38,-2.45,2.64,-0.25,5.27,-0.13,7.88,0.35" class="stroke" stroke-dasharray="150"><set attributeName="opacity" to="0" dur="13.6s" /><animate attributeName="stroke-dashoffset" from="150" to="0" dur="1.8s" begin="13.6s" fill="freeze" /></path><text x="90" y="120" id="reset">⟳</text><text x="70" y="120" id="pause">◼</text><script type="text/javascript"><![CDATA[function RecurringTimer(e,t){var n,r,i=t;this.pause=function(){window.clearTimeout(n);i-=new Date-r};var s=function(){r=new Date;n=window.setTimeout(function(){i=t;s();e()},i)};this.clear=function(){window.clearTimeout(n);i=t;n=window.setTimeout(function(){i=t;s();e()},i)};this.resume=s;this.resume()}function invoketimer(){timer=new RecurringTimer(function(){svg.setCurrentTime(0)},16000)}var svg=document.getElementById("kanjivg");var pause=document.getElementById("pause");var reset=document.getElementById("reset");var timer;invoketimer();reset.onclick=function(){svg.setCurrentTime(0);timer.clear();svg.unpauseAnimations();pause.innerHTML = "◼";};pause.onclick=function(){if(svg.animationsPaused()){svg.unpauseAnimations();timer.resume();pause.innerHTML="◼"}else{svg.pauseAnimations();timer.pause();pause.innerHTML="▶"}}]]></script></svg>