<svg id="kanjivg" width="106" height="126" xmlns="http://www.w3.org/2000/svg" xmlns:xlink="http://www.w3.org/1999/xlink" xml:space="preserve" version="1.1" baseProfile="full"><defs><style type="text/css"><![CDATA[path.black { fill:none;stroke:black;stroke-width:5;stroke-linecap:round;stroke-linejoin:round; }path.grey { fill:none;stroke:#ddd;stroke-width:5;stroke-linecap:round;stroke-linejoin:round; }path.stroke { fill:none;stroke:black;stroke-width:5;stroke-linecap:round;stroke-linejoin:round; }rect { fill:none;stroke:#555;stroke-width:2;} text{font-size:16px;font-family:Segoe UI Symbol,Cambria Math,DejaVu Sans,Symbola,Quivira,STIX,Code2000;-webkit-touch-callout:none;cursor:pointer;-webkit-user-select:none;-khtml-user-select:none;-moz-user-select:none;-ms-user-select:none;user-select: none;} #reset { font-weight:bold; }]]></style><marker id="markerStart" markerWidth="8" markerHeight="8" style="overflow:visible;"><circle cx="0" cy="0" r="1.5" style="stroke:none;fill:red;fill-opacity:0.5;"/></marker><marker id="markerEnd" style="overflow:visible;"><circle cx="0" cy="0" r="0.8" style="stroke:none;fill:blue;fill-opacity:0.5;"><animate attributeName="opacity" from="1" to="0" dur="3s" repeatCount="indefinite" /></circle></marker></defs><rect x="4" y="4" width="100" height="100" /><path d="M13.25,34.02c0.34,0.45,0.69,0.82,0.84,1.38c1.19,4.44,2.61,16.67,3.42,24.63" class="grey" /><path d="M15.38,36.16c8.64-1.95,13.8-3.12,17.81-3.7c1.47-0.21,2.35,1.26,2.14,2.51c-0.87,5.18-1.88,13.19-3.17,20.35" class="grey" /><path d="M17.67,57.9c4.71-0.66,10.39-0.92,16.86-1.93" class="grey" /><path d="M62.59,11.08c0.91,0.92,1.62,1.99,1.62,5.02c0,5.9-0.02,8.19-0.02,13.15" class="grey" /><path d="M64.16,20.67c4.91-0.93,10.9-2.01,15.45-2.68c1.54-0.23,2.48,0.2,3.25,0.42" class="grey" /><path d="M44.62,30.68c0.59,0.57,0.65,2.72,0.65,4.78c-0.02,23.29-3.27,42.79-15.02,59.29" class="grey" /><path d="M45.81,32.18c0.97,0.16,0.73,0.41,2.3,0.17c11.2-1.73,30.46-3.88,40.05-4.02c10.11-0.15,2.14,5.72-0.38,7.53" class="grey" /><path d="M51.13,44.19c0.65,0.37,2.24,0.45,2.9,0.37c6.72-0.81,20.1-2.57,27.13-3.47c1.08-0.14,1.73,0.18,2.28,0.36" class="grey" /><path d="M63.97,34.18c0.43,0.45,1.01,2.22,1.01,2.84c0,4.98-0.08,7.14-0.08,9.37c0,6.61,3.85,6.61,10.07,6.61c2.31,0,11.37,0,13.36-0.89" class="grey" /><path d="M50.36,66.99c0.61,0.4,1.03,1.87,1.08,3.2c0.09,2.4-0.17,6.24-0.56,11.05c-0.08,0.94,0.5,1.58,1.78,1.2c4.09-1.2,8.76-1.6,10.44-1.7" class="grey" /><path d="M61.64,59.33c0.76,0.86,1.29,1.87,1.35,4.73c0.31,13.72-0.2,24.23-0.2,28.9" class="grey" /><path d="M87.18,64.33c0.61,0.4,1.08,1.87,1.08,3.2c0,3.67-1.44,10-1.44,14.93" class="grey" /><path d="M85.9,78.82c-2.62,0.22-8.78,1.09-10.79,1.09" class="grey" /><path d="M73.1,59.58c0.75,0.85,1.27,1.85,1.33,4.66c0.31,13.52-0.19,23.37-0.19,27.97" class="grey" /><path d="M40.88,95.32c1.08,0.42,3.07,0.62,4.14,0.42c4.37-0.81,39.17-2.95,49.44-2.95c1.8,0,2.88,0.2,3.78,0.41" class="grey" /><path d="M13.25,34.02c0.34,0.45,0.69,0.82,0.84,1.38c1.19,4.44,2.61,16.67,3.42,24.63" class="stroke" stroke-dasharray="150"><animate attributeName="stroke-dashoffset" from="150" to="0" dur="1.8s" begin="0s" fill="freeze" /></path><path d="M15.38,36.16c8.64-1.95,13.8-3.12,17.81-3.7c1.47-0.21,2.35,1.26,2.14,2.51c-0.87,5.18-1.88,13.19-3.17,20.35" class="stroke" stroke-dasharray="150"><set attributeName="opacity" to="0" dur="1.0s" /><animate attributeName="stroke-dashoffset" from="150" to="0" dur="1.8s" begin="1.0s" fill="freeze" /></path><path d="M17.67,57.9c4.71-0.66,10.39-0.92,16.86-1.93" class="stroke" stroke-dasharray="150"><set attributeName="opacity" to="0" dur="2.1s" /><animate attributeName="stroke-dashoffset" from="150" to="0" dur="1.8s" begin="2.1s" fill="freeze" /></path><path d="M62.59,11.08c0.91,0.92,1.62,1.99,1.62,5.02c0,5.9-0.02,8.19-0.02,13.15" class="stroke" stroke-dasharray="150"><set attributeName="opacity" to="0" dur="3.0s" /><animate attributeName="stroke-dashoffset" from="150" to="0" dur="1.8s" begin="3.0s" fill="freeze" /></path><path d="M64.16,20.67c4.91-0.93,10.9-2.01,15.45-2.68c1.54-0.23,2.48,0.2,3.25,0.42" class="stroke" stroke-dasharray="150"><set attributeName="opacity" to="0" dur="3.9s" /><animate attributeName="stroke-dashoffset" from="150" to="0" dur="1.8s" begin="3.9s" fill="freeze" /></path><path d="M44.62,30.68c0.59,0.57,0.65,2.72,0.65,4.78c-0.02,23.29-3.27,42.79-15.02,59.29" class="stroke" stroke-dasharray="150"><set attributeName="opacity" to="0" dur="4.8s" /><animate attributeName="stroke-dashoffset" from="150" to="0" dur="1.8s" begin="4.8s" fill="freeze" /></path><path d="M45.81,32.18c0.97,0.16,0.73,0.41,2.3,0.17c11.2-1.73,30.46-3.88,40.05-4.02c10.11-0.15,2.14,5.72-0.38,7.53" class="stroke" stroke-dasharray="150"><set attributeName="opacity" to="0" dur="6.3s" /><animate attributeName="stroke-dashoffset" from="150" to="0" dur="1.8s" begin="6.3s" fill="freeze" /></path><path d="M51.13,44.19c0.65,0.37,2.24,0.45,2.9,0.37c6.72-0.81,20.1-2.57,27.13-3.47c1.08-0.14,1.73,0.18,2.28,0.36" class="stroke" stroke-dasharray="150"><set attributeName="opacity" to="0" dur="7.699999999999999s" /><animate attributeName="stroke-dashoffset" from="150" to="0" dur="1.8s" begin="7.699999999999999s" fill="freeze" /></path><path d="M63.97,34.18c0.43,0.45,1.01,2.22,1.01,2.84c0,4.98-0.08,7.14-0.08,9.37c0,6.61,3.85,6.61,10.07,6.61c2.31,0,11.37,0,13.36-0.89" class="stroke" stroke-dasharray="150"><set attributeName="opacity" to="0" dur="8.7s" /><animate attributeName="stroke-dashoffset" from="150" to="0" dur="1.8s" begin="8.7s" fill="freeze" /></path><path d="M50.36,66.99c0.61,0.4,1.03,1.87,1.08,3.2c0.09,2.4-0.17,6.24-0.56,11.05c-0.08,0.94,0.5,1.58,1.78,1.2c4.09-1.2,8.76-1.6,10.44-1.7" class="stroke" stroke-dasharray="150"><set attributeName="opacity" to="0" dur="9.799999999999999s" /><animate attributeName="stroke-dashoffset" from="150" to="0" dur="1.8s" begin="9.799999999999999s" fill="freeze" /></path><path d="M61.64,59.33c0.76,0.86,1.29,1.87,1.35,4.73c0.31,13.72-0.2,24.23-0.2,28.9" class="stroke" stroke-dasharray="150"><set attributeName="opacity" to="0" dur="10.799999999999999s" /><animate attributeName="stroke-dashoffset" from="150" to="0" dur="1.8s" begin="10.799999999999999s" fill="freeze" /></path><path d="M87.18,64.33c0.61,0.4,1.08,1.87,1.08,3.2c0,3.67-1.44,10-1.44,14.93" class="stroke" stroke-dasharray="150"><set attributeName="opacity" to="0" dur="11.799999999999999s" /><animate attributeName="stroke-dashoffset" from="150" to="0" dur="1.8s" begin="11.799999999999999s" fill="freeze" /></path><path d="M85.9,78.82c-2.62,0.22-8.78,1.09-10.79,1.09" class="stroke" stroke-dasharray="150"><set attributeName="opacity" to="0" dur="12.7s" /><animate attributeName="stroke-dashoffset" from="150" to="0" dur="1.8s" begin="12.7s" fill="freeze" /></path><path d="M73.1,59.58c0.75,0.85,1.27,1.85,1.33,4.66c0.31,13.52-0.19,23.37-0.19,27.97" class="stroke" stroke-dasharray="150"><set attributeName="opacity" to="0" dur="13.6s" /><animate attributeName="stroke-dashoffset" from="150" to="0" dur="1.8s" begin="13.6s" fill="freeze" /></path><path d="M40.88,95.32c1.08,0.42,3.07,0.62,4.14,0.42c4.37-0.81,39.17-2.95,49.44-2.95c1.8,0,2.88,0.2,3.78,0.41" class="stroke" stroke-dasharray="150"><set attributeName="opacity" to="0" dur="14.6s" /><animate attributeName="stroke-dashoffset" from="150" to="0" dur="1.8s" begin="14.6s" fill="freeze" /></path><text x="90" y="120" id="reset">⟳</text><text x="70" y="120" id="pause">◼</text><script type="text/javascript"><![CDATA[function RecurringTimer(e,t){var n,r,i=t;this.pause=function(){window.clearTimeout(n);i-=new Date-r};var s=function(){r=new Date;n=window.setTimeout(function(){i=t;s();e()},i)};this.clear=function(){window.clearTimeout(n);i=t;n=window.setTimeout(function(){i=t;s();e()},i)};this.resume=s;this.resume()}function invoketimer(){timer=new RecurringTimer(function(){svg.setCurrentTime(0)},17000)}var svg=document.getElementById("kanjivg");var pause=document.getElementById("pause");var reset=document.getElementById("reset");var timer;invoketimer();reset.onclick=function(){svg.setCurrentTime(0);timer.clear();svg.unpauseAnimations();pause.innerHTML = "◼";};pause.onclick=function(){if(svg.animationsPaused()){svg.unpauseAnimations();timer.resume();pause.innerHTML="◼"}else{svg.pauseAnimations();timer.pause();pause.innerHTML="▶"}}]]></script></svg>