<svg id="kanjivg" width="106" height="126" xmlns="http://www.w3.org/2000/svg" xmlns:xlink="http://www.w3.org/1999/xlink" xml:space="preserve" version="1.1" baseProfile="full"><defs><style type="text/css"><![CDATA[path.black { fill:none;stroke:black;stroke-width:5;stroke-linecap:round;stroke-linejoin:round; }path.grey { fill:none;stroke:#ddd;stroke-width:5;stroke-linecap:round;stroke-linejoin:round; }path.stroke { fill:none;stroke:black;stroke-width:5;stroke-linecap:round;stroke-linejoin:round; }rect { fill:none;stroke:#555;stroke-width:2;} text{font-size:16px;font-family:Segoe UI Symbol,Cambria Math,DejaVu Sans,Symbola,Quivira,STIX,Code2000;-webkit-touch-callout:none;cursor:pointer;-webkit-user-select:none;-khtml-user-select:none;-moz-user-select:none;-ms-user-select:none;user-select: none;} #reset { font-weight:bold; }]]></style><marker id="markerStart" markerWidth="8" markerHeight="8" style="overflow:visible;"><circle cx="0" cy="0" r="1.5" style="stroke:none;fill:red;fill-opacity:0.5;"/></marker><marker id="markerEnd" style="overflow:visible;"><circle cx="0" cy="0" r="0.8" style="stroke:none;fill:blue;fill-opacity:0.5;"><animate attributeName="opacity" from="1" to="0" dur="3s" repeatCount="indefinite" /></circle></marker></defs><rect x="4" y="4" width="100" height="100" /><path d="M11.5,33.16c0.92,0.92,1.31,1.85,1.45,3.07C14,45.12,14.75,53,15.68,62" class="grey" /><path d="M13.84,35.43c7.3-1.26,13.16-2.48,17.14-3.19c2.09-0.37,3.86,0.82,3.48,3.26c-0.87,5.61-2.28,13.54-3.49,20.99" class="grey" /><path d="M16.59,58.77c4.62-0.55,9.16-0.97,15.82-1.59" class="grey" /><path d="M39.77,21.2c3,0.53,5.99,0.55,9,0.04c10.06-0.85,26.83-2.37,37.5-2.79c2.9-0.24,5.8-0.15,8.68,0.29" class="grey" /><path d="M53.55,11.68c0.95,0.95,1.5,2.03,1.61,2.76c1.09,6.93,1.68,12.79,2.05,15.26" class="grey" /><path d="M77.47,9.13c0.66,1.37,0.56,2.46,0.33,3.95c-0.92,6.04-1.55,9.04-2.44,15.08" class="grey" /><path d="M45.5,35.06c2.7,0.59,5.39,0.69,8.14,0.29c8.62-1.23,17.37-1.6,27.62-2.41c2.69-0.21,5.37-0.03,8.03,0.41" class="grey" /><path d="M38.1,51.93c3.72,0.71,7.41,0.45,11.17,0.14c14.49-1.19,25.48-1.82,39.85-2.65c3.61-0.19,7.2-0.02,10.78,0.51" class="grey" /><path d="M50.09,43.12c1.21,1.21,1.28,2.36,1.39,3.14c1.14,8.24,1.39,10.99,2.06,15.56" class="grey" /><path d="M84.04,39.21c0.71,1.13,0.54,2.86,0.19,4.33c-1.41,5.99-2.36,10.21-3.49,15.69" class="grey" /><path d="M46.35,67.28c2.63,0.58,5.23,0.38,7.92,0.08c9.08-1.02,19.64-1.63,26.86-1.89c2.74-0.22,5.46-0.1,8.16,0.36" class="grey" /><path d="M40.54,80c3.19,1,7.1,0.34,10.34,0.07c9.82-0.8,23.8-1.51,35.61-2.14c3.63-0.24,7.25-0.11,10.86,0.37" class="grey" /><path d="M65.93,36.89c1.15,1.15,1.41,2.31,1.41,3.37c0,3.21-0.05,33.67-0.08,49.99c-0.01,4.6-0.01,8.07-0.01,9.5" class="grey" /><path d="M11.5,33.16c0.92,0.92,1.31,1.85,1.45,3.07C14,45.12,14.75,53,15.68,62" class="stroke" stroke-dasharray="150"><animate attributeName="stroke-dashoffset" from="150" to="0" dur="1.8s" begin="0s" fill="freeze" /></path><path d="M13.84,35.43c7.3-1.26,13.16-2.48,17.14-3.19c2.09-0.37,3.86,0.82,3.48,3.26c-0.87,5.61-2.28,13.54-3.49,20.99" class="stroke" stroke-dasharray="150"><set attributeName="opacity" to="0" dur="1.0s" /><animate attributeName="stroke-dashoffset" from="150" to="0" dur="1.8s" begin="1.0s" fill="freeze" /></path><path d="M16.59,58.77c4.62-0.55,9.16-0.97,15.82-1.59" class="stroke" stroke-dasharray="150"><set attributeName="opacity" to="0" dur="2.1s" /><animate attributeName="stroke-dashoffset" from="150" to="0" dur="1.8s" begin="2.1s" fill="freeze" /></path><path d="M39.77,21.2c3,0.53,5.99,0.55,9,0.04c10.06-0.85,26.83-2.37,37.5-2.79c2.9-0.24,5.8-0.15,8.68,0.29" class="stroke" stroke-dasharray="150"><set attributeName="opacity" to="0" dur="3.0s" /><animate attributeName="stroke-dashoffset" from="150" to="0" dur="1.8s" begin="3.0s" fill="freeze" /></path><path d="M53.55,11.68c0.95,0.95,1.5,2.03,1.61,2.76c1.09,6.93,1.68,12.79,2.05,15.26" class="stroke" stroke-dasharray="150"><set attributeName="opacity" to="0" dur="4.4s" /><animate attributeName="stroke-dashoffset" from="150" to="0" dur="1.8s" begin="4.4s" fill="freeze" /></path><path d="M77.47,9.13c0.66,1.37,0.56,2.46,0.33,3.95c-0.92,6.04-1.55,9.04-2.44,15.08" class="stroke" stroke-dasharray="150"><set attributeName="opacity" to="0" dur="5.300000000000001s" /><animate attributeName="stroke-dashoffset" from="150" to="0" dur="1.8s" begin="5.300000000000001s" fill="freeze" /></path><path d="M45.5,35.06c2.7,0.59,5.39,0.69,8.14,0.29c8.62-1.23,17.37-1.6,27.62-2.41c2.69-0.21,5.37-0.03,8.03,0.41" class="stroke" stroke-dasharray="150"><set attributeName="opacity" to="0" dur="6.200000000000001s" /><animate attributeName="stroke-dashoffset" from="150" to="0" dur="1.8s" begin="6.200000000000001s" fill="freeze" /></path><path d="M38.1,51.93c3.72,0.71,7.41,0.45,11.17,0.14c14.49-1.19,25.48-1.82,39.85-2.65c3.61-0.19,7.2-0.02,10.78,0.51" class="stroke" stroke-dasharray="150"><set attributeName="opacity" to="0" dur="7.300000000000001s" /><animate attributeName="stroke-dashoffset" from="150" to="0" dur="1.8s" begin="7.300000000000001s" fill="freeze" /></path><path d="M50.09,43.12c1.21,1.21,1.28,2.36,1.39,3.14c1.14,8.24,1.39,10.99,2.06,15.56" class="stroke" stroke-dasharray="150"><set attributeName="opacity" to="0" dur="8.8s" /><animate attributeName="stroke-dashoffset" from="150" to="0" dur="1.8s" begin="8.8s" fill="freeze" /></path><path d="M84.04,39.21c0.71,1.13,0.54,2.86,0.19,4.33c-1.41,5.99-2.36,10.21-3.49,15.69" class="stroke" stroke-dasharray="150"><set attributeName="opacity" to="0" dur="9.700000000000001s" /><animate attributeName="stroke-dashoffset" from="150" to="0" dur="1.8s" begin="9.700000000000001s" fill="freeze" /></path><path d="M46.35,67.28c2.63,0.58,5.23,0.38,7.92,0.08c9.08-1.02,19.64-1.63,26.86-1.89c2.74-0.22,5.46-0.1,8.16,0.36" class="stroke" stroke-dasharray="150"><set attributeName="opacity" to="0" dur="10.700000000000001s" /><animate attributeName="stroke-dashoffset" from="150" to="0" dur="1.8s" begin="10.700000000000001s" fill="freeze" /></path><path d="M40.54,80c3.19,1,7.1,0.34,10.34,0.07c9.82-0.8,23.8-1.51,35.61-2.14c3.63-0.24,7.25-0.11,10.86,0.37" class="stroke" stroke-dasharray="150"><set attributeName="opacity" to="0" dur="11.8s" /><animate attributeName="stroke-dashoffset" from="150" to="0" dur="1.8s" begin="11.8s" fill="freeze" /></path><path d="M65.93,36.89c1.15,1.15,1.41,2.31,1.41,3.37c0,3.21-0.05,33.67-0.08,49.99c-0.01,4.6-0.01,8.07-0.01,9.5" class="stroke" stroke-dasharray="150"><set attributeName="opacity" to="0" dur="13.200000000000001s" /><animate attributeName="stroke-dashoffset" from="150" to="0" dur="1.8s" begin="13.200000000000001s" fill="freeze" /></path><text x="90" y="120" id="reset">⟳</text><text x="70" y="120" id="pause">◼</text><script type="text/javascript"><![CDATA[function RecurringTimer(e,t){var n,r,i=t;this.pause=function(){window.clearTimeout(n);i-=new Date-r};var s=function(){r=new Date;n=window.setTimeout(function(){i=t;s();e()},i)};this.clear=function(){window.clearTimeout(n);i=t;n=window.setTimeout(function(){i=t;s();e()},i)};this.resume=s;this.resume()}function invoketimer(){timer=new RecurringTimer(function(){svg.setCurrentTime(0)},15700)}var svg=document.getElementById("kanjivg");var pause=document.getElementById("pause");var reset=document.getElementById("reset");var timer;invoketimer();reset.onclick=function(){svg.setCurrentTime(0);timer.clear();svg.unpauseAnimations();pause.innerHTML = "◼";};pause.onclick=function(){if(svg.animationsPaused()){svg.unpauseAnimations();timer.resume();pause.innerHTML="◼"}else{svg.pauseAnimations();timer.pause();pause.innerHTML="▶"}}]]></script></svg>