<svg id="kanjivg" width="106" height="126" xmlns="http://www.w3.org/2000/svg" xmlns:xlink="http://www.w3.org/1999/xlink" xml:space="preserve" version="1.1" baseProfile="full"><defs><style type="text/css"><![CDATA[path.black { fill:none;stroke:black;stroke-width:5;stroke-linecap:round;stroke-linejoin:round; }path.grey { fill:none;stroke:#ddd;stroke-width:5;stroke-linecap:round;stroke-linejoin:round; }path.stroke { fill:none;stroke:black;stroke-width:5;stroke-linecap:round;stroke-linejoin:round; }rect { fill:none;stroke:#555;stroke-width:2;} text{font-size:16px;font-family:Segoe UI Symbol,Cambria Math,DejaVu Sans,Symbola,Quivira,STIX,Code2000;-webkit-touch-callout:none;cursor:pointer;-webkit-user-select:none;-khtml-user-select:none;-moz-user-select:none;-ms-user-select:none;user-select: none;} #reset { font-weight:bold; }]]></style><marker id="markerStart" markerWidth="8" markerHeight="8" style="overflow:visible;"><circle cx="0" cy="0" r="1.5" style="stroke:none;fill:red;fill-opacity:0.5;"/></marker><marker id="markerEnd" style="overflow:visible;"><circle cx="0" cy="0" r="0.8" style="stroke:none;fill:blue;fill-opacity:0.5;"><animate attributeName="opacity" from="1" to="0" dur="3s" repeatCount="indefinite" /></circle></marker></defs><rect x="4" y="4" width="100" height="100" /><path d="M9.25,34.06c0.34,0.45,0.69,0.82,0.83,1.38c1.18,4.42,3.04,18.12,3.85,26.06" class="grey" /><path d="M11.36,36.18c8.56-1.94,14.63-3.11,18.6-3.69c1.45-0.21,2.32,1.26,2.12,2.51c-0.86,5.17-2.34,12.65-3.62,19.8" class="grey" /><path d="M13.61,57.86c4.67-0.66,10.8-1.42,17.2-2.43" class="grey" /><path d="M36.04,28.01c0.72,0.37,3.93,0.45,4.68,0.37c6.34-0.66,17.89-2.72,23.35-2.91c1.21-0.04,3.08-0.14,3.69,0.04" class="grey" /><path d="M52.23,13.25c0.32,0.34,0.99,2.53,1.06,3.2c0.06,0.68-1.54,18.33-1.61,22.55" class="grey" /><path d="M38.62,39.94c0.33,0.6,0.66,0.9,0.66,1.7c0,0.8,3.17,20.51,3.17,20.91" class="grey" /><path d="M40.49,41.5c4.4-0.75,19.54-3,23.37-3.51c1.41-0.19,2.46,1.26,2.22,3.7c-0.44,4.59-2.65,13.81-3.49,18.81" class="grey" /><path d="M41.51,50.88c5.14-0.63,20-2.65,22.86-2.65" class="grey" /><path d="M42.44,60.5c5.15-0.43,13.53-1.25,19.46-1.95" class="grey" /><path d="M31.38,74.83c0.66,0.32,3.61,0.43,4.27,0.32c3.44-0.56,20.99-2.81,27.63-3.45c1.09-0.1,2.82-0.12,3.37,0.04" class="grey" /><path d="M50.65,62.25c0.32,0.34,0.99,2.53,1.06,3.2c0.06,0.67-0.04,26.83-0.1,31.05" class="grey" /><path d="M74.47,18.47c0.62,1.03,1.24,2.05,1.24,3.1c0,3.93-0.23,24.01-0.29,26.33c-0.28,10.62-0.92,29.85-10.38,44.85" class="grey" /><path d="M76.23,20.47c1.94-0.25,14.62-2.44,16.06-2.72c2.59-0.5,3.56,3.27,3.24,4.78c-0.31,1.45-0.49,47.06-0.49,67.43c0,8.04-5.48,1.29-7.09-0.73" class="grey" /><path d="M75.73,40.84C81.75,40,88.5,39.25,94.9,38.37" class="grey" /><path d="M75.21,60.71c5.18-0.75,13.87-1.46,19.86-1.97" class="grey" /><path d="M9.25,34.06c0.34,0.45,0.69,0.82,0.83,1.38c1.18,4.42,3.04,18.12,3.85,26.06" class="stroke" stroke-dasharray="150"><animate attributeName="stroke-dashoffset" from="150" to="0" dur="1.8s" begin="0s" fill="freeze" /></path><path d="M11.36,36.18c8.56-1.94,14.63-3.11,18.6-3.69c1.45-0.21,2.32,1.26,2.12,2.51c-0.86,5.17-2.34,12.65-3.62,19.8" class="stroke" stroke-dasharray="150"><set attributeName="opacity" to="0" dur="1.0s" /><animate attributeName="stroke-dashoffset" from="150" to="0" dur="1.8s" begin="1.0s" fill="freeze" /></path><path d="M13.61,57.86c4.67-0.66,10.8-1.42,17.2-2.43" class="stroke" stroke-dasharray="150"><set attributeName="opacity" to="0" dur="2.1s" /><animate attributeName="stroke-dashoffset" from="150" to="0" dur="1.8s" begin="2.1s" fill="freeze" /></path><path d="M36.04,28.01c0.72,0.37,3.93,0.45,4.68,0.37c6.34-0.66,17.89-2.72,23.35-2.91c1.21-0.04,3.08-0.14,3.69,0.04" class="stroke" stroke-dasharray="150"><set attributeName="opacity" to="0" dur="3.0s" /><animate attributeName="stroke-dashoffset" from="150" to="0" dur="1.8s" begin="3.0s" fill="freeze" /></path><path d="M52.23,13.25c0.32,0.34,0.99,2.53,1.06,3.2c0.06,0.68-1.54,18.33-1.61,22.55" class="stroke" stroke-dasharray="150"><set attributeName="opacity" to="0" dur="4.0s" /><animate attributeName="stroke-dashoffset" from="150" to="0" dur="1.8s" begin="4.0s" fill="freeze" /></path><path d="M38.62,39.94c0.33,0.6,0.66,0.9,0.66,1.7c0,0.8,3.17,20.51,3.17,20.91" class="stroke" stroke-dasharray="150"><set attributeName="opacity" to="0" dur="5.0s" /><animate attributeName="stroke-dashoffset" from="150" to="0" dur="1.8s" begin="5.0s" fill="freeze" /></path><path d="M40.49,41.5c4.4-0.75,19.54-3,23.37-3.51c1.41-0.19,2.46,1.26,2.22,3.7c-0.44,4.59-2.65,13.81-3.49,18.81" class="stroke" stroke-dasharray="150"><set attributeName="opacity" to="0" dur="6.0s" /><animate attributeName="stroke-dashoffset" from="150" to="0" dur="1.8s" begin="6.0s" fill="freeze" /></path><path d="M41.51,50.88c5.14-0.63,20-2.65,22.86-2.65" class="stroke" stroke-dasharray="150"><set attributeName="opacity" to="0" dur="7.2s" /><animate attributeName="stroke-dashoffset" from="150" to="0" dur="1.8s" begin="7.2s" fill="freeze" /></path><path d="M42.44,60.5c5.15-0.43,13.53-1.25,19.46-1.95" class="stroke" stroke-dasharray="150"><set attributeName="opacity" to="0" dur="8.2s" /><animate attributeName="stroke-dashoffset" from="150" to="0" dur="1.8s" begin="8.2s" fill="freeze" /></path><path d="M31.38,74.83c0.66,0.32,3.61,0.43,4.27,0.32c3.44-0.56,20.99-2.81,27.63-3.45c1.09-0.1,2.82-0.12,3.37,0.04" class="stroke" stroke-dasharray="150"><set attributeName="opacity" to="0" dur="9.1s" /><animate attributeName="stroke-dashoffset" from="150" to="0" dur="1.8s" begin="9.1s" fill="freeze" /></path><path d="M50.65,62.25c0.32,0.34,0.99,2.53,1.06,3.2c0.06,0.67-0.04,26.83-0.1,31.05" class="stroke" stroke-dasharray="150"><set attributeName="opacity" to="0" dur="10.1s" /><animate attributeName="stroke-dashoffset" from="150" to="0" dur="1.8s" begin="10.1s" fill="freeze" /></path><path d="M74.47,18.47c0.62,1.03,1.24,2.05,1.24,3.1c0,3.93-0.23,24.01-0.29,26.33c-0.28,10.62-0.92,29.85-10.38,44.85" class="stroke" stroke-dasharray="150"><set attributeName="opacity" to="0" dur="11.1s" /><animate attributeName="stroke-dashoffset" from="150" to="0" dur="1.8s" begin="11.1s" fill="freeze" /></path><path d="M76.23,20.47c1.94-0.25,14.62-2.44,16.06-2.72c2.59-0.5,3.56,3.27,3.24,4.78c-0.31,1.45-0.49,47.06-0.49,67.43c0,8.04-5.48,1.29-7.09-0.73" class="stroke" stroke-dasharray="150"><set attributeName="opacity" to="0" dur="12.799999999999999s" /><animate attributeName="stroke-dashoffset" from="150" to="0" dur="1.8s" begin="12.799999999999999s" fill="freeze" /></path><path d="M75.73,40.84C81.75,40,88.5,39.25,94.9,38.37" class="stroke" stroke-dasharray="150"><set attributeName="opacity" to="0" dur="14.7s" /><animate attributeName="stroke-dashoffset" from="150" to="0" dur="1.8s" begin="14.7s" fill="freeze" /></path><path d="M75.21,60.71c5.18-0.75,13.87-1.46,19.86-1.97" class="stroke" stroke-dasharray="150"><set attributeName="opacity" to="0" dur="15.6s" /><animate attributeName="stroke-dashoffset" from="150" to="0" dur="1.8s" begin="15.6s" fill="freeze" /></path><text x="90" y="120" id="reset">⟳</text><text x="70" y="120" id="pause">◼</text><script type="text/javascript"><![CDATA[function RecurringTimer(e,t){var n,r,i=t;this.pause=function(){window.clearTimeout(n);i-=new Date-r};var s=function(){r=new Date;n=window.setTimeout(function(){i=t;s();e()},i)};this.clear=function(){window.clearTimeout(n);i=t;n=window.setTimeout(function(){i=t;s();e()},i)};this.resume=s;this.resume()}function invoketimer(){timer=new RecurringTimer(function(){svg.setCurrentTime(0)},17500)}var svg=document.getElementById("kanjivg");var pause=document.getElementById("pause");var reset=document.getElementById("reset");var timer;invoketimer();reset.onclick=function(){svg.setCurrentTime(0);timer.clear();svg.unpauseAnimations();pause.innerHTML = "◼";};pause.onclick=function(){if(svg.animationsPaused()){svg.unpauseAnimations();timer.resume();pause.innerHTML="◼"}else{svg.pauseAnimations();timer.pause();pause.innerHTML="▶"}}]]></script></svg>