<svg id="kanjivg" width="106" height="126" xmlns="http://www.w3.org/2000/svg" xmlns:xlink="http://www.w3.org/1999/xlink" xml:space="preserve" version="1.1" baseProfile="full"><defs><style type="text/css"><![CDATA[path.black { fill:none;stroke:black;stroke-width:5;stroke-linecap:round;stroke-linejoin:round; }path.grey { fill:none;stroke:#ddd;stroke-width:5;stroke-linecap:round;stroke-linejoin:round; }path.stroke { fill:none;stroke:black;stroke-width:5;stroke-linecap:round;stroke-linejoin:round; }rect { fill:none;stroke:#555;stroke-width:2;} text{font-size:16px;font-family:Segoe UI Symbol,Cambria Math,DejaVu Sans,Symbola,Quivira,STIX,Code2000;-webkit-touch-callout:none;cursor:pointer;-webkit-user-select:none;-khtml-user-select:none;-moz-user-select:none;-ms-user-select:none;user-select: none;} #reset { font-weight:bold; }]]></style><marker id="markerStart" markerWidth="8" markerHeight="8" style="overflow:visible;"><circle cx="0" cy="0" r="1.5" style="stroke:none;fill:red;fill-opacity:0.5;"/></marker><marker id="markerEnd" style="overflow:visible;"><circle cx="0" cy="0" r="0.8" style="stroke:none;fill:blue;fill-opacity:0.5;"><animate attributeName="opacity" from="1" to="0" dur="3s" repeatCount="indefinite" /></circle></marker></defs><rect x="4" y="4" width="100" height="100" /><path d="M8.75,34.56C9.1,35,9.47,35.38,9.62,35.94c1.23,4.42,2.7,17.62,3.54,25.56" class="grey" /><path d="M10.96,36.68c8.94-1.94,13.27-3.11,17.41-3.69c1.52-0.21,2.43,1.26,2.21,2.51c-0.9,5.17-2.45,12.15-3.78,19.3" class="grey" /><path d="M12.82,57.86c4.87-0.66,9.75-1.42,16.43-2.43" class="grey" /><path d="M34.04,31.23c1.14,0.16,3.07,0.44,3.62,0.36c4.96-0.69,21.35-2.25,27.45-2.84c0.9-0.09,2.25,0.17,2.7,0.34" class="grey" /><path d="M40.12,16.59c0.82,0.49,1.31,2.21,1.47,3.19c0.16,0.98,0,46.42-0.17,52.55" class="grey" /><path d="M58.25,13.5c0.78,0.49,1.25,2.22,1.4,3.21c0.15,0.99,0,47.54-0.16,53.7" class="grey" /><path d="M41.79,44.55c2.91-0.31,5.84-0.56,8.75-0.84c0.95-0.09,1.9-0.18,2.8-0.27" class="grey" /><path d="M41.64,57.2c2.84-0.27,5.69-0.49,8.54-0.75c0.91-0.08,1.83-0.17,2.71-0.25" class="grey" /><path d="M30.13,73.49c1.21,0.06,2.42,0.08,3.28,0c6.58-0.57,22.99-2.02,32.43-2.79c1.42-0.12,2.28,0.2,2.99,0.41" class="grey" /><path d="M43.3,78.02c0.04,0.4,0.08,1.05-0.08,1.63c-0.98,3.43-6.59,10.97-14.27,15.58" class="grey" /><path d="M54.99,77.09c2.43,1.85,6.29,7.61,6.89,10.48" class="grey" /><path d="M93.04,14.13c0.04,0.34,0.18,1-0.09,1.37c-3.65,5.01-8.32,8.8-16.01,13.11" class="grey" /><path d="M74.15,27.74c0.95,1.77,0.96,3.46,0.93,5.39c-0.08,5.82-0.14,7.34-0.14,14.27c0,12.68-1.94,33.1-10.45,43.79" class="grey" /><path d="M75.68,44.04c0.28,0.17,1.36,0.19,2.12,0.1c5.7-0.64,15.02-1.82,19.69-2.36c0.75-0.09,2.04-0.17,2.51,0" class="grey" /><path d="M88.97,45.23c0.61,0.55,0.97,2.46,1.09,3.55c0.12,1.09,0,42.89-0.12,49.72" class="grey" /><path d="M8.75,34.56C9.1,35,9.47,35.38,9.62,35.94c1.23,4.42,2.7,17.62,3.54,25.56" class="stroke" stroke-dasharray="150"><animate attributeName="stroke-dashoffset" from="150" to="0" dur="1.8s" begin="0s" fill="freeze" /></path><path d="M10.96,36.68c8.94-1.94,13.27-3.11,17.41-3.69c1.52-0.21,2.43,1.26,2.21,2.51c-0.9,5.17-2.45,12.15-3.78,19.3" class="stroke" stroke-dasharray="150"><set attributeName="opacity" to="0" dur="1.0s" /><animate attributeName="stroke-dashoffset" from="150" to="0" dur="1.8s" begin="1.0s" fill="freeze" /></path><path d="M12.82,57.86c4.87-0.66,9.75-1.42,16.43-2.43" class="stroke" stroke-dasharray="150"><set attributeName="opacity" to="0" dur="2.1s" /><animate attributeName="stroke-dashoffset" from="150" to="0" dur="1.8s" begin="2.1s" fill="freeze" /></path><path d="M34.04,31.23c1.14,0.16,3.07,0.44,3.62,0.36c4.96-0.69,21.35-2.25,27.45-2.84c0.9-0.09,2.25,0.17,2.7,0.34" class="stroke" stroke-dasharray="150"><set attributeName="opacity" to="0" dur="3.0s" /><animate attributeName="stroke-dashoffset" from="150" to="0" dur="1.8s" begin="3.0s" fill="freeze" /></path><path d="M40.12,16.59c0.82,0.49,1.31,2.21,1.47,3.19c0.16,0.98,0,46.42-0.17,52.55" class="stroke" stroke-dasharray="150"><set attributeName="opacity" to="0" dur="4.0s" /><animate attributeName="stroke-dashoffset" from="150" to="0" dur="1.8s" begin="4.0s" fill="freeze" /></path><path d="M58.25,13.5c0.78,0.49,1.25,2.22,1.4,3.21c0.15,0.99,0,47.54-0.16,53.7" class="stroke" stroke-dasharray="150"><set attributeName="opacity" to="0" dur="5.4s" /><animate attributeName="stroke-dashoffset" from="150" to="0" dur="1.8s" begin="5.4s" fill="freeze" /></path><path d="M41.79,44.55c2.91-0.31,5.84-0.56,8.75-0.84c0.95-0.09,1.9-0.18,2.8-0.27" class="stroke" stroke-dasharray="150"><set attributeName="opacity" to="0" dur="6.800000000000001s" /><animate attributeName="stroke-dashoffset" from="150" to="0" dur="1.8s" begin="6.800000000000001s" fill="freeze" /></path><path d="M41.64,57.2c2.84-0.27,5.69-0.49,8.54-0.75c0.91-0.08,1.83-0.17,2.71-0.25" class="stroke" stroke-dasharray="150"><set attributeName="opacity" to="0" dur="7.700000000000001s" /><animate attributeName="stroke-dashoffset" from="150" to="0" dur="1.8s" begin="7.700000000000001s" fill="freeze" /></path><path d="M30.13,73.49c1.21,0.06,2.42,0.08,3.28,0c6.58-0.57,22.99-2.02,32.43-2.79c1.42-0.12,2.28,0.2,2.99,0.41" class="stroke" stroke-dasharray="150"><set attributeName="opacity" to="0" dur="8.600000000000001s" /><animate attributeName="stroke-dashoffset" from="150" to="0" dur="1.8s" begin="8.600000000000001s" fill="freeze" /></path><path d="M43.3,78.02c0.04,0.4,0.08,1.05-0.08,1.63c-0.98,3.43-6.59,10.97-14.27,15.58" class="stroke" stroke-dasharray="150"><set attributeName="opacity" to="0" dur="9.600000000000001s" /><animate attributeName="stroke-dashoffset" from="150" to="0" dur="1.8s" begin="9.600000000000001s" fill="freeze" /></path><path d="M54.99,77.09c2.43,1.85,6.29,7.61,6.89,10.48" class="stroke" stroke-dasharray="150"><set attributeName="opacity" to="0" dur="10.600000000000001s" /><animate attributeName="stroke-dashoffset" from="150" to="0" dur="1.8s" begin="10.600000000000001s" fill="freeze" /></path><path d="M93.04,14.13c0.04,0.34,0.18,1-0.09,1.37c-3.65,5.01-8.32,8.8-16.01,13.11" class="stroke" stroke-dasharray="150"><set attributeName="opacity" to="0" dur="11.500000000000002s" /><animate attributeName="stroke-dashoffset" from="150" to="0" dur="1.8s" begin="11.500000000000002s" fill="freeze" /></path><path d="M74.15,27.74c0.95,1.77,0.96,3.46,0.93,5.39c-0.08,5.82-0.14,7.34-0.14,14.27c0,12.68-1.94,33.1-10.45,43.79" class="stroke" stroke-dasharray="150"><set attributeName="opacity" to="0" dur="12.500000000000002s" /><animate attributeName="stroke-dashoffset" from="150" to="0" dur="1.8s" begin="12.500000000000002s" fill="freeze" /></path><path d="M75.68,44.04c0.28,0.17,1.36,0.19,2.12,0.1c5.7-0.64,15.02-1.82,19.69-2.36c0.75-0.09,2.04-0.17,2.51,0" class="stroke" stroke-dasharray="150"><set attributeName="opacity" to="0" dur="14.000000000000002s" /><animate attributeName="stroke-dashoffset" from="150" to="0" dur="1.8s" begin="14.000000000000002s" fill="freeze" /></path><path d="M88.97,45.23c0.61,0.55,0.97,2.46,1.09,3.55c0.12,1.09,0,42.89-0.12,49.72" class="stroke" stroke-dasharray="150"><set attributeName="opacity" to="0" dur="15.000000000000002s" /><animate attributeName="stroke-dashoffset" from="150" to="0" dur="1.8s" begin="15.000000000000002s" fill="freeze" /></path><text x="90" y="120" id="reset">⟳</text><text x="70" y="120" id="pause">◼</text><script type="text/javascript"><![CDATA[function RecurringTimer(e,t){var n,r,i=t;this.pause=function(){window.clearTimeout(n);i-=new Date-r};var s=function(){r=new Date;n=window.setTimeout(function(){i=t;s();e()},i)};this.clear=function(){window.clearTimeout(n);i=t;n=window.setTimeout(function(){i=t;s();e()},i)};this.resume=s;this.resume()}function invoketimer(){timer=new RecurringTimer(function(){svg.setCurrentTime(0)},17300)}var svg=document.getElementById("kanjivg");var pause=document.getElementById("pause");var reset=document.getElementById("reset");var timer;invoketimer();reset.onclick=function(){svg.setCurrentTime(0);timer.clear();svg.unpauseAnimations();pause.innerHTML = "◼";};pause.onclick=function(){if(svg.animationsPaused()){svg.unpauseAnimations();timer.resume();pause.innerHTML="◼"}else{svg.pauseAnimations();timer.pause();pause.innerHTML="▶"}}]]></script></svg>