<svg id="kanjivg" width="106" height="126" xmlns="http://www.w3.org/2000/svg" xmlns:xlink="http://www.w3.org/1999/xlink" xml:space="preserve" version="1.1" baseProfile="full"><defs><style type="text/css"><![CDATA[path.black { fill:none;stroke:black;stroke-width:5;stroke-linecap:round;stroke-linejoin:round; }path.grey { fill:none;stroke:#ddd;stroke-width:5;stroke-linecap:round;stroke-linejoin:round; }path.stroke { fill:none;stroke:black;stroke-width:5;stroke-linecap:round;stroke-linejoin:round; }rect { fill:none;stroke:#555;stroke-width:2;} text{font-size:16px;font-family:Segoe UI Symbol,Cambria Math,DejaVu Sans,Symbola,Quivira,STIX,Code2000;-webkit-touch-callout:none;cursor:pointer;-webkit-user-select:none;-khtml-user-select:none;-moz-user-select:none;-ms-user-select:none;user-select: none;} #reset { font-weight:bold; }]]></style><marker id="markerStart" markerWidth="8" markerHeight="8" style="overflow:visible;"><circle cx="0" cy="0" r="1.5" style="stroke:none;fill:red;fill-opacity:0.5;"/></marker><marker id="markerEnd" style="overflow:visible;"><circle cx="0" cy="0" r="0.8" style="stroke:none;fill:blue;fill-opacity:0.5;"><animate attributeName="opacity" from="1" to="0" dur="3s" repeatCount="indefinite" /></circle></marker></defs><rect x="4" y="4" width="100" height="100" /><path d="M12.14,34.92c0.77,0.83,1.16,1.81,1.16,2.95c0.77,4.42,1.66,11.38,2.45,17.38c0.17,1.31,0.34,2.57,0.5,3.75" class="grey" /><path d="M14.06,36.33c6.32-1.39,10.59-2.19,15.57-3.08c3.19-0.57,4.6-0.05,4.07,3.36c-0.73,4.66-1.08,9.77-2.52,17.42" class="grey" /><path d="M16.97,56.89c4.08-0.54,8.32-1.31,13.53-1.89c0.92-0.1,1.88-0.21,2.92-0.34" class="grey" /><path d="M43.1,17.43c1.43,0.76,3.59,0.85,5.1,0.71c8.41-0.75,24.18-2.27,33.68-2.91c3.29-0.22,4.28,1.27,3.8,3.81c-0.3,1.58-0.67,3.21-1.89,7.4" class="grey" /><path d="M47.5,30.39c8-0.89,21.73-1.82,31.89-2.54c2.12-0.15,4.27-0.37,6.4-0.35" class="grey" /><path d="M45.39,18.7c0.83,0.83,1.46,2.05,1.45,3.06c-0.09,27.37-5.53,53.02-19.09,67.51" class="grey" /><path d="M78.69,32.5c0,0.88-0.5,1.7-1.29,2.28c-4.67,3.41-10.33,5.5-21.63,8.34" class="grey" /><path d="M52.16,47.86c0.62,0.62,0.84,1.39,1.1,2.36c0.72,2.68,0.9,3.66,1.62,7.77c0.19,1.1,0.4,1.58,0.62,2.96" class="grey" /><path d="M54.41,49.08c11.84-1.58,24.02-3.57,30.06-3.83c2.36-0.1,3.47,0.82,3.15,2.7c-0.66,3.89-1.13,5.55-1.87,7.68" class="grey" /><path d="M56.56,59.09c5.79-0.52,17.41-1.56,26.65-2.2c1.47-0.1,2.88-0.19,4.17-0.27" class="grey" /><path d="M48.24,68.39c0.81,0.81,1.1,1.96,1.16,2.82c0.24,3.51,0.38,12.99,0.44,19.04c0.03,2.76,0.04,4.81,0.04,5.25" class="grey" /><path d="M49.97,69.63c7.28-0.83,30.19-2.84,39.04-3.79c4.47-0.47,6.13-0.07,5.75,4.78c-0.62,8.13-1.09,13.54-3.13,19.82C89.5,97,86.5,92.5,85.38,90.83" class="grey" /><path d="M68.52,41.48c0.88,0.88,1.21,2.15,1.21,3.62c0,4.04-0.04,29.77-0.04,34.18" class="grey" /><path d="M58.38,81.34c0.62,1.03,1.5,1.28,2.96,0.95c4.85-1.11,17.9-4.35,19.36-4.78" class="grey" /><path d="M79.12,72.62c1.91,1.95,4.94,8.04,5.42,11.07" class="grey" /><path d="M12.14,34.92c0.77,0.83,1.16,1.81,1.16,2.95c0.77,4.42,1.66,11.38,2.45,17.38c0.17,1.31,0.34,2.57,0.5,3.75" class="stroke" stroke-dasharray="150"><animate attributeName="stroke-dashoffset" from="150" to="0" dur="1.8s" begin="0s" fill="freeze" /></path><path d="M14.06,36.33c6.32-1.39,10.59-2.19,15.57-3.08c3.19-0.57,4.6-0.05,4.07,3.36c-0.73,4.66-1.08,9.77-2.52,17.42" class="stroke" stroke-dasharray="150"><set attributeName="opacity" to="0" dur="1.0s" /><animate attributeName="stroke-dashoffset" from="150" to="0" dur="1.8s" begin="1.0s" fill="freeze" /></path><path d="M16.97,56.89c4.08-0.54,8.32-1.31,13.53-1.89c0.92-0.1,1.88-0.21,2.92-0.34" class="stroke" stroke-dasharray="150"><set attributeName="opacity" to="0" dur="2.1s" /><animate attributeName="stroke-dashoffset" from="150" to="0" dur="1.8s" begin="2.1s" fill="freeze" /></path><path d="M43.1,17.43c1.43,0.76,3.59,0.85,5.1,0.71c8.41-0.75,24.18-2.27,33.68-2.91c3.29-0.22,4.28,1.27,3.8,3.81c-0.3,1.58-0.67,3.21-1.89,7.4" class="stroke" stroke-dasharray="150"><set attributeName="opacity" to="0" dur="3.0s" /><animate attributeName="stroke-dashoffset" from="150" to="0" dur="1.8s" begin="3.0s" fill="freeze" /></path><path d="M47.5,30.39c8-0.89,21.73-1.82,31.89-2.54c2.12-0.15,4.27-0.37,6.4-0.35" class="stroke" stroke-dasharray="150"><set attributeName="opacity" to="0" dur="4.3s" /><animate attributeName="stroke-dashoffset" from="150" to="0" dur="1.8s" begin="4.3s" fill="freeze" /></path><path d="M45.39,18.7c0.83,0.83,1.46,2.05,1.45,3.06c-0.09,27.37-5.53,53.02-19.09,67.51" class="stroke" stroke-dasharray="150"><set attributeName="opacity" to="0" dur="5.3s" /><animate attributeName="stroke-dashoffset" from="150" to="0" dur="1.8s" begin="5.3s" fill="freeze" /></path><path d="M78.69,32.5c0,0.88-0.5,1.7-1.29,2.28c-4.67,3.41-10.33,5.5-21.63,8.34" class="stroke" stroke-dasharray="150"><set attributeName="opacity" to="0" dur="7.0s" /><animate attributeName="stroke-dashoffset" from="150" to="0" dur="1.8s" begin="7.0s" fill="freeze" /></path><path d="M52.16,47.86c0.62,0.62,0.84,1.39,1.1,2.36c0.72,2.68,0.9,3.66,1.62,7.77c0.19,1.1,0.4,1.58,0.62,2.96" class="stroke" stroke-dasharray="150"><set attributeName="opacity" to="0" dur="8.0s" /><animate attributeName="stroke-dashoffset" from="150" to="0" dur="1.8s" begin="8.0s" fill="freeze" /></path><path d="M54.41,49.08c11.84-1.58,24.02-3.57,30.06-3.83c2.36-0.1,3.47,0.82,3.15,2.7c-0.66,3.89-1.13,5.55-1.87,7.68" class="stroke" stroke-dasharray="150"><set attributeName="opacity" to="0" dur="8.9s" /><animate attributeName="stroke-dashoffset" from="150" to="0" dur="1.8s" begin="8.9s" fill="freeze" /></path><path d="M56.56,59.09c5.79-0.52,17.41-1.56,26.65-2.2c1.47-0.1,2.88-0.19,4.17-0.27" class="stroke" stroke-dasharray="150"><set attributeName="opacity" to="0" dur="10.0s" /><animate attributeName="stroke-dashoffset" from="150" to="0" dur="1.8s" begin="10.0s" fill="freeze" /></path><path d="M48.24,68.39c0.81,0.81,1.1,1.96,1.16,2.82c0.24,3.51,0.38,12.99,0.44,19.04c0.03,2.76,0.04,4.81,0.04,5.25" class="stroke" stroke-dasharray="150"><set attributeName="opacity" to="0" dur="11.0s" /><animate attributeName="stroke-dashoffset" from="150" to="0" dur="1.8s" begin="11.0s" fill="freeze" /></path><path d="M49.97,69.63c7.28-0.83,30.19-2.84,39.04-3.79c4.47-0.47,6.13-0.07,5.75,4.78c-0.62,8.13-1.09,13.54-3.13,19.82C89.5,97,86.5,92.5,85.38,90.83" class="stroke" stroke-dasharray="150"><set attributeName="opacity" to="0" dur="12.0s" /><animate attributeName="stroke-dashoffset" from="150" to="0" dur="1.8s" begin="12.0s" fill="freeze" /></path><path d="M68.52,41.48c0.88,0.88,1.21,2.15,1.21,3.62c0,4.04-0.04,29.77-0.04,34.18" class="stroke" stroke-dasharray="150"><set attributeName="opacity" to="0" dur="13.7s" /><animate attributeName="stroke-dashoffset" from="150" to="0" dur="1.8s" begin="13.7s" fill="freeze" /></path><path d="M58.38,81.34c0.62,1.03,1.5,1.28,2.96,0.95c4.85-1.11,17.9-4.35,19.36-4.78" class="stroke" stroke-dasharray="150"><set attributeName="opacity" to="0" dur="14.7s" /><animate attributeName="stroke-dashoffset" from="150" to="0" dur="1.8s" begin="14.7s" fill="freeze" /></path><path d="M79.12,72.62c1.91,1.95,4.94,8.04,5.42,11.07" class="stroke" stroke-dasharray="150"><set attributeName="opacity" to="0" dur="15.7s" /><animate attributeName="stroke-dashoffset" from="150" to="0" dur="1.8s" begin="15.7s" fill="freeze" /></path><text x="90" y="120" id="reset">⟳</text><text x="70" y="120" id="pause">◼</text><script type="text/javascript"><![CDATA[function RecurringTimer(e,t){var n,r,i=t;this.pause=function(){window.clearTimeout(n);i-=new Date-r};var s=function(){r=new Date;n=window.setTimeout(function(){i=t;s();e()},i)};this.clear=function(){window.clearTimeout(n);i=t;n=window.setTimeout(function(){i=t;s();e()},i)};this.resume=s;this.resume()}function invoketimer(){timer=new RecurringTimer(function(){svg.setCurrentTime(0)},17599)}var svg=document.getElementById("kanjivg");var pause=document.getElementById("pause");var reset=document.getElementById("reset");var timer;invoketimer();reset.onclick=function(){svg.setCurrentTime(0);timer.clear();svg.unpauseAnimations();pause.innerHTML = "◼";};pause.onclick=function(){if(svg.animationsPaused()){svg.unpauseAnimations();timer.resume();pause.innerHTML="◼"}else{svg.pauseAnimations();timer.pause();pause.innerHTML="▶"}}]]></script></svg>