<svg id="kanjivg" width="106" height="126" xmlns="http://www.w3.org/2000/svg" xmlns:xlink="http://www.w3.org/1999/xlink" xml:space="preserve" version="1.1" baseProfile="full"><defs><style type="text/css"><![CDATA[path.black { fill:none;stroke:black;stroke-width:5;stroke-linecap:round;stroke-linejoin:round; }path.grey { fill:none;stroke:#ddd;stroke-width:5;stroke-linecap:round;stroke-linejoin:round; }path.stroke { fill:none;stroke:black;stroke-width:5;stroke-linecap:round;stroke-linejoin:round; }rect { fill:none;stroke:#555;stroke-width:2;} text{font-size:16px;font-family:Segoe UI Symbol,Cambria Math,DejaVu Sans,Symbola,Quivira,STIX,Code2000;-webkit-touch-callout:none;cursor:pointer;-webkit-user-select:none;-khtml-user-select:none;-moz-user-select:none;-ms-user-select:none;user-select: none;} #reset { font-weight:bold; }]]></style><marker id="markerStart" markerWidth="8" markerHeight="8" style="overflow:visible;"><circle cx="0" cy="0" r="1.5" style="stroke:none;fill:red;fill-opacity:0.5;"/></marker><marker id="markerEnd" style="overflow:visible;"><circle cx="0" cy="0" r="0.8" style="stroke:none;fill:blue;fill-opacity:0.5;"><animate attributeName="opacity" from="1" to="0" dur="3s" repeatCount="indefinite" /></circle></marker></defs><rect x="4" y="4" width="100" height="100" /><path d="M9.75,34.06c0.35,0.45,0.72,0.82,0.87,1.38c1.23,4.42,3.7,18.12,4.54,26.06" class="grey" /><path d="M11.96,36.18c8.94-1.94,15.27-3.11,19.41-3.69c1.52-0.21,2.43,1.26,2.21,2.51c-0.9,5.17-2.45,12.65-3.78,19.8" class="grey" /><path d="M14.82,57.86c4.87-0.66,10.75-1.42,17.43-2.43" class="grey" /><path d="M54.51,12.5c0.04,0.56,0.15,1.62-0.08,2.25c-2.72,7.91-6.75,15.16-13.84,21.54" class="grey" /><path d="M52.83,25c0.72-0.03,2.13-0.1,3.17-0.21c8.01-0.86,23.7-3.89,29.02-4.4c1.4-0.13,2.24,0.17,2.94,0.35" class="grey" /><path d="M37.25,48.7c1.24,0.54,3.52,0.7,4.77,0.54C52,48,80.69,45.25,94.15,44.51c2.07-0.11,3.32,0.26,4.35,0.53" class="grey" /><path d="M47.09,37.25c0.89,0.5,1.43,2.25,1.6,3.25c0.18,1,0.31,15.75,0.48,27.5" class="grey" /><path d="M58.37,30.75c0.89,0.5,1.62,2.23,1.6,3.25c-0.07,5.5,0.14,19.5,0.14,33.75" class="grey" /><path d="M71.65,29.75c0.89,0.5,1.67,2.23,1.6,3.25c-0.47,8-0.88,17.5-1.5,33.25" class="grey" /><path d="M85.34,30.25c0.89,0.5,1.87,2.28,1.6,4.25c-1.09,8-1.5,15.25-3.54,30.75" class="grey" /><path d="M37.16,68.7c1.32,0.54,3.74,0.67,5.05,0.54c7.53-0.74,37.49-2.99,51.76-3.73c2.19-0.11,3.52,0.26,4.61,0.53" class="grey" /><path d="M40.94,80.5c0,5.25-4.71,13-5.94,14.5" class="grey" /><path d="M53.75,79.08c2.49,2.57,4.85,9.64,5.47,13.63" class="grey" /><path d="M71.51,78.83c2.4,2.27,6.19,9.35,6.79,12.88" class="grey" /><path d="M87.89,77.08c3.73,2.89,9.63,11.89,10.56,16.38" class="grey" /><path d="M9.75,34.06c0.35,0.45,0.72,0.82,0.87,1.38c1.23,4.42,3.7,18.12,4.54,26.06" class="stroke" stroke-dasharray="150"><animate attributeName="stroke-dashoffset" from="150" to="0" dur="1.8s" begin="0s" fill="freeze" /></path><path d="M11.96,36.18c8.94-1.94,15.27-3.11,19.41-3.69c1.52-0.21,2.43,1.26,2.21,2.51c-0.9,5.17-2.45,12.65-3.78,19.8" class="stroke" stroke-dasharray="150"><set attributeName="opacity" to="0" dur="1.0s" /><animate attributeName="stroke-dashoffset" from="150" to="0" dur="1.8s" begin="1.0s" fill="freeze" /></path><path d="M14.82,57.86c4.87-0.66,10.75-1.42,17.43-2.43" class="stroke" stroke-dasharray="150"><set attributeName="opacity" to="0" dur="2.1s" /><animate attributeName="stroke-dashoffset" from="150" to="0" dur="1.8s" begin="2.1s" fill="freeze" /></path><path d="M54.51,12.5c0.04,0.56,0.15,1.62-0.08,2.25c-2.72,7.91-6.75,15.16-13.84,21.54" class="stroke" stroke-dasharray="150"><set attributeName="opacity" to="0" dur="3.0s" /><animate attributeName="stroke-dashoffset" from="150" to="0" dur="1.8s" begin="3.0s" fill="freeze" /></path><path d="M52.83,25c0.72-0.03,2.13-0.1,3.17-0.21c8.01-0.86,23.7-3.89,29.02-4.4c1.4-0.13,2.24,0.17,2.94,0.35" class="stroke" stroke-dasharray="150"><set attributeName="opacity" to="0" dur="4.0s" /><animate attributeName="stroke-dashoffset" from="150" to="0" dur="1.8s" begin="4.0s" fill="freeze" /></path><path d="M37.25,48.7c1.24,0.54,3.52,0.7,4.77,0.54C52,48,80.69,45.25,94.15,44.51c2.07-0.11,3.32,0.26,4.35,0.53" class="stroke" stroke-dasharray="150"><set attributeName="opacity" to="0" dur="5.0s" /><animate attributeName="stroke-dashoffset" from="150" to="0" dur="1.8s" begin="5.0s" fill="freeze" /></path><path d="M47.09,37.25c0.89,0.5,1.43,2.25,1.6,3.25c0.18,1,0.31,15.75,0.48,27.5" class="stroke" stroke-dasharray="150"><set attributeName="opacity" to="0" dur="6.5s" /><animate attributeName="stroke-dashoffset" from="150" to="0" dur="1.8s" begin="6.5s" fill="freeze" /></path><path d="M58.37,30.75c0.89,0.5,1.62,2.23,1.6,3.25c-0.07,5.5,0.14,19.5,0.14,33.75" class="stroke" stroke-dasharray="150"><set attributeName="opacity" to="0" dur="7.5s" /><animate attributeName="stroke-dashoffset" from="150" to="0" dur="1.8s" begin="7.5s" fill="freeze" /></path><path d="M71.65,29.75c0.89,0.5,1.67,2.23,1.6,3.25c-0.47,8-0.88,17.5-1.5,33.25" class="stroke" stroke-dasharray="150"><set attributeName="opacity" to="0" dur="8.5s" /><animate attributeName="stroke-dashoffset" from="150" to="0" dur="1.8s" begin="8.5s" fill="freeze" /></path><path d="M85.34,30.25c0.89,0.5,1.87,2.28,1.6,4.25c-1.09,8-1.5,15.25-3.54,30.75" class="stroke" stroke-dasharray="150"><set attributeName="opacity" to="0" dur="9.5s" /><animate attributeName="stroke-dashoffset" from="150" to="0" dur="1.8s" begin="9.5s" fill="freeze" /></path><path d="M37.16,68.7c1.32,0.54,3.74,0.67,5.05,0.54c7.53-0.74,37.49-2.99,51.76-3.73c2.19-0.11,3.52,0.26,4.61,0.53" class="stroke" stroke-dasharray="150"><set attributeName="opacity" to="0" dur="10.5s" /><animate attributeName="stroke-dashoffset" from="150" to="0" dur="1.8s" begin="10.5s" fill="freeze" /></path><path d="M40.94,80.5c0,5.25-4.71,13-5.94,14.5" class="stroke" stroke-dasharray="150"><set attributeName="opacity" to="0" dur="12.0s" /><animate attributeName="stroke-dashoffset" from="150" to="0" dur="1.8s" begin="12.0s" fill="freeze" /></path><path d="M53.75,79.08c2.49,2.57,4.85,9.64,5.47,13.63" class="stroke" stroke-dasharray="150"><set attributeName="opacity" to="0" dur="12.9s" /><animate attributeName="stroke-dashoffset" from="150" to="0" dur="1.8s" begin="12.9s" fill="freeze" /></path><path d="M71.51,78.83c2.4,2.27,6.19,9.35,6.79,12.88" class="stroke" stroke-dasharray="150"><set attributeName="opacity" to="0" dur="13.8s" /><animate attributeName="stroke-dashoffset" from="150" to="0" dur="1.8s" begin="13.8s" fill="freeze" /></path><path d="M87.89,77.08c3.73,2.89,9.63,11.89,10.56,16.38" class="stroke" stroke-dasharray="150"><set attributeName="opacity" to="0" dur="14.700000000000001s" /><animate attributeName="stroke-dashoffset" from="150" to="0" dur="1.8s" begin="14.700000000000001s" fill="freeze" /></path><text x="90" y="120" id="reset">⟳</text><text x="70" y="120" id="pause">◼</text><script type="text/javascript"><![CDATA[function RecurringTimer(e,t){var n,r,i=t;this.pause=function(){window.clearTimeout(n);i-=new Date-r};var s=function(){r=new Date;n=window.setTimeout(function(){i=t;s();e()},i)};this.clear=function(){window.clearTimeout(n);i=t;n=window.setTimeout(function(){i=t;s();e()},i)};this.resume=s;this.resume()}function invoketimer(){timer=new RecurringTimer(function(){svg.setCurrentTime(0)},16600)}var svg=document.getElementById("kanjivg");var pause=document.getElementById("pause");var reset=document.getElementById("reset");var timer;invoketimer();reset.onclick=function(){svg.setCurrentTime(0);timer.clear();svg.unpauseAnimations();pause.innerHTML = "◼";};pause.onclick=function(){if(svg.animationsPaused()){svg.unpauseAnimations();timer.resume();pause.innerHTML="◼"}else{svg.pauseAnimations();timer.pause();pause.innerHTML="▶"}}]]></script></svg>