<svg id="kanjivg" width="106" height="126" xmlns="http://www.w3.org/2000/svg" xmlns:xlink="http://www.w3.org/1999/xlink" xml:space="preserve" version="1.1" baseProfile="full"><defs><style type="text/css"><![CDATA[path.black { fill:none;stroke:black;stroke-width:5;stroke-linecap:round;stroke-linejoin:round; }path.grey { fill:none;stroke:#ddd;stroke-width:5;stroke-linecap:round;stroke-linejoin:round; }path.stroke { fill:none;stroke:black;stroke-width:5;stroke-linecap:round;stroke-linejoin:round; }rect { fill:none;stroke:#555;stroke-width:2;} text{font-size:16px;font-family:Segoe UI Symbol,Cambria Math,DejaVu Sans,Symbola,Quivira,STIX,Code2000;-webkit-touch-callout:none;cursor:pointer;-webkit-user-select:none;-khtml-user-select:none;-moz-user-select:none;-ms-user-select:none;user-select: none;} #reset { font-weight:bold; }]]></style><marker id="markerStart" markerWidth="8" markerHeight="8" style="overflow:visible;"><circle cx="0" cy="0" r="1.5" style="stroke:none;fill:red;fill-opacity:0.5;"/></marker><marker id="markerEnd" style="overflow:visible;"><circle cx="0" cy="0" r="0.8" style="stroke:none;fill:blue;fill-opacity:0.5;"><animate attributeName="opacity" from="1" to="0" dur="3s" repeatCount="indefinite" /></circle></marker></defs><rect x="4" y="4" width="100" height="100" /><path d="M9.25,34.06c0.35,0.45,0.72,0.82,0.87,1.38c1.23,4.42,3.2,18.12,4.04,26.06" class="grey" /><path d="M11.46,36.18c8.94-1.94,13.77-3.11,17.91-3.69c1.52-0.21,2.43,1.26,2.21,2.51c-0.9,5.17-2.45,12.65-3.78,19.8" class="grey" /><path d="M13.82,57.86c4.87-0.66,9.75-1.42,16.43-2.43" class="grey" /><path d="M52.31,11.15c0.69,0.85,1.33,2.37,1.5,2.75c0.17,0.39-0.06,18.87-0.06,23.01" class="grey" /><path d="M54.23,23.7c3.7-0.29,6.02-1.2,9.05-1.66c0.89-0.13,1.13-0.1,1.7,0" class="grey" /><path d="M41.06,19.49c0.69,0.51,1.5,2.16,1.5,2.7c0,2.87,0.22,15.02,0.22,18.8" class="grey" /><path d="M36.6,43.37c0.32,0.62,1.8,0.69,2.66,0.46c4.65-1.23,18.25-7.92,25.51-11.42" class="grey" /><path d="M90.92,13.52c0.13,0.24,0.21,0.94-0.12,1.31c-2.17,2.39-9.63,8.99-16.65,11.44" class="grey" /><path d="M70.59,10.43c0.86,0.86,0.92,1.43,1.21,2.57c0.29,1.14,0.09,11.75,0.09,19.54c0,7.79,7.04,6.54,13.03,6.54c11.78,0,11.98-2.17,11.98-7.63" class="grey" /><path d="M57.5,40.96c0.07,0.48,0.14,1.23-0.13,1.91C55.82,46.9,46.9,55.73,34.68,61.14" class="grey" /><path d="M55.05,47.52c4.2-0.02,16.95-1.77,21.75-2.82c1.82-0.4,2.58,0.83,1.76,1.91c-2.64,3.53-5.73,6.7-8.52,10.08" class="grey" /><path d="M47.75,57.65c1.05,0.57,1.6,2.67,1.6,3.27c0,2.35,0.16,13.83-0.46,19.77c-0.6,5.79-5.39,16.56-13.1,20.21" class="grey" /><path d="M49.5,58.65C56,58,84.82,55.96,86.46,55.83c2.94-0.25,3.98,2.06,3.68,3.5c-0.17,0.77-0.05,22.92-0.05,32.84c0,8.45-4.09,5.08-7.02,1.75" class="grey" /><path d="M68.67,58.16c0.04,0.16,0.6,0.85,0.65,1.89c0.21,4.98-0.13,18.01-0.13,19.71" class="grey" /><path d="M49.5,69.64c3.68,0,34.02-2.26,40.42-2.26" class="grey" /><path d="M49.5,80.58c4.65,0,33.75-1.76,40.53-1.76" class="grey" /><path d="M9.25,34.06c0.35,0.45,0.72,0.82,0.87,1.38c1.23,4.42,3.2,18.12,4.04,26.06" class="stroke" stroke-dasharray="150"><animate attributeName="stroke-dashoffset" from="150" to="0" dur="1.8s" begin="0s" fill="freeze" /></path><path d="M11.46,36.18c8.94-1.94,13.77-3.11,17.91-3.69c1.52-0.21,2.43,1.26,2.21,2.51c-0.9,5.17-2.45,12.65-3.78,19.8" class="stroke" stroke-dasharray="150"><set attributeName="opacity" to="0" dur="1.0s" /><animate attributeName="stroke-dashoffset" from="150" to="0" dur="1.8s" begin="1.0s" fill="freeze" /></path><path d="M13.82,57.86c4.87-0.66,9.75-1.42,16.43-2.43" class="stroke" stroke-dasharray="150"><set attributeName="opacity" to="0" dur="2.1s" /><animate attributeName="stroke-dashoffset" from="150" to="0" dur="1.8s" begin="2.1s" fill="freeze" /></path><path d="M52.31,11.15c0.69,0.85,1.33,2.37,1.5,2.75c0.17,0.39-0.06,18.87-0.06,23.01" class="stroke" stroke-dasharray="150"><set attributeName="opacity" to="0" dur="3.0s" /><animate attributeName="stroke-dashoffset" from="150" to="0" dur="1.8s" begin="3.0s" fill="freeze" /></path><path d="M54.23,23.7c3.7-0.29,6.02-1.2,9.05-1.66c0.89-0.13,1.13-0.1,1.7,0" class="stroke" stroke-dasharray="150"><set attributeName="opacity" to="0" dur="4.0s" /><animate attributeName="stroke-dashoffset" from="150" to="0" dur="1.8s" begin="4.0s" fill="freeze" /></path><path d="M41.06,19.49c0.69,0.51,1.5,2.16,1.5,2.7c0,2.87,0.22,15.02,0.22,18.8" class="stroke" stroke-dasharray="150"><set attributeName="opacity" to="0" dur="4.9s" /><animate attributeName="stroke-dashoffset" from="150" to="0" dur="1.8s" begin="4.9s" fill="freeze" /></path><path d="M36.6,43.37c0.32,0.62,1.8,0.69,2.66,0.46c4.65-1.23,18.25-7.92,25.51-11.42" class="stroke" stroke-dasharray="150"><set attributeName="opacity" to="0" dur="5.9s" /><animate attributeName="stroke-dashoffset" from="150" to="0" dur="1.8s" begin="5.9s" fill="freeze" /></path><path d="M90.92,13.52c0.13,0.24,0.21,0.94-0.12,1.31c-2.17,2.39-9.63,8.99-16.65,11.44" class="stroke" stroke-dasharray="150"><set attributeName="opacity" to="0" dur="6.9s" /><animate attributeName="stroke-dashoffset" from="150" to="0" dur="1.8s" begin="6.9s" fill="freeze" /></path><path d="M70.59,10.43c0.86,0.86,0.92,1.43,1.21,2.57c0.29,1.14,0.09,11.75,0.09,19.54c0,7.79,7.04,6.54,13.03,6.54c11.78,0,11.98-2.17,11.98-7.63" class="stroke" stroke-dasharray="150"><set attributeName="opacity" to="0" dur="7.9s" /><animate attributeName="stroke-dashoffset" from="150" to="0" dur="1.8s" begin="7.9s" fill="freeze" /></path><path d="M57.5,40.96c0.07,0.48,0.14,1.23-0.13,1.91C55.82,46.9,46.9,55.73,34.68,61.14" class="stroke" stroke-dasharray="150"><set attributeName="opacity" to="0" dur="9.3s" /><animate attributeName="stroke-dashoffset" from="150" to="0" dur="1.8s" begin="9.3s" fill="freeze" /></path><path d="M55.05,47.52c4.2-0.02,16.95-1.77,21.75-2.82c1.82-0.4,2.58,0.83,1.76,1.91c-2.64,3.53-5.73,6.7-8.52,10.08" class="stroke" stroke-dasharray="150"><set attributeName="opacity" to="0" dur="10.3s" /><animate attributeName="stroke-dashoffset" from="150" to="0" dur="1.8s" begin="10.3s" fill="freeze" /></path><path d="M47.75,57.65c1.05,0.57,1.6,2.67,1.6,3.27c0,2.35,0.16,13.83-0.46,19.77c-0.6,5.79-5.39,16.56-13.1,20.21" class="stroke" stroke-dasharray="150"><set attributeName="opacity" to="0" dur="11.3s" /><animate attributeName="stroke-dashoffset" from="150" to="0" dur="1.8s" begin="11.3s" fill="freeze" /></path><path d="M49.5,58.65C56,58,84.82,55.96,86.46,55.83c2.94-0.25,3.98,2.06,3.68,3.5c-0.17,0.77-0.05,22.92-0.05,32.84c0,8.45-4.09,5.08-7.02,1.75" class="stroke" stroke-dasharray="150"><set attributeName="opacity" to="0" dur="12.5s" /><animate attributeName="stroke-dashoffset" from="150" to="0" dur="1.8s" begin="12.5s" fill="freeze" /></path><path d="M68.67,58.16c0.04,0.16,0.6,0.85,0.65,1.89c0.21,4.98-0.13,18.01-0.13,19.71" class="stroke" stroke-dasharray="150"><set attributeName="opacity" to="0" dur="14.2s" /><animate attributeName="stroke-dashoffset" from="150" to="0" dur="1.8s" begin="14.2s" fill="freeze" /></path><path d="M49.5,69.64c3.68,0,34.02-2.26,40.42-2.26" class="stroke" stroke-dasharray="150"><set attributeName="opacity" to="0" dur="15.2s" /><animate attributeName="stroke-dashoffset" from="150" to="0" dur="1.8s" begin="15.2s" fill="freeze" /></path><path d="M49.5,80.58c4.65,0,33.75-1.76,40.53-1.76" class="stroke" stroke-dasharray="150"><set attributeName="opacity" to="0" dur="16.3s" /><animate attributeName="stroke-dashoffset" from="150" to="0" dur="1.8s" begin="16.3s" fill="freeze" /></path><text x="90" y="120" id="reset">⟳</text><text x="70" y="120" id="pause">◼</text><script type="text/javascript"><![CDATA[function RecurringTimer(e,t){var n,r,i=t;this.pause=function(){window.clearTimeout(n);i-=new Date-r};var s=function(){r=new Date;n=window.setTimeout(function(){i=t;s();e()},i)};this.clear=function(){window.clearTimeout(n);i=t;n=window.setTimeout(function(){i=t;s();e()},i)};this.resume=s;this.resume()}function invoketimer(){timer=new RecurringTimer(function(){svg.setCurrentTime(0)},18400)}var svg=document.getElementById("kanjivg");var pause=document.getElementById("pause");var reset=document.getElementById("reset");var timer;invoketimer();reset.onclick=function(){svg.setCurrentTime(0);timer.clear();svg.unpauseAnimations();pause.innerHTML = "◼";};pause.onclick=function(){if(svg.animationsPaused()){svg.unpauseAnimations();timer.resume();pause.innerHTML="◼"}else{svg.pauseAnimations();timer.pause();pause.innerHTML="▶"}}]]></script></svg>