<svg id="kanjivg" width="106" height="126" xmlns="http://www.w3.org/2000/svg" xmlns:xlink="http://www.w3.org/1999/xlink" xml:space="preserve" version="1.1" baseProfile="full"><defs><style type="text/css"><![CDATA[path.black { fill:none;stroke:black;stroke-width:5;stroke-linecap:round;stroke-linejoin:round; }path.grey { fill:none;stroke:#ddd;stroke-width:5;stroke-linecap:round;stroke-linejoin:round; }path.stroke { fill:none;stroke:black;stroke-width:5;stroke-linecap:round;stroke-linejoin:round; }rect { fill:none;stroke:#555;stroke-width:2;} text{font-size:16px;font-family:Segoe UI Symbol,Cambria Math,DejaVu Sans,Symbola,Quivira,STIX,Code2000;-webkit-touch-callout:none;cursor:pointer;-webkit-user-select:none;-khtml-user-select:none;-moz-user-select:none;-ms-user-select:none;user-select: none;} #reset { font-weight:bold; }]]></style><marker id="markerStart" markerWidth="8" markerHeight="8" style="overflow:visible;"><circle cx="0" cy="0" r="1.5" style="stroke:none;fill:red;fill-opacity:0.5;"/></marker><marker id="markerEnd" style="overflow:visible;"><circle cx="0" cy="0" r="0.8" style="stroke:none;fill:blue;fill-opacity:0.5;"><animate attributeName="opacity" from="1" to="0" dur="3s" repeatCount="indefinite" /></circle></marker></defs><rect x="4" y="4" width="100" height="100" /><path d="M11.5,34.79c0.72,0.86,1.12,1.84,1.21,2.94c0.79,8.07,1.53,15.81,2.15,22.28c0.19,1.96,0.37,3.79,0.53,5.49" class="grey" /><path d="M13.83,36.72c8.67-1.85,11.66-2.25,15.33-3.03c2.09-0.45,3.97,0.18,3.67,2.67C32.1,42.31,31,50,29.86,59.11" class="grey" /><path d="M15.57,61.55c4.28-0.63,7.1-0.94,12.68-1.41c1.11-0.09,2.34-0.19,3.71-0.3" class="grey" /><path d="M48.23,12.37c2.51,1.82,6.49,6.75,7.11,9.59" class="grey" /><path d="M78.15,9.9c0.09,0.85-0.05,1.67-0.42,2.44c-2.1,3.17-2.9,4.55-8.1,9.92" class="grey" /><path d="M40.43,27.72c2.23,0.59,4.46,0.61,6.7,0.06c8.8-1.03,25.05-3.01,34.75-3.61c2.56-0.38,5.08-0.29,7.59,0.27" class="grey" /><path d="M46.59,37.51c0.82,0.82,0.91,2.11,0.91,3.23c0,1.39,0.02,10.93,0.02,18.14c0,2.5,0,4.71,0,6.21" class="grey" /><path d="M48.54,38.92c2.69-0.11,28.79-3.67,31.08-3.75c1.9-0.07,2.9,1.12,2.9,2.62c0,0.61-0.01,10.57-0.01,18.21c0,2.9,0,5.46,0,7.06" class="grey" /><path d="M57.72,27.52c0.69,0.69,0.83,1.7,0.84,2.54C58.64,38.29,57,44,52.8,47.73" class="grey" /><path d="M66.83,27.63c0.46,0.66,0.83,1.45,0.86,2.47c0.09,3.25,0.05,7.13,0,11.15c-0.04,3.49,1.3,3.92,5.71,3.92c2.8,0,5.58-0.43,5.89-0.83" class="grey" /><path d="M48.71,54.26c3.4,0,29.18-2.12,33.02-2.12" class="grey" /><path d="M48.76,62.64c6.92-0.28,24-1.49,32.62-1.73" class="grey" /><path d="M36.13,75.37c2.48,0.82,4.95,0.8,7.51,0.52c14.23-1.52,30.36-2.77,44.84-3.97c2.86-0.24,5.64-0.17,8.4,0.65" class="grey" /><path d="M74.13,65.24c0.69,0.69,0.99,2.14,0.99,3.6c0,8.32-0.03,21.95-0.03,25.85c0,9.48-5.43,1.41-6.73,0.2" class="grey" /><path d="M50.11,80.23c2.24,1.64,5.53,6.75,6.09,9.31" class="grey" /><path d="M11.5,34.79c0.72,0.86,1.12,1.84,1.21,2.94c0.79,8.07,1.53,15.81,2.15,22.28c0.19,1.96,0.37,3.79,0.53,5.49" class="stroke" stroke-dasharray="150"><animate attributeName="stroke-dashoffset" from="150" to="0" dur="1.8s" begin="0s" fill="freeze" /></path><path d="M13.83,36.72c8.67-1.85,11.66-2.25,15.33-3.03c2.09-0.45,3.97,0.18,3.67,2.67C32.1,42.31,31,50,29.86,59.11" class="stroke" stroke-dasharray="150"><set attributeName="opacity" to="0" dur="1.0s" /><animate attributeName="stroke-dashoffset" from="150" to="0" dur="1.8s" begin="1.0s" fill="freeze" /></path><path d="M15.57,61.55c4.28-0.63,7.1-0.94,12.68-1.41c1.11-0.09,2.34-0.19,3.71-0.3" class="stroke" stroke-dasharray="150"><set attributeName="opacity" to="0" dur="2.1s" /><animate attributeName="stroke-dashoffset" from="150" to="0" dur="1.8s" begin="2.1s" fill="freeze" /></path><path d="M48.23,12.37c2.51,1.82,6.49,6.75,7.11,9.59" class="stroke" stroke-dasharray="150"><set attributeName="opacity" to="0" dur="3.0s" /><animate attributeName="stroke-dashoffset" from="150" to="0" dur="1.8s" begin="3.0s" fill="freeze" /></path><path d="M78.15,9.9c0.09,0.85-0.05,1.67-0.42,2.44c-2.1,3.17-2.9,4.55-8.1,9.92" class="stroke" stroke-dasharray="150"><set attributeName="opacity" to="0" dur="3.9s" /><animate attributeName="stroke-dashoffset" from="150" to="0" dur="1.8s" begin="3.9s" fill="freeze" /></path><path d="M40.43,27.72c2.23,0.59,4.46,0.61,6.7,0.06c8.8-1.03,25.05-3.01,34.75-3.61c2.56-0.38,5.08-0.29,7.59,0.27" class="stroke" stroke-dasharray="150"><set attributeName="opacity" to="0" dur="4.8s" /><animate attributeName="stroke-dashoffset" from="150" to="0" dur="1.8s" begin="4.8s" fill="freeze" /></path><path d="M46.59,37.51c0.82,0.82,0.91,2.11,0.91,3.23c0,1.39,0.02,10.93,0.02,18.14c0,2.5,0,4.71,0,6.21" class="stroke" stroke-dasharray="150"><set attributeName="opacity" to="0" dur="6.0s" /><animate attributeName="stroke-dashoffset" from="150" to="0" dur="1.8s" begin="6.0s" fill="freeze" /></path><path d="M48.54,38.92c2.69-0.11,28.79-3.67,31.08-3.75c1.9-0.07,2.9,1.12,2.9,2.62c0,0.61-0.01,10.57-0.01,18.21c0,2.9,0,5.46,0,7.06" class="stroke" stroke-dasharray="150"><set attributeName="opacity" to="0" dur="7.0s" /><animate attributeName="stroke-dashoffset" from="150" to="0" dur="1.8s" begin="7.0s" fill="freeze" /></path><path d="M57.72,27.52c0.69,0.69,0.83,1.7,0.84,2.54C58.64,38.29,57,44,52.8,47.73" class="stroke" stroke-dasharray="150"><set attributeName="opacity" to="0" dur="8.5s" /><animate attributeName="stroke-dashoffset" from="150" to="0" dur="1.8s" begin="8.5s" fill="freeze" /></path><path d="M66.83,27.63c0.46,0.66,0.83,1.45,0.86,2.47c0.09,3.25,0.05,7.13,0,11.15c-0.04,3.49,1.3,3.92,5.71,3.92c2.8,0,5.58-0.43,5.89-0.83" class="stroke" stroke-dasharray="150"><set attributeName="opacity" to="0" dur="9.5s" /><animate attributeName="stroke-dashoffset" from="150" to="0" dur="1.8s" begin="9.5s" fill="freeze" /></path><path d="M48.71,54.26c3.4,0,29.18-2.12,33.02-2.12" class="stroke" stroke-dasharray="150"><set attributeName="opacity" to="0" dur="10.5s" /><animate attributeName="stroke-dashoffset" from="150" to="0" dur="1.8s" begin="10.5s" fill="freeze" /></path><path d="M48.76,62.64c6.92-0.28,24-1.49,32.62-1.73" class="stroke" stroke-dasharray="150"><set attributeName="opacity" to="0" dur="11.5s" /><animate attributeName="stroke-dashoffset" from="150" to="0" dur="1.8s" begin="11.5s" fill="freeze" /></path><path d="M36.13,75.37c2.48,0.82,4.95,0.8,7.51,0.52c14.23-1.52,30.36-2.77,44.84-3.97c2.86-0.24,5.64-0.17,8.4,0.65" class="stroke" stroke-dasharray="150"><set attributeName="opacity" to="0" dur="12.5s" /><animate attributeName="stroke-dashoffset" from="150" to="0" dur="1.8s" begin="12.5s" fill="freeze" /></path><path d="M74.13,65.24c0.69,0.69,0.99,2.14,0.99,3.6c0,8.32-0.03,21.95-0.03,25.85c0,9.48-5.43,1.41-6.73,0.2" class="stroke" stroke-dasharray="150"><set attributeName="opacity" to="0" dur="14.0s" /><animate attributeName="stroke-dashoffset" from="150" to="0" dur="1.8s" begin="14.0s" fill="freeze" /></path><path d="M50.11,80.23c2.24,1.64,5.53,6.75,6.09,9.31" class="stroke" stroke-dasharray="150"><set attributeName="opacity" to="0" dur="15.1s" /><animate attributeName="stroke-dashoffset" from="150" to="0" dur="1.8s" begin="15.1s" fill="freeze" /></path><text x="90" y="120" id="reset">⟳</text><text x="70" y="120" id="pause">◼</text><script type="text/javascript"><![CDATA[function RecurringTimer(e,t){var n,r,i=t;this.pause=function(){window.clearTimeout(n);i-=new Date-r};var s=function(){r=new Date;n=window.setTimeout(function(){i=t;s();e()},i)};this.clear=function(){window.clearTimeout(n);i=t;n=window.setTimeout(function(){i=t;s();e()},i)};this.resume=s;this.resume()}function invoketimer(){timer=new RecurringTimer(function(){svg.setCurrentTime(0)},17000)}var svg=document.getElementById("kanjivg");var pause=document.getElementById("pause");var reset=document.getElementById("reset");var timer;invoketimer();reset.onclick=function(){svg.setCurrentTime(0);timer.clear();svg.unpauseAnimations();pause.innerHTML = "◼";};pause.onclick=function(){if(svg.animationsPaused()){svg.unpauseAnimations();timer.resume();pause.innerHTML="◼"}else{svg.pauseAnimations();timer.pause();pause.innerHTML="▶"}}]]></script></svg>