<svg id="kanjivg" width="106" height="126" xmlns="http://www.w3.org/2000/svg" xmlns:xlink="http://www.w3.org/1999/xlink" xml:space="preserve" version="1.1" baseProfile="full"><defs><style type="text/css"><![CDATA[path.black { fill:none;stroke:black;stroke-width:5;stroke-linecap:round;stroke-linejoin:round; }path.grey { fill:none;stroke:#ddd;stroke-width:5;stroke-linecap:round;stroke-linejoin:round; }path.stroke { fill:none;stroke:black;stroke-width:5;stroke-linecap:round;stroke-linejoin:round; }rect { fill:none;stroke:#555;stroke-width:2;} text{font-size:16px;font-family:Segoe UI Symbol,Cambria Math,DejaVu Sans,Symbola,Quivira,STIX,Code2000;-webkit-touch-callout:none;cursor:pointer;-webkit-user-select:none;-khtml-user-select:none;-moz-user-select:none;-ms-user-select:none;user-select: none;} #reset { font-weight:bold; }]]></style><marker id="markerStart" markerWidth="8" markerHeight="8" style="overflow:visible;"><circle cx="0" cy="0" r="1.5" style="stroke:none;fill:red;fill-opacity:0.5;"/></marker><marker id="markerEnd" style="overflow:visible;"><circle cx="0" cy="0" r="0.8" style="stroke:none;fill:blue;fill-opacity:0.5;"><animate attributeName="opacity" from="1" to="0" dur="3s" repeatCount="indefinite" /></circle></marker></defs><rect x="4" y="4" width="100" height="100" /><path d="M11.75,34.79c0.37,0.51,0.76,0.94,0.92,1.58c1.29,5.07,1.84,20.04,2.73,29.13" class="grey" /><path d="M14.08,37.22c9.42-2.22,12.05-3.06,16.42-3.73c1.6-0.24,2.56,1.44,2.33,2.87c-0.95,5.92-1.55,14.57-2.96,22.75" class="grey" /><path d="M15.57,61.55c5.14-0.75,8.18-1.05,16.39-1.71" class="grey" /><path d="M48.23,11.62c2.51,1.82,6.49,7.5,7.11,10.34" class="grey" /><path d="M78.15,9.9c0.03,0.34,0.06,0.86-0.06,1.35c-0.7,2.84-4.7,9.07-10.17,12.88" class="grey" /><path d="M40.43,27.72c0.87,0.46,2.46,0.57,3.34,0.46c7.73-0.93,35.61-4.19,43.89-4.19c1.45,0,2.32,0.22,3.05,0.45" class="grey" /><path d="M46.84,37.51c0.48,0.68,0.66,2.32,0.66,3.23s0.03,24.34,0.03,24.6" class="grey" /><path d="M49.29,38.92c2.69-0.11,28.54-3.67,30.83-3.75c1.9-0.07,2.9,1.12,2.9,2.62c0,0.84-0.77,19.46-0.76,25.27" class="grey" /><path d="M58.47,26.77c0.26,0.78,0.58,1.45,0.59,2.29c0.08,8.23-0.41,15.05-6.26,18.68" class="grey" /><path d="M67.08,27.63c0.46,0.66,0.83,1.45,0.86,2.47c0.09,3.25-0.2,7.63-0.25,11.65c-0.04,3.49,1.3,3.92,5.71,3.92c2.8,0,5.58-0.43,5.89-0.83" class="grey" /><path d="M54.24,53.93c1.26-0.08,2.53-0.16,3.79-0.25c4.5-0.3,9-0.62,13.5-0.92c1.47-0.1,2.94-0.19,4.41-0.29" class="grey" /><path d="M48.51,62.89c6.92-0.28,25-1.74,33.62-1.98" class="grey" /><path d="M35.88,75.62c1.16,0.78,3.28,0.88,4.46,0.78c14.54-1.2,38.27-3.4,52.47-4.59c1.93-0.16,3.1,0.37,4.07,0.76" class="grey" /><path d="M74.38,64.99c0.05,0.38,0.74,1.96,0.74,4.35c0,8.32,0.22,20.95,0.22,24.85c0,9.48-5.43,1.41-6.73,0.2" class="grey" /><path d="M49.61,79.98c2.24,1.64,5.78,6.75,6.34,9.31" class="grey" /><path d="M11.75,34.79c0.37,0.51,0.76,0.94,0.92,1.58c1.29,5.07,1.84,20.04,2.73,29.13" class="stroke" stroke-dasharray="150"><animate attributeName="stroke-dashoffset" from="150" to="0" dur="1.8s" begin="0s" fill="freeze" /></path><path d="M14.08,37.22c9.42-2.22,12.05-3.06,16.42-3.73c1.6-0.24,2.56,1.44,2.33,2.87c-0.95,5.92-1.55,14.57-2.96,22.75" class="stroke" stroke-dasharray="150"><set attributeName="opacity" to="0" dur="1.0s" /><animate attributeName="stroke-dashoffset" from="150" to="0" dur="1.8s" begin="1.0s" fill="freeze" /></path><path d="M15.57,61.55c5.14-0.75,8.18-1.05,16.39-1.71" class="stroke" stroke-dasharray="150"><set attributeName="opacity" to="0" dur="2.1s" /><animate attributeName="stroke-dashoffset" from="150" to="0" dur="1.8s" begin="2.1s" fill="freeze" /></path><path d="M48.23,11.62c2.51,1.82,6.49,7.5,7.11,10.34" class="stroke" stroke-dasharray="150"><set attributeName="opacity" to="0" dur="3.0s" /><animate attributeName="stroke-dashoffset" from="150" to="0" dur="1.8s" begin="3.0s" fill="freeze" /></path><path d="M78.15,9.9c0.03,0.34,0.06,0.86-0.06,1.35c-0.7,2.84-4.7,9.07-10.17,12.88" class="stroke" stroke-dasharray="150"><set attributeName="opacity" to="0" dur="3.9s" /><animate attributeName="stroke-dashoffset" from="150" to="0" dur="1.8s" begin="3.9s" fill="freeze" /></path><path d="M40.43,27.72c0.87,0.46,2.46,0.57,3.34,0.46c7.73-0.93,35.61-4.19,43.89-4.19c1.45,0,2.32,0.22,3.05,0.45" class="stroke" stroke-dasharray="150"><set attributeName="opacity" to="0" dur="4.8s" /><animate attributeName="stroke-dashoffset" from="150" to="0" dur="1.8s" begin="4.8s" fill="freeze" /></path><path d="M46.84,37.51c0.48,0.68,0.66,2.32,0.66,3.23s0.03,24.34,0.03,24.6" class="stroke" stroke-dasharray="150"><set attributeName="opacity" to="0" dur="6.1s" /><animate attributeName="stroke-dashoffset" from="150" to="0" dur="1.8s" begin="6.1s" fill="freeze" /></path><path d="M49.29,38.92c2.69-0.11,28.54-3.67,30.83-3.75c1.9-0.07,2.9,1.12,2.9,2.62c0,0.84-0.77,19.46-0.76,25.27" class="stroke" stroke-dasharray="150"><set attributeName="opacity" to="0" dur="7.1s" /><animate attributeName="stroke-dashoffset" from="150" to="0" dur="1.8s" begin="7.1s" fill="freeze" /></path><path d="M58.47,26.77c0.26,0.78,0.58,1.45,0.59,2.29c0.08,8.23-0.41,15.05-6.26,18.68" class="stroke" stroke-dasharray="150"><set attributeName="opacity" to="0" dur="8.6s" /><animate attributeName="stroke-dashoffset" from="150" to="0" dur="1.8s" begin="8.6s" fill="freeze" /></path><path d="M67.08,27.63c0.46,0.66,0.83,1.45,0.86,2.47c0.09,3.25-0.2,7.63-0.25,11.65c-0.04,3.49,1.3,3.92,5.71,3.92c2.8,0,5.58-0.43,5.89-0.83" class="stroke" stroke-dasharray="150"><set attributeName="opacity" to="0" dur="9.6s" /><animate attributeName="stroke-dashoffset" from="150" to="0" dur="1.8s" begin="9.6s" fill="freeze" /></path><path d="M54.24,53.93c1.26-0.08,2.53-0.16,3.79-0.25c4.5-0.3,9-0.62,13.5-0.92c1.47-0.1,2.94-0.19,4.41-0.29" class="stroke" stroke-dasharray="150"><set attributeName="opacity" to="0" dur="10.6s" /><animate attributeName="stroke-dashoffset" from="150" to="0" dur="1.8s" begin="10.6s" fill="freeze" /></path><path d="M48.51,62.89c6.92-0.28,25-1.74,33.62-1.98" class="stroke" stroke-dasharray="150"><set attributeName="opacity" to="0" dur="11.6s" /><animate attributeName="stroke-dashoffset" from="150" to="0" dur="1.8s" begin="11.6s" fill="freeze" /></path><path d="M35.88,75.62c1.16,0.78,3.28,0.88,4.46,0.78c14.54-1.2,38.27-3.4,52.47-4.59c1.93-0.16,3.1,0.37,4.07,0.76" class="stroke" stroke-dasharray="150"><set attributeName="opacity" to="0" dur="12.6s" /><animate attributeName="stroke-dashoffset" from="150" to="0" dur="1.8s" begin="12.6s" fill="freeze" /></path><path d="M74.38,64.99c0.05,0.38,0.74,1.96,0.74,4.35c0,8.32,0.22,20.95,0.22,24.85c0,9.48-5.43,1.41-6.73,0.2" class="stroke" stroke-dasharray="150"><set attributeName="opacity" to="0" dur="14.1s" /><animate attributeName="stroke-dashoffset" from="150" to="0" dur="1.8s" begin="14.1s" fill="freeze" /></path><path d="M49.61,79.98c2.24,1.64,5.78,6.75,6.34,9.31" class="stroke" stroke-dasharray="150"><set attributeName="opacity" to="0" dur="15.2s" /><animate attributeName="stroke-dashoffset" from="150" to="0" dur="1.8s" begin="15.2s" fill="freeze" /></path><text x="90" y="120" id="reset">⟳</text><text x="70" y="120" id="pause">◼</text><script type="text/javascript"><![CDATA[function RecurringTimer(e,t){var n,r,i=t;this.pause=function(){window.clearTimeout(n);i-=new Date-r};var s=function(){r=new Date;n=window.setTimeout(function(){i=t;s();e()},i)};this.clear=function(){window.clearTimeout(n);i=t;n=window.setTimeout(function(){i=t;s();e()},i)};this.resume=s;this.resume()}function invoketimer(){timer=new RecurringTimer(function(){svg.setCurrentTime(0)},17100)}var svg=document.getElementById("kanjivg");var pause=document.getElementById("pause");var reset=document.getElementById("reset");var timer;invoketimer();reset.onclick=function(){svg.setCurrentTime(0);timer.clear();svg.unpauseAnimations();pause.innerHTML = "◼";};pause.onclick=function(){if(svg.animationsPaused()){svg.unpauseAnimations();timer.resume();pause.innerHTML="◼"}else{svg.pauseAnimations();timer.pause();pause.innerHTML="▶"}}]]></script></svg>