<svg id="kanjivg" width="106" height="126" xmlns="http://www.w3.org/2000/svg" xmlns:xlink="http://www.w3.org/1999/xlink" xml:space="preserve" version="1.1" baseProfile="full"><defs><style type="text/css"><![CDATA[path.black { fill:none;stroke:black;stroke-width:5;stroke-linecap:round;stroke-linejoin:round; }path.grey { fill:none;stroke:#ddd;stroke-width:5;stroke-linecap:round;stroke-linejoin:round; }path.stroke { fill:none;stroke:black;stroke-width:5;stroke-linecap:round;stroke-linejoin:round; }rect { fill:none;stroke:#555;stroke-width:2;} text{font-size:16px;font-family:Segoe UI Symbol,Cambria Math,DejaVu Sans,Symbola,Quivira,STIX,Code2000;-webkit-touch-callout:none;cursor:pointer;-webkit-user-select:none;-khtml-user-select:none;-moz-user-select:none;-ms-user-select:none;user-select: none;} #reset { font-weight:bold; }]]></style><marker id="markerStart" markerWidth="8" markerHeight="8" style="overflow:visible;"><circle cx="0" cy="0" r="1.5" style="stroke:none;fill:red;fill-opacity:0.5;"/></marker><marker id="markerEnd" style="overflow:visible;"><circle cx="0" cy="0" r="0.8" style="stroke:none;fill:blue;fill-opacity:0.5;"><animate attributeName="opacity" from="1" to="0" dur="3s" repeatCount="indefinite" /></circle></marker></defs><rect x="4" y="4" width="100" height="100" /><path d="M11.5,34.79c0.98,0.98,1.19,2.21,1.38,3.46c0.77,5.02,1.33,13.68,1.97,21.25c0.17,2.07,0.36,4.09,0.55,6" class="grey" /><path d="M13.58,36.72c6.8-1.22,10.8-2.1,15.34-2.96c3.19-0.6,4.46,0.44,3.98,3.75c-0.85,5.85-1.47,13.43-2.79,21.09" class="grey" /><path d="M15.82,61.3c4.22-0.62,7.02-0.93,12.44-1.39c1.18-0.1,2.48-0.2,3.95-0.32" class="grey" /><path d="M54.15,12.65c0.11,0.95-0.05,1.84-0.48,2.68c-1.61,3.66-6.62,10-13.24,14.04" class="grey" /><path d="M65.82,10c4.47,0.86,16.97,12.33,23.04,17.3c1.96,1.61,3.65,2.7,6.4,3.7" class="grey" /><path d="M49.51,27.14c1.85,0.75,4.09,0.3,5.99,0.11c6.18-0.62,13.05-1.43,17.63-1.77c1.79-0.13,3.53-0.21,5.3,0.22" class="grey" /><path d="M46.4,37.74c1.12,1.12,1.16,2.45,1.17,3.76c0,3.1,0.01,12.29,0.02,18.25c0,3.06,0.01,5.26,0.01,5.34" class="grey" /><path d="M48.13,39.14c3.46-0.46,23.99-3.03,30-3.63c3-0.3,4.41,0.52,4.41,3.61c0,3.06-0.01,11.64-0.02,18c0,2.31,0,4.33,0,5.68" class="grey" /><path d="M57.81,28.89c0.65,0.65,0.77,1.29,0.77,2.64c0,7.97-1.95,12.47-5.87,15.96" class="grey" /><path d="M66.59,27.04c0.81,0.81,1.02,1.96,1.02,3.29c0,3.35,0.03,6.89-0.01,11.02c-0.03,3.59,1.67,4.03,5.64,4.03c2.52,0,6.77-0.7,7.05-1.1" class="grey" /><path d="M48.78,54.54c9.35-0.67,28.77-2.21,32.66-2.21" class="grey" /><path d="M48.83,62.54c7-0.3,23.82-1.81,32.55-2.07" class="grey" /><path d="M36.63,75.46c3.37,0.92,6.69,0.49,9.74,0.13C58.79,74.14,73.6,73.21,86,72.37c3.47-0.24,6.99-0.69,10.38,0.37" class="grey" /><path d="M74.13,65.24c0.94,0.94,1.24,2.01,1.24,3.6c0,8.32-0.03,21.95-0.03,25.85c0,9.48-5.18,1.41-6.48,0.2" class="grey" /><path d="M49.61,79.48c2.33,1.77,6.01,7.3,6.59,10.06" class="grey" /><path d="M11.5,34.79c0.98,0.98,1.19,2.21,1.38,3.46c0.77,5.02,1.33,13.68,1.97,21.25c0.17,2.07,0.36,4.09,0.55,6" class="stroke" stroke-dasharray="150"><animate attributeName="stroke-dashoffset" from="150" to="0" dur="1.8s" begin="0s" fill="freeze" /></path><path d="M13.58,36.72c6.8-1.22,10.8-2.1,15.34-2.96c3.19-0.6,4.46,0.44,3.98,3.75c-0.85,5.85-1.47,13.43-2.79,21.09" class="stroke" stroke-dasharray="150"><set attributeName="opacity" to="0" dur="1.0s" /><animate attributeName="stroke-dashoffset" from="150" to="0" dur="1.8s" begin="1.0s" fill="freeze" /></path><path d="M15.82,61.3c4.22-0.62,7.02-0.93,12.44-1.39c1.18-0.1,2.48-0.2,3.95-0.32" class="stroke" stroke-dasharray="150"><set attributeName="opacity" to="0" dur="2.1s" /><animate attributeName="stroke-dashoffset" from="150" to="0" dur="1.8s" begin="2.1s" fill="freeze" /></path><path d="M54.15,12.65c0.11,0.95-0.05,1.84-0.48,2.68c-1.61,3.66-6.62,10-13.24,14.04" class="stroke" stroke-dasharray="150"><set attributeName="opacity" to="0" dur="3.0s" /><animate attributeName="stroke-dashoffset" from="150" to="0" dur="1.8s" begin="3.0s" fill="freeze" /></path><path d="M65.82,10c4.47,0.86,16.97,12.33,23.04,17.3c1.96,1.61,3.65,2.7,6.4,3.7" class="stroke" stroke-dasharray="150"><set attributeName="opacity" to="0" dur="4.0s" /><animate attributeName="stroke-dashoffset" from="150" to="0" dur="1.8s" begin="4.0s" fill="freeze" /></path><path d="M49.51,27.14c1.85,0.75,4.09,0.3,5.99,0.11c6.18-0.62,13.05-1.43,17.63-1.77c1.79-0.13,3.53-0.21,5.3,0.22" class="stroke" stroke-dasharray="150"><set attributeName="opacity" to="0" dur="5.0s" /><animate attributeName="stroke-dashoffset" from="150" to="0" dur="1.8s" begin="5.0s" fill="freeze" /></path><path d="M46.4,37.74c1.12,1.12,1.16,2.45,1.17,3.76c0,3.1,0.01,12.29,0.02,18.25c0,3.06,0.01,5.26,0.01,5.34" class="stroke" stroke-dasharray="150"><set attributeName="opacity" to="0" dur="6.0s" /><animate attributeName="stroke-dashoffset" from="150" to="0" dur="1.8s" begin="6.0s" fill="freeze" /></path><path d="M48.13,39.14c3.46-0.46,23.99-3.03,30-3.63c3-0.3,4.41,0.52,4.41,3.61c0,3.06-0.01,11.64-0.02,18c0,2.31,0,4.33,0,5.68" class="stroke" stroke-dasharray="150"><set attributeName="opacity" to="0" dur="7.0s" /><animate attributeName="stroke-dashoffset" from="150" to="0" dur="1.8s" begin="7.0s" fill="freeze" /></path><path d="M57.81,28.89c0.65,0.65,0.77,1.29,0.77,2.64c0,7.97-1.95,12.47-5.87,15.96" class="stroke" stroke-dasharray="150"><set attributeName="opacity" to="0" dur="8.5s" /><animate attributeName="stroke-dashoffset" from="150" to="0" dur="1.8s" begin="8.5s" fill="freeze" /></path><path d="M66.59,27.04c0.81,0.81,1.02,1.96,1.02,3.29c0,3.35,0.03,6.89-0.01,11.02c-0.03,3.59,1.67,4.03,5.64,4.03c2.52,0,6.77-0.7,7.05-1.1" class="stroke" stroke-dasharray="150"><set attributeName="opacity" to="0" dur="9.5s" /><animate attributeName="stroke-dashoffset" from="150" to="0" dur="1.8s" begin="9.5s" fill="freeze" /></path><path d="M48.78,54.54c9.35-0.67,28.77-2.21,32.66-2.21" class="stroke" stroke-dasharray="150"><set attributeName="opacity" to="0" dur="10.5s" /><animate attributeName="stroke-dashoffset" from="150" to="0" dur="1.8s" begin="10.5s" fill="freeze" /></path><path d="M48.83,62.54c7-0.3,23.82-1.81,32.55-2.07" class="stroke" stroke-dasharray="150"><set attributeName="opacity" to="0" dur="11.5s" /><animate attributeName="stroke-dashoffset" from="150" to="0" dur="1.8s" begin="11.5s" fill="freeze" /></path><path d="M36.63,75.46c3.37,0.92,6.69,0.49,9.74,0.13C58.79,74.14,73.6,73.21,86,72.37c3.47-0.24,6.99-0.69,10.38,0.37" class="stroke" stroke-dasharray="150"><set attributeName="opacity" to="0" dur="12.5s" /><animate attributeName="stroke-dashoffset" from="150" to="0" dur="1.8s" begin="12.5s" fill="freeze" /></path><path d="M74.13,65.24c0.94,0.94,1.24,2.01,1.24,3.6c0,8.32-0.03,21.95-0.03,25.85c0,9.48-5.18,1.41-6.48,0.2" class="stroke" stroke-dasharray="150"><set attributeName="opacity" to="0" dur="14.0s" /><animate attributeName="stroke-dashoffset" from="150" to="0" dur="1.8s" begin="14.0s" fill="freeze" /></path><path d="M49.61,79.48c2.33,1.77,6.01,7.3,6.59,10.06" class="stroke" stroke-dasharray="150"><set attributeName="opacity" to="0" dur="15.1s" /><animate attributeName="stroke-dashoffset" from="150" to="0" dur="1.8s" begin="15.1s" fill="freeze" /></path><text x="90" y="120" id="reset">⟳</text><text x="70" y="120" id="pause">◼</text><script type="text/javascript"><![CDATA[function RecurringTimer(e,t){var n,r,i=t;this.pause=function(){window.clearTimeout(n);i-=new Date-r};var s=function(){r=new Date;n=window.setTimeout(function(){i=t;s();e()},i)};this.clear=function(){window.clearTimeout(n);i=t;n=window.setTimeout(function(){i=t;s();e()},i)};this.resume=s;this.resume()}function invoketimer(){timer=new RecurringTimer(function(){svg.setCurrentTime(0)},17000)}var svg=document.getElementById("kanjivg");var pause=document.getElementById("pause");var reset=document.getElementById("reset");var timer;invoketimer();reset.onclick=function(){svg.setCurrentTime(0);timer.clear();svg.unpauseAnimations();pause.innerHTML = "◼";};pause.onclick=function(){if(svg.animationsPaused()){svg.unpauseAnimations();timer.resume();pause.innerHTML="◼"}else{svg.pauseAnimations();timer.pause();pause.innerHTML="▶"}}]]></script></svg>