<svg id="kanjivg" width="106" height="126" xmlns="http://www.w3.org/2000/svg" xmlns:xlink="http://www.w3.org/1999/xlink" xml:space="preserve" version="1.1" baseProfile="full"><defs><style type="text/css"><![CDATA[path.black { fill:none;stroke:black;stroke-width:5;stroke-linecap:round;stroke-linejoin:round; }path.grey { fill:none;stroke:#ddd;stroke-width:5;stroke-linecap:round;stroke-linejoin:round; }path.stroke { fill:none;stroke:black;stroke-width:5;stroke-linecap:round;stroke-linejoin:round; }rect { fill:none;stroke:#555;stroke-width:2;} text{font-size:16px;font-family:Segoe UI Symbol,Cambria Math,DejaVu Sans,Symbola,Quivira,STIX,Code2000;-webkit-touch-callout:none;cursor:pointer;-webkit-user-select:none;-khtml-user-select:none;-moz-user-select:none;-ms-user-select:none;user-select: none;} #reset { font-weight:bold; }]]></style><marker id="markerStart" markerWidth="8" markerHeight="8" style="overflow:visible;"><circle cx="0" cy="0" r="1.5" style="stroke:none;fill:red;fill-opacity:0.5;"/></marker><marker id="markerEnd" style="overflow:visible;"><circle cx="0" cy="0" r="0.8" style="stroke:none;fill:blue;fill-opacity:0.5;"><animate attributeName="opacity" from="1" to="0" dur="3s" repeatCount="indefinite" /></circle></marker></defs><rect x="4" y="4" width="100" height="100" /><path d="M21.75,18.52c0.41,0.37,1.35,1.67,1.5,2.15c1.5,4.58,2.6,12.86,3.57,19.48" class="grey" /><path d="M24.29,21.02c8.33-1.92,17.47-3.05,22.24-3.53c1.74-0.18,2.79,1.05,2.54,2.09c-1.03,4.31-1.24,8.51-2.78,14.46" class="grey" /><path d="M27.01,36.91c5.6-0.55,13.33-1.49,21.02-2.34" class="grey" /><path d="M58.25,16.97c0.42,0.36,0.85,0.66,1.04,1.12C60.75,21.67,62,31.56,63,38" class="grey" /><path d="M59.88,18.9c9.62-1.4,18.12-2.44,23.06-2.91c1.8-0.17,2.89,1.02,2.63,2.03c-1.07,4.19-2.32,9.25-3.91,15.04" class="grey" /><path d="M63.2,35.85C69,35.32,76,34.9,83.96,34.08" class="grey" /><path d="M28.25,48.06c0.95,0.48,4.04,0.63,5,0.49c4.46-0.65,37.5-4.35,45-4.84c1.46-0.1,2.79,0.1,4,0.49" class="grey" /><path d="M52.67,47.87c1.17,1.34,1.17,2.14,1.17,3.22c0,4.17-0.03,5.42-0.03,9.99" class="grey" /><path d="M20.5,63.15c0.84,0.26,3.82,0.54,5.23,0.42c15.24-1.29,43-3.92,56.88-4.32c2.27-0.06,5,0.44,6.14,0.86" class="grey" /><path d="M23.25,75.1c0.41,0.39,1.32,1.71,1.5,2.19c1.41,3.82,2.1,11.85,3.07,18.71" class="grey" /><path d="M25.29,76.69c9.71-1.69,17.47-2.7,22.24-3.2c1.74-0.18,2.79,1.09,2.54,2.16c-1.03,4.46-1.74,8.85-3.28,15.02" class="grey" /><path d="M28.01,93.65c5.6-0.57,12.83-1.55,20.52-2.42" class="grey" /><path d="M60.25,72.14c0.42,0.39,0.85,0.72,1.04,1.21C62.75,77.25,63,86.5,64,93.5" class="grey" /><path d="M61.88,73.78c8.87-1.28,19.62-3.28,24.56-3.79c1.8-0.19,2.89,1.11,2.63,2.21c-1.07,4.55-2.32,12.05-3.91,18.35" class="grey" /><path d="M64.2,92.08C70,91.5,80,91,87.96,90.11" class="grey" /><path d="M21.75,18.52c0.41,0.37,1.35,1.67,1.5,2.15c1.5,4.58,2.6,12.86,3.57,19.48" class="stroke" stroke-dasharray="150"><animate attributeName="stroke-dashoffset" from="150" to="0" dur="1.8s" begin="0s" fill="freeze" /></path><path d="M24.29,21.02c8.33-1.92,17.47-3.05,22.24-3.53c1.74-0.18,2.79,1.05,2.54,2.09c-1.03,4.31-1.24,8.51-2.78,14.46" class="stroke" stroke-dasharray="150"><set attributeName="opacity" to="0" dur="1.0s" /><animate attributeName="stroke-dashoffset" from="150" to="0" dur="1.8s" begin="1.0s" fill="freeze" /></path><path d="M27.01,36.91c5.6-0.55,13.33-1.49,21.02-2.34" class="stroke" stroke-dasharray="150"><set attributeName="opacity" to="0" dur="2.1s" /><animate attributeName="stroke-dashoffset" from="150" to="0" dur="1.8s" begin="2.1s" fill="freeze" /></path><path d="M58.25,16.97c0.42,0.36,0.85,0.66,1.04,1.12C60.75,21.67,62,31.56,63,38" class="stroke" stroke-dasharray="150"><set attributeName="opacity" to="0" dur="3.1s" /><animate attributeName="stroke-dashoffset" from="150" to="0" dur="1.8s" begin="3.1s" fill="freeze" /></path><path d="M59.88,18.9c9.62-1.4,18.12-2.44,23.06-2.91c1.8-0.17,2.89,1.02,2.63,2.03c-1.07,4.19-2.32,9.25-3.91,15.04" class="stroke" stroke-dasharray="150"><set attributeName="opacity" to="0" dur="4.1s" /><animate attributeName="stroke-dashoffset" from="150" to="0" dur="1.8s" begin="4.1s" fill="freeze" /></path><path d="M63.2,35.85C69,35.32,76,34.9,83.96,34.08" class="stroke" stroke-dasharray="150"><set attributeName="opacity" to="0" dur="5.199999999999999s" /><animate attributeName="stroke-dashoffset" from="150" to="0" dur="1.8s" begin="5.199999999999999s" fill="freeze" /></path><path d="M28.25,48.06c0.95,0.48,4.04,0.63,5,0.49c4.46-0.65,37.5-4.35,45-4.84c1.46-0.1,2.79,0.1,4,0.49" class="stroke" stroke-dasharray="150"><set attributeName="opacity" to="0" dur="6.199999999999999s" /><animate attributeName="stroke-dashoffset" from="150" to="0" dur="1.8s" begin="6.199999999999999s" fill="freeze" /></path><path d="M52.67,47.87c1.17,1.34,1.17,2.14,1.17,3.22c0,4.17-0.03,5.42-0.03,9.99" class="stroke" stroke-dasharray="150"><set attributeName="opacity" to="0" dur="7.499999999999999s" /><animate attributeName="stroke-dashoffset" from="150" to="0" dur="1.8s" begin="7.499999999999999s" fill="freeze" /></path><path d="M20.5,63.15c0.84,0.26,3.82,0.54,5.23,0.42c15.24-1.29,43-3.92,56.88-4.32c2.27-0.06,5,0.44,6.14,0.86" class="stroke" stroke-dasharray="150"><set attributeName="opacity" to="0" dur="8.399999999999999s" /><animate attributeName="stroke-dashoffset" from="150" to="0" dur="1.8s" begin="8.399999999999999s" fill="freeze" /></path><path d="M23.25,75.1c0.41,0.39,1.32,1.71,1.5,2.19c1.41,3.82,2.1,11.85,3.07,18.71" class="stroke" stroke-dasharray="150"><set attributeName="opacity" to="0" dur="9.899999999999999s" /><animate attributeName="stroke-dashoffset" from="150" to="0" dur="1.8s" begin="9.899999999999999s" fill="freeze" /></path><path d="M25.29,76.69c9.71-1.69,17.47-2.7,22.24-3.2c1.74-0.18,2.79,1.09,2.54,2.16c-1.03,4.46-1.74,8.85-3.28,15.02" class="stroke" stroke-dasharray="150"><set attributeName="opacity" to="0" dur="10.899999999999999s" /><animate attributeName="stroke-dashoffset" from="150" to="0" dur="1.8s" begin="10.899999999999999s" fill="freeze" /></path><path d="M28.01,93.65c5.6-0.57,12.83-1.55,20.52-2.42" class="stroke" stroke-dasharray="150"><set attributeName="opacity" to="0" dur="11.999999999999998s" /><animate attributeName="stroke-dashoffset" from="150" to="0" dur="1.8s" begin="11.999999999999998s" fill="freeze" /></path><path d="M60.25,72.14c0.42,0.39,0.85,0.72,1.04,1.21C62.75,77.25,63,86.5,64,93.5" class="stroke" stroke-dasharray="150"><set attributeName="opacity" to="0" dur="12.999999999999998s" /><animate attributeName="stroke-dashoffset" from="150" to="0" dur="1.8s" begin="12.999999999999998s" fill="freeze" /></path><path d="M61.88,73.78c8.87-1.28,19.62-3.28,24.56-3.79c1.8-0.19,2.89,1.11,2.63,2.21c-1.07,4.55-2.32,12.05-3.91,18.35" class="stroke" stroke-dasharray="150"><set attributeName="opacity" to="0" dur="13.999999999999998s" /><animate attributeName="stroke-dashoffset" from="150" to="0" dur="1.8s" begin="13.999999999999998s" fill="freeze" /></path><path d="M64.2,92.08C70,91.5,80,91,87.96,90.11" class="stroke" stroke-dasharray="150"><set attributeName="opacity" to="0" dur="15.199999999999998s" /><animate attributeName="stroke-dashoffset" from="150" to="0" dur="1.8s" begin="15.199999999999998s" fill="freeze" /></path><text x="90" y="120" id="reset">⟳</text><text x="70" y="120" id="pause">◼</text><script type="text/javascript"><![CDATA[function RecurringTimer(e,t){var n,r,i=t;this.pause=function(){window.clearTimeout(n);i-=new Date-r};var s=function(){r=new Date;n=window.setTimeout(function(){i=t;s();e()},i)};this.clear=function(){window.clearTimeout(n);i=t;n=window.setTimeout(function(){i=t;s();e()},i)};this.resume=s;this.resume()}function invoketimer(){timer=new RecurringTimer(function(){svg.setCurrentTime(0)},17199)}var svg=document.getElementById("kanjivg");var pause=document.getElementById("pause");var reset=document.getElementById("reset");var timer;invoketimer();reset.onclick=function(){svg.setCurrentTime(0);timer.clear();svg.unpauseAnimations();pause.innerHTML = "◼";};pause.onclick=function(){if(svg.animationsPaused()){svg.unpauseAnimations();timer.resume();pause.innerHTML="◼"}else{svg.pauseAnimations();timer.pause();pause.innerHTML="▶"}}]]></script></svg>