<svg id="kanjivg" width="106" height="126" xmlns="http://www.w3.org/2000/svg" xmlns:xlink="http://www.w3.org/1999/xlink" xml:space="preserve" version="1.1" baseProfile="full"><defs><style type="text/css"><![CDATA[path.black { fill:none;stroke:black;stroke-width:5;stroke-linecap:round;stroke-linejoin:round; }path.grey { fill:none;stroke:#ddd;stroke-width:5;stroke-linecap:round;stroke-linejoin:round; }path.stroke { fill:none;stroke:black;stroke-width:5;stroke-linecap:round;stroke-linejoin:round; }rect { fill:none;stroke:#555;stroke-width:2;} text{font-size:16px;font-family:Segoe UI Symbol,Cambria Math,DejaVu Sans,Symbola,Quivira,STIX,Code2000;-webkit-touch-callout:none;cursor:pointer;-webkit-user-select:none;-khtml-user-select:none;-moz-user-select:none;-ms-user-select:none;user-select: none;} #reset { font-weight:bold; }]]></style><marker id="markerStart" markerWidth="8" markerHeight="8" style="overflow:visible;"><circle cx="0" cy="0" r="1.5" style="stroke:none;fill:red;fill-opacity:0.5;"/></marker><marker id="markerEnd" style="overflow:visible;"><circle cx="0" cy="0" r="0.8" style="stroke:none;fill:blue;fill-opacity:0.5;"><animate attributeName="opacity" from="1" to="0" dur="3s" repeatCount="indefinite" /></circle></marker></defs><rect x="4" y="4" width="100" height="100" /><path d="M22.8,15.59c0.76,0.61,1.2,1.4,1.33,2.37c0.94,3.23,1.96,8.62,2.72,13.4c0.17,1.09,0.33,2.15,0.47,3.14" class="grey" /><path d="M25.06,16.86c7.67-1.42,14.62-2.42,19.07-2.94c2.67-0.31,4.29,0.04,3.6,2.99c-0.85,3.66-2.09,7.45-3.32,12.3" class="grey" /><path d="M28.24,32.06c4.29-0.43,9.05-0.94,14.66-1.56c0.92-0.1,1.85-0.21,2.81-0.31" class="grey" /><path d="M59.8,15.09c0.74,0.74,1.37,1.95,1.61,2.9c0.87,3.49,1.71,7.11,2.41,11.1c0.18,1.03,0.34,2.08,0.5,3.16" class="grey" /><path d="M61.81,15.86c7.04-1.29,15.47-2.56,20.32-3.16c3.18-0.39,4.6,0.09,3.69,3.45c-0.93,3.43-2,6.44-3.17,11.05" class="grey" /><path d="M64.99,30.31c4.24-0.42,9.85-1.16,15.64-1.64c1.02-0.09,2.05-0.16,3.08-0.23" class="grey" /><path d="M23.88,49.61c3.08,0.74,6.03,0.21,9.13-0.1c13-1.26,28.75-2.67,41-3.6c3.18-0.24,6.62-0.42,9.5,0.08" class="grey" /><path d="M53.38,32.88c0.37,1.09,0.49,2.39-0.01,3.64C45.62,56.12,31.25,68.12,14,78.79" class="grey" /><path d="M55.5,47.75c8.37,6.09,26.51,20.45,34.87,24.53c2.84,1.39,3.83,1.59,5.13,1.72" class="grey" /><path d="M25.3,78.34c0.73,0.58,1.41,1.59,1.54,2.51c0.9,3.1,1.72,8.42,2.41,13.17c0.2,1.4,0.39,2.76,0.57,3.99" class="grey" /><path d="M27.56,79.86c6.88-1.2,13.24-2.17,17.56-2.69c2.8-0.34,4.32,0.1,3.56,3.12c-0.84,3.38-1.82,6.65-3.02,11.4" class="grey" /><path d="M30.49,94.31c4.23-0.42,8.21-0.8,13.78-1.32c1.01-0.09,2.07-0.19,3.19-0.3" class="grey" /><path d="M56.55,76.59c0.82,0.41,1.54,1.81,1.65,2.89c0.94,3.41,1.78,9.07,2.46,13.89c0.14,1.01,0.28,1.97,0.41,2.88" class="grey" /><path d="M58.56,77.61c7.59-1.12,14.01-2.04,18.07-2.4c2.95-0.26,4.12,1.16,3.54,3.7c-0.78,3.39-1.57,6.83-2.76,11.54" class="grey" /><path d="M61.74,93.31c4.31-0.43,9.2-1,15.26-1.43c0.96-0.07,1.94-0.13,2.96-0.19" class="grey" /><path d="M22.8,15.59c0.76,0.61,1.2,1.4,1.33,2.37c0.94,3.23,1.96,8.62,2.72,13.4c0.17,1.09,0.33,2.15,0.47,3.14" class="stroke" stroke-dasharray="150"><animate attributeName="stroke-dashoffset" from="150" to="0" dur="1.8s" begin="0s" fill="freeze" /></path><path d="M25.06,16.86c7.67-1.42,14.62-2.42,19.07-2.94c2.67-0.31,4.29,0.04,3.6,2.99c-0.85,3.66-2.09,7.45-3.32,12.3" class="stroke" stroke-dasharray="150"><set attributeName="opacity" to="0" dur="0.9s" /><animate attributeName="stroke-dashoffset" from="150" to="0" dur="1.8s" begin="0.9s" fill="freeze" /></path><path d="M28.24,32.06c4.29-0.43,9.05-0.94,14.66-1.56c0.92-0.1,1.85-0.21,2.81-0.31" class="stroke" stroke-dasharray="150"><set attributeName="opacity" to="0" dur="1.9s" /><animate attributeName="stroke-dashoffset" from="150" to="0" dur="1.8s" begin="1.9s" fill="freeze" /></path><path d="M59.8,15.09c0.74,0.74,1.37,1.95,1.61,2.9c0.87,3.49,1.71,7.11,2.41,11.1c0.18,1.03,0.34,2.08,0.5,3.16" class="stroke" stroke-dasharray="150"><set attributeName="opacity" to="0" dur="2.8s" /><animate attributeName="stroke-dashoffset" from="150" to="0" dur="1.8s" begin="2.8s" fill="freeze" /></path><path d="M61.81,15.86c7.04-1.29,15.47-2.56,20.32-3.16c3.18-0.39,4.6,0.09,3.69,3.45c-0.93,3.43-2,6.44-3.17,11.05" class="stroke" stroke-dasharray="150"><set attributeName="opacity" to="0" dur="3.6999999999999997s" /><animate attributeName="stroke-dashoffset" from="150" to="0" dur="1.8s" begin="3.6999999999999997s" fill="freeze" /></path><path d="M64.99,30.31c4.24-0.42,9.85-1.16,15.64-1.64c1.02-0.09,2.05-0.16,3.08-0.23" class="stroke" stroke-dasharray="150"><set attributeName="opacity" to="0" dur="4.699999999999999s" /><animate attributeName="stroke-dashoffset" from="150" to="0" dur="1.8s" begin="4.699999999999999s" fill="freeze" /></path><path d="M23.88,49.61c3.08,0.74,6.03,0.21,9.13-0.1c13-1.26,28.75-2.67,41-3.6c3.18-0.24,6.62-0.42,9.5,0.08" class="stroke" stroke-dasharray="150"><set attributeName="opacity" to="0" dur="5.6s" /><animate attributeName="stroke-dashoffset" from="150" to="0" dur="1.8s" begin="5.6s" fill="freeze" /></path><path d="M53.38,32.88c0.37,1.09,0.49,2.39-0.01,3.64C45.62,56.12,31.25,68.12,14,78.79" class="stroke" stroke-dasharray="150"><set attributeName="opacity" to="0" dur="7.0s" /><animate attributeName="stroke-dashoffset" from="150" to="0" dur="1.8s" begin="7.0s" fill="freeze" /></path><path d="M55.5,47.75c8.37,6.09,26.51,20.45,34.87,24.53c2.84,1.39,3.83,1.59,5.13,1.72" class="stroke" stroke-dasharray="150"><set attributeName="opacity" to="0" dur="8.5s" /><animate attributeName="stroke-dashoffset" from="150" to="0" dur="1.8s" begin="8.5s" fill="freeze" /></path><path d="M25.3,78.34c0.73,0.58,1.41,1.59,1.54,2.51c0.9,3.1,1.72,8.42,2.41,13.17c0.2,1.4,0.39,2.76,0.57,3.99" class="stroke" stroke-dasharray="150"><set attributeName="opacity" to="0" dur="9.7s" /><animate attributeName="stroke-dashoffset" from="150" to="0" dur="1.8s" begin="9.7s" fill="freeze" /></path><path d="M27.56,79.86c6.88-1.2,13.24-2.17,17.56-2.69c2.8-0.34,4.32,0.1,3.56,3.12c-0.84,3.38-1.82,6.65-3.02,11.4" class="stroke" stroke-dasharray="150"><set attributeName="opacity" to="0" dur="10.7s" /><animate attributeName="stroke-dashoffset" from="150" to="0" dur="1.8s" begin="10.7s" fill="freeze" /></path><path d="M30.49,94.31c4.23-0.42,8.21-0.8,13.78-1.32c1.01-0.09,2.07-0.19,3.19-0.3" class="stroke" stroke-dasharray="150"><set attributeName="opacity" to="0" dur="11.7s" /><animate attributeName="stroke-dashoffset" from="150" to="0" dur="1.8s" begin="11.7s" fill="freeze" /></path><path d="M56.55,76.59c0.82,0.41,1.54,1.81,1.65,2.89c0.94,3.41,1.78,9.07,2.46,13.89c0.14,1.01,0.28,1.97,0.41,2.88" class="stroke" stroke-dasharray="150"><set attributeName="opacity" to="0" dur="12.6s" /><animate attributeName="stroke-dashoffset" from="150" to="0" dur="1.8s" begin="12.6s" fill="freeze" /></path><path d="M58.56,77.61c7.59-1.12,14.01-2.04,18.07-2.4c2.95-0.26,4.12,1.16,3.54,3.7c-0.78,3.39-1.57,6.83-2.76,11.54" class="stroke" stroke-dasharray="150"><set attributeName="opacity" to="0" dur="13.6s" /><animate attributeName="stroke-dashoffset" from="150" to="0" dur="1.8s" begin="13.6s" fill="freeze" /></path><path d="M61.74,93.31c4.31-0.43,9.2-1,15.26-1.43c0.96-0.07,1.94-0.13,2.96-0.19" class="stroke" stroke-dasharray="150"><set attributeName="opacity" to="0" dur="14.6s" /><animate attributeName="stroke-dashoffset" from="150" to="0" dur="1.8s" begin="14.6s" fill="freeze" /></path><text x="90" y="120" id="reset">⟳</text><text x="70" y="120" id="pause">◼</text><script type="text/javascript"><![CDATA[function RecurringTimer(e,t){var n,r,i=t;this.pause=function(){window.clearTimeout(n);i-=new Date-r};var s=function(){r=new Date;n=window.setTimeout(function(){i=t;s();e()},i)};this.clear=function(){window.clearTimeout(n);i=t;n=window.setTimeout(function(){i=t;s();e()},i)};this.resume=s;this.resume()}function invoketimer(){timer=new RecurringTimer(function(){svg.setCurrentTime(0)},16500)}var svg=document.getElementById("kanjivg");var pause=document.getElementById("pause");var reset=document.getElementById("reset");var timer;invoketimer();reset.onclick=function(){svg.setCurrentTime(0);timer.clear();svg.unpauseAnimations();pause.innerHTML = "◼";};pause.onclick=function(){if(svg.animationsPaused()){svg.unpauseAnimations();timer.resume();pause.innerHTML="◼"}else{svg.pauseAnimations();timer.pause();pause.innerHTML="▶"}}]]></script></svg>