<svg id="kanjivg" width="106" height="126" xmlns="http://www.w3.org/2000/svg" xmlns:xlink="http://www.w3.org/1999/xlink" xml:space="preserve" version="1.1" baseProfile="full"><defs><style type="text/css"><![CDATA[path.black { fill:none;stroke:black;stroke-width:5;stroke-linecap:round;stroke-linejoin:round; }path.grey { fill:none;stroke:#ddd;stroke-width:5;stroke-linecap:round;stroke-linejoin:round; }path.stroke { fill:none;stroke:black;stroke-width:5;stroke-linecap:round;stroke-linejoin:round; }rect { fill:none;stroke:#555;stroke-width:2;} text{font-size:16px;font-family:Segoe UI Symbol,Cambria Math,DejaVu Sans,Symbola,Quivira,STIX,Code2000;-webkit-touch-callout:none;cursor:pointer;-webkit-user-select:none;-khtml-user-select:none;-moz-user-select:none;-ms-user-select:none;user-select: none;} #reset { font-weight:bold; }]]></style><marker id="markerStart" markerWidth="8" markerHeight="8" style="overflow:visible;"><circle cx="0" cy="0" r="1.5" style="stroke:none;fill:red;fill-opacity:0.5;"/></marker><marker id="markerEnd" style="overflow:visible;"><circle cx="0" cy="0" r="0.8" style="stroke:none;fill:blue;fill-opacity:0.5;"><animate attributeName="opacity" from="1" to="0" dur="3s" repeatCount="indefinite" /></circle></marker></defs><rect x="4" y="4" width="100" height="100" /><path d="M9.75,34.52c0.33,0.43,0.66,0.8,0.81,1.34c1.14,4.31,3.43,17.65,4.2,25.39" class="grey" /><path d="M11.79,36.59c8.28-1.89,14.15-3.03,17.99-3.6c1.4-0.21,2.25,1.23,2.05,2.44c-0.83,5.03-2.27,12.33-3.5,19.29" class="grey" /><path d="M14.45,57.71c4.51-0.64,9.96-1.38,16.15-2.37" class="grey" /><path d="M35.9,26.98c0.55,0.15,2.21,0.13,3.67,0c5.14-0.45,12.04-1.64,17.55-1.94c1.46-0.08,2.57-0.45,3.49-0.3" class="grey" /><path d="M49.86,13.01c0.54,0.54,1.26,1.75,1.26,2.39c0,7.09,0,29.41-0.18,33.17" class="grey" /><path d="M50.77,27.29c-2.23,5.72-8.89,15.31-13.54,18.55" class="grey" /><path d="M54,31.78c2.12,1.54,4.78,4.41,6.63,6.83" class="grey" /><path d="M65.98,23.17c0.49,0.16,1.14,0.43,2.45,0.49c3.59,0.16,13.52-1.61,22.5-2.43c1.3-0.12,2.44-0.17,3.25,0" class="grey" /><path d="M77.97,11c0.92,0.3,1.65,2.19,1.65,2.82c0,4.81,0,27.84-0.18,31.6" class="grey" /><path d="M79.2,23.99c-2.41,6.71-9.92,16.04-15.5,19.48" class="grey" /><path d="M79.17,25.19c4.37,5.83,11.37,13.31,14.92,15.61c1.01,0.66,1.58,1.11,2.43,1.33" class="grey" /><path d="M47.96,53.78c0.89,0.37,2.51,0.47,3.4,0.37c5.65-0.64,21.43-2.54,27.05-2.63c1.48-0.03,2.36,0.18,3.11,0.36" class="grey" /><path d="M37.79,66.34c1.18,0.71,3.36,0.73,4.54,0.71c7.52-0.17,35.6-5.33,49.25-5.26c1.97,0.01,3.16,0.34,4.15,0.69" class="grey" /><path d="M66.92,66.04c0.07,0.48,0.98,2.5,1.05,5.55c0.34,14.64-0.21,15.31-0.21,20.29c0,10.59-2.94,4.92-6.44,1.37" class="grey" /><path d="M49.22,76.33c0.04,0.44,0.08,1.13-0.07,1.76c-0.88,3.72-7.29,10.99-14.23,15.99" class="grey" /><path d="M81,75.1c4.42,2.76,11.63,11.05,12.73,15.35" class="grey" /><path d="M9.75,34.52c0.33,0.43,0.66,0.8,0.81,1.34c1.14,4.31,3.43,17.65,4.2,25.39" class="stroke" stroke-dasharray="150"><animate attributeName="stroke-dashoffset" from="150" to="0" dur="1.8s" begin="0s" fill="freeze" /></path><path d="M11.79,36.59c8.28-1.89,14.15-3.03,17.99-3.6c1.4-0.21,2.25,1.23,2.05,2.44c-0.83,5.03-2.27,12.33-3.5,19.29" class="stroke" stroke-dasharray="150"><set attributeName="opacity" to="0" dur="1.0s" /><animate attributeName="stroke-dashoffset" from="150" to="0" dur="1.8s" begin="1.0s" fill="freeze" /></path><path d="M14.45,57.71c4.51-0.64,9.96-1.38,16.15-2.37" class="stroke" stroke-dasharray="150"><set attributeName="opacity" to="0" dur="2.1s" /><animate attributeName="stroke-dashoffset" from="150" to="0" dur="1.8s" begin="2.1s" fill="freeze" /></path><path d="M35.9,26.98c0.55,0.15,2.21,0.13,3.67,0c5.14-0.45,12.04-1.64,17.55-1.94c1.46-0.08,2.57-0.45,3.49-0.3" class="stroke" stroke-dasharray="150"><set attributeName="opacity" to="0" dur="3.0s" /><animate attributeName="stroke-dashoffset" from="150" to="0" dur="1.8s" begin="3.0s" fill="freeze" /></path><path d="M49.86,13.01c0.54,0.54,1.26,1.75,1.26,2.39c0,7.09,0,29.41-0.18,33.17" class="stroke" stroke-dasharray="150"><set attributeName="opacity" to="0" dur="4.0s" /><animate attributeName="stroke-dashoffset" from="150" to="0" dur="1.8s" begin="4.0s" fill="freeze" /></path><path d="M50.77,27.29c-2.23,5.72-8.89,15.31-13.54,18.55" class="stroke" stroke-dasharray="150"><set attributeName="opacity" to="0" dur="5.0s" /><animate attributeName="stroke-dashoffset" from="150" to="0" dur="1.8s" begin="5.0s" fill="freeze" /></path><path d="M54,31.78c2.12,1.54,4.78,4.41,6.63,6.83" class="stroke" stroke-dasharray="150"><set attributeName="opacity" to="0" dur="6.0s" /><animate attributeName="stroke-dashoffset" from="150" to="0" dur="1.8s" begin="6.0s" fill="freeze" /></path><path d="M65.98,23.17c0.49,0.16,1.14,0.43,2.45,0.49c3.59,0.16,13.52-1.61,22.5-2.43c1.3-0.12,2.44-0.17,3.25,0" class="stroke" stroke-dasharray="150"><set attributeName="opacity" to="0" dur="6.9s" /><animate attributeName="stroke-dashoffset" from="150" to="0" dur="1.8s" begin="6.9s" fill="freeze" /></path><path d="M77.97,11c0.92,0.3,1.65,2.19,1.65,2.82c0,4.81,0,27.84-0.18,31.6" class="stroke" stroke-dasharray="150"><set attributeName="opacity" to="0" dur="7.9s" /><animate attributeName="stroke-dashoffset" from="150" to="0" dur="1.8s" begin="7.9s" fill="freeze" /></path><path d="M79.2,23.99c-2.41,6.71-9.92,16.04-15.5,19.48" class="stroke" stroke-dasharray="150"><set attributeName="opacity" to="0" dur="8.9s" /><animate attributeName="stroke-dashoffset" from="150" to="0" dur="1.8s" begin="8.9s" fill="freeze" /></path><path d="M79.17,25.19c4.37,5.83,11.37,13.31,14.92,15.61c1.01,0.66,1.58,1.11,2.43,1.33" class="stroke" stroke-dasharray="150"><set attributeName="opacity" to="0" dur="9.9s" /><animate attributeName="stroke-dashoffset" from="150" to="0" dur="1.8s" begin="9.9s" fill="freeze" /></path><path d="M47.96,53.78c0.89,0.37,2.51,0.47,3.4,0.37c5.65-0.64,21.43-2.54,27.05-2.63c1.48-0.03,2.36,0.18,3.11,0.36" class="stroke" stroke-dasharray="150"><set attributeName="opacity" to="0" dur="10.9s" /><animate attributeName="stroke-dashoffset" from="150" to="0" dur="1.8s" begin="10.9s" fill="freeze" /></path><path d="M37.79,66.34c1.18,0.71,3.36,0.73,4.54,0.71c7.52-0.17,35.6-5.33,49.25-5.26c1.97,0.01,3.16,0.34,4.15,0.69" class="stroke" stroke-dasharray="150"><set attributeName="opacity" to="0" dur="11.9s" /><animate attributeName="stroke-dashoffset" from="150" to="0" dur="1.8s" begin="11.9s" fill="freeze" /></path><path d="M66.92,66.04c0.07,0.48,0.98,2.5,1.05,5.55c0.34,14.64-0.21,15.31-0.21,20.29c0,10.59-2.94,4.92-6.44,1.37" class="stroke" stroke-dasharray="150"><set attributeName="opacity" to="0" dur="13.3s" /><animate attributeName="stroke-dashoffset" from="150" to="0" dur="1.8s" begin="13.3s" fill="freeze" /></path><path d="M49.22,76.33c0.04,0.44,0.08,1.13-0.07,1.76c-0.88,3.72-7.29,10.99-14.23,15.99" class="stroke" stroke-dasharray="150"><set attributeName="opacity" to="0" dur="14.3s" /><animate attributeName="stroke-dashoffset" from="150" to="0" dur="1.8s" begin="14.3s" fill="freeze" /></path><path d="M81,75.1c4.42,2.76,11.63,11.05,12.73,15.35" class="stroke" stroke-dasharray="150"><set attributeName="opacity" to="0" dur="15.3s" /><animate attributeName="stroke-dashoffset" from="150" to="0" dur="1.8s" begin="15.3s" fill="freeze" /></path><text x="90" y="120" id="reset">⟳</text><text x="70" y="120" id="pause">◼</text><script type="text/javascript"><![CDATA[function RecurringTimer(e,t){var n,r,i=t;this.pause=function(){window.clearTimeout(n);i-=new Date-r};var s=function(){r=new Date;n=window.setTimeout(function(){i=t;s();e()},i)};this.clear=function(){window.clearTimeout(n);i=t;n=window.setTimeout(function(){i=t;s();e()},i)};this.resume=s;this.resume()}function invoketimer(){timer=new RecurringTimer(function(){svg.setCurrentTime(0)},17300)}var svg=document.getElementById("kanjivg");var pause=document.getElementById("pause");var reset=document.getElementById("reset");var timer;invoketimer();reset.onclick=function(){svg.setCurrentTime(0);timer.clear();svg.unpauseAnimations();pause.innerHTML = "◼";};pause.onclick=function(){if(svg.animationsPaused()){svg.unpauseAnimations();timer.resume();pause.innerHTML="◼"}else{svg.pauseAnimations();timer.pause();pause.innerHTML="▶"}}]]></script></svg>