<svg id="kanjivg" width="106" height="126" xmlns="http://www.w3.org/2000/svg" xmlns:xlink="http://www.w3.org/1999/xlink" xml:space="preserve" version="1.1" baseProfile="full"><defs><style type="text/css"><![CDATA[path.black { fill:none;stroke:black;stroke-width:5;stroke-linecap:round;stroke-linejoin:round; }path.grey { fill:none;stroke:#ddd;stroke-width:5;stroke-linecap:round;stroke-linejoin:round; }path.stroke { fill:none;stroke:black;stroke-width:5;stroke-linecap:round;stroke-linejoin:round; }rect { fill:none;stroke:#555;stroke-width:2;} text{font-size:16px;font-family:Segoe UI Symbol,Cambria Math,DejaVu Sans,Symbola,Quivira,STIX,Code2000;-webkit-touch-callout:none;cursor:pointer;-webkit-user-select:none;-khtml-user-select:none;-moz-user-select:none;-ms-user-select:none;user-select: none;} #reset { font-weight:bold; }]]></style><marker id="markerStart" markerWidth="8" markerHeight="8" style="overflow:visible;"><circle cx="0" cy="0" r="1.5" style="stroke:none;fill:red;fill-opacity:0.5;"/></marker><marker id="markerEnd" style="overflow:visible;"><circle cx="0" cy="0" r="0.8" style="stroke:none;fill:blue;fill-opacity:0.5;"><animate attributeName="opacity" from="1" to="0" dur="3s" repeatCount="indefinite" /></circle></marker></defs><rect x="4" y="4" width="100" height="100" /><path d="M15.14,33.91c0.35,0.4,0.75,0.73,0.86,1.26c0.99,4.67,2.25,14.48,3.25,21.33" class="grey" /><path d="M17.31,34.98c5.96-1.11,11.09-1.99,16.59-3.1c1.38-0.27,2.21,1.29,2.02,2.56c-0.82,5.27-1.54,7.71-3,16.48" class="grey" /><path d="M19.97,54.05c4.8-0.6,9.1-1.64,15.69-2.56" class="grey" /><path d="M50.25,22.02c0.45,0.13,1.65,0.48,2.84,0.39c4.89-0.39,23.62-3.61,30.66-3.61c1.2,0,1.5-0.13,2.25,0" class="grey" /><path d="M66.19,9.75c0.75,0.35,1.4,1.54,1.36,2.25c-0.29,5.25-0.5,15.43-0.65,19.75" class="grey" /><path d="M42.16,39.32c1.03,0.42,2.22,0.5,3.25,0.42c9.44-0.77,37.7-5.25,48.58-5.3c1.71-0.01,2.74,0.2,3.59,0.41" class="grey" /><path d="M55.48,29.43c0.95,1.02,1.33,1.32,1.35,1.95c0.17,6.37,0.76,11.37,1.03,13.49" class="grey" /><path d="M82.78,26.13c0.23,0.83,0.52,1.45,0.27,2.48c-1.49,6.02-1.66,7.53-3.28,13.2" class="grey" /><path d="M53.55,48.72c0.49,0.79,1.2,1.37,1.2,2.42c0,1.05,0.23,28.02-0.36,32.42" class="grey" /><path d="M55.57,50.13c2.77-0.13,23.35-3.31,25.88-3.47c2.1-0.13,3.22,0.72,3.22,1.71c0,2.4-0.62,32.59-0.62,33.38" class="grey" /><path d="M54.8,60.71c5.05-0.67,10.09-1.43,15.14-2.11c1.42-0.19,2.83-0.38,4.19-0.55" class="grey" /><path d="M55.03,70.66c4.61-0.34,10.69-1.08,15.26-1.73c1.26-0.18,2.54-0.36,3.82-0.52" class="grey" /><path d="M54.67,81.5c9.83-1.25,20.08-2.25,29.34-3.08" class="grey" /><path d="M62.21,86.47c0.5,1.12,1,1.42,0,2.23c-3.02,2.45-12.33,8.48-18.37,11.38" class="grey" /><path d="M76.84,85.42c6.45,3.8,14.07,10.68,15.83,14" class="grey" /><path d="M15.14,33.91c0.35,0.4,0.75,0.73,0.86,1.26c0.99,4.67,2.25,14.48,3.25,21.33" class="stroke" stroke-dasharray="150"><animate attributeName="stroke-dashoffset" from="150" to="0" dur="1.8s" begin="0s" fill="freeze" /></path><path d="M17.31,34.98c5.96-1.11,11.09-1.99,16.59-3.1c1.38-0.27,2.21,1.29,2.02,2.56c-0.82,5.27-1.54,7.71-3,16.48" class="stroke" stroke-dasharray="150"><set attributeName="opacity" to="0" dur="1.0s" /><animate attributeName="stroke-dashoffset" from="150" to="0" dur="1.8s" begin="1.0s" fill="freeze" /></path><path d="M19.97,54.05c4.8-0.6,9.1-1.64,15.69-2.56" class="stroke" stroke-dasharray="150"><set attributeName="opacity" to="0" dur="2.0s" /><animate attributeName="stroke-dashoffset" from="150" to="0" dur="1.8s" begin="2.0s" fill="freeze" /></path><path d="M50.25,22.02c0.45,0.13,1.65,0.48,2.84,0.39c4.89-0.39,23.62-3.61,30.66-3.61c1.2,0,1.5-0.13,2.25,0" class="stroke" stroke-dasharray="150"><set attributeName="opacity" to="0" dur="2.9s" /><animate attributeName="stroke-dashoffset" from="150" to="0" dur="1.8s" begin="2.9s" fill="freeze" /></path><path d="M66.19,9.75c0.75,0.35,1.4,1.54,1.36,2.25c-0.29,5.25-0.5,15.43-0.65,19.75" class="stroke" stroke-dasharray="150"><set attributeName="opacity" to="0" dur="3.9s" /><animate attributeName="stroke-dashoffset" from="150" to="0" dur="1.8s" begin="3.9s" fill="freeze" /></path><path d="M42.16,39.32c1.03,0.42,2.22,0.5,3.25,0.42c9.44-0.77,37.7-5.25,48.58-5.3c1.71-0.01,2.74,0.2,3.59,0.41" class="stroke" stroke-dasharray="150"><set attributeName="opacity" to="0" dur="4.9s" /><animate attributeName="stroke-dashoffset" from="150" to="0" dur="1.8s" begin="4.9s" fill="freeze" /></path><path d="M55.48,29.43c0.95,1.02,1.33,1.32,1.35,1.95c0.17,6.37,0.76,11.37,1.03,13.49" class="stroke" stroke-dasharray="150"><set attributeName="opacity" to="0" dur="6.300000000000001s" /><animate attributeName="stroke-dashoffset" from="150" to="0" dur="1.8s" begin="6.300000000000001s" fill="freeze" /></path><path d="M82.78,26.13c0.23,0.83,0.52,1.45,0.27,2.48c-1.49,6.02-1.66,7.53-3.28,13.2" class="stroke" stroke-dasharray="150"><set attributeName="opacity" to="0" dur="7.200000000000001s" /><animate attributeName="stroke-dashoffset" from="150" to="0" dur="1.8s" begin="7.200000000000001s" fill="freeze" /></path><path d="M53.55,48.72c0.49,0.79,1.2,1.37,1.2,2.42c0,1.05,0.23,28.02-0.36,32.42" class="stroke" stroke-dasharray="150"><set attributeName="opacity" to="0" dur="8.100000000000001s" /><animate attributeName="stroke-dashoffset" from="150" to="0" dur="1.8s" begin="8.100000000000001s" fill="freeze" /></path><path d="M55.57,50.13c2.77-0.13,23.35-3.31,25.88-3.47c2.1-0.13,3.22,0.72,3.22,1.71c0,2.4-0.62,32.59-0.62,33.38" class="stroke" stroke-dasharray="150"><set attributeName="opacity" to="0" dur="9.100000000000001s" /><animate attributeName="stroke-dashoffset" from="150" to="0" dur="1.8s" begin="9.100000000000001s" fill="freeze" /></path><path d="M54.8,60.71c5.05-0.67,10.09-1.43,15.14-2.11c1.42-0.19,2.83-0.38,4.19-0.55" class="stroke" stroke-dasharray="150"><set attributeName="opacity" to="0" dur="10.600000000000001s" /><animate attributeName="stroke-dashoffset" from="150" to="0" dur="1.8s" begin="10.600000000000001s" fill="freeze" /></path><path d="M55.03,70.66c4.61-0.34,10.69-1.08,15.26-1.73c1.26-0.18,2.54-0.36,3.82-0.52" class="stroke" stroke-dasharray="150"><set attributeName="opacity" to="0" dur="11.500000000000002s" /><animate attributeName="stroke-dashoffset" from="150" to="0" dur="1.8s" begin="11.500000000000002s" fill="freeze" /></path><path d="M54.67,81.5c9.83-1.25,20.08-2.25,29.34-3.08" class="stroke" stroke-dasharray="150"><set attributeName="opacity" to="0" dur="12.400000000000002s" /><animate attributeName="stroke-dashoffset" from="150" to="0" dur="1.8s" begin="12.400000000000002s" fill="freeze" /></path><path d="M62.21,86.47c0.5,1.12,1,1.42,0,2.23c-3.02,2.45-12.33,8.48-18.37,11.38" class="stroke" stroke-dasharray="150"><set attributeName="opacity" to="0" dur="13.400000000000002s" /><animate attributeName="stroke-dashoffset" from="150" to="0" dur="1.8s" begin="13.400000000000002s" fill="freeze" /></path><path d="M76.84,85.42c6.45,3.8,14.07,10.68,15.83,14" class="stroke" stroke-dasharray="150"><set attributeName="opacity" to="0" dur="14.400000000000002s" /><animate attributeName="stroke-dashoffset" from="150" to="0" dur="1.8s" begin="14.400000000000002s" fill="freeze" /></path><text x="90" y="120" id="reset">⟳</text><text x="70" y="120" id="pause">◼</text><script type="text/javascript"><![CDATA[function RecurringTimer(e,t){var n,r,i=t;this.pause=function(){window.clearTimeout(n);i-=new Date-r};var s=function(){r=new Date;n=window.setTimeout(function(){i=t;s();e()},i)};this.clear=function(){window.clearTimeout(n);i=t;n=window.setTimeout(function(){i=t;s();e()},i)};this.resume=s;this.resume()}function invoketimer(){timer=new RecurringTimer(function(){svg.setCurrentTime(0)},16400)}var svg=document.getElementById("kanjivg");var pause=document.getElementById("pause");var reset=document.getElementById("reset");var timer;invoketimer();reset.onclick=function(){svg.setCurrentTime(0);timer.clear();svg.unpauseAnimations();pause.innerHTML = "◼";};pause.onclick=function(){if(svg.animationsPaused()){svg.unpauseAnimations();timer.resume();pause.innerHTML="◼"}else{svg.pauseAnimations();timer.pause();pause.innerHTML="▶"}}]]></script></svg>