<svg id="kanjivg" width="106" height="126" xmlns="http://www.w3.org/2000/svg" xmlns:xlink="http://www.w3.org/1999/xlink" xml:space="preserve" version="1.1" baseProfile="full"><defs><style type="text/css"><![CDATA[path.black { fill:none;stroke:black;stroke-width:5;stroke-linecap:round;stroke-linejoin:round; }path.grey { fill:none;stroke:#ddd;stroke-width:5;stroke-linecap:round;stroke-linejoin:round; }path.stroke { fill:none;stroke:black;stroke-width:5;stroke-linecap:round;stroke-linejoin:round; }rect { fill:none;stroke:#555;stroke-width:2;} text{font-size:16px;font-family:Segoe UI Symbol,Cambria Math,DejaVu Sans,Symbola,Quivira,STIX,Code2000;-webkit-touch-callout:none;cursor:pointer;-webkit-user-select:none;-khtml-user-select:none;-moz-user-select:none;-ms-user-select:none;user-select: none;} #reset { font-weight:bold; }]]></style><marker id="markerStart" markerWidth="8" markerHeight="8" style="overflow:visible;"><circle cx="0" cy="0" r="1.5" style="stroke:none;fill:red;fill-opacity:0.5;"/></marker><marker id="markerEnd" style="overflow:visible;"><circle cx="0" cy="0" r="0.8" style="stroke:none;fill:blue;fill-opacity:0.5;"><animate attributeName="opacity" from="1" to="0" dur="3s" repeatCount="indefinite" /></circle></marker></defs><rect x="4" y="4" width="100" height="100" /><path d="M9.25,32.7c0.3,0.49,0.6,0.89,0.73,1.5C11,39.03,12.73,52.33,13.43,61" class="grey" /><path d="M11.09,34.52c7.16-1.77,12.43-2.39,15.89-3.03c1.27-0.23,2.03,1.37,1.85,2.73c-0.75,5.64-2.13,13.85-3.24,21.64" class="grey" /><path d="M13.57,58.67c4.07-0.72,8.48-1,14.07-2.1" class="grey" /><path d="M63.85,18.35c1.02,0.5,2.89,0.57,3.91,0.5c8.42-0.58,21.15-2.58,27.71-2.82c1.7-0.06,2.72,0.24,3.57,0.49" class="grey" /><path d="M79.89,20.43c0.01,0.28,0.02,0.72-0.02,1.12c-0.26,2.37-2.84,7.56-4.88,10.74" class="grey" /><path d="M68.91,32.3c0.38,1.08,0.94,1.88,0.94,3.32c0,1.44-0.25,41.91-0.25,42.63" class="grey" /><path d="M70.48,33.73c2.16-0.18,19.2-2.86,21.17-3.08c1.64-0.18,2.94,1.99,2.8,3.32c-0.17,1.69-0.03,27.28-0.03,43.92" class="grey" /><path d="M70.05,47.32c3.75,0,7.56-0.61,11.28-1.01c1.24-0.13,2.49-0.27,3.71-0.4" class="grey" /><path d="M69.83,61.44c4.02-0.25,8.03-0.62,12.03-1.02c0.99-0.1,1.97-0.19,2.93-0.29" class="grey" /><path d="M70,75.79c5.83-0.79,16.81-1.5,23.11-2.04" class="grey" /><path d="M76.26,82.98c0.31,1.23,0.48,1.48,0,2.46C74.5,89,69.25,94.75,63.98,98" class="grey" /><path d="M87.64,82.87c4.44,3.99,9.7,11.22,10.91,14.71" class="grey" /><path d="M58.89,23.46c0.07,0.32-0.15,1.3-0.54,1.67c-4.91,4.57-11.76,8.4-24.56,12.09" class="grey" /><path d="M36.09,44.16c0.39,0.39,1,1.46,1,3.76c0,2.67-0.19,10.79-0.41,15.48c-0.11,2.42,0.58,3.17,2.43,2.55c5.14-1.71,9.64-2.21,18.06-2.98" class="grey" /><path d="M58.75,40.55c0.33,0.53,1.04,2.24,1,3.33c-0.23,5.09-1.25,11.62-2.77,22" class="grey" /><path d="M46.23,12.62c0.75,0.88,1.41,3.36,1.43,5.38c0.09,9.03-0.25,51.4-0.25,57.55c0,12.2,1.83,13.22,7.71,13.22s8.27-1.17,8.27-10.07" class="grey" /><path d="M9.25,32.7c0.3,0.49,0.6,0.89,0.73,1.5C11,39.03,12.73,52.33,13.43,61" class="stroke" stroke-dasharray="150"><animate attributeName="stroke-dashoffset" from="150" to="0" dur="1.8s" begin="0s" fill="freeze" /></path><path d="M11.09,34.52c7.16-1.77,12.43-2.39,15.89-3.03c1.27-0.23,2.03,1.37,1.85,2.73c-0.75,5.64-2.13,13.85-3.24,21.64" class="stroke" stroke-dasharray="150"><set attributeName="opacity" to="0" dur="1.0s" /><animate attributeName="stroke-dashoffset" from="150" to="0" dur="1.8s" begin="1.0s" fill="freeze" /></path><path d="M13.57,58.67c4.07-0.72,8.48-1,14.07-2.1" class="stroke" stroke-dasharray="150"><set attributeName="opacity" to="0" dur="2.1s" /><animate attributeName="stroke-dashoffset" from="150" to="0" dur="1.8s" begin="2.1s" fill="freeze" /></path><path d="M63.85,18.35c1.02,0.5,2.89,0.57,3.91,0.5c8.42-0.58,21.15-2.58,27.71-2.82c1.7-0.06,2.72,0.24,3.57,0.49" class="stroke" stroke-dasharray="150"><set attributeName="opacity" to="0" dur="3.0s" /><animate attributeName="stroke-dashoffset" from="150" to="0" dur="1.8s" begin="3.0s" fill="freeze" /></path><path d="M79.89,20.43c0.01,0.28,0.02,0.72-0.02,1.12c-0.26,2.37-2.84,7.56-4.88,10.74" class="stroke" stroke-dasharray="150"><set attributeName="opacity" to="0" dur="4.0s" /><animate attributeName="stroke-dashoffset" from="150" to="0" dur="1.8s" begin="4.0s" fill="freeze" /></path><path d="M68.91,32.3c0.38,1.08,0.94,1.88,0.94,3.32c0,1.44-0.25,41.91-0.25,42.63" class="stroke" stroke-dasharray="150"><set attributeName="opacity" to="0" dur="4.9s" /><animate attributeName="stroke-dashoffset" from="150" to="0" dur="1.8s" begin="4.9s" fill="freeze" /></path><path d="M70.48,33.73c2.16-0.18,19.2-2.86,21.17-3.08c1.64-0.18,2.94,1.99,2.8,3.32c-0.17,1.69-0.03,27.28-0.03,43.92" class="stroke" stroke-dasharray="150"><set attributeName="opacity" to="0" dur="6.1000000000000005s" /><animate attributeName="stroke-dashoffset" from="150" to="0" dur="1.8s" begin="6.1000000000000005s" fill="freeze" /></path><path d="M70.05,47.32c3.75,0,7.56-0.61,11.28-1.01c1.24-0.13,2.49-0.27,3.71-0.4" class="stroke" stroke-dasharray="150"><set attributeName="opacity" to="0" dur="7.800000000000001s" /><animate attributeName="stroke-dashoffset" from="150" to="0" dur="1.8s" begin="7.800000000000001s" fill="freeze" /></path><path d="M69.83,61.44c4.02-0.25,8.03-0.62,12.03-1.02c0.99-0.1,1.97-0.19,2.93-0.29" class="stroke" stroke-dasharray="150"><set attributeName="opacity" to="0" dur="8.700000000000001s" /><animate attributeName="stroke-dashoffset" from="150" to="0" dur="1.8s" begin="8.700000000000001s" fill="freeze" /></path><path d="M70,75.79c5.83-0.79,16.81-1.5,23.11-2.04" class="stroke" stroke-dasharray="150"><set attributeName="opacity" to="0" dur="9.600000000000001s" /><animate attributeName="stroke-dashoffset" from="150" to="0" dur="1.8s" begin="9.600000000000001s" fill="freeze" /></path><path d="M76.26,82.98c0.31,1.23,0.48,1.48,0,2.46C74.5,89,69.25,94.75,63.98,98" class="stroke" stroke-dasharray="150"><set attributeName="opacity" to="0" dur="10.600000000000001s" /><animate attributeName="stroke-dashoffset" from="150" to="0" dur="1.8s" begin="10.600000000000001s" fill="freeze" /></path><path d="M87.64,82.87c4.44,3.99,9.7,11.22,10.91,14.71" class="stroke" stroke-dasharray="150"><set attributeName="opacity" to="0" dur="11.600000000000001s" /><animate attributeName="stroke-dashoffset" from="150" to="0" dur="1.8s" begin="11.600000000000001s" fill="freeze" /></path><path d="M58.89,23.46c0.07,0.32-0.15,1.3-0.54,1.67c-4.91,4.57-11.76,8.4-24.56,12.09" class="stroke" stroke-dasharray="150"><set attributeName="opacity" to="0" dur="12.500000000000002s" /><animate attributeName="stroke-dashoffset" from="150" to="0" dur="1.8s" begin="12.500000000000002s" fill="freeze" /></path><path d="M36.09,44.16c0.39,0.39,1,1.46,1,3.76c0,2.67-0.19,10.79-0.41,15.48c-0.11,2.42,0.58,3.17,2.43,2.55c5.14-1.71,9.64-2.21,18.06-2.98" class="stroke" stroke-dasharray="150"><set attributeName="opacity" to="0" dur="13.500000000000002s" /><animate attributeName="stroke-dashoffset" from="150" to="0" dur="1.8s" begin="13.500000000000002s" fill="freeze" /></path><path d="M58.75,40.55c0.33,0.53,1.04,2.24,1,3.33c-0.23,5.09-1.25,11.62-2.77,22" class="stroke" stroke-dasharray="150"><set attributeName="opacity" to="0" dur="14.600000000000001s" /><animate attributeName="stroke-dashoffset" from="150" to="0" dur="1.8s" begin="14.600000000000001s" fill="freeze" /></path><path d="M46.23,12.62c0.75,0.88,1.41,3.36,1.43,5.38c0.09,9.03-0.25,51.4-0.25,57.55c0,12.2,1.83,13.22,7.71,13.22s8.27-1.17,8.27-10.07" class="stroke" stroke-dasharray="150"><set attributeName="opacity" to="0" dur="15.600000000000001s" /><animate attributeName="stroke-dashoffset" from="150" to="0" dur="1.8s" begin="15.600000000000001s" fill="freeze" /></path><text x="90" y="120" id="reset">⟳</text><text x="70" y="120" id="pause">◼</text><script type="text/javascript"><![CDATA[function RecurringTimer(e,t){var n,r,i=t;this.pause=function(){window.clearTimeout(n);i-=new Date-r};var s=function(){r=new Date;n=window.setTimeout(function(){i=t;s();e()},i)};this.clear=function(){window.clearTimeout(n);i=t;n=window.setTimeout(function(){i=t;s();e()},i)};this.resume=s;this.resume()}function invoketimer(){timer=new RecurringTimer(function(){svg.setCurrentTime(0)},18400)}var svg=document.getElementById("kanjivg");var pause=document.getElementById("pause");var reset=document.getElementById("reset");var timer;invoketimer();reset.onclick=function(){svg.setCurrentTime(0);timer.clear();svg.unpauseAnimations();pause.innerHTML = "◼";};pause.onclick=function(){if(svg.animationsPaused()){svg.unpauseAnimations();timer.resume();pause.innerHTML="◼"}else{svg.pauseAnimations();timer.pause();pause.innerHTML="▶"}}]]></script></svg>