<svg id="kanjivg" width="106" height="126" xmlns="http://www.w3.org/2000/svg" xmlns:xlink="http://www.w3.org/1999/xlink" xml:space="preserve" version="1.1" baseProfile="full"><defs><style type="text/css"><![CDATA[path.black { fill:none;stroke:black;stroke-width:5;stroke-linecap:round;stroke-linejoin:round; }path.grey { fill:none;stroke:#ddd;stroke-width:5;stroke-linecap:round;stroke-linejoin:round; }path.stroke { fill:none;stroke:black;stroke-width:5;stroke-linecap:round;stroke-linejoin:round; }rect { fill:none;stroke:#555;stroke-width:2;} text{font-size:16px;font-family:Segoe UI Symbol,Cambria Math,DejaVu Sans,Symbola,Quivira,STIX,Code2000;-webkit-touch-callout:none;cursor:pointer;-webkit-user-select:none;-khtml-user-select:none;-moz-user-select:none;-ms-user-select:none;user-select: none;} #reset { font-weight:bold; }]]></style><marker id="markerStart" markerWidth="8" markerHeight="8" style="overflow:visible;"><circle cx="0" cy="0" r="1.5" style="stroke:none;fill:red;fill-opacity:0.5;"/></marker><marker id="markerEnd" style="overflow:visible;"><circle cx="0" cy="0" r="0.8" style="stroke:none;fill:blue;fill-opacity:0.5;"><animate attributeName="opacity" from="1" to="0" dur="3s" repeatCount="indefinite" /></circle></marker></defs><rect x="4" y="4" width="100" height="100" /><path d="M14.89,33.66c0.79,0.79,1.35,1.82,1.37,2.82c0.73,3.9,1.58,10.03,2.35,15.51c0.22,1.58,0.44,3.11,0.64,4.51" class="grey" /><path d="M17.06,34.98c5.23-0.97,10.01-1.77,14.82-2.7c3.19-0.62,4.38,0.14,3.82,3.48c-0.74,4.42-1.45,7.15-2.78,15.15" class="grey" /><path d="M19.97,54.05c3.8-0.48,7.28-1.22,11.83-1.97c1.2-0.2,2.48-0.4,3.86-0.59" class="grey" /><path d="M50.5,21.77c1.78,0.52,3.92,0.3,5.77,0.07c6.22-0.76,17.99-2.52,24.87-2.95c1.66-0.1,3.23-0.13,4.87,0.15" class="grey" /><path d="M66.44,9.75c0.84,0.84,1.06,2,1.11,3.5c0.11,3.79-0.38,8.63-0.51,13.5c-0.05,1.88-0.1,3.54-0.14,4.75" class="grey" /><path d="M42.16,39.07c1.91,0.78,4.71,0.55,6.72,0.34c10.31-1.08,30.61-3.76,41.12-4.54c2.68-0.2,5.45-0.42,8.08,0.23" class="grey" /><path d="M55.73,29.18c0.95,1.02,1.08,2.07,1.1,2.7c0.17,6.37,0.54,9.5,0.78,12.99" class="grey" /><path d="M82.78,25.88c0.36,1.32,0.33,2.21,0.01,3.54c-1.25,5.25-1.91,8.21-3.02,12.89" class="grey" /><path d="M53.55,48.97c0.93,0.93,1.2,2.03,1.2,3.42c0,0.85,0.12,14.92,0.12,27.18c0,2.1-0.12,2.8-0.12,4.3" class="grey" /><path d="M55.57,50.13c4.26-0.67,19.12-2.56,24.2-3.09c3.07-0.32,4.66,0.04,4.64,3.21c-0.02,4.77-0.01,17.98-0.01,25.74c0,1.76-0.03,5.67-0.03,5.88" class="grey" /><path d="M56.05,60.21c7.2-0.96,21.45-2.96,27.18-3.13" class="grey" /><path d="M56.03,70.41c9.34-1.16,16.59-2.28,27.23-3.36" class="grey" /><path d="M55.92,81.25c9.83-1.25,17.45-2.5,27.34-3.08" class="grey" /><path d="M62.46,86.72c0.29,1.16-0.25,1.92-1.25,2.73c-3.02,2.45-11.33,7.48-17.37,10.38" class="grey" /><path d="M77.59,85.67c6.14,3.66,13.4,10.3,15.08,13.5" class="grey" /><path d="M14.89,33.66c0.79,0.79,1.35,1.82,1.37,2.82c0.73,3.9,1.58,10.03,2.35,15.51c0.22,1.58,0.44,3.11,0.64,4.51" class="stroke" stroke-dasharray="150"><animate attributeName="stroke-dashoffset" from="150" to="0" dur="1.8s" begin="0s" fill="freeze" /></path><path d="M17.06,34.98c5.23-0.97,10.01-1.77,14.82-2.7c3.19-0.62,4.38,0.14,3.82,3.48c-0.74,4.42-1.45,7.15-2.78,15.15" class="stroke" stroke-dasharray="150"><set attributeName="opacity" to="0" dur="1.0s" /><animate attributeName="stroke-dashoffset" from="150" to="0" dur="1.8s" begin="1.0s" fill="freeze" /></path><path d="M19.97,54.05c3.8-0.48,7.28-1.22,11.83-1.97c1.2-0.2,2.48-0.4,3.86-0.59" class="stroke" stroke-dasharray="150"><set attributeName="opacity" to="0" dur="2.0s" /><animate attributeName="stroke-dashoffset" from="150" to="0" dur="1.8s" begin="2.0s" fill="freeze" /></path><path d="M50.5,21.77c1.78,0.52,3.92,0.3,5.77,0.07c6.22-0.76,17.99-2.52,24.87-2.95c1.66-0.1,3.23-0.13,4.87,0.15" class="stroke" stroke-dasharray="150"><set attributeName="opacity" to="0" dur="2.9s" /><animate attributeName="stroke-dashoffset" from="150" to="0" dur="1.8s" begin="2.9s" fill="freeze" /></path><path d="M66.44,9.75c0.84,0.84,1.06,2,1.11,3.5c0.11,3.79-0.38,8.63-0.51,13.5c-0.05,1.88-0.1,3.54-0.14,4.75" class="stroke" stroke-dasharray="150"><set attributeName="opacity" to="0" dur="3.9s" /><animate attributeName="stroke-dashoffset" from="150" to="0" dur="1.8s" begin="3.9s" fill="freeze" /></path><path d="M42.16,39.07c1.91,0.78,4.71,0.55,6.72,0.34c10.31-1.08,30.61-3.76,41.12-4.54c2.68-0.2,5.45-0.42,8.08,0.23" class="stroke" stroke-dasharray="150"><set attributeName="opacity" to="0" dur="4.9s" /><animate attributeName="stroke-dashoffset" from="150" to="0" dur="1.8s" begin="4.9s" fill="freeze" /></path><path d="M55.73,29.18c0.95,1.02,1.08,2.07,1.1,2.7c0.17,6.37,0.54,9.5,0.78,12.99" class="stroke" stroke-dasharray="150"><set attributeName="opacity" to="0" dur="6.300000000000001s" /><animate attributeName="stroke-dashoffset" from="150" to="0" dur="1.8s" begin="6.300000000000001s" fill="freeze" /></path><path d="M82.78,25.88c0.36,1.32,0.33,2.21,0.01,3.54c-1.25,5.25-1.91,8.21-3.02,12.89" class="stroke" stroke-dasharray="150"><set attributeName="opacity" to="0" dur="7.200000000000001s" /><animate attributeName="stroke-dashoffset" from="150" to="0" dur="1.8s" begin="7.200000000000001s" fill="freeze" /></path><path d="M53.55,48.97c0.93,0.93,1.2,2.03,1.2,3.42c0,0.85,0.12,14.92,0.12,27.18c0,2.1-0.12,2.8-0.12,4.3" class="stroke" stroke-dasharray="150"><set attributeName="opacity" to="0" dur="8.100000000000001s" /><animate attributeName="stroke-dashoffset" from="150" to="0" dur="1.8s" begin="8.100000000000001s" fill="freeze" /></path><path d="M55.57,50.13c4.26-0.67,19.12-2.56,24.2-3.09c3.07-0.32,4.66,0.04,4.64,3.21c-0.02,4.77-0.01,17.98-0.01,25.74c0,1.76-0.03,5.67-0.03,5.88" class="stroke" stroke-dasharray="150"><set attributeName="opacity" to="0" dur="9.100000000000001s" /><animate attributeName="stroke-dashoffset" from="150" to="0" dur="1.8s" begin="9.100000000000001s" fill="freeze" /></path><path d="M56.05,60.21c7.2-0.96,21.45-2.96,27.18-3.13" class="stroke" stroke-dasharray="150"><set attributeName="opacity" to="0" dur="10.600000000000001s" /><animate attributeName="stroke-dashoffset" from="150" to="0" dur="1.8s" begin="10.600000000000001s" fill="freeze" /></path><path d="M56.03,70.41c9.34-1.16,16.59-2.28,27.23-3.36" class="stroke" stroke-dasharray="150"><set attributeName="opacity" to="0" dur="11.600000000000001s" /><animate attributeName="stroke-dashoffset" from="150" to="0" dur="1.8s" begin="11.600000000000001s" fill="freeze" /></path><path d="M55.92,81.25c9.83-1.25,17.45-2.5,27.34-3.08" class="stroke" stroke-dasharray="150"><set attributeName="opacity" to="0" dur="12.600000000000001s" /><animate attributeName="stroke-dashoffset" from="150" to="0" dur="1.8s" begin="12.600000000000001s" fill="freeze" /></path><path d="M62.46,86.72c0.29,1.16-0.25,1.92-1.25,2.73c-3.02,2.45-11.33,7.48-17.37,10.38" class="stroke" stroke-dasharray="150"><set attributeName="opacity" to="0" dur="13.600000000000001s" /><animate attributeName="stroke-dashoffset" from="150" to="0" dur="1.8s" begin="13.600000000000001s" fill="freeze" /></path><path d="M77.59,85.67c6.14,3.66,13.4,10.3,15.08,13.5" class="stroke" stroke-dasharray="150"><set attributeName="opacity" to="0" dur="14.600000000000001s" /><animate attributeName="stroke-dashoffset" from="150" to="0" dur="1.8s" begin="14.600000000000001s" fill="freeze" /></path><text x="90" y="120" id="reset">⟳</text><text x="70" y="120" id="pause">◼</text><script type="text/javascript"><![CDATA[function RecurringTimer(e,t){var n,r,i=t;this.pause=function(){window.clearTimeout(n);i-=new Date-r};var s=function(){r=new Date;n=window.setTimeout(function(){i=t;s();e()},i)};this.clear=function(){window.clearTimeout(n);i=t;n=window.setTimeout(function(){i=t;s();e()},i)};this.resume=s;this.resume()}function invoketimer(){timer=new RecurringTimer(function(){svg.setCurrentTime(0)},16600)}var svg=document.getElementById("kanjivg");var pause=document.getElementById("pause");var reset=document.getElementById("reset");var timer;invoketimer();reset.onclick=function(){svg.setCurrentTime(0);timer.clear();svg.unpauseAnimations();pause.innerHTML = "◼";};pause.onclick=function(){if(svg.animationsPaused()){svg.unpauseAnimations();timer.resume();pause.innerHTML="◼"}else{svg.pauseAnimations();timer.pause();pause.innerHTML="▶"}}]]></script></svg>