<svg id="kanjivg" width="106" height="126" xmlns="http://www.w3.org/2000/svg" xmlns:xlink="http://www.w3.org/1999/xlink" xml:space="preserve" version="1.1" baseProfile="full"><defs><style type="text/css"><![CDATA[path.black { fill:none;stroke:black;stroke-width:5;stroke-linecap:round;stroke-linejoin:round; }path.grey { fill:none;stroke:#ddd;stroke-width:5;stroke-linecap:round;stroke-linejoin:round; }path.stroke { fill:none;stroke:black;stroke-width:5;stroke-linecap:round;stroke-linejoin:round; }rect { fill:none;stroke:#555;stroke-width:2;} text{font-size:16px;font-family:Segoe UI Symbol,Cambria Math,DejaVu Sans,Symbola,Quivira,STIX,Code2000;-webkit-touch-callout:none;cursor:pointer;-webkit-user-select:none;-khtml-user-select:none;-moz-user-select:none;-ms-user-select:none;user-select: none;} #reset { font-weight:bold; }]]></style><marker id="markerStart" markerWidth="8" markerHeight="8" style="overflow:visible;"><circle cx="0" cy="0" r="1.5" style="stroke:none;fill:red;fill-opacity:0.5;"/></marker><marker id="markerEnd" style="overflow:visible;"><circle cx="0" cy="0" r="0.8" style="stroke:none;fill:blue;fill-opacity:0.5;"><animate attributeName="opacity" from="1" to="0" dur="3s" repeatCount="indefinite" /></circle></marker></defs><rect x="4" y="4" width="100" height="100" /><path d="M9.26,34.49c0.34,0.43,0.69,0.78,0.83,1.32c1.17,4.23,3.54,17.84,4.34,25.44" class="grey" /><path d="M11.37,36.52c8.55-1.86,14.61-2.98,18.58-3.53c1.45-0.2,2.32,1.2,2.11,2.4C31.2,40.33,29.72,48,28.44,54.83" class="grey" /><path d="M14.12,57.77c4.66-0.63,10.28-1.36,16.68-2.32" class="grey" /><path d="M62.32,9.5c2.61,0.78,5.75,4.64,6.28,6.84" class="grey" /><path d="M42.75,22.61c0,2.61-3.14,10.65-4.17,12.39" class="grey" /><path d="M44.12,23.44c7.13-0.74,40.2-3.4,45.99-3.68c9.04-0.44,1.92,5.38-0.34,6.96" class="grey" /><path d="M47.23,34.75c0.2,1.63-2.01,8.8-3.62,11.51" class="grey" /><path d="M54.79,32.96c6.96,9.29,12.47,12.68,25.76,12.23c5.44-0.18,5.69-2.43,1.89-5.65" class="grey" /><path d="M67.12,30.25c1.54,3.74,3.79,7.48,5.43,1.75" class="grey" /><path d="M81.9,28.98c3.29,1.32,5.76,2.53,8.44,6.63" class="grey" /><path d="M46.56,53.03c0.23,0.26,0.47,0.48,0.57,0.81c0.81,2.59,1.13,8.25,1.68,12.91" class="grey" /><path d="M47.58,54.29c6.44-0.79,36.41-2.71,39.13-3.06c0.99-0.12,2.35,0.88,2.08,2.34c-0.56,3.04-1.35,6.27-2.84,10.61" class="grey" /><path d="M59.97,54.34c0.53,0.66,0.63,1.16,0.74,2.1c0.38,3.04,0.55,7.02,0.67,8.5" class="grey" /><path d="M72.69,53.26c0.56,0.99,0.87,1.84,0.75,3.02c-0.3,3.15-0.78,6.11-1.01,7.36" class="grey" /><path d="M37.29,67.34c1.96,0.41,3.38,0.29,4.96,0.21c11.82-0.64,41.31-3.53,53.52-4.26c2.27-0.13,3.72-0.04,4.96,0.68" class="grey" /><path d="M42.75,77.01c1.32,0.39,3.73,0.5,5.05,0.39c13.47-1.04,23.15-3.19,39.35-3.71c2.19-0.07,3.51,0.19,4.61,0.38" class="grey" /><path d="M67.08,77.4c0.08,0.33,1.64,1.74,1.64,3.87c0,7.48-0.23,9.48-0.23,13.17c0,10.31-6.74,0.86-8.11-0.02" class="grey" /><path d="M9.26,34.49c0.34,0.43,0.69,0.78,0.83,1.32c1.17,4.23,3.54,17.84,4.34,25.44" class="stroke" stroke-dasharray="150"><animate attributeName="stroke-dashoffset" from="150" to="0" dur="1.8s" begin="0s" fill="freeze" /></path><path d="M11.37,36.52c8.55-1.86,14.61-2.98,18.58-3.53c1.45-0.2,2.32,1.2,2.11,2.4C31.2,40.33,29.72,48,28.44,54.83" class="stroke" stroke-dasharray="150"><set attributeName="opacity" to="0" dur="1.0s" /><animate attributeName="stroke-dashoffset" from="150" to="0" dur="1.8s" begin="1.0s" fill="freeze" /></path><path d="M14.12,57.77c4.66-0.63,10.28-1.36,16.68-2.32" class="stroke" stroke-dasharray="150"><set attributeName="opacity" to="0" dur="2.1s" /><animate attributeName="stroke-dashoffset" from="150" to="0" dur="1.8s" begin="2.1s" fill="freeze" /></path><path d="M62.32,9.5c2.61,0.78,5.75,4.64,6.28,6.84" class="stroke" stroke-dasharray="150"><set attributeName="opacity" to="0" dur="3.0s" /><animate attributeName="stroke-dashoffset" from="150" to="0" dur="1.8s" begin="3.0s" fill="freeze" /></path><path d="M42.75,22.61c0,2.61-3.14,10.65-4.17,12.39" class="stroke" stroke-dasharray="150"><set attributeName="opacity" to="0" dur="3.9s" /><animate attributeName="stroke-dashoffset" from="150" to="0" dur="1.8s" begin="3.9s" fill="freeze" /></path><path d="M44.12,23.44c7.13-0.74,40.2-3.4,45.99-3.68c9.04-0.44,1.92,5.38-0.34,6.96" class="stroke" stroke-dasharray="150"><set attributeName="opacity" to="0" dur="4.8s" /><animate attributeName="stroke-dashoffset" from="150" to="0" dur="1.8s" begin="4.8s" fill="freeze" /></path><path d="M47.23,34.75c0.2,1.63-2.01,8.8-3.62,11.51" class="stroke" stroke-dasharray="150"><set attributeName="opacity" to="0" dur="6.199999999999999s" /><animate attributeName="stroke-dashoffset" from="150" to="0" dur="1.8s" begin="6.199999999999999s" fill="freeze" /></path><path d="M54.79,32.96c6.96,9.29,12.47,12.68,25.76,12.23c5.44-0.18,5.69-2.43,1.89-5.65" class="stroke" stroke-dasharray="150"><set attributeName="opacity" to="0" dur="7.1s" /><animate attributeName="stroke-dashoffset" from="150" to="0" dur="1.8s" begin="7.1s" fill="freeze" /></path><path d="M67.12,30.25c1.54,3.74,3.79,7.48,5.43,1.75" class="stroke" stroke-dasharray="150"><set attributeName="opacity" to="0" dur="8.1s" /><animate attributeName="stroke-dashoffset" from="150" to="0" dur="1.8s" begin="8.1s" fill="freeze" /></path><path d="M81.9,28.98c3.29,1.32,5.76,2.53,8.44,6.63" class="stroke" stroke-dasharray="150"><set attributeName="opacity" to="0" dur="9.0s" /><animate attributeName="stroke-dashoffset" from="150" to="0" dur="1.8s" begin="9.0s" fill="freeze" /></path><path d="M46.56,53.03c0.23,0.26,0.47,0.48,0.57,0.81c0.81,2.59,1.13,8.25,1.68,12.91" class="stroke" stroke-dasharray="150"><set attributeName="opacity" to="0" dur="9.9s" /><animate attributeName="stroke-dashoffset" from="150" to="0" dur="1.8s" begin="9.9s" fill="freeze" /></path><path d="M47.58,54.29c6.44-0.79,36.41-2.71,39.13-3.06c0.99-0.12,2.35,0.88,2.08,2.34c-0.56,3.04-1.35,6.27-2.84,10.61" class="stroke" stroke-dasharray="150"><set attributeName="opacity" to="0" dur="10.8s" /><animate attributeName="stroke-dashoffset" from="150" to="0" dur="1.8s" begin="10.8s" fill="freeze" /></path><path d="M59.97,54.34c0.53,0.66,0.63,1.16,0.74,2.1c0.38,3.04,0.55,7.02,0.67,8.5" class="stroke" stroke-dasharray="150"><set attributeName="opacity" to="0" dur="12.100000000000001s" /><animate attributeName="stroke-dashoffset" from="150" to="0" dur="1.8s" begin="12.100000000000001s" fill="freeze" /></path><path d="M72.69,53.26c0.56,0.99,0.87,1.84,0.75,3.02c-0.3,3.15-0.78,6.11-1.01,7.36" class="stroke" stroke-dasharray="150"><set attributeName="opacity" to="0" dur="13.000000000000002s" /><animate attributeName="stroke-dashoffset" from="150" to="0" dur="1.8s" begin="13.000000000000002s" fill="freeze" /></path><path d="M37.29,67.34c1.96,0.41,3.38,0.29,4.96,0.21c11.82-0.64,41.31-3.53,53.52-4.26c2.27-0.13,3.72-0.04,4.96,0.68" class="stroke" stroke-dasharray="150"><set attributeName="opacity" to="0" dur="13.900000000000002s" /><animate attributeName="stroke-dashoffset" from="150" to="0" dur="1.8s" begin="13.900000000000002s" fill="freeze" /></path><path d="M42.75,77.01c1.32,0.39,3.73,0.5,5.05,0.39c13.47-1.04,23.15-3.19,39.35-3.71c2.19-0.07,3.51,0.19,4.61,0.38" class="stroke" stroke-dasharray="150"><set attributeName="opacity" to="0" dur="15.400000000000002s" /><animate attributeName="stroke-dashoffset" from="150" to="0" dur="1.8s" begin="15.400000000000002s" fill="freeze" /></path><path d="M67.08,77.4c0.08,0.33,1.64,1.74,1.64,3.87c0,7.48-0.23,9.48-0.23,13.17c0,10.31-6.74,0.86-8.11-0.02" class="stroke" stroke-dasharray="150"><set attributeName="opacity" to="0" dur="16.6s" /><animate attributeName="stroke-dashoffset" from="150" to="0" dur="1.8s" begin="16.6s" fill="freeze" /></path><text x="90" y="120" id="reset">⟳</text><text x="70" y="120" id="pause">◼</text><script type="text/javascript"><![CDATA[function RecurringTimer(e,t){var n,r,i=t;this.pause=function(){window.clearTimeout(n);i-=new Date-r};var s=function(){r=new Date;n=window.setTimeout(function(){i=t;s();e()},i)};this.clear=function(){window.clearTimeout(n);i=t;n=window.setTimeout(function(){i=t;s();e()},i)};this.resume=s;this.resume()}function invoketimer(){timer=new RecurringTimer(function(){svg.setCurrentTime(0)},18600)}var svg=document.getElementById("kanjivg");var pause=document.getElementById("pause");var reset=document.getElementById("reset");var timer;invoketimer();reset.onclick=function(){svg.setCurrentTime(0);timer.clear();svg.unpauseAnimations();pause.innerHTML = "◼";};pause.onclick=function(){if(svg.animationsPaused()){svg.unpauseAnimations();timer.resume();pause.innerHTML="◼"}else{svg.pauseAnimations();timer.pause();pause.innerHTML="▶"}}]]></script></svg>