<svg id="kanjivg" width="106" height="126" xmlns="http://www.w3.org/2000/svg" xmlns:xlink="http://www.w3.org/1999/xlink" xml:space="preserve" version="1.1" baseProfile="full"><defs><style type="text/css"><![CDATA[path.black { fill:none;stroke:black;stroke-width:5;stroke-linecap:round;stroke-linejoin:round; }path.grey { fill:none;stroke:#ddd;stroke-width:5;stroke-linecap:round;stroke-linejoin:round; }path.stroke { fill:none;stroke:black;stroke-width:5;stroke-linecap:round;stroke-linejoin:round; }rect { fill:none;stroke:#555;stroke-width:2;} text{font-size:16px;font-family:Segoe UI Symbol,Cambria Math,DejaVu Sans,Symbola,Quivira,STIX,Code2000;-webkit-touch-callout:none;cursor:pointer;-webkit-user-select:none;-khtml-user-select:none;-moz-user-select:none;-ms-user-select:none;user-select: none;} #reset { font-weight:bold; }]]></style><marker id="markerStart" markerWidth="8" markerHeight="8" style="overflow:visible;"><circle cx="0" cy="0" r="1.5" style="stroke:none;fill:red;fill-opacity:0.5;"/></marker><marker id="markerEnd" style="overflow:visible;"><circle cx="0" cy="0" r="0.8" style="stroke:none;fill:blue;fill-opacity:0.5;"><animate attributeName="opacity" from="1" to="0" dur="3s" repeatCount="indefinite" /></circle></marker></defs><rect x="4" y="4" width="100" height="100" /><path d="M9.75,34.06c0.35,0.45,0.72,0.82,0.87,1.38c1.23,4.42,3.2,18.12,4.04,26.06" class="grey" /><path d="M11.96,36.18c8.94-1.94,13.77-2.61,17.91-3.19c1.52-0.21,2.43,1.26,2.21,2.51c-0.9,5.17-2.45,12.65-3.78,19.8" class="grey" /><path d="M14.32,57.86c4.87-0.66,9.75-0.92,16.43-1.93" class="grey" /><path d="M36,21.8c1.4,0.49,3.02,0.59,4.42,0.49c12.85-0.9,37.62-4.17,52.43-4.24c2.33-0.01,3.73,0.23,4.89,0.48" class="grey" /><path d="M51.74,11.89c1.45,1.34,1.94,1.75,2.08,2.57C54.5,18.5,55,24,55.1,29" class="grey" /><path d="M77.9,9.75c0.93,0.94,1.55,2.36,1.25,3.74c-0.93,4.21-1.56,9.22-2.91,14.6" class="grey" /><path d="M64.67,26.18c0.78,0.42,2.06,2.06,2.06,2.9c0,3.1-0.25,3.69-0.1,6.31" class="grey" /><path d="M39.73,38.63c1.02,0.07,3.35,0.5,4.35,0.4c8.03-0.84,35.84-4.27,46.75-4.48c1.69-0.03,2.54,0.03,3.8,0.51" class="grey" /><path d="M51.41,43.88c0.44,0.25,0.88,0.45,1.08,0.76c1.51,2.44,1.72,9.17,2.76,13.56" class="grey" /><path d="M54.13,45.53c8.93-1.27,19-2.68,24.12-3c1.87-0.12,2.99,1.46,2.72,2.15c-1.11,2.85-1.6,4.77-3.25,8.71" class="grey" /><path d="M55.44,56.05c6.01-0.36,15.9-1.75,24.15-2.31" class="grey" /><path d="M40.87,65.09c0.6,1.05,1.44,2.3,1.63,4.18c0.45,4.39,2.31,21.53,2.94,28.22" class="grey" /><path d="M41.66,66.6c10.84-0.85,38.84-3.85,47.68-4.44c3.78-0.25,5.59,0.79,5.19,6.48C94,76.25,92.5,86,89.97,93.53c-1.88,5.59-4.72,2.47-6.77-0.5" class="grey" /><path d="M54.89,73.49c0.32,0.25,0.64,0.46,0.78,0.78c1.1,2.5,2.42,9.39,3.17,13.88" class="grey" /><path d="M56.86,75.18c6.49-1.3,14.08-2.11,17.78-2.57c1.5-0.19,2.96,1.03,2.81,2.23c-0.37,3-1.75,5.63-2.94,9.67" class="grey" /><path d="M58.49,85.95c5.76-0.45,10.51-0.7,17.88-1.08" class="grey" /><path d="M9.75,34.06c0.35,0.45,0.72,0.82,0.87,1.38c1.23,4.42,3.2,18.12,4.04,26.06" class="stroke" stroke-dasharray="150"><animate attributeName="stroke-dashoffset" from="150" to="0" dur="1.8s" begin="0s" fill="freeze" /></path><path d="M11.96,36.18c8.94-1.94,13.77-2.61,17.91-3.19c1.52-0.21,2.43,1.26,2.21,2.51c-0.9,5.17-2.45,12.65-3.78,19.8" class="stroke" stroke-dasharray="150"><set attributeName="opacity" to="0" dur="1.0s" /><animate attributeName="stroke-dashoffset" from="150" to="0" dur="1.8s" begin="1.0s" fill="freeze" /></path><path d="M14.32,57.86c4.87-0.66,9.75-0.92,16.43-1.93" class="stroke" stroke-dasharray="150"><set attributeName="opacity" to="0" dur="2.1s" /><animate attributeName="stroke-dashoffset" from="150" to="0" dur="1.8s" begin="2.1s" fill="freeze" /></path><path d="M36,21.8c1.4,0.49,3.02,0.59,4.42,0.49c12.85-0.9,37.62-4.17,52.43-4.24c2.33-0.01,3.73,0.23,4.89,0.48" class="stroke" stroke-dasharray="150"><set attributeName="opacity" to="0" dur="3.0s" /><animate attributeName="stroke-dashoffset" from="150" to="0" dur="1.8s" begin="3.0s" fill="freeze" /></path><path d="M51.74,11.89c1.45,1.34,1.94,1.75,2.08,2.57C54.5,18.5,55,24,55.1,29" class="stroke" stroke-dasharray="150"><set attributeName="opacity" to="0" dur="4.5s" /><animate attributeName="stroke-dashoffset" from="150" to="0" dur="1.8s" begin="4.5s" fill="freeze" /></path><path d="M77.9,9.75c0.93,0.94,1.55,2.36,1.25,3.74c-0.93,4.21-1.56,9.22-2.91,14.6" class="stroke" stroke-dasharray="150"><set attributeName="opacity" to="0" dur="5.4s" /><animate attributeName="stroke-dashoffset" from="150" to="0" dur="1.8s" begin="5.4s" fill="freeze" /></path><path d="M64.67,26.18c0.78,0.42,2.06,2.06,2.06,2.9c0,3.1-0.25,3.69-0.1,6.31" class="stroke" stroke-dasharray="150"><set attributeName="opacity" to="0" dur="6.300000000000001s" /><animate attributeName="stroke-dashoffset" from="150" to="0" dur="1.8s" begin="6.300000000000001s" fill="freeze" /></path><path d="M39.73,38.63c1.02,0.07,3.35,0.5,4.35,0.4c8.03-0.84,35.84-4.27,46.75-4.48c1.69-0.03,2.54,0.03,3.8,0.51" class="stroke" stroke-dasharray="150"><set attributeName="opacity" to="0" dur="7.200000000000001s" /><animate attributeName="stroke-dashoffset" from="150" to="0" dur="1.8s" begin="7.200000000000001s" fill="freeze" /></path><path d="M51.41,43.88c0.44,0.25,0.88,0.45,1.08,0.76c1.51,2.44,1.72,9.17,2.76,13.56" class="stroke" stroke-dasharray="150"><set attributeName="opacity" to="0" dur="8.600000000000001s" /><animate attributeName="stroke-dashoffset" from="150" to="0" dur="1.8s" begin="8.600000000000001s" fill="freeze" /></path><path d="M54.13,45.53c8.93-1.27,19-2.68,24.12-3c1.87-0.12,2.99,1.46,2.72,2.15c-1.11,2.85-1.6,4.77-3.25,8.71" class="stroke" stroke-dasharray="150"><set attributeName="opacity" to="0" dur="9.500000000000002s" /><animate attributeName="stroke-dashoffset" from="150" to="0" dur="1.8s" begin="9.500000000000002s" fill="freeze" /></path><path d="M55.44,56.05c6.01-0.36,15.9-1.75,24.15-2.31" class="stroke" stroke-dasharray="150"><set attributeName="opacity" to="0" dur="10.500000000000002s" /><animate attributeName="stroke-dashoffset" from="150" to="0" dur="1.8s" begin="10.500000000000002s" fill="freeze" /></path><path d="M40.87,65.09c0.6,1.05,1.44,2.3,1.63,4.18c0.45,4.39,2.31,21.53,2.94,28.22" class="stroke" stroke-dasharray="150"><set attributeName="opacity" to="0" dur="11.500000000000002s" /><animate attributeName="stroke-dashoffset" from="150" to="0" dur="1.8s" begin="11.500000000000002s" fill="freeze" /></path><path d="M41.66,66.6c10.84-0.85,38.84-3.85,47.68-4.44c3.78-0.25,5.59,0.79,5.19,6.48C94,76.25,92.5,86,89.97,93.53c-1.88,5.59-4.72,2.47-6.77-0.5" class="stroke" stroke-dasharray="150"><set attributeName="opacity" to="0" dur="12.500000000000002s" /><animate attributeName="stroke-dashoffset" from="150" to="0" dur="1.8s" begin="12.500000000000002s" fill="freeze" /></path><path d="M54.89,73.49c0.32,0.25,0.64,0.46,0.78,0.78c1.1,2.5,2.42,9.39,3.17,13.88" class="stroke" stroke-dasharray="150"><set attributeName="opacity" to="0" dur="14.300000000000002s" /><animate attributeName="stroke-dashoffset" from="150" to="0" dur="1.8s" begin="14.300000000000002s" fill="freeze" /></path><path d="M56.86,75.18c6.49-1.3,14.08-2.11,17.78-2.57c1.5-0.19,2.96,1.03,2.81,2.23c-0.37,3-1.75,5.63-2.94,9.67" class="stroke" stroke-dasharray="150"><set attributeName="opacity" to="0" dur="15.200000000000003s" /><animate attributeName="stroke-dashoffset" from="150" to="0" dur="1.8s" begin="15.200000000000003s" fill="freeze" /></path><path d="M58.49,85.95c5.76-0.45,10.51-0.7,17.88-1.08" class="stroke" stroke-dasharray="150"><set attributeName="opacity" to="0" dur="16.200000000000003s" /><animate attributeName="stroke-dashoffset" from="150" to="0" dur="1.8s" begin="16.200000000000003s" fill="freeze" /></path><text x="90" y="120" id="reset">⟳</text><text x="70" y="120" id="pause">◼</text><script type="text/javascript"><![CDATA[function RecurringTimer(e,t){var n,r,i=t;this.pause=function(){window.clearTimeout(n);i-=new Date-r};var s=function(){r=new Date;n=window.setTimeout(function(){i=t;s();e()},i)};this.clear=function(){window.clearTimeout(n);i=t;n=window.setTimeout(function(){i=t;s();e()},i)};this.resume=s;this.resume()}function invoketimer(){timer=new RecurringTimer(function(){svg.setCurrentTime(0)},18100)}var svg=document.getElementById("kanjivg");var pause=document.getElementById("pause");var reset=document.getElementById("reset");var timer;invoketimer();reset.onclick=function(){svg.setCurrentTime(0);timer.clear();svg.unpauseAnimations();pause.innerHTML = "◼";};pause.onclick=function(){if(svg.animationsPaused()){svg.unpauseAnimations();timer.resume();pause.innerHTML="◼"}else{svg.pauseAnimations();timer.pause();pause.innerHTML="▶"}}]]></script></svg>