<svg id="kanjivg" width="106" height="126" xmlns="http://www.w3.org/2000/svg" xmlns:xlink="http://www.w3.org/1999/xlink" xml:space="preserve" version="1.1" baseProfile="full"><defs><style type="text/css"><![CDATA[path.black { fill:none;stroke:black;stroke-width:5;stroke-linecap:round;stroke-linejoin:round; }path.grey { fill:none;stroke:#ddd;stroke-width:5;stroke-linecap:round;stroke-linejoin:round; }path.stroke { fill:none;stroke:black;stroke-width:5;stroke-linecap:round;stroke-linejoin:round; }rect { fill:none;stroke:#555;stroke-width:2;} text{font-size:16px;font-family:Segoe UI Symbol,Cambria Math,DejaVu Sans,Symbola,Quivira,STIX,Code2000;-webkit-touch-callout:none;cursor:pointer;-webkit-user-select:none;-khtml-user-select:none;-moz-user-select:none;-ms-user-select:none;user-select: none;} #reset { font-weight:bold; }]]></style><marker id="markerStart" markerWidth="8" markerHeight="8" style="overflow:visible;"><circle cx="0" cy="0" r="1.5" style="stroke:none;fill:red;fill-opacity:0.5;"/></marker><marker id="markerEnd" style="overflow:visible;"><circle cx="0" cy="0" r="0.8" style="stroke:none;fill:blue;fill-opacity:0.5;"><animate attributeName="opacity" from="1" to="0" dur="3s" repeatCount="indefinite" /></circle></marker></defs><rect x="4" y="4" width="100" height="100" /><path d="M8.75,34.06c0.35,0.45,0.72,0.82,0.87,1.38c1.23,4.42,2.7,18.12,3.54,26.06" class="grey" /><path d="M10.96,36.18c8.94-1.94,13.27-3.11,17.41-3.69c1.52-0.21,2.43,1.26,2.21,2.51c-0.9,5.17-2.45,12.65-3.78,19.8" class="grey" /><path d="M12.82,57.86c4.87-0.66,9.75-1.42,16.43-2.43" class="grey" /><path d="M43.25,21.77c0.82,0.32,2.32,0.4,3.15,0.32C56.94,21,75.33,18.7,85.94,18.42c1.37-0.04,2.19,0.15,2.87,0.31" class="grey" /><path d="M64.24,9.5c0.13,0.31,1.9,1.64,1.9,3.64c0,6.61-0.39,7.22-0.39,16.26" class="grey" /><path d="M41.17,31.06c0,3.19-2.77,11.95-4.03,14.08" class="grey" /><path d="M42.18,32.39c7.13-0.74,43.71-4.41,49.5-4.69c9.05-0.44,1.92,5.4-0.34,6.99" class="grey" /><path d="M49.4,38.36c0.24,0.3,0.24,0.51,0.38,0.88c1.08,3.1,2.09,10.93,2.76,16.71" class="grey" /><path d="M50.52,38.78c8.35-0.78,22.66-2.11,28.89-2.76c2.29-0.24,3.46,0.61,3.34,1.46c-0.43,3.13-1.49,11.64-2.54,16.86" class="grey" /><path d="M65.56,37.93c0.3,4.03,0.15,12.83,0.15,15.52" class="grey" /><path d="M52.07,46.8c6.47-0.72,12.97-1.25,19.46-1.85c0.78-0.07,1.54-0.14,2.26-0.21" class="grey" /><path d="M52.96,55.12c6.01-0.33,18.95-1.72,27.25-2.27" class="grey" /><path d="M61.68,57c0.07,1,0.21,1.56-0.07,1.84c-1.62,1.66-5.37,5.66-8.67,8.13c-1.64,1.23-2.33,1.34,0.36,0.84c7.19-1.32,20.19-4.07,29.18-5.92" class="grey" /><path d="M77.25,58.37c3.64,1.52,9.4,6.24,10.31,8.6" class="grey" /><path d="M64.87,67.75c0.32,0.32,1.08,1.72,1.08,2.36c0,4.33,0.29,15.81,0.23,19.78" class="grey" /><path d="M86.85,75.03c-1.2,0-2.64,0.01-4.16,0.18c-7.18,0.8-15.38,1.78-16.55,1.78" class="grey" /><path d="M49.07,74.38c0.08,0.58,0.21,1.51-0.16,2.32c-3.44,7.52-6.05,12.84-14.47,20.27" class="grey" /><path d="M48.4,82.76C52,82.5,69.5,93.25,86.64,98.15c2.26,0.65,3.86,0.6,7.43,0.85" class="grey" /><path d="M8.75,34.06c0.35,0.45,0.72,0.82,0.87,1.38c1.23,4.42,2.7,18.12,3.54,26.06" class="stroke" stroke-dasharray="150"><animate attributeName="stroke-dashoffset" from="150" to="0" dur="1.8s" begin="0s" fill="freeze" /></path><path d="M10.96,36.18c8.94-1.94,13.27-3.11,17.41-3.69c1.52-0.21,2.43,1.26,2.21,2.51c-0.9,5.17-2.45,12.65-3.78,19.8" class="stroke" stroke-dasharray="150"><set attributeName="opacity" to="0" dur="1.0s" /><animate attributeName="stroke-dashoffset" from="150" to="0" dur="1.8s" begin="1.0s" fill="freeze" /></path><path d="M12.82,57.86c4.87-0.66,9.75-1.42,16.43-2.43" class="stroke" stroke-dasharray="150"><set attributeName="opacity" to="0" dur="2.1s" /><animate attributeName="stroke-dashoffset" from="150" to="0" dur="1.8s" begin="2.1s" fill="freeze" /></path><path d="M43.25,21.77c0.82,0.32,2.32,0.4,3.15,0.32C56.94,21,75.33,18.7,85.94,18.42c1.37-0.04,2.19,0.15,2.87,0.31" class="stroke" stroke-dasharray="150"><set attributeName="opacity" to="0" dur="3.0s" /><animate attributeName="stroke-dashoffset" from="150" to="0" dur="1.8s" begin="3.0s" fill="freeze" /></path><path d="M64.24,9.5c0.13,0.31,1.9,1.64,1.9,3.64c0,6.61-0.39,7.22-0.39,16.26" class="stroke" stroke-dasharray="150"><set attributeName="opacity" to="0" dur="4.2s" /><animate attributeName="stroke-dashoffset" from="150" to="0" dur="1.8s" begin="4.2s" fill="freeze" /></path><path d="M41.17,31.06c0,3.19-2.77,11.95-4.03,14.08" class="stroke" stroke-dasharray="150"><set attributeName="opacity" to="0" dur="5.2s" /><animate attributeName="stroke-dashoffset" from="150" to="0" dur="1.8s" begin="5.2s" fill="freeze" /></path><path d="M42.18,32.39c7.13-0.74,43.71-4.41,49.5-4.69c9.05-0.44,1.92,5.4-0.34,6.99" class="stroke" stroke-dasharray="150"><set attributeName="opacity" to="0" dur="6.1000000000000005s" /><animate attributeName="stroke-dashoffset" from="150" to="0" dur="1.8s" begin="6.1000000000000005s" fill="freeze" /></path><path d="M49.4,38.36c0.24,0.3,0.24,0.51,0.38,0.88c1.08,3.1,2.09,10.93,2.76,16.71" class="stroke" stroke-dasharray="150"><set attributeName="opacity" to="0" dur="7.6000000000000005s" /><animate attributeName="stroke-dashoffset" from="150" to="0" dur="1.8s" begin="7.6000000000000005s" fill="freeze" /></path><path d="M50.52,38.78c8.35-0.78,22.66-2.11,28.89-2.76c2.29-0.24,3.46,0.61,3.34,1.46c-0.43,3.13-1.49,11.64-2.54,16.86" class="stroke" stroke-dasharray="150"><set attributeName="opacity" to="0" dur="8.5s" /><animate attributeName="stroke-dashoffset" from="150" to="0" dur="1.8s" begin="8.5s" fill="freeze" /></path><path d="M65.56,37.93c0.3,4.03,0.15,12.83,0.15,15.52" class="stroke" stroke-dasharray="150"><set attributeName="opacity" to="0" dur="9.8s" /><animate attributeName="stroke-dashoffset" from="150" to="0" dur="1.8s" begin="9.8s" fill="freeze" /></path><path d="M52.07,46.8c6.47-0.72,12.97-1.25,19.46-1.85c0.78-0.07,1.54-0.14,2.26-0.21" class="stroke" stroke-dasharray="150"><set attributeName="opacity" to="0" dur="10.700000000000001s" /><animate attributeName="stroke-dashoffset" from="150" to="0" dur="1.8s" begin="10.700000000000001s" fill="freeze" /></path><path d="M52.96,55.12c6.01-0.33,18.95-1.72,27.25-2.27" class="stroke" stroke-dasharray="150"><set attributeName="opacity" to="0" dur="11.700000000000001s" /><animate attributeName="stroke-dashoffset" from="150" to="0" dur="1.8s" begin="11.700000000000001s" fill="freeze" /></path><path d="M61.68,57c0.07,1,0.21,1.56-0.07,1.84c-1.62,1.66-5.37,5.66-8.67,8.13c-1.64,1.23-2.33,1.34,0.36,0.84c7.19-1.32,20.19-4.07,29.18-5.92" class="stroke" stroke-dasharray="150"><set attributeName="opacity" to="0" dur="12.700000000000001s" /><animate attributeName="stroke-dashoffset" from="150" to="0" dur="1.8s" begin="12.700000000000001s" fill="freeze" /></path><path d="M77.25,58.37c3.64,1.52,9.4,6.24,10.31,8.6" class="stroke" stroke-dasharray="150"><set attributeName="opacity" to="0" dur="13.9s" /><animate attributeName="stroke-dashoffset" from="150" to="0" dur="1.8s" begin="13.9s" fill="freeze" /></path><path d="M64.87,67.75c0.32,0.32,1.08,1.72,1.08,2.36c0,4.33,0.29,15.81,0.23,19.78" class="stroke" stroke-dasharray="150"><set attributeName="opacity" to="0" dur="14.8s" /><animate attributeName="stroke-dashoffset" from="150" to="0" dur="1.8s" begin="14.8s" fill="freeze" /></path><path d="M86.85,75.03c-1.2,0-2.64,0.01-4.16,0.18c-7.18,0.8-15.38,1.78-16.55,1.78" class="stroke" stroke-dasharray="150"><set attributeName="opacity" to="0" dur="15.8s" /><animate attributeName="stroke-dashoffset" from="150" to="0" dur="1.8s" begin="15.8s" fill="freeze" /></path><path d="M49.07,74.38c0.08,0.58,0.21,1.51-0.16,2.32c-3.44,7.52-6.05,12.84-14.47,20.27" class="stroke" stroke-dasharray="150"><set attributeName="opacity" to="0" dur="16.8s" /><animate attributeName="stroke-dashoffset" from="150" to="0" dur="1.8s" begin="16.8s" fill="freeze" /></path><path d="M48.4,82.76C52,82.5,69.5,93.25,86.64,98.15c2.26,0.65,3.86,0.6,7.43,0.85" class="stroke" stroke-dasharray="150"><set attributeName="opacity" to="0" dur="17.8s" /><animate attributeName="stroke-dashoffset" from="150" to="0" dur="1.8s" begin="17.8s" fill="freeze" /></path><text x="90" y="120" id="reset">⟳</text><text x="70" y="120" id="pause">◼</text><script type="text/javascript"><![CDATA[function RecurringTimer(e,t){var n,r,i=t;this.pause=function(){window.clearTimeout(n);i-=new Date-r};var s=function(){r=new Date;n=window.setTimeout(function(){i=t;s();e()},i)};this.clear=function(){window.clearTimeout(n);i=t;n=window.setTimeout(function(){i=t;s();e()},i)};this.resume=s;this.resume()}function invoketimer(){timer=new RecurringTimer(function(){svg.setCurrentTime(0)},20000)}var svg=document.getElementById("kanjivg");var pause=document.getElementById("pause");var reset=document.getElementById("reset");var timer;invoketimer();reset.onclick=function(){svg.setCurrentTime(0);timer.clear();svg.unpauseAnimations();pause.innerHTML = "◼";};pause.onclick=function(){if(svg.animationsPaused()){svg.unpauseAnimations();timer.resume();pause.innerHTML="◼"}else{svg.pauseAnimations();timer.pause();pause.innerHTML="▶"}}]]></script></svg>