<svg id="kanjivg" width="106" height="126" xmlns="http://www.w3.org/2000/svg" xmlns:xlink="http://www.w3.org/1999/xlink" xml:space="preserve" version="1.1" baseProfile="full"><defs><style type="text/css"><![CDATA[path.black { fill:none;stroke:black;stroke-width:5;stroke-linecap:round;stroke-linejoin:round; }path.grey { fill:none;stroke:#ddd;stroke-width:5;stroke-linecap:round;stroke-linejoin:round; }path.stroke { fill:none;stroke:black;stroke-width:5;stroke-linecap:round;stroke-linejoin:round; }rect { fill:none;stroke:#555;stroke-width:2;} text{font-size:16px;font-family:Segoe UI Symbol,Cambria Math,DejaVu Sans,Symbola,Quivira,STIX,Code2000;-webkit-touch-callout:none;cursor:pointer;-webkit-user-select:none;-khtml-user-select:none;-moz-user-select:none;-ms-user-select:none;user-select: none;} #reset { font-weight:bold; }]]></style><marker id="markerStart" markerWidth="8" markerHeight="8" style="overflow:visible;"><circle cx="0" cy="0" r="1.5" style="stroke:none;fill:red;fill-opacity:0.5;"/></marker><marker id="markerEnd" style="overflow:visible;"><circle cx="0" cy="0" r="0.8" style="stroke:none;fill:blue;fill-opacity:0.5;"><animate attributeName="opacity" from="1" to="0" dur="3s" repeatCount="indefinite" /></circle></marker></defs><rect x="4" y="4" width="100" height="100" /><path d="M19.25,18.32c0.75,1.43,1.34,2.51,1.36,4.41C20.75,37,20.75,69.75,20.3,97" class="grey" /><path d="M20.23,21.15C38.25,19.5,73.68,17,85.75,17c2.75,0,3.55,2.49,3.5,5.5c-0.25,15.75-1,49.75-0.5,72" class="grey" /><path d="M35.54,29.86c0.98,0.13,2.78,0.13,3.74,0.08C47,29.5,64,27,71.52,26.78c1.63-0.05,2.61,0.02,3.42,0.08" class="grey" /><path d="M51,30.4c0.75,1.1,0.73,2.22,0.62,2.61c-1,3.7-5.81,18.44-6.89,20.87" class="grey" /><path d="M34.93,41.62c0.79,0.29,2.89,0.4,3.53,0.33c7.05-0.7,20.8-2.17,27.31-2.71c1.5-0.12,3.21,0.9,3.21,2.13c0,2.12-1.27,7-2.48,11.65" class="grey" /><path d="M28.33,55.69c0.98,0.19,3.42,0.2,4.39,0.06c3.96-0.59,26.33-2.24,45.19-3.5c1.63-0.11,3.25-0.01,4.06,0.07" class="grey" /><path d="M37.5,63.41c0.3,0.32,0.61,0.59,0.74,1c1.04,3.21,2.79,13.07,3.51,18.84" class="grey" /><path d="M39.36,65.52C49.57,63.9,63,63.1,68.84,62.69c2.14-0.15,3.42,0.89,3.11,1.77c-1.27,3.64-2.75,9.54-4.63,14.58" class="grey" /><path d="M41.7,80.97c6.87-0.46,17.8-1.4,27.76-1.75" class="grey" /><path d="M20.75,94.01c13.07,0,49.46-1.6,67.5-2.01" class="grey" /><path d="M19.25,18.32c0.75,1.43,1.34,2.51,1.36,4.41C20.75,37,20.75,69.75,20.3,97" class="stroke" stroke-dasharray="150"><animate attributeName="stroke-dashoffset" from="150" to="0" dur="1.8s" begin="0s" fill="freeze" /></path><path d="M20.23,21.15C38.25,19.5,73.68,17,85.75,17c2.75,0,3.55,2.49,3.5,5.5c-0.25,15.75-1,49.75-0.5,72" class="stroke" stroke-dasharray="150"><set attributeName="opacity" to="0" dur="1.7s" /><animate attributeName="stroke-dashoffset" from="150" to="0" dur="1.8s" begin="1.7s" fill="freeze" /></path><path d="M35.54,29.86c0.98,0.13,2.78,0.13,3.74,0.08C47,29.5,64,27,71.52,26.78c1.63-0.05,2.61,0.02,3.42,0.08" class="stroke" stroke-dasharray="150"><set attributeName="opacity" to="0" dur="3.7s" /><animate attributeName="stroke-dashoffset" from="150" to="0" dur="1.8s" begin="3.7s" fill="freeze" /></path><path d="M51,30.4c0.75,1.1,0.73,2.22,0.62,2.61c-1,3.7-5.81,18.44-6.89,20.87" class="stroke" stroke-dasharray="150"><set attributeName="opacity" to="0" dur="4.7s" /><animate attributeName="stroke-dashoffset" from="150" to="0" dur="1.8s" begin="4.7s" fill="freeze" /></path><path d="M34.93,41.62c0.79,0.29,2.89,0.4,3.53,0.33c7.05-0.7,20.8-2.17,27.31-2.71c1.5-0.12,3.21,0.9,3.21,2.13c0,2.12-1.27,7-2.48,11.65" class="stroke" stroke-dasharray="150"><set attributeName="opacity" to="0" dur="5.7s" /><animate attributeName="stroke-dashoffset" from="150" to="0" dur="1.8s" begin="5.7s" fill="freeze" /></path><path d="M28.33,55.69c0.98,0.19,3.42,0.2,4.39,0.06c3.96-0.59,26.33-2.24,45.19-3.5c1.63-0.11,3.25-0.01,4.06,0.07" class="stroke" stroke-dasharray="150"><set attributeName="opacity" to="0" dur="6.9s" /><animate attributeName="stroke-dashoffset" from="150" to="0" dur="1.8s" begin="6.9s" fill="freeze" /></path><path d="M37.5,63.41c0.3,0.32,0.61,0.59,0.74,1c1.04,3.21,2.79,13.07,3.51,18.84" class="stroke" stroke-dasharray="150"><set attributeName="opacity" to="0" dur="8.200000000000001s" /><animate attributeName="stroke-dashoffset" from="150" to="0" dur="1.8s" begin="8.200000000000001s" fill="freeze" /></path><path d="M39.36,65.52C49.57,63.9,63,63.1,68.84,62.69c2.14-0.15,3.42,0.89,3.11,1.77c-1.27,3.64-2.75,9.54-4.63,14.58" class="stroke" stroke-dasharray="150"><set attributeName="opacity" to="0" dur="9.200000000000001s" /><animate attributeName="stroke-dashoffset" from="150" to="0" dur="1.8s" begin="9.200000000000001s" fill="freeze" /></path><path d="M41.7,80.97c6.87-0.46,17.8-1.4,27.76-1.75" class="stroke" stroke-dasharray="150"><set attributeName="opacity" to="0" dur="10.4s" /><animate attributeName="stroke-dashoffset" from="150" to="0" dur="1.8s" begin="10.4s" fill="freeze" /></path><path d="M20.75,94.01c13.07,0,49.46-1.6,67.5-2.01" class="stroke" stroke-dasharray="150"><set attributeName="opacity" to="0" dur="11.4s" /><animate attributeName="stroke-dashoffset" from="150" to="0" dur="1.8s" begin="11.4s" fill="freeze" /></path><text x="90" y="120" id="reset">⟳</text><text x="70" y="120" id="pause">◼</text><script type="text/javascript"><![CDATA[function RecurringTimer(e,t){var n,r,i=t;this.pause=function(){window.clearTimeout(n);i-=new Date-r};var s=function(){r=new Date;n=window.setTimeout(function(){i=t;s();e()},i)};this.clear=function(){window.clearTimeout(n);i=t;n=window.setTimeout(function(){i=t;s();e()},i)};this.resume=s;this.resume()}function invoketimer(){timer=new RecurringTimer(function(){svg.setCurrentTime(0)},13900)}var svg=document.getElementById("kanjivg");var pause=document.getElementById("pause");var reset=document.getElementById("reset");var timer;invoketimer();reset.onclick=function(){svg.setCurrentTime(0);timer.clear();svg.unpauseAnimations();pause.innerHTML = "◼";};pause.onclick=function(){if(svg.animationsPaused()){svg.unpauseAnimations();timer.resume();pause.innerHTML="◼"}else{svg.pauseAnimations();timer.pause();pause.innerHTML="▶"}}]]></script></svg>