<svg id="kanjivg" width="106" height="126" xmlns="http://www.w3.org/2000/svg" xmlns:xlink="http://www.w3.org/1999/xlink" xml:space="preserve" version="1.1" baseProfile="full"><defs><style type="text/css"><![CDATA[path.black { fill:none;stroke:black;stroke-width:5;stroke-linecap:round;stroke-linejoin:round; }path.grey { fill:none;stroke:#ddd;stroke-width:5;stroke-linecap:round;stroke-linejoin:round; }path.stroke { fill:none;stroke:black;stroke-width:5;stroke-linecap:round;stroke-linejoin:round; }rect { fill:none;stroke:#555;stroke-width:2;} text{font-size:16px;font-family:Segoe UI Symbol,Cambria Math,DejaVu Sans,Symbola,Quivira,STIX,Code2000;-webkit-touch-callout:none;cursor:pointer;-webkit-user-select:none;-khtml-user-select:none;-moz-user-select:none;-ms-user-select:none;user-select: none;} #reset { font-weight:bold; }]]></style><marker id="markerStart" markerWidth="8" markerHeight="8" style="overflow:visible;"><circle cx="0" cy="0" r="1.5" style="stroke:none;fill:red;fill-opacity:0.5;"/></marker><marker id="markerEnd" style="overflow:visible;"><circle cx="0" cy="0" r="0.8" style="stroke:none;fill:blue;fill-opacity:0.5;"><animate attributeName="opacity" from="1" to="0" dur="3s" repeatCount="indefinite" /></circle></marker></defs><rect x="4" y="4" width="100" height="100" /><path d="M18.75,17.82c0.75,1.43,1.84,2.51,1.86,4.41c0.14,14.27,0.14,46.02-0.31,73.27" class="grey" /><path d="M20.73,20.65C38.75,19,74.18,16,86.25,16c2.75,0,3.55,2.49,3.5,5.5c-0.25,15.75-0.5,48-0.5,72" class="grey" /><path d="M36.25,33.19c0.91,0.31,2.57,0.32,3.47,0.31C47.75,33.5,60,32,68.33,30.63c1.49-0.25,2.42,0.15,3.17,0.31" class="grey" /><path d="M36.84,42.74c0.49,0.49,0.81,0.97,0.98,1.46c0.16,0.49-0.19,34.62-0.18,39.01" class="grey" /><path d="M38.79,44.36c5.47-0.2,31.4-3.02,32.85-3.16c2.6-0.24,3.57,1.58,3.25,2.31c-0.03,1.64-0.55,21.98-0.55,33.11c0,7.94-5.34,1.18-6.5,0.71" class="grey" /><path d="M38.79,54.01c7.75-0.46,15.5-1.17,23.24-1.8c0.85-0.07,1.68-0.14,2.48-0.2" class="grey" /><path d="M38.44,64.24c7.74-0.54,15.46-1.63,23.17-2.44c0.91-0.1,1.81-0.19,2.67-0.28" class="grey" /><path d="M52.24,22.82c1.01,1.18,2.07,2.74,2.07,3.55c0,4.63,0,50.59-0.23,55.51" class="grey" /><path d="M69.33,21.3c3.33,1.41,8.04,5.28,8.88,7.47" class="grey" /><path d="M20.75,93.01c13.07,0,49.96-2.1,68-2.51" class="grey" /><path d="M18.75,17.82c0.75,1.43,1.84,2.51,1.86,4.41c0.14,14.27,0.14,46.02-0.31,73.27" class="stroke" stroke-dasharray="150"><animate attributeName="stroke-dashoffset" from="150" to="0" dur="1.8s" begin="0s" fill="freeze" /></path><path d="M20.73,20.65C38.75,19,74.18,16,86.25,16c2.75,0,3.55,2.49,3.5,5.5c-0.25,15.75-0.5,48-0.5,72" class="stroke" stroke-dasharray="150"><set attributeName="opacity" to="0" dur="1.7s" /><animate attributeName="stroke-dashoffset" from="150" to="0" dur="1.8s" begin="1.7s" fill="freeze" /></path><path d="M36.25,33.19c0.91,0.31,2.57,0.32,3.47,0.31C47.75,33.5,60,32,68.33,30.63c1.49-0.25,2.42,0.15,3.17,0.31" class="stroke" stroke-dasharray="150"><set attributeName="opacity" to="0" dur="3.7s" /><animate attributeName="stroke-dashoffset" from="150" to="0" dur="1.8s" begin="3.7s" fill="freeze" /></path><path d="M36.84,42.74c0.49,0.49,0.81,0.97,0.98,1.46c0.16,0.49-0.19,34.62-0.18,39.01" class="stroke" stroke-dasharray="150"><set attributeName="opacity" to="0" dur="4.7s" /><animate attributeName="stroke-dashoffset" from="150" to="0" dur="1.8s" begin="4.7s" fill="freeze" /></path><path d="M38.79,44.36c5.47-0.2,31.4-3.02,32.85-3.16c2.6-0.24,3.57,1.58,3.25,2.31c-0.03,1.64-0.55,21.98-0.55,33.11c0,7.94-5.34,1.18-6.5,0.71" class="stroke" stroke-dasharray="150"><set attributeName="opacity" to="0" dur="5.800000000000001s" /><animate attributeName="stroke-dashoffset" from="150" to="0" dur="1.8s" begin="5.800000000000001s" fill="freeze" /></path><path d="M38.79,54.01c7.75-0.46,15.5-1.17,23.24-1.8c0.85-0.07,1.68-0.14,2.48-0.2" class="stroke" stroke-dasharray="150"><set attributeName="opacity" to="0" dur="7.500000000000001s" /><animate attributeName="stroke-dashoffset" from="150" to="0" dur="1.8s" begin="7.500000000000001s" fill="freeze" /></path><path d="M38.44,64.24c7.74-0.54,15.46-1.63,23.17-2.44c0.91-0.1,1.81-0.19,2.67-0.28" class="stroke" stroke-dasharray="150"><set attributeName="opacity" to="0" dur="8.5s" /><animate attributeName="stroke-dashoffset" from="150" to="0" dur="1.8s" begin="8.5s" fill="freeze" /></path><path d="M52.24,22.82c1.01,1.18,2.07,2.74,2.07,3.55c0,4.63,0,50.59-0.23,55.51" class="stroke" stroke-dasharray="150"><set attributeName="opacity" to="0" dur="9.5s" /><animate attributeName="stroke-dashoffset" from="150" to="0" dur="1.8s" begin="9.5s" fill="freeze" /></path><path d="M69.33,21.3c3.33,1.41,8.04,5.28,8.88,7.47" class="stroke" stroke-dasharray="150"><set attributeName="opacity" to="0" dur="10.9s" /><animate attributeName="stroke-dashoffset" from="150" to="0" dur="1.8s" begin="10.9s" fill="freeze" /></path><path d="M20.75,93.01c13.07,0,49.96-2.1,68-2.51" class="stroke" stroke-dasharray="150"><set attributeName="opacity" to="0" dur="11.8s" /><animate attributeName="stroke-dashoffset" from="150" to="0" dur="1.8s" begin="11.8s" fill="freeze" /></path><text x="90" y="120" id="reset">⟳</text><text x="70" y="120" id="pause">◼</text><script type="text/javascript"><![CDATA[function RecurringTimer(e,t){var n,r,i=t;this.pause=function(){window.clearTimeout(n);i-=new Date-r};var s=function(){r=new Date;n=window.setTimeout(function(){i=t;s();e()},i)};this.clear=function(){window.clearTimeout(n);i=t;n=window.setTimeout(function(){i=t;s();e()},i)};this.resume=s;this.resume()}function invoketimer(){timer=new RecurringTimer(function(){svg.setCurrentTime(0)},14300)}var svg=document.getElementById("kanjivg");var pause=document.getElementById("pause");var reset=document.getElementById("reset");var timer;invoketimer();reset.onclick=function(){svg.setCurrentTime(0);timer.clear();svg.unpauseAnimations();pause.innerHTML = "◼";};pause.onclick=function(){if(svg.animationsPaused()){svg.unpauseAnimations();timer.resume();pause.innerHTML="◼"}else{svg.pauseAnimations();timer.pause();pause.innerHTML="▶"}}]]></script></svg>