<svg id="kanjivg" width="106" height="126" xmlns="http://www.w3.org/2000/svg" xmlns:xlink="http://www.w3.org/1999/xlink" xml:space="preserve" version="1.1" baseProfile="full"><defs><style type="text/css"><![CDATA[path.black { fill:none;stroke:black;stroke-width:5;stroke-linecap:round;stroke-linejoin:round; }path.grey { fill:none;stroke:#ddd;stroke-width:5;stroke-linecap:round;stroke-linejoin:round; }path.stroke { fill:none;stroke:black;stroke-width:5;stroke-linecap:round;stroke-linejoin:round; }rect { fill:none;stroke:#555;stroke-width:2;} text{font-size:16px;font-family:Segoe UI Symbol,Cambria Math,DejaVu Sans,Symbola,Quivira,STIX,Code2000;-webkit-touch-callout:none;cursor:pointer;-webkit-user-select:none;-khtml-user-select:none;-moz-user-select:none;-ms-user-select:none;user-select: none;} #reset { font-weight:bold; }]]></style><marker id="markerStart" markerWidth="8" markerHeight="8" style="overflow:visible;"><circle cx="0" cy="0" r="1.5" style="stroke:none;fill:red;fill-opacity:0.5;"/></marker><marker id="markerEnd" style="overflow:visible;"><circle cx="0" cy="0" r="0.8" style="stroke:none;fill:blue;fill-opacity:0.5;"><animate attributeName="opacity" from="1" to="0" dur="3s" repeatCount="indefinite" /></circle></marker></defs><rect x="4" y="4" width="100" height="100" /><path d="M19.25,16.32c0.75,1.43,1.34,2.51,1.36,4.41C20.75,35,20.75,68.75,20.3,96" class="grey" /><path d="M20.23,17.65C38.25,16,71,14.25,83.25,13.5c2.74-0.17,5,1,5,5.5c0,15.75,0,53.5,0,76" class="grey" /><path d="M42.17,23.38c0.03,0.33,0.07,0.86-0.06,1.33c-0.76,2.81-4.96,7.61-11.1,12.76" class="grey" /><path d="M66.17,22.48c4.1,1.62,9.98,6.29,11,8.81" class="grey" /><path d="M37.91,37.53c0.68,0.26,1.91,0.33,2.59,0.26c4.3-0.45,22.33-3.1,27.69-3.35c1.12-0.05,1.8,0.12,2.36,0.26" class="grey" /><path d="M27.43,49.88c1.09,0.37,3.1,0.47,4.18,0.37c5.52-0.51,34.49-5.11,45.94-5.28c1.82-0.02,2.91,0.18,3.82,0.36" class="grey" /><path d="M54.05,21.25c0.51,0.7,0.52,2.3,0.05,3.81c-3.25,10.51-8.35,29.62-25.43,42.31" class="grey" /><path d="M55.64,35.39c3.33,4.79,17.67,20.44,21.34,23.95c1.25,1.19,2.84,1.7,4.09,2.04" class="grey" /><path d="M42.03,59.32c0.49,0.08,1.78,0.23,2.77,0.17c3.85-0.23,15.89-2.73,17.2-3c1.96-0.4,3.23,0.71,3.16,2.33c-0.13,2.75-2.45,10.42-5.02,14.79c-1.88,3.19-3.55,0.39-3.92,0.23" class="grey" /><path d="M45.49,59.9c0.57,0.95,0.46,1.77,0.46,3.24c0,8.72,0.17,6.69,0.17,11.13c0,8.92,1.58,9.19,13.63,9.19c12.51,0,14.13-0.75,14.13-7.27" class="grey" /><path d="M20.25,93.51c13.07,0,48.96-2.6,67-3.01" class="grey" /><path d="M19.25,16.32c0.75,1.43,1.34,2.51,1.36,4.41C20.75,35,20.75,68.75,20.3,96" class="stroke" stroke-dasharray="150"><animate attributeName="stroke-dashoffset" from="150" to="0" dur="1.8s" begin="0s" fill="freeze" /></path><path d="M20.23,17.65C38.25,16,71,14.25,83.25,13.5c2.74-0.17,5,1,5,5.5c0,15.75,0,53.5,0,76" class="stroke" stroke-dasharray="150"><set attributeName="opacity" to="0" dur="1.7s" /><animate attributeName="stroke-dashoffset" from="150" to="0" dur="1.8s" begin="1.7s" fill="freeze" /></path><path d="M42.17,23.38c0.03,0.33,0.07,0.86-0.06,1.33c-0.76,2.81-4.96,7.61-11.1,12.76" class="stroke" stroke-dasharray="150"><set attributeName="opacity" to="0" dur="3.7s" /><animate attributeName="stroke-dashoffset" from="150" to="0" dur="1.8s" begin="3.7s" fill="freeze" /></path><path d="M66.17,22.48c4.1,1.62,9.98,6.29,11,8.81" class="stroke" stroke-dasharray="150"><set attributeName="opacity" to="0" dur="4.6000000000000005s" /><animate attributeName="stroke-dashoffset" from="150" to="0" dur="1.8s" begin="4.6000000000000005s" fill="freeze" /></path><path d="M37.91,37.53c0.68,0.26,1.91,0.33,2.59,0.26c4.3-0.45,22.33-3.1,27.69-3.35c1.12-0.05,1.8,0.12,2.36,0.26" class="stroke" stroke-dasharray="150"><set attributeName="opacity" to="0" dur="5.500000000000001s" /><animate attributeName="stroke-dashoffset" from="150" to="0" dur="1.8s" begin="5.500000000000001s" fill="freeze" /></path><path d="M27.43,49.88c1.09,0.37,3.1,0.47,4.18,0.37c5.52-0.51,34.49-5.11,45.94-5.28c1.82-0.02,2.91,0.18,3.82,0.36" class="stroke" stroke-dasharray="150"><set attributeName="opacity" to="0" dur="6.500000000000001s" /><animate attributeName="stroke-dashoffset" from="150" to="0" dur="1.8s" begin="6.500000000000001s" fill="freeze" /></path><path d="M54.05,21.25c0.51,0.7,0.52,2.3,0.05,3.81c-3.25,10.51-8.35,29.62-25.43,42.31" class="stroke" stroke-dasharray="150"><set attributeName="opacity" to="0" dur="7.800000000000001s" /><animate attributeName="stroke-dashoffset" from="150" to="0" dur="1.8s" begin="7.800000000000001s" fill="freeze" /></path><path d="M55.64,35.39c3.33,4.79,17.67,20.44,21.34,23.95c1.25,1.19,2.84,1.7,4.09,2.04" class="stroke" stroke-dasharray="150"><set attributeName="opacity" to="0" dur="9.100000000000001s" /><animate attributeName="stroke-dashoffset" from="150" to="0" dur="1.8s" begin="9.100000000000001s" fill="freeze" /></path><path d="M42.03,59.32c0.49,0.08,1.78,0.23,2.77,0.17c3.85-0.23,15.89-2.73,17.2-3c1.96-0.4,3.23,0.71,3.16,2.33c-0.13,2.75-2.45,10.42-5.02,14.79c-1.88,3.19-3.55,0.39-3.92,0.23" class="stroke" stroke-dasharray="150"><set attributeName="opacity" to="0" dur="10.100000000000001s" /><animate attributeName="stroke-dashoffset" from="150" to="0" dur="1.8s" begin="10.100000000000001s" fill="freeze" /></path><path d="M45.49,59.9c0.57,0.95,0.46,1.77,0.46,3.24c0,8.72,0.17,6.69,0.17,11.13c0,8.92,1.58,9.19,13.63,9.19c12.51,0,14.13-0.75,14.13-7.27" class="stroke" stroke-dasharray="150"><set attributeName="opacity" to="0" dur="11.3s" /><animate attributeName="stroke-dashoffset" from="150" to="0" dur="1.8s" begin="11.3s" fill="freeze" /></path><path d="M20.25,93.51c13.07,0,48.96-2.6,67-3.01" class="stroke" stroke-dasharray="150"><set attributeName="opacity" to="0" dur="12.600000000000001s" /><animate attributeName="stroke-dashoffset" from="150" to="0" dur="1.8s" begin="12.600000000000001s" fill="freeze" /></path><text x="90" y="120" id="reset">⟳</text><text x="70" y="120" id="pause">◼</text><script type="text/javascript"><![CDATA[function RecurringTimer(e,t){var n,r,i=t;this.pause=function(){window.clearTimeout(n);i-=new Date-r};var s=function(){r=new Date;n=window.setTimeout(function(){i=t;s();e()},i)};this.clear=function(){window.clearTimeout(n);i=t;n=window.setTimeout(function(){i=t;s();e()},i)};this.resume=s;this.resume()}function invoketimer(){timer=new RecurringTimer(function(){svg.setCurrentTime(0)},15100)}var svg=document.getElementById("kanjivg");var pause=document.getElementById("pause");var reset=document.getElementById("reset");var timer;invoketimer();reset.onclick=function(){svg.setCurrentTime(0);timer.clear();svg.unpauseAnimations();pause.innerHTML = "◼";};pause.onclick=function(){if(svg.animationsPaused()){svg.unpauseAnimations();timer.resume();pause.innerHTML="◼"}else{svg.pauseAnimations();timer.pause();pause.innerHTML="▶"}}]]></script></svg>