<svg id="kanjivg" width="106" height="126" xmlns="http://www.w3.org/2000/svg" xmlns:xlink="http://www.w3.org/1999/xlink" xml:space="preserve" version="1.1" baseProfile="full"><defs><style type="text/css"><![CDATA[path.black { fill:none;stroke:black;stroke-width:5;stroke-linecap:round;stroke-linejoin:round; }path.grey { fill:none;stroke:#ddd;stroke-width:5;stroke-linecap:round;stroke-linejoin:round; }path.stroke { fill:none;stroke:black;stroke-width:5;stroke-linecap:round;stroke-linejoin:round; }rect { fill:none;stroke:#555;stroke-width:2;} text{font-size:16px;font-family:Segoe UI Symbol,Cambria Math,DejaVu Sans,Symbola,Quivira,STIX,Code2000;-webkit-touch-callout:none;cursor:pointer;-webkit-user-select:none;-khtml-user-select:none;-moz-user-select:none;-ms-user-select:none;user-select: none;} #reset { font-weight:bold; }]]></style><marker id="markerStart" markerWidth="8" markerHeight="8" style="overflow:visible;"><circle cx="0" cy="0" r="1.5" style="stroke:none;fill:red;fill-opacity:0.5;"/></marker><marker id="markerEnd" style="overflow:visible;"><circle cx="0" cy="0" r="0.8" style="stroke:none;fill:blue;fill-opacity:0.5;"><animate attributeName="opacity" from="1" to="0" dur="3s" repeatCount="indefinite" /></circle></marker></defs><rect x="4" y="4" width="100" height="100" /><path d="M18.75,15.82c0.75,1.43,1.84,2.51,1.86,4.41c0.14,14.27,0.14,48.02-0.31,75.27" class="grey" /><path d="M20.73,17.65C38.75,16,74.68,14.5,86.75,14.5c2.75,0,3.55,2.49,3.5,5.5c-0.25,15.75-1,50.25-0.5,72.5" class="grey" /><path d="M35.53,30.22c0.85,0.31,2.42,0.4,3.27,0.31c10.96-1.07,21.39-3.12,32.42-3.4c1.42-0.04,2.27,0.15,2.99,0.31" class="grey" /><path d="M53.02,20.5c0.1,0.23,1.49,1.21,1.49,2.69c0,9.63-0.16,14.46-0.16,16.88" class="grey" /><path d="M29,41.85c1.34,0.43,3.8,0.5,5.14,0.43c14.11-0.78,23.61-2.53,42.68-3.66c2.23-0.13,3.57,0.21,4.69,0.42" class="grey" /><path d="M41.71,45.07c1.42,1.46,3.66,6.02,4.01,8.29" class="grey" /><path d="M67.19,42.58c0.02,0.22,0.03,0.57-0.03,0.89c-0.37,1.87-2.52,5.99-5.45,8.5" class="grey" /><path d="M29.25,57.06c0.79,0.34,3.51,0.36,4.31,0.31c5.47-0.4,32.69-3.02,42.02-3.68c1.31-0.09,4.08,0.29,4.73,0.46" class="grey" /><path d="M34.27,70.22c1.32,0.36,3.76,0.46,5.08,0.36c9.09-0.68,22.18-3.37,32.64-3.62c2.21-0.05,3.53,0.17,4.63,0.35" class="grey" /><path d="M53.34,56.88c0.45,0.41,1.41,2.24,1.5,3.05c0.09,0.81-0.06,21.01-0.15,26.07" class="grey" /><path d="M20.75,92.51c13.07,0,50.96-2.1,69-2.51" class="grey" /><path d="M18.75,15.82c0.75,1.43,1.84,2.51,1.86,4.41c0.14,14.27,0.14,48.02-0.31,75.27" class="stroke" stroke-dasharray="150"><animate attributeName="stroke-dashoffset" from="150" to="0" dur="1.8s" begin="0s" fill="freeze" /></path><path d="M20.73,17.65C38.75,16,74.68,14.5,86.75,14.5c2.75,0,3.55,2.49,3.5,5.5c-0.25,15.75-1,50.25-0.5,72.5" class="stroke" stroke-dasharray="150"><set attributeName="opacity" to="0" dur="1.7s" /><animate attributeName="stroke-dashoffset" from="150" to="0" dur="1.8s" begin="1.7s" fill="freeze" /></path><path d="M35.53,30.22c0.85,0.31,2.42,0.4,3.27,0.31c10.96-1.07,21.39-3.12,32.42-3.4c1.42-0.04,2.27,0.15,2.99,0.31" class="stroke" stroke-dasharray="150"><set attributeName="opacity" to="0" dur="3.7s" /><animate attributeName="stroke-dashoffset" from="150" to="0" dur="1.8s" begin="3.7s" fill="freeze" /></path><path d="M53.02,20.5c0.1,0.23,1.49,1.21,1.49,2.69c0,9.63-0.16,14.46-0.16,16.88" class="stroke" stroke-dasharray="150"><set attributeName="opacity" to="0" dur="4.7s" /><animate attributeName="stroke-dashoffset" from="150" to="0" dur="1.8s" begin="4.7s" fill="freeze" /></path><path d="M29,41.85c1.34,0.43,3.8,0.5,5.14,0.43c14.11-0.78,23.61-2.53,42.68-3.66c2.23-0.13,3.57,0.21,4.69,0.42" class="stroke" stroke-dasharray="150"><set attributeName="opacity" to="0" dur="5.7s" /><animate attributeName="stroke-dashoffset" from="150" to="0" dur="1.8s" begin="5.7s" fill="freeze" /></path><path d="M41.71,45.07c1.42,1.46,3.66,6.02,4.01,8.29" class="stroke" stroke-dasharray="150"><set attributeName="opacity" to="0" dur="7.0s" /><animate attributeName="stroke-dashoffset" from="150" to="0" dur="1.8s" begin="7.0s" fill="freeze" /></path><path d="M67.19,42.58c0.02,0.22,0.03,0.57-0.03,0.89c-0.37,1.87-2.52,5.99-5.45,8.5" class="stroke" stroke-dasharray="150"><set attributeName="opacity" to="0" dur="7.9s" /><animate attributeName="stroke-dashoffset" from="150" to="0" dur="1.8s" begin="7.9s" fill="freeze" /></path><path d="M29.25,57.06c0.79,0.34,3.51,0.36,4.31,0.31c5.47-0.4,32.69-3.02,42.02-3.68c1.31-0.09,4.08,0.29,4.73,0.46" class="stroke" stroke-dasharray="150"><set attributeName="opacity" to="0" dur="8.8s" /><animate attributeName="stroke-dashoffset" from="150" to="0" dur="1.8s" begin="8.8s" fill="freeze" /></path><path d="M34.27,70.22c1.32,0.36,3.76,0.46,5.08,0.36c9.09-0.68,22.18-3.37,32.64-3.62c2.21-0.05,3.53,0.17,4.63,0.35" class="stroke" stroke-dasharray="150"><set attributeName="opacity" to="0" dur="10.100000000000001s" /><animate attributeName="stroke-dashoffset" from="150" to="0" dur="1.8s" begin="10.100000000000001s" fill="freeze" /></path><path d="M53.34,56.88c0.45,0.41,1.41,2.24,1.5,3.05c0.09,0.81-0.06,21.01-0.15,26.07" class="stroke" stroke-dasharray="150"><set attributeName="opacity" to="0" dur="11.200000000000001s" /><animate attributeName="stroke-dashoffset" from="150" to="0" dur="1.8s" begin="11.200000000000001s" fill="freeze" /></path><path d="M20.75,92.51c13.07,0,50.96-2.1,69-2.51" class="stroke" stroke-dasharray="150"><set attributeName="opacity" to="0" dur="12.200000000000001s" /><animate attributeName="stroke-dashoffset" from="150" to="0" dur="1.8s" begin="12.200000000000001s" fill="freeze" /></path><text x="90" y="120" id="reset">⟳</text><text x="70" y="120" id="pause">◼</text><script type="text/javascript"><![CDATA[function RecurringTimer(e,t){var n,r,i=t;this.pause=function(){window.clearTimeout(n);i-=new Date-r};var s=function(){r=new Date;n=window.setTimeout(function(){i=t;s();e()},i)};this.clear=function(){window.clearTimeout(n);i=t;n=window.setTimeout(function(){i=t;s();e()},i)};this.resume=s;this.resume()}function invoketimer(){timer=new RecurringTimer(function(){svg.setCurrentTime(0)},14700)}var svg=document.getElementById("kanjivg");var pause=document.getElementById("pause");var reset=document.getElementById("reset");var timer;invoketimer();reset.onclick=function(){svg.setCurrentTime(0);timer.clear();svg.unpauseAnimations();pause.innerHTML = "◼";};pause.onclick=function(){if(svg.animationsPaused()){svg.unpauseAnimations();timer.resume();pause.innerHTML="◼"}else{svg.pauseAnimations();timer.pause();pause.innerHTML="▶"}}]]></script></svg>