<svg id="kanjivg" width="106" height="126" xmlns="http://www.w3.org/2000/svg" xmlns:xlink="http://www.w3.org/1999/xlink" xml:space="preserve" version="1.1" baseProfile="full"><defs><style type="text/css"><![CDATA[path.black { fill:none;stroke:black;stroke-width:5;stroke-linecap:round;stroke-linejoin:round; }path.grey { fill:none;stroke:#ddd;stroke-width:5;stroke-linecap:round;stroke-linejoin:round; }path.stroke { fill:none;stroke:black;stroke-width:5;stroke-linecap:round;stroke-linejoin:round; }rect { fill:none;stroke:#555;stroke-width:2;} text{font-size:16px;font-family:Segoe UI Symbol,Cambria Math,DejaVu Sans,Symbola,Quivira,STIX,Code2000;-webkit-touch-callout:none;cursor:pointer;-webkit-user-select:none;-khtml-user-select:none;-moz-user-select:none;-ms-user-select:none;user-select: none;} #reset { font-weight:bold; }]]></style><marker id="markerStart" markerWidth="8" markerHeight="8" style="overflow:visible;"><circle cx="0" cy="0" r="1.5" style="stroke:none;fill:red;fill-opacity:0.5;"/></marker><marker id="markerEnd" style="overflow:visible;"><circle cx="0" cy="0" r="0.8" style="stroke:none;fill:blue;fill-opacity:0.5;"><animate attributeName="opacity" from="1" to="0" dur="3s" repeatCount="indefinite" /></circle></marker></defs><rect x="4" y="4" width="100" height="100" /><path d="M18.25,16.82c0.75,1.43,0.84,2.51,0.86,4.41c0.14,14.27,0.14,49.02-0.31,76.27" class="grey" /><path d="M19.23,18.65C37.25,17,73.68,14,85.75,14c2.75,0,3.55,2.49,3.5,5.5c-0.25,15.75,0,53.25,0,76" class="grey" /><path d="M42.51,21c0.07,0.49,0.09,1.27-0.14,1.98C40.5,28.75,37.25,33,30,40.25" class="grey" /><path d="M59,18.25c0.8,1.05,1.44,2.29,1.49,3.92c0.11,3.62-0.04,2.05,0.05,4.89c0.21,6.19,2.21,7.49,9.96,7.49c6,0,8.46-1.3,9.01-1.92" class="grey" /><path d="M50.58,34.75c1.81,0.75,3.92,2.5,4.79,5.12" class="grey" /><path d="M29.41,46.65c1.08,0.23,3.38,0.4,4.38,0.32c8.09-0.68,31.72-2.87,42.71-3.33c1.7-0.07,2.56,0.03,3.83,0.41" class="grey" /><path d="M51.19,52.85c5.06,2.4,10.31,3.9,16.1,4.36c2,0.16,2.55,1,2.44,2.55c-0.29,4.09-7.67,19.84-10.17,23.17c-2.7,3.61-5.81-1.43-7.32-3.62" class="grey" /><path d="M50.89,49.02c0.33,0.95,0.27,2.02-0.13,3.09c-2.73,7.37-10.61,22.25-22.86,29.22" class="grey" /><path d="M19.25,94.01c13.07,0,49.96-1.6,68-2.01" class="grey" /><path d="M18.25,16.82c0.75,1.43,0.84,2.51,0.86,4.41c0.14,14.27,0.14,49.02-0.31,76.27" class="stroke" stroke-dasharray="150"><animate attributeName="stroke-dashoffset" from="150" to="0" dur="1.8s" begin="0s" fill="freeze" /></path><path d="M19.23,18.65C37.25,17,73.68,14,85.75,14c2.75,0,3.55,2.49,3.5,5.5c-0.25,15.75,0,53.25,0,76" class="stroke" stroke-dasharray="200"><set attributeName="opacity" to="0" dur="1.7s" /><animate attributeName="stroke-dashoffset" from="200" to="0" dur="1.8s" begin="1.7s" fill="freeze" /></path><path d="M42.51,21c0.07,0.49,0.09,1.27-0.14,1.98C40.5,28.75,37.25,33,30,40.25" class="stroke" stroke-dasharray="150"><set attributeName="opacity" to="0" dur="3.7s" /><animate attributeName="stroke-dashoffset" from="150" to="0" dur="1.8s" begin="3.7s" fill="freeze" /></path><path d="M59,18.25c0.8,1.05,1.44,2.29,1.49,3.92c0.11,3.62-0.04,2.05,0.05,4.89c0.21,6.19,2.21,7.49,9.96,7.49c6,0,8.46-1.3,9.01-1.92" class="stroke" stroke-dasharray="150"><set attributeName="opacity" to="0" dur="4.7s" /><animate attributeName="stroke-dashoffset" from="150" to="0" dur="1.8s" begin="4.7s" fill="freeze" /></path><path d="M50.58,34.75c1.81,0.75,3.92,2.5,4.79,5.12" class="stroke" stroke-dasharray="150"><set attributeName="opacity" to="0" dur="5.7s" /><animate attributeName="stroke-dashoffset" from="150" to="0" dur="1.8s" begin="5.7s" fill="freeze" /></path><path d="M29.41,46.65c1.08,0.23,3.38,0.4,4.38,0.32c8.09-0.68,31.72-2.87,42.71-3.33c1.7-0.07,2.56,0.03,3.83,0.41" class="stroke" stroke-dasharray="150"><set attributeName="opacity" to="0" dur="6.6000000000000005s" /><animate attributeName="stroke-dashoffset" from="150" to="0" dur="1.8s" begin="6.6000000000000005s" fill="freeze" /></path><path d="M51.19,52.85c5.06,2.4,10.31,3.9,16.1,4.36c2,0.16,2.55,1,2.44,2.55c-0.29,4.09-7.67,19.84-10.17,23.17c-2.7,3.61-5.81-1.43-7.32-3.62" class="stroke" stroke-dasharray="150"><set attributeName="opacity" to="0" dur="7.9s" /><animate attributeName="stroke-dashoffset" from="150" to="0" dur="1.8s" begin="7.9s" fill="freeze" /></path><path d="M50.89,49.02c0.33,0.95,0.27,2.02-0.13,3.09c-2.73,7.37-10.61,22.25-22.86,29.22" class="stroke" stroke-dasharray="150"><set attributeName="opacity" to="0" dur="9.3s" /><animate attributeName="stroke-dashoffset" from="150" to="0" dur="1.8s" begin="9.3s" fill="freeze" /></path><path d="M19.25,94.01c13.07,0,49.96-1.6,68-2.01" class="stroke" stroke-dasharray="150"><set attributeName="opacity" to="0" dur="10.4s" /><animate attributeName="stroke-dashoffset" from="150" to="0" dur="1.8s" begin="10.4s" fill="freeze" /></path><text x="90" y="120" id="reset">⟳</text><text x="70" y="120" id="pause">◼</text><script type="text/javascript"><![CDATA[function RecurringTimer(e,t){var n,r,i=t;this.pause=function(){window.clearTimeout(n);i-=new Date-r};var s=function(){r=new Date;n=window.setTimeout(function(){i=t;s();e()},i)};this.clear=function(){window.clearTimeout(n);i=t;n=window.setTimeout(function(){i=t;s();e()},i)};this.resume=s;this.resume()}function invoketimer(){timer=new RecurringTimer(function(){svg.setCurrentTime(0)},12900)}var svg=document.getElementById("kanjivg");var pause=document.getElementById("pause");var reset=document.getElementById("reset");var timer;invoketimer();reset.onclick=function(){svg.setCurrentTime(0);timer.clear();svg.unpauseAnimations();pause.innerHTML = "◼";};pause.onclick=function(){if(svg.animationsPaused()){svg.unpauseAnimations();timer.resume();pause.innerHTML="◼"}else{svg.pauseAnimations();timer.pause();pause.innerHTML="▶"}}]]></script></svg>