<svg id="kanjivg" width="106" height="126" xmlns="http://www.w3.org/2000/svg" xmlns:xlink="http://www.w3.org/1999/xlink" xml:space="preserve" version="1.1" baseProfile="full"><defs><style type="text/css"><![CDATA[path.black { fill:none;stroke:black;stroke-width:5;stroke-linecap:round;stroke-linejoin:round; }path.grey { fill:none;stroke:#ddd;stroke-width:5;stroke-linecap:round;stroke-linejoin:round; }path.stroke { fill:none;stroke:black;stroke-width:5;stroke-linecap:round;stroke-linejoin:round; }rect { fill:none;stroke:#555;stroke-width:2;} text{font-size:16px;font-family:Segoe UI Symbol,Cambria Math,DejaVu Sans,Symbola,Quivira,STIX,Code2000;-webkit-touch-callout:none;cursor:pointer;-webkit-user-select:none;-khtml-user-select:none;-moz-user-select:none;-ms-user-select:none;user-select: none;} #reset { font-weight:bold; }]]></style><marker id="markerStart" markerWidth="8" markerHeight="8" style="overflow:visible;"><circle cx="0" cy="0" r="1.5" style="stroke:none;fill:red;fill-opacity:0.5;"/></marker><marker id="markerEnd" style="overflow:visible;"><circle cx="0" cy="0" r="0.8" style="stroke:none;fill:blue;fill-opacity:0.5;"><animate attributeName="opacity" from="1" to="0" dur="3s" repeatCount="indefinite" /></circle></marker></defs><rect x="4" y="4" width="100" height="100" /><path d="M18,18.79c1.29,1.29,1.61,2.94,1.61,4.78c0,12.45,0.07,46.78,0.08,66.05c0,2.27,0,4.33,0,6.12" class="grey" /><path d="M20.74,21.21c19.04-1.59,54.71-3.96,65.51-3.96c2.75,0,3.55,2.42,3.5,5.35C89.52,36.75,88.86,66.5,89.16,88c0.02,1.75,0.05,3.44,0.09,5.07" class="grey" /><path d="M37.07,30.57c1.25,0.26,3.52,0.34,4.77,0.26C50.25,30.25,60,29,65.82,28.47c2.07-0.19,3.32-0.13,4.36,0" class="grey" /><path d="M52.99,21.87c0.64,0.64,1.25,1.76,1.25,2.69c0,2.95-0.14,13.16-0.14,14.01" class="grey" /><path d="M29.39,40.62c1.62,0.43,4.3,0.34,5.91,0.18c11.94-1.18,29.44-2.8,39.52-3.69c2.68-0.24,4.32,0.2,5.67,0.42" class="grey" /><path d="M38.31,47.95c0.68,0.68,1.19,1.42,1.34,2.23c0.61,3.29,0.96,5.69,1.67,9.55c0.26,1.42,0.26,1.78,0.49,2.94" class="grey" /><path d="M40.76,49.08c7.81-1.1,21.3-2.51,26.24-2.68c1.9-0.07,2.18,1.39,2.02,2.13c-0.35,1.58-2.31,6.52-2.98,8.39" class="grey" /><path d="M42.65,60.58c5.01-0.69,15.1-1.7,22.12-2.24c1.29-0.1,2.54-0.2,3.69-0.31" class="grey" /><path d="M49.13,62.5c0.21,1.56-0.56,3.02-1.58,4.14c-4.67,5.11-9.92,9.11-18.49,13.86" class="grey" /><path d="M51.09,66.7c0.98,0.98,1.43,1.67,1.43,3.08c0,3.46-0.01,8.12-0.01,12.09c0,1.16,0,2.25,0,3.25" class="grey" /><path d="M71.59,63.21C71.5,64.12,71,65,69.97,66.04c-1.29,1.3-3.97,3.21-7.88,4.89" class="grey" /><path d="M55.38,68c8.25,3.29,15.07,7.67,19.62,14.25" class="grey" /><path d="M21,93.1c13.75-0.35,48.71-2.29,66.75-2.69" class="grey" /><path d="M18,18.79c1.29,1.29,1.61,2.94,1.61,4.78c0,12.45,0.07,46.78,0.08,66.05c0,2.27,0,4.33,0,6.12" class="stroke" stroke-dasharray="150"><animate attributeName="stroke-dashoffset" from="150" to="0" dur="1.8s" begin="0s" fill="freeze" /></path><path d="M20.74,21.21c19.04-1.59,54.71-3.96,65.51-3.96c2.75,0,3.55,2.42,3.5,5.35C89.52,36.75,88.86,66.5,89.16,88c0.02,1.75,0.05,3.44,0.09,5.07" class="stroke" stroke-dasharray="150"><set attributeName="opacity" to="0" dur="1.7s" /><animate attributeName="stroke-dashoffset" from="150" to="0" dur="1.8s" begin="1.7s" fill="freeze" /></path><path d="M37.07,30.57c1.25,0.26,3.52,0.34,4.77,0.26C50.25,30.25,60,29,65.82,28.47c2.07-0.19,3.32-0.13,4.36,0" class="stroke" stroke-dasharray="150"><set attributeName="opacity" to="0" dur="3.7s" /><animate attributeName="stroke-dashoffset" from="150" to="0" dur="1.8s" begin="3.7s" fill="freeze" /></path><path d="M52.99,21.87c0.64,0.64,1.25,1.76,1.25,2.69c0,2.95-0.14,13.16-0.14,14.01" class="stroke" stroke-dasharray="150"><set attributeName="opacity" to="0" dur="4.7s" /><animate attributeName="stroke-dashoffset" from="150" to="0" dur="1.8s" begin="4.7s" fill="freeze" /></path><path d="M29.39,40.62c1.62,0.43,4.3,0.34,5.91,0.18c11.94-1.18,29.44-2.8,39.52-3.69c2.68-0.24,4.32,0.2,5.67,0.42" class="stroke" stroke-dasharray="150"><set attributeName="opacity" to="0" dur="5.6000000000000005s" /><animate attributeName="stroke-dashoffset" from="150" to="0" dur="1.8s" begin="5.6000000000000005s" fill="freeze" /></path><path d="M38.31,47.95c0.68,0.68,1.19,1.42,1.34,2.23c0.61,3.29,0.96,5.69,1.67,9.55c0.26,1.42,0.26,1.78,0.49,2.94" class="stroke" stroke-dasharray="150"><set attributeName="opacity" to="0" dur="6.9s" /><animate attributeName="stroke-dashoffset" from="150" to="0" dur="1.8s" begin="6.9s" fill="freeze" /></path><path d="M40.76,49.08c7.81-1.1,21.3-2.51,26.24-2.68c1.9-0.07,2.18,1.39,2.02,2.13c-0.35,1.58-2.31,6.52-2.98,8.39" class="stroke" stroke-dasharray="150"><set attributeName="opacity" to="0" dur="7.800000000000001s" /><animate attributeName="stroke-dashoffset" from="150" to="0" dur="1.8s" begin="7.800000000000001s" fill="freeze" /></path><path d="M42.65,60.58c5.01-0.69,15.1-1.7,22.12-2.24c1.29-0.1,2.54-0.2,3.69-0.31" class="stroke" stroke-dasharray="150"><set attributeName="opacity" to="0" dur="8.8s" /><animate attributeName="stroke-dashoffset" from="150" to="0" dur="1.8s" begin="8.8s" fill="freeze" /></path><path d="M49.13,62.5c0.21,1.56-0.56,3.02-1.58,4.14c-4.67,5.11-9.92,9.11-18.49,13.86" class="stroke" stroke-dasharray="150"><set attributeName="opacity" to="0" dur="9.8s" /><animate attributeName="stroke-dashoffset" from="150" to="0" dur="1.8s" begin="9.8s" fill="freeze" /></path><path d="M51.09,66.7c0.98,0.98,1.43,1.67,1.43,3.08c0,3.46-0.01,8.12-0.01,12.09c0,1.16,0,2.25,0,3.25" class="stroke" stroke-dasharray="150"><set attributeName="opacity" to="0" dur="10.8s" /><animate attributeName="stroke-dashoffset" from="150" to="0" dur="1.8s" begin="10.8s" fill="freeze" /></path><path d="M71.59,63.21C71.5,64.12,71,65,69.97,66.04c-1.29,1.3-3.97,3.21-7.88,4.89" class="stroke" stroke-dasharray="150"><set attributeName="opacity" to="0" dur="11.700000000000001s" /><animate attributeName="stroke-dashoffset" from="150" to="0" dur="1.8s" begin="11.700000000000001s" fill="freeze" /></path><path d="M55.38,68c8.25,3.29,15.07,7.67,19.62,14.25" class="stroke" stroke-dasharray="150"><set attributeName="opacity" to="0" dur="12.600000000000001s" /><animate attributeName="stroke-dashoffset" from="150" to="0" dur="1.8s" begin="12.600000000000001s" fill="freeze" /></path><path d="M21,93.1c13.75-0.35,48.71-2.29,66.75-2.69" class="stroke" stroke-dasharray="150"><set attributeName="opacity" to="0" dur="13.600000000000001s" /><animate attributeName="stroke-dashoffset" from="150" to="0" dur="1.8s" begin="13.600000000000001s" fill="freeze" /></path><text x="90" y="120" id="reset">⟳</text><text x="70" y="120" id="pause">◼</text><script type="text/javascript"><![CDATA[function RecurringTimer(e,t){var n,r,i=t;this.pause=function(){window.clearTimeout(n);i-=new Date-r};var s=function(){r=new Date;n=window.setTimeout(function(){i=t;s();e()},i)};this.clear=function(){window.clearTimeout(n);i=t;n=window.setTimeout(function(){i=t;s();e()},i)};this.resume=s;this.resume()}function invoketimer(){timer=new RecurringTimer(function(){svg.setCurrentTime(0)},16100)}var svg=document.getElementById("kanjivg");var pause=document.getElementById("pause");var reset=document.getElementById("reset");var timer;invoketimer();reset.onclick=function(){svg.setCurrentTime(0);timer.clear();svg.unpauseAnimations();pause.innerHTML = "◼";};pause.onclick=function(){if(svg.animationsPaused()){svg.unpauseAnimations();timer.resume();pause.innerHTML="◼"}else{svg.pauseAnimations();timer.pause();pause.innerHTML="▶"}}]]></script></svg>