<svg id="kanjivg" width="106" height="126" xmlns="http://www.w3.org/2000/svg" xmlns:xlink="http://www.w3.org/1999/xlink" xml:space="preserve" version="1.1" baseProfile="full"><defs><style type="text/css"><![CDATA[path.black { fill:none;stroke:black;stroke-width:5;stroke-linecap:round;stroke-linejoin:round; }path.grey { fill:none;stroke:#ddd;stroke-width:5;stroke-linecap:round;stroke-linejoin:round; }path.stroke { fill:none;stroke:black;stroke-width:5;stroke-linecap:round;stroke-linejoin:round; }rect { fill:none;stroke:#555;stroke-width:2;} text{font-size:16px;font-family:Segoe UI Symbol,Cambria Math,DejaVu Sans,Symbola,Quivira,STIX,Code2000;-webkit-touch-callout:none;cursor:pointer;-webkit-user-select:none;-khtml-user-select:none;-moz-user-select:none;-ms-user-select:none;user-select: none;} #reset { font-weight:bold; }]]></style><marker id="markerStart" markerWidth="8" markerHeight="8" style="overflow:visible;"><circle cx="0" cy="0" r="1.5" style="stroke:none;fill:red;fill-opacity:0.5;"/></marker><marker id="markerEnd" style="overflow:visible;"><circle cx="0" cy="0" r="0.8" style="stroke:none;fill:blue;fill-opacity:0.5;"><animate attributeName="opacity" from="1" to="0" dur="3s" repeatCount="indefinite" /></circle></marker></defs><rect x="4" y="4" width="100" height="100" /><path d="M19.25,15.82c0.75,1.43,1.34,2.51,1.36,4.41c0.14,14.27,0.14,49.02-0.31,76.27" class="grey" /><path d="M20.73,17.65C38.75,16,72.25,14.5,84.75,14c2.75-0.11,3.55,2.49,3.5,5.5c-0.25,15.75,0.5,53,0.5,75.5" class="grey" /><path d="M32.79,27.21c0.88,0.35,2.5,0.47,3.37,0.35c12.82-1.73,22.67-2.61,35.15-3.53c1.46-0.11,2.35,0.17,3.08,0.34" class="grey" /><path d="M35.86,34.32c0.56,0.29,1.27,1.35,1.37,1.73c0.76,2.73,1.52,9.2,2.35,14.88" class="grey" /><path d="M38,35.36c8.49-0.55,26.13-3.31,31.92-3.39c2.4-0.04,2.59,0.86,2.41,2.35C71.98,37.25,71,43.19,69.09,48" class="grey" /><path d="M38.51,41.41c6.4-0.14,20.24-1.91,32.82-2.62" class="grey" /><path d="M39.63,49.08c7.44-0.57,20.28-2.64,29.96-2.64" class="grey" /><path d="M52.29,19c0.57,0.45,1.51,1.31,1.51,4.25c0,0.9-0.07,26.25-0.19,31.84" class="grey" /><path d="M31.42,58.64c0.56,0.84,2.01,1.28,2.81,1.22c2.63-0.2,29.63-4.98,34.54-5.83" class="grey" /><path d="M65.17,50.55c3.71,1.49,9.58,6.13,10.51,8.44" class="grey" /><path d="M27.7,68.97c1.22,0.62,3.45,0.74,4.69,0.62c11.42-1.14,34.77-3.84,45.65-4.77c2.03-0.17,3.26,0.29,4.28,0.6" class="grey" /><path d="M65.42,58.97c0.05,0.3,0.78,1.55,0.78,3.44c0,12.71-0.16,16.64-0.16,19.73c0,7.5-4.68,1.11-6.05,0.16" class="grey" /><path d="M41.77,74.82c3.02,1.2,7.81,4.95,8.57,6.82" class="grey" /><path d="M20.75,94.01c13.07,0,49.96-2.6,68-3.01" class="grey" /><path d="M19.25,15.82c0.75,1.43,1.34,2.51,1.36,4.41c0.14,14.27,0.14,49.02-0.31,76.27" class="stroke" stroke-dasharray="150"><animate attributeName="stroke-dashoffset" from="150" to="0" dur="1.8s" begin="0s" fill="freeze" /></path><path d="M20.73,17.65C38.75,16,72.25,14.5,84.75,14c2.75-0.11,3.55,2.49,3.5,5.5c-0.25,15.75,0.5,53,0.5,75.5" class="stroke" stroke-dasharray="150"><set attributeName="opacity" to="0" dur="1.7s" /><animate attributeName="stroke-dashoffset" from="150" to="0" dur="1.8s" begin="1.7s" fill="freeze" /></path><path d="M32.79,27.21c0.88,0.35,2.5,0.47,3.37,0.35c12.82-1.73,22.67-2.61,35.15-3.53c1.46-0.11,2.35,0.17,3.08,0.34" class="stroke" stroke-dasharray="150"><set attributeName="opacity" to="0" dur="3.7s" /><animate attributeName="stroke-dashoffset" from="150" to="0" dur="1.8s" begin="3.7s" fill="freeze" /></path><path d="M35.86,34.32c0.56,0.29,1.27,1.35,1.37,1.73c0.76,2.73,1.52,9.2,2.35,14.88" class="stroke" stroke-dasharray="150"><set attributeName="opacity" to="0" dur="4.800000000000001s" /><animate attributeName="stroke-dashoffset" from="150" to="0" dur="1.8s" begin="4.800000000000001s" fill="freeze" /></path><path d="M38,35.36c8.49-0.55,26.13-3.31,31.92-3.39c2.4-0.04,2.59,0.86,2.41,2.35C71.98,37.25,71,43.19,69.09,48" class="stroke" stroke-dasharray="150"><set attributeName="opacity" to="0" dur="5.700000000000001s" /><animate attributeName="stroke-dashoffset" from="150" to="0" dur="1.8s" begin="5.700000000000001s" fill="freeze" /></path><path d="M38.51,41.41c6.4-0.14,20.24-1.91,32.82-2.62" class="stroke" stroke-dasharray="150"><set attributeName="opacity" to="0" dur="7.000000000000001s" /><animate attributeName="stroke-dashoffset" from="150" to="0" dur="1.8s" begin="7.000000000000001s" fill="freeze" /></path><path d="M39.63,49.08c7.44-0.57,20.28-2.64,29.96-2.64" class="stroke" stroke-dasharray="150"><set attributeName="opacity" to="0" dur="8.0s" /><animate attributeName="stroke-dashoffset" from="150" to="0" dur="1.8s" begin="8.0s" fill="freeze" /></path><path d="M52.29,19c0.57,0.45,1.51,1.31,1.51,4.25c0,0.9-0.07,26.25-0.19,31.84" class="stroke" stroke-dasharray="150"><set attributeName="opacity" to="0" dur="9.0s" /><animate attributeName="stroke-dashoffset" from="150" to="0" dur="1.8s" begin="9.0s" fill="freeze" /></path><path d="M31.42,58.64c0.56,0.84,2.01,1.28,2.81,1.22c2.63-0.2,29.63-4.98,34.54-5.83" class="stroke" stroke-dasharray="150"><set attributeName="opacity" to="0" dur="10.0s" /><animate attributeName="stroke-dashoffset" from="150" to="0" dur="1.8s" begin="10.0s" fill="freeze" /></path><path d="M65.17,50.55c3.71,1.49,9.58,6.13,10.51,8.44" class="stroke" stroke-dasharray="150"><set attributeName="opacity" to="0" dur="11.0s" /><animate attributeName="stroke-dashoffset" from="150" to="0" dur="1.8s" begin="11.0s" fill="freeze" /></path><path d="M27.7,68.97c1.22,0.62,3.45,0.74,4.69,0.62c11.42-1.14,34.77-3.84,45.65-4.77c2.03-0.17,3.26,0.29,4.28,0.6" class="stroke" stroke-dasharray="150"><set attributeName="opacity" to="0" dur="11.9s" /><animate attributeName="stroke-dashoffset" from="150" to="0" dur="1.8s" begin="11.9s" fill="freeze" /></path><path d="M65.42,58.97c0.05,0.3,0.78,1.55,0.78,3.44c0,12.71-0.16,16.64-0.16,19.73c0,7.5-4.68,1.11-6.05,0.16" class="stroke" stroke-dasharray="150"><set attributeName="opacity" to="0" dur="13.3s" /><animate attributeName="stroke-dashoffset" from="150" to="0" dur="1.8s" begin="13.3s" fill="freeze" /></path><path d="M41.77,74.82c3.02,1.2,7.81,4.95,8.57,6.82" class="stroke" stroke-dasharray="150"><set attributeName="opacity" to="0" dur="14.3s" /><animate attributeName="stroke-dashoffset" from="150" to="0" dur="1.8s" begin="14.3s" fill="freeze" /></path><path d="M20.75,94.01c13.07,0,49.96-2.6,68-3.01" class="stroke" stroke-dasharray="150"><set attributeName="opacity" to="0" dur="15.200000000000001s" /><animate attributeName="stroke-dashoffset" from="150" to="0" dur="1.8s" begin="15.200000000000001s" fill="freeze" /></path><text x="90" y="120" id="reset">⟳</text><text x="70" y="120" id="pause">◼</text><script type="text/javascript"><![CDATA[function RecurringTimer(e,t){var n,r,i=t;this.pause=function(){window.clearTimeout(n);i-=new Date-r};var s=function(){r=new Date;n=window.setTimeout(function(){i=t;s();e()},i)};this.clear=function(){window.clearTimeout(n);i=t;n=window.setTimeout(function(){i=t;s();e()},i)};this.resume=s;this.resume()}function invoketimer(){timer=new RecurringTimer(function(){svg.setCurrentTime(0)},17700)}var svg=document.getElementById("kanjivg");var pause=document.getElementById("pause");var reset=document.getElementById("reset");var timer;invoketimer();reset.onclick=function(){svg.setCurrentTime(0);timer.clear();svg.unpauseAnimations();pause.innerHTML = "◼";};pause.onclick=function(){if(svg.animationsPaused()){svg.unpauseAnimations();timer.resume();pause.innerHTML="◼"}else{svg.pauseAnimations();timer.pause();pause.innerHTML="▶"}}]]></script></svg>