<svg id="kanjivg" width="106" height="126" xmlns="http://www.w3.org/2000/svg" xmlns:xlink="http://www.w3.org/1999/xlink" xml:space="preserve" version="1.1" baseProfile="full"><defs><style type="text/css"><![CDATA[path.black { fill:none;stroke:black;stroke-width:5;stroke-linecap:round;stroke-linejoin:round; }path.grey { fill:none;stroke:#ddd;stroke-width:5;stroke-linecap:round;stroke-linejoin:round; }path.stroke { fill:none;stroke:black;stroke-width:5;stroke-linecap:round;stroke-linejoin:round; }rect { fill:none;stroke:#555;stroke-width:2;} text{font-size:16px;font-family:Segoe UI Symbol,Cambria Math,DejaVu Sans,Symbola,Quivira,STIX,Code2000;-webkit-touch-callout:none;cursor:pointer;-webkit-user-select:none;-khtml-user-select:none;-moz-user-select:none;-ms-user-select:none;user-select: none;} #reset { font-weight:bold; }]]></style><marker id="markerStart" markerWidth="8" markerHeight="8" style="overflow:visible;"><circle cx="0" cy="0" r="1.5" style="stroke:none;fill:red;fill-opacity:0.5;"/></marker><marker id="markerEnd" style="overflow:visible;"><circle cx="0" cy="0" r="0.8" style="stroke:none;fill:blue;fill-opacity:0.5;"><animate attributeName="opacity" from="1" to="0" dur="3s" repeatCount="indefinite" /></circle></marker></defs><rect x="4" y="4" width="100" height="100" /><path d="M32.38,29.43c2.04,0.79,5.05,0.39,7.13,0.19c9.15-0.89,21.01-1.85,30.36-2.26c2.4-0.11,4.89-0.38,7.25,0.17" class="grey" /><path d="M53.17,13.62c0.92,0.92,1.27,2.02,1.27,3.89c0,12-0.07,20.38-0.07,29.12" class="grey" /><path d="M20.38,49.23c2.84,1.01,6.08,0.52,9,0.29c16.33-1.29,34.75-2.59,49.87-3.27c3.46-0.16,6.49-0.15,9.88,0.58" class="grey" /><path d="M31.88,70.43c1.99,0.77,4.96,0.41,7,0.19c9.75-1,23.62-2.32,33.37-2.78c2.13-0.1,4.28-0.3,6.38,0.19" class="grey" /><path d="M52.67,54.12c0.98,0.98,1.27,2.27,1.27,4.14c0,12-0.07,24.13-0.07,30.87" class="grey" /><path d="M17.63,91.48c3.87,1.02,7.76,0.63,11.37,0.37C45.73,90.62,64.88,89,84,88.76c3.51-0.04,6.92,0.07,10.38,0.81" class="grey" /><path d="M32.38,29.43c2.04,0.79,5.05,0.39,7.13,0.19c9.15-0.89,21.01-1.85,30.36-2.26c2.4-0.11,4.89-0.38,7.25,0.17" class="stroke" stroke-dasharray="150"><animate attributeName="stroke-dashoffset" from="150" to="0" dur="1.8s" begin="0s" fill="freeze" /></path><path d="M53.17,13.62c0.92,0.92,1.27,2.02,1.27,3.89c0,12-0.07,20.38-0.07,29.12" class="stroke" stroke-dasharray="150"><set attributeName="opacity" to="0" dur="1.1s" /><animate attributeName="stroke-dashoffset" from="150" to="0" dur="1.8s" begin="1.1s" fill="freeze" /></path><path d="M20.38,49.23c2.84,1.01,6.08,0.52,9,0.29c16.33-1.29,34.75-2.59,49.87-3.27c3.46-0.16,6.49-0.15,9.88,0.58" class="stroke" stroke-dasharray="150"><set attributeName="opacity" to="0" dur="2.1s" /><animate attributeName="stroke-dashoffset" from="150" to="0" dur="1.8s" begin="2.1s" fill="freeze" /></path><path d="M31.88,70.43c1.99,0.77,4.96,0.41,7,0.19c9.75-1,23.62-2.32,33.37-2.78c2.13-0.1,4.28-0.3,6.38,0.19" class="stroke" stroke-dasharray="150"><set attributeName="opacity" to="0" dur="3.6s" /><animate attributeName="stroke-dashoffset" from="150" to="0" dur="1.8s" begin="3.6s" fill="freeze" /></path><path d="M52.67,54.12c0.98,0.98,1.27,2.27,1.27,4.14c0,12-0.07,24.13-0.07,30.87" class="stroke" stroke-dasharray="150"><set attributeName="opacity" to="0" dur="4.8s" /><animate attributeName="stroke-dashoffset" from="150" to="0" dur="1.8s" begin="4.8s" fill="freeze" /></path><path d="M17.63,91.48c3.87,1.02,7.76,0.63,11.37,0.37C45.73,90.62,64.88,89,84,88.76c3.51-0.04,6.92,0.07,10.38,0.81" class="stroke" stroke-dasharray="150"><set attributeName="opacity" to="0" dur="5.8s" /><animate attributeName="stroke-dashoffset" from="150" to="0" dur="1.8s" begin="5.8s" fill="freeze" /></path><text x="90" y="120" id="reset">⟳</text><text x="70" y="120" id="pause">◼</text><script type="text/javascript"><![CDATA[function RecurringTimer(e,t){var n,r,i=t;this.pause=function(){window.clearTimeout(n);i-=new Date-r};var s=function(){r=new Date;n=window.setTimeout(function(){i=t;s();e()},i)};this.clear=function(){window.clearTimeout(n);i=t;n=window.setTimeout(function(){i=t;s();e()},i)};this.resume=s;this.resume()}function invoketimer(){timer=new RecurringTimer(function(){svg.setCurrentTime(0)},8500)}var svg=document.getElementById("kanjivg");var pause=document.getElementById("pause");var reset=document.getElementById("reset");var timer;invoketimer();reset.onclick=function(){svg.setCurrentTime(0);timer.clear();svg.unpauseAnimations();pause.innerHTML = "◼";};pause.onclick=function(){if(svg.animationsPaused()){svg.unpauseAnimations();timer.resume();pause.innerHTML="◼"}else{svg.pauseAnimations();timer.pause();pause.innerHTML="▶"}}]]></script></svg>