<svg id="kanjivg" width="106" height="126" xmlns="http://www.w3.org/2000/svg" xmlns:xlink="http://www.w3.org/1999/xlink" xml:space="preserve" version="1.1" baseProfile="full"><defs><style type="text/css"><![CDATA[path.black { fill:none;stroke:black;stroke-width:5;stroke-linecap:round;stroke-linejoin:round; }path.grey { fill:none;stroke:#ddd;stroke-width:5;stroke-linecap:round;stroke-linejoin:round; }path.stroke { fill:none;stroke:black;stroke-width:5;stroke-linecap:round;stroke-linejoin:round; }rect { fill:none;stroke:#555;stroke-width:2;} text{font-size:16px;font-family:Segoe UI Symbol,Cambria Math,DejaVu Sans,Symbola,Quivira,STIX,Code2000;-webkit-touch-callout:none;cursor:pointer;-webkit-user-select:none;-khtml-user-select:none;-moz-user-select:none;-ms-user-select:none;user-select: none;} #reset { font-weight:bold; }]]></style><marker id="markerStart" markerWidth="8" markerHeight="8" style="overflow:visible;"><circle cx="0" cy="0" r="1.5" style="stroke:none;fill:red;fill-opacity:0.5;"/></marker><marker id="markerEnd" style="overflow:visible;"><circle cx="0" cy="0" r="0.8" style="stroke:none;fill:blue;fill-opacity:0.5;"><animate attributeName="opacity" from="1" to="0" dur="3s" repeatCount="indefinite" /></circle></marker></defs><rect x="4" y="4" width="100" height="100" /><path d="M23.63,24.73c2.87,0.65,5.61,0.54,8.35,0.27c13.89-1.38,34.02-4.12,47.27-5.05c2.71-0.19,5.21-0.2,7.87,0.37" class="grey" /><path d="M26.99,25.75c1.01,1.01,1.4,2.5,1.4,4.26c0,13.26-2.14,46.11-17.58,63.21" class="grey" /><path d="M37.9,58.27c2.22,0.48,4.54,0.48,6.63,0.26c10.33-1.08,24.4-2.57,34.72-3.05c2.05-0.09,4.09-0.25,6.11,0.23" class="grey" /><path d="M59.07,32.87c0.91,0.91,1.6,2.14,1.6,3.84c0,14.8-0.08,38.05-0.08,51.31" class="grey" /><path d="M29.74,90.03c3.01,1.08,6.53,0.87,9.62,0.61c11.78-0.97,33.47-2.11,47.02-2.53c2.99-0.09,5.95,0,8.9,0.63" class="grey" /><path d="M23.63,24.73c2.87,0.65,5.61,0.54,8.35,0.27c13.89-1.38,34.02-4.12,47.27-5.05c2.71-0.19,5.21-0.2,7.87,0.37" class="stroke" stroke-dasharray="150"><animate attributeName="stroke-dashoffset" from="150" to="0" dur="1.8s" begin="0s" fill="freeze" /></path><path d="M26.99,25.75c1.01,1.01,1.4,2.5,1.4,4.26c0,13.26-2.14,46.11-17.58,63.21" class="stroke" stroke-dasharray="150"><set attributeName="opacity" to="0" dur="1.5s" /><animate attributeName="stroke-dashoffset" from="150" to="0" dur="1.8s" begin="1.5s" fill="freeze" /></path><path d="M37.9,58.27c2.22,0.48,4.54,0.48,6.63,0.26c10.33-1.08,24.4-2.57,34.72-3.05c2.05-0.09,4.09-0.25,6.11,0.23" class="stroke" stroke-dasharray="150"><set attributeName="opacity" to="0" dur="3.2s" /><animate attributeName="stroke-dashoffset" from="150" to="0" dur="1.8s" begin="3.2s" fill="freeze" /></path><path d="M59.07,32.87c0.91,0.91,1.6,2.14,1.6,3.84c0,14.8-0.08,38.05-0.08,51.31" class="stroke" stroke-dasharray="150"><set attributeName="opacity" to="0" dur="4.4s" /><animate attributeName="stroke-dashoffset" from="150" to="0" dur="1.8s" begin="4.4s" fill="freeze" /></path><path d="M29.74,90.03c3.01,1.08,6.53,0.87,9.62,0.61c11.78-0.97,33.47-2.11,47.02-2.53c2.99-0.09,5.95,0,8.9,0.63" class="stroke" stroke-dasharray="150"><set attributeName="opacity" to="0" dur="5.800000000000001s" /><animate attributeName="stroke-dashoffset" from="150" to="0" dur="1.8s" begin="5.800000000000001s" fill="freeze" /></path><text x="90" y="120" id="reset">⟳</text><text x="70" y="120" id="pause">◼</text><script type="text/javascript"><![CDATA[function RecurringTimer(e,t){var n,r,i=t;this.pause=function(){window.clearTimeout(n);i-=new Date-r};var s=function(){r=new Date;n=window.setTimeout(function(){i=t;s();e()},i)};this.clear=function(){window.clearTimeout(n);i=t;n=window.setTimeout(function(){i=t;s();e()},i)};this.resume=s;this.resume()}function invoketimer(){timer=new RecurringTimer(function(){svg.setCurrentTime(0)},8300)}var svg=document.getElementById("kanjivg");var pause=document.getElementById("pause");var reset=document.getElementById("reset");var timer;invoketimer();reset.onclick=function(){svg.setCurrentTime(0);timer.clear();svg.unpauseAnimations();pause.innerHTML = "◼";};pause.onclick=function(){if(svg.animationsPaused()){svg.unpauseAnimations();timer.resume();pause.innerHTML="◼"}else{svg.pauseAnimations();timer.pause();pause.innerHTML="▶"}}]]></script></svg>