<svg id="kanjivg" width="106" height="126" xmlns="http://www.w3.org/2000/svg" xmlns:xlink="http://www.w3.org/1999/xlink" xml:space="preserve" version="1.1" baseProfile="full"><defs><style type="text/css"><![CDATA[path.black { fill:none;stroke:black;stroke-width:5;stroke-linecap:round;stroke-linejoin:round; }path.grey { fill:none;stroke:#ddd;stroke-width:5;stroke-linecap:round;stroke-linejoin:round; }path.stroke { fill:none;stroke:black;stroke-width:5;stroke-linecap:round;stroke-linejoin:round; }rect { fill:none;stroke:#555;stroke-width:2;} text{font-size:16px;font-family:Segoe UI Symbol,Cambria Math,DejaVu Sans,Symbola,Quivira,STIX,Code2000;-webkit-touch-callout:none;cursor:pointer;-webkit-user-select:none;-khtml-user-select:none;-moz-user-select:none;-ms-user-select:none;user-select: none;} #reset { font-weight:bold; }]]></style><marker id="markerStart" markerWidth="8" markerHeight="8" style="overflow:visible;"><circle cx="0" cy="0" r="1.5" style="stroke:none;fill:red;fill-opacity:0.5;"/></marker><marker id="markerEnd" style="overflow:visible;"><circle cx="0" cy="0" r="0.8" style="stroke:none;fill:blue;fill-opacity:0.5;"><animate attributeName="opacity" from="1" to="0" dur="3s" repeatCount="indefinite" /></circle></marker></defs><rect x="4" y="4" width="100" height="100" /><path d="M23.468618,18.016316C25.61825,18.353763,28.401108,18.343218,32.700372,17.826502C36.516386,17.373057,59.295823,14.209492,66.494591,12.986246C71.760357,12.089903,75.959639,12.944065,73.276764,16.856342C58.529287,38.379134,40.732332,50.347957,16.136539,59.596114" class="grey" /><path d="M25.551595,27.412106C31.850518,28.055364,58.096028,40.61472,81.475362,51.254846C86.974421,53.764608,91.223694,55.504569,96.639434,56.432549" class="grey" /><path d="M22.902048,73.220537C27.267968,73.969248,30.667387,73.557984,34.150124,73.315444C50.713957,72.15547,59.19584,71.079858,76.00963,70.668594C79.325729,70.584233,82.55851,70.499871,85.807954,70.974406" class="grey" /><path d="M50.464,55.504569C51.997071,56.47473,52.980236,57.898334,52.9969,59.87029C53.096883,71.997292,52.813598,87.625306,52.813598,90.831053" class="grey" /><path d="M9.5709956,92.919006C12.853767,93.657172,18.902733,93.846986,22.185504,93.657172C44.215069,92.423381,70.710537,91.432131,87.840939,91.474311C93.323335,91.484857,96.606107,91.822304,99.355636,92.201931" class="grey" /><path d="M23.468618,18.016316C25.61825,18.353763,28.401108,18.343218,32.700372,17.826502C36.516386,17.373057,59.295823,14.209492,66.494591,12.986246C71.760357,12.089903,75.959639,12.944065,73.276764,16.856342C58.529287,38.379134,40.732332,50.347957,16.136539,59.596114" class="stroke" stroke-dasharray="150"><animate attributeName="stroke-dashoffset" from="150" to="0" dur="1.8s" begin="0s" fill="freeze" /></path><path d="M25.551595,27.412106C31.850518,28.055364,58.096028,40.61472,81.475362,51.254846C86.974421,53.764608,91.223694,55.504569,96.639434,56.432549" class="stroke" stroke-dasharray="150"><set attributeName="opacity" to="0" dur="2.0s" /><animate attributeName="stroke-dashoffset" from="150" to="0" dur="1.8s" begin="2.0s" fill="freeze" /></path><path d="M22.902048,73.220537C27.267968,73.969248,30.667387,73.557984,34.150124,73.315444C50.713957,72.15547,59.19584,71.079858,76.00963,70.668594C79.325729,70.584233,82.55851,70.499871,85.807954,70.974406" class="stroke" stroke-dasharray="150"><set attributeName="opacity" to="0" dur="3.7s" /><animate attributeName="stroke-dashoffset" from="150" to="0" dur="1.8s" begin="3.7s" fill="freeze" /></path><path d="M50.464,55.504569C51.997071,56.47473,52.980236,57.898334,52.9969,59.87029C53.096883,71.997292,52.813598,87.625306,52.813598,90.831053" class="stroke" stroke-dasharray="150"><set attributeName="opacity" to="0" dur="5.2s" /><animate attributeName="stroke-dashoffset" from="150" to="0" dur="1.8s" begin="5.2s" fill="freeze" /></path><path d="M9.5709956,92.919006C12.853767,93.657172,18.902733,93.846986,22.185504,93.657172C44.215069,92.423381,70.710537,91.432131,87.840939,91.474311C93.323335,91.484857,96.606107,91.822304,99.355636,92.201931" class="stroke" stroke-dasharray="150"><set attributeName="opacity" to="0" dur="6.2s" /><animate attributeName="stroke-dashoffset" from="150" to="0" dur="1.8s" begin="6.2s" fill="freeze" /></path><text x="90" y="120" id="reset">⟳</text><text x="70" y="120" id="pause">◼</text><script type="text/javascript"><![CDATA[function RecurringTimer(e,t){var n,r,i=t;this.pause=function(){window.clearTimeout(n);i-=new Date-r};var s=function(){r=new Date;n=window.setTimeout(function(){i=t;s();e()},i)};this.clear=function(){window.clearTimeout(n);i=t;n=window.setTimeout(function(){i=t;s();e()},i)};this.resume=s;this.resume()}function invoketimer(){timer=new RecurringTimer(function(){svg.setCurrentTime(0)},8900)}var svg=document.getElementById("kanjivg");var pause=document.getElementById("pause");var reset=document.getElementById("reset");var timer;invoketimer();reset.onclick=function(){svg.setCurrentTime(0);timer.clear();svg.unpauseAnimations();pause.innerHTML = "◼";};pause.onclick=function(){if(svg.animationsPaused()){svg.unpauseAnimations();timer.resume();pause.innerHTML="◼"}else{svg.pauseAnimations();timer.pause();pause.innerHTML="▶"}}]]></script></svg>