<svg id="kanjivg" width="106" height="126" xmlns="http://www.w3.org/2000/svg" xmlns:xlink="http://www.w3.org/1999/xlink" xml:space="preserve" version="1.1" baseProfile="full"><defs><style type="text/css"><![CDATA[path.black { fill:none;stroke:black;stroke-width:5;stroke-linecap:round;stroke-linejoin:round; }path.grey { fill:none;stroke:#ddd;stroke-width:5;stroke-linecap:round;stroke-linejoin:round; }path.stroke { fill:none;stroke:black;stroke-width:5;stroke-linecap:round;stroke-linejoin:round; }rect { fill:none;stroke:#555;stroke-width:2;} text{font-size:16px;font-family:Segoe UI Symbol,Cambria Math,DejaVu Sans,Symbola,Quivira,STIX,Code2000;-webkit-touch-callout:none;cursor:pointer;-webkit-user-select:none;-khtml-user-select:none;-moz-user-select:none;-ms-user-select:none;user-select: none;} #reset { font-weight:bold; }]]></style><marker id="markerStart" markerWidth="8" markerHeight="8" style="overflow:visible;"><circle cx="0" cy="0" r="1.5" style="stroke:none;fill:red;fill-opacity:0.5;"/></marker><marker id="markerEnd" style="overflow:visible;"><circle cx="0" cy="0" r="0.8" style="stroke:none;fill:blue;fill-opacity:0.5;"><animate attributeName="opacity" from="1" to="0" dur="3s" repeatCount="indefinite" /></circle></marker></defs><rect x="4" y="4" width="100" height="100" /><path d="M20.5,35.15c2.88,0.72,5.21,0.5,7.88,0.25c11.68-1.09,38.58-3.88,50.74-4.87c2.44-0.2,5.88-0.04,7.88,0.34" class="grey" /><path d="M53.89,12.68c0.73,1.57,0.52,3.29,0.03,5.39C50.26,33.6,38.95,58.41,14.89,74.4" class="grey" /><path d="M27.46,53.75c0.77,0.77,1.32,2.12,1.32,3.43c0,0.55-0.06,23.07-0.06,35.33c0,2.83-0.05,4.92-0.08,5.74" class="grey" /><path d="M43.44,67.81c1.62,0.6,4.13,0.38,5.81,0.2c8.73-0.94,22.01-2.56,30.75-3.1c1.83-0.12,3.93-0.03,5.74,0.37" class="grey" /><path d="M63.8,44.37c0.98,0.98,2,2.69,2,4.45c0,11.34-0.11,26.89-0.11,41.89" class="grey" /><path d="M37.24,92.9c3.01,0.47,5.55,0.53,8.13,0.32c11.8-0.94,27.75-2.6,40.5-2.85c2.9-0.06,5.78,0.04,8.64,0.63" class="grey" /><path d="M20.5,35.15c2.88,0.72,5.21,0.5,7.88,0.25c11.68-1.09,38.58-3.88,50.74-4.87c2.44-0.2,5.88-0.04,7.88,0.34" class="stroke" stroke-dasharray="150"><animate attributeName="stroke-dashoffset" from="150" to="0" dur="1.8s" begin="0s" fill="freeze" /></path><path d="M53.89,12.68c0.73,1.57,0.52,3.29,0.03,5.39C50.26,33.6,38.95,58.41,14.89,74.4" class="stroke" stroke-dasharray="150"><set attributeName="opacity" to="0" dur="1.5s" /><animate attributeName="stroke-dashoffset" from="150" to="0" dur="1.8s" begin="1.5s" fill="freeze" /></path><path d="M27.46,53.75c0.77,0.77,1.32,2.12,1.32,3.43c0,0.55-0.06,23.07-0.06,35.33c0,2.83-0.05,4.92-0.08,5.74" class="stroke" stroke-dasharray="150"><set attributeName="opacity" to="0" dur="3.2s" /><animate attributeName="stroke-dashoffset" from="150" to="0" dur="1.8s" begin="3.2s" fill="freeze" /></path><path d="M43.44,67.81c1.62,0.6,4.13,0.38,5.81,0.2c8.73-0.94,22.01-2.56,30.75-3.1c1.83-0.12,3.93-0.03,5.74,0.37" class="stroke" stroke-dasharray="150"><set attributeName="opacity" to="0" dur="4.300000000000001s" /><animate attributeName="stroke-dashoffset" from="150" to="0" dur="1.8s" begin="4.300000000000001s" fill="freeze" /></path><path d="M63.8,44.37c0.98,0.98,2,2.69,2,4.45c0,11.34-0.11,26.89-0.11,41.89" class="stroke" stroke-dasharray="150"><set attributeName="opacity" to="0" dur="5.4s" /><animate attributeName="stroke-dashoffset" from="150" to="0" dur="1.8s" begin="5.4s" fill="freeze" /></path><path d="M37.24,92.9c3.01,0.47,5.55,0.53,8.13,0.32c11.8-0.94,27.75-2.6,40.5-2.85c2.9-0.06,5.78,0.04,8.64,0.63" class="stroke" stroke-dasharray="150"><set attributeName="opacity" to="0" dur="6.6000000000000005s" /><animate attributeName="stroke-dashoffset" from="150" to="0" dur="1.8s" begin="6.6000000000000005s" fill="freeze" /></path><text x="90" y="120" id="reset">⟳</text><text x="70" y="120" id="pause">◼</text><script type="text/javascript"><![CDATA[function RecurringTimer(e,t){var n,r,i=t;this.pause=function(){window.clearTimeout(n);i-=new Date-r};var s=function(){r=new Date;n=window.setTimeout(function(){i=t;s();e()},i)};this.clear=function(){window.clearTimeout(n);i=t;n=window.setTimeout(function(){i=t;s();e()},i)};this.resume=s;this.resume()}function invoketimer(){timer=new RecurringTimer(function(){svg.setCurrentTime(0)},9000)}var svg=document.getElementById("kanjivg");var pause=document.getElementById("pause");var reset=document.getElementById("reset");var timer;invoketimer();reset.onclick=function(){svg.setCurrentTime(0);timer.clear();svg.unpauseAnimations();pause.innerHTML = "◼";};pause.onclick=function(){if(svg.animationsPaused()){svg.unpauseAnimations();timer.resume();pause.innerHTML="◼"}else{svg.pauseAnimations();timer.pause();pause.innerHTML="▶"}}]]></script></svg>