<svg id="kanjivg" width="106" height="126" xmlns="http://www.w3.org/2000/svg" xmlns:xlink="http://www.w3.org/1999/xlink" xml:space="preserve" version="1.1" baseProfile="full"><defs><style type="text/css"><![CDATA[path.black { fill:none;stroke:black;stroke-width:5;stroke-linecap:round;stroke-linejoin:round; }path.grey { fill:none;stroke:#ddd;stroke-width:5;stroke-linecap:round;stroke-linejoin:round; }path.stroke { fill:none;stroke:black;stroke-width:5;stroke-linecap:round;stroke-linejoin:round; }rect { fill:none;stroke:#555;stroke-width:2;} text{font-size:16px;font-family:Segoe UI Symbol,Cambria Math,DejaVu Sans,Symbola,Quivira,STIX,Code2000;-webkit-touch-callout:none;cursor:pointer;-webkit-user-select:none;-khtml-user-select:none;-moz-user-select:none;-ms-user-select:none;user-select: none;} #reset { font-weight:bold; }]]></style><marker id="markerStart" markerWidth="8" markerHeight="8" style="overflow:visible;"><circle cx="0" cy="0" r="1.5" style="stroke:none;fill:red;fill-opacity:0.5;"/></marker><marker id="markerEnd" style="overflow:visible;"><circle cx="0" cy="0" r="0.8" style="stroke:none;fill:blue;fill-opacity:0.5;"><animate attributeName="opacity" from="1" to="0" dur="3s" repeatCount="indefinite" /></circle></marker></defs><rect x="4" y="4" width="100" height="100" /><path d="M10.5,48.14c0.76,0.38,2.24,0.39,3,0.36c7-0.25,19.15-2.89,24.5-3.5c1.25-0.14,2.62-0.18,3.25,0.01" class="grey" /><path d="M25.37,23c1.09,0.5,1.96,2.73,1.96,3.75c0,7.25,0.03,38.25,0.03,49" class="grey" /><path d="M12,82.92c0.74,1.08,2.21,1.65,4.42,0.23c6.14-3.94,17.19-10.97,23.33-14.91" class="grey" /><path d="M68.81,15.38c0.76,0.45,2.01,2.12,2.01,4.25c0,0.91-0.1,62.65-0.25,68.25" class="grey" /><path d="M50.31,47.88c0.76,0.45,1.59,2.34,1.51,3.25c-0.57,7.12-1.07,24.62-2.5,36.5c-0.25,2.05,0.63,3.63,2.5,3.25c12.93-2.63,31.5-4.25,41-4.5" class="grey" /><path d="M92.81,43.63c0.76,0.45,1.55,3.34,1.51,4.25C94,55,93.5,78.25,93.07,89.88" class="grey" /><path d="M10.5,48.14c0.76,0.38,2.24,0.39,3,0.36c7-0.25,19.15-2.89,24.5-3.5c1.25-0.14,2.62-0.18,3.25,0.01" class="stroke" stroke-dasharray="150"><animate attributeName="stroke-dashoffset" from="150" to="0" dur="1.8s" begin="0s" fill="freeze" /></path><path d="M25.37,23c1.09,0.5,1.96,2.73,1.96,3.75c0,7.25,0.03,38.25,0.03,49" class="stroke" stroke-dasharray="150"><set attributeName="opacity" to="0" dur="1.0s" /><animate attributeName="stroke-dashoffset" from="150" to="0" dur="1.8s" begin="1.0s" fill="freeze" /></path><path d="M12,82.92c0.74,1.08,2.21,1.65,4.42,0.23c6.14-3.94,17.19-10.97,23.33-14.91" class="stroke" stroke-dasharray="150"><set attributeName="opacity" to="0" dur="2.3s" /><animate attributeName="stroke-dashoffset" from="150" to="0" dur="1.8s" begin="2.3s" fill="freeze" /></path><path d="M68.81,15.38c0.76,0.45,2.01,2.12,2.01,4.25c0,0.91-0.1,62.65-0.25,68.25" class="stroke" stroke-dasharray="150"><set attributeName="opacity" to="0" dur="3.3s" /><animate attributeName="stroke-dashoffset" from="150" to="0" dur="1.8s" begin="3.3s" fill="freeze" /></path><path d="M50.31,47.88c0.76,0.45,1.59,2.34,1.51,3.25c-0.57,7.12-1.07,24.62-2.5,36.5c-0.25,2.05,0.63,3.63,2.5,3.25c12.93-2.63,31.5-4.25,41-4.5" class="stroke" stroke-dasharray="150"><set attributeName="opacity" to="0" dur="5.0s" /><animate attributeName="stroke-dashoffset" from="150" to="0" dur="1.8s" begin="5.0s" fill="freeze" /></path><path d="M92.81,43.63c0.76,0.45,1.55,3.34,1.51,4.25C94,55,93.5,78.25,93.07,89.88" class="stroke" stroke-dasharray="150"><set attributeName="opacity" to="0" dur="6.7s" /><animate attributeName="stroke-dashoffset" from="150" to="0" dur="1.8s" begin="6.7s" fill="freeze" /></path><text x="90" y="120" id="reset">⟳</text><text x="70" y="120" id="pause">◼</text><script type="text/javascript"><![CDATA[function RecurringTimer(e,t){var n,r,i=t;this.pause=function(){window.clearTimeout(n);i-=new Date-r};var s=function(){r=new Date;n=window.setTimeout(function(){i=t;s();e()},i)};this.clear=function(){window.clearTimeout(n);i=t;n=window.setTimeout(function(){i=t;s();e()},i)};this.resume=s;this.resume()}function invoketimer(){timer=new RecurringTimer(function(){svg.setCurrentTime(0)},8900)}var svg=document.getElementById("kanjivg");var pause=document.getElementById("pause");var reset=document.getElementById("reset");var timer;invoketimer();reset.onclick=function(){svg.setCurrentTime(0);timer.clear();svg.unpauseAnimations();pause.innerHTML = "◼";};pause.onclick=function(){if(svg.animationsPaused()){svg.unpauseAnimations();timer.resume();pause.innerHTML="◼"}else{svg.pauseAnimations();timer.pause();pause.innerHTML="▶"}}]]></script></svg>