<svg id="kanjivg" width="106" height="126" xmlns="http://www.w3.org/2000/svg" xmlns:xlink="http://www.w3.org/1999/xlink" xml:space="preserve" version="1.1" baseProfile="full"><defs><style type="text/css"><![CDATA[path.black { fill:none;stroke:black;stroke-width:5;stroke-linecap:round;stroke-linejoin:round; }path.grey { fill:none;stroke:#ddd;stroke-width:5;stroke-linecap:round;stroke-linejoin:round; }path.stroke { fill:none;stroke:black;stroke-width:5;stroke-linecap:round;stroke-linejoin:round; }rect { fill:none;stroke:#555;stroke-width:2;} text{font-size:16px;font-family:Segoe UI Symbol,Cambria Math,DejaVu Sans,Symbola,Quivira,STIX,Code2000;-webkit-touch-callout:none;cursor:pointer;-webkit-user-select:none;-khtml-user-select:none;-moz-user-select:none;-ms-user-select:none;user-select: none;} #reset { font-weight:bold; }]]></style><marker id="markerStart" markerWidth="8" markerHeight="8" style="overflow:visible;"><circle cx="0" cy="0" r="1.5" style="stroke:none;fill:red;fill-opacity:0.5;"/></marker><marker id="markerEnd" style="overflow:visible;"><circle cx="0" cy="0" r="0.8" style="stroke:none;fill:blue;fill-opacity:0.5;"><animate attributeName="opacity" from="1" to="0" dur="3s" repeatCount="indefinite" /></circle></marker></defs><rect x="4" y="4" width="100" height="100" /><path d="M13.5,46.64c0.86,0.38,3.05,0.46,3.9,0.36c5.46-0.66,17.09-2.89,23.16-3.5c1.42-0.14,2.97-0.18,3.69,0.01" class="grey" /><path d="M27.87,20c1.09,0.5,1.96,2.23,1.96,3.25c0,7.25,0.03,40.25,0.03,51" class="grey" /><path d="M13.5,80.79c0.75,0.96,2.25,1.46,4.5,0.21c6.25-3.5,17.5-9.75,23.75-13.25" class="grey" /><path d="M84.27,13c0.07,0.35,0.32,1.04-0.15,1.41c-6.48,5.17-15.76,9.58-29.43,14.03" class="grey" /><path d="M51.73,26.33c0.71,1.98,0.69,3.87,0.69,6.03c0,23.14,2.33,43.14-10.12,57.66" class="grey" /><path d="M53.09,46.85c0.54,0.2,2.65,0.34,4.07,0.12c7.86-1.26,25.59-3.59,34.52-4.21c1.44-0.1,3.92-0.2,4.82,0" class="grey" /><path d="M75.68,46.98c0.94,0.63,1.5,2.84,1.69,4.1c0.19,1.26,0,41.04-0.19,48.92" class="grey" /><path d="M13.5,46.64c0.86,0.38,3.05,0.46,3.9,0.36c5.46-0.66,17.09-2.89,23.16-3.5c1.42-0.14,2.97-0.18,3.69,0.01" class="stroke" stroke-dasharray="150"><animate attributeName="stroke-dashoffset" from="150" to="0" dur="1.8s" begin="0s" fill="freeze" /></path><path d="M27.87,20c1.09,0.5,1.96,2.23,1.96,3.25c0,7.25,0.03,40.25,0.03,51" class="stroke" stroke-dasharray="150"><set attributeName="opacity" to="0" dur="1.0s" /><animate attributeName="stroke-dashoffset" from="150" to="0" dur="1.8s" begin="1.0s" fill="freeze" /></path><path d="M13.5,80.79c0.75,0.96,2.25,1.46,4.5,0.21c6.25-3.5,17.5-9.75,23.75-13.25" class="stroke" stroke-dasharray="150"><set attributeName="opacity" to="0" dur="2.3s" /><animate attributeName="stroke-dashoffset" from="150" to="0" dur="1.8s" begin="2.3s" fill="freeze" /></path><path d="M84.27,13c0.07,0.35,0.32,1.04-0.15,1.41c-6.48,5.17-15.76,9.58-29.43,14.03" class="stroke" stroke-dasharray="150"><set attributeName="opacity" to="0" dur="3.3s" /><animate attributeName="stroke-dashoffset" from="150" to="0" dur="1.8s" begin="3.3s" fill="freeze" /></path><path d="M51.73,26.33c0.71,1.98,0.69,3.87,0.69,6.03c0,23.14,2.33,43.14-10.12,57.66" class="stroke" stroke-dasharray="150"><set attributeName="opacity" to="0" dur="4.3s" /><animate attributeName="stroke-dashoffset" from="150" to="0" dur="1.8s" begin="4.3s" fill="freeze" /></path><path d="M53.09,46.85c0.54,0.2,2.65,0.34,4.07,0.12c7.86-1.26,25.59-3.59,34.52-4.21c1.44-0.1,3.92-0.2,4.82,0" class="stroke" stroke-dasharray="150"><set attributeName="opacity" to="0" dur="5.8s" /><animate attributeName="stroke-dashoffset" from="150" to="0" dur="1.8s" begin="5.8s" fill="freeze" /></path><path d="M75.68,46.98c0.94,0.63,1.5,2.84,1.69,4.1c0.19,1.26,0,41.04-0.19,48.92" class="stroke" stroke-dasharray="150"><set attributeName="opacity" to="0" dur="6.9s" /><animate attributeName="stroke-dashoffset" from="150" to="0" dur="1.8s" begin="6.9s" fill="freeze" /></path><text x="90" y="120" id="reset">⟳</text><text x="70" y="120" id="pause">◼</text><script type="text/javascript"><![CDATA[function RecurringTimer(e,t){var n,r,i=t;this.pause=function(){window.clearTimeout(n);i-=new Date-r};var s=function(){r=new Date;n=window.setTimeout(function(){i=t;s();e()},i)};this.clear=function(){window.clearTimeout(n);i=t;n=window.setTimeout(function(){i=t;s();e()},i)};this.resume=s;this.resume()}function invoketimer(){timer=new RecurringTimer(function(){svg.setCurrentTime(0)},9200)}var svg=document.getElementById("kanjivg");var pause=document.getElementById("pause");var reset=document.getElementById("reset");var timer;invoketimer();reset.onclick=function(){svg.setCurrentTime(0);timer.clear();svg.unpauseAnimations();pause.innerHTML = "◼";};pause.onclick=function(){if(svg.animationsPaused()){svg.unpauseAnimations();timer.resume();pause.innerHTML="◼"}else{svg.pauseAnimations();timer.pause();pause.innerHTML="▶"}}]]></script></svg>