<svg id="kanjivg" width="106" height="126" xmlns="http://www.w3.org/2000/svg" xmlns:xlink="http://www.w3.org/1999/xlink" xml:space="preserve" version="1.1" baseProfile="full"><defs><style type="text/css"><![CDATA[path.black { fill:none;stroke:black;stroke-width:5;stroke-linecap:round;stroke-linejoin:round; }path.grey { fill:none;stroke:#ddd;stroke-width:5;stroke-linecap:round;stroke-linejoin:round; }path.stroke { fill:none;stroke:black;stroke-width:5;stroke-linecap:round;stroke-linejoin:round; }rect { fill:none;stroke:#555;stroke-width:2;} text{font-size:16px;font-family:Segoe UI Symbol,Cambria Math,DejaVu Sans,Symbola,Quivira,STIX,Code2000;-webkit-touch-callout:none;cursor:pointer;-webkit-user-select:none;-khtml-user-select:none;-moz-user-select:none;-ms-user-select:none;user-select: none;} #reset { font-weight:bold; }]]></style><marker id="markerStart" markerWidth="8" markerHeight="8" style="overflow:visible;"><circle cx="0" cy="0" r="1.5" style="stroke:none;fill:red;fill-opacity:0.5;"/></marker><marker id="markerEnd" style="overflow:visible;"><circle cx="0" cy="0" r="0.8" style="stroke:none;fill:blue;fill-opacity:0.5;"><animate attributeName="opacity" from="1" to="0" dur="3s" repeatCount="indefinite" /></circle></marker></defs><rect x="4" y="4" width="100" height="100" /><path d="M11.5,49.5c1.71,0.69,3.51,0.56,5.24,0.2c5.76-1.2,13.37-2.96,19.65-4.7c1.6-0.44,3.08-0.5,4.12-0.25" class="grey" /><path d="M25.37,26.25c1.09,0.5,1.74,2.25,1.96,3.25c0.18,0.82-0.18,43.4-0.22,44.5" class="grey" /><path d="M11,82.02c1.25,1.23,3.36,1.32,6-0.37c1.56-1,15.12-9.36,21.75-14.15" class="grey" /><path d="M41,53.06c2.12,0.69,4.88,0.69,7.38-0.04c11.34-3.34,29.47-9.63,37.12-12.26c3.51-1.21,5.25,0.75,4.76,3.61c-0.93,5.4-3.34,11.85-5.26,15.89c-2.5,5.25-5.62,2.75-7.75,0" class="grey" /><path d="M66.25,18c1.19,1.19,2,2.88,2,4.5c0,8.5,0.07,29.73-0.12,43.25c-0.04,2.91-0.09,4.64-0.13,5.75" class="grey" /><path d="M49.49,37.62c1.26,1.26,2.02,3.13,2.02,4.85c0,8.57-0.38,20.78-0.38,28.03c0,16.5,0.87,19,22.37,19c20,0,20.64-1.75,20.64-13.07" class="grey" /><path d="M11.5,49.5c1.71,0.69,3.51,0.56,5.24,0.2c5.76-1.2,13.37-2.96,19.65-4.7c1.6-0.44,3.08-0.5,4.12-0.25" class="stroke" stroke-dasharray="150"><animate attributeName="stroke-dashoffset" from="150" to="0" dur="1.8s" begin="0s" fill="freeze" /></path><path d="M25.37,26.25c1.09,0.5,1.74,2.25,1.96,3.25c0.18,0.82-0.18,43.4-0.22,44.5" class="stroke" stroke-dasharray="150"><set attributeName="opacity" to="0" dur="1.0s" /><animate attributeName="stroke-dashoffset" from="150" to="0" dur="1.8s" begin="1.0s" fill="freeze" /></path><path d="M11,82.02c1.25,1.23,3.36,1.32,6-0.37c1.56-1,15.12-9.36,21.75-14.15" class="stroke" stroke-dasharray="150"><set attributeName="opacity" to="0" dur="2.2s" /><animate attributeName="stroke-dashoffset" from="150" to="0" dur="1.8s" begin="2.2s" fill="freeze" /></path><path d="M41,53.06c2.12,0.69,4.88,0.69,7.38-0.04c11.34-3.34,29.47-9.63,37.12-12.26c3.51-1.21,5.25,0.75,4.76,3.61c-0.93,5.4-3.34,11.85-5.26,15.89c-2.5,5.25-5.62,2.75-7.75,0" class="stroke" stroke-dasharray="150"><set attributeName="opacity" to="0" dur="3.2s" /><animate attributeName="stroke-dashoffset" from="150" to="0" dur="1.8s" begin="3.2s" fill="freeze" /></path><path d="M66.25,18c1.19,1.19,2,2.88,2,4.5c0,8.5,0.07,29.73-0.12,43.25c-0.04,2.91-0.09,4.64-0.13,5.75" class="stroke" stroke-dasharray="150"><set attributeName="opacity" to="0" dur="4.9s" /><animate attributeName="stroke-dashoffset" from="150" to="0" dur="1.8s" begin="4.9s" fill="freeze" /></path><path d="M49.49,37.62c1.26,1.26,2.02,3.13,2.02,4.85c0,8.57-0.38,20.78-0.38,28.03c0,16.5,0.87,19,22.37,19c20,0,20.64-1.75,20.64-13.07" class="stroke" stroke-dasharray="150"><set attributeName="opacity" to="0" dur="6.2s" /><animate attributeName="stroke-dashoffset" from="150" to="0" dur="1.8s" begin="6.2s" fill="freeze" /></path><text x="90" y="120" id="reset">⟳</text><text x="70" y="120" id="pause">◼</text><script type="text/javascript"><![CDATA[function RecurringTimer(e,t){var n,r,i=t;this.pause=function(){window.clearTimeout(n);i-=new Date-r};var s=function(){r=new Date;n=window.setTimeout(function(){i=t;s();e()},i)};this.clear=function(){window.clearTimeout(n);i=t;n=window.setTimeout(function(){i=t;s();e()},i)};this.resume=s;this.resume()}function invoketimer(){timer=new RecurringTimer(function(){svg.setCurrentTime(0)},9000)}var svg=document.getElementById("kanjivg");var pause=document.getElementById("pause");var reset=document.getElementById("reset");var timer;invoketimer();reset.onclick=function(){svg.setCurrentTime(0);timer.clear();svg.unpauseAnimations();pause.innerHTML = "◼";};pause.onclick=function(){if(svg.animationsPaused()){svg.unpauseAnimations();timer.resume();pause.innerHTML="◼"}else{svg.pauseAnimations();timer.pause();pause.innerHTML="▶"}}]]></script></svg>