<svg id="kanjivg" width="106" height="126" xmlns="http://www.w3.org/2000/svg" xmlns:xlink="http://www.w3.org/1999/xlink" xml:space="preserve" version="1.1" baseProfile="full"><defs><style type="text/css"><![CDATA[path.black { fill:none;stroke:black;stroke-width:5;stroke-linecap:round;stroke-linejoin:round; }path.grey { fill:none;stroke:#ddd;stroke-width:5;stroke-linecap:round;stroke-linejoin:round; }path.stroke { fill:none;stroke:black;stroke-width:5;stroke-linecap:round;stroke-linejoin:round; }rect { fill:none;stroke:#555;stroke-width:2;} text{font-size:16px;font-family:Segoe UI Symbol,Cambria Math,DejaVu Sans,Symbola,Quivira,STIX,Code2000;-webkit-touch-callout:none;cursor:pointer;-webkit-user-select:none;-khtml-user-select:none;-moz-user-select:none;-ms-user-select:none;user-select: none;} #reset { font-weight:bold; }]]></style><marker id="markerStart" markerWidth="8" markerHeight="8" style="overflow:visible;"><circle cx="0" cy="0" r="1.5" style="stroke:none;fill:red;fill-opacity:0.5;"/></marker><marker id="markerEnd" style="overflow:visible;"><circle cx="0" cy="0" r="0.8" style="stroke:none;fill:blue;fill-opacity:0.5;"><animate attributeName="opacity" from="1" to="0" dur="3s" repeatCount="indefinite" /></circle></marker></defs><rect x="4" y="4" width="100" height="100" /><path d="M10.88,40.23c1.5,0.39,3.08,0.53,4.05,0.41c5.33-0.65,15.9-2.52,20.48-3.36c1.62-0.29,2.64-0.17,3.47-0.09" class="grey" /><path d="M25.62,18.5c0.88,0.88,1.46,2.5,1.46,3.5c0,1.02-0.08,27.75-0.08,43.25" class="grey" /><path d="M11.38,72.97c1.57,0.71,3.14,0.45,4.69-0.37c1.57-0.83,14.25-8.14,20.93-12.1" class="grey" /><path d="M47.75,23.49c1.79,0.13,2.63,0.31,4.19,0.17c11.37-1.09,27.32-4.14,35.75-4.36c2.6-0.07,0.67-0.04,3.57-0.04" class="grey" /><path d="M51.25,24.12c0.5,1,0.9,2.12,0.9,3.87c0,22.05-3.53,45.95-17.9,59.25" class="grey" /><path d="M54.09,47c1.3,0.31,2.96,0.28,5.56-0.19c2.6-0.47,17.78-4.25,19.62-4.48C82,42,83.5,44.5,82.45,47.25c-7.68,20.2-15.7,35.12-34.97,43.74" class="grey" /><path d="M55.88,56.12c5.5,0.5,19.57,22.76,31.54,32.09c1.86,1.45,3.22,2.42,4.96,2.91" class="grey" /><path d="M10.88,40.23c1.5,0.39,3.08,0.53,4.05,0.41c5.33-0.65,15.9-2.52,20.48-3.36c1.62-0.29,2.64-0.17,3.47-0.09" class="stroke" stroke-dasharray="150"><animate attributeName="stroke-dashoffset" from="150" to="0" dur="1.8s" begin="0s" fill="freeze" /></path><path d="M25.62,18.5c0.88,0.88,1.46,2.5,1.46,3.5c0,1.02-0.08,27.75-0.08,43.25" class="stroke" stroke-dasharray="150"><set attributeName="opacity" to="0" dur="1.0s" /><animate attributeName="stroke-dashoffset" from="150" to="0" dur="1.8s" begin="1.0s" fill="freeze" /></path><path d="M11.38,72.97c1.57,0.71,3.14,0.45,4.69-0.37c1.57-0.83,14.25-8.14,20.93-12.1" class="stroke" stroke-dasharray="150"><set attributeName="opacity" to="0" dur="2.2s" /><animate attributeName="stroke-dashoffset" from="150" to="0" dur="1.8s" begin="2.2s" fill="freeze" /></path><path d="M47.75,23.49c1.79,0.13,2.63,0.31,4.19,0.17c11.37-1.09,27.32-4.14,35.75-4.36c2.6-0.07,0.67-0.04,3.57-0.04" class="stroke" stroke-dasharray="150"><set attributeName="opacity" to="0" dur="3.2s" /><animate attributeName="stroke-dashoffset" from="150" to="0" dur="1.8s" begin="3.2s" fill="freeze" /></path><path d="M51.25,24.12c0.5,1,0.9,2.12,0.9,3.87c0,22.05-3.53,45.95-17.9,59.25" class="stroke" stroke-dasharray="150"><set attributeName="opacity" to="0" dur="4.300000000000001s" /><animate attributeName="stroke-dashoffset" from="150" to="0" dur="1.8s" begin="4.300000000000001s" fill="freeze" /></path><path d="M54.09,47c1.3,0.31,2.96,0.28,5.56-0.19c2.6-0.47,17.78-4.25,19.62-4.48C82,42,83.5,44.5,82.45,47.25c-7.68,20.2-15.7,35.12-34.97,43.74" class="stroke" stroke-dasharray="150"><set attributeName="opacity" to="0" dur="5.800000000000001s" /><animate attributeName="stroke-dashoffset" from="150" to="0" dur="1.8s" begin="5.800000000000001s" fill="freeze" /></path><path d="M55.88,56.12c5.5,0.5,19.57,22.76,31.54,32.09c1.86,1.45,3.22,2.42,4.96,2.91" class="stroke" stroke-dasharray="150"><set attributeName="opacity" to="0" dur="7.6000000000000005s" /><animate attributeName="stroke-dashoffset" from="150" to="0" dur="1.8s" begin="7.6000000000000005s" fill="freeze" /></path><text x="90" y="120" id="reset">⟳</text><text x="70" y="120" id="pause">◼</text><script type="text/javascript"><![CDATA[function RecurringTimer(e,t){var n,r,i=t;this.pause=function(){window.clearTimeout(n);i-=new Date-r};var s=function(){r=new Date;n=window.setTimeout(function(){i=t;s();e()},i)};this.clear=function(){window.clearTimeout(n);i=t;n=window.setTimeout(function(){i=t;s();e()},i)};this.resume=s;this.resume()}function invoketimer(){timer=new RecurringTimer(function(){svg.setCurrentTime(0)},9900)}var svg=document.getElementById("kanjivg");var pause=document.getElementById("pause");var reset=document.getElementById("reset");var timer;invoketimer();reset.onclick=function(){svg.setCurrentTime(0);timer.clear();svg.unpauseAnimations();pause.innerHTML = "◼";};pause.onclick=function(){if(svg.animationsPaused()){svg.unpauseAnimations();timer.resume();pause.innerHTML="◼"}else{svg.pauseAnimations();timer.pause();pause.innerHTML="▶"}}]]></script></svg>