<svg id="kanjivg" width="106" height="126" xmlns="http://www.w3.org/2000/svg" xmlns:xlink="http://www.w3.org/1999/xlink" xml:space="preserve" version="1.1" baseProfile="full"><defs><style type="text/css"><![CDATA[path.black { fill:none;stroke:black;stroke-width:5;stroke-linecap:round;stroke-linejoin:round; }path.grey { fill:none;stroke:#ddd;stroke-width:5;stroke-linecap:round;stroke-linejoin:round; }path.stroke { fill:none;stroke:black;stroke-width:5;stroke-linecap:round;stroke-linejoin:round; }rect { fill:none;stroke:#555;stroke-width:2;} text{font-size:16px;font-family:Segoe UI Symbol,Cambria Math,DejaVu Sans,Symbola,Quivira,STIX,Code2000;-webkit-touch-callout:none;cursor:pointer;-webkit-user-select:none;-khtml-user-select:none;-moz-user-select:none;-ms-user-select:none;user-select: none;} #reset { font-weight:bold; }]]></style><marker id="markerStart" markerWidth="8" markerHeight="8" style="overflow:visible;"><circle cx="0" cy="0" r="1.5" style="stroke:none;fill:red;fill-opacity:0.5;"/></marker><marker id="markerEnd" style="overflow:visible;"><circle cx="0" cy="0" r="0.8" style="stroke:none;fill:blue;fill-opacity:0.5;"><animate attributeName="opacity" from="1" to="0" dur="3s" repeatCount="indefinite" /></circle></marker></defs><rect x="4" y="4" width="100" height="100" /><path d="M11.5,44.14c0.76,0.38,2.24,0.46,3,0.36c4.82-0.66,17.65-2.39,23-3c1.25-0.14,2.62-0.18,3.25,0.01" class="grey" /><path d="M25.37,15.5c1.09,0.52,1.96,2.32,1.96,3.39c0,7.56,0.03,43.9,0.03,55.11" class="grey" /><path d="M11.5,79.86c0.76,0.89,2.27,1.36,4.54,0.19C22.35,76.8,33.69,71,40,67.75" class="grey" /><path d="M58.75,13.5c0.04,0.91,0.08,2.34-0.08,3.64C57.72,24.83,52.3,41.68,44.89,52" class="grey" /><path d="M57.22,34.27c1.03,0.31,2.47,0.25,4.04,0.03c3.99-0.55,25.02-4.39,26.82-4.56c9.05-0.86-1,9.36-2.89,11.01" class="grey" /><path d="M62.6,42c0.65,1.25,0.88,2.41,0.86,4.37C63.25,66.5,58.75,86.75,39,98.25" class="grey" /><path d="M62.92,59.5c4.49,8.3,20.73,27.86,28.11,34.73c1.56,1.45,2.74,2.31,4.21,2.77" class="grey" /><path d="M11.5,44.14c0.76,0.38,2.24,0.46,3,0.36c4.82-0.66,17.65-2.39,23-3c1.25-0.14,2.62-0.18,3.25,0.01" class="stroke" stroke-dasharray="150"><animate attributeName="stroke-dashoffset" from="150" to="0" dur="1.8s" begin="0s" fill="freeze" /></path><path d="M25.37,15.5c1.09,0.52,1.96,2.32,1.96,3.39c0,7.56,0.03,43.9,0.03,55.11" class="stroke" stroke-dasharray="150"><set attributeName="opacity" to="0" dur="1.0s" /><animate attributeName="stroke-dashoffset" from="150" to="0" dur="1.8s" begin="1.0s" fill="freeze" /></path><path d="M11.5,79.86c0.76,0.89,2.27,1.36,4.54,0.19C22.35,76.8,33.69,71,40,67.75" class="stroke" stroke-dasharray="150"><set attributeName="opacity" to="0" dur="2.4s" /><animate attributeName="stroke-dashoffset" from="150" to="0" dur="1.8s" begin="2.4s" fill="freeze" /></path><path d="M58.75,13.5c0.04,0.91,0.08,2.34-0.08,3.64C57.72,24.83,52.3,41.68,44.89,52" class="stroke" stroke-dasharray="150"><set attributeName="opacity" to="0" dur="3.4s" /><animate attributeName="stroke-dashoffset" from="150" to="0" dur="1.8s" begin="3.4s" fill="freeze" /></path><path d="M57.22,34.27c1.03,0.31,2.47,0.25,4.04,0.03c3.99-0.55,25.02-4.39,26.82-4.56c9.05-0.86-1,9.36-2.89,11.01" class="stroke" stroke-dasharray="150"><set attributeName="opacity" to="0" dur="4.5s" /><animate attributeName="stroke-dashoffset" from="150" to="0" dur="1.8s" begin="4.5s" fill="freeze" /></path><path d="M62.6,42c0.65,1.25,0.88,2.41,0.86,4.37C63.25,66.5,58.75,86.75,39,98.25" class="stroke" stroke-dasharray="150"><set attributeName="opacity" to="0" dur="5.7s" /><animate attributeName="stroke-dashoffset" from="150" to="0" dur="1.8s" begin="5.7s" fill="freeze" /></path><path d="M62.92,59.5c4.49,8.3,20.73,27.86,28.11,34.73c1.56,1.45,2.74,2.31,4.21,2.77" class="stroke" stroke-dasharray="150"><set attributeName="opacity" to="0" dur="7.2s" /><animate attributeName="stroke-dashoffset" from="150" to="0" dur="1.8s" begin="7.2s" fill="freeze" /></path><text x="90" y="120" id="reset">⟳</text><text x="70" y="120" id="pause">◼</text><script type="text/javascript"><![CDATA[function RecurringTimer(e,t){var n,r,i=t;this.pause=function(){window.clearTimeout(n);i-=new Date-r};var s=function(){r=new Date;n=window.setTimeout(function(){i=t;s();e()},i)};this.clear=function(){window.clearTimeout(n);i=t;n=window.setTimeout(function(){i=t;s();e()},i)};this.resume=s;this.resume()}function invoketimer(){timer=new RecurringTimer(function(){svg.setCurrentTime(0)},9400)}var svg=document.getElementById("kanjivg");var pause=document.getElementById("pause");var reset=document.getElementById("reset");var timer;invoketimer();reset.onclick=function(){svg.setCurrentTime(0);timer.clear();svg.unpauseAnimations();pause.innerHTML = "◼";};pause.onclick=function(){if(svg.animationsPaused()){svg.unpauseAnimations();timer.resume();pause.innerHTML="◼"}else{svg.pauseAnimations();timer.pause();pause.innerHTML="▶"}}]]></script></svg>