<svg id="kanjivg" width="106" height="126" xmlns="http://www.w3.org/2000/svg" xmlns:xlink="http://www.w3.org/1999/xlink" xml:space="preserve" version="1.1" baseProfile="full"><defs><style type="text/css"><![CDATA[path.black { fill:none;stroke:black;stroke-width:5;stroke-linecap:round;stroke-linejoin:round; }path.grey { fill:none;stroke:#ddd;stroke-width:5;stroke-linecap:round;stroke-linejoin:round; }path.stroke { fill:none;stroke:black;stroke-width:5;stroke-linecap:round;stroke-linejoin:round; }rect { fill:none;stroke:#555;stroke-width:2;} text{font-size:16px;font-family:Segoe UI Symbol,Cambria Math,DejaVu Sans,Symbola,Quivira,STIX,Code2000;-webkit-touch-callout:none;cursor:pointer;-webkit-user-select:none;-khtml-user-select:none;-moz-user-select:none;-ms-user-select:none;user-select: none;} #reset { font-weight:bold; }]]></style><marker id="markerStart" markerWidth="8" markerHeight="8" style="overflow:visible;"><circle cx="0" cy="0" r="1.5" style="stroke:none;fill:red;fill-opacity:0.5;"/></marker><marker id="markerEnd" style="overflow:visible;"><circle cx="0" cy="0" r="0.8" style="stroke:none;fill:blue;fill-opacity:0.5;"><animate attributeName="opacity" from="1" to="0" dur="3s" repeatCount="indefinite" /></circle></marker></defs><rect x="4" y="4" width="100" height="100" /><path d="M13.5,41.39c0.76,0.38,2.24,0.46,3,0.36c0.78-0.11,1.71-0.01,2.74-0.18c5.3-0.91,11.51-2.32,17.51-3.57c1.24-0.26,2.62-0.43,3.25-0.24" class="grey" /><path d="M26.87,19c0.88,1.25,1.21,2.5,1.21,4c0,7.25,0.03,32.75,0.03,43.5" class="grey" /><path d="M13.75,74.19c1.25,1.18,2.62,1.31,4.67-0.02c6.09-3.96,15.45-10.29,22.33-14.92" class="grey" /><path d="M68.8,13c1.16,1.16,1.59,2.38,1.59,4.29c0,4.86,0.11,9.33,0.11,12.75" class="grey" /><path d="M46.38,33.14c2.98,0.66,6.1,0.47,9.12,0.03c10.85-1.6,22.51-3.04,35.01-4.42c2.83-0.31,5.43-0.6,8.12,0.41" class="grey" /><path d="M66.86,45.58c5.77,2.3,11.77,4.67,18.09,6.09c3.11,0.7,4.55,1.92,3.75,5.1c-2,7.88-10.89,28.74-14.78,33.94c-4.4,5.88-7.17,0.8-8.66-1.02" class="grey" /><path d="M68.06,35c0.45,1.43,0.42,3.05-0.17,4.64c-4.51,12.11-14.01,31.48-31.21,44.19" class="grey" /><path d="M13.5,41.39c0.76,0.38,2.24,0.46,3,0.36c0.78-0.11,1.71-0.01,2.74-0.18c5.3-0.91,11.51-2.32,17.51-3.57c1.24-0.26,2.62-0.43,3.25-0.24" class="stroke" stroke-dasharray="150"><animate attributeName="stroke-dashoffset" from="150" to="0" dur="1.8s" begin="0s" fill="freeze" /></path><path d="M26.87,19c0.88,1.25,1.21,2.5,1.21,4c0,7.25,0.03,32.75,0.03,43.5" class="stroke" stroke-dasharray="150"><set attributeName="opacity" to="0" dur="1.0s" /><animate attributeName="stroke-dashoffset" from="150" to="0" dur="1.8s" begin="1.0s" fill="freeze" /></path><path d="M13.75,74.19c1.25,1.18,2.62,1.31,4.67-0.02c6.09-3.96,15.45-10.29,22.33-14.92" class="stroke" stroke-dasharray="150"><set attributeName="opacity" to="0" dur="2.2s" /><animate attributeName="stroke-dashoffset" from="150" to="0" dur="1.8s" begin="2.2s" fill="freeze" /></path><path d="M68.8,13c1.16,1.16,1.59,2.38,1.59,4.29c0,4.86,0.11,9.33,0.11,12.75" class="stroke" stroke-dasharray="150"><set attributeName="opacity" to="0" dur="3.2s" /><animate attributeName="stroke-dashoffset" from="150" to="0" dur="1.8s" begin="3.2s" fill="freeze" /></path><path d="M46.38,33.14c2.98,0.66,6.1,0.47,9.12,0.03c10.85-1.6,22.51-3.04,35.01-4.42c2.83-0.31,5.43-0.6,8.12,0.41" class="stroke" stroke-dasharray="150"><set attributeName="opacity" to="0" dur="4.1000000000000005s" /><animate attributeName="stroke-dashoffset" from="150" to="0" dur="1.8s" begin="4.1000000000000005s" fill="freeze" /></path><path d="M66.86,45.58c5.77,2.3,11.77,4.67,18.09,6.09c3.11,0.7,4.55,1.92,3.75,5.1c-2,7.88-10.89,28.74-14.78,33.94c-4.4,5.88-7.17,0.8-8.66-1.02" class="stroke" stroke-dasharray="150"><set attributeName="opacity" to="0" dur="5.4s" /><animate attributeName="stroke-dashoffset" from="150" to="0" dur="1.8s" begin="5.4s" fill="freeze" /></path><path d="M68.06,35c0.45,1.43,0.42,3.05-0.17,4.64c-4.51,12.11-14.01,31.48-31.21,44.19" class="stroke" stroke-dasharray="150"><set attributeName="opacity" to="0" dur="7.1000000000000005s" /><animate attributeName="stroke-dashoffset" from="150" to="0" dur="1.8s" begin="7.1000000000000005s" fill="freeze" /></path><text x="90" y="120" id="reset">⟳</text><text x="70" y="120" id="pause">◼</text><script type="text/javascript"><![CDATA[function RecurringTimer(e,t){var n,r,i=t;this.pause=function(){window.clearTimeout(n);i-=new Date-r};var s=function(){r=new Date;n=window.setTimeout(function(){i=t;s();e()},i)};this.clear=function(){window.clearTimeout(n);i=t;n=window.setTimeout(function(){i=t;s();e()},i)};this.resume=s;this.resume()}function invoketimer(){timer=new RecurringTimer(function(){svg.setCurrentTime(0)},9500)}var svg=document.getElementById("kanjivg");var pause=document.getElementById("pause");var reset=document.getElementById("reset");var timer;invoketimer();reset.onclick=function(){svg.setCurrentTime(0);timer.clear();svg.unpauseAnimations();pause.innerHTML = "◼";};pause.onclick=function(){if(svg.animationsPaused()){svg.unpauseAnimations();timer.resume();pause.innerHTML="◼"}else{svg.pauseAnimations();timer.pause();pause.innerHTML="▶"}}]]></script></svg>