<svg id="kanjivg" width="106" height="126" xmlns="http://www.w3.org/2000/svg" xmlns:xlink="http://www.w3.org/1999/xlink" xml:space="preserve" version="1.1" baseProfile="full"><defs><style type="text/css"><![CDATA[path.black { fill:none;stroke:black;stroke-width:5;stroke-linecap:round;stroke-linejoin:round; }path.grey { fill:none;stroke:#ddd;stroke-width:5;stroke-linecap:round;stroke-linejoin:round; }path.stroke { fill:none;stroke:black;stroke-width:5;stroke-linecap:round;stroke-linejoin:round; }rect { fill:none;stroke:#555;stroke-width:2;} text{font-size:16px;font-family:Segoe UI Symbol,Cambria Math,DejaVu Sans,Symbola,Quivira,STIX,Code2000;-webkit-touch-callout:none;cursor:pointer;-webkit-user-select:none;-khtml-user-select:none;-moz-user-select:none;-ms-user-select:none;user-select: none;} #reset { font-weight:bold; }]]></style><marker id="markerStart" markerWidth="8" markerHeight="8" style="overflow:visible;"><circle cx="0" cy="0" r="1.5" style="stroke:none;fill:red;fill-opacity:0.5;"/></marker><marker id="markerEnd" style="overflow:visible;"><circle cx="0" cy="0" r="0.8" style="stroke:none;fill:blue;fill-opacity:0.5;"><animate attributeName="opacity" from="1" to="0" dur="3s" repeatCount="indefinite" /></circle></marker></defs><rect x="4" y="4" width="100" height="100" /><path d="M10.5,44.53c0.81,0.42,2.89,0.43,3.7,0.4c4.8-0.18,18.87-2.67,24.58-3.35c1.34-0.16,2.8-0.2,3.47,0.01" class="grey" /><path d="M25.37,19c1.09,0.5,1.96,2.73,1.96,3.75c0,7.25,0.03,39.75,0.03,50.5" class="grey" /><path d="M12,79.29c0.75,0.96,2.25,1.46,4.5,0.21C22.75,76,34,69.75,40.25,66.25" class="grey" /><path d="M42.97,22.96c1.2,0.52,3.41,0.65,4.62,0.52c11.53-1.23,32.36-3.53,45.6-4.47c2-0.14,3.21,0.25,4.22,0.51" class="grey" /><path d="M71.56,23.66c0.08,1.15,0.46,3.05-0.17,4.61C67.5,38,56.75,58.5,41.87,72.42" class="grey" /><path d="M66.12,44.75c1.44,1.2,1.9,2.88,1.9,4.91c0,4.45-0.11,33-0.11,48.84" class="grey" /><path d="M77.64,49.25c6.88,3.92,17.76,16.11,19.49,22.2" class="grey" /><path d="M10.5,44.53c0.81,0.42,2.89,0.43,3.7,0.4c4.8-0.18,18.87-2.67,24.58-3.35c1.34-0.16,2.8-0.2,3.47,0.01" class="stroke" stroke-dasharray="150"><animate attributeName="stroke-dashoffset" from="150" to="0" dur="1.8s" begin="0s" fill="freeze" /></path><path d="M25.37,19c1.09,0.5,1.96,2.73,1.96,3.75c0,7.25,0.03,39.75,0.03,50.5" class="stroke" stroke-dasharray="150"><set attributeName="opacity" to="0" dur="1.0s" /><animate attributeName="stroke-dashoffset" from="150" to="0" dur="1.8s" begin="1.0s" fill="freeze" /></path><path d="M12,79.29c0.75,0.96,2.25,1.46,4.5,0.21C22.75,76,34,69.75,40.25,66.25" class="stroke" stroke-dasharray="150"><set attributeName="opacity" to="0" dur="2.3s" /><animate attributeName="stroke-dashoffset" from="150" to="0" dur="1.8s" begin="2.3s" fill="freeze" /></path><path d="M42.97,22.96c1.2,0.52,3.41,0.65,4.62,0.52c11.53-1.23,32.36-3.53,45.6-4.47c2-0.14,3.21,0.25,4.22,0.51" class="stroke" stroke-dasharray="150"><set attributeName="opacity" to="0" dur="3.3s" /><animate attributeName="stroke-dashoffset" from="150" to="0" dur="1.8s" begin="3.3s" fill="freeze" /></path><path d="M71.56,23.66c0.08,1.15,0.46,3.05-0.17,4.61C67.5,38,56.75,58.5,41.87,72.42" class="stroke" stroke-dasharray="150"><set attributeName="opacity" to="0" dur="4.6s" /><animate attributeName="stroke-dashoffset" from="150" to="0" dur="1.8s" begin="4.6s" fill="freeze" /></path><path d="M66.12,44.75c1.44,1.2,1.9,2.88,1.9,4.91c0,4.45-0.11,33-0.11,48.84" class="stroke" stroke-dasharray="150"><set attributeName="opacity" to="0" dur="6.0s" /><animate attributeName="stroke-dashoffset" from="150" to="0" dur="1.8s" begin="6.0s" fill="freeze" /></path><path d="M77.64,49.25c6.88,3.92,17.76,16.11,19.49,22.2" class="stroke" stroke-dasharray="150"><set attributeName="opacity" to="0" dur="7.3s" /><animate attributeName="stroke-dashoffset" from="150" to="0" dur="1.8s" begin="7.3s" fill="freeze" /></path><text x="90" y="120" id="reset">⟳</text><text x="70" y="120" id="pause">◼</text><script type="text/javascript"><![CDATA[function RecurringTimer(e,t){var n,r,i=t;this.pause=function(){window.clearTimeout(n);i-=new Date-r};var s=function(){r=new Date;n=window.setTimeout(function(){i=t;s();e()},i)};this.clear=function(){window.clearTimeout(n);i=t;n=window.setTimeout(function(){i=t;s();e()},i)};this.resume=s;this.resume()}function invoketimer(){timer=new RecurringTimer(function(){svg.setCurrentTime(0)},9300)}var svg=document.getElementById("kanjivg");var pause=document.getElementById("pause");var reset=document.getElementById("reset");var timer;invoketimer();reset.onclick=function(){svg.setCurrentTime(0);timer.clear();svg.unpauseAnimations();pause.innerHTML = "◼";};pause.onclick=function(){if(svg.animationsPaused()){svg.unpauseAnimations();timer.resume();pause.innerHTML="◼"}else{svg.pauseAnimations();timer.pause();pause.innerHTML="▶"}}]]></script></svg>