<svg id="kanjivg" width="106" height="126" xmlns="http://www.w3.org/2000/svg" xmlns:xlink="http://www.w3.org/1999/xlink" xml:space="preserve" version="1.1" baseProfile="full"><defs><style type="text/css"><![CDATA[path.black { fill:none;stroke:black;stroke-width:5;stroke-linecap:round;stroke-linejoin:round; }path.grey { fill:none;stroke:#ddd;stroke-width:5;stroke-linecap:round;stroke-linejoin:round; }path.stroke { fill:none;stroke:black;stroke-width:5;stroke-linecap:round;stroke-linejoin:round; }rect { fill:none;stroke:#555;stroke-width:2;} text{font-size:16px;font-family:Segoe UI Symbol,Cambria Math,DejaVu Sans,Symbola,Quivira,STIX,Code2000;-webkit-touch-callout:none;cursor:pointer;-webkit-user-select:none;-khtml-user-select:none;-moz-user-select:none;-ms-user-select:none;user-select: none;} #reset { font-weight:bold; }]]></style><marker id="markerStart" markerWidth="8" markerHeight="8" style="overflow:visible;"><circle cx="0" cy="0" r="1.5" style="stroke:none;fill:red;fill-opacity:0.5;"/></marker><marker id="markerEnd" style="overflow:visible;"><circle cx="0" cy="0" r="0.8" style="stroke:none;fill:blue;fill-opacity:0.5;"><animate attributeName="opacity" from="1" to="0" dur="3s" repeatCount="indefinite" /></circle></marker></defs><rect x="4" y="4" width="100" height="100" /><path d="M14.5,43.89c1.5,0.36,3.25,0.25,4,0.11c5.5-1,11.5-2,19-3.75c1.23-0.29,2.25-0.5,3.75-0.49" class="grey" /><path d="M28.62,16c0.94,0.94,1.21,2.38,1.21,3.75c0,7.25,0.03,38.75,0.03,49.5" class="grey" /><path d="m16.26,80.76c1.15,0.36,2.73,0.3,4.12,-1.15,5.14,-5.37,14.42,-14.98,19.56,-20.34" class="grey" /><path d="M61.04,13.75c0.05,0.86,0.01,2-0.35,3.19c-2.82,9.31-8.32,21.43-17.44,32.69" class="grey" /><path d="M56.79,34.67c1.71,0.45,3.1,0.37,4.6,0.21c3.73-0.39,24.54-3.16,28.14-3.39c3.6-0.23,6.47,0.59,5.78,5.44C93,53.12,89.75,73.38,81.57,89.67c-2.08,4.14-5.45,3.46-8.51-0.66" class="grey" /><path d="M56.02,46.58c4.07,1.66,9.61,5.92,11.54,9.38" class="grey" /><path d="M53.51,75.01C54.53,75.45,56.3,75.47,57.48,74.57C62.26,70.91,71.95,64.16,76.94,60.77" class="grey" /><path d="M14.5,43.89c1.5,0.36,3.25,0.25,4,0.11c5.5-1,11.5-2,19-3.75c1.23-0.29,2.25-0.5,3.75-0.49" class="stroke" stroke-dasharray="150"><animate attributeName="stroke-dashoffset" from="150" to="0" dur="1.8s" begin="0s" fill="freeze" /></path><path d="M28.62,16c0.94,0.94,1.21,2.38,1.21,3.75c0,7.25,0.03,38.75,0.03,49.5" class="stroke" stroke-dasharray="150"><set attributeName="opacity" to="0" dur="1.0s" /><animate attributeName="stroke-dashoffset" from="150" to="0" dur="1.8s" begin="1.0s" fill="freeze" /></path><path d="m16.26,80.76c1.15,0.36,2.73,0.3,4.12,-1.15,5.14,-5.37,14.42,-14.98,19.56,-20.34" class="stroke" stroke-dasharray="150"><set attributeName="opacity" to="0" dur="2.3s" /><animate attributeName="stroke-dashoffset" from="150" to="0" dur="1.8s" begin="2.3s" fill="freeze" /></path><path d="M61.04,13.75c0.05,0.86,0.01,2-0.35,3.19c-2.82,9.31-8.32,21.43-17.44,32.69" class="stroke" stroke-dasharray="150"><set attributeName="opacity" to="0" dur="3.3s" /><animate attributeName="stroke-dashoffset" from="150" to="0" dur="1.8s" begin="3.3s" fill="freeze" /></path><path d="M56.79,34.67c1.71,0.45,3.1,0.37,4.6,0.21c3.73-0.39,24.54-3.16,28.14-3.39c3.6-0.23,6.47,0.59,5.78,5.44C93,53.12,89.75,73.38,81.57,89.67c-2.08,4.14-5.45,3.46-8.51-0.66" class="stroke" stroke-dasharray="150"><set attributeName="opacity" to="0" dur="4.4s" /><animate attributeName="stroke-dashoffset" from="150" to="0" dur="1.8s" begin="4.4s" fill="freeze" /></path><path d="M56.02,46.58c4.07,1.66,9.61,5.92,11.54,9.38" class="stroke" stroke-dasharray="150"><set attributeName="opacity" to="0" dur="6.300000000000001s" /><animate attributeName="stroke-dashoffset" from="150" to="0" dur="1.8s" begin="6.300000000000001s" fill="freeze" /></path><path d="M53.51,75.01C54.53,75.45,56.3,75.47,57.48,74.57C62.26,70.91,71.95,64.16,76.94,60.77" class="stroke" stroke-dasharray="150"><set attributeName="opacity" to="0" dur="7.200000000000001s" /><animate attributeName="stroke-dashoffset" from="150" to="0" dur="1.8s" begin="7.200000000000001s" fill="freeze" /></path><text x="90" y="120" id="reset">⟳</text><text x="70" y="120" id="pause">◼</text><script type="text/javascript"><![CDATA[function RecurringTimer(e,t){var n,r,i=t;this.pause=function(){window.clearTimeout(n);i-=new Date-r};var s=function(){r=new Date;n=window.setTimeout(function(){i=t;s();e()},i)};this.clear=function(){window.clearTimeout(n);i=t;n=window.setTimeout(function(){i=t;s();e()},i)};this.resume=s;this.resume()}function invoketimer(){timer=new RecurringTimer(function(){svg.setCurrentTime(0)},9200)}var svg=document.getElementById("kanjivg");var pause=document.getElementById("pause");var reset=document.getElementById("reset");var timer;invoketimer();reset.onclick=function(){svg.setCurrentTime(0);timer.clear();svg.unpauseAnimations();pause.innerHTML = "◼";};pause.onclick=function(){if(svg.animationsPaused()){svg.unpauseAnimations();timer.resume();pause.innerHTML="◼"}else{svg.pauseAnimations();timer.pause();pause.innerHTML="▶"}}]]></script></svg>