<svg id="kanjivg" width="106" height="126" xmlns="http://www.w3.org/2000/svg" xmlns:xlink="http://www.w3.org/1999/xlink" xml:space="preserve" version="1.1" baseProfile="full"><defs><style type="text/css"><![CDATA[path.black { fill:none;stroke:black;stroke-width:5;stroke-linecap:round;stroke-linejoin:round; }path.grey { fill:none;stroke:#ddd;stroke-width:5;stroke-linecap:round;stroke-linejoin:round; }path.stroke { fill:none;stroke:black;stroke-width:5;stroke-linecap:round;stroke-linejoin:round; }rect { fill:none;stroke:#555;stroke-width:2;} text{font-size:16px;font-family:Segoe UI Symbol,Cambria Math,DejaVu Sans,Symbola,Quivira,STIX,Code2000;-webkit-touch-callout:none;cursor:pointer;-webkit-user-select:none;-khtml-user-select:none;-moz-user-select:none;-ms-user-select:none;user-select: none;} #reset { font-weight:bold; }]]></style><marker id="markerStart" markerWidth="8" markerHeight="8" style="overflow:visible;"><circle cx="0" cy="0" r="1.5" style="stroke:none;fill:red;fill-opacity:0.5;"/></marker><marker id="markerEnd" style="overflow:visible;"><circle cx="0" cy="0" r="0.8" style="stroke:none;fill:blue;fill-opacity:0.5;"><animate attributeName="opacity" from="1" to="0" dur="3s" repeatCount="indefinite" /></circle></marker></defs><rect x="4" y="4" width="100" height="100" /><path d="M14,43.64c1.5,0.11,3.24,0.46,4,0.36c4.82-0.66,13.75-2,19.5-4c1.19-0.41,2.25-0.5,3.75-0.49" class="grey" /><path d="M27.87,16.5c1.09,0.5,1.96,2.23,1.96,3.25c0,7.25,0.03,38.75,0.03,49.5" class="grey" /><path d="M39.94,59.27c-4.88,5.24-13.69,14.63-18.57,19.87c-1.76,1.89-3.84,1.36-4.85,0.68" class="grey" /><path d="M60.29,13.25c0.05,0.86,0.1,2.21-0.1,3.44c-1.16,7.26-7.82,23.18-16.94,32.94" class="grey" /><path d="M56.04,34.92c0.9,0.7,2.16,0.93,3.6,0.46c1.44-0.46,27.04-3.91,30.64-4.14c3.6-0.23,5.12,1.8,4.78,6.69C94.5,46,89.25,77.75,79.82,90.92c-2.7,3.76-3.63,1.74-5.76-1.16" class="grey" /><path d="M55.77,46.33c4.07,1.66,10.52,6.81,11.54,9.38" class="grey" /><path d="M54.52,69.08c5.04,1.7,13.03,6.99,14.29,9.63" class="grey" /><path d="M14,43.64c1.5,0.11,3.24,0.46,4,0.36c4.82-0.66,13.75-2,19.5-4c1.19-0.41,2.25-0.5,3.75-0.49" class="stroke" stroke-dasharray="150"><animate attributeName="stroke-dashoffset" from="150" to="0" dur="1.8s" begin="0s" fill="freeze" /></path><path d="M27.87,16.5c1.09,0.5,1.96,2.23,1.96,3.25c0,7.25,0.03,38.75,0.03,49.5" class="stroke" stroke-dasharray="150"><set attributeName="opacity" to="0" dur="1.0s" /><animate attributeName="stroke-dashoffset" from="150" to="0" dur="1.8s" begin="1.0s" fill="freeze" /></path><path d="M39.94,59.27c-4.88,5.24-13.69,14.63-18.57,19.87c-1.76,1.89-3.84,1.36-4.85,0.68" class="stroke" stroke-dasharray="150"><set attributeName="opacity" to="0" dur="2.3s" /><animate attributeName="stroke-dashoffset" from="150" to="0" dur="1.8s" begin="2.3s" fill="freeze" /></path><path d="M60.29,13.25c0.05,0.86,0.1,2.21-0.1,3.44c-1.16,7.26-7.82,23.18-16.94,32.94" class="stroke" stroke-dasharray="150"><set attributeName="opacity" to="0" dur="3.3s" /><animate attributeName="stroke-dashoffset" from="150" to="0" dur="1.8s" begin="3.3s" fill="freeze" /></path><path d="M56.04,34.92c0.9,0.7,2.16,0.93,3.6,0.46c1.44-0.46,27.04-3.91,30.64-4.14c3.6-0.23,5.12,1.8,4.78,6.69C94.5,46,89.25,77.75,79.82,90.92c-2.7,3.76-3.63,1.74-5.76-1.16" class="stroke" stroke-dasharray="150"><set attributeName="opacity" to="0" dur="4.4s" /><animate attributeName="stroke-dashoffset" from="150" to="0" dur="1.8s" begin="4.4s" fill="freeze" /></path><path d="M55.77,46.33c4.07,1.66,10.52,6.81,11.54,9.38" class="stroke" stroke-dasharray="150"><set attributeName="opacity" to="0" dur="6.300000000000001s" /><animate attributeName="stroke-dashoffset" from="150" to="0" dur="1.8s" begin="6.300000000000001s" fill="freeze" /></path><path d="M54.52,69.08c5.04,1.7,13.03,6.99,14.29,9.63" class="stroke" stroke-dasharray="150"><set attributeName="opacity" to="0" dur="7.200000000000001s" /><animate attributeName="stroke-dashoffset" from="150" to="0" dur="1.8s" begin="7.200000000000001s" fill="freeze" /></path><text x="90" y="120" id="reset">⟳</text><text x="70" y="120" id="pause">◼</text><script type="text/javascript"><![CDATA[function RecurringTimer(e,t){var n,r,i=t;this.pause=function(){window.clearTimeout(n);i-=new Date-r};var s=function(){r=new Date;n=window.setTimeout(function(){i=t;s();e()},i)};this.clear=function(){window.clearTimeout(n);i=t;n=window.setTimeout(function(){i=t;s();e()},i)};this.resume=s;this.resume()}function invoketimer(){timer=new RecurringTimer(function(){svg.setCurrentTime(0)},9100)}var svg=document.getElementById("kanjivg");var pause=document.getElementById("pause");var reset=document.getElementById("reset");var timer;invoketimer();reset.onclick=function(){svg.setCurrentTime(0);timer.clear();svg.unpauseAnimations();pause.innerHTML = "◼";};pause.onclick=function(){if(svg.animationsPaused()){svg.unpauseAnimations();timer.resume();pause.innerHTML="◼"}else{svg.pauseAnimations();timer.pause();pause.innerHTML="▶"}}]]></script></svg>