<svg id="kanjivg" width="106" height="126" xmlns="http://www.w3.org/2000/svg" xmlns:xlink="http://www.w3.org/1999/xlink" xml:space="preserve" version="1.1" baseProfile="full"><defs><style type="text/css"><![CDATA[path.black { fill:none;stroke:black;stroke-width:5;stroke-linecap:round;stroke-linejoin:round; }path.grey { fill:none;stroke:#ddd;stroke-width:5;stroke-linecap:round;stroke-linejoin:round; }path.stroke { fill:none;stroke:black;stroke-width:5;stroke-linecap:round;stroke-linejoin:round; }rect { fill:none;stroke:#555;stroke-width:2;} text{font-size:16px;font-family:Segoe UI Symbol,Cambria Math,DejaVu Sans,Symbola,Quivira,STIX,Code2000;-webkit-touch-callout:none;cursor:pointer;-webkit-user-select:none;-khtml-user-select:none;-moz-user-select:none;-ms-user-select:none;user-select: none;} #reset { font-weight:bold; }]]></style><marker id="markerStart" markerWidth="8" markerHeight="8" style="overflow:visible;"><circle cx="0" cy="0" r="1.5" style="stroke:none;fill:red;fill-opacity:0.5;"/></marker><marker id="markerEnd" style="overflow:visible;"><circle cx="0" cy="0" r="0.8" style="stroke:none;fill:blue;fill-opacity:0.5;"><animate attributeName="opacity" from="1" to="0" dur="3s" repeatCount="indefinite" /></circle></marker></defs><rect x="4" y="4" width="100" height="100" /><path d="M13.5,41.14c0.76,0.38,2.24,0.46,3,0.36c4.82-0.66,15.15-2.89,20.5-3.5c1.25-0.14,2.62-0.18,3.25,0.01" class="grey" /><path d="M26.37,18.5c0.88,1.25,1.96,2.73,1.96,3.75c0,7.25,0.03,33.75,0.03,44.5" class="grey" /><path d="M13,73.69c0.74,1.06,2.21,1.62,4.42,0.23c6.14-3.88,17.19-10.79,23.33-14.67" class="grey" /><path d="M63.71,12.75c4.56,1.75,9.7,7.59,11.18,11.33" class="grey" /><path d="M45.88,33.14c1.62,0.36,3.45,0.66,4.77,0.52c10.66-1.1,29.45-4.17,43.93-4.93c2.23-0.12,2.38,0.04,4.04,0.67" class="grey" /><path d="M66.36,45.83C72.5,48,79.25,50.5,84.95,51.41c3.23,0.52,4.48,1.67,3.97,4.15C87.5,62.5,77.73,85.53,73.67,90.95c-4.4,5.88-7.35-0.23-8.66-1.02" class="grey" /><path d="M68.06,35.25c0.45,1.43,0.36,3.04-0.17,4.64C64.16,50.97,53.4,73.35,36.67,83.83" class="grey" /><path d="M13.5,41.14c0.76,0.38,2.24,0.46,3,0.36c4.82-0.66,15.15-2.89,20.5-3.5c1.25-0.14,2.62-0.18,3.25,0.01" class="stroke" stroke-dasharray="150"><animate attributeName="stroke-dashoffset" from="150" to="0" dur="1.8s" begin="0s" fill="freeze" /></path><path d="M26.37,18.5c0.88,1.25,1.96,2.73,1.96,3.75c0,7.25,0.03,33.75,0.03,44.5" class="stroke" stroke-dasharray="150"><set attributeName="opacity" to="0" dur="1.0s" /><animate attributeName="stroke-dashoffset" from="150" to="0" dur="1.8s" begin="1.0s" fill="freeze" /></path><path d="M13,73.69c0.74,1.06,2.21,1.62,4.42,0.23c6.14-3.88,17.19-10.79,23.33-14.67" class="stroke" stroke-dasharray="150"><set attributeName="opacity" to="0" dur="2.2s" /><animate attributeName="stroke-dashoffset" from="150" to="0" dur="1.8s" begin="2.2s" fill="freeze" /></path><path d="M63.71,12.75c4.56,1.75,9.7,7.59,11.18,11.33" class="stroke" stroke-dasharray="150"><set attributeName="opacity" to="0" dur="3.2s" /><animate attributeName="stroke-dashoffset" from="150" to="0" dur="1.8s" begin="3.2s" fill="freeze" /></path><path d="M45.88,33.14c1.62,0.36,3.45,0.66,4.77,0.52c10.66-1.1,29.45-4.17,43.93-4.93c2.23-0.12,2.38,0.04,4.04,0.67" class="stroke" stroke-dasharray="150"><set attributeName="opacity" to="0" dur="4.1000000000000005s" /><animate attributeName="stroke-dashoffset" from="150" to="0" dur="1.8s" begin="4.1000000000000005s" fill="freeze" /></path><path d="M66.36,45.83C72.5,48,79.25,50.5,84.95,51.41c3.23,0.52,4.48,1.67,3.97,4.15C87.5,62.5,77.73,85.53,73.67,90.95c-4.4,5.88-7.35-0.23-8.66-1.02" class="stroke" stroke-dasharray="150"><set attributeName="opacity" to="0" dur="5.4s" /><animate attributeName="stroke-dashoffset" from="150" to="0" dur="1.8s" begin="5.4s" fill="freeze" /></path><path d="M68.06,35.25c0.45,1.43,0.36,3.04-0.17,4.64C64.16,50.97,53.4,73.35,36.67,83.83" class="stroke" stroke-dasharray="150"><set attributeName="opacity" to="0" dur="7.1000000000000005s" /><animate attributeName="stroke-dashoffset" from="150" to="0" dur="1.8s" begin="7.1000000000000005s" fill="freeze" /></path><text x="90" y="120" id="reset">⟳</text><text x="70" y="120" id="pause">◼</text><script type="text/javascript"><![CDATA[function RecurringTimer(e,t){var n,r,i=t;this.pause=function(){window.clearTimeout(n);i-=new Date-r};var s=function(){r=new Date;n=window.setTimeout(function(){i=t;s();e()},i)};this.clear=function(){window.clearTimeout(n);i=t;n=window.setTimeout(function(){i=t;s();e()},i)};this.resume=s;this.resume()}function invoketimer(){timer=new RecurringTimer(function(){svg.setCurrentTime(0)},9500)}var svg=document.getElementById("kanjivg");var pause=document.getElementById("pause");var reset=document.getElementById("reset");var timer;invoketimer();reset.onclick=function(){svg.setCurrentTime(0);timer.clear();svg.unpauseAnimations();pause.innerHTML = "◼";};pause.onclick=function(){if(svg.animationsPaused()){svg.unpauseAnimations();timer.resume();pause.innerHTML="◼"}else{svg.pauseAnimations();timer.pause();pause.innerHTML="▶"}}]]></script></svg>