<svg id="kanjivg" width="106" height="126" xmlns="http://www.w3.org/2000/svg" xmlns:xlink="http://www.w3.org/1999/xlink" xml:space="preserve" version="1.1" baseProfile="full"><defs><style type="text/css"><![CDATA[path.black { fill:none;stroke:black;stroke-width:5;stroke-linecap:round;stroke-linejoin:round; }path.grey { fill:none;stroke:#ddd;stroke-width:5;stroke-linecap:round;stroke-linejoin:round; }path.stroke { fill:none;stroke:black;stroke-width:5;stroke-linecap:round;stroke-linejoin:round; }rect { fill:none;stroke:#555;stroke-width:2;} text{font-size:16px;font-family:Segoe UI Symbol,Cambria Math,DejaVu Sans,Symbola,Quivira,STIX,Code2000;-webkit-touch-callout:none;cursor:pointer;-webkit-user-select:none;-khtml-user-select:none;-moz-user-select:none;-ms-user-select:none;user-select: none;} #reset { font-weight:bold; }]]></style><marker id="markerStart" markerWidth="8" markerHeight="8" style="overflow:visible;"><circle cx="0" cy="0" r="1.5" style="stroke:none;fill:red;fill-opacity:0.5;"/></marker><marker id="markerEnd" style="overflow:visible;"><circle cx="0" cy="0" r="0.8" style="stroke:none;fill:blue;fill-opacity:0.5;"><animate attributeName="opacity" from="1" to="0" dur="3s" repeatCount="indefinite" /></circle></marker></defs><rect x="4" y="4" width="100" height="100" /><path d="M13.5,46.76c0.76,0.27,3.24,0.32,4,0.25c6-0.52,15.25-2.76,20.5-4.3c1.21-0.35,2.62-0.13,3.25,0.01" class="grey" /><path d="M28.37,23.5c1.09,0.5,1.96,2.23,1.96,3.25c0,7.25,0.03,32.25,0.03,43" class="grey" /><path d="M13.5,79.04c0.73,1.21,2.19,1.86,4.38,0.26C23.96,74.86,34.92,66.94,41,62.5" class="grey" /><path d="M58.83,14.75c3.85,1.53,9.44,7.48,10.2,10.46" class="grey" /><path d="M43.21,32.51c1.07,0.08,3.51,0.52,4.55,0.41c8.41-0.87,25.99-4.17,37.32-4.66c1.76-0.08,2.67,0.04,3.98,0.53" class="grey" /><path d="M53.95,45.63c0.66,0.93,1.23,1.61,1.3,3.36c0.17,3.74,0.17,6,0.08,12.96C55.1,80.01,42.99,92.99,34.89,96" class="grey" /><path d="M55.75,48.38C62,47,67,46,72.61,45.01c1.96-0.34,4.02,0.36,3.71,2.63C76,50,75.55,78.4,75.55,83.4c0,9.88,4.3,10.35,8.87,10.35c4.81,0,7.4-0.47,8.66-2.36c1.31-1.96,1.04-2.69,1.17-5.84" class="grey" /><path d="M13.5,46.76c0.76,0.27,3.24,0.32,4,0.25c6-0.52,15.25-2.76,20.5-4.3c1.21-0.35,2.62-0.13,3.25,0.01" class="stroke" stroke-dasharray="150"><animate attributeName="stroke-dashoffset" from="150" to="0" dur="1.8s" begin="0s" fill="freeze" /></path><path d="M28.37,23.5c1.09,0.5,1.96,2.23,1.96,3.25c0,7.25,0.03,32.25,0.03,43" class="stroke" stroke-dasharray="150"><set attributeName="opacity" to="0" dur="1.0s" /><animate attributeName="stroke-dashoffset" from="150" to="0" dur="1.8s" begin="1.0s" fill="freeze" /></path><path d="M13.5,79.04c0.73,1.21,2.19,1.86,4.38,0.26C23.96,74.86,34.92,66.94,41,62.5" class="stroke" stroke-dasharray="150"><set attributeName="opacity" to="0" dur="2.2s" /><animate attributeName="stroke-dashoffset" from="150" to="0" dur="1.8s" begin="2.2s" fill="freeze" /></path><path d="M58.83,14.75c3.85,1.53,9.44,7.48,10.2,10.46" class="stroke" stroke-dasharray="150"><set attributeName="opacity" to="0" dur="3.2s" /><animate attributeName="stroke-dashoffset" from="150" to="0" dur="1.8s" begin="3.2s" fill="freeze" /></path><path d="M43.21,32.51c1.07,0.08,3.51,0.52,4.55,0.41c8.41-0.87,25.99-4.17,37.32-4.66c1.76-0.08,2.67,0.04,3.98,0.53" class="stroke" stroke-dasharray="150"><set attributeName="opacity" to="0" dur="4.1000000000000005s" /><animate attributeName="stroke-dashoffset" from="150" to="0" dur="1.8s" begin="4.1000000000000005s" fill="freeze" /></path><path d="M53.95,45.63c0.66,0.93,1.23,1.61,1.3,3.36c0.17,3.74,0.17,6,0.08,12.96C55.1,80.01,42.99,92.99,34.89,96" class="stroke" stroke-dasharray="150"><set attributeName="opacity" to="0" dur="5.300000000000001s" /><animate attributeName="stroke-dashoffset" from="150" to="0" dur="1.8s" begin="5.300000000000001s" fill="freeze" /></path><path d="M55.75,48.38C62,47,67,46,72.61,45.01c1.96-0.34,4.02,0.36,3.71,2.63C76,50,75.55,78.4,75.55,83.4c0,9.88,4.3,10.35,8.87,10.35c4.81,0,7.4-0.47,8.66-2.36c1.31-1.96,1.04-2.69,1.17-5.84" class="stroke" stroke-dasharray="150"><set attributeName="opacity" to="0" dur="6.700000000000001s" /><animate attributeName="stroke-dashoffset" from="150" to="0" dur="1.8s" begin="6.700000000000001s" fill="freeze" /></path><text x="90" y="120" id="reset">⟳</text><text x="70" y="120" id="pause">◼</text><script type="text/javascript"><![CDATA[function RecurringTimer(e,t){var n,r,i=t;this.pause=function(){window.clearTimeout(n);i-=new Date-r};var s=function(){r=new Date;n=window.setTimeout(function(){i=t;s();e()},i)};this.clear=function(){window.clearTimeout(n);i=t;n=window.setTimeout(function(){i=t;s();e()},i)};this.resume=s;this.resume()}function invoketimer(){timer=new RecurringTimer(function(){svg.setCurrentTime(0)},9400)}var svg=document.getElementById("kanjivg");var pause=document.getElementById("pause");var reset=document.getElementById("reset");var timer;invoketimer();reset.onclick=function(){svg.setCurrentTime(0);timer.clear();svg.unpauseAnimations();pause.innerHTML = "◼";};pause.onclick=function(){if(svg.animationsPaused()){svg.unpauseAnimations();timer.resume();pause.innerHTML="◼"}else{svg.pauseAnimations();timer.pause();pause.innerHTML="▶"}}]]></script></svg>