<svg id="kanjivg" width="106" height="126" xmlns="http://www.w3.org/2000/svg" xmlns:xlink="http://www.w3.org/1999/xlink" xml:space="preserve" version="1.1" baseProfile="full"><defs><style type="text/css"><![CDATA[path.black { fill:none;stroke:black;stroke-width:5;stroke-linecap:round;stroke-linejoin:round; }path.grey { fill:none;stroke:#ddd;stroke-width:5;stroke-linecap:round;stroke-linejoin:round; }path.stroke { fill:none;stroke:black;stroke-width:5;stroke-linecap:round;stroke-linejoin:round; }rect { fill:none;stroke:#555;stroke-width:2;} text{font-size:16px;font-family:Segoe UI Symbol,Cambria Math,DejaVu Sans,Symbola,Quivira,STIX,Code2000;-webkit-touch-callout:none;cursor:pointer;-webkit-user-select:none;-khtml-user-select:none;-moz-user-select:none;-ms-user-select:none;user-select: none;} #reset { font-weight:bold; }]]></style><marker id="markerStart" markerWidth="8" markerHeight="8" style="overflow:visible;"><circle cx="0" cy="0" r="1.5" style="stroke:none;fill:red;fill-opacity:0.5;"/></marker><marker id="markerEnd" style="overflow:visible;"><circle cx="0" cy="0" r="0.8" style="stroke:none;fill:blue;fill-opacity:0.5;"><animate attributeName="opacity" from="1" to="0" dur="3s" repeatCount="indefinite" /></circle></marker></defs><rect x="4" y="4" width="100" height="100" /><path d="M35.25,27.74c0.09,1.2-0.11,2.35-0.58,3.44c-4.04,8.19-9.23,15.34-18.2,23.7" class="grey" /><path d="M33,40.25c5.12,2.62,9.81,7.05,12.25,12.88" class="grey" /><path d="M79.25,28.74c0,1.13-0.08,2.04-0.59,2.95c-3.29,6.43-8.92,14.43-15.94,20.68" class="grey" /><path d="M78.14,39.71C84,43.5,87.75,47.75,91.25,53.5" class="grey" /><path d="M25.63,67.42c2.99,0.5,5.99,0.53,9,0.11c11.48-1.12,28.2-2.57,39.75-3.15c2.93-0.38,5.85-0.07,8.75,0.41" class="grey" /><path d="M15.13,89.73c4.19,0.65,8.4,0.74,12.62,0.27c16.35-1.21,38.53-2.4,54-3.12c4.31-0.1,8.61,0.13,12.88,0.69" class="grey" /><path d="M53.17,15.62c0.98,0.98,1.27,2.26,1.27,3.89c0,12-0.07,52.38-0.07,67.75" class="grey" /><path d="M35.25,27.74c0.09,1.2-0.11,2.35-0.58,3.44c-4.04,8.19-9.23,15.34-18.2,23.7" class="stroke" stroke-dasharray="150"><animate attributeName="stroke-dashoffset" from="150" to="0" dur="1.8s" begin="0s" fill="freeze" /></path><path d="M33,40.25c5.12,2.62,9.81,7.05,12.25,12.88" class="stroke" stroke-dasharray="150"><set attributeName="opacity" to="0" dur="1.0s" /><animate attributeName="stroke-dashoffset" from="150" to="0" dur="1.8s" begin="1.0s" fill="freeze" /></path><path d="M79.25,28.74c0,1.13-0.08,2.04-0.59,2.95c-3.29,6.43-8.92,14.43-15.94,20.68" class="stroke" stroke-dasharray="150"><set attributeName="opacity" to="0" dur="1.9s" /><animate attributeName="stroke-dashoffset" from="150" to="0" dur="1.8s" begin="1.9s" fill="freeze" /></path><path d="M78.14,39.71C84,43.5,87.75,47.75,91.25,53.5" class="stroke" stroke-dasharray="150"><set attributeName="opacity" to="0" dur="2.9s" /><animate attributeName="stroke-dashoffset" from="150" to="0" dur="1.8s" begin="2.9s" fill="freeze" /></path><path d="M25.63,67.42c2.99,0.5,5.99,0.53,9,0.11c11.48-1.12,28.2-2.57,39.75-3.15c2.93-0.38,5.85-0.07,8.75,0.41" class="stroke" stroke-dasharray="150"><set attributeName="opacity" to="0" dur="3.8s" /><animate attributeName="stroke-dashoffset" from="150" to="0" dur="1.8s" begin="3.8s" fill="freeze" /></path><path d="M15.13,89.73c4.19,0.65,8.4,0.74,12.62,0.27c16.35-1.21,38.53-2.4,54-3.12c4.31-0.1,8.61,0.13,12.88,0.69" class="stroke" stroke-dasharray="150"><set attributeName="opacity" to="0" dur="5.199999999999999s" /><animate attributeName="stroke-dashoffset" from="150" to="0" dur="1.8s" begin="5.199999999999999s" fill="freeze" /></path><path d="M53.17,15.62c0.98,0.98,1.27,2.26,1.27,3.89c0,12-0.07,52.38-0.07,67.75" class="stroke" stroke-dasharray="150"><set attributeName="opacity" to="0" dur="6.8999999999999995s" /><animate attributeName="stroke-dashoffset" from="150" to="0" dur="1.8s" begin="6.8999999999999995s" fill="freeze" /></path><text x="90" y="120" id="reset">⟳</text><text x="70" y="120" id="pause">◼</text><script type="text/javascript"><![CDATA[function RecurringTimer(e,t){var n,r,i=t;this.pause=function(){window.clearTimeout(n);i-=new Date-r};var s=function(){r=new Date;n=window.setTimeout(function(){i=t;s();e()},i)};this.clear=function(){window.clearTimeout(n);i=t;n=window.setTimeout(function(){i=t;s();e()},i)};this.resume=s;this.resume()}function invoketimer(){timer=new RecurringTimer(function(){svg.setCurrentTime(0)},9600)}var svg=document.getElementById("kanjivg");var pause=document.getElementById("pause");var reset=document.getElementById("reset");var timer;invoketimer();reset.onclick=function(){svg.setCurrentTime(0);timer.clear();svg.unpauseAnimations();pause.innerHTML = "◼";};pause.onclick=function(){if(svg.animationsPaused()){svg.unpauseAnimations();timer.resume();pause.innerHTML="◼"}else{svg.pauseAnimations();timer.pause();pause.innerHTML="▶"}}]]></script></svg>