<svg id="kanjivg" width="106" height="126" xmlns="http://www.w3.org/2000/svg" xmlns:xlink="http://www.w3.org/1999/xlink" xml:space="preserve" version="1.1" baseProfile="full"><defs><style type="text/css"><![CDATA[path.black { fill:none;stroke:black;stroke-width:5;stroke-linecap:round;stroke-linejoin:round; }path.grey { fill:none;stroke:#ddd;stroke-width:5;stroke-linecap:round;stroke-linejoin:round; }path.stroke { fill:none;stroke:black;stroke-width:5;stroke-linecap:round;stroke-linejoin:round; }rect { fill:none;stroke:#555;stroke-width:2;} text{font-size:16px;font-family:Segoe UI Symbol,Cambria Math,DejaVu Sans,Symbola,Quivira,STIX,Code2000;-webkit-touch-callout:none;cursor:pointer;-webkit-user-select:none;-khtml-user-select:none;-moz-user-select:none;-ms-user-select:none;user-select: none;} #reset { font-weight:bold; }]]></style><marker id="markerStart" markerWidth="8" markerHeight="8" style="overflow:visible;"><circle cx="0" cy="0" r="1.5" style="stroke:none;fill:red;fill-opacity:0.5;"/></marker><marker id="markerEnd" style="overflow:visible;"><circle cx="0" cy="0" r="0.8" style="stroke:none;fill:blue;fill-opacity:0.5;"><animate attributeName="opacity" from="1" to="0" dur="3s" repeatCount="indefinite" /></circle></marker></defs><rect x="4" y="4" width="100" height="100" /><path d="M14.5,46.89c1.88,0.36,3.61,0.18,5.14-0.05c5.75-0.86,12.37-2.55,18.11-3.84c1.23-0.28,2.5-0.25,3.12-0.25" class="grey" /><path d="M28.87,23.75c1,1,1.21,2.12,1.21,3.75c0,7.25,0.03,31.25,0.03,42" class="grey" /><path d="M14.24,79.65c0.82,0.77,2.11,0.7,3.89-0.6C24.21,74.61,34.92,66.94,41,62.5" class="grey" /><path d="M63.68,15.25c1.29,1.29,1.51,2.5,1.51,4.35c0,4.12-0.06,5.9-0.06,9.65" class="grey" /><path d="M43.46,32.51c3.04,0.37,4.84,0.36,7.81-0.04c8.5-1.15,22.05-3.44,31.75-4.09c2.06-0.14,4.08-0.32,6.05,0.41" class="grey" /><path d="M54.2,46.38c0.83,0.83,1.04,1.86,1.05,3.61c0.25,26.76-4.5,36.76-19.36,45.26" class="grey" /><path d="M56.25,48.38c5.92-1.31,10.02-2.27,15.24-3.21c3.18-0.57,4.73,0.29,4.5,3.58C75.5,56,75.55,78.82,75.55,83.4c0,8.23,2.58,10.35,8.87,10.35c8.58,0,9.55-1.43,9.83-8.19" class="grey" /><path d="M14.5,46.89c1.88,0.36,3.61,0.18,5.14-0.05c5.75-0.86,12.37-2.55,18.11-3.84c1.23-0.28,2.5-0.25,3.12-0.25" class="stroke" stroke-dasharray="150"><animate attributeName="stroke-dashoffset" from="150" to="0" dur="1.8s" begin="0s" fill="freeze" /></path><path d="M28.87,23.75c1,1,1.21,2.12,1.21,3.75c0,7.25,0.03,31.25,0.03,42" class="stroke" stroke-dasharray="150"><set attributeName="opacity" to="0" dur="1.0s" /><animate attributeName="stroke-dashoffset" from="150" to="0" dur="1.8s" begin="1.0s" fill="freeze" /></path><path d="M14.24,79.65c0.82,0.77,2.11,0.7,3.89-0.6C24.21,74.61,34.92,66.94,41,62.5" class="stroke" stroke-dasharray="150"><set attributeName="opacity" to="0" dur="2.2s" /><animate attributeName="stroke-dashoffset" from="150" to="0" dur="1.8s" begin="2.2s" fill="freeze" /></path><path d="M63.68,15.25c1.29,1.29,1.51,2.5,1.51,4.35c0,4.12-0.06,5.9-0.06,9.65" class="stroke" stroke-dasharray="150"><set attributeName="opacity" to="0" dur="3.2s" /><animate attributeName="stroke-dashoffset" from="150" to="0" dur="1.8s" begin="3.2s" fill="freeze" /></path><path d="M43.46,32.51c3.04,0.37,4.84,0.36,7.81-0.04c8.5-1.15,22.05-3.44,31.75-4.09c2.06-0.14,4.08-0.32,6.05,0.41" class="stroke" stroke-dasharray="150"><set attributeName="opacity" to="0" dur="4.1000000000000005s" /><animate attributeName="stroke-dashoffset" from="150" to="0" dur="1.8s" begin="4.1000000000000005s" fill="freeze" /></path><path d="M54.2,46.38c0.83,0.83,1.04,1.86,1.05,3.61c0.25,26.76-4.5,36.76-19.36,45.26" class="stroke" stroke-dasharray="150"><set attributeName="opacity" to="0" dur="5.300000000000001s" /><animate attributeName="stroke-dashoffset" from="150" to="0" dur="1.8s" begin="5.300000000000001s" fill="freeze" /></path><path d="M56.25,48.38c5.92-1.31,10.02-2.27,15.24-3.21c3.18-0.57,4.73,0.29,4.5,3.58C75.5,56,75.55,78.82,75.55,83.4c0,8.23,2.58,10.35,8.87,10.35c8.58,0,9.55-1.43,9.83-8.19" class="stroke" stroke-dasharray="150"><set attributeName="opacity" to="0" dur="6.700000000000001s" /><animate attributeName="stroke-dashoffset" from="150" to="0" dur="1.8s" begin="6.700000000000001s" fill="freeze" /></path><text x="90" y="120" id="reset">⟳</text><text x="70" y="120" id="pause">◼</text><script type="text/javascript"><![CDATA[function RecurringTimer(e,t){var n,r,i=t;this.pause=function(){window.clearTimeout(n);i-=new Date-r};var s=function(){r=new Date;n=window.setTimeout(function(){i=t;s();e()},i)};this.clear=function(){window.clearTimeout(n);i=t;n=window.setTimeout(function(){i=t;s();e()},i)};this.resume=s;this.resume()}function invoketimer(){timer=new RecurringTimer(function(){svg.setCurrentTime(0)},9400)}var svg=document.getElementById("kanjivg");var pause=document.getElementById("pause");var reset=document.getElementById("reset");var timer;invoketimer();reset.onclick=function(){svg.setCurrentTime(0);timer.clear();svg.unpauseAnimations();pause.innerHTML = "◼";};pause.onclick=function(){if(svg.animationsPaused()){svg.unpauseAnimations();timer.resume();pause.innerHTML="◼"}else{svg.pauseAnimations();timer.pause();pause.innerHTML="▶"}}]]></script></svg>