<svg id="kanjivg" width="106" height="126" xmlns="http://www.w3.org/2000/svg" xmlns:xlink="http://www.w3.org/1999/xlink" xml:space="preserve" version="1.1" baseProfile="full"><defs><style type="text/css"><![CDATA[path.black { fill:none;stroke:black;stroke-width:5;stroke-linecap:round;stroke-linejoin:round; }path.grey { fill:none;stroke:#ddd;stroke-width:5;stroke-linecap:round;stroke-linejoin:round; }path.stroke { fill:none;stroke:black;stroke-width:5;stroke-linecap:round;stroke-linejoin:round; }rect { fill:none;stroke:#555;stroke-width:2;} text{font-size:16px;font-family:Segoe UI Symbol,Cambria Math,DejaVu Sans,Symbola,Quivira,STIX,Code2000;-webkit-touch-callout:none;cursor:pointer;-webkit-user-select:none;-khtml-user-select:none;-moz-user-select:none;-ms-user-select:none;user-select: none;} #reset { font-weight:bold; }]]></style><marker id="markerStart" markerWidth="8" markerHeight="8" style="overflow:visible;"><circle cx="0" cy="0" r="1.5" style="stroke:none;fill:red;fill-opacity:0.5;"/></marker><marker id="markerEnd" style="overflow:visible;"><circle cx="0" cy="0" r="0.8" style="stroke:none;fill:blue;fill-opacity:0.5;"><animate attributeName="opacity" from="1" to="0" dur="3s" repeatCount="indefinite" /></circle></marker></defs><rect x="4" y="4" width="100" height="100" /><path d="M9.5,46.35c0.88,0.41,3.62,0.49,4.5,0.38c6.25-0.74,19.2-3.07,25.45-3.72c1.46-0.15,3.06-0.19,3.8,0.01" class="grey" /><path d="M25.87,21.5c1.09,0.5,1.96,2.23,1.96,3.25c0,7.25,0.53,40.25,0.53,51" class="grey" /><path d="M12,82.29c0.75,0.96,2.25,1.46,4.5,0.21C22.75,79,34,72.75,40.25,69.25" class="grey" /><path d="M42.35,35.26c1.39,0.49,3.95,0.61,5.34,0.49c10.26-0.9,29.28-2.44,46.09-3.63c2.32-0.16,3.71,0.23,4.88,0.48" class="grey" /><path d="M54.03,15.63c1.16,0.52,1.85,2.36,2.08,3.41c0.23,1.05,0,71.14-0.23,77.71" class="grey" /><path d="M82.9,12.5c1.16,0.53,1.85,2.36,2.08,3.42c0.23,1.05,0,72.72-0.23,79.28" class="grey" /><path d="M56.32,62.41c5.1-0.31,10.2-0.92,15.29-1.42c1.5-0.15,2.98-0.3,4.37-0.43" class="grey" /><path d="M56.32,93.88c6.9-0.26,21.89-1.34,28.26-1.6" class="grey" /><path d="M9.5,46.35c0.88,0.41,3.62,0.49,4.5,0.38c6.25-0.74,19.2-3.07,25.45-3.72c1.46-0.15,3.06-0.19,3.8,0.01" class="stroke" stroke-dasharray="150"><animate attributeName="stroke-dashoffset" from="150" to="0" dur="1.8s" begin="0s" fill="freeze" /></path><path d="M25.87,21.5c1.09,0.5,1.96,2.23,1.96,3.25c0,7.25,0.53,40.25,0.53,51" class="stroke" stroke-dasharray="150"><set attributeName="opacity" to="0" dur="1.0s" /><animate attributeName="stroke-dashoffset" from="150" to="0" dur="1.8s" begin="1.0s" fill="freeze" /></path><path d="M12,82.29c0.75,0.96,2.25,1.46,4.5,0.21C22.75,79,34,72.75,40.25,69.25" class="stroke" stroke-dasharray="150"><set attributeName="opacity" to="0" dur="2.3s" /><animate attributeName="stroke-dashoffset" from="150" to="0" dur="1.8s" begin="2.3s" fill="freeze" /></path><path d="M42.35,35.26c1.39,0.49,3.95,0.61,5.34,0.49c10.26-0.9,29.28-2.44,46.09-3.63c2.32-0.16,3.71,0.23,4.88,0.48" class="stroke" stroke-dasharray="150"><set attributeName="opacity" to="0" dur="3.3s" /><animate attributeName="stroke-dashoffset" from="150" to="0" dur="1.8s" begin="3.3s" fill="freeze" /></path><path d="M54.03,15.63c1.16,0.52,1.85,2.36,2.08,3.41c0.23,1.05,0,71.14-0.23,77.71" class="stroke" stroke-dasharray="150"><set attributeName="opacity" to="0" dur="4.699999999999999s" /><animate attributeName="stroke-dashoffset" from="150" to="0" dur="1.8s" begin="4.699999999999999s" fill="freeze" /></path><path d="M82.9,12.5c1.16,0.53,1.85,2.36,2.08,3.42c0.23,1.05,0,72.72-0.23,79.28" class="stroke" stroke-dasharray="150"><set attributeName="opacity" to="0" dur="6.3999999999999995s" /><animate attributeName="stroke-dashoffset" from="150" to="0" dur="1.8s" begin="6.3999999999999995s" fill="freeze" /></path><path d="M56.32,62.41c5.1-0.31,10.2-0.92,15.29-1.42c1.5-0.15,2.98-0.3,4.37-0.43" class="stroke" stroke-dasharray="150"><set attributeName="opacity" to="0" dur="8.1s" /><animate attributeName="stroke-dashoffset" from="150" to="0" dur="1.8s" begin="8.1s" fill="freeze" /></path><path d="M56.32,93.88c6.9-0.26,21.89-1.34,28.26-1.6" class="stroke" stroke-dasharray="150"><set attributeName="opacity" to="0" dur="9.0s" /><animate attributeName="stroke-dashoffset" from="150" to="0" dur="1.8s" begin="9.0s" fill="freeze" /></path><text x="90" y="120" id="reset">⟳</text><text x="70" y="120" id="pause">◼</text><script type="text/javascript"><![CDATA[function RecurringTimer(e,t){var n,r,i=t;this.pause=function(){window.clearTimeout(n);i-=new Date-r};var s=function(){r=new Date;n=window.setTimeout(function(){i=t;s();e()},i)};this.clear=function(){window.clearTimeout(n);i=t;n=window.setTimeout(function(){i=t;s();e()},i)};this.resume=s;this.resume()}function invoketimer(){timer=new RecurringTimer(function(){svg.setCurrentTime(0)},11000)}var svg=document.getElementById("kanjivg");var pause=document.getElementById("pause");var reset=document.getElementById("reset");var timer;invoketimer();reset.onclick=function(){svg.setCurrentTime(0);timer.clear();svg.unpauseAnimations();pause.innerHTML = "◼";};pause.onclick=function(){if(svg.animationsPaused()){svg.unpauseAnimations();timer.resume();pause.innerHTML="◼"}else{svg.pauseAnimations();timer.pause();pause.innerHTML="▶"}}]]></script></svg>