<svg id="kanjivg" width="106" height="126" xmlns="http://www.w3.org/2000/svg" xmlns:xlink="http://www.w3.org/1999/xlink" xml:space="preserve" version="1.1" baseProfile="full"><defs><style type="text/css"><![CDATA[path.black { fill:none;stroke:black;stroke-width:5;stroke-linecap:round;stroke-linejoin:round; }path.grey { fill:none;stroke:#ddd;stroke-width:5;stroke-linecap:round;stroke-linejoin:round; }path.stroke { fill:none;stroke:black;stroke-width:5;stroke-linecap:round;stroke-linejoin:round; }rect { fill:none;stroke:#555;stroke-width:2;} text{font-size:16px;font-family:Segoe UI Symbol,Cambria Math,DejaVu Sans,Symbola,Quivira,STIX,Code2000;-webkit-touch-callout:none;cursor:pointer;-webkit-user-select:none;-khtml-user-select:none;-moz-user-select:none;-ms-user-select:none;user-select: none;} #reset { font-weight:bold; }]]></style><marker id="markerStart" markerWidth="8" markerHeight="8" style="overflow:visible;"><circle cx="0" cy="0" r="1.5" style="stroke:none;fill:red;fill-opacity:0.5;"/></marker><marker id="markerEnd" style="overflow:visible;"><circle cx="0" cy="0" r="0.8" style="stroke:none;fill:blue;fill-opacity:0.5;"><animate attributeName="opacity" from="1" to="0" dur="3s" repeatCount="indefinite" /></circle></marker></defs><rect x="4" y="4" width="100" height="100" /><path d="M9.25,44.19c0.78,0.34,2.8,0.4,3.58,0.32c7.42-0.75,16.59-2.98,22.08-3.52c1.29-0.13,2.69-0.16,3.34,0.01" class="grey" /><path d="M23.37,19c1.09,0.5,1.96,2.23,1.96,3.25c0,7.25,0.03,37.75,0.03,48.5" class="grey" /><path d="M10,79.23c0.73,1.02,2.22,1.62,4.38,0.22C21.25,75,30.25,69.5,37.5,64.25" class="grey" /><path d="M44.9,32.87c0.67,1.09,1.17,2.07,1.16,4.35C45.92,62.88,45.36,82,33.62,90.63" class="grey" /><path d="M45.89,35.51c14.61-2.26,33.75-5.34,39.28-5.68c9.75-0.59,2.33,6.41-0.1,8.78" class="grey" /><path d="M63.98,13.75c1.61,0.5,2.58,2.25,2.9,3.25c0.32,1-0.12,26.5-0.12,36.75" class="grey" /><path d="M52,55.67c1.27,0.33,1.55,0.87,4.08,0.38c5.4-1.05,17.38-3.8,22.76-4.57c1.79-0.26,3.14,1.91,2.37,3.61c-8,17.58-17.95,30.9-35.94,40.54" class="grey" /><path d="M52.81,62.62C56.71,63.4,75.8,84.4,89.4,93c2.12,1.34,3.66,2.23,5.63,2.68" class="grey" /><path d="M9.25,44.19c0.78,0.34,2.8,0.4,3.58,0.32c7.42-0.75,16.59-2.98,22.08-3.52c1.29-0.13,2.69-0.16,3.34,0.01" class="stroke" stroke-dasharray="150"><animate attributeName="stroke-dashoffset" from="150" to="0" dur="1.8s" begin="0s" fill="freeze" /></path><path d="M23.37,19c1.09,0.5,1.96,2.23,1.96,3.25c0,7.25,0.03,37.75,0.03,48.5" class="stroke" stroke-dasharray="150"><set attributeName="opacity" to="0" dur="1.0s" /><animate attributeName="stroke-dashoffset" from="150" to="0" dur="1.8s" begin="1.0s" fill="freeze" /></path><path d="M10,79.23c0.73,1.02,2.22,1.62,4.38,0.22C21.25,75,30.25,69.5,37.5,64.25" class="stroke" stroke-dasharray="150"><set attributeName="opacity" to="0" dur="2.3s" /><animate attributeName="stroke-dashoffset" from="150" to="0" dur="1.8s" begin="2.3s" fill="freeze" /></path><path d="M44.9,32.87c0.67,1.09,1.17,2.07,1.16,4.35C45.92,62.88,45.36,82,33.62,90.63" class="stroke" stroke-dasharray="150"><set attributeName="opacity" to="0" dur="3.3s" /><animate attributeName="stroke-dashoffset" from="150" to="0" dur="1.8s" begin="3.3s" fill="freeze" /></path><path d="M45.89,35.51c14.61-2.26,33.75-5.34,39.28-5.68c9.75-0.59,2.33,6.41-0.1,8.78" class="stroke" stroke-dasharray="150"><set attributeName="opacity" to="0" dur="4.8s" /><animate attributeName="stroke-dashoffset" from="150" to="0" dur="1.8s" begin="4.8s" fill="freeze" /></path><path d="M63.98,13.75c1.61,0.5,2.58,2.25,2.9,3.25c0.32,1-0.12,26.5-0.12,36.75" class="stroke" stroke-dasharray="150"><set attributeName="opacity" to="0" dur="6.1s" /><animate attributeName="stroke-dashoffset" from="150" to="0" dur="1.8s" begin="6.1s" fill="freeze" /></path><path d="M52,55.67c1.27,0.33,1.55,0.87,4.08,0.38c5.4-1.05,17.38-3.8,22.76-4.57c1.79-0.26,3.14,1.91,2.37,3.61c-8,17.58-17.95,30.9-35.94,40.54" class="stroke" stroke-dasharray="150"><set attributeName="opacity" to="0" dur="7.199999999999999s" /><animate attributeName="stroke-dashoffset" from="150" to="0" dur="1.8s" begin="7.199999999999999s" fill="freeze" /></path><path d="M52.81,62.62C56.71,63.4,75.8,84.4,89.4,93c2.12,1.34,3.66,2.23,5.63,2.68" class="stroke" stroke-dasharray="150"><set attributeName="opacity" to="0" dur="8.899999999999999s" /><animate attributeName="stroke-dashoffset" from="150" to="0" dur="1.8s" begin="8.899999999999999s" fill="freeze" /></path><text x="90" y="120" id="reset">⟳</text><text x="70" y="120" id="pause">◼</text><script type="text/javascript"><![CDATA[function RecurringTimer(e,t){var n,r,i=t;this.pause=function(){window.clearTimeout(n);i-=new Date-r};var s=function(){r=new Date;n=window.setTimeout(function(){i=t;s();e()},i)};this.clear=function(){window.clearTimeout(n);i=t;n=window.setTimeout(function(){i=t;s();e()},i)};this.resume=s;this.resume()}function invoketimer(){timer=new RecurringTimer(function(){svg.setCurrentTime(0)},11200)}var svg=document.getElementById("kanjivg");var pause=document.getElementById("pause");var reset=document.getElementById("reset");var timer;invoketimer();reset.onclick=function(){svg.setCurrentTime(0);timer.clear();svg.unpauseAnimations();pause.innerHTML = "◼";};pause.onclick=function(){if(svg.animationsPaused()){svg.unpauseAnimations();timer.resume();pause.innerHTML="◼"}else{svg.pauseAnimations();timer.pause();pause.innerHTML="▶"}}]]></script></svg>