<svg id="kanjivg" width="106" height="126" xmlns="http://www.w3.org/2000/svg" xmlns:xlink="http://www.w3.org/1999/xlink" xml:space="preserve" version="1.1" baseProfile="full"><defs><style type="text/css"><![CDATA[path.black { fill:none;stroke:black;stroke-width:5;stroke-linecap:round;stroke-linejoin:round; }path.grey { fill:none;stroke:#ddd;stroke-width:5;stroke-linecap:round;stroke-linejoin:round; }path.stroke { fill:none;stroke:black;stroke-width:5;stroke-linecap:round;stroke-linejoin:round; }rect { fill:none;stroke:#555;stroke-width:2;} text{font-size:16px;font-family:Segoe UI Symbol,Cambria Math,DejaVu Sans,Symbola,Quivira,STIX,Code2000;-webkit-touch-callout:none;cursor:pointer;-webkit-user-select:none;-khtml-user-select:none;-moz-user-select:none;-ms-user-select:none;user-select: none;} #reset { font-weight:bold; }]]></style><marker id="markerStart" markerWidth="8" markerHeight="8" style="overflow:visible;"><circle cx="0" cy="0" r="1.5" style="stroke:none;fill:red;fill-opacity:0.5;"/></marker><marker id="markerEnd" style="overflow:visible;"><circle cx="0" cy="0" r="0.8" style="stroke:none;fill:blue;fill-opacity:0.5;"><animate attributeName="opacity" from="1" to="0" dur="3s" repeatCount="indefinite" /></circle></marker></defs><rect x="4" y="4" width="100" height="100" /><path d="M12.25,44.89c0.76,0.38,2.24,0.42,3,0.36c6.5-0.5,18.65-2.39,24-3c1.25-0.14,2.62-0.18,3.25,0.01" class="grey" /><path d="M27.37,19.75c1.09,0.5,1.74,2.25,1.96,3.25c0.22,1,0,43.25-0.22,49.5" class="grey" /><path d="M13,82c2,0.5,3.75,0.25,5.12-0.68c7.45-5.02,14.51-10.59,21.63-16.08" class="grey" /><path d="M51.56,23.66c0.5,1.11,1.01,1.67,1.01,3.16c0,1.49-0.17,44.84,0,46.33" class="grey" /><path d="M52.92,24.85c2.86-0.19,26.08-2.38,28.68-2.6c2.17-0.19,3.56,2.06,3.39,3.16c-0.34,2.23-0.17,44.89-0.17,46" class="grey" /><path d="M52.92,46.89c3.86,0,27.36-2.36,31.73-2.36" class="grey" /><path d="M52.42,70.1c8.83-0.85,24.08-2.1,32.4-2.49" class="grey" /><path d="M39.55,88.59c1.16,0.46,3.3,0.49,4.46,0.46c10.28-0.23,38.58-2.56,50.61-2.54c1.94,0,3.1,0.22,4.07,0.45" class="grey" /><path d="M12.25,44.89c0.76,0.38,2.24,0.42,3,0.36c6.5-0.5,18.65-2.39,24-3c1.25-0.14,2.62-0.18,3.25,0.01" class="stroke" stroke-dasharray="150"><animate attributeName="stroke-dashoffset" from="150" to="0" dur="1.8s" begin="0s" fill="freeze" /></path><path d="M27.37,19.75c1.09,0.5,1.74,2.25,1.96,3.25c0.22,1,0,43.25-0.22,49.5" class="stroke" stroke-dasharray="150"><set attributeName="opacity" to="0" dur="1.0s" /><animate attributeName="stroke-dashoffset" from="150" to="0" dur="1.8s" begin="1.0s" fill="freeze" /></path><path d="M13,82c2,0.5,3.75,0.25,5.12-0.68c7.45-5.02,14.51-10.59,21.63-16.08" class="stroke" stroke-dasharray="150"><set attributeName="opacity" to="0" dur="2.3s" /><animate attributeName="stroke-dashoffset" from="150" to="0" dur="1.8s" begin="2.3s" fill="freeze" /></path><path d="M51.56,23.66c0.5,1.11,1.01,1.67,1.01,3.16c0,1.49-0.17,44.84,0,46.33" class="stroke" stroke-dasharray="150"><set attributeName="opacity" to="0" dur="3.3s" /><animate attributeName="stroke-dashoffset" from="150" to="0" dur="1.8s" begin="3.3s" fill="freeze" /></path><path d="M52.92,24.85c2.86-0.19,26.08-2.38,28.68-2.6c2.17-0.19,3.56,2.06,3.39,3.16c-0.34,2.23-0.17,44.89-0.17,46" class="stroke" stroke-dasharray="150"><set attributeName="opacity" to="0" dur="4.5s" /><animate attributeName="stroke-dashoffset" from="150" to="0" dur="1.8s" begin="4.5s" fill="freeze" /></path><path d="M52.92,46.89c3.86,0,27.36-2.36,31.73-2.36" class="stroke" stroke-dasharray="150"><set attributeName="opacity" to="0" dur="6.2s" /><animate attributeName="stroke-dashoffset" from="150" to="0" dur="1.8s" begin="6.2s" fill="freeze" /></path><path d="M52.42,70.1c8.83-0.85,24.08-2.1,32.4-2.49" class="stroke" stroke-dasharray="150"><set attributeName="opacity" to="0" dur="7.2s" /><animate attributeName="stroke-dashoffset" from="150" to="0" dur="1.8s" begin="7.2s" fill="freeze" /></path><path d="M39.55,88.59c1.16,0.46,3.3,0.49,4.46,0.46c10.28-0.23,38.58-2.56,50.61-2.54c1.94,0,3.1,0.22,4.07,0.45" class="stroke" stroke-dasharray="150"><set attributeName="opacity" to="0" dur="8.2s" /><animate attributeName="stroke-dashoffset" from="150" to="0" dur="1.8s" begin="8.2s" fill="freeze" /></path><text x="90" y="120" id="reset">⟳</text><text x="70" y="120" id="pause">◼</text><script type="text/javascript"><![CDATA[function RecurringTimer(e,t){var n,r,i=t;this.pause=function(){window.clearTimeout(n);i-=new Date-r};var s=function(){r=new Date;n=window.setTimeout(function(){i=t;s();e()},i)};this.clear=function(){window.clearTimeout(n);i=t;n=window.setTimeout(function(){i=t;s();e()},i)};this.resume=s;this.resume()}function invoketimer(){timer=new RecurringTimer(function(){svg.setCurrentTime(0)},10600)}var svg=document.getElementById("kanjivg");var pause=document.getElementById("pause");var reset=document.getElementById("reset");var timer;invoketimer();reset.onclick=function(){svg.setCurrentTime(0);timer.clear();svg.unpauseAnimations();pause.innerHTML = "◼";};pause.onclick=function(){if(svg.animationsPaused()){svg.unpauseAnimations();timer.resume();pause.innerHTML="◼"}else{svg.pauseAnimations();timer.pause();pause.innerHTML="▶"}}]]></script></svg>