<svg id="kanjivg" width="106" height="126" xmlns="http://www.w3.org/2000/svg" xmlns:xlink="http://www.w3.org/1999/xlink" xml:space="preserve" version="1.1" baseProfile="full"><defs><style type="text/css"><![CDATA[path.black { fill:none;stroke:black;stroke-width:5;stroke-linecap:round;stroke-linejoin:round; }path.grey { fill:none;stroke:#ddd;stroke-width:5;stroke-linecap:round;stroke-linejoin:round; }path.stroke { fill:none;stroke:black;stroke-width:5;stroke-linecap:round;stroke-linejoin:round; }rect { fill:none;stroke:#555;stroke-width:2;} text{font-size:16px;font-family:Segoe UI Symbol,Cambria Math,DejaVu Sans,Symbola,Quivira,STIX,Code2000;-webkit-touch-callout:none;cursor:pointer;-webkit-user-select:none;-khtml-user-select:none;-moz-user-select:none;-ms-user-select:none;user-select: none;} #reset { font-weight:bold; }]]></style><marker id="markerStart" markerWidth="8" markerHeight="8" style="overflow:visible;"><circle cx="0" cy="0" r="1.5" style="stroke:none;fill:red;fill-opacity:0.5;"/></marker><marker id="markerEnd" style="overflow:visible;"><circle cx="0" cy="0" r="0.8" style="stroke:none;fill:blue;fill-opacity:0.5;"><animate attributeName="opacity" from="1" to="0" dur="3s" repeatCount="indefinite" /></circle></marker></defs><rect x="4" y="4" width="100" height="100" /><path d="M13.5,47.89c2.16,0.41,4.33,0.5,6.52,0.26c5.46-0.72,13.66-2.56,18.37-3.22c1.53-0.26,3.07-0.31,4.62-0.17" class="grey" /><path d="M28.12,20.75c1.13,1.13,1.21,2.38,1.21,3.75c0,1.02,0.03,42,0.03,49.25" class="grey" /><path d="M13.25,80.27c1.5,0.73,3.04,1,5.57-0.29c7.05-3.58,16.75-8.28,23.8-11.86" class="grey" /><path d="M48.75,32.99c0.82,0.82,1.16,1.87,1.25,2.63c0.7,6,1.72,16.15,2.71,26.24c0.25,2.53,0.5,5.06,0.74,7.52" class="grey" /><path d="M50.69,34.67c14.18-2.05,29.39-3.1,37.82-3.72c3.5-0.26,6.05,0.56,5.67,4.44c-0.5,5.13-1.5,13.85-2.87,23.74c-0.37,2.67-0.77,5.42-1.19,8.21" class="grey" /><path d="M52.46,50.22c9.67-1.1,27.79-2.47,39.36-2.97" class="grey" /><path d="M54.26,67.03c11.49-1.16,21.61-2.16,35.29-2.85" class="grey" /><path d="M69.12,11.75c0.94,0.94,1.21,2.38,1.21,3.75c0,0.83,0.02,45.41,0.03,70.12c0,5.86,0,10.6,0,13.38" class="grey" /><path d="M13.5,47.89c2.16,0.41,4.33,0.5,6.52,0.26c5.46-0.72,13.66-2.56,18.37-3.22c1.53-0.26,3.07-0.31,4.62-0.17" class="stroke" stroke-dasharray="150"><animate attributeName="stroke-dashoffset" from="150" to="0" dur="1.8s" begin="0s" fill="freeze" /></path><path d="M28.12,20.75c1.13,1.13,1.21,2.38,1.21,3.75c0,1.02,0.03,42,0.03,49.25" class="stroke" stroke-dasharray="150"><set attributeName="opacity" to="0" dur="1.0s" /><animate attributeName="stroke-dashoffset" from="150" to="0" dur="1.8s" begin="1.0s" fill="freeze" /></path><path d="M13.25,80.27c1.5,0.73,3.04,1,5.57-0.29c7.05-3.58,16.75-8.28,23.8-11.86" class="stroke" stroke-dasharray="150"><set attributeName="opacity" to="0" dur="2.3s" /><animate attributeName="stroke-dashoffset" from="150" to="0" dur="1.8s" begin="2.3s" fill="freeze" /></path><path d="M48.75,32.99c0.82,0.82,1.16,1.87,1.25,2.63c0.7,6,1.72,16.15,2.71,26.24c0.25,2.53,0.5,5.06,0.74,7.52" class="stroke" stroke-dasharray="150"><set attributeName="opacity" to="0" dur="3.3s" /><animate attributeName="stroke-dashoffset" from="150" to="0" dur="1.8s" begin="3.3s" fill="freeze" /></path><path d="M50.69,34.67c14.18-2.05,29.39-3.1,37.82-3.72c3.5-0.26,6.05,0.56,5.67,4.44c-0.5,5.13-1.5,13.85-2.87,23.74c-0.37,2.67-0.77,5.42-1.19,8.21" class="stroke" stroke-dasharray="150"><set attributeName="opacity" to="0" dur="4.3s" /><animate attributeName="stroke-dashoffset" from="150" to="0" dur="1.8s" begin="4.3s" fill="freeze" /></path><path d="M52.46,50.22c9.67-1.1,27.79-2.47,39.36-2.97" class="stroke" stroke-dasharray="150"><set attributeName="opacity" to="0" dur="6.0s" /><animate attributeName="stroke-dashoffset" from="150" to="0" dur="1.8s" begin="6.0s" fill="freeze" /></path><path d="M54.26,67.03c11.49-1.16,21.61-2.16,35.29-2.85" class="stroke" stroke-dasharray="150"><set attributeName="opacity" to="0" dur="7.0s" /><animate attributeName="stroke-dashoffset" from="150" to="0" dur="1.8s" begin="7.0s" fill="freeze" /></path><path d="M69.12,11.75c0.94,0.94,1.21,2.38,1.21,3.75c0,0.83,0.02,45.41,0.03,70.12c0,5.86,0,10.6,0,13.38" class="stroke" stroke-dasharray="150"><set attributeName="opacity" to="0" dur="8.0s" /><animate attributeName="stroke-dashoffset" from="150" to="0" dur="1.8s" begin="8.0s" fill="freeze" /></path><text x="90" y="120" id="reset">⟳</text><text x="70" y="120" id="pause">◼</text><script type="text/javascript"><![CDATA[function RecurringTimer(e,t){var n,r,i=t;this.pause=function(){window.clearTimeout(n);i-=new Date-r};var s=function(){r=new Date;n=window.setTimeout(function(){i=t;s();e()},i)};this.clear=function(){window.clearTimeout(n);i=t;n=window.setTimeout(function(){i=t;s();e()},i)};this.resume=s;this.resume()}function invoketimer(){timer=new RecurringTimer(function(){svg.setCurrentTime(0)},10700)}var svg=document.getElementById("kanjivg");var pause=document.getElementById("pause");var reset=document.getElementById("reset");var timer;invoketimer();reset.onclick=function(){svg.setCurrentTime(0);timer.clear();svg.unpauseAnimations();pause.innerHTML = "◼";};pause.onclick=function(){if(svg.animationsPaused()){svg.unpauseAnimations();timer.resume();pause.innerHTML="◼"}else{svg.pauseAnimations();timer.pause();pause.innerHTML="▶"}}]]></script></svg>