<svg id="kanjivg" width="106" height="126" xmlns="http://www.w3.org/2000/svg" xmlns:xlink="http://www.w3.org/1999/xlink" xml:space="preserve" version="1.1" baseProfile="full"><defs><style type="text/css"><![CDATA[path.black { fill:none;stroke:black;stroke-width:5;stroke-linecap:round;stroke-linejoin:round; }path.grey { fill:none;stroke:#ddd;stroke-width:5;stroke-linecap:round;stroke-linejoin:round; }path.stroke { fill:none;stroke:black;stroke-width:5;stroke-linecap:round;stroke-linejoin:round; }rect { fill:none;stroke:#555;stroke-width:2;} text{font-size:16px;font-family:Segoe UI Symbol,Cambria Math,DejaVu Sans,Symbola,Quivira,STIX,Code2000;-webkit-touch-callout:none;cursor:pointer;-webkit-user-select:none;-khtml-user-select:none;-moz-user-select:none;-ms-user-select:none;user-select: none;} #reset { font-weight:bold; }]]></style><marker id="markerStart" markerWidth="8" markerHeight="8" style="overflow:visible;"><circle cx="0" cy="0" r="1.5" style="stroke:none;fill:red;fill-opacity:0.5;"/></marker><marker id="markerEnd" style="overflow:visible;"><circle cx="0" cy="0" r="0.8" style="stroke:none;fill:blue;fill-opacity:0.5;"><animate attributeName="opacity" from="1" to="0" dur="3s" repeatCount="indefinite" /></circle></marker></defs><rect x="4" y="4" width="100" height="100" /><path d="M13.75,40.64c1.39,0.77,3.97,0.67,5.47,0.45c5.39-0.8,14.28-2.83,18.33-3.34c1.14-0.14,2.38-0.18,2.95,0.01" class="grey" /><path d="M27.62,17.25c1.13,1.13,1.21,2.12,1.21,3.75c0,7.25,0.03,33.5,0.03,44.25" class="grey" /><path d="M13.75,73.89c1,0.98,2.75,0.86,4.22-0.26c5.68-4.32,15.42-11.07,21.28-15.13" class="grey" /><path d="M49.74,20.11c2.26,0.64,5.09,0.23,7.04-0.02c6.29-0.79,17.76-2.44,25.34-3.31c2.31-0.26,5.13-0.73,7.4,0.01" class="grey" /><path d="M49.42,34.14c3.33,3.86,6.08,9.36,7.65,14.75" class="grey" /><path d="M89.83,28.48c0.06,1,0.04,1.69-0.36,2.62c-2.09,4.85-5.73,10.6-10.8,17.09" class="grey" /><path d="M45.54,59.32c2.21,0.55,4.78,0.52,7.22,0.2c9.49-1.27,25.24-3.27,36.49-3.92c2.58-0.15,5.42-0.05,7.95,0.5" class="grey" /><path d="M68.27,21.66c1.1,1.1,1.39,2.34,1.39,4.03c0,0.78,0.09,43.3,0.01,62.3c-0.02,4.38-0.04,7.52-0.05,8.63" class="grey" /><path d="M13.75,40.64c1.39,0.77,3.97,0.67,5.47,0.45c5.39-0.8,14.28-2.83,18.33-3.34c1.14-0.14,2.38-0.18,2.95,0.01" class="stroke" stroke-dasharray="150"><animate attributeName="stroke-dashoffset" from="150" to="0" dur="1.8s" begin="0s" fill="freeze" /></path><path d="M27.62,17.25c1.13,1.13,1.21,2.12,1.21,3.75c0,7.25,0.03,33.5,0.03,44.25" class="stroke" stroke-dasharray="150"><set attributeName="opacity" to="0" dur="1.0s" /><animate attributeName="stroke-dashoffset" from="150" to="0" dur="1.8s" begin="1.0s" fill="freeze" /></path><path d="M13.75,73.89c1,0.98,2.75,0.86,4.22-0.26c5.68-4.32,15.42-11.07,21.28-15.13" class="stroke" stroke-dasharray="150"><set attributeName="opacity" to="0" dur="2.2s" /><animate attributeName="stroke-dashoffset" from="150" to="0" dur="1.8s" begin="2.2s" fill="freeze" /></path><path d="M49.74,20.11c2.26,0.64,5.09,0.23,7.04-0.02c6.29-0.79,17.76-2.44,25.34-3.31c2.31-0.26,5.13-0.73,7.4,0.01" class="stroke" stroke-dasharray="150"><set attributeName="opacity" to="0" dur="3.2s" /><animate attributeName="stroke-dashoffset" from="150" to="0" dur="1.8s" begin="3.2s" fill="freeze" /></path><path d="M49.42,34.14c3.33,3.86,6.08,9.36,7.65,14.75" class="stroke" stroke-dasharray="150"><set attributeName="opacity" to="0" dur="4.300000000000001s" /><animate attributeName="stroke-dashoffset" from="150" to="0" dur="1.8s" begin="4.300000000000001s" fill="freeze" /></path><path d="M89.83,28.48c0.06,1,0.04,1.69-0.36,2.62c-2.09,4.85-5.73,10.6-10.8,17.09" class="stroke" stroke-dasharray="150"><set attributeName="opacity" to="0" dur="5.200000000000001s" /><animate attributeName="stroke-dashoffset" from="150" to="0" dur="1.8s" begin="5.200000000000001s" fill="freeze" /></path><path d="M45.54,59.32c2.21,0.55,4.78,0.52,7.22,0.2c9.49-1.27,25.24-3.27,36.49-3.92c2.58-0.15,5.42-0.05,7.95,0.5" class="stroke" stroke-dasharray="150"><set attributeName="opacity" to="0" dur="6.200000000000001s" /><animate attributeName="stroke-dashoffset" from="150" to="0" dur="1.8s" begin="6.200000000000001s" fill="freeze" /></path><path d="M68.27,21.66c1.1,1.1,1.39,2.34,1.39,4.03c0,0.78,0.09,43.3,0.01,62.3c-0.02,4.38-0.04,7.52-0.05,8.63" class="stroke" stroke-dasharray="150"><set attributeName="opacity" to="0" dur="7.500000000000001s" /><animate attributeName="stroke-dashoffset" from="150" to="0" dur="1.8s" begin="7.500000000000001s" fill="freeze" /></path><text x="90" y="120" id="reset">⟳</text><text x="70" y="120" id="pause">◼</text><script type="text/javascript"><![CDATA[function RecurringTimer(e,t){var n,r,i=t;this.pause=function(){window.clearTimeout(n);i-=new Date-r};var s=function(){r=new Date;n=window.setTimeout(function(){i=t;s();e()},i)};this.clear=function(){window.clearTimeout(n);i=t;n=window.setTimeout(function(){i=t;s();e()},i)};this.resume=s;this.resume()}function invoketimer(){timer=new RecurringTimer(function(){svg.setCurrentTime(0)},10200)}var svg=document.getElementById("kanjivg");var pause=document.getElementById("pause");var reset=document.getElementById("reset");var timer;invoketimer();reset.onclick=function(){svg.setCurrentTime(0);timer.clear();svg.unpauseAnimations();pause.innerHTML = "◼";};pause.onclick=function(){if(svg.animationsPaused()){svg.unpauseAnimations();timer.resume();pause.innerHTML="◼"}else{svg.pauseAnimations();timer.pause();pause.innerHTML="▶"}}]]></script></svg>