<svg id="kanjivg" width="106" height="126" xmlns="http://www.w3.org/2000/svg" xmlns:xlink="http://www.w3.org/1999/xlink" xml:space="preserve" version="1.1" baseProfile="full"><defs><style type="text/css"><![CDATA[path.black { fill:none;stroke:black;stroke-width:5;stroke-linecap:round;stroke-linejoin:round; }path.grey { fill:none;stroke:#ddd;stroke-width:5;stroke-linecap:round;stroke-linejoin:round; }path.stroke { fill:none;stroke:black;stroke-width:5;stroke-linecap:round;stroke-linejoin:round; }rect { fill:none;stroke:#555;stroke-width:2;} text{font-size:16px;font-family:Segoe UI Symbol,Cambria Math,DejaVu Sans,Symbola,Quivira,STIX,Code2000;-webkit-touch-callout:none;cursor:pointer;-webkit-user-select:none;-khtml-user-select:none;-moz-user-select:none;-ms-user-select:none;user-select: none;} #reset { font-weight:bold; }]]></style><marker id="markerStart" markerWidth="8" markerHeight="8" style="overflow:visible;"><circle cx="0" cy="0" r="1.5" style="stroke:none;fill:red;fill-opacity:0.5;"/></marker><marker id="markerEnd" style="overflow:visible;"><circle cx="0" cy="0" r="0.8" style="stroke:none;fill:blue;fill-opacity:0.5;"><animate attributeName="opacity" from="1" to="0" dur="3s" repeatCount="indefinite" /></circle></marker></defs><rect x="4" y="4" width="100" height="100" /><path d="M13.5,48.14c0.76,0.38,2.24,0.4,3,0.36c5.25-0.25,17.65-2.89,23-3.5c1.25-0.14,2.62-0.18,3.25,0.01" class="grey" /><path d="M27.12,20.5c1.09,0.5,1.74,2.25,1.96,3.25c0.22,1,0.5,43.25,0.28,49.5" class="grey" /><path d="M13.25,80.27c1.5,0.73,3.04,1,5.57-0.29c7.05-3.58,14.38-6.9,21.43-10.48" class="grey" /><path d="M48.75,32.99c0.31,0.61,1.31,3.01,1.48,3.76c1.36,6.16,2.43,21.29,3.22,32.63" class="grey" /><path d="M50.69,34.92c15.06-2.17,31.01-3.48,39.06-4.08c2.96-0.22,4.47,1.56,4.31,3.21c-0.59,6.05-1.81,19.2-3.94,33.29" class="grey" /><path d="M52.46,50.22c8.96-0.76,17.93-1.44,26.9-2.11c1.08-0.08,2.13-0.16,3.14-0.23" class="grey" /><path d="M54.01,67.03c9.99-0.78,23.74-2.28,35.54-2.85" class="grey" /><path d="M68.37,11.75c1.09,0.5,1.74,2.25,1.96,3.25c0.22,1-0.22,69.5-0.22,84" class="grey" /><path d="M13.5,48.14c0.76,0.38,2.24,0.4,3,0.36c5.25-0.25,17.65-2.89,23-3.5c1.25-0.14,2.62-0.18,3.25,0.01" class="stroke" stroke-dasharray="150"><animate attributeName="stroke-dashoffset" from="150" to="0" dur="1.8s" begin="0s" fill="freeze" /></path><path d="M27.12,20.5c1.09,0.5,1.74,2.25,1.96,3.25c0.22,1,0.5,43.25,0.28,49.5" class="stroke" stroke-dasharray="150"><set attributeName="opacity" to="0" dur="1.0s" /><animate attributeName="stroke-dashoffset" from="150" to="0" dur="1.8s" begin="1.0s" fill="freeze" /></path><path d="M13.25,80.27c1.5,0.73,3.04,1,5.57-0.29c7.05-3.58,14.38-6.9,21.43-10.48" class="stroke" stroke-dasharray="150"><set attributeName="opacity" to="0" dur="2.3s" /><animate attributeName="stroke-dashoffset" from="150" to="0" dur="1.8s" begin="2.3s" fill="freeze" /></path><path d="M48.75,32.99c0.31,0.61,1.31,3.01,1.48,3.76c1.36,6.16,2.43,21.29,3.22,32.63" class="stroke" stroke-dasharray="150"><set attributeName="opacity" to="0" dur="3.3s" /><animate attributeName="stroke-dashoffset" from="150" to="0" dur="1.8s" begin="3.3s" fill="freeze" /></path><path d="M50.69,34.92c15.06-2.17,31.01-3.48,39.06-4.08c2.96-0.22,4.47,1.56,4.31,3.21c-0.59,6.05-1.81,19.2-3.94,33.29" class="stroke" stroke-dasharray="150"><set attributeName="opacity" to="0" dur="4.3s" /><animate attributeName="stroke-dashoffset" from="150" to="0" dur="1.8s" begin="4.3s" fill="freeze" /></path><path d="M52.46,50.22c8.96-0.76,17.93-1.44,26.9-2.11c1.08-0.08,2.13-0.16,3.14-0.23" class="stroke" stroke-dasharray="150"><set attributeName="opacity" to="0" dur="6.0s" /><animate attributeName="stroke-dashoffset" from="150" to="0" dur="1.8s" begin="6.0s" fill="freeze" /></path><path d="M54.01,67.03c9.99-0.78,23.74-2.28,35.54-2.85" class="stroke" stroke-dasharray="150"><set attributeName="opacity" to="0" dur="7.0s" /><animate attributeName="stroke-dashoffset" from="150" to="0" dur="1.8s" begin="7.0s" fill="freeze" /></path><path d="M68.37,11.75c1.09,0.5,1.74,2.25,1.96,3.25c0.22,1-0.22,69.5-0.22,84" class="stroke" stroke-dasharray="150"><set attributeName="opacity" to="0" dur="8.0s" /><animate attributeName="stroke-dashoffset" from="150" to="0" dur="1.8s" begin="8.0s" fill="freeze" /></path><text x="90" y="120" id="reset">⟳</text><text x="70" y="120" id="pause">◼</text><script type="text/javascript"><![CDATA[function RecurringTimer(e,t){var n,r,i=t;this.pause=function(){window.clearTimeout(n);i-=new Date-r};var s=function(){r=new Date;n=window.setTimeout(function(){i=t;s();e()},i)};this.clear=function(){window.clearTimeout(n);i=t;n=window.setTimeout(function(){i=t;s();e()},i)};this.resume=s;this.resume()}function invoketimer(){timer=new RecurringTimer(function(){svg.setCurrentTime(0)},10700)}var svg=document.getElementById("kanjivg");var pause=document.getElementById("pause");var reset=document.getElementById("reset");var timer;invoketimer();reset.onclick=function(){svg.setCurrentTime(0);timer.clear();svg.unpauseAnimations();pause.innerHTML = "◼";};pause.onclick=function(){if(svg.animationsPaused()){svg.unpauseAnimations();timer.resume();pause.innerHTML="◼"}else{svg.pauseAnimations();timer.pause();pause.innerHTML="▶"}}]]></script></svg>