<svg id="kanjivg" width="106" height="126" xmlns="http://www.w3.org/2000/svg" xmlns:xlink="http://www.w3.org/1999/xlink" xml:space="preserve" version="1.1" baseProfile="full"><defs><style type="text/css"><![CDATA[path.black { fill:none;stroke:black;stroke-width:5;stroke-linecap:round;stroke-linejoin:round; }path.grey { fill:none;stroke:#ddd;stroke-width:5;stroke-linecap:round;stroke-linejoin:round; }path.stroke { fill:none;stroke:black;stroke-width:5;stroke-linecap:round;stroke-linejoin:round; }rect { fill:none;stroke:#555;stroke-width:2;} text{font-size:16px;font-family:Segoe UI Symbol,Cambria Math,DejaVu Sans,Symbola,Quivira,STIX,Code2000;-webkit-touch-callout:none;cursor:pointer;-webkit-user-select:none;-khtml-user-select:none;-moz-user-select:none;-ms-user-select:none;user-select: none;} #reset { font-weight:bold; }]]></style><marker id="markerStart" markerWidth="8" markerHeight="8" style="overflow:visible;"><circle cx="0" cy="0" r="1.5" style="stroke:none;fill:red;fill-opacity:0.5;"/></marker><marker id="markerEnd" style="overflow:visible;"><circle cx="0" cy="0" r="0.8" style="stroke:none;fill:blue;fill-opacity:0.5;"><animate attributeName="opacity" from="1" to="0" dur="3s" repeatCount="indefinite" /></circle></marker></defs><rect x="4" y="4" width="100" height="100" /><path d="M11.5,43.64c0.76,0.38,2.24,0.46,3,0.36c4.82-0.66,16.65-3.39,22-4c1.25-0.14,2.62-0.18,3.25,0.01" class="grey" /><path d="M25.29,15.5c1.17,0.54,2.11,2.4,2.11,3.5c0,7.8,0.03,41.19,0.03,52.75" class="grey" /><path d="M12.5,77.79c0.75,0.96,2.25,1.46,4.5,0.21c6.25-3.5,16.5-9.25,22.75-12.75" class="grey" /><path d="M56.78,14.46c0.18,1.88-0.05,4.35-0.65,5.97c-3.79,10.3-8.97,23.26-17.66,35.79" class="grey" /><path d="M48.98,43.65c0.37,0.87,0.95,2.7,1,3.91c0.43,10.97-0.81,41-0.43,47.29" class="grey" /><path d="M56.21,42.41c1.15,0.75,3.23,0.42,4.39,0.28c7.9-0.94,22.12-3.47,33.04-4.37c1.91-0.16,3.06-0.11,4.01,0.26" class="grey" /><path d="M83.16,13.43c1.09,1.32,1.25,2.32,1.25,4.9c0,18.21-0.16,63.56-0.25,69.76C84,98.75,79.5,92,77.95,89.41" class="grey" /><path d="M62.74,54.83c3.14,2.03,8.12,8.37,8.91,11.54" class="grey" /><path d="M11.5,43.64c0.76,0.38,2.24,0.46,3,0.36c4.82-0.66,16.65-3.39,22-4c1.25-0.14,2.62-0.18,3.25,0.01" class="stroke" stroke-dasharray="150"><animate attributeName="stroke-dashoffset" from="150" to="0" dur="1.8s" begin="0s" fill="freeze" /></path><path d="M25.29,15.5c1.17,0.54,2.11,2.4,2.11,3.5c0,7.8,0.03,41.19,0.03,52.75" class="stroke" stroke-dasharray="150"><set attributeName="opacity" to="0" dur="1.0s" /><animate attributeName="stroke-dashoffset" from="150" to="0" dur="1.8s" begin="1.0s" fill="freeze" /></path><path d="M12.5,77.79c0.75,0.96,2.25,1.46,4.5,0.21c6.25-3.5,16.5-9.25,22.75-12.75" class="stroke" stroke-dasharray="150"><set attributeName="opacity" to="0" dur="2.4s" /><animate attributeName="stroke-dashoffset" from="150" to="0" dur="1.8s" begin="2.4s" fill="freeze" /></path><path d="M56.78,14.46c0.18,1.88-0.05,4.35-0.65,5.97c-3.79,10.3-8.97,23.26-17.66,35.79" class="stroke" stroke-dasharray="150"><set attributeName="opacity" to="0" dur="3.4s" /><animate attributeName="stroke-dashoffset" from="150" to="0" dur="1.8s" begin="3.4s" fill="freeze" /></path><path d="M48.98,43.65c0.37,0.87,0.95,2.7,1,3.91c0.43,10.97-0.81,41-0.43,47.29" class="stroke" stroke-dasharray="150"><set attributeName="opacity" to="0" dur="4.6s" /><animate attributeName="stroke-dashoffset" from="150" to="0" dur="1.8s" begin="4.6s" fill="freeze" /></path><path d="M56.21,42.41c1.15,0.75,3.23,0.42,4.39,0.28c7.9-0.94,22.12-3.47,33.04-4.37c1.91-0.16,3.06-0.11,4.01,0.26" class="stroke" stroke-dasharray="150"><set attributeName="opacity" to="0" dur="5.8999999999999995s" /><animate attributeName="stroke-dashoffset" from="150" to="0" dur="1.8s" begin="5.8999999999999995s" fill="freeze" /></path><path d="M83.16,13.43c1.09,1.32,1.25,2.32,1.25,4.9c0,18.21-0.16,63.56-0.25,69.76C84,98.75,79.5,92,77.95,89.41" class="stroke" stroke-dasharray="150"><set attributeName="opacity" to="0" dur="7.0s" /><animate attributeName="stroke-dashoffset" from="150" to="0" dur="1.8s" begin="7.0s" fill="freeze" /></path><path d="M62.74,54.83c3.14,2.03,8.12,8.37,8.91,11.54" class="stroke" stroke-dasharray="150"><set attributeName="opacity" to="0" dur="8.7s" /><animate attributeName="stroke-dashoffset" from="150" to="0" dur="1.8s" begin="8.7s" fill="freeze" /></path><text x="90" y="120" id="reset">⟳</text><text x="70" y="120" id="pause">◼</text><script type="text/javascript"><![CDATA[function RecurringTimer(e,t){var n,r,i=t;this.pause=function(){window.clearTimeout(n);i-=new Date-r};var s=function(){r=new Date;n=window.setTimeout(function(){i=t;s();e()},i)};this.clear=function(){window.clearTimeout(n);i=t;n=window.setTimeout(function(){i=t;s();e()},i)};this.resume=s;this.resume()}function invoketimer(){timer=new RecurringTimer(function(){svg.setCurrentTime(0)},10600)}var svg=document.getElementById("kanjivg");var pause=document.getElementById("pause");var reset=document.getElementById("reset");var timer;invoketimer();reset.onclick=function(){svg.setCurrentTime(0);timer.clear();svg.unpauseAnimations();pause.innerHTML = "◼";};pause.onclick=function(){if(svg.animationsPaused()){svg.unpauseAnimations();timer.resume();pause.innerHTML="◼"}else{svg.pauseAnimations();timer.pause();pause.innerHTML="▶"}}]]></script></svg>