<svg id="kanjivg" width="106" height="126" xmlns="http://www.w3.org/2000/svg" xmlns:xlink="http://www.w3.org/1999/xlink" xml:space="preserve" version="1.1" baseProfile="full"><defs><style type="text/css"><![CDATA[path.black { fill:none;stroke:black;stroke-width:5;stroke-linecap:round;stroke-linejoin:round; }path.grey { fill:none;stroke:#ddd;stroke-width:5;stroke-linecap:round;stroke-linejoin:round; }path.stroke { fill:none;stroke:black;stroke-width:5;stroke-linecap:round;stroke-linejoin:round; }rect { fill:none;stroke:#555;stroke-width:2;} text{font-size:16px;font-family:Segoe UI Symbol,Cambria Math,DejaVu Sans,Symbola,Quivira,STIX,Code2000;-webkit-touch-callout:none;cursor:pointer;-webkit-user-select:none;-khtml-user-select:none;-moz-user-select:none;-ms-user-select:none;user-select: none;} #reset { font-weight:bold; }]]></style><marker id="markerStart" markerWidth="8" markerHeight="8" style="overflow:visible;"><circle cx="0" cy="0" r="1.5" style="stroke:none;fill:red;fill-opacity:0.5;"/></marker><marker id="markerEnd" style="overflow:visible;"><circle cx="0" cy="0" r="0.8" style="stroke:none;fill:blue;fill-opacity:0.5;"><animate attributeName="opacity" from="1" to="0" dur="3s" repeatCount="indefinite" /></circle></marker></defs><rect x="4" y="4" width="100" height="100" /><path d="M66.52,13.75c-0.15,0.62-0.75,1.57-1.33,1.97c-6.15,4.24-14.93,7.63-30.44,11.07" class="grey" /><path d="M25.75,39.15c2.75,0.47,4.93,0.37,7.27,0.1c10.16-1.16,35.89-4.38,45.86-4.88c2.13-0.11,4.28-0.15,6.38,0.36" class="grey" /><path d="M17.75,57.77c2.44,0.99,5.83,0.69,8.39,0.38c14.49-1.78,39.17-4.5,53.37-5.61c2.86-0.22,6.21-0.45,9,0.23" class="grey" /><path d="M33.25,47.75c0.88,0.88,1.48,2.18,1.6,3.09C36.12,60.25,37.08,67.9,37.5,71" class="grey" /><path d="M75.76,43.25c0.36,1.12,0.35,2.01,0.06,3.43C74.12,55,73.62,57.5,71.75,67" class="grey" /><path d="M29.25,76.15c3,0.6,6.12,0.31,8.87-0.05c10.38-1.35,28.04-3.1,37.75-3.64c2.77-0.16,5.65-0.14,8.38,0.53" class="grey" /><path d="M53.25,26.5c1.12,1.12,1.5,2.62,1.5,4c0,1.03,0,51.25,0,61.25" class="grey" /><path d="M23.5,94.4c2.21,0.9,6.05,0.79,8.4,0.53c12.85-1.43,36.48-3.43,49.85-4.07c2.85-0.14,5.97-0.05,8.75,0.64" class="grey" /><path d="M66.52,13.75c-0.15,0.62-0.75,1.57-1.33,1.97c-6.15,4.24-14.93,7.63-30.44,11.07" class="stroke" stroke-dasharray="150"><animate attributeName="stroke-dashoffset" from="150" to="0" dur="1.8s" begin="0s" fill="freeze" /></path><path d="M25.75,39.15c2.75,0.47,4.93,0.37,7.27,0.1c10.16-1.16,35.89-4.38,45.86-4.88c2.13-0.11,4.28-0.15,6.38,0.36" class="stroke" stroke-dasharray="150"><set attributeName="opacity" to="0" dur="1.0s" /><animate attributeName="stroke-dashoffset" from="150" to="0" dur="1.8s" begin="1.0s" fill="freeze" /></path><path d="M17.75,57.77c2.44,0.99,5.83,0.69,8.39,0.38c14.49-1.78,39.17-4.5,53.37-5.61c2.86-0.22,6.21-0.45,9,0.23" class="stroke" stroke-dasharray="150"><set attributeName="opacity" to="0" dur="2.4s" /><animate attributeName="stroke-dashoffset" from="150" to="0" dur="1.8s" begin="2.4s" fill="freeze" /></path><path d="M33.25,47.75c0.88,0.88,1.48,2.18,1.6,3.09C36.12,60.25,37.08,67.9,37.5,71" class="stroke" stroke-dasharray="150"><set attributeName="opacity" to="0" dur="4.1s" /><animate attributeName="stroke-dashoffset" from="150" to="0" dur="1.8s" begin="4.1s" fill="freeze" /></path><path d="M75.76,43.25c0.36,1.12,0.35,2.01,0.06,3.43C74.12,55,73.62,57.5,71.75,67" class="stroke" stroke-dasharray="150"><set attributeName="opacity" to="0" dur="5.1s" /><animate attributeName="stroke-dashoffset" from="150" to="0" dur="1.8s" begin="5.1s" fill="freeze" /></path><path d="M29.25,76.15c3,0.6,6.12,0.31,8.87-0.05c10.38-1.35,28.04-3.1,37.75-3.64c2.77-0.16,5.65-0.14,8.38,0.53" class="stroke" stroke-dasharray="150"><set attributeName="opacity" to="0" dur="6.1s" /><animate attributeName="stroke-dashoffset" from="150" to="0" dur="1.8s" begin="6.1s" fill="freeze" /></path><path d="M53.25,26.5c1.12,1.12,1.5,2.62,1.5,4c0,1.03,0,51.25,0,61.25" class="stroke" stroke-dasharray="150"><set attributeName="opacity" to="0" dur="7.5s" /><animate attributeName="stroke-dashoffset" from="150" to="0" dur="1.8s" begin="7.5s" fill="freeze" /></path><path d="M23.5,94.4c2.21,0.9,6.05,0.79,8.4,0.53c12.85-1.43,36.48-3.43,49.85-4.07c2.85-0.14,5.97-0.05,8.75,0.64" class="stroke" stroke-dasharray="150"><set attributeName="opacity" to="0" dur="9.0s" /><animate attributeName="stroke-dashoffset" from="150" to="0" dur="1.8s" begin="9.0s" fill="freeze" /></path><text x="90" y="120" id="reset">⟳</text><text x="70" y="120" id="pause">◼</text><script type="text/javascript"><![CDATA[function RecurringTimer(e,t){var n,r,i=t;this.pause=function(){window.clearTimeout(n);i-=new Date-r};var s=function(){r=new Date;n=window.setTimeout(function(){i=t;s();e()},i)};this.clear=function(){window.clearTimeout(n);i=t;n=window.setTimeout(function(){i=t;s();e()},i)};this.resume=s;this.resume()}function invoketimer(){timer=new RecurringTimer(function(){svg.setCurrentTime(0)},11500)}var svg=document.getElementById("kanjivg");var pause=document.getElementById("pause");var reset=document.getElementById("reset");var timer;invoketimer();reset.onclick=function(){svg.setCurrentTime(0);timer.clear();svg.unpauseAnimations();pause.innerHTML = "◼";};pause.onclick=function(){if(svg.animationsPaused()){svg.unpauseAnimations();timer.resume();pause.innerHTML="◼"}else{svg.pauseAnimations();timer.pause();pause.innerHTML="▶"}}]]></script></svg>