<svg id="kanjivg" width="106" height="126" xmlns="http://www.w3.org/2000/svg" xmlns:xlink="http://www.w3.org/1999/xlink" xml:space="preserve" version="1.1" baseProfile="full"><defs><style type="text/css"><![CDATA[path.black { fill:none;stroke:black;stroke-width:5;stroke-linecap:round;stroke-linejoin:round; }path.grey { fill:none;stroke:#ddd;stroke-width:5;stroke-linecap:round;stroke-linejoin:round; }path.stroke { fill:none;stroke:black;stroke-width:5;stroke-linecap:round;stroke-linejoin:round; }rect { fill:none;stroke:#555;stroke-width:2;} text{font-size:16px;font-family:Segoe UI Symbol,Cambria Math,DejaVu Sans,Symbola,Quivira,STIX,Code2000;-webkit-touch-callout:none;cursor:pointer;-webkit-user-select:none;-khtml-user-select:none;-moz-user-select:none;-ms-user-select:none;user-select: none;} #reset { font-weight:bold; }]]></style><marker id="markerStart" markerWidth="8" markerHeight="8" style="overflow:visible;"><circle cx="0" cy="0" r="1.5" style="stroke:none;fill:red;fill-opacity:0.5;"/></marker><marker id="markerEnd" style="overflow:visible;"><circle cx="0" cy="0" r="0.8" style="stroke:none;fill:blue;fill-opacity:0.5;"><animate attributeName="opacity" from="1" to="0" dur="3s" repeatCount="indefinite" /></circle></marker></defs><rect x="4" y="4" width="100" height="100" /><path d="M66.27,13.5c0.08,0.31,0.33,0.9-0.17,1.26c-6.17,4.42-15.28,8.47-31.35,12.04" class="grey" /><path d="M25.25,39.15c1.1,0.45,3.11,0.57,4.21,0.45c7-0.77,44.04-5.1,51.94-5.04c1.83,0.01,2.93,0.21,3.85,0.44" class="grey" /><path d="M18,58.27c1.29,0.53,2.8,0.63,4.1,0.53C34,57.83,69.75,53,83.72,52.26c2.16-0.11,3.45,0.25,4.53,0.51" class="grey" /><path d="M32.25,47.25c1.47,1.48,1.94,1.93,2.1,2.84c1.47,8.52,2.73,17.31,3.15,20.41" class="grey" /><path d="M75.76,43.25c0.26,1.15,0.6,2.01,0.31,3.43C74.37,55,73.6,59.17,71.75,67" class="grey" /><path d="M29.25,76.15c1.1,0.45,3.11,0.57,4.21,0.45c7-0.77,39.04-4.1,46.94-4.04c1.83,0.01,2.93,0.21,3.85,0.44" class="grey" /><path d="M23.25,95.15c1.1,0.45,3.11,0.57,4.21,0.45c7-0.77,50.29-4.6,59.44-5.04c1.83-0.09,2.93,0.21,3.85,0.44" class="grey" /><path d="M52.25,26.25c1.25,0.5,2,2.25,2.25,3.25s0.25,53,0.25,63" class="grey" /><path d="M66.27,13.5c0.08,0.31,0.33,0.9-0.17,1.26c-6.17,4.42-15.28,8.47-31.35,12.04" class="stroke" stroke-dasharray="150"><animate attributeName="stroke-dashoffset" from="150" to="0" dur="1.8s" begin="0s" fill="freeze" /></path><path d="M25.25,39.15c1.1,0.45,3.11,0.57,4.21,0.45c7-0.77,44.04-5.1,51.94-5.04c1.83,0.01,2.93,0.21,3.85,0.44" class="stroke" stroke-dasharray="150"><set attributeName="opacity" to="0" dur="1.0s" /><animate attributeName="stroke-dashoffset" from="150" to="0" dur="1.8s" begin="1.0s" fill="freeze" /></path><path d="M18,58.27c1.29,0.53,2.8,0.63,4.1,0.53C34,57.83,69.75,53,83.72,52.26c2.16-0.11,3.45,0.25,4.53,0.51" class="stroke" stroke-dasharray="150"><set attributeName="opacity" to="0" dur="2.5s" /><animate attributeName="stroke-dashoffset" from="150" to="0" dur="1.8s" begin="2.5s" fill="freeze" /></path><path d="M32.25,47.25c1.47,1.48,1.94,1.93,2.1,2.84c1.47,8.52,2.73,17.31,3.15,20.41" class="stroke" stroke-dasharray="150"><set attributeName="opacity" to="0" dur="4.2s" /><animate attributeName="stroke-dashoffset" from="150" to="0" dur="1.8s" begin="4.2s" fill="freeze" /></path><path d="M75.76,43.25c0.26,1.15,0.6,2.01,0.31,3.43C74.37,55,73.6,59.17,71.75,67" class="stroke" stroke-dasharray="150"><set attributeName="opacity" to="0" dur="5.2s" /><animate attributeName="stroke-dashoffset" from="150" to="0" dur="1.8s" begin="5.2s" fill="freeze" /></path><path d="M29.25,76.15c1.1,0.45,3.11,0.57,4.21,0.45c7-0.77,39.04-4.1,46.94-4.04c1.83,0.01,2.93,0.21,3.85,0.44" class="stroke" stroke-dasharray="150"><set attributeName="opacity" to="0" dur="6.2s" /><animate attributeName="stroke-dashoffset" from="150" to="0" dur="1.8s" begin="6.2s" fill="freeze" /></path><path d="M23.25,95.15c1.1,0.45,3.11,0.57,4.21,0.45c7-0.77,50.29-4.6,59.44-5.04c1.83-0.09,2.93,0.21,3.85,0.44" class="stroke" stroke-dasharray="150"><set attributeName="opacity" to="0" dur="7.6s" /><animate attributeName="stroke-dashoffset" from="150" to="0" dur="1.8s" begin="7.6s" fill="freeze" /></path><path d="M52.25,26.25c1.25,0.5,2,2.25,2.25,3.25s0.25,53,0.25,63" class="stroke" stroke-dasharray="150"><set attributeName="opacity" to="0" dur="9.1s" /><animate attributeName="stroke-dashoffset" from="150" to="0" dur="1.8s" begin="9.1s" fill="freeze" /></path><text x="90" y="120" id="reset">⟳</text><text x="70" y="120" id="pause">◼</text><script type="text/javascript"><![CDATA[function RecurringTimer(e,t){var n,r,i=t;this.pause=function(){window.clearTimeout(n);i-=new Date-r};var s=function(){r=new Date;n=window.setTimeout(function(){i=t;s();e()},i)};this.clear=function(){window.clearTimeout(n);i=t;n=window.setTimeout(function(){i=t;s();e()},i)};this.resume=s;this.resume()}function invoketimer(){timer=new RecurringTimer(function(){svg.setCurrentTime(0)},11600)}var svg=document.getElementById("kanjivg");var pause=document.getElementById("pause");var reset=document.getElementById("reset");var timer;invoketimer();reset.onclick=function(){svg.setCurrentTime(0);timer.clear();svg.unpauseAnimations();pause.innerHTML = "◼";};pause.onclick=function(){if(svg.animationsPaused()){svg.unpauseAnimations();timer.resume();pause.innerHTML="◼"}else{svg.pauseAnimations();timer.pause();pause.innerHTML="▶"}}]]></script></svg>