<svg id="kanjivg" width="106" height="126" xmlns="http://www.w3.org/2000/svg" xmlns:xlink="http://www.w3.org/1999/xlink" xml:space="preserve" version="1.1" baseProfile="full"><defs><style type="text/css"><![CDATA[path.black { fill:none;stroke:black;stroke-width:5;stroke-linecap:round;stroke-linejoin:round; }path.grey { fill:none;stroke:#ddd;stroke-width:5;stroke-linecap:round;stroke-linejoin:round; }path.stroke { fill:none;stroke:black;stroke-width:5;stroke-linecap:round;stroke-linejoin:round; }rect { fill:none;stroke:#555;stroke-width:2;} text{font-size:16px;font-family:Segoe UI Symbol,Cambria Math,DejaVu Sans,Symbola,Quivira,STIX,Code2000;-webkit-touch-callout:none;cursor:pointer;-webkit-user-select:none;-khtml-user-select:none;-moz-user-select:none;-ms-user-select:none;user-select: none;} #reset { font-weight:bold; }]]></style><marker id="markerStart" markerWidth="8" markerHeight="8" style="overflow:visible;"><circle cx="0" cy="0" r="1.5" style="stroke:none;fill:red;fill-opacity:0.5;"/></marker><marker id="markerEnd" style="overflow:visible;"><circle cx="0" cy="0" r="0.8" style="stroke:none;fill:blue;fill-opacity:0.5;"><animate attributeName="opacity" from="1" to="0" dur="3s" repeatCount="indefinite" /></circle></marker></defs><rect x="4" y="4" width="100" height="100" /><path d="M37.95,14.71c0.27,1.79-0.07,4.14-0.92,5.68C31.61,30.18,26.42,38.93,14,50.84" class="grey" /><path d="M31.97,33.08c0.78,0.92,1.01,2.23,1.06,3.21c0.44,8.51-0.87,25.3-0.47,30.43" class="grey" /><path d="M45.41,35.23c1.31,0.29,3.73,0.43,5.02,0.29c5.3-0.56,22.58-4.21,33.54-5.5c2.14-0.25,3.29-0.22,4.58,0.01" class="grey" /><path d="M57.83,12.04c1.53,1.17,2.09,1.57,2.48,4C63.75,37.25,69.5,55,88.02,65.32c6.18,3.44,5.16,0.5,4.39-4.66" class="grey" /><path d="M72.6,11.71c2.91,1.74,7.56,5.73,8.92,8.72" class="grey" /><path d="M29.5,78.86c0.89,0.23,2.53,0.29,3.42,0.23c11.47-0.79,31.48-2.46,43.02-2.66c1.49-0.03,2.38,0.11,3.12,0.23" class="grey" /><path d="M52.78,65.84c0.12,0.3,1.82,1.57,1.82,3.49c0,6.67,0.13,19.42,0.13,25.17" class="grey" /><path d="M16.67,96.43c1.77,0.61,5.02,0.75,6.78,0.61c21.91-1.73,44.58-3.13,64.17-3.94c2.95-0.12,4.72,0.29,6.19,0.6" class="grey" /><path d="M37.95,14.71c0.27,1.79-0.07,4.14-0.92,5.68C31.61,30.18,26.42,38.93,14,50.84" class="stroke" stroke-dasharray="150"><animate attributeName="stroke-dashoffset" from="150" to="0" dur="1.8s" begin="0s" fill="freeze" /></path><path d="M31.97,33.08c0.78,0.92,1.01,2.23,1.06,3.21c0.44,8.51-0.87,25.3-0.47,30.43" class="stroke" stroke-dasharray="150"><set attributeName="opacity" to="0" dur="1.1s" /><animate attributeName="stroke-dashoffset" from="150" to="0" dur="1.8s" begin="1.1s" fill="freeze" /></path><path d="M45.41,35.23c1.31,0.29,3.73,0.43,5.02,0.29c5.3-0.56,22.58-4.21,33.54-5.5c2.14-0.25,3.29-0.22,4.58,0.01" class="stroke" stroke-dasharray="150"><set attributeName="opacity" to="0" dur="2.1s" /><animate attributeName="stroke-dashoffset" from="150" to="0" dur="1.8s" begin="2.1s" fill="freeze" /></path><path d="M57.83,12.04c1.53,1.17,2.09,1.57,2.48,4C63.75,37.25,69.5,55,88.02,65.32c6.18,3.44,5.16,0.5,4.39-4.66" class="stroke" stroke-dasharray="150"><set attributeName="opacity" to="0" dur="3.2s" /><animate attributeName="stroke-dashoffset" from="150" to="0" dur="1.8s" begin="3.2s" fill="freeze" /></path><path d="M72.6,11.71c2.91,1.74,7.56,5.73,8.92,8.72" class="stroke" stroke-dasharray="150"><set attributeName="opacity" to="0" dur="4.9s" /><animate attributeName="stroke-dashoffset" from="150" to="0" dur="1.8s" begin="4.9s" fill="freeze" /></path><path d="M29.5,78.86c0.89,0.23,2.53,0.29,3.42,0.23c11.47-0.79,31.48-2.46,43.02-2.66c1.49-0.03,2.38,0.11,3.12,0.23" class="stroke" stroke-dasharray="150"><set attributeName="opacity" to="0" dur="5.800000000000001s" /><animate attributeName="stroke-dashoffset" from="150" to="0" dur="1.8s" begin="5.800000000000001s" fill="freeze" /></path><path d="M52.78,65.84c0.12,0.3,1.82,1.57,1.82,3.49c0,6.67,0.13,19.42,0.13,25.17" class="stroke" stroke-dasharray="150"><set attributeName="opacity" to="0" dur="7.000000000000001s" /><animate attributeName="stroke-dashoffset" from="150" to="0" dur="1.8s" begin="7.000000000000001s" fill="freeze" /></path><path d="M16.67,96.43c1.77,0.61,5.02,0.75,6.78,0.61c21.91-1.73,44.58-3.13,64.17-3.94c2.95-0.12,4.72,0.29,6.19,0.6" class="stroke" stroke-dasharray="150"><set attributeName="opacity" to="0" dur="8.0s" /><animate attributeName="stroke-dashoffset" from="150" to="0" dur="1.8s" begin="8.0s" fill="freeze" /></path><text x="90" y="120" id="reset">⟳</text><text x="70" y="120" id="pause">◼</text><script type="text/javascript"><![CDATA[function RecurringTimer(e,t){var n,r,i=t;this.pause=function(){window.clearTimeout(n);i-=new Date-r};var s=function(){r=new Date;n=window.setTimeout(function(){i=t;s();e()},i)};this.clear=function(){window.clearTimeout(n);i=t;n=window.setTimeout(function(){i=t;s();e()},i)};this.resume=s;this.resume()}function invoketimer(){timer=new RecurringTimer(function(){svg.setCurrentTime(0)},10700)}var svg=document.getElementById("kanjivg");var pause=document.getElementById("pause");var reset=document.getElementById("reset");var timer;invoketimer();reset.onclick=function(){svg.setCurrentTime(0);timer.clear();svg.unpauseAnimations();pause.innerHTML = "◼";};pause.onclick=function(){if(svg.animationsPaused()){svg.unpauseAnimations();timer.resume();pause.innerHTML="◼"}else{svg.pauseAnimations();timer.pause();pause.innerHTML="▶"}}]]></script></svg>