<svg id="kanjivg" width="106" height="126" xmlns="http://www.w3.org/2000/svg" xmlns:xlink="http://www.w3.org/1999/xlink" xml:space="preserve" version="1.1" baseProfile="full"><defs><style type="text/css"><![CDATA[path.black { fill:none;stroke:black;stroke-width:5;stroke-linecap:round;stroke-linejoin:round; }path.grey { fill:none;stroke:#ddd;stroke-width:5;stroke-linecap:round;stroke-linejoin:round; }path.stroke { fill:none;stroke:black;stroke-width:5;stroke-linecap:round;stroke-linejoin:round; }rect { fill:none;stroke:#555;stroke-width:2;} text{font-size:16px;font-family:Segoe UI Symbol,Cambria Math,DejaVu Sans,Symbola,Quivira,STIX,Code2000;-webkit-touch-callout:none;cursor:pointer;-webkit-user-select:none;-khtml-user-select:none;-moz-user-select:none;-ms-user-select:none;user-select: none;} #reset { font-weight:bold; }]]></style><marker id="markerStart" markerWidth="8" markerHeight="8" style="overflow:visible;"><circle cx="0" cy="0" r="1.5" style="stroke:none;fill:red;fill-opacity:0.5;"/></marker><marker id="markerEnd" style="overflow:visible;"><circle cx="0" cy="0" r="0.8" style="stroke:none;fill:blue;fill-opacity:0.5;"><animate attributeName="opacity" from="1" to="0" dur="3s" repeatCount="indefinite" /></circle></marker></defs><rect x="4" y="4" width="100" height="100" /><path d="M11.5,44.14c0.76,0.38,2.24,0.46,3,0.36c4.82-0.66,16.15-2.39,21.5-3c1.25-0.14,2.62-0.18,3.25,0.01" class="grey" /><path d="M24.87,16.5c1.09,0.5,1.96,2.23,1.96,3.25c0,7.25,0.03,42.75,0.03,53.5" class="grey" /><path d="M13.5,79.23c0.7,1.02,2.11,1.57,4.22,0.22C23.58,75.7,34.14,69,40,65.25" class="grey" /><path d="M60.09,14.5c0.06,0.77,0.29,2.03-0.11,3.07c-2.6,6.78-7.74,20.68-19.38,29.91" class="grey" /><path d="M55.49,29.68c0.98,0.61,2.3,0.53,3.92,0.41C67,29.5,84.75,27,89.4,26.45c1.85-0.22,3.95,1.12,3.87,3.41c-0.27,6.89-3.02,27.64-9.6,40.21c-2.02,3.85-3.96,1.53-6.27-1.02" class="grey" /><path d="M51.03,45.24c1.28,0.94,2.37,0.94,4.25,0.63c3.81-0.63,15.64-3.27,16.8-3.39c1.54-0.16,3.06,1.24,2.7,2.97C74.25,48,73,53.5,71.16,59.98" class="grey" /><path d="M51.74,62.85c4.12-0.45,16.07-2.29,21.93-2.68" class="grey" /><path d="M50.02,43.52c0.81,1.1,1.52,2.39,1.51,4.09c-0.03,5.43,0.14,31.25,0.14,35.99c0,10.3,3.58,11.58,23.07,11.58c17.28,0,20.9-1.44,20.9-12.89" class="grey" /><path d="M11.5,44.14c0.76,0.38,2.24,0.46,3,0.36c4.82-0.66,16.15-2.39,21.5-3c1.25-0.14,2.62-0.18,3.25,0.01" class="stroke" stroke-dasharray="150"><animate attributeName="stroke-dashoffset" from="150" to="0" dur="1.8s" begin="0s" fill="freeze" /></path><path d="M24.87,16.5c1.09,0.5,1.96,2.23,1.96,3.25c0,7.25,0.03,42.75,0.03,53.5" class="stroke" stroke-dasharray="150"><set attributeName="opacity" to="0" dur="1.0s" /><animate attributeName="stroke-dashoffset" from="150" to="0" dur="1.8s" begin="1.0s" fill="freeze" /></path><path d="M13.5,79.23c0.7,1.02,2.11,1.57,4.22,0.22C23.58,75.7,34.14,69,40,65.25" class="stroke" stroke-dasharray="150"><set attributeName="opacity" to="0" dur="2.4s" /><animate attributeName="stroke-dashoffset" from="150" to="0" dur="1.8s" begin="2.4s" fill="freeze" /></path><path d="M60.09,14.5c0.06,0.77,0.29,2.03-0.11,3.07c-2.6,6.78-7.74,20.68-19.38,29.91" class="stroke" stroke-dasharray="150"><set attributeName="opacity" to="0" dur="3.4s" /><animate attributeName="stroke-dashoffset" from="150" to="0" dur="1.8s" begin="3.4s" fill="freeze" /></path><path d="M55.49,29.68c0.98,0.61,2.3,0.53,3.92,0.41C67,29.5,84.75,27,89.4,26.45c1.85-0.22,3.95,1.12,3.87,3.41c-0.27,6.89-3.02,27.64-9.6,40.21c-2.02,3.85-3.96,1.53-6.27-1.02" class="stroke" stroke-dasharray="150"><set attributeName="opacity" to="0" dur="4.4s" /><animate attributeName="stroke-dashoffset" from="150" to="0" dur="1.8s" begin="4.4s" fill="freeze" /></path><path d="M51.03,45.24c1.28,0.94,2.37,0.94,4.25,0.63c3.81-0.63,15.64-3.27,16.8-3.39c1.54-0.16,3.06,1.24,2.7,2.97C74.25,48,73,53.5,71.16,59.98" class="stroke" stroke-dasharray="150"><set attributeName="opacity" to="0" dur="6.2s" /><animate attributeName="stroke-dashoffset" from="150" to="0" dur="1.8s" begin="6.2s" fill="freeze" /></path><path d="M51.74,62.85c4.12-0.45,16.07-2.29,21.93-2.68" class="stroke" stroke-dasharray="150"><set attributeName="opacity" to="0" dur="7.300000000000001s" /><animate attributeName="stroke-dashoffset" from="150" to="0" dur="1.8s" begin="7.300000000000001s" fill="freeze" /></path><path d="M50.02,43.52c0.81,1.1,1.52,2.39,1.51,4.09c-0.03,5.43,0.14,31.25,0.14,35.99c0,10.3,3.58,11.58,23.07,11.58c17.28,0,20.9-1.44,20.9-12.89" class="stroke" stroke-dasharray="150"><set attributeName="opacity" to="0" dur="8.3s" /><animate attributeName="stroke-dashoffset" from="150" to="0" dur="1.8s" begin="8.3s" fill="freeze" /></path><text x="90" y="120" id="reset">⟳</text><text x="70" y="120" id="pause">◼</text><script type="text/javascript"><![CDATA[function RecurringTimer(e,t){var n,r,i=t;this.pause=function(){window.clearTimeout(n);i-=new Date-r};var s=function(){r=new Date;n=window.setTimeout(function(){i=t;s();e()},i)};this.clear=function(){window.clearTimeout(n);i=t;n=window.setTimeout(function(){i=t;s();e()},i)};this.resume=s;this.resume()}function invoketimer(){timer=new RecurringTimer(function(){svg.setCurrentTime(0)},11100)}var svg=document.getElementById("kanjivg");var pause=document.getElementById("pause");var reset=document.getElementById("reset");var timer;invoketimer();reset.onclick=function(){svg.setCurrentTime(0);timer.clear();svg.unpauseAnimations();pause.innerHTML = "◼";};pause.onclick=function(){if(svg.animationsPaused()){svg.unpauseAnimations();timer.resume();pause.innerHTML="◼"}else{svg.pauseAnimations();timer.pause();pause.innerHTML="▶"}}]]></script></svg>