<svg id="kanjivg" width="106" height="126" xmlns="http://www.w3.org/2000/svg" xmlns:xlink="http://www.w3.org/1999/xlink" xml:space="preserve" version="1.1" baseProfile="full"><defs><style type="text/css"><![CDATA[path.black { fill:none;stroke:black;stroke-width:5;stroke-linecap:round;stroke-linejoin:round; }path.grey { fill:none;stroke:#ddd;stroke-width:5;stroke-linecap:round;stroke-linejoin:round; }path.stroke { fill:none;stroke:black;stroke-width:5;stroke-linecap:round;stroke-linejoin:round; }rect { fill:none;stroke:#555;stroke-width:2;} text{font-size:16px;font-family:Segoe UI Symbol,Cambria Math,DejaVu Sans,Symbola,Quivira,STIX,Code2000;-webkit-touch-callout:none;cursor:pointer;-webkit-user-select:none;-khtml-user-select:none;-moz-user-select:none;-ms-user-select:none;user-select: none;} #reset { font-weight:bold; }]]></style><marker id="markerStart" markerWidth="8" markerHeight="8" style="overflow:visible;"><circle cx="0" cy="0" r="1.5" style="stroke:none;fill:red;fill-opacity:0.5;"/></marker><marker id="markerEnd" style="overflow:visible;"><circle cx="0" cy="0" r="0.8" style="stroke:none;fill:blue;fill-opacity:0.5;"><animate attributeName="opacity" from="1" to="0" dur="3s" repeatCount="indefinite" /></circle></marker></defs><rect x="4" y="4" width="100" height="100" /><path d="M12,42.14c0.76,0.38,2.24,0.39,3,0.36c6.5-0.25,18.15-2.89,23.5-3.5c1.25-0.14,2.62-0.18,3.25,0.01" class="grey" /><path d="M25.87,15c1.09,0.5,1.96,2.23,1.96,3.25c0,7.25,0.03,40.75,0.03,51.5" class="grey" /><path d="M12,75.16c0.76,0.84,2.29,1.28,4.58,0.18c6.36-3.06,17.81-8.53,24.17-11.59" class="grey" /><path d="M66.01,11.24c1.08,0.58,2.85,2.83,2.85,3.98c0,4.26-0.34,7.47-0.14,11.08" class="grey" /><path d="M42.5,28.36c1.01,0.08,3.3,0.57,4.28,0.46c7.9-0.96,34.97-3.82,46.23-4.48c1.66-0.1,2.5,0.04,3.74,0.58" class="grey" /><path d="M63.98,29.37c0.48,1.23,0.23,2.61-0.74,3.97c-3.48,4.91-6.73,9.91-11.8,15.94c-0.74,0.88-0.45,2.83,0.5,3.07c5.06,1.23,12.1,1.77,16.43,4.02" class="grey" /><path d="M82.02,35.5c0.09,0.9,0.4,2.65-0.17,3.59C74.36,51.34,60.25,67.5,43.25,78" class="grey" /><path d="M86.99,54c0.11,0.99-0.12,2.86-0.71,3.97C78.75,72,65.75,86.75,46,96.5" class="grey" /><path d="M76.02,74.83C83.16,78.39,94.46,89.46,96.25,95" class="grey" /><path d="M12,42.14c0.76,0.38,2.24,0.39,3,0.36c6.5-0.25,18.15-2.89,23.5-3.5c1.25-0.14,2.62-0.18,3.25,0.01" class="stroke" stroke-dasharray="150"><animate attributeName="stroke-dashoffset" from="150" to="0" dur="1.8s" begin="0s" fill="freeze" /></path><path d="M25.87,15c1.09,0.5,1.96,2.23,1.96,3.25c0,7.25,0.03,40.75,0.03,51.5" class="stroke" stroke-dasharray="150"><set attributeName="opacity" to="0" dur="1.0s" /><animate attributeName="stroke-dashoffset" from="150" to="0" dur="1.8s" begin="1.0s" fill="freeze" /></path><path d="M12,75.16c0.76,0.84,2.29,1.28,4.58,0.18c6.36-3.06,17.81-8.53,24.17-11.59" class="stroke" stroke-dasharray="150"><set attributeName="opacity" to="0" dur="2.4s" /><animate attributeName="stroke-dashoffset" from="150" to="0" dur="1.8s" begin="2.4s" fill="freeze" /></path><path d="M66.01,11.24c1.08,0.58,2.85,2.83,2.85,3.98c0,4.26-0.34,7.47-0.14,11.08" class="stroke" stroke-dasharray="150"><set attributeName="opacity" to="0" dur="3.4s" /><animate attributeName="stroke-dashoffset" from="150" to="0" dur="1.8s" begin="3.4s" fill="freeze" /></path><path d="M42.5,28.36c1.01,0.08,3.3,0.57,4.28,0.46c7.9-0.96,34.97-3.82,46.23-4.48c1.66-0.1,2.5,0.04,3.74,0.58" class="stroke" stroke-dasharray="150"><set attributeName="opacity" to="0" dur="4.3s" /><animate attributeName="stroke-dashoffset" from="150" to="0" dur="1.8s" begin="4.3s" fill="freeze" /></path><path d="M63.98,29.37c0.48,1.23,0.23,2.61-0.74,3.97c-3.48,4.91-6.73,9.91-11.8,15.94c-0.74,0.88-0.45,2.83,0.5,3.07c5.06,1.23,12.1,1.77,16.43,4.02" class="stroke" stroke-dasharray="150"><set attributeName="opacity" to="0" dur="5.6s" /><animate attributeName="stroke-dashoffset" from="150" to="0" dur="1.8s" begin="5.6s" fill="freeze" /></path><path d="M82.02,35.5c0.09,0.9,0.4,2.65-0.17,3.59C74.36,51.34,60.25,67.5,43.25,78" class="stroke" stroke-dasharray="150"><set attributeName="opacity" to="0" dur="6.699999999999999s" /><animate attributeName="stroke-dashoffset" from="150" to="0" dur="1.8s" begin="6.699999999999999s" fill="freeze" /></path><path d="M86.99,54c0.11,0.99-0.12,2.86-0.71,3.97C78.75,72,65.75,86.75,46,96.5" class="stroke" stroke-dasharray="150"><set attributeName="opacity" to="0" dur="8.1s" /><animate attributeName="stroke-dashoffset" from="150" to="0" dur="1.8s" begin="8.1s" fill="freeze" /></path><path d="M76.02,74.83C83.16,78.39,94.46,89.46,96.25,95" class="stroke" stroke-dasharray="150"><set attributeName="opacity" to="0" dur="9.6s" /><animate attributeName="stroke-dashoffset" from="150" to="0" dur="1.8s" begin="9.6s" fill="freeze" /></path><text x="90" y="120" id="reset">⟳</text><text x="70" y="120" id="pause">◼</text><script type="text/javascript"><![CDATA[function RecurringTimer(e,t){var n,r,i=t;this.pause=function(){window.clearTimeout(n);i-=new Date-r};var s=function(){r=new Date;n=window.setTimeout(function(){i=t;s();e()},i)};this.clear=function(){window.clearTimeout(n);i=t;n=window.setTimeout(function(){i=t;s();e()},i)};this.resume=s;this.resume()}function invoketimer(){timer=new RecurringTimer(function(){svg.setCurrentTime(0)},11600)}var svg=document.getElementById("kanjivg");var pause=document.getElementById("pause");var reset=document.getElementById("reset");var timer;invoketimer();reset.onclick=function(){svg.setCurrentTime(0);timer.clear();svg.unpauseAnimations();pause.innerHTML = "◼";};pause.onclick=function(){if(svg.animationsPaused()){svg.unpauseAnimations();timer.resume();pause.innerHTML="◼"}else{svg.pauseAnimations();timer.pause();pause.innerHTML="▶"}}]]></script></svg>