<svg id="kanjivg" width="106" height="126" xmlns="http://www.w3.org/2000/svg" xmlns:xlink="http://www.w3.org/1999/xlink" xml:space="preserve" version="1.1" baseProfile="full"><defs><style type="text/css"><![CDATA[path.black { fill:none;stroke:black;stroke-width:5;stroke-linecap:round;stroke-linejoin:round; }path.grey { fill:none;stroke:#ddd;stroke-width:5;stroke-linecap:round;stroke-linejoin:round; }path.stroke { fill:none;stroke:black;stroke-width:5;stroke-linecap:round;stroke-linejoin:round; }rect { fill:none;stroke:#555;stroke-width:2;} text{font-size:16px;font-family:Segoe UI Symbol,Cambria Math,DejaVu Sans,Symbola,Quivira,STIX,Code2000;-webkit-touch-callout:none;cursor:pointer;-webkit-user-select:none;-khtml-user-select:none;-moz-user-select:none;-ms-user-select:none;user-select: none;} #reset { font-weight:bold; }]]></style><marker id="markerStart" markerWidth="8" markerHeight="8" style="overflow:visible;"><circle cx="0" cy="0" r="1.5" style="stroke:none;fill:red;fill-opacity:0.5;"/></marker><marker id="markerEnd" style="overflow:visible;"><circle cx="0" cy="0" r="0.8" style="stroke:none;fill:blue;fill-opacity:0.5;"><animate attributeName="opacity" from="1" to="0" dur="3s" repeatCount="indefinite" /></circle></marker></defs><rect x="4" y="4" width="100" height="100" /><path d="M16.41,15.2c0.82,0.82,1,1.92,1,3.2c0,0.43,0.35,25.28,0.42,36.85c0.02,2.87,0.02,4.92,0.01,5.58" class="grey" /><path d="M18.28,17.25c3.27-0.42,17.1-2.22,25.84-2.95c1.58-0.13,3.45-0.54,5.01-0.22" class="grey" /><path d="M31.68,16.92c0.64,0.64,1,1.33,1,2.2c0,1.64-0.06,5.14-0.06,8.26" class="grey" /><path d="M18.66,29.91c7.84-1.04,17.89-1.9,24.12-2.63c2.67-0.32,5.13-0.51,4.26,2.86c-0.65,2.51-1.42,4.86-2.54,8.52" class="grey" /><path d="M18.85,41.53c3.77-0.15,15.2-1.3,22.65-2c2.36-0.22,4.19-0.14,5.01-0.21" class="grey" /><path d="M32.38,41.58c0.58,0.58,0.75,1.54,0.75,2.45c0,3.35-0.01,5.6-0.01,9.85" class="grey" /><path d="M19.3,56.32c3.29-0.42,17.34-1.84,26.09-2.5c1.55-0.12,3.35-0.51,4.88-0.19" class="grey" /><path d="M55.35,19.33c2.09,0.51,4.67,0.1,6.8-0.35c4.68-1,13.33-3.07,17.28-4.04c2.98-0.73,4.63,0.56,3.29,3.99C76.37,35.23,68.12,44.75,56,52.51" class="grey" /><path d="M55.46,26.94c3.21,0.6,16.91,13.06,28.17,22.34c2.38,1.96,4.87,3.46,7.51,4.59" class="grey" /><path d="M29.35,72.35c2.9,0.52,5.17,0.47,7.52,0.24c11.17-1.1,25-2.21,36.76-3.04c2.08-0.15,4.12-0.21,6.16,0.27" class="grey" /><path d="M53.52,58.87c0.74,0.74,1.23,2.01,1.23,3.55c0,5.83,0,19.35,0,26.96" class="grey" /><path d="M18.38,91.66c3.87,0.71,7.38,0.6,10.61,0.36C44.85,90.84,65,89.62,82,89.18c3.34-0.09,7.09,0.13,10.38,0.83" class="grey" /><path d="M16.41,15.2c0.82,0.82,1,1.92,1,3.2c0,0.43,0.35,25.28,0.42,36.85c0.02,2.87,0.02,4.92,0.01,5.58" class="stroke" stroke-dasharray="150"><animate attributeName="stroke-dashoffset" from="150" to="0" dur="1.8s" begin="0s" fill="freeze" /></path><path d="M18.28,17.25c3.27-0.42,17.1-2.22,25.84-2.95c1.58-0.13,3.45-0.54,5.01-0.22" class="stroke" stroke-dasharray="150"><set attributeName="opacity" to="0" dur="1.2s" /><animate attributeName="stroke-dashoffset" from="150" to="0" dur="1.8s" begin="1.2s" fill="freeze" /></path><path d="M31.68,16.92c0.64,0.64,1,1.33,1,2.2c0,1.64-0.06,5.14-0.06,8.26" class="stroke" stroke-dasharray="150"><set attributeName="opacity" to="0" dur="2.2s" /><animate attributeName="stroke-dashoffset" from="150" to="0" dur="1.8s" begin="2.2s" fill="freeze" /></path><path d="M18.66,29.91c7.84-1.04,17.89-1.9,24.12-2.63c2.67-0.32,5.13-0.51,4.26,2.86c-0.65,2.51-1.42,4.86-2.54,8.52" class="stroke" stroke-dasharray="150"><set attributeName="opacity" to="0" dur="3.1s" /><animate attributeName="stroke-dashoffset" from="150" to="0" dur="1.8s" begin="3.1s" fill="freeze" /></path><path d="M18.85,41.53c3.77-0.15,15.2-1.3,22.65-2c2.36-0.22,4.19-0.14,5.01-0.21" class="stroke" stroke-dasharray="150"><set attributeName="opacity" to="0" dur="4.1s" /><animate attributeName="stroke-dashoffset" from="150" to="0" dur="1.8s" begin="4.1s" fill="freeze" /></path><path d="M32.38,41.58c0.58,0.58,0.75,1.54,0.75,2.45c0,3.35-0.01,5.6-0.01,9.85" class="stroke" stroke-dasharray="150"><set attributeName="opacity" to="0" dur="5.1s" /><animate attributeName="stroke-dashoffset" from="150" to="0" dur="1.8s" begin="5.1s" fill="freeze" /></path><path d="M19.3,56.32c3.29-0.42,17.34-1.84,26.09-2.5c1.55-0.12,3.35-0.51,4.88-0.19" class="stroke" stroke-dasharray="150"><set attributeName="opacity" to="0" dur="6.0s" /><animate attributeName="stroke-dashoffset" from="150" to="0" dur="1.8s" begin="6.0s" fill="freeze" /></path><path d="M55.35,19.33c2.09,0.51,4.67,0.1,6.8-0.35c4.68-1,13.33-3.07,17.28-4.04c2.98-0.73,4.63,0.56,3.29,3.99C76.37,35.23,68.12,44.75,56,52.51" class="stroke" stroke-dasharray="150"><set attributeName="opacity" to="0" dur="7.0s" /><animate attributeName="stroke-dashoffset" from="150" to="0" dur="1.8s" begin="7.0s" fill="freeze" /></path><path d="M55.46,26.94c3.21,0.6,16.91,13.06,28.17,22.34c2.38,1.96,4.87,3.46,7.51,4.59" class="stroke" stroke-dasharray="150"><set attributeName="opacity" to="0" dur="8.7s" /><animate attributeName="stroke-dashoffset" from="150" to="0" dur="1.8s" begin="8.7s" fill="freeze" /></path><path d="M29.35,72.35c2.9,0.52,5.17,0.47,7.52,0.24c11.17-1.1,25-2.21,36.76-3.04c2.08-0.15,4.12-0.21,6.16,0.27" class="stroke" stroke-dasharray="150"><set attributeName="opacity" to="0" dur="9.799999999999999s" /><animate attributeName="stroke-dashoffset" from="150" to="0" dur="1.8s" begin="9.799999999999999s" fill="freeze" /></path><path d="M53.52,58.87c0.74,0.74,1.23,2.01,1.23,3.55c0,5.83,0,19.35,0,26.96" class="stroke" stroke-dasharray="150"><set attributeName="opacity" to="0" dur="11.1s" /><animate attributeName="stroke-dashoffset" from="150" to="0" dur="1.8s" begin="11.1s" fill="freeze" /></path><path d="M18.38,91.66c3.87,0.71,7.38,0.6,10.61,0.36C44.85,90.84,65,89.62,82,89.18c3.34-0.09,7.09,0.13,10.38,0.83" class="stroke" stroke-dasharray="150"><set attributeName="opacity" to="0" dur="12.1s" /><animate attributeName="stroke-dashoffset" from="150" to="0" dur="1.8s" begin="12.1s" fill="freeze" /></path><text x="90" y="120" id="reset">⟳</text><text x="70" y="120" id="pause">◼</text><script type="text/javascript"><![CDATA[function RecurringTimer(e,t){var n,r,i=t;this.pause=function(){window.clearTimeout(n);i-=new Date-r};var s=function(){r=new Date;n=window.setTimeout(function(){i=t;s();e()},i)};this.clear=function(){window.clearTimeout(n);i=t;n=window.setTimeout(function(){i=t;s();e()},i)};this.resume=s;this.resume()}function invoketimer(){timer=new RecurringTimer(function(){svg.setCurrentTime(0)},14799)}var svg=document.getElementById("kanjivg");var pause=document.getElementById("pause");var reset=document.getElementById("reset");var timer;invoketimer();reset.onclick=function(){svg.setCurrentTime(0);timer.clear();svg.unpauseAnimations();pause.innerHTML = "◼";};pause.onclick=function(){if(svg.animationsPaused()){svg.unpauseAnimations();timer.resume();pause.innerHTML="◼"}else{svg.pauseAnimations();timer.pause();pause.innerHTML="▶"}}]]></script></svg>