<svg id="kanjivg" width="106" height="126" xmlns="http://www.w3.org/2000/svg" xmlns:xlink="http://www.w3.org/1999/xlink" xml:space="preserve" version="1.1" baseProfile="full"><defs><style type="text/css"><![CDATA[path.black { fill:none;stroke:black;stroke-width:5;stroke-linecap:round;stroke-linejoin:round; }path.grey { fill:none;stroke:#ddd;stroke-width:5;stroke-linecap:round;stroke-linejoin:round; }path.stroke { fill:none;stroke:black;stroke-width:5;stroke-linecap:round;stroke-linejoin:round; }rect { fill:none;stroke:#555;stroke-width:2;} text{font-size:16px;font-family:Segoe UI Symbol,Cambria Math,DejaVu Sans,Symbola,Quivira,STIX,Code2000;-webkit-touch-callout:none;cursor:pointer;-webkit-user-select:none;-khtml-user-select:none;-moz-user-select:none;-ms-user-select:none;user-select: none;} #reset { font-weight:bold; }]]></style><marker id="markerStart" markerWidth="8" markerHeight="8" style="overflow:visible;"><circle cx="0" cy="0" r="1.5" style="stroke:none;fill:red;fill-opacity:0.5;"/></marker><marker id="markerEnd" style="overflow:visible;"><circle cx="0" cy="0" r="0.8" style="stroke:none;fill:blue;fill-opacity:0.5;"><animate attributeName="opacity" from="1" to="0" dur="3s" repeatCount="indefinite" /></circle></marker></defs><rect x="4" y="4" width="100" height="100" /><path d="M14.25,45.39c0.76,0.38,2.24,0.46,3,0.36c4.82-0.66,18.15-3.39,23.5-4c1.25-0.14,2.62-0.18,3.25,0.01" class="grey" /><path d="M28.37,19.25c1.09,0.5,1.74,2.25,1.96,3.25c0.22,1,0,43.25-0.22,49.5" class="grey" /><path d="M15.5,78.54c0.75,0.96,2.25,1.46,4.5,0.21c6.25-3.5,12.75-6.75,19-10.25" class="grey" /><path d="M62.12,13.5c0.19,1.69-0.05,3.91-0.65,5.36C57.64,28.1,52.78,35.93,44,47.18" class="grey" /><path d="M55.19,36.65c0.63,0.88,1.11,2.8,1.15,4.16c0.37,12.12-0.51,46.63-0.2,52.94" class="grey" /><path d="M78.69,16.5c0.07,0.92-0.02,2.12-0.24,2.9c-1.44,5-3.26,8.87-6.56,14.96" class="grey" /><path d="M56.16,37.41c8.84-1.16,33.59-3.96,36.72-4.59" class="grey" /><path d="M73.98,37.33c0.35,0.45,0.63,1.06,0.63,1.83c0,7.86,0.04,35-0.17,47.38" class="grey" /><path d="M57.14,53.82c6.89-0.94,29.5-3.69,32.45-4.21" class="grey" /><path d="M56.3,69.29c7.27-0.8,31.15-2.91,34.27-3.35" class="grey" /><path d="M56.3,89.18c7.3-1.14,36.06-3.32,39.2-3.95" class="grey" /><path d="M14.25,45.39c0.76,0.38,2.24,0.46,3,0.36c4.82-0.66,18.15-3.39,23.5-4c1.25-0.14,2.62-0.18,3.25,0.01" class="stroke" stroke-dasharray="150"><animate attributeName="stroke-dashoffset" from="150" to="0" dur="1.8s" begin="0s" fill="freeze" /></path><path d="M28.37,19.25c1.09,0.5,1.74,2.25,1.96,3.25c0.22,1,0,43.25-0.22,49.5" class="stroke" stroke-dasharray="150"><set attributeName="opacity" to="0" dur="1.0s" /><animate attributeName="stroke-dashoffset" from="150" to="0" dur="1.8s" begin="1.0s" fill="freeze" /></path><path d="M15.5,78.54c0.75,0.96,2.25,1.46,4.5,0.21c6.25-3.5,12.75-6.75,19-10.25" class="stroke" stroke-dasharray="150"><set attributeName="opacity" to="0" dur="2.3s" /><animate attributeName="stroke-dashoffset" from="150" to="0" dur="1.8s" begin="2.3s" fill="freeze" /></path><path d="M62.12,13.5c0.19,1.69-0.05,3.91-0.65,5.36C57.64,28.1,52.78,35.93,44,47.18" class="stroke" stroke-dasharray="150"><set attributeName="opacity" to="0" dur="3.3s" /><animate attributeName="stroke-dashoffset" from="150" to="0" dur="1.8s" begin="3.3s" fill="freeze" /></path><path d="M55.19,36.65c0.63,0.88,1.11,2.8,1.15,4.16c0.37,12.12-0.51,46.63-0.2,52.94" class="stroke" stroke-dasharray="150"><set attributeName="opacity" to="0" dur="4.3s" /><animate attributeName="stroke-dashoffset" from="150" to="0" dur="1.8s" begin="4.3s" fill="freeze" /></path><path d="M78.69,16.5c0.07,0.92-0.02,2.12-0.24,2.9c-1.44,5-3.26,8.87-6.56,14.96" class="stroke" stroke-dasharray="150"><set attributeName="opacity" to="0" dur="5.699999999999999s" /><animate attributeName="stroke-dashoffset" from="150" to="0" dur="1.8s" begin="5.699999999999999s" fill="freeze" /></path><path d="M56.16,37.41c8.84-1.16,33.59-3.96,36.72-4.59" class="stroke" stroke-dasharray="150"><set attributeName="opacity" to="0" dur="6.6s" /><animate attributeName="stroke-dashoffset" from="150" to="0" dur="1.8s" begin="6.6s" fill="freeze" /></path><path d="M73.98,37.33c0.35,0.45,0.63,1.06,0.63,1.83c0,7.86,0.04,35-0.17,47.38" class="stroke" stroke-dasharray="150"><set attributeName="opacity" to="0" dur="7.6s" /><animate attributeName="stroke-dashoffset" from="150" to="0" dur="1.8s" begin="7.6s" fill="freeze" /></path><path d="M57.14,53.82c6.89-0.94,29.5-3.69,32.45-4.21" class="stroke" stroke-dasharray="150"><set attributeName="opacity" to="0" dur="8.799999999999999s" /><animate attributeName="stroke-dashoffset" from="150" to="0" dur="1.8s" begin="8.799999999999999s" fill="freeze" /></path><path d="M56.3,69.29c7.27-0.8,31.15-2.91,34.27-3.35" class="stroke" stroke-dasharray="150"><set attributeName="opacity" to="0" dur="9.799999999999999s" /><animate attributeName="stroke-dashoffset" from="150" to="0" dur="1.8s" begin="9.799999999999999s" fill="freeze" /></path><path d="M56.3,89.18c7.3-1.14,36.06-3.32,39.2-3.95" class="stroke" stroke-dasharray="150"><set attributeName="opacity" to="0" dur="10.799999999999999s" /><animate attributeName="stroke-dashoffset" from="150" to="0" dur="1.8s" begin="10.799999999999999s" fill="freeze" /></path><text x="90" y="120" id="reset">⟳</text><text x="70" y="120" id="pause">◼</text><script type="text/javascript"><![CDATA[function RecurringTimer(e,t){var n,r,i=t;this.pause=function(){window.clearTimeout(n);i-=new Date-r};var s=function(){r=new Date;n=window.setTimeout(function(){i=t;s();e()},i)};this.clear=function(){window.clearTimeout(n);i=t;n=window.setTimeout(function(){i=t;s();e()},i)};this.resume=s;this.resume()}function invoketimer(){timer=new RecurringTimer(function(){svg.setCurrentTime(0)},12799)}var svg=document.getElementById("kanjivg");var pause=document.getElementById("pause");var reset=document.getElementById("reset");var timer;invoketimer();reset.onclick=function(){svg.setCurrentTime(0);timer.clear();svg.unpauseAnimations();pause.innerHTML = "◼";};pause.onclick=function(){if(svg.animationsPaused()){svg.unpauseAnimations();timer.resume();pause.innerHTML="◼"}else{svg.pauseAnimations();timer.pause();pause.innerHTML="▶"}}]]></script></svg>