<svg id="kanjivg" width="106" height="126" xmlns="http://www.w3.org/2000/svg" xmlns:xlink="http://www.w3.org/1999/xlink" xml:space="preserve" version="1.1" baseProfile="full"><defs><style type="text/css"><![CDATA[path.black { fill:none;stroke:black;stroke-width:5;stroke-linecap:round;stroke-linejoin:round; }path.grey { fill:none;stroke:#ddd;stroke-width:5;stroke-linecap:round;stroke-linejoin:round; }path.stroke { fill:none;stroke:black;stroke-width:5;stroke-linecap:round;stroke-linejoin:round; }rect { fill:none;stroke:#555;stroke-width:2;} text{font-size:16px;font-family:Segoe UI Symbol,Cambria Math,DejaVu Sans,Symbola,Quivira,STIX,Code2000;-webkit-touch-callout:none;cursor:pointer;-webkit-user-select:none;-khtml-user-select:none;-moz-user-select:none;-ms-user-select:none;user-select: none;} #reset { font-weight:bold; }]]></style><marker id="markerStart" markerWidth="8" markerHeight="8" style="overflow:visible;"><circle cx="0" cy="0" r="1.5" style="stroke:none;fill:red;fill-opacity:0.5;"/></marker><marker id="markerEnd" style="overflow:visible;"><circle cx="0" cy="0" r="0.8" style="stroke:none;fill:blue;fill-opacity:0.5;"><animate attributeName="opacity" from="1" to="0" dur="3s" repeatCount="indefinite" /></circle></marker></defs><rect x="4" y="4" width="100" height="100" /><path d="M17.53,17.5c3.59-0.46,20.59-2.83,28.94-3.38c1.26-0.08,2.02-0.17,2.66-0.04" class="grey" /><path d="M16.41,15.2c0.34,1.05,0.89,2.67,1,3.2c0.12,0.53,0.49,39.13,0.43,42.43" class="grey" /><path d="M31.43,16.17c0.55,0.25,0.89,1.17,1,1.7c0.12,0.53,0.16,7.12,0.1,10.42" class="grey" /><path d="M17.91,30.16c8.59-1.14,20.6-2.31,26.56-3.09c2.41-0.32,3.1,0.76,2.78,2.19c-0.58,2.59-1.92,6.3-2.51,9.41" class="grey" /><path d="M18.1,42.03c3.59-0.46,24.53-2.4,27.91-2.71" class="grey" /><path d="M32.13,40.83c0.55,0.25,0.89,1.17,1,1.7c0.12,0.52,0.19,9.5,0.13,12.8" class="grey" /><path d="M18.05,57.07c3.59-0.46,21.21-2.6,29.56-3.16c1.26-0.08,2.03-0.17,2.66-0.04" class="grey" /><path d="M56.35,19.58c1.07,0.26,1.2,0.65,3.34,0.26c2.14-0.39,20.23-5,21.7-5.39c1.47-0.39,2.54,1.43,2,2.85C77.11,34.18,66.02,46.64,54,53.01" class="grey" /><path d="M55.71,25.94c3.55,0.66,20.92,18.4,33.3,25.67c1.93,1.13,3.33,1.88,5.13,2.26" class="grey" /><path d="M29.35,72.6c0.96,0.37,2.71,0.47,3.67,0.37c12.3-1.27,31.3-2.95,43.67-3.28c1.59-0.04,2.55,0.18,3.35,0.36" class="grey" /><path d="M53.02,58.37c0.12,0.29,1.73,1.49,1.73,3.3c0,11.7-0.35,12.84-0.35,28.31" class="grey" /><path d="M18.38,92.16c1.42,0.51,4.04,0.62,5.46,0.51c17.63-1.42,46.91-3.42,63.31-2.9c2.37,0.08,3.8,0.24,4.98,0.5" class="grey" /><path d="M17.53,17.5c3.59-0.46,20.59-2.83,28.94-3.38c1.26-0.08,2.02-0.17,2.66-0.04" class="stroke" stroke-dasharray="150"><animate attributeName="stroke-dashoffset" from="150" to="0" dur="1.8s" begin="0s" fill="freeze" /></path><path d="M16.41,15.2c0.34,1.05,0.89,2.67,1,3.2c0.12,0.53,0.49,39.13,0.43,42.43" class="stroke" stroke-dasharray="150"><set attributeName="opacity" to="0" dur="1.0s" /><animate attributeName="stroke-dashoffset" from="150" to="0" dur="1.8s" begin="1.0s" fill="freeze" /></path><path d="M31.43,16.17c0.55,0.25,0.89,1.17,1,1.7c0.12,0.53,0.16,7.12,0.1,10.42" class="stroke" stroke-dasharray="150"><set attributeName="opacity" to="0" dur="2.2s" /><animate attributeName="stroke-dashoffset" from="150" to="0" dur="1.8s" begin="2.2s" fill="freeze" /></path><path d="M17.91,30.16c8.59-1.14,20.6-2.31,26.56-3.09c2.41-0.32,3.1,0.76,2.78,2.19c-0.58,2.59-1.92,6.3-2.51,9.41" class="stroke" stroke-dasharray="150"><set attributeName="opacity" to="0" dur="3.1s" /><animate attributeName="stroke-dashoffset" from="150" to="0" dur="1.8s" begin="3.1s" fill="freeze" /></path><path d="M18.1,42.03c3.59-0.46,24.53-2.4,27.91-2.71" class="stroke" stroke-dasharray="150"><set attributeName="opacity" to="0" dur="4.2s" /><animate attributeName="stroke-dashoffset" from="150" to="0" dur="1.8s" begin="4.2s" fill="freeze" /></path><path d="M32.13,40.83c0.55,0.25,0.89,1.17,1,1.7c0.12,0.52,0.19,9.5,0.13,12.8" class="stroke" stroke-dasharray="150"><set attributeName="opacity" to="0" dur="5.2s" /><animate attributeName="stroke-dashoffset" from="150" to="0" dur="1.8s" begin="5.2s" fill="freeze" /></path><path d="M18.05,57.07c3.59-0.46,21.21-2.6,29.56-3.16c1.26-0.08,2.03-0.17,2.66-0.04" class="stroke" stroke-dasharray="150"><set attributeName="opacity" to="0" dur="6.1000000000000005s" /><animate attributeName="stroke-dashoffset" from="150" to="0" dur="1.8s" begin="6.1000000000000005s" fill="freeze" /></path><path d="M56.35,19.58c1.07,0.26,1.2,0.65,3.34,0.26c2.14-0.39,20.23-5,21.7-5.39c1.47-0.39,2.54,1.43,2,2.85C77.11,34.18,66.02,46.64,54,53.01" class="stroke" stroke-dasharray="150"><set attributeName="opacity" to="0" dur="7.1000000000000005s" /><animate attributeName="stroke-dashoffset" from="150" to="0" dur="1.8s" begin="7.1000000000000005s" fill="freeze" /></path><path d="M55.71,25.94c3.55,0.66,20.92,18.4,33.3,25.67c1.93,1.13,3.33,1.88,5.13,2.26" class="stroke" stroke-dasharray="150"><set attributeName="opacity" to="0" dur="8.8s" /><animate attributeName="stroke-dashoffset" from="150" to="0" dur="1.8s" begin="8.8s" fill="freeze" /></path><path d="M29.35,72.6c0.96,0.37,2.71,0.47,3.67,0.37c12.3-1.27,31.3-2.95,43.67-3.28c1.59-0.04,2.55,0.18,3.35,0.36" class="stroke" stroke-dasharray="150"><set attributeName="opacity" to="0" dur="10.0s" /><animate attributeName="stroke-dashoffset" from="150" to="0" dur="1.8s" begin="10.0s" fill="freeze" /></path><path d="M53.02,58.37c0.12,0.29,1.73,1.49,1.73,3.3c0,11.7-0.35,12.84-0.35,28.31" class="stroke" stroke-dasharray="150"><set attributeName="opacity" to="0" dur="11.3s" /><animate attributeName="stroke-dashoffset" from="150" to="0" dur="1.8s" begin="11.3s" fill="freeze" /></path><path d="M18.38,92.16c1.42,0.51,4.04,0.62,5.46,0.51c17.63-1.42,46.91-3.42,63.31-2.9c2.37,0.08,3.8,0.24,4.98,0.5" class="stroke" stroke-dasharray="150"><set attributeName="opacity" to="0" dur="12.3s" /><animate attributeName="stroke-dashoffset" from="150" to="0" dur="1.8s" begin="12.3s" fill="freeze" /></path><text x="90" y="120" id="reset">⟳</text><text x="70" y="120" id="pause">◼</text><script type="text/javascript"><![CDATA[function RecurringTimer(e,t){var n,r,i=t;this.pause=function(){window.clearTimeout(n);i-=new Date-r};var s=function(){r=new Date;n=window.setTimeout(function(){i=t;s();e()},i)};this.clear=function(){window.clearTimeout(n);i=t;n=window.setTimeout(function(){i=t;s();e()},i)};this.resume=s;this.resume()}function invoketimer(){timer=new RecurringTimer(function(){svg.setCurrentTime(0)},15000)}var svg=document.getElementById("kanjivg");var pause=document.getElementById("pause");var reset=document.getElementById("reset");var timer;invoketimer();reset.onclick=function(){svg.setCurrentTime(0);timer.clear();svg.unpauseAnimations();pause.innerHTML = "◼";};pause.onclick=function(){if(svg.animationsPaused()){svg.unpauseAnimations();timer.resume();pause.innerHTML="◼"}else{svg.pauseAnimations();timer.pause();pause.innerHTML="▶"}}]]></script></svg>