<svg id="kanjivg" width="106" height="126" xmlns="http://www.w3.org/2000/svg" xmlns:xlink="http://www.w3.org/1999/xlink" xml:space="preserve" version="1.1" baseProfile="full"><defs><style type="text/css"><![CDATA[path.black { fill:none;stroke:black;stroke-width:5;stroke-linecap:round;stroke-linejoin:round; }path.grey { fill:none;stroke:#ddd;stroke-width:5;stroke-linecap:round;stroke-linejoin:round; }path.stroke { fill:none;stroke:black;stroke-width:5;stroke-linecap:round;stroke-linejoin:round; }rect { fill:none;stroke:#555;stroke-width:2;} text{font-size:16px;font-family:Segoe UI Symbol,Cambria Math,DejaVu Sans,Symbola,Quivira,STIX,Code2000;-webkit-touch-callout:none;cursor:pointer;-webkit-user-select:none;-khtml-user-select:none;-moz-user-select:none;-ms-user-select:none;user-select: none;} #reset { font-weight:bold; }]]></style><marker id="markerStart" markerWidth="8" markerHeight="8" style="overflow:visible;"><circle cx="0" cy="0" r="1.5" style="stroke:none;fill:red;fill-opacity:0.5;"/></marker><marker id="markerEnd" style="overflow:visible;"><circle cx="0" cy="0" r="0.8" style="stroke:none;fill:blue;fill-opacity:0.5;"><animate attributeName="opacity" from="1" to="0" dur="3s" repeatCount="indefinite" /></circle></marker></defs><rect x="4" y="4" width="100" height="100" /><path d="M21.38,17.1c1.17,0.45,3.32,0.51,4.49,0.45c11.7-0.63,42.28-4.12,55.87-4.11c1.95,0,3.12,0.21,4.1,0.43" class="grey" /><path d="M41.66,18.94c0.92,0.86,1.64,2.26,1.64,3.76c0,3.41-0.02,4.02-0.02,8.66" class="grey" /><path d="M27.56,33.42c2.57-0.23,15.69-2.1,17.79-2.34" class="grey" /><path d="M25.92,32.24c1,0.99,1.76,2,1.77,3.39c0.03,2.93-1.15,5.94-1.25,9.98c-0.02,0.87,0.18,1.83,2.03,1.54c4.19-0.67,9.56-1.49,13.86-2.33c1.08-0.21,2.19,0.7,2.19,2.26c0,4.3-0.16,5.42-0.16,13.83" class="grey" /><path d="M61.99,17.03c0.89,0.67,1.57,1.35,1.58,2.28c0.03,1.97-0.55,7.48-0.64,10.2c-0.02,0.59,0.16,1.23,1.81,1.04c3.74-0.45,12.9-1.79,16.78-2.2c2.3-0.24,2.3,0.51,1.95,1.52c-0.68,1.95-2.36,10.02-3.05,13.44" class="grey" /><path d="M63.91,44.65c2.57-0.23,16.13-1.6,18.23-1.84" class="grey" /><path d="M62.29,42.89c0.92,0.86,1.64,2.26,1.64,3.76c0,3.41-0.02,7.93-0.02,12.57" class="grey" /><path d="M19.8,62.38c1.38,0.61,3.92,0.79,5.29,0.61c13.65-1.74,47.61-4.71,61.02-4.7c2.3,0,3.68,0.29,4.83,0.6" class="grey" /><path d="M27.58,76.58c1.08,0.36,3.07,0.46,4.16,0.36c13.93-1.23,31.4-2.33,45.42-2.65c1.81-0.04,2.89,0.17,3.79,0.35" class="grey" /><path d="M53.76,62.8c0.11,0.28,1.68,1.44,1.68,3.21c0,8.24-0.34,20.99-0.34,26.43" class="grey" /><path d="M15.42,94.68c1.48,0.51,4.2,0.63,5.67,0.51c18.33-1.44,51.91-2.78,68.3-3.45c2.46-0.1,3.95,0.24,5.18,0.5" class="grey" /><path d="M21.38,17.1c1.17,0.45,3.32,0.51,4.49,0.45c11.7-0.63,42.28-4.12,55.87-4.11c1.95,0,3.12,0.21,4.1,0.43" class="stroke" stroke-dasharray="150"><animate attributeName="stroke-dashoffset" from="150" to="0" dur="1.8s" begin="0s" fill="freeze" /></path><path d="M41.66,18.94c0.92,0.86,1.64,2.26,1.64,3.76c0,3.41-0.02,4.02-0.02,8.66" class="stroke" stroke-dasharray="150"><set attributeName="opacity" to="0" dur="1.5s" /><animate attributeName="stroke-dashoffset" from="150" to="0" dur="1.8s" begin="1.5s" fill="freeze" /></path><path d="M27.56,33.42c2.57-0.23,15.69-2.1,17.79-2.34" class="stroke" stroke-dasharray="150"><set attributeName="opacity" to="0" dur="2.4s" /><animate attributeName="stroke-dashoffset" from="150" to="0" dur="1.8s" begin="2.4s" fill="freeze" /></path><path d="M25.92,32.24c1,0.99,1.76,2,1.77,3.39c0.03,2.93-1.15,5.94-1.25,9.98c-0.02,0.87,0.18,1.83,2.03,1.54c4.19-0.67,9.56-1.49,13.86-2.33c1.08-0.21,2.19,0.7,2.19,2.26c0,4.3-0.16,5.42-0.16,13.83" class="stroke" stroke-dasharray="150"><set attributeName="opacity" to="0" dur="3.3s" /><animate attributeName="stroke-dashoffset" from="150" to="0" dur="1.8s" begin="3.3s" fill="freeze" /></path><path d="M61.99,17.03c0.89,0.67,1.57,1.35,1.58,2.28c0.03,1.97-0.55,7.48-0.64,10.2c-0.02,0.59,0.16,1.23,1.81,1.04c3.74-0.45,12.9-1.79,16.78-2.2c2.3-0.24,2.3,0.51,1.95,1.52c-0.68,1.95-2.36,10.02-3.05,13.44" class="stroke" stroke-dasharray="150"><set attributeName="opacity" to="0" dur="4.5s" /><animate attributeName="stroke-dashoffset" from="150" to="0" dur="1.8s" begin="4.5s" fill="freeze" /></path><path d="M63.91,44.65c2.57-0.23,16.13-1.6,18.23-1.84" class="stroke" stroke-dasharray="150"><set attributeName="opacity" to="0" dur="5.7s" /><animate attributeName="stroke-dashoffset" from="150" to="0" dur="1.8s" begin="5.7s" fill="freeze" /></path><path d="M62.29,42.89c0.92,0.86,1.64,2.26,1.64,3.76c0,3.41-0.02,7.93-0.02,12.57" class="stroke" stroke-dasharray="150"><set attributeName="opacity" to="0" dur="6.6000000000000005s" /><animate attributeName="stroke-dashoffset" from="150" to="0" dur="1.8s" begin="6.6000000000000005s" fill="freeze" /></path><path d="M19.8,62.38c1.38,0.61,3.92,0.79,5.29,0.61c13.65-1.74,47.61-4.71,61.02-4.7c2.3,0,3.68,0.29,4.83,0.6" class="stroke" stroke-dasharray="150"><set attributeName="opacity" to="0" dur="7.500000000000001s" /><animate attributeName="stroke-dashoffset" from="150" to="0" dur="1.8s" begin="7.500000000000001s" fill="freeze" /></path><path d="M27.58,76.58c1.08,0.36,3.07,0.46,4.16,0.36c13.93-1.23,31.4-2.33,45.42-2.65c1.81-0.04,2.89,0.17,3.79,0.35" class="stroke" stroke-dasharray="150"><set attributeName="opacity" to="0" dur="9.200000000000001s" /><animate attributeName="stroke-dashoffset" from="150" to="0" dur="1.8s" begin="9.200000000000001s" fill="freeze" /></path><path d="M53.76,62.8c0.11,0.28,1.68,1.44,1.68,3.21c0,8.24-0.34,20.99-0.34,26.43" class="stroke" stroke-dasharray="150"><set attributeName="opacity" to="0" dur="10.500000000000002s" /><animate attributeName="stroke-dashoffset" from="150" to="0" dur="1.8s" begin="10.500000000000002s" fill="freeze" /></path><path d="M15.42,94.68c1.48,0.51,4.2,0.63,5.67,0.51c18.33-1.44,51.91-2.78,68.3-3.45c2.46-0.1,3.95,0.24,5.18,0.5" class="stroke" stroke-dasharray="150"><set attributeName="opacity" to="0" dur="11.500000000000002s" /><animate attributeName="stroke-dashoffset" from="150" to="0" dur="1.8s" begin="11.500000000000002s" fill="freeze" /></path><text x="90" y="120" id="reset">⟳</text><text x="70" y="120" id="pause">◼</text><script type="text/javascript"><![CDATA[function RecurringTimer(e,t){var n,r,i=t;this.pause=function(){window.clearTimeout(n);i-=new Date-r};var s=function(){r=new Date;n=window.setTimeout(function(){i=t;s();e()},i)};this.clear=function(){window.clearTimeout(n);i=t;n=window.setTimeout(function(){i=t;s();e()},i)};this.resume=s;this.resume()}function invoketimer(){timer=new RecurringTimer(function(){svg.setCurrentTime(0)},14200)}var svg=document.getElementById("kanjivg");var pause=document.getElementById("pause");var reset=document.getElementById("reset");var timer;invoketimer();reset.onclick=function(){svg.setCurrentTime(0);timer.clear();svg.unpauseAnimations();pause.innerHTML = "◼";};pause.onclick=function(){if(svg.animationsPaused()){svg.unpauseAnimations();timer.resume();pause.innerHTML="◼"}else{svg.pauseAnimations();timer.pause();pause.innerHTML="▶"}}]]></script></svg>