<svg id="kanjivg" width="106" height="126" xmlns="http://www.w3.org/2000/svg" xmlns:xlink="http://www.w3.org/1999/xlink" xml:space="preserve" version="1.1" baseProfile="full"><defs><style type="text/css"><![CDATA[path.black { fill:none;stroke:black;stroke-width:5;stroke-linecap:round;stroke-linejoin:round; }path.grey { fill:none;stroke:#ddd;stroke-width:5;stroke-linecap:round;stroke-linejoin:round; }path.stroke { fill:none;stroke:black;stroke-width:5;stroke-linecap:round;stroke-linejoin:round; }rect { fill:none;stroke:#555;stroke-width:2;} text{font-size:16px;font-family:Segoe UI Symbol,Cambria Math,DejaVu Sans,Symbola,Quivira,STIX,Code2000;-webkit-touch-callout:none;cursor:pointer;-webkit-user-select:none;-khtml-user-select:none;-moz-user-select:none;-ms-user-select:none;user-select: none;} #reset { font-weight:bold; }]]></style><marker id="markerStart" markerWidth="8" markerHeight="8" style="overflow:visible;"><circle cx="0" cy="0" r="1.5" style="stroke:none;fill:red;fill-opacity:0.5;"/></marker><marker id="markerEnd" style="overflow:visible;"><circle cx="0" cy="0" r="0.8" style="stroke:none;fill:blue;fill-opacity:0.5;"><animate attributeName="opacity" from="1" to="0" dur="3s" repeatCount="indefinite" /></circle></marker></defs><rect x="4" y="4" width="100" height="100" /><path d="M12.5,43.64c1.57,0.79,4.27,0.43,5.9,0.16c4.95-0.83,12.61-2.5,17.5-3.56c1.32-0.29,3.1-0.61,4.35-0.48" class="grey" /><path d="M27.12,22.25c1.06,1.06,1.21,2.5,1.21,4c0,7.25,0.03,29.75,0.03,40.5" class="grey" /><path d="M12.25,74.09c0.56,0.66,1.68,1.02,3.35,0.14c4.66-2.43,18.36-9.67,23.02-12.1" class="grey" /><path d="M50.49,17.82c1.38,0.8,3.72,0.77,5.07,0.68c5.93-0.37,20.77-2.57,27.57-3.36c2.93-0.34,5.75,1.22,5.02,4.14c-0.74,2.95-2.62,8.02-3.54,11.58" class="grey" /><path d="M53.11,35.08c5.06-0.54,20.69-2.24,28.89-2.94c1.75-0.15,3.16-0.25,4.06-0.29" class="grey" /><path d="M51.75,18.75c1.06,1.06,1.24,2.51,1.22,4.28c-0.22,20.47-4.59,52.59-23.11,67.23" class="grey" /><path d="M71.41,43.26c0.49,0.37,1.61,2.74,1.61,3.49c0,5.77,0.11,34.23,0.11,43.25" class="grey" /><path d="M57.06,54.64c0.71,0.71,1.06,1.86,0.84,2.7c-0.94,3.5-1.15,5.54-2.19,9.11c-0.53,1.83,0.14,2.21,1.79,1.81c11.37-2.75,22.73-4.02,31.45-4.37" class="grey" /><path d="M91.14,49.84c0.61,1.16,0.74,2.16,0.44,3.73c-0.64,3.33-0.58,4.83-1.27,8.99c-0.18,1.1-0.4,2.42-0.66,4.06" class="grey" /><path d="M55.29,81.1c0.34,1.03,0.59,2.15,0.34,3.2c-0.47,1.96-1.11,3.88-2.01,7.48c-0.61,2.45-0.31,3.58,2.56,2.77c11.32-3.18,27.07-5.05,36.82-5.84" class="grey" /><path d="M92.65,75.74c1.06,1.05,1.29,2,1.24,3.49C93.75,83,94.06,84.67,94,87.25c-0.04,1.59-0.12,3.33-0.12,5.62" class="grey" /><path d="M12.5,43.64c1.57,0.79,4.27,0.43,5.9,0.16c4.95-0.83,12.61-2.5,17.5-3.56c1.32-0.29,3.1-0.61,4.35-0.48" class="stroke" stroke-dasharray="150"><animate attributeName="stroke-dashoffset" from="150" to="0" dur="1.8s" begin="0s" fill="freeze" /></path><path d="M27.12,22.25c1.06,1.06,1.21,2.5,1.21,4c0,7.25,0.03,29.75,0.03,40.5" class="stroke" stroke-dasharray="150"><set attributeName="opacity" to="0" dur="1.0s" /><animate attributeName="stroke-dashoffset" from="150" to="0" dur="1.8s" begin="1.0s" fill="freeze" /></path><path d="M12.25,74.09c0.56,0.66,1.68,1.02,3.35,0.14c4.66-2.43,18.36-9.67,23.02-12.1" class="stroke" stroke-dasharray="150"><set attributeName="opacity" to="0" dur="2.1s" /><animate attributeName="stroke-dashoffset" from="150" to="0" dur="1.8s" begin="2.1s" fill="freeze" /></path><path d="M50.49,17.82c1.38,0.8,3.72,0.77,5.07,0.68c5.93-0.37,20.77-2.57,27.57-3.36c2.93-0.34,5.75,1.22,5.02,4.14c-0.74,2.95-2.62,8.02-3.54,11.58" class="stroke" stroke-dasharray="150"><set attributeName="opacity" to="0" dur="3.1s" /><animate attributeName="stroke-dashoffset" from="150" to="0" dur="1.8s" begin="3.1s" fill="freeze" /></path><path d="M53.11,35.08c5.06-0.54,20.69-2.24,28.89-2.94c1.75-0.15,3.16-0.25,4.06-0.29" class="stroke" stroke-dasharray="150"><set attributeName="opacity" to="0" dur="4.4s" /><animate attributeName="stroke-dashoffset" from="150" to="0" dur="1.8s" begin="4.4s" fill="freeze" /></path><path d="M51.75,18.75c1.06,1.06,1.24,2.51,1.22,4.28c-0.22,20.47-4.59,52.59-23.11,67.23" class="stroke" stroke-dasharray="150"><set attributeName="opacity" to="0" dur="5.4s" /><animate attributeName="stroke-dashoffset" from="150" to="0" dur="1.8s" begin="5.4s" fill="freeze" /></path><path d="M71.41,43.26c0.49,0.37,1.61,2.74,1.61,3.49c0,5.77,0.11,34.23,0.11,43.25" class="stroke" stroke-dasharray="150"><set attributeName="opacity" to="0" dur="7.1000000000000005s" /><animate attributeName="stroke-dashoffset" from="150" to="0" dur="1.8s" begin="7.1000000000000005s" fill="freeze" /></path><path d="M57.06,54.64c0.71,0.71,1.06,1.86,0.84,2.7c-0.94,3.5-1.15,5.54-2.19,9.11c-0.53,1.83,0.14,2.21,1.79,1.81c11.37-2.75,22.73-4.02,31.45-4.37" class="stroke" stroke-dasharray="150"><set attributeName="opacity" to="0" dur="8.3s" /><animate attributeName="stroke-dashoffset" from="150" to="0" dur="1.8s" begin="8.3s" fill="freeze" /></path><path d="M91.14,49.84c0.61,1.16,0.74,2.16,0.44,3.73c-0.64,3.33-0.58,4.83-1.27,8.99c-0.18,1.1-0.4,2.42-0.66,4.06" class="stroke" stroke-dasharray="150"><set attributeName="opacity" to="0" dur="9.5s" /><animate attributeName="stroke-dashoffset" from="150" to="0" dur="1.8s" begin="9.5s" fill="freeze" /></path><path d="M55.29,81.1c0.34,1.03,0.59,2.15,0.34,3.2c-0.47,1.96-1.11,3.88-2.01,7.48c-0.61,2.45-0.31,3.58,2.56,2.77c11.32-3.18,27.07-5.05,36.82-5.84" class="stroke" stroke-dasharray="150"><set attributeName="opacity" to="0" dur="10.4s" /><animate attributeName="stroke-dashoffset" from="150" to="0" dur="1.8s" begin="10.4s" fill="freeze" /></path><path d="M92.65,75.74c1.06,1.05,1.29,2,1.24,3.49C93.75,83,94.06,84.67,94,87.25c-0.04,1.59-0.12,3.33-0.12,5.62" class="stroke" stroke-dasharray="150"><set attributeName="opacity" to="0" dur="11.700000000000001s" /><animate attributeName="stroke-dashoffset" from="150" to="0" dur="1.8s" begin="11.700000000000001s" fill="freeze" /></path><text x="90" y="120" id="reset">⟳</text><text x="70" y="120" id="pause">◼</text><script type="text/javascript"><![CDATA[function RecurringTimer(e,t){var n,r,i=t;this.pause=function(){window.clearTimeout(n);i-=new Date-r};var s=function(){r=new Date;n=window.setTimeout(function(){i=t;s();e()},i)};this.clear=function(){window.clearTimeout(n);i=t;n=window.setTimeout(function(){i=t;s();e()},i)};this.resume=s;this.resume()}function invoketimer(){timer=new RecurringTimer(function(){svg.setCurrentTime(0)},13600)}var svg=document.getElementById("kanjivg");var pause=document.getElementById("pause");var reset=document.getElementById("reset");var timer;invoketimer();reset.onclick=function(){svg.setCurrentTime(0);timer.clear();svg.unpauseAnimations();pause.innerHTML = "◼";};pause.onclick=function(){if(svg.animationsPaused()){svg.unpauseAnimations();timer.resume();pause.innerHTML="◼"}else{svg.pauseAnimations();timer.pause();pause.innerHTML="▶"}}]]></script></svg>