<svg id="kanjivg" width="106" height="126" xmlns="http://www.w3.org/2000/svg" xmlns:xlink="http://www.w3.org/1999/xlink" xml:space="preserve" version="1.1" baseProfile="full"><defs><style type="text/css"><![CDATA[path.black { fill:none;stroke:black;stroke-width:5;stroke-linecap:round;stroke-linejoin:round; }path.grey { fill:none;stroke:#ddd;stroke-width:5;stroke-linecap:round;stroke-linejoin:round; }path.stroke { fill:none;stroke:black;stroke-width:5;stroke-linecap:round;stroke-linejoin:round; }rect { fill:none;stroke:#555;stroke-width:2;} text{font-size:16px;font-family:Segoe UI Symbol,Cambria Math,DejaVu Sans,Symbola,Quivira,STIX,Code2000;-webkit-touch-callout:none;cursor:pointer;-webkit-user-select:none;-khtml-user-select:none;-moz-user-select:none;-ms-user-select:none;user-select: none;} #reset { font-weight:bold; }]]></style><marker id="markerStart" markerWidth="8" markerHeight="8" style="overflow:visible;"><circle cx="0" cy="0" r="1.5" style="stroke:none;fill:red;fill-opacity:0.5;"/></marker><marker id="markerEnd" style="overflow:visible;"><circle cx="0" cy="0" r="0.8" style="stroke:none;fill:blue;fill-opacity:0.5;"><animate attributeName="opacity" from="1" to="0" dur="3s" repeatCount="indefinite" /></circle></marker></defs><rect x="4" y="4" width="100" height="100" /><path d="M52.32,12.62c1.16,1.16,1.6,2.38,1.6,4.47c0,10.17-0.03,14.57-0.03,17.46" class="grey" /><path d="M29.76,19.47c3.25,1.79,8.4,7.34,9.22,10.12" class="grey" /><path d="M75.99,15.04c0.03,0.32,0.11,0.85-0.05,1.3c-1.31,3.54-3.68,6.91-8.81,11.19" class="grey" /><path d="M18.62,35.75c-0.15,4.6-2.64,15.39-3.86,18.14" class="grey" /><path d="M19.46,38.84c18.41-2.09,48.34-4.83,66.18-5.46c10.6-0.37,0.97,8.03-0.7,9.39" class="grey" /><path d="M33.38,48.75c1,0.38,1.69,1.81,1.69,2.82c0.76,2.85,1.9,7.73,2.71,11.3c0.23,1.01,0.43,1.91,0.58,2.63" class="grey" /><path d="M35.71,50.29c4.79-0.49,19.54-2.04,28.92-2.71c3.22-0.23,4.99,0.67,4.37,3.54c-0.57,2.65-1.22,5.31-2.31,10.07" class="grey" /><path d="M39.47,64.29c6.73-0.78,17.99-1.46,25.53-1.89c1.33-0.07,2.52-0.13,3.54-0.17" class="grey" /><path d="M33.96,78.72c1.29,0.32,3.67,0.23,4.96,0.07c8.33-1.04,22.08-2.54,29.36-2.9c2.15-0.11,3.45,0.15,4.52,0.31" class="grey" /><path d="M52.86,66.12c0.83,0.83,1.22,2.01,1.22,3.32c0,7.06-0.05,19.64-0.05,22.92" class="grey" /><path d="M21.09,94.58c1.88,0.45,5.33,0.58,7.21,0.45c19.95-1.4,38.2-2.78,52.66-2.85c3.13-0.02,5.01,0.21,6.58,0.44" class="grey" /><path d="M52.32,12.62c1.16,1.16,1.6,2.38,1.6,4.47c0,10.17-0.03,14.57-0.03,17.46" class="stroke" stroke-dasharray="150"><animate attributeName="stroke-dashoffset" from="150" to="0" dur="1.8s" begin="0s" fill="freeze" /></path><path d="M29.76,19.47c3.25,1.79,8.4,7.34,9.22,10.12" class="stroke" stroke-dasharray="150"><set attributeName="opacity" to="0" dur="1.0s" /><animate attributeName="stroke-dashoffset" from="150" to="0" dur="1.8s" begin="1.0s" fill="freeze" /></path><path d="M75.99,15.04c0.03,0.32,0.11,0.85-0.05,1.3c-1.31,3.54-3.68,6.91-8.81,11.19" class="stroke" stroke-dasharray="150"><set attributeName="opacity" to="0" dur="1.9s" /><animate attributeName="stroke-dashoffset" from="150" to="0" dur="1.8s" begin="1.9s" fill="freeze" /></path><path d="M18.62,35.75c-0.15,4.6-2.64,15.39-3.86,18.14" class="stroke" stroke-dasharray="150"><set attributeName="opacity" to="0" dur="2.8s" /><animate attributeName="stroke-dashoffset" from="150" to="0" dur="1.8s" begin="2.8s" fill="freeze" /></path><path d="M19.46,38.84c18.41-2.09,48.34-4.83,66.18-5.46c10.6-0.37,0.97,8.03-0.7,9.39" class="stroke" stroke-dasharray="150"><set attributeName="opacity" to="0" dur="3.6999999999999997s" /><animate attributeName="stroke-dashoffset" from="150" to="0" dur="1.8s" begin="3.6999999999999997s" fill="freeze" /></path><path d="M33.38,48.75c1,0.38,1.69,1.81,1.69,2.82c0.76,2.85,1.9,7.73,2.71,11.3c0.23,1.01,0.43,1.91,0.58,2.63" class="stroke" stroke-dasharray="150"><set attributeName="opacity" to="0" dur="5.3999999999999995s" /><animate attributeName="stroke-dashoffset" from="150" to="0" dur="1.8s" begin="5.3999999999999995s" fill="freeze" /></path><path d="M35.71,50.29c4.79-0.49,19.54-2.04,28.92-2.71c3.22-0.23,4.99,0.67,4.37,3.54c-0.57,2.65-1.22,5.31-2.31,10.07" class="stroke" stroke-dasharray="150"><set attributeName="opacity" to="0" dur="6.3s" /><animate attributeName="stroke-dashoffset" from="150" to="0" dur="1.8s" begin="6.3s" fill="freeze" /></path><path d="M39.47,64.29c6.73-0.78,17.99-1.46,25.53-1.89c1.33-0.07,2.52-0.13,3.54-0.17" class="stroke" stroke-dasharray="150"><set attributeName="opacity" to="0" dur="7.5s" /><animate attributeName="stroke-dashoffset" from="150" to="0" dur="1.8s" begin="7.5s" fill="freeze" /></path><path d="M33.96,78.72c1.29,0.32,3.67,0.23,4.96,0.07c8.33-1.04,22.08-2.54,29.36-2.9c2.15-0.11,3.45,0.15,4.52,0.31" class="stroke" stroke-dasharray="150"><set attributeName="opacity" to="0" dur="8.5s" /><animate attributeName="stroke-dashoffset" from="150" to="0" dur="1.8s" begin="8.5s" fill="freeze" /></path><path d="M52.86,66.12c0.83,0.83,1.22,2.01,1.22,3.32c0,7.06-0.05,19.64-0.05,22.92" class="stroke" stroke-dasharray="150"><set attributeName="opacity" to="0" dur="9.5s" /><animate attributeName="stroke-dashoffset" from="150" to="0" dur="1.8s" begin="9.5s" fill="freeze" /></path><path d="M21.09,94.58c1.88,0.45,5.33,0.58,7.21,0.45c19.95-1.4,38.2-2.78,52.66-2.85c3.13-0.02,5.01,0.21,6.58,0.44" class="stroke" stroke-dasharray="150"><set attributeName="opacity" to="0" dur="10.5s" /><animate attributeName="stroke-dashoffset" from="150" to="0" dur="1.8s" begin="10.5s" fill="freeze" /></path><text x="90" y="120" id="reset">⟳</text><text x="70" y="120" id="pause">◼</text><script type="text/javascript"><![CDATA[function RecurringTimer(e,t){var n,r,i=t;this.pause=function(){window.clearTimeout(n);i-=new Date-r};var s=function(){r=new Date;n=window.setTimeout(function(){i=t;s();e()},i)};this.clear=function(){window.clearTimeout(n);i=t;n=window.setTimeout(function(){i=t;s();e()},i)};this.resume=s;this.resume()}function invoketimer(){timer=new RecurringTimer(function(){svg.setCurrentTime(0)},13000)}var svg=document.getElementById("kanjivg");var pause=document.getElementById("pause");var reset=document.getElementById("reset");var timer;invoketimer();reset.onclick=function(){svg.setCurrentTime(0);timer.clear();svg.unpauseAnimations();pause.innerHTML = "◼";};pause.onclick=function(){if(svg.animationsPaused()){svg.unpauseAnimations();timer.resume();pause.innerHTML="◼"}else{svg.pauseAnimations();timer.pause();pause.innerHTML="▶"}}]]></script></svg>