<svg id="kanjivg" width="106" height="126" xmlns="http://www.w3.org/2000/svg" xmlns:xlink="http://www.w3.org/1999/xlink" xml:space="preserve" version="1.1" baseProfile="full"><defs><style type="text/css"><![CDATA[path.black { fill:none;stroke:black;stroke-width:5;stroke-linecap:round;stroke-linejoin:round; }path.grey { fill:none;stroke:#ddd;stroke-width:5;stroke-linecap:round;stroke-linejoin:round; }path.stroke { fill:none;stroke:black;stroke-width:5;stroke-linecap:round;stroke-linejoin:round; }rect { fill:none;stroke:#555;stroke-width:2;} text{font-size:16px;font-family:Segoe UI Symbol,Cambria Math,DejaVu Sans,Symbola,Quivira,STIX,Code2000;-webkit-touch-callout:none;cursor:pointer;-webkit-user-select:none;-khtml-user-select:none;-moz-user-select:none;-ms-user-select:none;user-select: none;} #reset { font-weight:bold; }]]></style><marker id="markerStart" markerWidth="8" markerHeight="8" style="overflow:visible;"><circle cx="0" cy="0" r="1.5" style="stroke:none;fill:red;fill-opacity:0.5;"/></marker><marker id="markerEnd" style="overflow:visible;"><circle cx="0" cy="0" r="0.8" style="stroke:none;fill:blue;fill-opacity:0.5;"><animate attributeName="opacity" from="1" to="0" dur="3s" repeatCount="indefinite" /></circle></marker></defs><rect x="4" y="4" width="100" height="100" /><path d="M10.5,40.6c0.71,0.37,2.56,0.45,3.26,0.35c4.49-0.64,16.46-3.31,21.45-3.9c1.17-0.14,2.44-0.18,3.03,0.01" class="grey" /><path d="M23.37,13.5c1.09,0.5,1.96,2.23,1.96,3.25c0,7.25,0.03,38.75,0.03,49.5" class="grey" /><path d="M11.25,73.53c0.72,0.97,2.15,1.49,4.3,0.21c5.97-3.56,16.73-9.92,22.7-13.49" class="grey" /><path d="M44.11,17.19c0.69,0.97,1.15,1.94,1.38,2.9c0.23,0.97,0.23,20.33,0.23,31.22c0,10.42-3.42,32.88-10.96,40.18" class="grey" /><path d="M46.13,19.05c2.19-0.23,11.36-2.14,12.95-2.56C61,16,62.5,17,62.5,19.98c0,7.9-0.05,49.03-0.05,66.36c0,12.08-5.38,4.18-7.2,2.09" class="grey" /><path d="M46.13,39.44c2.54-0.38,5.09-0.71,7.64-1.02c0.78-0.09,1.56-0.19,2.34-0.27" class="grey" /><path d="M45.22,59.21c2.7-0.32,5.4-0.7,8.09-1.03c0.66-0.08,1.83-0.16,2.51-0.24" class="grey" /><path d="M74.35,14.71c0.48,0.99,0.8,1.98,0.96,2.97c0.16,0.99,0.16,25.27,0.16,31.95c0,10.66-2.02,31.98-7.66,41.12" class="grey" /><path d="M75.49,16.58c2.11-0.24,13.87-2.32,15.44-2.58c2.81-0.47,2.81,2.06,2.81,3.56c0,8.06-0.03,50.43-0.03,68.12c0,11.32-3.97,5.82-7.42,2.56" class="grey" /><path d="M76.35,36.31c2.7-0.43,5.46-0.58,8.19-0.79c0.85-0.06,1.71-0.13,2.56-0.19" class="grey" /><path d="M75.47,57.15c2.78-0.35,5.57-0.6,8.37-0.8c0.71-0.05,1.92-0.1,2.65-0.15" class="grey" /><path d="M10.5,40.6c0.71,0.37,2.56,0.45,3.26,0.35c4.49-0.64,16.46-3.31,21.45-3.9c1.17-0.14,2.44-0.18,3.03,0.01" class="stroke" stroke-dasharray="150"><animate attributeName="stroke-dashoffset" from="150" to="0" dur="1.8s" begin="0s" fill="freeze" /></path><path d="M23.37,13.5c1.09,0.5,1.96,2.23,1.96,3.25c0,7.25,0.03,38.75,0.03,49.5" class="stroke" stroke-dasharray="150"><set attributeName="opacity" to="0" dur="1.0s" /><animate attributeName="stroke-dashoffset" from="150" to="0" dur="1.8s" begin="1.0s" fill="freeze" /></path><path d="M11.25,73.53c0.72,0.97,2.15,1.49,4.3,0.21c5.97-3.56,16.73-9.92,22.7-13.49" class="stroke" stroke-dasharray="150"><set attributeName="opacity" to="0" dur="2.3s" /><animate attributeName="stroke-dashoffset" from="150" to="0" dur="1.8s" begin="2.3s" fill="freeze" /></path><path d="M44.11,17.19c0.69,0.97,1.15,1.94,1.38,2.9c0.23,0.97,0.23,20.33,0.23,31.22c0,10.42-3.42,32.88-10.96,40.18" class="stroke" stroke-dasharray="150"><set attributeName="opacity" to="0" dur="3.3s" /><animate attributeName="stroke-dashoffset" from="150" to="0" dur="1.8s" begin="3.3s" fill="freeze" /></path><path d="M46.13,19.05c2.19-0.23,11.36-2.14,12.95-2.56C61,16,62.5,17,62.5,19.98c0,7.9-0.05,49.03-0.05,66.36c0,12.08-5.38,4.18-7.2,2.09" class="stroke" stroke-dasharray="150"><set attributeName="opacity" to="0" dur="5.0s" /><animate attributeName="stroke-dashoffset" from="150" to="0" dur="1.8s" begin="5.0s" fill="freeze" /></path><path d="M46.13,39.44c2.54-0.38,5.09-0.71,7.64-1.02c0.78-0.09,1.56-0.19,2.34-0.27" class="stroke" stroke-dasharray="150"><set attributeName="opacity" to="0" dur="6.8s" /><animate attributeName="stroke-dashoffset" from="150" to="0" dur="1.8s" begin="6.8s" fill="freeze" /></path><path d="M45.22,59.21c2.7-0.32,5.4-0.7,8.09-1.03c0.66-0.08,1.83-0.16,2.51-0.24" class="stroke" stroke-dasharray="150"><set attributeName="opacity" to="0" dur="7.7s" /><animate attributeName="stroke-dashoffset" from="150" to="0" dur="1.8s" begin="7.7s" fill="freeze" /></path><path d="M74.35,14.71c0.48,0.99,0.8,1.98,0.96,2.97c0.16,0.99,0.16,25.27,0.16,31.95c0,10.66-2.02,31.98-7.66,41.12" class="stroke" stroke-dasharray="150"><set attributeName="opacity" to="0" dur="8.6s" /><animate attributeName="stroke-dashoffset" from="150" to="0" dur="1.8s" begin="8.6s" fill="freeze" /></path><path d="M75.49,16.58c2.11-0.24,13.87-2.32,15.44-2.58c2.81-0.47,2.81,2.06,2.81,3.56c0,8.06-0.03,50.43-0.03,68.12c0,11.32-3.97,5.82-7.42,2.56" class="stroke" stroke-dasharray="150"><set attributeName="opacity" to="0" dur="10.299999999999999s" /><animate attributeName="stroke-dashoffset" from="150" to="0" dur="1.8s" begin="10.299999999999999s" fill="freeze" /></path><path d="M76.35,36.31c2.7-0.43,5.46-0.58,8.19-0.79c0.85-0.06,1.71-0.13,2.56-0.19" class="stroke" stroke-dasharray="150"><set attributeName="opacity" to="0" dur="12.2s" /><animate attributeName="stroke-dashoffset" from="150" to="0" dur="1.8s" begin="12.2s" fill="freeze" /></path><path d="M75.47,57.15c2.78-0.35,5.57-0.6,8.37-0.8c0.71-0.05,1.92-0.1,2.65-0.15" class="stroke" stroke-dasharray="150"><set attributeName="opacity" to="0" dur="13.1s" /><animate attributeName="stroke-dashoffset" from="150" to="0" dur="1.8s" begin="13.1s" fill="freeze" /></path><text x="90" y="120" id="reset">⟳</text><text x="70" y="120" id="pause">◼</text><script type="text/javascript"><![CDATA[function RecurringTimer(e,t){var n,r,i=t;this.pause=function(){window.clearTimeout(n);i-=new Date-r};var s=function(){r=new Date;n=window.setTimeout(function(){i=t;s();e()},i)};this.clear=function(){window.clearTimeout(n);i=t;n=window.setTimeout(function(){i=t;s();e()},i)};this.resume=s;this.resume()}function invoketimer(){timer=new RecurringTimer(function(){svg.setCurrentTime(0)},15000)}var svg=document.getElementById("kanjivg");var pause=document.getElementById("pause");var reset=document.getElementById("reset");var timer;invoketimer();reset.onclick=function(){svg.setCurrentTime(0);timer.clear();svg.unpauseAnimations();pause.innerHTML = "◼";};pause.onclick=function(){if(svg.animationsPaused()){svg.unpauseAnimations();timer.resume();pause.innerHTML="◼"}else{svg.pauseAnimations();timer.pause();pause.innerHTML="▶"}}]]></script></svg>