<svg id="kanjivg" width="106" height="126" xmlns="http://www.w3.org/2000/svg" xmlns:xlink="http://www.w3.org/1999/xlink" xml:space="preserve" version="1.1" baseProfile="full"><defs><style type="text/css"><![CDATA[path.black { fill:none;stroke:black;stroke-width:5;stroke-linecap:round;stroke-linejoin:round; }path.grey { fill:none;stroke:#ddd;stroke-width:5;stroke-linecap:round;stroke-linejoin:round; }path.stroke { fill:none;stroke:black;stroke-width:5;stroke-linecap:round;stroke-linejoin:round; }rect { fill:none;stroke:#555;stroke-width:2;} text{font-size:16px;font-family:Segoe UI Symbol,Cambria Math,DejaVu Sans,Symbola,Quivira,STIX,Code2000;-webkit-touch-callout:none;cursor:pointer;-webkit-user-select:none;-khtml-user-select:none;-moz-user-select:none;-ms-user-select:none;user-select: none;} #reset { font-weight:bold; }]]></style><marker id="markerStart" markerWidth="8" markerHeight="8" style="overflow:visible;"><circle cx="0" cy="0" r="1.5" style="stroke:none;fill:red;fill-opacity:0.5;"/></marker><marker id="markerEnd" style="overflow:visible;"><circle cx="0" cy="0" r="0.8" style="stroke:none;fill:blue;fill-opacity:0.5;"><animate attributeName="opacity" from="1" to="0" dur="3s" repeatCount="indefinite" /></circle></marker></defs><rect x="4" y="4" width="100" height="100" /><path d="M18.87,19.87c1.27,0.17,2.7,0.31,4.16,0.04c6.47-1.16,13.66-3.13,16.14-3.71c3.07-0.72,3.31,1.36,2.27,3.27C39.5,23,36,29,32.9,34.41" class="grey" /><path d="M32.9,34.41C46.75,45,41.75,61,33.6,52.75" class="grey" /><path d="M22.04,20.84c0.71,0.66,0.28,1.63,0.5,2.35c0.22,0.72,0,45.53-0.22,50.05" class="grey" /><path d="M70.17,9.93c0.06,0.84,0.28,2.2-0.12,3.38c-3.37,9.87-8.81,22.85-20.52,32.32" class="grey" /><path d="M48.05,25.19c1.03,0.35,2.92,0.4,3.95,0.35c10.89-0.57,27.92-3.84,38.9-3.83c1.72,0,2.75,0.16,3.6,0.34" class="grey" /><path d="M62.05,36.52c0.46,0.58,0.77,1.16,0.93,1.74c0.16,0.58,0.22,30.91,0.16,32.21" class="grey" /><path d="M63.91,37.46c1.85-0.15,18.88-2.97,20.26-3.13c2.48-0.29,3.4,1.89,3.09,2.76c-0.3,0.84-0.46,16.37-0.46,28.13c0,8.3-3.51,3.9-6.15,1.31" class="grey" /><path d="M63.91,46.18c3.82-0.25,7.64-0.56,11.46-0.91c0.91-0.08,1.8-0.17,2.7-0.25" class="grey" /><path d="M64.37,56.05c3.7-0.29,7.4-0.63,11.09-0.95c0.96-0.08,1.91-0.16,2.84-0.24" class="grey" /><path d="M31.13,80.17c0.98,0.38,2.78,0.48,3.76,0.38c12.61-1.3,27.61-3.05,40.3-3.38c1.63-0.04,2.62,0.18,3.43,0.37" class="grey" /><path d="M53.42,66.62c0.12,0.29,1.77,1.52,1.77,3.39c0,8-0.36,18-0.36,24.36" class="grey" /><path d="M16.38,96.23c1.52,0.54,4.31,0.66,5.82,0.54C41,95.25,72,93.25,88.81,92.54c2.53-0.11,4.05,0.26,5.31,0.53" class="grey" /><path d="M18.87,19.87c1.27,0.17,2.7,0.31,4.16,0.04c6.47-1.16,13.66-3.13,16.14-3.71c3.07-0.72,3.31,1.36,2.27,3.27C39.5,23,36,29,32.9,34.41" class="stroke" stroke-dasharray="150"><animate attributeName="stroke-dashoffset" from="150" to="0" dur="1.8s" begin="0s" fill="freeze" /></path><path d="M32.9,34.41C46.75,45,41.75,61,33.6,52.75" class="stroke" stroke-dasharray="150"><set attributeName="opacity" to="0" dur="1.1s" /><animate attributeName="stroke-dashoffset" from="150" to="0" dur="1.8s" begin="1.1s" fill="freeze" /></path><path d="M22.04,20.84c0.71,0.66,0.28,1.63,0.5,2.35c0.22,0.72,0,45.53-0.22,50.05" class="stroke" stroke-dasharray="150"><set attributeName="opacity" to="0" dur="2.1s" /><animate attributeName="stroke-dashoffset" from="150" to="0" dur="1.8s" begin="2.1s" fill="freeze" /></path><path d="M70.17,9.93c0.06,0.84,0.28,2.2-0.12,3.38c-3.37,9.87-8.81,22.85-20.52,32.32" class="stroke" stroke-dasharray="150"><set attributeName="opacity" to="0" dur="3.4000000000000004s" /><animate attributeName="stroke-dashoffset" from="150" to="0" dur="1.8s" begin="3.4000000000000004s" fill="freeze" /></path><path d="M48.05,25.19c1.03,0.35,2.92,0.4,3.95,0.35c10.89-0.57,27.92-3.84,38.9-3.83c1.72,0,2.75,0.16,3.6,0.34" class="stroke" stroke-dasharray="150"><set attributeName="opacity" to="0" dur="4.5s" /><animate attributeName="stroke-dashoffset" from="150" to="0" dur="1.8s" begin="4.5s" fill="freeze" /></path><path d="M62.05,36.52c0.46,0.58,0.77,1.16,0.93,1.74c0.16,0.58,0.22,30.91,0.16,32.21" class="stroke" stroke-dasharray="150"><set attributeName="opacity" to="0" dur="5.7s" /><animate attributeName="stroke-dashoffset" from="150" to="0" dur="1.8s" begin="5.7s" fill="freeze" /></path><path d="M63.91,37.46c1.85-0.15,18.88-2.97,20.26-3.13c2.48-0.29,3.4,1.89,3.09,2.76c-0.3,0.84-0.46,16.37-0.46,28.13c0,8.3-3.51,3.9-6.15,1.31" class="stroke" stroke-dasharray="150"><set attributeName="opacity" to="0" dur="6.7s" /><animate attributeName="stroke-dashoffset" from="150" to="0" dur="1.8s" begin="6.7s" fill="freeze" /></path><path d="M63.91,46.18c3.82-0.25,7.64-0.56,11.46-0.91c0.91-0.08,1.8-0.17,2.7-0.25" class="stroke" stroke-dasharray="150"><set attributeName="opacity" to="0" dur="8.2s" /><animate attributeName="stroke-dashoffset" from="150" to="0" dur="1.8s" begin="8.2s" fill="freeze" /></path><path d="M64.37,56.05c3.7-0.29,7.4-0.63,11.09-0.95c0.96-0.08,1.91-0.16,2.84-0.24" class="stroke" stroke-dasharray="150"><set attributeName="opacity" to="0" dur="9.1s" /><animate attributeName="stroke-dashoffset" from="150" to="0" dur="1.8s" begin="9.1s" fill="freeze" /></path><path d="M31.13,80.17c0.98,0.38,2.78,0.48,3.76,0.38c12.61-1.3,27.61-3.05,40.3-3.38c1.63-0.04,2.62,0.18,3.43,0.37" class="stroke" stroke-dasharray="150"><set attributeName="opacity" to="0" dur="10.0s" /><animate attributeName="stroke-dashoffset" from="150" to="0" dur="1.8s" begin="10.0s" fill="freeze" /></path><path d="M53.42,66.62c0.12,0.29,1.77,1.52,1.77,3.39c0,8-0.36,18-0.36,24.36" class="stroke" stroke-dasharray="150"><set attributeName="opacity" to="0" dur="11.2s" /><animate attributeName="stroke-dashoffset" from="150" to="0" dur="1.8s" begin="11.2s" fill="freeze" /></path><path d="M16.38,96.23c1.52,0.54,4.31,0.66,5.82,0.54C41,95.25,72,93.25,88.81,92.54c2.53-0.11,4.05,0.26,5.31,0.53" class="stroke" stroke-dasharray="150"><set attributeName="opacity" to="0" dur="12.2s" /><animate attributeName="stroke-dashoffset" from="150" to="0" dur="1.8s" begin="12.2s" fill="freeze" /></path><text x="90" y="120" id="reset">⟳</text><text x="70" y="120" id="pause">◼</text><script type="text/javascript"><![CDATA[function RecurringTimer(e,t){var n,r,i=t;this.pause=function(){window.clearTimeout(n);i-=new Date-r};var s=function(){r=new Date;n=window.setTimeout(function(){i=t;s();e()},i)};this.clear=function(){window.clearTimeout(n);i=t;n=window.setTimeout(function(){i=t;s();e()},i)};this.resume=s;this.resume()}function invoketimer(){timer=new RecurringTimer(function(){svg.setCurrentTime(0)},14899)}var svg=document.getElementById("kanjivg");var pause=document.getElementById("pause");var reset=document.getElementById("reset");var timer;invoketimer();reset.onclick=function(){svg.setCurrentTime(0);timer.clear();svg.unpauseAnimations();pause.innerHTML = "◼";};pause.onclick=function(){if(svg.animationsPaused()){svg.unpauseAnimations();timer.resume();pause.innerHTML="◼"}else{svg.pauseAnimations();timer.pause();pause.innerHTML="▶"}}]]></script></svg>