<svg id="kanjivg" width="106" height="126" xmlns="http://www.w3.org/2000/svg" xmlns:xlink="http://www.w3.org/1999/xlink" xml:space="preserve" version="1.1" baseProfile="full"><defs><style type="text/css"><![CDATA[path.black { fill:none;stroke:black;stroke-width:5;stroke-linecap:round;stroke-linejoin:round; }path.grey { fill:none;stroke:#ddd;stroke-width:5;stroke-linecap:round;stroke-linejoin:round; }path.stroke { fill:none;stroke:black;stroke-width:5;stroke-linecap:round;stroke-linejoin:round; }rect { fill:none;stroke:#555;stroke-width:2;} text{font-size:16px;font-family:Segoe UI Symbol,Cambria Math,DejaVu Sans,Symbola,Quivira,STIX,Code2000;-webkit-touch-callout:none;cursor:pointer;-webkit-user-select:none;-khtml-user-select:none;-moz-user-select:none;-ms-user-select:none;user-select: none;} #reset { font-weight:bold; }]]></style><marker id="markerStart" markerWidth="8" markerHeight="8" style="overflow:visible;"><circle cx="0" cy="0" r="1.5" style="stroke:none;fill:red;fill-opacity:0.5;"/></marker><marker id="markerEnd" style="overflow:visible;"><circle cx="0" cy="0" r="0.8" style="stroke:none;fill:blue;fill-opacity:0.5;"><animate attributeName="opacity" from="1" to="0" dur="3s" repeatCount="indefinite" /></circle></marker></defs><rect x="4" y="4" width="100" height="100" /><path d="M11.5,43.14c0.76,0.38,2.24,0.46,3,0.36c4.82-0.66,17.15-2.39,22.5-3c1.25-0.14,2.62-0.18,3.25,0.01" class="grey" /><path d="M24.87,17c1.09,0.5,1.96,2.23,1.96,3.25c0,7.25,0.03,38.75,0.03,49.5" class="grey" /><path d="M11.5,76.79c0.75,0.96,2.33,1.6,4.5,0.21c7.75-5,16.5-11.5,22.75-15.75" class="grey" /><path d="M51.86,17.64c0.55,1.21,1.47,3.17,1.62,5.34c0.55,7.95,1.46,18.56,2.01,28.44" class="grey" /><path d="M52.98,19.59c6.95-0.96,28.84-3.33,31.95-3.84c1.46-0.24,2.92,0.76,2.56,2.89c-0.73,4.34-2.19,23.62-2.92,30.36" class="grey" /><path d="M68.38,31.17c0.8,0.48,1.27,2.17,1.43,3.13c0.16,0.96,0.1,9.88-0.06,15.91" class="grey" /><path d="M69.44,32.63c2.56-0.24,12.88-1.43,16.54-1.91" class="grey" /><path d="M45.02,50.89c0.55,1.2,1.21,3.14,1.46,5.3c0.37,3.13,2.77,28.81,3.29,36.71" class="grey" /><path d="M46.48,53.3c6.95-0.96,44.75-3.92,46.12-4.26c2.93-0.72,4.28,1.7,4.39,2.89c0.37,4.1-3.79,32.46-4.94,37.8c-2.01,9.4-5.2,4.58-7.39,1.45" class="grey" /><path d="M60.12,62.93c0.28,0.33,0.57,0.6,0.69,1.01c0.97,3.24,2.3,10.83,2.97,16.65" class="grey" /><path d="M61.53,64.21c6.72-1.21,11.89-1.97,16.9-2.62c1.83-0.24,2.93,1.4,2.67,2.8c-1.09,5.77-1.54,5.54-2.6,10.77" class="grey" /><path d="M63.91,77.16c3.85-0.48,10.99-0.79,16.28-1.53" class="grey" /><path d="M11.5,43.14c0.76,0.38,2.24,0.46,3,0.36c4.82-0.66,17.15-2.39,22.5-3c1.25-0.14,2.62-0.18,3.25,0.01" class="stroke" stroke-dasharray="150"><animate attributeName="stroke-dashoffset" from="150" to="0" dur="1.8s" begin="0s" fill="freeze" /></path><path d="M24.87,17c1.09,0.5,1.96,2.23,1.96,3.25c0,7.25,0.03,38.75,0.03,49.5" class="stroke" stroke-dasharray="150"><set attributeName="opacity" to="0" dur="1.0s" /><animate attributeName="stroke-dashoffset" from="150" to="0" dur="1.8s" begin="1.0s" fill="freeze" /></path><path d="M11.5,76.79c0.75,0.96,2.33,1.6,4.5,0.21c7.75-5,16.5-11.5,22.75-15.75" class="stroke" stroke-dasharray="150"><set attributeName="opacity" to="0" dur="2.3s" /><animate attributeName="stroke-dashoffset" from="150" to="0" dur="1.8s" begin="2.3s" fill="freeze" /></path><path d="M51.86,17.64c0.55,1.21,1.47,3.17,1.62,5.34c0.55,7.95,1.46,18.56,2.01,28.44" class="stroke" stroke-dasharray="150"><set attributeName="opacity" to="0" dur="3.3s" /><animate attributeName="stroke-dashoffset" from="150" to="0" dur="1.8s" begin="3.3s" fill="freeze" /></path><path d="M52.98,19.59c6.95-0.96,28.84-3.33,31.95-3.84c1.46-0.24,2.92,0.76,2.56,2.89c-0.73,4.34-2.19,23.62-2.92,30.36" class="stroke" stroke-dasharray="150"><set attributeName="opacity" to="0" dur="4.3s" /><animate attributeName="stroke-dashoffset" from="150" to="0" dur="1.8s" begin="4.3s" fill="freeze" /></path><path d="M68.38,31.17c0.8,0.48,1.27,2.17,1.43,3.13c0.16,0.96,0.1,9.88-0.06,15.91" class="stroke" stroke-dasharray="150"><set attributeName="opacity" to="0" dur="5.8s" /><animate attributeName="stroke-dashoffset" from="150" to="0" dur="1.8s" begin="5.8s" fill="freeze" /></path><path d="M69.44,32.63c2.56-0.24,12.88-1.43,16.54-1.91" class="stroke" stroke-dasharray="150"><set attributeName="opacity" to="0" dur="6.7s" /><animate attributeName="stroke-dashoffset" from="150" to="0" dur="1.8s" begin="6.7s" fill="freeze" /></path><path d="M45.02,50.89c0.55,1.2,1.21,3.14,1.46,5.3c0.37,3.13,2.77,28.81,3.29,36.71" class="stroke" stroke-dasharray="150"><set attributeName="opacity" to="0" dur="7.6000000000000005s" /><animate attributeName="stroke-dashoffset" from="150" to="0" dur="1.8s" begin="7.6000000000000005s" fill="freeze" /></path><path d="M46.48,53.3c6.95-0.96,44.75-3.92,46.12-4.26c2.93-0.72,4.28,1.7,4.39,2.89c0.37,4.1-3.79,32.46-4.94,37.8c-2.01,9.4-5.2,4.58-7.39,1.45" class="stroke" stroke-dasharray="150"><set attributeName="opacity" to="0" dur="8.700000000000001s" /><animate attributeName="stroke-dashoffset" from="150" to="0" dur="1.8s" begin="8.700000000000001s" fill="freeze" /></path><path d="M60.12,62.93c0.28,0.33,0.57,0.6,0.69,1.01c0.97,3.24,2.3,10.83,2.97,16.65" class="stroke" stroke-dasharray="150"><set attributeName="opacity" to="0" dur="10.600000000000001s" /><animate attributeName="stroke-dashoffset" from="150" to="0" dur="1.8s" begin="10.600000000000001s" fill="freeze" /></path><path d="M61.53,64.21c6.72-1.21,11.89-1.97,16.9-2.62c1.83-0.24,2.93,1.4,2.67,2.8c-1.09,5.77-1.54,5.54-2.6,10.77" class="stroke" stroke-dasharray="150"><set attributeName="opacity" to="0" dur="11.500000000000002s" /><animate attributeName="stroke-dashoffset" from="150" to="0" dur="1.8s" begin="11.500000000000002s" fill="freeze" /></path><path d="M63.91,77.16c3.85-0.48,10.99-0.79,16.28-1.53" class="stroke" stroke-dasharray="150"><set attributeName="opacity" to="0" dur="12.500000000000002s" /><animate attributeName="stroke-dashoffset" from="150" to="0" dur="1.8s" begin="12.500000000000002s" fill="freeze" /></path><text x="90" y="120" id="reset">⟳</text><text x="70" y="120" id="pause">◼</text><script type="text/javascript"><![CDATA[function RecurringTimer(e,t){var n,r,i=t;this.pause=function(){window.clearTimeout(n);i-=new Date-r};var s=function(){r=new Date;n=window.setTimeout(function(){i=t;s();e()},i)};this.clear=function(){window.clearTimeout(n);i=t;n=window.setTimeout(function(){i=t;s();e()},i)};this.resume=s;this.resume()}function invoketimer(){timer=new RecurringTimer(function(){svg.setCurrentTime(0)},14400)}var svg=document.getElementById("kanjivg");var pause=document.getElementById("pause");var reset=document.getElementById("reset");var timer;invoketimer();reset.onclick=function(){svg.setCurrentTime(0);timer.clear();svg.unpauseAnimations();pause.innerHTML = "◼";};pause.onclick=function(){if(svg.animationsPaused()){svg.unpauseAnimations();timer.resume();pause.innerHTML="◼"}else{svg.pauseAnimations();timer.pause();pause.innerHTML="▶"}}]]></script></svg>