<svg id="kanjivg" width="106" height="126" xmlns="http://www.w3.org/2000/svg" xmlns:xlink="http://www.w3.org/1999/xlink" xml:space="preserve" version="1.1" baseProfile="full"><defs><style type="text/css"><![CDATA[path.black { fill:none;stroke:black;stroke-width:5;stroke-linecap:round;stroke-linejoin:round; }path.grey { fill:none;stroke:#ddd;stroke-width:5;stroke-linecap:round;stroke-linejoin:round; }path.stroke { fill:none;stroke:black;stroke-width:5;stroke-linecap:round;stroke-linejoin:round; }rect { fill:none;stroke:#555;stroke-width:2;} text{font-size:16px;font-family:Segoe UI Symbol,Cambria Math,DejaVu Sans,Symbola,Quivira,STIX,Code2000;-webkit-touch-callout:none;cursor:pointer;-webkit-user-select:none;-khtml-user-select:none;-moz-user-select:none;-ms-user-select:none;user-select: none;} #reset { font-weight:bold; }]]></style><marker id="markerStart" markerWidth="8" markerHeight="8" style="overflow:visible;"><circle cx="0" cy="0" r="1.5" style="stroke:none;fill:red;fill-opacity:0.5;"/></marker><marker id="markerEnd" style="overflow:visible;"><circle cx="0" cy="0" r="0.8" style="stroke:none;fill:blue;fill-opacity:0.5;"><animate attributeName="opacity" from="1" to="0" dur="3s" repeatCount="indefinite" /></circle></marker></defs><rect x="4" y="4" width="100" height="100" /><path d="M11,43.14c0.76,0.38,2.24,0.46,3,0.36c4.82-0.66,16.15-2.39,21.5-3c1.25-0.14,2.62-0.18,3.25,0.01" class="grey" /><path d="M24.87,16c1.09,0.5,1.96,2.23,1.96,3.25c0,7.25,0.03,39.75,0.03,50.5" class="grey" /><path d="M11.5,77.7c0.73,1.05,2.19,1.61,4.38,0.23C21.96,74.08,32.92,66.1,39,62.25" class="grey" /><path d="M42.76,17.87c1.11,0.36,3.14,0.46,4.25,0.36c7.07-0.62,34.22-4.51,41.06-4.1c1.84,0.11,2.96,0.17,3.88,0.35" class="grey" /><path d="M43.5,31.85c0.31,0.39,0.62,0.71,0.76,1.2c1.06,3.86,2.84,18.51,3.57,25.44" class="grey" /><path d="M44.91,33.76c8.59-1.01,41.75-4.03,45.63-4.58c1.42-0.2,2.77,2.01,2.57,3.19c-0.84,4.86-2.68,15.09-4.48,22.09" class="grey" /><path d="M57.62,19.58c0.82,0.61,1.42,2.73,1.47,3.97C59.5,33.75,59.75,42.5,60.41,54" class="grey" /><path d="M74.37,17.62c0.25,0.61,1.38,1.62,1.26,4.37c-0.21,4.92-1.03,21.67-1.56,30.84" class="grey" /><path d="M47.63,55.94c4.55-0.62,35.88-3.31,41.67-3.93" class="grey" /><path d="M47,74.78c1.02,0.38,2.88,0.48,3.89,0.38c8.18-0.79,26.38-2.81,35.8-3.2c1.69-0.07,2.71,0.18,3.55,0.37" class="grey" /><path d="M66.3,59.25c0.12,0.34,1.77,2.34,1.77,4.5c0,5.5-0.36,18.18-0.36,27.51" class="grey" /><path d="M39.25,93.42c1.3,0.45,3.7,0.56,5,0.45c16.14-1.27,36.01-2.7,50.44-3.3c2.17-0.09,3.48,0.22,4.56,0.44" class="grey" /><path d="M11,43.14c0.76,0.38,2.24,0.46,3,0.36c4.82-0.66,16.15-2.39,21.5-3c1.25-0.14,2.62-0.18,3.25,0.01" class="stroke" stroke-dasharray="150"><animate attributeName="stroke-dashoffset" from="150" to="0" dur="1.8s" begin="0s" fill="freeze" /></path><path d="M24.87,16c1.09,0.5,1.96,2.23,1.96,3.25c0,7.25,0.03,39.75,0.03,50.5" class="stroke" stroke-dasharray="150"><set attributeName="opacity" to="0" dur="1.0s" /><animate attributeName="stroke-dashoffset" from="150" to="0" dur="1.8s" begin="1.0s" fill="freeze" /></path><path d="M11.5,77.7c0.73,1.05,2.19,1.61,4.38,0.23C21.96,74.08,32.92,66.1,39,62.25" class="stroke" stroke-dasharray="150"><set attributeName="opacity" to="0" dur="2.3s" /><animate attributeName="stroke-dashoffset" from="150" to="0" dur="1.8s" begin="2.3s" fill="freeze" /></path><path d="M42.76,17.87c1.11,0.36,3.14,0.46,4.25,0.36c7.07-0.62,34.22-4.51,41.06-4.1c1.84,0.11,2.96,0.17,3.88,0.35" class="stroke" stroke-dasharray="150"><set attributeName="opacity" to="0" dur="3.3s" /><animate attributeName="stroke-dashoffset" from="150" to="0" dur="1.8s" begin="3.3s" fill="freeze" /></path><path d="M43.5,31.85c0.31,0.39,0.62,0.71,0.76,1.2c1.06,3.86,2.84,18.51,3.57,25.44" class="stroke" stroke-dasharray="150"><set attributeName="opacity" to="0" dur="4.5s" /><animate attributeName="stroke-dashoffset" from="150" to="0" dur="1.8s" begin="4.5s" fill="freeze" /></path><path d="M44.91,33.76c8.59-1.01,41.75-4.03,45.63-4.58c1.42-0.2,2.77,2.01,2.57,3.19c-0.84,4.86-2.68,15.09-4.48,22.09" class="stroke" stroke-dasharray="150"><set attributeName="opacity" to="0" dur="5.5s" /><animate attributeName="stroke-dashoffset" from="150" to="0" dur="1.8s" begin="5.5s" fill="freeze" /></path><path d="M57.62,19.58c0.82,0.61,1.42,2.73,1.47,3.97C59.5,33.75,59.75,42.5,60.41,54" class="stroke" stroke-dasharray="150"><set attributeName="opacity" to="0" dur="7.2s" /><animate attributeName="stroke-dashoffset" from="150" to="0" dur="1.8s" begin="7.2s" fill="freeze" /></path><path d="M74.37,17.62c0.25,0.61,1.38,1.62,1.26,4.37c-0.21,4.92-1.03,21.67-1.56,30.84" class="stroke" stroke-dasharray="150"><set attributeName="opacity" to="0" dur="8.2s" /><animate attributeName="stroke-dashoffset" from="150" to="0" dur="1.8s" begin="8.2s" fill="freeze" /></path><path d="M47.63,55.94c4.55-0.62,35.88-3.31,41.67-3.93" class="stroke" stroke-dasharray="150"><set attributeName="opacity" to="0" dur="9.2s" /><animate attributeName="stroke-dashoffset" from="150" to="0" dur="1.8s" begin="9.2s" fill="freeze" /></path><path d="M47,74.78c1.02,0.38,2.88,0.48,3.89,0.38c8.18-0.79,26.38-2.81,35.8-3.2c1.69-0.07,2.71,0.18,3.55,0.37" class="stroke" stroke-dasharray="150"><set attributeName="opacity" to="0" dur="10.299999999999999s" /><animate attributeName="stroke-dashoffset" from="150" to="0" dur="1.8s" begin="10.299999999999999s" fill="freeze" /></path><path d="M66.3,59.25c0.12,0.34,1.77,2.34,1.77,4.5c0,5.5-0.36,18.18-0.36,27.51" class="stroke" stroke-dasharray="150"><set attributeName="opacity" to="0" dur="11.399999999999999s" /><animate attributeName="stroke-dashoffset" from="150" to="0" dur="1.8s" begin="11.399999999999999s" fill="freeze" /></path><path d="M39.25,93.42c1.3,0.45,3.7,0.56,5,0.45c16.14-1.27,36.01-2.7,50.44-3.3c2.17-0.09,3.48,0.22,4.56,0.44" class="stroke" stroke-dasharray="150"><set attributeName="opacity" to="0" dur="12.399999999999999s" /><animate attributeName="stroke-dashoffset" from="150" to="0" dur="1.8s" begin="12.399999999999999s" fill="freeze" /></path><text x="90" y="120" id="reset">⟳</text><text x="70" y="120" id="pause">◼</text><script type="text/javascript"><![CDATA[function RecurringTimer(e,t){var n,r,i=t;this.pause=function(){window.clearTimeout(n);i-=new Date-r};var s=function(){r=new Date;n=window.setTimeout(function(){i=t;s();e()},i)};this.clear=function(){window.clearTimeout(n);i=t;n=window.setTimeout(function(){i=t;s();e()},i)};this.resume=s;this.resume()}function invoketimer(){timer=new RecurringTimer(function(){svg.setCurrentTime(0)},14899)}var svg=document.getElementById("kanjivg");var pause=document.getElementById("pause");var reset=document.getElementById("reset");var timer;invoketimer();reset.onclick=function(){svg.setCurrentTime(0);timer.clear();svg.unpauseAnimations();pause.innerHTML = "◼";};pause.onclick=function(){if(svg.animationsPaused()){svg.unpauseAnimations();timer.resume();pause.innerHTML="◼"}else{svg.pauseAnimations();timer.pause();pause.innerHTML="▶"}}]]></script></svg>