<svg id="kanjivg" width="106" height="126" xmlns="http://www.w3.org/2000/svg" xmlns:xlink="http://www.w3.org/1999/xlink" xml:space="preserve" version="1.1" baseProfile="full"><defs><style type="text/css"><![CDATA[path.black { fill:none;stroke:black;stroke-width:5;stroke-linecap:round;stroke-linejoin:round; }path.grey { fill:none;stroke:#ddd;stroke-width:5;stroke-linecap:round;stroke-linejoin:round; }path.stroke { fill:none;stroke:black;stroke-width:5;stroke-linecap:round;stroke-linejoin:round; }rect { fill:none;stroke:#555;stroke-width:2;} text{font-size:16px;font-family:Segoe UI Symbol,Cambria Math,DejaVu Sans,Symbola,Quivira,STIX,Code2000;-webkit-touch-callout:none;cursor:pointer;-webkit-user-select:none;-khtml-user-select:none;-moz-user-select:none;-ms-user-select:none;user-select: none;} #reset { font-weight:bold; }]]></style><marker id="markerStart" markerWidth="8" markerHeight="8" style="overflow:visible;"><circle cx="0" cy="0" r="1.5" style="stroke:none;fill:red;fill-opacity:0.5;"/></marker><marker id="markerEnd" style="overflow:visible;"><circle cx="0" cy="0" r="0.8" style="stroke:none;fill:blue;fill-opacity:0.5;"><animate attributeName="opacity" from="1" to="0" dur="3s" repeatCount="indefinite" /></circle></marker></defs><rect x="4" y="4" width="100" height="100" /><path d="M18.87,19.62c1.03,0.14,2.2,0.52,3.41,0.32c7.22-1.19,13.58-3.14,16.14-3.74c3.07-0.72,4.06,1.61,3.02,3.52c-1.94,3.54-5.06,8.54-8.53,14.7" class="grey" /><path d="M32.9,34.41C46.75,45,41.75,61,33.6,52.75" class="grey" /><path d="M21.04,20.34c0.81,0.81,1.5,2.03,1.5,3.6c0,0.47,0.04,29.39,0.04,42.68c0,3.86,0,6.42-0.01,6.62" class="grey" /><path d="M70.17,10.18c0.45,1.07,0.28,2.2-0.12,3.38c-3.37,9.87-8.81,22.6-20.52,32.07" class="grey" /><path d="M48.05,24.94c2.26,0.76,5.03,0.56,7.34,0.35c9.62-0.84,22.43-3.04,32.11-3.5c2.33-0.11,4.7-0.21,7,0.25" class="grey" /><path d="M62.05,36.27c0.96,0.96,1.18,2.23,1.18,3.24c0,0.45-0.07,15.82-0.07,24.98c0,3.16-0.01,5.4-0.02,5.73" class="grey" /><path d="M63.91,37.21c4.11-0.74,13.53-2.23,18.49-2.75c3.04-0.32,4.63,0.33,4.61,3.66c-0.03,4.41,0.04,16.34,0.04,27.08c0,8.3-3.51,3.9-6.15,1.31" class="grey" /><path d="M64.16,46.18c7.46-0.93,15.96-1.68,22.02-1.94" class="grey" /><path d="M64.62,56.05c6.64-0.52,15.53-1.44,21.25-1.73" class="grey" /><path d="M31.13,80.17c2.12,0.58,4.32,0.33,6.37,0.11c10.68-1.12,22.77-2.65,33.62-3.2c2.51-0.13,5.03-0.36,7.5,0.21" class="grey" /><path d="M53.67,66.87c0.86,0.86,1.27,2.13,1.27,3.64c0,8-0.07,15.51-0.07,22.75" class="grey" /><path d="M16.38,95.73c3.75,0.77,7.13,0.93,10.49,0.67c16.97-1.31,40.84-2.85,56.76-3.62c3.46-0.17,7.11,0.06,10.5,0.79" class="grey" /><path d="M18.87,19.62c1.03,0.14,2.2,0.52,3.41,0.32c7.22-1.19,13.58-3.14,16.14-3.74c3.07-0.72,4.06,1.61,3.02,3.52c-1.94,3.54-5.06,8.54-8.53,14.7" class="stroke" stroke-dasharray="150"><animate attributeName="stroke-dashoffset" from="150" to="0" dur="1.8s" begin="0s" fill="freeze" /></path><path d="M32.9,34.41C46.75,45,41.75,61,33.6,52.75" class="stroke" stroke-dasharray="150"><set attributeName="opacity" to="0" dur="1.1s" /><animate attributeName="stroke-dashoffset" from="150" to="0" dur="1.8s" begin="1.1s" fill="freeze" /></path><path d="M21.04,20.34c0.81,0.81,1.5,2.03,1.5,3.6c0,0.47,0.04,29.39,0.04,42.68c0,3.86,0,6.42-0.01,6.62" class="stroke" stroke-dasharray="150"><set attributeName="opacity" to="0" dur="2.1s" /><animate attributeName="stroke-dashoffset" from="150" to="0" dur="1.8s" begin="2.1s" fill="freeze" /></path><path d="M70.17,10.18c0.45,1.07,0.28,2.2-0.12,3.38c-3.37,9.87-8.81,22.6-20.52,32.07" class="stroke" stroke-dasharray="150"><set attributeName="opacity" to="0" dur="3.4000000000000004s" /><animate attributeName="stroke-dashoffset" from="150" to="0" dur="1.8s" begin="3.4000000000000004s" fill="freeze" /></path><path d="M48.05,24.94c2.26,0.76,5.03,0.56,7.34,0.35c9.62-0.84,22.43-3.04,32.11-3.5c2.33-0.11,4.7-0.21,7,0.25" class="stroke" stroke-dasharray="150"><set attributeName="opacity" to="0" dur="4.5s" /><animate attributeName="stroke-dashoffset" from="150" to="0" dur="1.8s" begin="4.5s" fill="freeze" /></path><path d="M62.05,36.27c0.96,0.96,1.18,2.23,1.18,3.24c0,0.45-0.07,15.82-0.07,24.98c0,3.16-0.01,5.4-0.02,5.73" class="stroke" stroke-dasharray="150"><set attributeName="opacity" to="0" dur="5.7s" /><animate attributeName="stroke-dashoffset" from="150" to="0" dur="1.8s" begin="5.7s" fill="freeze" /></path><path d="M63.91,37.21c4.11-0.74,13.53-2.23,18.49-2.75c3.04-0.32,4.63,0.33,4.61,3.66c-0.03,4.41,0.04,16.34,0.04,27.08c0,8.3-3.51,3.9-6.15,1.31" class="stroke" stroke-dasharray="150"><set attributeName="opacity" to="0" dur="6.7s" /><animate attributeName="stroke-dashoffset" from="150" to="0" dur="1.8s" begin="6.7s" fill="freeze" /></path><path d="M64.16,46.18c7.46-0.93,15.96-1.68,22.02-1.94" class="stroke" stroke-dasharray="150"><set attributeName="opacity" to="0" dur="8.2s" /><animate attributeName="stroke-dashoffset" from="150" to="0" dur="1.8s" begin="8.2s" fill="freeze" /></path><path d="M64.62,56.05c6.64-0.52,15.53-1.44,21.25-1.73" class="stroke" stroke-dasharray="150"><set attributeName="opacity" to="0" dur="9.2s" /><animate attributeName="stroke-dashoffset" from="150" to="0" dur="1.8s" begin="9.2s" fill="freeze" /></path><path d="M31.13,80.17c2.12,0.58,4.32,0.33,6.37,0.11c10.68-1.12,22.77-2.65,33.62-3.2c2.51-0.13,5.03-0.36,7.5,0.21" class="stroke" stroke-dasharray="150"><set attributeName="opacity" to="0" dur="10.2s" /><animate attributeName="stroke-dashoffset" from="150" to="0" dur="1.8s" begin="10.2s" fill="freeze" /></path><path d="M53.67,66.87c0.86,0.86,1.27,2.13,1.27,3.64c0,8-0.07,15.51-0.07,22.75" class="stroke" stroke-dasharray="150"><set attributeName="opacity" to="0" dur="11.399999999999999s" /><animate attributeName="stroke-dashoffset" from="150" to="0" dur="1.8s" begin="11.399999999999999s" fill="freeze" /></path><path d="M16.38,95.73c3.75,0.77,7.13,0.93,10.49,0.67c16.97-1.31,40.84-2.85,56.76-3.62c3.46-0.17,7.11,0.06,10.5,0.79" class="stroke" stroke-dasharray="150"><set attributeName="opacity" to="0" dur="12.399999999999999s" /><animate attributeName="stroke-dashoffset" from="150" to="0" dur="1.8s" begin="12.399999999999999s" fill="freeze" /></path><text x="90" y="120" id="reset">⟳</text><text x="70" y="120" id="pause">◼</text><script type="text/javascript"><![CDATA[function RecurringTimer(e,t){var n,r,i=t;this.pause=function(){window.clearTimeout(n);i-=new Date-r};var s=function(){r=new Date;n=window.setTimeout(function(){i=t;s();e()},i)};this.clear=function(){window.clearTimeout(n);i=t;n=window.setTimeout(function(){i=t;s();e()},i)};this.resume=s;this.resume()}function invoketimer(){timer=new RecurringTimer(function(){svg.setCurrentTime(0)},15099)}var svg=document.getElementById("kanjivg");var pause=document.getElementById("pause");var reset=document.getElementById("reset");var timer;invoketimer();reset.onclick=function(){svg.setCurrentTime(0);timer.clear();svg.unpauseAnimations();pause.innerHTML = "◼";};pause.onclick=function(){if(svg.animationsPaused()){svg.unpauseAnimations();timer.resume();pause.innerHTML="◼"}else{svg.pauseAnimations();timer.pause();pause.innerHTML="▶"}}]]></script></svg>