<svg id="kanjivg" width="106" height="126" xmlns="http://www.w3.org/2000/svg" xmlns:xlink="http://www.w3.org/1999/xlink" xml:space="preserve" version="1.1" baseProfile="full"><defs><style type="text/css"><![CDATA[path.black { fill:none;stroke:black;stroke-width:5;stroke-linecap:round;stroke-linejoin:round; }path.grey { fill:none;stroke:#ddd;stroke-width:5;stroke-linecap:round;stroke-linejoin:round; }path.stroke { fill:none;stroke:black;stroke-width:5;stroke-linecap:round;stroke-linejoin:round; }rect { fill:none;stroke:#555;stroke-width:2;} text{font-size:16px;font-family:Segoe UI Symbol,Cambria Math,DejaVu Sans,Symbola,Quivira,STIX,Code2000;-webkit-touch-callout:none;cursor:pointer;-webkit-user-select:none;-khtml-user-select:none;-moz-user-select:none;-ms-user-select:none;user-select: none;} #reset { font-weight:bold; }]]></style><marker id="markerStart" markerWidth="8" markerHeight="8" style="overflow:visible;"><circle cx="0" cy="0" r="1.5" style="stroke:none;fill:red;fill-opacity:0.5;"/></marker><marker id="markerEnd" style="overflow:visible;"><circle cx="0" cy="0" r="0.8" style="stroke:none;fill:blue;fill-opacity:0.5;"><animate attributeName="opacity" from="1" to="0" dur="3s" repeatCount="indefinite" /></circle></marker></defs><rect x="4" y="4" width="100" height="100" /><path d="M31.11,20.53c0.83,0.32,2.35,0.31,3.18,0.32c10.46,0.14,28.27-2.42,39.01-2.71c1.38-0.04,2.21,0.15,2.9,0.31" class="grey" /><path d="M52.74,9.62c0.1,0.23,1.42,1.22,1.42,2.71c0,1.67-0.29,10.42-0.29,17.38" class="grey" /><path d="M22.61,31.59c1.21,0.43,3.44,0.53,4.66,0.43c15.04-1.21,43.43-3.61,56.88-4.18c2.02-0.09,3.24,0.21,4.25,0.42" class="grey" /><path d="M18.5,46.14c0.76,0.38,2.24,0.4,3,0.36c5-0.25,19.65-2.39,25-3c1.25-0.14,2.62-0.18,3.25,0.01" class="grey" /><path d="M33.37,37c1.09,0.5,1.96,2.23,1.96,3.25c0,7.25,0.03,5.75,0.03,16.5" class="grey" /><path d="M20,60.19c0.77,0.56,2.31,1.36,4.62,0.62c6.42-2.06,17.96-6.25,24.38-8.31" class="grey" /><path d="M56.11,43.03c0.83,0.32,2.35,0.33,3.18,0.32c7.71-0.11,18.46-1.61,26.01-1.71c1.38-0.02,2.21,0.15,2.9,0.31" class="grey" /><path d="M69.24,33.62c0.1,0.23,1.42,1.22,1.42,2.71c0,1.67-0.29,11.92-0.29,18.88" class="grey" /><path d="M53.71,56.73c0.96,0.3,3.23,0.37,4.19,0.3C66.5,56.5,82,55,90.63,54.59c1.6-0.08,2.57,0.15,3.37,0.3" class="grey" /><path d="M22,69.9c1.47,0.37,4.17,0.41,5.64,0.37C37.9,70,70.35,65.51,84.35,65.51c2.45,0,3.93,0.18,5.15,0.36" class="grey" /><path d="M43.98,72c0.08,0.66,0.18,1.71-0.17,2.67c-2.05,5.62-12.85,19.02-29.9,25.5" class="grey" /><path d="M59.99,69.87c0.74,1.19,1.38,2.59,1.38,4.43c0,2.45-0.03,6.14-0.03,11.7c0,9.75,3.42,11.53,16.67,11.53s15.39-2.28,15.39-10.12" class="grey" /><path d="M31.11,20.53c0.83,0.32,2.35,0.31,3.18,0.32c10.46,0.14,28.27-2.42,39.01-2.71c1.38-0.04,2.21,0.15,2.9,0.31" class="stroke" stroke-dasharray="150"><animate attributeName="stroke-dashoffset" from="150" to="0" dur="1.8s" begin="0s" fill="freeze" /></path><path d="M52.74,9.62c0.1,0.23,1.42,1.22,1.42,2.71c0,1.67-0.29,10.42-0.29,17.38" class="stroke" stroke-dasharray="150"><set attributeName="opacity" to="0" dur="1.2s" /><animate attributeName="stroke-dashoffset" from="150" to="0" dur="1.8s" begin="1.2s" fill="freeze" /></path><path d="M22.61,31.59c1.21,0.43,3.44,0.53,4.66,0.43c15.04-1.21,43.43-3.61,56.88-4.18c2.02-0.09,3.24,0.21,4.25,0.42" class="stroke" stroke-dasharray="150"><set attributeName="opacity" to="0" dur="2.2s" /><animate attributeName="stroke-dashoffset" from="150" to="0" dur="1.8s" begin="2.2s" fill="freeze" /></path><path d="M18.5,46.14c0.76,0.38,2.24,0.4,3,0.36c5-0.25,19.65-2.39,25-3c1.25-0.14,2.62-0.18,3.25,0.01" class="stroke" stroke-dasharray="150"><set attributeName="opacity" to="0" dur="3.7s" /><animate attributeName="stroke-dashoffset" from="150" to="0" dur="1.8s" begin="3.7s" fill="freeze" /></path><path d="M33.37,37c1.09,0.5,1.96,2.23,1.96,3.25c0,7.25,0.03,5.75,0.03,16.5" class="stroke" stroke-dasharray="150"><set attributeName="opacity" to="0" dur="4.7s" /><animate attributeName="stroke-dashoffset" from="150" to="0" dur="1.8s" begin="4.7s" fill="freeze" /></path><path d="M20,60.19c0.77,0.56,2.31,1.36,4.62,0.62c6.42-2.06,17.96-6.25,24.38-8.31" class="stroke" stroke-dasharray="150"><set attributeName="opacity" to="0" dur="5.7s" /><animate attributeName="stroke-dashoffset" from="150" to="0" dur="1.8s" begin="5.7s" fill="freeze" /></path><path d="M56.11,43.03c0.83,0.32,2.35,0.33,3.18,0.32c7.71-0.11,18.46-1.61,26.01-1.71c1.38-0.02,2.21,0.15,2.9,0.31" class="stroke" stroke-dasharray="150"><set attributeName="opacity" to="0" dur="6.7s" /><animate attributeName="stroke-dashoffset" from="150" to="0" dur="1.8s" begin="6.7s" fill="freeze" /></path><path d="M69.24,33.62c0.1,0.23,1.42,1.22,1.42,2.71c0,1.67-0.29,11.92-0.29,18.88" class="stroke" stroke-dasharray="150"><set attributeName="opacity" to="0" dur="7.7s" /><animate attributeName="stroke-dashoffset" from="150" to="0" dur="1.8s" begin="7.7s" fill="freeze" /></path><path d="M53.71,56.73c0.96,0.3,3.23,0.37,4.19,0.3C66.5,56.5,82,55,90.63,54.59c1.6-0.08,2.57,0.15,3.37,0.3" class="stroke" stroke-dasharray="150"><set attributeName="opacity" to="0" dur="8.7s" /><animate attributeName="stroke-dashoffset" from="150" to="0" dur="1.8s" begin="8.7s" fill="freeze" /></path><path d="M22,69.9c1.47,0.37,4.17,0.41,5.64,0.37C37.9,70,70.35,65.51,84.35,65.51c2.45,0,3.93,0.18,5.15,0.36" class="stroke" stroke-dasharray="150"><set attributeName="opacity" to="0" dur="9.799999999999999s" /><animate attributeName="stroke-dashoffset" from="150" to="0" dur="1.8s" begin="9.799999999999999s" fill="freeze" /></path><path d="M43.98,72c0.08,0.66,0.18,1.71-0.17,2.67c-2.05,5.62-12.85,19.02-29.9,25.5" class="stroke" stroke-dasharray="150"><set attributeName="opacity" to="0" dur="11.299999999999999s" /><animate attributeName="stroke-dashoffset" from="150" to="0" dur="1.8s" begin="11.299999999999999s" fill="freeze" /></path><path d="M59.99,69.87c0.74,1.19,1.38,2.59,1.38,4.43c0,2.45-0.03,6.14-0.03,11.7c0,9.75,3.42,11.53,16.67,11.53s15.39-2.28,15.39-10.12" class="stroke" stroke-dasharray="150"><set attributeName="opacity" to="0" dur="12.399999999999999s" /><animate attributeName="stroke-dashoffset" from="150" to="0" dur="1.8s" begin="12.399999999999999s" fill="freeze" /></path><text x="90" y="120" id="reset">⟳</text><text x="70" y="120" id="pause">◼</text><script type="text/javascript"><![CDATA[function RecurringTimer(e,t){var n,r,i=t;this.pause=function(){window.clearTimeout(n);i-=new Date-r};var s=function(){r=new Date;n=window.setTimeout(function(){i=t;s();e()},i)};this.clear=function(){window.clearTimeout(n);i=t;n=window.setTimeout(function(){i=t;s();e()},i)};this.resume=s;this.resume()}function invoketimer(){timer=new RecurringTimer(function(){svg.setCurrentTime(0)},14899)}var svg=document.getElementById("kanjivg");var pause=document.getElementById("pause");var reset=document.getElementById("reset");var timer;invoketimer();reset.onclick=function(){svg.setCurrentTime(0);timer.clear();svg.unpauseAnimations();pause.innerHTML = "◼";};pause.onclick=function(){if(svg.animationsPaused()){svg.unpauseAnimations();timer.resume();pause.innerHTML="◼"}else{svg.pauseAnimations();timer.pause();pause.innerHTML="▶"}}]]></script></svg>