<svg id="kanjivg" width="106" height="126" xmlns="http://www.w3.org/2000/svg" xmlns:xlink="http://www.w3.org/1999/xlink" xml:space="preserve" version="1.1" baseProfile="full"><defs><style type="text/css"><![CDATA[path.black { fill:none;stroke:black;stroke-width:5;stroke-linecap:round;stroke-linejoin:round; }path.grey { fill:none;stroke:#ddd;stroke-width:5;stroke-linecap:round;stroke-linejoin:round; }path.stroke { fill:none;stroke:black;stroke-width:5;stroke-linecap:round;stroke-linejoin:round; }rect { fill:none;stroke:#555;stroke-width:2;} text{font-size:16px;font-family:Segoe UI Symbol,Cambria Math,DejaVu Sans,Symbola,Quivira,STIX,Code2000;-webkit-touch-callout:none;cursor:pointer;-webkit-user-select:none;-khtml-user-select:none;-moz-user-select:none;-ms-user-select:none;user-select: none;} #reset { font-weight:bold; }]]></style><marker id="markerStart" markerWidth="8" markerHeight="8" style="overflow:visible;"><circle cx="0" cy="0" r="1.5" style="stroke:none;fill:red;fill-opacity:0.5;"/></marker><marker id="markerEnd" style="overflow:visible;"><circle cx="0" cy="0" r="0.8" style="stroke:none;fill:blue;fill-opacity:0.5;"><animate attributeName="opacity" from="1" to="0" dur="3s" repeatCount="indefinite" /></circle></marker></defs><rect x="4" y="4" width="100" height="100" /><path d="M11.5,42.14c0.76,0.38,2.24,0.46,3,0.36c4.82-0.66,16.65-3.39,22-4c1.25-0.14,2.62-0.18,3.25,0.01" class="grey" /><path d="M25.87,17.5c1.09,0.5,1.96,2.23,1.96,3.25c0,7.25,0.03,37.25,0.03,48" class="grey" /><path d="M13.5,78.02c0.64,1.23,1.91,1.88,3.82,0.27c5.31-4.5,14.87-12.54,20.18-17.04" class="grey" /><path d="M50.44,18.26c0.38,0.74,0.64,1.12,0.76,2.09c0.71,6.06,3.3,23.37,3.3,23.86c0,0.49,0.12,0.04,0.25,1.02" class="grey" /><path d="M51.82,19.75c2.13-0.12,22.65-3.36,24.59-3.5c1.62-0.12,3.09,1.51,3.03,3.09c-0.11,3.22-1.45,13.03-2.74,23.61" class="grey" /><path d="M53.38,31.18c4.11,0,8.4-1,12.45-1.59c1.38-0.2,2.77-0.4,4.09-0.58" class="grey" /><path d="M55.61,42.92c5.87-0.53,13.27-1.94,20.58-2.4" class="grey" /><path d="M42.86,55.39c1.03,0.48,2.92,0.58,3.95,0.48c6.74-0.65,31.01-3.72,40.98-3.71c1.72,0,2.75,0.23,3.61,0.47" class="grey" /><path d="M64.96,55.75c0.92,0.47,1.48,2.1,1.66,3.04c0.18,0.93,0.5,20.12,0.31,25.96" class="grey" /><path d="M66.93,68.75c5.83-0.72,11.82-1.89,14.74-1.76c1.16,0.05,1.85,0.17,2.43,0.35" class="grey" /><path d="M51.41,65.69c0.04,0.54,0.08,1.41-0.08,2.19c-0.91,4.61-6.12,14.74-13.25,20.93" class="grey" /><path d="M48.27,75.74C53.69,76.47,66,87,87.01,93c2.1,0.6,4.21,0.75,6.2,1" class="grey" /><path d="M11.5,42.14c0.76,0.38,2.24,0.46,3,0.36c4.82-0.66,16.65-3.39,22-4c1.25-0.14,2.62-0.18,3.25,0.01" class="stroke" stroke-dasharray="150"><animate attributeName="stroke-dashoffset" from="150" to="0" dur="1.8s" begin="0s" fill="freeze" /></path><path d="M25.87,17.5c1.09,0.5,1.96,2.23,1.96,3.25c0,7.25,0.03,37.25,0.03,48" class="stroke" stroke-dasharray="150"><set attributeName="opacity" to="0" dur="1.0s" /><animate attributeName="stroke-dashoffset" from="150" to="0" dur="1.8s" begin="1.0s" fill="freeze" /></path><path d="M13.5,78.02c0.64,1.23,1.91,1.88,3.82,0.27c5.31-4.5,14.87-12.54,20.18-17.04" class="stroke" stroke-dasharray="150"><set attributeName="opacity" to="0" dur="2.3s" /><animate attributeName="stroke-dashoffset" from="150" to="0" dur="1.8s" begin="2.3s" fill="freeze" /></path><path d="M50.44,18.26c0.38,0.74,0.64,1.12,0.76,2.09c0.71,6.06,3.3,23.37,3.3,23.86c0,0.49,0.12,0.04,0.25,1.02" class="stroke" stroke-dasharray="150"><set attributeName="opacity" to="0" dur="3.3s" /><animate attributeName="stroke-dashoffset" from="150" to="0" dur="1.8s" begin="3.3s" fill="freeze" /></path><path d="M51.82,19.75c2.13-0.12,22.65-3.36,24.59-3.5c1.62-0.12,3.09,1.51,3.03,3.09c-0.11,3.22-1.45,13.03-2.74,23.61" class="stroke" stroke-dasharray="150"><set attributeName="opacity" to="0" dur="4.3s" /><animate attributeName="stroke-dashoffset" from="150" to="0" dur="1.8s" begin="4.3s" fill="freeze" /></path><path d="M53.38,31.18c4.11,0,8.4-1,12.45-1.59c1.38-0.2,2.77-0.4,4.09-0.58" class="stroke" stroke-dasharray="150"><set attributeName="opacity" to="0" dur="5.6s" /><animate attributeName="stroke-dashoffset" from="150" to="0" dur="1.8s" begin="5.6s" fill="freeze" /></path><path d="M55.61,42.92c5.87-0.53,13.27-1.94,20.58-2.4" class="stroke" stroke-dasharray="150"><set attributeName="opacity" to="0" dur="6.5s" /><animate attributeName="stroke-dashoffset" from="150" to="0" dur="1.8s" begin="6.5s" fill="freeze" /></path><path d="M42.86,55.39c1.03,0.48,2.92,0.58,3.95,0.48c6.74-0.65,31.01-3.72,40.98-3.71c1.72,0,2.75,0.23,3.61,0.47" class="stroke" stroke-dasharray="150"><set attributeName="opacity" to="0" dur="7.5s" /><animate attributeName="stroke-dashoffset" from="150" to="0" dur="1.8s" begin="7.5s" fill="freeze" /></path><path d="M64.96,55.75c0.92,0.47,1.48,2.1,1.66,3.04c0.18,0.93,0.5,20.12,0.31,25.96" class="stroke" stroke-dasharray="150"><set attributeName="opacity" to="0" dur="8.7s" /><animate attributeName="stroke-dashoffset" from="150" to="0" dur="1.8s" begin="8.7s" fill="freeze" /></path><path d="M66.93,68.75c5.83-0.72,11.82-1.89,14.74-1.76c1.16,0.05,1.85,0.17,2.43,0.35" class="stroke" stroke-dasharray="150"><set attributeName="opacity" to="0" dur="9.7s" /><animate attributeName="stroke-dashoffset" from="150" to="0" dur="1.8s" begin="9.7s" fill="freeze" /></path><path d="M51.41,65.69c0.04,0.54,0.08,1.41-0.08,2.19c-0.91,4.61-6.12,14.74-13.25,20.93" class="stroke" stroke-dasharray="150"><set attributeName="opacity" to="0" dur="10.6s" /><animate attributeName="stroke-dashoffset" from="150" to="0" dur="1.8s" begin="10.6s" fill="freeze" /></path><path d="M48.27,75.74C53.69,76.47,66,87,87.01,93c2.1,0.6,4.21,0.75,6.2,1" class="stroke" stroke-dasharray="150"><set attributeName="opacity" to="0" dur="11.6s" /><animate attributeName="stroke-dashoffset" from="150" to="0" dur="1.8s" begin="11.6s" fill="freeze" /></path><text x="90" y="120" id="reset">⟳</text><text x="70" y="120" id="pause">◼</text><script type="text/javascript"><![CDATA[function RecurringTimer(e,t){var n,r,i=t;this.pause=function(){window.clearTimeout(n);i-=new Date-r};var s=function(){r=new Date;n=window.setTimeout(function(){i=t;s();e()},i)};this.clear=function(){window.clearTimeout(n);i=t;n=window.setTimeout(function(){i=t;s();e()},i)};this.resume=s;this.resume()}function invoketimer(){timer=new RecurringTimer(function(){svg.setCurrentTime(0)},13799)}var svg=document.getElementById("kanjivg");var pause=document.getElementById("pause");var reset=document.getElementById("reset");var timer;invoketimer();reset.onclick=function(){svg.setCurrentTime(0);timer.clear();svg.unpauseAnimations();pause.innerHTML = "◼";};pause.onclick=function(){if(svg.animationsPaused()){svg.unpauseAnimations();timer.resume();pause.innerHTML="◼"}else{svg.pauseAnimations();timer.pause();pause.innerHTML="▶"}}]]></script></svg>