<svg id="kanjivg" width="106" height="126" xmlns="http://www.w3.org/2000/svg" xmlns:xlink="http://www.w3.org/1999/xlink" xml:space="preserve" version="1.1" baseProfile="full"><defs><style type="text/css"><![CDATA[path.black { fill:none;stroke:black;stroke-width:5;stroke-linecap:round;stroke-linejoin:round; }path.grey { fill:none;stroke:#ddd;stroke-width:5;stroke-linecap:round;stroke-linejoin:round; }path.stroke { fill:none;stroke:black;stroke-width:5;stroke-linecap:round;stroke-linejoin:round; }rect { fill:none;stroke:#555;stroke-width:2;} text{font-size:16px;font-family:Segoe UI Symbol,Cambria Math,DejaVu Sans,Symbola,Quivira,STIX,Code2000;-webkit-touch-callout:none;cursor:pointer;-webkit-user-select:none;-khtml-user-select:none;-moz-user-select:none;-ms-user-select:none;user-select: none;} #reset { font-weight:bold; }]]></style><marker id="markerStart" markerWidth="8" markerHeight="8" style="overflow:visible;"><circle cx="0" cy="0" r="1.5" style="stroke:none;fill:red;fill-opacity:0.5;"/></marker><marker id="markerEnd" style="overflow:visible;"><circle cx="0" cy="0" r="0.8" style="stroke:none;fill:blue;fill-opacity:0.5;"><animate attributeName="opacity" from="1" to="0" dur="3s" repeatCount="indefinite" /></circle></marker></defs><rect x="4" y="4" width="100" height="100" /><path d="M11.75,41.64c1.45,0.73,3.96,0.48,5.5,0.23c5.56-0.9,14.25-2.62,19.25-3.37c1.25-0.19,2.62-0.18,3.25,0.01" class="grey" /><path d="M26.62,17.5c1.06,1.06,1.21,2.12,1.21,3.75c0,7.25,0.03,36.75,0.03,47.5" class="grey" /><path d="M14,78.01c0.74,0.62,2.12,0.49,3.34-0.51C22.79,73,32,65.67,37.5,61.25" class="grey" /><path d="M49.69,18.51c1.03,1.03,1.54,2.05,1.74,3.38c0.88,5.88,1.91,14.09,2.62,19.06c0.27,1.89,0.57,3.3,0.69,4.28" class="grey" /><path d="M51.82,19.5c3.49-0.52,16.96-2.51,22.43-3.24c3.35-0.45,5.41,0.47,5.1,4.24c-0.28,3.52-1.16,10.42-2.1,18c-0.18,1.46-0.37,2.94-0.55,4.45" class="grey" /><path d="M53.63,30.93c5.24-0.68,19.12-2.56,23.69-2.92" class="grey" /><path d="M55.61,42.67c7.26-0.92,13.27-1.69,20.58-2.15" class="grey" /><path d="M43.61,55.14c2.89,0.61,5.26,0.35,7.64,0.09c8.18-0.88,23.57-2.59,33-2.99c2.38-0.1,4.82-0.26,7.14,0.38" class="grey" /><path d="M65.71,56c0.9,0.9,1.16,2,1.16,3.29c0,0.95-0.12,17.97-0.12,24.59" class="grey" /><path d="M68.18,68.5c3.94-0.62,7.94-1.37,12.74-1.76c1.15-0.09,2.6-0.08,3.18,0.1" class="grey" /><path d="M51.41,65.69c0.04,0.54,0.16,1.43-0.08,2.19C49.62,73.5,45.5,80.5,38.08,88.82" class="grey" /><path d="M49.75,75.5c5.02,2.34,18.62,11.75,32.29,16.78c3.34,1.23,5.9,2.03,9.42,2.47" class="grey" /><path d="M11.75,41.64c1.45,0.73,3.96,0.48,5.5,0.23c5.56-0.9,14.25-2.62,19.25-3.37c1.25-0.19,2.62-0.18,3.25,0.01" class="stroke" stroke-dasharray="150"><animate attributeName="stroke-dashoffset" from="150" to="0" dur="1.8s" begin="0s" fill="freeze" /></path><path d="M26.62,17.5c1.06,1.06,1.21,2.12,1.21,3.75c0,7.25,0.03,36.75,0.03,47.5" class="stroke" stroke-dasharray="150"><set attributeName="opacity" to="0" dur="1.0s" /><animate attributeName="stroke-dashoffset" from="150" to="0" dur="1.8s" begin="1.0s" fill="freeze" /></path><path d="M14,78.01c0.74,0.62,2.12,0.49,3.34-0.51C22.79,73,32,65.67,37.5,61.25" class="stroke" stroke-dasharray="150"><set attributeName="opacity" to="0" dur="2.3s" /><animate attributeName="stroke-dashoffset" from="150" to="0" dur="1.8s" begin="2.3s" fill="freeze" /></path><path d="M49.69,18.51c1.03,1.03,1.54,2.05,1.74,3.38c0.88,5.88,1.91,14.09,2.62,19.06c0.27,1.89,0.57,3.3,0.69,4.28" class="stroke" stroke-dasharray="150"><set attributeName="opacity" to="0" dur="3.3s" /><animate attributeName="stroke-dashoffset" from="150" to="0" dur="1.8s" begin="3.3s" fill="freeze" /></path><path d="M51.82,19.5c3.49-0.52,16.96-2.51,22.43-3.24c3.35-0.45,5.41,0.47,5.1,4.24c-0.28,3.52-1.16,10.42-2.1,18c-0.18,1.46-0.37,2.94-0.55,4.45" class="stroke" stroke-dasharray="150"><set attributeName="opacity" to="0" dur="4.3s" /><animate attributeName="stroke-dashoffset" from="150" to="0" dur="1.8s" begin="4.3s" fill="freeze" /></path><path d="M53.63,30.93c5.24-0.68,19.12-2.56,23.69-2.92" class="stroke" stroke-dasharray="150"><set attributeName="opacity" to="0" dur="5.6s" /><animate attributeName="stroke-dashoffset" from="150" to="0" dur="1.8s" begin="5.6s" fill="freeze" /></path><path d="M55.61,42.67c7.26-0.92,13.27-1.69,20.58-2.15" class="stroke" stroke-dasharray="150"><set attributeName="opacity" to="0" dur="6.6s" /><animate attributeName="stroke-dashoffset" from="150" to="0" dur="1.8s" begin="6.6s" fill="freeze" /></path><path d="M43.61,55.14c2.89,0.61,5.26,0.35,7.64,0.09c8.18-0.88,23.57-2.59,33-2.99c2.38-0.1,4.82-0.26,7.14,0.38" class="stroke" stroke-dasharray="150"><set attributeName="opacity" to="0" dur="7.6s" /><animate attributeName="stroke-dashoffset" from="150" to="0" dur="1.8s" begin="7.6s" fill="freeze" /></path><path d="M65.71,56c0.9,0.9,1.16,2,1.16,3.29c0,0.95-0.12,17.97-0.12,24.59" class="stroke" stroke-dasharray="150"><set attributeName="opacity" to="0" dur="8.799999999999999s" /><animate attributeName="stroke-dashoffset" from="150" to="0" dur="1.8s" begin="8.799999999999999s" fill="freeze" /></path><path d="M68.18,68.5c3.94-0.62,7.94-1.37,12.74-1.76c1.15-0.09,2.6-0.08,3.18,0.1" class="stroke" stroke-dasharray="150"><set attributeName="opacity" to="0" dur="9.799999999999999s" /><animate attributeName="stroke-dashoffset" from="150" to="0" dur="1.8s" begin="9.799999999999999s" fill="freeze" /></path><path d="M51.41,65.69c0.04,0.54,0.16,1.43-0.08,2.19C49.62,73.5,45.5,80.5,38.08,88.82" class="stroke" stroke-dasharray="150"><set attributeName="opacity" to="0" dur="10.7s" /><animate attributeName="stroke-dashoffset" from="150" to="0" dur="1.8s" begin="10.7s" fill="freeze" /></path><path d="M49.75,75.5c5.02,2.34,18.62,11.75,32.29,16.78c3.34,1.23,5.9,2.03,9.42,2.47" class="stroke" stroke-dasharray="150"><set attributeName="opacity" to="0" dur="11.7s" /><animate attributeName="stroke-dashoffset" from="150" to="0" dur="1.8s" begin="11.7s" fill="freeze" /></path><text x="90" y="120" id="reset">⟳</text><text x="70" y="120" id="pause">◼</text><script type="text/javascript"><![CDATA[function RecurringTimer(e,t){var n,r,i=t;this.pause=function(){window.clearTimeout(n);i-=new Date-r};var s=function(){r=new Date;n=window.setTimeout(function(){i=t;s();e()},i)};this.clear=function(){window.clearTimeout(n);i=t;n=window.setTimeout(function(){i=t;s();e()},i)};this.resume=s;this.resume()}function invoketimer(){timer=new RecurringTimer(function(){svg.setCurrentTime(0)},13899)}var svg=document.getElementById("kanjivg");var pause=document.getElementById("pause");var reset=document.getElementById("reset");var timer;invoketimer();reset.onclick=function(){svg.setCurrentTime(0);timer.clear();svg.unpauseAnimations();pause.innerHTML = "◼";};pause.onclick=function(){if(svg.animationsPaused()){svg.unpauseAnimations();timer.resume();pause.innerHTML="◼"}else{svg.pauseAnimations();timer.pause();pause.innerHTML="▶"}}]]></script></svg>