<svg id="kanjivg" width="106" height="126" xmlns="http://www.w3.org/2000/svg" xmlns:xlink="http://www.w3.org/1999/xlink" xml:space="preserve" version="1.1" baseProfile="full"><defs><style type="text/css"><![CDATA[path.black { fill:none;stroke:black;stroke-width:5;stroke-linecap:round;stroke-linejoin:round; }path.grey { fill:none;stroke:#ddd;stroke-width:5;stroke-linecap:round;stroke-linejoin:round; }path.stroke { fill:none;stroke:black;stroke-width:5;stroke-linecap:round;stroke-linejoin:round; }rect { fill:none;stroke:#555;stroke-width:2;} text{font-size:16px;font-family:Segoe UI Symbol,Cambria Math,DejaVu Sans,Symbola,Quivira,STIX,Code2000;-webkit-touch-callout:none;cursor:pointer;-webkit-user-select:none;-khtml-user-select:none;-moz-user-select:none;-ms-user-select:none;user-select: none;} #reset { font-weight:bold; }]]></style><marker id="markerStart" markerWidth="8" markerHeight="8" style="overflow:visible;"><circle cx="0" cy="0" r="1.5" style="stroke:none;fill:red;fill-opacity:0.5;"/></marker><marker id="markerEnd" style="overflow:visible;"><circle cx="0" cy="0" r="0.8" style="stroke:none;fill:blue;fill-opacity:0.5;"><animate attributeName="opacity" from="1" to="0" dur="3s" repeatCount="indefinite" /></circle></marker></defs><rect x="4" y="4" width="100" height="100" /><path d="M13,44.14c2,0.61,4.03,0.53,5.74,0.3c5.89-0.81,13.43-2.87,19.01-3.94c1.24-0.24,2.75-0.38,3.75-0.24" class="grey" /><path d="M27.12,18c0.81,0.81,1.21,2,1.21,3.5c0,7.25,0.03,36.5,0.03,47.25" class="grey" /><path d="M14,77.85c1.25,1.4,2.34,1.39,4.43-0.45C24.24,72.28,34.19,63.88,40,58.75" class="grey" /><path d="M44.7,27.91c2.68,0.59,4.74,0.18,6.93-0.07c8.14-0.93,23.42-2.85,34.13-3.65c2.2-0.16,4.99-0.07,6.6,0.31" class="grey" /><path d="M55.3,14.89c0.91,0.91,1.26,2.14,1.26,3.63S56.5,55.31,56.5,61.5" class="grey" /><path d="M77.83,12.02c1.01,1.01,1.3,2.48,1.3,3.73s-0.01,37.13-0.01,43.5" class="grey" /><path d="M57.45,37.82c2.68-0.32,18.92-1.6,20.81-1.55" class="grey" /><path d="M57.48,49.38c4.09-0.09,17.12-1.66,20.9-1.76" class="grey" /><path d="M41.75,63c2.5,0.62,5.61,0.31,8.12,0.08c12.63-1.13,29.24-3.13,39.89-3.75c2.12-0.12,3.99-0.11,6.04,0.42" class="grey" /><path d="M63.82,64.89c0.3,0.86,0.34,2.16,0.16,2.87c-1.23,4.73-2.35,9.36-6.65,14.95" class="grey" /><path d="M74.9,63.43c0.78,0.78,0.89,2.07,0.89,3.51c0,1.93-0.13,3.82-0.13,7.75s0.52,5.26,7.12,5.26s8.42-0.75,9.18-1.55" class="grey" /><path d="M49.87,66.11c0.95,0.95,1.39,2.27,1.39,4.81c0,2.99-0.01,11.79-0.01,14.45c0,7.5,1,9.25,21.07,9.25c12.33,0,17.29-1.47,19.66-2.49" class="grey" /><path d="M13,44.14c2,0.61,4.03,0.53,5.74,0.3c5.89-0.81,13.43-2.87,19.01-3.94c1.24-0.24,2.75-0.38,3.75-0.24" class="stroke" stroke-dasharray="150"><animate attributeName="stroke-dashoffset" from="150" to="0" dur="1.8s" begin="0s" fill="freeze" /></path><path d="M27.12,18c0.81,0.81,1.21,2,1.21,3.5c0,7.25,0.03,36.5,0.03,47.25" class="stroke" stroke-dasharray="150"><set attributeName="opacity" to="0" dur="1.0s" /><animate attributeName="stroke-dashoffset" from="150" to="0" dur="1.8s" begin="1.0s" fill="freeze" /></path><path d="M14,77.85c1.25,1.4,2.34,1.39,4.43-0.45C24.24,72.28,34.19,63.88,40,58.75" class="stroke" stroke-dasharray="150"><set attributeName="opacity" to="0" dur="2.3s" /><animate attributeName="stroke-dashoffset" from="150" to="0" dur="1.8s" begin="2.3s" fill="freeze" /></path><path d="M44.7,27.91c2.68,0.59,4.74,0.18,6.93-0.07c8.14-0.93,23.42-2.85,34.13-3.65c2.2-0.16,4.99-0.07,6.6,0.31" class="stroke" stroke-dasharray="150"><set attributeName="opacity" to="0" dur="3.3s" /><animate attributeName="stroke-dashoffset" from="150" to="0" dur="1.8s" begin="3.3s" fill="freeze" /></path><path d="M55.3,14.89c0.91,0.91,1.26,2.14,1.26,3.63S56.5,55.31,56.5,61.5" class="stroke" stroke-dasharray="150"><set attributeName="opacity" to="0" dur="4.5s" /><animate attributeName="stroke-dashoffset" from="150" to="0" dur="1.8s" begin="4.5s" fill="freeze" /></path><path d="M77.83,12.02c1.01,1.01,1.3,2.48,1.3,3.73s-0.01,37.13-0.01,43.5" class="stroke" stroke-dasharray="150"><set attributeName="opacity" to="0" dur="5.7s" /><animate attributeName="stroke-dashoffset" from="150" to="0" dur="1.8s" begin="5.7s" fill="freeze" /></path><path d="M57.45,37.82c2.68-0.32,18.92-1.6,20.81-1.55" class="stroke" stroke-dasharray="150"><set attributeName="opacity" to="0" dur="6.9s" /><animate attributeName="stroke-dashoffset" from="150" to="0" dur="1.8s" begin="6.9s" fill="freeze" /></path><path d="M57.48,49.38c4.09-0.09,17.12-1.66,20.9-1.76" class="stroke" stroke-dasharray="150"><set attributeName="opacity" to="0" dur="7.9s" /><animate attributeName="stroke-dashoffset" from="150" to="0" dur="1.8s" begin="7.9s" fill="freeze" /></path><path d="M41.75,63c2.5,0.62,5.61,0.31,8.12,0.08c12.63-1.13,29.24-3.13,39.89-3.75c2.12-0.12,3.99-0.11,6.04,0.42" class="stroke" stroke-dasharray="150"><set attributeName="opacity" to="0" dur="8.9s" /><animate attributeName="stroke-dashoffset" from="150" to="0" dur="1.8s" begin="8.9s" fill="freeze" /></path><path d="M63.82,64.89c0.3,0.86,0.34,2.16,0.16,2.87c-1.23,4.73-2.35,9.36-6.65,14.95" class="stroke" stroke-dasharray="150"><set attributeName="opacity" to="0" dur="10.200000000000001s" /><animate attributeName="stroke-dashoffset" from="150" to="0" dur="1.8s" begin="10.200000000000001s" fill="freeze" /></path><path d="M74.9,63.43c0.78,0.78,0.89,2.07,0.89,3.51c0,1.93-0.13,3.82-0.13,7.75s0.52,5.26,7.12,5.26s8.42-0.75,9.18-1.55" class="stroke" stroke-dasharray="150"><set attributeName="opacity" to="0" dur="11.100000000000001s" /><animate attributeName="stroke-dashoffset" from="150" to="0" dur="1.8s" begin="11.100000000000001s" fill="freeze" /></path><path d="M49.87,66.11c0.95,0.95,1.39,2.27,1.39,4.81c0,2.99-0.01,11.79-0.01,14.45c0,7.5,1,9.25,21.07,9.25c12.33,0,17.29-1.47,19.66-2.49" class="stroke" stroke-dasharray="150"><set attributeName="opacity" to="0" dur="12.100000000000001s" /><animate attributeName="stroke-dashoffset" from="150" to="0" dur="1.8s" begin="12.100000000000001s" fill="freeze" /></path><text x="90" y="120" id="reset">⟳</text><text x="70" y="120" id="pause">◼</text><script type="text/javascript"><![CDATA[function RecurringTimer(e,t){var n,r,i=t;this.pause=function(){window.clearTimeout(n);i-=new Date-r};var s=function(){r=new Date;n=window.setTimeout(function(){i=t;s();e()},i)};this.clear=function(){window.clearTimeout(n);i=t;n=window.setTimeout(function(){i=t;s();e()},i)};this.resume=s;this.resume()}function invoketimer(){timer=new RecurringTimer(function(){svg.setCurrentTime(0)},14600)}var svg=document.getElementById("kanjivg");var pause=document.getElementById("pause");var reset=document.getElementById("reset");var timer;invoketimer();reset.onclick=function(){svg.setCurrentTime(0);timer.clear();svg.unpauseAnimations();pause.innerHTML = "◼";};pause.onclick=function(){if(svg.animationsPaused()){svg.unpauseAnimations();timer.resume();pause.innerHTML="◼"}else{svg.pauseAnimations();timer.pause();pause.innerHTML="▶"}}]]></script></svg>