<svg id="kanjivg" width="106" height="126" xmlns="http://www.w3.org/2000/svg" xmlns:xlink="http://www.w3.org/1999/xlink" xml:space="preserve" version="1.1" baseProfile="full"><defs><style type="text/css"><![CDATA[path.black { fill:none;stroke:black;stroke-width:5;stroke-linecap:round;stroke-linejoin:round; }path.grey { fill:none;stroke:#ddd;stroke-width:5;stroke-linecap:round;stroke-linejoin:round; }path.stroke { fill:none;stroke:black;stroke-width:5;stroke-linecap:round;stroke-linejoin:round; }rect { fill:none;stroke:#555;stroke-width:2;} text{font-size:16px;font-family:Segoe UI Symbol,Cambria Math,DejaVu Sans,Symbola,Quivira,STIX,Code2000;-webkit-touch-callout:none;cursor:pointer;-webkit-user-select:none;-khtml-user-select:none;-moz-user-select:none;-ms-user-select:none;user-select: none;} #reset { font-weight:bold; }]]></style><marker id="markerStart" markerWidth="8" markerHeight="8" style="overflow:visible;"><circle cx="0" cy="0" r="1.5" style="stroke:none;fill:red;fill-opacity:0.5;"/></marker><marker id="markerEnd" style="overflow:visible;"><circle cx="0" cy="0" r="0.8" style="stroke:none;fill:blue;fill-opacity:0.5;"><animate attributeName="opacity" from="1" to="0" dur="3s" repeatCount="indefinite" /></circle></marker></defs><rect x="4" y="4" width="100" height="100" /><path d="M35.73,11.73c0.29,1.63-0.29,3.7-1.02,5.16C30.18,25.99,23.25,35.5,11.5,46.21" class="grey" /><path d="M27.31,34.88c0.56,0.44,0.72,1.42,0.72,2.33c0,10.29-0.01,26.04-0.01,31.25" class="grey" /><path d="M45.57,14c0.36,0.29,0.73,0.52,0.88,0.88c1.24,2.83,3.13,10.15,3.98,15.23" class="grey" /><path d="M46.72,15.3c9.48-0.86,26.5-2.68,30.69-3.05c1.53-0.14,2.45,0.81,2.23,1.6c-0.91,3.3-2.43,6.91-3.78,11.47" class="grey" /><path d="M50.1,27.85c4.93-0.42,21.45-1.48,28.21-2.12" class="grey" /><path d="M37.39,39.29c1.47,0,3.68,0.36,5.63,0.23c8.88-0.6,32.76-2.98,46.23-4.14c1.95-0.17,2.45-0.23,3.67,0" class="grey" /><path d="M62.62,29.12c0.93,0.47,1.68,3.06,1.68,4.04c0,6.65,0,28.15-0.19,34.09" class="grey" /><path d="M62.17,38.67c-4.84,7.45-14.92,18.08-27,22.22" class="grey" /><path d="M64.33,38.03c3.81,3.57,22.13,17.54,26.6,20.55c1.51,1.02,2.81,1.46,4.32,1.75" class="grey" /><path d="M27.5,79.44c1.18,0.46,3.35,0.58,4.54,0.46c15.22-1.57,31.32-2.9,46.63-3.3c1.97-0.05,3.16,0.22,4.14,0.45" class="grey" /><path d="M53.25,64.5c0.13,0.31,1.88,1.62,1.88,3.59c0,4.16-0.38,20.91-0.38,26.41" class="grey" /><path d="M14.67,95.78c1.84,0.85,5.22,0.96,7.07,0.85c22.75-1.38,44.75-2.38,66.87-3.11c3.07-0.1,4.92,0.4,6.46,0.83" class="grey" /><path d="M35.73,11.73c0.29,1.63-0.29,3.7-1.02,5.16C30.18,25.99,23.25,35.5,11.5,46.21" class="stroke" stroke-dasharray="150"><animate attributeName="stroke-dashoffset" from="150" to="0" dur="1.8s" begin="0s" fill="freeze" /></path><path d="M27.31,34.88c0.56,0.44,0.72,1.42,0.72,2.33c0,10.29-0.01,26.04-0.01,31.25" class="stroke" stroke-dasharray="150"><set attributeName="opacity" to="0" dur="1.1s" /><animate attributeName="stroke-dashoffset" from="150" to="0" dur="1.8s" begin="1.1s" fill="freeze" /></path><path d="M45.57,14c0.36,0.29,0.73,0.52,0.88,0.88c1.24,2.83,3.13,10.15,3.98,15.23" class="stroke" stroke-dasharray="150"><set attributeName="opacity" to="0" dur="2.1s" /><animate attributeName="stroke-dashoffset" from="150" to="0" dur="1.8s" begin="2.1s" fill="freeze" /></path><path d="M46.72,15.3c9.48-0.86,26.5-2.68,30.69-3.05c1.53-0.14,2.45,0.81,2.23,1.6c-0.91,3.3-2.43,6.91-3.78,11.47" class="stroke" stroke-dasharray="150"><set attributeName="opacity" to="0" dur="3.0s" /><animate attributeName="stroke-dashoffset" from="150" to="0" dur="1.8s" begin="3.0s" fill="freeze" /></path><path d="M50.1,27.85c4.93-0.42,21.45-1.48,28.21-2.12" class="stroke" stroke-dasharray="150"><set attributeName="opacity" to="0" dur="4.2s" /><animate attributeName="stroke-dashoffset" from="150" to="0" dur="1.8s" begin="4.2s" fill="freeze" /></path><path d="M37.39,39.29c1.47,0,3.68,0.36,5.63,0.23c8.88-0.6,32.76-2.98,46.23-4.14c1.95-0.17,2.45-0.23,3.67,0" class="stroke" stroke-dasharray="150"><set attributeName="opacity" to="0" dur="5.2s" /><animate attributeName="stroke-dashoffset" from="150" to="0" dur="1.8s" begin="5.2s" fill="freeze" /></path><path d="M62.62,29.12c0.93,0.47,1.68,3.06,1.68,4.04c0,6.65,0,28.15-0.19,34.09" class="stroke" stroke-dasharray="150"><set attributeName="opacity" to="0" dur="6.6s" /><animate attributeName="stroke-dashoffset" from="150" to="0" dur="1.8s" begin="6.6s" fill="freeze" /></path><path d="M62.17,38.67c-4.84,7.45-14.92,18.08-27,22.22" class="stroke" stroke-dasharray="150"><set attributeName="opacity" to="0" dur="7.6s" /><animate attributeName="stroke-dashoffset" from="150" to="0" dur="1.8s" begin="7.6s" fill="freeze" /></path><path d="M64.33,38.03c3.81,3.57,22.13,17.54,26.6,20.55c1.51,1.02,2.81,1.46,4.32,1.75" class="stroke" stroke-dasharray="150"><set attributeName="opacity" to="0" dur="8.6s" /><animate attributeName="stroke-dashoffset" from="150" to="0" dur="1.8s" begin="8.6s" fill="freeze" /></path><path d="M27.5,79.44c1.18,0.46,3.35,0.58,4.54,0.46c15.22-1.57,31.32-2.9,46.63-3.3c1.97-0.05,3.16,0.22,4.14,0.45" class="stroke" stroke-dasharray="150"><set attributeName="opacity" to="0" dur="9.6s" /><animate attributeName="stroke-dashoffset" from="150" to="0" dur="1.8s" begin="9.6s" fill="freeze" /></path><path d="M53.25,64.5c0.13,0.31,1.88,1.62,1.88,3.59c0,4.16-0.38,20.91-0.38,26.41" class="stroke" stroke-dasharray="150"><set attributeName="opacity" to="0" dur="11.0s" /><animate attributeName="stroke-dashoffset" from="150" to="0" dur="1.8s" begin="11.0s" fill="freeze" /></path><path d="M14.67,95.78c1.84,0.85,5.22,0.96,7.07,0.85c22.75-1.38,44.75-2.38,66.87-3.11c3.07-0.1,4.92,0.4,6.46,0.83" class="stroke" stroke-dasharray="150"><set attributeName="opacity" to="0" dur="12.0s" /><animate attributeName="stroke-dashoffset" from="150" to="0" dur="1.8s" begin="12.0s" fill="freeze" /></path><text x="90" y="120" id="reset">⟳</text><text x="70" y="120" id="pause">◼</text><script type="text/javascript"><![CDATA[function RecurringTimer(e,t){var n,r,i=t;this.pause=function(){window.clearTimeout(n);i-=new Date-r};var s=function(){r=new Date;n=window.setTimeout(function(){i=t;s();e()},i)};this.clear=function(){window.clearTimeout(n);i=t;n=window.setTimeout(function(){i=t;s();e()},i)};this.resume=s;this.resume()}function invoketimer(){timer=new RecurringTimer(function(){svg.setCurrentTime(0)},14700)}var svg=document.getElementById("kanjivg");var pause=document.getElementById("pause");var reset=document.getElementById("reset");var timer;invoketimer();reset.onclick=function(){svg.setCurrentTime(0);timer.clear();svg.unpauseAnimations();pause.innerHTML = "◼";};pause.onclick=function(){if(svg.animationsPaused()){svg.unpauseAnimations();timer.resume();pause.innerHTML="◼"}else{svg.pauseAnimations();timer.pause();pause.innerHTML="▶"}}]]></script></svg>