<svg id="kanjivg" width="106" height="126" xmlns="http://www.w3.org/2000/svg" xmlns:xlink="http://www.w3.org/1999/xlink" xml:space="preserve" version="1.1" baseProfile="full"><defs><style type="text/css"><![CDATA[path.black { fill:none;stroke:black;stroke-width:5;stroke-linecap:round;stroke-linejoin:round; }path.grey { fill:none;stroke:#ddd;stroke-width:5;stroke-linecap:round;stroke-linejoin:round; }path.stroke { fill:none;stroke:black;stroke-width:5;stroke-linecap:round;stroke-linejoin:round; }rect { fill:none;stroke:#555;stroke-width:2;} text{font-size:16px;font-family:Segoe UI Symbol,Cambria Math,DejaVu Sans,Symbola,Quivira,STIX,Code2000;-webkit-touch-callout:none;cursor:pointer;-webkit-user-select:none;-khtml-user-select:none;-moz-user-select:none;-ms-user-select:none;user-select: none;} #reset { font-weight:bold; }]]></style><marker id="markerStart" markerWidth="8" markerHeight="8" style="overflow:visible;"><circle cx="0" cy="0" r="1.5" style="stroke:none;fill:red;fill-opacity:0.5;"/></marker><marker id="markerEnd" style="overflow:visible;"><circle cx="0" cy="0" r="0.8" style="stroke:none;fill:blue;fill-opacity:0.5;"><animate attributeName="opacity" from="1" to="0" dur="3s" repeatCount="indefinite" /></circle></marker></defs><rect x="4" y="4" width="100" height="100" /><path d="M13,44.14c0.76,0.38,2.24,0.42,3,0.36c6-0.5,15.5-2.75,22-4c1.24-0.24,2.62-0.18,3.25,0.01" class="grey" /><path d="M26.37,17.5c1.09,0.5,1.96,2.23,1.96,3.25c0,7.25,0.03,37.25,0.03,48" class="grey" /><path d="M13.75,77.85c0.7,1.4,2.09,2.14,4.18,0.3c5.81-5.12,16.26-14.28,22.07-19.4" class="grey" /><path d="M44.7,27.66c0.96,0.45,2.71,0.6,3.67,0.52c7.04-0.6,28.21-3.8,40.4-4.43c1.59-0.08,2.55,0.27,3.35,0.5" class="grey" /><path d="M54.8,14.89c0.83,0.5,1.34,2.17,1.51,3.13c0.17,0.96,0.28,38.78,0.16,43.68" class="grey" /><path d="M77.33,11.77c0.86,0.51,1.38,2.24,1.55,3.23c0.17,0.98,0.36,40.1,0.24,45" class="grey" /><path d="M56.95,38.32c3.68-0.44,7.38-0.72,11.08-1.04c1.21-0.1,2.4-0.21,3.54-0.3" class="grey" /><path d="M56.98,49.88c3.61-0.08,7.24-0.61,10.82-1c1.09-0.12,2.18-0.24,3.23-0.35" class="grey" /><path d="M42.5,63c1.13,0.46,3.2,0.58,4.33,0.54c11.74-0.43,34.3-4.11,45.78-4.56c1.88-0.07,3.01,0.28,3.95,0.53" class="grey" /><path d="M63.82,64.64c0.28,0.29,0.61,1.03,0.54,1.61c-0.54,4.65-2.55,11.29-7.28,16.46" class="grey" /><path d="M74.65,63.93c0.61,0.88,1.13,1.92,1.14,3.26c0.01,1.93-0.14,3.6-0.13,7c-0.08,4.42,0.68,5.64,7.12,5.76c4.54,0.11,8.42-0.75,9.18-1.55" class="grey" /><path d="M49.87,66.11C50.5,67,51.26,69,51.26,72.17c0,2.99-0.06,3.92-0.06,12.37s1.05,10.08,21.12,10.08c12.33,0,17.29-1.47,19.66-2.49" class="grey" /><path d="M13,44.14c0.76,0.38,2.24,0.42,3,0.36c6-0.5,15.5-2.75,22-4c1.24-0.24,2.62-0.18,3.25,0.01" class="stroke" stroke-dasharray="150"><animate attributeName="stroke-dashoffset" from="150" to="0" dur="1.8s" begin="0s" fill="freeze" /></path><path d="M26.37,17.5c1.09,0.5,1.96,2.23,1.96,3.25c0,7.25,0.03,37.25,0.03,48" class="stroke" stroke-dasharray="150"><set attributeName="opacity" to="0" dur="1.0s" /><animate attributeName="stroke-dashoffset" from="150" to="0" dur="1.8s" begin="1.0s" fill="freeze" /></path><path d="M13.75,77.85c0.7,1.4,2.09,2.14,4.18,0.3c5.81-5.12,16.26-14.28,22.07-19.4" class="stroke" stroke-dasharray="150"><set attributeName="opacity" to="0" dur="2.3s" /><animate attributeName="stroke-dashoffset" from="150" to="0" dur="1.8s" begin="2.3s" fill="freeze" /></path><path d="M44.7,27.66c0.96,0.45,2.71,0.6,3.67,0.52c7.04-0.6,28.21-3.8,40.4-4.43c1.59-0.08,2.55,0.27,3.35,0.5" class="stroke" stroke-dasharray="150"><set attributeName="opacity" to="0" dur="3.3s" /><animate attributeName="stroke-dashoffset" from="150" to="0" dur="1.8s" begin="3.3s" fill="freeze" /></path><path d="M54.8,14.89c0.83,0.5,1.34,2.17,1.51,3.13c0.17,0.96,0.28,38.78,0.16,43.68" class="stroke" stroke-dasharray="150"><set attributeName="opacity" to="0" dur="4.5s" /><animate attributeName="stroke-dashoffset" from="150" to="0" dur="1.8s" begin="4.5s" fill="freeze" /></path><path d="M77.33,11.77c0.86,0.51,1.38,2.24,1.55,3.23c0.17,0.98,0.36,40.1,0.24,45" class="stroke" stroke-dasharray="150"><set attributeName="opacity" to="0" dur="5.7s" /><animate attributeName="stroke-dashoffset" from="150" to="0" dur="1.8s" begin="5.7s" fill="freeze" /></path><path d="M56.95,38.32c3.68-0.44,7.38-0.72,11.08-1.04c1.21-0.1,2.4-0.21,3.54-0.3" class="stroke" stroke-dasharray="150"><set attributeName="opacity" to="0" dur="6.9s" /><animate attributeName="stroke-dashoffset" from="150" to="0" dur="1.8s" begin="6.9s" fill="freeze" /></path><path d="M56.98,49.88c3.61-0.08,7.24-0.61,10.82-1c1.09-0.12,2.18-0.24,3.23-0.35" class="stroke" stroke-dasharray="150"><set attributeName="opacity" to="0" dur="7.800000000000001s" /><animate attributeName="stroke-dashoffset" from="150" to="0" dur="1.8s" begin="7.800000000000001s" fill="freeze" /></path><path d="M42.5,63c1.13,0.46,3.2,0.58,4.33,0.54c11.74-0.43,34.3-4.11,45.78-4.56c1.88-0.07,3.01,0.28,3.95,0.53" class="stroke" stroke-dasharray="150"><set attributeName="opacity" to="0" dur="8.700000000000001s" /><animate attributeName="stroke-dashoffset" from="150" to="0" dur="1.8s" begin="8.700000000000001s" fill="freeze" /></path><path d="M63.82,64.64c0.28,0.29,0.61,1.03,0.54,1.61c-0.54,4.65-2.55,11.29-7.28,16.46" class="stroke" stroke-dasharray="150"><set attributeName="opacity" to="0" dur="10.000000000000002s" /><animate attributeName="stroke-dashoffset" from="150" to="0" dur="1.8s" begin="10.000000000000002s" fill="freeze" /></path><path d="M74.65,63.93c0.61,0.88,1.13,1.92,1.14,3.26c0.01,1.93-0.14,3.6-0.13,7c-0.08,4.42,0.68,5.64,7.12,5.76c4.54,0.11,8.42-0.75,9.18-1.55" class="stroke" stroke-dasharray="150"><set attributeName="opacity" to="0" dur="11.000000000000002s" /><animate attributeName="stroke-dashoffset" from="150" to="0" dur="1.8s" begin="11.000000000000002s" fill="freeze" /></path><path d="M49.87,66.11C50.5,67,51.26,69,51.26,72.17c0,2.99-0.06,3.92-0.06,12.37s1.05,10.08,21.12,10.08c12.33,0,17.29-1.47,19.66-2.49" class="stroke" stroke-dasharray="150"><set attributeName="opacity" to="0" dur="12.000000000000002s" /><animate attributeName="stroke-dashoffset" from="150" to="0" dur="1.8s" begin="12.000000000000002s" fill="freeze" /></path><text x="90" y="120" id="reset">⟳</text><text x="70" y="120" id="pause">◼</text><script type="text/javascript"><![CDATA[function RecurringTimer(e,t){var n,r,i=t;this.pause=function(){window.clearTimeout(n);i-=new Date-r};var s=function(){r=new Date;n=window.setTimeout(function(){i=t;s();e()},i)};this.clear=function(){window.clearTimeout(n);i=t;n=window.setTimeout(function(){i=t;s();e()},i)};this.resume=s;this.resume()}function invoketimer(){timer=new RecurringTimer(function(){svg.setCurrentTime(0)},14500)}var svg=document.getElementById("kanjivg");var pause=document.getElementById("pause");var reset=document.getElementById("reset");var timer;invoketimer();reset.onclick=function(){svg.setCurrentTime(0);timer.clear();svg.unpauseAnimations();pause.innerHTML = "◼";};pause.onclick=function(){if(svg.animationsPaused()){svg.unpauseAnimations();timer.resume();pause.innerHTML="◼"}else{svg.pauseAnimations();timer.pause();pause.innerHTML="▶"}}]]></script></svg>