<svg id="kanjivg" width="106" height="126" xmlns="http://www.w3.org/2000/svg" xmlns:xlink="http://www.w3.org/1999/xlink" xml:space="preserve" version="1.1" baseProfile="full"><defs><style type="text/css"><![CDATA[path.black { fill:none;stroke:black;stroke-width:5;stroke-linecap:round;stroke-linejoin:round; }path.grey { fill:none;stroke:#ddd;stroke-width:5;stroke-linecap:round;stroke-linejoin:round; }path.stroke { fill:none;stroke:black;stroke-width:5;stroke-linecap:round;stroke-linejoin:round; }rect { fill:none;stroke:#555;stroke-width:2;} text{font-size:16px;font-family:Segoe UI Symbol,Cambria Math,DejaVu Sans,Symbola,Quivira,STIX,Code2000;-webkit-touch-callout:none;cursor:pointer;-webkit-user-select:none;-khtml-user-select:none;-moz-user-select:none;-ms-user-select:none;user-select: none;} #reset { font-weight:bold; }]]></style><marker id="markerStart" markerWidth="8" markerHeight="8" style="overflow:visible;"><circle cx="0" cy="0" r="1.5" style="stroke:none;fill:red;fill-opacity:0.5;"/></marker><marker id="markerEnd" style="overflow:visible;"><circle cx="0" cy="0" r="0.8" style="stroke:none;fill:blue;fill-opacity:0.5;"><animate attributeName="opacity" from="1" to="0" dur="3s" repeatCount="indefinite" /></circle></marker></defs><rect x="4" y="4" width="100" height="100" /><path d="M16.81,25.55c1.09,0.55,3.4,0.59,4.57,0.48c5.06-0.51,13.83-1.57,19.12-2.06c1.56-0.14,3.51-0.51,5.03-0.05" class="grey" /><path d="M31.18,11.5c0.66,0.66,1.1,1.88,1.1,3.14c0,12.11,0.1,20.32,0.1,23.36" class="grey" /><path d="M9.88,41.36c2.12,0.39,4.35,0.39,6.25,0.05c10.12-1.79,21.31-3.27,28.87-4.06c1.96-0.2,3.95-0.44,5.88,0.1" class="grey" /><path d="M20.26,46.08c1.81,1.44,4.69,5.9,5.14,8.13" class="grey" /><path d="M44.05,41.39c0.06,0.91-0.06,1.8-0.36,2.67c-1.68,3.19-3.31,6.31-5.63,9.91" class="grey" /><path d="M16.25,59.09c1.63,0.54,4.31,0.45,5.63,0.28c4.95-0.63,13.6-2.05,20.05-3.31c1.68-0.33,3.57-0.69,5.64-0.26" class="grey" /><path d="M9.91,75.4c1.96,0.35,4.12,0.24,6.09-0.03c7.53-1.03,20.69-3.3,28.25-4.24c1.8-0.22,3.61-0.43,5.4,0.02" class="grey" /><path d="M31.22,60.75c0.89,0.89,1.11,2.12,1.11,3.33c0,0.79,0.15,17.49,0.14,28.41c0,3.2-0.01,5.81-0.03,7.25" class="grey" /><path d="M55.5,16c1.08,0.5,2.33,0.5,3.89,0.42c3.86-0.18,22.61-3.12,24.56-3.24c1.94-0.11,3.23,1.05,2.81,3.39c-0.75,4.17-2.48,12.44-5.47,17.28c-5.03,8.14-7.39,0.56-7.97,0.34" class="grey" /><path d="M56.58,16.5c1.02,1.02,1.57,2.38,1.57,4c0,12.82-0.03,52.58-0.03,70.5c0,3.74,0,6.55,0,8" class="grey" /><path d="M61.86,54.44c1.17,0.29,2.57,0.48,4.9,0.04s17.88-4.04,19.5-4.43c2.36-0.56,3.86,0.69,3.19,3.21C86.61,64.03,78,82.75,65.5,93.25" class="grey" /><path d="M64.88,61.54c2.54,0.69,13.38,16.33,22.84,25.99c2.08,2.12,3.53,3.97,6.72,6.34" class="grey" /><path d="M16.81,25.55c1.09,0.55,3.4,0.59,4.57,0.48c5.06-0.51,13.83-1.57,19.12-2.06c1.56-0.14,3.51-0.51,5.03-0.05" class="stroke" stroke-dasharray="150"><animate attributeName="stroke-dashoffset" from="150" to="0" dur="1.8s" begin="0s" fill="freeze" /></path><path d="M31.18,11.5c0.66,0.66,1.1,1.88,1.1,3.14c0,12.11,0.1,20.32,0.1,23.36" class="stroke" stroke-dasharray="150"><set attributeName="opacity" to="0" dur="1.0s" /><animate attributeName="stroke-dashoffset" from="150" to="0" dur="1.8s" begin="1.0s" fill="freeze" /></path><path d="M9.88,41.36c2.12,0.39,4.35,0.39,6.25,0.05c10.12-1.79,21.31-3.27,28.87-4.06c1.96-0.2,3.95-0.44,5.88,0.1" class="stroke" stroke-dasharray="150"><set attributeName="opacity" to="0" dur="2.0s" /><animate attributeName="stroke-dashoffset" from="150" to="0" dur="1.8s" begin="2.0s" fill="freeze" /></path><path d="M20.26,46.08c1.81,1.44,4.69,5.9,5.14,8.13" class="stroke" stroke-dasharray="150"><set attributeName="opacity" to="0" dur="3.1s" /><animate attributeName="stroke-dashoffset" from="150" to="0" dur="1.8s" begin="3.1s" fill="freeze" /></path><path d="M44.05,41.39c0.06,0.91-0.06,1.8-0.36,2.67c-1.68,3.19-3.31,6.31-5.63,9.91" class="stroke" stroke-dasharray="150"><set attributeName="opacity" to="0" dur="4.0s" /><animate attributeName="stroke-dashoffset" from="150" to="0" dur="1.8s" begin="4.0s" fill="freeze" /></path><path d="M16.25,59.09c1.63,0.54,4.31,0.45,5.63,0.28c4.95-0.63,13.6-2.05,20.05-3.31c1.68-0.33,3.57-0.69,5.64-0.26" class="stroke" stroke-dasharray="150"><set attributeName="opacity" to="0" dur="4.9s" /><animate attributeName="stroke-dashoffset" from="150" to="0" dur="1.8s" begin="4.9s" fill="freeze" /></path><path d="M9.91,75.4c1.96,0.35,4.12,0.24,6.09-0.03c7.53-1.03,20.69-3.3,28.25-4.24c1.8-0.22,3.61-0.43,5.4,0.02" class="stroke" stroke-dasharray="150"><set attributeName="opacity" to="0" dur="5.9s" /><animate attributeName="stroke-dashoffset" from="150" to="0" dur="1.8s" begin="5.9s" fill="freeze" /></path><path d="M31.22,60.75c0.89,0.89,1.11,2.12,1.11,3.33c0,0.79,0.15,17.49,0.14,28.41c0,3.2-0.01,5.81-0.03,7.25" class="stroke" stroke-dasharray="150"><set attributeName="opacity" to="0" dur="7.0s" /><animate attributeName="stroke-dashoffset" from="150" to="0" dur="1.8s" begin="7.0s" fill="freeze" /></path><path d="M55.5,16c1.08,0.5,2.33,0.5,3.89,0.42c3.86-0.18,22.61-3.12,24.56-3.24c1.94-0.11,3.23,1.05,2.81,3.39c-0.75,4.17-2.48,12.44-5.47,17.28c-5.03,8.14-7.39,0.56-7.97,0.34" class="stroke" stroke-dasharray="150"><set attributeName="opacity" to="0" dur="8.0s" /><animate attributeName="stroke-dashoffset" from="150" to="0" dur="1.8s" begin="8.0s" fill="freeze" /></path><path d="M56.58,16.5c1.02,1.02,1.57,2.38,1.57,4c0,12.82-0.03,52.58-0.03,70.5c0,3.74,0,6.55,0,8" class="stroke" stroke-dasharray="150"><set attributeName="opacity" to="0" dur="9.5s" /><animate attributeName="stroke-dashoffset" from="150" to="0" dur="1.8s" begin="9.5s" fill="freeze" /></path><path d="M61.86,54.44c1.17,0.29,2.57,0.48,4.9,0.04s17.88-4.04,19.5-4.43c2.36-0.56,3.86,0.69,3.19,3.21C86.61,64.03,78,82.75,65.5,93.25" class="stroke" stroke-dasharray="150"><set attributeName="opacity" to="0" dur="11.2s" /><animate attributeName="stroke-dashoffset" from="150" to="0" dur="1.8s" begin="11.2s" fill="freeze" /></path><path d="M64.88,61.54c2.54,0.69,13.38,16.33,22.84,25.99c2.08,2.12,3.53,3.97,6.72,6.34" class="stroke" stroke-dasharray="150"><set attributeName="opacity" to="0" dur="12.899999999999999s" /><animate attributeName="stroke-dashoffset" from="150" to="0" dur="1.8s" begin="12.899999999999999s" fill="freeze" /></path><text x="90" y="120" id="reset">⟳</text><text x="70" y="120" id="pause">◼</text><script type="text/javascript"><![CDATA[function RecurringTimer(e,t){var n,r,i=t;this.pause=function(){window.clearTimeout(n);i-=new Date-r};var s=function(){r=new Date;n=window.setTimeout(function(){i=t;s();e()},i)};this.clear=function(){window.clearTimeout(n);i=t;n=window.setTimeout(function(){i=t;s();e()},i)};this.resume=s;this.resume()}function invoketimer(){timer=new RecurringTimer(function(){svg.setCurrentTime(0)},14999)}var svg=document.getElementById("kanjivg");var pause=document.getElementById("pause");var reset=document.getElementById("reset");var timer;invoketimer();reset.onclick=function(){svg.setCurrentTime(0);timer.clear();svg.unpauseAnimations();pause.innerHTML = "◼";};pause.onclick=function(){if(svg.animationsPaused()){svg.unpauseAnimations();timer.resume();pause.innerHTML="◼"}else{svg.pauseAnimations();timer.pause();pause.innerHTML="▶"}}]]></script></svg>