<svg id="kanjivg" width="106" height="126" xmlns="http://www.w3.org/2000/svg" xmlns:xlink="http://www.w3.org/1999/xlink" xml:space="preserve" version="1.1" baseProfile="full"><defs><style type="text/css"><![CDATA[path.black { fill:none;stroke:black;stroke-width:5;stroke-linecap:round;stroke-linejoin:round; }path.grey { fill:none;stroke:#ddd;stroke-width:5;stroke-linecap:round;stroke-linejoin:round; }path.stroke { fill:none;stroke:black;stroke-width:5;stroke-linecap:round;stroke-linejoin:round; }rect { fill:none;stroke:#555;stroke-width:2;} text{font-size:16px;font-family:Segoe UI Symbol,Cambria Math,DejaVu Sans,Symbola,Quivira,STIX,Code2000;-webkit-touch-callout:none;cursor:pointer;-webkit-user-select:none;-khtml-user-select:none;-moz-user-select:none;-ms-user-select:none;user-select: none;} #reset { font-weight:bold; }]]></style><marker id="markerStart" markerWidth="8" markerHeight="8" style="overflow:visible;"><circle cx="0" cy="0" r="1.5" style="stroke:none;fill:red;fill-opacity:0.5;"/></marker><marker id="markerEnd" style="overflow:visible;"><circle cx="0" cy="0" r="0.8" style="stroke:none;fill:blue;fill-opacity:0.5;"><animate attributeName="opacity" from="1" to="0" dur="3s" repeatCount="indefinite" /></circle></marker></defs><rect x="4" y="4" width="100" height="100" /><path d="M16.31,25.8c0.75,0.38,2.12,0.44,2.87,0.38c5.32-0.43,18.32-2.43,23.47-2.63c1.25-0.05,2,0.18,2.62,0.37" class="grey" /><path d="M31.18,11c0.09,0.29,1.35,1.52,1.35,3.39c0,12.11-0.15,21.32-0.15,24.36" class="grey" /><path d="M9.88,41.11c1.16,0.54,3.29,0.69,4.44,0.54C27,40,38.5,37.75,47.07,37.42c1.93-0.07,3.09,0.26,4.06,0.53" class="grey" /><path d="M20.26,45.83c1.81,1.44,4.69,5.9,5.14,8.13" class="grey" /><path d="M43.55,40.64c0.02,0.31,0.03,0.81-0.03,1.26c-0.38,2.66-2.52,8.49-5.47,12.06" class="grey" /><path d="M15.75,59.34c0.57,0.34,2.51,0.36,3.08,0.3c3.91-0.39,17.42-1.89,24.85-3.55c0.92-0.21,2.92-0.21,3.39-0.04" class="grey" /><path d="M10.16,75.4c1.1,0.46,3.11,0.58,4.2,0.46c7.53-0.85,22.29-4.35,30.95-4.66c1.83-0.06,2.92,0.22,3.84,0.45" class="grey" /><path d="M30.97,59.25c0.41,0.51,1.28,2.81,1.36,3.83C32.42,64.1,32.28,92.64,32.2,99" class="grey" /><path d="M57.83,18c0.03,0.14,0.05,1.58,0.07,4c0.09,15.39-0.09,70.1-0.28,75.5" class="grey" /><path d="M56.25,16c0.78,0.11,2.33,0.79,3.89,0.67c1.55-0.11,20.86-3.12,22.81-3.24c1.94-0.11,3.98,0.8,3.56,3.14c-0.75,4.17-2.48,12.44-5.47,17.28C76,42,73.64,34.42,73.06,34.2" class="grey" /><path d="M62.11,54.44c1.17,0.29,1.32,0.73,3.65,0.29S84.91,51,86.52,50.56s3.15,1.57,2.69,3.21C86.25,64.5,78,82.5,65.5,93" class="grey" /><path d="M64.88,61.04c2.85,0.78,16.78,21.63,26.7,30.17c1.55,1.33,2.67,2.22,4.11,2.66" class="grey" /><path d="M16.31,25.8c0.75,0.38,2.12,0.44,2.87,0.38c5.32-0.43,18.32-2.43,23.47-2.63c1.25-0.05,2,0.18,2.62,0.37" class="stroke" stroke-dasharray="150"><animate attributeName="stroke-dashoffset" from="150" to="0" dur="1.8s" begin="0s" fill="freeze" /></path><path d="M31.18,11c0.09,0.29,1.35,1.52,1.35,3.39c0,12.11-0.15,21.32-0.15,24.36" class="stroke" stroke-dasharray="150"><set attributeName="opacity" to="0" dur="1.0s" /><animate attributeName="stroke-dashoffset" from="150" to="0" dur="1.8s" begin="1.0s" fill="freeze" /></path><path d="M9.88,41.11c1.16,0.54,3.29,0.69,4.44,0.54C27,40,38.5,37.75,47.07,37.42c1.93-0.07,3.09,0.26,4.06,0.53" class="stroke" stroke-dasharray="150"><set attributeName="opacity" to="0" dur="2.0s" /><animate attributeName="stroke-dashoffset" from="150" to="0" dur="1.8s" begin="2.0s" fill="freeze" /></path><path d="M20.26,45.83c1.81,1.44,4.69,5.9,5.14,8.13" class="stroke" stroke-dasharray="150"><set attributeName="opacity" to="0" dur="3.1s" /><animate attributeName="stroke-dashoffset" from="150" to="0" dur="1.8s" begin="3.1s" fill="freeze" /></path><path d="M43.55,40.64c0.02,0.31,0.03,0.81-0.03,1.26c-0.38,2.66-2.52,8.49-5.47,12.06" class="stroke" stroke-dasharray="150"><set attributeName="opacity" to="0" dur="4.0s" /><animate attributeName="stroke-dashoffset" from="150" to="0" dur="1.8s" begin="4.0s" fill="freeze" /></path><path d="M15.75,59.34c0.57,0.34,2.51,0.36,3.08,0.3c3.91-0.39,17.42-1.89,24.85-3.55c0.92-0.21,2.92-0.21,3.39-0.04" class="stroke" stroke-dasharray="150"><set attributeName="opacity" to="0" dur="4.9s" /><animate attributeName="stroke-dashoffset" from="150" to="0" dur="1.8s" begin="4.9s" fill="freeze" /></path><path d="M10.16,75.4c1.1,0.46,3.11,0.58,4.2,0.46c7.53-0.85,22.29-4.35,30.95-4.66c1.83-0.06,2.92,0.22,3.84,0.45" class="stroke" stroke-dasharray="150"><set attributeName="opacity" to="0" dur="5.9s" /><animate attributeName="stroke-dashoffset" from="150" to="0" dur="1.8s" begin="5.9s" fill="freeze" /></path><path d="M30.97,59.25c0.41,0.51,1.28,2.81,1.36,3.83C32.42,64.1,32.28,92.64,32.2,99" class="stroke" stroke-dasharray="150"><set attributeName="opacity" to="0" dur="6.9s" /><animate attributeName="stroke-dashoffset" from="150" to="0" dur="1.8s" begin="6.9s" fill="freeze" /></path><path d="M57.83,18c0.03,0.14,0.05,1.58,0.07,4c0.09,15.39-0.09,70.1-0.28,75.5" class="stroke" stroke-dasharray="150"><set attributeName="opacity" to="0" dur="8.0s" /><animate attributeName="stroke-dashoffset" from="150" to="0" dur="1.8s" begin="8.0s" fill="freeze" /></path><path d="M56.25,16c0.78,0.11,2.33,0.79,3.89,0.67c1.55-0.11,20.86-3.12,22.81-3.24c1.94-0.11,3.98,0.8,3.56,3.14c-0.75,4.17-2.48,12.44-5.47,17.28C76,42,73.64,34.42,73.06,34.2" class="stroke" stroke-dasharray="150"><set attributeName="opacity" to="0" dur="9.7s" /><animate attributeName="stroke-dashoffset" from="150" to="0" dur="1.8s" begin="9.7s" fill="freeze" /></path><path d="M62.11,54.44c1.17,0.29,1.32,0.73,3.65,0.29S84.91,51,86.52,50.56s3.15,1.57,2.69,3.21C86.25,64.5,78,82.5,65.5,93" class="stroke" stroke-dasharray="150"><set attributeName="opacity" to="0" dur="11.2s" /><animate attributeName="stroke-dashoffset" from="150" to="0" dur="1.8s" begin="11.2s" fill="freeze" /></path><path d="M64.88,61.04c2.85,0.78,16.78,21.63,26.7,30.17c1.55,1.33,2.67,2.22,4.11,2.66" class="stroke" stroke-dasharray="150"><set attributeName="opacity" to="0" dur="12.899999999999999s" /><animate attributeName="stroke-dashoffset" from="150" to="0" dur="1.8s" begin="12.899999999999999s" fill="freeze" /></path><text x="90" y="120" id="reset">⟳</text><text x="70" y="120" id="pause">◼</text><script type="text/javascript"><![CDATA[function RecurringTimer(e,t){var n,r,i=t;this.pause=function(){window.clearTimeout(n);i-=new Date-r};var s=function(){r=new Date;n=window.setTimeout(function(){i=t;s();e()},i)};this.clear=function(){window.clearTimeout(n);i=t;n=window.setTimeout(function(){i=t;s();e()},i)};this.resume=s;this.resume()}function invoketimer(){timer=new RecurringTimer(function(){svg.setCurrentTime(0)},15099)}var svg=document.getElementById("kanjivg");var pause=document.getElementById("pause");var reset=document.getElementById("reset");var timer;invoketimer();reset.onclick=function(){svg.setCurrentTime(0);timer.clear();svg.unpauseAnimations();pause.innerHTML = "◼";};pause.onclick=function(){if(svg.animationsPaused()){svg.unpauseAnimations();timer.resume();pause.innerHTML="◼"}else{svg.pauseAnimations();timer.pause();pause.innerHTML="▶"}}]]></script></svg>