<svg id="kanjivg" width="106" height="126" xmlns="http://www.w3.org/2000/svg" xmlns:xlink="http://www.w3.org/1999/xlink" xml:space="preserve" version="1.1" baseProfile="full"><defs><style type="text/css"><![CDATA[path.black { fill:none;stroke:black;stroke-width:5;stroke-linecap:round;stroke-linejoin:round; }path.grey { fill:none;stroke:#ddd;stroke-width:5;stroke-linecap:round;stroke-linejoin:round; }path.stroke { fill:none;stroke:black;stroke-width:5;stroke-linecap:round;stroke-linejoin:round; }rect { fill:none;stroke:#555;stroke-width:2;} text{font-size:16px;font-family:Segoe UI Symbol,Cambria Math,DejaVu Sans,Symbola,Quivira,STIX,Code2000;-webkit-touch-callout:none;cursor:pointer;-webkit-user-select:none;-khtml-user-select:none;-moz-user-select:none;-ms-user-select:none;user-select: none;} #reset { font-weight:bold; }]]></style><marker id="markerStart" markerWidth="8" markerHeight="8" style="overflow:visible;"><circle cx="0" cy="0" r="1.5" style="stroke:none;fill:red;fill-opacity:0.5;"/></marker><marker id="markerEnd" style="overflow:visible;"><circle cx="0" cy="0" r="0.8" style="stroke:none;fill:blue;fill-opacity:0.5;"><animate attributeName="opacity" from="1" to="0" dur="3s" repeatCount="indefinite" /></circle></marker></defs><rect x="4" y="4" width="100" height="100" /><path d="M12.5,43.89c0.76,0.38,2.24,0.46,3,0.36c3.49-0.48,18-2.75,23-4c1.22-0.31,2.62-0.18,3.25,0.01" class="grey" /><path d="M25.37,18.25c1.09,0.5,1.96,2.23,1.96,3.25c0,7.25,0.03,38.75,0.03,49.5" class="grey" /><path d="M12.75,77.2c0.73,0.93,2.19,1.43,4.38,0.2c6.08-3.41,17.04-9.49,23.12-12.9" class="grey" /><path d="M45,18.75c0.24,0.34,0.49,0.63,0.6,1.06c0.84,3.41,2.85,12.81,3.43,18.94" class="grey" /><path d="M46.51,20.56c6.74-0.81,40.81-3.88,43.66-4.33c1.04-0.16,2.45,0.65,2.17,2.57c-0.58,4-2.01,10.86-3.56,16.57" class="grey" /><path d="M60.05,19.16c0.04,0.63,1.15,1.93,1.3,3.54c0.4,4.21,0.55,10.51,0.67,12.36" class="grey" /><path d="M75.93,18.24c0.49,1.11,0.86,2.09,0.76,3.47c-0.31,4.4-1.82,10.41-2.07,12.15" class="grey" /><path d="M49.79,36.89c3.34-0.51,34.78-3.65,39.37-4.43" class="grey" /><path d="M47.24,48.54c0.86,0.24,2.44,0.27,3.3,0.24c8.63-0.35,27.62-3.11,39.71-3.24c1.43-0.02,2.29,0.11,3.01,0.23" class="grey" /><path d="M70.56,67.85c0.39,0.12,1.1,0.18,1.49,0.12c1.57-0.24,10.47-1.37,17.89-1.4c0.65,0,1.03,0.06,1.36,0.12" class="grey" /><path d="M68.26,48.34c0.07,0.31,0.9,1.61,0.97,3.57c0.31,9.4-0.2,34.02-0.2,37.23" class="grey" /><path d="M46.27,61.75c0.1,0.24,1.43,1.26,1.53,2.8c0.49,7.38-0.06,18.95-0.06,25.2c0,2,0.5,2.87,2.5,2.87c4.52,0,27.75-3.12,43.07-3.66c1.85-0.07,3.47,0.48,4.43,0.96" class="grey" /><path d="M12.5,43.89c0.76,0.38,2.24,0.46,3,0.36c3.49-0.48,18-2.75,23-4c1.22-0.31,2.62-0.18,3.25,0.01" class="stroke" stroke-dasharray="150"><animate attributeName="stroke-dashoffset" from="150" to="0" dur="1.8s" begin="0s" fill="freeze" /></path><path d="M25.37,18.25c1.09,0.5,1.96,2.23,1.96,3.25c0,7.25,0.03,38.75,0.03,49.5" class="stroke" stroke-dasharray="150"><set attributeName="opacity" to="0" dur="1.0s" /><animate attributeName="stroke-dashoffset" from="150" to="0" dur="1.8s" begin="1.0s" fill="freeze" /></path><path d="M12.75,77.2c0.73,0.93,2.19,1.43,4.38,0.2c6.08-3.41,17.04-9.49,23.12-12.9" class="stroke" stroke-dasharray="150"><set attributeName="opacity" to="0" dur="2.3s" /><animate attributeName="stroke-dashoffset" from="150" to="0" dur="1.8s" begin="2.3s" fill="freeze" /></path><path d="M45,18.75c0.24,0.34,0.49,0.63,0.6,1.06c0.84,3.41,2.85,12.81,3.43,18.94" class="stroke" stroke-dasharray="150"><set attributeName="opacity" to="0" dur="3.3s" /><animate attributeName="stroke-dashoffset" from="150" to="0" dur="1.8s" begin="3.3s" fill="freeze" /></path><path d="M46.51,20.56c6.74-0.81,40.81-3.88,43.66-4.33c1.04-0.16,2.45,0.65,2.17,2.57c-0.58,4-2.01,10.86-3.56,16.57" class="stroke" stroke-dasharray="150"><set attributeName="opacity" to="0" dur="4.3s" /><animate attributeName="stroke-dashoffset" from="150" to="0" dur="1.8s" begin="4.3s" fill="freeze" /></path><path d="M60.05,19.16c0.04,0.63,1.15,1.93,1.3,3.54c0.4,4.21,0.55,10.51,0.67,12.36" class="stroke" stroke-dasharray="150"><set attributeName="opacity" to="0" dur="5.8s" /><animate attributeName="stroke-dashoffset" from="150" to="0" dur="1.8s" begin="5.8s" fill="freeze" /></path><path d="M75.93,18.24c0.49,1.11,0.86,2.09,0.76,3.47c-0.31,4.4-1.82,10.41-2.07,12.15" class="stroke" stroke-dasharray="150"><set attributeName="opacity" to="0" dur="6.7s" /><animate attributeName="stroke-dashoffset" from="150" to="0" dur="1.8s" begin="6.7s" fill="freeze" /></path><path d="M49.79,36.89c3.34-0.51,34.78-3.65,39.37-4.43" class="stroke" stroke-dasharray="150"><set attributeName="opacity" to="0" dur="7.6000000000000005s" /><animate attributeName="stroke-dashoffset" from="150" to="0" dur="1.8s" begin="7.6000000000000005s" fill="freeze" /></path><path d="M47.24,48.54c0.86,0.24,2.44,0.27,3.3,0.24c8.63-0.35,27.62-3.11,39.71-3.24c1.43-0.02,2.29,0.11,3.01,0.23" class="stroke" stroke-dasharray="150"><set attributeName="opacity" to="0" dur="8.600000000000001s" /><animate attributeName="stroke-dashoffset" from="150" to="0" dur="1.8s" begin="8.600000000000001s" fill="freeze" /></path><path d="M70.56,67.85c0.39,0.12,1.1,0.18,1.49,0.12c1.57-0.24,10.47-1.37,17.89-1.4c0.65,0,1.03,0.06,1.36,0.12" class="stroke" stroke-dasharray="150"><set attributeName="opacity" to="0" dur="9.8s" /><animate attributeName="stroke-dashoffset" from="150" to="0" dur="1.8s" begin="9.8s" fill="freeze" /></path><path d="M68.26,48.34c0.07,0.31,0.9,1.61,0.97,3.57c0.31,9.4-0.2,34.02-0.2,37.23" class="stroke" stroke-dasharray="150"><set attributeName="opacity" to="0" dur="10.8s" /><animate attributeName="stroke-dashoffset" from="150" to="0" dur="1.8s" begin="10.8s" fill="freeze" /></path><path d="M46.27,61.75c0.1,0.24,1.43,1.26,1.53,2.8c0.49,7.38-0.06,18.95-0.06,25.2c0,2,0.5,2.87,2.5,2.87c4.52,0,27.75-3.12,43.07-3.66c1.85-0.07,3.47,0.48,4.43,0.96" class="stroke" stroke-dasharray="150"><set attributeName="opacity" to="0" dur="11.9s" /><animate attributeName="stroke-dashoffset" from="150" to="0" dur="1.8s" begin="11.9s" fill="freeze" /></path><text x="90" y="120" id="reset">⟳</text><text x="70" y="120" id="pause">◼</text><script type="text/javascript"><![CDATA[function RecurringTimer(e,t){var n,r,i=t;this.pause=function(){window.clearTimeout(n);i-=new Date-r};var s=function(){r=new Date;n=window.setTimeout(function(){i=t;s();e()},i)};this.clear=function(){window.clearTimeout(n);i=t;n=window.setTimeout(function(){i=t;s();e()},i)};this.resume=s;this.resume()}function invoketimer(){timer=new RecurringTimer(function(){svg.setCurrentTime(0)},14600)}var svg=document.getElementById("kanjivg");var pause=document.getElementById("pause");var reset=document.getElementById("reset");var timer;invoketimer();reset.onclick=function(){svg.setCurrentTime(0);timer.clear();svg.unpauseAnimations();pause.innerHTML = "◼";};pause.onclick=function(){if(svg.animationsPaused()){svg.unpauseAnimations();timer.resume();pause.innerHTML="◼"}else{svg.pauseAnimations();timer.pause();pause.innerHTML="▶"}}]]></script></svg>