<svg id="kanjivg" width="106" height="126" xmlns="http://www.w3.org/2000/svg" xmlns:xlink="http://www.w3.org/1999/xlink" xml:space="preserve" version="1.1" baseProfile="full"><defs><style type="text/css"><![CDATA[path.black { fill:none;stroke:black;stroke-width:5;stroke-linecap:round;stroke-linejoin:round; }path.grey { fill:none;stroke:#ddd;stroke-width:5;stroke-linecap:round;stroke-linejoin:round; }path.stroke { fill:none;stroke:black;stroke-width:5;stroke-linecap:round;stroke-linejoin:round; }rect { fill:none;stroke:#555;stroke-width:2;} text{font-size:16px;font-family:Segoe UI Symbol,Cambria Math,DejaVu Sans,Symbola,Quivira,STIX,Code2000;-webkit-touch-callout:none;cursor:pointer;-webkit-user-select:none;-khtml-user-select:none;-moz-user-select:none;-ms-user-select:none;user-select: none;} #reset { font-weight:bold; }]]></style><marker id="markerStart" markerWidth="8" markerHeight="8" style="overflow:visible;"><circle cx="0" cy="0" r="1.5" style="stroke:none;fill:red;fill-opacity:0.5;"/></marker><marker id="markerEnd" style="overflow:visible;"><circle cx="0" cy="0" r="0.8" style="stroke:none;fill:blue;fill-opacity:0.5;"><animate attributeName="opacity" from="1" to="0" dur="3s" repeatCount="indefinite" /></circle></marker></defs><rect x="4" y="4" width="100" height="100" /><path d="M11.25,42.39c0.76,0.38,2.24,0.46,3,0.36c4.82-0.66,18.15-3.39,23.5-4c1.25-0.14,2.62-0.18,3.25,0.01" class="grey" /><path d="M25.37,16.25c1.09,0.5,1.74,2.25,1.96,3.25c0.22,1,0,43.25-0.22,49.5" class="grey" /><path d="M12.5,75.54c0.75,0.96,2.25,1.46,4.5,0.21c6.25-3.5,12.75-6.75,19-10.25" class="grey" /><path d="M44.13,19.28c1.11,0.47,3.14,0.55,4.25,0.47c11.52-0.79,29.75-3.7,42.38-3.7c1.84,0,2.95,0.23,3.88,0.46" class="grey" /><path d="M58.99,28.54c0.22,0.32,0.22,0.54,0.34,0.95c0.99,3.33,1.91,11.75,2.52,17.97" class="grey" /><path d="M60.02,28.99c7.64-0.84,20.73-2.26,26.43-2.97c2.1-0.26,3.17,0.66,3.06,1.57c-0.39,3.36-1.37,12.51-2.33,18.12" class="grey" /><path d="M61.44,37.61c4.44-0.58,8.91-1.02,13.36-1.5c1.51-0.16,3.01-0.33,4.44-0.48" class="grey" /><path d="M62.26,46.55c5.5-0.36,17.33-1.85,24.92-2.44" class="grey" /><path d="M71.76,49.37c0.28,0.71,0.08,1.61-0.14,2.5c-1.08,4.34-6.35,14.32-9.81,19.31c-0.75,1.08-0.16,1.3,0.42,1.31C70.26,72.6,83.25,77,88.57,85.03" class="grey" /><path d="M82.49,56.8c0.07,0.7,0.12,2.41-0.15,3.43c-2.21,8.23-8.58,19.9-24.36,26.02" class="grey" /><path d="M52.96,61.48c1.18,0.27,2.43,0.46,2.99,0.41c11.9-0.86,26.77-3.4,38.13-3.52c0.94-0.01,2.56,0.17,3.32,0.47" class="grey" /><path d="M48.25,21c0,4,0,65,0,68.75c0,3.5,0.7,3.63,1.94,3.5c7.07-0.75,39.35-2.75,41.65-2.75c2.3,0,4.24,0.25,5.66,0.75" class="grey" /><path d="M11.25,42.39c0.76,0.38,2.24,0.46,3,0.36c4.82-0.66,18.15-3.39,23.5-4c1.25-0.14,2.62-0.18,3.25,0.01" class="stroke" stroke-dasharray="150"><animate attributeName="stroke-dashoffset" from="150" to="0" dur="1.8s" begin="0s" fill="freeze" /></path><path d="M25.37,16.25c1.09,0.5,1.74,2.25,1.96,3.25c0.22,1,0,43.25-0.22,49.5" class="stroke" stroke-dasharray="150"><set attributeName="opacity" to="0" dur="1.0s" /><animate attributeName="stroke-dashoffset" from="150" to="0" dur="1.8s" begin="1.0s" fill="freeze" /></path><path d="M12.5,75.54c0.75,0.96,2.25,1.46,4.5,0.21c6.25-3.5,12.75-6.75,19-10.25" class="stroke" stroke-dasharray="150"><set attributeName="opacity" to="0" dur="2.3s" /><animate attributeName="stroke-dashoffset" from="150" to="0" dur="1.8s" begin="2.3s" fill="freeze" /></path><path d="M44.13,19.28c1.11,0.47,3.14,0.55,4.25,0.47c11.52-0.79,29.75-3.7,42.38-3.7c1.84,0,2.95,0.23,3.88,0.46" class="stroke" stroke-dasharray="150"><set attributeName="opacity" to="0" dur="3.3s" /><animate attributeName="stroke-dashoffset" from="150" to="0" dur="1.8s" begin="3.3s" fill="freeze" /></path><path d="M58.99,28.54c0.22,0.32,0.22,0.54,0.34,0.95c0.99,3.33,1.91,11.75,2.52,17.97" class="stroke" stroke-dasharray="150"><set attributeName="opacity" to="0" dur="4.6s" /><animate attributeName="stroke-dashoffset" from="150" to="0" dur="1.8s" begin="4.6s" fill="freeze" /></path><path d="M60.02,28.99c7.64-0.84,20.73-2.26,26.43-2.97c2.1-0.26,3.17,0.66,3.06,1.57c-0.39,3.36-1.37,12.51-2.33,18.12" class="stroke" stroke-dasharray="150"><set attributeName="opacity" to="0" dur="5.5s" /><animate attributeName="stroke-dashoffset" from="150" to="0" dur="1.8s" begin="5.5s" fill="freeze" /></path><path d="M61.44,37.61c4.44-0.58,8.91-1.02,13.36-1.5c1.51-0.16,3.01-0.33,4.44-0.48" class="stroke" stroke-dasharray="150"><set attributeName="opacity" to="0" dur="6.7s" /><animate attributeName="stroke-dashoffset" from="150" to="0" dur="1.8s" begin="6.7s" fill="freeze" /></path><path d="M62.26,46.55c5.5-0.36,17.33-1.85,24.92-2.44" class="stroke" stroke-dasharray="150"><set attributeName="opacity" to="0" dur="7.6000000000000005s" /><animate attributeName="stroke-dashoffset" from="150" to="0" dur="1.8s" begin="7.6000000000000005s" fill="freeze" /></path><path d="M71.76,49.37c0.28,0.71,0.08,1.61-0.14,2.5c-1.08,4.34-6.35,14.32-9.81,19.31c-0.75,1.08-0.16,1.3,0.42,1.31C70.26,72.6,83.25,77,88.57,85.03" class="stroke" stroke-dasharray="150"><set attributeName="opacity" to="0" dur="8.600000000000001s" /><animate attributeName="stroke-dashoffset" from="150" to="0" dur="1.8s" begin="8.600000000000001s" fill="freeze" /></path><path d="M82.49,56.8c0.07,0.7,0.12,2.41-0.15,3.43c-2.21,8.23-8.58,19.9-24.36,26.02" class="stroke" stroke-dasharray="150"><set attributeName="opacity" to="0" dur="10.000000000000002s" /><animate attributeName="stroke-dashoffset" from="150" to="0" dur="1.8s" begin="10.000000000000002s" fill="freeze" /></path><path d="M52.96,61.48c1.18,0.27,2.43,0.46,2.99,0.41c11.9-0.86,26.77-3.4,38.13-3.52c0.94-0.01,2.56,0.17,3.32,0.47" class="stroke" stroke-dasharray="150"><set attributeName="opacity" to="0" dur="11.100000000000001s" /><animate attributeName="stroke-dashoffset" from="150" to="0" dur="1.8s" begin="11.100000000000001s" fill="freeze" /></path><path d="M48.25,21c0,4,0,65,0,68.75c0,3.5,0.7,3.63,1.94,3.5c7.07-0.75,39.35-2.75,41.65-2.75c2.3,0,4.24,0.25,5.66,0.75" class="stroke" stroke-dasharray="150"><set attributeName="opacity" to="0" dur="12.200000000000001s" /><animate attributeName="stroke-dashoffset" from="150" to="0" dur="1.8s" begin="12.200000000000001s" fill="freeze" /></path><text x="90" y="120" id="reset">⟳</text><text x="70" y="120" id="pause">◼</text><script type="text/javascript"><![CDATA[function RecurringTimer(e,t){var n,r,i=t;this.pause=function(){window.clearTimeout(n);i-=new Date-r};var s=function(){r=new Date;n=window.setTimeout(function(){i=t;s();e()},i)};this.clear=function(){window.clearTimeout(n);i=t;n=window.setTimeout(function(){i=t;s();e()},i)};this.resume=s;this.resume()}function invoketimer(){timer=new RecurringTimer(function(){svg.setCurrentTime(0)},15200)}var svg=document.getElementById("kanjivg");var pause=document.getElementById("pause");var reset=document.getElementById("reset");var timer;invoketimer();reset.onclick=function(){svg.setCurrentTime(0);timer.clear();svg.unpauseAnimations();pause.innerHTML = "◼";};pause.onclick=function(){if(svg.animationsPaused()){svg.unpauseAnimations();timer.resume();pause.innerHTML="◼"}else{svg.pauseAnimations();timer.pause();pause.innerHTML="▶"}}]]></script></svg>