<svg id="kanjivg" width="106" height="126" xmlns="http://www.w3.org/2000/svg" xmlns:xlink="http://www.w3.org/1999/xlink" xml:space="preserve" version="1.1" baseProfile="full"><defs><style type="text/css"><![CDATA[path.black { fill:none;stroke:black;stroke-width:5;stroke-linecap:round;stroke-linejoin:round; }path.grey { fill:none;stroke:#ddd;stroke-width:5;stroke-linecap:round;stroke-linejoin:round; }path.stroke { fill:none;stroke:black;stroke-width:5;stroke-linecap:round;stroke-linejoin:round; }rect { fill:none;stroke:#555;stroke-width:2;} text{font-size:16px;font-family:Segoe UI Symbol,Cambria Math,DejaVu Sans,Symbola,Quivira,STIX,Code2000;-webkit-touch-callout:none;cursor:pointer;-webkit-user-select:none;-khtml-user-select:none;-moz-user-select:none;-ms-user-select:none;user-select: none;} #reset { font-weight:bold; }]]></style><marker id="markerStart" markerWidth="8" markerHeight="8" style="overflow:visible;"><circle cx="0" cy="0" r="1.5" style="stroke:none;fill:red;fill-opacity:0.5;"/></marker><marker id="markerEnd" style="overflow:visible;"><circle cx="0" cy="0" r="0.8" style="stroke:none;fill:blue;fill-opacity:0.5;"><animate attributeName="opacity" from="1" to="0" dur="3s" repeatCount="indefinite" /></circle></marker></defs><rect x="4" y="4" width="100" height="100" /><path d="M11.75,43.39c0.76,0.38,2.24,0.4,3,0.36c5.5-0.25,16.15-1.89,21.5-2.5c1.25-0.14,2.62-0.18,3.25,0.01" class="grey" /><path d="M25.37,14.75c1.09,0.5,1.74,2.25,1.96,3.25c0.22,1,0,48.75-0.22,55" class="grey" /><path d="M13,79.68c0.82,1.32,2.47,2.03,4.93,0.29c6.85-4.85,13.97-9.36,20.82-14.21" class="grey" /><path d="M49.71,30.83c0.62,0.14,1.75,0.16,2.38,0.14c7.05-0.22,20.08-1.28,27.03-1.38c1.04-0.01,1.66,0.07,2.17,0.13" class="grey" /><path d="M65.8,13.37c0.09,0.28,1.24,1.48,1.33,3.27c0.42,8.63,0.23,27.85,0.23,30.79" class="grey" /><path d="M42.5,49.57c1.31,0.45,3.33,0.84,4.52,0.67c6.56-0.94,39.87-4.25,47.49-4.46c1.96-0.05,3.14,0.32,4.12,0.65" class="grey" /><path d="M89.69,23.82c0.14,1.22,0.26,2.95-0.78,4.39C75.48,46.74,62.31,59.97,37.8,77.1" class="grey" /><path d="M75.5,52c2.05,1.23,5.3,5.05,5.81,6.97" class="grey" /><path d="M60.42,61.66c0.34,0.86,0.68,1.29,0.68,2.44c0,1.15-0.23,31.6-0.23,32.18" class="grey" /><path d="M61.17,64.3c1.92-0.14,22.85-1.99,24.6-2.16c1.46-0.14,2.4,1.59,2.29,2.44c-0.23,1.72-0.34,17.32-0.34,29.97" class="grey" /><path d="M61.5,77.86c4.34,0,8.7-0.34,13.03-0.54c1.47-0.07,2.94-0.13,4.35-0.2" class="grey" /><path d="M60.89,93.27C67.25,93,79,92.5,87.8,91.97" class="grey" /><path d="M11.75,43.39c0.76,0.38,2.24,0.4,3,0.36c5.5-0.25,16.15-1.89,21.5-2.5c1.25-0.14,2.62-0.18,3.25,0.01" class="stroke" stroke-dasharray="150"><animate attributeName="stroke-dashoffset" from="150" to="0" dur="1.8s" begin="0s" fill="freeze" /></path><path d="M25.37,14.75c1.09,0.5,1.74,2.25,1.96,3.25c0.22,1,0,48.75-0.22,55" class="stroke" stroke-dasharray="150"><set attributeName="opacity" to="0" dur="1.0s" /><animate attributeName="stroke-dashoffset" from="150" to="0" dur="1.8s" begin="1.0s" fill="freeze" /></path><path d="M13,79.68c0.82,1.32,2.47,2.03,4.93,0.29c6.85-4.85,13.97-9.36,20.82-14.21" class="stroke" stroke-dasharray="150"><set attributeName="opacity" to="0" dur="2.4s" /><animate attributeName="stroke-dashoffset" from="150" to="0" dur="1.8s" begin="2.4s" fill="freeze" /></path><path d="M49.71,30.83c0.62,0.14,1.75,0.16,2.38,0.14c7.05-0.22,20.08-1.28,27.03-1.38c1.04-0.01,1.66,0.07,2.17,0.13" class="stroke" stroke-dasharray="150"><set attributeName="opacity" to="0" dur="3.4s" /><animate attributeName="stroke-dashoffset" from="150" to="0" dur="1.8s" begin="3.4s" fill="freeze" /></path><path d="M65.8,13.37c0.09,0.28,1.24,1.48,1.33,3.27c0.42,8.63,0.23,27.85,0.23,30.79" class="stroke" stroke-dasharray="150"><set attributeName="opacity" to="0" dur="4.4s" /><animate attributeName="stroke-dashoffset" from="150" to="0" dur="1.8s" begin="4.4s" fill="freeze" /></path><path d="M42.5,49.57c1.31,0.45,3.33,0.84,4.52,0.67c6.56-0.94,39.87-4.25,47.49-4.46c1.96-0.05,3.14,0.32,4.12,0.65" class="stroke" stroke-dasharray="150"><set attributeName="opacity" to="0" dur="5.4s" /><animate attributeName="stroke-dashoffset" from="150" to="0" dur="1.8s" begin="5.4s" fill="freeze" /></path><path d="M89.69,23.82c0.14,1.22,0.26,2.95-0.78,4.39C75.48,46.74,62.31,59.97,37.8,77.1" class="stroke" stroke-dasharray="150"><set attributeName="opacity" to="0" dur="6.800000000000001s" /><animate attributeName="stroke-dashoffset" from="150" to="0" dur="1.8s" begin="6.800000000000001s" fill="freeze" /></path><path d="M75.5,52c2.05,1.23,5.3,5.05,5.81,6.97" class="stroke" stroke-dasharray="150"><set attributeName="opacity" to="0" dur="8.5s" /><animate attributeName="stroke-dashoffset" from="150" to="0" dur="1.8s" begin="8.5s" fill="freeze" /></path><path d="M60.42,61.66c0.34,0.86,0.68,1.29,0.68,2.44c0,1.15-0.23,31.6-0.23,32.18" class="stroke" stroke-dasharray="150"><set attributeName="opacity" to="0" dur="9.4s" /><animate attributeName="stroke-dashoffset" from="150" to="0" dur="1.8s" begin="9.4s" fill="freeze" /></path><path d="M61.17,64.3c1.92-0.14,22.85-1.99,24.6-2.16c1.46-0.14,2.4,1.59,2.29,2.44c-0.23,1.72-0.34,17.32-0.34,29.97" class="stroke" stroke-dasharray="150"><set attributeName="opacity" to="0" dur="10.4s" /><animate attributeName="stroke-dashoffset" from="150" to="0" dur="1.8s" begin="10.4s" fill="freeze" /></path><path d="M61.5,77.86c4.34,0,8.7-0.34,13.03-0.54c1.47-0.07,2.94-0.13,4.35-0.2" class="stroke" stroke-dasharray="150"><set attributeName="opacity" to="0" dur="11.8s" /><animate attributeName="stroke-dashoffset" from="150" to="0" dur="1.8s" begin="11.8s" fill="freeze" /></path><path d="M60.89,93.27C67.25,93,79,92.5,87.8,91.97" class="stroke" stroke-dasharray="150"><set attributeName="opacity" to="0" dur="12.700000000000001s" /><animate attributeName="stroke-dashoffset" from="150" to="0" dur="1.8s" begin="12.700000000000001s" fill="freeze" /></path><text x="90" y="120" id="reset">⟳</text><text x="70" y="120" id="pause">◼</text><script type="text/javascript"><![CDATA[function RecurringTimer(e,t){var n,r,i=t;this.pause=function(){window.clearTimeout(n);i-=new Date-r};var s=function(){r=new Date;n=window.setTimeout(function(){i=t;s();e()},i)};this.clear=function(){window.clearTimeout(n);i=t;n=window.setTimeout(function(){i=t;s();e()},i)};this.resume=s;this.resume()}function invoketimer(){timer=new RecurringTimer(function(){svg.setCurrentTime(0)},14700)}var svg=document.getElementById("kanjivg");var pause=document.getElementById("pause");var reset=document.getElementById("reset");var timer;invoketimer();reset.onclick=function(){svg.setCurrentTime(0);timer.clear();svg.unpauseAnimations();pause.innerHTML = "◼";};pause.onclick=function(){if(svg.animationsPaused()){svg.unpauseAnimations();timer.resume();pause.innerHTML="◼"}else{svg.pauseAnimations();timer.pause();pause.innerHTML="▶"}}]]></script></svg>