<svg id="kanjivg" width="106" height="126" xmlns="http://www.w3.org/2000/svg" xmlns:xlink="http://www.w3.org/1999/xlink" xml:space="preserve" version="1.1" baseProfile="full"><defs><style type="text/css"><![CDATA[path.black { fill:none;stroke:black;stroke-width:5;stroke-linecap:round;stroke-linejoin:round; }path.grey { fill:none;stroke:#ddd;stroke-width:5;stroke-linecap:round;stroke-linejoin:round; }path.stroke { fill:none;stroke:black;stroke-width:5;stroke-linecap:round;stroke-linejoin:round; }rect { fill:none;stroke:#555;stroke-width:2;} text{font-size:16px;font-family:Segoe UI Symbol,Cambria Math,DejaVu Sans,Symbola,Quivira,STIX,Code2000;-webkit-touch-callout:none;cursor:pointer;-webkit-user-select:none;-khtml-user-select:none;-moz-user-select:none;-ms-user-select:none;user-select: none;} #reset { font-weight:bold; }]]></style><marker id="markerStart" markerWidth="8" markerHeight="8" style="overflow:visible;"><circle cx="0" cy="0" r="1.5" style="stroke:none;fill:red;fill-opacity:0.5;"/></marker><marker id="markerEnd" style="overflow:visible;"><circle cx="0" cy="0" r="0.8" style="stroke:none;fill:blue;fill-opacity:0.5;"><animate attributeName="opacity" from="1" to="0" dur="3s" repeatCount="indefinite" /></circle></marker></defs><rect x="4" y="4" width="100" height="100" /><path d="M12.75,42.14c1.98,0.51,3.94,0.48,5.9-0.1c4.94-0.85,12.43-2.09,17.22-2.79c1.69-0.31,3.5-0.5,5.13-0.49" class="grey" /><path d="M26.12,15.75c1,1,1.22,2.73,1.21,3.75C27.25,30.75,27,56.12,27.11,69" class="grey" /><path d="M12.5,75.29c2.05,1.06,3.44,0.79,5.44-0.32c5.96-3.3,12.13-6.15,18.06-9.48" class="grey" /><path d="M43.63,19.03c2.7,0.57,5.38,0.5,8.12,0.17c10.88-1.32,21.13-2.57,34.63-3.53c2.69-0.19,5.36-0.41,8.01,0.1" class="grey" /><path d="M58.25,27.62c0.7,0.85,1.11,1.8,1.22,2.85c0.65,3.65,1.43,7.79,2.04,12.17c0.24,1.7,0.44,3.4,0.61,5.06" class="grey" /><path d="M60.02,28.99c7.09-0.78,18.89-1.81,25.1-2.56c2.52-0.3,4.51,0.34,4.2,3.07c-0.33,2.92-0.98,7.79-1.62,12.1c-0.26,1.77-0.53,3.45-0.77,4.86" class="grey" /><path d="M61.44,37c2.49-0.19,24.34-1.82,26.4-1.9" class="grey" /><path d="M63.01,46.55c5.5-0.36,15.58-1.6,23.17-2.19" class="grey" /><path d="M71.51,49.12c0.12,1.21-0.02,2.37-0.43,3.49c-1.39,4.23-5.54,11.85-8.71,16.72c-1.06,1.64-1.77,2.78,0.62,2.95c5.9,0.42,14.08,3.07,20.04,7.42c2.24,1.63,4.16,3.5,5.54,5.58" class="grey" /><path d="M82.25,57.05c0.07,0.7,0.12,2.41-0.15,3.43C79.9,68.71,73.78,79.12,58,85.25" class="grey" /><path d="M53.71,60.98c2.43,0.29,4.86,0.32,7.29,0.1c10.35-0.66,19.22-1.28,30.11-2.4c1.95-0.2,4.39-0.31,6.55-0.08" class="grey" /><path d="M47,20.25c0.75,0.88,1.25,2.38,1.25,4c0,13.58,0,53.49,0,63.38c0,4.24,1.01,5.58,5.49,5.16C64.75,91.75,77.5,91,89.13,90.87c2.82-0.03,5.6-0.06,8.37,0.63" class="grey" /><path d="M12.75,42.14c1.98,0.51,3.94,0.48,5.9-0.1c4.94-0.85,12.43-2.09,17.22-2.79c1.69-0.31,3.5-0.5,5.13-0.49" class="stroke" stroke-dasharray="150"><animate attributeName="stroke-dashoffset" from="150" to="0" dur="1.8s" begin="0s" fill="freeze" /></path><path d="M26.12,15.75c1,1,1.22,2.73,1.21,3.75C27.25,30.75,27,56.12,27.11,69" class="stroke" stroke-dasharray="150"><set attributeName="opacity" to="0" dur="1.0s" /><animate attributeName="stroke-dashoffset" from="150" to="0" dur="1.8s" begin="1.0s" fill="freeze" /></path><path d="M12.5,75.29c2.05,1.06,3.44,0.79,5.44-0.32c5.96-3.3,12.13-6.15,18.06-9.48" class="stroke" stroke-dasharray="150"><set attributeName="opacity" to="0" dur="2.3s" /><animate attributeName="stroke-dashoffset" from="150" to="0" dur="1.8s" begin="2.3s" fill="freeze" /></path><path d="M43.63,19.03c2.7,0.57,5.38,0.5,8.12,0.17c10.88-1.32,21.13-2.57,34.63-3.53c2.69-0.19,5.36-0.41,8.01,0.1" class="stroke" stroke-dasharray="150"><set attributeName="opacity" to="0" dur="3.3s" /><animate attributeName="stroke-dashoffset" from="150" to="0" dur="1.8s" begin="3.3s" fill="freeze" /></path><path d="M58.25,27.62c0.7,0.85,1.11,1.8,1.22,2.85c0.65,3.65,1.43,7.79,2.04,12.17c0.24,1.7,0.44,3.4,0.61,5.06" class="stroke" stroke-dasharray="150"><set attributeName="opacity" to="0" dur="4.6s" /><animate attributeName="stroke-dashoffset" from="150" to="0" dur="1.8s" begin="4.6s" fill="freeze" /></path><path d="M60.02,28.99c7.09-0.78,18.89-1.81,25.1-2.56c2.52-0.3,4.51,0.34,4.2,3.07c-0.33,2.92-0.98,7.79-1.62,12.1c-0.26,1.77-0.53,3.45-0.77,4.86" class="stroke" stroke-dasharray="150"><set attributeName="opacity" to="0" dur="5.6s" /><animate attributeName="stroke-dashoffset" from="150" to="0" dur="1.8s" begin="5.6s" fill="freeze" /></path><path d="M61.44,37c2.49-0.19,24.34-1.82,26.4-1.9" class="stroke" stroke-dasharray="150"><set attributeName="opacity" to="0" dur="6.8s" /><animate attributeName="stroke-dashoffset" from="150" to="0" dur="1.8s" begin="6.8s" fill="freeze" /></path><path d="M63.01,46.55c5.5-0.36,15.58-1.6,23.17-2.19" class="stroke" stroke-dasharray="150"><set attributeName="opacity" to="0" dur="7.8s" /><animate attributeName="stroke-dashoffset" from="150" to="0" dur="1.8s" begin="7.8s" fill="freeze" /></path><path d="M71.51,49.12c0.12,1.21-0.02,2.37-0.43,3.49c-1.39,4.23-5.54,11.85-8.71,16.72c-1.06,1.64-1.77,2.78,0.62,2.95c5.9,0.42,14.08,3.07,20.04,7.42c2.24,1.63,4.16,3.5,5.54,5.58" class="stroke" stroke-dasharray="150"><set attributeName="opacity" to="0" dur="8.8s" /><animate attributeName="stroke-dashoffset" from="150" to="0" dur="1.8s" begin="8.8s" fill="freeze" /></path><path d="M82.25,57.05c0.07,0.7,0.12,2.41-0.15,3.43C79.9,68.71,73.78,79.12,58,85.25" class="stroke" stroke-dasharray="150"><set attributeName="opacity" to="0" dur="10.200000000000001s" /><animate attributeName="stroke-dashoffset" from="150" to="0" dur="1.8s" begin="10.200000000000001s" fill="freeze" /></path><path d="M53.71,60.98c2.43,0.29,4.86,0.32,7.29,0.1c10.35-0.66,19.22-1.28,30.11-2.4c1.95-0.2,4.39-0.31,6.55-0.08" class="stroke" stroke-dasharray="150"><set attributeName="opacity" to="0" dur="11.200000000000001s" /><animate attributeName="stroke-dashoffset" from="150" to="0" dur="1.8s" begin="11.200000000000001s" fill="freeze" /></path><path d="M47,20.25c0.75,0.88,1.25,2.38,1.25,4c0,13.58,0,53.49,0,63.38c0,4.24,1.01,5.58,5.49,5.16C64.75,91.75,77.5,91,89.13,90.87c2.82-0.03,5.6-0.06,8.37,0.63" class="stroke" stroke-dasharray="150"><set attributeName="opacity" to="0" dur="12.3s" /><animate attributeName="stroke-dashoffset" from="150" to="0" dur="1.8s" begin="12.3s" fill="freeze" /></path><text x="90" y="120" id="reset">⟳</text><text x="70" y="120" id="pause">◼</text><script type="text/javascript"><![CDATA[function RecurringTimer(e,t){var n,r,i=t;this.pause=function(){window.clearTimeout(n);i-=new Date-r};var s=function(){r=new Date;n=window.setTimeout(function(){i=t;s();e()},i)};this.clear=function(){window.clearTimeout(n);i=t;n=window.setTimeout(function(){i=t;s();e()},i)};this.resume=s;this.resume()}function invoketimer(){timer=new RecurringTimer(function(){svg.setCurrentTime(0)},15300)}var svg=document.getElementById("kanjivg");var pause=document.getElementById("pause");var reset=document.getElementById("reset");var timer;invoketimer();reset.onclick=function(){svg.setCurrentTime(0);timer.clear();svg.unpauseAnimations();pause.innerHTML = "◼";};pause.onclick=function(){if(svg.animationsPaused()){svg.unpauseAnimations();timer.resume();pause.innerHTML="◼"}else{svg.pauseAnimations();timer.pause();pause.innerHTML="▶"}}]]></script></svg>