<svg id="kanjivg" width="106" height="126" xmlns="http://www.w3.org/2000/svg" xmlns:xlink="http://www.w3.org/1999/xlink" xml:space="preserve" version="1.1" baseProfile="full"><defs><style type="text/css"><![CDATA[path.black { fill:none;stroke:black;stroke-width:5;stroke-linecap:round;stroke-linejoin:round; }path.grey { fill:none;stroke:#ddd;stroke-width:5;stroke-linecap:round;stroke-linejoin:round; }path.stroke { fill:none;stroke:black;stroke-width:5;stroke-linecap:round;stroke-linejoin:round; }rect { fill:none;stroke:#555;stroke-width:2;} text{font-size:16px;font-family:Segoe UI Symbol,Cambria Math,DejaVu Sans,Symbola,Quivira,STIX,Code2000;-webkit-touch-callout:none;cursor:pointer;-webkit-user-select:none;-khtml-user-select:none;-moz-user-select:none;-ms-user-select:none;user-select: none;} #reset { font-weight:bold; }]]></style><marker id="markerStart" markerWidth="8" markerHeight="8" style="overflow:visible;"><circle cx="0" cy="0" r="1.5" style="stroke:none;fill:red;fill-opacity:0.5;"/></marker><marker id="markerEnd" style="overflow:visible;"><circle cx="0" cy="0" r="0.8" style="stroke:none;fill:blue;fill-opacity:0.5;"><animate attributeName="opacity" from="1" to="0" dur="3s" repeatCount="indefinite" /></circle></marker></defs><rect x="4" y="4" width="100" height="100" /><path d="M11.25,43.89c2.14,0.49,4.28,0.48,6.42-0.03c4.98-1.08,11.33-2.73,15.97-3.95c1.49-0.39,3.06-0.38,4.6-0.4" class="grey" /><path d="M24.12,16.25c1.06,1.06,1.21,2,1.21,3.25c0,1.02-0.22,42.62-0.22,49.5" class="grey" /><path d="M11.25,77.32c1.5,0.68,2.82,0.49,4.38-0.57C25.75,69.88,30.32,66.25,37.5,61" class="grey" /><path d="M44.89,16.22c0.88,0.88,1.34,1.52,1.45,2.12c0.97,5.04,1.92,9.7,2.95,16.32c0.33,2.13,0.67,4.46,1.02,7.07" class="grey" /><path d="M46.51,17.11c8.28-0.99,25.51-2.97,36.48-3.76c3.42-0.24,5.86,1.34,5.02,4.91C86,26.75,85,31,82.25,39.75" class="grey" /><path d="M64.7,17c1.08,1.09,1.35,2,1.35,3.5C66.04,26.61,66,35.65,66,37.62" class="grey" /><path d="M49.35,28.53c10.28-1.28,24.73-2.5,35.53-2.91" class="grey" /><path d="M50.86,39.92c9.39-0.92,18.77-1.67,30.77-2.29" class="grey" /><path d="M65.12,42c-0.18,1.21-0.58,2.33-1.21,3.34c-3.62,6.1-14.43,17.12-27.67,25.35" class="grey" /><path d="M65.5,45.5c7.09,5.85,13.62,11.88,20.02,17.09c2.51,2.05,5.25,4.21,8.23,5.49" class="grey" /><path d="M54.53,63.93c0.89,0.89,0.8,2.19,0.79,3.37c-0.07,11.95-4.07,25.32-15.92,31.42" class="grey" /><path d="M74.28,62.6c0.93,0.93,1.24,2.15,1.24,3.06c0,0.6-0.08,15.94-0.12,25.96c-0.01,3.32-0.02,6.05-0.02,7.48" class="grey" /><path d="M11.25,43.89c2.14,0.49,4.28,0.48,6.42-0.03c4.98-1.08,11.33-2.73,15.97-3.95c1.49-0.39,3.06-0.38,4.6-0.4" class="stroke" stroke-dasharray="150"><animate attributeName="stroke-dashoffset" from="150" to="0" dur="1.8s" begin="0s" fill="freeze" /></path><path d="M24.12,16.25c1.06,1.06,1.21,2,1.21,3.25c0,1.02-0.22,42.62-0.22,49.5" class="stroke" stroke-dasharray="150"><set attributeName="opacity" to="0" dur="1.0s" /><animate attributeName="stroke-dashoffset" from="150" to="0" dur="1.8s" begin="1.0s" fill="freeze" /></path><path d="M11.25,77.32c1.5,0.68,2.82,0.49,4.38-0.57C25.75,69.88,30.32,66.25,37.5,61" class="stroke" stroke-dasharray="150"><set attributeName="opacity" to="0" dur="2.3s" /><animate attributeName="stroke-dashoffset" from="150" to="0" dur="1.8s" begin="2.3s" fill="freeze" /></path><path d="M44.89,16.22c0.88,0.88,1.34,1.52,1.45,2.12c0.97,5.04,1.92,9.7,2.95,16.32c0.33,2.13,0.67,4.46,1.02,7.07" class="stroke" stroke-dasharray="150"><set attributeName="opacity" to="0" dur="3.3s" /><animate attributeName="stroke-dashoffset" from="150" to="0" dur="1.8s" begin="3.3s" fill="freeze" /></path><path d="M46.51,17.11c8.28-0.99,25.51-2.97,36.48-3.76c3.42-0.24,5.86,1.34,5.02,4.91C86,26.75,85,31,82.25,39.75" class="stroke" stroke-dasharray="150"><set attributeName="opacity" to="0" dur="4.3s" /><animate attributeName="stroke-dashoffset" from="150" to="0" dur="1.8s" begin="4.3s" fill="freeze" /></path><path d="M64.7,17c1.08,1.09,1.35,2,1.35,3.5C66.04,26.61,66,35.65,66,37.62" class="stroke" stroke-dasharray="150"><set attributeName="opacity" to="0" dur="5.8s" /><animate attributeName="stroke-dashoffset" from="150" to="0" dur="1.8s" begin="5.8s" fill="freeze" /></path><path d="M49.35,28.53c10.28-1.28,24.73-2.5,35.53-2.91" class="stroke" stroke-dasharray="150"><set attributeName="opacity" to="0" dur="6.8s" /><animate attributeName="stroke-dashoffset" from="150" to="0" dur="1.8s" begin="6.8s" fill="freeze" /></path><path d="M50.86,39.92c9.39-0.92,18.77-1.67,30.77-2.29" class="stroke" stroke-dasharray="150"><set attributeName="opacity" to="0" dur="7.8s" /><animate attributeName="stroke-dashoffset" from="150" to="0" dur="1.8s" begin="7.8s" fill="freeze" /></path><path d="M65.12,42c-0.18,1.21-0.58,2.33-1.21,3.34c-3.62,6.1-14.43,17.12-27.67,25.35" class="stroke" stroke-dasharray="150"><set attributeName="opacity" to="0" dur="8.8s" /><animate attributeName="stroke-dashoffset" from="150" to="0" dur="1.8s" begin="8.8s" fill="freeze" /></path><path d="M65.5,45.5c7.09,5.85,13.62,11.88,20.02,17.09c2.51,2.05,5.25,4.21,8.23,5.49" class="stroke" stroke-dasharray="150"><set attributeName="opacity" to="0" dur="9.9s" /><animate attributeName="stroke-dashoffset" from="150" to="0" dur="1.8s" begin="9.9s" fill="freeze" /></path><path d="M54.53,63.93c0.89,0.89,0.8,2.19,0.79,3.37c-0.07,11.95-4.07,25.32-15.92,31.42" class="stroke" stroke-dasharray="150"><set attributeName="opacity" to="0" dur="10.9s" /><animate attributeName="stroke-dashoffset" from="150" to="0" dur="1.8s" begin="10.9s" fill="freeze" /></path><path d="M74.28,62.6c0.93,0.93,1.24,2.15,1.24,3.06c0,0.6-0.08,15.94-0.12,25.96c-0.01,3.32-0.02,6.05-0.02,7.48" class="stroke" stroke-dasharray="150"><set attributeName="opacity" to="0" dur="12.0s" /><animate attributeName="stroke-dashoffset" from="150" to="0" dur="1.8s" begin="12.0s" fill="freeze" /></path><text x="90" y="120" id="reset">⟳</text><text x="70" y="120" id="pause">◼</text><script type="text/javascript"><![CDATA[function RecurringTimer(e,t){var n,r,i=t;this.pause=function(){window.clearTimeout(n);i-=new Date-r};var s=function(){r=new Date;n=window.setTimeout(function(){i=t;s();e()},i)};this.clear=function(){window.clearTimeout(n);i=t;n=window.setTimeout(function(){i=t;s();e()},i)};this.resume=s;this.resume()}function invoketimer(){timer=new RecurringTimer(function(){svg.setCurrentTime(0)},14000)}var svg=document.getElementById("kanjivg");var pause=document.getElementById("pause");var reset=document.getElementById("reset");var timer;invoketimer();reset.onclick=function(){svg.setCurrentTime(0);timer.clear();svg.unpauseAnimations();pause.innerHTML = "◼";};pause.onclick=function(){if(svg.animationsPaused()){svg.unpauseAnimations();timer.resume();pause.innerHTML="◼"}else{svg.pauseAnimations();timer.pause();pause.innerHTML="▶"}}]]></script></svg>