<svg id="kanjivg" width="106" height="126" xmlns="http://www.w3.org/2000/svg" xmlns:xlink="http://www.w3.org/1999/xlink" xml:space="preserve" version="1.1" baseProfile="full"><defs><style type="text/css"><![CDATA[path.black { fill:none;stroke:black;stroke-width:5;stroke-linecap:round;stroke-linejoin:round; }path.grey { fill:none;stroke:#ddd;stroke-width:5;stroke-linecap:round;stroke-linejoin:round; }path.stroke { fill:none;stroke:black;stroke-width:5;stroke-linecap:round;stroke-linejoin:round; }rect { fill:none;stroke:#555;stroke-width:2;} text{font-size:16px;font-family:Segoe UI Symbol,Cambria Math,DejaVu Sans,Symbola,Quivira,STIX,Code2000;-webkit-touch-callout:none;cursor:pointer;-webkit-user-select:none;-khtml-user-select:none;-moz-user-select:none;-ms-user-select:none;user-select: none;} #reset { font-weight:bold; }]]></style><marker id="markerStart" markerWidth="8" markerHeight="8" style="overflow:visible;"><circle cx="0" cy="0" r="1.5" style="stroke:none;fill:red;fill-opacity:0.5;"/></marker><marker id="markerEnd" style="overflow:visible;"><circle cx="0" cy="0" r="0.8" style="stroke:none;fill:blue;fill-opacity:0.5;"><animate attributeName="opacity" from="1" to="0" dur="3s" repeatCount="indefinite" /></circle></marker></defs><rect x="4" y="4" width="100" height="100" /><path d="M14.25,41.42c0.76,0.38,2.13,0.42,2.9,0.38c6.1-0.3,17-3.21,20.1-3.55c1.26-0.14,2.02,0.18,2.65,0.37" class="grey" /><path d="M27.3,19.87c0.12,0.29,1.65,1.53,1.77,3.39C29.63,32.19,29,59.96,29,63" class="grey" /><path d="M13.5,68.6c2.53,1.66,2.64,2.36,5.17,0.95c1.49-0.84,15.5-8.27,21.83-12.29" class="grey" /><path d="M52.13,14.47c0.26,0.56,0.44,0.86,0.53,1.6c0.65,5.22,1.32,11.62,2.53,21.07c0.05,0.37,0.09,0.38,0.17,1.13" class="grey" /><path d="M53.3,15.38c5.07-0.74,20.63-2.71,27.13-3.21c1.13-0.09,1.81,2.02,1.77,2.58c-0.49,7.03-1.67,14.41-2.52,19.58c-0.13,0.83-0.54,2.9-0.54,3.47" class="grey" /><path d="M54.32,25.72c4.33,0,8.79-0.79,13.09-1.23c1.51-0.15,3.03-0.31,4.47-0.45" class="grey" /><path d="M55.67,36.55c4.1-0.55,17.92-1.72,23.03-2.2" class="grey" /><path d="M43.85,47.57c1.16,0.33,3.3,0.38,4.46,0.33c12.1-0.55,31.4-4.03,42.75-4.16c1.94-0.02,3.1,0.16,4.07,0.32" class="grey" /><path d="M54.44,50.9c0.04,0.48,0.09,1.25-0.08,1.94C53.34,56.93,45.5,66,39,69.25" class="grey" /><path d="M53.62,58.3c0.82,0.46,1.97,0.62,3.29,0.31c1.31-0.31,28.43-2.94,31.72-3.09c3.29-0.15,3.94,1.54,3.45,4.79c-0.49,3.25-5.93,23.66-13.16,32.47c-2.17,2.65-3.4-0.44-5.34-2.37" class="grey" /><path d="M62.37,60.1c0.05,0.43,0.14,1.13-0.09,1.73c-2.27,5.99-8.48,14.31-17.42,19.23" class="grey" /><path d="M75.39,58.89c0.08,0.87,0.17,2.24-0.16,3.48C73.25,69.69,64.75,83,53.96,90.93" class="grey" /><path d="M14.25,41.42c0.76,0.38,2.13,0.42,2.9,0.38c6.1-0.3,17-3.21,20.1-3.55c1.26-0.14,2.02,0.18,2.65,0.37" class="stroke" stroke-dasharray="150"><animate attributeName="stroke-dashoffset" from="150" to="0" dur="1.8s" begin="0s" fill="freeze" /></path><path d="M27.3,19.87c0.12,0.29,1.65,1.53,1.77,3.39C29.63,32.19,29,59.96,29,63" class="stroke" stroke-dasharray="150"><set attributeName="opacity" to="0" dur="1.0s" /><animate attributeName="stroke-dashoffset" from="150" to="0" dur="1.8s" begin="1.0s" fill="freeze" /></path><path d="M13.5,68.6c2.53,1.66,2.64,2.36,5.17,0.95c1.49-0.84,15.5-8.27,21.83-12.29" class="stroke" stroke-dasharray="150"><set attributeName="opacity" to="0" dur="2.1s" /><animate attributeName="stroke-dashoffset" from="150" to="0" dur="1.8s" begin="2.1s" fill="freeze" /></path><path d="M52.13,14.47c0.26,0.56,0.44,0.86,0.53,1.6c0.65,5.22,1.32,11.62,2.53,21.07c0.05,0.37,0.09,0.38,0.17,1.13" class="stroke" stroke-dasharray="150"><set attributeName="opacity" to="0" dur="3.1s" /><animate attributeName="stroke-dashoffset" from="150" to="0" dur="1.8s" begin="3.1s" fill="freeze" /></path><path d="M53.3,15.38c5.07-0.74,20.63-2.71,27.13-3.21c1.13-0.09,1.81,2.02,1.77,2.58c-0.49,7.03-1.67,14.41-2.52,19.58c-0.13,0.83-0.54,2.9-0.54,3.47" class="stroke" stroke-dasharray="150"><set attributeName="opacity" to="0" dur="4.1s" /><animate attributeName="stroke-dashoffset" from="150" to="0" dur="1.8s" begin="4.1s" fill="freeze" /></path><path d="M54.32,25.72c4.33,0,8.79-0.79,13.09-1.23c1.51-0.15,3.03-0.31,4.47-0.45" class="stroke" stroke-dasharray="150"><set attributeName="opacity" to="0" dur="5.3999999999999995s" /><animate attributeName="stroke-dashoffset" from="150" to="0" dur="1.8s" begin="5.3999999999999995s" fill="freeze" /></path><path d="M55.67,36.55c4.1-0.55,17.92-1.72,23.03-2.2" class="stroke" stroke-dasharray="150"><set attributeName="opacity" to="0" dur="6.3s" /><animate attributeName="stroke-dashoffset" from="150" to="0" dur="1.8s" begin="6.3s" fill="freeze" /></path><path d="M43.85,47.57c1.16,0.33,3.3,0.38,4.46,0.33c12.1-0.55,31.4-4.03,42.75-4.16c1.94-0.02,3.1,0.16,4.07,0.32" class="stroke" stroke-dasharray="150"><set attributeName="opacity" to="0" dur="7.3s" /><animate attributeName="stroke-dashoffset" from="150" to="0" dur="1.8s" begin="7.3s" fill="freeze" /></path><path d="M54.44,50.9c0.04,0.48,0.09,1.25-0.08,1.94C53.34,56.93,45.5,66,39,69.25" class="stroke" stroke-dasharray="150"><set attributeName="opacity" to="0" dur="8.6s" /><animate attributeName="stroke-dashoffset" from="150" to="0" dur="1.8s" begin="8.6s" fill="freeze" /></path><path d="M53.62,58.3c0.82,0.46,1.97,0.62,3.29,0.31c1.31-0.31,28.43-2.94,31.72-3.09c3.29-0.15,3.94,1.54,3.45,4.79c-0.49,3.25-5.93,23.66-13.16,32.47c-2.17,2.65-3.4-0.44-5.34-2.37" class="stroke" stroke-dasharray="150"><set attributeName="opacity" to="0" dur="9.6s" /><animate attributeName="stroke-dashoffset" from="150" to="0" dur="1.8s" begin="9.6s" fill="freeze" /></path><path d="M62.37,60.1c0.05,0.43,0.14,1.13-0.09,1.73c-2.27,5.99-8.48,14.31-17.42,19.23" class="stroke" stroke-dasharray="150"><set attributeName="opacity" to="0" dur="11.299999999999999s" /><animate attributeName="stroke-dashoffset" from="150" to="0" dur="1.8s" begin="11.299999999999999s" fill="freeze" /></path><path d="M75.39,58.89c0.08,0.87,0.17,2.24-0.16,3.48C73.25,69.69,64.75,83,53.96,90.93" class="stroke" stroke-dasharray="150"><set attributeName="opacity" to="0" dur="12.299999999999999s" /><animate attributeName="stroke-dashoffset" from="150" to="0" dur="1.8s" begin="12.299999999999999s" fill="freeze" /></path><text x="90" y="120" id="reset">⟳</text><text x="70" y="120" id="pause">◼</text><script type="text/javascript"><![CDATA[function RecurringTimer(e,t){var n,r,i=t;this.pause=function(){window.clearTimeout(n);i-=new Date-r};var s=function(){r=new Date;n=window.setTimeout(function(){i=t;s();e()},i)};this.clear=function(){window.clearTimeout(n);i=t;n=window.setTimeout(function(){i=t;s();e()},i)};this.resume=s;this.resume()}function invoketimer(){timer=new RecurringTimer(function(){svg.setCurrentTime(0)},14299)}var svg=document.getElementById("kanjivg");var pause=document.getElementById("pause");var reset=document.getElementById("reset");var timer;invoketimer();reset.onclick=function(){svg.setCurrentTime(0);timer.clear();svg.unpauseAnimations();pause.innerHTML = "◼";};pause.onclick=function(){if(svg.animationsPaused()){svg.unpauseAnimations();timer.resume();pause.innerHTML="◼"}else{svg.pauseAnimations();timer.pause();pause.innerHTML="▶"}}]]></script></svg>