<svg id="kanjivg" width="106" height="126" xmlns="http://www.w3.org/2000/svg" xmlns:xlink="http://www.w3.org/1999/xlink" xml:space="preserve" version="1.1" baseProfile="full"><defs><style type="text/css"><![CDATA[path.black { fill:none;stroke:black;stroke-width:5;stroke-linecap:round;stroke-linejoin:round; }path.grey { fill:none;stroke:#ddd;stroke-width:5;stroke-linecap:round;stroke-linejoin:round; }path.stroke { fill:none;stroke:black;stroke-width:5;stroke-linecap:round;stroke-linejoin:round; }rect { fill:none;stroke:#555;stroke-width:2;} text{font-size:16px;font-family:Segoe UI Symbol,Cambria Math,DejaVu Sans,Symbola,Quivira,STIX,Code2000;-webkit-touch-callout:none;cursor:pointer;-webkit-user-select:none;-khtml-user-select:none;-moz-user-select:none;-ms-user-select:none;user-select: none;} #reset { font-weight:bold; }]]></style><marker id="markerStart" markerWidth="8" markerHeight="8" style="overflow:visible;"><circle cx="0" cy="0" r="1.5" style="stroke:none;fill:red;fill-opacity:0.5;"/></marker><marker id="markerEnd" style="overflow:visible;"><circle cx="0" cy="0" r="0.8" style="stroke:none;fill:blue;fill-opacity:0.5;"><animate attributeName="opacity" from="1" to="0" dur="3s" repeatCount="indefinite" /></circle></marker></defs><rect x="4" y="4" width="100" height="100" /><path d="M10.75,43.89c0.76,0.38,2.24,0.46,3,0.36c4.82-0.66,15.65-3.89,21-4.5c1.25-0.14,2.62-0.18,3.25,0.01" class="grey" /><path d="M23.37,16.25c1.09,0.5,1.74,2.25,1.96,3.25c0.22,1,0,44.25-0.22,50.5" class="grey" /><path d="M10.5,77.07c1.5,0.68,3.59,0.7,6.17-1.19C23.85,70.62,30.32,66.25,37.5,61" class="grey" /><path d="M44.64,15.97c0.29,0.46,1.3,2.28,1.45,2.87c1.3,4.8,3.46,13.93,4.23,22.89" class="grey" /><path d="M46.01,17.11c8.57-1.02,27.24-3.11,38.12-3.83c2.84-0.19,4.27,1.94,4.1,3.26c-0.98,7.96-2.48,13.71-5.98,23.21" class="grey" /><path d="M64.2,16.75c1.21,0.75,1.6,1.5,1.6,3c-0.02,6.11,0.18,16.56,0.18,18.53" class="grey" /><path d="M48.35,28.53c8.48-1.21,17.16-1.53,25.69-2.22c1.03-0.08,2.04-0.16,3-0.24" class="grey" /><path d="M50.86,39.92c7.41-0.53,21.83-1.81,32.06-2.67" class="grey" /><path d="M64.12,41c0.08,0.7,0.35,1.88-0.16,2.81c-3.28,5.97-14.09,18.41-27.72,26.88" class="grey" /><path d="M64.34,44.52c5.56,5.78,19.31,17.05,26.47,21.66c1.58,1.02,3.44,1.58,4.95,1.89" class="grey" /><path d="M54.53,63.93c0.53,0.95,0.79,2.19,0.79,3.37c0,10.8-4.57,25.95-15.92,31.42" class="grey" /><path d="M74.28,62.6c0.69,0.39,1.1,1.77,1.24,2.56c0.14,0.79,0,29.02-0.14,33.94" class="grey" /><path d="M10.75,43.89c0.76,0.38,2.24,0.46,3,0.36c4.82-0.66,15.65-3.89,21-4.5c1.25-0.14,2.62-0.18,3.25,0.01" class="stroke" stroke-dasharray="150"><animate attributeName="stroke-dashoffset" from="150" to="0" dur="1.8s" begin="0s" fill="freeze" /></path><path d="M23.37,16.25c1.09,0.5,1.74,2.25,1.96,3.25c0.22,1,0,44.25-0.22,50.5" class="stroke" stroke-dasharray="150"><set attributeName="opacity" to="0" dur="1.0s" /><animate attributeName="stroke-dashoffset" from="150" to="0" dur="1.8s" begin="1.0s" fill="freeze" /></path><path d="M10.5,77.07c1.5,0.68,3.59,0.7,6.17-1.19C23.85,70.62,30.32,66.25,37.5,61" class="stroke" stroke-dasharray="150"><set attributeName="opacity" to="0" dur="2.3s" /><animate attributeName="stroke-dashoffset" from="150" to="0" dur="1.8s" begin="2.3s" fill="freeze" /></path><path d="M44.64,15.97c0.29,0.46,1.3,2.28,1.45,2.87c1.3,4.8,3.46,13.93,4.23,22.89" class="stroke" stroke-dasharray="150"><set attributeName="opacity" to="0" dur="3.3s" /><animate attributeName="stroke-dashoffset" from="150" to="0" dur="1.8s" begin="3.3s" fill="freeze" /></path><path d="M46.01,17.11c8.57-1.02,27.24-3.11,38.12-3.83c2.84-0.19,4.27,1.94,4.1,3.26c-0.98,7.96-2.48,13.71-5.98,23.21" class="stroke" stroke-dasharray="150"><set attributeName="opacity" to="0" dur="4.3s" /><animate attributeName="stroke-dashoffset" from="150" to="0" dur="1.8s" begin="4.3s" fill="freeze" /></path><path d="M64.2,16.75c1.21,0.75,1.6,1.5,1.6,3c-0.02,6.11,0.18,16.56,0.18,18.53" class="stroke" stroke-dasharray="150"><set attributeName="opacity" to="0" dur="5.8s" /><animate attributeName="stroke-dashoffset" from="150" to="0" dur="1.8s" begin="5.8s" fill="freeze" /></path><path d="M48.35,28.53c8.48-1.21,17.16-1.53,25.69-2.22c1.03-0.08,2.04-0.16,3-0.24" class="stroke" stroke-dasharray="150"><set attributeName="opacity" to="0" dur="6.8s" /><animate attributeName="stroke-dashoffset" from="150" to="0" dur="1.8s" begin="6.8s" fill="freeze" /></path><path d="M50.86,39.92c7.41-0.53,21.83-1.81,32.06-2.67" class="stroke" stroke-dasharray="150"><set attributeName="opacity" to="0" dur="7.8s" /><animate attributeName="stroke-dashoffset" from="150" to="0" dur="1.8s" begin="7.8s" fill="freeze" /></path><path d="M64.12,41c0.08,0.7,0.35,1.88-0.16,2.81c-3.28,5.97-14.09,18.41-27.72,26.88" class="stroke" stroke-dasharray="150"><set attributeName="opacity" to="0" dur="8.8s" /><animate attributeName="stroke-dashoffset" from="150" to="0" dur="1.8s" begin="8.8s" fill="freeze" /></path><path d="M64.34,44.52c5.56,5.78,19.31,17.05,26.47,21.66c1.58,1.02,3.44,1.58,4.95,1.89" class="stroke" stroke-dasharray="150"><set attributeName="opacity" to="0" dur="9.9s" /><animate attributeName="stroke-dashoffset" from="150" to="0" dur="1.8s" begin="9.9s" fill="freeze" /></path><path d="M54.53,63.93c0.53,0.95,0.79,2.19,0.79,3.37c0,10.8-4.57,25.95-15.92,31.42" class="stroke" stroke-dasharray="150"><set attributeName="opacity" to="0" dur="10.9s" /><animate attributeName="stroke-dashoffset" from="150" to="0" dur="1.8s" begin="10.9s" fill="freeze" /></path><path d="M74.28,62.6c0.69,0.39,1.1,1.77,1.24,2.56c0.14,0.79,0,29.02-0.14,33.94" class="stroke" stroke-dasharray="150"><set attributeName="opacity" to="0" dur="12.0s" /><animate attributeName="stroke-dashoffset" from="150" to="0" dur="1.8s" begin="12.0s" fill="freeze" /></path><text x="90" y="120" id="reset">⟳</text><text x="70" y="120" id="pause">◼</text><script type="text/javascript"><![CDATA[function RecurringTimer(e,t){var n,r,i=t;this.pause=function(){window.clearTimeout(n);i-=new Date-r};var s=function(){r=new Date;n=window.setTimeout(function(){i=t;s();e()},i)};this.clear=function(){window.clearTimeout(n);i=t;n=window.setTimeout(function(){i=t;s();e()},i)};this.resume=s;this.resume()}function invoketimer(){timer=new RecurringTimer(function(){svg.setCurrentTime(0)},14000)}var svg=document.getElementById("kanjivg");var pause=document.getElementById("pause");var reset=document.getElementById("reset");var timer;invoketimer();reset.onclick=function(){svg.setCurrentTime(0);timer.clear();svg.unpauseAnimations();pause.innerHTML = "◼";};pause.onclick=function(){if(svg.animationsPaused()){svg.unpauseAnimations();timer.resume();pause.innerHTML="◼"}else{svg.pauseAnimations();timer.pause();pause.innerHTML="▶"}}]]></script></svg>