<svg id="kanjivg" width="106" height="126" xmlns="http://www.w3.org/2000/svg" xmlns:xlink="http://www.w3.org/1999/xlink" xml:space="preserve" version="1.1" baseProfile="full"><defs><style type="text/css"><![CDATA[path.black { fill:none;stroke:black;stroke-width:5;stroke-linecap:round;stroke-linejoin:round; }path.grey { fill:none;stroke:#ddd;stroke-width:5;stroke-linecap:round;stroke-linejoin:round; }path.stroke { fill:none;stroke:black;stroke-width:5;stroke-linecap:round;stroke-linejoin:round; }rect { fill:none;stroke:#555;stroke-width:2;} text{font-size:16px;font-family:Segoe UI Symbol,Cambria Math,DejaVu Sans,Symbola,Quivira,STIX,Code2000;-webkit-touch-callout:none;cursor:pointer;-webkit-user-select:none;-khtml-user-select:none;-moz-user-select:none;-ms-user-select:none;user-select: none;} #reset { font-weight:bold; }]]></style><marker id="markerStart" markerWidth="8" markerHeight="8" style="overflow:visible;"><circle cx="0" cy="0" r="1.5" style="stroke:none;fill:red;fill-opacity:0.5;"/></marker><marker id="markerEnd" style="overflow:visible;"><circle cx="0" cy="0" r="0.8" style="stroke:none;fill:blue;fill-opacity:0.5;"><animate attributeName="opacity" from="1" to="0" dur="3s" repeatCount="indefinite" /></circle></marker></defs><rect x="4" y="4" width="100" height="100" /><path d="M13.5,43.64c0.76,0.38,2.24,0.46,3,0.36c4.82-0.66,13.75-3.25,19-4c1.25-0.18,2.62-0.18,3.25,0.01" class="grey" /><path d="M26.37,20c1.09,0.5,1.96,2.23,1.96,3.25c0,7.25,0.03,35.25,0.03,46" class="grey" /><path d="M14.75,77.25c0.68,1.25,2.03,1.91,4.06,0.27c5.64-4.56,15.8-12.71,21.44-17.27" class="grey" /><path d="M61.36,12c0.03,0.38,0.11,1.09-0.06,1.51c-2.08,5.32-5.14,10.2-10.55,14.49" class="grey" /><path d="M43.83,28.62c0.27,0.54,0.27,0.91,0.42,1.57c1.19,5.5,2.66,17.24,3.36,27.38" class="grey" /><path d="M45.09,29.45c11.16-1.7,27.37-3.99,34.44-4.53c2.6-0.2,3.66,1.58,3.38,3.87c-0.66,5.38-1.66,13.46-4.16,25.84" class="grey" /><path d="M60.13,30.37c0.38,2.14,2.29,11.97,3.51,18.94c0.28,1.6,1,2.87,1.73,3.2" class="grey" /><path d="M47.28,42.07c6.6-0.57,13.18-1.92,19.73-2.81c0.88-0.12,1.76-0.24,2.64-0.35" class="grey" /><path d="M48.6,55.64c10.09-1.89,19.98-2.39,30.23-3.88" class="grey" /><path d="M53.41,63.5c0.31,0.7,0.88,2.1,0.45,3.19C50.75,74.75,42.25,88.75,25,97.25" class="grey" /><path d="M64.99,56.87c0.74,1.19,1.33,2.59,1.38,4.43c0.2,8.19-0.3,18.14-0.3,23.7c0,13,7.42,11.53,14.73,11.53c7.71,0,12.79-1.68,13.87-2.62c2.29-2,1.67-3,1.88-6.5" class="grey" /><path d="M79.54,62.72c0.21,0.34,0.05,1.87-0.06,2.31c-1.5,5.52-4.05,10.21-6.85,14.08c-0.89,1.23-0.85,1.65,0.41,1.23c4.38-1.46,10.28-3.2,14.53-4.73" class="grey" /><path d="M85.25,71c1.51,1.53,4.82,7.59,5.19,9.97" class="grey" /><path d="M13.5,43.64c0.76,0.38,2.24,0.46,3,0.36c4.82-0.66,13.75-3.25,19-4c1.25-0.18,2.62-0.18,3.25,0.01" class="stroke" stroke-dasharray="150"><animate attributeName="stroke-dashoffset" from="150" to="0" dur="1.8s" begin="0s" fill="freeze" /></path><path d="M26.37,20c1.09,0.5,1.96,2.23,1.96,3.25c0,7.25,0.03,35.25,0.03,46" class="stroke" stroke-dasharray="150"><set attributeName="opacity" to="0" dur="1.0s" /><animate attributeName="stroke-dashoffset" from="150" to="0" dur="1.8s" begin="1.0s" fill="freeze" /></path><path d="M14.75,77.25c0.68,1.25,2.03,1.91,4.06,0.27c5.64-4.56,15.8-12.71,21.44-17.27" class="stroke" stroke-dasharray="150"><set attributeName="opacity" to="0" dur="2.2s" /><animate attributeName="stroke-dashoffset" from="150" to="0" dur="1.8s" begin="2.2s" fill="freeze" /></path><path d="M61.36,12c0.03,0.38,0.11,1.09-0.06,1.51c-2.08,5.32-5.14,10.2-10.55,14.49" class="stroke" stroke-dasharray="150"><set attributeName="opacity" to="0" dur="3.2s" /><animate attributeName="stroke-dashoffset" from="150" to="0" dur="1.8s" begin="3.2s" fill="freeze" /></path><path d="M43.83,28.62c0.27,0.54,0.27,0.91,0.42,1.57c1.19,5.5,2.66,17.24,3.36,27.38" class="stroke" stroke-dasharray="150"><set attributeName="opacity" to="0" dur="4.1000000000000005s" /><animate attributeName="stroke-dashoffset" from="150" to="0" dur="1.8s" begin="4.1000000000000005s" fill="freeze" /></path><path d="M45.09,29.45c11.16-1.7,27.37-3.99,34.44-4.53c2.6-0.2,3.66,1.58,3.38,3.87c-0.66,5.38-1.66,13.46-4.16,25.84" class="stroke" stroke-dasharray="150"><set attributeName="opacity" to="0" dur="5.1000000000000005s" /><animate attributeName="stroke-dashoffset" from="150" to="0" dur="1.8s" begin="5.1000000000000005s" fill="freeze" /></path><path d="M60.13,30.37c0.38,2.14,2.29,11.97,3.51,18.94c0.28,1.6,1,2.87,1.73,3.2" class="stroke" stroke-dasharray="150"><set attributeName="opacity" to="0" dur="6.6000000000000005s" /><animate attributeName="stroke-dashoffset" from="150" to="0" dur="1.8s" begin="6.6000000000000005s" fill="freeze" /></path><path d="M47.28,42.07c6.6-0.57,13.18-1.92,19.73-2.81c0.88-0.12,1.76-0.24,2.64-0.35" class="stroke" stroke-dasharray="150"><set attributeName="opacity" to="0" dur="7.6000000000000005s" /><animate attributeName="stroke-dashoffset" from="150" to="0" dur="1.8s" begin="7.6000000000000005s" fill="freeze" /></path><path d="M48.6,55.64c10.09-1.89,19.98-2.39,30.23-3.88" class="stroke" stroke-dasharray="150"><set attributeName="opacity" to="0" dur="8.600000000000001s" /><animate attributeName="stroke-dashoffset" from="150" to="0" dur="1.8s" begin="8.600000000000001s" fill="freeze" /></path><path d="M53.41,63.5c0.31,0.7,0.88,2.1,0.45,3.19C50.75,74.75,42.25,88.75,25,97.25" class="stroke" stroke-dasharray="150"><set attributeName="opacity" to="0" dur="9.600000000000001s" /><animate attributeName="stroke-dashoffset" from="150" to="0" dur="1.8s" begin="9.600000000000001s" fill="freeze" /></path><path d="M64.99,56.87c0.74,1.19,1.33,2.59,1.38,4.43c0.2,8.19-0.3,18.14-0.3,23.7c0,13,7.42,11.53,14.73,11.53c7.71,0,12.79-1.68,13.87-2.62c2.29-2,1.67-3,1.88-6.5" class="stroke" stroke-dasharray="150"><set attributeName="opacity" to="0" dur="10.8s" /><animate attributeName="stroke-dashoffset" from="150" to="0" dur="1.8s" begin="10.8s" fill="freeze" /></path><path d="M79.54,62.72c0.21,0.34,0.05,1.87-0.06,2.31c-1.5,5.52-4.05,10.21-6.85,14.08c-0.89,1.23-0.85,1.65,0.41,1.23c4.38-1.46,10.28-3.2,14.53-4.73" class="stroke" stroke-dasharray="150"><set attributeName="opacity" to="0" dur="12.5s" /><animate attributeName="stroke-dashoffset" from="150" to="0" dur="1.8s" begin="12.5s" fill="freeze" /></path><path d="M85.25,71c1.51,1.53,4.82,7.59,5.19,9.97" class="stroke" stroke-dasharray="150"><set attributeName="opacity" to="0" dur="13.5s" /><animate attributeName="stroke-dashoffset" from="150" to="0" dur="1.8s" begin="13.5s" fill="freeze" /></path><text x="90" y="120" id="reset">⟳</text><text x="70" y="120" id="pause">◼</text><script type="text/javascript"><![CDATA[function RecurringTimer(e,t){var n,r,i=t;this.pause=function(){window.clearTimeout(n);i-=new Date-r};var s=function(){r=new Date;n=window.setTimeout(function(){i=t;s();e()},i)};this.clear=function(){window.clearTimeout(n);i=t;n=window.setTimeout(function(){i=t;s();e()},i)};this.resume=s;this.resume()}function invoketimer(){timer=new RecurringTimer(function(){svg.setCurrentTime(0)},15400)}var svg=document.getElementById("kanjivg");var pause=document.getElementById("pause");var reset=document.getElementById("reset");var timer;invoketimer();reset.onclick=function(){svg.setCurrentTime(0);timer.clear();svg.unpauseAnimations();pause.innerHTML = "◼";};pause.onclick=function(){if(svg.animationsPaused()){svg.unpauseAnimations();timer.resume();pause.innerHTML="◼"}else{svg.pauseAnimations();timer.pause();pause.innerHTML="▶"}}]]></script></svg>