<svg id="kanjivg" width="106" height="126" xmlns="http://www.w3.org/2000/svg" xmlns:xlink="http://www.w3.org/1999/xlink" xml:space="preserve" version="1.1" baseProfile="full"><defs><style type="text/css"><![CDATA[path.black { fill:none;stroke:black;stroke-width:5;stroke-linecap:round;stroke-linejoin:round; }path.grey { fill:none;stroke:#ddd;stroke-width:5;stroke-linecap:round;stroke-linejoin:round; }path.stroke { fill:none;stroke:black;stroke-width:5;stroke-linecap:round;stroke-linejoin:round; }rect { fill:none;stroke:#555;stroke-width:2;} text{font-size:16px;font-family:Segoe UI Symbol,Cambria Math,DejaVu Sans,Symbola,Quivira,STIX,Code2000;-webkit-touch-callout:none;cursor:pointer;-webkit-user-select:none;-khtml-user-select:none;-moz-user-select:none;-ms-user-select:none;user-select: none;} #reset { font-weight:bold; }]]></style><marker id="markerStart" markerWidth="8" markerHeight="8" style="overflow:visible;"><circle cx="0" cy="0" r="1.5" style="stroke:none;fill:red;fill-opacity:0.5;"/></marker><marker id="markerEnd" style="overflow:visible;"><circle cx="0" cy="0" r="0.8" style="stroke:none;fill:blue;fill-opacity:0.5;"><animate attributeName="opacity" from="1" to="0" dur="3s" repeatCount="indefinite" /></circle></marker></defs><rect x="4" y="4" width="100" height="100" /><path d="M20,20.18c2.52,2.23,5.04,8.22,5.25,11.81" class="grey" /><path d="M49.24,17.87c0.6,0.5,0.32,2.33-0.22,3.1c-0.54,0.77-5.56,5.68-8.27,7.48" class="grey" /><path d="M35.26,12.75c0.99,0.81,1.03,2.88,0.99,3.39c-1,14.36-4.5,21.36-12,28.36" class="grey" /><path d="M36.47,32.14c4.29,1.75,9.7,7.29,10.83,9.77" class="grey" /><path d="M55.25,17.18c3.42,2.9,6.15,7.57,6.5,10.81" class="grey" /><path d="M86.25,13.87c0.59,0.53,0.31,2.46-0.22,3.27c-0.53,0.82-6.38,5.41-9.04,7.31" class="grey" /><path d="M71.34,11.25c0.91,0.69,0.93,2.04,0.91,2.49C71.75,29,67.75,35.75,59.75,42" class="grey" /><path d="M74.22,29.39c3.99,1.89,9.03,7.85,10.08,10.52" class="grey" /><path d="M16.66,48.69c-0.13,3.93-3.1,14.22-4.16,16.56" class="grey" /><path d="M16.72,51.12c3.61,0,51.43-4.87,69.57-4.87c12.34,0,3.9,5.89-0.71,9.72" class="grey" /><path d="M28.63,71.08c1.08,0.33,3.07,0.49,4.13,0.33c4.36-0.65,35.26-3.32,45.35-3.32c1.8,0,2.87,0.16,3.77,0.32" class="grey" /><path d="M52.42,54.12c1.08,0.88,1.77,2.21,1.77,3.69c0,9.7,0.06,32.78,0.06,35.2" class="grey" /><path d="M18.38,94.86c1.52,0.43,4.31,0.48,5.82,0.43c9.3-0.29,33.53-3.03,62.61-3.15c2.53-0.01,4.05,0.2,5.31,0.42" class="grey" /><path d="M20,20.18c2.52,2.23,5.04,8.22,5.25,11.81" class="stroke" stroke-dasharray="150"><animate attributeName="stroke-dashoffset" from="150" to="0" dur="1.8s" begin="0s" fill="freeze" /></path><path d="M49.24,17.87c0.6,0.5,0.32,2.33-0.22,3.1c-0.54,0.77-5.56,5.68-8.27,7.48" class="stroke" stroke-dasharray="150"><set attributeName="opacity" to="0" dur="0.9s" /><animate attributeName="stroke-dashoffset" from="150" to="0" dur="1.8s" begin="0.9s" fill="freeze" /></path><path d="M35.26,12.75c0.99,0.81,1.03,2.88,0.99,3.39c-1,14.36-4.5,21.36-12,28.36" class="stroke" stroke-dasharray="150"><set attributeName="opacity" to="0" dur="1.8s" /><animate attributeName="stroke-dashoffset" from="150" to="0" dur="1.8s" begin="1.8s" fill="freeze" /></path><path d="M36.47,32.14c4.29,1.75,9.7,7.29,10.83,9.77" class="stroke" stroke-dasharray="150"><set attributeName="opacity" to="0" dur="2.8s" /><animate attributeName="stroke-dashoffset" from="150" to="0" dur="1.8s" begin="2.8s" fill="freeze" /></path><path d="M55.25,17.18c3.42,2.9,6.15,7.57,6.5,10.81" class="stroke" stroke-dasharray="150"><set attributeName="opacity" to="0" dur="3.6999999999999997s" /><animate attributeName="stroke-dashoffset" from="150" to="0" dur="1.8s" begin="3.6999999999999997s" fill="freeze" /></path><path d="M86.25,13.87c0.59,0.53,0.31,2.46-0.22,3.27c-0.53,0.82-6.38,5.41-9.04,7.31" class="stroke" stroke-dasharray="150"><set attributeName="opacity" to="0" dur="4.6s" /><animate attributeName="stroke-dashoffset" from="150" to="0" dur="1.8s" begin="4.6s" fill="freeze" /></path><path d="M71.34,11.25c0.91,0.69,0.93,2.04,0.91,2.49C71.75,29,67.75,35.75,59.75,42" class="stroke" stroke-dasharray="150"><set attributeName="opacity" to="0" dur="5.5s" /><animate attributeName="stroke-dashoffset" from="150" to="0" dur="1.8s" begin="5.5s" fill="freeze" /></path><path d="M74.22,29.39c3.99,1.89,9.03,7.85,10.08,10.52" class="stroke" stroke-dasharray="150"><set attributeName="opacity" to="0" dur="6.5s" /><animate attributeName="stroke-dashoffset" from="150" to="0" dur="1.8s" begin="6.5s" fill="freeze" /></path><path d="M16.66,48.69c-0.13,3.93-3.1,14.22-4.16,16.56" class="stroke" stroke-dasharray="150"><set attributeName="opacity" to="0" dur="7.4s" /><animate attributeName="stroke-dashoffset" from="150" to="0" dur="1.8s" begin="7.4s" fill="freeze" /></path><path d="M16.72,51.12c3.61,0,51.43-4.87,69.57-4.87c12.34,0,3.9,5.89-0.71,9.72" class="stroke" stroke-dasharray="150"><set attributeName="opacity" to="0" dur="8.3s" /><animate attributeName="stroke-dashoffset" from="150" to="0" dur="1.8s" begin="8.3s" fill="freeze" /></path><path d="M28.63,71.08c1.08,0.33,3.07,0.49,4.13,0.33c4.36-0.65,35.26-3.32,45.35-3.32c1.8,0,2.87,0.16,3.77,0.32" class="stroke" stroke-dasharray="150"><set attributeName="opacity" to="0" dur="10.0s" /><animate attributeName="stroke-dashoffset" from="150" to="0" dur="1.8s" begin="10.0s" fill="freeze" /></path><path d="M52.42,54.12c1.08,0.88,1.77,2.21,1.77,3.69c0,9.7,0.06,32.78,0.06,35.2" class="stroke" stroke-dasharray="150"><set attributeName="opacity" to="0" dur="11.3s" /><animate attributeName="stroke-dashoffset" from="150" to="0" dur="1.8s" begin="11.3s" fill="freeze" /></path><path d="M18.38,94.86c1.52,0.43,4.31,0.48,5.82,0.43c9.3-0.29,33.53-3.03,62.61-3.15c2.53-0.01,4.05,0.2,5.31,0.42" class="stroke" stroke-dasharray="150"><set attributeName="opacity" to="0" dur="12.3s" /><animate attributeName="stroke-dashoffset" from="150" to="0" dur="1.8s" begin="12.3s" fill="freeze" /></path><text x="90" y="120" id="reset">⟳</text><text x="70" y="120" id="pause">◼</text><script type="text/javascript"><![CDATA[function RecurringTimer(e,t){var n,r,i=t;this.pause=function(){window.clearTimeout(n);i-=new Date-r};var s=function(){r=new Date;n=window.setTimeout(function(){i=t;s();e()},i)};this.clear=function(){window.clearTimeout(n);i=t;n=window.setTimeout(function(){i=t;s();e()},i)};this.resume=s;this.resume()}function invoketimer(){timer=new RecurringTimer(function(){svg.setCurrentTime(0)},15000)}var svg=document.getElementById("kanjivg");var pause=document.getElementById("pause");var reset=document.getElementById("reset");var timer;invoketimer();reset.onclick=function(){svg.setCurrentTime(0);timer.clear();svg.unpauseAnimations();pause.innerHTML = "◼";};pause.onclick=function(){if(svg.animationsPaused()){svg.unpauseAnimations();timer.resume();pause.innerHTML="◼"}else{svg.pauseAnimations();timer.pause();pause.innerHTML="▶"}}]]></script></svg>