<svg id="kanjivg" width="106" height="126" xmlns="http://www.w3.org/2000/svg" xmlns:xlink="http://www.w3.org/1999/xlink" xml:space="preserve" version="1.1" baseProfile="full"><defs><style type="text/css"><![CDATA[path.black { fill:none;stroke:black;stroke-width:5;stroke-linecap:round;stroke-linejoin:round; }path.grey { fill:none;stroke:#ddd;stroke-width:5;stroke-linecap:round;stroke-linejoin:round; }path.stroke { fill:none;stroke:black;stroke-width:5;stroke-linecap:round;stroke-linejoin:round; }rect { fill:none;stroke:#555;stroke-width:2;} text{font-size:16px;font-family:Segoe UI Symbol,Cambria Math,DejaVu Sans,Symbola,Quivira,STIX,Code2000;-webkit-touch-callout:none;cursor:pointer;-webkit-user-select:none;-khtml-user-select:none;-moz-user-select:none;-ms-user-select:none;user-select: none;} #reset { font-weight:bold; }]]></style><marker id="markerStart" markerWidth="8" markerHeight="8" style="overflow:visible;"><circle cx="0" cy="0" r="1.5" style="stroke:none;fill:red;fill-opacity:0.5;"/></marker><marker id="markerEnd" style="overflow:visible;"><circle cx="0" cy="0" r="0.8" style="stroke:none;fill:blue;fill-opacity:0.5;"><animate attributeName="opacity" from="1" to="0" dur="3s" repeatCount="indefinite" /></circle></marker></defs><rect x="4" y="4" width="100" height="100" /><path d="M13.5,43.64c1.33,0.67,3.7,0.53,5.13,0.25C23.63,42.93,31,41.25,35.75,40c1.22-0.32,2.37-0.43,3-0.24" class="grey" /><path d="M27.12,19.75c1.13,1.13,1.21,2.25,1.21,4c0,7.25,0.03,33.75,0.03,44.5" class="grey" /><path d="M14.75,77c1,1.12,2.62,1.12,4.06,0.02c5.76-4.42,15.8-12.21,21.44-16.77" class="grey" /><path d="M61.61,12.25c0.08,1.09,0.01,1.73-0.54,2.7c-2.45,4.3-3.96,6.34-8.57,11.3" class="grey" /><path d="M43.08,28.37c0.71,0.71,1.17,1.88,1.48,3.62c1.16,6.62,2.04,13.59,2.73,21.74c0.12,1.38,0.22,2.75,0.32,4.09" class="grey" /><path d="M44.84,29.45c11.16-1.7,27.12-4.49,34.19-5.03c2.6-0.2,4.41,2.08,4.13,4.37c-0.56,4.64-1.39,11.27-3.2,20.94c-0.29,1.55-0.61,3.18-0.95,4.9" class="grey" /><path d="M61.61,28.92c0.98,0.98,1.27,1.9,1.29,3.58c0.08,5.24-0.02,13.75,0.01,20.24" class="grey" /><path d="M47.28,41.32c3.08-0.27,24.22-3.07,33.9-3.62" class="grey" /><path d="M48.6,55.14c10.02-1.39,17.77-2.39,29.73-3.38" class="grey" /><path d="M54.16,63.75c0.31,0.7,0.38,2.1-0.05,3.19C51,75,42.25,88.75,25,97.25" class="grey" /><path d="M64.99,56.37c1.01,1.01,1.33,2.59,1.38,4.43c0.2,8.19-0.3,17.64-0.3,23.2c0,10.75,1.69,12.53,16.23,12.53c12.58,0,14-2.65,14-9.87" class="grey" /><path d="M79.54,63.22c0.46,1.03,0.24,2.17-0.06,2.81c-2.35,4.97-4.05,8.21-6.85,12.08c-0.89,1.23-0.35,2.65,0.91,2.23c4.38-1.46,8.78-2.95,13.03-4.48" class="grey" /><path d="M85,71c1.51,1.53,4.82,7.59,5.19,9.97" class="grey" /><path d="M13.5,43.64c1.33,0.67,3.7,0.53,5.13,0.25C23.63,42.93,31,41.25,35.75,40c1.22-0.32,2.37-0.43,3-0.24" class="stroke" stroke-dasharray="150"><animate attributeName="stroke-dashoffset" from="150" to="0" dur="1.8s" begin="0s" fill="freeze" /></path><path d="M27.12,19.75c1.13,1.13,1.21,2.25,1.21,4c0,7.25,0.03,33.75,0.03,44.5" class="stroke" stroke-dasharray="150"><set attributeName="opacity" to="0" dur="1.0s" /><animate attributeName="stroke-dashoffset" from="150" to="0" dur="1.8s" begin="1.0s" fill="freeze" /></path><path d="M14.75,77c1,1.12,2.62,1.12,4.06,0.02c5.76-4.42,15.8-12.21,21.44-16.77" class="stroke" stroke-dasharray="150"><set attributeName="opacity" to="0" dur="2.2s" /><animate attributeName="stroke-dashoffset" from="150" to="0" dur="1.8s" begin="2.2s" fill="freeze" /></path><path d="M61.61,12.25c0.08,1.09,0.01,1.73-0.54,2.7c-2.45,4.3-3.96,6.34-8.57,11.3" class="stroke" stroke-dasharray="150"><set attributeName="opacity" to="0" dur="3.2s" /><animate attributeName="stroke-dashoffset" from="150" to="0" dur="1.8s" begin="3.2s" fill="freeze" /></path><path d="M43.08,28.37c0.71,0.71,1.17,1.88,1.48,3.62c1.16,6.62,2.04,13.59,2.73,21.74c0.12,1.38,0.22,2.75,0.32,4.09" class="stroke" stroke-dasharray="150"><set attributeName="opacity" to="0" dur="4.1000000000000005s" /><animate attributeName="stroke-dashoffset" from="150" to="0" dur="1.8s" begin="4.1000000000000005s" fill="freeze" /></path><path d="M44.84,29.45c11.16-1.7,27.12-4.49,34.19-5.03c2.6-0.2,4.41,2.08,4.13,4.37c-0.56,4.64-1.39,11.27-3.2,20.94c-0.29,1.55-0.61,3.18-0.95,4.9" class="stroke" stroke-dasharray="150"><set attributeName="opacity" to="0" dur="5.1000000000000005s" /><animate attributeName="stroke-dashoffset" from="150" to="0" dur="1.8s" begin="5.1000000000000005s" fill="freeze" /></path><path d="M61.61,28.92c0.98,0.98,1.27,1.9,1.29,3.58c0.08,5.24-0.02,13.75,0.01,20.24" class="stroke" stroke-dasharray="150"><set attributeName="opacity" to="0" dur="6.6000000000000005s" /><animate attributeName="stroke-dashoffset" from="150" to="0" dur="1.8s" begin="6.6000000000000005s" fill="freeze" /></path><path d="M47.28,41.32c3.08-0.27,24.22-3.07,33.9-3.62" class="stroke" stroke-dasharray="150"><set attributeName="opacity" to="0" dur="7.6000000000000005s" /><animate attributeName="stroke-dashoffset" from="150" to="0" dur="1.8s" begin="7.6000000000000005s" fill="freeze" /></path><path d="M48.6,55.14c10.02-1.39,17.77-2.39,29.73-3.38" class="stroke" stroke-dasharray="150"><set attributeName="opacity" to="0" dur="8.600000000000001s" /><animate attributeName="stroke-dashoffset" from="150" to="0" dur="1.8s" begin="8.600000000000001s" fill="freeze" /></path><path d="M54.16,63.75c0.31,0.7,0.38,2.1-0.05,3.19C51,75,42.25,88.75,25,97.25" class="stroke" stroke-dasharray="150"><set attributeName="opacity" to="0" dur="9.600000000000001s" /><animate attributeName="stroke-dashoffset" from="150" to="0" dur="1.8s" begin="9.600000000000001s" fill="freeze" /></path><path d="M64.99,56.37c1.01,1.01,1.33,2.59,1.38,4.43c0.2,8.19-0.3,17.64-0.3,23.2c0,10.75,1.69,12.53,16.23,12.53c12.58,0,14-2.65,14-9.87" class="stroke" stroke-dasharray="150"><set attributeName="opacity" to="0" dur="10.8s" /><animate attributeName="stroke-dashoffset" from="150" to="0" dur="1.8s" begin="10.8s" fill="freeze" /></path><path d="M79.54,63.22c0.46,1.03,0.24,2.17-0.06,2.81c-2.35,4.97-4.05,8.21-6.85,12.08c-0.89,1.23-0.35,2.65,0.91,2.23c4.38-1.46,8.78-2.95,13.03-4.48" class="stroke" stroke-dasharray="150"><set attributeName="opacity" to="0" dur="12.5s" /><animate attributeName="stroke-dashoffset" from="150" to="0" dur="1.8s" begin="12.5s" fill="freeze" /></path><path d="M85,71c1.51,1.53,4.82,7.59,5.19,9.97" class="stroke" stroke-dasharray="150"><set attributeName="opacity" to="0" dur="13.5s" /><animate attributeName="stroke-dashoffset" from="150" to="0" dur="1.8s" begin="13.5s" fill="freeze" /></path><text x="90" y="120" id="reset">⟳</text><text x="70" y="120" id="pause">◼</text><script type="text/javascript"><![CDATA[function RecurringTimer(e,t){var n,r,i=t;this.pause=function(){window.clearTimeout(n);i-=new Date-r};var s=function(){r=new Date;n=window.setTimeout(function(){i=t;s();e()},i)};this.clear=function(){window.clearTimeout(n);i=t;n=window.setTimeout(function(){i=t;s();e()},i)};this.resume=s;this.resume()}function invoketimer(){timer=new RecurringTimer(function(){svg.setCurrentTime(0)},15400)}var svg=document.getElementById("kanjivg");var pause=document.getElementById("pause");var reset=document.getElementById("reset");var timer;invoketimer();reset.onclick=function(){svg.setCurrentTime(0);timer.clear();svg.unpauseAnimations();pause.innerHTML = "◼";};pause.onclick=function(){if(svg.animationsPaused()){svg.unpauseAnimations();timer.resume();pause.innerHTML="◼"}else{svg.pauseAnimations();timer.pause();pause.innerHTML="▶"}}]]></script></svg>