<svg id="kanjivg" width="106" height="126" xmlns="http://www.w3.org/2000/svg" xmlns:xlink="http://www.w3.org/1999/xlink" xml:space="preserve" version="1.1" baseProfile="full"><defs><style type="text/css"><![CDATA[path.black { fill:none;stroke:black;stroke-width:5;stroke-linecap:round;stroke-linejoin:round; }path.grey { fill:none;stroke:#ddd;stroke-width:5;stroke-linecap:round;stroke-linejoin:round; }path.stroke { fill:none;stroke:black;stroke-width:5;stroke-linecap:round;stroke-linejoin:round; }rect { fill:none;stroke:#555;stroke-width:2;} text{font-size:16px;font-family:Segoe UI Symbol,Cambria Math,DejaVu Sans,Symbola,Quivira,STIX,Code2000;-webkit-touch-callout:none;cursor:pointer;-webkit-user-select:none;-khtml-user-select:none;-moz-user-select:none;-ms-user-select:none;user-select: none;} #reset { font-weight:bold; }]]></style><marker id="markerStart" markerWidth="8" markerHeight="8" style="overflow:visible;"><circle cx="0" cy="0" r="1.5" style="stroke:none;fill:red;fill-opacity:0.5;"/></marker><marker id="markerEnd" style="overflow:visible;"><circle cx="0" cy="0" r="0.8" style="stroke:none;fill:blue;fill-opacity:0.5;"><animate attributeName="opacity" from="1" to="0" dur="3s" repeatCount="indefinite" /></circle></marker></defs><rect x="4" y="4" width="100" height="100" /><path d="M12.25,39.39c1.39,0.7,3.82,0.75,5.3,0.49C23.14,38.89,33,37,37.25,36.25c1.24-0.22,2.62-0.43,3.25-0.24" class="grey" /><path d="M26.12,15.25c1.06,1.06,1.21,2.25,1.21,4c0,7.25,0.03,38.75,0.03,49.5" class="grey" /><path d="M12,76.04c0.75,0.96,2.25,1.46,4.5,0.21c6.25-3.5,17.5-10,23.75-13.5" class="grey" /><path d="M47.75,17.21c1.38,0.67,2.24,0.83,3.85,0.71c7.85-0.57,30.81-3.63,37.91-4.41c3.06-0.33,5.36,0.22,4.37,3.77c-0.87,3.11-1.75,6.43-2.92,11.77" class="grey" /><path d="M51.95,34.55c7.68-1.05,24.69-3.3,35.81-4.49c2.91-0.31,5.09-0.27,6.04-0.31" class="grey" /><path d="M50,18.5c1.06,1.06,0.86,1.88,0.88,3.38C51.12,55,50.25,75.12,36,90.75" class="grey" /><path d="M59.46,39.29c2.46,1.58,6.36,6.51,6.98,8.97" class="grey" /><path d="M86.55,34.89c0.11,0.83-0.01,1.62-0.37,2.37c-0.97,2.9-2.67,6.58-5.48,11.34" class="grey" /><path d="M56.5,54.01c2.5,0.24,4.04,0.15,5.87-0.1c6.87-0.94,19.45-3.14,26.49-3.59c1.67-0.11,3.35-0.16,5,0.2" class="grey" /><path d="M52.76,71.86c1.82,0.65,4,0.34,5.86,0.18c9.86-0.87,23.32-2.6,33.88-3.32c1.91-0.13,3.63-0.19,5.5,0.21" class="grey" /><path d="M66.84,55.98c0.96,0.96,1.19,2.29,1.19,3.72c0,13.04-3.29,30.3-14.19,38.05" class="grey" /><path d="M81.91,54.19c0.76,0.76,1.26,2.06,1.26,3.35c0,0.52,0.04,21.34,0.04,33.21c0,3.1-0.06,5.4-0.09,6.25" class="grey" /><path d="M12.25,39.39c1.39,0.7,3.82,0.75,5.3,0.49C23.14,38.89,33,37,37.25,36.25c1.24-0.22,2.62-0.43,3.25-0.24" class="stroke" stroke-dasharray="150"><animate attributeName="stroke-dashoffset" from="150" to="0" dur="1.8s" begin="0s" fill="freeze" /></path><path d="M26.12,15.25c1.06,1.06,1.21,2.25,1.21,4c0,7.25,0.03,38.75,0.03,49.5" class="stroke" stroke-dasharray="150"><set attributeName="opacity" to="0" dur="1.0s" /><animate attributeName="stroke-dashoffset" from="150" to="0" dur="1.8s" begin="1.0s" fill="freeze" /></path><path d="M12,76.04c0.75,0.96,2.25,1.46,4.5,0.21c6.25-3.5,17.5-10,23.75-13.5" class="stroke" stroke-dasharray="150"><set attributeName="opacity" to="0" dur="2.3s" /><animate attributeName="stroke-dashoffset" from="150" to="0" dur="1.8s" begin="2.3s" fill="freeze" /></path><path d="M47.75,17.21c1.38,0.67,2.24,0.83,3.85,0.71c7.85-0.57,30.81-3.63,37.91-4.41c3.06-0.33,5.36,0.22,4.37,3.77c-0.87,3.11-1.75,6.43-2.92,11.77" class="stroke" stroke-dasharray="150"><set attributeName="opacity" to="0" dur="3.3s" /><animate attributeName="stroke-dashoffset" from="150" to="0" dur="1.8s" begin="3.3s" fill="freeze" /></path><path d="M51.95,34.55c7.68-1.05,24.69-3.3,35.81-4.49c2.91-0.31,5.09-0.27,6.04-0.31" class="stroke" stroke-dasharray="150"><set attributeName="opacity" to="0" dur="4.8s" /><animate attributeName="stroke-dashoffset" from="150" to="0" dur="1.8s" begin="4.8s" fill="freeze" /></path><path d="M50,18.5c1.06,1.06,0.86,1.88,0.88,3.38C51.12,55,50.25,75.12,36,90.75" class="stroke" stroke-dasharray="150"><set attributeName="opacity" to="0" dur="5.9s" /><animate attributeName="stroke-dashoffset" from="150" to="0" dur="1.8s" begin="5.9s" fill="freeze" /></path><path d="M59.46,39.29c2.46,1.58,6.36,6.51,6.98,8.97" class="stroke" stroke-dasharray="150"><set attributeName="opacity" to="0" dur="7.6000000000000005s" /><animate attributeName="stroke-dashoffset" from="150" to="0" dur="1.8s" begin="7.6000000000000005s" fill="freeze" /></path><path d="M86.55,34.89c0.11,0.83-0.01,1.62-0.37,2.37c-0.97,2.9-2.67,6.58-5.48,11.34" class="stroke" stroke-dasharray="150"><set attributeName="opacity" to="0" dur="8.5s" /><animate attributeName="stroke-dashoffset" from="150" to="0" dur="1.8s" begin="8.5s" fill="freeze" /></path><path d="M56.5,54.01c2.5,0.24,4.04,0.15,5.87-0.1c6.87-0.94,19.45-3.14,26.49-3.59c1.67-0.11,3.35-0.16,5,0.2" class="stroke" stroke-dasharray="150"><set attributeName="opacity" to="0" dur="9.4s" /><animate attributeName="stroke-dashoffset" from="150" to="0" dur="1.8s" begin="9.4s" fill="freeze" /></path><path d="M52.76,71.86c1.82,0.65,4,0.34,5.86,0.18c9.86-0.87,23.32-2.6,33.88-3.32c1.91-0.13,3.63-0.19,5.5,0.21" class="stroke" stroke-dasharray="150"><set attributeName="opacity" to="0" dur="10.4s" /><animate attributeName="stroke-dashoffset" from="150" to="0" dur="1.8s" begin="10.4s" fill="freeze" /></path><path d="M66.84,55.98c0.96,0.96,1.19,2.29,1.19,3.72c0,13.04-3.29,30.3-14.19,38.05" class="stroke" stroke-dasharray="150"><set attributeName="opacity" to="0" dur="11.6s" /><animate attributeName="stroke-dashoffset" from="150" to="0" dur="1.8s" begin="11.6s" fill="freeze" /></path><path d="M81.91,54.19c0.76,0.76,1.26,2.06,1.26,3.35c0,0.52,0.04,21.34,0.04,33.21c0,3.1-0.06,5.4-0.09,6.25" class="stroke" stroke-dasharray="150"><set attributeName="opacity" to="0" dur="12.799999999999999s" /><animate attributeName="stroke-dashoffset" from="150" to="0" dur="1.8s" begin="12.799999999999999s" fill="freeze" /></path><text x="90" y="120" id="reset">⟳</text><text x="70" y="120" id="pause">◼</text><script type="text/javascript"><![CDATA[function RecurringTimer(e,t){var n,r,i=t;this.pause=function(){window.clearTimeout(n);i-=new Date-r};var s=function(){r=new Date;n=window.setTimeout(function(){i=t;s();e()},i)};this.clear=function(){window.clearTimeout(n);i=t;n=window.setTimeout(function(){i=t;s();e()},i)};this.resume=s;this.resume()}function invoketimer(){timer=new RecurringTimer(function(){svg.setCurrentTime(0)},14899)}var svg=document.getElementById("kanjivg");var pause=document.getElementById("pause");var reset=document.getElementById("reset");var timer;invoketimer();reset.onclick=function(){svg.setCurrentTime(0);timer.clear();svg.unpauseAnimations();pause.innerHTML = "◼";};pause.onclick=function(){if(svg.animationsPaused()){svg.unpauseAnimations();timer.resume();pause.innerHTML="◼"}else{svg.pauseAnimations();timer.pause();pause.innerHTML="▶"}}]]></script></svg>