<svg id="kanjivg" width="106" height="126" xmlns="http://www.w3.org/2000/svg" xmlns:xlink="http://www.w3.org/1999/xlink" xml:space="preserve" version="1.1" baseProfile="full"><defs><style type="text/css"><![CDATA[path.black { fill:none;stroke:black;stroke-width:5;stroke-linecap:round;stroke-linejoin:round; }path.grey { fill:none;stroke:#ddd;stroke-width:5;stroke-linecap:round;stroke-linejoin:round; }path.stroke { fill:none;stroke:black;stroke-width:5;stroke-linecap:round;stroke-linejoin:round; }rect { fill:none;stroke:#555;stroke-width:2;} text{font-size:16px;font-family:Segoe UI Symbol,Cambria Math,DejaVu Sans,Symbola,Quivira,STIX,Code2000;-webkit-touch-callout:none;cursor:pointer;-webkit-user-select:none;-khtml-user-select:none;-moz-user-select:none;-ms-user-select:none;user-select: none;} #reset { font-weight:bold; }]]></style><marker id="markerStart" markerWidth="8" markerHeight="8" style="overflow:visible;"><circle cx="0" cy="0" r="1.5" style="stroke:none;fill:red;fill-opacity:0.5;"/></marker><marker id="markerEnd" style="overflow:visible;"><circle cx="0" cy="0" r="0.8" style="stroke:none;fill:blue;fill-opacity:0.5;"><animate attributeName="opacity" from="1" to="0" dur="3s" repeatCount="indefinite" /></circle></marker></defs><rect x="4" y="4" width="100" height="100" /><path d="M30.08,15.82c1.05,1.05,1.55,2.24,1.82,3.52c1.11,5.41,2.64,12.06,3.52,18.39c0.2,1.46,0.39,2.89,0.54,4.23" class="grey" /><path d="M32.13,17.15c11.66-1.09,31.24-2.65,42.61-3.37c3.62-0.23,5,0.84,4.27,4.25c-0.9,4.17-2.9,10.75-4.92,16.51c-0.59,1.67-1.17,3.25-1.73,4.65" class="grey" /><path d="M52.64,17.21c0.95,0.95,1.13,2.09,1.13,3.03c0,3.96,0.08,14.34,0.08,17.7" class="grey" /><path d="M34.81,28.13c4.69-0.75,36.19-2.88,41.32-2.98" class="grey" /><path d="M37.31,40.03c9.94-0.78,23.22-1.91,34.81-2.67" class="grey" /><path d="M26,44.25c4.15,1.5,10.71,6.17,11.75,8.5" class="grey" /><path d="M20.25,67.26c1.49,0.73,2.43,0.55,4.43-0.5c1.18-0.62,10.35-4.89,16.19-8.13" class="grey" /><path d="M81.01,40.14c0.11,0.83-0.38,1.8-0.99,2.38c-2.76,2.61-6.01,4.73-14.71,9.2" class="grey" /><path d="M69,58.25c6.79,1.76,17.55,7.26,19.25,10" class="grey" /><path d="M32.61,76.3c1.89,0.7,4,0.72,4.87,0.59c10.26-1.52,22.4-2.93,33.14-3.34c2.09-0.08,4.29,0.28,6.31,0.75" class="grey" /><path d="M53.09,63.87c0.96,0.96,1.34,2.12,1.34,3.79c0,4.1-0.06,17.52-0.06,22.1" class="grey" /><path d="M20.77,92.29c2.82,1,6.68,0.65,9.61,0.39c16.24-1.43,35.11-2.8,50.86-3.13c3.18-0.07,6.4,0.35,9.48,1.01" class="grey" /><path d="M30.08,15.82c1.05,1.05,1.55,2.24,1.82,3.52c1.11,5.41,2.64,12.06,3.52,18.39c0.2,1.46,0.39,2.89,0.54,4.23" class="stroke" stroke-dasharray="150"><animate attributeName="stroke-dashoffset" from="150" to="0" dur="1.8s" begin="0s" fill="freeze" /></path><path d="M32.13,17.15c11.66-1.09,31.24-2.65,42.61-3.37c3.62-0.23,5,0.84,4.27,4.25c-0.9,4.17-2.9,10.75-4.92,16.51c-0.59,1.67-1.17,3.25-1.73,4.65" class="stroke" stroke-dasharray="150"><set attributeName="opacity" to="0" dur="1.0s" /><animate attributeName="stroke-dashoffset" from="150" to="0" dur="1.8s" begin="1.0s" fill="freeze" /></path><path d="M52.64,17.21c0.95,0.95,1.13,2.09,1.13,3.03c0,3.96,0.08,14.34,0.08,17.7" class="stroke" stroke-dasharray="150"><set attributeName="opacity" to="0" dur="2.7s" /><animate attributeName="stroke-dashoffset" from="150" to="0" dur="1.8s" begin="2.7s" fill="freeze" /></path><path d="M34.81,28.13c4.69-0.75,36.19-2.88,41.32-2.98" class="stroke" stroke-dasharray="150"><set attributeName="opacity" to="0" dur="3.7s" /><animate attributeName="stroke-dashoffset" from="150" to="0" dur="1.8s" begin="3.7s" fill="freeze" /></path><path d="M37.31,40.03c9.94-0.78,23.22-1.91,34.81-2.67" class="stroke" stroke-dasharray="150"><set attributeName="opacity" to="0" dur="4.800000000000001s" /><animate attributeName="stroke-dashoffset" from="150" to="0" dur="1.8s" begin="4.800000000000001s" fill="freeze" /></path><path d="M26,44.25c4.15,1.5,10.71,6.17,11.75,8.5" class="stroke" stroke-dasharray="150"><set attributeName="opacity" to="0" dur="5.800000000000001s" /><animate attributeName="stroke-dashoffset" from="150" to="0" dur="1.8s" begin="5.800000000000001s" fill="freeze" /></path><path d="M20.25,67.26c1.49,0.73,2.43,0.55,4.43-0.5c1.18-0.62,10.35-4.89,16.19-8.13" class="stroke" stroke-dasharray="150"><set attributeName="opacity" to="0" dur="6.700000000000001s" /><animate attributeName="stroke-dashoffset" from="150" to="0" dur="1.8s" begin="6.700000000000001s" fill="freeze" /></path><path d="M81.01,40.14c0.11,0.83-0.38,1.8-0.99,2.38c-2.76,2.61-6.01,4.73-14.71,9.2" class="stroke" stroke-dasharray="150"><set attributeName="opacity" to="0" dur="7.700000000000001s" /><animate attributeName="stroke-dashoffset" from="150" to="0" dur="1.8s" begin="7.700000000000001s" fill="freeze" /></path><path d="M69,58.25c6.79,1.76,17.55,7.26,19.25,10" class="stroke" stroke-dasharray="150"><set attributeName="opacity" to="0" dur="8.700000000000001s" /><animate attributeName="stroke-dashoffset" from="150" to="0" dur="1.8s" begin="8.700000000000001s" fill="freeze" /></path><path d="M32.61,76.3c1.89,0.7,4,0.72,4.87,0.59c10.26-1.52,22.4-2.93,33.14-3.34c2.09-0.08,4.29,0.28,6.31,0.75" class="stroke" stroke-dasharray="150"><set attributeName="opacity" to="0" dur="9.700000000000001s" /><animate attributeName="stroke-dashoffset" from="150" to="0" dur="1.8s" begin="9.700000000000001s" fill="freeze" /></path><path d="M53.09,63.87c0.96,0.96,1.34,2.12,1.34,3.79c0,4.1-0.06,17.52-0.06,22.1" class="stroke" stroke-dasharray="150"><set attributeName="opacity" to="0" dur="10.8s" /><animate attributeName="stroke-dashoffset" from="150" to="0" dur="1.8s" begin="10.8s" fill="freeze" /></path><path d="M20.77,92.29c2.82,1,6.68,0.65,9.61,0.39c16.24-1.43,35.11-2.8,50.86-3.13c3.18-0.07,6.4,0.35,9.48,1.01" class="stroke" stroke-dasharray="150"><set attributeName="opacity" to="0" dur="11.8s" /><animate attributeName="stroke-dashoffset" from="150" to="0" dur="1.8s" begin="11.8s" fill="freeze" /></path><text x="90" y="120" id="reset">⟳</text><text x="70" y="120" id="pause">◼</text><script type="text/javascript"><![CDATA[function RecurringTimer(e,t){var n,r,i=t;this.pause=function(){window.clearTimeout(n);i-=new Date-r};var s=function(){r=new Date;n=window.setTimeout(function(){i=t;s();e()},i)};this.clear=function(){window.clearTimeout(n);i=t;n=window.setTimeout(function(){i=t;s();e()},i)};this.resume=s;this.resume()}function invoketimer(){timer=new RecurringTimer(function(){svg.setCurrentTime(0)},14500)}var svg=document.getElementById("kanjivg");var pause=document.getElementById("pause");var reset=document.getElementById("reset");var timer;invoketimer();reset.onclick=function(){svg.setCurrentTime(0);timer.clear();svg.unpauseAnimations();pause.innerHTML = "◼";};pause.onclick=function(){if(svg.animationsPaused()){svg.unpauseAnimations();timer.resume();pause.innerHTML="◼"}else{svg.pauseAnimations();timer.pause();pause.innerHTML="▶"}}]]></script></svg>