<svg id="kanjivg" width="106" height="126" xmlns="http://www.w3.org/2000/svg" xmlns:xlink="http://www.w3.org/1999/xlink" xml:space="preserve" version="1.1" baseProfile="full"><defs><style type="text/css"><![CDATA[path.black { fill:none;stroke:black;stroke-width:5;stroke-linecap:round;stroke-linejoin:round; }path.grey { fill:none;stroke:#ddd;stroke-width:5;stroke-linecap:round;stroke-linejoin:round; }path.stroke { fill:none;stroke:black;stroke-width:5;stroke-linecap:round;stroke-linejoin:round; }rect { fill:none;stroke:#555;stroke-width:2;} text{font-size:16px;font-family:Segoe UI Symbol,Cambria Math,DejaVu Sans,Symbola,Quivira,STIX,Code2000;-webkit-touch-callout:none;cursor:pointer;-webkit-user-select:none;-khtml-user-select:none;-moz-user-select:none;-ms-user-select:none;user-select: none;} #reset { font-weight:bold; }]]></style><marker id="markerStart" markerWidth="8" markerHeight="8" style="overflow:visible;"><circle cx="0" cy="0" r="1.5" style="stroke:none;fill:red;fill-opacity:0.5;"/></marker><marker id="markerEnd" style="overflow:visible;"><circle cx="0" cy="0" r="0.8" style="stroke:none;fill:blue;fill-opacity:0.5;"><animate attributeName="opacity" from="1" to="0" dur="3s" repeatCount="indefinite" /></circle></marker></defs><rect x="4" y="4" width="100" height="100" /><path d="M12.25,43.89c0.76,0.38,2.24,0.46,3,0.36c5.75-0.75,14.65-2.89,20-3.5c1.25-0.14,2.62-0.18,3.25,0.01" class="grey" /><path d="M24.37,18.75c1.09,0.5,1.74,2.25,1.96,3.25c0.22,1,0,42.25-0.22,48.5" class="grey" /><path d="M12,78.05c1.75,0.95,3.4,1.23,5.79-0.69c6.65-5.33,12.56-9.78,19.21-15.11" class="grey" /><path d="M66.35,12.38c1.9,0.82,5.91,6.12,6.28,7.76" class="grey" /><path d="M44.6,27.17c1.3,0.54,3.69,0.68,4.99,0.54c11.99-1.27,31.41-4.02,41.84-4.74c2.16-0.15,3.47,0.26,4.55,0.53" class="grey" /><path d="M48.66,28.27c0.03,1.43-0.06,3.68-0.06,5.73c0,20.53-4.96,43.93-13.02,54.9" class="grey" /><path d="M56.24,39.87c1.52,0.21,2.25,0.56,3.65,0.43c8.53-0.85,19.17-2.82,27.06-3.27c1.98-0.11,3.35,1.06,3.04,3.19c-0.8,5.56-1.5,12.03-2.94,19.87" class="grey" /><path d="M69.62,30.61c0.93,0.46,1.49,2.08,1.68,3.01c0.19,0.92,0.43,22.9,0.24,28.68" class="grey" /><path d="M51.35,51.67c1.37,0.21,2.45,0.66,3.96,0.43c10.19-1.59,30.38-4.42,40.88-5.05c1.68-0.1,3.8-0.02,4.57,0.2" class="grey" /><path d="M55.14,63.28c1,0.2,2.82,0.69,4.02,0.58c11.06-0.97,17.04-3.1,27.1-3.49c1.61-0.06,2.61,0,3.82,0.19" class="grey" /><path d="M55.42,73.7c0.52,0.39,1.05,0.73,1.28,1.22c1.8,3.92,3.24,15.29,4.47,22.33" class="grey" /><path d="M56.92,75.33c8.68-1.24,28.03-3.84,32.26-4.29c1.55-0.17,2.48,0.99,2.25,1.96c-0.92,4.04-2.92,12.82-4.28,18.41" class="grey" /><path d="M61.34,94.64c4.97-0.51,18.9-2.59,28.29-3.19" class="grey" /><path d="M12.25,43.89c0.76,0.38,2.24,0.46,3,0.36c5.75-0.75,14.65-2.89,20-3.5c1.25-0.14,2.62-0.18,3.25,0.01" class="stroke" stroke-dasharray="150"><animate attributeName="stroke-dashoffset" from="150" to="0" dur="1.8s" begin="0s" fill="freeze" /></path><path d="M24.37,18.75c1.09,0.5,1.74,2.25,1.96,3.25c0.22,1,0,42.25-0.22,48.5" class="stroke" stroke-dasharray="150"><set attributeName="opacity" to="0" dur="1.0s" /><animate attributeName="stroke-dashoffset" from="150" to="0" dur="1.8s" begin="1.0s" fill="freeze" /></path><path d="M12,78.05c1.75,0.95,3.4,1.23,5.79-0.69c6.65-5.33,12.56-9.78,19.21-15.11" class="stroke" stroke-dasharray="150"><set attributeName="opacity" to="0" dur="2.3s" /><animate attributeName="stroke-dashoffset" from="150" to="0" dur="1.8s" begin="2.3s" fill="freeze" /></path><path d="M66.35,12.38c1.9,0.82,5.91,6.12,6.28,7.76" class="stroke" stroke-dasharray="150"><set attributeName="opacity" to="0" dur="3.3s" /><animate attributeName="stroke-dashoffset" from="150" to="0" dur="1.8s" begin="3.3s" fill="freeze" /></path><path d="M44.6,27.17c1.3,0.54,3.69,0.68,4.99,0.54c11.99-1.27,31.41-4.02,41.84-4.74c2.16-0.15,3.47,0.26,4.55,0.53" class="stroke" stroke-dasharray="150"><set attributeName="opacity" to="0" dur="4.2s" /><animate attributeName="stroke-dashoffset" from="150" to="0" dur="1.8s" begin="4.2s" fill="freeze" /></path><path d="M48.66,28.27c0.03,1.43-0.06,3.68-0.06,5.73c0,20.53-4.96,43.93-13.02,54.9" class="stroke" stroke-dasharray="150"><set attributeName="opacity" to="0" dur="5.5s" /><animate attributeName="stroke-dashoffset" from="150" to="0" dur="1.8s" begin="5.5s" fill="freeze" /></path><path d="M56.24,39.87c1.52,0.21,2.25,0.56,3.65,0.43c8.53-0.85,19.17-2.82,27.06-3.27c1.98-0.11,3.35,1.06,3.04,3.19c-0.8,5.56-1.5,12.03-2.94,19.87" class="stroke" stroke-dasharray="150"><set attributeName="opacity" to="0" dur="7.0s" /><animate attributeName="stroke-dashoffset" from="150" to="0" dur="1.8s" begin="7.0s" fill="freeze" /></path><path d="M69.62,30.61c0.93,0.46,1.49,2.08,1.68,3.01c0.19,0.92,0.43,22.9,0.24,28.68" class="stroke" stroke-dasharray="150"><set attributeName="opacity" to="0" dur="8.4s" /><animate attributeName="stroke-dashoffset" from="150" to="0" dur="1.8s" begin="8.4s" fill="freeze" /></path><path d="M51.35,51.67c1.37,0.21,2.45,0.66,3.96,0.43c10.19-1.59,30.38-4.42,40.88-5.05c1.68-0.1,3.8-0.02,4.57,0.2" class="stroke" stroke-dasharray="150"><set attributeName="opacity" to="0" dur="9.4s" /><animate attributeName="stroke-dashoffset" from="150" to="0" dur="1.8s" begin="9.4s" fill="freeze" /></path><path d="M55.14,63.28c1,0.2,2.82,0.69,4.02,0.58c11.06-0.97,17.04-3.1,27.1-3.49c1.61-0.06,2.61,0,3.82,0.19" class="stroke" stroke-dasharray="150"><set attributeName="opacity" to="0" dur="10.6s" /><animate attributeName="stroke-dashoffset" from="150" to="0" dur="1.8s" begin="10.6s" fill="freeze" /></path><path d="M55.42,73.7c0.52,0.39,1.05,0.73,1.28,1.22c1.8,3.92,3.24,15.29,4.47,22.33" class="stroke" stroke-dasharray="150"><set attributeName="opacity" to="0" dur="11.6s" /><animate attributeName="stroke-dashoffset" from="150" to="0" dur="1.8s" begin="11.6s" fill="freeze" /></path><path d="M56.92,75.33c8.68-1.24,28.03-3.84,32.26-4.29c1.55-0.17,2.48,0.99,2.25,1.96c-0.92,4.04-2.92,12.82-4.28,18.41" class="stroke" stroke-dasharray="150"><set attributeName="opacity" to="0" dur="12.6s" /><animate attributeName="stroke-dashoffset" from="150" to="0" dur="1.8s" begin="12.6s" fill="freeze" /></path><path d="M61.34,94.64c4.97-0.51,18.9-2.59,28.29-3.19" class="stroke" stroke-dasharray="150"><set attributeName="opacity" to="0" dur="13.9s" /><animate attributeName="stroke-dashoffset" from="150" to="0" dur="1.8s" begin="13.9s" fill="freeze" /></path><text x="90" y="120" id="reset">⟳</text><text x="70" y="120" id="pause">◼</text><script type="text/javascript"><![CDATA[function RecurringTimer(e,t){var n,r,i=t;this.pause=function(){window.clearTimeout(n);i-=new Date-r};var s=function(){r=new Date;n=window.setTimeout(function(){i=t;s();e()},i)};this.clear=function(){window.clearTimeout(n);i=t;n=window.setTimeout(function(){i=t;s();e()},i)};this.resume=s;this.resume()}function invoketimer(){timer=new RecurringTimer(function(){svg.setCurrentTime(0)},15900)}var svg=document.getElementById("kanjivg");var pause=document.getElementById("pause");var reset=document.getElementById("reset");var timer;invoketimer();reset.onclick=function(){svg.setCurrentTime(0);timer.clear();svg.unpauseAnimations();pause.innerHTML = "◼";};pause.onclick=function(){if(svg.animationsPaused()){svg.unpauseAnimations();timer.resume();pause.innerHTML="◼"}else{svg.pauseAnimations();timer.pause();pause.innerHTML="▶"}}]]></script></svg>