<svg id="kanjivg" width="106" height="126" xmlns="http://www.w3.org/2000/svg" xmlns:xlink="http://www.w3.org/1999/xlink" xml:space="preserve" version="1.1" baseProfile="full"><defs><style type="text/css"><![CDATA[path.black { fill:none;stroke:black;stroke-width:5;stroke-linecap:round;stroke-linejoin:round; }path.grey { fill:none;stroke:#ddd;stroke-width:5;stroke-linecap:round;stroke-linejoin:round; }path.stroke { fill:none;stroke:black;stroke-width:5;stroke-linecap:round;stroke-linejoin:round; }rect { fill:none;stroke:#555;stroke-width:2;} text{font-size:16px;font-family:Segoe UI Symbol,Cambria Math,DejaVu Sans,Symbola,Quivira,STIX,Code2000;-webkit-touch-callout:none;cursor:pointer;-webkit-user-select:none;-khtml-user-select:none;-moz-user-select:none;-ms-user-select:none;user-select: none;} #reset { font-weight:bold; }]]></style><marker id="markerStart" markerWidth="8" markerHeight="8" style="overflow:visible;"><circle cx="0" cy="0" r="1.5" style="stroke:none;fill:red;fill-opacity:0.5;"/></marker><marker id="markerEnd" style="overflow:visible;"><circle cx="0" cy="0" r="0.8" style="stroke:none;fill:blue;fill-opacity:0.5;"><animate attributeName="opacity" from="1" to="0" dur="3s" repeatCount="indefinite" /></circle></marker></defs><rect x="4" y="4" width="100" height="100" /><path d="M22.56,16.46c2.58,1.79,6.66,7.36,7.3,10.15" class="grey" /><path d="M47.04,13.64c0.03,0.37,0.12,0.98-0.05,1.5c-1.11,3.49-3.61,7.99-6.45,11.87" class="grey" /><path d="M14.75,32.4c2,0.64,4.73,0.37,6.76,0.07c8.27-1.21,20.13-2.55,26.86-2.93c2.24-0.13,4.88-0.29,6.82-0.02" class="grey" /><path d="M21.39,40.59c0.82,0.82,0.82,2.03,0.71,3.21c-0.19,2.08-0.31,4.2-0.41,7.07c-0.1,2.68-0.61,3.92,2.46,3.5c7.25-0.99,15.62-1.86,25.58-3.02" class="grey" /><path d="M51.52,36.75c0.6,1,0.6,2.13,0.49,3.25c-0.38,3.68-0.56,5.04-1,9.46c-0.14,1.41-0.3,3.05-0.48,5.06" class="grey" /><path d="M35.96,33.8c0.8,0.8,0.91,2,0.86,3.4C36.5,46.75,36,64.12,20.78,74.97" class="grey" /><path d="M66.72,17.77c0.76,0.76,0.91,1.86,0.95,3.14c0.58,17.09-0.3,33.84-7.22,43.87" class="grey" /><path d="M68.31,19.22c2.9-0.17,16.46-2.35,18.62-2.52c2.32-0.19,3.33,1.18,3.33,3.33c0,4.48,0.03,23.73,0.03,37.91c0,10.59-4.59,3.53-7.01,1.96" class="grey" /><path d="M68.84,32c6.28-0.75,13.63-1.47,19.91-1.99" class="grey" /><path d="M67.58,44.85c7.72-0.57,12.55-1.39,21.48-1.77" class="grey" /><path d="M34.74,74.95c2.26,0.68,4.5,0.55,6.52,0.36C51,74.38,60,73.12,70.14,72.36c2.25-0.17,4.48-0.26,6.69,0.25" class="grey" /><path d="M53.47,63.05c1.05,1.05,1.25,2.5,1.25,4.35c0,5.85-0.11,17.85-0.11,24.58" class="grey" /><path d="M18.38,93.8c4.25,0.95,7.91,0.93,11.62,0.55c19.25-1.97,38.37-2.54,54.27-3.28c3.56-0.16,7.74,0.31,10.86,1.13" class="grey" /><path d="M22.56,16.46c2.58,1.79,6.66,7.36,7.3,10.15" class="stroke" stroke-dasharray="150"><animate attributeName="stroke-dashoffset" from="150" to="0" dur="1.8s" begin="0s" fill="freeze" /></path><path d="M47.04,13.64c0.03,0.37,0.12,0.98-0.05,1.5c-1.11,3.49-3.61,7.99-6.45,11.87" class="stroke" stroke-dasharray="150"><set attributeName="opacity" to="0" dur="0.9s" /><animate attributeName="stroke-dashoffset" from="150" to="0" dur="1.8s" begin="0.9s" fill="freeze" /></path><path d="M14.75,32.4c2,0.64,4.73,0.37,6.76,0.07c8.27-1.21,20.13-2.55,26.86-2.93c2.24-0.13,4.88-0.29,6.82-0.02" class="stroke" stroke-dasharray="150"><set attributeName="opacity" to="0" dur="1.8s" /><animate attributeName="stroke-dashoffset" from="150" to="0" dur="1.8s" begin="1.8s" fill="freeze" /></path><path d="M21.39,40.59c0.82,0.82,0.82,2.03,0.71,3.21c-0.19,2.08-0.31,4.2-0.41,7.07c-0.1,2.68-0.61,3.92,2.46,3.5c7.25-0.99,15.62-1.86,25.58-3.02" class="stroke" stroke-dasharray="150"><set attributeName="opacity" to="0" dur="2.9000000000000004s" /><animate attributeName="stroke-dashoffset" from="150" to="0" dur="1.8s" begin="2.9000000000000004s" fill="freeze" /></path><path d="M51.52,36.75c0.6,1,0.6,2.13,0.49,3.25c-0.38,3.68-0.56,5.04-1,9.46c-0.14,1.41-0.3,3.05-0.48,5.06" class="stroke" stroke-dasharray="150"><set attributeName="opacity" to="0" dur="4.0s" /><animate attributeName="stroke-dashoffset" from="150" to="0" dur="1.8s" begin="4.0s" fill="freeze" /></path><path d="M35.96,33.8c0.8,0.8,0.91,2,0.86,3.4C36.5,46.75,36,64.12,20.78,74.97" class="stroke" stroke-dasharray="150"><set attributeName="opacity" to="0" dur="4.9s" /><animate attributeName="stroke-dashoffset" from="150" to="0" dur="1.8s" begin="4.9s" fill="freeze" /></path><path d="M66.72,17.77c0.76,0.76,0.91,1.86,0.95,3.14c0.58,17.09-0.3,33.84-7.22,43.87" class="stroke" stroke-dasharray="150"><set attributeName="opacity" to="0" dur="6.1000000000000005s" /><animate attributeName="stroke-dashoffset" from="150" to="0" dur="1.8s" begin="6.1000000000000005s" fill="freeze" /></path><path d="M68.31,19.22c2.9-0.17,16.46-2.35,18.62-2.52c2.32-0.19,3.33,1.18,3.33,3.33c0,4.48,0.03,23.73,0.03,37.91c0,10.59-4.59,3.53-7.01,1.96" class="stroke" stroke-dasharray="150"><set attributeName="opacity" to="0" dur="7.300000000000001s" /><animate attributeName="stroke-dashoffset" from="150" to="0" dur="1.8s" begin="7.300000000000001s" fill="freeze" /></path><path d="M68.84,32c6.28-0.75,13.63-1.47,19.91-1.99" class="stroke" stroke-dasharray="150"><set attributeName="opacity" to="0" dur="9.0s" /><animate attributeName="stroke-dashoffset" from="150" to="0" dur="1.8s" begin="9.0s" fill="freeze" /></path><path d="M67.58,44.85c7.72-0.57,12.55-1.39,21.48-1.77" class="stroke" stroke-dasharray="150"><set attributeName="opacity" to="0" dur="10.0s" /><animate attributeName="stroke-dashoffset" from="150" to="0" dur="1.8s" begin="10.0s" fill="freeze" /></path><path d="M34.74,74.95c2.26,0.68,4.5,0.55,6.52,0.36C51,74.38,60,73.12,70.14,72.36c2.25-0.17,4.48-0.26,6.69,0.25" class="stroke" stroke-dasharray="150"><set attributeName="opacity" to="0" dur="11.0s" /><animate attributeName="stroke-dashoffset" from="150" to="0" dur="1.8s" begin="11.0s" fill="freeze" /></path><path d="M53.47,63.05c1.05,1.05,1.25,2.5,1.25,4.35c0,5.85-0.11,17.85-0.11,24.58" class="stroke" stroke-dasharray="150"><set attributeName="opacity" to="0" dur="12.1s" /><animate attributeName="stroke-dashoffset" from="150" to="0" dur="1.8s" begin="12.1s" fill="freeze" /></path><path d="M18.38,93.8c4.25,0.95,7.91,0.93,11.62,0.55c19.25-1.97,38.37-2.54,54.27-3.28c3.56-0.16,7.74,0.31,10.86,1.13" class="stroke" stroke-dasharray="150"><set attributeName="opacity" to="0" dur="13.1s" /><animate attributeName="stroke-dashoffset" from="150" to="0" dur="1.8s" begin="13.1s" fill="freeze" /></path><text x="90" y="120" id="reset">⟳</text><text x="70" y="120" id="pause">◼</text><script type="text/javascript"><![CDATA[function RecurringTimer(e,t){var n,r,i=t;this.pause=function(){window.clearTimeout(n);i-=new Date-r};var s=function(){r=new Date;n=window.setTimeout(function(){i=t;s();e()},i)};this.clear=function(){window.clearTimeout(n);i=t;n=window.setTimeout(function(){i=t;s();e()},i)};this.resume=s;this.resume()}function invoketimer(){timer=new RecurringTimer(function(){svg.setCurrentTime(0)},15799)}var svg=document.getElementById("kanjivg");var pause=document.getElementById("pause");var reset=document.getElementById("reset");var timer;invoketimer();reset.onclick=function(){svg.setCurrentTime(0);timer.clear();svg.unpauseAnimations();pause.innerHTML = "◼";};pause.onclick=function(){if(svg.animationsPaused()){svg.unpauseAnimations();timer.resume();pause.innerHTML="◼"}else{svg.pauseAnimations();timer.pause();pause.innerHTML="▶"}}]]></script></svg>