<svg id="kanjivg" width="106" height="126" xmlns="http://www.w3.org/2000/svg" xmlns:xlink="http://www.w3.org/1999/xlink" xml:space="preserve" version="1.1" baseProfile="full"><defs><style type="text/css"><![CDATA[path.black { fill:none;stroke:black;stroke-width:5;stroke-linecap:round;stroke-linejoin:round; }path.grey { fill:none;stroke:#ddd;stroke-width:5;stroke-linecap:round;stroke-linejoin:round; }path.stroke { fill:none;stroke:black;stroke-width:5;stroke-linecap:round;stroke-linejoin:round; }rect { fill:none;stroke:#555;stroke-width:2;} text{font-size:16px;font-family:Segoe UI Symbol,Cambria Math,DejaVu Sans,Symbola,Quivira,STIX,Code2000;-webkit-touch-callout:none;cursor:pointer;-webkit-user-select:none;-khtml-user-select:none;-moz-user-select:none;-ms-user-select:none;user-select: none;} #reset { font-weight:bold; }]]></style><marker id="markerStart" markerWidth="8" markerHeight="8" style="overflow:visible;"><circle cx="0" cy="0" r="1.5" style="stroke:none;fill:red;fill-opacity:0.5;"/></marker><marker id="markerEnd" style="overflow:visible;"><circle cx="0" cy="0" r="0.8" style="stroke:none;fill:blue;fill-opacity:0.5;"><animate attributeName="opacity" from="1" to="0" dur="3s" repeatCount="indefinite" /></circle></marker></defs><rect x="4" y="4" width="100" height="100" /><path d="M52.39,10c0.99,0.99,1.48,2.12,1.48,3.42c0,3.08-0.08,3.95-0.08,6.77" class="grey" /><path d="M21.41,22.48c0,3.31-3.02,13.82-4.16,16.02" class="grey" /><path d="M21.88,24.09c27-2.34,57.85-4.34,63.9-4.34c10.48,0,1.16,6.58-0.35,7.26" class="grey" /><path d="M29,35.84c2.92,0.33,5.83,0.33,8.75,0.02c8.39-0.44,22.23-1.28,31.37-2.05c2.56-0.22,5.08-0.45,7.62-0.09" class="grey" /><path d="M41.43,28.13c0.9,0.9,1.61,1.95,1.67,3.5c0.28,8.12,0.4,16.62,0.78,24.62" class="grey" /><path d="M62.81,26.38c0.56,0.99,0.59,2.34,0.51,3.25c-0.57,6.62-1.57,15.24-2.57,25.49" class="grey" /><path d="M29,46.65c2.53,0.37,5.08,0.49,7.63,0.35c7.82-0.62,23.62-2.02,32.37-2.73c2.42-0.39,4.84-0.36,7.25,0.1" class="grey" /><path d="M19,58.8c3.46,0.35,6.92,0.24,10.39-0.1c13.48-1.32,37.72-2.73,50.49-3.26c3.48-0.19,6.94,0,10.37,0.56" class="grey" /><path d="M41.95,60.5c-0.1,1.27-0.68,2.26-1.53,3.15c-6.92,7.23-15.05,12.73-26.17,18.6" class="grey" /><path d="M62.38,58.75c8.88,7.12,14.03,12.14,19.96,16.19c3.28,2.26,5.54,3.81,9.67,5.31" class="grey" /><path d="M34.85,78.71c2.77,0.47,5.48,0,8.32-0.32c7.83-0.89,15.54-1.8,22.58-2.37c2.47-0.2,4.88-0.36,7.3,0.03" class="grey" /><path d="M53.51,64.12c0.69,0.69,1.05,1.62,1.05,2.98c0,8.79-0.01,13.17-0.01,24.8" class="grey" /><path d="M25.1,94.13c3.58,0.52,7.16,0.37,10.78,0.12c12.2-0.83,28.92-1.91,40.11-2.51c3.51-0.14,6.97,0.13,10.4,0.83" class="grey" /><path d="M52.39,10c0.99,0.99,1.48,2.12,1.48,3.42c0,3.08-0.08,3.95-0.08,6.77" class="stroke" stroke-dasharray="150"><animate attributeName="stroke-dashoffset" from="150" to="0" dur="1.8s" begin="0s" fill="freeze" /></path><path d="M21.41,22.48c0,3.31-3.02,13.82-4.16,16.02" class="stroke" stroke-dasharray="150"><set attributeName="opacity" to="0" dur="0.9s" /><animate attributeName="stroke-dashoffset" from="150" to="0" dur="1.8s" begin="0.9s" fill="freeze" /></path><path d="M21.88,24.09c27-2.34,57.85-4.34,63.9-4.34c10.48,0,1.16,6.58-0.35,7.26" class="stroke" stroke-dasharray="150"><set attributeName="opacity" to="0" dur="1.8s" /><animate attributeName="stroke-dashoffset" from="150" to="0" dur="1.8s" begin="1.8s" fill="freeze" /></path><path d="M29,35.84c2.92,0.33,5.83,0.33,8.75,0.02c8.39-0.44,22.23-1.28,31.37-2.05c2.56-0.22,5.08-0.45,7.62-0.09" class="stroke" stroke-dasharray="150"><set attributeName="opacity" to="0" dur="3.5s" /><animate attributeName="stroke-dashoffset" from="150" to="0" dur="1.8s" begin="3.5s" fill="freeze" /></path><path d="M41.43,28.13c0.9,0.9,1.61,1.95,1.67,3.5c0.28,8.12,0.4,16.62,0.78,24.62" class="stroke" stroke-dasharray="150"><set attributeName="opacity" to="0" dur="4.7s" /><animate attributeName="stroke-dashoffset" from="150" to="0" dur="1.8s" begin="4.7s" fill="freeze" /></path><path d="M62.81,26.38c0.56,0.99,0.59,2.34,0.51,3.25c-0.57,6.62-1.57,15.24-2.57,25.49" class="stroke" stroke-dasharray="150"><set attributeName="opacity" to="0" dur="5.7s" /><animate attributeName="stroke-dashoffset" from="150" to="0" dur="1.8s" begin="5.7s" fill="freeze" /></path><path d="M29,46.65c2.53,0.37,5.08,0.49,7.63,0.35c7.82-0.62,23.62-2.02,32.37-2.73c2.42-0.39,4.84-0.36,7.25,0.1" class="stroke" stroke-dasharray="150"><set attributeName="opacity" to="0" dur="6.7s" /><animate attributeName="stroke-dashoffset" from="150" to="0" dur="1.8s" begin="6.7s" fill="freeze" /></path><path d="M19,58.8c3.46,0.35,6.92,0.24,10.39-0.1c13.48-1.32,37.72-2.73,50.49-3.26c3.48-0.19,6.94,0,10.37,0.56" class="stroke" stroke-dasharray="150"><set attributeName="opacity" to="0" dur="7.9s" /><animate attributeName="stroke-dashoffset" from="150" to="0" dur="1.8s" begin="7.9s" fill="freeze" /></path><path d="M41.95,60.5c-0.1,1.27-0.68,2.26-1.53,3.15c-6.92,7.23-15.05,12.73-26.17,18.6" class="stroke" stroke-dasharray="150"><set attributeName="opacity" to="0" dur="9.6s" /><animate attributeName="stroke-dashoffset" from="150" to="0" dur="1.8s" begin="9.6s" fill="freeze" /></path><path d="M62.38,58.75c8.88,7.12,14.03,12.14,19.96,16.19c3.28,2.26,5.54,3.81,9.67,5.31" class="stroke" stroke-dasharray="150"><set attributeName="opacity" to="0" dur="10.6s" /><animate attributeName="stroke-dashoffset" from="150" to="0" dur="1.8s" begin="10.6s" fill="freeze" /></path><path d="M34.85,78.71c2.77,0.47,5.48,0,8.32-0.32c7.83-0.89,15.54-1.8,22.58-2.37c2.47-0.2,4.88-0.36,7.3,0.03" class="stroke" stroke-dasharray="150"><set attributeName="opacity" to="0" dur="11.6s" /><animate attributeName="stroke-dashoffset" from="150" to="0" dur="1.8s" begin="11.6s" fill="freeze" /></path><path d="M53.51,64.12c0.69,0.69,1.05,1.62,1.05,2.98c0,8.79-0.01,13.17-0.01,24.8" class="stroke" stroke-dasharray="150"><set attributeName="opacity" to="0" dur="12.6s" /><animate attributeName="stroke-dashoffset" from="150" to="0" dur="1.8s" begin="12.6s" fill="freeze" /></path><path d="M25.1,94.13c3.58,0.52,7.16,0.37,10.78,0.12c12.2-0.83,28.92-1.91,40.11-2.51c3.51-0.14,6.97,0.13,10.4,0.83" class="stroke" stroke-dasharray="150"><set attributeName="opacity" to="0" dur="13.6s" /><animate attributeName="stroke-dashoffset" from="150" to="0" dur="1.8s" begin="13.6s" fill="freeze" /></path><text x="90" y="120" id="reset">⟳</text><text x="70" y="120" id="pause">◼</text><script type="text/javascript"><![CDATA[function RecurringTimer(e,t){var n,r,i=t;this.pause=function(){window.clearTimeout(n);i-=new Date-r};var s=function(){r=new Date;n=window.setTimeout(function(){i=t;s();e()},i)};this.clear=function(){window.clearTimeout(n);i=t;n=window.setTimeout(function(){i=t;s();e()},i)};this.resume=s;this.resume()}function invoketimer(){timer=new RecurringTimer(function(){svg.setCurrentTime(0)},16100)}var svg=document.getElementById("kanjivg");var pause=document.getElementById("pause");var reset=document.getElementById("reset");var timer;invoketimer();reset.onclick=function(){svg.setCurrentTime(0);timer.clear();svg.unpauseAnimations();pause.innerHTML = "◼";};pause.onclick=function(){if(svg.animationsPaused()){svg.unpauseAnimations();timer.resume();pause.innerHTML="◼"}else{svg.pauseAnimations();timer.pause();pause.innerHTML="▶"}}]]></script></svg>