<svg id="kanjivg" width="106" height="126" xmlns="http://www.w3.org/2000/svg" xmlns:xlink="http://www.w3.org/1999/xlink" xml:space="preserve" version="1.1" baseProfile="full"><defs><style type="text/css"><![CDATA[path.black { fill:none;stroke:black;stroke-width:5;stroke-linecap:round;stroke-linejoin:round; }path.grey { fill:none;stroke:#ddd;stroke-width:5;stroke-linecap:round;stroke-linejoin:round; }path.stroke { fill:none;stroke:black;stroke-width:5;stroke-linecap:round;stroke-linejoin:round; }rect { fill:none;stroke:#555;stroke-width:2;} text{font-size:16px;font-family:Segoe UI Symbol,Cambria Math,DejaVu Sans,Symbola,Quivira,STIX,Code2000;-webkit-touch-callout:none;cursor:pointer;-webkit-user-select:none;-khtml-user-select:none;-moz-user-select:none;-ms-user-select:none;user-select: none;} #reset { font-weight:bold; }]]></style><marker id="markerStart" markerWidth="8" markerHeight="8" style="overflow:visible;"><circle cx="0" cy="0" r="1.5" style="stroke:none;fill:red;fill-opacity:0.5;"/></marker><marker id="markerEnd" style="overflow:visible;"><circle cx="0" cy="0" r="0.8" style="stroke:none;fill:blue;fill-opacity:0.5;"><animate attributeName="opacity" from="1" to="0" dur="3s" repeatCount="indefinite" /></circle></marker></defs><rect x="4" y="4" width="100" height="100" /><path d="M25.12,13.88c2.29,1.49,5.78,5.62,6.24,7.5" class="grey" /><path d="M15.78,26.58c2.85,1.54,7.25,5.63,7.87,7.43" class="grey" /><path d="M15.73,59.43c1.65,0.57,2.51,0.1,3.7-1.25c3.44-3.92,6.32-7.81,10.51-13.91" class="grey" /><path d="M62.51,12.5c0.07,0.58,0.25,1.55-0.14,2.34c-2.42,4.96-10.84,14.36-24.25,22.41" class="grey" /><path d="M63.19,14.82c3.34,2.85,15.25,11.11,22.37,15.55c2.65,1.65,5.66,2.99,8.58,4.06" class="grey" /><path d="M53.21,33.06c0.88,0.41,2.6,0.33,3.53,0.21c3.9-0.48,9.47-1.61,13.13-2.12c1.2-0.17,2.33-0.34,3.53-0.04" class="grey" /><path d="M45.93,43.35c2.19,0.27,3.95,0.14,5.71-0.06c6.85-0.78,17.89-2.2,24.23-2.72c1.8-0.15,3.58-0.36,5.35,0.06" class="grey" /><path d="M62.55,34.49c0.73,0.73,1.16,2.01,1.16,3.33c0,6.93-0.09,17.61-0.09,21.05c0,7.81-4.6,1.84-5.69,0.97" class="grey" /><path d="M50.06,49.12c0.13,0.96-0.31,1.6-0.92,2.39c-2.37,3.04-7.42,6.67-15.07,11.05" class="grey" /><path d="M74.21,49.22c4.43,2.04,10.17,7.28,12.55,11.55" class="grey" /><path d="M29.63,79.51c2.32,0.73,5.5,0.46,7.88,0.18C48.5,78.38,60.74,77.38,71,76.85c2.76-0.14,5.44-0.16,8.13,0.36" class="grey" /><path d="M53.42,67.37c0.98,0.98,1.27,2.27,1.27,4.14c0,5.5-0.07,15.51-0.07,21.62" class="grey" /><path d="M15.13,95.42c3.14,0.76,6.32,0.94,9.49,0.64c18.15-1.73,42.27-2.88,58.26-3.37c3.63-0.11,7.25,0.05,10.5,0.94" class="grey" /><path d="M25.12,13.88c2.29,1.49,5.78,5.62,6.24,7.5" class="stroke" stroke-dasharray="150"><animate attributeName="stroke-dashoffset" from="150" to="0" dur="1.8s" begin="0s" fill="freeze" /></path><path d="M15.78,26.58c2.85,1.54,7.25,5.63,7.87,7.43" class="stroke" stroke-dasharray="150"><set attributeName="opacity" to="0" dur="0.9s" /><animate attributeName="stroke-dashoffset" from="150" to="0" dur="1.8s" begin="0.9s" fill="freeze" /></path><path d="M15.73,59.43c1.65,0.57,2.51,0.1,3.7-1.25c3.44-3.92,6.32-7.81,10.51-13.91" class="stroke" stroke-dasharray="150"><set attributeName="opacity" to="0" dur="1.8s" /><animate attributeName="stroke-dashoffset" from="150" to="0" dur="1.8s" begin="1.8s" fill="freeze" /></path><path d="M62.51,12.5c0.07,0.58,0.25,1.55-0.14,2.34c-2.42,4.96-10.84,14.36-24.25,22.41" class="stroke" stroke-dasharray="150"><set attributeName="opacity" to="0" dur="2.8s" /><animate attributeName="stroke-dashoffset" from="150" to="0" dur="1.8s" begin="2.8s" fill="freeze" /></path><path d="M63.19,14.82c3.34,2.85,15.25,11.11,22.37,15.55c2.65,1.65,5.66,2.99,8.58,4.06" class="stroke" stroke-dasharray="150"><set attributeName="opacity" to="0" dur="3.8s" /><animate attributeName="stroke-dashoffset" from="150" to="0" dur="1.8s" begin="3.8s" fill="freeze" /></path><path d="M53.21,33.06c0.88,0.41,2.6,0.33,3.53,0.21c3.9-0.48,9.47-1.61,13.13-2.12c1.2-0.17,2.33-0.34,3.53-0.04" class="stroke" stroke-dasharray="150"><set attributeName="opacity" to="0" dur="4.8s" /><animate attributeName="stroke-dashoffset" from="150" to="0" dur="1.8s" begin="4.8s" fill="freeze" /></path><path d="M45.93,43.35c2.19,0.27,3.95,0.14,5.71-0.06c6.85-0.78,17.89-2.2,24.23-2.72c1.8-0.15,3.58-0.36,5.35,0.06" class="stroke" stroke-dasharray="150"><set attributeName="opacity" to="0" dur="5.8s" /><animate attributeName="stroke-dashoffset" from="150" to="0" dur="1.8s" begin="5.8s" fill="freeze" /></path><path d="M62.55,34.49c0.73,0.73,1.16,2.01,1.16,3.33c0,6.93-0.09,17.61-0.09,21.05c0,7.81-4.6,1.84-5.69,0.97" class="stroke" stroke-dasharray="150"><set attributeName="opacity" to="0" dur="6.8s" /><animate attributeName="stroke-dashoffset" from="150" to="0" dur="1.8s" begin="6.8s" fill="freeze" /></path><path d="M50.06,49.12c0.13,0.96-0.31,1.6-0.92,2.39c-2.37,3.04-7.42,6.67-15.07,11.05" class="stroke" stroke-dasharray="150"><set attributeName="opacity" to="0" dur="7.8s" /><animate attributeName="stroke-dashoffset" from="150" to="0" dur="1.8s" begin="7.8s" fill="freeze" /></path><path d="M74.21,49.22c4.43,2.04,10.17,7.28,12.55,11.55" class="stroke" stroke-dasharray="150"><set attributeName="opacity" to="0" dur="8.8s" /><animate attributeName="stroke-dashoffset" from="150" to="0" dur="1.8s" begin="8.8s" fill="freeze" /></path><path d="M29.63,79.51c2.32,0.73,5.5,0.46,7.88,0.18C48.5,78.38,60.74,77.38,71,76.85c2.76-0.14,5.44-0.16,8.13,0.36" class="stroke" stroke-dasharray="150"><set attributeName="opacity" to="0" dur="9.700000000000001s" /><animate attributeName="stroke-dashoffset" from="150" to="0" dur="1.8s" begin="9.700000000000001s" fill="freeze" /></path><path d="M53.42,67.37c0.98,0.98,1.27,2.27,1.27,4.14c0,5.5-0.07,15.51-0.07,21.62" class="stroke" stroke-dasharray="150"><set attributeName="opacity" to="0" dur="10.9s" /><animate attributeName="stroke-dashoffset" from="150" to="0" dur="1.8s" begin="10.9s" fill="freeze" /></path><path d="M15.13,95.42c3.14,0.76,6.32,0.94,9.49,0.64c18.15-1.73,42.27-2.88,58.26-3.37c3.63-0.11,7.25,0.05,10.5,0.94" class="stroke" stroke-dasharray="150"><set attributeName="opacity" to="0" dur="11.9s" /><animate attributeName="stroke-dashoffset" from="150" to="0" dur="1.8s" begin="11.9s" fill="freeze" /></path><text x="90" y="120" id="reset">⟳</text><text x="70" y="120" id="pause">◼</text><script type="text/javascript"><![CDATA[function RecurringTimer(e,t){var n,r,i=t;this.pause=function(){window.clearTimeout(n);i-=new Date-r};var s=function(){r=new Date;n=window.setTimeout(function(){i=t;s();e()},i)};this.clear=function(){window.clearTimeout(n);i=t;n=window.setTimeout(function(){i=t;s();e()},i)};this.resume=s;this.resume()}function invoketimer(){timer=new RecurringTimer(function(){svg.setCurrentTime(0)},14600)}var svg=document.getElementById("kanjivg");var pause=document.getElementById("pause");var reset=document.getElementById("reset");var timer;invoketimer();reset.onclick=function(){svg.setCurrentTime(0);timer.clear();svg.unpauseAnimations();pause.innerHTML = "◼";};pause.onclick=function(){if(svg.animationsPaused()){svg.unpauseAnimations();timer.resume();pause.innerHTML="◼"}else{svg.pauseAnimations();timer.pause();pause.innerHTML="▶"}}]]></script></svg>