<svg id="kanjivg" width="106" height="126" xmlns="http://www.w3.org/2000/svg" xmlns:xlink="http://www.w3.org/1999/xlink" xml:space="preserve" version="1.1" baseProfile="full"><defs><style type="text/css"><![CDATA[path.black { fill:none;stroke:black;stroke-width:5;stroke-linecap:round;stroke-linejoin:round; }path.grey { fill:none;stroke:#ddd;stroke-width:5;stroke-linecap:round;stroke-linejoin:round; }path.stroke { fill:none;stroke:black;stroke-width:5;stroke-linecap:round;stroke-linejoin:round; }rect { fill:none;stroke:#555;stroke-width:2;} text{font-size:16px;font-family:Segoe UI Symbol,Cambria Math,DejaVu Sans,Symbola,Quivira,STIX,Code2000;-webkit-touch-callout:none;cursor:pointer;-webkit-user-select:none;-khtml-user-select:none;-moz-user-select:none;-ms-user-select:none;user-select: none;} #reset { font-weight:bold; }]]></style><marker id="markerStart" markerWidth="8" markerHeight="8" style="overflow:visible;"><circle cx="0" cy="0" r="1.5" style="stroke:none;fill:red;fill-opacity:0.5;"/></marker><marker id="markerEnd" style="overflow:visible;"><circle cx="0" cy="0" r="0.8" style="stroke:none;fill:blue;fill-opacity:0.5;"><animate attributeName="opacity" from="1" to="0" dur="3s" repeatCount="indefinite" /></circle></marker></defs><rect x="4" y="4" width="100" height="100" /><path d="M22.31,16.08c2.75,1.9,7.12,7.82,7.8,10.77" class="grey" /><path d="M48.04,13.39c0.02,0.31,0.04,0.81-0.04,1.26c-0.52,2.66-3.47,8.51-7.52,12.09" class="grey" /><path d="M14.75,32.15c0.91,0.29,2.56,0.31,3.48,0.29c7.38-0.21,28.2-3.54,33.79-3.2c1.51,0.09,2.42,0.14,3.17,0.28" class="grey" /><path d="M21.14,39.59c0.73,0.34,1.55,1.78,1.46,2.46c-0.56,4.07-0.8,6.48-0.97,10.38c-0.07,1.56-0.36,2.34,1.45,2.09c7.41-1.05,16.94-1.95,27.39-3.17" class="grey" /><path d="M50.47,35.87c0.73,0.34,1.51,2.53,1.46,3.22c-0.31,4.83-0.55,6.92-1.21,15.17" class="grey" /><path d="M36.21,33.8c0.56,1.12,0.86,2.5,0.86,3.9c0,10.55-2.07,27.05-16.29,37.27" class="grey" /><path d="M66.47,17.52c0.48,0.63,0.79,1.26,0.95,1.89c0.16,0.63,0.16,15.23,0.16,16.66c0,11.63-2.37,23.18-7.13,28.72" class="grey" /><path d="M68.31,19.22c2.9-0.17,16.46-2.1,18.62-2.27c2.32-0.19,4.31,2.27,3.83,3.33c-0.46,1.01-0.72,23.48-0.72,37.66c0,10.59-4.34,3.53-6.76,1.96" class="grey" /><path d="M67.84,32.01c3.55-0.23,6.6-0.56,10.15-0.88c0.99-0.09,1.99-0.18,2.98-0.27" class="grey" /><path d="M67.58,44.85c3.43-0.25,6.86-0.56,10.29-0.83c0.82-0.06,1.65-0.13,2.51-0.19" class="grey" /><path d="M34.99,75.7c0.97,0.38,2.75,0.48,3.71,0.38c12.45-1.28,22.2-3.5,34.74-3.83c1.62-0.04,2.58,0.18,3.39,0.37" class="grey" /><path d="M52.97,63.05c0.12,0.29,1.75,1.5,1.75,3.35c0,11.85-0.36,9.92-0.36,25.58" class="grey" /><path d="M17.38,94.3c1.5,0.53,4.25,0.68,5.75,0.53c21.62-2.08,46.37-3.33,64.25-4.16c2.5-0.12,4.87,0.33,6.75,1.02" class="grey" /><path d="M22.31,16.08c2.75,1.9,7.12,7.82,7.8,10.77" class="stroke" stroke-dasharray="150"><animate attributeName="stroke-dashoffset" from="150" to="0" dur="1.8s" begin="0s" fill="freeze" /></path><path d="M48.04,13.39c0.02,0.31,0.04,0.81-0.04,1.26c-0.52,2.66-3.47,8.51-7.52,12.09" class="stroke" stroke-dasharray="150"><set attributeName="opacity" to="0" dur="0.9s" /><animate attributeName="stroke-dashoffset" from="150" to="0" dur="1.8s" begin="0.9s" fill="freeze" /></path><path d="M14.75,32.15c0.91,0.29,2.56,0.31,3.48,0.29c7.38-0.21,28.2-3.54,33.79-3.2c1.51,0.09,2.42,0.14,3.17,0.28" class="stroke" stroke-dasharray="150"><set attributeName="opacity" to="0" dur="1.8s" /><animate attributeName="stroke-dashoffset" from="150" to="0" dur="1.8s" begin="1.8s" fill="freeze" /></path><path d="M21.14,39.59c0.73,0.34,1.55,1.78,1.46,2.46c-0.56,4.07-0.8,6.48-0.97,10.38c-0.07,1.56-0.36,2.34,1.45,2.09c7.41-1.05,16.94-1.95,27.39-3.17" class="stroke" stroke-dasharray="150"><set attributeName="opacity" to="0" dur="2.9000000000000004s" /><animate attributeName="stroke-dashoffset" from="150" to="0" dur="1.8s" begin="2.9000000000000004s" fill="freeze" /></path><path d="M50.47,35.87c0.73,0.34,1.51,2.53,1.46,3.22c-0.31,4.83-0.55,6.92-1.21,15.17" class="stroke" stroke-dasharray="150"><set attributeName="opacity" to="0" dur="4.0s" /><animate attributeName="stroke-dashoffset" from="150" to="0" dur="1.8s" begin="4.0s" fill="freeze" /></path><path d="M36.21,33.8c0.56,1.12,0.86,2.5,0.86,3.9c0,10.55-2.07,27.05-16.29,37.27" class="stroke" stroke-dasharray="150"><set attributeName="opacity" to="0" dur="4.9s" /><animate attributeName="stroke-dashoffset" from="150" to="0" dur="1.8s" begin="4.9s" fill="freeze" /></path><path d="M66.47,17.52c0.48,0.63,0.79,1.26,0.95,1.89c0.16,0.63,0.16,15.23,0.16,16.66c0,11.63-2.37,23.18-7.13,28.72" class="stroke" stroke-dasharray="150"><set attributeName="opacity" to="0" dur="6.1000000000000005s" /><animate attributeName="stroke-dashoffset" from="150" to="0" dur="1.8s" begin="6.1000000000000005s" fill="freeze" /></path><path d="M68.31,19.22c2.9-0.17,16.46-2.1,18.62-2.27c2.32-0.19,4.31,2.27,3.83,3.33c-0.46,1.01-0.72,23.48-0.72,37.66c0,10.59-4.34,3.53-6.76,1.96" class="stroke" stroke-dasharray="150"><set attributeName="opacity" to="0" dur="7.300000000000001s" /><animate attributeName="stroke-dashoffset" from="150" to="0" dur="1.8s" begin="7.300000000000001s" fill="freeze" /></path><path d="M67.84,32.01c3.55-0.23,6.6-0.56,10.15-0.88c0.99-0.09,1.99-0.18,2.98-0.27" class="stroke" stroke-dasharray="150"><set attributeName="opacity" to="0" dur="9.0s" /><animate attributeName="stroke-dashoffset" from="150" to="0" dur="1.8s" begin="9.0s" fill="freeze" /></path><path d="M67.58,44.85c3.43-0.25,6.86-0.56,10.29-0.83c0.82-0.06,1.65-0.13,2.51-0.19" class="stroke" stroke-dasharray="150"><set attributeName="opacity" to="0" dur="9.9s" /><animate attributeName="stroke-dashoffset" from="150" to="0" dur="1.8s" begin="9.9s" fill="freeze" /></path><path d="M34.99,75.7c0.97,0.38,2.75,0.48,3.71,0.38c12.45-1.28,22.2-3.5,34.74-3.83c1.62-0.04,2.58,0.18,3.39,0.37" class="stroke" stroke-dasharray="150"><set attributeName="opacity" to="0" dur="10.8s" /><animate attributeName="stroke-dashoffset" from="150" to="0" dur="1.8s" begin="10.8s" fill="freeze" /></path><path d="M52.97,63.05c0.12,0.29,1.75,1.5,1.75,3.35c0,11.85-0.36,9.92-0.36,25.58" class="stroke" stroke-dasharray="150"><set attributeName="opacity" to="0" dur="11.9s" /><animate attributeName="stroke-dashoffset" from="150" to="0" dur="1.8s" begin="11.9s" fill="freeze" /></path><path d="M17.38,94.3c1.5,0.53,4.25,0.68,5.75,0.53c21.62-2.08,46.37-3.33,64.25-4.16c2.5-0.12,4.87,0.33,6.75,1.02" class="stroke" stroke-dasharray="150"><set attributeName="opacity" to="0" dur="12.9s" /><animate attributeName="stroke-dashoffset" from="150" to="0" dur="1.8s" begin="12.9s" fill="freeze" /></path><text x="90" y="120" id="reset">⟳</text><text x="70" y="120" id="pause">◼</text><script type="text/javascript"><![CDATA[function RecurringTimer(e,t){var n,r,i=t;this.pause=function(){window.clearTimeout(n);i-=new Date-r};var s=function(){r=new Date;n=window.setTimeout(function(){i=t;s();e()},i)};this.clear=function(){window.clearTimeout(n);i=t;n=window.setTimeout(function(){i=t;s();e()},i)};this.resume=s;this.resume()}function invoketimer(){timer=new RecurringTimer(function(){svg.setCurrentTime(0)},15600)}var svg=document.getElementById("kanjivg");var pause=document.getElementById("pause");var reset=document.getElementById("reset");var timer;invoketimer();reset.onclick=function(){svg.setCurrentTime(0);timer.clear();svg.unpauseAnimations();pause.innerHTML = "◼";};pause.onclick=function(){if(svg.animationsPaused()){svg.unpauseAnimations();timer.resume();pause.innerHTML="◼"}else{svg.pauseAnimations();timer.pause();pause.innerHTML="▶"}}]]></script></svg>