<svg id="kanjivg" width="106" height="126" xmlns="http://www.w3.org/2000/svg" xmlns:xlink="http://www.w3.org/1999/xlink" xml:space="preserve" version="1.1" baseProfile="full"><defs><style type="text/css"><![CDATA[path.black { fill:none;stroke:black;stroke-width:5;stroke-linecap:round;stroke-linejoin:round; }path.grey { fill:none;stroke:#ddd;stroke-width:5;stroke-linecap:round;stroke-linejoin:round; }path.stroke { fill:none;stroke:black;stroke-width:5;stroke-linecap:round;stroke-linejoin:round; }rect { fill:none;stroke:#555;stroke-width:2;} text{font-size:16px;font-family:Segoe UI Symbol,Cambria Math,DejaVu Sans,Symbola,Quivira,STIX,Code2000;-webkit-touch-callout:none;cursor:pointer;-webkit-user-select:none;-khtml-user-select:none;-moz-user-select:none;-ms-user-select:none;user-select: none;} #reset { font-weight:bold; }]]></style><marker id="markerStart" markerWidth="8" markerHeight="8" style="overflow:visible;"><circle cx="0" cy="0" r="1.5" style="stroke:none;fill:red;fill-opacity:0.5;"/></marker><marker id="markerEnd" style="overflow:visible;"><circle cx="0" cy="0" r="0.8" style="stroke:none;fill:blue;fill-opacity:0.5;"><animate attributeName="opacity" from="1" to="0" dur="3s" repeatCount="indefinite" /></circle></marker></defs><rect x="4" y="4" width="100" height="100" /><path d="M10,43.14c1.57,0.79,4.27,0.43,5.89,0.06c4.73-1.08,11.4-3.38,16.11-4.2c1.24-0.22,1.62-0.18,2.25,0.01" class="grey" /><path d="M23.12,21c1,1,1.21,2.48,1.21,3.5c0,7.25,0.03,37.5,0.03,48.25" class="grey" /><path d="M13.25,79.91c1.12,0.34,2.25,0.22,3.54-0.76C21.85,75.31,30.83,68,35.75,64" class="grey" /><path d="M42.41,18.63c0,3.88-1.14,14.53-1.66,17.12" class="grey" /><path d="M43.49,19.74c14.01-2.36,33.73-4.88,41.45-5.15c9.55-0.34,4.3,4.91,0.55,8.28" class="grey" /><path d="M49.69,33.52c1.76,0.31,3.59-0.08,5.31-0.38c4.54-0.78,13.03-2.32,18.51-3.43c1.66-0.34,3.33-0.74,5.02-0.32" class="grey" /><path d="M62.04,35.16c-0.04,0.97-0.56,1.99-1.07,2.66c-3.78,5-10.96,12.18-23.25,18.59" class="grey" /><path d="M55.46,46.02c8.79,6.23,19.29,26.6,10.53,47.33c-3.21,7.6-8.4,0.92-9.49,0.05" class="grey" /><path d="M59.58,52.41c0.07,0.55-0.12,1.55-0.65,2.2C54.12,60.5,46.62,67.12,33.2,74.92" class="grey" /><path d="M65.24,62.3c0.09,0.68-0.02,1.67-0.69,2.48c-5.3,6.47-15.05,17.09-33.1,25.9" class="grey" /><path d="M83.85,39.34c0.11,0.97-0.04,1.67-0.56,2.44c-2.96,4.41-8.54,10.34-14.04,14.47" class="grey" /><path d="M66.29,57.64c3.66,3.55,17.34,17.88,24.04,24.38c1.98,1.93,4.03,3.97,6.6,5.1" class="grey" /><path d="M10,43.14c1.57,0.79,4.27,0.43,5.89,0.06c4.73-1.08,11.4-3.38,16.11-4.2c1.24-0.22,1.62-0.18,2.25,0.01" class="stroke" stroke-dasharray="150"><animate attributeName="stroke-dashoffset" from="150" to="0" dur="1.8s" begin="0s" fill="freeze" /></path><path d="M23.12,21c1,1,1.21,2.48,1.21,3.5c0,7.25,0.03,37.5,0.03,48.25" class="stroke" stroke-dasharray="150"><set attributeName="opacity" to="0" dur="1.0s" /><animate attributeName="stroke-dashoffset" from="150" to="0" dur="1.8s" begin="1.0s" fill="freeze" /></path><path d="M13.25,79.91c1.12,0.34,2.25,0.22,3.54-0.76C21.85,75.31,30.83,68,35.75,64" class="stroke" stroke-dasharray="150"><set attributeName="opacity" to="0" dur="2.3s" /><animate attributeName="stroke-dashoffset" from="150" to="0" dur="1.8s" begin="2.3s" fill="freeze" /></path><path d="M42.41,18.63c0,3.88-1.14,14.53-1.66,17.12" class="stroke" stroke-dasharray="150"><set attributeName="opacity" to="0" dur="3.3s" /><animate attributeName="stroke-dashoffset" from="150" to="0" dur="1.8s" begin="3.3s" fill="freeze" /></path><path d="M43.49,19.74c14.01-2.36,33.73-4.88,41.45-5.15c9.55-0.34,4.3,4.91,0.55,8.28" class="stroke" stroke-dasharray="150"><set attributeName="opacity" to="0" dur="4.2s" /><animate attributeName="stroke-dashoffset" from="150" to="0" dur="1.8s" begin="4.2s" fill="freeze" /></path><path d="M49.69,33.52c1.76,0.31,3.59-0.08,5.31-0.38c4.54-0.78,13.03-2.32,18.51-3.43c1.66-0.34,3.33-0.74,5.02-0.32" class="stroke" stroke-dasharray="150"><set attributeName="opacity" to="0" dur="5.6s" /><animate attributeName="stroke-dashoffset" from="150" to="0" dur="1.8s" begin="5.6s" fill="freeze" /></path><path d="M62.04,35.16c-0.04,0.97-0.56,1.99-1.07,2.66c-3.78,5-10.96,12.18-23.25,18.59" class="stroke" stroke-dasharray="150"><set attributeName="opacity" to="0" dur="6.6s" /><animate attributeName="stroke-dashoffset" from="150" to="0" dur="1.8s" begin="6.6s" fill="freeze" /></path><path d="M55.46,46.02c8.79,6.23,19.29,26.6,10.53,47.33c-3.21,7.6-8.4,0.92-9.49,0.05" class="stroke" stroke-dasharray="150"><set attributeName="opacity" to="0" dur="7.6s" /><animate attributeName="stroke-dashoffset" from="150" to="0" dur="1.8s" begin="7.6s" fill="freeze" /></path><path d="M59.58,52.41c0.07,0.55-0.12,1.55-0.65,2.2C54.12,60.5,46.62,67.12,33.2,74.92" class="stroke" stroke-dasharray="150"><set attributeName="opacity" to="0" dur="9.1s" /><animate attributeName="stroke-dashoffset" from="150" to="0" dur="1.8s" begin="9.1s" fill="freeze" /></path><path d="M65.24,62.3c0.09,0.68-0.02,1.67-0.69,2.48c-5.3,6.47-15.05,17.09-33.1,25.9" class="stroke" stroke-dasharray="150"><set attributeName="opacity" to="0" dur="10.1s" /><animate attributeName="stroke-dashoffset" from="150" to="0" dur="1.8s" begin="10.1s" fill="freeze" /></path><path d="M83.85,39.34c0.11,0.97-0.04,1.67-0.56,2.44c-2.96,4.41-8.54,10.34-14.04,14.47" class="stroke" stroke-dasharray="150"><set attributeName="opacity" to="0" dur="11.299999999999999s" /><animate attributeName="stroke-dashoffset" from="150" to="0" dur="1.8s" begin="11.299999999999999s" fill="freeze" /></path><path d="M66.29,57.64c3.66,3.55,17.34,17.88,24.04,24.38c1.98,1.93,4.03,3.97,6.6,5.1" class="stroke" stroke-dasharray="150"><set attributeName="opacity" to="0" dur="12.299999999999999s" /><animate attributeName="stroke-dashoffset" from="150" to="0" dur="1.8s" begin="12.299999999999999s" fill="freeze" /></path><text x="90" y="120" id="reset">⟳</text><text x="70" y="120" id="pause">◼</text><script type="text/javascript"><![CDATA[function RecurringTimer(e,t){var n,r,i=t;this.pause=function(){window.clearTimeout(n);i-=new Date-r};var s=function(){r=new Date;n=window.setTimeout(function(){i=t;s();e()},i)};this.clear=function(){window.clearTimeout(n);i=t;n=window.setTimeout(function(){i=t;s();e()},i)};this.resume=s;this.resume()}function invoketimer(){timer=new RecurringTimer(function(){svg.setCurrentTime(0)},14399)}var svg=document.getElementById("kanjivg");var pause=document.getElementById("pause");var reset=document.getElementById("reset");var timer;invoketimer();reset.onclick=function(){svg.setCurrentTime(0);timer.clear();svg.unpauseAnimations();pause.innerHTML = "◼";};pause.onclick=function(){if(svg.animationsPaused()){svg.unpauseAnimations();timer.resume();pause.innerHTML="◼"}else{svg.pauseAnimations();timer.pause();pause.innerHTML="▶"}}]]></script></svg>