<svg id="kanjivg" width="106" height="126" xmlns="http://www.w3.org/2000/svg" xmlns:xlink="http://www.w3.org/1999/xlink" xml:space="preserve" version="1.1" baseProfile="full"><defs><style type="text/css"><![CDATA[path.black { fill:none;stroke:black;stroke-width:5;stroke-linecap:round;stroke-linejoin:round; }path.grey { fill:none;stroke:#ddd;stroke-width:5;stroke-linecap:round;stroke-linejoin:round; }path.stroke { fill:none;stroke:black;stroke-width:5;stroke-linecap:round;stroke-linejoin:round; }rect { fill:none;stroke:#555;stroke-width:2;} text{font-size:16px;font-family:Segoe UI Symbol,Cambria Math,DejaVu Sans,Symbola,Quivira,STIX,Code2000;-webkit-touch-callout:none;cursor:pointer;-webkit-user-select:none;-khtml-user-select:none;-moz-user-select:none;-ms-user-select:none;user-select: none;} #reset { font-weight:bold; }]]></style><marker id="markerStart" markerWidth="8" markerHeight="8" style="overflow:visible;"><circle cx="0" cy="0" r="1.5" style="stroke:none;fill:red;fill-opacity:0.5;"/></marker><marker id="markerEnd" style="overflow:visible;"><circle cx="0" cy="0" r="0.8" style="stroke:none;fill:blue;fill-opacity:0.5;"><animate attributeName="opacity" from="1" to="0" dur="3s" repeatCount="indefinite" /></circle></marker></defs><rect x="4" y="4" width="100" height="100" /><path d="M50.42,9.75c2.48,0.67,5.74,4.41,5.95,6.34" class="grey" /><path d="M21.41,22.48c0,3.31-3.52,13.82-4.66,16.02" class="grey" /><path d="M21.88,24.09c1.19,0.07,57.85-4.34,63.9-4.34c10.48,0,1.16,6.58-0.35,7.26" class="grey" /><path d="M29,35.84c1.09,0.25,3.09,0.3,4.17,0.25c7.58-0.34,29.19-2.87,39.53-2.87c1.81,0,2.9,0.12,3.81,0.24" class="grey" /><path d="M28.5,46.65c1.02,0.37,2.89,0.43,3.9,0.37c5.1-0.27,31.6-2.77,40.03-3.26c1.7-0.1,2.72,0.18,3.57,0.36" class="grey" /><path d="M19,58.8c1.05,0.23,2.98,0.26,4.03,0.23c7.07-0.17,53.03-3.77,63.03-3.77c1.75,0,2.81,0.11,3.68,0.23" class="grey" /><path d="M40.93,28.13c0.58,0.45,1.8,1.85,1.92,2.75c0.12,0.9,0.9,18.62,1.28,26.62" class="grey" /><path d="M61.31,25.88c0.76,0.45,1.64,2.35,1.51,3.25C62.07,34.63,61.5,47,60.5,57.25" class="grey" /><path d="M41.2,60.75c0.48,0.63-0.06,1.36-0.67,2.12C34,71,22,78.75,14.25,81.75" class="grey" /><path d="M60.5,57.75c9.78,7.33,19.93,16.19,27.07,19.72c2.76,1.36,3.75,2.09,6.43,2.53" class="grey" /><path d="M34.6,78.71c0.72,0.28,2.04,0.35,2.76,0.28c9.25-0.95,23.87-2.97,33.18-3.21c1.2-0.03,1.92,0.13,2.52,0.27" class="grey" /><path d="M53.51,64.12c0.09,0.21,1.3,1.12,1.3,2.48c0,8.79-0.26,14.42-0.26,26.05" class="grey" /><path d="M25.35,94.38c1.11,0.4,3.16,0.49,4.27,0.4c13.78-1.11,39.81-2.81,52.14-3.33c1.85-0.08,2.97,0.19,3.9,0.39" class="grey" /><path d="M50.42,9.75c2.48,0.67,5.74,4.41,5.95,6.34" class="stroke" stroke-dasharray="150"><animate attributeName="stroke-dashoffset" from="150" to="0" dur="1.8s" begin="0s" fill="freeze" /></path><path d="M21.41,22.48c0,3.31-3.52,13.82-4.66,16.02" class="stroke" stroke-dasharray="150"><set attributeName="opacity" to="0" dur="0.9s" /><animate attributeName="stroke-dashoffset" from="150" to="0" dur="1.8s" begin="0.9s" fill="freeze" /></path><path d="M21.88,24.09c1.19,0.07,57.85-4.34,63.9-4.34c10.48,0,1.16,6.58-0.35,7.26" class="stroke" stroke-dasharray="150"><set attributeName="opacity" to="0" dur="1.8s" /><animate attributeName="stroke-dashoffset" from="150" to="0" dur="1.8s" begin="1.8s" fill="freeze" /></path><path d="M29,35.84c1.09,0.25,3.09,0.3,4.17,0.25c7.58-0.34,29.19-2.87,39.53-2.87c1.81,0,2.9,0.12,3.81,0.24" class="stroke" stroke-dasharray="150"><set attributeName="opacity" to="0" dur="3.5s" /><animate attributeName="stroke-dashoffset" from="150" to="0" dur="1.8s" begin="3.5s" fill="freeze" /></path><path d="M28.5,46.65c1.02,0.37,2.89,0.43,3.9,0.37c5.1-0.27,31.6-2.77,40.03-3.26c1.7-0.1,2.72,0.18,3.57,0.36" class="stroke" stroke-dasharray="150"><set attributeName="opacity" to="0" dur="4.7s" /><animate attributeName="stroke-dashoffset" from="150" to="0" dur="1.8s" begin="4.7s" fill="freeze" /></path><path d="M19,58.8c1.05,0.23,2.98,0.26,4.03,0.23c7.07-0.17,53.03-3.77,63.03-3.77c1.75,0,2.81,0.11,3.68,0.23" class="stroke" stroke-dasharray="150"><set attributeName="opacity" to="0" dur="5.9s" /><animate attributeName="stroke-dashoffset" from="150" to="0" dur="1.8s" begin="5.9s" fill="freeze" /></path><path d="M40.93,28.13c0.58,0.45,1.8,1.85,1.92,2.75c0.12,0.9,0.9,18.62,1.28,26.62" class="stroke" stroke-dasharray="150"><set attributeName="opacity" to="0" dur="7.6000000000000005s" /><animate attributeName="stroke-dashoffset" from="150" to="0" dur="1.8s" begin="7.6000000000000005s" fill="freeze" /></path><path d="M61.31,25.88c0.76,0.45,1.64,2.35,1.51,3.25C62.07,34.63,61.5,47,60.5,57.25" class="stroke" stroke-dasharray="150"><set attributeName="opacity" to="0" dur="8.600000000000001s" /><animate attributeName="stroke-dashoffset" from="150" to="0" dur="1.8s" begin="8.600000000000001s" fill="freeze" /></path><path d="M41.2,60.75c0.48,0.63-0.06,1.36-0.67,2.12C34,71,22,78.75,14.25,81.75" class="stroke" stroke-dasharray="150"><set attributeName="opacity" to="0" dur="9.600000000000001s" /><animate attributeName="stroke-dashoffset" from="150" to="0" dur="1.8s" begin="9.600000000000001s" fill="freeze" /></path><path d="M60.5,57.75c9.78,7.33,19.93,16.19,27.07,19.72c2.76,1.36,3.75,2.09,6.43,2.53" class="stroke" stroke-dasharray="150"><set attributeName="opacity" to="0" dur="10.600000000000001s" /><animate attributeName="stroke-dashoffset" from="150" to="0" dur="1.8s" begin="10.600000000000001s" fill="freeze" /></path><path d="M34.6,78.71c0.72,0.28,2.04,0.35,2.76,0.28c9.25-0.95,23.87-2.97,33.18-3.21c1.2-0.03,1.92,0.13,2.52,0.27" class="stroke" stroke-dasharray="150"><set attributeName="opacity" to="0" dur="11.700000000000001s" /><animate attributeName="stroke-dashoffset" from="150" to="0" dur="1.8s" begin="11.700000000000001s" fill="freeze" /></path><path d="M53.51,64.12c0.09,0.21,1.3,1.12,1.3,2.48c0,8.79-0.26,14.42-0.26,26.05" class="stroke" stroke-dasharray="150"><set attributeName="opacity" to="0" dur="12.700000000000001s" /><animate attributeName="stroke-dashoffset" from="150" to="0" dur="1.8s" begin="12.700000000000001s" fill="freeze" /></path><path d="M25.35,94.38c1.11,0.4,3.16,0.49,4.27,0.4c13.78-1.11,39.81-2.81,52.14-3.33c1.85-0.08,2.97,0.19,3.9,0.39" class="stroke" stroke-dasharray="150"><set attributeName="opacity" to="0" dur="13.700000000000001s" /><animate attributeName="stroke-dashoffset" from="150" to="0" dur="1.8s" begin="13.700000000000001s" fill="freeze" /></path><text x="90" y="120" id="reset">⟳</text><text x="70" y="120" id="pause">◼</text><script type="text/javascript"><![CDATA[function RecurringTimer(e,t){var n,r,i=t;this.pause=function(){window.clearTimeout(n);i-=new Date-r};var s=function(){r=new Date;n=window.setTimeout(function(){i=t;s();e()},i)};this.clear=function(){window.clearTimeout(n);i=t;n=window.setTimeout(function(){i=t;s();e()},i)};this.resume=s;this.resume()}function invoketimer(){timer=new RecurringTimer(function(){svg.setCurrentTime(0)},16200)}var svg=document.getElementById("kanjivg");var pause=document.getElementById("pause");var reset=document.getElementById("reset");var timer;invoketimer();reset.onclick=function(){svg.setCurrentTime(0);timer.clear();svg.unpauseAnimations();pause.innerHTML = "◼";};pause.onclick=function(){if(svg.animationsPaused()){svg.unpauseAnimations();timer.resume();pause.innerHTML="◼"}else{svg.pauseAnimations();timer.pause();pause.innerHTML="▶"}}]]></script></svg>