<svg id="kanjivg" width="106" height="126" xmlns="http://www.w3.org/2000/svg" xmlns:xlink="http://www.w3.org/1999/xlink" xml:space="preserve" version="1.1" baseProfile="full"><defs><style type="text/css"><![CDATA[path.black { fill:none;stroke:black;stroke-width:5;stroke-linecap:round;stroke-linejoin:round; }path.grey { fill:none;stroke:#ddd;stroke-width:5;stroke-linecap:round;stroke-linejoin:round; }path.stroke { fill:none;stroke:black;stroke-width:5;stroke-linecap:round;stroke-linejoin:round; }rect { fill:none;stroke:#555;stroke-width:2;} text{font-size:16px;font-family:Segoe UI Symbol,Cambria Math,DejaVu Sans,Symbola,Quivira,STIX,Code2000;-webkit-touch-callout:none;cursor:pointer;-webkit-user-select:none;-khtml-user-select:none;-moz-user-select:none;-ms-user-select:none;user-select: none;} #reset { font-weight:bold; }]]></style><marker id="markerStart" markerWidth="8" markerHeight="8" style="overflow:visible;"><circle cx="0" cy="0" r="1.5" style="stroke:none;fill:red;fill-opacity:0.5;"/></marker><marker id="markerEnd" style="overflow:visible;"><circle cx="0" cy="0" r="0.8" style="stroke:none;fill:blue;fill-opacity:0.5;"><animate attributeName="opacity" from="1" to="0" dur="3s" repeatCount="indefinite" /></circle></marker></defs><rect x="4" y="4" width="100" height="100" /><path d="M12.25,46.39c0.76,0.38,2.24,0.46,3,0.36c4.82-0.66,15.65-2.89,21-3.5c1.25-0.14,2.62-0.18,3.25,0.01" class="grey" /><path d="M24.87,18.25c1.09,0.5,1.74,2.25,1.96,3.25c0.22,1,0,43.75-0.22,50" class="grey" /><path d="M11.5,78.33c0.8,1.17,2.4,1.8,4.79,0.25C22.94,74.28,29.85,70.3,36.5,66" class="grey" /><path d="M65.15,10.73c2.1,1.27,4.35,3.52,5.94,6.87" class="grey" /><path d="M43.89,25.77c0.96,0.08,3.16,0.53,4.09,0.42c7.56-0.88,33.73-4.52,43.99-4.74c1.59-0.04,2.39,0.04,3.58,0.54" class="grey" /><path d="M53.3,34.72c0.38,0.26,0.76,0.48,0.93,0.82c1.31,2.62,1.99,9.36,2.88,14.07" class="grey" /><path d="M55.65,36.5c7.71-1.37,21.9-3.38,26.32-3.73c1.61-0.13,2.58,1.57,2.35,2.31c-0.96,3.06-2.38,6.13-3.8,10.36" class="grey" /><path d="M57.29,47.81c5.19-0.39,17.72-1.38,24.84-1.98" class="grey" /><path d="M45.75,59.19c0.5,1.15,1.2,2.52,1.36,4.59c0.37,4.82,1.89,25.47,1.95,34.74" class="grey" /><path d="M47.08,60.94c6.85-0.46,42.89-4.19,44.15-4.47c3.12-0.69,5,0.92,4.33,7.12c-0.92,8.52-2.18,24.39-4.31,31.07c-1.91,5.97-5.75,0.59-7.73-2" class="grey" /><path d="M57.71,68.93c0.32,0.27,0.65,0.5,0.79,0.84c1.12,2.71,2.46,10.69,3.22,15.56" class="grey" /><path d="M59.72,70.77c6.59-1.41,13.29-2.33,17.05-2.84c1.53-0.2,3,1.12,2.86,2.42c-0.37,3.26-1.27,6.11-2.49,10.49" class="grey" /><path d="M61.88,83.46c4.44-0.4,11.55-1.1,17.64-1.72" class="grey" /><path d="M12.25,46.39c0.76,0.38,2.24,0.46,3,0.36c4.82-0.66,15.65-2.89,21-3.5c1.25-0.14,2.62-0.18,3.25,0.01" class="stroke" stroke-dasharray="150"><animate attributeName="stroke-dashoffset" from="150" to="0" dur="1.8s" begin="0s" fill="freeze" /></path><path d="M24.87,18.25c1.09,0.5,1.74,2.25,1.96,3.25c0.22,1,0,43.75-0.22,50" class="stroke" stroke-dasharray="150"><set attributeName="opacity" to="0" dur="1.0s" /><animate attributeName="stroke-dashoffset" from="150" to="0" dur="1.8s" begin="1.0s" fill="freeze" /></path><path d="M11.5,78.33c0.8,1.17,2.4,1.8,4.79,0.25C22.94,74.28,29.85,70.3,36.5,66" class="stroke" stroke-dasharray="150"><set attributeName="opacity" to="0" dur="2.3s" /><animate attributeName="stroke-dashoffset" from="150" to="0" dur="1.8s" begin="2.3s" fill="freeze" /></path><path d="M65.15,10.73c2.1,1.27,4.35,3.52,5.94,6.87" class="stroke" stroke-dasharray="150"><set attributeName="opacity" to="0" dur="3.3s" /><animate attributeName="stroke-dashoffset" from="150" to="0" dur="1.8s" begin="3.3s" fill="freeze" /></path><path d="M43.89,25.77c0.96,0.08,3.16,0.53,4.09,0.42c7.56-0.88,33.73-4.52,43.99-4.74c1.59-0.04,2.39,0.04,3.58,0.54" class="stroke" stroke-dasharray="150"><set attributeName="opacity" to="0" dur="4.2s" /><animate attributeName="stroke-dashoffset" from="150" to="0" dur="1.8s" begin="4.2s" fill="freeze" /></path><path d="M53.3,34.72c0.38,0.26,0.76,0.48,0.93,0.82c1.31,2.62,1.99,9.36,2.88,14.07" class="stroke" stroke-dasharray="150"><set attributeName="opacity" to="0" dur="5.5s" /><animate attributeName="stroke-dashoffset" from="150" to="0" dur="1.8s" begin="5.5s" fill="freeze" /></path><path d="M55.65,36.5c7.71-1.37,21.9-3.38,26.32-3.73c1.61-0.13,2.58,1.57,2.35,2.31c-0.96,3.06-2.38,6.13-3.8,10.36" class="stroke" stroke-dasharray="150"><set attributeName="opacity" to="0" dur="6.4s" /><animate attributeName="stroke-dashoffset" from="150" to="0" dur="1.8s" begin="6.4s" fill="freeze" /></path><path d="M57.29,47.81c5.19-0.39,17.72-1.38,24.84-1.98" class="stroke" stroke-dasharray="150"><set attributeName="opacity" to="0" dur="7.5s" /><animate attributeName="stroke-dashoffset" from="150" to="0" dur="1.8s" begin="7.5s" fill="freeze" /></path><path d="M45.75,59.19c0.5,1.15,1.2,2.52,1.36,4.59c0.37,4.82,1.89,25.47,1.95,34.74" class="stroke" stroke-dasharray="150"><set attributeName="opacity" to="0" dur="8.5s" /><animate attributeName="stroke-dashoffset" from="150" to="0" dur="1.8s" begin="8.5s" fill="freeze" /></path><path d="M47.08,60.94c6.85-0.46,42.89-4.19,44.15-4.47c3.12-0.69,5,0.92,4.33,7.12c-0.92,8.52-2.18,24.39-4.31,31.07c-1.91,5.97-5.75,0.59-7.73-2" class="stroke" stroke-dasharray="150"><set attributeName="opacity" to="0" dur="9.5s" /><animate attributeName="stroke-dashoffset" from="150" to="0" dur="1.8s" begin="9.5s" fill="freeze" /></path><path d="M57.71,68.93c0.32,0.27,0.65,0.5,0.79,0.84c1.12,2.71,2.46,10.69,3.22,15.56" class="stroke" stroke-dasharray="150"><set attributeName="opacity" to="0" dur="11.3s" /><animate attributeName="stroke-dashoffset" from="150" to="0" dur="1.8s" begin="11.3s" fill="freeze" /></path><path d="M59.72,70.77c6.59-1.41,13.29-2.33,17.05-2.84c1.53-0.2,3,1.12,2.86,2.42c-0.37,3.26-1.27,6.11-2.49,10.49" class="stroke" stroke-dasharray="150"><set attributeName="opacity" to="0" dur="12.200000000000001s" /><animate attributeName="stroke-dashoffset" from="150" to="0" dur="1.8s" begin="12.200000000000001s" fill="freeze" /></path><path d="M61.88,83.46c4.44-0.4,11.55-1.1,17.64-1.72" class="stroke" stroke-dasharray="150"><set attributeName="opacity" to="0" dur="13.200000000000001s" /><animate attributeName="stroke-dashoffset" from="150" to="0" dur="1.8s" begin="13.200000000000001s" fill="freeze" /></path><text x="90" y="120" id="reset">⟳</text><text x="70" y="120" id="pause">◼</text><script type="text/javascript"><![CDATA[function RecurringTimer(e,t){var n,r,i=t;this.pause=function(){window.clearTimeout(n);i-=new Date-r};var s=function(){r=new Date;n=window.setTimeout(function(){i=t;s();e()},i)};this.clear=function(){window.clearTimeout(n);i=t;n=window.setTimeout(function(){i=t;s();e()},i)};this.resume=s;this.resume()}function invoketimer(){timer=new RecurringTimer(function(){svg.setCurrentTime(0)},15100)}var svg=document.getElementById("kanjivg");var pause=document.getElementById("pause");var reset=document.getElementById("reset");var timer;invoketimer();reset.onclick=function(){svg.setCurrentTime(0);timer.clear();svg.unpauseAnimations();pause.innerHTML = "◼";};pause.onclick=function(){if(svg.animationsPaused()){svg.unpauseAnimations();timer.resume();pause.innerHTML="◼"}else{svg.pauseAnimations();timer.pause();pause.innerHTML="▶"}}]]></script></svg>