<svg id="kanjivg" width="106" height="126" xmlns="http://www.w3.org/2000/svg" xmlns:xlink="http://www.w3.org/1999/xlink" xml:space="preserve" version="1.1" baseProfile="full"><defs><style type="text/css"><![CDATA[path.black { fill:none;stroke:black;stroke-width:5;stroke-linecap:round;stroke-linejoin:round; }path.grey { fill:none;stroke:#ddd;stroke-width:5;stroke-linecap:round;stroke-linejoin:round; }path.stroke { fill:none;stroke:black;stroke-width:5;stroke-linecap:round;stroke-linejoin:round; }rect { fill:none;stroke:#555;stroke-width:2;} text{font-size:16px;font-family:Segoe UI Symbol,Cambria Math,DejaVu Sans,Symbola,Quivira,STIX,Code2000;-webkit-touch-callout:none;cursor:pointer;-webkit-user-select:none;-khtml-user-select:none;-moz-user-select:none;-ms-user-select:none;user-select: none;} #reset { font-weight:bold; }]]></style><marker id="markerStart" markerWidth="8" markerHeight="8" style="overflow:visible;"><circle cx="0" cy="0" r="1.5" style="stroke:none;fill:red;fill-opacity:0.5;"/></marker><marker id="markerEnd" style="overflow:visible;"><circle cx="0" cy="0" r="0.8" style="stroke:none;fill:blue;fill-opacity:0.5;"><animate attributeName="opacity" from="1" to="0" dur="3s" repeatCount="indefinite" /></circle></marker></defs><rect x="4" y="4" width="100" height="100" /><path d="M10.5,42.64c0.76,0.38,2.24,0.43,3,0.36c5.25-0.5,12.75-2.5,18-3.5c1.24-0.24,1.62-0.18,2.25,0.01" class="grey" /><path d="M21.87,18c1.09,0.5,1.96,2.23,1.96,3.25c0,7.25,0.03,37.25,0.03,48" class="grey" /><path d="M10.75,77.17c1.25,0.58,2.77,0.65,4.54-0.77C20.22,72.47,28.08,66.44,33,62.5" class="grey" /><path d="M38.15,21.84c0.36,1.08,0.72,1.62,0.72,3.07s-0.12,54.15,0,55.59" class="grey" /><path d="M38.84,23.52c1.49-0.18,10.58-2.3,11.93-2.53c1.48-0.25,2.64,0.75,2.64,2.57c0,2.17-0.35,54.13-0.35,55.21" class="grey" /><path d="M38.92,47.93c2.52-0.4,5.04-0.81,7.56-1.19c0.71-0.1,1.41-0.2,2.07-0.3" class="grey" /><path d="M39.21,77.52c4.61-0.77,8.54-1.02,13.56-1.45" class="grey" /><path d="M60.88,28.95c0.55,0.21,1.57,0.26,2.12,0.21c6.41-0.58,17.59-2.29,25.14-2.44c0.92-0.02,1.48,0.1,1.94,0.21" class="grey" /><path d="M73.48,11.37c0.07,0.26,0.96,1.37,0.96,3.05c0,12.05,0.3,26.82,0.3,29.55" class="grey" /><path d="M59.75,44.49c0.7,0.31,1.97,0.37,2.67,0.31c6.15-0.56,22.3-2.68,31.66-3c1.16-0.04,1.86,0.15,2.43,0.3" class="grey" /><path d="M58.53,61.59c0.76,0.35,2.14,0.38,2.92,0.35C71.55,61.6,86.48,58.51,96,58.56c1.27,0.01,2.03,0.17,2.66,0.34" class="grey" /><path d="M83.45,48.58c0.49,0.67,1.32,2.06,1.38,4.56c0.26,12.03-0.21,34.43-0.21,38.52c0,9.83-6.47,1.97-7.88,0.71" class="grey" /><path d="M65.38,68.75c2.83,2.07,6.45,7.52,7.15,10.75" class="grey" /><path d="M10.5,42.64c0.76,0.38,2.24,0.43,3,0.36c5.25-0.5,12.75-2.5,18-3.5c1.24-0.24,1.62-0.18,2.25,0.01" class="stroke" stroke-dasharray="150"><animate attributeName="stroke-dashoffset" from="150" to="0" dur="1.8s" begin="0s" fill="freeze" /></path><path d="M21.87,18c1.09,0.5,1.96,2.23,1.96,3.25c0,7.25,0.03,37.25,0.03,48" class="stroke" stroke-dasharray="150"><set attributeName="opacity" to="0" dur="1.0s" /><animate attributeName="stroke-dashoffset" from="150" to="0" dur="1.8s" begin="1.0s" fill="freeze" /></path><path d="M10.75,77.17c1.25,0.58,2.77,0.65,4.54-0.77C20.22,72.47,28.08,66.44,33,62.5" class="stroke" stroke-dasharray="150"><set attributeName="opacity" to="0" dur="2.3s" /><animate attributeName="stroke-dashoffset" from="150" to="0" dur="1.8s" begin="2.3s" fill="freeze" /></path><path d="M38.15,21.84c0.36,1.08,0.72,1.62,0.72,3.07s-0.12,54.15,0,55.59" class="stroke" stroke-dasharray="150"><set attributeName="opacity" to="0" dur="3.3s" /><animate attributeName="stroke-dashoffset" from="150" to="0" dur="1.8s" begin="3.3s" fill="freeze" /></path><path d="M38.84,23.52c1.49-0.18,10.58-2.3,11.93-2.53c1.48-0.25,2.64,0.75,2.64,2.57c0,2.17-0.35,54.13-0.35,55.21" class="stroke" stroke-dasharray="150"><set attributeName="opacity" to="0" dur="4.699999999999999s" /><animate attributeName="stroke-dashoffset" from="150" to="0" dur="1.8s" begin="4.699999999999999s" fill="freeze" /></path><path d="M38.92,47.93c2.52-0.4,5.04-0.81,7.56-1.19c0.71-0.1,1.41-0.2,2.07-0.3" class="stroke" stroke-dasharray="150"><set attributeName="opacity" to="0" dur="6.3999999999999995s" /><animate attributeName="stroke-dashoffset" from="150" to="0" dur="1.8s" begin="6.3999999999999995s" fill="freeze" /></path><path d="M39.21,77.52c4.61-0.77,8.54-1.02,13.56-1.45" class="stroke" stroke-dasharray="150"><set attributeName="opacity" to="0" dur="7.3s" /><animate attributeName="stroke-dashoffset" from="150" to="0" dur="1.8s" begin="7.3s" fill="freeze" /></path><path d="M60.88,28.95c0.55,0.21,1.57,0.26,2.12,0.21c6.41-0.58,17.59-2.29,25.14-2.44c0.92-0.02,1.48,0.1,1.94,0.21" class="stroke" stroke-dasharray="150"><set attributeName="opacity" to="0" dur="8.2s" /><animate attributeName="stroke-dashoffset" from="150" to="0" dur="1.8s" begin="8.2s" fill="freeze" /></path><path d="M73.48,11.37c0.07,0.26,0.96,1.37,0.96,3.05c0,12.05,0.3,26.82,0.3,29.55" class="stroke" stroke-dasharray="150"><set attributeName="opacity" to="0" dur="9.2s" /><animate attributeName="stroke-dashoffset" from="150" to="0" dur="1.8s" begin="9.2s" fill="freeze" /></path><path d="M59.75,44.49c0.7,0.31,1.97,0.37,2.67,0.31c6.15-0.56,22.3-2.68,31.66-3c1.16-0.04,1.86,0.15,2.43,0.3" class="stroke" stroke-dasharray="150"><set attributeName="opacity" to="0" dur="10.2s" /><animate attributeName="stroke-dashoffset" from="150" to="0" dur="1.8s" begin="10.2s" fill="freeze" /></path><path d="M58.53,61.59c0.76,0.35,2.14,0.38,2.92,0.35C71.55,61.6,86.48,58.51,96,58.56c1.27,0.01,2.03,0.17,2.66,0.34" class="stroke" stroke-dasharray="150"><set attributeName="opacity" to="0" dur="11.2s" /><animate attributeName="stroke-dashoffset" from="150" to="0" dur="1.8s" begin="11.2s" fill="freeze" /></path><path d="M83.45,48.58c0.49,0.67,1.32,2.06,1.38,4.56c0.26,12.03-0.21,34.43-0.21,38.52c0,9.83-6.47,1.97-7.88,0.71" class="stroke" stroke-dasharray="150"><set attributeName="opacity" to="0" dur="12.299999999999999s" /><animate attributeName="stroke-dashoffset" from="150" to="0" dur="1.8s" begin="12.299999999999999s" fill="freeze" /></path><path d="M65.38,68.75c2.83,2.07,6.45,7.52,7.15,10.75" class="stroke" stroke-dasharray="150"><set attributeName="opacity" to="0" dur="13.7s" /><animate attributeName="stroke-dashoffset" from="150" to="0" dur="1.8s" begin="13.7s" fill="freeze" /></path><text x="90" y="120" id="reset">⟳</text><text x="70" y="120" id="pause">◼</text><script type="text/javascript"><![CDATA[function RecurringTimer(e,t){var n,r,i=t;this.pause=function(){window.clearTimeout(n);i-=new Date-r};var s=function(){r=new Date;n=window.setTimeout(function(){i=t;s();e()},i)};this.clear=function(){window.clearTimeout(n);i=t;n=window.setTimeout(function(){i=t;s();e()},i)};this.resume=s;this.resume()}function invoketimer(){timer=new RecurringTimer(function(){svg.setCurrentTime(0)},15600)}var svg=document.getElementById("kanjivg");var pause=document.getElementById("pause");var reset=document.getElementById("reset");var timer;invoketimer();reset.onclick=function(){svg.setCurrentTime(0);timer.clear();svg.unpauseAnimations();pause.innerHTML = "◼";};pause.onclick=function(){if(svg.animationsPaused()){svg.unpauseAnimations();timer.resume();pause.innerHTML="◼"}else{svg.pauseAnimations();timer.pause();pause.innerHTML="▶"}}]]></script></svg>