<svg id="kanjivg" width="106" height="126" xmlns="http://www.w3.org/2000/svg" xmlns:xlink="http://www.w3.org/1999/xlink" xml:space="preserve" version="1.1" baseProfile="full"><defs><style type="text/css"><![CDATA[path.black { fill:none;stroke:black;stroke-width:5;stroke-linecap:round;stroke-linejoin:round; }path.grey { fill:none;stroke:#ddd;stroke-width:5;stroke-linecap:round;stroke-linejoin:round; }path.stroke { fill:none;stroke:black;stroke-width:5;stroke-linecap:round;stroke-linejoin:round; }rect { fill:none;stroke:#555;stroke-width:2;} text{font-size:16px;font-family:Segoe UI Symbol,Cambria Math,DejaVu Sans,Symbola,Quivira,STIX,Code2000;-webkit-touch-callout:none;cursor:pointer;-webkit-user-select:none;-khtml-user-select:none;-moz-user-select:none;-ms-user-select:none;user-select: none;} #reset { font-weight:bold; }]]></style><marker id="markerStart" markerWidth="8" markerHeight="8" style="overflow:visible;"><circle cx="0" cy="0" r="1.5" style="stroke:none;fill:red;fill-opacity:0.5;"/></marker><marker id="markerEnd" style="overflow:visible;"><circle cx="0" cy="0" r="0.8" style="stroke:none;fill:blue;fill-opacity:0.5;"><animate attributeName="opacity" from="1" to="0" dur="3s" repeatCount="indefinite" /></circle></marker></defs><rect x="4" y="4" width="100" height="100" /><path d="M11.25,42.85c1.62,0.4,3.79,0.18,5.16,0.01c5.09-0.62,12.14-2.36,16.71-3.13c1.31-0.22,3.07-0.67,4.38-0.21" class="grey" /><path d="M24.62,18.5c0.94,0.94,1.21,2.38,1.21,4c0,7.25,0.03,36,0.03,46.75" class="grey" /><path d="M12.25,77.79c1,0.83,2.05,1.02,3.75-0.29c8.88-6.88,13.25-10.5,21.25-16.75" class="grey" /><path d="M38.82,27.24c2.18,0.39,3.96,0.47,5.82,0.26c9.45-1.07,28.98-3.51,39.73-4.04c2.22-0.11,4.47-0.28,6.62,0.39" class="grey" /><path d="M51.75,16.19c0.9,0.9,1.27,2.03,1.38,2.88c0.5,4.05,1.25,9.3,2.19,15.47" class="grey" /><path d="M74.87,13c0.32,1.13,0.58,1.92,0.38,3.35c-1.12,7.65-2.19,12.03-3.12,17.28" class="grey" /><path d="M63.65,35.77c0.07,0.85-0.13,2.03-0.65,3.18c-3.59,8-11.25,19.42-26.75,32.86" class="grey" /><path d="M63.96,39.54c5.44,4.89,17.22,14.47,23.59,19.43c2.45,1.91,4.9,3.77,7.71,5.12" class="grey" /><path d="M52.2,61.73c1.32,0.41,3.21,0.16,4.56,0c5.19-0.58,9.24-1.53,15.37-2.17c1.22-0.13,2.86-0.12,4.08,0.11" class="grey" /><path d="M49.49,73.8c0.67,0.67,1.13,1.58,1.44,2.78c1.79,7.12,2.26,9.94,3.16,14.65c0.26,1.36,0.51,2.83,0.75,4.55" class="grey" /><path d="M51.57,75.29c10.43-1.41,22.81-3.15,28.45-3.85c2.06-0.26,3.3,1.52,3,3.02C81.8,80.68,80.75,84.88,79.43,90" class="grey" /><path d="M55.71,93.3c6.39-0.51,12.89-1.28,20.8-1.94c1.51-0.13,3.05-0.24,4.6-0.33" class="grey" /><path d="M11.25,42.85c1.62,0.4,3.79,0.18,5.16,0.01c5.09-0.62,12.14-2.36,16.71-3.13c1.31-0.22,3.07-0.67,4.38-0.21" class="stroke" stroke-dasharray="150"><animate attributeName="stroke-dashoffset" from="150" to="0" dur="1.8s" begin="0s" fill="freeze" /></path><path d="M24.62,18.5c0.94,0.94,1.21,2.38,1.21,4c0,7.25,0.03,36,0.03,46.75" class="stroke" stroke-dasharray="150"><set attributeName="opacity" to="0" dur="1.0s" /><animate attributeName="stroke-dashoffset" from="150" to="0" dur="1.8s" begin="1.0s" fill="freeze" /></path><path d="M12.25,77.79c1,0.83,2.05,1.02,3.75-0.29c8.88-6.88,13.25-10.5,21.25-16.75" class="stroke" stroke-dasharray="150"><set attributeName="opacity" to="0" dur="2.3s" /><animate attributeName="stroke-dashoffset" from="150" to="0" dur="1.8s" begin="2.3s" fill="freeze" /></path><path d="M38.82,27.24c2.18,0.39,3.96,0.47,5.82,0.26c9.45-1.07,28.98-3.51,39.73-4.04c2.22-0.11,4.47-0.28,6.62,0.39" class="stroke" stroke-dasharray="150"><set attributeName="opacity" to="0" dur="3.3s" /><animate attributeName="stroke-dashoffset" from="150" to="0" dur="1.8s" begin="3.3s" fill="freeze" /></path><path d="M51.75,16.19c0.9,0.9,1.27,2.03,1.38,2.88c0.5,4.05,1.25,9.3,2.19,15.47" class="stroke" stroke-dasharray="150"><set attributeName="opacity" to="0" dur="4.6s" /><animate attributeName="stroke-dashoffset" from="150" to="0" dur="1.8s" begin="4.6s" fill="freeze" /></path><path d="M74.87,13c0.32,1.13,0.58,1.92,0.38,3.35c-1.12,7.65-2.19,12.03-3.12,17.28" class="stroke" stroke-dasharray="150"><set attributeName="opacity" to="0" dur="5.5s" /><animate attributeName="stroke-dashoffset" from="150" to="0" dur="1.8s" begin="5.5s" fill="freeze" /></path><path d="M63.65,35.77c0.07,0.85-0.13,2.03-0.65,3.18c-3.59,8-11.25,19.42-26.75,32.86" class="stroke" stroke-dasharray="150"><set attributeName="opacity" to="0" dur="6.5s" /><animate attributeName="stroke-dashoffset" from="150" to="0" dur="1.8s" begin="6.5s" fill="freeze" /></path><path d="M63.96,39.54c5.44,4.89,17.22,14.47,23.59,19.43c2.45,1.91,4.9,3.77,7.71,5.12" class="stroke" stroke-dasharray="150"><set attributeName="opacity" to="0" dur="7.7s" /><animate attributeName="stroke-dashoffset" from="150" to="0" dur="1.8s" begin="7.7s" fill="freeze" /></path><path d="M52.2,61.73c1.32,0.41,3.21,0.16,4.56,0c5.19-0.58,9.24-1.53,15.37-2.17c1.22-0.13,2.86-0.12,4.08,0.11" class="stroke" stroke-dasharray="150"><set attributeName="opacity" to="0" dur="8.7s" /><animate attributeName="stroke-dashoffset" from="150" to="0" dur="1.8s" begin="8.7s" fill="freeze" /></path><path d="M49.49,73.8c0.67,0.67,1.13,1.58,1.44,2.78c1.79,7.12,2.26,9.94,3.16,14.65c0.26,1.36,0.51,2.83,0.75,4.55" class="stroke" stroke-dasharray="150"><set attributeName="opacity" to="0" dur="9.7s" /><animate attributeName="stroke-dashoffset" from="150" to="0" dur="1.8s" begin="9.7s" fill="freeze" /></path><path d="M51.57,75.29c10.43-1.41,22.81-3.15,28.45-3.85c2.06-0.26,3.3,1.52,3,3.02C81.8,80.68,80.75,84.88,79.43,90" class="stroke" stroke-dasharray="150"><set attributeName="opacity" to="0" dur="10.7s" /><animate attributeName="stroke-dashoffset" from="150" to="0" dur="1.8s" begin="10.7s" fill="freeze" /></path><path d="M55.71,93.3c6.39-0.51,12.89-1.28,20.8-1.94c1.51-0.13,3.05-0.24,4.6-0.33" class="stroke" stroke-dasharray="150"><set attributeName="opacity" to="0" dur="11.899999999999999s" /><animate attributeName="stroke-dashoffset" from="150" to="0" dur="1.8s" begin="11.899999999999999s" fill="freeze" /></path><text x="90" y="120" id="reset">⟳</text><text x="70" y="120" id="pause">◼</text><script type="text/javascript"><![CDATA[function RecurringTimer(e,t){var n,r,i=t;this.pause=function(){window.clearTimeout(n);i-=new Date-r};var s=function(){r=new Date;n=window.setTimeout(function(){i=t;s();e()},i)};this.clear=function(){window.clearTimeout(n);i=t;n=window.setTimeout(function(){i=t;s();e()},i)};this.resume=s;this.resume()}function invoketimer(){timer=new RecurringTimer(function(){svg.setCurrentTime(0)},13899)}var svg=document.getElementById("kanjivg");var pause=document.getElementById("pause");var reset=document.getElementById("reset");var timer;invoketimer();reset.onclick=function(){svg.setCurrentTime(0);timer.clear();svg.unpauseAnimations();pause.innerHTML = "◼";};pause.onclick=function(){if(svg.animationsPaused()){svg.unpauseAnimations();timer.resume();pause.innerHTML="◼"}else{svg.pauseAnimations();timer.pause();pause.innerHTML="▶"}}]]></script></svg>