<svg id="kanjivg" width="106" height="126" xmlns="http://www.w3.org/2000/svg" xmlns:xlink="http://www.w3.org/1999/xlink" xml:space="preserve" version="1.1" baseProfile="full"><defs><style type="text/css"><![CDATA[path.black { fill:none;stroke:black;stroke-width:5;stroke-linecap:round;stroke-linejoin:round; }path.grey { fill:none;stroke:#ddd;stroke-width:5;stroke-linecap:round;stroke-linejoin:round; }path.stroke { fill:none;stroke:black;stroke-width:5;stroke-linecap:round;stroke-linejoin:round; }rect { fill:none;stroke:#555;stroke-width:2;} text{font-size:16px;font-family:Segoe UI Symbol,Cambria Math,DejaVu Sans,Symbola,Quivira,STIX,Code2000;-webkit-touch-callout:none;cursor:pointer;-webkit-user-select:none;-khtml-user-select:none;-moz-user-select:none;-ms-user-select:none;user-select: none;} #reset { font-weight:bold; }]]></style><marker id="markerStart" markerWidth="8" markerHeight="8" style="overflow:visible;"><circle cx="0" cy="0" r="1.5" style="stroke:none;fill:red;fill-opacity:0.5;"/></marker><marker id="markerEnd" style="overflow:visible;"><circle cx="0" cy="0" r="0.8" style="stroke:none;fill:blue;fill-opacity:0.5;"><animate attributeName="opacity" from="1" to="0" dur="3s" repeatCount="indefinite" /></circle></marker></defs><rect x="4" y="4" width="100" height="100" /><path d="M14,42.64c0.76,0.38,2.24,0.46,3,0.36c4.82-0.66,16.15-3.39,21.5-4c1.25-0.14,2.62-0.18,3.25,0.01" class="grey" /><path d="M25.87,16.5c1.09,0.5,1.96,2.23,1.96,3.25c0,7.25,0.03,38.75,0.03,49.5" class="grey" /><path d="M12.5,76.29c0.75,0.96,2.25,1.46,4.5,0.21c6.25-3.5,17.5-9.75,23.75-13.25" class="grey" /><path d="M68.82,11.68c0.03,0.31,0.06,0.8-0.05,1.24c-0.66,2.61-4.41,8.33-9.55,11.84" class="grey" /><path d="M52.52,24.07c0.42,0.4,0.76,2.55,0.76,3.24c0,7.05,0.05,31.04-0.21,42.14" class="grey" /><path d="M53.29,27.22c1.66-0.1,27.84-3.73,29.45-3.73c2.38,0,3.55,1.76,3.34,3.49c-0.13,1.06-2.33,9.27-3.06,12.52" class="grey" /><path d="M53.46,42.78c4.13-0.38,27.39-2.88,32.53-3.2" class="grey" /><path d="M53.69,55.05c9.98-1.16,32.4-3.43,36.69-4.06c1.49-0.22,4.03-0.03,4.79,0.13" class="grey" /><path d="M53.18,69.4c9.7-2.09,31.81-4.64,37.19-5.4c3.5-0.5,5.16,2.31,4.66,5.75c-1.54,10.75-4.29,18-8.11,25c-3.05,5.58-6.58,2.75-9.5-0.25" class="grey" /><path d="M42.37,78.25c-0.37,6.25-2.42,11.69-4.11,15" class="grey" /><path d="M53.69,77.75c1.52,2.18,2.97,8.16,3.35,11.55" class="grey" /><path d="M65.99,76.25c1.71,1.85,4.43,7.62,4.86,10.5" class="grey" /><path d="M77.68,74.75c1.78,1.46,4.61,5.99,5.05,8.25" class="grey" /><path d="M14,42.64c0.76,0.38,2.24,0.46,3,0.36c4.82-0.66,16.15-3.39,21.5-4c1.25-0.14,2.62-0.18,3.25,0.01" class="stroke" stroke-dasharray="150"><animate attributeName="stroke-dashoffset" from="150" to="0" dur="1.8s" begin="0s" fill="freeze" /></path><path d="M25.87,16.5c1.09,0.5,1.96,2.23,1.96,3.25c0,7.25,0.03,38.75,0.03,49.5" class="stroke" stroke-dasharray="150"><set attributeName="opacity" to="0" dur="1.0s" /><animate attributeName="stroke-dashoffset" from="150" to="0" dur="1.8s" begin="1.0s" fill="freeze" /></path><path d="M12.5,76.29c0.75,0.96,2.25,1.46,4.5,0.21c6.25-3.5,17.5-9.75,23.75-13.25" class="stroke" stroke-dasharray="150"><set attributeName="opacity" to="0" dur="2.3s" /><animate attributeName="stroke-dashoffset" from="150" to="0" dur="1.8s" begin="2.3s" fill="freeze" /></path><path d="M68.82,11.68c0.03,0.31,0.06,0.8-0.05,1.24c-0.66,2.61-4.41,8.33-9.55,11.84" class="stroke" stroke-dasharray="150"><set attributeName="opacity" to="0" dur="3.3s" /><animate attributeName="stroke-dashoffset" from="150" to="0" dur="1.8s" begin="3.3s" fill="freeze" /></path><path d="M52.52,24.07c0.42,0.4,0.76,2.55,0.76,3.24c0,7.05,0.05,31.04-0.21,42.14" class="stroke" stroke-dasharray="150"><set attributeName="opacity" to="0" dur="4.2s" /><animate attributeName="stroke-dashoffset" from="150" to="0" dur="1.8s" begin="4.2s" fill="freeze" /></path><path d="M53.29,27.22c1.66-0.1,27.84-3.73,29.45-3.73c2.38,0,3.55,1.76,3.34,3.49c-0.13,1.06-2.33,9.27-3.06,12.52" class="stroke" stroke-dasharray="150"><set attributeName="opacity" to="0" dur="5.4s" /><animate attributeName="stroke-dashoffset" from="150" to="0" dur="1.8s" begin="5.4s" fill="freeze" /></path><path d="M53.46,42.78c4.13-0.38,27.39-2.88,32.53-3.2" class="stroke" stroke-dasharray="150"><set attributeName="opacity" to="0" dur="6.6000000000000005s" /><animate attributeName="stroke-dashoffset" from="150" to="0" dur="1.8s" begin="6.6000000000000005s" fill="freeze" /></path><path d="M53.69,55.05c9.98-1.16,32.4-3.43,36.69-4.06c1.49-0.22,4.03-0.03,4.79,0.13" class="stroke" stroke-dasharray="150"><set attributeName="opacity" to="0" dur="7.6000000000000005s" /><animate attributeName="stroke-dashoffset" from="150" to="0" dur="1.8s" begin="7.6000000000000005s" fill="freeze" /></path><path d="M53.18,69.4c9.7-2.09,31.81-4.64,37.19-5.4c3.5-0.5,5.16,2.31,4.66,5.75c-1.54,10.75-4.29,18-8.11,25c-3.05,5.58-6.58,2.75-9.5-0.25" class="stroke" stroke-dasharray="150"><set attributeName="opacity" to="0" dur="8.700000000000001s" /><animate attributeName="stroke-dashoffset" from="150" to="0" dur="1.8s" begin="8.700000000000001s" fill="freeze" /></path><path d="M42.37,78.25c-0.37,6.25-2.42,11.69-4.11,15" class="stroke" stroke-dasharray="150"><set attributeName="opacity" to="0" dur="10.4s" /><animate attributeName="stroke-dashoffset" from="150" to="0" dur="1.8s" begin="10.4s" fill="freeze" /></path><path d="M53.69,77.75c1.52,2.18,2.97,8.16,3.35,11.55" class="stroke" stroke-dasharray="150"><set attributeName="opacity" to="0" dur="11.3s" /><animate attributeName="stroke-dashoffset" from="150" to="0" dur="1.8s" begin="11.3s" fill="freeze" /></path><path d="M65.99,76.25c1.71,1.85,4.43,7.62,4.86,10.5" class="stroke" stroke-dasharray="150"><set attributeName="opacity" to="0" dur="12.200000000000001s" /><animate attributeName="stroke-dashoffset" from="150" to="0" dur="1.8s" begin="12.200000000000001s" fill="freeze" /></path><path d="M77.68,74.75c1.78,1.46,4.61,5.99,5.05,8.25" class="stroke" stroke-dasharray="150"><set attributeName="opacity" to="0" dur="13.100000000000001s" /><animate attributeName="stroke-dashoffset" from="150" to="0" dur="1.8s" begin="13.100000000000001s" fill="freeze" /></path><text x="90" y="120" id="reset">⟳</text><text x="70" y="120" id="pause">◼</text><script type="text/javascript"><![CDATA[function RecurringTimer(e,t){var n,r,i=t;this.pause=function(){window.clearTimeout(n);i-=new Date-r};var s=function(){r=new Date;n=window.setTimeout(function(){i=t;s();e()},i)};this.clear=function(){window.clearTimeout(n);i=t;n=window.setTimeout(function(){i=t;s();e()},i)};this.resume=s;this.resume()}function invoketimer(){timer=new RecurringTimer(function(){svg.setCurrentTime(0)},15000)}var svg=document.getElementById("kanjivg");var pause=document.getElementById("pause");var reset=document.getElementById("reset");var timer;invoketimer();reset.onclick=function(){svg.setCurrentTime(0);timer.clear();svg.unpauseAnimations();pause.innerHTML = "◼";};pause.onclick=function(){if(svg.animationsPaused()){svg.unpauseAnimations();timer.resume();pause.innerHTML="◼"}else{svg.pauseAnimations();timer.pause();pause.innerHTML="▶"}}]]></script></svg>