<svg id="kanjivg" width="106" height="126" xmlns="http://www.w3.org/2000/svg" xmlns:xlink="http://www.w3.org/1999/xlink" xml:space="preserve" version="1.1" baseProfile="full"><defs><style type="text/css"><![CDATA[path.black { fill:none;stroke:black;stroke-width:5;stroke-linecap:round;stroke-linejoin:round; }path.grey { fill:none;stroke:#ddd;stroke-width:5;stroke-linecap:round;stroke-linejoin:round; }path.stroke { fill:none;stroke:black;stroke-width:5;stroke-linecap:round;stroke-linejoin:round; }rect { fill:none;stroke:#555;stroke-width:2;} text{font-size:16px;font-family:Segoe UI Symbol,Cambria Math,DejaVu Sans,Symbola,Quivira,STIX,Code2000;-webkit-touch-callout:none;cursor:pointer;-webkit-user-select:none;-khtml-user-select:none;-moz-user-select:none;-ms-user-select:none;user-select: none;} #reset { font-weight:bold; }]]></style><marker id="markerStart" markerWidth="8" markerHeight="8" style="overflow:visible;"><circle cx="0" cy="0" r="1.5" style="stroke:none;fill:red;fill-opacity:0.5;"/></marker><marker id="markerEnd" style="overflow:visible;"><circle cx="0" cy="0" r="0.8" style="stroke:none;fill:blue;fill-opacity:0.5;"><animate attributeName="opacity" from="1" to="0" dur="3s" repeatCount="indefinite" /></circle></marker></defs><rect x="4" y="4" width="100" height="100" /><path d="M11.78,46.69c1.47,0.31,2.02,0.17,3.52,0.06c7.08-0.5,14.7-2.5,19.9-3.25c1.48-0.21,2.43-0.38,3.3-0.25" class="grey" /><path d="M24.87,22.75c0.75,0.75,1.46,2.23,1.46,3.25c0,3.38,0.03,36.5,0.03,44.5" class="grey" /><path d="M12.95,77.5c1.66,0.66,3.26,0.62,5.06-0.5c1.64-1.02,12.77-8.58,19.74-13.5" class="grey" /><path d="M53.51,15.14c0.04,0.62,0.09,1.6-0.08,2.48c-0.81,4.17-4.7,12.3-10.3,19" class="grey" /><path d="M53.5,27.39c1.12,0.36,2.42,0.26,3.35,0.13c6.4-0.9,16.53-2.65,26.61-4.63c1.54-0.3,2.5-0.07,3.29,0.12" class="grey" /><path d="M51,38.91c0.77,0.58,1.37,1.86,1.32,2.83c0.63,3.56,0.83,6.55,1.41,10.89c0.13,0.98,0.27,2.01,0.42,3.09" class="grey" /><path d="M53.32,40.23c7.56-1.21,21.59-2.78,26.93-3.35c2.4-0.26,3.81,0.94,3.12,3.39c-0.93,3.33-2.13,5.35-3.92,10.54" class="grey" /><path d="M54.98,53.65c4.08-0.41,14.85-1.23,22.02-1.78c1.52-0.12,2.88-0.22,3.98-0.31" class="grey" /><path d="M44.67,66.09c1.18,1.18,1.83,2.29,2.11,3.69c1.26,6.17,1.96,11.72,2.92,19.32" class="grey" /><path d="M47.13,67.8c8.95-1.19,31.96-3.63,38.38-4.46c3.61-0.47,4.77,1.11,4.04,4.68c-0.85,4.14-2.58,13.93-3.66,18.53" class="grey" /><path d="M59.36,68.87c0.7,0.7,1.21,1.58,1.3,2.33c0.84,6.93,1.09,9.81,1.5,16.64" class="grey" /><path d="M74.23,66.97c0.64,0.78,0.58,1.99,0.5,2.79c-0.88,8.62-1.43,12.1-2.15,17.28" class="grey" /><path d="M36.37,90.37c2.17,0.51,6.16,0.72,8.32,0.51c15.56-1.51,34.69-3.26,47.1-3.23c3.62,0.01,5.66,0.22,7.59,0.75" class="grey" /><path d="M11.78,46.69c1.47,0.31,2.02,0.17,3.52,0.06c7.08-0.5,14.7-2.5,19.9-3.25c1.48-0.21,2.43-0.38,3.3-0.25" class="stroke" stroke-dasharray="150"><animate attributeName="stroke-dashoffset" from="150" to="0" dur="1.8s" begin="0s" fill="freeze" /></path><path d="M24.87,22.75c0.75,0.75,1.46,2.23,1.46,3.25c0,3.38,0.03,36.5,0.03,44.5" class="stroke" stroke-dasharray="150"><set attributeName="opacity" to="0" dur="1.0s" /><animate attributeName="stroke-dashoffset" from="150" to="0" dur="1.8s" begin="1.0s" fill="freeze" /></path><path d="M12.95,77.5c1.66,0.66,3.26,0.62,5.06-0.5c1.64-1.02,12.77-8.58,19.74-13.5" class="stroke" stroke-dasharray="150"><set attributeName="opacity" to="0" dur="2.2s" /><animate attributeName="stroke-dashoffset" from="150" to="0" dur="1.8s" begin="2.2s" fill="freeze" /></path><path d="M53.51,15.14c0.04,0.62,0.09,1.6-0.08,2.48c-0.81,4.17-4.7,12.3-10.3,19" class="stroke" stroke-dasharray="150"><set attributeName="opacity" to="0" dur="3.2s" /><animate attributeName="stroke-dashoffset" from="150" to="0" dur="1.8s" begin="3.2s" fill="freeze" /></path><path d="M53.5,27.39c1.12,0.36,2.42,0.26,3.35,0.13c6.4-0.9,16.53-2.65,26.61-4.63c1.54-0.3,2.5-0.07,3.29,0.12" class="stroke" stroke-dasharray="150"><set attributeName="opacity" to="0" dur="4.2s" /><animate attributeName="stroke-dashoffset" from="150" to="0" dur="1.8s" begin="4.2s" fill="freeze" /></path><path d="M51,38.91c0.77,0.58,1.37,1.86,1.32,2.83c0.63,3.56,0.83,6.55,1.41,10.89c0.13,0.98,0.27,2.01,0.42,3.09" class="stroke" stroke-dasharray="150"><set attributeName="opacity" to="0" dur="5.2s" /><animate attributeName="stroke-dashoffset" from="150" to="0" dur="1.8s" begin="5.2s" fill="freeze" /></path><path d="M53.32,40.23c7.56-1.21,21.59-2.78,26.93-3.35c2.4-0.26,3.81,0.94,3.12,3.39c-0.93,3.33-2.13,5.35-3.92,10.54" class="stroke" stroke-dasharray="150"><set attributeName="opacity" to="0" dur="6.1000000000000005s" /><animate attributeName="stroke-dashoffset" from="150" to="0" dur="1.8s" begin="6.1000000000000005s" fill="freeze" /></path><path d="M54.98,53.65c4.08-0.41,14.85-1.23,22.02-1.78c1.52-0.12,2.88-0.22,3.98-0.31" class="stroke" stroke-dasharray="150"><set attributeName="opacity" to="0" dur="7.200000000000001s" /><animate attributeName="stroke-dashoffset" from="150" to="0" dur="1.8s" begin="7.200000000000001s" fill="freeze" /></path><path d="M44.67,66.09c1.18,1.18,1.83,2.29,2.11,3.69c1.26,6.17,1.96,11.72,2.92,19.32" class="stroke" stroke-dasharray="150"><set attributeName="opacity" to="0" dur="8.200000000000001s" /><animate attributeName="stroke-dashoffset" from="150" to="0" dur="1.8s" begin="8.200000000000001s" fill="freeze" /></path><path d="M47.13,67.8c8.95-1.19,31.96-3.63,38.38-4.46c3.61-0.47,4.77,1.11,4.04,4.68c-0.85,4.14-2.58,13.93-3.66,18.53" class="stroke" stroke-dasharray="150"><set attributeName="opacity" to="0" dur="9.200000000000001s" /><animate attributeName="stroke-dashoffset" from="150" to="0" dur="1.8s" begin="9.200000000000001s" fill="freeze" /></path><path d="M59.36,68.87c0.7,0.7,1.21,1.58,1.3,2.33c0.84,6.93,1.09,9.81,1.5,16.64" class="stroke" stroke-dasharray="150"><set attributeName="opacity" to="0" dur="10.700000000000001s" /><animate attributeName="stroke-dashoffset" from="150" to="0" dur="1.8s" begin="10.700000000000001s" fill="freeze" /></path><path d="M74.23,66.97c0.64,0.78,0.58,1.99,0.5,2.79c-0.88,8.62-1.43,12.1-2.15,17.28" class="stroke" stroke-dasharray="150"><set attributeName="opacity" to="0" dur="11.600000000000001s" /><animate attributeName="stroke-dashoffset" from="150" to="0" dur="1.8s" begin="11.600000000000001s" fill="freeze" /></path><path d="M36.37,90.37c2.17,0.51,6.16,0.72,8.32,0.51c15.56-1.51,34.69-3.26,47.1-3.23c3.62,0.01,5.66,0.22,7.59,0.75" class="stroke" stroke-dasharray="150"><set attributeName="opacity" to="0" dur="12.600000000000001s" /><animate attributeName="stroke-dashoffset" from="150" to="0" dur="1.8s" begin="12.600000000000001s" fill="freeze" /></path><text x="90" y="120" id="reset">⟳</text><text x="70" y="120" id="pause">◼</text><script type="text/javascript"><![CDATA[function RecurringTimer(e,t){var n,r,i=t;this.pause=function(){window.clearTimeout(n);i-=new Date-r};var s=function(){r=new Date;n=window.setTimeout(function(){i=t;s();e()},i)};this.clear=function(){window.clearTimeout(n);i=t;n=window.setTimeout(function(){i=t;s();e()},i)};this.resume=s;this.resume()}function invoketimer(){timer=new RecurringTimer(function(){svg.setCurrentTime(0)},15100)}var svg=document.getElementById("kanjivg");var pause=document.getElementById("pause");var reset=document.getElementById("reset");var timer;invoketimer();reset.onclick=function(){svg.setCurrentTime(0);timer.clear();svg.unpauseAnimations();pause.innerHTML = "◼";};pause.onclick=function(){if(svg.animationsPaused()){svg.unpauseAnimations();timer.resume();pause.innerHTML="◼"}else{svg.pauseAnimations();timer.pause();pause.innerHTML="▶"}}]]></script></svg>