<svg id="kanjivg" width="106" height="126" xmlns="http://www.w3.org/2000/svg" xmlns:xlink="http://www.w3.org/1999/xlink" xml:space="preserve" version="1.1" baseProfile="full"><defs><style type="text/css"><![CDATA[path.black { fill:none;stroke:black;stroke-width:5;stroke-linecap:round;stroke-linejoin:round; }path.grey { fill:none;stroke:#ddd;stroke-width:5;stroke-linecap:round;stroke-linejoin:round; }path.stroke { fill:none;stroke:black;stroke-width:5;stroke-linecap:round;stroke-linejoin:round; }rect { fill:none;stroke:#555;stroke-width:2;} text{font-size:16px;font-family:Segoe UI Symbol,Cambria Math,DejaVu Sans,Symbola,Quivira,STIX,Code2000;-webkit-touch-callout:none;cursor:pointer;-webkit-user-select:none;-khtml-user-select:none;-moz-user-select:none;-ms-user-select:none;user-select: none;} #reset { font-weight:bold; }]]></style><marker id="markerStart" markerWidth="8" markerHeight="8" style="overflow:visible;"><circle cx="0" cy="0" r="1.5" style="stroke:none;fill:red;fill-opacity:0.5;"/></marker><marker id="markerEnd" style="overflow:visible;"><circle cx="0" cy="0" r="0.8" style="stroke:none;fill:blue;fill-opacity:0.5;"><animate attributeName="opacity" from="1" to="0" dur="3s" repeatCount="indefinite" /></circle></marker></defs><rect x="4" y="4" width="100" height="100" /><path d="M14.75,43.39c0.76,0.38,2.24,0.44,3,0.36c6.75-0.75,14.65-2.39,20-3c1.25-0.14,2.62-0.18,3.25,0.01" class="grey" /><path d="M26.87,16.75c1.09,0.5,1.74,2.25,1.96,3.25c0.22,1,0,43.25-0.22,49.5" class="grey" /><path d="M13.5,75.94c0.74,1.06,2.23,1.63,4.45,0.23c6.18-3.9,13.61-8.52,19.8-12.42" class="grey" /><path d="M43.07,24.68c0.92,0.51,2.61,0.59,3.53,0.51c11.4-0.94,33.07-3.78,41.14-3.98c1.54-0.04,2.46,0.24,3.23,0.5" class="grey" /><path d="M64.11,11.75c0.37,0.29,1.28,2.17,1.24,2.75C65,20,64.5,26.25,63.09,36.05" class="grey" /><path d="M48.84,35.64c0.4,0.65,1.27,1.5,1.27,2.64c0,9.22-0.01,33.45-0.01,34.02" class="grey" /><path d="M50.47,37.5c2.93-0.14,25.85-3.44,28.52-3.61c2.22-0.14,3.78,0.74,3.79,3.8c0,4.97-0.02,19.57-0.67,33.03" class="grey" /><path d="M50.33,47.53c10.67-0.81,24.84-2.99,31.92-3.27" class="grey" /><path d="M50.28,58.06c7.75-0.48,22.65-2.37,32.22-2.68" class="grey" /><path d="M50.8,68.99c11.54-1.17,21.93-2.14,31.47-2.73" class="grey" /><path d="M39.09,79.58c1.12,0.35,3.18,0.43,4.3,0.35c6.97-0.48,35.63-3.25,48.33-3.24c1.87,0,2.99,0.17,3.93,0.34" class="grey" /><path d="M57.04,83.72c0.04,0.34,0.09,0.87-0.09,1.35c-1.05,2.84-7.04,9.08-15.26,12.9" class="grey" /><path d="M74.46,85.11c5.77,2.2,14.92,9.03,16.36,12.45" class="grey" /><path d="M14.75,43.39c0.76,0.38,2.24,0.44,3,0.36c6.75-0.75,14.65-2.39,20-3c1.25-0.14,2.62-0.18,3.25,0.01" class="stroke" stroke-dasharray="150"><animate attributeName="stroke-dashoffset" from="150" to="0" dur="1.8s" begin="0s" fill="freeze" /></path><path d="M26.87,16.75c1.09,0.5,1.74,2.25,1.96,3.25c0.22,1,0,43.25-0.22,49.5" class="stroke" stroke-dasharray="150"><set attributeName="opacity" to="0" dur="1.0s" /><animate attributeName="stroke-dashoffset" from="150" to="0" dur="1.8s" begin="1.0s" fill="freeze" /></path><path d="M13.5,75.94c0.74,1.06,2.23,1.63,4.45,0.23c6.18-3.9,13.61-8.52,19.8-12.42" class="stroke" stroke-dasharray="150"><set attributeName="opacity" to="0" dur="2.3s" /><animate attributeName="stroke-dashoffset" from="150" to="0" dur="1.8s" begin="2.3s" fill="freeze" /></path><path d="M43.07,24.68c0.92,0.51,2.61,0.59,3.53,0.51c11.4-0.94,33.07-3.78,41.14-3.98c1.54-0.04,2.46,0.24,3.23,0.5" class="stroke" stroke-dasharray="150"><set attributeName="opacity" to="0" dur="3.3s" /><animate attributeName="stroke-dashoffset" from="150" to="0" dur="1.8s" begin="3.3s" fill="freeze" /></path><path d="M64.11,11.75c0.37,0.29,1.28,2.17,1.24,2.75C65,20,64.5,26.25,63.09,36.05" class="stroke" stroke-dasharray="150"><set attributeName="opacity" to="0" dur="4.5s" /><animate attributeName="stroke-dashoffset" from="150" to="0" dur="1.8s" begin="4.5s" fill="freeze" /></path><path d="M48.84,35.64c0.4,0.65,1.27,1.5,1.27,2.64c0,9.22-0.01,33.45-0.01,34.02" class="stroke" stroke-dasharray="150"><set attributeName="opacity" to="0" dur="5.5s" /><animate attributeName="stroke-dashoffset" from="150" to="0" dur="1.8s" begin="5.5s" fill="freeze" /></path><path d="M50.47,37.5c2.93-0.14,25.85-3.44,28.52-3.61c2.22-0.14,3.78,0.74,3.79,3.8c0,4.97-0.02,19.57-0.67,33.03" class="stroke" stroke-dasharray="150"><set attributeName="opacity" to="0" dur="6.5s" /><animate attributeName="stroke-dashoffset" from="150" to="0" dur="1.8s" begin="6.5s" fill="freeze" /></path><path d="M50.33,47.53c10.67-0.81,24.84-2.99,31.92-3.27" class="stroke" stroke-dasharray="150"><set attributeName="opacity" to="0" dur="8.0s" /><animate attributeName="stroke-dashoffset" from="150" to="0" dur="1.8s" begin="8.0s" fill="freeze" /></path><path d="M50.28,58.06c7.75-0.48,22.65-2.37,32.22-2.68" class="stroke" stroke-dasharray="150"><set attributeName="opacity" to="0" dur="9.0s" /><animate attributeName="stroke-dashoffset" from="150" to="0" dur="1.8s" begin="9.0s" fill="freeze" /></path><path d="M50.8,68.99c11.54-1.17,21.93-2.14,31.47-2.73" class="stroke" stroke-dasharray="150"><set attributeName="opacity" to="0" dur="10.0s" /><animate attributeName="stroke-dashoffset" from="150" to="0" dur="1.8s" begin="10.0s" fill="freeze" /></path><path d="M39.09,79.58c1.12,0.35,3.18,0.43,4.3,0.35c6.97-0.48,35.63-3.25,48.33-3.24c1.87,0,2.99,0.17,3.93,0.34" class="stroke" stroke-dasharray="150"><set attributeName="opacity" to="0" dur="11.0s" /><animate attributeName="stroke-dashoffset" from="150" to="0" dur="1.8s" begin="11.0s" fill="freeze" /></path><path d="M57.04,83.72c0.04,0.34,0.09,0.87-0.09,1.35c-1.05,2.84-7.04,9.08-15.26,12.9" class="stroke" stroke-dasharray="150"><set attributeName="opacity" to="0" dur="12.4s" /><animate attributeName="stroke-dashoffset" from="150" to="0" dur="1.8s" begin="12.4s" fill="freeze" /></path><path d="M74.46,85.11c5.77,2.2,14.92,9.03,16.36,12.45" class="stroke" stroke-dasharray="150"><set attributeName="opacity" to="0" dur="13.4s" /><animate attributeName="stroke-dashoffset" from="150" to="0" dur="1.8s" begin="13.4s" fill="freeze" /></path><text x="90" y="120" id="reset">⟳</text><text x="70" y="120" id="pause">◼</text><script type="text/javascript"><![CDATA[function RecurringTimer(e,t){var n,r,i=t;this.pause=function(){window.clearTimeout(n);i-=new Date-r};var s=function(){r=new Date;n=window.setTimeout(function(){i=t;s();e()},i)};this.clear=function(){window.clearTimeout(n);i=t;n=window.setTimeout(function(){i=t;s();e()},i)};this.resume=s;this.resume()}function invoketimer(){timer=new RecurringTimer(function(){svg.setCurrentTime(0)},15400)}var svg=document.getElementById("kanjivg");var pause=document.getElementById("pause");var reset=document.getElementById("reset");var timer;invoketimer();reset.onclick=function(){svg.setCurrentTime(0);timer.clear();svg.unpauseAnimations();pause.innerHTML = "◼";};pause.onclick=function(){if(svg.animationsPaused()){svg.unpauseAnimations();timer.resume();pause.innerHTML="◼"}else{svg.pauseAnimations();timer.pause();pause.innerHTML="▶"}}]]></script></svg>