<svg id="kanjivg" width="106" height="126" xmlns="http://www.w3.org/2000/svg" xmlns:xlink="http://www.w3.org/1999/xlink" xml:space="preserve" version="1.1" baseProfile="full"><defs><style type="text/css"><![CDATA[path.black { fill:none;stroke:black;stroke-width:5;stroke-linecap:round;stroke-linejoin:round; }path.grey { fill:none;stroke:#ddd;stroke-width:5;stroke-linecap:round;stroke-linejoin:round; }path.stroke { fill:none;stroke:black;stroke-width:5;stroke-linecap:round;stroke-linejoin:round; }rect { fill:none;stroke:#555;stroke-width:2;} text{font-size:16px;font-family:Segoe UI Symbol,Cambria Math,DejaVu Sans,Symbola,Quivira,STIX,Code2000;-webkit-touch-callout:none;cursor:pointer;-webkit-user-select:none;-khtml-user-select:none;-moz-user-select:none;-ms-user-select:none;user-select: none;} #reset { font-weight:bold; }]]></style><marker id="markerStart" markerWidth="8" markerHeight="8" style="overflow:visible;"><circle cx="0" cy="0" r="1.5" style="stroke:none;fill:red;fill-opacity:0.5;"/></marker><marker id="markerEnd" style="overflow:visible;"><circle cx="0" cy="0" r="0.8" style="stroke:none;fill:blue;fill-opacity:0.5;"><animate attributeName="opacity" from="1" to="0" dur="3s" repeatCount="indefinite" /></circle></marker></defs><rect x="4" y="4" width="100" height="100" /><path d="M14.75,43.39c0.76,0.38,2.24,0.44,3,0.36c6.75-0.75,14.65-2.39,20-3c1.25-0.14,2.62-0.18,3.25,0.01" class="grey" /><path d="M26.87,16.75c1.09,0.5,1.74,2.25,1.96,3.25c0.22,1,0,43.25-0.22,49.5" class="grey" /><path d="M13.5,75.94c0.74,1.06,2.23,1.63,4.45,0.23c6.18-3.9,13.61-8.52,19.8-12.42" class="grey" /><path d="M81.02,12.25c-0.31,0.7-0.61,1.06-1.25,1.36c-4.14,1.98-16.67,7.44-30.06,9.46" class="grey" /><path d="M48,13c0.83,0.62,0.88,1.04,1.16,1.87c0.27,0.83-0.19,6-0.19,8.6c0,6.69,11.05,6.07,20.47,6.07c13.66,0,18.83-1.1,18.83-8.14" class="grey" /><path d="M54.85,36.75c0.38,0.74,0.94,2.09,0.94,3.07c0,0.98-0.13,30.2,0,31.18" class="grey" /><path d="M56.43,39.3c2.17-0.12,19.67-2.85,21.65-2.82c0.91,0.02,1.8,0.49,1.8,2.07c0,1.18,0.03,30.47-0.1,31.2" class="grey" /><path d="M55.88,48.94c4.27-0.17,20.03-2.03,23.5-2.03" class="grey" /><path d="M55.72,58.86c5.74-0.41,18.17-1.95,23.74-1.95" class="grey" /><path d="M55.91,68.91c4.3,0,18.02-1.55,23.59-1.55" class="grey" /><path d="M42.74,49c0.61,1,1.41,1.75,1.41,3.5S43.15,74,43.15,76.25s0.21,4.56,2.42,4.25c15.86-2.25,35.63-4,44.48-3.5c1.81,0.1,4.04,0.25,5.45,0.5" class="grey" /><path d="M55.94,85.39c0.05,0.31,0.11,0.8-0.1,1.24c-1.25,2.61-8.44,8.33-18.28,11.84" class="grey" /><path d="M75.06,83.83c5.78,2.41,14.92,9.89,16.36,13.63" class="grey" /><path d="M14.75,43.39c0.76,0.38,2.24,0.44,3,0.36c6.75-0.75,14.65-2.39,20-3c1.25-0.14,2.62-0.18,3.25,0.01" class="stroke" stroke-dasharray="150"><animate attributeName="stroke-dashoffset" from="150" to="0" dur="1.8s" begin="0s" fill="freeze" /></path><path d="M26.87,16.75c1.09,0.5,1.74,2.25,1.96,3.25c0.22,1,0,43.25-0.22,49.5" class="stroke" stroke-dasharray="150"><set attributeName="opacity" to="0" dur="1.0s" /><animate attributeName="stroke-dashoffset" from="150" to="0" dur="1.8s" begin="1.0s" fill="freeze" /></path><path d="M13.5,75.94c0.74,1.06,2.23,1.63,4.45,0.23c6.18-3.9,13.61-8.52,19.8-12.42" class="stroke" stroke-dasharray="150"><set attributeName="opacity" to="0" dur="2.3s" /><animate attributeName="stroke-dashoffset" from="150" to="0" dur="1.8s" begin="2.3s" fill="freeze" /></path><path d="M81.02,12.25c-0.31,0.7-0.61,1.06-1.25,1.36c-4.14,1.98-16.67,7.44-30.06,9.46" class="stroke" stroke-dasharray="150"><set attributeName="opacity" to="0" dur="3.3s" /><animate attributeName="stroke-dashoffset" from="150" to="0" dur="1.8s" begin="3.3s" fill="freeze" /></path><path d="M48,13c0.83,0.62,0.88,1.04,1.16,1.87c0.27,0.83-0.19,6-0.19,8.6c0,6.69,11.05,6.07,20.47,6.07c13.66,0,18.83-1.1,18.83-8.14" class="stroke" stroke-dasharray="150"><set attributeName="opacity" to="0" dur="4.3s" /><animate attributeName="stroke-dashoffset" from="150" to="0" dur="1.8s" begin="4.3s" fill="freeze" /></path><path d="M54.85,36.75c0.38,0.74,0.94,2.09,0.94,3.07c0,0.98-0.13,30.2,0,31.18" class="stroke" stroke-dasharray="150"><set attributeName="opacity" to="0" dur="5.699999999999999s" /><animate attributeName="stroke-dashoffset" from="150" to="0" dur="1.8s" begin="5.699999999999999s" fill="freeze" /></path><path d="M56.43,39.3c2.17-0.12,19.67-2.85,21.65-2.82c0.91,0.02,1.8,0.49,1.8,2.07c0,1.18,0.03,30.47-0.1,31.2" class="stroke" stroke-dasharray="150"><set attributeName="opacity" to="0" dur="6.699999999999999s" /><animate attributeName="stroke-dashoffset" from="150" to="0" dur="1.8s" begin="6.699999999999999s" fill="freeze" /></path><path d="M55.88,48.94c4.27-0.17,20.03-2.03,23.5-2.03" class="stroke" stroke-dasharray="150"><set attributeName="opacity" to="0" dur="8.1s" /><animate attributeName="stroke-dashoffset" from="150" to="0" dur="1.8s" begin="8.1s" fill="freeze" /></path><path d="M55.72,58.86c5.74-0.41,18.17-1.95,23.74-1.95" class="stroke" stroke-dasharray="150"><set attributeName="opacity" to="0" dur="9.1s" /><animate attributeName="stroke-dashoffset" from="150" to="0" dur="1.8s" begin="9.1s" fill="freeze" /></path><path d="M55.91,68.91c4.3,0,18.02-1.55,23.59-1.55" class="stroke" stroke-dasharray="150"><set attributeName="opacity" to="0" dur="10.1s" /><animate attributeName="stroke-dashoffset" from="150" to="0" dur="1.8s" begin="10.1s" fill="freeze" /></path><path d="M42.74,49c0.61,1,1.41,1.75,1.41,3.5S43.15,74,43.15,76.25s0.21,4.56,2.42,4.25c15.86-2.25,35.63-4,44.48-3.5c1.81,0.1,4.04,0.25,5.45,0.5" class="stroke" stroke-dasharray="150"><set attributeName="opacity" to="0" dur="11.1s" /><animate attributeName="stroke-dashoffset" from="150" to="0" dur="1.8s" begin="11.1s" fill="freeze" /></path><path d="M55.94,85.39c0.05,0.31,0.11,0.8-0.1,1.24c-1.25,2.61-8.44,8.33-18.28,11.84" class="stroke" stroke-dasharray="150"><set attributeName="opacity" to="0" dur="12.799999999999999s" /><animate attributeName="stroke-dashoffset" from="150" to="0" dur="1.8s" begin="12.799999999999999s" fill="freeze" /></path><path d="M75.06,83.83c5.78,2.41,14.92,9.89,16.36,13.63" class="stroke" stroke-dasharray="150"><set attributeName="opacity" to="0" dur="13.799999999999999s" /><animate attributeName="stroke-dashoffset" from="150" to="0" dur="1.8s" begin="13.799999999999999s" fill="freeze" /></path><text x="90" y="120" id="reset">⟳</text><text x="70" y="120" id="pause">◼</text><script type="text/javascript"><![CDATA[function RecurringTimer(e,t){var n,r,i=t;this.pause=function(){window.clearTimeout(n);i-=new Date-r};var s=function(){r=new Date;n=window.setTimeout(function(){i=t;s();e()},i)};this.clear=function(){window.clearTimeout(n);i=t;n=window.setTimeout(function(){i=t;s();e()},i)};this.resume=s;this.resume()}function invoketimer(){timer=new RecurringTimer(function(){svg.setCurrentTime(0)},15799)}var svg=document.getElementById("kanjivg");var pause=document.getElementById("pause");var reset=document.getElementById("reset");var timer;invoketimer();reset.onclick=function(){svg.setCurrentTime(0);timer.clear();svg.unpauseAnimations();pause.innerHTML = "◼";};pause.onclick=function(){if(svg.animationsPaused()){svg.unpauseAnimations();timer.resume();pause.innerHTML="◼"}else{svg.pauseAnimations();timer.pause();pause.innerHTML="▶"}}]]></script></svg>