<svg id="kanjivg" width="106" height="126" xmlns="http://www.w3.org/2000/svg" xmlns:xlink="http://www.w3.org/1999/xlink" xml:space="preserve" version="1.1" baseProfile="full"><defs><style type="text/css"><![CDATA[path.black { fill:none;stroke:black;stroke-width:5;stroke-linecap:round;stroke-linejoin:round; }path.grey { fill:none;stroke:#ddd;stroke-width:5;stroke-linecap:round;stroke-linejoin:round; }path.stroke { fill:none;stroke:black;stroke-width:5;stroke-linecap:round;stroke-linejoin:round; }rect { fill:none;stroke:#555;stroke-width:2;} text{font-size:16px;font-family:Segoe UI Symbol,Cambria Math,DejaVu Sans,Symbola,Quivira,STIX,Code2000;-webkit-touch-callout:none;cursor:pointer;-webkit-user-select:none;-khtml-user-select:none;-moz-user-select:none;-ms-user-select:none;user-select: none;} #reset { font-weight:bold; }]]></style><marker id="markerStart" markerWidth="8" markerHeight="8" style="overflow:visible;"><circle cx="0" cy="0" r="1.5" style="stroke:none;fill:red;fill-opacity:0.5;"/></marker><marker id="markerEnd" style="overflow:visible;"><circle cx="0" cy="0" r="0.8" style="stroke:none;fill:blue;fill-opacity:0.5;"><animate attributeName="opacity" from="1" to="0" dur="3s" repeatCount="indefinite" /></circle></marker></defs><rect x="4" y="4" width="100" height="100" /><path d="M22.44,12.15c3.35,1.34,8.65,5.5,9.49,7.59" class="grey" /><path d="M16.18,29.73c3.8,0.91,9.83,3.74,10.78,5.16" class="grey" /><path d="M16.5,64.37c1.34,0.87,2.95,0.91,3.79-0.17c2.45-3.14,6.91-10.98,9.14-14.99" class="grey" /><path d="M54.12,10.5c0.04,0.44,0.14,1.14-0.08,1.76c-1.3,3.79-8.4,12.21-13.9,16.87" class="grey" /><path d="M51.37,19.71c1.01,0.22,3.96,0.36,4.95,0.22c5.67-0.76,17.24-2.51,28-3.68c1.65-0.18,3.77,0.11,4.61,0.22" class="grey" /><path d="M52.36,28.07c0.88,0.57,2.08,2.97,1.59,4.42c-2.45,7.26-5.78,18.9-8.29,22.17c-1.47,1.92-0.42,2.88,1.26,2.88c13.47,0,29.83,0.46,42.6,6.62" class="grey" /><path d="M54.82,31.43c0.93-0.1,2.71-0.21,3.52-0.27c8.37-0.69,19.43-3.29,24.08-3.29c2.36,0,2.99,1.11,2.83,2.47c-1.18,10-4.5,28.15-9.55,36.39c-1.88,3.05-5.24-0.42-6.18-1.13" class="grey" /><path d="M63.69,34.9c1.76,0.77,4.55,3.15,4.99,4.34" class="grey" /><path d="M61.44,48.65c2.29,0.99,5.92,4.05,6.49,5.59" class="grey" /><path d="M37.14,45.87c1.23,0.32,3.49,0.9,4.73,0.82C53.5,46,73.75,43,93.06,42.51c2.06-0.05,3.29,0.15,4.32,0.31" class="grey" /><path d="M27.63,79.45c1.12,0.3,3.17,0.34,4.29,0.3c8.95-0.25,36.58-3.48,47.05-3.48c1.86,0,2.98,0.14,3.91,0.3" class="grey" /><path d="M52.42,65.62c0.12,0.23,1.31,1.71,1.27,3.19c-0.19,8.45,0.06,23.28,0.06,25.7" class="grey" /><path d="M17.88,96.36c1.52,0.43,4.31,0.52,5.82,0.43c13.55-0.79,45.05-3.54,64.11-3.15c2.53,0.05,4.05,0.2,5.31,0.42" class="grey" /><path d="M22.44,12.15c3.35,1.34,8.65,5.5,9.49,7.59" class="stroke" stroke-dasharray="150"><animate attributeName="stroke-dashoffset" from="150" to="0" dur="1.8s" begin="0s" fill="freeze" /></path><path d="M16.18,29.73c3.8,0.91,9.83,3.74,10.78,5.16" class="stroke" stroke-dasharray="150"><set attributeName="opacity" to="0" dur="0.9s" /><animate attributeName="stroke-dashoffset" from="150" to="0" dur="1.8s" begin="0.9s" fill="freeze" /></path><path d="M16.5,64.37c1.34,0.87,2.95,0.91,3.79-0.17c2.45-3.14,6.91-10.98,9.14-14.99" class="stroke" stroke-dasharray="150"><set attributeName="opacity" to="0" dur="1.8s" /><animate attributeName="stroke-dashoffset" from="150" to="0" dur="1.8s" begin="1.8s" fill="freeze" /></path><path d="M54.12,10.5c0.04,0.44,0.14,1.14-0.08,1.76c-1.3,3.79-8.4,12.21-13.9,16.87" class="stroke" stroke-dasharray="150"><set attributeName="opacity" to="0" dur="2.8s" /><animate attributeName="stroke-dashoffset" from="150" to="0" dur="1.8s" begin="2.8s" fill="freeze" /></path><path d="M51.37,19.71c1.01,0.22,3.96,0.36,4.95,0.22c5.67-0.76,17.24-2.51,28-3.68c1.65-0.18,3.77,0.11,4.61,0.22" class="stroke" stroke-dasharray="150"><set attributeName="opacity" to="0" dur="3.8s" /><animate attributeName="stroke-dashoffset" from="150" to="0" dur="1.8s" begin="3.8s" fill="freeze" /></path><path d="M52.36,28.07c0.88,0.57,2.08,2.97,1.59,4.42c-2.45,7.26-5.78,18.9-8.29,22.17c-1.47,1.92-0.42,2.88,1.26,2.88c13.47,0,29.83,0.46,42.6,6.62" class="stroke" stroke-dasharray="150"><set attributeName="opacity" to="0" dur="4.8s" /><animate attributeName="stroke-dashoffset" from="150" to="0" dur="1.8s" begin="4.8s" fill="freeze" /></path><path d="M54.82,31.43c0.93-0.1,2.71-0.21,3.52-0.27c8.37-0.69,19.43-3.29,24.08-3.29c2.36,0,2.99,1.11,2.83,2.47c-1.18,10-4.5,28.15-9.55,36.39c-1.88,3.05-5.24-0.42-6.18-1.13" class="stroke" stroke-dasharray="150"><set attributeName="opacity" to="0" dur="6.5s" /><animate attributeName="stroke-dashoffset" from="150" to="0" dur="1.8s" begin="6.5s" fill="freeze" /></path><path d="M63.69,34.9c1.76,0.77,4.55,3.15,4.99,4.34" class="stroke" stroke-dasharray="150"><set attributeName="opacity" to="0" dur="8.2s" /><animate attributeName="stroke-dashoffset" from="150" to="0" dur="1.8s" begin="8.2s" fill="freeze" /></path><path d="M61.44,48.65c2.29,0.99,5.92,4.05,6.49,5.59" class="stroke" stroke-dasharray="150"><set attributeName="opacity" to="0" dur="9.1s" /><animate attributeName="stroke-dashoffset" from="150" to="0" dur="1.8s" begin="9.1s" fill="freeze" /></path><path d="M37.14,45.87c1.23,0.32,3.49,0.9,4.73,0.82C53.5,46,73.75,43,93.06,42.51c2.06-0.05,3.29,0.15,4.32,0.31" class="stroke" stroke-dasharray="150"><set attributeName="opacity" to="0" dur="10.0s" /><animate attributeName="stroke-dashoffset" from="150" to="0" dur="1.8s" begin="10.0s" fill="freeze" /></path><path d="M27.63,79.45c1.12,0.3,3.17,0.34,4.29,0.3c8.95-0.25,36.58-3.48,47.05-3.48c1.86,0,2.98,0.14,3.91,0.3" class="stroke" stroke-dasharray="150"><set attributeName="opacity" to="0" dur="11.5s" /><animate attributeName="stroke-dashoffset" from="150" to="0" dur="1.8s" begin="11.5s" fill="freeze" /></path><path d="M52.42,65.62c0.12,0.23,1.31,1.71,1.27,3.19c-0.19,8.45,0.06,23.28,0.06,25.7" class="stroke" stroke-dasharray="150"><set attributeName="opacity" to="0" dur="12.9s" /><animate attributeName="stroke-dashoffset" from="150" to="0" dur="1.8s" begin="12.9s" fill="freeze" /></path><path d="M17.88,96.36c1.52,0.43,4.31,0.52,5.82,0.43c13.55-0.79,45.05-3.54,64.11-3.15c2.53,0.05,4.05,0.2,5.31,0.42" class="stroke" stroke-dasharray="150"><set attributeName="opacity" to="0" dur="13.9s" /><animate attributeName="stroke-dashoffset" from="150" to="0" dur="1.8s" begin="13.9s" fill="freeze" /></path><text x="90" y="120" id="reset">⟳</text><text x="70" y="120" id="pause">◼</text><script type="text/javascript"><![CDATA[function RecurringTimer(e,t){var n,r,i=t;this.pause=function(){window.clearTimeout(n);i-=new Date-r};var s=function(){r=new Date;n=window.setTimeout(function(){i=t;s();e()},i)};this.clear=function(){window.clearTimeout(n);i=t;n=window.setTimeout(function(){i=t;s();e()},i)};this.resume=s;this.resume()}function invoketimer(){timer=new RecurringTimer(function(){svg.setCurrentTime(0)},16600)}var svg=document.getElementById("kanjivg");var pause=document.getElementById("pause");var reset=document.getElementById("reset");var timer;invoketimer();reset.onclick=function(){svg.setCurrentTime(0);timer.clear();svg.unpauseAnimations();pause.innerHTML = "◼";};pause.onclick=function(){if(svg.animationsPaused()){svg.unpauseAnimations();timer.resume();pause.innerHTML="◼"}else{svg.pauseAnimations();timer.pause();pause.innerHTML="▶"}}]]></script></svg>