<svg id="kanjivg" width="106" height="126" xmlns="http://www.w3.org/2000/svg" xmlns:xlink="http://www.w3.org/1999/xlink" xml:space="preserve" version="1.1" baseProfile="full"><defs><style type="text/css"><![CDATA[path.black { fill:none;stroke:black;stroke-width:5;stroke-linecap:round;stroke-linejoin:round; }path.grey { fill:none;stroke:#ddd;stroke-width:5;stroke-linecap:round;stroke-linejoin:round; }path.stroke { fill:none;stroke:black;stroke-width:5;stroke-linecap:round;stroke-linejoin:round; }rect { fill:none;stroke:#555;stroke-width:2;} text{font-size:16px;font-family:Segoe UI Symbol,Cambria Math,DejaVu Sans,Symbola,Quivira,STIX,Code2000;-webkit-touch-callout:none;cursor:pointer;-webkit-user-select:none;-khtml-user-select:none;-moz-user-select:none;-ms-user-select:none;user-select: none;} #reset { font-weight:bold; }]]></style><marker id="markerStart" markerWidth="8" markerHeight="8" style="overflow:visible;"><circle cx="0" cy="0" r="1.5" style="stroke:none;fill:red;fill-opacity:0.5;"/></marker><marker id="markerEnd" style="overflow:visible;"><circle cx="0" cy="0" r="0.8" style="stroke:none;fill:blue;fill-opacity:0.5;"><animate attributeName="opacity" from="1" to="0" dur="3s" repeatCount="indefinite" /></circle></marker></defs><rect x="4" y="4" width="100" height="100" /><path d="M29.6,8.95c1.75,0.71,3.65,2.55,4.63,4.88" class="grey" /><path d="M14.37,19.45c0.82,0.04,2.7,0.3,3.5,0.24c6.47-0.5,21.67-2.27,30.9-2.61c1.36-0.05,2.05,0.02,3.06,0.31" class="grey" /><path d="M21.27,25.67c0.25,0.18,0.5,0.34,0.61,0.57c0.86,1.83,2.21,6,2.8,9.29" class="grey" /><path d="M22.82,26.79c6.1-0.77,15.91-2.94,19.05-3.2c1.15-0.09,1.84,0.96,1.68,1.51c-0.68,2.31-0.95,2.82-1.87,6.05" class="grey" /><path d="M24.92,34.08c3.69-0.29,14.18-2.34,18.87-2.64" class="grey" /><path d="M21.64,41.04c0.92,0.14,2.66,0.36,4.05,0.24c1.69-0.15,15.5-2.81,17.12-2.81c1.61,0,2.35,0.61,0.85,1.6c-2.41,1.59-4.91,4.33-8.88,6.9" class="grey" /><path d="M31.25,47.5c13.25,6.5,6,26.45-0.45,18.1" class="grey" /><path d="M16.89,58.02c1.11,1.23,2,1.23,4.15,0.5c8.82-3.01,16.84-6.32,27.87-10.44" class="grey" /><path d="M67.48,10.68c0.5,0.46,1.1,2.61,1.1,3.45c-0.07,22.9-6.51,41.4-21.84,51.01" class="grey" /><path d="M54.26,28.75c0.72,0.6,3.4,0.2,4.29,0c0.89-0.2,20.41-6.03,21.21-6.08c1.79-0.1,3.58,0.76,3.04,2.98c-0.8,3.28-3.24,16.83-4.1,24.95c-1.2,11.3,0.88,13.93,7.93,13.93c7.87,0,7.62-1.38,7.62-6.74" class="grey" /><path d="M55.01,39.53c5.81,2.16,15.01,8.89,16.46,12.25" class="grey" /><path d="M26.71,80.07c1.34,0.52,3.78,0.6,5.12,0.52c13.92-0.84,30.92-2.59,43.49-3.64c2.22-0.19,3.56,0.25,4.68,0.51" class="grey" /><path d="M52.58,67.93c0.12,0.28,1.71,1.47,1.71,3.26c0,4.81-0.35,16.31-0.35,22.53" class="grey" /><path d="M16.88,95.99c1.64,0.47,4.66,0.63,6.3,0.47c16.83-1.71,44.77-3.92,62.96-4.54c2.74-0.09,4.38,0.22,5.75,0.46" class="grey" /><path d="M29.6,8.95c1.75,0.71,3.65,2.55,4.63,4.88" class="stroke" stroke-dasharray="150"><animate attributeName="stroke-dashoffset" from="150" to="0" dur="1.8s" begin="0s" fill="freeze" /></path><path d="M14.37,19.45c0.82,0.04,2.7,0.3,3.5,0.24c6.47-0.5,21.67-2.27,30.9-2.61c1.36-0.05,2.05,0.02,3.06,0.31" class="stroke" stroke-dasharray="150"><set attributeName="opacity" to="0" dur="0.9s" /><animate attributeName="stroke-dashoffset" from="150" to="0" dur="1.8s" begin="0.9s" fill="freeze" /></path><path d="M21.27,25.67c0.25,0.18,0.5,0.34,0.61,0.57c0.86,1.83,2.21,6,2.8,9.29" class="stroke" stroke-dasharray="150"><set attributeName="opacity" to="0" dur="1.9s" /><animate attributeName="stroke-dashoffset" from="150" to="0" dur="1.8s" begin="1.9s" fill="freeze" /></path><path d="M22.82,26.79c6.1-0.77,15.91-2.94,19.05-3.2c1.15-0.09,1.84,0.96,1.68,1.51c-0.68,2.31-0.95,2.82-1.87,6.05" class="stroke" stroke-dasharray="150"><set attributeName="opacity" to="0" dur="2.8s" /><animate attributeName="stroke-dashoffset" from="150" to="0" dur="1.8s" begin="2.8s" fill="freeze" /></path><path d="M24.92,34.08c3.69-0.29,14.18-2.34,18.87-2.64" class="stroke" stroke-dasharray="150"><set attributeName="opacity" to="0" dur="3.8s" /><animate attributeName="stroke-dashoffset" from="150" to="0" dur="1.8s" begin="3.8s" fill="freeze" /></path><path d="M21.64,41.04c0.92,0.14,2.66,0.36,4.05,0.24c1.69-0.15,15.5-2.81,17.12-2.81c1.61,0,2.35,0.61,0.85,1.6c-2.41,1.59-4.91,4.33-8.88,6.9" class="stroke" stroke-dasharray="150"><set attributeName="opacity" to="0" dur="4.7s" /><animate attributeName="stroke-dashoffset" from="150" to="0" dur="1.8s" begin="4.7s" fill="freeze" /></path><path d="M31.25,47.5c13.25,6.5,6,26.45-0.45,18.1" class="stroke" stroke-dasharray="150"><set attributeName="opacity" to="0" dur="5.7s" /><animate attributeName="stroke-dashoffset" from="150" to="0" dur="1.8s" begin="5.7s" fill="freeze" /></path><path d="M16.89,58.02c1.11,1.23,2,1.23,4.15,0.5c8.82-3.01,16.84-6.32,27.87-10.44" class="stroke" stroke-dasharray="150"><set attributeName="opacity" to="0" dur="6.7s" /><animate attributeName="stroke-dashoffset" from="150" to="0" dur="1.8s" begin="6.7s" fill="freeze" /></path><path d="M67.48,10.68c0.5,0.46,1.1,2.61,1.1,3.45c-0.07,22.9-6.51,41.4-21.84,51.01" class="stroke" stroke-dasharray="150"><set attributeName="opacity" to="0" dur="7.7s" /><animate attributeName="stroke-dashoffset" from="150" to="0" dur="1.8s" begin="7.7s" fill="freeze" /></path><path d="M54.26,28.75c0.72,0.6,3.4,0.2,4.29,0c0.89-0.2,20.41-6.03,21.21-6.08c1.79-0.1,3.58,0.76,3.04,2.98c-0.8,3.28-3.24,16.83-4.1,24.95c-1.2,11.3,0.88,13.93,7.93,13.93c7.87,0,7.62-1.38,7.62-6.74" class="stroke" stroke-dasharray="150"><set attributeName="opacity" to="0" dur="9.2s" /><animate attributeName="stroke-dashoffset" from="150" to="0" dur="1.8s" begin="9.2s" fill="freeze" /></path><path d="M55.01,39.53c5.81,2.16,15.01,8.89,16.46,12.25" class="stroke" stroke-dasharray="150"><set attributeName="opacity" to="0" dur="10.899999999999999s" /><animate attributeName="stroke-dashoffset" from="150" to="0" dur="1.8s" begin="10.899999999999999s" fill="freeze" /></path><path d="M26.71,80.07c1.34,0.52,3.78,0.6,5.12,0.52c13.92-0.84,30.92-2.59,43.49-3.64c2.22-0.19,3.56,0.25,4.68,0.51" class="stroke" stroke-dasharray="150"><set attributeName="opacity" to="0" dur="11.899999999999999s" /><animate attributeName="stroke-dashoffset" from="150" to="0" dur="1.8s" begin="11.899999999999999s" fill="freeze" /></path><path d="M52.58,67.93c0.12,0.28,1.71,1.47,1.71,3.26c0,4.81-0.35,16.31-0.35,22.53" class="stroke" stroke-dasharray="150"><set attributeName="opacity" to="0" dur="13.2s" /><animate attributeName="stroke-dashoffset" from="150" to="0" dur="1.8s" begin="13.2s" fill="freeze" /></path><path d="M16.88,95.99c1.64,0.47,4.66,0.63,6.3,0.47c16.83-1.71,44.77-3.92,62.96-4.54c2.74-0.09,4.38,0.22,5.75,0.46" class="stroke" stroke-dasharray="150"><set attributeName="opacity" to="0" dur="14.2s" /><animate attributeName="stroke-dashoffset" from="150" to="0" dur="1.8s" begin="14.2s" fill="freeze" /></path><text x="90" y="120" id="reset">⟳</text><text x="70" y="120" id="pause">◼</text><script type="text/javascript"><![CDATA[function RecurringTimer(e,t){var n,r,i=t;this.pause=function(){window.clearTimeout(n);i-=new Date-r};var s=function(){r=new Date;n=window.setTimeout(function(){i=t;s();e()},i)};this.clear=function(){window.clearTimeout(n);i=t;n=window.setTimeout(function(){i=t;s();e()},i)};this.resume=s;this.resume()}function invoketimer(){timer=new RecurringTimer(function(){svg.setCurrentTime(0)},16900)}var svg=document.getElementById("kanjivg");var pause=document.getElementById("pause");var reset=document.getElementById("reset");var timer;invoketimer();reset.onclick=function(){svg.setCurrentTime(0);timer.clear();svg.unpauseAnimations();pause.innerHTML = "◼";};pause.onclick=function(){if(svg.animationsPaused()){svg.unpauseAnimations();timer.resume();pause.innerHTML="◼"}else{svg.pauseAnimations();timer.pause();pause.innerHTML="▶"}}]]></script></svg>