<svg id="kanjivg" width="106" height="126" xmlns="http://www.w3.org/2000/svg" xmlns:xlink="http://www.w3.org/1999/xlink" xml:space="preserve" version="1.1" baseProfile="full"><defs><style type="text/css"><![CDATA[path.black { fill:none;stroke:black;stroke-width:5;stroke-linecap:round;stroke-linejoin:round; }path.grey { fill:none;stroke:#ddd;stroke-width:5;stroke-linecap:round;stroke-linejoin:round; }path.stroke { fill:none;stroke:black;stroke-width:5;stroke-linecap:round;stroke-linejoin:round; }rect { fill:none;stroke:#555;stroke-width:2;} text{font-size:16px;font-family:Segoe UI Symbol,Cambria Math,DejaVu Sans,Symbola,Quivira,STIX,Code2000;-webkit-touch-callout:none;cursor:pointer;-webkit-user-select:none;-khtml-user-select:none;-moz-user-select:none;-ms-user-select:none;user-select: none;} #reset { font-weight:bold; }]]></style><marker id="markerStart" markerWidth="8" markerHeight="8" style="overflow:visible;"><circle cx="0" cy="0" r="1.5" style="stroke:none;fill:red;fill-opacity:0.5;"/></marker><marker id="markerEnd" style="overflow:visible;"><circle cx="0" cy="0" r="0.8" style="stroke:none;fill:blue;fill-opacity:0.5;"><animate attributeName="opacity" from="1" to="0" dur="3s" repeatCount="indefinite" /></circle></marker></defs><rect x="4" y="4" width="100" height="100" /><path d="M16.37,22.05c0.68,0.31,1.92,0.38,2.6,0.31c9.45-0.95,19.86-1.98,29.48-2.8c1.13-0.1,1.81,0.15,2.37,0.31" class="grey" /><path d="M18.88,30.28c0.48,0.38,1.1,1.46,1.19,1.96c0.65,3.6,1.9,10.48,2.82,17.3" class="grey" /><path d="M21.2,31.24c7.34-0.72,21.05-2.88,26.06-2.99c2.07-0.05,2.5,0.99,2.41,2.11c-0.3,3.88-1.97,10.63-3.62,16.99" class="grey" /><path d="M22.02,39.43c5.54-0.19,15.83-1.93,26.46-2.41" class="grey" /><path d="M23.39,48.01c6.44-0.75,14.28-2.2,22.66-2.2" class="grey" /><path d="M14.22,57.18c0.92,0.58,2.59,0.64,3.54,0.58c9.49-0.69,22.73-2.88,31.57-3.55c1.53-0.12,2.94-0.12,3.71,0.16" class="grey" /><path d="M32.02,10.4c0.66,0.45,2.18,2.48,2.18,4.24c0,6.59-0.04,51.25-0.18,56.83" class="grey" /><path d="M84.18,13.5c0.05,0.24,0.21,0.72-0.1,0.98c-4.24,3.59-9.67,6.31-18.62,9.4" class="grey" /><path d="M62.87,24.14c0.45,1.18,0.44,2.3,0.44,3.59c0,12.69,0.44,24.52-6.39,34.3" class="grey" /><path d="M63.92,35.9c0.4,0.16,1.97,0.27,3.03,0.09c5.85-1,16.06-2.35,22.72-2.85c1.07-0.08,2.92-0.16,3.59,0" class="grey" /><path d="M78.18,36.9c0.86,0.5,1.38,2.25,1.55,3.26c0.17,1,0,23.33-0.17,29.6" class="grey" /><path d="M28.63,79.95c1.1,0.3,3.11,0.35,4.21,0.3c11.31-0.5,35.92-3.48,46.2-3.48c1.83,0,2.93,0.14,3.84,0.3" class="grey" /><path d="M52.42,66.62c0.12,0.23,1.8,1.21,1.77,2.69C54,77.75,54.25,92.59,54.25,95" class="grey" /><path d="M18.38,96.86c1.52,0.43,4.31,0.47,5.82,0.43c11.05-0.29,34.53-3.53,63.61-3.65c2.53-0.01,4.05,0.2,5.31,0.42" class="grey" /><path d="M16.37,22.05c0.68,0.31,1.92,0.38,2.6,0.31c9.45-0.95,19.86-1.98,29.48-2.8c1.13-0.1,1.81,0.15,2.37,0.31" class="stroke" stroke-dasharray="150"><animate attributeName="stroke-dashoffset" from="150" to="0" dur="1.8s" begin="0s" fill="freeze" /></path><path d="M18.88,30.28c0.48,0.38,1.1,1.46,1.19,1.96c0.65,3.6,1.9,10.48,2.82,17.3" class="stroke" stroke-dasharray="150"><set attributeName="opacity" to="0" dur="1.0s" /><animate attributeName="stroke-dashoffset" from="150" to="0" dur="1.8s" begin="1.0s" fill="freeze" /></path><path d="M21.2,31.24c7.34-0.72,21.05-2.88,26.06-2.99c2.07-0.05,2.5,0.99,2.41,2.11c-0.3,3.88-1.97,10.63-3.62,16.99" class="stroke" stroke-dasharray="150"><set attributeName="opacity" to="0" dur="1.9s" /><animate attributeName="stroke-dashoffset" from="150" to="0" dur="1.8s" begin="1.9s" fill="freeze" /></path><path d="M22.02,39.43c5.54-0.19,15.83-1.93,26.46-2.41" class="stroke" stroke-dasharray="150"><set attributeName="opacity" to="0" dur="3.0999999999999996s" /><animate attributeName="stroke-dashoffset" from="150" to="0" dur="1.8s" begin="3.0999999999999996s" fill="freeze" /></path><path d="M23.39,48.01c6.44-0.75,14.28-2.2,22.66-2.2" class="stroke" stroke-dasharray="150"><set attributeName="opacity" to="0" dur="4.1s" /><animate attributeName="stroke-dashoffset" from="150" to="0" dur="1.8s" begin="4.1s" fill="freeze" /></path><path d="M14.22,57.18c0.92,0.58,2.59,0.64,3.54,0.58c9.49-0.69,22.73-2.88,31.57-3.55c1.53-0.12,2.94-0.12,3.71,0.16" class="stroke" stroke-dasharray="150"><set attributeName="opacity" to="0" dur="5.1s" /><animate attributeName="stroke-dashoffset" from="150" to="0" dur="1.8s" begin="5.1s" fill="freeze" /></path><path d="M32.02,10.4c0.66,0.45,2.18,2.48,2.18,4.24c0,6.59-0.04,51.25-0.18,56.83" class="stroke" stroke-dasharray="150"><set attributeName="opacity" to="0" dur="6.1s" /><animate attributeName="stroke-dashoffset" from="150" to="0" dur="1.8s" begin="6.1s" fill="freeze" /></path><path d="M84.18,13.5c0.05,0.24,0.21,0.72-0.1,0.98c-4.24,3.59-9.67,6.31-18.62,9.4" class="stroke" stroke-dasharray="150"><set attributeName="opacity" to="0" dur="7.6s" /><animate attributeName="stroke-dashoffset" from="150" to="0" dur="1.8s" begin="7.6s" fill="freeze" /></path><path d="M62.87,24.14c0.45,1.18,0.44,2.3,0.44,3.59c0,12.69,0.44,24.52-6.39,34.3" class="stroke" stroke-dasharray="150"><set attributeName="opacity" to="0" dur="8.6s" /><animate attributeName="stroke-dashoffset" from="150" to="0" dur="1.8s" begin="8.6s" fill="freeze" /></path><path d="M63.92,35.9c0.4,0.16,1.97,0.27,3.03,0.09c5.85-1,16.06-2.35,22.72-2.85c1.07-0.08,2.92-0.16,3.59,0" class="stroke" stroke-dasharray="150"><set attributeName="opacity" to="0" dur="9.6s" /><animate attributeName="stroke-dashoffset" from="150" to="0" dur="1.8s" begin="9.6s" fill="freeze" /></path><path d="M78.18,36.9c0.86,0.5,1.38,2.25,1.55,3.26c0.17,1,0,23.33-0.17,29.6" class="stroke" stroke-dasharray="150"><set attributeName="opacity" to="0" dur="10.6s" /><animate attributeName="stroke-dashoffset" from="150" to="0" dur="1.8s" begin="10.6s" fill="freeze" /></path><path d="M28.63,79.95c1.1,0.3,3.11,0.35,4.21,0.3c11.31-0.5,35.92-3.48,46.2-3.48c1.83,0,2.93,0.14,3.84,0.3" class="stroke" stroke-dasharray="150"><set attributeName="opacity" to="0" dur="11.6s" /><animate attributeName="stroke-dashoffset" from="150" to="0" dur="1.8s" begin="11.6s" fill="freeze" /></path><path d="M52.42,66.62c0.12,0.23,1.8,1.21,1.77,2.69C54,77.75,54.25,92.59,54.25,95" class="stroke" stroke-dasharray="150"><set attributeName="opacity" to="0" dur="12.9s" /><animate attributeName="stroke-dashoffset" from="150" to="0" dur="1.8s" begin="12.9s" fill="freeze" /></path><path d="M18.38,96.86c1.52,0.43,4.31,0.47,5.82,0.43c11.05-0.29,34.53-3.53,63.61-3.65c2.53-0.01,4.05,0.2,5.31,0.42" class="stroke" stroke-dasharray="150"><set attributeName="opacity" to="0" dur="13.9s" /><animate attributeName="stroke-dashoffset" from="150" to="0" dur="1.8s" begin="13.9s" fill="freeze" /></path><text x="90" y="120" id="reset">⟳</text><text x="70" y="120" id="pause">◼</text><script type="text/javascript"><![CDATA[function RecurringTimer(e,t){var n,r,i=t;this.pause=function(){window.clearTimeout(n);i-=new Date-r};var s=function(){r=new Date;n=window.setTimeout(function(){i=t;s();e()},i)};this.clear=function(){window.clearTimeout(n);i=t;n=window.setTimeout(function(){i=t;s();e()},i)};this.resume=s;this.resume()}function invoketimer(){timer=new RecurringTimer(function(){svg.setCurrentTime(0)},16600)}var svg=document.getElementById("kanjivg");var pause=document.getElementById("pause");var reset=document.getElementById("reset");var timer;invoketimer();reset.onclick=function(){svg.setCurrentTime(0);timer.clear();svg.unpauseAnimations();pause.innerHTML = "◼";};pause.onclick=function(){if(svg.animationsPaused()){svg.unpauseAnimations();timer.resume();pause.innerHTML="◼"}else{svg.pauseAnimations();timer.pause();pause.innerHTML="▶"}}]]></script></svg>