<svg id="kanjivg" width="106" height="126" xmlns="http://www.w3.org/2000/svg" xmlns:xlink="http://www.w3.org/1999/xlink" xml:space="preserve" version="1.1" baseProfile="full"><defs><style type="text/css"><![CDATA[path.black { fill:none;stroke:black;stroke-width:5;stroke-linecap:round;stroke-linejoin:round; }path.grey { fill:none;stroke:#ddd;stroke-width:5;stroke-linecap:round;stroke-linejoin:round; }path.stroke { fill:none;stroke:black;stroke-width:5;stroke-linecap:round;stroke-linejoin:round; }rect { fill:none;stroke:#555;stroke-width:2;} text{font-size:16px;font-family:Segoe UI Symbol,Cambria Math,DejaVu Sans,Symbola,Quivira,STIX,Code2000;-webkit-touch-callout:none;cursor:pointer;-webkit-user-select:none;-khtml-user-select:none;-moz-user-select:none;-ms-user-select:none;user-select: none;} #reset { font-weight:bold; }]]></style><marker id="markerStart" markerWidth="8" markerHeight="8" style="overflow:visible;"><circle cx="0" cy="0" r="1.5" style="stroke:none;fill:red;fill-opacity:0.5;"/></marker><marker id="markerEnd" style="overflow:visible;"><circle cx="0" cy="0" r="0.8" style="stroke:none;fill:blue;fill-opacity:0.5;"><animate attributeName="opacity" from="1" to="0" dur="3s" repeatCount="indefinite" /></circle></marker></defs><rect x="4" y="4" width="100" height="100" /><path d="M50.77,11.13c2.48,0.87,6.48,3.12,8.23,6.6" class="grey" /><path d="M22.7,24.19c1.51,0.32,4.27,0.37,5.78,0.32c15.68-0.53,42.02-3.2,55.87-3.82c2.51-0.11,4.02,0.15,5.28,0.31" class="grey" /><path d="M27.19,24.93c0.04,1.61,0.09,4.16-0.09,6.48C26.05,45.08,26.5,77,12.31,92.94" class="grey" /><path d="M34.19,34.46c1.83,0.37,3.38,0.61,5.28,0.47c13.09-1.02,37.77-3.39,41.45-3.54c2.75-0.12,3.73,0.99,3.23,2.31c-0.92,2.43-2.14,6.08-3.38,8.69" class="grey" /><path d="M47.76,28.87c0.8,0.24,1.29,1.51,1.45,2c0.16,0.49,0.62,9.78,1.07,13.15" class="grey" /><path d="M64.48,26.45c0.7,0.25,1.31,1.57,1.26,2.09c-0.18,2.28-0.88,11.09-1.48,14.62" class="grey" /><path d="M32.92,45.54c0.86,0.22,2.43,0.28,3.29,0.22c5.47-0.39,38.29-3.07,44.43-2.99c1.43,0.02,1.29,0.11,2.01,0.22" class="grey" /><path d="M39.42,57.04c4.55-0.17,7.79-1.2,11.75-1.48c1.16-0.08,1.9-0.08,2.5-0.03" class="grey" /><path d="M37.43,51.5c0.82,0.31,1.52,1.22,1.52,1.64c0,1.14-0.26,13.23-0.26,14.68c0,1.61,1.66,1.37,3.29,0.86c4.27-1.32,5.76-2.89,10.88-4.99" class="grey" /><path d="M64.42,56.83c6.3-0.24,10.8-1.66,16.29-2.06c1.61-0.12,2.64-0.11,3.46-0.04" class="grey" /><path d="M63.03,48.53c0.72,0.72,1.29,1.53,1.29,2.36c0,1.09-0.07,8.11-0.1,9.39c-0.11,4.68,2.22,5.59,13.33,5.59c5.9,0,9.54-0.28,11.57-1.56" class="grey" /><path d="M34.34,80.35c1.16,0.4,3.26,0.86,4.41,0.76C52,80,66.23,78.37,81.11,78.14c1.92-0.03,3.07,0.12,4.03,0.25" class="grey" /><path d="M58.11,69.35c0.1,0.25,1.53,1.32,1.53,2.92c0,5.47-0.31,15.72-0.31,21.49" class="grey" /><path d="M26.13,95.31c1.31,0.47,3.72,0.57,5.02,0.47c16.23-1.31,43.6-3.02,59.39-3.01c2.18,0,4,0.72,5.09,0.96" class="grey" /><path d="M50.77,11.13c2.48,0.87,6.48,3.12,8.23,6.6" class="stroke" stroke-dasharray="150"><animate attributeName="stroke-dashoffset" from="150" to="0" dur="1.8s" begin="0s" fill="freeze" /></path><path d="M22.7,24.19c1.51,0.32,4.27,0.37,5.78,0.32c15.68-0.53,42.02-3.2,55.87-3.82c2.51-0.11,4.02,0.15,5.28,0.31" class="stroke" stroke-dasharray="150"><set attributeName="opacity" to="0" dur="0.9s" /><animate attributeName="stroke-dashoffset" from="150" to="0" dur="1.8s" begin="0.9s" fill="freeze" /></path><path d="M27.19,24.93c0.04,1.61,0.09,4.16-0.09,6.48C26.05,45.08,26.5,77,12.31,92.94" class="stroke" stroke-dasharray="150"><set attributeName="opacity" to="0" dur="2.4s" /><animate attributeName="stroke-dashoffset" from="150" to="0" dur="1.8s" begin="2.4s" fill="freeze" /></path><path d="M34.19,34.46c1.83,0.37,3.38,0.61,5.28,0.47c13.09-1.02,37.77-3.39,41.45-3.54c2.75-0.12,3.73,0.99,3.23,2.31c-0.92,2.43-2.14,6.08-3.38,8.69" class="stroke" stroke-dasharray="150"><set attributeName="opacity" to="0" dur="4.1s" /><animate attributeName="stroke-dashoffset" from="150" to="0" dur="1.8s" begin="4.1s" fill="freeze" /></path><path d="M47.76,28.87c0.8,0.24,1.29,1.51,1.45,2c0.16,0.49,0.62,9.78,1.07,13.15" class="stroke" stroke-dasharray="150"><set attributeName="opacity" to="0" dur="5.6s" /><animate attributeName="stroke-dashoffset" from="150" to="0" dur="1.8s" begin="5.6s" fill="freeze" /></path><path d="M64.48,26.45c0.7,0.25,1.31,1.57,1.26,2.09c-0.18,2.28-0.88,11.09-1.48,14.62" class="stroke" stroke-dasharray="150"><set attributeName="opacity" to="0" dur="6.5s" /><animate attributeName="stroke-dashoffset" from="150" to="0" dur="1.8s" begin="6.5s" fill="freeze" /></path><path d="M32.92,45.54c0.86,0.22,2.43,0.28,3.29,0.22c5.47-0.39,38.29-3.07,44.43-2.99c1.43,0.02,1.29,0.11,2.01,0.22" class="stroke" stroke-dasharray="150"><set attributeName="opacity" to="0" dur="7.4s" /><animate attributeName="stroke-dashoffset" from="150" to="0" dur="1.8s" begin="7.4s" fill="freeze" /></path><path d="M39.42,57.04c4.55-0.17,7.79-1.2,11.75-1.48c1.16-0.08,1.9-0.08,2.5-0.03" class="stroke" stroke-dasharray="150"><set attributeName="opacity" to="0" dur="8.6s" /><animate attributeName="stroke-dashoffset" from="150" to="0" dur="1.8s" begin="8.6s" fill="freeze" /></path><path d="M37.43,51.5c0.82,0.31,1.52,1.22,1.52,1.64c0,1.14-0.26,13.23-0.26,14.68c0,1.61,1.66,1.37,3.29,0.86c4.27-1.32,5.76-2.89,10.88-4.99" class="stroke" stroke-dasharray="150"><set attributeName="opacity" to="0" dur="9.5s" /><animate attributeName="stroke-dashoffset" from="150" to="0" dur="1.8s" begin="9.5s" fill="freeze" /></path><path d="M64.42,56.83c6.3-0.24,10.8-1.66,16.29-2.06c1.61-0.12,2.64-0.11,3.46-0.04" class="stroke" stroke-dasharray="150"><set attributeName="opacity" to="0" dur="10.5s" /><animate attributeName="stroke-dashoffset" from="150" to="0" dur="1.8s" begin="10.5s" fill="freeze" /></path><path d="M63.03,48.53c0.72,0.72,1.29,1.53,1.29,2.36c0,1.09-0.07,8.11-0.1,9.39c-0.11,4.68,2.22,5.59,13.33,5.59c5.9,0,9.54-0.28,11.57-1.56" class="stroke" stroke-dasharray="150"><set attributeName="opacity" to="0" dur="11.4s" /><animate attributeName="stroke-dashoffset" from="150" to="0" dur="1.8s" begin="11.4s" fill="freeze" /></path><path d="M34.34,80.35c1.16,0.4,3.26,0.86,4.41,0.76C52,80,66.23,78.37,81.11,78.14c1.92-0.03,3.07,0.12,4.03,0.25" class="stroke" stroke-dasharray="150"><set attributeName="opacity" to="0" dur="12.5s" /><animate attributeName="stroke-dashoffset" from="150" to="0" dur="1.8s" begin="12.5s" fill="freeze" /></path><path d="M58.11,69.35c0.1,0.25,1.53,1.32,1.53,2.92c0,5.47-0.31,15.72-0.31,21.49" class="stroke" stroke-dasharray="150"><set attributeName="opacity" to="0" dur="13.8s" /><animate attributeName="stroke-dashoffset" from="150" to="0" dur="1.8s" begin="13.8s" fill="freeze" /></path><path d="M26.13,95.31c1.31,0.47,3.72,0.57,5.02,0.47c16.23-1.31,43.6-3.02,59.39-3.01c2.18,0,4,0.72,5.09,0.96" class="stroke" stroke-dasharray="150"><set attributeName="opacity" to="0" dur="14.8s" /><animate attributeName="stroke-dashoffset" from="150" to="0" dur="1.8s" begin="14.8s" fill="freeze" /></path><text x="90" y="120" id="reset">⟳</text><text x="70" y="120" id="pause">◼</text><script type="text/javascript"><![CDATA[function RecurringTimer(e,t){var n,r,i=t;this.pause=function(){window.clearTimeout(n);i-=new Date-r};var s=function(){r=new Date;n=window.setTimeout(function(){i=t;s();e()},i)};this.clear=function(){window.clearTimeout(n);i=t;n=window.setTimeout(function(){i=t;s();e()},i)};this.resume=s;this.resume()}function invoketimer(){timer=new RecurringTimer(function(){svg.setCurrentTime(0)},17300)}var svg=document.getElementById("kanjivg");var pause=document.getElementById("pause");var reset=document.getElementById("reset");var timer;invoketimer();reset.onclick=function(){svg.setCurrentTime(0);timer.clear();svg.unpauseAnimations();pause.innerHTML = "◼";};pause.onclick=function(){if(svg.animationsPaused()){svg.unpauseAnimations();timer.resume();pause.innerHTML="◼"}else{svg.pauseAnimations();timer.pause();pause.innerHTML="▶"}}]]></script></svg>