<svg id="kanjivg" width="106" height="126" xmlns="http://www.w3.org/2000/svg" xmlns:xlink="http://www.w3.org/1999/xlink" xml:space="preserve" version="1.1" baseProfile="full"><defs><style type="text/css"><![CDATA[path.black { fill:none;stroke:black;stroke-width:5;stroke-linecap:round;stroke-linejoin:round; }path.grey { fill:none;stroke:#ddd;stroke-width:5;stroke-linecap:round;stroke-linejoin:round; }path.stroke { fill:none;stroke:black;stroke-width:5;stroke-linecap:round;stroke-linejoin:round; }rect { fill:none;stroke:#555;stroke-width:2;} text{font-size:16px;font-family:Segoe UI Symbol,Cambria Math,DejaVu Sans,Symbola,Quivira,STIX,Code2000;-webkit-touch-callout:none;cursor:pointer;-webkit-user-select:none;-khtml-user-select:none;-moz-user-select:none;-ms-user-select:none;user-select: none;} #reset { font-weight:bold; }]]></style><marker id="markerStart" markerWidth="8" markerHeight="8" style="overflow:visible;"><circle cx="0" cy="0" r="1.5" style="stroke:none;fill:red;fill-opacity:0.5;"/></marker><marker id="markerEnd" style="overflow:visible;"><circle cx="0" cy="0" r="0.8" style="stroke:none;fill:blue;fill-opacity:0.5;"><animate attributeName="opacity" from="1" to="0" dur="3s" repeatCount="indefinite" /></circle></marker></defs><rect x="4" y="4" width="100" height="100" /><path d="M10.75,42.89c0.76,0.38,2.24,0.4,3,0.36c4.75-0.25,16.15-2.39,21.5-3c1.25-0.14,2.62-0.18,3.25,0.01" class="grey" /><path d="M24.87,15.25c1.09,0.5,1.74,2.25,1.96,3.25c0.22,1,0,45.25-0.22,51.5" class="grey" /><path d="M11.5,76.83c0.75,1.17,2.25,1.8,4.5,0.25c6.25-4.3,12.75-8.28,19-12.58" class="grey" /><path d="M56.35,10.5c0.03,0.51,0.17,1.48-0.07,2.04C53,20,49.5,25.25,43.25,33.04" class="grey" /><path d="M55,20.93c0.83,0.48,2.47,0.58,3.31,0.45c5.31-0.83,22.21-2.98,28.11-3.75c1.38-0.18,2.89-0.23,3.58,0.01" class="grey" /><path d="M53.63,30.12c0.27,0.46,0.44,0.7,0.53,1.3c0.65,4.25,2.14,17.48,2.23,18.1" class="grey" /><path d="M54.82,30.86c5.12-0.6,19.83-2.21,26.39-2.62c1.14-0.07,1.82,1.64,1.78,2.11c-0.49,5.73-0.5,9.9-1.58,16.79" class="grey" /><path d="M55.84,39.28c4.38,0,8.85-0.65,13.22-1c1.53-0.13,3.06-0.25,4.52-0.37" class="grey" /><path d="M57.21,47.61c4.14-0.45,18.1-1.4,23.25-1.79" class="grey" /><path d="M42.81,57.56c1.28,0.3,3.62,0.4,4.89,0.3c12.04-0.87,33.05-4.31,45.5-4.43c2.13-0.02,3.4,0.15,4.47,0.3" class="grey" /><path d="M56.14,59.73c0.04,0.48,0.22,1.31-0.08,1.94C53.94,66.17,48.5,74,41.46,78.97" class="grey" /><path d="M56.29,65.96c0.83,0.45,2,0.61,3.34,0.3c1.33-0.3,27.34-3.38,30.68-3.53c3.34-0.15,4.01,1.51,3.5,4.69C93,72.5,88.75,86.5,82,96.74c-1.87,2.84-3.45-0.43-5.42-2.32" class="grey" /><path d="M62.67,69.72c0.05,0.44,0.14,1.14-0.1,1.76c-2.33,6.07-8.72,14.5-17.91,19.48" class="grey" /><path d="M78.39,67.54c0.08,0.81,0.31,2.13-0.17,3.24C75.25,77.75,69,88.25,56.88,97.4" class="grey" /><path d="M10.75,42.89c0.76,0.38,2.24,0.4,3,0.36c4.75-0.25,16.15-2.39,21.5-3c1.25-0.14,2.62-0.18,3.25,0.01" class="stroke" stroke-dasharray="150"><animate attributeName="stroke-dashoffset" from="150" to="0" dur="1.8s" begin="0s" fill="freeze" /></path><path d="M24.87,15.25c1.09,0.5,1.74,2.25,1.96,3.25c0.22,1,0,45.25-0.22,51.5" class="stroke" stroke-dasharray="150"><set attributeName="opacity" to="0" dur="1.0s" /><animate attributeName="stroke-dashoffset" from="150" to="0" dur="1.8s" begin="1.0s" fill="freeze" /></path><path d="M11.5,76.83c0.75,1.17,2.25,1.8,4.5,0.25c6.25-4.3,12.75-8.28,19-12.58" class="stroke" stroke-dasharray="150"><set attributeName="opacity" to="0" dur="2.4s" /><animate attributeName="stroke-dashoffset" from="150" to="0" dur="1.8s" begin="2.4s" fill="freeze" /></path><path d="M56.35,10.5c0.03,0.51,0.17,1.48-0.07,2.04C53,20,49.5,25.25,43.25,33.04" class="stroke" stroke-dasharray="150"><set attributeName="opacity" to="0" dur="3.4s" /><animate attributeName="stroke-dashoffset" from="150" to="0" dur="1.8s" begin="3.4s" fill="freeze" /></path><path d="M55,20.93c0.83,0.48,2.47,0.58,3.31,0.45c5.31-0.83,22.21-2.98,28.11-3.75c1.38-0.18,2.89-0.23,3.58,0.01" class="stroke" stroke-dasharray="150"><set attributeName="opacity" to="0" dur="4.4s" /><animate attributeName="stroke-dashoffset" from="150" to="0" dur="1.8s" begin="4.4s" fill="freeze" /></path><path d="M53.63,30.12c0.27,0.46,0.44,0.7,0.53,1.3c0.65,4.25,2.14,17.48,2.23,18.1" class="stroke" stroke-dasharray="150"><set attributeName="opacity" to="0" dur="5.4s" /><animate attributeName="stroke-dashoffset" from="150" to="0" dur="1.8s" begin="5.4s" fill="freeze" /></path><path d="M54.82,30.86c5.12-0.6,19.83-2.21,26.39-2.62c1.14-0.07,1.82,1.64,1.78,2.11c-0.49,5.73-0.5,9.9-1.58,16.79" class="stroke" stroke-dasharray="150"><set attributeName="opacity" to="0" dur="6.300000000000001s" /><animate attributeName="stroke-dashoffset" from="150" to="0" dur="1.8s" begin="6.300000000000001s" fill="freeze" /></path><path d="M55.84,39.28c4.38,0,8.85-0.65,13.22-1c1.53-0.13,3.06-0.25,4.52-0.37" class="stroke" stroke-dasharray="150"><set attributeName="opacity" to="0" dur="7.500000000000001s" /><animate attributeName="stroke-dashoffset" from="150" to="0" dur="1.8s" begin="7.500000000000001s" fill="freeze" /></path><path d="M57.21,47.61c4.14-0.45,18.1-1.4,23.25-1.79" class="stroke" stroke-dasharray="150"><set attributeName="opacity" to="0" dur="8.4s" /><animate attributeName="stroke-dashoffset" from="150" to="0" dur="1.8s" begin="8.4s" fill="freeze" /></path><path d="M42.81,57.56c1.28,0.3,3.62,0.4,4.89,0.3c12.04-0.87,33.05-4.31,45.5-4.43c2.13-0.02,3.4,0.15,4.47,0.3" class="stroke" stroke-dasharray="150"><set attributeName="opacity" to="0" dur="9.4s" /><animate attributeName="stroke-dashoffset" from="150" to="0" dur="1.8s" begin="9.4s" fill="freeze" /></path><path d="M56.14,59.73c0.04,0.48,0.22,1.31-0.08,1.94C53.94,66.17,48.5,74,41.46,78.97" class="stroke" stroke-dasharray="150"><set attributeName="opacity" to="0" dur="10.8s" /><animate attributeName="stroke-dashoffset" from="150" to="0" dur="1.8s" begin="10.8s" fill="freeze" /></path><path d="M56.29,65.96c0.83,0.45,2,0.61,3.34,0.3c1.33-0.3,27.34-3.38,30.68-3.53c3.34-0.15,4.01,1.51,3.5,4.69C93,72.5,88.75,86.5,82,96.74c-1.87,2.84-3.45-0.43-5.42-2.32" class="stroke" stroke-dasharray="150"><set attributeName="opacity" to="0" dur="11.8s" /><animate attributeName="stroke-dashoffset" from="150" to="0" dur="1.8s" begin="11.8s" fill="freeze" /></path><path d="M62.67,69.72c0.05,0.44,0.14,1.14-0.1,1.76c-2.33,6.07-8.72,14.5-17.91,19.48" class="stroke" stroke-dasharray="150"><set attributeName="opacity" to="0" dur="13.5s" /><animate attributeName="stroke-dashoffset" from="150" to="0" dur="1.8s" begin="13.5s" fill="freeze" /></path><path d="M78.39,67.54c0.08,0.81,0.31,2.13-0.17,3.24C75.25,77.75,69,88.25,56.88,97.4" class="stroke" stroke-dasharray="150"><set attributeName="opacity" to="0" dur="14.5s" /><animate attributeName="stroke-dashoffset" from="150" to="0" dur="1.8s" begin="14.5s" fill="freeze" /></path><text x="90" y="120" id="reset">⟳</text><text x="70" y="120" id="pause">◼</text><script type="text/javascript"><![CDATA[function RecurringTimer(e,t){var n,r,i=t;this.pause=function(){window.clearTimeout(n);i-=new Date-r};var s=function(){r=new Date;n=window.setTimeout(function(){i=t;s();e()},i)};this.clear=function(){window.clearTimeout(n);i=t;n=window.setTimeout(function(){i=t;s();e()},i)};this.resume=s;this.resume()}function invoketimer(){timer=new RecurringTimer(function(){svg.setCurrentTime(0)},16500)}var svg=document.getElementById("kanjivg");var pause=document.getElementById("pause");var reset=document.getElementById("reset");var timer;invoketimer();reset.onclick=function(){svg.setCurrentTime(0);timer.clear();svg.unpauseAnimations();pause.innerHTML = "◼";};pause.onclick=function(){if(svg.animationsPaused()){svg.unpauseAnimations();timer.resume();pause.innerHTML="◼"}else{svg.pauseAnimations();timer.pause();pause.innerHTML="▶"}}]]></script></svg>