<svg id="kanjivg" width="106" height="126" xmlns="http://www.w3.org/2000/svg" xmlns:xlink="http://www.w3.org/1999/xlink" xml:space="preserve" version="1.1" baseProfile="full"><defs><style type="text/css"><![CDATA[path.black { fill:none;stroke:black;stroke-width:5;stroke-linecap:round;stroke-linejoin:round; }path.grey { fill:none;stroke:#ddd;stroke-width:5;stroke-linecap:round;stroke-linejoin:round; }path.stroke { fill:none;stroke:black;stroke-width:5;stroke-linecap:round;stroke-linejoin:round; }rect { fill:none;stroke:#555;stroke-width:2;} text{font-size:16px;font-family:Segoe UI Symbol,Cambria Math,DejaVu Sans,Symbola,Quivira,STIX,Code2000;-webkit-touch-callout:none;cursor:pointer;-webkit-user-select:none;-khtml-user-select:none;-moz-user-select:none;-ms-user-select:none;user-select: none;} #reset { font-weight:bold; }]]></style><marker id="markerStart" markerWidth="8" markerHeight="8" style="overflow:visible;"><circle cx="0" cy="0" r="1.5" style="stroke:none;fill:red;fill-opacity:0.5;"/></marker><marker id="markerEnd" style="overflow:visible;"><circle cx="0" cy="0" r="0.8" style="stroke:none;fill:blue;fill-opacity:0.5;"><animate attributeName="opacity" from="1" to="0" dur="3s" repeatCount="indefinite" /></circle></marker></defs><rect x="4" y="4" width="100" height="100" /><path d="M54.52,11.38c0.92,0.93,1.55,2.49,1.55,3.39c0,0.47-0.07,3.99-0.07,6.6" class="grey" /><path d="M22.7,24.44c3.35,0.37,6.7,0.5,10.05,0.13c15.5-1.7,31.12-2.95,46.25-3.61c3.59-0.29,7.13-0.03,10.63,0.79" class="grey" /><path d="M25.94,25.43c0.87,0.87,1.29,2.41,1.16,4.73C26,50.75,25.5,74.5,12.31,92.94" class="grey" /><path d="M34.19,34.96c3.48,0.61,6.96,0.62,10.44,0.03c12.3-1.12,29.25-2.81,34.74-3.26c3.04-0.25,4.88,1.22,3.83,4.1c-0.8,2.2-1.2,3.06-2.44,6.06" class="grey" /><path d="M47.51,28.37c0.81,0.81,1.4,1.99,1.45,2.5c0.42,4.25,0.67,9.75,0.82,13.15" class="grey" /><path d="M64.98,26.7c0.4,1.05,0.64,1.81,0.51,2.84c-0.49,4.08-0.74,8.08-1.23,13.12" class="grey" /><path d="M32.92,45.79c2.4,0.25,4.82,0.46,7.22,0.18c10.49-1.22,24.82-2.34,34.37-2.93c2.71-0.2,5.42-0.21,8.14-0.04" class="grey" /><path d="M39.67,57.04c5.7-0.91,7.79-1.2,11.75-1.48c1.16-0.08,1.9-0.08,2.5-0.03" class="grey" /><path d="M37.93,51.75c0.78,0.79,1.02,1.75,1.02,2.64c0,0.92-0.01,7.82-0.01,11.36c0,2.53,0.65,4.07,3.29,2.68c4.38-2.3,5.26-2.68,10.63-4.74" class="grey" /><path d="M84.6,49.49c-0.1,1.01-0.89,1.8-1.55,2.18c-2.3,1.33-9.22,3.89-16.18,5.96" class="grey" /><path d="M63.28,48.78c0.91,0.91,1.04,2.09,1.04,3.11c0,1.09-0.03,6.45-0.06,7.74c-0.11,4.68,2.18,6.24,13.29,6.24c13.05,0,13.74-0.87,13.74-6.52" class="grey" /><path d="M34.34,80.1c3.31,0.96,6.58,0.54,10.04,0.26c10.99-0.87,21.46-2.07,32.87-2.39c2.65-0.25,5.28-0.11,7.88,0.42" class="grey" /><path d="M58.36,69.6c0.77,0.77,1.03,1.77,1.03,3.17c0,5.47-0.01,14.33-0.01,20.1" class="grey" /><path d="M26.13,95.06c4.01,0.94,7.97,0.38,12.12,0.17c14.79-0.75,30.63-1.73,47.12-2.15c3.56-0.09,7.06,0.23,10.51,1.14" class="grey" /><path d="M54.52,11.38c0.92,0.93,1.55,2.49,1.55,3.39c0,0.47-0.07,3.99-0.07,6.6" class="stroke" stroke-dasharray="150"><animate attributeName="stroke-dashoffset" from="150" to="0" dur="1.8s" begin="0s" fill="freeze" /></path><path d="M22.7,24.44c3.35,0.37,6.7,0.5,10.05,0.13c15.5-1.7,31.12-2.95,46.25-3.61c3.59-0.29,7.13-0.03,10.63,0.79" class="stroke" stroke-dasharray="150"><set attributeName="opacity" to="0" dur="0.9s" /><animate attributeName="stroke-dashoffset" from="150" to="0" dur="1.8s" begin="0.9s" fill="freeze" /></path><path d="M25.94,25.43c0.87,0.87,1.29,2.41,1.16,4.73C26,50.75,25.5,74.5,12.31,92.94" class="stroke" stroke-dasharray="150"><set attributeName="opacity" to="0" dur="2.4s" /><animate attributeName="stroke-dashoffset" from="150" to="0" dur="1.8s" begin="2.4s" fill="freeze" /></path><path d="M34.19,34.96c3.48,0.61,6.96,0.62,10.44,0.03c12.3-1.12,29.25-2.81,34.74-3.26c3.04-0.25,4.88,1.22,3.83,4.1c-0.8,2.2-1.2,3.06-2.44,6.06" class="stroke" stroke-dasharray="150"><set attributeName="opacity" to="0" dur="4.1s" /><animate attributeName="stroke-dashoffset" from="150" to="0" dur="1.8s" begin="4.1s" fill="freeze" /></path><path d="M47.51,28.37c0.81,0.81,1.4,1.99,1.45,2.5c0.42,4.25,0.67,9.75,0.82,13.15" class="stroke" stroke-dasharray="150"><set attributeName="opacity" to="0" dur="5.5s" /><animate attributeName="stroke-dashoffset" from="150" to="0" dur="1.8s" begin="5.5s" fill="freeze" /></path><path d="M64.98,26.7c0.4,1.05,0.64,1.81,0.51,2.84c-0.49,4.08-0.74,8.08-1.23,13.12" class="stroke" stroke-dasharray="150"><set attributeName="opacity" to="0" dur="6.4s" /><animate attributeName="stroke-dashoffset" from="150" to="0" dur="1.8s" begin="6.4s" fill="freeze" /></path><path d="M32.92,45.79c2.4,0.25,4.82,0.46,7.22,0.18c10.49-1.22,24.82-2.34,34.37-2.93c2.71-0.2,5.42-0.21,8.14-0.04" class="stroke" stroke-dasharray="150"><set attributeName="opacity" to="0" dur="7.300000000000001s" /><animate attributeName="stroke-dashoffset" from="150" to="0" dur="1.8s" begin="7.300000000000001s" fill="freeze" /></path><path d="M39.67,57.04c5.7-0.91,7.79-1.2,11.75-1.48c1.16-0.08,1.9-0.08,2.5-0.03" class="stroke" stroke-dasharray="150"><set attributeName="opacity" to="0" dur="8.5s" /><animate attributeName="stroke-dashoffset" from="150" to="0" dur="1.8s" begin="8.5s" fill="freeze" /></path><path d="M37.93,51.75c0.78,0.79,1.02,1.75,1.02,2.64c0,0.92-0.01,7.82-0.01,11.36c0,2.53,0.65,4.07,3.29,2.68c4.38-2.3,5.26-2.68,10.63-4.74" class="stroke" stroke-dasharray="150"><set attributeName="opacity" to="0" dur="9.4s" /><animate attributeName="stroke-dashoffset" from="150" to="0" dur="1.8s" begin="9.4s" fill="freeze" /></path><path d="M84.6,49.49c-0.1,1.01-0.89,1.8-1.55,2.18c-2.3,1.33-9.22,3.89-16.18,5.96" class="stroke" stroke-dasharray="150"><set attributeName="opacity" to="0" dur="10.4s" /><animate attributeName="stroke-dashoffset" from="150" to="0" dur="1.8s" begin="10.4s" fill="freeze" /></path><path d="M63.28,48.78c0.91,0.91,1.04,2.09,1.04,3.11c0,1.09-0.03,6.45-0.06,7.74c-0.11,4.68,2.18,6.24,13.29,6.24c13.05,0,13.74-0.87,13.74-6.52" class="stroke" stroke-dasharray="150"><set attributeName="opacity" to="0" dur="11.4s" /><animate attributeName="stroke-dashoffset" from="150" to="0" dur="1.8s" begin="11.4s" fill="freeze" /></path><path d="M34.34,80.1c3.31,0.96,6.58,0.54,10.04,0.26c10.99-0.87,21.46-2.07,32.87-2.39c2.65-0.25,5.28-0.11,7.88,0.42" class="stroke" stroke-dasharray="150"><set attributeName="opacity" to="0" dur="12.6s" /><animate attributeName="stroke-dashoffset" from="150" to="0" dur="1.8s" begin="12.6s" fill="freeze" /></path><path d="M58.36,69.6c0.77,0.77,1.03,1.77,1.03,3.17c0,5.47-0.01,14.33-0.01,20.1" class="stroke" stroke-dasharray="150"><set attributeName="opacity" to="0" dur="13.9s" /><animate attributeName="stroke-dashoffset" from="150" to="0" dur="1.8s" begin="13.9s" fill="freeze" /></path><path d="M26.13,95.06c4.01,0.94,7.97,0.38,12.12,0.17c14.79-0.75,30.63-1.73,47.12-2.15c3.56-0.09,7.06,0.23,10.51,1.14" class="stroke" stroke-dasharray="150"><set attributeName="opacity" to="0" dur="14.9s" /><animate attributeName="stroke-dashoffset" from="150" to="0" dur="1.8s" begin="14.9s" fill="freeze" /></path><text x="90" y="120" id="reset">⟳</text><text x="70" y="120" id="pause">◼</text><script type="text/javascript"><![CDATA[function RecurringTimer(e,t){var n,r,i=t;this.pause=function(){window.clearTimeout(n);i-=new Date-r};var s=function(){r=new Date;n=window.setTimeout(function(){i=t;s();e()},i)};this.clear=function(){window.clearTimeout(n);i=t;n=window.setTimeout(function(){i=t;s();e()},i)};this.resume=s;this.resume()}function invoketimer(){timer=new RecurringTimer(function(){svg.setCurrentTime(0)},17400)}var svg=document.getElementById("kanjivg");var pause=document.getElementById("pause");var reset=document.getElementById("reset");var timer;invoketimer();reset.onclick=function(){svg.setCurrentTime(0);timer.clear();svg.unpauseAnimations();pause.innerHTML = "◼";};pause.onclick=function(){if(svg.animationsPaused()){svg.unpauseAnimations();timer.resume();pause.innerHTML="◼"}else{svg.pauseAnimations();timer.pause();pause.innerHTML="▶"}}]]></script></svg>