<svg id="kanjivg" width="106" height="126" xmlns="http://www.w3.org/2000/svg" xmlns:xlink="http://www.w3.org/1999/xlink" xml:space="preserve" version="1.1" baseProfile="full"><defs><style type="text/css"><![CDATA[path.black { fill:none;stroke:black;stroke-width:5;stroke-linecap:round;stroke-linejoin:round; }path.grey { fill:none;stroke:#ddd;stroke-width:5;stroke-linecap:round;stroke-linejoin:round; }path.stroke { fill:none;stroke:black;stroke-width:5;stroke-linecap:round;stroke-linejoin:round; }rect { fill:none;stroke:#555;stroke-width:2;} text{font-size:16px;font-family:Segoe UI Symbol,Cambria Math,DejaVu Sans,Symbola,Quivira,STIX,Code2000;-webkit-touch-callout:none;cursor:pointer;-webkit-user-select:none;-khtml-user-select:none;-moz-user-select:none;-ms-user-select:none;user-select: none;} #reset { font-weight:bold; }]]></style><marker id="markerStart" markerWidth="8" markerHeight="8" style="overflow:visible;"><circle cx="0" cy="0" r="1.5" style="stroke:none;fill:red;fill-opacity:0.5;"/></marker><marker id="markerEnd" style="overflow:visible;"><circle cx="0" cy="0" r="0.8" style="stroke:none;fill:blue;fill-opacity:0.5;"><animate attributeName="opacity" from="1" to="0" dur="3s" repeatCount="indefinite" /></circle></marker></defs><rect x="4" y="4" width="100" height="100" /><path d="M32.67,9.95c0.82,0.82,1.07,2.05,1.07,3.44c0,1.11-0.11,2.86-0.11,3.74" class="grey" /><path d="M14.62,18.95c1.63,0.55,3.6,0.66,5.65,0.53C27.88,19,37.88,17.62,47,16.92c1.79-0.14,3.5-0.31,5.33,0.21" class="grey" /><path d="M21.27,25.67c0.6,0.41,0.97,0.98,1.1,1.71c0.53,1.35,1.13,3.19,1.62,5.06c0.28,1.05,0.52,2.11,0.7,3.09" class="grey" /><path d="M23.32,26.79c5.99-0.99,13.41-2.67,17.29-3.24c2.02-0.3,3.42,0.02,2.65,2.49c-0.49,1.59-0.81,2.12-1.58,4.87" class="grey" /><path d="M25.67,33.83c2.93-0.23,8.86-1.07,14.06-1.76c1.36-0.18,2.59-0.07,3.56-0.13" class="grey" /><path d="M20.64,40.54c0.92,0.14,3.41,0.36,4.8,0.24c1.47-0.13,12.33-1.98,16.18-2.45c2.59-0.32,3.49,0.6,1.26,2.3c-2.13,1.62-4.28,3.31-8.1,6.34" class="grey" /><path d="M31.25,47.5c7.08,3.47,8.31,10.78,6.93,15.56c-1.2,4.17-4.38,6.43-7.38,2.54" class="grey" /><path d="M15.89,57.77c0.86,0.85,2,1.23,4.15,0.5c8.82-3.01,16.21-5.77,28.87-10.19" class="grey" /><path d="M67.48,10.68c0.92,0.92,1.1,2.61,1.1,3.45C68.5,37.03,62,56.62,46.74,65.14" class="grey" /><path d="M53.51,28.25c2.2,0.92,4.54,0.66,6.74,0.02c4.26-1.23,15.52-4.53,19-5.38c2.77-0.68,4.55,0.62,3.87,3.51c-0.99,4.21-3.37,16.6-4.17,24.21c-1.2,11.3,0.62,13.93,7.68,13.93c6.74,0,7.62-1.38,7.62-6.74" class="grey" /><path d="M54.62,39.62c5.95,2.19,15.36,9,16.84,12.4" class="grey" /><path d="M26.96,79.26c2.14,0.83,4.92,0.81,7.16,0.66c11.59-0.75,28.13-2.16,39.38-2.66c2.11-0.09,4.18-0.23,6.25,0.25" class="grey" /><path d="M53.08,67.68c0.87,0.87,1.46,2.22,1.46,4.01c0,4.81-0.03,14.59-0.03,20.81" class="grey" /><path d="M16.88,95.69c3.2,1.14,7.09,0.45,10.37,0.13c17.03-1.65,40.51-3.41,55.89-4.19c3.33-0.17,6.23,0.1,9.49,0.8" class="grey" /><path d="M32.67,9.95c0.82,0.82,1.07,2.05,1.07,3.44c0,1.11-0.11,2.86-0.11,3.74" class="stroke" stroke-dasharray="150"><animate attributeName="stroke-dashoffset" from="150" to="0" dur="1.8s" begin="0s" fill="freeze" /></path><path d="M14.62,18.95c1.63,0.55,3.6,0.66,5.65,0.53C27.88,19,37.88,17.62,47,16.92c1.79-0.14,3.5-0.31,5.33,0.21" class="stroke" stroke-dasharray="150"><set attributeName="opacity" to="0" dur="0.9s" /><animate attributeName="stroke-dashoffset" from="150" to="0" dur="1.8s" begin="0.9s" fill="freeze" /></path><path d="M21.27,25.67c0.6,0.41,0.97,0.98,1.1,1.71c0.53,1.35,1.13,3.19,1.62,5.06c0.28,1.05,0.52,2.11,0.7,3.09" class="stroke" stroke-dasharray="150"><set attributeName="opacity" to="0" dur="1.9s" /><animate attributeName="stroke-dashoffset" from="150" to="0" dur="1.8s" begin="1.9s" fill="freeze" /></path><path d="M23.32,26.79c5.99-0.99,13.41-2.67,17.29-3.24c2.02-0.3,3.42,0.02,2.65,2.49c-0.49,1.59-0.81,2.12-1.58,4.87" class="stroke" stroke-dasharray="150"><set attributeName="opacity" to="0" dur="2.8s" /><animate attributeName="stroke-dashoffset" from="150" to="0" dur="1.8s" begin="2.8s" fill="freeze" /></path><path d="M25.67,33.83c2.93-0.23,8.86-1.07,14.06-1.76c1.36-0.18,2.59-0.07,3.56-0.13" class="stroke" stroke-dasharray="150"><set attributeName="opacity" to="0" dur="3.8s" /><animate attributeName="stroke-dashoffset" from="150" to="0" dur="1.8s" begin="3.8s" fill="freeze" /></path><path d="M20.64,40.54c0.92,0.14,3.41,0.36,4.8,0.24c1.47-0.13,12.33-1.98,16.18-2.45c2.59-0.32,3.49,0.6,1.26,2.3c-2.13,1.62-4.28,3.31-8.1,6.34" class="stroke" stroke-dasharray="150"><set attributeName="opacity" to="0" dur="4.7s" /><animate attributeName="stroke-dashoffset" from="150" to="0" dur="1.8s" begin="4.7s" fill="freeze" /></path><path d="M31.25,47.5c7.08,3.47,8.31,10.78,6.93,15.56c-1.2,4.17-4.38,6.43-7.38,2.54" class="stroke" stroke-dasharray="150"><set attributeName="opacity" to="0" dur="5.7s" /><animate attributeName="stroke-dashoffset" from="150" to="0" dur="1.8s" begin="5.7s" fill="freeze" /></path><path d="M15.89,57.77c0.86,0.85,2,1.23,4.15,0.5c8.82-3.01,16.21-5.77,28.87-10.19" class="stroke" stroke-dasharray="150"><set attributeName="opacity" to="0" dur="6.7s" /><animate attributeName="stroke-dashoffset" from="150" to="0" dur="1.8s" begin="6.7s" fill="freeze" /></path><path d="M67.48,10.68c0.92,0.92,1.1,2.61,1.1,3.45C68.5,37.03,62,56.62,46.74,65.14" class="stroke" stroke-dasharray="150"><set attributeName="opacity" to="0" dur="7.7s" /><animate attributeName="stroke-dashoffset" from="150" to="0" dur="1.8s" begin="7.7s" fill="freeze" /></path><path d="M53.51,28.25c2.2,0.92,4.54,0.66,6.74,0.02c4.26-1.23,15.52-4.53,19-5.38c2.77-0.68,4.55,0.62,3.87,3.51c-0.99,4.21-3.37,16.6-4.17,24.21c-1.2,11.3,0.62,13.93,7.68,13.93c6.74,0,7.62-1.38,7.62-6.74" class="stroke" stroke-dasharray="150"><set attributeName="opacity" to="0" dur="9.2s" /><animate attributeName="stroke-dashoffset" from="150" to="0" dur="1.8s" begin="9.2s" fill="freeze" /></path><path d="M54.62,39.62c5.95,2.19,15.36,9,16.84,12.4" class="stroke" stroke-dasharray="150"><set attributeName="opacity" to="0" dur="10.899999999999999s" /><animate attributeName="stroke-dashoffset" from="150" to="0" dur="1.8s" begin="10.899999999999999s" fill="freeze" /></path><path d="M26.96,79.26c2.14,0.83,4.92,0.81,7.16,0.66c11.59-0.75,28.13-2.16,39.38-2.66c2.11-0.09,4.18-0.23,6.25,0.25" class="stroke" stroke-dasharray="150"><set attributeName="opacity" to="0" dur="11.899999999999999s" /><animate attributeName="stroke-dashoffset" from="150" to="0" dur="1.8s" begin="11.899999999999999s" fill="freeze" /></path><path d="M53.08,67.68c0.87,0.87,1.46,2.22,1.46,4.01c0,4.81-0.03,14.59-0.03,20.81" class="stroke" stroke-dasharray="150"><set attributeName="opacity" to="0" dur="13.2s" /><animate attributeName="stroke-dashoffset" from="150" to="0" dur="1.8s" begin="13.2s" fill="freeze" /></path><path d="M16.88,95.69c3.2,1.14,7.09,0.45,10.37,0.13c17.03-1.65,40.51-3.41,55.89-4.19c3.33-0.17,6.23,0.1,9.49,0.8" class="stroke" stroke-dasharray="150"><set attributeName="opacity" to="0" dur="14.2s" /><animate attributeName="stroke-dashoffset" from="150" to="0" dur="1.8s" begin="14.2s" fill="freeze" /></path><text x="90" y="120" id="reset">⟳</text><text x="70" y="120" id="pause">◼</text><script type="text/javascript"><![CDATA[function RecurringTimer(e,t){var n,r,i=t;this.pause=function(){window.clearTimeout(n);i-=new Date-r};var s=function(){r=new Date;n=window.setTimeout(function(){i=t;s();e()},i)};this.clear=function(){window.clearTimeout(n);i=t;n=window.setTimeout(function(){i=t;s();e()},i)};this.resume=s;this.resume()}function invoketimer(){timer=new RecurringTimer(function(){svg.setCurrentTime(0)},16900)}var svg=document.getElementById("kanjivg");var pause=document.getElementById("pause");var reset=document.getElementById("reset");var timer;invoketimer();reset.onclick=function(){svg.setCurrentTime(0);timer.clear();svg.unpauseAnimations();pause.innerHTML = "◼";};pause.onclick=function(){if(svg.animationsPaused()){svg.unpauseAnimations();timer.resume();pause.innerHTML="◼"}else{svg.pauseAnimations();timer.pause();pause.innerHTML="▶"}}]]></script></svg>