<svg id="kanjivg" width="106" height="126" xmlns="http://www.w3.org/2000/svg" xmlns:xlink="http://www.w3.org/1999/xlink" xml:space="preserve" version="1.1" baseProfile="full"><defs><style type="text/css"><![CDATA[path.black { fill:none;stroke:black;stroke-width:5;stroke-linecap:round;stroke-linejoin:round; }path.grey { fill:none;stroke:#ddd;stroke-width:5;stroke-linecap:round;stroke-linejoin:round; }path.stroke { fill:none;stroke:black;stroke-width:5;stroke-linecap:round;stroke-linejoin:round; }rect { fill:none;stroke:#555;stroke-width:2;} text{font-size:16px;font-family:Segoe UI Symbol,Cambria Math,DejaVu Sans,Symbola,Quivira,STIX,Code2000;-webkit-touch-callout:none;cursor:pointer;-webkit-user-select:none;-khtml-user-select:none;-moz-user-select:none;-ms-user-select:none;user-select: none;} #reset { font-weight:bold; }]]></style><marker id="markerStart" markerWidth="8" markerHeight="8" style="overflow:visible;"><circle cx="0" cy="0" r="1.5" style="stroke:none;fill:red;fill-opacity:0.5;"/></marker><marker id="markerEnd" style="overflow:visible;"><circle cx="0" cy="0" r="0.8" style="stroke:none;fill:blue;fill-opacity:0.5;"><animate attributeName="opacity" from="1" to="0" dur="3s" repeatCount="indefinite" /></circle></marker></defs><rect x="4" y="4" width="100" height="100" /><path d="M13,40.14c0.76,0.38,2.24,0.46,3,0.36c4.82-0.66,14.65-2.39,20-3c1.25-0.14,2.62-0.18,3.25,0.01" class="grey" /><path d="M25.87,16.5c1.09,0.5,1.96,2.23,1.96,3.25c0,7.25,0.03,36.25,0.03,47" class="grey" /><path d="M12.5,73.79c0.75,0.96,2.25,1.46,4.5,0.21c6.25-3.5,17.5-9.75,23.75-13.25" class="grey" /><path d="M60.29,10.65c3.96,1.69,5.87,4.15,7.31,7.9" class="grey" /><path d="M45.45,25.04c0.67,0.09,2.21,0.56,2.86,0.47c2.67-0.38,25.14-3.16,33.72-3.45c1.11-0.04,1.77-0.03,2.33,0.01" class="grey" /><path d="M52.36,28.39c2.78,3.71,3.85,8.13,4.25,10.64" class="grey" /><path d="M76.55,25.98c0.2,1.02,0.27,2.51,0.16,2.84c-1.15,3.38-3.98,8.12-4.84,10.03" class="grey" /><path d="M40.85,43.38c1.18,0.13,2.96,0.17,4.08,0.08c10.6-0.93,32.15-4.04,43.81-4.41c1.94-0.06,4.11,0.2,5.28,0.69" class="grey" /><path d="M47.63,49.63c0.44,0.51,1.09,1.71,1.19,2.38c0.46,3.1,3.1,17.48,3.1,17.82" class="grey" /><path d="M48.42,50.66c2.48-0.08,29.32-2.45,31.5-2.78c2.18-0.33,3.32,1.91,3.21,2.76c-0.9,6.66-1.65,10.75-3.35,17.73" class="grey" /><path d="M50.37,59.45c4.81,0.01,9.72-0.79,14.49-1.28c1.65-0.17,4.32-0.34,5.95-0.51" class="grey" /><path d="M51.82,68.46c4.95,0.02,18.43-1.96,28.01-2.39" class="grey" /><path d="M56.47,74.15c0.05,0.55,0.11,1.41-0.1,2.2c-1.26,4.64-7.91,15.71-18.42,21.07" class="grey" /><path d="M69.02,70.22c0.5,0.99,0.9,2.16,0.93,3.7c0.13,6.84,0.03,8.29,0.03,12.94c0,8.64,3.27,9.63,11.94,9.63c6.25,0,10.36-1.4,11.24-2.19c1.86-1.67,1.35-2.51,1.52-5.43" class="grey" /><path d="M13,40.14c0.76,0.38,2.24,0.46,3,0.36c4.82-0.66,14.65-2.39,20-3c1.25-0.14,2.62-0.18,3.25,0.01" class="stroke" stroke-dasharray="150"><animate attributeName="stroke-dashoffset" from="150" to="0" dur="1.8s" begin="0s" fill="freeze" /></path><path d="M25.87,16.5c1.09,0.5,1.96,2.23,1.96,3.25c0,7.25,0.03,36.25,0.03,47" class="stroke" stroke-dasharray="150"><set attributeName="opacity" to="0" dur="1.0s" /><animate attributeName="stroke-dashoffset" from="150" to="0" dur="1.8s" begin="1.0s" fill="freeze" /></path><path d="M12.5,73.79c0.75,0.96,2.25,1.46,4.5,0.21c6.25-3.5,17.5-9.75,23.75-13.25" class="stroke" stroke-dasharray="150"><set attributeName="opacity" to="0" dur="2.3s" /><animate attributeName="stroke-dashoffset" from="150" to="0" dur="1.8s" begin="2.3s" fill="freeze" /></path><path d="M60.29,10.65c3.96,1.69,5.87,4.15,7.31,7.9" class="stroke" stroke-dasharray="150"><set attributeName="opacity" to="0" dur="3.3s" /><animate attributeName="stroke-dashoffset" from="150" to="0" dur="1.8s" begin="3.3s" fill="freeze" /></path><path d="M45.45,25.04c0.67,0.09,2.21,0.56,2.86,0.47c2.67-0.38,25.14-3.16,33.72-3.45c1.11-0.04,1.77-0.03,2.33,0.01" class="stroke" stroke-dasharray="150"><set attributeName="opacity" to="0" dur="4.2s" /><animate attributeName="stroke-dashoffset" from="150" to="0" dur="1.8s" begin="4.2s" fill="freeze" /></path><path d="M52.36,28.39c2.78,3.71,3.85,8.13,4.25,10.64" class="stroke" stroke-dasharray="150"><set attributeName="opacity" to="0" dur="5.2s" /><animate attributeName="stroke-dashoffset" from="150" to="0" dur="1.8s" begin="5.2s" fill="freeze" /></path><path d="M76.55,25.98c0.2,1.02,0.27,2.51,0.16,2.84c-1.15,3.38-3.98,8.12-4.84,10.03" class="stroke" stroke-dasharray="150"><set attributeName="opacity" to="0" dur="6.1000000000000005s" /><animate attributeName="stroke-dashoffset" from="150" to="0" dur="1.8s" begin="6.1000000000000005s" fill="freeze" /></path><path d="M40.85,43.38c1.18,0.13,2.96,0.17,4.08,0.08c10.6-0.93,32.15-4.04,43.81-4.41c1.94-0.06,4.11,0.2,5.28,0.69" class="stroke" stroke-dasharray="150"><set attributeName="opacity" to="0" dur="7.000000000000001s" /><animate attributeName="stroke-dashoffset" from="150" to="0" dur="1.8s" begin="7.000000000000001s" fill="freeze" /></path><path d="M47.63,49.63c0.44,0.51,1.09,1.71,1.19,2.38c0.46,3.1,3.1,17.48,3.1,17.82" class="stroke" stroke-dasharray="150"><set attributeName="opacity" to="0" dur="8.3s" /><animate attributeName="stroke-dashoffset" from="150" to="0" dur="1.8s" begin="8.3s" fill="freeze" /></path><path d="M48.42,50.66c2.48-0.08,29.32-2.45,31.5-2.78c2.18-0.33,3.32,1.91,3.21,2.76c-0.9,6.66-1.65,10.75-3.35,17.73" class="stroke" stroke-dasharray="150"><set attributeName="opacity" to="0" dur="9.3s" /><animate attributeName="stroke-dashoffset" from="150" to="0" dur="1.8s" begin="9.3s" fill="freeze" /></path><path d="M50.37,59.45c4.81,0.01,9.72-0.79,14.49-1.28c1.65-0.17,4.32-0.34,5.95-0.51" class="stroke" stroke-dasharray="150"><set attributeName="opacity" to="0" dur="10.600000000000001s" /><animate attributeName="stroke-dashoffset" from="150" to="0" dur="1.8s" begin="10.600000000000001s" fill="freeze" /></path><path d="M51.82,68.46c4.95,0.02,18.43-1.96,28.01-2.39" class="stroke" stroke-dasharray="150"><set attributeName="opacity" to="0" dur="11.600000000000001s" /><animate attributeName="stroke-dashoffset" from="150" to="0" dur="1.8s" begin="11.600000000000001s" fill="freeze" /></path><path d="M56.47,74.15c0.05,0.55,0.11,1.41-0.1,2.2c-1.26,4.64-7.91,15.71-18.42,21.07" class="stroke" stroke-dasharray="150"><set attributeName="opacity" to="0" dur="12.600000000000001s" /><animate attributeName="stroke-dashoffset" from="150" to="0" dur="1.8s" begin="12.600000000000001s" fill="freeze" /></path><path d="M69.02,70.22c0.5,0.99,0.9,2.16,0.93,3.7c0.13,6.84,0.03,8.29,0.03,12.94c0,8.64,3.27,9.63,11.94,9.63c6.25,0,10.36-1.4,11.24-2.19c1.86-1.67,1.35-2.51,1.52-5.43" class="stroke" stroke-dasharray="150"><set attributeName="opacity" to="0" dur="13.600000000000001s" /><animate attributeName="stroke-dashoffset" from="150" to="0" dur="1.8s" begin="13.600000000000001s" fill="freeze" /></path><text x="90" y="120" id="reset">⟳</text><text x="70" y="120" id="pause">◼</text><script type="text/javascript"><![CDATA[function RecurringTimer(e,t){var n,r,i=t;this.pause=function(){window.clearTimeout(n);i-=new Date-r};var s=function(){r=new Date;n=window.setTimeout(function(){i=t;s();e()},i)};this.clear=function(){window.clearTimeout(n);i=t;n=window.setTimeout(function(){i=t;s();e()},i)};this.resume=s;this.resume()}function invoketimer(){timer=new RecurringTimer(function(){svg.setCurrentTime(0)},15900)}var svg=document.getElementById("kanjivg");var pause=document.getElementById("pause");var reset=document.getElementById("reset");var timer;invoketimer();reset.onclick=function(){svg.setCurrentTime(0);timer.clear();svg.unpauseAnimations();pause.innerHTML = "◼";};pause.onclick=function(){if(svg.animationsPaused()){svg.unpauseAnimations();timer.resume();pause.innerHTML="◼"}else{svg.pauseAnimations();timer.pause();pause.innerHTML="▶"}}]]></script></svg>