<svg id="kanjivg" width="106" height="126" xmlns="http://www.w3.org/2000/svg" xmlns:xlink="http://www.w3.org/1999/xlink" xml:space="preserve" version="1.1" baseProfile="full"><defs><style type="text/css"><![CDATA[path.black { fill:none;stroke:black;stroke-width:5;stroke-linecap:round;stroke-linejoin:round; }path.grey { fill:none;stroke:#ddd;stroke-width:5;stroke-linecap:round;stroke-linejoin:round; }path.stroke { fill:none;stroke:black;stroke-width:5;stroke-linecap:round;stroke-linejoin:round; }rect { fill:none;stroke:#555;stroke-width:2;} text{font-size:16px;font-family:Segoe UI Symbol,Cambria Math,DejaVu Sans,Symbola,Quivira,STIX,Code2000;-webkit-touch-callout:none;cursor:pointer;-webkit-user-select:none;-khtml-user-select:none;-moz-user-select:none;-ms-user-select:none;user-select: none;} #reset { font-weight:bold; }]]></style><marker id="markerStart" markerWidth="8" markerHeight="8" style="overflow:visible;"><circle cx="0" cy="0" r="1.5" style="stroke:none;fill:red;fill-opacity:0.5;"/></marker><marker id="markerEnd" style="overflow:visible;"><circle cx="0" cy="0" r="0.8" style="stroke:none;fill:blue;fill-opacity:0.5;"><animate attributeName="opacity" from="1" to="0" dur="3s" repeatCount="indefinite" /></circle></marker></defs><rect x="4" y="4" width="100" height="100" /><path d="M17.61,17.04c0.2,0.44,0.2,0.74,0.31,1.28c0.89,4.49,3.4,16.21,3.95,24.51" class="grey" /><path d="M18.02,17.69c8.1-0.7,23.38-2.41,29.43-3.03c2.22-0.23,3.36,1.04,3.24,2.26c-0.42,4.45-2.9,16.08-4.25,23.17" class="grey" /><path d="M20.92,28.71C27.2,28,33.51,27.56,39.8,27.03c0.76-0.06,1.49-0.12,2.19-0.18" class="grey" /><path d="M21.78,40.64c5.83-0.18,16.61-2.33,24.66-2.69" class="grey" /><path d="M33.5,18.7c1,0.55,1.08,1.33,1.1,3.3c0.15,11.68,0.03,37.41,0.03,40.7" class="grey" /><path d="M16.95,51.75c0.93,0,3.46,0.38,4.41,0.3c5.52-0.47,15.73-2.44,22.51-2.99c1.02-0.08,3.45-0.16,4.41-0.2" class="grey" /><path d="M15,65.32c1.16,1.55,1.25,2.18,4.37,1.55c1.97-0.39,21.71-5.82,29.98-8.17" class="grey" /><path d="M56.75,13.89c1.02,0.83,2.4,1.74,3.56,1.53c2.29-0.42,21.85-2.28,24.27-2.69c2.41-0.42,2.74,1.26,1.3,2.62C83.4,17.69,77,23.5,72.98,26.4" class="grey" /><path d="M64.42,21.67c2.51,1.01,9.01,4.92,10.19,7.57" class="grey" /><path d="M53.57,33.82c0.77,0.5,2.25,1.44,5.42,0.9c3.17-0.54,27.79-4.1,30.31-4.48c8.2-1.24,1.95,5.01-2.52,9.66" class="grey" /><path d="M72.41,35.1c0.84,0.9,1.67,2.06,1.67,3.4c0,1.34-0.62,23.25-0.62,25.7c0.01,7.44-4.46,3.05-6.55,0.83" class="grey" /><path d="M28.63,79.95c1.08,0.3,3.07,0.34,4.15,0.3c8.4-0.25,35.42-3.48,45.56-3.48c1.8,0,2.89,0.14,3.79,0.3" class="grey" /><path d="M52.42,63.62c0.12,0.23,1.81,1.21,1.77,2.69c-0.19,8.45,0.06,25.78,0.06,28.2" class="grey" /><path d="M17.88,96.36c1.52,0.43,4.31,0.5,5.82,0.43c16.05-0.79,43.8-4.04,63.11-3.15c2.53,0.12,4.05,0.2,5.31,0.42" class="grey" /><path d="M17.61,17.04c0.2,0.44,0.2,0.74,0.31,1.28c0.89,4.49,3.4,16.21,3.95,24.51" class="stroke" stroke-dasharray="150"><animate attributeName="stroke-dashoffset" from="150" to="0" dur="1.8s" begin="0s" fill="freeze" /></path><path d="M18.02,17.69c8.1-0.7,23.38-2.41,29.43-3.03c2.22-0.23,3.36,1.04,3.24,2.26c-0.42,4.45-2.9,16.08-4.25,23.17" class="stroke" stroke-dasharray="150"><set attributeName="opacity" to="0" dur="1.0s" /><animate attributeName="stroke-dashoffset" from="150" to="0" dur="1.8s" begin="1.0s" fill="freeze" /></path><path d="M20.92,28.71C27.2,28,33.51,27.56,39.8,27.03c0.76-0.06,1.49-0.12,2.19-0.18" class="stroke" stroke-dasharray="150"><set attributeName="opacity" to="0" dur="2.4s" /><animate attributeName="stroke-dashoffset" from="150" to="0" dur="1.8s" begin="2.4s" fill="freeze" /></path><path d="M21.78,40.64c5.83-0.18,16.61-2.33,24.66-2.69" class="stroke" stroke-dasharray="150"><set attributeName="opacity" to="0" dur="3.4s" /><animate attributeName="stroke-dashoffset" from="150" to="0" dur="1.8s" begin="3.4s" fill="freeze" /></path><path d="M33.5,18.7c1,0.55,1.08,1.33,1.1,3.3c0.15,11.68,0.03,37.41,0.03,40.7" class="stroke" stroke-dasharray="150"><set attributeName="opacity" to="0" dur="4.4s" /><animate attributeName="stroke-dashoffset" from="150" to="0" dur="1.8s" begin="4.4s" fill="freeze" /></path><path d="M16.95,51.75c0.93,0,3.46,0.38,4.41,0.3c5.52-0.47,15.73-2.44,22.51-2.99c1.02-0.08,3.45-0.16,4.41-0.2" class="stroke" stroke-dasharray="150"><set attributeName="opacity" to="0" dur="5.5s" /><animate attributeName="stroke-dashoffset" from="150" to="0" dur="1.8s" begin="5.5s" fill="freeze" /></path><path d="M15,65.32c1.16,1.55,1.25,2.18,4.37,1.55c1.97-0.39,21.71-5.82,29.98-8.17" class="stroke" stroke-dasharray="150"><set attributeName="opacity" to="0" dur="6.5s" /><animate attributeName="stroke-dashoffset" from="150" to="0" dur="1.8s" begin="6.5s" fill="freeze" /></path><path d="M56.75,13.89c1.02,0.83,2.4,1.74,3.56,1.53c2.29-0.42,21.85-2.28,24.27-2.69c2.41-0.42,2.74,1.26,1.3,2.62C83.4,17.69,77,23.5,72.98,26.4" class="stroke" stroke-dasharray="150"><set attributeName="opacity" to="0" dur="7.5s" /><animate attributeName="stroke-dashoffset" from="150" to="0" dur="1.8s" begin="7.5s" fill="freeze" /></path><path d="M64.42,21.67c2.51,1.01,9.01,4.92,10.19,7.57" class="stroke" stroke-dasharray="150"><set attributeName="opacity" to="0" dur="8.8s" /><animate attributeName="stroke-dashoffset" from="150" to="0" dur="1.8s" begin="8.8s" fill="freeze" /></path><path d="M53.57,33.82c0.77,0.5,2.25,1.44,5.42,0.9c3.17-0.54,27.79-4.1,30.31-4.48c8.2-1.24,1.95,5.01-2.52,9.66" class="stroke" stroke-dasharray="150"><set attributeName="opacity" to="0" dur="9.700000000000001s" /><animate attributeName="stroke-dashoffset" from="150" to="0" dur="1.8s" begin="9.700000000000001s" fill="freeze" /></path><path d="M72.41,35.1c0.84,0.9,1.67,2.06,1.67,3.4c0,1.34-0.62,23.25-0.62,25.7c0.01,7.44-4.46,3.05-6.55,0.83" class="stroke" stroke-dasharray="150"><set attributeName="opacity" to="0" dur="11.000000000000002s" /><animate attributeName="stroke-dashoffset" from="150" to="0" dur="1.8s" begin="11.000000000000002s" fill="freeze" /></path><path d="M28.63,79.95c1.08,0.3,3.07,0.34,4.15,0.3c8.4-0.25,35.42-3.48,45.56-3.48c1.8,0,2.89,0.14,3.79,0.3" class="stroke" stroke-dasharray="150"><set attributeName="opacity" to="0" dur="12.100000000000001s" /><animate attributeName="stroke-dashoffset" from="150" to="0" dur="1.8s" begin="12.100000000000001s" fill="freeze" /></path><path d="M52.42,63.62c0.12,0.23,1.81,1.21,1.77,2.69c-0.19,8.45,0.06,25.78,0.06,28.2" class="stroke" stroke-dasharray="150"><set attributeName="opacity" to="0" dur="13.400000000000002s" /><animate attributeName="stroke-dashoffset" from="150" to="0" dur="1.8s" begin="13.400000000000002s" fill="freeze" /></path><path d="M17.88,96.36c1.52,0.43,4.31,0.5,5.82,0.43c16.05-0.79,43.8-4.04,63.11-3.15c2.53,0.12,4.05,0.2,5.31,0.42" class="stroke" stroke-dasharray="150"><set attributeName="opacity" to="0" dur="14.400000000000002s" /><animate attributeName="stroke-dashoffset" from="150" to="0" dur="1.8s" begin="14.400000000000002s" fill="freeze" /></path><text x="90" y="120" id="reset">⟳</text><text x="70" y="120" id="pause">◼</text><script type="text/javascript"><![CDATA[function RecurringTimer(e,t){var n,r,i=t;this.pause=function(){window.clearTimeout(n);i-=new Date-r};var s=function(){r=new Date;n=window.setTimeout(function(){i=t;s();e()},i)};this.clear=function(){window.clearTimeout(n);i=t;n=window.setTimeout(function(){i=t;s();e()},i)};this.resume=s;this.resume()}function invoketimer(){timer=new RecurringTimer(function(){svg.setCurrentTime(0)},17100)}var svg=document.getElementById("kanjivg");var pause=document.getElementById("pause");var reset=document.getElementById("reset");var timer;invoketimer();reset.onclick=function(){svg.setCurrentTime(0);timer.clear();svg.unpauseAnimations();pause.innerHTML = "◼";};pause.onclick=function(){if(svg.animationsPaused()){svg.unpauseAnimations();timer.resume();pause.innerHTML="◼"}else{svg.pauseAnimations();timer.pause();pause.innerHTML="▶"}}]]></script></svg>