<svg id="kanjivg" width="106" height="126" xmlns="http://www.w3.org/2000/svg" xmlns:xlink="http://www.w3.org/1999/xlink" xml:space="preserve" version="1.1" baseProfile="full"><defs><style type="text/css"><![CDATA[path.black { fill:none;stroke:black;stroke-width:5;stroke-linecap:round;stroke-linejoin:round; }path.grey { fill:none;stroke:#ddd;stroke-width:5;stroke-linecap:round;stroke-linejoin:round; }path.stroke { fill:none;stroke:black;stroke-width:5;stroke-linecap:round;stroke-linejoin:round; }rect { fill:none;stroke:#555;stroke-width:2;} text{font-size:16px;font-family:Segoe UI Symbol,Cambria Math,DejaVu Sans,Symbola,Quivira,STIX,Code2000;-webkit-touch-callout:none;cursor:pointer;-webkit-user-select:none;-khtml-user-select:none;-moz-user-select:none;-ms-user-select:none;user-select: none;} #reset { font-weight:bold; }]]></style><marker id="markerStart" markerWidth="8" markerHeight="8" style="overflow:visible;"><circle cx="0" cy="0" r="1.5" style="stroke:none;fill:red;fill-opacity:0.5;"/></marker><marker id="markerEnd" style="overflow:visible;"><circle cx="0" cy="0" r="0.8" style="stroke:none;fill:blue;fill-opacity:0.5;"><animate attributeName="opacity" from="1" to="0" dur="3s" repeatCount="indefinite" /></circle></marker></defs><rect x="4" y="4" width="100" height="100" /><path d="M12,46.64c0.76,0.38,2.24,0.46,3,0.36c4.82-0.66,13.65-2.39,19-3c1.25-0.14,2.62-0.68,3.25-0.49" class="grey" /><path d="M25.87,21.5c1.09,0.5,1.96,2.23,1.96,3.25c0,7.25,0.03,36.75,0.03,47.5" class="grey" /><path d="M13.5,80.3c0.66,1.2,1.99,1.83,3.98,0.26C23.01,76.19,32.97,68.38,38.5,64" class="grey" /><path d="M49.01,13.55c2.97,2.15,7.68,8.86,8.43,12.21" class="grey" /><path d="M81.08,9.81c0.03,0.36,0.05,0.94-0.05,1.46c-0.61,3.09-4.1,9.86-8.87,14" class="grey" /><path d="M43.01,32.44c0.36,0.43,0.36,0.73,0.56,1.27c1.6,4.47,2.71,15.8,3.71,24.16" class="grey" /><path d="M44.67,33.02c12.36-1.28,34.58-4.16,45.67-5.1c3.4-0.29,3.58,2.71,3.41,3.95c-0.63,4.53-2.5,14.7-4.55,22.51" class="grey" /><path d="M66.31,31.84c0.94,0.41,1.51,1.86,1.51,2.91c0,5.19-0.09,11.81-0.02,19.19" class="grey" /><path d="M46.59,45.01c9.95-1.22,19.96-2.08,29.94-3.06c1.2-0.12,2.37-0.23,3.49-0.34" class="grey" /><path d="M47.92,56.14c11.39-1.3,29.08-2.94,41.37-3.88" class="grey" /><path d="M51.56,66.64c0.61,0.69,1.18,2.49,1.22,3.4c0.42,8.73-0.03,15.21,0.23,28.46" class="grey" /><path d="M52.98,68.21c3.45-0.11,25.49-2.92,28.63-3.06c2.62-0.11,3.28,1.34,3.28,3.4c0,6.2-0.14,13.45-0.68,27.98" class="grey" /><path d="M53.91,81.48c6.09-0.48,9.92-0.8,14.81-1.31c1.57-0.16,3.14-0.33,4.66-0.48" class="grey" /><path d="M54.44,95.77c9.24-0.45,18.56-2.02,29.5-2.42" class="grey" /><path d="M12,46.64c0.76,0.38,2.24,0.46,3,0.36c4.82-0.66,13.65-2.39,19-3c1.25-0.14,2.62-0.68,3.25-0.49" class="stroke" stroke-dasharray="150"><animate attributeName="stroke-dashoffset" from="150" to="0" dur="1.8s" begin="0s" fill="freeze" /></path><path d="M25.87,21.5c1.09,0.5,1.96,2.23,1.96,3.25c0,7.25,0.03,36.75,0.03,47.5" class="stroke" stroke-dasharray="150"><set attributeName="opacity" to="0" dur="1.0s" /><animate attributeName="stroke-dashoffset" from="150" to="0" dur="1.8s" begin="1.0s" fill="freeze" /></path><path d="M13.5,80.3c0.66,1.2,1.99,1.83,3.98,0.26C23.01,76.19,32.97,68.38,38.5,64" class="stroke" stroke-dasharray="150"><set attributeName="opacity" to="0" dur="2.3s" /><animate attributeName="stroke-dashoffset" from="150" to="0" dur="1.8s" begin="2.3s" fill="freeze" /></path><path d="M49.01,13.55c2.97,2.15,7.68,8.86,8.43,12.21" class="stroke" stroke-dasharray="150"><set attributeName="opacity" to="0" dur="3.3s" /><animate attributeName="stroke-dashoffset" from="150" to="0" dur="1.8s" begin="3.3s" fill="freeze" /></path><path d="M81.08,9.81c0.03,0.36,0.05,0.94-0.05,1.46c-0.61,3.09-4.1,9.86-8.87,14" class="stroke" stroke-dasharray="150"><set attributeName="opacity" to="0" dur="4.2s" /><animate attributeName="stroke-dashoffset" from="150" to="0" dur="1.8s" begin="4.2s" fill="freeze" /></path><path d="M43.01,32.44c0.36,0.43,0.36,0.73,0.56,1.27c1.6,4.47,2.71,15.8,3.71,24.16" class="stroke" stroke-dasharray="150"><set attributeName="opacity" to="0" dur="5.1000000000000005s" /><animate attributeName="stroke-dashoffset" from="150" to="0" dur="1.8s" begin="5.1000000000000005s" fill="freeze" /></path><path d="M44.67,33.02c12.36-1.28,34.58-4.16,45.67-5.1c3.4-0.29,3.58,2.71,3.41,3.95c-0.63,4.53-2.5,14.7-4.55,22.51" class="stroke" stroke-dasharray="150"><set attributeName="opacity" to="0" dur="6.1000000000000005s" /><animate attributeName="stroke-dashoffset" from="150" to="0" dur="1.8s" begin="6.1000000000000005s" fill="freeze" /></path><path d="M66.31,31.84c0.94,0.41,1.51,1.86,1.51,2.91c0,5.19-0.09,11.81-0.02,19.19" class="stroke" stroke-dasharray="150"><set attributeName="opacity" to="0" dur="7.800000000000001s" /><animate attributeName="stroke-dashoffset" from="150" to="0" dur="1.8s" begin="7.800000000000001s" fill="freeze" /></path><path d="M46.59,45.01c9.95-1.22,19.96-2.08,29.94-3.06c1.2-0.12,2.37-0.23,3.49-0.34" class="stroke" stroke-dasharray="150"><set attributeName="opacity" to="0" dur="8.8s" /><animate attributeName="stroke-dashoffset" from="150" to="0" dur="1.8s" begin="8.8s" fill="freeze" /></path><path d="M47.92,56.14c11.39-1.3,29.08-2.94,41.37-3.88" class="stroke" stroke-dasharray="150"><set attributeName="opacity" to="0" dur="9.8s" /><animate attributeName="stroke-dashoffset" from="150" to="0" dur="1.8s" begin="9.8s" fill="freeze" /></path><path d="M51.56,66.64c0.61,0.69,1.18,2.49,1.22,3.4c0.42,8.73-0.03,15.21,0.23,28.46" class="stroke" stroke-dasharray="150"><set attributeName="opacity" to="0" dur="10.9s" /><animate attributeName="stroke-dashoffset" from="150" to="0" dur="1.8s" begin="10.9s" fill="freeze" /></path><path d="M52.98,68.21c3.45-0.11,25.49-2.92,28.63-3.06c2.62-0.11,3.28,1.34,3.28,3.4c0,6.2-0.14,13.45-0.68,27.98" class="stroke" stroke-dasharray="150"><set attributeName="opacity" to="0" dur="11.9s" /><animate attributeName="stroke-dashoffset" from="150" to="0" dur="1.8s" begin="11.9s" fill="freeze" /></path><path d="M53.91,81.48c6.09-0.48,9.92-0.8,14.81-1.31c1.57-0.16,3.14-0.33,4.66-0.48" class="stroke" stroke-dasharray="150"><set attributeName="opacity" to="0" dur="13.4s" /><animate attributeName="stroke-dashoffset" from="150" to="0" dur="1.8s" begin="13.4s" fill="freeze" /></path><path d="M54.44,95.77c9.24-0.45,18.56-2.02,29.5-2.42" class="stroke" stroke-dasharray="150"><set attributeName="opacity" to="0" dur="14.3s" /><animate attributeName="stroke-dashoffset" from="150" to="0" dur="1.8s" begin="14.3s" fill="freeze" /></path><text x="90" y="120" id="reset">⟳</text><text x="70" y="120" id="pause">◼</text><script type="text/javascript"><![CDATA[function RecurringTimer(e,t){var n,r,i=t;this.pause=function(){window.clearTimeout(n);i-=new Date-r};var s=function(){r=new Date;n=window.setTimeout(function(){i=t;s();e()},i)};this.clear=function(){window.clearTimeout(n);i=t;n=window.setTimeout(function(){i=t;s();e()},i)};this.resume=s;this.resume()}function invoketimer(){timer=new RecurringTimer(function(){svg.setCurrentTime(0)},16300)}var svg=document.getElementById("kanjivg");var pause=document.getElementById("pause");var reset=document.getElementById("reset");var timer;invoketimer();reset.onclick=function(){svg.setCurrentTime(0);timer.clear();svg.unpauseAnimations();pause.innerHTML = "◼";};pause.onclick=function(){if(svg.animationsPaused()){svg.unpauseAnimations();timer.resume();pause.innerHTML="◼"}else{svg.pauseAnimations();timer.pause();pause.innerHTML="▶"}}]]></script></svg>