<svg id="kanjivg" width="106" height="126" xmlns="http://www.w3.org/2000/svg" xmlns:xlink="http://www.w3.org/1999/xlink" xml:space="preserve" version="1.1" baseProfile="full"><defs><style type="text/css"><![CDATA[path.black { fill:none;stroke:black;stroke-width:5;stroke-linecap:round;stroke-linejoin:round; }path.grey { fill:none;stroke:#ddd;stroke-width:5;stroke-linecap:round;stroke-linejoin:round; }path.stroke { fill:none;stroke:black;stroke-width:5;stroke-linecap:round;stroke-linejoin:round; }rect { fill:none;stroke:#555;stroke-width:2;} text{font-size:16px;font-family:Segoe UI Symbol,Cambria Math,DejaVu Sans,Symbola,Quivira,STIX,Code2000;-webkit-touch-callout:none;cursor:pointer;-webkit-user-select:none;-khtml-user-select:none;-moz-user-select:none;-ms-user-select:none;user-select: none;} #reset { font-weight:bold; }]]></style><marker id="markerStart" markerWidth="8" markerHeight="8" style="overflow:visible;"><circle cx="0" cy="0" r="1.5" style="stroke:none;fill:red;fill-opacity:0.5;"/></marker><marker id="markerEnd" style="overflow:visible;"><circle cx="0" cy="0" r="0.8" style="stroke:none;fill:blue;fill-opacity:0.5;"><animate attributeName="opacity" from="1" to="0" dur="3s" repeatCount="indefinite" /></circle></marker></defs><rect x="4" y="4" width="100" height="100" /><path d="M21.5,24.31c1.29,0.45,2.8,0.54,4.1,0.45c11.9-0.82,43.4-3.37,57.12-3.43c2.16-0.01,3.45,0.21,4.53,0.44" class="grey" /><path d="M37.75,13.99c1.75,1.17,2.31,1.52,2.5,2.24C42,22.94,42.5,28.63,43,31.07" class="grey" /><path d="M67.32,13.25c0.38,0.86,0.78,1.48,0.45,2.56c-1.56,5.12-2.23,7.87-4.01,12.99" class="grey" /><path d="M32.52,35.96c0.48,0.44,1.35,1.91,1.44,2.49c0.65,4.43,2.48,13.95,2.48,14.24c0,0.29,0.16,0.29,0.32,0.88" class="grey" /><path d="M34.75,37.28c7.32-0.82,34.49-3.94,36.97-4.02c2.07-0.07,3.33,2.04,3.24,2.49c-0.67,3.53-2.77,12.23-3.91,15.87" class="grey" /><path d="M35.23,44.88c6.54-0.43,13.06-1.21,19.59-1.84c2.06-0.2,4.11-0.4,6.06-0.58" class="grey" /><path d="M36.93,52.34c7.51-0.32,24.57-1.57,33.93-1.84" class="grey" /><path d="M17.38,65.49c1.62,0.33,3.45,0.18,4.51,0.09c19.86-1.67,49.86-3.58,65.36-4.36c1.34-0.07,3.75-0.07,5.25-0.07" class="grey" /><path d="M45.66,54.93c-0.1,1.06,0.72,1.02,0.34,1.9C40.5,69.5,28.5,81,12.25,87" class="grey" /><path d="M59,59.1c6.5,1.9,23.87,20.49,30.77,24.57c2.35,1.39,3.16,1.6,4.23,1.73" class="grey" /><path d="M38.59,78.94c0.78,0.3,2.2,0.33,2.98,0.3c7.67-0.25,18.67-2.5,25.95-2.98c1.3-0.09,2.08,0.14,2.73,0.29" class="grey" /><path d="M52.77,69.12c0.1,0.23,1.41,1.21,1.41,2.69c0,9.52,0.21,7.39,0.21,19.98" class="grey" /><path d="M25.17,94.35c1.2,0.43,3.42,0.53,4.62,0.43c14.92-1.2,37.5-2.58,50.84-3.15c2.01-0.08,3.21,0.21,4.22,0.42" class="grey" /><path d="M21.5,24.31c1.29,0.45,2.8,0.54,4.1,0.45c11.9-0.82,43.4-3.37,57.12-3.43c2.16-0.01,3.45,0.21,4.53,0.44" class="stroke" stroke-dasharray="150"><animate attributeName="stroke-dashoffset" from="150" to="0" dur="1.8s" begin="0s" fill="freeze" /></path><path d="M37.75,13.99c1.75,1.17,2.31,1.52,2.5,2.24C42,22.94,42.5,28.63,43,31.07" class="stroke" stroke-dasharray="150"><set attributeName="opacity" to="0" dur="1.5s" /><animate attributeName="stroke-dashoffset" from="150" to="0" dur="1.8s" begin="1.5s" fill="freeze" /></path><path d="M67.32,13.25c0.38,0.86,0.78,1.48,0.45,2.56c-1.56,5.12-2.23,7.87-4.01,12.99" class="stroke" stroke-dasharray="150"><set attributeName="opacity" to="0" dur="2.4s" /><animate attributeName="stroke-dashoffset" from="150" to="0" dur="1.8s" begin="2.4s" fill="freeze" /></path><path d="M32.52,35.96c0.48,0.44,1.35,1.91,1.44,2.49c0.65,4.43,2.48,13.95,2.48,14.24c0,0.29,0.16,0.29,0.32,0.88" class="stroke" stroke-dasharray="150"><set attributeName="opacity" to="0" dur="3.3s" /><animate attributeName="stroke-dashoffset" from="150" to="0" dur="1.8s" begin="3.3s" fill="freeze" /></path><path d="M34.75,37.28c7.32-0.82,34.49-3.94,36.97-4.02c2.07-0.07,3.33,2.04,3.24,2.49c-0.67,3.53-2.77,12.23-3.91,15.87" class="stroke" stroke-dasharray="150"><set attributeName="opacity" to="0" dur="4.2s" /><animate attributeName="stroke-dashoffset" from="150" to="0" dur="1.8s" begin="4.2s" fill="freeze" /></path><path d="M35.23,44.88c6.54-0.43,13.06-1.21,19.59-1.84c2.06-0.2,4.11-0.4,6.06-0.58" class="stroke" stroke-dasharray="150"><set attributeName="opacity" to="0" dur="5.6s" /><animate attributeName="stroke-dashoffset" from="150" to="0" dur="1.8s" begin="5.6s" fill="freeze" /></path><path d="M36.93,52.34c7.51-0.32,24.57-1.57,33.93-1.84" class="stroke" stroke-dasharray="150"><set attributeName="opacity" to="0" dur="6.6s" /><animate attributeName="stroke-dashoffset" from="150" to="0" dur="1.8s" begin="6.6s" fill="freeze" /></path><path d="M17.38,65.49c1.62,0.33,3.45,0.18,4.51,0.09c19.86-1.67,49.86-3.58,65.36-4.36c1.34-0.07,3.75-0.07,5.25-0.07" class="stroke" stroke-dasharray="150"><set attributeName="opacity" to="0" dur="7.6s" /><animate attributeName="stroke-dashoffset" from="150" to="0" dur="1.8s" begin="7.6s" fill="freeze" /></path><path d="M45.66,54.93c-0.1,1.06,0.72,1.02,0.34,1.9C40.5,69.5,28.5,81,12.25,87" class="stroke" stroke-dasharray="150"><set attributeName="opacity" to="0" dur="9.299999999999999s" /><animate attributeName="stroke-dashoffset" from="150" to="0" dur="1.8s" begin="9.299999999999999s" fill="freeze" /></path><path d="M59,59.1c6.5,1.9,23.87,20.49,30.77,24.57c2.35,1.39,3.16,1.6,4.23,1.73" class="stroke" stroke-dasharray="150"><set attributeName="opacity" to="0" dur="10.499999999999998s" /><animate attributeName="stroke-dashoffset" from="150" to="0" dur="1.8s" begin="10.499999999999998s" fill="freeze" /></path><path d="M38.59,78.94c0.78,0.3,2.2,0.33,2.98,0.3c7.67-0.25,18.67-2.5,25.95-2.98c1.3-0.09,2.08,0.14,2.73,0.29" class="stroke" stroke-dasharray="150"><set attributeName="opacity" to="0" dur="11.599999999999998s" /><animate attributeName="stroke-dashoffset" from="150" to="0" dur="1.8s" begin="11.599999999999998s" fill="freeze" /></path><path d="M52.77,69.12c0.1,0.23,1.41,1.21,1.41,2.69c0,9.52,0.21,7.39,0.21,19.98" class="stroke" stroke-dasharray="150"><set attributeName="opacity" to="0" dur="12.599999999999998s" /><animate attributeName="stroke-dashoffset" from="150" to="0" dur="1.8s" begin="12.599999999999998s" fill="freeze" /></path><path d="M25.17,94.35c1.2,0.43,3.42,0.53,4.62,0.43c14.92-1.2,37.5-2.58,50.84-3.15c2.01-0.08,3.21,0.21,4.22,0.42" class="stroke" stroke-dasharray="150"><set attributeName="opacity" to="0" dur="13.599999999999998s" /><animate attributeName="stroke-dashoffset" from="150" to="0" dur="1.8s" begin="13.599999999999998s" fill="freeze" /></path><text x="90" y="120" id="reset">⟳</text><text x="70" y="120" id="pause">◼</text><script type="text/javascript"><![CDATA[function RecurringTimer(e,t){var n,r,i=t;this.pause=function(){window.clearTimeout(n);i-=new Date-r};var s=function(){r=new Date;n=window.setTimeout(function(){i=t;s();e()},i)};this.clear=function(){window.clearTimeout(n);i=t;n=window.setTimeout(function(){i=t;s();e()},i)};this.resume=s;this.resume()}function invoketimer(){timer=new RecurringTimer(function(){svg.setCurrentTime(0)},15999)}var svg=document.getElementById("kanjivg");var pause=document.getElementById("pause");var reset=document.getElementById("reset");var timer;invoketimer();reset.onclick=function(){svg.setCurrentTime(0);timer.clear();svg.unpauseAnimations();pause.innerHTML = "◼";};pause.onclick=function(){if(svg.animationsPaused()){svg.unpauseAnimations();timer.resume();pause.innerHTML="◼"}else{svg.pauseAnimations();timer.pause();pause.innerHTML="▶"}}]]></script></svg>