<svg id="kanjivg" width="106" height="126" xmlns="http://www.w3.org/2000/svg" xmlns:xlink="http://www.w3.org/1999/xlink" xml:space="preserve" version="1.1" baseProfile="full"><defs><style type="text/css"><![CDATA[path.black { fill:none;stroke:black;stroke-width:5;stroke-linecap:round;stroke-linejoin:round; }path.grey { fill:none;stroke:#ddd;stroke-width:5;stroke-linecap:round;stroke-linejoin:round; }path.stroke { fill:none;stroke:black;stroke-width:5;stroke-linecap:round;stroke-linejoin:round; }rect { fill:none;stroke:#555;stroke-width:2;} text{font-size:16px;font-family:Segoe UI Symbol,Cambria Math,DejaVu Sans,Symbola,Quivira,STIX,Code2000;-webkit-touch-callout:none;cursor:pointer;-webkit-user-select:none;-khtml-user-select:none;-moz-user-select:none;-ms-user-select:none;user-select: none;} #reset { font-weight:bold; }]]></style><marker id="markerStart" markerWidth="8" markerHeight="8" style="overflow:visible;"><circle cx="0" cy="0" r="1.5" style="stroke:none;fill:red;fill-opacity:0.5;"/></marker><marker id="markerEnd" style="overflow:visible;"><circle cx="0" cy="0" r="0.8" style="stroke:none;fill:blue;fill-opacity:0.5;"><animate attributeName="opacity" from="1" to="0" dur="3s" repeatCount="indefinite" /></circle></marker></defs><rect x="4" y="4" width="100" height="100" /><path d="M11.5,44.64c0.76,0.38,2.24,0.46,3,0.36c4.82-0.66,15.15-1.89,20.5-2.5c1.25-0.14,2.62-0.18,3.25,0.01" class="grey" /><path d="M23.37,18.5c1.09,0.5,1.96,2.23,1.96,3.25c0,7.25,0.03,38.75,0.03,49.5" class="grey" /><path d="M12,78.76c0.7,0.99,2.59,1.02,4.68-0.29c5.81-3.62,15.76-9.6,21.57-13.22" class="grey" /><path d="M65.66,20.17c4.91-0.93,10.9-2.01,15.45-2.68c1.54-0.23,2.48,0.2,3.25,0.42" class="grey" /><path d="M64.09,10.58c0.91,0.92,1.62,1.99,1.62,5.02c0,5.9-0.02,8.19-0.02,13.15" class="grey" /><path d="M45.18,30.18c0.54,0.58,1.05,2.74,1.1,4.82C46.75,57.25,46,77,32.5,93.75" class="grey" /><path d="M45.81,31.68c0.97,0.16,1.23,0.41,2.8,0.17c11.2-1.73,31.46-4.88,41.05-5.02c10.11-0.15,2.14,5.72-0.38,7.53" class="grey" /><path d="M52.63,43.69c0.65,0.37,2.24,0.45,2.9,0.37c6.72-0.81,20.1-2.57,27.13-3.47c1.08-0.14,1.73,0.18,2.28,0.36" class="grey" /><path d="M65.47,33.68c0.43,0.45,1.01,2.22,1.01,2.84c0,4.98-0.08,7.14-0.08,9.37c0,6.61,3.85,6.61,10.07,6.61c2.31,0,11.37,0,13.36-0.89" class="grey" /><path d="M51.86,65.99c0.61,0.4,1.03,1.87,1.08,3.2c0.09,2.4-0.17,6.24-0.56,11.05c-0.08,0.94,0.5,1.58,1.78,1.2c4.09-1.2,8.76-1.6,10.44-1.7" class="grey" /><path d="M63.14,58.33c0.76,0.86,1.29,1.87,1.35,4.73c0.31,13.72-0.2,26.23-0.2,30.9" class="grey" /><path d="M88.68,63.33c0.61,0.4,1.08,1.87,1.08,3.2c0,3.67-1.44,10-1.44,14.93" class="grey" /><path d="M87.4,77.82c-2.62,0.22-8.78,1.09-10.79,1.09" class="grey" /><path d="M74.6,58.58c0.75,0.85,1.27,1.85,1.33,4.66c0.31,13.52-0.19,25.37-0.19,29.97" class="grey" /><path d="M42.38,96.32c1.08,0.42,3.07,0.62,4.14,0.42c4.37-0.81,39.17-2.95,49.44-2.95c1.8,0,2.88,0.2,3.78,0.41" class="grey" /><path d="M11.5,44.64c0.76,0.38,2.24,0.46,3,0.36c4.82-0.66,15.15-1.89,20.5-2.5c1.25-0.14,2.62-0.18,3.25,0.01" class="stroke" stroke-dasharray="150"><animate attributeName="stroke-dashoffset" from="150" to="0" dur="1.8s" begin="0s" fill="freeze" /></path><path d="M23.37,18.5c1.09,0.5,1.96,2.23,1.96,3.25c0,7.25,0.03,38.75,0.03,49.5" class="stroke" stroke-dasharray="150"><set attributeName="opacity" to="0" dur="1.0s" /><animate attributeName="stroke-dashoffset" from="150" to="0" dur="1.8s" begin="1.0s" fill="freeze" /></path><path d="M12,78.76c0.7,0.99,2.59,1.02,4.68-0.29c5.81-3.62,15.76-9.6,21.57-13.22" class="stroke" stroke-dasharray="150"><set attributeName="opacity" to="0" dur="2.3s" /><animate attributeName="stroke-dashoffset" from="150" to="0" dur="1.8s" begin="2.3s" fill="freeze" /></path><path d="M65.66,20.17c4.91-0.93,10.9-2.01,15.45-2.68c1.54-0.23,2.48,0.2,3.25,0.42" class="stroke" stroke-dasharray="150"><set attributeName="opacity" to="0" dur="3.3s" /><animate attributeName="stroke-dashoffset" from="150" to="0" dur="1.8s" begin="3.3s" fill="freeze" /></path><path d="M64.09,10.58c0.91,0.92,1.62,1.99,1.62,5.02c0,5.9-0.02,8.19-0.02,13.15" class="stroke" stroke-dasharray="150"><set attributeName="opacity" to="0" dur="4.2s" /><animate attributeName="stroke-dashoffset" from="150" to="0" dur="1.8s" begin="4.2s" fill="freeze" /></path><path d="M45.18,30.18c0.54,0.58,1.05,2.74,1.1,4.82C46.75,57.25,46,77,32.5,93.75" class="stroke" stroke-dasharray="150"><set attributeName="opacity" to="0" dur="5.1000000000000005s" /><animate attributeName="stroke-dashoffset" from="150" to="0" dur="1.8s" begin="5.1000000000000005s" fill="freeze" /></path><path d="M45.81,31.68c0.97,0.16,1.23,0.41,2.8,0.17c11.2-1.73,31.46-4.88,41.05-5.02c10.11-0.15,2.14,5.72-0.38,7.53" class="stroke" stroke-dasharray="150"><set attributeName="opacity" to="0" dur="6.6000000000000005s" /><animate attributeName="stroke-dashoffset" from="150" to="0" dur="1.8s" begin="6.6000000000000005s" fill="freeze" /></path><path d="M52.63,43.69c0.65,0.37,2.24,0.45,2.9,0.37c6.72-0.81,20.1-2.57,27.13-3.47c1.08-0.14,1.73,0.18,2.28,0.36" class="stroke" stroke-dasharray="150"><set attributeName="opacity" to="0" dur="8.0s" /><animate attributeName="stroke-dashoffset" from="150" to="0" dur="1.8s" begin="8.0s" fill="freeze" /></path><path d="M65.47,33.68c0.43,0.45,1.01,2.22,1.01,2.84c0,4.98-0.08,7.14-0.08,9.37c0,6.61,3.85,6.61,10.07,6.61c2.31,0,11.37,0,13.36-0.89" class="stroke" stroke-dasharray="150"><set attributeName="opacity" to="0" dur="9.0s" /><animate attributeName="stroke-dashoffset" from="150" to="0" dur="1.8s" begin="9.0s" fill="freeze" /></path><path d="M51.86,65.99c0.61,0.4,1.03,1.87,1.08,3.2c0.09,2.4-0.17,6.24-0.56,11.05c-0.08,0.94,0.5,1.58,1.78,1.2c4.09-1.2,8.76-1.6,10.44-1.7" class="stroke" stroke-dasharray="150"><set attributeName="opacity" to="0" dur="10.1s" /><animate attributeName="stroke-dashoffset" from="150" to="0" dur="1.8s" begin="10.1s" fill="freeze" /></path><path d="M63.14,58.33c0.76,0.86,1.29,1.87,1.35,4.73c0.31,13.72-0.2,26.23-0.2,30.9" class="stroke" stroke-dasharray="150"><set attributeName="opacity" to="0" dur="11.1s" /><animate attributeName="stroke-dashoffset" from="150" to="0" dur="1.8s" begin="11.1s" fill="freeze" /></path><path d="M88.68,63.33c0.61,0.4,1.08,1.87,1.08,3.2c0,3.67-1.44,10-1.44,14.93" class="stroke" stroke-dasharray="150"><set attributeName="opacity" to="0" dur="12.1s" /><animate attributeName="stroke-dashoffset" from="150" to="0" dur="1.8s" begin="12.1s" fill="freeze" /></path><path d="M87.4,77.82c-2.62,0.22-8.78,1.09-10.79,1.09" class="stroke" stroke-dasharray="150"><set attributeName="opacity" to="0" dur="13.0s" /><animate attributeName="stroke-dashoffset" from="150" to="0" dur="1.8s" begin="13.0s" fill="freeze" /></path><path d="M74.6,58.58c0.75,0.85,1.27,1.85,1.33,4.66c0.31,13.52-0.19,25.37-0.19,29.97" class="stroke" stroke-dasharray="150"><set attributeName="opacity" to="0" dur="13.9s" /><animate attributeName="stroke-dashoffset" from="150" to="0" dur="1.8s" begin="13.9s" fill="freeze" /></path><path d="M42.38,96.32c1.08,0.42,3.07,0.62,4.14,0.42c4.37-0.81,39.17-2.95,49.44-2.95c1.8,0,2.88,0.2,3.78,0.41" class="stroke" stroke-dasharray="150"><set attributeName="opacity" to="0" dur="14.9s" /><animate attributeName="stroke-dashoffset" from="150" to="0" dur="1.8s" begin="14.9s" fill="freeze" /></path><text x="90" y="120" id="reset">⟳</text><text x="70" y="120" id="pause">◼</text><script type="text/javascript"><![CDATA[function RecurringTimer(e,t){var n,r,i=t;this.pause=function(){window.clearTimeout(n);i-=new Date-r};var s=function(){r=new Date;n=window.setTimeout(function(){i=t;s();e()},i)};this.clear=function(){window.clearTimeout(n);i=t;n=window.setTimeout(function(){i=t;s();e()},i)};this.resume=s;this.resume()}function invoketimer(){timer=new RecurringTimer(function(){svg.setCurrentTime(0)},17300)}var svg=document.getElementById("kanjivg");var pause=document.getElementById("pause");var reset=document.getElementById("reset");var timer;invoketimer();reset.onclick=function(){svg.setCurrentTime(0);timer.clear();svg.unpauseAnimations();pause.innerHTML = "◼";};pause.onclick=function(){if(svg.animationsPaused()){svg.unpauseAnimations();timer.resume();pause.innerHTML="◼"}else{svg.pauseAnimations();timer.pause();pause.innerHTML="▶"}}]]></script></svg>