<svg id="kanjivg" width="106" height="126" xmlns="http://www.w3.org/2000/svg" xmlns:xlink="http://www.w3.org/1999/xlink" xml:space="preserve" version="1.1" baseProfile="full"><defs><style type="text/css"><![CDATA[path.black { fill:none;stroke:black;stroke-width:5;stroke-linecap:round;stroke-linejoin:round; }path.grey { fill:none;stroke:#ddd;stroke-width:5;stroke-linecap:round;stroke-linejoin:round; }path.stroke { fill:none;stroke:black;stroke-width:5;stroke-linecap:round;stroke-linejoin:round; }rect { fill:none;stroke:#555;stroke-width:2;} text{font-size:16px;font-family:Segoe UI Symbol,Cambria Math,DejaVu Sans,Symbola,Quivira,STIX,Code2000;-webkit-touch-callout:none;cursor:pointer;-webkit-user-select:none;-khtml-user-select:none;-moz-user-select:none;-ms-user-select:none;user-select: none;} #reset { font-weight:bold; }]]></style><marker id="markerStart" markerWidth="8" markerHeight="8" style="overflow:visible;"><circle cx="0" cy="0" r="1.5" style="stroke:none;fill:red;fill-opacity:0.5;"/></marker><marker id="markerEnd" style="overflow:visible;"><circle cx="0" cy="0" r="0.8" style="stroke:none;fill:blue;fill-opacity:0.5;"><animate attributeName="opacity" from="1" to="0" dur="3s" repeatCount="indefinite" /></circle></marker></defs><rect x="4" y="4" width="100" height="100" /><path d="M12.5,46.64c0.76,0.38,2.24,0.46,3,0.36c4.82-0.66,12.38-1.75,18.75-3.25c1.23-0.29,2.87-0.43,3.5-0.24" class="grey" /><path d="M26.37,21.5c0.94,0.94,1.46,2.38,1.46,4c0,7.25,0.03,35.38,0.03,46.75" class="grey" /><path d="M13.14,80.21c0.77,0.59,2.23,0.79,3.71-0.24C22.67,75.92,32.8,68.22,38.5,64" class="grey" /><path d="M49.01,13.8c3.15,2.15,8.14,8.86,8.93,12.21" class="grey" /><path d="M82.07,10.81c0.09,1.06-0.11,1.55-0.63,2.54c-1.66,3.16-4.94,7.47-9.69,11.78" class="grey" /><path d="M42.51,32.19c0.77,0.77,1.24,2.06,1.42,3.18c1.02,6.27,2.08,11.51,2.87,18.38c0.16,1.42,0.32,2.81,0.48,4.12" class="grey" /><path d="M44.67,33.02c12.42-1.71,33.19-4.01,44.57-5c2.75-0.24,4.95,0.71,4.51,3.85c-0.51,3.69-1.6,11.11-3.18,17.96c-0.36,1.56-0.74,3.1-1.12,4.55" class="grey" /><path d="M66.56,31.84c0.68,0.68,1.26,1.66,1.26,2.91c0,5.19-0.09,11.81-0.02,19.19" class="grey" /><path d="M46.84,44.51C57.38,43,84.38,40.5,90.97,40.32" class="grey" /><path d="M47.92,56.14C60.5,54.5,76.5,53.2,88.79,52.26" class="grey" /><path d="M51.56,66.64c0.78,0.78,1.22,1.99,1.22,3.4c0,7.71-0.03,18.59-0.03,23.46c0,1.49-0.03,3.31,0,5" class="grey" /><path d="M53.73,67.96c6.65-0.71,24.49-2.67,27.63-2.81c2.62-0.11,3.28,1.34,3.28,3.4c0,5.45,0.01,19.57,0.01,22.96c0,1.65-0.12,3.4-0.19,5.27" class="grey" /><path d="M53.91,81.23c5.59-0.6,24.3-2.63,29.58-2.63" class="grey" /><path d="M54.19,95.52C64.5,94.75,72,93.75,82.94,93.36" class="grey" /><path d="M12.5,46.64c0.76,0.38,2.24,0.46,3,0.36c4.82-0.66,12.38-1.75,18.75-3.25c1.23-0.29,2.87-0.43,3.5-0.24" class="stroke" stroke-dasharray="150"><animate attributeName="stroke-dashoffset" from="150" to="0" dur="1.8s" begin="0s" fill="freeze" /></path><path d="M26.37,21.5c0.94,0.94,1.46,2.38,1.46,4c0,7.25,0.03,35.38,0.03,46.75" class="stroke" stroke-dasharray="150"><set attributeName="opacity" to="0" dur="1.0s" /><animate attributeName="stroke-dashoffset" from="150" to="0" dur="1.8s" begin="1.0s" fill="freeze" /></path><path d="M13.14,80.21c0.77,0.59,2.23,0.79,3.71-0.24C22.67,75.92,32.8,68.22,38.5,64" class="stroke" stroke-dasharray="150"><set attributeName="opacity" to="0" dur="2.3s" /><animate attributeName="stroke-dashoffset" from="150" to="0" dur="1.8s" begin="2.3s" fill="freeze" /></path><path d="M49.01,13.8c3.15,2.15,8.14,8.86,8.93,12.21" class="stroke" stroke-dasharray="150"><set attributeName="opacity" to="0" dur="3.3s" /><animate attributeName="stroke-dashoffset" from="150" to="0" dur="1.8s" begin="3.3s" fill="freeze" /></path><path d="M82.07,10.81c0.09,1.06-0.11,1.55-0.63,2.54c-1.66,3.16-4.94,7.47-9.69,11.78" class="stroke" stroke-dasharray="150"><set attributeName="opacity" to="0" dur="4.2s" /><animate attributeName="stroke-dashoffset" from="150" to="0" dur="1.8s" begin="4.2s" fill="freeze" /></path><path d="M42.51,32.19c0.77,0.77,1.24,2.06,1.42,3.18c1.02,6.27,2.08,11.51,2.87,18.38c0.16,1.42,0.32,2.81,0.48,4.12" class="stroke" stroke-dasharray="150"><set attributeName="opacity" to="0" dur="5.1000000000000005s" /><animate attributeName="stroke-dashoffset" from="150" to="0" dur="1.8s" begin="5.1000000000000005s" fill="freeze" /></path><path d="M44.67,33.02c12.42-1.71,33.19-4.01,44.57-5c2.75-0.24,4.95,0.71,4.51,3.85c-0.51,3.69-1.6,11.11-3.18,17.96c-0.36,1.56-0.74,3.1-1.12,4.55" class="stroke" stroke-dasharray="150"><set attributeName="opacity" to="0" dur="6.1000000000000005s" /><animate attributeName="stroke-dashoffset" from="150" to="0" dur="1.8s" begin="6.1000000000000005s" fill="freeze" /></path><path d="M66.56,31.84c0.68,0.68,1.26,1.66,1.26,2.91c0,5.19-0.09,11.81-0.02,19.19" class="stroke" stroke-dasharray="150"><set attributeName="opacity" to="0" dur="7.800000000000001s" /><animate attributeName="stroke-dashoffset" from="150" to="0" dur="1.8s" begin="7.800000000000001s" fill="freeze" /></path><path d="M46.84,44.51C57.38,43,84.38,40.5,90.97,40.32" class="stroke" stroke-dasharray="150"><set attributeName="opacity" to="0" dur="8.8s" /><animate attributeName="stroke-dashoffset" from="150" to="0" dur="1.8s" begin="8.8s" fill="freeze" /></path><path d="M47.92,56.14C60.5,54.5,76.5,53.2,88.79,52.26" class="stroke" stroke-dasharray="150"><set attributeName="opacity" to="0" dur="9.9s" /><animate attributeName="stroke-dashoffset" from="150" to="0" dur="1.8s" begin="9.9s" fill="freeze" /></path><path d="M51.56,66.64c0.78,0.78,1.22,1.99,1.22,3.4c0,7.71-0.03,18.59-0.03,23.46c0,1.49-0.03,3.31,0,5" class="stroke" stroke-dasharray="150"><set attributeName="opacity" to="0" dur="11.0s" /><animate attributeName="stroke-dashoffset" from="150" to="0" dur="1.8s" begin="11.0s" fill="freeze" /></path><path d="M53.73,67.96c6.65-0.71,24.49-2.67,27.63-2.81c2.62-0.11,3.28,1.34,3.28,3.4c0,5.45,0.01,19.57,0.01,22.96c0,1.65-0.12,3.4-0.19,5.27" class="stroke" stroke-dasharray="150"><set attributeName="opacity" to="0" dur="12.0s" /><animate attributeName="stroke-dashoffset" from="150" to="0" dur="1.8s" begin="12.0s" fill="freeze" /></path><path d="M53.91,81.23c5.59-0.6,24.3-2.63,29.58-2.63" class="stroke" stroke-dasharray="150"><set attributeName="opacity" to="0" dur="13.5s" /><animate attributeName="stroke-dashoffset" from="150" to="0" dur="1.8s" begin="13.5s" fill="freeze" /></path><path d="M54.19,95.52C64.5,94.75,72,93.75,82.94,93.36" class="stroke" stroke-dasharray="150"><set attributeName="opacity" to="0" dur="14.5s" /><animate attributeName="stroke-dashoffset" from="150" to="0" dur="1.8s" begin="14.5s" fill="freeze" /></path><text x="90" y="120" id="reset">⟳</text><text x="70" y="120" id="pause">◼</text><script type="text/javascript"><![CDATA[function RecurringTimer(e,t){var n,r,i=t;this.pause=function(){window.clearTimeout(n);i-=new Date-r};var s=function(){r=new Date;n=window.setTimeout(function(){i=t;s();e()},i)};this.clear=function(){window.clearTimeout(n);i=t;n=window.setTimeout(function(){i=t;s();e()},i)};this.resume=s;this.resume()}function invoketimer(){timer=new RecurringTimer(function(){svg.setCurrentTime(0)},16500)}var svg=document.getElementById("kanjivg");var pause=document.getElementById("pause");var reset=document.getElementById("reset");var timer;invoketimer();reset.onclick=function(){svg.setCurrentTime(0);timer.clear();svg.unpauseAnimations();pause.innerHTML = "◼";};pause.onclick=function(){if(svg.animationsPaused()){svg.unpauseAnimations();timer.resume();pause.innerHTML="◼"}else{svg.pauseAnimations();timer.pause();pause.innerHTML="▶"}}]]></script></svg>