<svg id="kanjivg" width="106" height="126" xmlns="http://www.w3.org/2000/svg" xmlns:xlink="http://www.w3.org/1999/xlink" xml:space="preserve" version="1.1" baseProfile="full"><defs><style type="text/css"><![CDATA[path.black { fill:none;stroke:black;stroke-width:5;stroke-linecap:round;stroke-linejoin:round; }path.grey { fill:none;stroke:#ddd;stroke-width:5;stroke-linecap:round;stroke-linejoin:round; }path.stroke { fill:none;stroke:black;stroke-width:5;stroke-linecap:round;stroke-linejoin:round; }rect { fill:none;stroke:#555;stroke-width:2;} text{font-size:16px;font-family:Segoe UI Symbol,Cambria Math,DejaVu Sans,Symbola,Quivira,STIX,Code2000;-webkit-touch-callout:none;cursor:pointer;-webkit-user-select:none;-khtml-user-select:none;-moz-user-select:none;-ms-user-select:none;user-select: none;} #reset { font-weight:bold; }]]></style><marker id="markerStart" markerWidth="8" markerHeight="8" style="overflow:visible;"><circle cx="0" cy="0" r="1.5" style="stroke:none;fill:red;fill-opacity:0.5;"/></marker><marker id="markerEnd" style="overflow:visible;"><circle cx="0" cy="0" r="0.8" style="stroke:none;fill:blue;fill-opacity:0.5;"><animate attributeName="opacity" from="1" to="0" dur="3s" repeatCount="indefinite" /></circle></marker></defs><rect x="4" y="4" width="100" height="100" /><path d="M21.5,24.06c2.88,0.57,5.23,0.71,7.75,0.43c13.2-1.45,35.2-2.99,48.63-3.34c2.96-0.08,5.96-0.24,8.87,0.37" class="grey" /><path d="M39,14.49c0.69,0.69,1.32,1.88,1.5,2.99c0.75,4.53,1.5,8.15,2.25,13.35" class="grey" /><path d="M67.32,13c0.38,0.86,0.53,2.23,0.2,3.31c-1.56,5.12-1.98,7.37-3.76,12.49" class="grey" /><path d="M32.27,35.96c0.58,0.58,1.06,1.67,1.19,2.24c0.8,3.55,2.02,9.09,2.59,12.25c0.24,1.3,0.55,2.54,0.71,3.13" class="grey" /><path d="M34.5,37.28c7.85-1.26,29.83-3.83,36.01-4.41c3.01-0.28,4.92,1.28,4.28,4.66c-0.56,2.97-1.82,7.15-2.81,10.85c-0.34,1.26-0.65,2.38-0.92,3.23" class="grey" /><path d="M36.23,44.88C46.88,43.5,65,41.38,72.71,41.23" class="grey" /><path d="M37.93,52.84C47,52,61.25,50.52,70.61,50.25" class="grey" /><path d="M16.62,64.99c4.36,0.89,8.87,0.48,13.26,0.14c16.36-1.27,38.74-3.13,53.5-3.53c4.3-0.12,6.62,0.02,10.86,0.55" class="grey" /><path d="M45.91,55.93c0.09,1.19-0.21,2.31-0.66,3.15C38.62,71.25,28,81.25,12.75,87.25" class="grey" /><path d="M59,59.1c6.5,1.9,23.87,20.49,30.77,24.57c2.35,1.39,3.16,1.6,4.23,1.73" class="grey" /><path d="M38.59,78.69c2.28,0.56,4.05,0.2,5.91,0c6.99-0.76,14.51-1.73,20.62-2.24c1.74-0.15,3.4-0.29,5.12,0.11" class="grey" /><path d="M53.27,69.12c0.81,0.81,1.16,1.96,1.16,3.44c0,9.52-0.04,12.95-0.04,19.23" class="grey" /><path d="M25.17,94.35c2.71,0.28,5.59,0.35,8.21,0.14c13.57-1.08,29.5-2.49,44.38-2.72c2.4-0.04,4.99,0.03,7.34,0.53" class="grey" /><path d="M21.5,24.06c2.88,0.57,5.23,0.71,7.75,0.43c13.2-1.45,35.2-2.99,48.63-3.34c2.96-0.08,5.96-0.24,8.87,0.37" class="stroke" stroke-dasharray="150"><animate attributeName="stroke-dashoffset" from="150" to="0" dur="1.8s" begin="0s" fill="freeze" /></path><path d="M39,14.49c0.69,0.69,1.32,1.88,1.5,2.99c0.75,4.53,1.5,8.15,2.25,13.35" class="stroke" stroke-dasharray="150"><set attributeName="opacity" to="0" dur="1.5s" /><animate attributeName="stroke-dashoffset" from="150" to="0" dur="1.8s" begin="1.5s" fill="freeze" /></path><path d="M67.32,13c0.38,0.86,0.53,2.23,0.2,3.31c-1.56,5.12-1.98,7.37-3.76,12.49" class="stroke" stroke-dasharray="150"><set attributeName="opacity" to="0" dur="2.4s" /><animate attributeName="stroke-dashoffset" from="150" to="0" dur="1.8s" begin="2.4s" fill="freeze" /></path><path d="M32.27,35.96c0.58,0.58,1.06,1.67,1.19,2.24c0.8,3.55,2.02,9.09,2.59,12.25c0.24,1.3,0.55,2.54,0.71,3.13" class="stroke" stroke-dasharray="150"><set attributeName="opacity" to="0" dur="3.3s" /><animate attributeName="stroke-dashoffset" from="150" to="0" dur="1.8s" begin="3.3s" fill="freeze" /></path><path d="M34.5,37.28c7.85-1.26,29.83-3.83,36.01-4.41c3.01-0.28,4.92,1.28,4.28,4.66c-0.56,2.97-1.82,7.15-2.81,10.85c-0.34,1.26-0.65,2.38-0.92,3.23" class="stroke" stroke-dasharray="150"><set attributeName="opacity" to="0" dur="4.2s" /><animate attributeName="stroke-dashoffset" from="150" to="0" dur="1.8s" begin="4.2s" fill="freeze" /></path><path d="M36.23,44.88C46.88,43.5,65,41.38,72.71,41.23" class="stroke" stroke-dasharray="150"><set attributeName="opacity" to="0" dur="5.6s" /><animate attributeName="stroke-dashoffset" from="150" to="0" dur="1.8s" begin="5.6s" fill="freeze" /></path><path d="M37.93,52.84C47,52,61.25,50.52,70.61,50.25" class="stroke" stroke-dasharray="150"><set attributeName="opacity" to="0" dur="6.6s" /><animate attributeName="stroke-dashoffset" from="150" to="0" dur="1.8s" begin="6.6s" fill="freeze" /></path><path d="M16.62,64.99c4.36,0.89,8.87,0.48,13.26,0.14c16.36-1.27,38.74-3.13,53.5-3.53c4.3-0.12,6.62,0.02,10.86,0.55" class="stroke" stroke-dasharray="150"><set attributeName="opacity" to="0" dur="7.6s" /><animate attributeName="stroke-dashoffset" from="150" to="0" dur="1.8s" begin="7.6s" fill="freeze" /></path><path d="M45.91,55.93c0.09,1.19-0.21,2.31-0.66,3.15C38.62,71.25,28,81.25,12.75,87.25" class="stroke" stroke-dasharray="150"><set attributeName="opacity" to="0" dur="9.299999999999999s" /><animate attributeName="stroke-dashoffset" from="150" to="0" dur="1.8s" begin="9.299999999999999s" fill="freeze" /></path><path d="M59,59.1c6.5,1.9,23.87,20.49,30.77,24.57c2.35,1.39,3.16,1.6,4.23,1.73" class="stroke" stroke-dasharray="150"><set attributeName="opacity" to="0" dur="10.499999999999998s" /><animate attributeName="stroke-dashoffset" from="150" to="0" dur="1.8s" begin="10.499999999999998s" fill="freeze" /></path><path d="M38.59,78.69c2.28,0.56,4.05,0.2,5.91,0c6.99-0.76,14.51-1.73,20.62-2.24c1.74-0.15,3.4-0.29,5.12,0.11" class="stroke" stroke-dasharray="150"><set attributeName="opacity" to="0" dur="11.599999999999998s" /><animate attributeName="stroke-dashoffset" from="150" to="0" dur="1.8s" begin="11.599999999999998s" fill="freeze" /></path><path d="M53.27,69.12c0.81,0.81,1.16,1.96,1.16,3.44c0,9.52-0.04,12.95-0.04,19.23" class="stroke" stroke-dasharray="150"><set attributeName="opacity" to="0" dur="12.599999999999998s" /><animate attributeName="stroke-dashoffset" from="150" to="0" dur="1.8s" begin="12.599999999999998s" fill="freeze" /></path><path d="M25.17,94.35c2.71,0.28,5.59,0.35,8.21,0.14c13.57-1.08,29.5-2.49,44.38-2.72c2.4-0.04,4.99,0.03,7.34,0.53" class="stroke" stroke-dasharray="150"><set attributeName="opacity" to="0" dur="13.599999999999998s" /><animate attributeName="stroke-dashoffset" from="150" to="0" dur="1.8s" begin="13.599999999999998s" fill="freeze" /></path><text x="90" y="120" id="reset">⟳</text><text x="70" y="120" id="pause">◼</text><script type="text/javascript"><![CDATA[function RecurringTimer(e,t){var n,r,i=t;this.pause=function(){window.clearTimeout(n);i-=new Date-r};var s=function(){r=new Date;n=window.setTimeout(function(){i=t;s();e()},i)};this.clear=function(){window.clearTimeout(n);i=t;n=window.setTimeout(function(){i=t;s();e()},i)};this.resume=s;this.resume()}function invoketimer(){timer=new RecurringTimer(function(){svg.setCurrentTime(0)},16099)}var svg=document.getElementById("kanjivg");var pause=document.getElementById("pause");var reset=document.getElementById("reset");var timer;invoketimer();reset.onclick=function(){svg.setCurrentTime(0);timer.clear();svg.unpauseAnimations();pause.innerHTML = "◼";};pause.onclick=function(){if(svg.animationsPaused()){svg.unpauseAnimations();timer.resume();pause.innerHTML="◼"}else{svg.pauseAnimations();timer.pause();pause.innerHTML="▶"}}]]></script></svg>