<svg id="kanjivg" width="106" height="126" xmlns="http://www.w3.org/2000/svg" xmlns:xlink="http://www.w3.org/1999/xlink" xml:space="preserve" version="1.1" baseProfile="full"><defs><style type="text/css"><![CDATA[path.black { fill:none;stroke:black;stroke-width:5;stroke-linecap:round;stroke-linejoin:round; }path.grey { fill:none;stroke:#ddd;stroke-width:5;stroke-linecap:round;stroke-linejoin:round; }path.stroke { fill:none;stroke:black;stroke-width:5;stroke-linecap:round;stroke-linejoin:round; }rect { fill:none;stroke:#555;stroke-width:2;} text{font-size:16px;font-family:Segoe UI Symbol,Cambria Math,DejaVu Sans,Symbola,Quivira,STIX,Code2000;-webkit-touch-callout:none;cursor:pointer;-webkit-user-select:none;-khtml-user-select:none;-moz-user-select:none;-ms-user-select:none;user-select: none;} #reset { font-weight:bold; }]]></style><marker id="markerStart" markerWidth="8" markerHeight="8" style="overflow:visible;"><circle cx="0" cy="0" r="1.5" style="stroke:none;fill:red;fill-opacity:0.5;"/></marker><marker id="markerEnd" style="overflow:visible;"><circle cx="0" cy="0" r="0.8" style="stroke:none;fill:blue;fill-opacity:0.5;"><animate attributeName="opacity" from="1" to="0" dur="3s" repeatCount="indefinite" /></circle></marker></defs><rect x="4" y="4" width="100" height="100" /><path d="M19.04,19.33c0.96,0.55,2.57,0.65,4.15,0.34c5.23-1.05,8.86-1.76,10.98-2.33c2.79-0.75,4.5,1.77,3.41,3.61c-1.58,2.68-5.21,8.93-7.93,13.2" class="grey" /><path d="M29.15,34.65c13.6,7.1,10.1,28.35,0.45,21.29" class="grey" /><path d="M20.62,20.52c0.68,0.68,0.82,1.73,0.82,3.18c0,3.28,0.05,28.63,0.06,41.8c0,4.63,0,7.79-0.01,8" class="grey" /><path d="M50.21,13.47c2.12,1.58,5.46,6.5,6,8.96" class="grey" /><path d="M74.9,12.18c0.07,0.81-0.04,1.2-0.41,1.93c-1.31,2.62-2.49,4.69-5.36,8.13" class="grey" /><path d="M42.85,27.81c2.77,0.44,4.66,0.16,6.8-0.12c7.01-0.91,20.79-2.72,31.35-3.44c2.31-0.16,4.64-0.42,6.92,0.06" class="grey" /><path d="M60.08,28.72c0.13,0.9-0.1,1.29-0.69,2.01c-2.18,2.69-7.22,6.46-15.03,10.59" class="grey" /><path d="M58.91,35.33c6.97,4.54,13.09,20.42,7.42,31.59c-1.79,3.51-5.07,1.33-6.27,0.03" class="grey" /><path d="M60.38,39.32c0.11,0.74-0.06,1.39-0.51,1.96c-1.82,2.76-7.68,7.64-15.44,10.73" class="grey" /><path d="M64.08,47.03c0.13,0.89-0.05,1.61-0.53,2.37c-2.29,3.62-10.78,10.13-21.23,14.36" class="grey" /><path d="M79.58,32.38c0.1,0.82-0.2,1.67-0.74,2.29c-2.46,2.83-3.96,4.08-9.59,8.08" class="grey" /><path d="M68.33,45.62C72,48,79.17,54.62,84.48,58.53c1.79,1.32,3.78,3.06,6.02,3.49" class="grey" /><path d="M29.6,82.17c1.92,0.77,4.77,0.52,6.77,0.3c10.92-1.17,25.35-2.44,36.38-2.94c2.2-0.1,4.38-0.26,6.54,0.26" class="grey" /><path d="M53.27,70.37c0.99,0.99,1.23,2.51,1.23,3.89c0,4.75,0,12.88,0,18.25" class="grey" /><path d="M19.13,94.98c2.67,0.97,6.32,0.73,9.11,0.52c16.89-1.3,40.46-2.56,56.14-3.27c3.05-0.14,6.26,0.19,9.25,0.85" class="grey" /><path d="M19.04,19.33c0.96,0.55,2.57,0.65,4.15,0.34c5.23-1.05,8.86-1.76,10.98-2.33c2.79-0.75,4.5,1.77,3.41,3.61c-1.58,2.68-5.21,8.93-7.93,13.2" class="stroke" stroke-dasharray="150"><animate attributeName="stroke-dashoffset" from="150" to="0" dur="1.8s" begin="0s" fill="freeze" /></path><path d="M29.15,34.65c13.6,7.1,10.1,28.35,0.45,21.29" class="stroke" stroke-dasharray="150"><set attributeName="opacity" to="0" dur="1.0s" /><animate attributeName="stroke-dashoffset" from="150" to="0" dur="1.8s" begin="1.0s" fill="freeze" /></path><path d="M20.62,20.52c0.68,0.68,0.82,1.73,0.82,3.18c0,3.28,0.05,28.63,0.06,41.8c0,4.63,0,7.79-0.01,8" class="stroke" stroke-dasharray="150"><set attributeName="opacity" to="0" dur="2.0s" /><animate attributeName="stroke-dashoffset" from="150" to="0" dur="1.8s" begin="2.0s" fill="freeze" /></path><path d="M50.21,13.47c2.12,1.58,5.46,6.5,6,8.96" class="stroke" stroke-dasharray="150"><set attributeName="opacity" to="0" dur="3.3s" /><animate attributeName="stroke-dashoffset" from="150" to="0" dur="1.8s" begin="3.3s" fill="freeze" /></path><path d="M74.9,12.18c0.07,0.81-0.04,1.2-0.41,1.93c-1.31,2.62-2.49,4.69-5.36,8.13" class="stroke" stroke-dasharray="150"><set attributeName="opacity" to="0" dur="4.2s" /><animate attributeName="stroke-dashoffset" from="150" to="0" dur="1.8s" begin="4.2s" fill="freeze" /></path><path d="M42.85,27.81c2.77,0.44,4.66,0.16,6.8-0.12c7.01-0.91,20.79-2.72,31.35-3.44c2.31-0.16,4.64-0.42,6.92,0.06" class="stroke" stroke-dasharray="150"><set attributeName="opacity" to="0" dur="5.1000000000000005s" /><animate attributeName="stroke-dashoffset" from="150" to="0" dur="1.8s" begin="5.1000000000000005s" fill="freeze" /></path><path d="M60.08,28.72c0.13,0.9-0.1,1.29-0.69,2.01c-2.18,2.69-7.22,6.46-15.03,10.59" class="stroke" stroke-dasharray="150"><set attributeName="opacity" to="0" dur="6.300000000000001s" /><animate attributeName="stroke-dashoffset" from="150" to="0" dur="1.8s" begin="6.300000000000001s" fill="freeze" /></path><path d="M58.91,35.33c6.97,4.54,13.09,20.42,7.42,31.59c-1.79,3.51-5.07,1.33-6.27,0.03" class="stroke" stroke-dasharray="150"><set attributeName="opacity" to="0" dur="7.300000000000001s" /><animate attributeName="stroke-dashoffset" from="150" to="0" dur="1.8s" begin="7.300000000000001s" fill="freeze" /></path><path d="M60.38,39.32c0.11,0.74-0.06,1.39-0.51,1.96c-1.82,2.76-7.68,7.64-15.44,10.73" class="stroke" stroke-dasharray="150"><set attributeName="opacity" to="0" dur="8.4s" /><animate attributeName="stroke-dashoffset" from="150" to="0" dur="1.8s" begin="8.4s" fill="freeze" /></path><path d="M64.08,47.03c0.13,0.89-0.05,1.61-0.53,2.37c-2.29,3.62-10.78,10.13-21.23,14.36" class="stroke" stroke-dasharray="150"><set attributeName="opacity" to="0" dur="9.4s" /><animate attributeName="stroke-dashoffset" from="150" to="0" dur="1.8s" begin="9.4s" fill="freeze" /></path><path d="M79.58,32.38c0.1,0.82-0.2,1.67-0.74,2.29c-2.46,2.83-3.96,4.08-9.59,8.08" class="stroke" stroke-dasharray="150"><set attributeName="opacity" to="0" dur="10.4s" /><animate attributeName="stroke-dashoffset" from="150" to="0" dur="1.8s" begin="10.4s" fill="freeze" /></path><path d="M68.33,45.62C72,48,79.17,54.62,84.48,58.53c1.79,1.32,3.78,3.06,6.02,3.49" class="stroke" stroke-dasharray="150"><set attributeName="opacity" to="0" dur="11.3s" /><animate attributeName="stroke-dashoffset" from="150" to="0" dur="1.8s" begin="11.3s" fill="freeze" /></path><path d="M29.6,82.17c1.92,0.77,4.77,0.52,6.77,0.3c10.92-1.17,25.35-2.44,36.38-2.94c2.2-0.1,4.38-0.26,6.54,0.26" class="stroke" stroke-dasharray="150"><set attributeName="opacity" to="0" dur="12.3s" /><animate attributeName="stroke-dashoffset" from="150" to="0" dur="1.8s" begin="12.3s" fill="freeze" /></path><path d="M53.27,70.37c0.99,0.99,1.23,2.51,1.23,3.89c0,4.75,0,12.88,0,18.25" class="stroke" stroke-dasharray="150"><set attributeName="opacity" to="0" dur="13.5s" /><animate attributeName="stroke-dashoffset" from="150" to="0" dur="1.8s" begin="13.5s" fill="freeze" /></path><path d="M19.13,94.98c2.67,0.97,6.32,0.73,9.11,0.52c16.89-1.3,40.46-2.56,56.14-3.27c3.05-0.14,6.26,0.19,9.25,0.85" class="stroke" stroke-dasharray="150"><set attributeName="opacity" to="0" dur="14.5s" /><animate attributeName="stroke-dashoffset" from="150" to="0" dur="1.8s" begin="14.5s" fill="freeze" /></path><text x="90" y="120" id="reset">⟳</text><text x="70" y="120" id="pause">◼</text><script type="text/javascript"><![CDATA[function RecurringTimer(e,t){var n,r,i=t;this.pause=function(){window.clearTimeout(n);i-=new Date-r};var s=function(){r=new Date;n=window.setTimeout(function(){i=t;s();e()},i)};this.clear=function(){window.clearTimeout(n);i=t;n=window.setTimeout(function(){i=t;s();e()},i)};this.resume=s;this.resume()}function invoketimer(){timer=new RecurringTimer(function(){svg.setCurrentTime(0)},17200)}var svg=document.getElementById("kanjivg");var pause=document.getElementById("pause");var reset=document.getElementById("reset");var timer;invoketimer();reset.onclick=function(){svg.setCurrentTime(0);timer.clear();svg.unpauseAnimations();pause.innerHTML = "◼";};pause.onclick=function(){if(svg.animationsPaused()){svg.unpauseAnimations();timer.resume();pause.innerHTML="◼"}else{svg.pauseAnimations();timer.pause();pause.innerHTML="▶"}}]]></script></svg>